<?xml version="1.0" encoding="UTF-8"?>
<svg xmlns="http://www.w3.org/2000/svg" xml:space="preserve" width="0.747327in" height="0.747335in" version="1.1" style="shape-rendering:geometricPrecision; text-rendering:geometricPrecision; image-rendering:optimizeQuality; fill-rule:evenodd; clip-rule:evenodd"
viewBox="0 0 83.33 83.33"
 xmlns:xlink="http://www.w3.org/1999/xlink"
 xmlns:xodm="http://www.corel.com/coreldraw/odm/2003">
 <defs>
  <style type="text/css">
   <![CDATA[
    .fil0 {fill:black;fill-rule:nonzero}
   ]]>
  </style>
 </defs>
 <g id="Layer_x0020_1">
  <metadata id="CorelCorpID_0Corel-Layer"/>
  <path class="fil0" d="M82.12 44.01l-0.02 -0.02 0 -0 0.01 0.02zm-0.37 -0.77c-0.48,0.06 -1.06,0.17 -1.55,0.1 -0.51,-0.07 -0.67,0.59 -0.19,0.77 0.26,0.1 1.31,0.29 2.1,0.24 -0.05,0.71 -0.11,1.41 -0.19,2.11 -0.57,-0.09 -1.25,-0.02 -1.63,-0.03 -0.4,-0 -0.55,0.58 -0.19,0.77 0.36,0.18 0.75,0.19 1.15,0.2 0.18,0 0.36,0.01 0.54,0.04 -2.82,19.62 -19.73,34.75 -40.12,34.75 -22.35,0 -40.53,-18.18 -40.53,-40.53 0,-1.87 0.13,-3.71 0.38,-5.52 0.52,-0.24 1.02,-0.47 1.53,-0.78 0.76,-0.46 1.64,-0.94 2.5,-1.14 0.42,-0.1 0.42,-0.81 -0.02,-0.87 -1.42,-0.21 -2.73,0.31 -3.76,1.2 0.29,-1.62 0.67,-3.21 1.15,-4.76 3.78,0.6 7.75,0.64 11.48,-0.25 0.93,-0.22 3.18,-1.21 1.52,-2.2 -0.72,-0.43 -1.66,-0.57 -2.46,-0.78 -1,-0.26 -2.78,-1.12 -0.79,-1.55 3.34,-0.73 6.56,0.83 9.71,1.6 0.5,0.12 0.67,-0.61 0.19,-0.76 -2.94,-0.95 -5.65,-1.9 -8.75,-1.81 -1.16,0.03 -3.58,0.34 -2.87,2.06 0.58,1.39 3.18,1.4 4.37,1.89 0.7,0.28 -0.98,0.67 -1.17,0.73 -1.28,0.4 -2.67,0.49 -4,0.58 -2.33,0.16 -4.67,-0.02 -6.98,-0.29 5.33,-16.17 20.57,-27.87 38.51,-27.87 15.01,0 28.13,8.2 35.14,20.35 -1.34,0.57 -2.54,0.95 -4.08,0.77 -1.35,-0.16 -2.65,-0.56 -4.01,-0.35 -0.44,0.07 -0.61,0.73 -0.09,0.84 2.81,0.58 6.35,1.74 8.71,-0.33 2.04,3.76 3.5,7.89 4.26,12.24 -0.43,0.02 -0.89,0.14 -1.26,0.15 -0.92,0.03 -2.02,-0.21 -2.9,0.11 -0.4,0.15 -0.35,0.64 0.02,0.78 0.63,0.24 1.41,0.19 2.08,0.22 0.46,0.02 0.92,0.01 1.37,-0.01 0.18,-0.01 0.35,-0.03 0.52,-0.05l0.33 -0.03 0.03 0.01c0.1,0.67 0.18,1.35 0.24,2.03 -0.14,0.09 -0.25,0.26 -0.29,0.4 0.08,-0.38 -1.08,-0.66 -1.36,-0.68 -0.7,-0.05 -1.4,0.13 -2.09,0.27 -0.47,0.1 -0.28,0.73 0.12,0.77 0.49,0.05 0.93,-0.06 1.42,-0.13 0.53,-0.07 0.96,0.15 1.42,0.36 0.24,0.11 0.58,0.26 0.85,0.25l0.02 -0c0.05,0.84 0.08,1.69 0.08,2.55 0,0.51 -0.01,1.01 -0.03,1.51 -0.12,0.02 -0.27,0.05 -0.42,0.06zm-40.08 -43.24c-22.98,0 -41.67,18.69 -41.67,41.67 0,22.97 18.69,41.67 41.67,41.67 22.97,0 41.67,-18.69 41.67,-41.67 0,-22.98 -18.69,-41.67 -41.67,-41.67z"/>
  <path class="fil0" d="M10.55 56.91l0.05 -0.23 -0.01 -0.07c-0.03,-0.16 -0.19,-0.27 -0.35,-0.24l-1.88 0.36 0.79 -0.7 0.08 -0.35 -0.3 -0.18 -1.06 0.1 1.56 -1.13 0.07 -0.42 -0.04 -0.05 -0.2 -0.12 -0.23 0.05 -2.54 1.84 -0.1 0.37 0.03 0.06 0.3 0.18 1.14 -0.1 -0.86 0.76 -0.08 0.35 0.03 0.07 0.28 0.18 0.06 -0.01 3.08 -0.59 0.19 -0.13z"/>
  <path class="fil0" d="M11.59 59.2l0.06 -0.03c0.15,-0.08 0.2,-0.26 0.12,-0.41l-0.67 -1.22 -0.18 -0.15 -0.23 0.03 -2.75 1.5c-0.15,0.08 -0.2,0.26 -0.12,0.41l0.67 1.23 0.26 0.16 0.15 -0.04 0.06 -0.03 0.15 -0.18 -0.02 -0.23 -0.49 -0.9 0.91 -0.5 0.33 0.6c0.08,0.15 0.26,0.2 0.41,0.12l0.06 -0.03 0.15 -0.18 -0.03 -0.23 -0.33 -0.6 0.6 -0.33 0.49 0.9 0.18 0.14 0.23 -0.03z"/>
  <path class="fil0" d="M12.92 65.49c-0.17,-0.03 -0.29,-0.1 -0.37,-0.2l-0.27 -0.33 1.86 -1.51 0.27 0.33c0.08,0.1 0.12,0.23 0.12,0.4 -0,0.19 -0.07,0.33 -0.21,0.44l-0.92 0.75c-0.14,0.12 -0.3,0.15 -0.48,0.12zm1.83 -0.35c0.29,-0.24 0.45,-0.57 0.45,-0.96 0,-0.33 -0.09,-0.61 -0.27,-0.83l-0.51 -0.62 -0.2 -0.11 -0.22 0.06 -2.43 1.98 -0.04 0.43 0.51 0.62c0.18,0.22 0.44,0.37 0.76,0.44l0.27 0.03c0.28,0 0.54,-0.09 0.77,-0.28l0.92 -0.75z"/>
  <path class="fil0" d="M15.71 67.52l-0.38 -0.39 0.77 -0.38 -0.39 0.76zm1.39 -1.69l-0.05 -0.05 -0.35 -0.06 -2.9 1.42 -0.15 0.18 0.02 0.24 0.03 0.06c0.08,0.14 0.25,0.2 0.4,0.13l0.59 -0.29 0.69 0.71 -0.3 0.58c-0.07,0.14 -0.02,0.32 0.12,0.4l0.06 0.03 0.15 0.04 0.09 -0.01 0.18 -0.15 1.47 -2.87 -0.05 -0.35z"/>
  <path class="fil0" d="M19.04 69.17c-0.18,0.21 -0.32,0.21 -0.36,0.21l-0.04 -0 -0.36 -0.18 -0.36 -0.31 0.67 -0.78 0.36 0.31 0.23 0.32c0.03,0.09 0.04,0.23 -0.13,0.43zm0.79 -0.61c-0.07,-0.25 -0.22,-0.47 -0.44,-0.66l-0.64 -0.54 -0.43 0.03 -2.01 2.37 0.04 0.43 0.05 0.04 0.22 0.07 0.21 -0.11 0.67 -0.78 0.36 0.31 0.01 0.01 -0.32 1.27c-0.04,0.16 0.05,0.32 0.21,0.36l0.06 0.02 0.08 0.01 0.15 -0.04 0.14 -0.19 0.28 -1.13c0.4,0.08 0.77,-0.06 1.08,-0.43 0.35,-0.41 0.34,-0.79 0.27,-1.04z"/>
  <polygon class="fil0" points="21.34,69.46 20.92,69.53 19.12,72.1 19.07,72.32 19.19,72.52 20.33,73.32 20.51,73.38 20.56,73.37 20.75,73.25 20.79,73.19 20.72,72.77 19.88,72.18 20.47,71.34 21.03,71.73 21.45,71.66 21.49,71.6 21.54,71.38 21.42,71.18 20.86,70.78 21.25,70.22 22.09,70.81 22.51,70.74 22.55,70.68 22.6,70.46 22.48,70.26 "/>
  <path class="fil0" d="M27.36 74.39l-0.49 1.09c-0.08,0.16 -0.2,0.26 -0.38,0.31 -0.16,0.04 -0.3,0.04 -0.42,-0.01l-0.4 -0.18 0.99 -2.18 0.4 0.18c0.12,0.05 0.21,0.15 0.28,0.31 0.08,0.17 0.09,0.33 0.01,0.49zm-0.02 -1.41l-0.73 -0.33c-0.15,-0.07 -0.33,-0 -0.4,0.15l-1.3 2.85c-0.07,0.15 -0,0.33 0.15,0.4l0.73 0.33c0.15,0.07 0.32,0.11 0.49,0.11l0.38 -0.05c0.38,-0.1 0.66,-0.34 0.81,-0.68l0.49 -1.09c0.16,-0.35 0.15,-0.71 -0.02,-1.06 -0.14,-0.3 -0.35,-0.51 -0.62,-0.63z"/>
  <path class="fil0" d="M31 74.41l-1.32 -0.46c-0.16,-0.05 -0.33,0.03 -0.39,0.19l-1.03 2.96 0.01 0.23 0.17 0.15 1.32 0.46 0.1 0.02 0.28 -0.2 0.02 -0.06 -0.01 -0.23 -0.17 -0.15 -0.97 -0.34 0.34 -0.97 0.65 0.23 0.23 -0.01 0.15 -0.17 0.02 -0.06c0.05,-0.16 -0.03,-0.33 -0.19,-0.38l-0.65 -0.23 0.23 -0.65 0.97 0.34 0.23 -0.01 0.15 -0.17 0.02 -0.06c0.06,-0.16 -0.03,-0.33 -0.19,-0.39z"/>
  <path class="fil0" d="M34.05 75.25l-1.36 -0.33 -0.23 0.03 -0.14 0.19 -0.74 3.01c-0.04,0.16 0.06,0.33 0.22,0.37l0.06 0.02 0.07 0.01 0.15 -0.04 0.14 -0.19 0.33 -1.33 1 0.25c0.16,0.04 0.33,-0.06 0.37,-0.22l0.02 -0.07 -0.04 -0.23 -0.19 -0.14 -1 -0.25 0.17 -0.67 1 0.25c0.16,0.04 0.33,-0.06 0.37,-0.22l0.02 -0.06 -0.03 -0.23 -0.19 -0.14z"/>
  <path class="fil0" d="M37.18 75.81l-1.38 -0.21c-0.17,-0.03 -0.32,0.09 -0.35,0.25l-0.47 3.1 0.06 0.22 0.2 0.12 1.38 0.21 0.05 0c0.15,0 0.28,-0.11 0.3,-0.26l0.01 -0.06 -0.06 -0.22 -0.2 -0.12 -1.02 -0.15 0.15 -1.02 0.68 0.1 0.22 -0.05 0.12 -0.2 0.01 -0.07c0.02,-0.16 -0.09,-0.32 -0.25,-0.34l-0.68 -0.1 0.1 -0.68 1.02 0.15 0.23 -0.06 0.12 -0.2 0.01 -0.07c0.02,-0.16 -0.09,-0.32 -0.26,-0.34z"/>
  <path class="fil0" d="M40.53 76.12l-0.07 -0 -0.22 0.08 -0.1 0.21 -0.1 1.77 -0.95 -1.98 -0.26 -0.17 -0.07 -0c-0.17,-0.01 -0.31,0.12 -0.32,0.28l-0.18 3.07c-0.01,0.17 0.12,0.31 0.28,0.32l0.07 0 0.22 -0.08 0.1 -0.21 0.1 -1.77 0.96 1.97 0.26 0.17 0.07 0 0.02 0c0.16,0 0.29,-0.12 0.3,-0.28l0.18 -3.07c0.01,-0.17 -0.12,-0.31 -0.28,-0.32z"/>
  <path class="fil0" d="M43.22 78.97l-0.38 0.17 -0.43 0.01 -0.08 -2.39 0.43 -0.01 0 -0.07 0.01 0 0 0.07 0.38 0.15c0.15,0.12 0.22,0.25 0.23,0.44l0.04 1.19c0,0.18 -0.06,0.32 -0.2,0.45zm0.34 -2.61c-0.25,-0.19 -0.51,-0.29 -0.79,-0.29l-0.04 0 -0.8 0.03c-0.17,0 -0.3,0.15 -0.29,0.31l0.1 3.13c0.01,0.16 0.14,0.29 0.3,0.29l0.01 0 0.8 -0.02c0.29,-0.01 0.56,-0.13 0.81,-0.34 0.29,-0.26 0.44,-0.59 0.43,-0.97l-0.04 -1.19c-0.01,-0.38 -0.18,-0.71 -0.49,-0.94z"/>
  <path class="fil0" d="M50.09 78.06c-0.08,0.12 -0.18,0.19 -0.32,0.22 -0.14,0.03 -0.27,0.01 -0.39,-0.07 -0.12,-0.08 -0.19,-0.18 -0.23,-0.33l-0.29 -1.33c-0.03,-0.14 -0.01,-0.27 0.07,-0.39 0.08,-0.12 0.18,-0.19 0.33,-0.22l0.12 -0.02 0.27 0.08c0.12,0.08 0.19,0.18 0.22,0.32l0.29 1.33c0.03,0.15 0.01,0.27 -0.07,0.39zm0.43 -1.87c-0.07,-0.32 -0.24,-0.57 -0.52,-0.75 -0.27,-0.17 -0.58,-0.23 -0.89,-0.16 -0.32,0.07 -0.57,0.24 -0.75,0.52 -0.18,0.27 -0.23,0.57 -0.16,0.89l0.29 1.33c0.07,0.32 0.24,0.57 0.52,0.75 0.2,0.12 0.41,0.19 0.63,0.19l0.27 -0.03c0.32,-0.07 0.57,-0.24 0.75,-0.52 0.18,-0.28 0.23,-0.58 0.16,-0.9l-0.29 -1.33z"/>
  <path class="fil0" d="M53.39 74.42c-0.05,-0.16 -0.22,-0.25 -0.38,-0.2l-0.06 0.02 -0.18 0.15 -0.02 0.23 0.67 2.11 -0.03 0.4c-0.07,0.13 -0.16,0.21 -0.3,0.25 -0.14,0.05 -0.27,0.04 -0.39,-0.03 -0.13,-0.07 -0.21,-0.16 -0.26,-0.31l-0.68 -2.11c-0.05,-0.16 -0.22,-0.25 -0.38,-0.19l-0.06 0.02 -0.18 0.15 -0.02 0.23 0.68 2.11c0.1,0.31 0.3,0.55 0.59,0.69 0.17,0.09 0.35,0.13 0.54,0.13l0.37 -0.06c0.31,-0.1 0.55,-0.3 0.7,-0.59 0.15,-0.29 0.18,-0.59 0.08,-0.91l-0.68 -2.11z"/>
  <path class="fil0" d="M56.07 74.7c-0.06,0.1 -0.17,0.18 -0.32,0.24l-0.44 0.18 -0.4 -0.95 0.44 -0.19c0.15,-0.06 0.27,-0.08 0.39,-0.06 0.09,0.02 0.22,0.07 0.32,0.31 0.11,0.25 0.05,0.38 0.01,0.45zm0.51 0.44c0.25,-0.32 0.29,-0.72 0.1,-1.16 -0.21,-0.5 -0.56,-0.66 -0.81,-0.71 -0.25,-0.05 -0.52,-0.02 -0.79,0.1l-0.77 0.33 -0.16 0.17 0 0.23 1.21 2.86 0.16 0.16 0.11 0.02 0.12 -0.02 0.06 -0.03c0.15,-0.06 0.22,-0.24 0.16,-0.4l-0.4 -0.95 0.44 -0.18 0.01 -0.01 0.99 0.85 0.42 -0.02 0.05 -0.05 0.08 -0.22 -0.1 -0.21 -0.88 -0.76z"/>
  <path class="fil0" d="M61.87 71.5l-0.27 0.29 -0.4 0.26 -0.57 -0.86 0.39 -0.26 0.37 -0.13 0 -0.07 0.01 -0 0 0.07c0.09,0 0.23,0.03 0.38,0.25 0.15,0.23 0.12,0.36 0.09,0.44zm1.59 0.92l-1 -0.58c0.19,-0.36 0.15,-0.76 -0.12,-1.16 -0.3,-0.45 -0.67,-0.55 -0.94,-0.55 -0.25,0 -0.5,0.08 -0.74,0.24l-0.7 0.47 -0.13 0.19 0.05 0.23 1.72 2.58 0.25 0.14 0.17 -0.05 0.05 -0.04 0.13 -0.19 -0.04 -0.23 -0.57 -0.86 0.4 -0.26 0.01 -0.01 1.13 0.66c0.14,0.08 0.32,0.04 0.41,-0.1l0.03 -0.06 0.04 -0.23 -0.14 -0.19z"/>
  <polygon class="fil0" points="63.72,68.53 63.52,68.42 63.3,68.49 63.24,68.53 63.2,68.96 65.12,71.35 65.36,71.46 65.55,71.39 65.6,71.35 65.72,71.14 65.65,70.92 "/>
  <path class="fil0" d="M67.64 66.75l-0.43 -0.01 -0.39 0.38 -0.09 0.21 0.09 0.22 0.05 0.05 0.43 0.01 0.12 -0.12 0.72 0.74 -0.37 0.36c-0.11,0.11 -0.22,0.16 -0.37,0.16 -0.14,-0 -0.26,-0.06 -0.36,-0.17l-0.95 -0.98c-0.11,-0.11 -0.16,-0.24 -0.15,-0.39l0.16 -0.34 0.61 -0.59 0.01 -0.43 -0.05 -0.05 -0.21 -0.09 -0.21 0.08 -0.61 0.59c-0.22,0.21 -0.34,0.47 -0.36,0.77 -0.03,0.34 0.09,0.65 0.33,0.91l0.95 0.98c0.23,0.24 0.51,0.37 0.83,0.37l0.02 0c0.31,0 0.59,-0.12 0.83,-0.35l0.64 -0.62 0.01 -0.43 -1.23 -1.27z"/>
  <polygon class="fil0" points="68.83,63.39 68.61,63.32 68.4,63.42 68.35,63.47 68.39,63.9 69.17,64.57 68.49,65.35 67.71,64.68 67.49,64.61 67.29,64.72 67.24,64.77 67.28,65.2 69.61,67.19 69.8,67.27 69.83,67.27 70.03,67.16 70.08,67.11 70.04,66.68 69.01,65.79 69.68,65.01 70.72,65.9 71.14,65.87 71.19,65.82 71.16,65.39 "/>
  <polygon class="fil0" points="70.49,61.7 70.79,61.28 70.84,61.05 70.72,60.85 70.66,60.81 70.24,60.88 69.25,62.27 69.2,62.5 69.32,62.7 69.38,62.74 69.61,62.79 69.8,62.66 70.1,62.24 72.33,63.83 72.5,63.88 72.55,63.88 72.75,63.75 72.79,63.7 72.72,63.28 "/>
  <path class="fil0" d="M74.43 59.25c-0.34,-0.2 -0.73,-0.18 -1.14,0.07 -0.17,0.11 -0.32,0.21 -0.45,0.29l-0.31 0.21 -0.27 0.1 -0.17 -0.05 -0.16 -0.19c-0.02,-0.06 -0.04,-0.16 0.05,-0.31 0.03,-0.06 0.15,-0.2 0.5,-0.52l0.07 -0.36 -0.03 -0.06 -0.18 -0.16 -0.24 0.03c-0.28,0.16 -0.52,0.41 -0.71,0.73 -0.17,0.29 -0.2,0.59 -0.1,0.87 0.09,0.24 0.24,0.42 0.45,0.55 0.28,0.16 0.58,0.19 0.87,0.08l0.04 -0.02 0.2 -0.11 0.18 -0.11 0.48 -0.32 0.21 -0.12 0.13 -0.05 0.24 0.04 0.15 0.19 -0.03 0.28c-0.02,0.04 -0.14,0.19 -0.71,0.61l-0.1 0.37 0.03 0.06 0.17 0.16 0.11 0.02 0.12 -0.03c0.19,-0.08 0.37,-0.2 0.55,-0.36 0.18,-0.15 0.32,-0.32 0.42,-0.5 0.15,-0.27 0.18,-0.55 0.08,-0.84 -0.08,-0.24 -0.23,-0.43 -0.44,-0.55z"/>
  <path class="fil0" d="M17.79 19.62l-0.72 -1.36 1.39 0.65 -0.67 0.7zm2.76 -0.67l-4.26 -2c-0.15,-0.07 -0.32,-0.04 -0.43,0.08l-0.07 0.08c-0.11,0.12 -0.14,0.29 -0.06,0.44l2.21 4.15 0.23 0.19 0.1 0.01 0.19 -0.05 0.08 -0.05c0.18,-0.1 0.24,-0.32 0.14,-0.5l-0.47 -0.88 1.06 -1.12 0.91 0.42c0.18,0.08 0.4,0.01 0.5,-0.17l0.04 -0.09 0.02 -0.3 -0.2 -0.22z"/>
  <path class="fil0" d="M24.9 15.81l0.33 0.19 0.19 -0.05 1.76 -1.03c0.18,-0.11 0.24,-0.34 0.13,-0.52l-0.05 -0.08 -0.23 -0.18 -0.29 0.04 -1.35 0.79 -2.05 -3.5c-0.1,-0.18 -0.34,-0.24 -0.52,-0.13l-0.08 0.05 -0.18 0.23 0.04 0.29 2.29 3.91z"/>
  <path class="fil0" d="M33.33 8.75l0.83 1.29 -0.94 0.24 0.12 -1.53zm-0.74 3.77l0.1 0 0.01 0c0.2,0 0.36,-0.15 0.38,-0.35l0.08 -1 1.49 -0.38 0.54 0.84c0.11,0.17 0.34,0.22 0.51,0.12l0.08 -0.05 0.18 -0.24 -0.05 -0.29 -2.54 -3.96c-0.09,-0.14 -0.25,-0.2 -0.41,-0.16l-0.1 0.03c-0.16,0.04 -0.27,0.18 -0.28,0.34l-0.35 4.69 0.1 0.28 0.27 0.12z"/>
  <path class="fil0" d="M41.92 8.77l0.9 0.03c0.51,0.11 0.72,0.37 0.71,0.84 -0.01,0.32 -0.12,0.53 -0.37,0.66 -0.16,0.09 -0.3,0.13 -0.47,0.13l-0 0 -0.82 -0.03 0.05 -1.64zm0.06 -1.99l0.82 0.03c0.15,0 0.28,0.04 0.38,0.1 0.09,0.06 0.21,0.18 0.19,0.48 -0.01,0.2 -0.08,0.33 -0.24,0.44 -0.17,0.11 -0.24,0.11 -0.25,0.11l-0.94 -0.03 0.04 -1.13zm-0.62 4.46l1.35 0.04c0.29,0 0.58,-0.08 0.87,-0.23 0.51,-0.28 0.79,-0.76 0.81,-1.39 0.02,-0.56 -0.16,-1.01 -0.52,-1.31 0.23,-0.24 0.36,-0.55 0.37,-0.93 0.02,-0.69 -0.31,-1.05 -0.59,-1.23 -0.23,-0.15 -0.51,-0.23 -0.82,-0.24l-1.3 -0.04 -0.27 0.1 -0.12 0.26 -0.15 4.57c-0.01,0.21 0.16,0.38 0.37,0.39z"/>
  <path class="fil0" d="M52.15 9.37l0.01 1.53 -0.92 -0.3 0.91 -1.23zm-2.56 2.86c0.17,0.11 0.4,0.07 0.52,-0.09l0.59 -0.8 1.46 0.48 0.01 1c0,0.2 0.16,0.37 0.37,0.37l0.1 0 0.02 0c0.21,0 0.38,-0.17 0.38,-0.38l-0.01 -0.08 -0.04 -4.63c0,-0.16 -0.11,-0.31 -0.26,-0.36l-0.1 -0.03c-0.15,-0.05 -0.32,0 -0.42,0.14l-2.79 3.79 -0.07 0.29 0.16 0.25 0.08 0.05z"/>
  <path class="fil0" d="M57.53 15.64l0.28 0.06 0.24 -0.16 1.65 -2.43 -0.08 1.44 0.17 0.33 0.37 0.03 1.31 -0.61 -1.65 2.43 -0.06 0.28 0.16 0.24 0.08 0.06 0.21 0.06 0.31 -0.16 2.52 -3.71c0.12,-0.17 0.07,-0.41 -0.1,-0.53l-0.09 -0.06 -0.37 -0.03 -1.96 0.91 0.12 -2.16 -0.17 -0.33 -0.09 -0.06 -0.28 -0.06 -0.24 0.16 -2.52 3.71c-0.12,0.17 -0.07,0.41 0.1,0.52l0.08 0.06z"/>
  <path class="fil0" d="M67.74 19.92l-0.81 1.3 -0.62 -0.74 1.43 -0.56zm-3.69 1.05c0.08,0.19 0.3,0.28 0.48,0.2l0.93 -0.36 0.99 1.18 -0.52 0.85c-0.11,0.17 -0.06,0.4 0.11,0.51l0.08 0.06 0.21 0.06 0.08 -0.01 0.24 -0.17 2.47 -4.01 -0.03 -0.44 -0.07 -0.08c-0.11,-0.13 -0.28,-0.17 -0.43,-0.11l-4.38 1.72 -0.21 0.21 0 0.3 0.04 0.09z"/>
  <path class="fil0" d="M25.87 27.99c-0.49,0.17 -0.26,0.92 0.23,0.77 3.06,-0.95 5.85,-2.54 8.73,-3.89 3.77,-1.76 7.31,-1.95 11.39,-1.63 2,0.16 3.76,-0.29 5.72,-0.49 1.6,-0.16 3.28,0.52 4.83,0.86 1.25,0.27 2.72,0.57 3.99,0.29 0.54,-0.12 0.94,-0.26 1.41,-0.54 0.1,-0.06 0.54,-0.51 0.2,-0.23 0.36,-0.3 -0.05,-0.92 -0.47,-0.77 -2.39,0.86 -4.72,0.17 -7.15,-0.56 -1.36,-0.41 -2.55,-0.53 -3.96,-0.33 -2.04,0.29 -3.87,0.37 -5.93,0.21 -7.11,-0.56 -12.58,4.08 -19.01,6.29z"/>
  <path class="fil0" d="M66.74 24.8c-0.37,-0.28 -0.86,0.08 -0.63,0.51 0.6,1.14 1.75,2.38 3.02,2.72 0.51,0.14 0.69,-0.53 0.31,-0.8 -0.48,-0.34 -0.94,-0.72 -1.36,-1.13 -0.44,-0.43 -0.84,-0.94 -1.33,-1.31z"/>
  <path class="fil0" d="M67.55 29.13c-0.91,-0.55 -1.81,-1.05 -2.69,-1.66 -0.81,-0.57 -1.68,-1.05 -2.7,-1 -0.46,0.02 -0.52,0.66 -0.09,0.79 1.89,0.56 3.26,2.6 5.28,2.69 0.46,0.02 0.54,-0.61 0.2,-0.82z"/>
  <path class="fil0" d="M69.36 30.73c-0.34,0.3 -0.59,0.6 -1.03,0.77 -0.34,0.13 -0.72,0.18 -1.07,0.25 -0.75,0.15 -1.5,0.41 -1.9,1.1 -0.2,0.34 0.22,0.73 0.55,0.52 0.78,-0.5 1.47,-0.64 2.37,-0.83 0.8,-0.16 1.58,-0.6 1.81,-1.42 0.13,-0.44 -0.42,-0.65 -0.72,-0.4z"/>
  <path class="fil0" d="M60.37 30.18c0.31,0.36 0.84,-0.12 0.62,-0.5 -0.86,-1.48 -2.09,-2.58 -3.6,-3.37 -2.12,-1.1 -4.62,-0.62 -6.56,-2.13 -0.4,-0.31 -0.92,0.21 -0.55,0.57 1.33,1.32 2.98,1.48 4.75,1.78 2.34,0.4 3.88,1.9 5.33,3.64z"/>
  <path class="fil0" d="M77.73 49.39c-2.13,-0.06 -4.67,-1.32 -5.24,-3.52l-0 -0 0 -0.4c1.34,1.36 3.83,2.16 5.26,2.08 0.44,-0.03 0.57,-0.75 0.09,-0.81 -1.86,-0.23 -4.5,-1.18 -5.32,-3.02 0.01,-0.35 0.02,-0.69 0.03,-1.04 1.12,1.51 2.87,2.88 4.63,2.71 0.55,-0.05 0.51,-0.78 -0.02,-0.83 -1.99,-0.2 -3.41,-1.95 -4.57,-3.44 0,-0.14 0.01,-0.28 0.01,-0.42 1.1,1.24 3.02,1.96 4.46,2.32 0.46,0.11 0.71,-0.53 0.3,-0.76 -1.8,-1.02 -3.63,-1.45 -4.73,-3.29 0.01,-0.39 0.03,-0.79 0.05,-1.18 1.02,1.47 3.05,2.29 4.77,2.23 0.48,-0.02 0.56,-0.72 0.09,-0.84 -1.96,-0.5 -4.04,-1.08 -4.74,-3.2l-0.03 -0.05c0.01,-0.2 0.02,-0.4 0.03,-0.6 1.01,0.84 2.27,1.57 3.52,1.55 0.46,-0 0.55,-0.71 0.09,-0.81 -0.89,-0.18 -1.66,-0.58 -2.41,-1.1 -0.38,-0.26 -0.74,-0.59 -1.15,-0.82 0.01,-0.4 0.02,-0.8 0.02,-1.2 0.64,0.73 1.51,1.3 2.32,1.73 0.42,0.22 0.83,-0.34 0.49,-0.66 -0.51,-0.48 -1.11,-0.84 -1.65,-1.27 -0.56,-0.45 -0.9,-0.95 -1.18,-1.57 -0.02,-0.38 -0.04,-0.75 -0.08,-1.13 0.29,0.33 0.61,0.64 0.96,0.91 0.4,0.31 0.92,-0.21 0.55,-0.58 -0.93,-0.94 -1.7,-1.8 -1.97,-3.14l-0.03 -0.07 -0.04 -0.14c-0.14,-0.51 -0.84,-0.26 -0.76,0.23l0.03 0.2 0 0.03 0.01 0.02c-0.01,0.75 -0.56,1.25 -0.98,1.84 -0.27,0.37 0.33,0.79 0.64,0.47 0.2,-0.21 0.38,-0.42 0.55,-0.64 0.05,0.56 0.09,1.13 0.12,1.7 -0.34,1.26 -1.32,2.39 -2.56,2.85 -0.5,0.19 -0.27,0.87 0.24,0.78 0.88,-0.15 1.74,-0.77 2.36,-1.55 -0,0.25 -0,0.5 -0.01,0.75 -0.35,0.79 -0.75,1.4 -1.43,2.02 -0.75,0.67 -1.66,1.22 -2.57,1.64 -0.43,0.19 -0.1,0.86 0.33,0.73 1.11,-0.33 2.07,-0.96 2.93,-1.71 0.21,-0.18 0.45,-0.41 0.68,-0.66l-0.01 0.21c-1.03,1.72 -2.31,2.89 -4.13,3.8 -0.41,0.2 -0.1,0.9 0.33,0.73 1.28,-0.49 2.75,-1.38 3.7,-2.56 -0.02,0.43 -0.04,0.85 -0.06,1.28 -1.08,1.34 -2.32,2.37 -3.78,3.28 -0.45,0.28 -0.03,0.94 0.43,0.69 1.15,-0.6 2.41,-1.36 3.29,-2.38 -0.01,0.25 -0.02,0.49 -0.03,0.74 -0.43,0.86 -0.75,1.69 -1.55,2.32 -0.83,0.65 -1.89,0.91 -2.9,1.11 -0.48,0.1 -0.35,0.9 0.14,0.85 1.56,-0.17 3.13,-0.78 4.15,-1.9 -0.03,0.36 -0.06,0.71 -0.09,1.07 -1.28,1.46 -2.84,2.41 -4.83,2.63 -0.52,0.06 -0.52,0.84 0.02,0.83 1.71,-0.04 3.45,-0.66 4.69,-1.84 -0.03,0.46 -0.06,0.91 -0.08,1.37 -1.34,1.41 -3.05,2.19 -4.93,2.68 -0.46,0.12 -0.34,0.89 0.13,0.83 1.79,-0.24 3.5,-0.91 4.76,-2.15 -0,0.29 0,0.59 0.01,0.87 -0.17,0.13 -0.34,0.25 -0.52,0.37 -0.64,0.42 -1.31,0.76 -2.02,1.02 -0.51,0.19 -0.28,0.91 0.24,0.8 0.78,-0.17 1.62,-0.49 2.36,-0.94 0.07,0.93 0.2,1.85 0.42,2.74 0.13,0.52 0.88,0.45 1.01,-0.02 0.12,-0.43 0.19,-0.89 0.23,-1.35 0.38,0.22 0.81,0.33 1.28,0.24 0.43,-0.08 0.35,-0.7 -0.02,-0.8 -0.45,-0.13 -0.83,-0.37 -1.23,-0.6 -0,-0.29 -0.02,-0.58 -0.04,-0.87 1,0.98 2.34,1.55 3.84,1.43 0.44,-0.04 0.57,-0.75 0.09,-0.81 -0.91,-0.11 -1.76,-0.27 -2.56,-0.76 -0.65,-0.4 -1.1,-1.03 -1.52,-1.66 -0.03,-0.28 -0.05,-0.57 -0.07,-0.84 1.26,1.53 3.52,2.5 5.29,2.11 0.49,-0.11 0.32,-0.82 -0.13,-0.83z"/>
  <path class="fil0" d="M30.28 36.29c2.58,-0.02 4.91,1.55 7.47,1.22 1.16,-0.15 2.28,-0.94 3.42,-0.31 0.78,0.43 1.88,-0.02 2.73,0.03 0.46,0.03 0.53,-0.7 0.09,-0.8 -0.87,-0.19 -1.87,0.1 -2.64,-0.26 -0.85,-0.4 -1.85,-0.07 -2.71,0.16 -3.01,0.8 -5.52,-1.46 -8.48,-0.84 -0.47,0.1 -0.32,0.8 0.13,0.8z"/>
  <path class="fil0" d="M45.74 37.15c2.82,-0.62 5.31,-0.22 8.14,-0.06 1.31,0.07 2.48,-0.28 3.71,-0.7 1.48,-0.5 2.86,-0.07 4.3,-0.47 0.5,-0.14 0.33,-0.82 -0.14,-0.85 -1.35,-0.09 -2.54,-0.1 -3.85,0.25 -1.61,0.43 -2.91,0.91 -4.63,0.81 -2.69,-0.16 -5.13,-0.66 -7.76,0.22 -0.52,0.17 -0.28,0.92 0.24,0.8z"/>
  <path class="fil0" d="M69.06 35.21c-0.72,-0.45 -1.66,-0.27 -2.47,-0.17 -0.97,0.12 -1.85,0.13 -2.83,0.07 -0.47,-0.03 -0.56,0.62 -0.21,0.84 0.73,0.44 1.59,0.37 2.4,0.3 0.98,-0.09 2.05,-0.05 3.01,-0.24 0.4,-0.08 0.37,-0.62 0.08,-0.8z"/>
  <path class="fil0" d="M54.31 72.14c-2.16,-1.9 -4.77,-3.18 -6.81,-5.25 -2.25,-2.28 -2.75,-5.14 -3.02,-8.21 -0.31,-3.58 -0.84,-7.13 -0.9,-10.73 -0.06,-3.83 2.83,-5.11 5.23,-7.46l0.02 -0.04c0.63,0.16 1.31,0.14 1.85,-0.25 0.39,-0.28 0.13,-0.87 -0.34,-0.76 -0.91,0.21 -1.48,0.01 -2.36,-0.21 -0.73,-0.19 -1.45,-0.01 -2.04,0.45l0 0c-2.62,1.15 -5.38,2.42 -6.96,4.92 -1,1.59 -1,3.69 -1.14,5.49 -0.21,2.67 -0.31,5.34 -0.74,7.99 -0.34,2.09 -0.72,4.05 -1.8,5.91 -2.05,3.52 -5.82,5.66 -9.25,7.59 -0.53,0.3 -0.04,1.04 0.49,0.79 5.3,-2.52 10.31,-6.27 11.33,-12.35 0.6,-3.53 0.68,-7.1 0.95,-10.67 0.21,-2.72 0.71,-4.79 2.97,-6.48 1.39,-1.04 3.05,-1.65 4.56,-2.5l0.01 -0c0.57,-0.32 1.03,-0.31 1.54,-0.19 -2.16,1.64 -4.43,3.28 -5.16,6.02 -0.46,1.7 -0.14,3.72 -0,5.44 0.19,2.36 0.51,4.71 0.74,7.06 0.29,3.04 0.74,5.73 2.64,8.21 1.86,2.44 4.89,4.67 7.64,5.98 0.47,0.23 0.98,-0.39 0.56,-0.76z"/>
  <path class="fil0" d="M60.27 39.29c0.47,-0.2 0.28,-0.92 -0.24,-0.78 -0.68,0.19 -1.3,0.38 -2.02,0.29 -0.63,-0.08 -1.25,-0.29 -1.87,-0.39 -1.03,-0.16 -2.04,0.07 -2.8,0.78 -0.33,0.31 0.12,0.83 0.49,0.6 1.35,-0.82 2.53,-0.39 3.96,-0.11 0.88,0.17 1.67,-0.05 2.47,-0.41z"/>
  <path class="fil0" d="M62.79 39.58c0.41,0.05 0.83,0.07 1.24,0.09 0.51,0.02 1.01,0.13 1.52,0.13 0.4,0 0.59,-0.62 0.19,-0.79 -0.85,-0.36 -1.96,-0.34 -2.86,-0.23 -0.42,0.05 -0.57,0.74 -0.09,0.8z"/>
  <path class="fil0" d="M46.44 48.25c0.33,-0.42 1.53,-0.1 1.51,-0.86 -0.01,-0.42 -0.48,-0.48 -0.75,-0.64 -0.22,-0.14 -0.83,-0.85 -0.36,-0.99 0.49,-0.14 0.26,-0.86 -0.23,-0.75 -1.2,0.27 -0.71,1.67 -0.09,2.27l0.02 0.02c-0.29,0.1 -0.55,0.24 -0.73,0.5 -0.25,0.37 0.35,0.81 0.62,0.46z"/>
  <path class="fil0" d="M45.12 48.9c-0.36,0.6 -0.51,1.45 -0.01,2.01 0.35,0.39 0.88,-0.13 0.67,-0.54 -0.19,-0.38 -0.19,-0.71 0.01,-1.1 0.23,-0.44 -0.42,-0.79 -0.67,-0.37z"/>
  <path class="fil0" d="M47.98 57.9c-0.22,-0.42 -1.61,-1.16 -1.4,-1.51 0.36,-0.61 0.56,-1.34 0.1,-1.9 -0.31,-0.38 -0.91,-0.04 -0.66,0.41 0.29,0.52 -0.48,1.37 -0.39,1.98 0.12,0.83 1.75,0.83 1.58,1.75 -0.19,0.99 -2.27,1.9 -0.86,2.99 0.36,0.28 0.91,-0.1 0.65,-0.53 -0.61,-0.98 1.69,-1.88 0.99,-3.2z"/>
  <path class="fil0" d="M10.33 38.95c-0.02,-0.53 -0.05,-1.05 -0.09,-1.57 -0.04,-0.51 -0.74,-0.48 -0.79,0.02 -0.09,1.12 -0.12,2.25 -0.12,3.38 -0.96,-0.04 -1.46,-0.87 -1.67,-1.8 -0.1,-0.42 -0.82,-0.31 -0.75,0.12 0.17,1.22 1.08,2.73 2.43,2.56 0.01,0.91 0.02,1.82 0.02,2.73 -0.01,2.48 -0.14,5.01 0.05,7.48 0.05,0.57 0.83,0.53 0.87,-0.02 0.18,-2.24 0.06,-4.53 0.05,-6.78 -0.01,-1.74 0.05,-3.5 0.02,-5.25 0.76,0.02 1.5,-0.37 1.92,-1.01 0.25,-0.38 -0.34,-0.8 -0.64,-0.47 -0.39,0.44 -0.81,0.55 -1.31,0.61z"/>
  <path class="fil0" d="M68.37 60.35c-2.77,-0.06 -5.73,0.02 -8.67,0.37 0.03,-0.58 0.03,-1.17 0.03,-1.76 0.46,0.15 0.97,0.16 1.4,-0 0.42,-0.16 0.35,-0.8 -0.13,-0.8 -0.51,0.01 -0.94,-0.07 -1.29,-0.33 -0.01,-0.45 -0.03,-0.9 -0.04,-1.34 1.01,0.89 2.65,1.21 3.92,0.96 0.39,-0.08 0.38,-0.75 -0.02,-0.8 -1.66,-0.2 -3.31,-0.37 -3.96,-2.04l-0.01 -0.35c0.8,0.69 1.87,1.04 2.86,0.73 0.44,-0.14 0.35,-0.86 -0.13,-0.82 -1.26,0.11 -2.1,-0.63 -2.74,-1.57 0,-0.26 0,-0.52 0,-0.78 0.62,0.35 1.39,0.57 1.98,0.8 0.46,0.18 0.65,-0.51 0.3,-0.76 -0.68,-0.46 -1.76,-0.63 -2.27,-1.28 0,-0.27 0,-0.55 0,-0.82 0.47,0.36 1.04,0.61 1.6,0.77 0.45,0.13 0.68,-0.52 0.29,-0.75 -0.72,-0.42 -1.53,-0.75 -1.89,-1.48 -0,-0.33 -0.01,-0.66 -0.02,-0.99 0.24,0.21 0.52,0.38 0.86,0.48 0.46,0.13 0.68,-0.52 0.29,-0.75 -0.7,-0.41 -1.07,-0.96 -1.23,-1.68 -0.02,-0.37 -0.04,-0.73 -0.08,-1.09l-0.07 -0.21 -0.27 -0.17c-0.21,-0.02 -0.44,0.11 -0.46,0.39l-0.02 0.34c-0.13,0.89 -0.5,1.52 -1.17,2.19 -0.34,0.35 0.11,0.82 0.51,0.63 0.2,-0.09 0.38,-0.23 0.54,-0.38 -0.01,0.22 -0.01,0.44 -0.01,0.67 -0.41,0.78 -0.91,1.43 -1.74,1.86 -0.45,0.23 -0.1,0.86 0.34,0.76 0.58,-0.13 1.03,-0.45 1.39,-0.86 0,0.14 0,0.29 0,0.43 -0.26,0.93 -0.81,1.54 -1.83,1.73 -0.5,0.09 -0.33,0.84 0.14,0.84 0.6,0.01 1.22,-0.28 1.7,-0.72l0 0.2 -0.02 0.15 0 0.02c-0.62,1.34 -1.63,2.59 -3.29,2.16 -0.44,-0.11 -0.72,0.55 -0.3,0.76 1.24,0.59 2.71,0.03 3.6,-1 -0.01,0.27 -0.01,0.54 -0.02,0.81 -0.41,0.9 -1.23,1.47 -2.26,1.17 -0.46,-0.13 -0.72,0.55 -0.3,0.77 0.79,0.42 1.79,0.26 2.51,-0.27l-0.01 0.34 -0.08 0.06c-0.38,0.42 -0.7,1.13 -1.35,1.12 -0.4,-0.01 -0.58,0.62 -0.19,0.79 0.55,0.24 1.14,0.05 1.58,-0.34 -0.01,0.8 -0,1.59 0.04,2.38 -3.76,0.57 -7.43,1.63 -10.56,3.51l-0.18 0.12c-0.15,0.14 -0.14,0.33 -0.04,0.47l0.13 0.14c1.73,1.23 3.26,2.86 5.33,3.49 1.3,0.39 2.54,0.37 3.21,1.67 0.35,0.68 2.04,0.52 2.63,0.63 0.54,0.09 0.7,-0.62 0.2,-0.81 -1.08,-0.42 -1.66,-0.16 -2.29,-1.17 -0.43,-0.69 -1.71,-0.8 -2.39,-0.97 -2.31,-0.55 -3.87,-1.81 -5.73,-3.11 3.18,-1.44 6.44,-2.34 9.78,-2.89 0.03,0.31 0.07,0.62 0.12,0.92 0.08,0.47 0.85,0.43 0.92,-0.02 0.06,-0.36 0.1,-0.72 0.14,-1.08 2.87,-0.4 5.79,-0.58 8.77,-0.67 0.52,-0.01 0.49,-0.79 -0.02,-0.8z"/>
  <path class="fil0" d="M49.82 42.84c1.01,0.03 1.92,-0.37 2.89,0.05 0.68,0.3 1.22,0.46 1.91,0.13 0.44,-0.21 0.09,-0.82 -0.33,-0.73 -0.8,0.17 -1.35,-0.44 -2.1,-0.51 -0.81,-0.07 -1.6,0.14 -2.39,0.23 -0.52,0.06 -0.52,0.81 0.02,0.82z"/>
  <path class="fil0" d="M65.75 41.95c-1.82,-0.1 -3.72,-0.11 -5.55,-0.03 -0.51,0.02 -0.48,0.75 0.02,0.78 1.84,0.11 3.83,0.38 5.66,0.07 0.49,-0.09 0.31,-0.8 -0.13,-0.82z"/>
  <path class="fil0" d="M65.19 45.86c0.4,-0.1 0.38,-0.73 -0.02,-0.81 -0.42,-0.08 -0.83,-0.03 -1.25,0.04 -0.45,0.08 -0.87,0.1 -1.32,0.12 -0.41,0.02 -0.6,0.62 -0.2,0.8 0.83,0.38 1.95,0.05 2.79,-0.16z"/>
  <path class="fil0" d="M63.52 48.31c0.36,0.06 0.81,0.15 1.16,0.01 0.14,-0.06 0.25,-0.15 0.28,-0.3 0.04,-0.16 -0.03,-0.4 -0.2,-0.46 -0.41,-0.16 -0.84,-0.09 -1.26,-0.02 -0.39,0.06 -0.36,0.71 0.02,0.77z"/>
  <path class="fil0" d="M64.05 50.88l0.37 -0.04c0.15,-0.03 0.29,-0.1 0.42,-0.18 0.37,-0.23 0.17,-0.74 -0.23,-0.76 -0.34,-0.02 -0.6,0.12 -0.89,0.26 -0.16,0.08 -0.22,0.29 -0.17,0.45 0.07,0.23 0.28,0.3 0.49,0.26z"/>
  <path class="fil0" d="M56.3 46.22c0.45,-0.09 0.31,-0.8 -0.13,-0.78 -0.55,0.02 -0.79,-0.29 -1.24,-0.48 -0.43,-0.18 -0.93,-0.14 -1.39,-0.11 -1.61,0.11 -2.94,0.73 -4.59,0.3 -0.42,-0.11 -0.69,0.53 -0.28,0.72 1.45,0.68 2.78,0.28 4.28,-0.06 0.86,-0.19 1.41,-0.13 2.19,0.3 0.41,0.22 0.7,0.2 1.15,0.12z"/>
  <path class="fil0" d="M51.83 49.78c0.83,0.33 2.07,-0.24 2.83,-0.59 0.3,-0.14 0.27,-0.65 -0.02,-0.78 -1.76,-0.8 -3.61,-0.26 -5.46,-0.19 -0.52,0.02 -0.48,0.76 0.02,0.79 1.25,0.07 2.56,-0.26 3.81,-0.13 -0.34,0.11 -0.69,0.17 -0.99,0.15 -0.38,-0.02 -0.55,0.6 -0.18,0.74z"/>
  <path class="fil0" d="M54.74 51.43c-0.46,0.13 -0.69,-0.08 -1.1,-0.23 -0.32,-0.12 -0.74,-0.01 -1.06,0.04 -1.6,0.26 -3.11,0.48 -4.74,0.57 -0.43,0.02 -0.54,0.72 -0.08,0.78 1.44,0.18 2.86,0.1 4.26,-0.25 0.76,-0.19 1.25,-0.32 1.98,0.05 0.38,0.2 0.75,-0.03 1.07,-0.21 0.4,-0.24 0.11,-0.87 -0.34,-0.74z"/>
  <path class="fil0" d="M52.56 55.21c0.33,-0.26 0.21,-0.76 -0.23,-0.78 -0.76,-0.03 -1.6,0.02 -2.31,0.29 -0.4,0.15 -0.35,0.83 0.13,0.79 0.81,-0.08 1.72,0.25 2.42,-0.29z"/>
  <path class="fil0" d="M54.28 57.06c-1.33,-0.89 -3.46,-0.22 -4.84,0.25 -0.41,0.14 -0.34,0.85 0.13,0.78 0.64,-0.1 1.29,-0.18 1.94,-0.25 0.43,-0.05 0.97,-0.13 1.46,-0.1 -0.28,0.18 -0.56,0.35 -0.8,0.57 -0.32,0.29 -0.04,0.82 0.36,0.81 0.47,-0 0.85,0.23 1.32,0.2 0.48,-0.04 0.55,-0.69 0.09,-0.83l-0.22 -0.07c0.24,-0.15 0.48,-0.32 0.67,-0.56 0.21,-0.27 0.17,-0.6 -0.12,-0.79z"/>
  <path class="fil0" d="M64.45 53.14c-0.44,0.15 -0.32,0.77 0.13,0.79 0.32,0.01 0.62,-0.05 0.92,-0.13 0.3,-0.07 0.59,-0.08 0.89,-0.13 0.37,-0.07 0.36,-0.59 0.08,-0.76 -0.61,-0.36 -1.42,0.03 -2.02,0.23z"/>
  <path class="fil0" d="M67.89 56.02c-0.16,-1.29 -1.81,-1.14 -2.71,-1 -0.4,0.06 -0.58,0.73 -0.09,0.79 0.27,0.03 2,0.02 1.79,0.45 -0.3,0.61 -1.05,0.93 -1.42,1.52 -0.2,0.33 0.09,0.68 0.43,0.71 0.8,0.05 1.67,0.06 2.44,-0.21 0.44,-0.16 0.34,-0.79 -0.13,-0.81 -0.4,-0.01 -0.8,0.02 -1.2,0.04 0.48,-0.41 0.97,-0.83 0.88,-1.49z"/>
  <path class="fil0" d="M80.28 40.57c-0.21,-0.06 -0.43,-0.01 -0.64,-0 -0.2,0.01 -0.39,-0.01 -0.59,-0 -0.32,0.01 -0.51,0.36 -0.34,0.63 0.18,0.3 0.5,0.41 0.83,0.44 0.28,0.02 0.65,0.02 0.88,-0.16 0.33,-0.26 0.31,-0.79 -0.14,-0.91z"/>
  <path class="fil0" d="M13.68 36.12c-0.99,1.42 0.07,3.47 1.61,3.16 0.02,0.38 0.2,0.77 0.48,1.07 0.6,0.63 1.65,0.65 2.24,0.03 0.27,-0.28 -0.02,-0.83 -0.41,-0.67 -0.36,0.15 -0.78,0.27 -1.12,0 -0.33,-0.26 -0.33,-0.63 -0.18,-0.99l0.02 -0.09 0 -0.01 0 -0.08c0.01,-0.17 -0.09,-0.34 -0.26,-0.39l-0.06 -0.02 -0.03 -0 -0.2 0.02c-1.37,0.35 -2.18,-0.75 -1,-1.81 0.3,-0.27 0.08,-0.7 -0.23,-0.81 -1.17,-0.42 -1.09,-2.43 -0.47,-3.24 0.87,-1.14 2.23,-1.01 3.48,-0.88l0.06 0.14c0.19,0.39 0.72,0.14 0.74,-0.22 0.05,-0.89 0.19,-1.44 1.11,-1.73 0.95,-0.29 1.71,0.24 1.63,1.24 0.03,0.66 1.04,0.64 1.03,-0.02l0.84 -0.47c0.47,-0.18 0.96,0.1 1.29,0.39 0.76,0.68 0.34,1.52 -0,2.27l-0.01 0.04 -0.02 0.08 -0 0.07 0 0.04c0.03,0.29 0.32,0.54 0.62,0.35 2.04,-0.52 3.35,1.7 1.89,3.25 -0.34,0.36 0.03,0.98 0.51,0.83 2.61,-0.8 2.36,2.99 1.26,4.21 -1.3,1.44 -3.25,0.95 -4.23,-0.49 -0.39,-0.58 -1.21,-0.05 -0.91,0.56 0.07,0.15 0.16,0.29 0.24,0.42 -0.55,0.45 -1.28,0.81 -1.97,0.5 -0.45,-0.2 -0.85,0.32 -0.51,0.69 0.8,0.85 2.46,0.5 3.2,-0.38 1.67,1.32 4.27,0.57 5.58,-1.25 1.35,-1.87 0.37,-5.08 -1.82,-5.34 0.78,-1.84 -0.48,-4.07 -2.43,-4.03 0.34,-0.99 -0.04,-2.22 -0.94,-2.85 -0.64,-0.44 -1.29,-0.55 -2.05,-0.4 -0.23,0.05 -0.51,0.18 -0.78,0.37 -0.92,-1.87 -4.11,-1.12 -4.46,0.64 -1.62,-0.49 -3.61,0.25 -4.47,1.72 -0.74,1.25 -0.44,3.18 0.71,4.06z"/>
  <path class="fil0" d="M6.88 41.99c0.44,-0.06 0.62,-0.79 0.09,-0.85 -1.08,-0.13 -2.12,-0.26 -2.6,-1.4 -0.31,-0.72 -0.09,-1.58 0.38,-2.16 0.81,-1.03 2.31,-0.33 3.22,-0.03 0.51,0.17 0.84,-0.66 0.34,-0.87 -0.34,-0.12 -0.65,-0.3 -0.92,-0.53 -0.01,-0.84 0.32,-1.03 0.99,-0.57 0.31,0.14 0.76,-0.12 0.61,-0.49 -0.66,-1.67 1.89,-2.29 2.02,-1.25 0.06,0.52 0.83,0.52 0.82,-0.02 -0.04,-2.17 -3.96,-1.46 -3.83,0.77 -0.64,-0.12 -1.27,-0.01 -1.68,0.64 -0.2,0.31 -0.2,0.61 -0.1,0.89 -0.51,-0.05 -1.01,0.01 -1.45,0.28 -0.8,0.51 -1.43,1.27 -1.49,2.25 -0.13,2.11 1.46,3.64 3.59,3.36z"/>
  <path class="fil0" d="M13.24 39.56c-0.05,0.24 -0.09,0.47 -0.34,0.57 -0.25,0.1 -0.45,0.01 -0.7,-0.09 -0.4,-0.16 -0.76,0.19 -0.57,0.59 0.28,0.57 1.09,0.65 1.62,0.44 0.59,-0.23 1.04,-0.9 0.77,-1.54 -0.15,-0.34 -0.69,-0.41 -0.79,0.02z"/>
  <path class="fil0" d="M43.9 39.82c0.42,-0.06 0.58,-0.72 0.09,-0.81 -1.77,-0.32 -3.68,-0.4 -5.46,-0.16 -1.13,0.15 -1.96,0.66 -3.12,0.36 -0.67,-0.18 -1.08,-0.15 -1.72,0.12 -0.48,0.2 -0.28,0.91 0.24,0.78 0.93,-0.22 1.55,0.18 2.41,0.2 0.63,0.02 1.11,-0.12 1.72,-0.27 1.93,-0.5 3.91,0.05 5.84,-0.23z"/>
  <path class="fil0" d="M28.17 45.69c-0.46,-0.15 -0.68,0.53 -0.3,0.76 0.72,0.44 1.35,0.4 2.15,0.2 1.36,-0.35 2.67,-0.31 4.05,-0.47 0.42,-0.05 0.57,-0.74 0.09,-0.8 -1.02,-0.11 -2.04,-0.05 -3.05,0.08 -1.04,0.13 -1.9,0.57 -2.94,0.23z"/>
  <path class="fil0" d="M24.25 46.59c-1.05,-0.27 -2.19,-0.82 -2.98,0.25 -0.25,0.34 0.25,0.77 0.57,0.55 0.72,-0.49 1.53,-0.1 2.31,-0.02 0.46,0.05 0.5,-0.67 0.09,-0.78z"/>
  <path class="fil0" d="M22.62 50.19c-0.25,0.38 0.32,0.77 0.63,0.46 1.1,-1.13 3.03,0.1 4.43,-0.15 0.44,-0.08 0.31,-0.79 -0.12,-0.77 -1.6,0.08 -3.79,-1.28 -4.93,0.46z"/>
  <path class="fil0" d="M31.92 49.33c0.69,-0.03 1.35,-0.16 2,0.17 0.31,0.16 0.49,0.17 0.83,0.18 0.52,0.02 0.56,-0.74 0.1,-0.87 -0.92,-0.26 -1.54,-0.55 -2.53,-0.49 -1.4,0.09 -2.81,0.08 -4.2,0.21 -0.51,0.05 -0.48,0.74 0.02,0.78 1.26,0.12 2.52,0.07 3.78,0.01z"/>
  <path class="fil0" d="M33.74 51.78c-0.64,-0.91 -2.16,-0.29 -3.03,-0.17 -0.5,0.07 -0.51,0.83 0.02,0.8 0.45,-0.03 0.9,-0.05 1.35,-0.07 0.44,-0.02 0.87,0.14 1.3,0.11 0.31,-0.02 0.57,-0.38 0.37,-0.67z"/>
  <path class="fil0" d="M32.38 53.7l-0.12 -0.04 0.01 -0c-0.28,-0.06 -0.58,0 -0.86,0.02 -0.58,0.03 -1.14,0.05 -1.69,0.23 -0.5,0.16 -0.26,0.85 0.23,0.76 0.51,-0.1 1.03,-0.02 1.55,-0.04 0.27,-0.01 0.68,0.03 0.91,-0.13 0.25,-0.18 0.32,-0.64 -0.02,-0.79z"/>
  <path class="fil0" d="M23.05 57.76c1.19,0.43 2.53,0.2 3.77,0.17 0.97,-0.03 2.84,-0.73 3.62,-0.13 0.41,0.31 0.89,-0.19 0.55,-0.58 -0.7,-0.8 -1.87,-0.65 -2.83,-0.51 -1.61,0.23 -3.4,0.39 -5.02,0.28 -0.48,-0.03 -0.47,0.64 -0.09,0.78z"/>
  <path class="fil0" d="M32.95 57.57c0.38,0.1 0.83,0.14 1.2,-0.03 0.28,-0.13 0.25,-0.6 -0.02,-0.72 -0.36,-0.17 -0.82,-0.11 -1.2,-0.01 -0.39,0.1 -0.35,0.66 0.02,0.76z"/>
  <path class="fil0" d="M24.15 54.14c-0.52,0.03 -0.49,0.78 0.02,0.8 0.71,0.02 1.44,0.16 2.14,0.11 0.4,-0.03 0.64,-0.65 0.21,-0.83 -0.77,-0.32 -1.58,-0.11 -2.37,-0.07z"/>
  <path class="fil0" d="M21.85 53.43c0.39,0.22 0.95,0.13 1.35,-0.01 0.44,-0.15 0.35,-0.83 -0.13,-0.81 -0.16,0 -0.31,-0 -0.47,-0.01 -0.18,-0.01 -0.36,-0.06 -0.54,-0.04 -0.21,0.03 -0.39,0.13 -0.44,0.35 -0.05,0.2 0.04,0.42 0.23,0.52z"/>
  <path class="fil0" d="M27.13 52.45c-0.42,0.16 -0.34,0.78 0.13,0.78 0.4,0 0.78,0 1.18,-0.07 0.4,-0.08 0.36,-0.71 -0.02,-0.78 -0.43,-0.08 -0.87,-0.09 -1.29,0.07z"/>
  <path class="fil0" d="M29.73 60.54c0.69,0.13 1.4,-0.09 2.04,-0.32 0.41,-0.15 0.35,-0.85 -0.13,-0.8 -0.64,0.06 -1.31,0.19 -1.94,0.33 -0.39,0.09 -0.37,0.71 0.02,0.78z"/>
  <path class="fil0" d="M33.45 60.67c0.27,0.08 0.57,0.09 0.82,-0.04 0.28,-0.15 0.25,-0.58 -0.02,-0.72 -0.25,-0.13 -0.56,-0.11 -0.82,-0.03 -0.4,0.12 -0.36,0.67 0.02,0.79z"/>
  <path class="fil0" d="M13.6 57c0.84,0.11 1.65,0.48 2.49,0.13 0.39,-0.17 0.37,-0.88 -0.13,-0.8 -0.77,0.11 -1.5,-0.17 -2.27,-0.11 -0.43,0.03 -0.55,0.72 -0.09,0.78z"/>
  <path class="fil0" d="M12.65 54.73c0.31,0.08 0.61,0.09 0.92,0.11 0.27,0.01 0.55,0.08 0.82,0.11 0.42,0.03 0.52,-0.58 0.19,-0.76 -0.55,-0.3 -1.15,-0.13 -1.74,-0.21 -0.49,-0.06 -0.69,0.63 -0.19,0.76z"/>
  <path class="fil0" d="M17.73 54.63c0.42,-0.11 0.37,-0.71 -0.02,-0.82 -0.4,-0.11 -0.84,-0.02 -1.25,0.02 -0.52,0.05 -0.48,0.75 0.02,0.79 0.41,0.04 0.84,0.12 1.25,0.01z"/>
  <path class="fil0" d="M12.51 52.15c0.74,0.06 1.53,0.11 2.25,-0.07 0.47,-0.12 0.3,-0.75 -0.13,-0.78 -0.7,-0.05 -1.44,0.02 -2.14,0.07 -0.51,0.04 -0.48,0.74 0.02,0.78z"/>
  <path class="fil0" d="M12.09 48.94c0.28,0.05 0.5,0.07 0.78,0 0.4,-0.1 0.36,-0.7 -0.02,-0.79 -0.28,-0.07 -0.5,-0.04 -0.78,0.01 -0.39,0.08 -0.35,0.7 0.02,0.77z"/>
  <path class="fil0" d="M16.95 47.01c-0.34,-0.1 -0.76,0.02 -1.1,0.08 -0.39,0.07 -0.36,0.71 0.02,0.78 0.43,0.07 0.93,0.15 1.28,-0.17 0.24,-0.22 0.08,-0.6 -0.2,-0.69z"/>
  <path class="fil0" d="M12.17 43.87c-0.47,-0 -0.5,0.65 -0.09,0.78 1.58,0.48 3.18,-0.41 4.77,-0.06 0.59,0.13 0.81,-0.75 0.23,-0.91 -1.58,-0.43 -3.3,0.19 -4.91,0.18z"/>
  <path class="fil0" d="M15.2 41.97c-0.32,0.02 -0.63,-0.06 -0.94,-0.05 -0.37,0 -0.55,0.58 -0.18,0.74 0.41,0.17 0.82,0.22 1.25,0.1 0.43,-0.12 0.33,-0.82 -0.13,-0.79z"/>
  <path class="fil0" d="M17.3 42.54c0.33,-0.04 0.58,-0.46 0.28,-0.72 -0.31,-0.26 -0.65,-0.27 -1,-0.1 -0.27,0.12 -0.24,0.58 0.02,0.7 0.23,0.11 0.46,0.15 0.71,0.13z"/>
  <path class="fil0" d="M13.58 45.58c-0.43,0.11 -0.32,0.84 0.12,0.78 0.15,-0.02 0.3,-0.03 0.45,0 0.19,0.04 0.35,0.14 0.56,0.14 0.31,0 0.5,-0.37 0.34,-0.63 -0.29,-0.47 -1.01,-0.41 -1.47,-0.29z"/>
  <path class="fil0" d="M4.72 44.45c0.42,0.05 0.86,0.14 1.27,0.01 0.44,-0.13 0.33,-0.8 -0.13,-0.8 -1.04,0.01 -2.05,-0.41 -3.07,0.04 -0.39,0.17 -0.38,0.89 0.13,0.82 0.62,-0.09 1.18,-0.16 1.8,-0.07z"/>
  <path class="fil0" d="M8.31 44.45l0.02 0 0 0 -0.02 -0zm0.5 -0.16c0.11,-0.2 0.02,-0.4 -0.15,-0.52 -0.23,-0.16 -0.64,-0.08 -0.9,-0.08 -0.5,0.01 -0.48,0.78 0.02,0.77l0.31 -0.01 0.2 0 0.05 0c0.17,0.08 0.39,-0.01 0.48,-0.17z"/>
  <path class="fil0" d="M6.12 49.2c0.42,-0.11 0.36,-0.69 -0.02,-0.8 -0.75,-0.22 -1.61,-0.17 -2.38,-0.25 -0.46,-0.04 -0.51,0.68 -0.09,0.79 0.78,0.21 1.68,0.48 2.48,0.26z"/>
  <path class="fil0" d="M4.76 46.46c0.84,-0.21 1.68,-0.37 2.55,-0.42 0.51,-0.02 0.49,-0.79 -0.02,-0.79 -0.81,-0.01 -1.6,0.08 -2.39,0.27 -0.51,0.12 -1.03,0.38 -1.55,0.42 -0.5,0.04 -0.49,0.8 0.02,0.79 0.47,-0.01 0.94,-0.16 1.39,-0.27z"/>
  <path class="fil0" d="M8.23 47.6c0.28,-0.15 0.22,-0.54 -0.02,-0.69 -0.13,-0.08 -0.33,-0.08 -0.47,-0.08 -0.17,-0 -0.37,-0.01 -0.51,0.09 -0.38,0.28 -0.06,0.88 0.35,0.7l0.02 0 0.01 -0 0.12 0.02c0.17,0.03 0.34,0.04 0.5,-0.05z"/>
  <path class="fil0" d="M8.25 52.01c0.25,-0.14 0.27,-0.5 0.07,-0.68 -0.39,-0.37 -1.02,-0.25 -1.52,-0.21 -0.63,0.05 -1.25,0.16 -1.88,0.25 -0.41,0.06 -0.57,0.74 -0.09,0.79 0.6,0.06 1.2,0.04 1.8,0 0.51,-0.03 1.17,0.1 1.62,-0.15z"/>
  <path class="fil0" d="M57.92 41.77c0.41,-0.06 0.59,-0.74 0.09,-0.81 -0.58,-0.08 -1.23,-0.1 -1.81,-0.03 -0.45,0.05 -0.53,0.65 -0.09,0.79 0.56,0.18 1.23,0.14 1.81,0.05z"/>
  <path class="fil0" d="M31.11 29.73c0.41,0.06 0.65,0.03 1,-0.2 0.43,-0.28 0.03,-0.9 -0.41,-0.66 -0.36,0.19 -0.84,-0.02 -1.24,0.13 -0.46,0.18 -0.82,0.55 -1.3,0.74 -0.86,0.34 -1.59,0.69 -2.22,1.38 -0.36,0.39 0.21,0.93 0.59,0.57 0.71,-0.67 1.47,-0.95 2.35,-1.32 0.31,-0.13 0.89,-0.69 1.22,-0.64z"/>
  <path class="fil0" d="M35.02 27.83c0.36,-0.18 0.72,-0.31 1.03,-0.57 0.31,-0.26 -0.04,-0.8 -0.41,-0.66 -0.37,0.14 -0.71,0.33 -1.04,0.55 -0.43,0.29 -0.04,0.9 0.42,0.68z"/>
  <path class="fil0" d="M30.09 33.82c1.28,-0.14 2.56,-0.46 3.79,-0.83 0.3,-0.09 0.82,-0.21 1.05,-0.47 0.24,-0.27 0.61,0.14 0.91,0.23 0.5,0.15 0.7,-0.64 0.2,-0.79 -0.68,-0.2 -0.91,-0.74 -1.58,-0.13 -0.47,0.43 -1.37,0.53 -1.97,0.66 -0.84,0.18 -1.69,0.33 -2.53,0.55 -0.43,0.12 -0.33,0.83 0.13,0.78z"/>
  <path class="fil0" d="M39.94 32.07c0.35,-0.19 0.18,-0.8 -0.23,-0.76 -0.27,0.03 -0.5,0.08 -0.72,0.26 -0.26,0.21 -0.03,0.71 0.3,0.66 0.23,-0.03 0.44,-0.06 0.65,-0.17z"/>
  <path class="fil0" d="M63.41 31.49c-0.2,-0.42 -0.72,-0.5 -1.13,-0.49 -0.4,0.01 -0.52,0.55 -0.18,0.74 0.25,0.15 0.55,0.35 0.85,0.38 0.39,0.04 0.64,-0.28 0.47,-0.64z"/>
  <path class="fil0" d="M44.83 25.26c0.17,0.07 0.35,0.06 0.48,-0.07 0.15,-0.16 0.15,-0.42 -0.02,-0.57 -0.25,-0.23 -0.55,-0.36 -0.89,-0.28 -0.41,0.09 -0.33,0.66 0.02,0.77 0.16,0.05 0.25,0.09 0.41,0.15z"/>
  <path class="fil0" d="M54.72 30.94c-0.37,0 -0.75,0.01 -1.11,0.09 -0.39,0.08 -0.35,0.68 0.02,0.76 0.4,0.08 0.83,0.09 1.22,-0.06 0.42,-0.16 0.34,-0.78 -0.12,-0.78z"/>
  <path class="fil0" d="M56.75 32.19c-0.39,-0.22 -0.8,0.33 -0.46,0.63 0.31,0.27 0.68,0.48 1.1,0.43 0.18,-0.02 0.33,-0.12 0.38,-0.31 0.05,-0.2 -0.08,-0.45 -0.3,-0.49 -0.25,-0.04 -0.5,-0.14 -0.73,-0.27z"/>
  <path class="fil0" d="M41.15 48.16c-0.02,-0.5 -0.75,-0.47 -0.77,0.02 -0.02,0.72 -0.05,1.46 -0.01,2.17 0.03,0.51 0.76,0.48 0.78,-0.02 0.04,-0.72 0.02,-1.45 -0.01,-2.17z"/>
  <path class="fil0" d="M40.39 51.58c-0.03,0.97 -0.05,1.96 -0.01,2.93 0.02,0.51 0.76,0.48 0.78,-0.02 0.04,-0.97 0.02,-1.96 -0.01,-2.93 -0.01,-0.5 -0.75,-0.47 -0.76,0.02z"/>
  <path class="fil0" d="M40.37 60c0.02,0.51 0.77,0.48 0.79,-0.02 0.04,-1.23 0.02,-2.46 -0.01,-3.69 -0.01,-0.5 -0.76,-0.48 -0.77,0.02 -0.03,1.23 -0.05,2.46 -0.01,3.69z"/>
  <path class="fil0" d="M40.38 61.89c-0.1,1.68 -0.09,3.42 -0.01,5.11 0.02,0.52 0.78,0.49 0.8,-0.02 0.08,-1.68 0.09,-3.42 -0.01,-5.1 -0.03,-0.5 -0.74,-0.47 -0.77,0.02z"/>
  <path class="fil0" d="M40.38 69.55c-0.06,1.82 -0.03,3.66 -0.01,5.48 0.01,0.5 0.77,0.48 0.78,-0.02 0.03,-1.82 0.06,-3.66 -0.01,-5.48 -0.02,-0.5 -0.75,-0.47 -0.77,0.02z"/>
  <path class="fil0" d="M40.97 45.29c-0.18,0.43 -0.41,0.84 -0.46,1.31 -0.02,0.18 0.14,0.34 0.3,0.38 0.22,0.05 0.42,-0.08 0.48,-0.29 0.12,-0.37 0.31,-0.73 0.39,-1.11 0.1,-0.42 -0.54,-0.7 -0.72,-0.28z"/>
  <path class="fil0" d="M42.18 44.61l0.34 -0.35c0.29,-0.36 -0.09,-0.83 -0.5,-0.61 -0.21,0.11 -0.37,0.31 -0.44,0.52 -0.11,0.34 0.32,0.63 0.6,0.44z"/>
  <path class="fil0" d="M43.22 43.56c0.17,-0.07 0.28,-0.17 0.37,-0.33 0.23,-0.38 -0.33,-0.79 -0.62,-0.46l-0.14 0.14c-0.29,0.26 0.04,0.79 0.4,0.64z"/>
  <path class="fil0" d="M27.07 68.79c0.01,-0.05 3.09,-1.13 3.49,-1.36 1.25,-0.72 2.42,-1.56 3.28,-2.72l0.02 -0.03 0.05 -0.1 0.01 -0.04c0.04,-0.16 -0.01,-0.33 -0.17,-0.44 -3.11,-2.13 -6.69,-3.25 -10.39,-3.81 -1.01,-0.15 -2.11,-0.29 -3.22,-0.37 0.09,-3.47 0.01,-6.96 0,-10.42 -0,-2.18 -0,-4.37 -0.02,-6.56 1.15,-0.5 2.16,-1.33 2.69,-2.42 1.16,0.42 2.62,-0.14 3.2,-1.21 0.22,-0.4 -0.34,-0.84 -0.66,-0.48 -0.62,0.7 -1.38,0.89 -2.24,0.82 0.04,-0.18 0.07,-0.36 0.09,-0.55 0.03,-0.44 -0.69,-0.51 -0.76,-0.09 -0.26,1.51 -1.22,2.2 -2.33,2.88 -0.02,-2.39 -0.07,-4.77 -0.17,-7.15 -0.02,-0.57 -0.85,-0.54 -0.87,0.02 -0.05,1.07 -0.08,2.15 -0.1,3.23 -0.62,-0.06 -1.12,-0.39 -1.54,-0.83 0.17,-0.34 0.3,-0.71 0.29,-1.09 -0,-0.21 -0.19,-0.38 -0.4,-0.38 -0.23,0.01 -0.36,0.19 -0.37,0.4l-0.08 0.34c-0.12,-0.18 -0.23,-0.37 -0.34,-0.55 -0.25,-0.45 -0.87,-0.04 -0.66,0.41 0.56,1.22 1.67,2.56 3.08,2.57 -0.07,3.31 -0.06,6.63 -0.08,9.94 -0.02,3.68 -0.11,7.38 -0.01,11.07 -1.87,-0.05 -3.76,0.11 -5.39,0.68 -0.4,0.14 -0.33,0.84 0.12,0.77 1.74,-0.26 3.52,-0.4 5.31,-0.4 0.03,0.87 0.07,1.73 0.14,2.6 0.04,0.61 0.9,0.58 0.94,-0.02 0.06,-0.85 0.1,-1.7 0.13,-2.56 4.5,0.17 8.97,1.27 12.81,3.59 -1.7,1.63 -3.81,2.93 -6.11,3.47 -0.26,0.06 -0.43,0.25 -0.57,0.47 -0.46,0.76 -0.99,0.77 -1.89,0.84 -0.46,0.04 -0.6,0.77 -0.09,0.85 1.32,0.21 2.56,0.1 2.83,-1.36z"/>
  <path class="fil0" d="M13.73 20.42c-1.31,-0.4 -3.22,-0.14 -4.33,0.69 -0.33,0.24 -0.12,0.88 0.32,0.7 1.22,-0.5 2.49,-0.9 3.82,-0.61 0.51,0.11 0.69,-0.63 0.19,-0.78z"/>
  <path class="fil0" d="M31.4 24.12c0.52,-0.13 0.27,-0.87 -0.24,-0.78 -2.86,0.48 -5.46,0.12 -8.23,-0.65 -0.46,-0.13 -0.76,0.59 -0.31,0.79 2.73,1.2 5.89,1.35 8.77,0.65z"/>
  <path class="fil0" d="M41.14 40.5c-1.19,0.06 -2.6,0.74 -3.42,1.61 -0.15,0.16 -0.17,0.46 0.01,0.6l0.08 0.07c-0.38,0.26 -0.69,0.59 -0.89,1.03 -0.21,0.47 0.48,0.87 0.71,0.39 0.22,-0.44 0.53,-0.74 1,-0.93 0.27,-0.11 0.44,-0.49 0.17,-0.71l-0.15 -0.15c0.76,-0.6 1.73,-0.81 2.62,-1.16 0.4,-0.15 0.34,-0.79 -0.12,-0.77z"/>
  <path class="fil0" d="M36.68 47.61c0.12,-0.23 0.16,-0.5 0.24,-0.74 0.07,-0.23 0.12,-0.45 0.17,-0.68 0.11,-0.49 -0.61,-0.67 -0.76,-0.19 -0.14,0.45 -0.44,0.94 -0.4,1.43 0.03,0.39 0.56,0.55 0.76,0.19z"/>
  <path class="fil0" d="M35.65 55.56c0.16,-0.33 0.26,-0.7 -0.02,-1 -0.2,-0.22 -0.3,-0.43 -0.35,-0.74l-0.02 -0.06 0.03 -0.02c0.35,-0.31 0.57,-0.96 0.79,-1.37 0.29,-0.54 0.17,-1.08 -0.18,-1.55 -0.25,-0.33 -0.87,-0.12 -0.7,0.32 0.31,0.79 -0.19,1.18 -0.5,1.85 -0.08,0.18 -0.27,0.26 -0.32,0.46 -0.07,0.29 0.01,0.75 0.09,1.02 0.08,0.27 0.45,0.6 0.41,0.81 -0.08,0.44 0.55,0.74 0.77,0.3z"/>
  <path class="fil0" d="M35.86 58.63c0.56,0 0.54,-0.87 -0.02,-0.87 -0.56,0 -0.54,0.87 0.02,0.87z"/>
  <path class="fil0" d="M34.44 62.99c0.58,0 0.56,-0.9 -0.02,-0.9 -0.58,0 -0.56,0.9 0.02,0.9z"/>
  <path class="fil0" d="M50.49 60.41c-0.38,0.25 -0.79,0.42 -1.23,0.53 -0.2,0.05 -0.32,0.29 -0.26,0.48 0.07,0.22 0.28,0.29 0.48,0.26 0.52,-0.08 1.01,-0.28 1.42,-0.6 0.39,-0.31 0.02,-0.96 -0.41,-0.67z"/>
  <path class="fil0" d="M34.2 42.57c-0.62,0.17 -1.36,0.3 -1.96,0.34 -0.42,0.03 -0.54,0.71 -0.08,0.77 0.93,0.13 1.97,-0.06 2.81,-0.47 0.36,-0.18 0.68,-0.52 0.57,-0.95 -0.14,-0.51 -0.77,-0.74 -1.21,-0.9 -0.41,-0.14 -0.68,0.54 -0.28,0.72 0.2,0.09 0.4,0.18 0.58,0.29l0.03 0.03 -0.05 0.03 -0.42 0.14z"/>
 </g>
</svg>
