<?xml version="1.0" encoding="UTF-8"?>
<svg xmlns="http://www.w3.org/2000/svg" xml:space="preserve" width="0.747331in" height="0.747335in" version="1.1" style="shape-rendering:geometricPrecision; text-rendering:geometricPrecision; image-rendering:optimizeQuality; fill-rule:evenodd; clip-rule:evenodd"
viewBox="0 0 1117.27 1117.28"
 xmlns:xlink="http://www.w3.org/1999/xlink"
 xmlns:xodm="http://www.corel.com/coreldraw/odm/2003">
 <defs>
  <style type="text/css">
   <![CDATA[
    .fil0 {fill:black;fill-rule:nonzero}
   ]]>
  </style>
 </defs>
 <g id="Layer_x0020_1">
  <metadata id="CorelCorpID_0Corel-Layer"/>
  <path class="fil0" d="M1098.5 613c-8.68,-1.62 -14.41,0.94 -19.1,6.36 -2.06,-1.25 -4.07,-2.55 -6.15,-3.74 -3.51,-2.95 -9.69,-2.87 -11.92,1.82 -3.98,8.56 -21.45,4.26 -28.53,3.28 -9.92,-1.37 -32.27,0.39 -39.12,-6.65 -2.83,-2.93 -7.75,-2.55 -10.44,0.25 -5.49,5.61 -46,13.93 -50.71,3.14 -1.97,-4.53 -7.56,-6.77 -11.44,-2.72 -7.58,7.95 -18.67,10.57 -29.05,12.67 -8.66,1.74 -15.39,-4.24 -23.11,-2.02 -9.57,2.77 -40.8,5.76 -50.72,-0.52 -0.75,-1.5 -1.97,-2.72 -3.88,-3.14 -13.33,-2.93 -36.73,6.03 -47.61,-3.8 -2.16,-1.95 -5.65,-2.6 -8.16,-0.85 -17.92,12.44 -24.19,-0.29 -40.15,-1.74 -11.84,-1.08 -21.39,5.42 -32.06,7.99 14.84,-15.22 31.14,-29.17 47.68,-42.5 21.53,-17.42 39.16,-25.17 65.16,-33.66 21.64,-7.08 46.47,-26.43 61.73,-42.98 21.92,-23.84 33.41,-55.98 59.55,-76.19 5.48,-4.23 0.04,-13.47 -5.73,-9.3 -23.55,16.99 -36.63,43.83 -53.67,66.57 -9.76,13 -24.03,20.54 -36.82,30.01 -12.9,9.55 -23.73,16.71 -39.31,21.05 -43.69,12.17 -82,46.88 -112.75,79.63 -2.66,0.45 -5.48,1.77 -8.82,3.7 -12.27,7.06 -13.71,-1.87 -22.88,-1.52 -5.27,0.21 -9.12,1.6 -12.91,3.86 -1.44,-2.2 -2.93,-4.31 -4.44,-6.54 -2.18,-3.1 -6.94,-4.99 -10.32,-2.43 -22.63,17.11 -42.91,12.27 -68.89,16.01 -7.1,1.02 -6.97,10.59 0.29,11.15 26.72,2.16 48.05,3.09 70.35,-10.38 1.47,2.3 2.87,4.63 4.17,7.12 1.77,3.44 7.35,4.86 10.47,2.47 10.22,-7.81 18.04,-2.33 28.3,-2.1 5.31,0.11 9.74,-2.7 14.41,-4.59l2.7 2.01c18.36,5.23 32.43,-11.34 50.98,-3.64 11.38,4.71 20.2,6.82 31.98,2.43 5.42,-1.99 -1.12,-4.86 6.66,-1.18 3.9,1.85 8.72,2.35 12.98,2.64 10.94,0.77 23.4,1.79 34.4,-0.41 13.5,10.42 45.31,5.69 59.35,3.47 3.76,-0.61 17.17,3.93 25.08,2.55 10.07,-1.75 20.08,-4.63 28.31,-10.53 6.04,7.46 12.95,3.41 26.26,5.34 13.56,1.95 27.18,1.14 38.08,-6.52 13.18,8.03 33.78,6.04 48.03,7.58 14.89,1.62 25.52,5.36 33.68,-4.66 2.47,1.44 4.96,2.81 7.48,4.4 3.55,2.27 8.39,0.46 10.36,-2.97 4.26,-5.86 6.96,-6.52 8.1,-1.95l0.75 1.08c-0.95,7.08 -2.05,14.14 -3.28,21.11 -89.66,-4.77 -179.94,-1.68 -269.69,-1.39 -94.93,0.29 -190.41,-2.65 -285.26,2.51 -6.99,0.37 -6.6,10.38 0.29,10.75 91.57,4.99 183.8,2.28 275.52,2.47 92.03,0.21 184.68,3.53 276.64,-1.22 -1.04,5.19 -2.18,10.38 -3.38,15.53 -68.63,-0.04 -137.36,-1.04 -205.92,1.28 -6.87,0.25 -6.55,10.34 0.25,10.57 67.42,2.31 134.96,1.39 202.41,1.31 -2.04,7.83 -4.24,15.62 -6.63,23.32l-0.25 -0.08c-11.85,-1.95 -24,-1.25 -36,-1.21 -13.33,0.04 -27.03,-0.77 -40.2,1.25 -5.27,0.81 -7.52,9.3 -1.14,10.26 11.9,1.85 23.94,1.31 35.96,1.37 12.67,0.08 25.56,0.81 38.15,-0.75 -3.03,9.23 -6.36,18.39 -9.89,27.43 -28.01,-1.95 -58.45,-3.2 -85.92,0.98 -5.29,0.79 -7.49,9.34 -1.12,10.28 26.2,4.01 54.88,3.26 81.81,1.54 -2.51,5.94 -5.14,11.8 -7.85,17.65 -10.03,-1.43 -21.8,-1.12 -31.12,1.15 -5.15,1.24 -4.65,8.95 0.23,10.15 7.39,1.78 16.3,2.26 24.6,1.68 -3.66,7.33 -7.45,14.56 -11.42,21.7 -33.27,-1.17 -66.57,-1.14 -99.81,-1.27 -39.1,-0.11 -80.01,-3.28 -118.84,1.27 -5.96,0.68 -8.14,10.51 -1.27,11.32 36.48,4.21 74.48,1.41 111.19,1.43 33.99,0 68.02,-0.02 102.01,-1.06 -4.4,7.48 -8.97,14.83 -13.73,22.05 -8.08,-0.5 -16.22,-0.46 -24.29,-0.73 -10.34,-0.35 -22.22,-1.51 -32.08,1.82 -5.23,1.77 -4.71,8.64 0.25,10.32 8.74,2.97 18.62,1.81 27.78,1.77 6.5,-0.02 13.08,-0.06 19.62,-0.29 -98.28,140.97 -261.57,233.43 -446.06,233.43 -180.98,0 -341.57,-88.95 -440.39,-225.44 2.2,0.21 4.4,0.38 6.6,0.52 5.53,0.35 13.17,1.62 17.61,-2.43 3.2,-2.93 1.16,-8.37 -2.7,-9.35 -4.65,-1.18 -10.4,-0.1 -15.2,-0.31 -5.09,-0.21 -10.18,-0.64 -15.22,-1.12 -8.93,-13.06 -17.23,-26.54 -25,-40.37 40.06,4.07 82.75,1.29 122.64,-0.54 7.1,-0.33 6.68,-10.59 -0.27,-10.88 -41.78,-1.93 -86.96,-5.09 -128.57,0.06 -13.04,-24.6 -24.26,-50.29 -33.43,-76.95 37.42,4.03 78.74,2.95 115.39,-0.85 7.29,-0.77 6.75,-10.41 -0.29,-11.13 -37.79,-3.9 -80.95,-5 -119.18,-0.38 -1.97,-6.16 -3.8,-12.4 -5.54,-18.66 24.56,-2.1 49.65,0.23 74.32,-1.58 7.16,-0.52 6.73,-10.51 -0.29,-11.01 -25.79,-1.89 -52.18,1.08 -77.83,-1.87 -1.84,-7.31 -3.55,-14.7 -5.06,-22.14 44.02,2.39 88.66,0.67 132.62,-0.54 7.08,-0.19 6.73,-10.74 -0.27,-10.92 -44.62,-1.21 -89.95,-2.95 -134.63,-0.42 -1.31,-7.39 -2.5,-14.83 -3.53,-22.32 6.6,-12.15 21.55,0.44 31.79,2.64 6.77,1.45 12.56,-0.67 17.65,-4.3 4.53,2.39 9.41,4.18 14.29,1.52 7.79,-4.21 20.64,1.85 30.75,-2.41 5.49,-2.31 1.93,-4.38 9.26,-2.39 6.23,1.7 12.52,3.47 18.77,5.3 8.16,2.38 19.39,6.35 27.74,2.64 5.63,-2.5 6,-10.11 -0.31,-12.13 -15.7,-5.06 -32.51,-8.12 -48.56,-12.1 -14.85,-3.72 -36.86,10.82 -49.05,4.01 -3.05,-1.71 -6.58,-0.92 -9.05,1.39 -12.83,12.11 -33.12,-8.89 -45.54,-2.62 -1.93,-18.52 -2.9,-37.33 -2.9,-56.37 0,-34.78 3.32,-68.77 9.59,-101.75 7.73,6.32 15.52,12.94 16.63,22.37 0.69,6.1 9.68,7.87 11.19,1.25 4.11,-18.17 -12.25,-28.59 -24.63,-39.16 7.06,-31.98 16.92,-62.91 29.36,-92.5 13.02,20.64 33.1,38.72 50.02,55.02 4.74,4.57 12.23,-1.62 8.85,-7.18 -13.74,-22.76 -33.14,-44 -52.34,-62.75 6.33,-13.87 13.23,-27.43 20.7,-40.68 17.11,12.81 25.04,31 34.01,50.52 3.61,7.89 8.2,20.06 15.91,26.56 4.88,7.46 10.69,14.12 16.57,20.89 8.08,9.22 15.34,19.11 23.81,27.95 3.98,4.16 11.81,-0.44 9.72,-5.96 -4.15,-10.74 -10.9,-19.08 -18.31,-27.7 -3.64,-4.26 -7.31,-8.49 -10.95,-12.75 3.05,-1.25 6.03,-2.91 8.89,-4.55 21.55,-12.27 30.19,5.26 46.08,14.16 17.54,9.82 33.51,9.59 51.88,6.67 12.9,22.98 30.01,43.41 53.6,56 10.92,5.83 23.4,6.66 35.49,5.52 15.63,-1.5 36.13,-12.17 51.35,-5.31 12.04,5.44 20.97,19.06 32.47,26.19 12.75,7.93 32.68,4.9 46.51,8.95 29.99,8.79 43.44,38.02 77.14,33.83 6.92,-0.85 6.96,-11.05 -0.25,-10.98 -32.23,0.33 -44.02,-26.02 -71.28,-37.02 -12.6,-5.07 -25.4,-6.13 -38.6,-8.3 -13.79,-2.27 -26.56,-19.38 -38.02,-27.1 -16.45,-11.05 -42.38,-0.62 -59.75,1.78 -34.91,4.84 -62.15,-30.81 -76.58,-57.76 -1.97,-3.67 -6.25,-4.49 -9.95,-3.78 -12.5,2.41 -22.67,4.38 -35.23,1.29 -12.21,-2.99 -21.85,-14.1 -32.13,-21.04 -14,-9.42 -28.18,-4.81 -41.34,2.99 -17.23,10.24 -27.68,-26.02 -34.11,-38.33 -7.66,-14.62 -16.99,-25.44 -30.75,-33.41 94.7,-159.88 268.93,-267.32 467.87,-267.32 212,0 396.01,122.03 485.53,299.52 -15.51,0.96 -30.54,8.22 -45.18,13.58 -8.75,3.22 -7.25,0.42 -13.44,-3.01 -5.36,-2.99 -13.58,0.89 -18.62,2.64 -23.78,8.35 -30.84,32.33 -59.2,35.32 -24.83,2.64 -38.02,14.93 -57.37,28.9 -13.48,9.74 -29.69,6.77 -44.71,10.8 -14.01,3.76 -27.18,8.76 -40.38,14.72 -27.26,12.27 -55.07,23.42 -80.67,38.98 -24.27,14.72 -46.72,32.24 -71.97,45.41 -26.47,13.78 -55.98,21.1 -83.14,33.49 -5.34,2.45 -1.21,11.61 4.24,9.39 22.59,-9.24 45.82,-16.8 68.44,-25.98 24.04,-9.8 45.37,-24.6 67.11,-38.6 26.8,-17.28 54.54,-29.61 83.53,-42.69 13.41,-6.06 26.77,-12.12 40.64,-17.05 13.5,-4.76 27.62,-3.9 41.36,-6.83 24.69,-5.19 37.63,-25.04 60.64,-33.28 11.23,-4.03 24.25,-2.87 35.79,-6.7 7.93,-2.64 14.46,-8.97 20.49,-14.47 6.36,-5.77 20.31,-24.36 29.82,-15.3l0.75 0.67c-7.08,9.07 -11.88,20.14 -12.58,31.45 -0.37,6.13 9.18,6.92 10.55,1.17 2.72,-11.34 7.18,-21.41 14.53,-30.07 18.98,-6.81 36.92,-13.62 56.52,-17.78 32.54,69.67 50.74,147.32 50.74,229.16 0,18.43 -0.93,36.65 -2.74,54.61l-0.81 -0.25zm-539.87 -613c-266.44,0 -489.85,187.5 -545.35,437.46 -1.87,1.83 -2.82,4.47 -1.54,7 -7.68,36.88 -11.75,75.06 -11.75,114.19 0,34.21 3.11,67.73 9.03,100.29 -1.27,2.14 -0.77,5.06 1.29,6.7 50.06,257.02 276.89,451.64 548.32,451.64 308.04,0 558.64,-250.6 558.64,-558.64 0,-308.04 -250.6,-558.64 -558.64,-558.64z"/>
  <path class="fil0" d="M222.32 876.37l-1.27 -3.68 -0.64 -0.68c-1.82,-2.08 -5.03,-2.28 -7.1,-0.44l-14.89 13.12 8.51 -24.02 -0.97 -5.05 -0.62 -0.71 -3.49 -1.72 -3.7 1.27 -30.81 27.26c-2.12,1.85 -2.32,5.04 -0.48,7.14l0.6 0.67 3.49 1.7 3.67 -1.27 14.85 -13.12 -8.49 24.06 1.02 5.05 0.62 0.72 3.49 1.7 0.31 0 3.37 -1.27 30.83 -27.24 1.71 -3.51z"/>
  <path class="fil0" d="M217.73 924.58l-3.97 -1.62 -1.85 -4.13 1.64 -4.26 12.56 -13.27 4.11 -1.82 0.04 -0.91 0.16 0 0 0.89 4.01 1.62 1.87 4.17 -1.6 4.19 -12.58 13.25c-1.18,1.25 -2.47,1.83 -4.4,1.89zm25 -7.53c3.18,-3.34 4.76,-7.52 4.63,-12.13 -0.12,-4.59 -1.95,-8.7 -5.3,-11.85 -3.25,-3.1 -7.16,-4.65 -11.62,-4.65l-0.5 0c-4.57,0.12 -8.66,1.95 -11.84,5.31l-12.56 13.27c-3.18,3.34 -4.77,7.52 -4.65,12.11 0.12,4.57 1.95,8.66 5.31,11.84 3.26,3.09 7.16,4.67 11.59,4.67l0.52 -0.02c4.65,-0.12 8.66,-1.89 11.85,-5.27l12.56 -13.27z"/>
  <path class="fil0" d="M267.27 936.94c-1.87,2.35 -3.22,2.66 -4.42,2.6l-4.32 -2 -4.21 -3.3 7.33 -9.24 4.2 3.3 2.87 3.74c0.31,1.01 0.45,2.51 -1.44,4.9zm12.02 -8.14c-1.08,-3.48 -3.28,-6.56 -6.59,-9.18l-8.86 -7c-2.2,-1.74 -5.42,-1.37 -7.14,0.81l-25.81 32.64c-1.72,2.18 -1.35,5.38 0.81,7.12l0.71 0.54 3.74 1.08 3.41 -1.91 7.91 -9.99 3.86 3.03 -3.55 16.55c-0.57,2.68 1.06,5.31 3.7,5.98l0.85 0.21 1.27 0.16 2.66 -0.77 2.31 -3.22 3.07 -14.29 1.62 0.08c3.32,0 8.2,-1.18 12.71,-6.85 4.76,-6.02 4.42,-11.51 3.34,-15.01z"/>
  <path class="fil0" d="M309.9 959.51l3.8 0.71 3.22 -2.18 0.5 -0.77c1.54,-2.32 0.89,-5.49 -1.44,-7l-19.12 -12.56 -3.84 -0.73 -3.18 2.2 -0.5 0.75c-1.54,2.35 -0.89,5.5 1.45,7.04l4.9 3.24 -19.52 29.78c-1.52,2.32 -0.88,5.49 1.45,7.02l0.75 0.49 2.82 0.83 1.02 -0.1 3.22 -2.18 19.54 -29.78 4.92 3.24z"/>
  <path class="fil0" d="M352.08 970.99l-0.81 -0.42c-2.49,-1.33 -5.54,-0.41 -6.87,2.05l-6.02 11.28 -10.4 -5.59 6.02 -11.25 0.37 -3.86 -2.47 -2.99 -0.79 -0.44c-2.45,-1.31 -5.53,-0.39 -6.87,2.1l-19.39 36.27 -0.38 3.86 2.43 3.01 0.81 0.41c2.47,1.33 5.54,0.39 6.87,-2.08l8.16 -15.3 10.44 5.58 -8.2 15.3 -0.38 3.87 2.45 2.99 0.83 0.44 2.38 0.6 4.47 -2.68 19.41 -36.3 0.39 -3.86 -2.47 -3.01z"/>
  <path class="fil0" d="M417.75 1014.99l-5.6 17.42 -2.95 3.47 -4.49 0.35 -3.47 -2.93 -0.35 -4.51 5.61 -17.42 2.93 -3.44 2.62 -0.67 1.91 0.31 3.45 2.95 0.35 4.46zm-0.42 -17.94c-4.4,-1.39 -8.84,-1.04 -12.95,1.06 -4.09,2.1 -6.97,5.5 -8.39,9.88l-5.61 17.4c-1.41,4.4 -1.06,8.87 1.06,12.92 2.06,4.09 5.49,6.97 9.91,8.41l5.3 0.85c2.61,0 5.19,-0.64 7.6,-1.89 4.11,-2.1 7.02,-5.5 8.43,-9.88l5.61 -17.4c1.39,-4.36 1.04,-8.83 -1.06,-12.92 -2.1,-4.11 -5.53,-7.02 -9.89,-8.43z"/>
  <path class="fil0" d="M465.82 1009.88l-18.29 -4.13 -3.84 0.67 -2.22 3.18 -9.16 40.59c-0.62,2.7 1.1,5.42 3.84,6.04l0.85 0.21 1.14 0.13 2.7 -0.79 2.24 -3.18 3.82 -16.92 12.44 2.82c2.74,0.62 5.44,-1.09 6.06,-3.84l0.19 -0.89 -0.64 -3.82 -3.18 -2.24 -12.44 -2.8 1.58 -7.04 12.46 2.8c2.72,0.6 5.42,-1.1 6.06,-3.82l0.18 -0.89 -0.66 -3.82 -3.14 -2.24z"/>
  <path class="fil0" d="M549.64 1019.19l-22.82 -1 -3.63 1.33 -1.66 3.51 -0.04 0.94c-0.12,2.8 2.05,5.17 4.86,5.3l5.88 0.25 -1.54 35.59 1.32 3.65 3.51 1.62 0.93 0.04 0.21 0c2.72,0 4.94,-2.12 5.06,-4.84l1.56 -35.59 5.87 0.27 3.66 -1.33 1.64 -3.53 0.04 -0.91c0.12,-2.8 -2.04,-5.17 -4.86,-5.29z"/>
  <path class="fil0" d="M591.38 1018.61l-0.91 0.02 -3.55 1.67 -1.33 3.63 0.58 12.75 -11.81 0.54 -0.57 -12.75 -1.64 -3.53 -3.66 -1.33 -0.89 0.04c-2.8,0.12 -4.96,2.5 -4.84,5.3l1.82 41.11 1.64 3.51 3.43 1.35 0.21 0 0.89 -0.06c2.8,-0.11 4.99,-2.5 4.86,-5.3l-0.77 -17.29 11.8 -0.54 0.77 17.32c0.13,2.8 2.45,4.88 5.3,4.86l0.91 -0.04 3.53 -1.64 1.33 -3.68 -1.85 -41.09c-0.08,-2.8 -2.41,-4.99 -5.26,-4.84z"/>
  <path class="fil0" d="M638.59 1055.63l-3.76 -0.99 -12.64 1.68 -1.56 -11.71 8.12 -1.08c2.78,-0.37 4.74,-2.91 4.38,-5.69l-0.13 -0.92 -1.93 -3.36 -3.78 -0.99 -8.14 1.08 -0.93 -7.15 12.63 -1.7 3.36 -1.95 0.99 -3.76 -0.12 -0.89c-0.37,-2.78 -2.93,-4.73 -5.69,-4.34l-18.56 2.47c-2.78,0.35 -4.71,2.93 -4.36,5.71l5.59 41.63c0.33,2.55 2.51,4.4 5.03,4.4l0.67 -0.06 18.58 -2.47c2.74,-0.38 4.71,-2.91 4.34,-5.69l-0.12 -0.85 -1.95 -3.36z"/>
  <path class="fil0" d="M721.03 1014.79l-2.51 -2.95 -3.88 -0.31 -12.15 3.93 -2.2 -6.87 12.15 -3.93c2.66,-0.85 4.11,-3.71 3.26,-6.37l-0.31 -0.85c-0.85,-2.68 -3.7,-4.16 -6.35,-3.28l-17.84 5.75 -2.95 2.51 -0.31 3.86 12.77 39.6 2.53 2.95 2.31 0.56 1.58 -0.25 0.83 -0.27c2.68,-0.87 4.11,-3.74 3.26,-6.4l-5.34 -16.49 12.15 -3.93c2.68,-0.85 4.11,-3.71 3.26,-6.39l-0.25 -0.87z"/>
  <path class="fil0" d="M756.62 980.98l-2.76 -2.73 -3.9 0.04 -0.85 0.35c-2.57,1.1 -3.76,4.07 -2.65,6.65l11.62 27.35 0.06 4.57 -3.15 3.2 -4.53 0.06 -3.26 -3.17 -11.63 -27.35c-1.1,-2.58 -4.07,-3.78 -6.65,-2.7l-0.81 0.35 -2.72 2.78 0.02 3.88 11.65 27.35c1.79,4.24 4.99,7.38 9.24,9.08 2.05,0.85 4.2,1.27 6.29,1.27 2.24,0 4.5,-0.48 6.66,-1.41 4.26,-1.82 7.42,-5 9.12,-9.26 1.72,-4.26 1.68,-8.74 -0.11,-12.95l-11.65 -27.35z"/>
  <path class="fil0" d="M785.92 971.95l5.19 -2.78c2.45,-1.31 3.41,-4.38 2.08,-6.83l-0.42 -0.84 -3.01 -2.47 -3.86 0.37 -20.14 10.8 -2.47 3.01 0.39 3.86 0.44 0.81c1.31,2.47 4.38,3.4 6.85,2.08l5.19 -2.78 16.84 31.4 2.99 2.45 1.45 0.23 2.41 -0.62 0.81 -0.44c2.47,-1.31 3.4,-4.38 2.08,-6.85l-16.82 -31.4z"/>
  <path class="fil0" d="M828.4 939.06l-3.24 -2.18 -3.8 0.75 -0.77 0.49c-2.32,1.54 -2.97,4.69 -1.45,7.02l16.32 24.83 0.85 4.5 -2.53 3.7 -4.44 0.85 -3.74 -2.55 -16.32 -24.86c-1.54,-2.32 -4.67,-2.97 -7.02,-1.43l-0.75 0.5 -2.2 3.2 0.73 3.8 16.32 24.86c2.55,3.84 6.25,6.37 10.74,7.29l3.53 0.38c3.24,0 6.37,-0.95 9.22,-2.83 3.9,-2.57 6.35,-6.17 7.3,-10.71 0.92,-4.53 0.09,-8.93 -2.42,-12.77l-16.32 -24.83z"/>
  <path class="fil0" d="M861.1 934.26l-2.95 3.76 -4.19 3.3 -7.31 -9.23 4.17 -3.3 4.32 -1.95 0.27 0c0.93,0 2.37,0.25 4.17,2.53 1.91,2.45 1.78,3.93 1.51,4.9zm23.61 9.96l-13.12 -6.24c1.78,-5.07 0.68,-10.41 -3.33,-15.47 -4.92,-6.19 -10.26,-6.97 -13.87,-6.7 -3.61,0.23 -7.12,1.7 -10.42,4.32l-8.87 7.02c-2.2,1.72 -2.57,4.92 -0.81,7.1l25.83 32.62 3.38 1.87 0.58 0.06 3.15 -1.12 0.71 -0.54c2.18,-1.75 2.55,-4.94 0.81,-7.15l-7.93 -9.99 3.86 -3.05 15.29 7.25c2.47,1.16 5.4,0.16 6.66,-2.24l0.42 -0.79 0.29 -3.95 -2.64 -2.99z"/>
  <path class="fil0" d="M897.26 937.04l3.7 1.58 3.47 -1.37 13.58 -12.9c2.04,-1.93 2.12,-5.13 0.21,-7.16l-0.61 -0.62 -3.55 -1.58 -3.61 1.37 -9.28 8.81 -8.12 -8.6 5.96 -5.64 1.56 -3.55 -1.37 -3.61 -0.64 -0.67c-1.93,-2.04 -5.15,-2.12 -7.16,-0.19l-5.96 5.65 -4.96 -5.23 9.26 -8.79 1.58 -3.55 -1.39 -3.61 -0.64 -0.68c-1.93,-2.01 -5.13,-2.1 -7.16,-0.16l-13.58 12.87 -1.58 3.55 1.37 3.61 28.95 30.48z"/>
  <path class="fil0" d="M351.62 175.15l-3.26 -20.31 14.8 14.29 -11.54 6.02zm-7.49 -40.32c-1.56,-1.54 -3.93,-1.87 -5.88,-0.85l-1.25 0.65c-1.95,1.02 -2.99,3.13 -2.65,5.29l10.03 62.3 2.14 3.36 2.87 0.89 0.99 -0.11 1.29 -0.25c2.68,-0.54 4.44,-3.1 4.01,-5.77l-2.12 -13.25 18.33 -9.53 9.64 9.28c1.97,1.89 5.09,1.89 7.06,0.02l0.94 -0.92 1.58 -3.65 -1.55 -3.66 -45.41 -43.81z"/>
  <path class="fil0" d="M461.92 160.74l0.41 -3.86 -0.35 -1.23c-0.77,-2.68 -3.55,-4.23 -6.25,-3.47l-20.16 5.8 -14.99 -52.28 -2.43 -3.03 -3.86 -0.42 -1.25 0.35c-2.7,0.77 -4.23,3.59 -3.47,6.27l16.73 58.35c0.65,2.24 2.66,3.68 4.9,3.68l1.39 -0.21 26.27 -7.52 3.05 -2.42z"/>
  <path class="fil0" d="M517.46 124.83l4.99 -19.95 8.02 18.93 -13 1.02zm8.93 -40.05c-0.85,-2.01 -2.93,-3.24 -5.06,-3.1l-1.44 0.13c-2.16,0.16 -3.98,1.72 -4.53,3.84l-15.16 61.24 0.62 3.92 3.26 2.24 1.31 0.29 1.04 0.1c2.27,0 4.34,-1.55 4.9,-3.84l3.24 -13.02 20.62 -1.62 5.23 12.33c1.06,2.51 3.94,3.72 6.46,2.76l1.25 -0.48 2.87 -2.74 0 -3.97 -24.61 -58.1z"/>
  <path class="fil0" d="M599.17 150.83c4.05,1.89 8.03,3.1 11.9,3.55l2.55 0.16c4.73,0 8.95,-1.62 12.45,-4.88 3.55,-3.25 5.65,-7.2 6.14,-11.75 0.65,-5.21 -0.48,-12.75 -9.61,-19.15 -3.32,-2.2 -6.21,-4.13 -8.7,-5.73l-6.19 -4c-4.63,-3.08 -4.94,-6.11 -4.63,-8.39 0.23,-1.95 0.99,-3.47 2.41,-4.81 1.68,-1.56 3.88,-2.08 6.69,-1.74 1.41,0.16 5,1.05 13.52,5.17 2.05,0.98 4.54,0.46 6.04,-1.27l0.87 -1.02 1.19 -3.84 -1.98 -3.51c-4.98,-3.74 -11.11,-6.09 -18.25,-6.93 -6.37,-0.77 -11.67,0.87 -15.82,4.76 -3.47,3.2 -5.48,7.18 -6.04,11.85 -0.71,5.9 1.04,11.28 5.04,15.53l0.5 0.44 3.53 2.72 3.33 2.32 9.34 6.19 3.91 2.83 2.07 2.01c1.22,1.54 1.67,3.2 1.41,5.23l-2.57 4.71c-1.64,1.54 -3.51,2.05 -5.88,1.79 -0.87,-0.11 -4.63,-1 -16.69,-8.18 -2.1,-1.21 -4.69,-0.85 -6.33,0.91l-0.87 0.95 -1.37 3.66 1.62 3.53c2.87,2.65 6.4,4.98 10.42,6.89z"/>
  <path class="fil0" d="M671.05 165.74l1.25 0.44c2.64,0.87 5.52,-0.58 6.4,-3.22l6.66 -20.06 7.8 -4.38 6.15 34.14c0.44,2.42 2.57,4.17 4.98,4.17l0.79 -0.06 1.33 -0.21 3.34 -2.05 0.85 -3.84 -6.85 -38.1 22.92 -12.92c2.45,-1.37 3.3,-4.44 1.97,-6.89l-0.64 -1.17 -3.05 -2.41 -3.86 0.48 -30.34 17.03 6.92 -20.78 -0.29 -3.86 -2.95 -2.54 -1.22 -0.41c-2.66,-0.87 -5.54,0.56 -6.44,3.22l-18.93 57.02 0.26 3.88 2.95 2.53z"/>
  <path class="fil0" d="M785.42 163.87l-4.09 20.17 -11.3 -6.48 15.39 -13.68zm-41.47 30.34c1.89,1.97 4.99,2.1 7.04,0.29l10.01 -8.89 17.92 10.3 -2.64 13.14c-0.56,2.65 1.1,5.27 3.74,5.92l1.29 0.34 1.22 0.12 2.68 -0.79 2.27 -3.26 12.54 -61.84c0.46,-2.14 -0.54,-4.32 -2.41,-5.4l-1.24 -0.72 -5.92 0.6 -47.11 41.94 -1.68 3.59 1.41 3.72 0.89 0.94z"/>
  <path class="fil0" d="M485.5 559.18c-13.47,7.52 -28.36,10.97 -42.71,16.39 -6.21,2.34 -3.37,12.21 3.05,9.96 15.29,-5.31 31.35,-8.64 45.19,-17.4 5.73,-3.66 0.37,-12.25 -5.53,-8.95z"/>
  <path class="fil0" d="M991.09 428.05c19.19,-12.79 36.9,-11.31 43.15,-37.23 1.6,-6.65 -8.16,-8.93 -10.19,-2.55 -8.45,26.6 -40.28,19.98 -53.01,42.15 -14.89,25.87 -13.31,70.05 -38.72,87.43 -7.04,4.81 -11.4,11.54 -15.51,18.81 -7.6,13.62 -14.33,22.05 -27.7,29.88 -21.93,12.89 -40.39,25.81 -50.23,50.12 -2.68,6.6 6.33,12.08 9.95,5.48 14.8,-26.89 40.7,-35.32 63.33,-53.11 6.69,-5.27 11.05,-13.33 15.01,-20.7 3.05,-5.65 5.59,-10.82 9.61,-15.95 4.43,-5.64 13.79,-6.93 17.09,-12.85 14.97,-27.06 9.34,-72.93 37.23,-91.49z"/>
  <path class="fil0" d="M232.35 469.16c7.65,10.88 26.06,11.67 37.69,13.36 23.05,3.34 30.19,23.42 45,37.56 12.98,12.38 37.1,4.36 46.33,18.05 3.84,5.69 13.14,1.81 11.08,-4.99 -3.71,-12.14 -10.47,-15.39 -22.78,-16.61 -20.12,-2.01 -27.92,-7.41 -39.47,-23.17 -4.13,-5.63 -8.85,-11.15 -14.76,-14.97 -16.43,-10.53 -45.6,-5.9 -55.86,-23.01 -9.2,-15.37 -17.5,-29.07 -34.24,-36.9 -6.67,-3.11 -11.24,5.67 -5.4,9.76 15.53,10.97 21.97,26.02 32.41,40.92z"/>
  <path class="fil0" d="M427.1 561.44l0.04 0.02 -0.09 0 0.05 -0.02zm0.02 11.48l2.74 -1.64c1.55,-1.89 1.82,-3.57 1.43,-5.94l-0.85 -1.95c-0.79,-1.93 -2.2,-3.17 -3.94,-4.27l-5.27 -3.86c-4.73,-3.68 -9.69,-6.96 -14.74,-10.03 -4.9,-2.97 -10.42,3.17 -7.49,7.85 5.13,8.16 12.63,14.45 20.74,19.72 1.68,1.1 3.84,1.15 5.73,0.61 -0.46,0.25 -0.35,0.27 1.66,-0.48z"/>
  <path class="fil0" d="M408.66 491.59c4.57,4.76 10.74,12.09 17.29,13.75 4.59,1.14 8.49,-3.24 7.29,-7.66 -1.75,-6.42 -8.93,-10.79 -13.64,-15.06 -4.9,-4.49 -9.47,-9.11 -13.74,-14.2 -3.76,-4.4 -10.41,0.65 -9.03,5.54 2,7 6.85,12.5 11.84,17.63z"/>
  <path class="fil0" d="M500.29 534.14c6.33,1.89 9.72,-6.21 5.75,-10.47 -3.18,-3.45 -7.31,-5.9 -10.51,-9.43 -2.88,-3.22 -5.63,-7.12 -7.68,-10.92 -2.97,-5.54 -11.71,-1.41 -9.88,4.44 3.25,10.42 11.19,23.05 22.32,26.37z"/>
  <path class="fil0" d="M134.03 441.69c15.57,8.43 25.44,24.27 40.91,33.47 17.9,10.65 36.94,15.67 53.2,29.4 7.12,6 15.76,-3.4 9.82,-10.3 -13.1,-15.22 -32.96,-21.34 -50.56,-29.73 -18.15,-8.66 -29.22,-29.05 -49.34,-33 -6.04,-1.18 -9.68,7.08 -4.03,10.15z"/>
  <path class="fil0" d="M121.2 493.58c2.93,-4.3 5.19,-9.01 8.37,-13.14 3.76,-4.92 8.25,-7.16 13.35,-10.26 4.47,-2.7 2.47,-10.36 -2.97,-9.96 -14.18,1.06 -24.59,17.32 -28.82,29.42 -2.18,6.25 6.85,8.7 10.07,3.94z"/>
  <path class="fil0" d="M156.33 482.06l-4.42 4.9c-2.18,2.22 -5.04,4.46 -5.57,7.68 -0.77,4.65 2.78,7.64 7.25,6.89 3.05,-0.52 5.54,-3.55 7.43,-5.9 2.18,-2.65 3.59,-5.19 4.71,-8.41 1.81,-5.09 -6.1,-9.58 -9.41,-5.17z"/>
  <path class="fil0" d="M185.59 583.12c-8.64,-4.01 -15.33,-10.69 -23.67,-15.2 -11.07,-5.93 -22.78,-10.36 -33.56,-16.82 -22.96,-13.78 -32.27,-42.53 -48.88,-62.27 -3.88,-4.61 -11.38,1.68 -8.1,6.58 14.33,21.64 24.31,44.79 43.91,62.46 8.16,7.33 18.92,11.67 28.78,16.13 12.6,5.73 22.59,15.18 35.01,20.87 7.83,3.59 14.34,-8.1 6.5,-11.75z"/>
  <path class="fil0" d="M76.3 526.76c-9.09,5.01 -17.79,11.86 -24.64,19.65 -4.67,5.31 2.61,11.88 7.8,7.43 7.33,-6.29 14.7,-12.17 22.7,-17.57 5.98,-4.03 0.48,-12.98 -5.86,-9.51z"/>
  <path class="fil0" d="M90.34 549.61l-4.73 3.74c-2.27,1.6 -5.34,2.61 -7.19,4.63 -2.65,2.97 -1.7,8.89 2.8,9.57 7.2,1.1 12.98,-5.19 17.34,-10.14 4.88,-5.56 -2.8,-12.58 -8.22,-7.8z"/>
  <path class="fil0" d="M127.82 578.82c-2.5,-0.61 -6.04,0.97 -6.33,3.84 -0.35,2.76 -1.81,4.63 -2.97,7.15 -2.83,6.19 5.82,11.11 9.31,5.13 2.07,-3.53 4.15,-6.89 3.98,-11.13 -0.08,-2.34 -1.68,-4.4 -3.98,-4.98z"/>
  <path class="fil0" d="M281.37 505.69c-8.81,9.8 -18.75,21.53 -22.33,34.47 -2.18,7.95 9.53,10.47 12.21,3.03 4.21,-11.73 13.6,-19.98 19.08,-30.92 2.8,-5.56 -4.57,-11.46 -8.97,-6.58z"/>
  <path class="fil0" d="M295.27 552.74c3.36,-5.3 5.83,-12.11 7.14,-18.25 1.18,-5.71 -7.04,-9.39 -9.76,-3.82 -3.09,6.24 -6.83,12.58 -7.56,19.58 -0.58,5.84 7.6,6.59 10.18,2.5z"/>
  <polygon class="fil0" points="313.52,545.97 313.54,546.06 313.72,545.56 "/>
  <path class="fil0" d="M324.98 546.59c0.16,-3.11 -2.91,-5.67 -5.87,-5.59 -3.43,0.09 -5.28,2.77 -5.59,5.88l0.02 -0.83 -0.71 1.78 -0.75 2.45c-1.06,4.26 1.54,7.93 5.94,8.25l4.16 -1.87 1.02 -1.12 1.2 -5.23 0.34 -2.05c-0.19,1.91 0.22,-1.33 0.25,-1.67z"/>
  <path class="fil0" d="M345.88 543.15c-5.42,5.33 -8.47,14.68 -4.26,21.68 3.1,5.09 9.66,2.05 10.14,-3.01 0.37,-3.98 -1.31,-8.08 1.7,-11.48 4.42,-5.02 -2.76,-11.9 -7.58,-7.18z"/>
  <path class="fil0" d="M783.03 583.1c-3.34,-2.88 -6.73,-5.71 -10.3,-8.32 -2.08,-1.56 -4.53,-2.18 -6.85,-0.73 -2.43,1.52 -3.74,5.34 -1.85,7.77 2.78,3.63 5.94,6.64 9.38,9.59 3.38,2.95 6.69,6.55 10.99,8.04 3.94,1.37 8.03,-3.22 6.66,-6.98 -1.48,-3.98 -4.9,-6.66 -8.03,-9.36z"/>
  <path class="fil0" d="M797.34 568.75c-2.97,-2.18 -5.94,-4.36 -9.03,-6.36 -2.43,-1.56 -5.86,-0.33 -7.2,2.08 -1.5,2.74 -0.25,5.5 2.1,7.18 5.07,3.7 9.12,9.81 14.97,12.25 5.92,2.51 11.57,-4.3 6.79,-9.24 -2.2,-2.27 -5.13,-4.03 -7.62,-5.92z"/>
  <path class="fil0" d="M828.94 558.91c-3.78,-1.85 -7.6,-3.36 -10.64,-6.04 -5.4,-4.76 -12.5,2.83 -7.66,8.03 3.84,4.13 8.82,6.89 14.37,7.99 5.79,1.14 9.61,-7.16 3.93,-9.99z"/>
  <path class="fil0" d="M750.1 585.4c-5.86,-0.08 -7.1,9.72 -1.12,10.42 2.41,0.27 2.27,2.47 3.41,4.49 1.87,3.26 7.8,3.57 9.38,-0.25 1.6,-3.94 0.42,-7.43 -2.22,-10.61 -2.41,-2.95 -5.71,-4.01 -9.45,-4.05z"/>
  <path class="fil0" d="M1057.7 574.75c-14.14,-8.33 -30.61,1.6 -43.33,-11.75 -10.09,-10.57 -14.74,-25.37 -25.37,-35.44 -4.66,-4.42 -11.55,1.48 -8.49,6.87 7.93,14.08 15.82,28.74 26.89,40.61 11.48,12.31 31.83,11.38 47.26,12.13 6.89,0.31 8.36,-9.28 3.05,-12.42z"/>
  <path class="fil0" d="M1029.89 526.33l-4.59 -4.15c-2.89,-3.03 -4.84,-7.35 -6.79,-11.01 -4.09,-7.62 -7.75,-15.49 -11.84,-23.05 -3.01,-5.59 -11.27,-1.33 -9.76,4.4 3.26,12.44 13.17,52.39 32.23,44.6 4.8,-2 5.46,-8.64 0.75,-10.8z"/>
  <path class="fil0" d="M1051 484.61c-8.14,-1.56 -13.31,-8.2 -17.05,-15.2 -3.05,-5.73 -12.06,-1.44 -10.21,4.59 3.51,11.47 12.02,20.89 24.1,23.32 8.26,1.64 11.44,-11.13 3.16,-12.71z"/>
  <path class="fil0" d="M887.87 492.42c6.69,4.7 15.64,5.03 23.47,3.66 6.29,-1.1 15.32,-3.2 16.86,-10.48 0.71,-3.43 -1.85,-7.43 -5.67,-7.08 -4.71,0.39 -8.78,3.18 -13.41,4.24 -5.67,1.28 -11.65,0.79 -17.25,-0.52 -6.42,-1.47 -8.89,6.73 -3.99,10.19z"/>
  <path class="fil0" d="M911.25 468.96c8.59,1.97 21.41,1.52 27.24,-6.27 3.59,-4.82 -1.18,-12.02 -6.93,-8.56 -5.57,3.37 -12.65,5.3 -19.16,4.61 -5.92,-0.64 -6.71,8.93 -1.14,10.22z"/>
  <path class="fil0" d="M929.77 443.85c9.37,1.04 21.64,0.15 29.05,-6.5 3.43,-3.1 0.6,-10.15 -4.17,-9.45 -7.98,1.2 -15.72,4.07 -23.67,5.21 -5.52,0.79 -7.83,10.01 -1.21,10.74z"/>
  <path class="fil0" d="M856.81 429.82c-12.95,4.07 -26.19,8.7 -38.94,13.33 -5.94,2.14 -5.02,11.92 1.83,11.38 6.75,-0.52 13.43,-3.32 19.75,-5.56 7.43,-2.6 15.01,-5.26 21.9,-9.01 5.67,-3.07 1.44,-12.02 -4.54,-10.14z"/>
  <path class="fil0" d="M734.61 477.18c-7.31,7.95 -13.96,16.47 -21.2,24.44 -8.39,9.22 -17.73,14.41 -29.17,18.94 -7.42,2.95 -4.24,13.35 3.57,11.81 25.63,-5.11 41.22,-29.26 55.23,-49.01 3.51,-4.96 -4.49,-10.51 -8.43,-6.19z"/>
  <path class="fil0" d="M627.03 543.38c-30.02,8.05 -54.65,29.59 -84.67,38.37 -6.42,1.89 -4.61,11.28 1.83,11.36 13.56,0.18 27.72,-9.03 39.24,-15.24 15.86,-8.58 31.46,-17.42 47.91,-24.94 5.64,-2.55 1.27,-11.04 -4.3,-9.55z"/>
  <path class="fil0" d="M651.87 578.65c-6,-0.71 -10.68,-2.28 -14.6,-7 -3.97,-4.79 -11.01,1.6 -8.14,6.59 4.46,7.85 12.58,11.85 21.53,11.13 5.77,-0.48 7.56,-9.97 1.21,-10.72z"/>
  <path class="fil0" d="M687.35 561.71c-2.87,-1.12 -6.09,-1.12 -8.99,-2.27 -2.7,-1.08 -5.21,-2.68 -7.14,-4.86 -4.24,-4.84 -11.57,1.64 -8.48,6.87 4.34,7.33 16.35,13.67 24.88,10.82 5.54,-1.85 4.59,-8.72 -0.27,-10.57z"/>
  <path class="fil0" d="M774.99 514.68c-3.94,-2.08 -8.2,-3.24 -12.06,-5.5 -3.9,-2.26 -6.93,-5.77 -9.41,-9.45 -3.76,-5.59 -12.15,-1.7 -10.57,4.76 2.8,11.44 17.59,22.2 29.4,20.97 5.38,-0.58 8.04,-7.98 2.64,-10.78z"/>
  <path class="fil0" d="M821.12 498.75c-3.95,-0.12 -7.46,0.96 -11.4,-0.1 -3.72,-0.98 -6.87,-4.21 -9.64,-6.67 -6.13,-5.46 -11.3,-11.73 -18.56,-15.78 -5.33,-2.97 -10.32,4.21 -6.17,8.43 7.27,7.39 12.85,16.17 21.28,22.43 8.2,6.06 20.68,9.51 28.76,1.39 3.72,-3.74 0.5,-9.55 -4.27,-9.7z"/>
  <path class="fil0" d="M834.11 472.55c-2.61,-1.72 -5.4,-3.43 -7.45,-5.79 -4.22,-4.8 -11.24,1.64 -8.33,6.77 1.97,3.49 4.44,6.13 7.62,8.53 2.97,2.2 7.1,5.48 10.82,5.96 4.75,0.6 8.93,-3.83 6.2,-8.48 -1.91,-3.26 -5.81,-5 -8.86,-7z"/>
  <path class="fil0" d="M867.71 526c-2.27,-1.17 1.6,1.5 1.68,1.54l3.22 1.43c2.26,0.94 4.46,1.97 6.62,3.12 2.05,1.09 3.9,2.28 5.6,3.84 2.1,1.91 3.14,4.55 5.11,6.52 3.86,3.78 9.36,0.41 9.7,-4.3 0.48,-6.79 -5.84,-12.17 -10.97,-15.57 -2.84,-1.89 -6.09,-3.1 -9.26,-4.34l-4.49 -1.6 -2.73 -0.52 -0.91 0.14c-5.63,-1.32 -8.82,7.06 -3.59,9.74z"/>
  <path class="fil0" d="M981 570.91c-2.31,-1.04 -3.99,-2.6 -5.8,-4.34 -3.67,-3.59 -6.27,-8.32 -9.68,-12.19 -3.82,-4.36 -11.54,0.57 -9.57,5.86 2.41,6.48 5.71,12.23 10.3,17.38 4.8,5.36 13.5,9.68 20.32,6.23 3.53,-1.78 3.37,-6.7 0.98,-9.24 -1.82,-1.93 -4.21,-2.61 -6.56,-3.7z"/>
  <path class="fil0" d="M1061.68 420.62c-2.41,-1.85 -4.77,-3.07 -7.6,-4.13 -2.22,-0.81 -4.9,0.71 -5.94,2.62 -1.55,2.76 -0.29,5.54 2.08,7.25 3.55,2.53 5.79,7.15 9.82,9.01 5.73,2.66 10.51,-2.99 7.97,-8.39 -1.22,-2.66 -4.07,-4.61 -6.33,-6.36z"/>
  <path class="fil0" d="M448.46 553.36c-0.75,-5.85 -1.39,-10.79 -0.17,-16.65 1.25,-5.9 3.7,-11.44 4.9,-17.32 1.29,-6.13 -7.52,-10.05 -10.47,-4.13 -5.86,11.8 -13.06,28.92 -5.07,41.32 2.95,4.51 11.57,2.83 10.8,-3.22z"/>
  <path class="fil0" d="M465.28 551.66c2.99,1.79 7.48,-0.06 8.14,-3.57 0.52,-2.72 -0.54,-4.92 -0.85,-7.56 -0.39,-3.03 -0.48,-6.1 -0.68,-9.13 -0.54,-7.29 -10.65,-6.83 -11.17,0.27 -0.44,6.06 -1.5,16.34 4.57,19.99z"/>
  <path class="fil0" d="M69.68 393.34c4.65,-5.36 -2.83,-12.48 -7.93,-7.56 -6.54,6.23 -12.35,15.72 -14.79,24.44 -1.39,4.96 5.77,9.39 9.12,5.03 5.26,-6.83 7.91,-15.37 13.6,-21.91z"/>
  <path class="fil0" d="M82.33 426c2.97,-4.81 4.3,-11.09 5.49,-16.55 1.22,-5.73 -7.29,-9.59 -9.86,-3.88 -2.6,5.67 -5.27,11.67 -5.86,17.92 -0.56,5.82 7.64,6.71 10.24,2.51z"/>
  <path class="fil0" d="M201.84 508.97c-5.03,6.44 -9.18,14.29 -8.14,22.7 0.71,5.79 9.68,7.76 10.92,1.21 1.12,-6.15 3.47,-11.65 6.39,-17.15 3.05,-5.59 -5.06,-12.04 -9.18,-6.75z"/>
  <path class="fil0" d="M703.3 750.04c-6.46,4.69 -12.63,9.74 -19.06,14.45 -2.66,1.93 -2.95,4.92 -1.95,7.29l0.11 2.28c-7,-2.84 -14.39,-4.65 -21.81,-6.14 9.76,-10.92 25.54,-15.78 37.32,-24.67 1.77,2.28 3.67,4.46 5.4,6.79zm-305.42 16.98c-1.56,-4.11 -3.51,-8.22 -4.65,-12.4 -0.65,-2.26 -1.06,-4.5 -1.39,-6.75 4.16,6.85 8.89,13.31 14.2,19.22 -2.72,-0.02 -5.44,-0.06 -8.16,-0.08zm-41.3 -0.27c-3.67,-5.36 -6.93,-10.47 -9.24,-16.88 -2.42,-6.65 -3.55,-13.54 -4.88,-20.39 11.8,-3.67 23.43,-8.74 34.49,-14.45 1.04,3.24 2.18,6.39 3.38,9.57 -2.8,9.86 -1.43,20.6 0.54,30.54 0.68,3.51 1.66,7.73 3.05,11.74 -9.11,-0.06 -18.25,-0.08 -27.35,-0.13zm-49.75 -0.08c-3.03,-10.63 -6.59,-20.68 -1.12,-31.29 8.25,0.08 16.57,-0.91 24.87,-2.74 0.42,11.03 3.76,24.03 9.74,34.03 -11.15,-0.02 -22.32,-0.02 -33.49,0zm-37.5 0.17c-5.25,-15.39 -9.46,-29.76 -9.05,-45.93 10.3,7.33 21.22,11.55 32.45,13.37 -4.53,9.43 -3.71,22.07 0.11,32.41 -7.83,0.04 -15.66,0.11 -23.51,0.15zm-33.16 0.26c0.6,-13.14 5.09,-25.16 11.77,-36.23 0.12,12.35 2.99,25.13 7.98,36.07 -6.56,0.04 -13.17,0.11 -19.75,0.16zm361.46 -38.35c-22.28,0 -44.58,0 -66.9,0 -27.14,0 -56.89,3.51 -83.79,-0.71 0.58,-10.24 3.22,-20.45 7.54,-30.13 7.3,-16.47 23.38,-23.3 38.06,-31.5 18.52,-10.34 40.65,-24.15 38.43,-47.4l-0.85 -4.54 -2.28 -2.37 -2.53 -0.98c-8.89,-0.94 -14.7,-1.31 -19.64,-9.18 -2.47,-3.92 -5.94,-7.74 -11.01,-7.7 -2.08,0.02 -8.45,3.7 -9.78,0.91 -1.41,-2.84 -4.73,-4.16 -7.58,-4.86 -6.69,-1.68 -12.08,2.55 -14.7,8.1 -17.3,0.65 -32.62,-9.74 -50.17,-6.85 -17.26,2.83 -30.46,9.41 -48.61,6.36 -13,-2.16 -25.7,-8.04 -38.31,-11.75 -39.49,-11.63 -83.46,0.6 -112.21,28.92 -4.71,4.65 2.59,11.44 7.37,7.02 18.73,-17.38 39.49,-25.37 64.97,-26.37 26.99,-1.06 49.34,9.36 74.71,15.97 17.59,4.59 31.31,-2.83 47.86,-7.64 20.27,-5.92 39.31,9.16 60.47,4.44 2.34,-0.52 3.44,-2.5 3.59,-4.57 3.45,-4.71 3.94,0.64 6.42,3.66 1.7,2.11 5.09,2.41 7.5,2.37 6.6,-0.11 6.54,-7.29 10.38,-0.77 5.36,9.08 13.6,13.37 23.28,13.66 -4.28,30.63 -51.5,36.32 -68.19,59.32 -17.73,24.49 -22.43,58.14 -8.89,85.4 -6.96,-0.11 -13.96,-0.21 -20.91,-0.29 -16.07,-19.16 -27.16,-38.23 -36.72,-61.48l-0.16 -0.19c-0.89,-2.6 -3.4,-4.61 -6.43,-3.44 -41.51,15.99 -79.72,32.05 -120.21,3.98l-0.1 -0.06 -0.61 -0.23 -3.43 -0.12 -2.28 1.22c-16.9,14.16 -28.03,37.96 -28.53,60.34 -8.39,0.11 -16.77,0.19 -25.17,0.34 -4.69,-27.7 -8.05,-54.57 -3.2,-82.71l-0.02 -0.81c0.35,-1.89 -0.27,-3.9 -2.58,-5 -16.26,-7.69 11.71,-39.45 18.79,-46.68 4.76,-4.86 -2.51,-11.31 -7.5,-7.12 -10.36,8.74 -42.4,51.93 -19.95,61.88 -6.06,25.79 -5.73,55.17 1.91,80.69 -12.02,0.21 -24.05,0.44 -36.05,0.72 -7.62,0.17 -7.26,11.63 0.31,11.8 124.05,2.95 248.63,2.39 372.68,-0.41 7.12,-0.17 6.77,-10.82 -0.27,-10.97 -22.14,-0.5 -44.27,-0.89 -66.45,-1.27l-0.64 -1.85c-4.17,-7.56 -6.69,-15.53 -7.79,-23.67 23.77,-3.63 49.89,-0.56 73.86,-0.58 22.49,0 44.96,0 67.44,0 29.32,0 58.68,0.39 88,-0.18 -12.68,7.12 -25.17,15.32 -31.44,27.63 -1.62,3.22 -0.15,7.91 3.76,8.6 13.35,2.41 25.42,6.42 38.08,11.17l2.58 0.21c4.32,0.44 10.28,0.27 13,2.32 4.82,3.63 9.28,7.83 13.79,11.85l2.01 1.54c-21.45,5.57 -38.68,-1.14 -61.23,-3.98 -24.86,-3.14 -50.44,1.35 -75.15,4.05 -19.08,2.08 -45.64,-2.88 -63.24,5.73 -22.37,10.96 -38.43,31.18 -61.96,40.07 -19.98,7.54 -47.36,-0.67 -68.54,1.79 -25.25,2.9 -47.61,13.58 -73.59,9.76 -26.25,-3.88 -51.2,-3.18 -77.7,-2.04 -7.26,0.31 -6.95,11.09 0.27,11.19 28.22,0.44 54.43,-0.18 82.48,4.34 20.95,3.38 42.44,-4.55 62.64,-8.85 22.01,-4.71 42.8,0.12 64.79,-0.62 20.82,-0.71 37.81,-14.95 53.17,-27.37 22.94,-18.54 44.89,-17.96 72.86,-19.52 33.27,-1.87 64.33,-8.7 97.65,-2.24 17.84,3.47 29.18,8.64 47.03,3.14 13.81,-4.28 27.39,-10.57 41.48,-13.96 0.35,6.9 1.95,13.89 4.38,20.29 -7.33,3.66 -28.93,2.76 -35.07,3.03 -21.6,0.98 -43.27,0.75 -64.87,0.81 -16.36,0.04 -32.74,0.08 -49.04,1.55 -26.33,2.41 -46.25,17.18 -73.86,10.98 -19.25,-4.34 -31.7,4.66 -42.71,19.5 -12.52,16.95 -22.7,21.74 -44.09,18.25 -13.02,-2.12 -25.97,0.27 -38.87,2.2 -32.35,4.86 -63.64,17.44 -95.9,21.16 -14.47,1.68 -16.95,-6.87 -28.24,-10.47 -9.55,-3.03 -17.38,-2.22 -26.98,0.04 -6.52,1.54 -4.84,12.63 1.87,11.69 23.11,-3.2 37.52,13.16 61.34,10.38 32.28,-3.76 64.07,-16.72 96.53,-21.55 22.22,-3.34 47.26,7.23 67.26,-4.94 8.18,-4.98 13.87,-15.57 19.39,-23.05 14.08,-19.08 37.46,-6.5 56.25,-9.26 20.28,-2.93 38.29,-12.58 58.96,-13.73 21.91,-1.24 44.02,-0.68 65.97,-0.85 16.61,-0.11 70.31,6.89 82.97,-10.42 1.77,-1.81 2.66,-4.53 1.33,-7.39 -3.74,-7.93 -4.69,-17.45 -5.77,-26.08l-1.14 -2.78c-1.1,-2.26 -3.2,-3.98 -6.06,-3.86 -4.13,0.16 -8.26,0.95 -12.4,2.01 -4.88,0.65 -9.74,1.44 -14.7,1.97 -9.15,1 -11.69,-1.41 -17.77,-6.7 -9.16,-7.89 -14.46,-8.39 -24.76,-10.32 -0.21,-2.08 -0.45,-4.16 -0.75,-6.25 7.21,-5.3 14.16,-10.9 21.72,-15.72 3.01,-1.91 3.32,-5.25 1.95,-8.26 -2.91,-6.27 -8.37,-10.4 -12.5,-15.78 -0.77,-1.85 -2.47,-3.3 -5.1,-3.18 -33.7,-1.41 -67.51,-0.79 -101.25,-0.81z"/>
  <path class="fil0" d="M254.42 673.59l4.38 -5.15c4.4,-5.29 -2.45,-11.46 -7.56,-7.18 -2.14,1.74 -3.99,3.66 -5.3,6.1 -2.87,5.26 4.36,10.75 8.48,6.23z"/>
  <path class="fil0" d="M378.11 676.45c3.14,-0.06 4.84,-2.53 5.13,-5.4 0.35,-3.57 0.44,-7.19 0.58,-10.78 0.22,-6.02 -8.76,-6.65 -10.28,-1.14 -1.04,3.98 -1.24,8.12 -0.83,12.17 0.27,2.87 2.37,5.21 5.4,5.15z"/>
  <path class="fil0" d="M494.74 697.76c51.43,5.25 106.79,2.07 158.45,-0.17 7.15,-0.33 6.75,-10.67 -0.29,-10.96 -51.64,-2.27 -107,-5.44 -158.43,-0.19 -7.41,0.75 -6.89,10.59 0.27,11.32z"/>
  <path class="fil0" d="M689.97 696.05c49.69,2.64 101.14,2.74 150.83,0.29 7.2,-0.34 6.79,-10.69 -0.25,-11.02 -49.73,-2.45 -101.18,-2.35 -150.83,0.29 -6.83,0.35 -6.44,10.09 0.25,10.44z"/>
  <path class="fil0" d="M768.31 718.5c-5.48,0.68 -7.53,9.64 -1.18,10.42 30.17,3.78 61.2,1.97 91.55,2.04 33.16,0.06 66.99,1.74 100.02,-1.5 7.41,-0.73 6.91,-10.64 -0.27,-11.34 -29.82,-2.9 -60.18,-1.47 -90.12,-1.5 -33.03,0 -67.21,-2.24 -100,1.87z"/>
  <path class="fil0" d="M850.98 762.33c7.25,-0.35 6.85,-10.79 -0.29,-11.17 -30.79,-1.54 -63.12,-2.93 -93.81,0.38 -6.85,0.72 -6.33,9.74 0.27,10.44 30.67,3.28 63,1.89 93.83,0.35z"/>
  <path class="fil0" d="M942.23 763.48c7.15,-0.62 6.65,-10.3 -0.29,-10.9 -19.66,-1.77 -39.87,-0.81 -59.55,0.16 -6.89,0.31 -6.5,10.24 0.25,10.57 19.71,0.95 39.91,1.93 59.59,0.16z"/>
  <path class="fil0" d="M854.48 789.33c-17.88,-1.58 -36.61,-1.45 -54.51,0.19 -6.89,0.64 -6.42,9.92 0.27,10.52 17.86,1.67 36.61,1.81 54.51,0.21 7.14,-0.62 6.65,-10.32 -0.27,-10.92z"/>
  <path class="fil0" d="M890.69 787.42c-11.92,-1.83 -11.69,16.49 -1.66,14.95 33.51,-5.11 68.75,0.64 102.64,-2.16 7.08,-0.58 6.6,-10.28 -0.29,-10.86 -33.16,-2.7 -67.83,3.09 -100.68,-1.93z"/>
  <path class="fil0" d="M703.65 863.08c-6.83,0.41 -6.42,10.05 0.25,10.47 50.15,2.99 101.97,2.83 152.12,0.35 7.27,-0.38 6.87,-10.82 -0.25,-11.17 -50.17,-2.49 -101.99,-2.68 -152.11,0.35z"/>
  <path class="fil0" d="M664.35 865.37c-18.23,-1.1 -36.32,-0.08 -54.51,0.31 -6.68,0.14 -6.37,10.19 0.25,10.32 18.19,0.39 36.29,1.44 54.53,0.34 7.14,-0.44 6.7,-10.55 -0.27,-10.97z"/>
  <path class="fil0" d="M521.11 892.24c-6.83,0.45 -6.42,10.03 0.23,10.44 39.95,2.62 80.46,0.83 120.45,0.12 6.91,-0.12 6.6,-10.57 -0.27,-10.69 -39.99,-0.69 -80.48,-2.47 -120.41,0.12z"/>
  <path class="fil0" d="M790.12 909.26c7.1,-0.23 6.7,-10.68 -0.27,-10.92 -27.74,-0.95 -55.98,-1.78 -83.68,0.21 -6.85,0.48 -6.44,10.05 0.27,10.53 27.7,1.97 55.96,1.14 83.68,0.19z"/>
  <path class="fil0" d="M630.81 934.47c-12.02,-1.99 -12.11,16.7 0.37,14.62 37.48,-6.17 79.03,-0.29 117.09,-1.68 7.23,-0.27 6.85,-10.88 -0.25,-11.13 -38.11,-1.39 -79.63,4.43 -117.21,-1.81z"/>
  <path class="fil0" d="M685.88 964.28c-8.32,-0.33 -16.61,-0.6 -24.96,-0.71 -8.48,-0.1 -21.62,2.7 -29.55,-0.52 -14.83,-5.98 -13.06,18.62 -1.45,13.93 7.7,-3.13 18.89,-1.18 27.12,-1.16 9.7,0.06 19.42,-0.27 29.11,-0.69 7.06,-0.29 6.66,-10.57 -0.27,-10.86z"/>
  <path class="fil0" d="M588.26 964.47c-33.1,-0.48 -67.11,-2.97 -100.12,0.02 -6.83,0.62 -6.37,9.86 0.27,10.45 32.97,3.01 67,0.52 100.15,0.02 6.77,-0.08 6.47,-10.4 -0.29,-10.48z"/>
  <path class="fil0" d="M433.61 931.46c-6.87,0.29 -6.52,10.32 0.29,10.59 50.02,2.14 100.81,2.45 150.83,0.16 7.1,-0.33 6.69,-10.57 -0.25,-10.9 -50.02,-2.28 -100.85,-1.95 -150.87,0.15z"/>
  <path class="fil0" d="M469.29 907.91c-14.08,-1.66 -29.18,-1.41 -43.25,-0.06 -6.86,0.67 -6.42,9.86 0.22,10.48 13.6,1.29 28.31,1.71 41.84,0.11 5.54,-0.64 7.56,-9.78 1.18,-10.53z"/>
  <path class="fil0" d="M384.18 930.06c-12.84,-0.71 -26.5,-1.47 -39.31,0.27 -5.23,0.73 -7.33,9.31 -1.08,10.15 13.25,1.83 27.33,1.17 40.68,0.44 7.06,-0.39 6.65,-10.47 -0.29,-10.86z"/>
  <path class="fil0" d="M399.65 973.65c15.18,0.87 30.48,0.67 45.66,0.15 6.92,-0.23 6.59,-10.47 -0.29,-10.67 -15.14,-0.54 -30.44,-0.75 -45.62,0.12 -6.77,0.39 -6.37,10.03 0.25,10.4z"/>
  <path class="fil0" d="M352.74 829.38c7.1,-0.31 6.73,-10.59 -0.23,-10.9 -12.27,-0.52 -24.53,-0.27 -36.79,0.23 -6.77,0.29 -6.4,10.19 0.29,10.47 12.23,0.5 24.52,0.75 36.73,0.21z"/>
  <path class="fil0" d="M110.38 755.24c-8.47,-0.57 -16.88,-0.34 -25.35,0.06 -6.85,0.31 -6.5,10.24 0.27,10.53 8.45,0.39 16.86,0.6 25.33,0.06 6.95,-0.45 6.52,-10.21 -0.25,-10.65z"/>
  <path class="fil0" d="M159.78 243.48c-1.85,23.8 -2.8,49.77 -0.31,73.53 0.75,7.29 10.4,6.77 11.13,-0.27 2.43,-23.76 1.54,-49.71 -0.38,-73.5 -0.52,-6.86 -9.9,-6.4 -10.44,0.25z"/>
  <path class="fil0" d="M187.68 195.31c-2.74,36.82 -2.43,74.73 -0.33,111.57 0.37,7.25 10.71,6.81 11.11,-0.29 2.1,-36.82 2.39,-74.73 -0.35,-111.54 -0.52,-6.79 -9.92,-6.36 -10.42,0.26z"/>
  <path class="fil0" d="M215.51 176.29c-3.61,40.3 -2.55,82.6 -0.64,122.97 -0.21,3.88 2.74,5.71 5.75,5.59 3.11,0.12 6.33,-1.83 6.1,-5.86 1.91,-40.39 2.99,-82.68 -0.64,-122.94 -0.62,-6.92 -9.99,-6.46 -10.57,0.25z"/>
  <path class="fil0" d="M247.32 209.24c-2.22,35.5 -2.6,72.28 -0.23,107.76 0.5,7 10.3,6.56 10.76,-0.25 2.37,-35.5 2.03,-72.28 -0.21,-107.76 -0.39,-6.73 -9.92,-6.31 -10.32,0.25z"/>
  <path class="fil0" d="M276.45 196.64c3.26,7.04 0.29,20.75 0.23,28.32 -0.12,12.94 -0.12,25.89 -0.12,38.83 -0.02,21.95 -0.56,43.94 0.77,65.85 -0.23,3.7 2.61,5.37 5.48,5.19 2.93,0.12 5.92,-1.68 5.71,-5.49 1.31,-21.91 0.79,-43.89 0.77,-65.86 -0.02,-10.61 0,-21.24 -0.08,-31.87 -0.06,-9.49 -3.74,-26.49 0.33,-35.3 6.46,-13.87 -19.87,-14.37 -13.08,0.33z"/>
  <path class="fil0" d="M309.39 233.33c-1.75,35.3 -1.41,71.2 -0.39,106.5 0.22,7.29 11,6.92 11.19,-0.27 1.06,-35.32 1.33,-71.2 -0.35,-106.48 -0.33,-6.79 -10.15,-6.42 -10.44,0.25z"/>
  <path class="fil0" d="M338.51 266.3c-0.42,29.57 -0.67,59.18 -0.27,88.75 0.08,7.12 10.92,6.79 11.01,-0.27 0.41,-29.59 0.15,-59.18 -0.25,-88.75 -0.09,-6.79 -10.38,-6.48 -10.49,0.27z"/>
  <path class="fil0" d="M365.11 228.26c-0.54,37.92 -3.66,76.27 -0.29,114.12 0.67,7.22 10.47,6.75 11.11,-0.29 3.34,-37.85 0.25,-76.18 -0.31,-114.07 -0.08,-6.81 -10.4,-6.52 -10.51,0.25z"/>
  <path class="fil0" d="M398 266.3c-3.3,31.12 -1.55,63.85 -0.15,95.08 0.31,7.12 10.65,6.73 10.97,-0.27 1.41,-31.23 3.18,-63.96 -0.15,-95.08 -0.72,-7 -9.98,-6.5 -10.67,0.27z"/>
  <path class="fil0" d="M432.31 233.33c-0.38,25.33 -0.91,50.75 -0.38,76.08 0.17,7.26 11.09,6.93 11.26,-0.27 0.54,-25.33 0,-50.73 -0.39,-76.06 -0.09,-6.79 -10.38,-6.5 -10.49,0.25z"/>
  <path class="fil0" d="M467.19 300.25c1.12,-28.18 0.54,-56.73 -0.31,-84.93 -0.19,-6.79 -10.28,-6.46 -10.47,0.27 -0.85,28.2 -1.44,56.75 -0.31,84.93 0.29,7.22 10.79,6.83 11.09,-0.27z"/>
  <path class="fil0" d="M481.75 186.44c-2.16,53.89 -1.23,108.35 -0.15,162.25 0.16,6.98 10.63,6.65 10.79,-0.25 1.08,-53.93 2.04,-108.39 -0.14,-162.27 -0.27,-6.83 -10.24,-6.47 -10.51,0.27z"/>
  <path class="fil0" d="M509.65 235.88c-2.66,33.1 -0.81,66.94 -0.15,100.12 0.12,6.97 10.63,6.66 10.76,-0.25 0.67,-33.18 2.51,-67.02 -0.17,-100.14 -0.52,-6.81 -9.92,-6.37 -10.44,0.27z"/>
  <path class="fil0" d="M537.56 338.56c-0.95,28.94 -2.24,58.55 -0.29,87.46 0.5,7.18 10.55,6.75 11.01,-0.27 1.93,-28.91 0.68,-58.52 -0.29,-87.46 -0.21,-6.75 -10.19,-6.42 -10.42,0.27z"/>
  <path class="fil0" d="M572.2 414.35c1.5,-25.21 -2.58,-51.7 2.01,-76.62 2.24,-11.98 -16.9,-12.13 -14.62,0.35 4.57,24.88 0.46,51.37 1.91,76.54 0.44,6.96 10.3,6.56 10.69,-0.27z"/>
  <path class="fil0" d="M590.75 285.32c-0.62,33.27 -1.97,66.9 -0.14,100.15 0.39,7.04 10.42,6.62 10.79,-0.27 1.83,-33.24 0.48,-66.88 -0.14,-100.14 -0.13,-6.79 -10.38,-6.48 -10.51,0.26z"/>
  <path class="fil0" d="M615.38 263.29c5.72,35.28 -1.14,72.6 1.44,108.25 0.56,7.58 11.11,7.1 11.65,-0.29 2.57,-35.67 -4.21,-72.98 1.54,-108.31 1.97,-12.02 -16.65,-12.1 -14.62,0.35z"/>
  <path class="fil0" d="M654.17 336.88c3.07,0.27 6.21,-1.52 5.8,-5.44 3.67,-36.09 2.55,-75.09 -0.38,-111.05 -0.54,-6.85 -9.96,-6.42 -10.53,0.27 -2.93,35.96 -4.03,74.96 -0.37,111.04 -0.38,3.78 2.51,5.44 5.48,5.17z"/>
  <path class="fil0" d="M676.93 228.26c-2.2,29.71 -1.45,60.26 -0.16,90.01 0.31,7.1 10.63,6.7 10.92,-0.27 1.25,-29.75 2.04,-60.3 -0.21,-89.99 -0.48,-6.89 -10.05,-6.48 -10.55,0.25z"/>
  <path class="fil0" d="M707.55 257.29c-3.53,32.06 -1.33,65.55 -0.39,97.76 0.19,7.14 10.78,6.77 10.98,-0.27 0.89,-31.67 3.2,-64.83 -0.26,-96.35 -0.61,-5.44 -9.62,-7.37 -10.32,-1.14z"/>
  <path class="fil0" d="M730.06 375.31c0.25,7.02 10.55,6.65 10.8,-0.25 1.18,-32.64 2.43,-66.3 -0.08,-98.88 -0.54,-6.96 -10.11,-6.52 -10.65,0.25 -2.47,32.58 -1.27,66.23 -0.06,98.88z"/>
  <path class="fil0" d="M753.53 268.36c3.76,12.44 0.85,29.14 0.95,42.01 0.11,12.79 0.37,25.56 0.98,38.33 0.31,6.98 10.42,6.6 10.71,-0.25 0.5,-11.13 0.85,-22.22 0.94,-33.35 0.12,-14.45 -3.1,-33.18 1.06,-47.09 3.57,-11.85 -18.38,-12.17 -14.64,0.35z"/>
  <path class="fil0" d="M780.5 240.95c-1.02,24.46 -1.43,49.08 0.15,73.52 0.46,7.21 10.59,6.77 11.05,-0.26 1.58,-24.44 1.14,-49.07 0.16,-73.53 -0.33,-7.39 -11.09,-7 -11.36,0.27z"/>
  <path class="fil0" d="M813.18 306.58c1.06,-39.49 1.89,-79.65 -0.23,-119.12 -0.35,-6.83 -10.13,-6.46 -10.47,0.23 -2.1,39.49 -1.29,79.65 -0.23,119.18 0.19,7.08 10.74,6.73 10.92,-0.29z"/>
  <path class="fil0" d="M846.01 276.18c0.67,-38.39 2.02,-76.99 -0.08,-115.36 -0.35,-6.83 -10.13,-6.44 -10.51,0.25 -2.08,38.38 -0.77,76.99 -0.08,115.37 0.11,6.93 10.55,6.6 10.67,-0.25z"/>
  <path class="fil0" d="M879.23 319.27c1.14,-35.92 3.24,-73.21 -0.29,-109.01 -0.66,-6.93 -9.94,-6.46 -10.61,0.27 -3.51,35.8 -1.41,73.09 -0.29,109.01 0.23,7.29 10.99,6.92 11.19,-0.27z"/>
  <path class="fil0" d="M913.39 287.58c1.5,-18.4 1.64,-37.38 -0.02,-55.79 -0.65,-7.2 -10.41,-6.73 -11.03,0.29 -1.66,18.4 -1.47,37.38 -0.02,55.77 0.58,7.25 10.51,6.77 11.07,-0.27z"/>
  <path class="fil0" d="M951.74 286.3c1.66,-18.15 1.25,-37.62 -0.5,-55.75 -0.68,-7 -10.05,-6.52 -10.69,0.27 -1.74,18.15 -2.18,37.62 -0.49,55.77 0.68,7.68 11.02,7.14 11.69,-0.29z"/>
  <path class="fil0" d="M974.18 273.65c0.73,-8.49 0.38,-16.9 -0.26,-25.36 -0.5,-6.83 -9.95,-6.39 -10.45,0.25 -0.6,8.45 -0.98,16.9 -0.23,25.35 0.62,7.15 10.34,6.67 10.94,-0.25z"/>
  <path class="fil0" d="M130.71 252.2c-2.16,12.67 -1.81,26.7 -0.35,39.45 0.67,5.69 10.05,7.77 10.84,1.18 1.54,-13.28 2.03,-27.66 -0.25,-40.88 -0.89,-5.19 -9.38,-4.73 -10.24,0.25z"/>
  <path class="fil0" d="M569.54 209.68c7.27,0 7,-11.28 -0.27,-11.28 -7.29,0 -7.02,11.28 0.27,11.28z"/>
  <path class="fil0" d="M712.23 213.08c3.18,-0.95 4.55,-3.61 4.86,-6.7l0 -0.08c0.27,-2.87 -2.47,-5.84 -5.14,-6.42l-1.91 -0.21c2.27,0.04 0.87,0 0.23,-0.08 -4.59,-0.52 -8.08,2.68 -7.08,7.46l0.08 0.16 0.77 2.35 0.42 0.58c1.72,2.55 4.76,3.86 7.79,2.95z"/>
  <path class="fil0" d="M553.77 53.38l-0.87 -0.67 -2.47 -0.98c-3.84,-1.39 -7.88,3.18 -6.52,6.83l3.3 4.49 3.17 0.87 1.39 -0.27c2.43,-0.31 4.46,-1.58 5.09,-4.09 0.6,-2.34 -0.77,-5.27 -3.1,-6.19z"/>
  <path class="fil0" d="M469.26 386.58c-2.61,-0.67 -5.89,0.98 -6.39,3.82l0 0.05 -0.04 0.04c-4.94,4.86 2.99,12.41 7.79,7.39 1.66,-1.74 2.99,-3.8 2.61,-6.35 -0.33,-2.32 -1.5,-4.34 -3.97,-4.94z"/>
  <path class="fil0" d="M659.51 427.24c3.4,3.97 8.29,2.76 10.92,-1.29 2.74,-4.2 -2.02,-8.81 -6.19,-7.68 -4.53,-0.91 -8.45,4.59 -4.73,8.97z"/>
  <path class="fil0" d="M843.83 359.86c3.67,-1.1 5,-4.63 4.36,-8.12 -1.08,-5.73 -7.54,-6.32 -11.81,-4.28 -3.87,1.82 -3.37,7.95 0.1,9.84 1.52,2.27 4.82,3.33 7.35,2.55z"/>
  <path class="fil0" d="M340.86 387.69l-0.04 -0.06 0.44 0.21 -0.39 -0.15zm2.86 -9.92c-2.78,-0.46 -5.54,0.85 -6.29,3.76 -0.5,2.1 0.48,4.44 2.24,5.6 2.78,3.41 9.74,2.28 9.3,-3.2 -0.25,-2.97 -2.14,-5.69 -5.26,-6.17z"/>
  <path class="fil0" d="M290.36 127.81c-6.79,0 -6.5,10.52 0.27,10.52 6.79,0 6.56,-10.52 -0.27,-10.52z"/>
  <path class="fil0" d="M906.73 190.47c7,0 6.7,-10.87 -0.27,-10.87 -7.02,0 -6.73,10.87 0.27,10.87z"/>
 </g>
</svg>
