<?xml version="1.0" encoding="UTF-8"?>
<svg xmlns="http://www.w3.org/2000/svg" xml:space="preserve" width="0.747354in" height="0.747331in" version="1.1" style="shape-rendering:geometricPrecision; text-rendering:geometricPrecision; image-rendering:optimizeQuality; fill-rule:evenodd; clip-rule:evenodd"
viewBox="0 0 115.81 115.8"
 xmlns:xlink="http://www.w3.org/1999/xlink"
 xmlns:xodm="http://www.corel.com/coreldraw/odm/2003">
 <defs>
  <style type="text/css">
   <![CDATA[
    .fil0 {fill:black;fill-rule:nonzero}
   ]]>
  </style>
 </defs>
 <g id="Layer_x0020_1">
  <metadata id="CorelCorpID_0Corel-Layer"/>
  <path class="fil0" d="M25.68 95.62l-1.09 1.25c-0.14,0.16 -0.3,0.23 -0.54,0.23l0 0c-0.21,-0.01 -0.37,-0.06 -0.49,-0.16l-0.37 -0.32 2.06 -2.35 0.37 0.33c0.12,0.1 0.19,0.25 0.23,0.46 0.03,0.23 -0.01,0.41 -0.16,0.57zm0.69 -1.89l-0.84 -0.73c-0.22,-0.19 -0.55,-0.17 -0.74,0.05l-2.87 3.28c-0.19,0.22 -0.17,0.55 0.05,0.74l0.83 0.73c0.32,0.28 0.73,0.43 1.21,0.45l0.06 0c0.54,0 1.02,-0.21 1.38,-0.62l1.09 -1.24c0.37,-0.42 0.52,-0.94 0.43,-1.51 -0.08,-0.47 -0.28,-0.86 -0.6,-1.14z"/>
  <path class="fil0" d="M32.26 98.22l-0.08 -0.05c-0.25,-0.16 -0.57,-0.08 -0.72,0.16l-2.3 3.59c-0.15,0.25 -0.08,0.57 0.16,0.73l0.08 0.05 0.28 0.09 0.11 -0.02 0.33 -0.23 2.3 -3.6 0.07 -0.4 -0.23 -0.33z"/>
  <path class="fil0" d="M39.7 102.05l-2.17 -0.96 -0.4 -0.01 -0.29 0.28 -0.04 0.09c-0.12,0.27 0,0.58 0.27,0.69l0.56 0.25 -1.49 3.38 -0.01 0.4 0.28 0.29 0.09 0.03 0.21 0.05c0.2,0 0.39,-0.12 0.48,-0.31l1.49 -3.37 0.56 0.25c0.27,0.12 0.57,0 0.69,-0.26l0.04 -0.09 0.01 -0.4 -0.28 -0.29z"/>
  <path class="fil0" d="M44.4 106.9l0.41 -0.61 0.04 0.73 -0.45 -0.12zm1.06 -2.85l-0.1 -0.03c-0.22,-0.05 -0.45,0.03 -0.58,0.22l-2.47 3.73 -0.08 0.4 0.24 0.34 0.08 0.05c0.24,0.15 0.56,0.08 0.71,-0.16l0.46 -0.69 1.19 0.32 0.05 0.83c0.02,0.28 0.25,0.49 0.53,0.49l0.01 0 0.09 -0 0.37 -0.17 0.14 -0.39 -0.26 -4.47c-0.02,-0.23 -0.17,-0.42 -0.39,-0.48z"/>
  <path class="fil0" d="M50.77 105.66l-0.01 0.1 0.11 0.39 0.35 0.19 0.61 0.07 -0.41 3.67 0.11 0.38 0.35 0.2 0.1 0.01 0.06 0c0.26,0 0.49,-0.2 0.52,-0.47l0.41 -3.67 0.61 0.07c0.28,0.04 0.55,-0.18 0.58,-0.46l0.01 -0.1 -0.11 -0.39 -0.35 -0.19 -2.35 -0.26c-0.29,-0.03 -0.55,0.17 -0.58,0.46z"/>
  <path class="fil0" d="M67.07 105.92l0.5 0.1c0.2,0.11 0.31,0.26 0.36,0.47l0.31 1.63c0.04,0.22 -0,0.4 -0.15,0.57l-0.43 0.29 -0.48 0.09 -0.59 -3.06 0.49 -0.09zm-0.68 4.31l0.29 0.09 0.1 -0.01 1.09 -0.21c0.42,-0.08 0.78,-0.31 1.09,-0.68 0.36,-0.44 0.5,-0.96 0.39,-1.51l-0.31 -1.63c-0.1,-0.55 -0.43,-0.99 -0.93,-1.26 -0.42,-0.23 -0.85,-0.31 -1.27,-0.23l-1.09 0.21c-0.28,0.06 -0.47,0.33 -0.42,0.62l0.82 4.28 0.22 0.33z"/>
  <path class="fil0" d="M74.16 107.97l0.27 0.3 0.22 0.05 0.18 -0.03 1.83 -0.65 0.3 -0.27 0.02 -0.4 -0.03 -0.08c-0.1,-0.27 -0.4,-0.41 -0.67,-0.32l-1.24 0.45 -0.41 -1.15 0.8 -0.29c0.27,-0.1 0.42,-0.4 0.32,-0.67l-0.03 -0.09 -0.27 -0.29 -0.4 -0.02 -0.8 0.29 -0.25 -0.71 1.25 -0.44c0.27,-0.1 0.42,-0.4 0.32,-0.67l-0.03 -0.09 -0.27 -0.3 -0.4 -0.02 -1.83 0.65 -0.3 0.27 -0.02 0.4 1.46 4.1z"/>
  <path class="fil0" d="M80.75 103.97c0.23,0.42 0.59,0.71 1.04,0.85l0.51 0.08c0.29,0 0.56,-0.07 0.83,-0.22 0.43,-0.23 0.71,-0.58 0.85,-1.04 0.14,-0.46 0.09,-0.92 -0.14,-1.34l-1.47 -2.71c-0.14,-0.25 -0.46,-0.35 -0.71,-0.21l-0.08 0.04 -0.25 0.31 0.04 0.4 1.46 2.71 0.05 0.47 -0.29 0.36 -0.47 0.05 -0.37 -0.29 -1.46 -2.71c-0.14,-0.25 -0.45,-0.35 -0.71,-0.21l-0.08 0.04 -0.25 0.31 0.04 0.4 1.46 2.71z"/>
  <path class="fil0" d="M87.31 98.89l0.07 0 0.32 -0.03 0.29 -0.05 0.78 -0.14 0.32 -0.05 0.17 0 0.22 0.13 0.07 0.26 -0.15 0.26c-0.02,0.02 -0.22,0.15 -1.19,0.38 -0.24,0.05 -0.41,0.27 -0.41,0.52l0 0.1 0.16 0.37 0.37 0.15 0.01 0c0.3,-0.01 0.61,-0.06 0.92,-0.17 0.32,-0.11 0.59,-0.25 0.83,-0.43 0.36,-0.28 0.57,-0.66 0.6,-1.1 0.02,-0.38 -0.08,-0.72 -0.3,-1.02 -0.29,-0.39 -0.72,-0.6 -1.24,-0.6l-0.36 0.03c-0.28,0.05 -0.52,0.1 -0.73,0.13l-0.51 0.1c-0.22,0.04 -0.38,0.01 -0.49,-0.14l-0.08 -0.25 0.19 -0.3c0.06,-0.04 0.26,-0.16 0.9,-0.37 0.23,-0.08 0.37,-0.29 0.36,-0.53l-0.01 -0.09 -0.19 -0.37 -0.4 -0.12c-0.47,0.06 -0.92,0.25 -1.36,0.57 -0.39,0.3 -0.62,0.7 -0.64,1.15 -0.02,0.37 0.08,0.71 0.31,1.01 0.29,0.38 0.68,0.59 1.15,0.61z"/>
  <path class="fil0" d="M30.73 21.82l-1.07 0.83 -0.71 -2.01 1.77 1.18zm-1.3 3.72l0.28 0.31 0.22 0.04 0.19 -0.03 0.13 -0.05c0.26,-0.1 0.4,-0.4 0.3,-0.66l-0.46 -1.31 1.69 -1.31 1.16 0.76c0.23,0.16 0.55,0.1 0.71,-0.13l0.08 -0.11 0.09 -0.4 -0.23 -0.34 -5.44 -3.63 -0.62 0.02 -0.11 0.09c-0.18,0.14 -0.25,0.37 -0.17,0.59l2.18 6.16z"/>
  <path class="fil0" d="M37.48 13.94c0.31,-0.14 0.59,-0.2 0.84,-0.15 0.2,0.04 0.5,0.14 0.74,0.67 0.25,0.54 0.14,0.83 0.04,1 -0.13,0.21 -0.36,0.4 -0.67,0.54l-0.95 0.44 -0.95 -2.06 0.95 -0.44zm0.34 6.05c0.09,0.19 0.28,0.3 0.48,0.3l0.22 -0.05 0.12 -0.06 0.27 -0.3 -0.02 -0.4 -0.91 -1.97 0.95 -0.44 0.08 -0.04 2.11 1.7c0.22,0.17 0.54,0.15 0.73,-0.07l0.09 -0.1 0.13 -0.39 -0.19 -0.37 -1.9 -1.53c0.52,-0.64 0.58,-1.45 0.17,-2.33 -0.44,-0.96 -1.13,-1.26 -1.62,-1.34 -0.49,-0.08 -1.01,0 -1.55,0.25l-1.55 0.72c-0.26,0.12 -0.38,0.43 -0.26,0.7l2.65 5.71z"/>
  <path class="fil0" d="M48.56 16.09l0.23 0.33 0.29 0.09 0.11 -0.01 0.14 -0.03c0.28,-0.06 0.47,-0.34 0.41,-0.62l-1.27 -6.1c-0.06,-0.29 -0.34,-0.46 -0.62,-0.41l-0.14 0.03 -0.33 0.22 -0.08 0.4 1.27 6.1z"/>
  <path class="fil0" d="M56.95 15.63l3.58 0.07 0.01 0 0.36 -0.15 0.16 -0.37 0 -0.13c0,-0.29 -0.22,-0.52 -0.51,-0.53l-2.45 -0.05 3.14 -5.39 0 -0.52 -0.45 -0.26 -3.58 -0.08c-0.28,-0.01 -0.53,0.23 -0.54,0.52l-0 0.14 0.15 0.37 0.37 0.16 2.45 0.05 -3.14 5.38 -0 0.52 0.45 0.27z"/>
  <path class="fil0" d="M67.76 14.42l0.68 -2.68c0.08,-0.31 0.24,-0.53 0.52,-0.69 0.18,-0.11 0.37,-0.16 0.56,-0.16l0.3 0.04c0.31,0.08 0.53,0.25 0.7,0.52 0.16,0.27 0.2,0.54 0.12,0.86l-0.68 2.68c-0.08,0.32 -0.24,0.54 -0.52,0.7 -0.27,0.16 -0.55,0.2 -0.86,0.13 -0.31,-0.08 -0.54,-0.24 -0.7,-0.52 -0.16,-0.28 -0.2,-0.55 -0.12,-0.87zm0.54 2.53c0.2,0.05 0.4,0.08 0.59,0.08 0.41,0 0.8,-0.11 1.17,-0.33 0.55,-0.33 0.91,-0.81 1.06,-1.43l0.68 -2.68c0.15,-0.62 0.07,-1.21 -0.26,-1.76 -0.33,-0.55 -0.81,-0.91 -1.42,-1.06 -0.62,-0.16 -1.22,-0.07 -1.76,0.26 -0.55,0.33 -0.9,0.8 -1.06,1.42l-0.68 2.69c-0.16,0.62 -0.07,1.21 0.25,1.76 0.33,0.54 0.81,0.9 1.43,1.06z"/>
  <path class="fil0" d="M75.67 19.45l0.12 0.06c0.26,0.13 0.57,0.03 0.71,-0.23l1.8 -3.5 0.15 4.79 0.28 0.45 0.13 0.07 0.24 0.06 0.16 -0.03 0.31 -0.26 2.86 -5.54c0.13,-0.26 0.03,-0.58 -0.23,-0.71l-0.12 -0.06 -0.4 -0.03 -0.31 0.26 -1.8 3.49 -0.15 -4.79 -0.28 -0.45 -0.13 -0.07 -0.4 -0.03 -0.31 0.26 -2.85 5.54 -0.03 0.4 0.26 0.31z"/>
  <path class="fil0" d="M88.39 21.89l-0.79 1.98 -1.03 -0.87 1.82 -1.11zm-4.79 2.32c0.15,0.23 0.47,0.3 0.71,0.15l1.19 -0.72 1.63 1.39 -0.51 1.29c-0.11,0.26 0.02,0.56 0.27,0.68l0.13 0.06 0.21 0.05 0.2 -0.04 0.29 -0.29 2.43 -6.07c0.08,-0.21 0.02,-0.45 -0.15,-0.59l-0.11 -0.1 -0.61 -0.05 -5.59 3.4 -0.24 0.34 0.08 0.4 0.08 0.12z"/>
  <path class="fil0" d="M102.63 54.71c-0.27,0.15 -0.46,0.41 -0.67,0.63 -0.18,0.18 -0.45,0.46 -0.68,0.55l-0.18 0.11c-1.2,0.3 -2.49,0.37 -3.6,0.93 -1.13,0.57 -2.17,1.98 -3.45,1.88 -1.9,-1.97 -4.1,-3.68 -6.46,-5.04 -0.89,-0.51 -1.84,-0.97 -2.84,-1.38 1.29,-0.74 2.43,-1.89 3.49,-2.78 0.47,-0.39 -0.19,-1.2 -0.67,-0.83 -0.8,0.62 -1.56,1.29 -2.37,1.91 -0.65,0.5 -1.33,0.81 -2.06,1.1 -3.16,-1.1 -6.6,-1.78 -9.7,-2.14 -0.14,-0.36 -0.31,-0.71 -0.54,-1.02 -0.25,-0.35 -0.56,-0.66 -0.88,-0.96 1.09,0.08 2.19,0.03 3.23,-0.23 -0.07,0.25 -0.18,0.46 -0.35,0.62 -0.56,0.51 0.28,1.26 0.84,0.79l0.19 -0.08c0.19,-0.05 0.38,-0.23 0.42,-0.43 0.14,-0.95 0.29,-1.89 0.5,-2.83 0.23,-0.99 1.32,-1.41 1.84,-2.18 0.57,-0.85 0.75,-1.67 0.97,-2.68 0.3,-1.44 2.02,-2.19 3.21,-2.7l0.28 -0.21c1.27,0.09 2.42,0.77 3.72,0.48 0.69,-0.15 0.63,-1.21 -0.03,-1.36 -3.27,-0.73 -6.36,-0.13 -9.69,-0.39 -4.26,-0.33 -8.48,0.03 -12.68,-0.9 -0.7,-0.16 -0.95,0.88 -0.27,1.07 1.91,0.52 3.85,0.75 5.8,0.86 -0.07,1.36 0.83,2.71 1.28,3.93 0.26,0.69 1.21,0.38 1.08,-0.32 -0.13,-0.73 -0.41,-1.4 -0.7,-2.08 -0.2,-0.49 -0.32,-0.97 -0.43,-1.47 1.2,0.04 2.41,0.06 3.61,0.08 -0.02,0.31 0.01,0.62 0.11,0.91 0.22,0.59 1.1,0.48 1.1,-0.17 0,-0.24 -0.02,-0.47 -0.02,-0.71l0.24 0.01c1.31,0.04 2.5,0.17 3.73,0.21 -1.03,0.91 -1.64,2.25 -1.95,3.71 -0.33,1.56 -1.99,2.14 -2.49,3.6l-0.11 0.52c-0.53,0.05 -1.06,0.1 -1.58,0.15 -0.04,-0.24 -0.08,-0.49 -0.09,-0.75 -0.03,-0.52 -0.85,-0.81 -1.07,-0.26 -0.14,0.36 -0.2,0.74 -0.14,1.11 -0.82,0.04 -1.64,0.05 -2.46,-0.06 -0.71,-0.92 -0.66,-2.29 -1.46,-3.23 -0.42,-0.49 -1.15,0.17 -0.85,0.69 0.33,0.56 0.43,1.27 0.62,1.93 -0.23,0.54 -0.21,1.25 -0.33,1.81 -0.19,0.88 -0.74,1.24 -1.38,1.79l-0.14 0.23 -0.14 0.26c-0.12,0.81 0.01,1.48 0.34,2.23 0.29,0.64 0.78,1.42 1.36,1.81 0.42,0.28 0.95,-0.21 0.81,-0.65 -0.18,-0.55 -0.64,-0.98 -0.94,-1.47 -0.27,-0.43 -0.4,-0.89 -0.46,-1.38 0.29,-0.08 0.56,-0.22 0.79,-0.39 0.23,0.73 0.68,1.4 1.28,1.81 0.47,0.33 1.13,-0.36 0.78,-0.82 -0.3,-0.39 -0.54,-0.79 -0.7,-1.26 -0.13,-0.37 -0.2,-0.74 -0.34,-1.1l0.06 -0.15c0.07,-0.2 0.15,-0.43 0.22,-0.69l0.06 0.02 0.03 0c0.38,0.38 0.77,0.74 1.19,1.11 0.36,0.31 0.65,0.65 0.88,1 0.06,0.65 -0.19,1.14 -0.57,1.75 -0.37,0.6 -1.18,1.21 -1.31,1.92l0.03 0.35c-0.48,0.68 -1.09,1.18 -0.48,2.29 0.52,0.96 0.03,1.03 -0.13,1.99 -0.23,1.46 -0.19,2.94 -0.42,4.41 -0.11,0.7 0.81,0.91 1.05,0.26 0.42,-1.09 0.49,-2.25 0.53,-3.42 0.03,-1.08 0.96,-1.85 0.93,-2.86 -0.01,-0.52 -0.4,-0.87 -0.78,-1.14 -0.13,-0.09 0.23,-0.67 0.57,-1.17 0.34,0.84 0.64,1.68 0.67,2.64 0.02,0.35 -0.21,0.95 0.14,1.24 0.32,0.27 0.41,0.68 0.71,0.99 0.46,0.48 1.11,-0.16 0.85,-0.69 -0.17,-0.34 -0.28,-0.64 -0.46,-0.93 0.23,-1.55 -0.29,-3.13 -1.1,-4.47 0.26,-0.38 0.49,-0.78 0.66,-1.1 0.11,0.35 0.22,0.7 0.33,1.07 0.37,1.16 1.36,2.21 1.95,3.28 0.28,0.51 1.16,0.26 1.1,-0.33 -0.12,-1.21 -0.71,-1.88 -1.43,-2.86 -0.32,-0.44 -0.53,-0.94 -0.7,-1.45 4.08,0.89 8.29,1.86 11.98,3.85 2.65,1.42 5.05,3.51 7.1,5.7 0.9,0.96 1.46,2.14 2.33,3.13 0.44,0.5 1.03,0.89 1.59,1.28 1.81,2.14 4.7,5.51 1.82,6.53 -2.05,0.73 -4.01,0.52 -5.38,2.47 -0.77,1.1 0.41,2.8 -0.26,4.04 -0.64,1.18 -1.82,2.04 -1.83,3.53 -0.02,1.81 0.35,3.33 -1.52,4.31 -1.31,0.69 -2.22,1.91 -3.06,3.09 -1.17,1.63 -1.91,2.8 -4.02,2.79 -1.73,-0.01 -3.33,0.12 -5.05,0.34 -1.61,0.21 -3.19,0.34 -4.77,0.72 -2.07,0.51 -4.57,1.47 -6.67,1.4 -4.14,-0.13 -7.73,0.12 -11.32,-2.27 -1.27,-0.85 -2.65,-0.59 -4.07,-0.38 -1.94,0.29 -3.32,-0.7 -5.1,-1.1 -0.9,-0.21 -1.42,1.06 -0.59,1.51 1.27,0.69 2.54,1.29 3.97,1.51l0.49 0.04c-0.07,0.29 0.08,0.62 0.42,0.72 0.47,0.15 0.95,-0.01 1.33,-0.29 0.27,-0.19 0.56,-0.39 0.77,-0.63 1.2,-0.03 2.07,0.48 3.08,1.17 0.62,0.43 1.32,0.75 2.05,0.99 0.4,0.95 1.06,1.96 0.4,2.69 -0.29,0.32 -0.24,0.87 0.17,1.08 1.24,0.63 2.69,1.39 3.04,2.8 0.08,0.34 0.54,0.51 0.83,0.32 1.68,-1.14 -0.93,-2.99 -2.43,-3.89 0.51,-0.85 0.05,-1.71 -0.46,-2.6 1.82,0.33 3.8,0.31 5.66,0.24 -0.13,0.23 -0.25,0.46 -0.4,0.69 -0.17,0.26 -0.42,0.35 -0.62,0.58 -0.29,0.33 -0.14,0.8 0.27,0.93 0.73,0.23 1.4,-0.57 1.75,-1.1 0.25,-0.37 0.42,-0.86 0.73,-1.17 0.29,-0.01 0.59,-0.02 0.87,-0.03 2.42,-0.06 4.54,-1.45 7,-1.55 2.33,-0.09 4.62,-0.64 6.94,-0.78 3.31,-0.2 4.97,-0.13 7.06,-3.05 0.84,-1.18 1.54,-2.27 2.79,-3.05 0.59,-0.37 1.34,-0.6 1.82,-1.13 0.85,-0.93 1.13,-1.95 0.85,-3.2 -0.5,-2.24 1.63,-3.7 2.27,-5.66 0.2,-0.61 -0.06,-1.44 -0.18,-2.04 -0.25,-1.19 1.56,-1.32 2.21,-1.45 2.01,-0.39 3.98,-1.12 4.46,-2.96 0.6,-0.54 1.22,-1.04 2.05,-1.35 1.74,-0.66 3.37,-1.12 5,-2.05 1.85,-1.05 3.45,-2.46 4.58,-4.18 -0.2,1.9 -0.49,3.77 -0.87,5.61l-0.03 0.06c-0.29,0.97 -0.49,1.7 -1.24,2.45 -0.65,0.65 -1.13,1.38 -1.62,2.17 -1.26,2.04 -3.51,2.66 -5.66,3.41 -0.6,0.21 -0.46,1.07 0.17,1.08 2.22,0.05 4.81,-0.93 6.19,-2.71 0.31,-0.39 0.57,-0.79 0.82,-1.18 -0.84,2.7 -1.88,5.32 -3.1,7.83 -1.81,0.73 -3.45,1.57 -5.41,1.94 -1.73,0.32 -3.2,0.56 -4.25,2.07 -0.38,0.56 0.45,1.03 0.89,0.65 1.4,-1.21 3.3,-1.23 5.03,-1.57 0.9,-0.18 1.78,-0.54 2.63,-0.94 -7.96,14.74 -22.31,25.54 -39.31,28.69l-0.21 -0.2c-0.3,-0.39 -0.57,-0.76 -0.93,-1.11 -0.45,-0.44 -1.2,0.16 -0.85,0.7 0.13,0.19 0.2,0.48 0.31,0.72l0.09 0.16c-1.55,0.24 -3.12,0.42 -4.71,0.53l0.29 -0.15c1.04,-0.47 1.58,-1.11 1.96,-2.19 0.75,-2.15 -2.38,-3.45 -1.34,-5.39 0.31,-0.57 -0.49,-1.19 -0.93,-0.68 -1.14,1.32 -0.47,2.58 0.4,3.84 1,1.45 0.57,2.53 -1.08,3.23 -0.79,0.34 -1.44,0.82 -1.96,1.46 -0.44,0.01 -0.88,0.02 -1.32,0.02 -18.9,0 -35.65,-9.35 -45.88,-23.68 1.2,-0.3 2.15,-1.46 2.47,-2.64 0.17,-0.65 -0.75,-0.99 -1.07,-0.42 -0.53,0.93 -1.29,1.49 -2.27,1.79 -0.67,-0.99 -1.31,-2.01 -1.91,-3.05 1.7,-0.01 4.45,-0.15 5.26,-1.66 0.15,-0.28 0.35,-0.51 0.58,-0.7 0.51,-0.05 0.7,-0.08 1.24,-0.26 0.9,-0.31 1.28,0.91 1.9,1.19 0.94,0.43 2.03,0.82 3.07,0.52 2.14,-0.61 3.45,-2.55 5.34,-3.57 1.63,1.44 3.64,2.61 5.17,3.89 2.94,2.47 6.59,3.29 9.58,5.61 0.95,0.74 2.31,-0.24 1.67,-1.36 -1.69,-2.96 -4.69,-2.8 -7.41,-4.24 -1.56,-0.82 -2.91,-2.1 -4.35,-3.12 -1.69,-1.21 -3.42,-2.39 -4.69,-4.06 -0.7,-0.93 -0.54,-2.13 -1.05,-3.15 -0.42,-0.84 -3.21,-0.75 -2.73,-2.11 0.33,-0.93 -0.59,-1.87 -1.22,-2.37 -0.38,-0.29 -0.84,-0.45 -1.27,-0.64 -1.72,-0.77 -0.49,-1.83 -0.01,-2.75 0.73,-1.42 0.93,-2.99 1.72,-4.38 1,-1.79 2.83,-3.04 4.48,-4.16 2.69,-1.82 5.09,-3.99 8.04,-5.4 2.13,-1.02 4.25,-2.03 6.34,-3.14 1.04,-0.55 3.28,-1.39 3.48,-2.81 0.14,-1.03 -1.45,-1.43 -1.59,-0.39 -0.05,0.38 -0.48,0.78 -1.08,1.17 -0.5,-1.72 -2.95,-2.53 -4.19,-3.61 -0.54,-0.47 -1.25,0.28 -0.76,0.79 0.64,0.67 1.39,1.18 2.16,1.7 0.76,0.5 1.27,1.02 1.58,1.78 -0.56,0.27 -1.15,0.53 -1.72,0.76 -0.02,-0.45 -0.16,-0.89 -0.39,-1.25 -0.34,-0.52 -1.17,-0.16 -1,0.45 0.13,0.44 0.07,0.88 0.07,1.32 -0.4,0.15 -0.71,0.27 -0.9,0.34 -0.54,0.23 -1.08,0.45 -1.63,0.69l-0.07 0c-0.21,0.05 -0.45,0.07 -0.64,-0.04 -0.49,-0.29 -0.91,0.28 -0.73,0.69 -1.38,0.65 -2.72,1.39 -3.96,2.29 -1.78,1.3 -3.71,2.5 -5.49,3.87 -2.3,-0.14 -3.7,-2.95 -5.81,-3.87 -0.88,-0.39 -1.83,-0.48 -2.36,0.16 -0.58,-0.17 -1.24,-0.38 -1.91,-0.54 -0.35,-0.17 -0.69,-0.36 -0.98,-0.66 -0.32,-0.33 -0.52,-0.77 -0.77,-1.15 -0.39,-0.57 -1.29,-0.03 -0.92,0.57 0.2,0.32 0.38,0.65 0.58,0.96 -0.35,0.01 -0.69,0.05 -1,0.14 -0.46,0.14 -0.79,0.42 -1.15,0.72 -1.55,1.28 -2.89,-0.15 -4.05,-0.85 -0.56,-0.33 -1.14,0.48 -0.67,0.91 0.43,0.39 1.01,0.93 1.66,1.36 0.82,0.67 1.8,1.16 2.73,1.64 1.22,0.62 2.55,1.32 3.92,1.55 0.63,0.11 1.06,-0.77 0.43,-1.09 -1.31,-0.67 -2.65,-1.23 -3.96,-1.85 0.32,-0.2 0.61,-0.42 0.91,-0.73 0.7,-0.7 1.83,-0.64 2.94,-0.37 0.2,0.08 0.4,0.14 0.6,0.17l0.02 0c0.66,0.2 1.29,0.43 1.76,0.58 0.32,0.1 0.69,-0.14 0.76,-0.46 0.21,-0.92 3.88,2.36 4.08,2.6 0.58,0.66 1.22,1.06 1.94,1.24 -0.24,0.21 -0.48,0.42 -0.71,0.64l-0.03 0c-1.66,0.48 -2.89,-1.04 -4.49,-0.8 -0.5,0.07 -0.79,0.76 -0.25,1.03 0.99,0.52 2.2,1.25 3.36,1.36 -0.65,0.91 -1.11,1.92 -1.45,2.99 -1.15,-0.14 -2.08,-0.56 -3.2,-1.13 -1.22,-0.62 -2.55,-0.07 -3.8,0.12 -1.94,0.3 -3.96,-0.65 -5.87,-0.84 -1.61,-0.15 -3.07,0.15 -4.55,0.67 -0.16,-1.75 -0.25,-3.52 -0.25,-5.32 0,-7.18 1.35,-14.06 3.82,-20.38 0.31,-0.05 0.62,-0.08 0.93,-0.09l-0.05 0.11c-0.34,1.27 -0.14,2.33 0.28,3.56 0.37,1.1 0.88,1.71 0.22,2.65 -1.04,1.44 0.37,4.18 0.95,5.51 0.27,0.62 1.26,0.37 1.04,-0.31 -0.39,-1.21 -1.94,-4.03 -0.61,-5 0.16,-0.12 0.3,-0.3 0.28,-0.51 -0.21,-1.96 -1.41,-3.61 -1.11,-5.63l-0.09 -0.4c0.65,-0 1.3,0.02 1.95,0.02 0.14,1.51 0.75,2.84 1.57,4.12l-0.02 0.08c-0.06,0.71 0.2,1.26 0.86,1.57 0.26,0.13 0.53,0.2 0.79,0.32 0.28,0.14 0.37,0.36 0.51,0.63 0.25,0.49 1.12,0.24 1.05,-0.32 -0.08,-0.7 -0.57,-1.19 -1.2,-1.45 -0.47,-0.19 -0.95,-0.2 -0.94,-0.78l-0.03 -0.19 -0.04 -0.34c-0.6,-1.27 -1.27,-2.3 -1.45,-3.66 0.42,-0.02 0.85,-0.05 1.27,-0.12 0.67,-0.1 0.67,-1.17 -0.03,-1.07 -1.84,0.24 -3.75,-0.21 -5.58,-0 0.11,-0.26 0.22,-0.52 0.33,-0.77l0.02 0c3.69,0.07 7.35,0.33 11.03,0.51 -1.02,0.19 -2.04,0.38 -3.04,0.5 -0.71,0.08 -0.69,1.05 0.01,1.11 0.03,2.29 0.31,4.93 1.86,6.68 0.42,0.47 1.2,-0.18 0.85,-0.69 -1.24,-1.82 -1.36,-3.86 -1.58,-5.97l0.54 -0.03c0.05,0.55 0.25,1.08 0.48,1.58 0.27,0.59 1.19,0.14 1.01,-0.45 -0.13,-0.41 -0.2,-0.82 -0.27,-1.24 1.95,-0.25 3.9,-0.74 5.84,-0.97 0.38,0.74 0.82,1.44 1.16,2.21 0.72,1.62 -0.99,2.02 -1.38,3.16 -0.37,1.1 -0.21,2.17 -0.18,3.32 0.03,1.26 -0.12,2.36 -0.52,3.42 -0.33,-0.29 -0.65,-0.59 -0.92,-0.96 -0.43,-0.58 -0.81,-1.21 -1.16,-1.84 -0.35,-0.63 -1.22,-0.05 -0.93,0.58 0.61,1.33 1.23,2.62 2.38,3.51l-0.16 0.27c-0.55,0.86 -1.52,2.92 -0.25,3.62 0.9,0.5 1.24,0.95 1.73,1.74 0.34,0.56 1.65,0.5 2.14,0.6 0.76,0.16 1.01,-0.91 0.29,-1.15 -0.72,-0.23 -1.26,-0.12 -1.32,-0.93 -0.05,-0.67 -0.89,-0.99 -1.41,-1.2 -1.27,-0.52 -0.14,-1.85 0.4,-2.75 0.58,-0.96 0.89,-1.77 1,-2.86 0.12,-1.1 -0.02,-2.28 -0.06,-3.39 -0.05,-1.57 1.51,-2.21 1.79,-3.47 0.33,-1.5 -0.41,-2.88 -1.27,-4.11l0.09 -0.08c0.65,0.07 1.3,0.21 1.96,0.32l0.04 0.14c0.46,0.89 0.78,1.83 1.11,2.77 0.24,0.67 1.21,0.37 1.06,-0.32 -0.18,-0.82 -0.45,-1.68 -0.87,-2.42 0.44,0.03 0.8,0.03 1.13,0.06 1.74,2.38 1.01,5.65 3.43,7.65 0.54,0.44 1.27,-0.29 0.76,-0.8 -1.36,-1.32 -1.54,-2.54 -1.84,-4.31 -0.13,-0.79 -0.36,-1.49 -0.72,-2.14l0.15 0.06c1.53,0.66 3.27,0.64 4.83,0.14l0.33 0.07c0.5,1.7 0.71,3.61 1.72,5.08 0.49,0.72 1.37,1.15 2.09,1.58l0.3 0.2 0.27 0.21c0.7,0.58 1.26,1.32 2.05,1.76 0.51,0.28 1.18,-0.34 0.81,-0.85 -0.3,-0.4 -0.62,-0.75 -0.96,-1.06 1.87,-0.15 4.5,-0.13 4.48,1.39l0.08 0.35c-0.17,1.36 -0.24,2.69 -0.87,3.96 -0.51,1.01 -2.94,1.69 -3.88,2.56 -1.23,1.14 -1.83,2.57 -3.33,3.51 -1.15,0.73 -2.38,1.3 -3.49,2.1 -1.89,1.38 -2.51,3.51 -2.53,5.75 -0.02,2.58 1.4,4.32 3.01,6.11 0.65,0.72 1.61,-0.24 1.23,-1 -1.36,-2.72 -3.29,-4.93 -1.7,-8.17 0.59,-1.2 1.86,-1.98 3.17,-2.72l-0.09 0.43c-0.61,0.64 -1.35,1.48 -0.85,2.42 0.58,1.11 1.77,1.27 2.92,1.42 1.27,0.17 2.03,0.66 3.04,1.49 0.56,0.46 1.22,0.7 1.84,1.05 0.34,0.77 0.66,1.54 1.11,2.26 0.34,0.55 1.2,0.16 1.02,-0.46 -0.19,-0.65 -0.46,-1.26 -0.79,-1.85 0.31,-0.25 0.65,-0.3 1.03,-0.37 0.05,0.7 0.39,1.41 0.84,1.91 0.44,0.5 1.17,-0.17 0.87,-0.7 -0.29,-0.52 -0.77,-1.46 -0.34,-2.03l0.05 -0.09c0.2,-0.25 0.39,-0.51 0.56,-0.71 0.45,-0.53 -0.31,-1.26 -0.78,-0.74 -0.86,0.93 -2.01,1.03 -2.87,1.76l-0.24 -0.08c-0.88,-0.63 -1.8,-1.25 -2.69,-1.81 -1.07,-0.66 -2.06,-0.74 -3.29,-0.95 -1.58,-0.26 -0.6,-1.31 -0.1,-1.85 0.47,-0.5 -0.05,-1.16 -0.02,-1.76 0.69,-0.4 1.34,-0.8 1.85,-1.28 1.2,-1.13 1.5,-2.7 3.24,-3.36 0.65,-0.25 1.15,-0.52 1.64,-0.93l0.06 0.17c0.19,0.41 0.33,0.66 0.75,0.88 0.73,0.37 1.11,0.9 1.6,1.54 0.6,0.78 1.48,1.11 2.38,1.37 0.7,0.21 1.37,0.36 2.06,0.64 0.67,0.27 1.12,0.74 1.85,0.88 0.52,0.1 1,-0.58 0.53,-0.96 -0.26,-0.21 -0.53,-0.41 -0.81,-0.6 0.1,-0.36 0.19,-0.68 0.39,-1.02 0.22,-0.38 0.48,-0.74 0.68,-1.13 0.42,-0.82 0.35,-1.72 -0.17,-2.48 -0.34,-0.5 -1.24,-0.16 -1.01,0.46 0.33,0.89 0.01,1.42 -0.46,2.18 -0.25,0.4 -0.5,0.85 -0.61,1.32l-0.15 -0.07c-0.98,-0.44 -2.08,-0.45 -3.06,-0.94 -0.8,-0.4 -1.12,-1.42 -1.88,-1.9 -0.52,-0.33 -1.09,-0.29 -0.9,-1.21 0.11,-0.53 0.3,-0.93 0.34,-1.48l-0.01 -0.09c0.31,-1.08 0.37,-2.29 0.36,-3.34l0.09 -0.26c0.11,-0.63 0.03,-1.14 -0.17,-1.56l0.04 -0.02c1.19,-0.93 2.01,-2.27 2.92,-3.45l0.15 -0.45c0.21,0.19 0.47,0.36 0.79,0.5 0.8,0.36 1.82,0.31 1.84,1.39 0.03,1.12 -0.45,2.1 -0.24,3.25 0.11,0.62 1.08,0.43 1.07,-0.17 -0.04,-1.33 1.1,-3.33 0.12,-4.52 -0.39,-0.48 -0.86,-0.68 -1.43,-0.88 -0.46,-0.16 -0.93,-0.27 -1.33,-0.58 -0.4,-0.32 0.03,-1.06 0.09,-1.4l0 -0.1c0.15,-1.1 -0.77,-1.67 -2.07,-0.82 -0.54,0.36 -0.16,1.19 0.46,1.02l0.25 -0.08 -0.03 0.07c-0.22,0.52 -0.44,1.04 -0.62,1.58 -0.06,0.2 -0.12,0.45 -0.11,0.66l-0.86 0.93c-0.59,0.75 -1.17,1.51 -1.73,2.3 -1.69,-1.21 -5.29,-0.81 -6.91,-0.46 -0.53,-0.35 -1.07,-0.7 -1.61,-1.1 -1.54,-1.17 -1.03,-3.85 -2.11,-5.35 -0.01,-0.28 -0.2,-0.54 -0.49,-0.61 -0.18,-0.2 -0.44,-0.31 -0.73,-0.21 -1.22,0.38 -2.37,0.41 -3.63,0.21 -0.96,-0.16 -1.7,-1.17 -2.62,-1.15 -1.43,0.04 -2.41,0.36 -3.88,0.08 -1.16,-0.22 -2.29,-0.2 -3.46,-0.16 -5.02,0.19 -10.03,-0.67 -15.05,-0.66l0.25 -0.53c4.46,0.51 8.8,-0.18 13.27,-0.45 5.6,-0.35 11.3,0.34 16.88,0.74 10.73,0.78 21.49,0.38 32.22,1.18 13.34,0.99 26.89,-1.09 40.18,0.62l0.13 0.3 -0.32 -0c-0.92,-0.05 -1.95,-0.17 -2.85,0.01 -0.62,0.12 -0.43,0.92 0.02,1.1 0.67,0.26 1.56,0.14 2.27,0.16 0.43,0.01 0.86,0.03 1.29,0.06l0.14 0.02c0.09,0.22 0.17,0.44 0.25,0.65 -1.92,1.08 -4.69,0.42 -6.82,0.35 -0.47,-0.02 -0.82,0.36 -1.03,0.74 -0.13,0.23 -0.07,0.5 -0.06,0.75 0.05,0.81 -1.31,0.56 -1.71,0.51 -3.09,-0.39 -6.82,-2.29 -9.51,0.52 -0.24,0.25 -0.22,0.64 0.02,0.89l0.07 0.07 0.13 0.1c0.19,0.75 0.53,1.48 0.61,2.25 0.1,0.99 -0.9,1.54 -1.51,2.14 -0.48,0.48 0.16,1.19 0.71,0.88 0.94,-0.52 1.93,-1.44 2.09,-2.55 0.16,-1.07 -0.37,-2.28 -0.83,-3.25 0.56,-0.39 1.31,-0.59 2.1,-0.65 -0.5,1.33 -0.52,3 0.22,4.15 0.36,0.55 1.2,0.16 1.04,-0.46 -0.21,-0.78 -0.27,-1.5 -0.15,-2.3 0.08,-0.47 0.21,-0.93 0.29,-1.39 0.26,0.02 0.51,0.04 0.75,0.07 -0.31,0.72 -0.45,1.65 -0.01,2.26 0.34,0.45 1.07,0.28 1.07,-0.32 0,-0.32 -0.06,-0.64 -0.02,-0.96 0.03,-0.27 0.1,-0.53 0.17,-0.8l0.11 0.02c0.27,0.05 0.6,0.13 0.95,0.22l-0.03 0.08 -0.09 0.26c-0.12,0.68 0.88,0.94 1.05,0.26l0.09 -0.26 0 -0.1c1.13,0.24 2.35,0.37 3.13,-0.17 0.41,-0.28 0.69,-0.56 0.68,-1.11 -0.02,-0.91 0.82,-0.63 1.58,-0.54 -0.54,1.21 -0.86,2.58 -0.48,3.88 0.17,0.59 1.15,0.46 1.1,-0.18 -0.1,-1.25 0.11,-2.44 0.55,-3.61 0.35,0.03 0.7,0.05 1.04,0.06 -0.31,0.74 -0.54,1.68 -0,2.3 0.29,0.33 0.86,0.12 0.95,-0.27 0.08,-0.34 0,-0.69 0.01,-1.03 0.01,-0.34 0.12,-0.68 0.23,-0.99l0.01 -0.04c0.68,-0.07 1.34,-0.26 1.93,-0.65 0.41,1.16 0.79,2.33 1.12,3.52l-0.2 0.09 -0.51 0.35 -0.08 -0.15c-0.17,-0.37 -0.26,-0.76 -0.4,-1.15 -0.24,-0.66 -1.12,-0.48 -1.17,0.19 -0.03,0.45 0.08,1.16 0.36,1.71 -1.22,0.46 -2.53,0.75 -3.55,1.6 -2.03,1.72 -2.92,4.34 -5.86,4.62 -0.69,0.07 -0.68,1.14 0.03,1.09 2.3,-0.14 3.59,-1.18 4.97,-2.94 1.1,-1.39 2.14,-2.23 3.86,-2.78 1.11,-0.36 2,-0.79 2.84,-1.56 0.11,0.43 0.22,0.85 0.32,1.28 -1.52,1.45 -2.27,3.53 -3.64,5.1 -0.38,0.43 -1.11,0.48 -1.63,0.66 -0.73,0.25 -1.24,0.69 -1.61,1.35 -0.3,0.54 0.49,1.15 0.89,0.65 0.89,-1.12 2.5,-0.99 3.48,-2.07 0.58,-0.65 1.04,-1.45 1.54,-2.15 0.44,-0.62 0.91,-1.23 1.34,-1.87 0.06,0.29 0.11,0.6 0.17,0.89 -0.3,0.3 -0.5,0.68 -0.64,1.09 -0.08,0.23 0.06,0.51 0.27,0.63 0.24,0.13 0.48,0.06 0.65,-0.1 0.06,0.37 0.11,0.74 0.16,1.1 -0.96,0.83 -1.7,2.07 -2.24,3.15 -0.27,0.53 0.5,1.17 0.88,0.65 0.53,-0.71 1.03,-1.42 1.57,-2.09 0.2,1.94 0.31,3.92 0.31,5.91 0,0.83 -0.02,1.66 -0.06,2.48 -1.74,3.83 -5.77,6.25 -9.7,7.4 -0.9,0.26 -1.66,0.62 -2.31,1.08 -0.52,-1.82 -1.84,-3.85 -3.37,-5.17 -0.93,-1.29 -2.37,-2.34 -3.45,-3.49 0.31,-0.14 0.61,-0.33 0.9,-0.59 0.76,-0.67 1.46,-1.66 2.51,-1.83 1.07,-0.17 1.95,-0.23 2.88,-0.84l0.07 -0.06c0.74,-0.23 1.53,-0.82 1.76,-1.58 0.15,-0.49 -0.43,-0.84 -0.84,-0.61zm-97.08 23.97c1.05,0.29 2.2,0.36 3.25,0.15 0.6,-0.12 1.4,-0.2 1.87,-0.65 0.71,-0.66 1.43,0.09 2.17,0.21 1.44,0.23 4.67,-0.15 4.95,-1.96 0.09,-0.6 -0.71,-0.99 -1.02,-0.4 -1.14,2.16 -4,0.45 -5.57,0.49 -0.89,0.02 -1.8,0.61 -2.66,0.7 -1.21,0.13 -2.4,-0.1 -3.61,-0.18 -0.93,-2.55 -1.67,-5.19 -2.22,-7.9 2.09,0.86 4.46,0.95 6.69,0.98 0.63,0.01 0.76,-1.04 0.12,-1.11 -2.44,-0.28 -4.82,-0.3 -7.08,-1.33 -0.18,-0.99 -0.32,-2 -0.44,-3.01 1.69,-0.25 3.28,-0.7 5.05,-0.47 1.77,0.24 3.45,0.65 5.25,0.65 1.84,0 2.81,-0.79 4.57,0.25 0.64,0.39 1.24,0.51 1.87,0.53 -0.17,0.34 -0.36,0.68 -0.54,1.02l-0.12 0.01c-0.48,0.11 -1.05,0.22 -1.55,0.15 -0.73,-0.11 -0.96,0.85 -0.27,1.1 0.41,0.15 0.84,0.2 1.26,0.15 -0.13,0.33 -0.24,0.67 -0.29,1.01l-0.01 0.18c-1.22,1.05 -2.49,1.74 -4.16,2.05 -1.59,0.29 -1.87,1.63 -2.68,2.79 -0.38,0.54 0.47,1.11 0.91,0.66 0.54,-0.55 0.74,-1.21 1.19,-1.81 0.49,-0.65 1.9,-0.44 2.65,-0.65 0.9,-0.26 1.96,-0.75 2.74,-1.46 0.22,0.25 0.46,0.48 0.7,0.7 0.38,0.35 0.85,0.56 1.31,0.77 1.23,0.55 0.7,1 0.98,1.9 0.35,1.15 1.2,1.62 2.15,2.19 0.61,0.37 0.84,0.15 0.89,1.02 0.03,0.59 0.32,1.09 0.57,1.61 0.33,0.67 0.77,1.28 1.29,1.84 -1.53,0.9 -2.6,2.51 -4.31,3.23 -1.5,0.64 -2.47,-0.49 -3.5,-1.37 0.31,-0.1 0.61,-0.21 0.89,-0.35 1.43,-0.73 2.04,-1.91 2.99,-3.16 0.45,-0.59 -0.28,-1.3 -0.84,-0.8 -1.26,1.11 -1.68,2.31 -3.44,2.93 -1.04,0.37 -2.04,0.62 -3.02,1.12 -0.96,0.49 -1.22,1.45 -2.3,1.86 -1.08,0.41 -2.46,0.48 -3.6,0.76 -1.15,-2.07 -2.17,-4.22 -3.05,-6.43zm52.35 -77.1c22.55,0 42.05,13.33 51.04,32.52 -12.45,-1.38 -25.11,0.84 -37.57,-0.28 -10.72,-0.96 -21.45,-0.48 -32.18,-1.14 -5.29,-0.33 -10.58,-0.83 -15.88,-0.92 -5.25,-0.09 -10.42,1.15 -15.67,0.74 9.3,-18.32 28.34,-30.91 50.26,-30.91zm53.06 33.16l-0.09 -0.22c-9,-20.31 -29.36,-34.51 -52.96,-34.51 -31.93,0 -57.9,25.97 -57.9,57.9 0,31.93 25.97,57.9 57.9,57.9 31.93,0 57.9,-25.98 57.9,-57.9 0,-8.23 -1.73,-16.07 -4.85,-23.17z"/>
  <path class="fil0" d="M62.48 35.96c-0.43,-0.4 -1.22,0.18 -0.83,0.67 0.22,0.28 -0.57,0.57 -0.83,0.71 -0.39,0.21 -0.77,0.41 -1.08,0.73 -0.33,0.32 -0.1,0.78 0.27,0.92 0.79,0.3 4.69,0.57 5.33,1.55 -0.25,1.09 -0.73,1.15 -1.74,1.46 -0.82,0.25 -1.42,0.7 -1.67,1.55 -0.11,0.39 0.18,0.71 0.54,0.78 0.4,0.87 0.63,1.86 1.18,2.62 0.43,0.6 1.46,0.21 1.21,-0.54 -0.33,-1 -0.77,-2.12 -1.37,-3.01 0.31,-0.21 0.77,-0.26 1.2,-0.33 0.15,0.85 0.46,1.78 1.39,2.01 0.52,0.13 0.9,-0.44 0.65,-0.89 -0.3,-0.54 -0.67,-1.01 -0.93,-1.57l0.41 -0.45 0.36 0.2c0.56,0.27 1.18,-0.47 0.67,-0.91 -0.2,-0.18 -0.39,-0.32 -0.58,-0.44 0.42,-2.29 -2.93,-2.49 -5.11,-2.83 0.98,-0.55 2.06,-1.19 0.94,-2.23z"/>
  <path class="fil0" d="M75.17 67.08c-0.17,1.28 -0.76,2.46 -1.46,3.53 -1.29,1.95 -2.01,1.59 -4.09,1.13 -0.3,-0.06 -0.54,0.07 -0.71,0.31 -0.33,0.49 -1.02,0.85 -1.8,1.13 -0.47,-0.43 -0.8,-0.94 -1.11,-1.52 -0.32,-0.61 -1.14,-0.13 -1.02,0.46 0.11,0.55 0.39,1.05 0.78,1.46 -0.57,0.15 -1.11,0.27 -1.51,0.38 -1.96,0.54 -3.75,-0.67 -5.71,-0.46 -0.71,0.08 -0.7,1.09 0.03,1.11 1.61,0.04 3.01,0.73 4.6,0.9 0.98,0.1 2.28,-0.54 3.18,-0.85 1.07,-0.36 2.15,-0.78 3.09,-1.4l0.46 -0.44c-0.09,0.14 0.58,0.39 1.24,0.6 -0.35,0.37 -0.83,0.31 -1.32,0.45 -0.52,0.15 -1.05,0.63 -1.52,0.91 -0.71,0.41 -1.45,0.77 -2.18,1.13 -0.56,0.27 -0.13,1.17 0.44,0.98 0.59,-0.19 1.12,-0.43 1.67,-0.73 0.62,-0.33 1.36,-1.07 2.07,-1.17 0.48,-0.07 0.88,0.11 1.35,-0.18 0.39,-0.25 0.56,-0.67 0.82,-1.02l0.51 -0.21c1.53,-1.61 3.2,-3.28 3.37,-5.64 0.09,-1.38 0.17,-2.6 -0.07,-3.96 -0.09,-0.51 -0.12,-0.99 -0.12,-1.47 1.11,1.2 1.47,3.21 0.89,4.68 -0.26,0.67 0.73,0.91 1.08,0.42 1.37,-1.92 0.2,-5.55 -1.89,-6.53 0.08,-0.84 0.2,-1.68 0.21,-2.57 0.01,-0.6 -0.99,-0.73 -1.07,-0.12 -0.14,1.08 -0.5,2.18 -0.55,3.27 -0.1,1.82 0.59,3.55 0.35,5.38z"/>
  <path class="fil0" d="M53.56 73.59l-0.33 0.05c-0.21,0.04 -0.42,0.08 -0.62,0.16 -0.65,0.26 -0.38,1.2 0.32,1.04 0.45,-0.09 0.93,-0.08 1.29,-0.41 0.45,-0.41 -0.15,-1.15 -0.66,-0.84z"/>
  <path class="fil0" d="M80.39 62.43c1.84,1.51 1.78,5 -0.01,6.45 -0.35,0.28 -0.57,0.66 -0.43,1.13 0.75,2.37 -1.63,3.55 -2.9,5.22 -1.59,2.09 -2.62,3.82 -5.17,4.84 -2.07,0.83 -4.41,0.88 -6.57,1.45 -2.6,0.69 -5.04,1.56 -7.74,1.81 -2.7,0.25 -4.88,-1.66 -7.07,-2.92 -1.57,-0.91 -3.92,-0.62 -5.27,-1.68 -3.01,-2.37 -4,-6.5 -7.44,-8.26 -0.72,-0.37 -1.45,0.42 -1.06,1.11 0.66,1.18 1.93,1.58 2.69,2.76 0.97,1.5 2.06,2.67 3.3,3.97 0.74,0.78 1.35,1.93 2.47,2.25 1.81,0.52 3.44,0.7 5.11,1.69 2.82,1.67 4.99,3.23 8.43,2.58 4.09,-0.77 8.11,-1.96 12.18,-2.83 3.08,-0.66 5.21,-2.41 7.06,-4.86 1.41,-1.86 4.73,-3.58 4.27,-6.32 -0.19,-1.16 0.53,-1.61 0.96,-2.68 0.39,-0.99 0.45,-2.2 0.25,-3.25 -0.2,-1.04 -0.57,-2.55 -1.42,-3.3 -1.11,-0.98 -2.55,-1.5 -3.53,-2.64 -0.54,-0.63 -1.52,0.22 -1.1,0.89 0.75,1.19 1.93,1.71 2.99,2.58z"/>
  <path class="fil0" d="M48.16 36.68c-1.09,-0.08 -1.84,-0.56 -2.84,-0.92 -1.37,-0.48 -2.95,-0.29 -4.38,-0.48 -0.38,-0.05 -0.62,0.2 -0.65,0.48l-0.3 0.23c-0.45,0.66 -0.7,1.39 -0.61,2.2 0.07,0.58 1,0.79 1.09,0.12 0.09,-0.61 0.21,-1.23 0.46,-1.8l0.02 -0.09c0.23,0.06 0.48,0.11 0.72,0.14l-0.01 0.05c-0.09,1.1 -0.17,2.23 -0.01,3.33 0.08,0.58 1.01,0.81 1.11,0.13 0.17,-1.14 0.1,-2.28 0.01,-3.42 0.84,0.04 1.69,0.06 2.48,0.4l0.22 0.1c-0.06,0.41 -0.17,0.87 -0.18,1.31 -0.02,0.51 0.69,0.78 1.03,0.4 0.27,-0.32 0.46,-0.73 0.51,-1.15 0.42,0.13 0.86,0.2 1.35,0.14 0.76,-0.09 0.73,-1.13 -0.03,-1.18z"/>
  <path class="fil0" d="M64.2 60.43c0.49,0.46 1.24,-0.16 0.9,-0.73 -0.96,-1.6 -1.91,-3.08 -2.67,-4.8 -0.73,-1.66 -1.41,-3.36 -2.33,-4.92 -0.39,-0.66 -1.28,-0.05 -0.98,0.6 1.43,3.16 2.46,7.43 5.08,9.84z"/>
  <path class="fil0" d="M64.37 52.29c0.26,0.45 0.94,0.31 1.07,-0.17 0.29,-1.12 -0.32,-2.71 -1.02,-3.59 -0.37,-0.46 -1.22,-0.19 -1,0.45 0.17,0.52 0.34,1.04 0.47,1.57 0.14,0.58 0.19,1.21 0.49,1.73z"/>
  <path class="fil0" d="M56.19 65.35c1.01,0.52 2.01,1.08 3.14,1.28l0.24 0.03c0.12,1.87 1.15,3.76 2.4,5.07 0.46,0.49 1.19,-0.17 0.88,-0.71 -0.85,-1.52 -1.74,-2.78 -2.06,-4.45 0.5,-0.11 0.99,-0.27 1.47,-0.39 0.68,-0.17 0.36,-1.17 -0.31,-1.02 -0.49,0.11 -0.95,0.23 -1.43,0.29 -0.24,-0.25 -0.69,-0.27 -0.87,0.02l-0.35 -0.06c-0.94,-0.21 -1.83,-0.73 -2.72,-1.07 -0.59,-0.22 -0.94,0.73 -0.4,1.02z"/>
  <path class="fil0" d="M63.53 64.41c-0.57,0.27 -0.13,1.13 0.44,0.97 0.83,-0.23 1.89,-0.21 3.01,-0.14 0.2,1.2 0.66,3.07 1.95,3.34 0.58,0.12 0.93,-0.56 0.54,-0.97 -0.43,-0.46 -0.67,-0.96 -0.86,-1.56 -0.07,-0.22 -0.14,-0.47 -0.23,-0.71 0.37,0.02 0.74,0.04 1.1,0.05 0.1,0.63 0.41,1.24 0.65,1.83 0.39,0.92 0.78,1.88 1.34,2.7 0.39,0.57 1.2,0.17 1.06,-0.48 -0.19,-0.93 -0.65,-1.78 -1.04,-2.63 -0.21,-0.47 -0.36,-0.98 -0.56,-1.47 0.42,-0.05 0.82,-0.13 1.18,-0.26 0.08,0.79 0.35,1.55 0.84,2.18 0.42,0.55 1.26,0.06 0.93,-0.57 -0.38,-0.72 -0.66,-1.38 -0.71,-2.2 0.56,-0.48 0.95,-1.18 1.09,-2.23 0.1,-0.77 -0.9,-1.03 -1.16,-0.29 -1.42,3.99 -6.52,1.02 -9.55,2.45z"/>
  <path class="fil0" d="M80.46 66.71c0.82,-1.16 0.52,-2.88 -0.51,-3.81 -0.44,-0.4 -1.22,0.18 -0.83,0.68 0.57,0.74 0.74,1.74 0.37,2.6 -0.29,0.66 0.56,1.11 0.97,0.53z"/>
  <path class="fil0" d="M78.14 55.09c0.3,0.16 0.59,0.36 0.81,0.63l-0.31 0.09 -0.17 0.1c-0.47,0.06 -0.71,0.8 -0.2,1.02 0.3,0.13 0.39,0.26 0.53,0.6 0.09,0.23 0.28,0.4 0.54,0.39 0.27,-0.01 0.57,-0.26 0.53,-0.56 -0.04,-0.28 -0.12,-0.52 -0.25,-0.74l0.5 -0.31 0.13 -0.54c-0.32,-0.75 -0.86,-1.27 -1.58,-1.63 -0.62,-0.31 -1.14,0.62 -0.52,0.95z"/>
  <path class="fil0" d="M93.25 70.17c-0.96,0.56 -2.2,0.97 -2.82,1.96 -1.07,1.71 -0.33,3.64 -1.09,5.47 -0.27,0.65 0.64,1.2 0.99,0.54 1.2,-2.3 -0.07,-4.95 2.63,-6.42 1.42,-0.77 2.74,-1.39 3.11,-3.1 0.28,-1.32 -0.67,-2.72 -1.48,-3.65 -1.83,-2.11 -4,-3.96 -6.02,-5.89 -0.53,-0.5 -1.21,0.27 -0.76,0.8 1.79,2.14 9.91,7.67 5.44,10.29z"/>
  <path class="fil0" d="M79.93 89.36c-2.68,1.15 -6.08,-0.26 -8.91,0.33 -0.61,0.13 -0.44,1.11 0.17,1.08 3.24,-0.2 6.85,0.94 9.86,-0.6 1.42,-0.72 2.26,-2.37 3.64,-3.21 1.42,-0.86 2.62,-1.24 3.4,-2.78 0.34,-0.66 -0.58,-1.13 -1,-0.55 -0.96,1.37 -2.3,1.81 -3.63,2.65 -1.36,0.85 -2.01,2.42 -3.54,3.07z"/>
  <path class="fil0" d="M67.33 89.95c-1.46,0.38 -2.85,0.88 -4.33,1.19 -0.52,0.11 -0.51,0.99 0.03,1.07 1.66,0.24 3.31,-0.53 4.76,-1.25 0.59,-0.29 0.14,-1.17 -0.46,-1.01z"/>
  <path class="fil0" d="M82.51 84.93c0.52,-0.35 0.16,-1.25 -0.46,-1.03 -1.65,0.6 -3.13,1.59 -4.87,1.96 -0.64,0.13 -0.47,1.24 0.18,1.14 1.85,-0.27 3.59,-1.04 5.15,-2.07z"/>
  <path class="fil0" d="M40.06 84.32c-3.62,-2.16 -8.16,-3.09 -10.46,-6.96 -1.27,-2.14 -1.17,-5.42 -4.54,-4.95 -0.7,0.1 -0.7,1.08 0.02,1.11 2.61,0.1 2.54,2.81 3.43,4.51 0.7,1.32 1.54,2.24 2.71,3.17 2.4,1.94 5.55,3.11 8.41,4.2 0.65,0.25 0.97,-0.76 0.43,-1.09z"/>
  <path class="fil0" d="M28.17 65.92c0.29,-0.66 -0.61,-1.17 -0.98,-0.54 -2.52,4.24 3.29,7.86 5.77,10.38 0.49,0.51 1.19,-0.26 0.74,-0.78 -2.11,-2.43 -7.19,-5.24 -5.53,-9.06z"/>
  <path class="fil0" d="M47.52 83.18c-2.29,-1.08 -4.44,-2.27 -6.19,-4.13 -0.49,-0.51 -1.19,0.26 -0.75,0.78 1.71,2.01 4.02,3.26 6.42,4.28 0.63,0.27 1.15,-0.64 0.52,-0.94z"/>
  <path class="fil0" d="M52.25 84.63c-0.93,-0.56 -1.98,-0.85 -3.02,-1.11 -0.69,-0.17 -0.95,0.89 -0.27,1.07 0.96,0.25 1.87,0.54 2.77,0.99 0.62,0.31 1.11,-0.58 0.52,-0.94z"/>
  <path class="fil0" d="M60.14 90.73c-3.41,-1.3 -6.73,-3.09 -10.27,-1.24 -0.63,0.33 -0.05,1.21 0.57,0.93 3.46,-1.58 6.17,0.46 9.44,1.39 0.7,0.2 0.92,-0.83 0.26,-1.08z"/>
  <path class="fil0" d="M98.09 51.92c-1.01,0.7 -1.93,1.6 -2.83,2.44 -0.48,0.44 0.16,1.18 0.7,0.86 1.07,-0.62 1.93,-1.63 2.82,-2.47 0.45,-0.43 -0.17,-1.19 -0.68,-0.84z"/>
  <path class="fil0" d="M96.7 50.34c0.14,-0.4 0.14,-0.75 0.44,-1.1 0.26,-0.31 0.74,-0.42 1.09,-0.59 0.52,-0.25 0.22,-1.05 -0.31,-1.03 -0.94,0.03 -1.64,0.52 -2.13,1.3 -0.25,0.4 -0.23,0.87 -0.43,1.28 -0.22,0.46 -0.97,0.76 -1.35,1.1 -0.5,0.45 0.17,1.17 0.71,0.87 0.88,-0.48 1.61,-0.82 1.96,-1.83z"/>
  <path class="fil0" d="M81.98 41.23c-0.61,-0.02 -0.74,1.01 -0.12,1.08 1.39,0.17 2.15,0.64 2.14,2.1 -0.01,1.21 -0.37,2.38 -0.28,3.6 0.05,0.58 1.01,0.76 1.08,0.12 0.17,-1.55 0.5,-3.08 0.37,-4.64 -0.13,-1.67 -1.77,-2.22 -3.2,-2.26z"/>
  <path class="fil0" d="M57.61 45.72c0.3,0.18 0.83,0.01 0.88,-0.38 0.07,-0.6 -0.2,-1.17 -0.23,-1.78 -0.05,-0.7 -0.03,-1.42 -0.17,-2.12 -0.11,-0.55 -0.96,-0.49 -1.07,0.03 -0.25,1.14 -0.59,3.53 0.6,4.25z"/>
  <path class="fil0" d="M60.56 44.16c-0.11,-0.66 -0.21,-1.29 -0.27,-1.95 -0.06,-0.73 -1.06,-0.68 -1.11,0.03 -0.06,0.77 -0.12,1.72 0.32,2.4 0.39,0.59 1.17,0.15 1.06,-0.47z"/>
  <path class="fil0" d="M38.88 35.11c-0.46,-0.04 -0.94,-0.01 -1.4,0 -0.7,0.02 -0.66,1.06 0.03,1.07 0.46,0.01 0.94,0.05 1.4,0 0.71,-0.06 0.66,-1.02 -0.03,-1.08z"/>
  <path class="fil0" d="M32.92 50.4c-1.66,0.08 -2.91,-0.81 -3.17,-2.5 -0.04,-0.24 -0.17,-0.52 -0.44,-0.56 -1.47,-0.18 -2.09,-2.26 -2.51,-3.44 -0.23,-0.65 -1.25,-0.36 -1.04,0.32 0.52,1.63 1.23,3.43 2.87,4.12 0.34,2.06 2.28,3.97 4.47,3.19 0.6,-0.21 0.49,-1.17 -0.18,-1.13z"/>
  <path class="fil0" d="M38.24 92.5c0.38,-0.57 -0.44,-1.01 -0.88,-0.65 -1.04,0.86 -2.61,0.24 -3.85,0.46 -0.45,0.08 -0.81,0.36 -1.12,0.69 -0.6,0.64 -1.63,0.22 -2.36,0.08 -0.68,-0.13 -1.03,0.62 -0.61,1.11 1.04,1.22 3.59,1.48 4.37,-0.16 0.22,-0.46 2.44,-0.5 2.88,-0.57 0.69,-0.11 1.18,-0.39 1.56,-0.96z"/>
  <path class="fil0" d="M40.75 96.22c-0.76,-0.19 -1.46,0.09 -2.07,0.5 -0.38,0.26 -0.73,0.62 -1.09,0.89 -0.72,0.54 -1.93,-0.06 -2.67,-0.29 -0.59,-0.19 -0.93,0.72 -0.39,1 1.1,0.55 1.94,1.02 3.18,0.75 0.4,-0.09 0.8,-0.44 1.1,-0.7 1.24,-1.1 2,-0.16 3.28,0.12 2.58,0.57 5.36,-0.87 6.74,-3.01 0.33,-0.51 -0.48,-1.11 -0.86,-0.63 -0.85,1.07 -1.76,1.66 -3.05,2.1 -1.76,0.6 -2.59,-0.33 -4.17,-0.72z"/>
  <path class="fil0" d="M49.14 101.04c0.46,0.23 0.93,0.46 1.39,0.71 0.31,0.17 0.88,0.44 0.93,0.85 0.08,0.65 0.93,0.76 1.14,0.13 0.2,-0.61 0.05,-1.08 -0.28,-1.45 0.51,-0.74 0.61,-1.79 0.62,-2.65 0.01,-0.62 -0.96,-0.73 -1.09,-0.12 -0.09,0.43 -0.18,0.85 -0.29,1.28 -0.07,0.28 -0.18,0.53 -0.29,0.79 -0.59,-0.26 -1.25,-0.42 -1.73,-0.54 -0.6,-0.15 -0.97,0.74 -0.4,1.01z"/>
  <path class="fil0" d="M97.1 91.29c0.62,0.08 0.96,-0.68 0.41,-1.03 -0.75,-0.48 -1.62,-0.76 -2.39,-1.22 -0.34,-0.2 -0.7,-0.45 -0.95,-0.76 -0.22,-0.29 0.01,-0.39 0.29,-0.56 0.52,-0.32 0.14,-1.24 -0.45,-1 -1.36,0.57 -1.4,1.78 -0.38,2.74 0.85,0.8 2.29,1.68 3.47,1.84z"/>
  <path class="fil0" d="M100.2 76.31c1.04,-0.28 2.04,-0.58 2.85,-1.33 0.93,-0.85 1.32,-2 2.44,-2.69 0.61,-0.37 0.05,-1.24 -0.58,-0.93 -0.92,0.45 -1.5,1.13 -2.07,1.96 -0.34,0.49 -0.62,0.96 -1.14,1.29 -0.53,0.34 -1.23,0.44 -1.83,0.62 -0.69,0.21 -0.37,1.25 0.33,1.07z"/>
  <path class="fil0" d="M96.54 83.73c-0.2,-0.47 -0.22,-0.9 -0.2,-1.36 1.36,-0.59 1.24,-2.5 2.25,-3.5 0.37,-0.37 -0.04,-1.12 -0.56,-0.91 -0.68,0.27 -1.05,0.75 -1.32,1.41 -0.27,0.64 -0.34,1.78 -1.15,1.93 -0.2,0.04 -0.4,0.26 -0.43,0.45 -0.15,0.9 -0.17,1.68 0.23,2.51 0.32,0.66 1.45,0.15 1.17,-0.53z"/>
  <path class="fil0" d="M91.03 91.32c0.46,-0.01 0.76,-0.25 1.09,-0.53 0.45,-0.39 -0.07,-1.04 -0.57,-0.92 -0.36,0.09 -0.66,0.25 -0.95,0.49 -0.41,0.33 -0.02,0.96 0.42,0.96z"/>
  <path class="fil0" d="M109.05 57.91c0.95,-0.2 1.93,-0.49 2.75,-1.03 0.53,-0.35 0.16,-1.16 -0.45,-1 -0.9,0.23 -1.75,0.65 -2.63,0.95 -0.69,0.24 -0.38,1.23 0.33,1.08z"/>
  <path class="fil0" d="M106.15 62.72c1.63,-0.36 3.28,-0.68 4.78,-1.45 0.56,-0.29 0.14,-1.23 -0.45,-1.01 -1.52,0.58 -3.1,0.91 -4.64,1.41 -0.68,0.22 -0.37,1.21 0.32,1.05z"/>
  <path class="fil0" d="M52.04 48.75c-0.56,-0.3 -1.07,0.43 -0.64,0.88 0.66,0.68 1.11,1.57 0.67,2.48 -0.28,0.59 0.43,1.12 0.91,0.67 1.21,-1.15 0.36,-3.33 -0.93,-4.03z"/>
  <path class="fil0" d="M51.71 45.1c-0.02,-0.58 0.11,-1.12 0.37,-1.65 0.31,-0.63 -0.59,-1.13 -0.96,-0.53 -0.45,0.74 -0.63,1.5 -0.49,2.35 0.11,0.62 1.1,0.43 1.08,-0.17z"/>
  <path class="fil0" d="M51.17 65.55c0.4,-0.05 1.28,0.27 2.11,0.46 0.21,0.45 0.43,0.9 0.72,1.3 0.44,0.6 1.26,0.06 0.96,-0.59 -0.1,-0.22 -0.22,-0.45 -0.34,-0.66 0.36,-0.1 0.59,-0.36 0.59,-0.9 -0,-0.41 -0.5,-0.7 -0.85,-0.46 -0.22,0.15 -0.13,0.13 -0.42,0.11 -0.34,-0.02 -0.69,-0.15 -1.01,-0.24 -0.63,-0.17 -1.29,-0.27 -1.94,-0.11 -0.59,0.15 -0.45,1.16 0.17,1.08z"/>
  <path class="fil0" d="M41.66 69.09l-0.03 0.13c-0.09,1.06 -0.22,1.56 0.34,2.46 0.56,0.88 2.15,0.33 2.27,1.56 0.14,1.31 0.63,1.95 1.62,2.04 0.1,0.14 0.26,0.24 0.49,0.23 1.17,-0.03 3.24,0.3 3.77,1.52 0.3,0.68 1.45,0.65 1.4,-0.22 0.03,0.59 1.23,0.06 1.29,0.03 0.6,-0.2 0.48,-1.14 -0.18,-1.11 -0.55,0.02 -1.05,0.08 -1.56,0.2 -0.89,-1.11 -2.44,-1.49 -3.88,-1.6 -0.12,-0.21 -0.36,-0.35 -0.68,-0.28 -1.22,0.27 -1.05,-1.41 -1.43,-2.17 -0.55,-1.11 -1.96,-0.89 -2.09,-2.21 0.16,-0.18 0.24,-0.43 0.15,-0.66 -0.75,-1.87 -2.65,-2.58 -4.05,-3.88 -0.53,-0.49 -1.22,0.28 -0.76,0.8 0.96,1.07 2.58,1.89 3.32,3.17z"/>
  <path class="fil0" d="M55.92 78.08c0.8,0.29 1.58,-0.06 2.4,-0.08 0.54,-0.02 1.03,0.3 1.55,0.4 0.57,0.11 0.99,-0.77 0.39,-1.01 -0.53,-0.21 -1.07,-0.45 -1.63,-0.53 -0.82,-0.12 -1.77,-0.02 -2.59,0.09 -0.66,0.08 -0.75,0.91 -0.13,1.13z"/>
  <path class="fil0" d="M61.93 78.24l0.5 -0.16 0.49 -0.04c0.77,-0.12 0.75,-1.13 -0.03,-1.21 -0.34,-0.03 -0.77,0.14 -1.1,0.24 -0.27,0.08 -0.53,0.21 -0.8,0.28 -0.23,0.06 -0.39,0.3 -0.38,0.53 0.01,0.33 0.26,0.5 0.56,0.53 0.27,0.02 0.52,-0.09 0.77,-0.18z"/>
  <path class="fil0" d="M29.33 59.2c2.01,-1.55 4.2,-2.86 6.43,-4.05 0.54,-0.29 0.12,-1.22 -0.45,-0.98 -2.73,1.15 -5.26,3 -7.61,4.78 -1.98,1.5 -4.63,3.57 -5.2,6.14 -0.16,0.72 0.87,0.96 1.11,0.28 0.91,-2.63 3.6,-4.54 5.71,-6.16z"/>
  <path class="fil0" d="M15.39 47.41c0.72,0.95 1.11,1.83 1.21,3.01 0.06,0.62 0.96,0.77 1.11,0.12 0.34,-1.47 -0.53,-2.79 -1.48,-3.82 -0.42,-0.45 -1.22,0.19 -0.84,0.68z"/>
  <path class="fil0" d="M48.95 23.51c-0.23,0.02 -0.43,0.05 -0.6,0.23 -0.24,0.27 -0.21,0.63 0.02,0.89 0.17,0.18 0.38,0.2 0.61,0.22 0.37,0.03 0.67,-0.35 0.65,-0.69 -0.01,-0.35 -0.32,-0.69 -0.69,-0.66z"/>
  <path class="fil0" d="M66.15 21.24c0.74,0 0.7,-1.13 -0.03,-1.13 -0.74,0 -0.71,1.13 0.03,1.13z"/>
  <path class="fil0" d="M73.62 28.62c0.23,0.24 0.61,0.44 0.94,0.29 0.67,-0.3 0.63,-0.93 0.3,-1.47 -0.23,-0.37 -0.72,-0.48 -1.09,-0.26 -0.27,0.17 -0.42,0.5 -0.36,0.82 -0.05,0.22 0.05,0.46 0.21,0.62z"/>
  <path class="fil0" d="M96.28 29.15c0.76,0 0.73,-1.18 -0.03,-1.18 -0.76,0 -0.73,1.18 0.03,1.18z"/>
  <path class="fil0" d="M85.6 14.28c0.79,0 0.76,-1.23 -0.03,-1.23 -0.79,0 -0.76,1.23 0.03,1.23z"/>
  <path class="fil0" d="M59.15 28.92c-0.19,-0.56 -0.93,-0.51 -1.11,0.02l-0.06 0.16c-0.14,0.4 0.25,0.8 0.63,0.79 0.4,-0.01 0.73,-0.42 0.59,-0.82l-0.06 -0.15z"/>
  <path class="fil0" d="M54.64 20.67l0.3 0.12c0.41,0.16 0.83,-0.26 0.82,-0.65 -0.01,-0.4 -0.45,-0.77 -0.85,-0.62l-0.3 0.13c-0.4,0.2 -0.35,0.83 0.03,1.02z"/>
  <path class="fil0" d="M41.05 27.52c-0.54,0 -0.98,0.49 -0.97,1.02 0.01,0.55 0.48,0.97 1.02,0.97 0.54,0 0.98,-0.49 0.97,-1.02 -0.01,-0.55 -0.48,-0.97 -1.02,-0.97z"/>
  <path class="fil0" d="M16.92 28.43c0.75,0 0.71,-1.15 -0.03,-1.15 -0.74,0 -0.71,1.15 0.03,1.15z"/>
  <path class="fil0" d="M21.83 22.12c0.74,0 0.71,-1.14 -0.03,-1.14 -0.73,0 -0.71,1.14 0.03,1.14z"/>
  <path class="fil0" d="M26.38 28.96c0.75,0 0.72,-1.16 -0.03,-1.16 -0.75,0 -0.72,1.16 0.03,1.16z"/>
  <path class="fil0" d="M88.54 30.42c-0.76,0 -0.73,1.19 0.03,1.19 0.77,0 0.73,-1.19 -0.03,-1.19z"/>
  <path class="fil0" d="M94.18 23.02c0.77,0 0.73,-1.18 -0.03,-1.18 -0.77,0 -0.73,1.18 0.03,1.18z"/>
  <path class="fil0" d="M103.29 30.33l0.18 0.01c0.71,0.06 0.7,-1.18 -0.03,-1.12l-0.18 0.01c-0.71,0.06 -0.66,1.03 0.03,1.09z"/>
  <path class="fil0" d="M41.97 8.8c0.73,0 0.7,-1.13 -0.03,-1.13 -0.73,0 -0.7,1.13 0.03,1.13z"/>
  <path class="fil0" d="M52.38 6.09l0.46 0.08c0.72,0.02 0.7,-1.15 -0.03,-1.13l-0.32 0.04c-0.18,0.08 -0.32,0.19 -0.37,0.39 -0.05,0.22 0.05,0.52 0.27,0.61z"/>
  <path class="fil0" d="M64.41 6.45c0.56,0 1.01,-0.5 0.99,-1.04 -0.01,-0.56 -0.49,-0.99 -1.04,-0.99 -0.56,0 -1.01,0.5 -0.99,1.04 0.01,0.57 0.49,0.99 1.04,0.99z"/>
  <path class="fil0" d="M70.15 29.54c-0.77,0 -0.74,1.19 0.03,1.19 0.77,0 0.74,-1.19 -0.03,-1.19z"/>
 </g>
</svg>
