<?xml version="1.0" encoding="UTF-8"?>
<svg xmlns="http://www.w3.org/2000/svg" xml:space="preserve" width="0.747335in" height="0.747319in" version="1.1" style="shape-rendering:geometricPrecision; text-rendering:geometricPrecision; image-rendering:optimizeQuality; fill-rule:evenodd; clip-rule:evenodd"
viewBox="0 0 133.57 133.57"
 xmlns:xlink="http://www.w3.org/1999/xlink"
 xmlns:xodm="http://www.corel.com/coreldraw/odm/2003">
 <defs>
  <style type="text/css">
   <![CDATA[
    .fil1 {fill:none;fill-rule:nonzero}
    .fil0 {fill:black;fill-rule:nonzero}
   ]]>
  </style>
 </defs>
 <g id="Layer_x0020_1">
  <metadata id="CorelCorpID_0Corel-Layer"/>
  <path class="fil0" d="M18.09 96.58l-0.42 0.14 -0.18 -0.04 -0.4 -0.41 -0.33 -0.55 1.21 -0.72 0.33 0.55 0.16 0.54c-0.01,0.13 -0.06,0.3 -0.37,0.49zm1.69 -0.4c0.03,-0.43 -0.09,-0.87 -0.35,-1.31l-0.69 -1.16c-0.17,-0.28 -0.54,-0.38 -0.83,-0.21l-4.27 2.55c-0.29,0.17 -0.38,0.54 -0.21,0.83l0.05 0.09 0.37 0.28 0.46 -0.06 1.31 -0.78 0.3 0.5 -1.1 1.7c-0.18,0.27 -0.1,0.64 0.16,0.82l0.09 0.06 0.35 0.11 0.11 -0.01 0.39 -0.27 0.95 -1.47c0.57,0.29 1.23,0.25 1.89,-0.14 0.79,-0.47 0.98,-1.1 1.01,-1.54z"/>
  <path class="fil0" d="M24.98 102.61l-1.43 -1.73c-0.21,-0.26 -0.6,-0.29 -0.85,-0.08l-3.88 3.19c-0.26,0.21 -0.29,0.6 -0.08,0.85l1.42 1.73 0.47 0.22 0.38 -0.14 0.08 -0.06 0.22 -0.41 -0.14 -0.45 -0.97 -1.17 1.09 -0.9 0.62 0.76 0.41 0.22 0.44 -0.13 0.08 -0.07c0.26,-0.21 0.29,-0.59 0.08,-0.85l-0.63 -0.76 0.67 -0.55 0.97 1.17c0.21,0.26 0.59,0.29 0.85,0.08l0.09 -0.07 0.22 -0.41 -0.13 -0.44z"/>
  <path class="fil0" d="M30.06 107.8c-0.38,-0.34 -0.84,-0.52 -1.39,-0.53 -0.57,0 -1.08,0.24 -1.48,0.68l-1.46 1.62c-0.38,0.42 -0.56,0.93 -0.53,1.47 0.03,0.54 0.26,1.01 0.69,1.39l1.06 0.95 0.4 0.16 0.03 0 0.42 -0.2 1.9 -2.12 0.15 -0.44 -0.2 -0.42 -0.65 -0.58c-0.25,-0.23 -0.63,-0.2 -0.85,0.05l-0.07 0.08 -0.16 0.44 0.2 0.42 0.12 0.1 -0.94 1.05 -0.53 -0.47 -0.25 -0.49 0.2 -0.52 1.46 -1.63 0.51 -0.23 0.48 0.18 1.02 0.91 0.44 0.15 0.42 -0.2 0.07 -0.08c0.22,-0.25 0.2,-0.63 -0.05,-0.86l-1.02 -0.91z"/>
  <path class="fil0" d="M37.84 113.71l-0.09 -0.06c-0.28,-0.19 -0.65,-0.1 -0.84,0.17l-1.3 1.98 0.22 -3.04 -0.28 -0.55 -0.1 -0.06 -0.45 -0.09 -0.38 0.26 -2.7 4.12 -0.08 0.45 0.26 0.39 0.09 0.06c0.28,0.18 0.66,0.1 0.84,-0.18l1.3 -1.98 -0.22 3.04 0.28 0.55 0.1 0.06 0.33 0.1 0.12 -0.01 0.39 -0.26 2.69 -4.12 0.09 -0.46 -0.27 -0.38z"/>
  <path class="fil0" d="M42.75 120.25l-0.49 -0.22 0.58 -0.62 -0.09 0.84zm1.26 -3.27l-0.11 -0.05c-0.24,-0.11 -0.52,-0.05 -0.69,0.15l-3.52 3.78 -0.16 0.45 0.21 0.42 0.08 0.07c0.25,0.21 0.62,0.19 0.84,-0.05l0.66 -0.7 1.29 0.59 -0.1 0.95c-0.03,0.33 0.19,0.62 0.52,0.66l0.11 0.02 0.09 0 0.37 -0.13 0.23 -0.41 0.54 -5.14c0.03,-0.26 -0.11,-0.51 -0.35,-0.62z"/>
  <path class="fil0" d="M53.13 120.16l-2.63 -0.74c-0.32,-0.09 -0.66,0.1 -0.75,0.42l-0.03 0.1 0.05 0.46 0.37 0.29 0.68 0.19 -1.15 4.1c-0.09,0.33 0.09,0.66 0.42,0.75l0.1 0.03 0.17 0.02 0.29 -0.08 0.29 -0.36 1.15 -4.1 0.68 0.19c0.32,0.09 0.66,-0.1 0.75,-0.42l0.03 -0.11 -0.05 -0.46 -0.37 -0.29z"/>
  <path class="fil0" d="M68.9 124.4c-0.13,0.09 -0.32,0.14 -0.55,0.15l-0.64 0.02 -0.04 -1.41 0.69 -0.02 0.5 0.12c0.11,0.07 0.23,0.2 0.24,0.56 0.01,0.38 -0.11,0.5 -0.21,0.58zm0.68 -2.25c-0.34,-0.22 -0.75,-0.33 -1.22,-0.33l-1.43 0.04 -0.42 0.19 -0.16 0.43 0.14 4.97c0.01,0.33 0.28,0.59 0.61,0.59l0.12 0 0.42 -0.19 0.17 -0.43 -0.04 -1.53 0.64 -0.01c0.5,-0.01 0.93,-0.15 1.28,-0.4 0.36,-0.25 0.78,-0.75 0.76,-1.68 -0.02,-0.92 -0.47,-1.4 -0.85,-1.64z"/>
  <path class="fil0" d="M77.99 125.51l-0.45 0.29 -0.53 -0.11 -0.29 -0.45 -0.39 -2.15 0.11 -0.53 0.45 -0.29 0.14 -0.01 0.39 0.13 0.29 0.45 0.39 2.15 -0.12 0.53zm1.03 -2.92c-0.1,-0.54 -0.39,-0.99 -0.84,-1.3 -0.45,-0.32 -0.96,-0.43 -1.52,-0.33 -0.54,0.09 -0.99,0.39 -1.3,0.84 -0.32,0.45 -0.43,0.97 -0.33,1.51l0.39 2.15c0.1,0.55 0.38,0.99 0.84,1.31 0.35,0.24 0.72,0.36 1.13,0.36l0.38 -0.03c0.54,-0.1 1,-0.39 1.31,-0.83 0.32,-0.46 0.43,-0.97 0.33,-1.52l-0.39 -2.15z"/>
  <path class="fil0" d="M86.03 121.15l-0.48 0.31 -0.6 0.21 -0.46 -1.33 0.6 -0.21 0.56 -0.05c0.13,0.03 0.28,0.12 0.4,0.46 0.12,0.35 0.05,0.51 -0.02,0.61zm-0.02 -2.35c-0.42,-0.11 -0.87,-0.09 -1.35,0.07l-1.28 0.44c-0.32,0.11 -0.48,0.45 -0.38,0.77l1.62 4.7 0.31 0.35 0.27 0.06 0.2 -0.03 0.1 -0.04c0.32,-0.1 0.48,-0.45 0.38,-0.77l-0.5 -1.44 0.61 -0.21c0.47,-0.16 0.84,-0.42 1.1,-0.76 0.27,-0.35 0.52,-0.96 0.22,-1.84 -0.3,-0.87 -0.87,-1.19 -1.29,-1.31z"/>
  <path class="fil0" d="M94.49 115.18c-0.16,-0.29 -0.52,-0.41 -0.82,-0.26l-0.1 0.05 -0.3 0.36 0.04 0.46 1.65 3.15 0.05 0.54 -0.34 0.41 -0.54 0.05 -0.42 -0.35 -1.65 -3.14c-0.16,-0.3 -0.52,-0.41 -0.82,-0.26l-0.1 0.05 -0.3 0.35 0.04 0.46 1.66 3.14c0.26,0.49 0.67,0.83 1.19,0.99l0.61 0.09c0.32,0 0.64,-0.08 0.94,-0.24 0.49,-0.26 0.83,-0.67 0.99,-1.19 0.16,-0.52 0.11,-1.06 -0.14,-1.55l-1.65 -3.14z"/>
  <path class="fil0" d="M104.11 114.54l-0.4 -0.24 -0.45 0.11 -1.23 0.91 -2.53 -3.43c-0.2,-0.27 -0.57,-0.33 -0.84,-0.13l-0.09 0.06 -0.24 0.39 0.11 0.45 2.95 4 0.49 0.25 0.36 -0.12 1.8 -1.33c0.27,-0.2 0.33,-0.58 0.13,-0.84l-0.06 -0.08z"/>
  <path class="fil0" d="M107.68 104.68l-0.43 -0.18 -0 0 -0.43 0.18 -0.08 0.08c-0.24,0.24 -0.24,0.62 0,0.85l2.52 2.51 0.21 0.5 -0.2 0.5c-0.29,0.29 -0.71,0.29 -1.01,0l-2.51 -2.51c-0.24,-0.24 -0.62,-0.24 -0.86,0l-0.07 0.07 -0.18 0.43 0.18 0.43 2.52 2.51c0.39,0.39 0.88,0.6 1.43,0.6l0 0c0.54,-0 1.04,-0.21 1.43,-0.6 0.39,-0.4 0.59,-0.88 0.59,-1.43 0,-0.55 -0.21,-1.05 -0.6,-1.43l-2.51 -2.51z"/>
  <path class="fil0" d="M116.04 100.33c-0.55,-0.4 -1.21,-0.45 -1.95,-0.1 -0.29,0.15 -0.55,0.28 -0.76,0.4l-0.53 0.28c-0.25,0.13 -0.41,0.14 -0.59,0.01l-0.17 -0.26 0.11 -0.39c0.05,-0.06 0.23,-0.27 0.87,-0.71 0.23,-0.15 0.32,-0.45 0.22,-0.7l-0.04 -0.1 -0.33 -0.35 -0.48 0c-0.5,0.22 -0.94,0.58 -1.31,1.09 -0.34,0.46 -0.45,0.97 -0.33,1.47 0.1,0.42 0.33,0.76 0.68,1.02 0.44,0.32 0.95,0.42 1.47,0.29l0.07 -0.02 0.35 -0.14 0.31 -0.15 0.81 -0.42 0.34 -0.16 0.19 -0.05 0.28 0.07 0.16 0.26 -0.08 0.33c-0.02,0.02 -0.19,0.24 -1.2,0.81 -0.25,0.14 -0.36,0.43 -0.28,0.71l0.03 0.1 0.3 0.36 0.28 0.07 0.19 -0.03c0.33,-0.1 0.65,-0.27 0.96,-0.49 0.32,-0.23 0.58,-0.48 0.78,-0.75 0.31,-0.43 0.42,-0.92 0.3,-1.42 -0.1,-0.43 -0.33,-0.78 -0.66,-1.03z"/>
  <path class="fil0" d="M31.66 28.32l-1.13 1.06 -1.03 -2.23 2.17 1.17zm-4 -3.24l-0.12 0.12c-0.19,0.18 -0.25,0.46 -0.14,0.7l3.17 6.84 0.35 0.32 0.2 0.03 0.28 -0.07 0.14 -0.07c0.29,-0.15 0.41,-0.49 0.27,-0.79l-0.67 -1.46 1.8 -1.69 1.41 0.76c0.29,0.15 0.64,0.05 0.81,-0.23l0.08 -0.13 0.06 -0.47 -0.29 -0.37 -6.65 -3.57c-0.23,-0.12 -0.51,-0.08 -0.7,0.09z"/>
  <path class="fil0" d="M38.55 18.54c0.34,-0.2 0.65,-0.29 0.95,-0.27 0.24,0.02 0.59,0.1 0.93,0.69 0.35,0.59 0.25,0.94 0.15,1.14 -0.13,0.26 -0.37,0.49 -0.71,0.7l-1.04 0.61 -1.32 -2.26 1.04 -0.61zm-2.61 0.64l3.66 6.27 0.53 0.3 0.3 -0.08 0.13 -0.08 0.28 -0.37 -0.06 -0.46 -1.27 -2.17 1.05 -0.61 0.08 -0.05 2.61 1.73c0.27,0.18 0.64,0.11 0.83,-0.15l0.09 -0.13 0.1 -0.46 -0.26 -0.39 -2.35 -1.56c0.52,-0.8 0.51,-1.74 -0.05,-2.7 -0.62,-1.05 -1.43,-1.33 -2.01,-1.37 -0.57,-0.05 -1.16,0.11 -1.75,0.45l-1.7 0.99c-0.29,0.17 -0.39,0.54 -0.22,0.83z"/>
  <path class="fil0" d="M49.6 20.38l0.3 0.36 0.28 0.07 0.18 -0.02 0.15 -0.05c0.32,-0.1 0.5,-0.44 0.4,-0.76l-0.75 -2.42 0.46 -0.97 2.97 2.89c0.24,0.23 0.61,0.23 0.85,-0l0.11 -0.11 0.18 -0.44 -0.18 -0.43 -3.32 -3.22 1.33 -2.86c0.14,-0.3 0.01,-0.66 -0.29,-0.8l-0.14 -0.07 -0.46 -0.02 -0.35 0.31 -1.76 3.77 -0.77 -2.5 -0.3 -0.36 -0.46 -0.04 -0.15 0.05c-0.32,0.1 -0.5,0.44 -0.4,0.76l2.13 6.87z"/>
  <path class="fil0" d="M62.81 12.51l0.94 2.27 -1.55 0.11 0.61 -2.38zm-2.23 5.75l0.15 0.03 0.13 0.02c0.27,0 0.52,-0.19 0.59,-0.46l0.4 -1.55 2.46 -0.18 0.62 1.48c0.13,0.3 0.47,0.45 0.77,0.33l0.15 -0.05 0.34 -0.33 0 -0.47 -2.9 -6.96c-0.1,-0.24 -0.34,-0.39 -0.6,-0.37l-0.17 0.01c-0.26,0.02 -0.48,0.21 -0.55,0.46l-1.86 7.31 0.07 0.47 0.39 0.27z"/>
  <path class="fil0" d="M72.21 18.24l0.16 0.02c0.33,0.05 0.64,-0.17 0.69,-0.5l0.69 -4.48 1.92 5.18 0.47 0.38 0.17 0.03 0.09 0.01 0.36 -0.12 0.24 -0.4 1.09 -7.1c0.05,-0.33 -0.18,-0.64 -0.51,-0.69l-0.16 -0.02 -0.45 0.11 -0.25 0.4 -0.69 4.48 -1.92 -5.18 -0.48 -0.39 -0.17 -0.02 -0.45 0.11 -0.24 0.4 -1.09 7.1 0.11 0.45 0.4 0.24z"/>
  <path class="fil0" d="M84.01 20.9c0.41,0.35 0.83,0.61 1.26,0.78 0.29,0.12 0.58,0.17 0.87,0.17 0.35,0 0.69,-0.08 1.02,-0.25 0.51,-0.27 0.87,-0.66 1.07,-1.17 0.23,-0.58 0.34,-1.49 -0.52,-2.5 -0.32,-0.36 -0.59,-0.67 -0.83,-0.94l-0.59 -0.65c-0.44,-0.5 -0.38,-0.86 -0.27,-1.11l0.43 -0.48c0.24,-0.13 0.51,-0.12 0.83,0 0.16,0.06 0.54,0.28 1.4,1.02 0.21,0.17 0.51,0.19 0.73,0.04l0.13 -0.09 0.26 -0.41 -0.12 -0.46c-0.46,-0.59 -1.09,-1.05 -1.89,-1.37 -0.7,-0.28 -1.38,-0.26 -1.98,0.06 -0.5,0.26 -0.85,0.66 -1.06,1.18 -0.27,0.66 -0.23,1.33 0.1,1.95l0.04 0.07 0.32 0.42 0.31 0.37 0.89 1 0.36 0.45 0.18 0.3c0.09,0.21 0.09,0.42 0,0.65l-0.44 0.46c-0.24,0.13 -0.47,0.14 -0.74,0.03 -0.1,-0.04 -0.51,-0.26 -1.68,-1.46 -0.2,-0.21 -0.51,-0.24 -0.75,-0.09l-0.13 0.08 -0.27 0.38 0.08 0.45c0.25,0.39 0.58,0.78 0.99,1.12z"/>
  <path class="fil0" d="M97.88 22.12l-0.7 2.36 -1.28 -0.9 1.98 -1.46zm-5.25 3.18c0.2,0.25 0.57,0.3 0.83,0.11l1.29 -0.96 2.03 1.41 -0.45 1.54c-0.09,0.31 0.08,0.64 0.38,0.74l0.15 0.05 0.19 0.03 0.28 -0.07 0.3 -0.36 2.13 -7.24c0.07,-0.25 -0.02,-0.53 -0.24,-0.67l-0.14 -0.1 -0.71 0.01 -6.04 4.51 -0.24 0.41 0.13 0.46 0.1 0.12z"/>
  <path class="fil0" d="M31.41 59.23c3.8,1.13 8.44,0.55 12.37,0.54 4.35,-0.01 8.57,-1.88 12.91,-1.25 0.78,0.11 1.09,-0.99 0.3,-1.21 -3.74,-1.05 -7.5,0.45 -11.23,0.77 -2.18,0.18 -4.39,0.02 -6.6,-0.15 0,-0.26 0.01,-0.53 0.07,-0.79 0.17,-0.74 -0.85,-1.13 -1.23,-0.48 -0.21,0.35 -0.38,0.75 -0.45,1.15 -0.5,-0.04 -1,-0.06 -1.5,-0.09 0.47,-2.79 -0.11,-5.89 -0.16,-8.71 -0.01,-0.73 -1.21,-0.9 -1.31,-0.15 -0.37,2.81 -0.32,6.01 0.21,8.81 -0.57,-0.01 -1.14,-0.01 -1.71,0.01 0.31,-2.73 0.31,-5.91 -0.67,-8.45 -0.25,-0.64 -1.39,-0.57 -1.28,0.21 0.21,1.45 0.43,2.88 0.49,4.34 0.06,1.33 -0.02,2.67 0.1,3.99l-0.15 0.01c-0.81,0.08 -0.97,1.19 -0.16,1.43z"/>
  <path class="fil0" d="M71.49 77.55l-0.03 0.18c-1.03,0.04 -2.05,0.08 -3.07,0.14 -0.06,-0.75 -0.15,-1.47 0.14,-2.15l0.07 0c1.67,-0.08 3.39,-0.2 5.06,-0.52 -1.01,0.56 -1.81,1.22 -2.17,2.35zm3.75 1.47c-0.75,1.45 -2.22,2.41 -3.27,3.64 -1.23,1.46 -1.33,1.82 -3.52,1.95l-0.27 0.02 -0.17 -0.22c-0.26,-0.22 -0.39,-0.26 -0.38,-0.54 0.01,-0.36 0.26,-0.7 0.35,-1.04l0.02 -0.23c0.82,0.05 1.63,0.03 2.47,-0.22 0.73,-0.22 0.51,-1.24 -0.2,-1.27 -2.68,-0.11 -5.3,-0.05 -7.95,0.1 0,-0.56 -0.02,-1.11 -0.07,-1.67 2.3,-0.15 4.6,-0.3 6.9,-0.42 0,0.31 0.05,0.62 0.1,0.9 0.12,0.64 1.14,0.58 1.26,-0.03 0.06,-0.3 0.09,-0.62 0.09,-0.94 1.54,-0.05 3.09,-0.08 4.63,-0.05zm-1.67 -20.95l-0.11 -0.02c0.09,-0.32 0.14,-0.66 0.21,-0.97l0.06 -0.37 0.08 0.26c-0.12,0.34 -0.2,0.73 -0.24,1.1zm-5.42 -0.3c0.19,-0.64 0.42,-1.31 0.45,-1.97l0.07 0.03 0.08 0c0.05,0.67 0.13,1.34 0.26,1.99 -0.28,-0.02 -0.57,-0.03 -0.85,-0.05zm19.17 5.83c0.09,-0.28 -0.02,-0.62 -0.32,-0.76l-0.57 -0.11c-4.01,-0.45 -7.05,-2.86 -10.78,-4.19 -0.38,-0.14 -0.77,-0.23 -1.16,-0.32l0.04 -0.34c0.03,-0.26 0.09,-0.51 0.12,-0.78l0.07 -0.37c-0.07,-0.44 -0.1,-0.88 -0.18,-1.33l-0 -0.01 0.24 -0.46c0.04,-0.82 0.34,-1.9 -0.04,-2.69l-0.17 -0.36 0.08 -0.11 0.16 -0.61c0.06,-0.44 -0.45,-0.82 -0.8,-0.44 -0.21,0.22 -0.35,0.5 -0.32,0.81l0.07 0.21 -0.15 0.11 -0.52 0.06c-0.48,0.34 -0.65,0.95 -0.82,1.49 -0.18,0.57 -0.2,1.38 0.42,1.69l0.35 0.08c-0.14,0.5 -0.24,1.01 -0.34,1.51 -0.09,0.43 -0.23,0.86 -0.32,1.29 -0.9,-0.05 -1.81,-0.06 -2.69,-0.1 -0.09,-0.83 -0.09,-1.71 -0.23,-2.55l-0.03 -0.36 0 -0.54c0.4,0.15 0.82,-0.4 0.47,-0.79 -0.38,-0.43 -0.61,-0.96 -0.8,-1.49 0.06,-0.23 0.02,-0.51 -0.17,-0.66l-0.42 -0.22 0.2 -0.48c0.17,-0.59 -0.71,-0.79 -0.91,-0.23l-0.16 0.37 0.06 0.34 -0.23 0.08c-0.26,0.13 -0.34,0.43 -0.27,0.69l-0.05 0.1c-0.3,0.89 -0.09,1.78 0.15,2.65l0.22 0.31c0.09,0.91 -0.2,1.73 -0.35,2.61 -2.11,-0.14 -4.21,-0.33 -6.33,-0.61 -0.8,-0.1 -1.12,1.11 -0.31,1.24 5.16,0.79 11.29,0.06 16.09,2.12 3.18,1.36 5.83,3.49 9.35,3.56 0.18,0.8 0.43,1.41 0.34,1.95 -0.81,-0.04 -1.63,0.05 -2.43,0.07 -1.31,0.03 -2.61,0.03 -3.92,0.05 -0.81,0.01 -0.77,1.24 0.03,1.25 1.31,0.02 2.61,0.02 3.92,0.05 0.39,0.01 0.78,0.03 1.17,0.05 -0.19,0.31 -0.22,0.75 -0.2,1.16 -0.74,0.01 -1.4,0.22 -2.18,0.6 -0.61,0.3 -1.19,0.74 -1.75,1.18l-0.44 -0.01c-2.62,1.02 -5.12,0.3 -7.82,0.47 -0.84,0.05 -0.76,1.19 0.03,1.27 1.43,0.15 3.03,0.44 4.58,0.43 -3.17,1.24 -6.5,1.58 -9.9,1.72 0.35,-0.58 0.31,-1.21 0,-1.81 -0.35,-0.7 -1.32,-0.14 -1.17,0.53 0.13,0.59 -0.51,1.06 -0.96,1.36 -0.92,0.02 -1.85,0.05 -2.77,0.1 -0.12,-0.37 -0.11,-0.76 -0.06,-1.14 0.61,-0.02 1.23,-0.05 1.89,-0.1 0.89,-0.08 0.87,-1.42 -0.04,-1.39 -2.37,0.08 -4.39,-0.03 -6.72,-0.5 -0.6,-0.12 -1.27,0.04 -1.86,0.12 -1.52,0.21 -3.02,-0.02 -4.54,0.04 -0.81,0.03 -0.77,1.23 0.03,1.25 1.2,0.02 2.4,0.13 3.61,0.14 1.03,0.01 1.88,-0.32 2.92,-0.07 1.15,0.28 2.21,0.43 3.27,0.49 -0.07,0.42 -0.04,0.86 0.07,1.27l-0.1 0.01c-1.52,0.16 -2.9,0.8 -4.44,0.93 -0.84,0.07 -0.79,1.22 0.03,1.29 1.37,0.12 2.47,-0.17 3.79,-0.53 2.11,-0.58 4.43,-0.48 6.66,-0.48 -0.18,0.71 -0.12,1.52 0.07,2.19 -4.96,0.29 -9.91,0.7 -14.89,0.79 -0.8,0.01 -0.76,1.23 0.03,1.23 1.22,0 2.44,-0.02 3.65,-0.07 0,0.25 0.02,0.49 0.06,0.75 0.12,0.63 1.14,0.57 1.25,-0.03 0.04,-0.25 0.07,-0.51 0.06,-0.77 1.23,-0.06 2.47,-0.12 3.7,-0.2 -0.04,0.55 -0.04,1.12 0.03,1.67 -0.63,0.04 -1.27,0.09 -1.91,0.14 -0.81,0.06 -0.78,1.24 0.03,1.26 1.83,0.04 3.64,-0.34 5.48,-0.37 0.71,-0.01 1.41,0.07 2.1,0.15 -0.5,0.65 -0.66,1.69 -0.3,2.38 -1.69,-0.05 -3.43,0.1 -5.09,0.12 -0.82,0.02 -0.78,1.25 0.03,1.27 1.43,0.02 2.92,0.14 4.39,0.14 -1.34,0.85 -3.1,0.6 -4.75,0.9 -0.91,0.17 -1.47,0.83 -1.86,1.6 -0.94,1.84 -4.7,1.63 -6.26,2.6 -0.75,0.47 -1.04,1.52 -1.91,2.06 -1.27,0.76 -2.12,2.66 -3.08,3.71 -0.21,0.23 -0.29,0.62 -0.09,0.88 1.42,1.96 -0.16,2.75 -1.34,3.96 -0.32,0.33 -0.24,0.93 0.18,1.15 0.96,0.51 0.45,0.89 0.53,1.9 0.06,0.79 1.01,0.97 1.44,0.35l0.07 -0.1c0.2,-0.29 0.15,-0.57 -0.01,-0.78 -0.04,-1.07 0.15,-1.58 -0.5,-2.14 0.79,-0.75 1.75,-1.66 1.78,-2.66 0.01,-0.58 0.03,-1.17 -0.34,-1.67 -0.57,-0.76 1.34,-2.58 1.73,-3.06 0.2,-0.24 1.47,-0.51 1.74,-1.04 0.78,-1.53 1.7,-1.82 3.29,-2.22 1.55,-0.39 3.41,-0.63 4.05,-2.24 0.8,-2.03 4.55,-0.71 6.17,-1.71 0.54,-0.33 0.81,-0.75 1.15,-1.26 0.5,-0.75 1.99,-0.22 2.7,-0.56 1.61,-0.77 2.06,-1.61 3.17,-2.95 1.29,-1.56 2.87,-2.55 3.37,-4.59 0.11,-0.45 -0.24,-0.85 -0.69,-0.86 -1.04,-0 -2.07,0 -3.1,0.03 1.22,-1.63 3.68,-2.14 5.22,-3.47 1.67,-1.44 4.81,-4.43 7.21,-4.01 0.47,0.08 1.02,-0.24 0.97,-0.78 -0.11,-1.21 0.19,-1.47 1.24,-2.16 0.28,-0.18 0.43,-0.54 0.33,-0.86 -0.3,-0.92 -0.53,-1.85 -0.76,-2.79z"/>
  <path class="fil0" d="M56.16 85.24c0.72,-0.01 0.87,-1.12 0.14,-1.27 -1.29,-0.27 -2.44,0.19 -3.71,0.37 -1.54,0.21 -3.1,0.09 -4.65,0.14 -0.81,0.03 -0.77,1.21 0.03,1.25 1.36,0.06 2.72,0.08 4.08,0l0.3 -0.03 -0.03 0.29c-0.01,0.57 0.18,1.11 0.33,1.65 -0.29,0.35 -0.11,0.98 0.48,1.02 0.83,0.06 1.69,-0 2.52,-0.11 0.75,-0.09 1.64,-0.19 2.18,-0.77 0.43,-0.46 -0.03,-1.33 -0.67,-1.09 -1.11,0.41 -2.18,0.55 -3.31,0.65 -0.16,-0.63 -0.42,-1.42 0.02,-1.85 0.76,-0.11 1.51,-0.23 2.29,-0.26z"/>
  <path class="fil0" d="M46.66 89.27c0.86,-0.06 1.75,-0.06 2.6,-0.22 0.64,-0.12 0.58,-1.14 -0.03,-1.25 -0.9,-0.17 -1.91,-0.12 -2.77,0.22 -0.64,0.25 -0.57,1.32 0.21,1.26z"/>
  <path class="fil0" d="M60.91 67.13c0.94,0.04 1.86,0.09 2.78,0.12 -0.05,0.25 -0.05,0.52 0.02,0.75 0.18,0.66 1.05,0.54 1.24,-0.03 0.07,-0.22 0.11,-0.44 0.16,-0.67 1.11,0.03 2.22,0.06 3.33,0.06 0.02,0.43 0.16,0.83 0.43,1.22 0.36,0.52 0.79,0.88 0.91,1.53 0.14,0.7 1.26,0.49 1.22,-0.2 -0.04,-0.58 -0.3,-1.06 -0.65,-1.5 -0.28,-0.36 -0.56,-0.66 -0.64,-1.06 1.46,-0.02 2.93,-0.07 4.42,-0.19 0.75,-0.06 0.91,-1.14 0.15,-1.34 -1.87,-0.48 -3.75,-0.04 -5.64,0.14 -2.6,0.25 -5.18,-0.14 -7.78,-0.1 -0.81,0.01 -0.76,1.21 0.03,1.25z"/>
  <path class="fil0" d="M70.97 63.97c0.11,0.67 1.13,0.56 1.27,-0.03l0.21 -0.6c1.19,0.16 2.4,0.24 3.61,0.19 0.87,-0.03 0.79,-1.24 -0.03,-1.32 -2.16,-0.21 -4.31,-0.47 -6.46,-0.77 -1.81,-0.25 -3.51,-0.75 -5.36,-0.62 -0.82,0.06 -0.77,1.21 0.03,1.26 2.26,0.15 4.49,0.65 6.73,1.03 -0.05,0.28 -0.05,0.56 0,0.86z"/>
  <path class="fil0" d="M33.88 43.67c0.12,0.37 0.43,0.75 0.48,1.13 0.11,0.85 1.34,0.85 1.34,-0.03 0,-0.87 -0.72,-1.55 -0.64,-2.43 0.07,-0.73 -1.1,-0.83 -1.26,-0.14 -0.11,0.5 -0.08,0.98 0.08,1.46z"/>
  <path class="fil0" d="M27.82 46.99c0.07,-0.66 -0.12,-1.37 -0.22,-2.02 -0.04,-0.29 -0.19,-0.54 -0.5,-0.62 -0.31,-0.08 -0.75,0.12 -0.79,0.48 -0.09,0.74 0.05,1.45 0.17,2.19 0.13,0.86 1.25,0.83 1.34,-0.03z"/>
  <path class="fil0" d="M30.61 45.58c0.05,-0.81 0.08,-1.61 0.02,-2.43 -0.06,-0.84 -1.23,-0.78 -1.29,0.03 -0.06,0.81 -0.03,1.61 0.01,2.43 0.04,0.82 1.22,0.77 1.26,-0.03z"/>
  <path class="fil0" d="M22.14 28.9l0.38 0.14c0.67,0.02 1.35,0.04 2.02,0 0.82,-0.05 0.77,-1.21 -0.03,-1.26 -0.43,-0.03 -0.85,-0.02 -1.28,-0.01 0.53,-0.81 0.8,-1.8 0.73,-2.81 -0.05,-0.69 -1.18,-0.89 -1.27,-0.14 -0.22,1.81 -0.78,2.88 -2.52,3.6 -1.34,0.54 -2.76,0.81 -4.05,1.48 -0.71,0.38 -0.05,1.41 0.65,1.06 1.57,-0.78 3.36,-0.98 4.92,-1.79l0.45 -0.28z"/>
  <path class="fil0" d="M44.74 29.41c-0.61,0.15 -1.15,0.15 -1.71,0.06 0.23,-0.23 0.45,-0.48 0.65,-0.75 0.45,-0.61 -0.53,-1.24 -1.04,-0.75 -2.23,2.13 -5.48,3.43 -6.74,6.41 -0.31,0.72 0.75,1.33 1.08,0.6 0.98,-2.14 3.1,-3.15 4.89,-4.5 1.12,0.44 2.26,0.65 3.4,0.11 0.69,-0.33 0.15,-1.34 -0.53,-1.17z"/>
  <path class="fil0" d="M42.49 33.92c-0.22,0.64 -0.29,1.32 -0.26,2l-0.51 0.08c-1.46,0.27 -2.59,0.97 -3.41,2.22 -0.4,0.61 0.56,1.3 1.02,0.75 1.11,-1.32 2.25,-1.61 3.91,-1.74 1.18,-0.09 2.25,-0.29 3.17,-1.09 0.56,-0.5 -0.2,-1.33 -0.8,-0.98 -0.65,0.37 -1.31,0.51 -2,0.61 0.03,-0.51 0.06,-1.02 0.12,-1.52 0.1,-0.82 -0.97,-1.11 -1.25,-0.31z"/>
  <path class="fil0" d="M25.91 38.94c0.06,0.81 1.24,0.78 1.26,-0.03 0.06,-1.87 -1.18,-4.77 -3.48,-4.46 -0.79,0.11 -0.8,1.27 0.03,1.26 0.52,-0 0.93,0.25 1.25,0.63 -0.32,0.17 -0.66,0.29 -1.08,0.33 -0.82,0.08 -0.78,1.21 0.03,1.27 0.59,0.04 1.19,-0.07 1.7,-0.35 0.16,0.47 0.25,0.96 0.28,1.35z"/>
  <path class="fil0" d="M45.92 39.35c-0.01,0.7 1.15,0.84 1.23,0.13 0.03,-0.23 0.42,-0.53 0.56,-0.85 0.31,-0.76 -0.63,-1.28 -1.11,-0.61 -0.32,0.45 -0.67,0.74 -0.68,1.33z"/>
  <path class="fil0" d="M48.81 37.81c-0.18,0.42 -0.44,0.93 -0.79,1.17 -0.24,0.16 -0.37,0.45 -0.28,0.74 0.09,0.31 0.48,0.58 0.8,0.43 0.76,-0.33 1.23,-1.09 1.44,-1.88 0.19,-0.69 -0.89,-1.14 -1.18,-0.46z"/>
  <path class="fil0" d="M50.56 38.54l-0.02 0.16c-0.5,0.63 0.33,1.46 0.91,0.87 0.29,-0.3 0.41,-0.65 0.38,-1.06 -0.03,-0.34 -0.29,-0.63 -0.65,-0.62 -0.38,0.01 -0.58,0.3 -0.62,0.65z"/>
  <path class="fil0" d="M53.43 39.75c0.8,0 0.77,-1.25 -0.03,-1.25 -0.8,0 -0.77,1.25 0.03,1.25z"/>
  <path class="fil0" d="M48.15 32.71c-0.25,0.8 -0.42,1.61 -0.6,2.43 -0.17,0.8 1,1.08 1.22,0.31 0.23,-0.8 0.46,-1.61 0.62,-2.43 0.15,-0.81 -1,-1.1 -1.24,-0.31z"/>
  <path class="fil0" d="M50.57 32.47c-0,0.57 -0.03,1.1 -0.19,1.65 -0.22,0.79 0.96,1.06 1.22,0.31 0.22,-0.64 0.22,-1.32 0.22,-1.99 -0,-0.8 -1.24,-0.77 -1.25,0.03z"/>
  <path class="fil0" d="M52.2 32.47l0 0.2c0,0.78 1.22,0.75 1.22,-0.03l0 -0.2c0,-0.79 -1.22,-0.75 -1.22,0.03z"/>
  <path class="fil0" d="M53.59 30.45l0.01 0.4c0.05,0.82 1.21,0.77 1.26,-0.03l0.01 -0.4c-0.01,-0.83 -1.27,-0.79 -1.28,0.03z"/>
  <path class="fil0" d="M47.74 30.64c0.57,-0.23 1.06,-0.6 1.25,-1.21 0.21,-0.68 0.06,-1.36 -0.27,-1.96 -0.38,-0.69 -1.34,-0.16 -1.19,0.53 0.12,0.56 0.22,1.13 -0.31,1.49 -0.56,0.39 -0.18,1.43 0.52,1.15z"/>
  <path class="fil0" d="M45.95 25.2l0.14 0.13 0.01 0.01 0.04 0.16 0 0.03 0.02 0.23 0.01 0.48c0.04,0.71 1.11,0.87 1.27,0.14 0.18,-0.87 -0.02,-1.66 -0.76,-2.18 -0.58,-0.41 -1.29,0.56 -0.73,1z"/>
  <path class="fil0" d="M50.19 27.18c0.16,0.55 0.11,1.09 0.17,1.65 0.08,0.83 1.19,0.77 1.27,-0.03 0.06,-0.65 -0.03,-1.36 -0.24,-1.98 -0.25,-0.76 -1.42,-0.42 -1.19,0.36z"/>
  <path class="fil0" d="M45.29 31.83c-0.31,-0.08 -0.73,0.12 -0.78,0.47 -0.08,0.62 -0.04,1.37 0.67,1.6 0.37,0.12 0.87,-0.24 0.81,-0.65 -0.04,-0.25 -0.1,-0.34 -0.15,-0.51l-0.03 -0.11 -0.03 -0.18 -0 -0c-0.04,-0.29 -0.19,-0.53 -0.49,-0.61z"/>
  <path class="fil0" d="M43.38 25.04c-0.28,0.17 -0.42,0.61 -0.21,0.89 0.28,0.37 0.64,0.82 0.71,1.3 0.13,0.81 1.22,0.81 1.29,-0.03 0.07,-0.8 -0.4,-1.59 -1,-2.07 -0.23,-0.18 -0.52,-0.25 -0.79,-0.08z"/>
  <path class="fil0" d="M35.53 41.62c0,0.73 1.21,0.9 1.3,0.15l0 -0.03 0 -0.03 0 -0 0.56 -0.17c0.4,-0.09 0.87,-0.19 1.14,-0.54 0.44,-0.57 -0.15,-1.43 -0.83,-1.02l-0.06 0.04 -0.03 0.01 -0.33 0.09c-0.25,0.06 -0.49,0.11 -0.73,0.19 -0.59,0.2 -1.03,0.66 -1.03,1.3z"/>
  <path class="fil0" d="M40.5 39.14c-0.01,0.37 -0.07,0.72 -0.27,1.04l-0.18 0.21 -0.22 0.13c-0.74,0.28 -0.4,1.45 0.36,1.18 1.12,-0.39 1.54,-1.48 1.55,-2.6 0.01,-0.8 -1.22,-0.76 -1.24,0.03z"/>
  <path class="fil0" d="M43.28 39.45c-0.41,-0.1 -0.72,0.16 -0.85,0.52 -0.22,0.58 -0.55,1.18 -0.58,1.8 -0.01,0.29 0.23,0.55 0.5,0.62 0.31,0.07 0.56,-0.08 0.73,-0.32 0.17,-0.25 0.26,-0.55 0.38,-0.83 0.12,-0.31 0.25,-0.62 0.34,-0.93 0.11,-0.37 -0.16,-0.77 -0.52,-0.86z"/>
  <path class="fil0" d="M44.57 42.99l0.2 -0.21c0.56,-0.57 -0.33,-1.41 -0.89,-0.85l-0.21 0.2c-0.57,0.56 0.34,1.42 0.9,0.86z"/>
  <path class="fil0" d="M46.16 44.18c0.79,0 0.76,-1.22 -0.03,-1.22 -0.79,0 -0.76,1.22 0.03,1.22z"/>
  <path class="fil0" d="M48.56 44.43c0.41,0.08 0.65,-0.13 0.75,-0.39l0 -0.01c0.15,-0.42 -0.06,-0.99 -0.61,-0.91l-0.15 0.02 -0.02 0 -0.01 0 -0.14 0.03c-0.3,0.06 -0.44,0.32 -0.44,0.59 -0.06,0.3 0.07,0.6 0.47,0.66l0.15 0.02z"/>
  <path class="fil0" d="M38.06 45.34c0.11,-0.79 -1,-1.1 -1.22,-0.31 -0.3,1.1 0,2.6 0.67,3.52 0.42,0.59 1.36,0.2 1.16,-0.52 -0.23,-0.85 -0.73,-1.79 -0.61,-2.69z"/>
  <path class="fil0" d="M40.91 49.05c0.38,-0.49 0.38,-0.97 0.1,-1.51 -0.23,-0.44 -0.74,-0.82 -0.77,-1.35 -0.04,-0.79 -1.27,-0.77 -1.24,0.03 0.02,0.48 0.21,0.9 0.48,1.29l0.37 0.52 0.11 0.17 0.01 0.04c-0.41,0.62 0.45,1.42 0.93,0.81z"/>
  <path class="fil0" d="M42.09 48.47l-0.01 0.05 -0.01 0.05 -0.01 0.01c-0.45,0.47 0.03,1.25 0.66,1.07 0.55,-0.16 0.81,-0.76 0.78,-1.3 -0.04,-0.62 -0.36,-1.16 -0.88,-1.49 -0.61,-0.38 -1.29,0.56 -0.74,1.02l0.23 0.44 -0 0.14 0 0.02z"/>
  <path class="fil0" d="M45.15 48.61l-0.03 -0.37c-0.09,-0.21 -0.22,-0.37 -0.45,-0.43 -0.25,-0.06 -0.59,0.05 -0.7,0.31l-0.08 0.52c0.04,0.82 1.22,0.77 1.26,-0.03z"/>
  <path class="fil0" d="M32.62 45.6c-0.35,0.11 -0.5,0.45 -0.42,0.78 0.22,0.93 0.88,1.86 1.86,2.08 0.64,0.14 1.12,-0.66 0.62,-1.12 -0.27,-0.25 -0.58,-0.45 -0.84,-0.71 -0.19,-0.19 -0.37,-0.5 -0.5,-0.76 -0.12,-0.25 -0.47,-0.35 -0.72,-0.27z"/>
  <path class="fil0" d="M30.39 48.43c0.8,0 0.76,-1.23 -0.03,-1.23 -0.8,0 -0.76,1.23 0.03,1.23z"/>
  <path class="fil0" d="M31.57 40.76c-0.05,1.38 -0.13,2.73 0.24,4.09 0.22,0.81 1.37,0.42 1.23,-0.38 -0.22,-1.26 -0.22,-2.47 -0.21,-3.74 0.01,-0.82 -1.23,-0.78 -1.26,0.03z"/>
  <path class="fil0" d="M35.08 39.11l-0.02 -0.61c-0.05,-0.83 -1.22,-0.78 -1.28,0.03l-0.02 0.6c0.04,0.86 1.27,0.81 1.31,-0.03z"/>
  <path class="fil0" d="M32.46 36.65c-0.07,-0.33 -0.47,-0.51 -0.78,-0.42 -0.35,0.1 -0.48,0.45 -0.42,0.78 0.09,0.47 0.19,0.93 0.29,1.39 0.07,0.34 0.47,0.51 0.78,0.42 0.35,-0.1 0.48,-0.45 0.42,-0.78 -0.09,-0.47 -0.19,-0.93 -0.29,-1.4z"/>
  <path class="fil0" d="M33.41 34.87c0.14,0.34 0.17,0.68 0.19,1.04 0.05,0.81 1.21,0.77 1.26,-0.03 0.03,-0.55 -0.03,-1.04 -0.29,-1.53 -0.33,-0.64 -1.43,-0.15 -1.16,0.52z"/>
  <path class="fil0" d="M37.06 38.1l0 -0.61c0,-0.8 -1.24,-0.77 -1.24,0.03l0 0.61c0,0.79 1.23,0.76 1.24,-0.03z"/>
  <path class="fil0" d="M28.42 38.25c0.55,0.85 0.79,1.71 0.91,2.71 0.1,0.83 1.23,0.8 1.29,-0.03 0.09,-1.28 -0.42,-2.51 -1.22,-3.48 -0.47,-0.56 -1.35,0.2 -0.98,0.8z"/>
  <polygon class="fil0" points="26.34,42.24 26.33,42.23 26.33,42.23 "/>
  <line class="fil1" x1="26.33" y1="42.23" x2="26.33" y2= "42.23" />
  <path class="fil0" d="M26.32 42.21l0.02 0.02 -0 -0.05c0.04,0.33 0.27,0.61 0.63,0.6 0.32,-0.01 0.64,-0.3 0.6,-0.63 -0.03,-0.33 -0.16,-0.6 -0.39,-0.84 -0.55,-0.58 -1.42,0.33 -0.86,0.9z"/>
  <path class="fil0" d="M26.95 33.65c0.15,0.39 0.1,0.8 0.16,1.25 0.04,0.29 0.19,0.54 0.49,0.61 0.31,0.07 0.74,-0.12 0.78,-0.47 0.09,-0.67 0.04,-1.31 -0.29,-1.91 -0.35,-0.62 -1.4,-0.15 -1.14,0.52z"/>
  <path class="fil0" d="M31 34.24l-0.2 -0.2c-0.56,-0.56 -1.4,0.33 -0.84,0.89l0.21 0.2c0.56,0.56 1.4,-0.33 0.84,-0.89z"/>
  <path class="fil0" d="M34.49 30.7c-0.44,0.34 -0.54,0.84 -0.5,1.37 0.06,0.83 1.2,0.77 1.26,-0.03l0 -0.04 0.03 -0.19 0.09 -0.26c0.29,-0.53 -0.36,-1.26 -0.89,-0.85z"/>
  <path class="fil0" d="M36.8 29c-0.54,0.59 0.32,1.39 0.9,0.85l0.61 -0.61c0.56,-0.58 -0.33,-1.42 -0.9,-0.86l-0.61 0.61z"/>
  <path class="fil0" d="M32.65 21.44c-0.31,0.76 -0.56,1.51 -0.49,2.34 0.06,0.68 1.18,0.89 1.27,0.14 0.08,-0.69 0.23,-1.35 0.4,-2.02 0.18,-0.68 -0.89,-1.13 -1.17,-0.46z"/>
  <path class="fil0" d="M34.4 23.34c-0.22,0.9 -0.24,1.85 -0.2,2.77 0.03,0.81 1.22,0.77 1.25,-0.03 0.04,-0.81 0.01,-1.63 0.21,-2.42 0.2,-0.81 -1.05,-1.12 -1.26,-0.32z"/>
  <path class="fil0" d="M36.61 25.81l0.01 0.61c0.03,0.28 0.18,0.52 0.48,0.6 0.3,0.08 0.72,-0.12 0.76,-0.46 0.04,-0.26 0.04,-0.51 0.04,-0.78 0,-0.83 -1.3,-0.8 -1.29,0.04z"/>
  <path class="fil0" d="M40.76 28.67l0.59 -0.62c0.55,-0.64 -0.31,-1.41 -0.93,-0.88l-0.62 0.59c-0.57,0.64 0.33,1.48 0.95,0.91z"/>
  <path class="fil0" d="M40.29 15.61c0.04,0.24 0.22,0.49 0.37,0.66 0.35,0.39 0.93,0.64 1.46,0.61 0.68,-0.03 0.86,-0.89 0.31,-1.24l-0.4 -0.22 -0.15 -0.07 -0.09 -0.05 -0.11 -0.09 -0.08 -0.09 -0.06 -0.11 0 -0c-0.08,-0.82 -1.25,-0.79 -1.28,0.03l-0 0.07 -0.01 0.14 0.05 0.38z"/>
  <path class="fil0" d="M43.37 14.66c0.44,0.57 1.34,0.22 1.16,-0.53 -0.09,-0.41 -0.28,-0.8 -0.48,-1.15 -0.35,-0.63 -1.42,-0.16 -1.15,0.51 0.16,0.39 0.19,0.82 0.47,1.17z"/>
  <path class="fil0" d="M43.09 18.33c-0.01,0.34 -0.01,0.67 0,1.01 0.03,0.81 1.2,0.76 1.24,-0.03 0.01,-0.34 0.01,-0.67 0,-1.01 -0.03,-0.81 -1.22,-0.77 -1.25,0.03z"/>
  <path class="fil0" d="M46.86 19.66l0.01 -0.4c0.01,-0.8 -1.26,-0.77 -1.25,0.03l0 0.4c0.01,0.8 1.23,0.77 1.24,-0.03z"/>
  <path class="fil0" d="M39.82 33.84c-0.18,0.2 -0.41,0.23 -0.7,0.3 -0.36,0.08 -0.68,0.22 -0.95,0.48 -0.27,0.26 -0.24,0.72 0.03,0.96 0.29,0.28 0.68,0.22 0.96,-0.02l0 0 0.21 -0.07 0.45 -0.12c0.44,-0.13 0.79,-0.39 1.01,-0.79 0.36,-0.63 -0.53,-1.28 -1.01,-0.74z"/>
  <path class="fil0" d="M28.21 21.93c-0.1,-1.34 -0.22,-2.64 0.3,-3.92 0.3,-0.73 -0.71,-1.34 -1.1,-0.61 -0.8,1.49 -1.14,3.3 -0.41,4.89 0.28,0.6 1.26,0.26 1.21,-0.36z"/>
  <path class="fil0" d="M30.6 21.33c0.05,-0.64 0.19,-1.24 0.39,-1.85 0.24,-0.78 -0.95,-1.05 -1.21,-0.3 -0.25,0.71 -0.46,1.42 -0.42,2.19 0.04,0.82 1.18,0.76 1.25,-0.03z"/>
  <path class="fil0" d="M32.77 16.95c-0.71,-1.19 -0.69,-2.22 -0.36,-3.54 0.21,-0.82 -0.95,-1.05 -1.23,-0.31 -0.63,1.6 -0.73,3.37 0.56,4.68 0.54,0.55 1.42,-0.19 1.04,-0.84z"/>
  <path class="fil0" d="M33.83 15.87c0.62,0.22 0.96,-0.5 0.72,-0.98l-0 -0.14 0.04 -0.34c0.06,-0.4 0.08,-0.78 0.05,-1.18 -0.06,-0.69 -1.17,-0.9 -1.27,-0.14 -0.13,0.91 -0.76,2.36 0.46,2.78z"/>
  <path class="fil0" d="M37.05 14.23c0.08,-0.49 0.06,-0.9 0,-1.39 -0.04,-0.28 -0.18,-0.53 -0.48,-0.6 -0.31,-0.07 -0.72,0.12 -0.77,0.47 -0.07,0.55 -0.1,1 -0.01,1.56 0.11,0.64 1.17,0.58 1.27,-0.03z"/>
  <path class="fil0" d="M29.92 23.2c-0.08,0.42 -0.25,0.81 -0.37,1.22 -0.09,0.28 0.07,0.6 0.32,0.74 0.35,0.19 0.69,0.03 0.9,-0.26 0.32,-0.44 0.57,-1 0.52,-1.55 -0.03,-0.31 -0.21,-0.57 -0.52,-0.65 -0.35,-0.09 -0.77,0.13 -0.83,0.5z"/>
  <path class="fil0" d="M20.72 34.64c0.21,-0.72 -0.04,-1.48 -0.53,-2.02 -0.49,-0.54 -1.27,-0.62 -1.95,-0.6 -0.83,0.02 -0.78,1.23 0.03,1.28 0.38,0.02 0.61,0.15 0.8,0.34l0.11 0.16 0.02 0.05 0.05 0.13c0.07,0.23 0.1,0.46 0.18,0.69 0.2,0.64 1.11,0.6 1.29,-0.03z"/>
  <path class="fil0" d="M23.17 31.53c-0.21,-0.34 -0.54,-0.61 -0.92,-0.71l-0.31 -0.06 -0.04 0 -0.2 -0.02 -0.2 0.02 -0.39 0.07c-0.7,0.19 -0.53,1.31 0.2,1.26l0.15 -0 0.06 0.02 0.07 0.05 0.15 0.16 0.11 0.17 0.05 0.1 0.01 0.01 0.09 0.23 0.33 0.61c0.28,0.26 0.7,0.24 0.97,-0.03 0.5,-0.48 0.18,-1.39 -0.14,-1.88z"/>
  <path class="fil0" d="M24.47 29.7c-0.72,-0.25 -1.17,0.92 -0.49,1.24 0.28,0.12 0.42,0.38 0.53,0.65l0.17 0.58 0.02 0.24c-0.11,0.72 0.83,1.17 1.22,0.48 0.64,-1.16 -0.33,-2.79 -1.46,-3.19z"/>
  <path class="fil0" d="M27.39 31.08c0.67,0.23 1.04,-0.68 0.62,-1.12 -0.21,-0.22 -0.46,-0.5 -0.48,-0.85 -0.05,-0.81 -1.26,-0.78 -1.27,0.03 -0.01,0.84 0.28,1.64 1.13,1.94z"/>
  <path class="fil0" d="M24.74 22.41c0.85,0 0.82,-1.32 -0.03,-1.32 -0.85,0 -0.82,1.32 0.03,1.32z"/>
  <path class="fil0" d="M34.3 17.35l0 0.02c0.08,0.28 0.32,0.51 0.61,0.58l0.05 0.01c0.46,0.11 0.94,-0.17 1.05,-0.63 0.13,-0.51 -0.29,-1.15 -0.86,-1.08l0.15 0.02c-0.63,-0.18 -1.18,0.47 -1.01,1.06z"/>
  <path class="fil0" d="M37.17 16.91c0.89,0 0.85,-1.38 -0.03,-1.38 -0.89,0 -0.85,1.38 0.03,1.38z"/>
  <path class="fil0" d="M38.83 14.86c0.37,-0.01 0.58,-0.3 0.61,-0.64 0.02,-0.23 0.11,-0.44 0.14,-0.67 0.03,-0.28 -0.04,-0.55 -0.31,-0.7 -0.27,-0.15 -0.72,-0.07 -0.85,0.25 -0.16,0.38 -0.24,0.74 -0.23,1.16 0.01,0.34 0.3,0.62 0.64,0.61z"/>
  <path class="fil0" d="M32.74 19.88l-0 -0.01 0 0.01zm-0.3 -1.05c-0.25,0.32 -0.2,0.74 0.11,0.95 0.23,0.4 0.71,0.5 1.08,0.17 0.38,-0.34 0.44,-0.92 0.05,-1.29 -0.19,-0.18 -0.51,-0.28 -0.77,-0.18l-0.47 0.35z"/>
  <path class="fil0" d="M53.07 28.37c0.24,0.13 0.6,0.1 0.78,-0.12 0.47,-0.59 0.35,-1.22 -0.18,-1.71 -0.52,-0.48 -1.37,0.18 -0.97,0.79l0.06 0.32c-0.04,0.29 0.04,0.57 0.31,0.72z"/>
  <path class="fil0" d="M27.77 51.38c0.7,-0.7 1.07,-1.88 0.55,-2.78 -0.33,-0.56 -1.31,-0.3 -1.25,0.37 0.06,0.66 -0.22,1.19 -0.41,1.8 -0.21,0.65 0.66,1.04 1.11,0.61z"/>
  <path class="fil0" d="M29.36 52.73c0.64,-0.74 0.87,-1.73 0.66,-2.68 -0.16,-0.73 -1.2,-0.47 -1.23,0.2 -0.04,0.63 -0.24,1.14 -0.47,1.72 -0.11,0.27 -0.11,0.56 0.12,0.78 0.25,0.23 0.69,0.25 0.91,-0.02z"/>
  <path class="fil0" d="M30.17 54.91c0.27,0.06 0.62,-0.06 0.74,-0.33 0.22,-0.5 0.22,-1.08 -0.22,-1.47 -0.37,-0.33 -0.92,-0.16 -1.06,0.31 -0.1,0.33 -0.08,0.71 0.06,1.03 0.1,0.22 0.23,0.39 0.48,0.46z"/>
  <path class="fil0" d="M24.22 56.03c4.41,1.1 5.57,4.99 4.33,9.04 -0.24,0.8 0.99,1.28 1.36,0.53 0.28,-0.56 0.49,-1.14 0.64,-1.73 0.77,0.05 1.46,0.11 2.21,0.55 0.79,0.47 1.24,1.3 1.53,2.16 -1.01,0.68 -1.75,1.74 -2,3.2 -0.12,0.71 0.78,1.09 1.17,0.46 1.06,-1.69 2.2,-2.78 4.28,-2.92 1.89,-0.13 3.58,0.92 4.64,2.4l-0.07 0.08c-0.49,0.62 0.32,1.44 0.91,0.86 0.61,-0.6 1.42,-0.95 2.27,-0.92 1.03,0.04 1.47,1.04 1.66,1.89 0.16,0.73 1.31,0.53 1.28,-0.2 -0.15,-2.86 -2.91,-3.82 -4.97,-2.62 -1.41,-2.72 -5.06,-3.81 -7.82,-2.9 -0.57,-2.1 -2.64,-3.92 -4.81,-3.68 0.27,-3.79 -2,-7.34 -6.45,-7.51 -0.75,-0.03 -0.85,1.11 -0.14,1.29z"/>
  <path class="fil0" d="M48.49 75.94c0.99,1.53 -0.03,3.02 -1.24,4.03 -0.66,0.55 0.22,1.38 0.87,1.07 2.36,-1.1 3.19,-3.53 2.03,-5.84 -1.04,-2.06 -3.6,-2.79 -5.53,-1.64 -0.61,0.37 -0.16,1.44 0.53,1.17 1.31,-0.54 2.61,0.07 3.35,1.21z"/>
  <path class="fil0" d="M39.72 81.19c2.26,1.13 5.38,0.71 6.15,-2.06 0.23,-0.83 -0.87,-1.13 -1.31,-0.51 -1.41,1.97 -4.46,1.43 -5.91,-0.2 -0.41,-0.46 -1.32,0.07 -1.06,0.65 0.19,0.43 0.45,0.8 0.77,1.14 -0.2,0.72 -0.46,1.35 -0.99,1.87 -0.21,-0.17 -0.43,-0.34 -0.68,-0.49 -0.63,-0.38 -1.29,0.54 -0.75,1.02 1.13,1.02 1.6,2.41 1.36,3.91 -0.14,0.88 1.09,1.2 1.35,0.34 0.11,-0.36 0.16,-0.71 0.19,-1.06 0.43,-0.05 1.03,-0.26 1.52,-0.2 0.9,0.12 1.52,0.69 1.97,1.45 0.33,0.56 1.34,0.31 1.26,-0.38 -0.15,-1.36 -1.12,-2.21 -2.37,-2.62 -0.69,-0.23 -1.75,-0.19 -2.49,0.19 -0.1,-0.38 -0.24,-0.75 -0.44,-1.09 0.64,-0.5 1.19,-1.2 1.43,-1.97z"/>
  <path class="fil0" d="M32.64 88.29c0.44,-0.61 -0.55,-1.28 -1.04,-0.76 -0.7,0.72 -1.41,1.44 -2.15,2.11 0.88,-2.08 2.21,-3.97 3.55,-5.76 0.49,-0.66 -0.36,-1.55 -0.96,-0.91 -4.03,4.35 -5.7,9.62 -5.17,15.48 0.08,0.84 1.24,0.79 1.3,-0.03 0.14,-2.2 0.05,-4.33 0.52,-6.47 1.56,-0.96 2.88,-2.18 3.95,-3.66z"/>
  <path class="fil0" d="M31.2 98.98c1.99,-1.07 3.54,-2.39 4.79,-3.95l0.27 0.04c1.77,-0.16 3.25,-0.64 4.63,-1.78 0.61,-0.5 -0.2,-1.37 -0.83,-1.03 -0.95,0.52 -1.96,0.95 -3,1.27 0.93,-1.47 1.65,-3.12 2.24,-4.94 0.23,-0.71 -0.9,-1.14 -1.21,-0.47 -0.91,1.94 -1.77,3.88 -3.1,5.59 -1.3,1.68 -3.06,2.86 -4.59,4.29 -0.55,0.51 0.18,1.3 0.8,0.98z"/>
  <path class="fil0" d="M17.94 74.53c-0.85,0.34 -1.75,0.66 -2.64,0.52 0.45,-0.52 0.91,-1.03 1.35,-1.54 0.47,-0.55 -0.22,-1.53 -0.83,-1.03 -2.17,1.74 -4.92,4.71 -4.28,7.73 0.16,0.76 1.22,0.47 1.27,-0.21 0.1,-1.41 0.72,-2.61 1.52,-3.72 1.37,0.76 2.86,0.46 4.17,-0.55 0.56,-0.43 0.21,-1.51 -0.55,-1.21z"/>
  <path class="fil0" d="M10.65 66.92c0.39,-1.41 0.35,-2.86 0.11,-4.29 1.86,-1.68 2.21,-4.25 1.88,-6.64 -0.12,-0.81 -1.28,-0.82 -1.3,0.03 -0.03,1.64 -0.14,3.42 -0.95,4.87 -0.18,-0.69 -0.37,-1.38 -0.57,-2.05 -0.25,-0.84 -1.43,-0.44 -1.27,0.38 0.48,2.53 0.75,4.99 0.83,7.56 0.02,0.73 1.07,0.84 1.27,0.14z"/>
  <path class="fil0" d="M12.82 65.4c-0.23,0.67 0.9,1.12 1.17,0.46 0.66,-1.6 1.46,-3.15 2.61,-4.35 0.67,0.54 1.5,0.86 2.38,0.85 0.83,-0.01 0.76,-1.21 -0.03,-1.27 -0.45,-0.03 -0.93,-0.21 -1.35,-0.47 0.63,-0.46 1.34,-0.83 2.16,-1.07 0.81,-0.24 0.42,-1.38 -0.37,-1.23 -3.54,0.66 -5.48,3.93 -6.57,7.08z"/>
  <path class="fil0" d="M10.29 50.79c0.79,-0.32 0.44,-1.39 -0.38,-1.25 -0.48,0.08 -0.92,0.08 -1.37,-0.01 0.27,-0.74 0.65,-1.44 1.2,-2.1 0.55,-0.65 -0.33,-1.47 -0.95,-0.9 -2.27,2.06 -2.69,5.13 -2.37,8.05 0.07,0.67 1.18,0.91 1.27,0.14 0.14,-1.26 0.22,-2.51 0.45,-3.71 0.71,0.17 1.57,0.02 2.15,-0.22z"/>
  <path class="fil0" d="M20.3 71.1c-0.24,0.52 0.2,1.33 0.85,1.06 2.49,-1.05 3.97,-4.42 3.49,-6.97 -0.16,-0.83 -1.31,-0.5 -1.36,0.22 -0.08,1.1 -0.48,2.08 -1.03,3.03 -0.55,0.94 -1.49,1.67 -1.94,2.66z"/>
  <path class="fil0" d="M23.29 78.73c0.19,-0.51 0.42,-1 0.68,-1.49 1.81,0.72 3.72,-0.66 4.8,-2.07 0.52,-0.68 -0.33,-1.52 -0.97,-0.93 -0.53,0.49 -1.09,0.93 -1.73,1.28 -0.42,0.23 -0.83,0.3 -1.26,0.31 0.21,-0.32 0.44,-0.62 0.67,-0.91 0.5,-0.63 -0.36,-1.49 -0.92,-0.88 -1.14,1.27 -2.01,2.74 -2.5,4.38 -0.24,0.8 0.95,1.05 1.23,0.31z"/>
  <path class="fil0" d="M27.45 81.33c0.27,-0.77 -0.92,-1.19 -1.29,-0.51 -0.63,1.16 -1.24,2.44 -1.77,3.79 -0.25,-0.94 -0.22,-1.99 -0.24,-2.93 -0.02,-0.73 -1.04,-0.81 -1.24,-0.14 -0.47,1.58 -0.31,3.71 0.8,5.03 -0.91,2.96 -1.28,6.1 -0.44,8.88 0.23,0.76 1.22,0.49 1.29,-0.21 0.24,-2.51 0.28,-4.96 0.83,-7.45 0.48,-2.2 1.33,-4.33 2.07,-6.46z"/>
  <path class="fil0" d="M38.16 75.51c-0.23,-0.6 -0.43,-1.22 -0.45,-1.87 -0.02,-0.7 -1.11,-0.85 -1.25,-0.14 -0.2,0.99 -0.06,1.89 0.61,2.68 0.43,0.5 1.32,-0.07 1.08,-0.67z"/>
  <path class="fil0" d="M32.77 74.83c-0.35,-0.57 -0.53,-1.2 -0.53,-1.87 0,-0.7 -1.14,-0.85 -1.25,-0.14 -0.16,1.05 -0.05,2.06 0.77,2.83 0.54,0.5 1.39,-0.18 1,-0.81z"/>
  <path class="fil0" d="M19.3 56.55c0.79,-0.53 1.61,-0.85 2.56,-0.91 0.82,-0.05 0.78,-1.24 -0.04,-1.27 -1.21,-0.05 -2.24,0.36 -3.2,1.09 -0.65,0.49 -0.03,1.55 0.67,1.09z"/>
  <path class="fil0" d="M41.23 101.5c1.73,-0.01 3.32,-0.78 4.39,-2.33 1.47,-2.13 0.59,-4.71 -0.88,-6.52 -0.48,-0.59 -1.5,0.23 -1.04,0.84 1.03,1.35 1.44,3.07 0.67,4.64 -0.88,1.79 -3.01,2.09 -4.78,1.79 -0.84,-0.14 -1.14,1.03 -0.32,1.29l0.33 0.08c-0.72,0.7 -1.95,1.19 -2.65,0.3 -0.5,-0.64 -1.56,-0.04 -1.11,0.69 0.69,1.11 1.82,1.78 3.17,1.44 1.14,-0.29 1.96,-1.1 2.22,-2.2z"/>
  <path class="fil0" d="M32.86 107.99l0.43 -0.49 0.46 -0.54c0.36,-0.39 0.75,-0.75 1.15,-1.1 0.6,-0.52 -0.2,-1.35 -0.83,-1.02 -0.53,0.28 -1.02,0.62 -1.44,1.05 -0.21,0.22 -0.39,0.45 -0.57,0.71 -0.16,0.24 -0.21,0.51 -0.33,0.77 -0.34,0.75 0.71,1.34 1.13,0.62z"/>
  <path class="fil0" d="M33.86 107.67c-0.38,0.54 0.38,1.19 0.9,0.86 0.53,-0.34 1.07,-0.69 1.51,-1.15 0.43,-0.46 -0.03,-1.34 -0.67,-1.09 -0.71,0.27 -1.3,0.76 -1.73,1.38z"/>
  <path class="fil0" d="M37.49 108.99c0.3,-0.21 0.6,-0.34 0.83,-0.7 0.39,-0.58 -0.38,-1.14 -0.91,-0.86 -0.21,0.11 -0.53,0.31 -0.73,0.56 -0.19,0.23 -0.25,0.52 -0.08,0.79 0.18,0.29 0.6,0.4 0.89,0.21z"/>
  <path class="fil0" d="M40.97 107.32c0.47,-0.31 0.99,-0.66 1.31,-1.13 0.4,-0.58 -0.4,-1.25 -0.95,-0.91 -0.47,0.3 -0.95,0.72 -1.27,1.17 -0.38,0.55 0.39,1.19 0.9,0.86z"/>
  <path class="fil0" d="M42.87 107.65c-1.38,0.5 -2.45,1.61 -3.1,2.9 -0.38,0.74 0.66,1.29 1.12,0.62 0.66,-0.98 1.56,-1.66 2.52,-2.32 0.59,-0.41 0.2,-1.46 -0.54,-1.19z"/>
  <path class="fil0" d="M44.32 110.52c0.3,-0.22 0.56,-0.47 0.83,-0.73 0.28,-0.28 0.58,-0.58 0.81,-0.89 0.18,-0.25 0.25,-0.54 0.08,-0.81 -0.15,-0.24 -0.48,-0.4 -0.76,-0.29 -0.84,0.34 -1.41,1.11 -1.91,1.83 -0.39,0.55 0.41,1.28 0.94,0.89z"/>
  <path class="fil0" d="M46.35 109.45c-0.55,0.12 -1.01,0.7 -1.33,1.12 -0.18,0.23 -0.25,0.52 -0.08,0.79 0.18,0.28 0.61,0.42 0.89,0.21 0.51,-0.37 1.21,-0.62 1.39,-1.3 0.14,-0.54 -0.37,-0.93 -0.86,-0.82z"/>
  <path class="fil0" d="M47.88 111.38l-0.58 0.41c-0.52,0.49 0.22,1.41 0.79,0.97l0.58 -0.4c0.48,-0.51 -0.19,-1.38 -0.79,-0.97z"/>
  <path class="fil0" d="M50.5 113.76c-0.28,0.08 -0.49,0.28 -0.49,0.6 0.01,0.3 0.3,0.66 0.63,0.61 0.3,-0.05 0.52,-0.14 0.73,-0.35 0.58,-0.55 -0.3,-1.38 -0.88,-0.86z"/>
  <path class="fil0" d="M41.94 112.09c-0.29,0.2 -0.45,0.51 -0.62,0.81 -0.15,0.26 -0.26,0.39 -0.46,0.63 -0.22,0.25 -0.27,0.61 -0.09,0.9 0.16,0.27 0.54,0.44 0.84,0.32 0.79,-0.32 1.62,-1.36 1.36,-2.27 -0.12,-0.4 -0.67,-0.65 -1.03,-0.38z"/>
  <path class="fil0" d="M44.58 114.47c-0.09,-0.31 -0.47,-0.55 -0.79,-0.43 -0.5,0.2 -0.76,0.59 -0.98,1.06 -0.33,0.73 0.7,1.33 1.1,0.61l0.39 -0.52c0.23,-0.18 0.36,-0.43 0.27,-0.72z"/>
  <polygon class="fil0" points="44.96,114.95 44.97,114.95 "/>
  <path class="fil0" d="M45.82 115.76l-0.02 0.04 0.02 -0.1 0 0.07zm-0.86 -0.81l-0.1 0.04 -0.26 0.27 -0.08 0.48c0.02,0.55 0.55,0.71 0.93,0.52 0.32,-0.07 0.59,-0.34 0.59,-0.71 -0.01,-0.55 -0.62,-0.85 -1.08,-0.59z"/>
  <path class="fil0" d="M37.43 110.11c-0.32,0.43 -0.59,0.98 -0.51,1.53 0.05,0.31 0.19,0.56 0.51,0.64 0.36,0.09 0.73,-0.13 0.82,-0.49 0.08,-0.36 0.19,-0.71 0.28,-1.06 0.15,-0.6 -0.71,-1.16 -1.11,-0.61z"/>
  <path class="fil0" d="M30.9 102.82c-0.21,0.69 -0.51,1.62 -1.03,2.14 -0.5,0.52 0.19,1.37 0.79,0.98 1.04,-0.66 1.45,-1.78 1.54,-2.98 0.05,-0.77 -1.09,-0.82 -1.3,-0.14z"/>
  <path class="fil0" d="M28.3 102.7c-0.05,0.71 -0.03,1.44 -0.35,2.1 -0.37,0.76 0.67,1.31 1.13,0.62 0.59,-0.87 0.93,-1.9 0.53,-2.93 -0.28,-0.72 -1.25,-0.54 -1.31,0.21z"/>
  <path class="fil0" d="M26.71 102.4c0.82,0 0.79,-1.27 -0.03,-1.27 -0.82,0 -0.79,1.27 0.03,1.27z"/>
  <path class="fil0" d="M26.11 107.22c0.28,-0.24 0.41,-0.71 0.36,-1.08 -0.04,-0.31 -0.2,-0.57 -0.52,-0.65 -0.33,-0.09 -0.77,0.13 -0.83,0.5l-0.04 0.37 0 0.05 -0.03 0.03c-0.14,0.26 -0.09,0.59 0.12,0.79 0.28,0.26 0.66,0.21 0.93,-0.02z"/>
  <path class="fil0" d="M21.27 100.8c1.13,-0.76 1.13,-2.37 0.53,-3.47 -0.31,-0.56 -1.29,-0.29 -1.22,0.36 0.08,0.79 0.18,1.52 -0.21,2.25 -0.3,0.55 0.35,1.22 0.9,0.85z"/>
  <path class="fil0" d="M24 99.74c0.73,-0.45 0.68,-1.25 0.36,-1.94 -0.12,-0.25 -0.48,-0.35 -0.72,-0.27 -0.36,0.11 -0.49,0.45 -0.43,0.79l0.02 0.11 0.01 0.16 -0.14 0.3c-0.3,0.57 0.35,1.21 0.9,0.86z"/>
  <path class="fil0" d="M19.28 100.39l0 -0.3c0,-0.81 -1.25,-0.78 -1.25,0.03l0 0.3c0.04,0.81 1.2,0.76 1.25,-0.03z"/>
  <path class="fil0" d="M9.46 84.05c0.48,-1.4 -0.11,-3.31 -1.02,-4.44 -0.36,-0.45 -1.22,-0.34 -1.18,0.35 0.04,0.61 0.29,1.17 0.51,1.73 0.27,0.73 0.36,1.44 0.37,2.21 0,0.8 1.09,0.84 1.33,0.15z"/>
  <path class="fil0" d="M9.84 85.4c-0.11,0.72 0.8,1.13 1.2,0.47 0.52,-0.85 0.31,-1.97 -0.18,-2.78 -0.36,-0.61 -1.4,-0.17 -1.15,0.52 0.23,0.63 0.23,1.13 0.13,1.78z"/>
  <path class="fil0" d="M11.55 85.73c0.11,0.25 0.11,0.47 0.12,0.75 0.02,0.81 1.23,0.77 1.24,-0.03 0.01,-0.43 -0.06,-0.82 -0.24,-1.22 -0.29,-0.63 -1.4,-0.13 -1.12,0.51z"/>
  <path class="fil0" d="M14.13 91.91c2.11,-2.16 2.41,-5.23 1.14,-7.9 -0.31,-0.65 -1.41,-0.15 -1.16,0.52 0.85,2.25 0.53,4.58 -0.91,6.49 -0.49,0.65 0.33,1.5 0.93,0.89z"/>
  <path class="fil0" d="M16.36 89.06c0.14,1.15 -0.36,1.95 -1,2.85 -0.4,0.57 0.39,1.15 0.91,0.86 1.29,-0.7 1.83,-2.59 1.32,-3.92 -0.24,-0.63 -1.33,-0.55 -1.24,0.2z"/>
  <path class="fil0" d="M10.56 87.49c-0.26,-0.56 -1.27,-0.26 -1.18,0.35 0.03,0.23 -0,0.65 -0,0.93 -0.01,0.35 -0.04,0.69 -0.06,1.04 -0.04,0.68 1.05,0.96 1.31,0.32 0.19,-0.45 0.25,-0.91 0.26,-1.39 0.01,-0.48 -0.16,-0.88 -0.33,-1.25z"/>
  <path class="fil0" d="M11.38 89.68c0.07,0.21 -0.02,0.62 -0.04,0.89 -0.04,0.69 0.9,0.81 1.22,0.29 0.35,-0.56 0.28,-1.16 -0.03,-1.71 -0.36,-0.62 -1.4,-0.16 -1.16,0.53z"/>
  <path class="fil0" d="M7.14 84.4c-0.62,-0.31 -1.31,0.54 -0.74,1.01 0.65,0.52 0.58,1.4 0.71,2.16 0.12,0.64 1.16,0.59 1.26,-0.03 0.2,-1.17 -0.1,-2.56 -1.24,-3.14z"/>
  <path class="fil0" d="M7.16 76.46c0.16,-0.64 -0.25,-1.28 -0.97,-1.09 -0.5,0.14 -0.55,0.66 -0.31,1.01l0.01 0.02 -0 -0.01 0.03 0.04 -0.03 -0.03 0.03 0.09c0.17,0.62 1.08,0.57 1.23,-0.03z"/>
  <path class="fil0" d="M11.06 93.6c-0.03,0.4 -0.13,0.8 -0.18,1.21 -0.07,0.68 0.94,0.82 1.22,0.3 0.28,-0.49 0.25,-1 0.21,-1.54 -0.06,-0.82 -1.2,-0.77 -1.26,0.03z"/>
  <path class="fil0" d="M27.48 69.7c0.42,-0.4 0.76,-0.74 0.83,-1.34 0.02,-0.24 -0.17,-0.49 -0.36,-0.6 -0.3,-0.17 -0.6,-0.07 -0.85,0.13 -0.3,0.25 -0.53,0.66 -0.68,1.02 -0.29,0.69 0.49,1.32 1.06,0.78z"/>
  <path class="fil0" d="M11.62 45.61c2.85,1.21 3.14,4.39 1.55,6.73 -0.38,0.56 0.41,1.29 0.94,0.9 0.66,-0.47 1.11,-1.08 1.4,-1.75 0.57,0.28 0.99,0.66 1.38,1.25 0.39,0.58 1.29,0.32 1.3,-0.39 0.01,-1.31 -1.09,-2.38 -2.31,-2.51 0.11,-2.36 -1.38,-4.9 -3.79,-5.43 -0.7,-0.15 -1.19,0.92 -0.48,1.21z"/>
  <path class="fil0" d="M21.39 37.26c-0.48,-0.33 -1.07,0.25 -0.92,0.74 0.16,0.53 0.52,1.04 0.86,1.47 0.18,0.24 0.45,0.38 0.75,0.29 0.35,-0.1 0.54,-0.48 0.44,-0.82 -0.18,-0.65 -0.57,-1.3 -1.13,-1.68z"/>
  <path class="fil0" d="M23.51 39.92c0.09,0.23 0.13,0.47 0.2,0.71 0.17,0.59 1.11,0.6 1.23,-0.03 0.09,-0.45 -0.05,-0.81 -0.28,-1.19 -0.36,-0.6 -1.42,-0.16 -1.14,0.52z"/>
  <path class="fil0" d="M59.08 61.82c-2.06,0.6 -4.34,0.49 -6.29,1.43 -0.63,0.3 -0.13,1.41 0.51,1.12 2.01,-0.9 4.48,0.02 6.34,-1.33 0.61,-0.44 0.21,-1.45 -0.56,-1.23z"/>
  <path class="fil0" d="M94.6 103.93l-0.42 0.43c-0.44,0.53 0.18,1.43 0.79,0.98 2.06,-1.48 4.11,-0.63 4.45,1.9 0.12,0.85 1.27,0.83 1.34,-0.03 0.02,-0.32 0,-0.62 -0.05,-0.91 0.92,-0.48 1.71,-0.2 2.26,0.66 0.39,0.62 1.4,0.19 1.18,-0.53 -0.56,-1.77 -2.38,-2.14 -3.84,-1.36 -0.87,-1.63 -2.83,-2.48 -4.56,-1.85 -0.82,-2.52 -3.86,-3.39 -5.87,-2.16 -3.12,-3.12 -8.63,-2.74 -10.88,0.75 -1,-1.05 -2.55,-1.46 -3.91,-0.91 -1.2,-4.82 -7.03,-7.95 -11.29,-5.53 -0.33,-1.47 -1.57,-2.62 -3.17,-2.9 -0.79,-0.14 -1.07,0.97 -0.3,1.21 1.27,0.4 2.12,1.31 2.21,2.6 -0.32,0.29 -0.62,0.63 -0.91,1 -0.48,0.64 0.31,1.45 0.92,0.87 4.55,-4.39 11.47,-0.92 11.42,5.24 -0.01,0.86 1.23,0.78 1.3,-0.04 0.03,-0.35 0.03,-0.69 0.01,-1.04 1.15,-0.4 2.24,0.01 3.03,0.91 -0.14,0.43 -0.24,0.89 -0.29,1.38 -0.08,0.76 1.04,0.77 1.26,0.14 0.81,-2.38 2.14,-4.04 4.77,-4.31 1.73,-0.18 3.48,0.46 4.81,1.56 -0.22,0.3 -0.4,0.63 -0.54,1.02 -0.26,0.75 0.85,1.09 1.22,0.48 1.33,-2.13 4.12,-1.97 5.04,0.43z"/>
  <path class="fil0" d="M84.39 116.46c0.33,0.68 1.37,0.15 1.17,-0.53 -0.59,-2.06 -2.67,-2.57 -4.57,-2.34 -0.09,-3.12 -2.44,-6.21 -5.94,-4.96l-0.04 0.02c-0.67,-1.48 -1.98,-2.68 -3.63,-2.67 -0.84,0.01 -0.76,1.19 0.03,1.27 1.79,0.19 2.55,2.55 2.77,4.03 0.12,0.83 1.22,0.81 1.3,-0.04 0.04,-0.44 0.01,-0.9 -0.07,-1.36 3.27,-0.23 4.79,2.94 3.84,5.87 -0.23,0.71 0.89,1.15 1.22,0.48 0.2,-0.41 0.34,-0.85 0.43,-1.31 1.39,0.03 2.82,0.13 3.5,1.54z"/>
  <path class="fil0" d="M66 109.08c0.69,-0.62 1.49,-1.06 2.3,-1.51 0.65,-0.36 0.16,-1.37 -0.53,-1.17 -1.06,0.3 -1.97,0.99 -2.7,1.8 -0.56,0.61 0.32,1.41 0.92,0.88z"/>
  <path class="fil0" d="M61.07 108.23c0.29,0.8 1.45,0.45 1.27,-0.38 -0.46,-2.08 -2.47,-3.22 -4.33,-2.54 -0.5,-2.58 -2.38,-5.18 -5.18,-4.34 -0.8,0.24 -0.42,1.35 0.37,1.21 2.49,-0.44 3.56,3.22 3.6,5.07 0.02,0.72 1.19,0.89 1.3,0.14l0.05 -0.58c1.29,-0.58 2.43,0.03 2.93,1.42z"/>
  <path class="fil0" d="M67.56 118.12c0.28,0.76 1.42,0.43 1.21,-0.36 -0.42,-1.61 -1.87,-2.29 -3.31,-1.77 -0.53,-2.54 -2.83,-4.67 -5.5,-3.23 -0.62,0.34 -0.14,1.42 0.51,1.13 2.38,-1.06 3.63,1.45 3.82,3.46 0.08,0.82 1.25,0.8 1.28,-0.03l0 -0.01c0.89,-0.33 1.63,-0.13 1.99,0.81z"/>
  <path class="fil0" d="M75.84 119.53c0.21,0.66 1.36,0.54 1.25,-0.2 -0.18,-1.22 -0.83,-2.1 -1.99,-2.55 -1.08,-0.42 -2.25,0.12 -2.84,1.05 -0.39,0.61 0.52,1.25 1.01,0.73 0.99,-1.05 2.2,-0.17 2.57,0.97z"/>
  <path class="fil0" d="M96.69 109.35c0.28,-0.26 0.52,-0.6 0.61,-0.96 0.12,-0.48 -0.36,-0.96 -0.84,-0.79 -0.53,0.18 -0.71,0.7 -1,1.12l-0.08 0.25c-1.68,-0.19 -3.28,0.74 -3.78,2.75 -0.2,0.79 0.97,1.06 1.21,0.3 0.68,-2.07 2.54,-2.08 4.14,-1.02 0.6,0.4 1.28,-0.55 0.74,-1 -0.32,-0.27 -0.66,-0.48 -1.01,-0.65z"/>
  <path class="fil0" d="M83.79 106.47c-0.69,0.36 -0.16,1.35 0.53,1.18 1.03,-0.25 1.95,0.86 1.8,1.84 -0.12,0.81 1.03,1.13 1.26,0.31 0.58,-2.07 -1.48,-4.46 -3.6,-3.34z"/>
  <path class="fil0" d="M54.73 111.12c-0.73,-0.33 -1.32,0.7 -0.6,1.09 1.52,0.83 2.04,2.84 1.36,4.4 -0.33,0.74 0.7,1.33 1.11,0.61 1.22,-2.12 0.4,-5.08 -1.87,-6.1z"/>
  <path class="fil0" d="M61.12 103.17c0.05,-0.56 0.04,-1.1 0.18,-1.65 0.21,-0.8 -0.96,-1.06 -1.23,-0.31 -0.22,0.63 -0.27,1.32 -0.22,1.99 0.06,0.83 1.21,0.77 1.27,-0.03z"/>
  <path class="fil0" d="M53.56 36.07c-0.56,0.46 0.2,1.36 0.79,0.97 2.92,-1.88 6.39,-2.25 9.59,-3.43 3.96,-1.46 7.35,-3.68 11.72,-3.64 3.77,0.03 7.48,1.32 11.27,1.45 3.93,0.14 7.06,-1.85 11.08,-0.54 0.69,0.23 1.14,-0.91 0.46,-1.18 -3.26,-1.35 -6,-0.72 -9.33,0 -4.37,0.96 -9.14,-0.89 -13.52,-1.21 -4.32,-0.31 -8.28,2.04 -12.13,3.63 -3.33,1.39 -7.07,1.56 -9.93,3.95z"/>
  <path class="fil0" d="M114.44 76.44c3.3,-2.7 7.72,-2.33 11.58,-3.65 2,-0.69 3.56,-2.27 5.57,-2.99l0.09 -0.03c-0.13,2.96 -0.46,5.88 -0.98,8.73 -1.45,1.43 -3.08,2.89 -5.07,3.42 -0.69,0.18 -0.52,1.3 0.2,1.24 1.79,-0.14 3.15,-1.11 4.38,-2.26 -2.64,11.88 -8.54,22.54 -16.71,31 -0.06,-0.62 -0.28,-1.2 -0.74,-1.6 -0.5,-0.43 -1.19,0.03 -1.05,0.65 0.21,0.9 0.32,1.73 0.13,2.6 -4.47,4.31 -9.55,7.98 -15.09,10.88 0.03,-0.57 -0.12,-1.12 -0.53,-1.52 -0.48,-0.46 -1.33,0.04 -1.11,0.69 0.2,0.61 0.09,1.19 -0.16,1.75 -5.68,2.75 -11.83,4.68 -18.28,5.67 0.48,-0.69 0.76,-1.49 0.72,-2.38 -0.04,-0.68 -1.16,-0.86 -1.24,-0.14 -0.13,1.11 -0.71,1.95 -1.48,2.73l-0.05 0.06c-2.43,0.29 -4.91,0.45 -7.41,0.47 -0.26,-1.99 -1.97,-3.81 -3.97,-3.95 0.18,-1.97 -0.49,-4.01 -2.14,-5.17 -0.6,-0.42 -1.25,0.53 -0.73,1.01 1.66,1.55 1.68,4.03 1.02,6.06 -0.23,0.7 0.87,1.12 1.2,0.47 0.17,-0.35 0.31,-0.7 0.42,-1.08 1.4,0.19 2.34,1.33 2.71,2.65 -31.7,-0.52 -57.94,-23.86 -63,-54.26 0.98,1.03 1.83,2.14 2.5,3.42 0.36,0.7 1.4,0.17 1.22,-0.55 -0.5,-1.9 -1.88,-3.74 -3.67,-4.6l-0.32 -0.06c-0.4,-2.92 -0.62,-5.89 -0.62,-8.91 0,-0.83 0.02,-1.65 0.05,-2.47 2.07,1.26 3.45,3.16 2.57,5.82 -0.27,0.82 0.87,1.1 1.29,0.51 0.17,-0.23 0.3,-0.49 0.41,-0.75 0.36,0.1 0.75,0.14 1.14,0.2 0.78,0.13 1.27,0.44 1.83,0.99 0.52,0.52 1.42,-0.04 1.2,-0.74 -0.48,-1.56 -2.26,-2.56 -3.85,-2.3 -0.09,-2.51 -2.05,-5.17 -4.51,-5.48 0.7,-10.82 4.06,-20.92 9.42,-29.66 0.77,0.57 1.63,0.97 2.19,1.88 0.75,1.22 0.45,2.7 0.66,4.04 0.09,0.61 1.01,1.05 1.33,0.33 0.12,-0.27 0.21,-0.56 0.28,-0.85 0.58,0.05 1.14,0.13 1.72,0.45 0.72,0.4 1.15,1.06 1.32,1.82 -0.32,0.1 -0.63,0.24 -0.93,0.43 -0.61,0.39 -0.18,1.32 0.51,1.14 3.76,-0.96 5.34,2.97 4.47,6.03 -1.12,-0.54 -2.4,-0.65 -3.4,0.02 -0.69,0.45 -0.04,1.49 0.68,1.09 0.65,-0.36 1.64,0.11 2.22,0.4 0.9,0.46 1.68,1.27 1.77,2.31 0.08,0.86 1.25,0.81 1.33,-0.04 0.09,-1.09 -0.51,-2.17 -1.4,-2.97 1.05,-2.07 0.95,-4.46 -0.36,-6.47 -0.79,-1.22 -2.09,-2.01 -3.45,-2.12 -0.07,-1.06 -0.55,-2.01 -1.4,-2.73 -0.74,-0.64 -1.88,-1.04 -2.93,-0.98 -0.04,-0.92 -0.27,-1.83 -0.66,-2.66 -0.49,-1.05 -1.71,-2.22 -2.97,-2.7 1.31,-2.01 2.73,-3.93 4.25,-5.78 0.24,0.8 0.75,1.53 1.52,2.03 0.66,0.43 1.21,-0.52 0.76,-1.04 -0.72,-0.84 -1.1,-1.58 -0.97,-2.53 0.27,-0.3 0.54,-0.61 0.81,-0.91 0.19,0.72 0.48,1.41 0.69,1.92 0.32,0.78 1.5,0.45 1.27,-0.38 -0.15,-0.53 -0.32,-1.06 -0.48,-1.59 -0.06,-0.21 -0.25,-0.76 -0.32,-1.18 0.52,-0.54 1.04,-1.06 1.58,-1.58 -0.06,0.83 -0.13,1.67 -0.12,2.51 0,0.82 1.24,0.78 1.27,-0.03 0.04,-1.28 0.22,-2.54 0.27,-3.82 0.39,-0.36 0.79,-0.71 1.19,-1.06 -0.02,0.42 -0.02,0.85 0,1.27 0.04,0.82 1.23,0.78 1.26,-0.03 0.04,-0.8 -0.02,-1.69 0.19,-2.49 0.91,-0.74 1.83,-1.46 2.78,-2.16 -0.07,0.7 -0.03,1.41 0.11,2.12 0.13,0.7 1.32,0.51 1.24,-0.2 -0.11,-1 -0.08,-2.01 0.16,-2.99 10.5,-7.29 23.23,-11.56 36.95,-11.56 23.23,0 43.65,12.26 55.14,30.65 -1.5,-0.47 -3.12,-0.73 -4.58,-1.1 -2.39,-0.61 -4.8,-1.01 -7.23,-0.95l0 -0.26c-0.15,-0.72 -0.52,-1.42 -1.1,-2.05 -0.49,-0.54 -1.07,-0.82 -1.73,-0.82l-0.08 0c-0.56,0.02 -1.06,0.22 -1.47,0.6 -0.53,0.48 -0.79,1.1 -0.76,1.8l0.01 0.08 0.1 0.52 0.12 0.47 0.36 1.29 0.13 0.56 0.03 0.35c-0.01,0.23 -0.1,0.42 -0.28,0.58 -0.16,0.15 -0.35,0.22 -0.63,0.23 -0.25,0 -0.46,-0.09 -0.64,-0.3 -0.07,-0.08 -0.34,-0.46 -0.87,-2.05 -0.09,-0.27 -0.36,-0.44 -0.64,-0.41l-0.16 0.02 -0.41 0.22 -0.13 0.45c0.05,0.46 0.19,0.95 0.4,1.44 0.22,0.49 0.49,0.91 0.8,1.25 0.45,0.5 1.01,0.76 1.66,0.76l0.06 0c0.58,-0.02 1.07,-0.21 1.48,-0.58 0.46,-0.42 0.95,-1.19 0.63,-2.48 -0.13,-0.46 -0.24,-0.86 -0.34,-1.2l-0.24 -0.84c-0.18,-0.64 0.03,-0.94 0.24,-1.12 0.17,-0.16 0.36,-0.24 0.63,-0.25 0.16,0 0.41,0.04 0.71,0.37 0.11,0.12 0.35,0.48 0.79,1.48 -0.38,0.04 -0.77,0.09 -1.16,0.15 -0.72,0.12 -0.48,1.22 0.2,1.22 3.1,0.02 6.08,0.44 9.1,1.17 2.26,0.55 4.64,0.95 6.63,2.18 1.2,2.16 2.29,4.4 3.25,6.71 -1.23,-0.31 -2.57,-0.45 -3.71,-0.8 -2.5,-0.76 -5.15,-1.27 -7.77,-1.08 -0.82,0.06 -0.79,1.25 0.03,1.28 4.31,0.1 8.08,1.86 12.21,2.53 0.68,1.81 1.29,3.65 1.81,5.52 -1.59,0.83 -2.95,1.36 -4.92,1.04 -1.72,-0.28 -3.39,-0.73 -5.11,-1 -0.8,-0.12 -1.13,1.08 -0.31,1.25 2.15,0.42 4.32,1.18 6.51,1.33 1.59,0.11 2.9,-0.45 4.23,-1.13 0.72,2.83 1.25,5.74 1.58,8.71 -2.17,1.52 -4.64,2.1 -7.11,2.99 -3.68,1.33 -7.2,3.5 -10.74,5.18 -3.77,1.8 -7.57,3.45 -11.45,4.99 -3.41,1.35 -6.04,3.44 -9,5.56 -1.75,1.25 -3.34,1.86 -5.51,1.93 -0.81,0.02 -2.5,-0.03 -3.15,0.62 -1.85,1.83 -4.27,1.74 -6.36,3.09 -4.7,3.03 -9.65,8.98 -15.87,6.43 -0.77,-0.32 -1.42,0.78 -0.64,1.14 5.28,2.44 10.27,-1 14.39,-4.16 0.96,-0.73 1.9,-1.48 2.9,-2.15 1.28,-0.87 2.73,-0.93 4.12,-1.51 0.91,-0.37 1.6,-0.92 2.32,-1.58 1.12,-1.02 4.47,-0.3 6.02,-0.99 3.73,-1.67 6.43,-4.96 10.27,-6.46 3.99,-1.56 7.89,-3.19 11.76,-5.03 4.1,-1.94 8.32,-4.11 12.74,-5.2 1.77,-0.44 3.96,-1.02 5.56,-2.17 0.1,1.5 0.16,3.02 0.16,4.54l-0.01 0.53c-0.73,0.72 -1.48,1.07 -2.48,1.64 -2.02,1.14 -3.51,2.46 -5.84,3.03 -3.32,0.81 -7.48,0.81 -9.9,3.59 -0.55,0.63 0.3,1.37 0.91,0.87zm10.65 -42.19l-0.11 -0.2c-11.47,-20.31 -33.25,-34.05 -58.19,-34.05 -36.83,0 -66.79,29.96 -66.79,66.78 0,36.83 29.96,66.79 66.79,66.79 36.83,0 66.79,-29.96 66.79,-66.79 0,-11.8 -3.08,-22.9 -8.48,-32.53z"/>
  <path class="fil0" d="M87.92 87.68c2.78,0.82 6.84,-0.05 8.65,-2.44 0.41,-0.53 -0.18,-1.48 -0.81,-1 -2.24,1.73 -4.69,2.53 -7.54,2.22 -0.79,-0.09 -1.1,0.98 -0.31,1.22z"/>
  <path class="fil0" d="M100.52 81.84c0.5,-0.32 1,-0.63 1.51,-0.91 0.3,-0.16 0.37,-0.58 0.2,-0.86 -0.2,-0.31 -0.55,-0.34 -0.86,-0.2 -0.54,0.25 -1.03,0.57 -1.52,0.9 -0.66,0.45 -0.03,1.51 0.66,1.06z"/>
  <path class="fil0" d="M101.44 94.49c2.27,-0.89 4.68,-1.62 6.67,-3.09 0.65,-0.49 0.05,-1.52 -0.67,-1.09 -2.03,1.21 -4.22,2.01 -6.36,2.97 -0.71,0.32 -0.4,1.5 0.36,1.2z"/>
  <path class="fil0" d="M110.83 89.79c2.77,-0.57 5.97,-0.31 8.52,-1.68 0.69,-0.37 0.17,-1.52 -0.56,-1.24 -2.71,1 -5.59,0.84 -8.32,1.73 -0.77,0.25 -0.42,1.35 0.36,1.19z"/>
  <path class="fil0" d="M80.37 89.95c1.82,-0.74 3.06,-2.37 5.01,-2.86 0.72,-0.19 0.51,-1.27 -0.2,-1.26 -2.08,0.02 -3.63,2.01 -5.32,2.99 -0.61,0.35 -0.15,1.41 0.51,1.14z"/>
  <path class="fil0" d="M91.37 92.22c-1.02,0.34 -2.01,0.74 -3.03,1.06 -0.78,0.25 -0.42,1.42 0.37,1.21 1.09,-0.28 2.17,-0.6 3.18,-1.12 0.65,-0.34 0.16,-1.38 -0.52,-1.15z"/>
  <path class="fil0" d="M118.26 81.01c1.58,-0.54 3.06,-1.32 4.4,-2.33 0.65,-0.49 0.06,-1.51 -0.67,-1.09 -1.4,0.8 -2.78,1.59 -4.24,2.28 -0.65,0.31 -0.16,1.38 0.52,1.14z"/>
  <path class="fil0" d="M98.37 37.38c0.82,0.12 1.12,-1.01 0.32,-1.26 -2.68,-0.83 -5.93,0.19 -8.37,1.31 -0.65,0.3 -0.15,1.38 0.51,1.14 2.42,-0.89 4.96,-1.55 7.54,-1.19z"/>
  <path class="fil0" d="M113.11 49.99c-2.16,0.23 -3.96,1.3 -5.77,2.44 -2.76,1.73 -5.34,3.12 -8.68,3.25 -0.81,0.03 -0.77,1.22 0.03,1.25 5.75,0.19 9.36,-4.32 14.63,-5.63 0.72,-0.19 0.54,-1.39 -0.21,-1.31z"/>
  <path class="fil0" d="M89.96 52.37c-2.33,1.04 -4.76,1.65 -7.29,0.98 -0.8,-0.21 -1.06,0.96 -0.31,1.22 2.77,0.95 5.59,0.26 8.11,-1.07 0.63,-0.33 0.14,-1.42 -0.52,-1.14z"/>
  <path class="fil0" d="M96.97 50.27c4,0.15 6.48,-4.06 10.37,-4.39 0.81,-0.07 0.78,-1.22 -0.03,-1.26 -3.99,-0.2 -6.48,4.1 -10.36,4.4 -0.81,0.06 -0.78,1.23 0.03,1.26z"/>
  <path class="fil0" d="M111.42 46.16l0.04 0.02 0.34 0.09c0.25,0.06 0.5,0.14 0.76,0.21 0.44,0.13 0.9,0.28 1.36,0.29 0.81,0.01 0.76,-1.19 -0.03,-1.24l-0.1 -0.02 -0.38 -0.09c-0.26,-0.06 -0.52,-0.14 -0.78,-0.22 -0.41,-0.11 -0.82,-0.26 -1.25,-0.28 -0.8,-0.05 -0.76,1.2 0.03,1.24z"/>
  <path class="fil0" d="M73.7 40.7c2.53,-0.5 4.59,-2.2 7.12,-2.73 0.7,-0.14 0.51,-1.31 -0.2,-1.24 -2.66,0.26 -4.84,1.85 -7.29,2.76 -0.78,0.29 -0.43,1.37 0.37,1.22z"/>
  <path class="fil0" d="M86.72 37.24c-1.09,-0.46 -2.36,-0.71 -3.54,-0.49 -0.64,0.12 -0.56,1.11 0.03,1.24 0.98,0.21 2.03,0.33 3.03,0.47 0.68,0.1 1.21,-0.9 0.48,-1.21z"/>
  <path class="fil0" d="M84.15 46.63c1.14,-0.14 2.26,-0.29 3.35,-0.63 0.78,-0.24 0.42,-1.41 -0.37,-1.21 -1.05,0.26 -2.12,0.43 -3.18,0.61 -0.7,0.11 -0.51,1.32 0.2,1.23z"/>
  <path class="fil0" d="M47.64 53.58c1.99,-0.52 4.15,-0.84 5.98,-1.82 2.12,-1.15 3.32,-3.35 5.38,-4.61 0.7,-0.43 0.05,-1.45 -0.66,-1.08 -1.63,0.87 -2.73,2.23 -4.02,3.5 -1.76,1.72 -4.78,2.06 -7.05,2.79 -0.78,0.26 -0.42,1.43 0.37,1.22z"/>
  <path class="fil0" d="M63.55 44.42c0.46,-0.26 1.03,-0.34 1.52,-0.52 0.28,-0.1 0.47,-0.34 0.47,-0.65 -0.01,-0.33 -0.32,-0.7 -0.68,-0.65 -0.72,0.1 -1.39,0.3 -1.98,0.73 -0.67,0.47 -0.05,1.48 0.67,1.08z"/>
  <path class="fil0" d="M63.94 37.2c-1.76,0.59 -3.48,1.26 -5,2.35 -0.65,0.47 -0.03,1.51 0.66,1.07 1.47,-0.94 3.09,-1.55 4.7,-2.2 0.76,-0.3 0.42,-1.49 -0.37,-1.23z"/>
 </g>
</svg>
