<?xml version="1.0" encoding="UTF-8"?>
<svg xmlns="http://www.w3.org/2000/svg" xml:space="preserve" width="0.747331in" height="0.747343in" version="1.1" style="shape-rendering:geometricPrecision; text-rendering:geometricPrecision; image-rendering:optimizeQuality; fill-rule:evenodd; clip-rule:evenodd"
viewBox="0 0 511.46 511.47"
 xmlns:xlink="http://www.w3.org/1999/xlink"
 xmlns:xodm="http://www.corel.com/coreldraw/odm/2003">
 <defs>
  <style type="text/css">
   <![CDATA[
    .fil0 {fill:black;fill-rule:nonzero}
   ]]>
  </style>
 </defs>
 <g id="Layer_x0020_1">
  <metadata id="CorelCorpID_0Corel-Layer"/>
  <path class="fil0" d="M420.77 128.5l-5.25 7.82 -3.65 -4.72 8.9 -3.11zm-361.27 200.6c6.38,2.15 12.72,4.39 19.42,5.45 2.44,0.38 4.92,0.57 7.4,0.61 -0.03,3.05 -0.02,6.09 0.03,9.12 -1.59,0 -3.2,0 -4.78,-0.01 -6.02,0 -12.09,-0.12 -18.17,-0.21 -1.41,-4.96 -2.71,-9.93 -3.9,-14.96zm212.32 7.28c36.39,-11.07 73.95,-21.01 111.97,-24.11 9.52,-0.78 19.12,-0.98 28.41,1.51 10.24,2.76 19.35,8.01 29.98,9.51 8.65,1.25 17.64,-2.07 25.7,-4.74 10.22,-3.38 20.03,-6.82 30.6,-8.43 -2.57,11.45 -5.93,22.61 -10.01,33.42 -27.98,-3.62 -57.77,-0.5 -85.8,-0.5 -21.65,0 -43.3,0 -64.95,0.05 -20.95,0.04 -42.48,-1.17 -63.33,1.03 -3.27,0.37 -3.03,4.67 0.11,5 19.47,2.05 39.53,0.99 59.09,1.03 21.64,0.05 43.29,0.06 64.95,0.06 19.8,0.01 39.6,0.07 59.4,0.18 9.13,0.06 18.74,0.46 27.98,-0.4 -0.54,1.35 -1.12,2.72 -1.71,4.06 -19.91,-1.47 -40.25,-0.37 -60.22,-0.35 -22.6,0.04 -45.35,-0.65 -67.92,0.6 -3.11,0.15 -2.94,4.61 0.12,4.79 21.17,1.14 42.48,0.53 63.67,0.56 20.52,0.05 41.42,1.14 61.94,-0.16 -1.27,2.74 -2.59,5.46 -3.95,8.15 -16.65,-0.93 -33.97,-2 -50.51,0.24 -2.5,0.35 -3.48,4.42 -0.52,4.82 15.78,2.14 32.18,1.39 48.15,0.5 -5.29,9.8 -11.19,19.21 -17.69,28.16 -12.74,-0.57 -25.52,-0.57 -38.27,-0.73 -13.02,-0.18 -26.75,-1.22 -39.64,0.65 -2.68,0.38 -3.76,4.7 -0.57,5.17 11.79,1.7 24.06,0.83 35.95,0.77 12.86,-0.05 25.78,-0.13 38.64,-0.63 -2.74,3.56 -5.55,7.05 -8.46,10.47 -21.8,-1.38 -43.75,-0.79 -65.59,-0.77 -21.78,0 -43.76,-0.72 -65.5,0.94l-1.02 -0.15c-11.84,0.73 -23.64,3.16 -34.44,8.24 -6.37,3 -15.91,7.39 -17.56,15.08l0.37 2.05 0.39 0.47 0.08 0.08 0.46 0.26 1.37 0.27c31.41,3.56 64.81,1.88 96.28,0.1 3.35,-0.17 3.16,-4.98 -0.13,-5.15 -29.39,-1.67 -60.54,-3.27 -90.1,-0.5 10.98,-9.96 31.04,-13.46 44.13,-15.63l0.12 -0.06c21.81,1.67 43.88,0.96 65.73,0.96 20.11,0 40.31,0.51 60.4,-0.5 -4.27,4.72 -8.74,9.27 -13.36,13.63 -13.26,-2.49 -29.34,-1.24 -42.55,0.3 -2.51,0.29 -3.43,4.45 -0.51,4.79 11.18,1.28 24.21,2.38 36.06,1.28 -5.9,5.19 -12.07,10.09 -18.46,14.7 -5.3,-1.08 -10.89,-0.73 -16.32,-0.85 -6.52,-0.09 -13.77,-0.86 -19.98,1.44 -2.38,0.88 -2.14,3.87 0.12,4.7 5.43,2 11.55,1.46 17.27,1.44 2.97,-0.02 6.02,0.06 9.08,0.02 -39.02,25.46 -85.59,40.28 -135.54,40.28 -47.09,0 -91.16,-13.15 -128.74,-35.98l0.3 0.01c3.21,0 6.43,-0.13 9.64,-0.24 3.22,-0.13 3.05,-4.86 -0.12,-4.97 -3.22,-0.12 -6.44,-0.19 -9.66,-0.28 -2.38,-0.04 -6.34,0.75 -8.82,-0.06 -13.35,-8.86 -25.78,-18.97 -37.14,-30.17 9.78,0.41 19.87,-0.46 29.43,-0.83 3.32,-0.13 3.14,-4.99 -0.12,-5.1 -11.53,-0.45 -23.9,-1.67 -35.46,-0.35 -20.81,-22.01 -37.66,-47.81 -49.39,-76.25 11.2,0.74 22.55,0.7 33.86,0.53 0.64,1.69 1.24,3.41 1.93,5.1 1.23,3.09 6.08,1.75 5.03,-1.53 -0.39,-1.23 -0.73,-2.45 -1.1,-3.68 5.48,-0.09 10.94,-0.17 16.36,-0.15 1.6,0 3.21,0 4.81,0 0.06,1.57 0.09,3.14 0.18,4.67 0.26,4.86 7.31,4.63 7.49,-0.18 0.05,-1.49 0.09,-2.99 0.16,-4.49 15.22,0.02 30.45,-0.07 45.67,-0.57 3.32,-0.12 3.15,-5.03 -0.12,-5.13 -15.12,-0.52 -30.22,-0.57 -45.32,-0.57 0.12,-3.16 0.24,-6.33 0.37,-9.5 4.57,-0.4 9.12,-1.06 13.6,-1.65 12.69,-1.67 25.16,-2.1 37.89,-0.48 3.26,0.42 4.3,-3.75 1.23,-4.9 -17.33,-6.49 -34.8,-2.15 -52.38,-0.81 1.76,-36.54 5.34,-72.28 18.17,-107.45 6.63,-18.2 15.8,-34.8 27.15,-50.28 0.5,4.7 -0.3,9.22 -2.45,13.73 -1.15,2.41 2.21,5.31 3.99,2.94 3.29,-4.42 5.57,-10.88 4.7,-16.65 1.03,0.77 2.03,1.57 2.95,2.53 3.14,3.24 5.32,7.46 7.01,11.61 1.25,3.14 5.6,1.78 4.98,-1.51 -1.08,-5.8 -4.75,-12.95 -9.98,-17.24 1.06,-0.12 2.12,-0.19 3.17,-0.26l0.03 0.09c0.22,0.85 0.25,1.76 0.41,2.62 0.44,2.37 4.34,2.23 4.72,-0.11 0.13,-0.85 0.11,-1.75 0.02,-2.64 0.97,0.03 1.94,0.06 2.88,0.14 -0.12,1.52 -0.1,3.16 0.5,4.55 0.44,1.02 1.23,1.77 2.4,1.74 1.32,-0.04 2.44,-1.18 2.4,-2.51 -0.06,-1.02 -0.16,-2.04 -0.27,-3.07 0.98,0.18 1.97,0.4 2.95,0.65l0.24 1c0.21,2.83 4.32,2.88 4.67,0.42 1.89,0.63 3.78,1.33 5.72,2.19 3.03,1.31 5.5,-2.92 2.52,-4.56 -10.07,-5.5 -21.2,-8.6 -32.15,-6.87 1.64,-1.57 3.3,-3.09 5.02,-4.55l0.59 1.06c0.99,2.17 4.81,1 4.51,-1.34 -0.14,-1.07 -0.51,-2.07 -1.01,-2.99 0.95,-0.72 1.91,-1.41 2.9,-2.07 0.39,0.96 0.73,1.94 1.25,2.97 0.95,1.84 4.34,1.44 4.61,-0.71 0.22,-1.75 -0.11,-3.61 -0.85,-5.25 0.88,-0.47 1.79,-0.91 2.71,-1.31 0.35,0.93 0.7,1.87 1.08,2.79 0.43,1.03 1.23,1.77 2.41,1.74 1.32,-0.03 2.43,-1.18 2.4,-2.51 -0.06,-1.35 -0.45,-2.58 -0.98,-3.76 4.49,-1.28 9.3,-1.72 14.5,-0.92 3.4,0.53 4.65,-4.18 1.31,-5.21 -16.76,-5.11 -33.45,4.84 -44.81,17.51 0.27,-2.08 0.58,-4.14 1.01,-6.21 1.39,0 2.78,-0.17 4.02,-0.48 2.46,-0.63 2.21,-4.25 -0.12,-4.84l-2.37 -0.38c0.34,-1.01 0.71,-1.97 1.13,-2.93 1.1,0.29 2.25,0.33 3.29,-0.02 2.49,-0.83 2.09,-3.93 -0.12,-4.76l-0.5 -0.14c0.6,-0.94 1.24,-1.86 1.91,-2.77l0.89 0.32c1.03,0.33 2.2,-0.29 2.72,-1.19 0.56,-1.02 0.26,-2.15 -0.53,-2.91 2.05,-2.3 4.23,-4.46 6.48,-6.5 2.23,-2.03 -0.82,-5.69 -3.28,-4.06 -9.63,6.4 -16.32,16.2 -19.4,27.12l-0.01 -0.01c-2.94,-7.13 -8.47,-12.83 -16.12,-14.57 -2.72,-0.62 -4.49,3.43 -1.83,4.68 6.46,2.99 10.6,7.4 12.96,14.12 0.35,0.96 0.59,1.95 0.79,2.95 -6.29,-4.18 -15.29,-5.7 -21.04,-3.26 -2.52,1.08 -2.38,5.61 0.84,5.19 4.28,-0.56 8.31,-0.05 12.29,1.66 2.48,1.08 4.32,2.49 5.98,4.15 -5.18,1.53 -10.18,3.59 -14.05,7.52 -2.07,2.08 0.85,5.85 3.28,4.04 3.03,-2.23 6.4,-3.41 9.85,-4.49 -11.37,14.32 -19.88,31.24 -26.42,48.11 -13.65,35.25 -21.54,74.94 -22.82,113.54 -4.32,-0.02 -8.63,-0.33 -12.95,-1.2 -5.42,-1.08 -10.58,-2.51 -15.57,-3.81 -7.58,-34.85 -10.03,-70.76 -7.33,-106.36 0.75,0.94 1.48,1.91 2.14,3.05 1.81,3.08 3.06,6.42 4.14,9.81 0.84,2.59 5.29,2.09 4.88,-0.78 -0.59,-4.34 -2.35,-10.97 -5.63,-15.55 0.94,-0.07 1.87,-0.11 2.79,-0.1l-0.05 0.68c-0.07,1.06 0.86,2.05 1.83,2.29 1.41,0.35 2.47,-0.53 2.96,-1.77l0.16 -0.6 1.73 0.43c-0.07,2.21 2.9,2.91 4.22,1.45 1.7,0.67 3.39,1.43 5.03,2.21 2.62,1.23 5.58,-2.24 3.14,-4.29 -5.75,-4.81 -11.83,-6.78 -18.37,-6.87l2.24 -1.68c1.08,1.67 4.06,1.36 4.53,-0.8l0.22 -1.96c1.09,-0.52 2.18,-1.03 3.31,-1.46l0.09 0.35c0.85,2.31 4.02,2.24 4.75,-0.12l0.17 -1.9c2.31,-0.67 4.67,-1.23 7.02,-1.74 3.18,-0.7 1.97,-5.04 -0.84,-5.26 -8.16,-0.62 -16.16,1.9 -22.97,6.31 0.61,-1.28 1.22,-2.58 1.84,-3.84l2.08 0.36c1.41,-0.43 1.87,-1.75 1.66,-3.09 -0.15,-0.86 -0.48,-1.75 -0.89,-2.58l0.62 -1.05c1.17,1.53 3.72,1.18 4.33,-0.86 0.5,-1.62 0.18,-3.06 -0.51,-4.45l1.47 -1.65 1.37 0.41c1.41,-0.05 2.28,-1.18 2.37,-2.51l-0.09 -1.16c0.94,-0.73 1.91,-1.44 2.97,-2.1 2.41,-1.5 0.65,-5.85 -2.09,-4.66 -7.49,3.26 -12.56,8.75 -17.03,15.46 -1.2,1.77 -2.24,3.66 -3.2,5.57 -1.58,-7.56 -4.96,-15.1 -7.9,-20.72 -1.42,-2.7 -5.67,-0.67 -4.8,2.16 1.74,5.58 3.4,11.16 4.79,16.83 0.73,2.99 1.01,5.95 1.19,8.91 -6,-4.62 -15.08,-6.54 -21.44,-5.12 -3.25,0.74 -1.92,5.03 0.86,5.31 4.09,0.41 7.83,1.46 11.45,3.44 2.53,1.38 4.28,3.3 6.05,5.25 -1.74,1.16 -3.35,2.59 -4.53,3.65 -3.49,3.14 -4.93,7.89 -4.86,12.48 0.05,3.1 4.33,3.35 5.22,0.58 1.09,-3.47 2.44,-6.25 5.18,-8.71l1.31 -0.98c-4.63,34.67 -3.33,71.32 4.77,105.82 -11.33,-2.48 -22.1,-3.09 -33.73,3.94 -6.26,-21.81 -9.62,-44.82 -9.62,-68.61 0,-137.18 111.59,-248.77 248.76,-248.77 89.3,0 167.74,47.3 211.63,118.15 -13.95,0.33 -28.01,3.23 -41.71,5.53l3.8 -5.67 -0.09 -2.71 -0.39 -0.52c-0.62,-0.79 -1.67,-1.1 -2.61,-0.77l-27.27 9.52 -1.34 1.23 -0.06 1.82 0.22 0.56c0.46,1.16 1.75,1.75 2.94,1.34l5.8 -2.01 5.77 7.49 -3.42 5.1c-0.68,1.04 -0.45,2.43 0.56,3.18l0.5 0.35 1.37 0.45 0.41 -0.03 1.52 -1 9.2 -13.71 1.82 0.82c15.45,-0.13 30.85,-3.9 46.25,-5.5 3.63,6.21 6.99,12.57 10.08,19.11 -35.62,6.1 -72.31,5.48 -108.12,11.21 -14.65,2.33 -29.6,4.98 -43.15,11.24 -5.66,2.61 -19.11,13.69 -11.02,20.55 3.61,3.08 8.14,4.08 12.66,5.1 1.88,0.42 15.14,2.99 8.19,8.19 -3.14,2.36 -7.73,3.13 -11.48,3.98 -12.19,2.78 -24.93,3.49 -37.25,5.57 -15.74,2.65 -58.12,12.14 -41.42,36.59 1.96,2.86 6.1,0.24 4.53,-2.81 -12.33,-23.9 39.55,-28.43 53.72,-30.27 11.65,-1.52 24.73,-1.83 35.17,-7.77 7.78,-4.43 5.35,-13.79 -1.81,-17.07 -5.21,-2.39 -11.19,-2.41 -16.49,-4.55 -9,-3.65 11.83,-14.01 13.16,-14.53 14.79,-5.72 31.23,-7.78 46.85,-9.84 12.57,-1.65 25.22,-2.73 37.81,-4.23 20.1,-2.4 41.43,-0.4 60.93,-6.43 13.81,30.91 21.49,65.15 21.49,101.14 0,16.4 -1.61,32.42 -4.65,47.95 -21.61,-0.44 -40.86,16.58 -62.66,11.8 -10.3,-2.26 -19.61,-7.6 -30.03,-9.61 -7.57,-1.47 -15.9,-0.66 -23.52,-0.14 -38.33,2.64 -76.99,13.63 -113.22,26.03 -2.93,0.99 -1.6,5.54 1.41,4.63zm-253.67 -6.82c10.28,-5.05 19.83,-6.53 31.37,-3.54l2.4 0.67c1.53,5.84 3.25,11.59 5.16,17.26 -11.25,-0.14 -22.54,-0.12 -33.65,0.71 -1.91,-4.94 -3.68,-9.99 -5.28,-15.11zm458.34 -202.79l-0.4 -0.67c-44.53,-75.41 -126.63,-126.11 -220.36,-126.11 -141.01,0 -255.73,114.73 -255.73,255.74 0,88.41 45.09,166.45 113.48,212.4l1.67 1.12c40.37,26.64 88.68,42.2 140.57,42.2 141,0 255.73,-114.72 255.73,-255.73 0,-47.01 -12.77,-91.07 -34.97,-128.96z"/>
  <path class="fil0" d="M184.96 454.92l-8.01 -3.05 -1.41 0.06 -0.98 1.03 -6.8 17.99 0.05 1.44 1.03 0.96 8.02 3.04 0.66 0.11 1.73 -1.19 0.15 -0.38 -0.05 -1.41 -1.03 -0.99 -5.9 -2.23 2.23 -5.92 3.96 1.49c0.96,0.36 2.02,-0.13 2.4,-1.08l0.15 -0.4 -0.05 -1.43 -1.04 -0.96 -3.94 -1.49 1.5 -3.96 5.9 2.23 1.41 -0.04 0.98 -1.04 0.15 -0.39c0.35,-0.97 -0.13,-2.05 -1.09,-2.39z"/>
  <path class="fil0" d="M214.47 463.26l-0.41 -0.09 -1.4 0.25 -0.83 1.14 -2.99 13.28c-0.19,0.89 -0.65,1.53 -1.4,2 -0.75,0.47 -1.5,0.59 -2.39,0.41 -0.88,-0.2 -1.51,-0.64 -2,-1.4 -0.47,-0.75 -0.6,-1.52 -0.4,-2.4l2.97 -13.26 -0.25 -1.41 -1.16 -0.82 -0.39 -0.09c-1,-0.25 -2.01,0.41 -2.23,1.4l-2.97 13.27c-0.45,1.97 -0.13,3.82 0.94,5.5 1.08,1.69 2.61,2.76 4.58,3.21l1.67 0.18c1.35,0 2.64,-0.38 3.83,-1.13 1.69,-1.08 2.78,-2.61 3.21,-4.56l2.98 -13.27c0.23,-1 -0.4,-1.99 -1.4,-2.21z"/>
  <path class="fil0" d="M239.59 476.31l-1.86 0.42 -0.56 -0.03 -2.89 -0.24 0.51 -6.3 2.89 0.23c0.99,0.09 1.76,0.36 2.3,0.81 0.44,0.34 1,1.01 0.88,2.62 -0.13,1.67 -0.8,2.21 -1.27,2.49zm5.38 -2.15c0.27,-3.29 -1.14,-5.17 -2.37,-6.16 -1.2,-1.01 -2.76,-1.58 -4.57,-1.73l-5.16 -0.42 -1.35 0.44 -0.65 1.26 -1.56 18.98 0.44 1.37 1.27 0.64 0.41 0.05c1.02,0.08 1.9,-0.68 2,-1.72l0.5 -6.26 2.9 0.23 0.09 0 2.96 7.47 1.72 1.18 0.62 -0.11 0.38 -0.14 1.08 -0.97 0.04 -1.46 -2.61 -6.62c2.27,-1 3.62,-3.08 3.86,-6.02z"/>
  <path class="fil0" d="M263.28 489.37l1.24 0.46 0.11 0 8.55 -0.47 1.28 -0.62 0.47 -1.34 -0.02 -0.4c-0.06,-1.02 -0.92,-1.81 -1.96,-1.75l-6.3 0.34 -0.35 -6.31 4.21 -0.25 1.3 -0.62 0.46 -1.34 -0.03 -0.42c-0.06,-1.02 -0.95,-1.83 -1.96,-1.75l-4.22 0.24 -0.24 -4.23 6.3 -0.35c1.02,-0.06 1.79,-0.93 1.75,-1.95l-0.02 -0.43 -0.63 -1.27 -1.33 -0.48 -8.57 0.48c-1.03,0.06 -1.81,0.93 -1.74,1.97l1.05 19.2 0.63 1.29z"/>
  <path class="fil0" d="M294.56 486.09l1.05 0.32 0.36 -0.04 0.4 -0.07c1,-0.21 1.65,-1.18 1.45,-2.2l-1.26 -6.4 1.2 -1.99 6.71 8.08 2.59 0.26 0.32 -0.26 0.69 -1.26 -0.42 -1.38 -7.63 -9.18 4.16 -6.91c0.52,-0.88 0.24,-2.03 -0.62,-2.54l-0.38 -0.22 -1.4 -0.22 -1.14 0.85 -5.29 8.74 -1.19 -6.05 -0.8 -1.19 -1.38 -0.27 -0.41 0.06c-1.01,0.22 -1.66,1.19 -1.46,2.19l3.65 18.5 0.78 1.18z"/>
  <path class="fil0" d="M331.31 467.59l-3.17 1.1 -0.07 -5.28 3.23 4.17zm-6.59 10.85l1.27 0.52 0.11 0 0.41 -0.04c0.98,-0.05 1.77,-0.88 1.75,-1.88l-0.04 -4 5.74 -2.01 2.46 3.17 2.54 0.38 0.34 -0.23 0.75 -1.26 -0.36 -1.41 -12.08 -15.67 -2.08 -0.62 -0.43 0.15 -1.24 1.79 0.29 19.77 0.58 1.31z"/>
  <path class="fil0" d="M114 129.71c-0.99,-0.81 -2.45,-0.66 -3.26,0.33l-2.88 3.56c-1.09,1.33 -2.19,2.03 -3.35,2.16 -1.15,0.13 -2.41,-0.35 -3.72,-1.43l-9.48 -7.71c-1.33,-1.09 -2.02,-2.17 -2.14,-3.35 -0.12,-1.17 0.34,-2.4 1.43,-3.72l2.88 -3.55c0.8,-0.99 0.65,-2.45 -0.34,-3.26l-0.46 -0.39 -1.7 -0.51 -1.57 0.85 -2.88 3.55c-1.98,2.42 -2.83,4.97 -2.58,7.58 0.27,2.59 1.64,4.9 4.06,6.86l9.48 7.72c2.14,1.74 4.37,2.61 6.64,2.61l0.9 -0.05c2.58,-0.26 4.9,-1.63 6.88,-4.07l2.88 -3.55 0.5 -1.7 -0.84 -1.57 -0.46 -0.36z"/>
  <path class="fil0" d="M126.75 103.58l-3.37 -8.79 7.98 5 -4.6 3.79zm17.3 -2.02l-24.45 -15.35 -2.72 0.17 -0.5 0.42c-0.77,0.64 -1.06,1.69 -0.68,2.64l10.38 26.95 1.26 1.3 0.89 0.18 0.92 -0.19 0.54 -0.24c1.15,-0.48 1.69,-1.79 1.26,-2.96l-2.2 -5.72 7.3 -6.01 5.21 3.25c1.06,0.65 2.45,0.36 3.14,-0.67l0.35 -0.49 0.34 -1.79 -1.05 -1.48z"/>
  <path class="fil0" d="M174.31 84.38c-0.6,-1.12 -2,-1.56 -3.14,-0.95l-8.47 4.51 -11.69 -21.98c-0.6,-1.13 -2.01,-1.56 -3.14,-0.96l-0.53 0.28 -1.12 1.37 0.17 1.77 13.04 24.53 1.37 1.13 0.68 0.1 1.09 -0.27 11.04 -5.87 1.13 -1.37 -0.17 -1.78 -0.28 -0.51z"/>
  <path class="fil0" d="M200.67 76.4l1.1 0.29 0.65 -0.1 0.58 -0.18c1.23,-0.36 1.94,-1.64 1.57,-2.88l-7.79 -26.39 -1.11 -1.38 -1.78 -0.18 -0.59 0.17c-1.23,0.36 -1.92,1.65 -1.56,2.88l7.79 26.39 1.12 1.38z"/>
  <path class="fil0" d="M231.37 69.6l1.49 0.54 0.2 -0.01 0.6 -0.05c1.27,-0.11 2.21,-1.24 2.1,-2.51l-1.08 -12.62 9.55 -0.83c1.29,-0.1 2.23,-1.23 2.12,-2.51l-0.05 -0.61 -0.83 -1.58 -1.69 -0.54 -9.55 0.82 -0.6 -6.93 9.55 -0.84c1.28,-0.11 2.22,-1.23 2.11,-2.5l-0.05 -0.62 -0.82 -1.58 -1.7 -0.53 -12.46 1.08 -1.58 0.82 -0.54 1.69 2.41 27.71 0.82 1.58z"/>
  <path class="fil0" d="M274.24 47.45c0.15,-1.43 0.74,-2.49 1.85,-3.37 0.92,-0.74 1.91,-1.09 3.04,-1.09l0.66 0.04c1.41,0.15 2.47,0.74 3.36,1.85 0.88,1.09 1.22,2.25 1.05,3.67l-1.34 12.15c-0.17,1.43 -0.76,2.5 -1.86,3.38 -1.09,0.87 -2.3,1.21 -3.68,1.06 -1.44,-0.15 -2.51,-0.74 -3.38,-1.85 -0.88,-1.11 -1.22,-2.29 -1.06,-3.71l1.37 -12.14zm2.49 22.88l1.24 0.06c2.31,0 4.44,-0.75 6.29,-2.23 2.22,-1.76 3.5,-4.07 3.81,-6.87l1.35 -12.15c0.32,-2.79 -0.42,-5.33 -2.18,-7.54 -1.78,-2.21 -4.08,-3.49 -6.87,-3.8 -2.83,-0.32 -5.37,0.43 -7.57,2.19 -2.2,1.75 -3.48,4.06 -3.78,6.87l-1.36 12.14c-0.31,2.81 0.41,5.35 2.17,7.55 1.75,2.2 4.06,3.47 6.89,3.78z"/>
  <path class="fil0" d="M316.88 50.49l4.42 1.43c1.44,0.47 2.51,1.15 3.2,2.03 0.54,0.72 1.19,1.95 0.41,4.39 -0.81,2.49 -2.04,3.12 -2.9,3.35 -1.06,0.3 -2.35,0.23 -3.78,-0.25l-4.42 -1.43 3.08 -9.54zm-11.13 24.98l0.57 0.18c1.22,0.39 2.52,-0.27 2.91,-1.49l2.96 -9.13 4.41 1.44 0.35 0.11 1.74 11.85c0.18,1.15 1.16,1.99 2.31,1.99l0.25 -0.02 0.59 -0.07 1.58 -0.87 0.46 -1.76 -1.54 -10.66c2.81,-0.41 5.96,-2.09 7.57,-7.05 1.45,-4.44 0.12,-7.46 -1.23,-9.21 -1.33,-1.75 -3.28,-3.04 -5.74,-3.84l-7.2 -2.33 -1.77 0.14 -1.15 1.36 -8.55 26.46 0.13 1.77 1.37 1.15z"/>
  <path class="fil0" d="M340.61 89.04l0.53 0.29c1.09,0.63 2.51,0.24 3.16,-0.88l8.54 -15.13 -0.13 21.17 1.19 2.05 0.55 0.32 1.14 0.29 2.02 -1.18 13.54 -23.95c0.63,-1.11 0.24,-2.54 -0.88,-3.16l-0.53 -0.31 -1.76 -0.21 -1.41 1.09 -8.55 15.12 0.16 -21.16 -1.17 -2.03 -0.58 -0.32 -1.76 -0.22 -1.41 1.09 -13.53 23.95 -0.2 1.77 1.08 1.41z"/>
  <path class="fil0" d="M378.31 114.69l1.51 0.58 0.17 -0.02 1.59 -0.79 18.01 -20.79 0.57 -1.68 -0.8 -1.59 -0.47 -0.41c-0.96,-0.84 -2.43,-0.73 -3.28,0.24l-18.01 20.79c-0.84,0.97 -0.74,2.43 0.23,3.27l0.48 0.4z"/>
  <path class="fil0" d="M269.6 383.23c-17.83,-2.58 -36.64,-0.75 -54.61,-0.71 -20.52,0.04 -41.21,-0.49 -61.69,0.72 -3.49,0.2 -3.28,5.15 0.12,5.34 19.04,1.13 38.24,0.67 57.3,0.71 19.12,0.04 39.32,2.1 58.27,-0.61 2.82,-0.41 3.96,-4.98 0.6,-5.46z"/>
  <path class="fil0" d="M219.35 309.15l-0.02 -2.09c0,-2.47 0.06,-5 -0.47,-7.42 -0.51,-2.38 -4.15,-2.15 -4.64,0.11 -0.48,2.16 -0.43,4.47 -0.43,6.67 0,0.93 -0.03,1.86 -0.03,2.79l-0.77 0c-1.09,0 -2.19,0 -3.28,0 0.15,-4.98 0.4,-10.04 0.5,-15.08 20.39,0.09 41.48,1.69 61.79,-0.24 0.11,5.03 0.33,10.08 0.48,15.04 -17.63,-0.86 -35.54,-0.01 -53.14,0.23zm50.26 58.15c-3.44,0 -6.89,0.03 -10.34,0.06 -3.02,-16.79 -5.53,-34.12 -10.04,-50.59 1.11,0 2.23,0 3.35,0.02 4.37,17.07 11.01,33.89 17.03,50.5zm-17.96 0.18l-0.85 -0.68c-2.67,-2.07 -5.41,-4.07 -8.16,-6.08 -9.55,-6.98 -19.1,-13.94 -28.67,-20.91 -10.73,-7.78 -21.4,-16.43 -32.68,-23.72 9.14,-0.05 18.27,-0.1 27.38,-0.08 11.37,0 22.95,0.44 34.52,0.67 2.3,17.02 6.8,34.02 10.73,50.77l-2.28 0.03zm-16.66 0.3c0.01,-1.35 -0.18,-2.75 -0.26,-4.02l-0.05 -1.29c2.58,1.74 5.11,3.45 7.61,5.18 -2.44,0.06 -4.87,0.09 -7.31,0.13zm-5.81 -5.05c-4.48,-3.54 -9.72,-6.72 -14.52,-9.77 0.23,-1.1 0.4,-2.3 0.46,-3.55 4.81,3.22 9.6,6.41 14.32,9.54 -0.12,1.26 -0.18,2.52 -0.25,3.77zm-34.29 -24.06c0.04,-1.05 0.06,-2.09 0.09,-3.14l0 -0.11c4.61,3.35 9.3,6.63 14.01,9.84 -0.13,1.26 -0.16,2.59 -0.09,3.89l-0.8 -0.56c-4.34,-3.15 -8.72,-6.58 -13.2,-9.92zm20.04 29.35c-17.58,0.02 -35.24,-0.21 -52.88,-0.24 3.89,-16.51 8.36,-33.29 10.68,-50.09 5.22,4.66 10.76,9.13 16.51,13.48 -0.01,1.17 0.08,2.36 0.11,3.48 -4.28,-2.98 -8.65,-5.74 -13.21,-7.94 -2.49,-1.19 -4.84,1.9 -2.85,3.91 8.52,8.73 19.9,15.29 29.78,22.39 5.8,4.16 12.42,10.24 19.27,14.94 -2.47,0.02 -4.94,0.06 -7.4,0.07zm-58.21 -0.23c-3.56,0 -7.13,0.02 -10.68,0.05 6.15,-17.02 12.98,-34.24 17.42,-51.75 1.19,0 2.37,0.01 3.56,0.01 -4.67,16.82 -7.22,34.53 -10.3,51.69zm-3.5 -65.38c-0.15,2.23 -0.3,4.55 -0.25,6.81 -3.37,0.06 -6.73,0.15 -10.1,0.27 0.67,-4.76 0.24,-9.82 0.23,-14.53l-0.02 -1.21c20.4,0.63 40.87,0.38 61.28,0.36 0.09,5.04 0.33,10.1 0.47,15.09 -15.52,-0.06 -31.08,-0.26 -46.61,-0.04 0.07,-2.3 -0.06,-4.6 -0.21,-6.88 -0.21,-3.12 -4.58,-2.92 -4.79,0.12zm51.39 -21.46c-0.16,2.31 -0.26,4.63 -0.27,6.95 -20.44,-0.06 -40.94,-0.27 -61.34,0.37 -0.06,-2.56 -0.17,-5.12 -0.3,-7.67 20.6,0.65 41.29,0.39 61.92,0.35zm67.67 -0.24c-0.17,2.47 -0.27,4.94 -0.3,7.44 -19.42,-1.76 -39.46,-0.26 -58.91,-0.24 -0.95,0 -1.89,-0.01 -2.83,-0.01 -0.04,-2.33 -0.12,-4.65 -0.3,-6.96 20.56,0.09 41.86,1.75 62.34,-0.24zm13.41 29.21c-2.76,-0.32 -5.53,-0.54 -8.32,-0.73 0.29,-10.25 1.07,-20.8 -0.02,-30.94 0.36,-1.31 -0.09,-2.73 -1.79,-2.93l-0.13 -0.01 -1.33 -0.11c-20.07,-2.09 -40.87,-0.46 -61.02,-0.44 -24.36,0.04 -48.86,-0.45 -73.19,0.43 -1.7,0.05 -2.52,1.31 -2.51,2.59l-0.04 0.13c-0.38,5.74 -0.53,11.45 -0.53,17.2 0,4.75 -0.43,9.84 0.27,14.62 -1.51,0.07 -3.02,0.12 -4.54,0.2 -3.47,0.18 -3.27,5.17 0.14,5.35 8.22,0.42 16.45,0.64 24.7,0.73 -6.77,16.76 -11.58,34.62 -16.86,51.88 -10.02,0.13 -20.04,0.38 -30.03,0.84 -3.48,0.18 -3.29,5.19 0.13,5.35 33.21,1.57 66.68,0.68 99.93,0.72 32,0.03 64.68,2.13 96.59,-0.63 3.61,-0.32 3.37,-5.23 -0.12,-5.53 -10.56,-0.9 -21.2,-1.23 -31.85,-1.32 -5.13,-16.82 -9.82,-34.23 -16.37,-50.55 8.82,-0.08 17.62,-0.43 26.3,-1.41 2.88,-0.31 3.91,-5.08 0.6,-5.45z"/>
  <path class="fil0" d="M206 255.94c0.95,-0.97 1.87,-1.96 2.78,-2.95 2.15,-2.4 -1.23,-5.51 -3.57,-3.4 -2.16,1.93 -4.22,3.96 -6.14,6.15 -3.55,-0.12 -7.11,-0.22 -10.68,-0.3 0.25,-3.43 0.34,-6.88 0.46,-10.31 0.08,-2.43 0.27,-5.07 0.01,-7.57 2.86,-0.03 5.71,-0.09 8.55,-0.16 -0.87,0.97 -1.78,1.92 -2.62,2.94 -2.04,2.44 1.15,5.32 3.52,3.35 1.41,-1.18 2.75,-2.42 4.1,-3.66 1.03,-0.94 2.1,-1.78 2.78,-2.87 2.44,-0.09 4.89,-0.2 7.32,-0.3 0.09,6.44 0.35,12.88 0.57,19.27 -2.35,-0.06 -4.7,-0.11 -7.06,-0.17zm-46.96 -24.54c-0.09,-4.31 -0.29,-8.6 -0.64,-12.82 17.82,1.09 36.52,1.21 54.55,0.34 -0.31,4.15 -0.46,8.36 -0.47,12.58 -17.67,-0.81 -35.8,-1.17 -53.44,-0.1zm18.17 23.84l2.2 -2.32c2.09,-2.29 -1.2,-5.34 -3.46,-3.28 -1.98,1.81 -3.89,3.69 -5.71,5.65 -3.89,0.06 -7.75,0.23 -11.61,0.47 0.29,-6.25 0.47,-12.56 0.47,-18.85 4.52,0.27 9.07,0.46 13.65,0.56l-0.54 0.6c-1.83,1.91 -3.68,3.84 -5.52,5.77 -2.14,2.23 1.24,5.38 3.43,3.27 1.93,-1.85 3.86,-3.69 5.78,-5.53 1.31,-1.27 2.96,-2.54 4.19,-4 0.89,0.01 1.79,0.01 2.68,0.01 -0.25,2.54 -0.02,5.2 0.01,7.67 0.04,3.34 0.17,6.72 0.42,10.07 -2,-0.04 -3.99,-0.08 -5.99,-0.09zm47.1 -39.31c0.06,-1.33 -0.75,-2.68 -2.48,-2.56 -21.53,-1.47 -44.44,-1.46 -65.97,-0.05l-1.11 0.3c-0.85,0.33 -1.53,1.12 -1.65,2.33 -1.64,16.5 -0.85,34.19 0.08,50.77 0.17,3.19 4.73,3 4.91,-0.13 0.1,-1.76 0.19,-3.52 0.28,-5.29 18.13,1.15 36.7,0.03 54.83,-0.33 0.05,1.55 0.09,3.07 0.12,4.59 0.05,3.07 4.7,2.94 4.75,-0.11 0.26,-15.38 1.55,-31.46 0.36,-46.84 1.17,-0.06 2.36,-0.12 3.52,-0.21 1.67,0.12 2.42,-1.16 2.35,-2.47z"/>
  <path class="fil0" d="M150.19 209.96c30.34,1.62 61.6,0.77 91.96,-0.37 3.13,-0.11 2.97,-4.7 -0.11,-4.82 -30.37,-1.14 -61.64,-2.01 -91.99,-0.36 -3.61,0.19 -3.4,5.36 0.14,5.55z"/>
  <path class="fil0" d="M346.45 376.67c5.17,2.05 10.5,3.74 15.46,6.3 6.88,3.54 -3.91,7.16 -7.01,8.31 -22.4,8.24 -47.45,7.9 -70.78,11.73 -22.72,3.73 -51.55,8.88 -69.37,24.73 -18.81,16.76 14.85,30.26 26.75,33.68 2.65,0.77 4.41,-3.51 1.79,-4.55 -6.38,-2.54 -32.15,-10.22 -27.04,-21.15 4.45,-9.59 21.25,-13.84 30.21,-16.77 23.73,-7.79 48.03,-9.89 72.61,-12.9 11.42,-1.4 22.71,-3.5 33.76,-6.66 6.99,-2.01 15.78,-4.88 18.64,-12.21 2.59,-6.63 -6.82,-10.82 -11.22,-12.63 -10.7,-4.44 -26.34,-6.76 -31.9,-18.28 -1.32,-2.71 -5.66,-0.65 -4.76,2.14 3.29,10.23 13.64,14.61 22.88,18.26z"/>
  <path class="fil0" d="M241.5 338.86c2.63,-1.26 0.56,-5.03 -2,-4.43 -7.55,1.75 -13.58,0.95 -20.82,-1.73 -2.58,-0.94 -4.16,3.27 -1.74,4.44 7.56,3.68 16.7,5.49 24.55,1.72z"/>
  <path class="fil0" d="M232.87 349.77c3.82,0.02 7.64,0.05 11.46,0.02 3.07,-0.02 2.94,-4.72 -0.12,-4.74 -3.81,-0.04 -7.63,0 -11.45,0.03 -3.03,0.02 -2.9,4.68 0.11,4.7z"/>
  <path class="fil0" d="M185.56 344.98c-4.73,0.03 -9.45,0.06 -14.17,0.08 -3.05,0.01 -2.94,4.72 0.11,4.72 4.72,0.04 9.45,0.06 14.17,0.08 3.14,0.01 3.01,-4.88 -0.11,-4.87z"/>
  <path class="fil0" d="M342.28 363.49c9.18,3.7 18.45,6.97 27.89,9.94 8.54,2.67 19.96,5.16 23.43,14.58l0.13 0.23c0.28,0.76 0.86,1.39 1.72,1.52 18.38,3.11 38.57,0.66 57.15,0.03 3.29,-0.12 3.11,-4.94 -0.11,-5.05 -17.75,-0.6 -36.85,-2.76 -54.56,-0.29 -1.79,-5.35 -5.99,-8.59 -10.94,-11.03 7.89,0.11 15.86,-0.27 23.13,-1.12 2.74,-0.31 3.75,-4.85 0.57,-5.21 -12.76,-1.48 -27.54,-1.72 -40.46,-0.06 -8.69,-2.82 -17.56,-5.24 -26.19,-8.06 -2.6,-0.86 -4.33,3.47 -1.76,4.51z"/>
  <path class="fil0" d="M254.83 218.17c9.42,-4.46 29.94,-6.63 33.41,-18.79 1.51,-5.33 -0.63,-10.18 -4.29,-14.16 -4.48,-4.88 9.13,-6.27 12.84,-7.42 11.37,-3.52 14.42,-12.27 7.11,-21.89 -7.54,-9.91 -16.38,-16.97 -14.24,-30.88 2.09,-13.62 14.62,-24.67 25.35,-31.86 2.56,-1.71 0.14,-5.68 -2.52,-4.08 -15.06,9.11 -28.54,22.84 -29.68,41.23 -0.51,7.97 3.88,15.87 8.8,21.76 3.24,3.87 7.34,7.55 9.38,12.23 2.17,4.92 -5.04,6.45 -8.01,7.39 -5.71,1.75 -21.76,3.94 -17.32,13.75 1.55,3.43 4.69,5.62 6.08,9.2 1.78,4.59 -6.24,7.99 -9.07,9.42 -6.81,3.42 -14.01,5.81 -20.69,9.52 -3.09,1.73 -0.24,6.04 2.84,4.58z"/>
  <path class="fil0" d="M382.96 138.02c-14.16,3.09 -28.02,6.93 -41.17,13.12 -2.48,1.17 -0.57,5.44 1.98,4.4 13.2,-5.38 26.98,-8.79 40.65,-12.66 3.18,-0.9 1.69,-5.56 -1.46,-4.86z"/>
  <path class="fil0" d="M342.43 271.52c24.87,4.98 52.14,2.31 75.34,-8.18 6.07,-2.74 30.54,-15.8 16.26,-24.67 -7.47,-4.65 -17.1,-4.43 -25.58,-5.43 -2.14,-0.26 -10.21,-1.47 -8.38,-5.18 1.52,-3.1 7.11,-5.02 9.99,-6.19 22.16,-9.08 48.35,-9.32 71.68,-5.86 3.21,0.48 4.38,-3.94 1.23,-4.93 -20.04,-6.23 -43.36,-3.48 -63.43,1.25 -7.19,1.69 -30.74,7.62 -25.52,19.7 2.2,5.09 7.91,6.73 12.87,7.48 4.39,0.67 29.78,1.54 22.15,9.45 -7.78,8.07 -21.13,11.59 -31.52,14.44 -17.48,4.77 -35.92,5.63 -53.81,3.03 -3.28,-0.48 -4.61,4.4 -1.26,5.08z"/>
  <path class="fil0" d="M79.17 382.93l-0.27 0.05c-2.41,0.52 -2.19,4.26 0.12,4.74l0.27 0.06c3.96,0.85 4.03,-5.73 -0.12,-4.85z"/>
  <path class="fil0" d="M121.25 411.45c-1.09,-0.28 -2.59,0.32 -3.02,1.43 -1.4,1.24 -0.98,3.58 1,4.28 2.2,0.79 4.18,-1.06 3.96,-3.27 -0.12,-1.16 -0.77,-2.15 -1.95,-2.44z"/>
  <polygon class="fil0" points="108.93,394.03 108.91,393.91 "/>
  <path class="fil0" d="M111.28 390.54c-2.12,0.05 -2.99,2.23 -2.14,3.94l-0.21 -0.46c0.17,1.03 0.72,1.89 1.81,2.17 1.17,0.3 2.78,-0.44 2.95,-1.77l-0.09 -0.05c0.85,-1.74 -0.29,-3.9 -2.32,-3.84z"/>
  <path class="fil0" d="M84.14 407.07c-0.19,2.01 1.37,3.22 3.27,3.16 2.64,-0.11 2.93,-3.24 1.21,-4.43 -1.11,-1.88 -4.21,-1.39 -4.48,1.27z"/>
  <path class="fil0" d="M136.02 396.99l0.02 0.77c0.11,3.1 4.64,2.93 4.75,-0.11l0.02 -0.79c0.11,-3.08 -4.91,-2.97 -4.79,0.12z"/>
  <path class="fil0" d="M131.38 385.02c-3.39,0 -3.25,5.27 0.13,5.27 3.39,0 3.26,-5.27 -0.13,-5.27z"/>
  <path class="fil0" d="M190.89 422.54l0.06 0.76c0.26,3.14 4.55,2.93 4.8,-0.12l0.07 -0.78c0.26,-3.15 -5.2,-3.09 -4.92,0.13z"/>
  <path class="fil0" d="M198.59 404.65l0.09 0.21c0.15,1.03 0.74,1.9 1.82,2.19 1.15,0.27 2.8,-0.47 2.95,-1.79l0.01 -0.04 0.15 -0.68c0.57,-1.64 -1.02,-3.28 -2.59,-3.24 -1.64,0.04 -2.99,1.75 -2.43,3.35z"/>
  <path class="fil0" d="M149.37 437.12l-0.02 0.14 -0.04 0.07 0.06 -0.21zm-1.73 -3.24c-2,-0.2 -3.34,1.48 -3.17,3.36 0.12,1.32 1.11,2.41 2.51,2.38l1.83 -0.98c2.14,-1.08 1.64,-4.51 -1.17,-4.76z"/>
  <polygon class="fil0" points="157.45,451.03 157.42,451.16 "/>
  <path class="fil0" d="M151.87 451.16l0.02 0.08 -0.02 -0.08zm4.59 -2.75c-0.74,-0.91 -2.31,-0.97 -3.32,-0.54 -0.85,0.36 -1.51,0.89 -1.74,1.83l0.71 2.49c1.02,2.44 5.03,2.03 5.3,-1.03l-0.04 -1.34 -0.92 -1.41z"/>
  <path class="fil0" d="M115.92 437.05c-3.17,0 -3.03,4.9 0.12,4.9 3.17,0 3.02,-4.9 -0.12,-4.9z"/>
  <path class="fil0" d="M150.09 418.09c3.35,0 3.21,-5.17 -0.13,-5.17 -3.35,0 -3.21,5.17 0.13,5.17z"/>
  <path class="fil0" d="M173.3 408.83c3.35,0 3.21,-5.21 -0.12,-5.21 -3.37,0 -3.23,5.21 0.12,5.21z"/>
  <path class="fil0" d="M294.02 387.38l0.64 -0.79 -0.06 -2.63c-0.97,-1.48 -2.76,-1.81 -4.29,-1.01 -1.19,0.63 -1.61,1.97 -1.5,3.21 0.12,1.53 1.29,2.79 2.89,2.74 1.11,-0.02 1.88,-0.65 2.32,-1.52z"/>
  <path class="fil0" d="M313.48 388.57l0.51 -0.09c2.4,-0.7 2.2,-4.13 -0.12,-4.77 -2.42,-0.68 -4.34,0.83 -4.58,3.23 -0.21,2.26 2.83,2.96 4.19,1.64z"/>
  <path class="fil0" d="M333.57 378.04l-1.31 0.84c-1.05,0.95 -0.91,2.8 0.09,3.73l0.68 0.5 0.42 0.18 0.06 0.02 0.09 0.04 0.06 0.01c2,0.84 4.36,-0.43 4.29,-2.75 -0.06,-2.36 -2.4,-3.32 -4.33,-2.53l-0.04 -0.04z"/>
  <path class="fil0" d="M225 401.19c-3.55,0.25 -3.32,5.19 0.14,5.43l1.43 -0.12c0.91,-0.36 1.6,-0.96 1.85,-1.93 0.26,-1.06 -0.22,-2.59 -1.31,-3l-2.1 -0.37z"/>
  <path class="fil0" d="M235.19 404.71c3.05,0 2.93,-4.71 -0.11,-4.71 -3.04,0 -2.93,4.71 0.11,4.71z"/>
  <path class="fil0" d="M213.52 418.8c3.26,0 3.13,-5.03 -0.12,-5.03 -3.25,0 -3.12,5.03 0.12,5.03z"/>
  <path class="fil0" d="M170.69 433.13c1.69,-0.85 2.49,-3.26 1.46,-4.89 -0.61,-1.01 -1.89,-1.49 -3.01,-1.14 -0.96,0.27 -1.52,1.06 -1.94,1.93l-0.25 1.25 -0.04 0.1c-0.73,2.29 1.99,3.66 3.77,2.76z"/>
  <path class="fil0" d="M199.47 439.3c-3.25,0 -3.13,5.03 0.12,5.03 3.25,0 3.12,-5.03 -0.12,-5.03z"/>
  <path class="fil0" d="M70.22 391.16c-1.62,-0.41 -3.66,0.93 -3.43,2.76 0.11,0.9 0.22,1.97 1,2.56 0.86,0.65 2.13,1.06 3.12,0.32 0.8,-0.61 1.23,-1.29 1.34,-2.27 0.18,-1.51 -0.41,-2.97 -2.02,-3.37z"/>
  <path class="fil0" d="M47.06 372.85l-0.79 -0.08c-3.18,-0.25 -3.13,5.26 0.12,5l0.78 -0.06c3.16,-0.27 2.96,-4.63 -0.12,-4.87z"/>
  <path class="fil0" d="M64.18 375.34c-0.48,-2.44 -4.29,-2.21 -4.76,0.09l-0.16 0.76c-0.33,1.64 0.86,3.29 2.62,3.24 1.83,-0.04 2.79,-1.72 2.45,-3.38l-0.15 -0.71z"/>
  <path class="fil0" d="M71.81 363.43c-3.32,0 -3.18,5.13 0.12,5.13 3.31,0 3.17,-5.13 -0.12,-5.13z"/>
  <path class="fil0" d="M92.7 364.23c-3.26,0 -3.13,5.05 0.13,5.05 3.26,0 3.14,-5.05 -0.13,-5.05z"/>
  <path class="fil0" d="M45.72 365.39c1.62,0.29 3.23,-0.79 3.2,-2.56 -0.06,-1.82 -1.71,-2.7 -3.33,-2.41l-0.74 0.12c-2.38,0.44 -2.17,4.3 0.11,4.71l0.75 0.13z"/>
  <path class="fil0" d="M113.72 362.49c3.48,0 3.32,-5.38 -0.13,-5.38 -3.47,0 -3.32,5.38 0.13,5.38z"/>
  <path class="fil0" d="M126.87 362.25l1.41 -0.15c2.36,-0.58 2.13,-4.08 -0.12,-4.64l-1.41 -0.11c-3.16,-0.12 -3.05,4.99 0.12,4.9z"/>
  <path class="fil0" d="M176.65 359.19l0.16 -0.29 -0.69 0.76c-1.96,2.3 0.83,5 3.13,3.58l2.03 -0.9c1.01,-0.89 0.89,-2.78 -0.1,-3.6 -1.55,-1.32 -3.49,-1 -4.53,0.46z"/>
  <path class="fil0" d="M194.83 357.16c-3.4,0 -3.26,5.27 0.13,5.27 3.4,0 3.27,-5.27 -0.13,-5.27z"/>
  <path class="fil0" d="M290.91 361.9c3.69,0 3.56,-5.73 -0.14,-5.73 -3.7,0 -3.56,5.73 0.14,5.73z"/>
  <path class="fil0" d="M263.06 401.26c3.57,0 3.43,-5.55 -0.13,-5.55 -3.58,0 -3.44,5.55 0.13,5.55z"/>
  <path class="fil0" d="M275.31 389.87c-3.12,0 -3,4.84 0.11,4.84 3.14,0 2.99,-4.84 -0.11,-4.84z"/>
  <path class="fil0" d="M318.51 376.83l0.04 0.06 0.67 1.05c0.98,1.03 2.74,0.89 3.68,-0.11l0.7 -1.14c1.09,-1.95 -0.43,-4.43 -2.65,-4.38 -2.33,0.07 -3.52,2.59 -2.44,4.52z"/>
  <path class="fil0" d="M327.15 387.65c-2.99,0 -2.88,4.65 0.12,4.65 2.99,0 2.87,-4.65 -0.12,-4.65z"/>
  <path class="fil0" d="M347.26 381.42c-3.04,0 -2.92,4.71 0.11,4.71 3.04,0 2.93,-4.71 -0.11,-4.71z"/>
  <path class="fil0" d="M300.05 389.65c-3.42,0 -3.28,5.3 0.14,5.3 3.42,0 3.29,-5.3 -0.14,-5.3z"/>
  <path class="fil0" d="M303.28 363.23c3.45,0 3.31,-5.31 -0.12,-5.31 -3.45,0 -3.3,5.31 0.12,5.31z"/>
  <path class="fil0" d="M316.44 364.64c3.25,0 3.11,-5.04 -0.13,-5.04 -3.23,0 -3.11,5.04 0.13,5.04z"/>
  <path class="fil0" d="M95.8 378.81c-3.42,0 -3.29,5.31 0.12,5.31 3.41,0 3.28,-5.31 -0.12,-5.31z"/>
  <path class="fil0" d="M112.05 403.68c-3.02,-0.21 -6.22,-0.59 -9.2,0.04 -2.57,0.56 -2.33,4.52 0.11,5.04 2.99,0.64 6.21,0.23 9.21,0.02 3.32,-0.21 3.13,-4.89 -0.12,-5.1z"/>
 </g>
</svg>
