<?xml version="1.0" encoding="UTF-8"?>
<svg xmlns="http://www.w3.org/2000/svg" xml:space="preserve" width="0.747331in" height="0.74735in" version="1.1" style="shape-rendering:geometricPrecision; text-rendering:geometricPrecision; image-rendering:optimizeQuality; fill-rule:evenodd; clip-rule:evenodd"
viewBox="0 0 83.34 83.34"
 xmlns:xlink="http://www.w3.org/1999/xlink"
 xmlns:xodm="http://www.corel.com/coreldraw/odm/2003">
 <defs>
  <style type="text/css">
   <![CDATA[
    .fil1 {fill:none;fill-rule:nonzero}
    .fil0 {fill:black;fill-rule:nonzero}
   ]]>
  </style>
 </defs>
 <g id="Layer_x0020_1">
  <metadata id="CorelCorpID_0Corel-Layer"/>
  <path class="fil0" d="M36.1 35.88l-0.01 0.01 -0.01 -0.04 0.02 0.03zm3.22 -6.82c-0.59,-0.21 -1.18,-0.44 -1.78,-0.61 0.03,-0.37 -0.02,-0.73 -0.09,-1.09 0.2,0.06 0.4,0.15 0.61,0.27 0.51,0.29 0.98,0.52 1.52,0.72 0.75,0.28 1.52,0.02 2.24,0.35 -0.29,0.32 -0.58,0.64 -0.86,0.96 -0.47,-0.21 -1.16,-0.42 -1.64,-0.6zm-1.23 4.72l-0.01 0 0 -0.01 0.01 0zm-0.56 -3.09c0.49,0.3 1.01,0.55 1.53,0.8 0.24,0.11 0.48,0.25 0.74,0.37 -0.27,0.78 -0.57,1.42 -1.39,1.97l-0.01 -0.01 -0.44 -0.27c-0.31,-0.16 -0.63,-0.33 -0.94,-0.5 -0.58,-0.31 -1.17,-0.63 -1.8,-0.82 0.02,-0.24 0.03,-0.48 0.07,-0.71 0.96,0.37 1.81,0.99 2.79,1.29 0.45,0.14 0.72,-0.56 0.3,-0.76 -0.91,-0.44 -1.82,-0.94 -2.78,-1.27 0.36,-0.53 0.66,-1.57 1.42,-1.57l0.06 -0.01c0.55,0.25 1.14,0.45 1.71,0.66 0.46,0.17 1.08,0.42 1.59,0.59 -0.11,0.18 -0.2,0.36 -0.28,0.55 -0.17,-0.08 -0.34,-0.15 -0.51,-0.23 -0.56,-0.25 -1.13,-0.5 -1.68,-0.77 -0.46,-0.22 -0.82,0.43 -0.38,0.69zm-29.51 23.78c-0.73,-2.08 -3.92,-1.9 -5.64,-2.78 -0.64,-2.51 -1.03,-5.09 -1.18,-7.72 1,0.59 2.13,0.92 3.19,1.4 1.14,0.51 1.21,1.47 1.91,2.27 0.93,1.06 3.43,-0.07 4.56,-0.06 0.56,0 0.65,-0.84 0.11,-0.97 -0.68,-0.16 -1.38,0.02 -2.06,0.14 -1.21,0.22 -1.88,0.58 -2.26,-0.82 -0.46,-1.68 -4.02,-2.32 -5.37,-2.82l-0.11 -0.02c-0.02,-0.55 -0.03,-1.1 -0.03,-1.66 0,-0.65 0.02,-1.29 0.06,-1.94 1.44,1.35 4.14,1.93 5.5,3.09 0.95,0.81 0.53,2.55 1.66,3.13 0.91,0.47 1.9,0.36 2.84,0.03 0.53,-0.18 0.38,-0.89 -0.15,-0.93 -0.38,-0.03 -0.72,-0.02 -1.09,0.03 -1,0.11 -1.29,-0.81 -1.5,-1.56 -0.22,-0.77 -0.79,-1.47 -1.44,-1.93 -0.99,-0.71 -2.11,-1.16 -3.18,-1.72 -0.89,-0.46 -1.68,-1.08 -2.54,-1.57 0.12,-1.37 0.31,-2.72 0.57,-4.05 1.41,1.31 3.31,2.13 4.93,3.11 0.18,0.11 0.38,0.05 0.52,-0.08 2.24,2.23 4.94,3.46 7.74,4.86 2.58,1.29 4.62,4.17 7.54,4.75 0.66,0.13 0.91,-0.88 0.25,-1.01 -2.49,-0.49 -4.65,-3.11 -6.8,-4.42 -0.34,-0.21 -0.7,-0.39 -1.06,-0.56 0.18,-0.33 0.29,-0.75 0.55,-1 0.52,-0.51 1.23,-0.8 1.78,-1.27 0.35,-0.29 -0.13,-0.86 -0.49,-0.61 -0.56,0.39 -1.18,0.7 -1.71,1.12 -0.25,0.2 -0.46,0.42 -0.63,0.7 -0.13,0.22 -0.18,0.48 -0.3,0.7 -0.67,-0.28 -1.34,-0.55 -1.99,-0.86 -1.71,-0.82 -3.31,-2.06 -4.63,-3.41 -0.21,-0.22 -0.54,-0.12 -0.69,0.11l-0 0c-1.64,-0.96 -3.41,-1.79 -4.81,-3.09 3.96,-18.23 20.25,-31.95 39.61,-31.95l0.23 0c17.27,0.09 32,11.04 37.74,26.33 -1.48,-0.06 -2.37,0.49 -3.91,1.1 -1.02,0.4 -0.89,-0.09 -1.59,-0.48 -0.59,-0.32 -1.57,0.23 -2.09,0.48 -1.59,0.75 -3.54,0.81 -4.83,2.07 -0.29,0.28 -0.53,0.64 -0.76,0.97 -0.62,0.88 -0.93,0.62 -1.83,0.2 -0.97,-0.45 -1.91,-0.98 -2.83,-1.53 0.13,-0.28 0.05,-0.63 -0.24,-0.8 -2.1,-1.22 -4.24,-2.14 -6.18,-3.63 -1.36,-1.04 -3.33,-1.4 -4.43,-2.7 -0.12,-0.15 -0.34,-0.15 -0.51,-0.12 -0.63,0.12 -1.12,0.37 -1.67,0.68 -0.28,0.15 -1.82,-0.23 -2.45,0.07 -1.68,0.78 -2.82,2.64 -3.95,4.09 -1.19,-0.58 -2.58,-0.39 -3.81,-1.08 -1.02,-0.57 -2.07,-0.91 -3.19,-0.34 -1.29,0.66 -2.67,1.5 -3.74,2.48 -0.18,0.17 -1.39,1.66 -1.5,1.61 -0.44,-0.18 -0.88,-0.35 -1.33,-0.52 -1.09,-0.4 -2.54,0.11 -3.68,0.15 -1.3,0.04 -2.39,0.83 -3.43,1.53 -1.59,1.07 -2.95,2.49 -4.64,3.4 -1.89,1.02 -4.12,1.36 -6.08,2.24 -0.4,0.18 -0.09,0.86 0.32,0.7 2.76,-1.08 5.89,-1.41 8.22,-3.38 1.22,-1.03 2.44,-2.15 3.84,-2.94l-0.06 0.11c-0.52,0.96 -1.14,1.47 -2.03,2.05 -0.48,0.31 -0.9,0.65 -1.27,1.08 -0.42,0.48 -0.47,1.06 -1.04,1.38 -0.44,0.24 -0.03,0.88 0.41,0.66 0.59,-0.31 0.68,-0.39 0.94,-0.93 1.06,0.87 2.25,2.12 3.59,2.39 0.52,0.1 0.74,-0.55 0.32,-0.83 -0.6,-0.41 -1.25,-0.73 -1.85,-1.16 -0.54,-0.38 -1.06,-0.78 -1.62,-1.11 0.33,-0.38 0.75,-0.67 1.19,-0.96 0.52,-0.33 0.93,-0.7 1.28,-1.09 1.32,0.84 2.66,1.77 4.16,2.26 0.43,0.14 0.71,-0.46 0.41,-0.75 -1.09,-1.05 -2.62,-1.64 -4.02,-2.19 0.1,-0.13 0.2,-0.27 0.3,-0.41 0.23,0.19 0.48,0.37 0.75,0.47 0.32,0.11 0.67,-0.34 0.45,-0.62 -0.19,-0.23 -0.44,-0.41 -0.7,-0.56 0.1,-0.14 0.2,-0.28 0.3,-0.42 0.37,-0.05 0.75,-0.03 1.1,-0.04 0.67,-0.02 1.73,-0.37 2.36,-0.25 0.56,0.11 1.08,0.52 1.65,0.6 -0.14,0.34 -0.21,0.7 -0.15,1.13 0.07,0.5 0.79,0.5 0.79,-0.02 0.01,-0.88 0.63,-1.45 1.1,-2.13 0.45,-0.52 0.87,-1.09 1.29,-1.35 1.19,-0.73 2.24,-1.73 3.5,-1.81 0.03,0.38 0.11,0.76 0.1,1.14 -0.69,0.29 -1.06,0.94 -1.46,1.6 -0.27,0.44 -0.52,0.73 -0.67,1.23 -0.12,0.44 -0.03,0.98 -0.07,1.44 -0.02,0.32 0.35,0.46 0.6,0.35 0.65,0.35 1.29,0.73 1.94,1.09 0.14,0.07 0.36,0.23 0.6,0.35 -0.24,0.16 -0.46,0.34 -0.69,0.56l-0.22 0.23c-0.33,-0.33 -0.88,-0.56 -1.18,-0.73 -0.83,-0.49 -1.68,-1.02 -2.58,-1.4 -0.38,-0.16 -0.84,0.33 -0.46,0.63 0.62,0.47 1.33,0.84 2,1.23 0.38,0.22 0.76,0.44 1.13,0.67 0.14,0.09 0.28,0.18 0.42,0.27l0.12 0.09c-0.1,0.16 -0.19,0.33 -0.28,0.5 -0.21,-0.17 -0.45,-0.31 -0.63,-0.43 -0.61,-0.43 -1.28,-0.82 -2,-1.03 -0.43,-0.12 -0.69,0.53 -0.29,0.73 0.55,0.27 1.06,0.6 1.56,0.94 0.25,0.17 0.49,0.36 0.73,0.56l0.18 0.16c-0.12,0.28 -0.22,0.55 -0.32,0.81 -0.39,1.04 -1,1.97 -1.64,2.87 -0.41,-0.25 -0.85,-0.49 -1.29,-0.71 -0.45,-0.22 -0.82,0.45 -0.37,0.68 0.4,0.21 0.78,0.49 1.2,0.68 -0.19,0.27 -0.39,0.53 -0.57,0.8 -0.25,0.37 0.35,0.81 0.63,0.46 0.85,-1.09 1.64,-2.22 2.33,-3.42 0.9,-1.58 1.39,-3.53 2.97,-4.6 0.96,-0.65 1.73,-0.93 2.15,-2.09 0.34,-0.93 0.57,-1.77 1.19,-2.56 0.68,0.32 1.36,0.62 2.04,0.95 0.41,0.2 0.87,-0.36 0.49,-0.67 -0.56,-0.45 -1.26,-0.75 -1.95,-0.98 0.17,-0.2 0.33,-0.39 0.48,-0.6l0.18 -0.13c0.16,-0.2 0.47,-0.63 0.85,-1.13 0.29,0.21 0.58,0.49 0.95,0.55 0.18,0.03 0.35,-0.03 0.44,-0.19 0.1,-0.18 0.04,-0.45 -0.15,-0.54 -0.27,-0.12 -0.52,-0.27 -0.77,-0.43 0.14,-0.18 0.28,-0.36 0.43,-0.54l0.02 0.02c0.6,0.33 1.2,0.64 1.83,0.9 0.34,0.14 0.96,0.44 1.2,-0.02 0.15,-0.28 -0.06,-0.54 -0.3,-0.58l-0.07 -0 -0.02 -0 -0.26 0.12 0.2 -0.14 -0.18 -0.06c-0.2,-0.07 -0.4,-0.16 -0.6,-0.25 -0.44,-0.2 -0.88,-0.4 -1.31,-0.59 0.8,-0.88 1.61,-1.52 2.12,-1.21 0.71,0.43 1.45,0.14 2.16,-0.2 -0.37,0.51 -0.75,1.05 -0.74,1.49 0.04,1.65 0.31,2.71 -0.46,4.28 -0.57,1.17 -1.64,1.85 -2.48,2.77 -0.59,0.65 -0.98,1.49 -1.38,2.27 -0.62,1.21 -1.25,1.9 -2.55,2.33 -0.74,0.25 -1.45,0.49 -2.15,0.83 -0.56,0.27 -1.13,0.72 -1.49,1.24 -0.64,0.9 -0.45,1.05 -1.57,1.05 -0.47,0 -0.52,0.68 -0.09,0.8 0.51,0.15 0.66,0.14 1.24,0.22 0.21,0.03 0.46,-0.03 0.56,-0.24 0.92,-2.15 2.73,-2.43 4.71,-3.17 0.31,-0.11 0.58,-0.28 0.82,-0.49 0.5,0.19 0.99,0.42 1.49,0.59 0.44,0.15 0.69,-0.54 0.29,-0.75 -0.38,-0.19 -0.77,-0.37 -1.17,-0.51 0.11,-0.15 0.21,-0.3 0.31,-0.46 0.88,0.47 1.84,0.83 2.76,1.21 0.48,0.2 0.84,-0.42 0.39,-0.71 -0.82,-0.53 -1.77,-0.95 -2.72,-1.28 0.08,-0.15 0.16,-0.31 0.24,-0.46 1.37,0.61 2.73,1.28 4.14,1.75 0.45,0.15 0.67,-0.52 0.29,-0.74 -1.22,-0.72 -2.65,-1.38 -4.04,-1.79l0.15 -0.27c0.1,-0.18 0.22,-0.35 0.34,-0.51 1.76,1 3.77,1.77 5.62,2.55 0.47,0.2 0.86,-0.48 0.39,-0.7 -1.06,-0.5 -2.12,-1.03 -3.18,-1.54 -0.68,-0.33 -1.42,-0.75 -2.17,-1.03 0.16,-0.15 0.32,-0.3 0.48,-0.46 1.68,0.88 3.5,1.51 5.29,2.13 0.49,0.17 0.65,-0.58 0.19,-0.76 -1.62,-0.64 -3.23,-1.31 -4.84,-1.98l0.32 -0.35 0.26 -0.36c3.27,1.11 6.38,2.53 9.58,3.82 0.46,0.18 0.85,-0.48 0.38,-0.69 -3.12,-1.35 -6.21,-3.03 -9.52,-3.87 0.12,-0.24 0.22,-0.48 0.32,-0.72 2.22,0.93 4.46,1.79 6.69,2.69 0.48,0.19 0.88,-0.5 0.39,-0.71 -2.25,-0.97 -4.52,-1.88 -6.81,-2.73 0.06,-0.2 0.1,-0.41 0.12,-0.62 1.7,0.74 3.49,1.29 5.22,1.96 0.44,0.17 0.73,-0.57 0.3,-0.77 -1.76,-0.81 -3.63,-1.39 -5.46,-2.05 0,-0.2 -0.01,-0.4 -0.02,-0.6 1.17,0.47 2.38,0.91 3.6,1.22 0.43,0.11 0.72,-0.56 0.29,-0.74 -1.25,-0.54 -2.59,-0.97 -3.9,-1.33l-0.04 -0c0.01,-0.18 0.06,-0.37 0.12,-0.56 0.74,0.35 1.53,0.67 2.32,0.85 0.52,0.12 0.69,-0.62 0.2,-0.79 -0.74,-0.25 -1.48,-0.52 -2.2,-0.81 0.13,-0.26 0.26,-0.51 0.36,-0.75 1.15,1.03 2.73,1.42 3.98,2.36 1.88,1.42 3.83,2.44 5.85,3.59l-0.04 0.12c-0.07,0.27 0.07,0.54 0.3,0.68 1.08,0.66 2.19,1.27 3.33,1.83 0.36,0.18 0.83,0.45 1.3,0.58 -0.17,0.28 -0.34,0.58 -0.47,0.88 -0.07,0.17 -0.13,0.33 -0.18,0.49 -0.84,-0.32 -1.66,-0.71 -2.51,-1.01 -0.41,-0.15 -0.69,0.55 -0.28,0.71 0.86,0.35 1.7,0.86 2.6,1.09 -0.03,0.16 -0.07,0.32 -0.1,0.48 -0.3,-0.12 -0.61,-0.22 -0.9,-0.32 -0.36,-0.13 -0.73,-0.24 -1.1,-0.34 -0.5,-0.13 -0.65,0.59 -0.19,0.76 0.64,0.24 1.27,0.51 1.92,0.75 -0.08,0.17 -0.17,0.34 -0.29,0.5 -1.14,-0.26 -2.3,-0.5 -3.44,-0.73 -0.53,-0.1 -0.71,0.65 -0.2,0.81 0.57,0.18 1.14,0.32 1.72,0.45 0.6,0.14 1.37,0.42 2.02,0.34l0.31 -0.07c0.8,-0.58 1.12,-1.29 1.33,-2.24 0.14,-0.65 0.25,-1.24 0.57,-1.84 0.18,-0.34 0.39,-0.65 0.59,-0.97 0.2,-0.17 0.36,-0.4 0.53,-0.65 0.86,-1.24 1.42,-1.76 2.85,-2.07 0.11,-0.02 0.49,-0.16 0.96,-0.34 0.01,0.54 0.01,1.03 -0.08,1.59 -0.08,0.49 0.63,0.68 0.75,0.19l0.06 -0.34c1.43,0.45 2.88,1.06 4.38,1.16 0.48,0.03 0.52,-0.69 0.09,-0.81 -1.44,-0.4 -2.9,-0.91 -4.37,-1.17 0.01,-0.21 0.02,-0.43 0.03,-0.65 0.44,-0.2 0.85,-0.47 1.26,-0.73 0.3,-0.1 0.5,-0.15 0.52,-0.13 0.32,0.59 0.57,0.74 1.16,0.73 1.01,0.37 2.02,0.74 3.03,1.09 0.48,0.17 0.65,-0.58 0.19,-0.75 -0.63,-0.23 -1.26,-0.46 -1.89,-0.68 0.32,-0.15 0.62,-0.31 0.9,-0.44 1.06,-0.49 1.97,-0.29 3.08,-0.3 0.45,1.33 0.82,2.7 1.12,4.09 -0.46,-0.17 -0.99,-0.25 -1.44,-0.36 -0.73,-0.18 -1.68,-0.52 -2.43,-0.33 -0.4,0.1 -0.38,0.73 0.02,0.81 0.73,0.14 1.45,0.27 2.18,0.45 0.37,0.09 0.74,0.19 1.1,0.29l0.39 0.1c0.05,0.01 0.31,0.09 0.14,0.02l0.1 0.04 0.15 0.01c0.14,0.73 0.26,1.47 0.36,2.21 -2.86,-1.05 -5.86,-1.99 -8.81,-2.69 -0.5,-0.12 -0.65,0.59 -0.19,0.75 2.99,1.09 6.07,2.05 9.12,2.97 0.04,0.39 0.08,0.79 0.11,1.18 -1.92,-0.64 -3.87,-1.2 -5.79,-1.85 -0.41,-0.14 -0.68,0.54 -0.28,0.72 1.96,0.86 4.06,1.48 6.13,2.03 0.03,0.44 0.05,0.89 0.06,1.34l-0.02 -0.01c-1.42,-0.49 -2.82,-1.28 -4.33,-1.43 -0.46,-0.04 -0.51,0.68 -0.09,0.78 1.17,0.29 2.28,1.07 3.46,1.41 -0.25,0.12 -0.51,0.23 -0.78,0.31 -0.39,-0.23 -0.89,-0.37 -1.24,-0.54 -0.57,-0.26 -1.26,-0.51 -1.79,-0.74 -0.46,-0.2 -0.85,0.47 -0.39,0.7 0.52,0.26 1.03,0.54 1.55,0.79 -0.48,-0.01 -0.96,-0.01 -1.42,0.1 -0.73,0.18 -1.22,0.53 -1.8,1 -0.24,0.19 -0.56,0.31 -0.92,0.39 0.03,-0.15 0.02,-0.29 -0,-0.44 -0.03,-0.18 -0.11,-0.33 -0.3,-0.38 -0.2,-0.05 -0.45,0.08 -0.48,0.29 -0.04,0.22 -0.07,0.44 -0.08,0.66 -0.43,0.04 -0.85,0.05 -1.23,0.07l-0.06 -0.27c-0.15,-0.41 -0.65,-0.36 -0.8,0.02l-0.06 0.35c-0.32,0.04 -0.65,0.09 -0.97,0.14 0.02,-0.33 -0.43,-0.59 -0.69,-0.3 -0.12,0.14 -0.17,0.29 -0.18,0.46l-0.31 0.06 -0.03 -0.33c-0.02,-0.22 -0.18,-0.39 -0.41,-0.39 -0.23,0 -0.37,0.19 -0.39,0.41 -0.02,0.16 -0.04,0.33 -0.05,0.5l-0 0 -0.1 -0.35c-0.2,-0.4 -0.86,-0.1 -0.72,0.32l-0.01 0.22c-0.49,0.12 -0.98,0.25 -1.46,0.38 -2.24,0.59 -4.07,1.66 -6.39,0.76 -0.43,-0.16 -0.65,0.51 -0.28,0.72l0.07 0.04c-0.05,0.13 -0.05,0.3 0.05,0.51 0.17,0.36 0.05,1.01 0.05,1.39 0.01,0.48 0.02,0.96 0.03,1.44 0.01,0.51 0.77,0.48 0.79,-0.02 0.01,-0.48 0.03,-0.96 0.03,-1.44 0,-0.4 -0.11,-1.03 0.07,-1.4l0.01 -0.04c0.16,0.04 0.32,0.07 0.48,0.1l-0.01 0.06c-0.02,0.28 -0.04,0.53 0.01,0.81 0.07,0.4 0.71,0.36 0.78,-0.02 0.05,-0.28 0.03,-0.54 0.01,-0.82 0.18,-0 0.35,-0.02 0.53,-0.05 -0.02,0.45 0.02,0.92 0.07,1.34 0.06,0.43 0.76,0.6 0.83,0.09 0.07,-0.53 0.13,-1.1 0.07,-1.64 0.24,-0.06 0.48,-0.14 0.73,-0.22 0.68,-0.23 1.35,-0.43 2.03,-0.63 0,0.69 0.04,1.38 0.06,2.07 0.02,0.5 0.76,0.48 0.77,-0.02 0.02,-0.74 -0.05,-1.47 -0.06,-2.21l-0.01 -0.05c0.17,-0.05 0.35,-0.1 0.52,-0.14 -0.03,0.55 -0.01,1.11 0.02,1.66 0.03,0.53 0.78,0.5 0.81,-0.02 0.04,-0.61 0.06,-1.23 0.01,-1.84 0.78,-0.19 1.56,-0.35 2.35,-0.5l-0.01 0.03c-0.08,0.94 -0.06,1.9 -0.01,2.84 0.03,0.52 0.77,0.49 0.8,-0.02 0.05,-0.94 0.08,-1.9 -0.01,-2.84l-0.04 -0.14c0.15,-0.02 0.31,-0.03 0.48,-0.04l0.01 0.04c0.18,0.51 0.06,1.08 0.14,1.61 0.06,0.4 0.71,0.57 0.79,0.08 0.09,-0.57 -0.03,-1.18 0.16,-1.72l0.01 -0.08c0.78,-0.04 1.59,-0.12 2.26,-0.36 -0.02,0.58 0.02,1.16 0.05,1.73 0.03,0.52 0.78,0.49 0.81,-0.02 0.04,-0.73 0.09,-1.48 0.01,-2.21l0.03 -0.03c-0,0.36 0.02,0.72 0.05,1.07 0.04,0.53 0.77,0.49 0.81,-0.02 0.04,-0.52 0.07,-1.05 0.01,-1.57l0.33 -0.11c-0.02,0.35 0,0.7 0.03,1.04 0.05,0.53 0.76,0.49 0.8,-0.02 0.04,-0.39 0.06,-0.78 0.02,-1.17 0.54,-0.04 1.12,0.01 1.77,-0 0.81,-0.01 1.52,-0.58 2.3,-0.7 -0.01,0.93 -0.05,1.85 -0.13,2.76l-0.29 0.21c0.02,-0.34 0,-0.68 -0.06,-1.02 -0.07,-0.38 -0.69,-0.35 -0.75,0.02 -0.08,0.44 -0.07,0.9 -0.03,1.34l0.01 0.03 -0.35 0.09 0.01 -0.3c-0,-0.15 -0.02,-0.33 -0,-0.49 0.31,-0.35 -0.02,-0.92 -0.46,-0.91 -0.45,0.01 -0.71,0.57 -0.43,0.91l-0 0.41c-0,0.16 0.01,0.31 0.02,0.47l-0.4 -0.01c0.04,-0.62 0.06,-1.25 -0.06,-1.84 -0.09,-0.4 -0.69,-0.35 -0.77,0.02 -0.16,0.74 -0.08,1.55 -0.03,2.31l-0.25 0.21c-0.64,0.39 -1.54,0.45 -2.24,0.69l-0.17 0.11 -0.08 0.02c-0.24,0.09 -0.48,0.16 -0.72,0.24 -0,-0.53 -0.03,-1.07 -0.07,-1.6 -0.04,-0.52 -0.77,-0.49 -0.8,0.02 -0.04,0.64 -0.08,1.28 -0.06,1.92 -0.16,0.08 -0.32,0.16 -0.47,0.26l-0.17 0.33 -0.17 0.1c-0.23,0.27 -0.52,0.43 -0.8,0.63 -0.41,0.3 -0.04,0.88 0.41,0.66 0.37,-0.18 0.71,-0.43 0.97,-0.74l0.1 -0.3 0.06 -0.02c0.18,-0.1 0.37,-0.19 0.57,-0.27l0.27 -0.11c0.36,-0.13 0.73,-0.25 1.09,-0.39l0.16 -0.11 0.1 -0c0.8,-0.21 1.61,-0.33 2.39,-0.61 0.27,-0.1 0.57,-0.27 0.77,-0.49 0.2,-0.22 0.73,-0.14 1.02,-0.17 0.5,-0.05 1.07,-0.17 1.57,-0.39 -0.25,2.27 -0.7,4.49 -1.31,6.63l-0.13 0.03c-1.13,0.37 -2.49,0.8 -3.56,1.33 -1.55,0.77 -2.91,1.72 -4.66,2.04 -0.53,0.09 -0.28,0.89 0.24,0.8 1.36,-0.24 2.45,-0.85 3.66,-1.47 1.24,-0.64 2.66,-0.97 4.02,-1.34 -0.6,1.84 -1.34,3.63 -2.19,5.35 -0.75,0.29 -1.46,0.63 -2.24,0.86 -1.13,0.34 -2.35,0.43 -3.51,0.6 -0.49,0.07 -0.5,0.77 0.02,0.78 1.42,0.02 3.32,-0.06 4.86,-0.58 -6.92,12.5 -20.25,20.99 -35.48,20.99l-0.23 0c-10.83,-0.06 -20.98,-4.33 -28.6,-12.03 -4.74,-4.79 -8.13,-10.55 -10.01,-16.82 0.47,0.2 0.98,0.33 1.48,0.46 1.15,0.28 2.08,0.51 3.08,1.17 0.32,0.21 0.75,-0.16 0.63,-0.51zm33.42 28.87l0.23 0c11.08,0 21.51,-4.31 29.38,-12.12 7.14,-7.1 11.4,-16.35 12.16,-26.29l0.02 -0.07 -0.01 -0.18c0.06,-0.92 0.1,-1.85 0.11,-2.78 0.13,-22.98 -18.46,-41.77 -41.44,-41.9l-0.24 0c-22.85,0 -41.54,18.59 -41.67,41.44 -0.06,11.13 4.21,21.62 12.04,29.53 7.83,7.92 18.27,12.31 29.4,12.37z"/>
  <path class="fil0" d="M14.59 63.04l-0.07 -0.28 -0.04 -0.05c-0.12,-0.17 -0.36,-0.2 -0.53,-0.08l-1.19 0.88 0.79 -1.73 -0.04 -0.38 -0.04 -0.06c-0.12,-0.17 -0.36,-0.2 -0.53,-0.08l-2.47 1.82 -0.15 0.25 0.07 0.28 0.04 0.05c0.12,0.17 0.36,0.2 0.53,0.08l1.19 -0.88 -0.79 1.73 0.04 0.38 0.04 0.06 0.3 0.15 0.22 -0.07 2.47 -1.82 0.15 -0.25z"/>
  <path class="fil0" d="M16.82 65.4l-0.05 -0.05 -0.26 -0.12 -0.27 0.1 -2.22 2.12 -0.12 0.27 0.1 0.27 0.05 0.05 0.27 0.12 0.26 -0.1 2.22 -2.12c0.15,-0.14 0.16,-0.38 0.01,-0.53z"/>
  <path class="fil0" d="M19.44 67.89c-0.16,-0.13 -0.4,-0.11 -0.53,0.05l-1.96 2.41 -0.08 0.28 0.14 0.26 1.08 0.88 0.24 0.09 0.29 -0.14 0.04 -0.05 0.08 -0.28 -0.14 -0.25 -0.74 -0.6 1.68 -2.06 0.08 -0.28 -0.14 -0.26 -0.05 -0.04z"/>
  <path class="fil0" d="M27.27 72.85c-0.32,-0.15 -0.65,-0.15 -0.95,-0.01 -0.24,0.11 -0.42,0.3 -0.54,0.54 -0.14,0.31 -0.14,0.63 0,0.94l0.03 0.04 0.13 0.19 0.13 0.17 0.36 0.45 0.14 0.19 0.06 0.1 -0.01 0.19 -0.14 0.13 -0.21 -0c-0.01,-0.01 -0.17,-0.09 -0.65,-0.63 -0.12,-0.13 -0.31,-0.17 -0.47,-0.08l-0.06 0.03 -0.18 0.23 0.03 0.29c0.11,0.19 0.25,0.36 0.42,0.52 0.18,0.16 0.36,0.29 0.56,0.38 0.15,0.07 0.31,0.1 0.46,0.1 0.15,0 0.3,-0.03 0.44,-0.1 0.25,-0.12 0.43,-0.3 0.54,-0.53 0.13,-0.27 0.2,-0.7 -0.18,-1.21 -0.13,-0.16 -0.24,-0.3 -0.34,-0.42l-0.24 -0.29c-0.14,-0.17 -0.12,-0.27 -0.08,-0.36l0.14 -0.14 0.25 0.02c0.05,0.02 0.19,0.11 0.54,0.44 0.12,0.12 0.31,0.14 0.46,0.05l0.06 -0.04 0.17 -0.25 -0.06 -0.29c-0.2,-0.28 -0.47,-0.5 -0.83,-0.66z"/>
  <path class="fil0" d="M31.47 74.51l-0.07 -0.02c-0.2,-0.06 -0.41,0.05 -0.47,0.25l-0.91 2.93c-0.06,0.2 0.05,0.41 0.25,0.47l0.07 0.02 0.11 0.02 0.18 -0.04 0.19 -0.22 0.91 -2.93 -0.03 -0.29 -0.22 -0.19z"/>
  <path class="fil0" d="M36.55 75.68l-0.07 -0.01 -0.28 0.06 -0.16 0.24 -0.26 1.45 -0.62 -1.8 -0.29 -0.25 -0.07 -0.01c-0.21,-0.04 -0.4,0.1 -0.44,0.31l-0.53 3.02 0.06 0.28 0.24 0.16 0.07 0.01c0.21,0.03 0.4,-0.1 0.44,-0.31l0.26 -1.45 0.62 1.8 0.29 0.25 0.07 0.01 0.07 0 0.22 -0.07 0.16 -0.24 0.53 -3.02c0.04,-0.21 -0.1,-0.4 -0.31,-0.44z"/>
  <path class="fil0" d="M40.68 76.01l-1.39 -0.07 -0.27 0.1 -0.13 0.26 -0.15 3.13 0.1 0.27 0.26 0.12 1.39 0.07 0.02 0 0.25 -0.1 0.12 -0.26 0 -0.06c0.01,-0.21 -0.15,-0.39 -0.36,-0.4l-0.95 -0.05 0.04 -0.88 0.61 0.03 0.27 -0.1 0.12 -0.26 0 -0.07c0.01,-0.21 -0.15,-0.39 -0.36,-0.39l-0.61 -0.03 0.03 -0.54 0.95 0.05 0.27 -0.1 0.13 -0.26 0 -0.07c0.01,-0.21 -0.15,-0.38 -0.36,-0.4z"/>
  <path class="fil0" d="M49.99 75.46c-0.04,-0.2 -0.24,-0.34 -0.45,-0.3l-0.07 0.02 -0.24 0.16 -0.06 0.28 0.3 1.45 -1.24 -1.44 -0.36 -0.13 -0.07 0.02c-0.2,0.04 -0.34,0.24 -0.29,0.45l0.62 3.01 0.16 0.24 0.21 0.06 0.08 -0.01 0.07 -0.01c0.2,-0.04 0.33,-0.24 0.29,-0.45l-0.3 -1.45 1.24 1.44 0.36 0.12 0.07 -0.01c0.2,-0.04 0.34,-0.24 0.29,-0.45l-0.62 -3.01z"/>
  <path class="fil0" d="M54.19 74.14l-0.19 -0.22 -0.29 -0.02 -0.06 0.02c-0.2,0.07 -0.3,0.28 -0.23,0.48l0.72 2.1 -0.02 0.34 -0.25 0.22 -0.34 -0.02 -0.22 -0.25 -0.72 -2.1 -0.19 -0.22 -0.29 -0.02 -0.06 0.02c-0.2,0.07 -0.3,0.28 -0.23,0.48l0.72 2.1c0.11,0.32 0.33,0.58 0.64,0.73 0.18,0.09 0.36,0.13 0.55,0.13 0.14,0 0.28,-0.03 0.42,-0.07 0.33,-0.11 0.57,-0.33 0.73,-0.64 0.15,-0.31 0.17,-0.64 0.06,-0.97l-0.72 -2.1z"/>
  <path class="fil0" d="M58.34 72.22c-0.09,-0.18 -0.32,-0.26 -0.51,-0.17l-0.07 0.03 -0.21 0.31 -0.1 1.28 -1.08 -0.7 -0.37 -0.02 -0.07 0.03c-0.19,0.09 -0.26,0.32 -0.17,0.5l1.36 2.76 0.22 0.19 0.12 0.02 0.17 -0.04 0.06 -0.03c0.19,-0.09 0.26,-0.32 0.17,-0.5l-0.7 -1.42 0.47 0.3 0.37 0.02 0.21 -0.31 0.05 -0.55 0.7 1.42 0.22 0.19 0.29 -0.02 0.06 -0.03c0.19,-0.09 0.26,-0.32 0.17,-0.51l-1.36 -2.75z"/>
  <path class="fil0" d="M61.22 70.44l-0.24 -0.16 -0.29 0.06 -0.06 0.04c-0.17,0.12 -0.22,0.35 -0.11,0.52l1.7 2.56 0.24 0.16 0.08 0.01 0.21 -0.06 0.06 -0.04c0.17,-0.12 0.22,-0.35 0.1,-0.52l-1.7 -2.56z"/>
  <path class="fil0" d="M65.34 67.18l-0.26 -0.13 -0.27 0.09 -0.05 0.04c-0.16,0.14 -0.18,0.37 -0.04,0.53l0.96 1.12 -1.78 -0.66 -0.38 0.07 -0.05 0.05 -0.13 0.26 0.09 0.28 2 2.33 0.29 0.13 0.25 -0.09 0.05 -0.04 0.13 -0.26 -0.09 -0.28 -0.97 -1.12 1.79 0.66 0.38 -0.07 0.05 -0.05c0.16,-0.13 0.17,-0.37 0.04,-0.53l-2 -2.33z"/>
  <path class="fil0" d="M70.5 66.16c-0.15,-0.14 -0.39,-0.13 -0.53,0.03l-0.64 0.71 -0.65 -0.59 0.41 -0.46 0.1 -0.27 -0.13 -0.26 -0.05 -0.04c-0.15,-0.14 -0.39,-0.12 -0.53,0.03l-0.41 0.46 -0.4 -0.36 0.64 -0.71c0.14,-0.15 0.13,-0.39 -0.03,-0.53l-0.05 -0.04 -0.27 -0.1 -0.26 0.13 -0.93 1.04 -0.1 0.27 0.12 0.26 2.33 2.1 0.25 0.1 0.02 0 0.26 -0.12 0.94 -1.04 0.1 -0.27 -0.13 -0.26 -0.05 -0.04z"/>
  <path class="fil0" d="M20.68 17.4c0.32,0.4 0.69,0.63 1.11,0.68l0.16 0.01c0.36,0 0.72,-0.14 1.07,-0.41l0.58 -0.46c0.16,-0.13 0.19,-0.37 0.06,-0.53l-0.06 -0.08 -0.25 -0.14 -0.28 0.08 -0.58 0.46c-0.22,0.17 -0.41,0.25 -0.61,0.23 -0.19,-0.02 -0.37,-0.14 -0.54,-0.36l-1.24 -1.56c-0.17,-0.22 -0.25,-0.42 -0.22,-0.61 0.02,-0.19 0.14,-0.37 0.36,-0.54l0.58 -0.46c0.16,-0.13 0.19,-0.37 0.06,-0.53l-0.06 -0.08 -0.25 -0.14 -0.28 0.08 -0.58 0.46c-0.4,0.32 -0.63,0.69 -0.68,1.11 -0.05,0.42 0.09,0.84 0.4,1.24l1.24 1.56z"/>
  <path class="fil0" d="M25.52 11.02c0.07,-0.22 0.2,-0.37 0.41,-0.48l0.36 -0.09 0.26 0.04c0.22,0.07 0.37,0.2 0.47,0.41l0.9 1.77c0.11,0.21 0.12,0.41 0.05,0.63 -0.07,0.22 -0.2,0.37 -0.41,0.47 -0.21,0.1 -0.41,0.12 -0.63,0.05 -0.22,-0.07 -0.37,-0.2 -0.48,-0.41l-0.9 -1.77c-0.11,-0.21 -0.12,-0.41 -0.05,-0.62zm0.19 2.78c0.21,0.41 0.54,0.69 0.97,0.83 0.17,0.06 0.35,0.09 0.52,0.09 0.26,0 0.51,-0.06 0.76,-0.19 0.41,-0.21 0.69,-0.54 0.83,-0.97 0.14,-0.44 0.11,-0.87 -0.1,-1.27l-0.9 -1.78c-0.21,-0.41 -0.54,-0.69 -0.97,-0.83 -0.43,-0.14 -0.87,-0.11 -1.28,0.1 -0.41,0.21 -0.69,0.54 -0.83,0.97 -0.14,0.44 -0.11,0.86 0.1,1.28l0.9 1.78z"/>
  <path class="fil0" d="M32.15 12.36c0.05,0.17 0.2,0.28 0.37,0.28l0.1 -0.01 1.97 -0.54 0.23 -0.17 0.04 -0.29 -0.03 -0.09c-0.06,-0.2 -0.26,-0.32 -0.46,-0.26l-1.51 0.41 -1.08 -3.91 -0.18 -0.23 -0.29 -0.04 -0.09 0.03c-0.2,0.06 -0.32,0.26 -0.26,0.46l1.2 4.37z"/>
  <path class="fil0" d="M38.76 7.14c0.15,-0.17 0.33,-0.26 0.56,-0.27l0.07 -0c0.2,0 0.37,0.07 0.53,0.2 0.17,0.15 0.26,0.33 0.28,0.56l0.13 1.99c0.02,0.23 -0.05,0.42 -0.2,0.6 -0.15,0.17 -0.33,0.26 -0.56,0.28 -0.23,0.01 -0.42,-0.05 -0.6,-0.2 -0.17,-0.15 -0.26,-0.33 -0.28,-0.56l-0.13 -1.99c-0.02,-0.23 0.05,-0.42 0.2,-0.59zm-0.35 3.78c0.31,0.27 0.68,0.41 1.09,0.41l0.13 -0c0.46,-0.03 0.84,-0.22 1.15,-0.57 0.3,-0.35 0.44,-0.75 0.41,-1.21l-0.13 -1.99c-0.03,-0.46 -0.22,-0.84 -0.57,-1.15 -0.35,-0.31 -0.75,-0.44 -1.21,-0.41 -0.46,0.03 -0.85,0.22 -1.15,0.57 -0.3,0.34 -0.44,0.75 -0.41,1.21l0.13 1.99c0.03,0.46 0.22,0.84 0.56,1.15z"/>
  <path class="fil0" d="M45.46 6.98l0.75 0.1c0.25,0.03 0.43,0.11 0.57,0.23 0.11,0.1 0.25,0.28 0.19,0.69 -0.05,0.42 -0.24,0.56 -0.36,0.62 -0.12,0.06 -0.25,0.09 -0.41,0.09l-0.2 -0.02 -0.75 -0.1 0.21 -1.62zm-1.05 4.33l0.09 0.01c0.21,0.03 0.4,-0.12 0.43,-0.32l0.2 -1.55 0.75 0.1 0.06 0.01 0.63 1.85c0.05,0.16 0.2,0.26 0.36,0.26l0.11 -0.02 0.09 -0.03 0.23 -0.19 0.02 -0.29 -0.56 -1.66c0.56,-0.19 0.91,-0.66 1,-1.35 0.1,-0.76 -0.2,-1.2 -0.47,-1.44 -0.27,-0.24 -0.62,-0.39 -1.03,-0.45l-1.22 -0.16c-0.21,-0.03 -0.4,0.12 -0.42,0.33l-0.59 4.49 0.08 0.28 0.25 0.14z"/>
  <path class="fil0" d="M52.76 9.56l-0.01 1.53 -0.92 -0.32 0.93 -1.22zm-2.61 2.81c0.16,0.12 0.4,0.08 0.52,-0.08l0.61 -0.79 1.46 0.5 -0.01 1c-0,0.2 0.16,0.37 0.36,0.38l0.1 0.01 0.02 0 0.26 -0.11 0.12 -0.27 0.05 -4.71c0,-0.16 -0.1,-0.31 -0.26,-0.36l-0.1 -0.03c-0.15,-0.05 -0.32,0 -0.42,0.13l-2.86 3.73 -0.07 0.29 0.15 0.25 0.08 0.06z"/>
  <path class="fil0" d="M58.7 11.2l0.6 0.35c0.18,0.11 0.31,0.28 0.4,0.52 0.1,0.28 0.08,0.52 -0.07,0.77l-0.89 1.5c-0.14,0.24 -0.35,0.38 -0.64,0.43 -0.25,0.04 -0.47,0.01 -0.65,-0.09l-0.6 -0.35 1.84 -3.12zm-2.69 3.61l1.01 0.59c0.26,0.15 0.56,0.23 0.88,0.23l0.34 -0.03c0.55,-0.08 0.97,-0.37 1.24,-0.83l0.89 -1.5c0.28,-0.47 0.32,-0.97 0.13,-1.49 -0.16,-0.44 -0.41,-0.76 -0.77,-0.97l-1.01 -0.6 -0.29 -0.04 -0.23 0.18 -2.33 3.94c-0.11,0.18 -0.05,0.41 0.13,0.52z"/>
  <path class="fil0" d="M62.54 17.28l1.33 -1.48c0.16,-0.17 0.33,-0.26 0.56,-0.27l0.05 -0c0.21,0 0.38,0.07 0.54,0.21 0.17,0.15 0.26,0.33 0.27,0.56 0.01,0.23 -0.05,0.42 -0.21,0.59l-1.33 1.48c-0.16,0.17 -0.34,0.26 -0.57,0.27l-0.05 0c-0.2,0 -0.38,-0.07 -0.53,-0.21 -0.17,-0.16 -0.26,-0.33 -0.27,-0.57 -0.01,-0.23 0.06,-0.41 0.21,-0.59zm-1.06 0.63c0.02,0.46 0.21,0.85 0.56,1.16 0.32,0.29 0.69,0.43 1.11,0.43l0.1 -0c0.46,-0.02 0.85,-0.21 1.16,-0.55l1.33 -1.48c0.31,-0.34 0.45,-0.75 0.43,-1.2 -0.02,-0.46 -0.21,-0.85 -0.55,-1.16 -0.34,-0.31 -0.75,-0.45 -1.21,-0.43 -0.46,0.02 -0.85,0.21 -1.15,0.55l-1.33 1.48c-0.31,0.34 -0.45,0.75 -0.43,1.21z"/>
  <path class="fil0" d="M25.01 47.2c3.35,0.67 6.91,0.71 10.36,0.59 -0.14,0.94 -0.05,1.94 0,2.89 0.03,0.51 0.77,0.48 0.79,-0.02 0.05,-0.95 0.14,-1.95 -0.01,-2.9 0.26,-0.01 0.51,-0.02 0.77,-0.03 0.79,-0.04 1.71,-0.07 2.59,-0.22 -0.05,0.52 -0,1.06 0.02,1.57 0.02,0.51 0.76,0.48 0.79,-0.02 0.03,-0.56 0.08,-1.16 -0,-1.72 0.35,-0.1 0.68,-0.23 0.97,-0.39 0.38,-0.21 0.45,-0.23 0.59,-0.17 -0.05,0.62 -0.09,1.28 -0,1.88 0.06,0.42 0.74,0.59 0.81,0.09 0.09,-0.58 0.07,-1.19 0.03,-1.78 0.43,-0.03 0.8,-0.31 1.11,-0.61l0.12 0.07c0.25,0.14 0.51,-0.01 0.6,-0.26l0.03 -0.05c0.74,0.3 1.83,0.38 2.86,0.28 -0.05,0.77 0.05,1.58 0.09,2.31 0.03,0.52 0.77,0.49 0.79,-0.02 0.04,-0.78 0.15,-1.64 0.07,-2.44 0.6,-0.13 1.14,-0.32 1.51,-0.57 -0.03,0.02 0.09,0.11 0.27,0.19 -0.08,0.44 -0.07,0.93 -0,1.37 0.03,0.18 0.12,0.33 0.3,0.38 0.2,0.05 0.45,-0.08 0.49,-0.29 0.06,-0.42 0.08,-0.87 0.03,-1.3 0.16,-0.02 0.32,-0.09 0.45,-0.22 -0.02,0.52 -0.02,1.05 0.02,1.57 0.04,0.51 0.75,0.48 0.79,-0.02 0.04,-0.59 0.04,-1.17 0.01,-1.76l0.29 -0.04 0.23 -0.14c-0.04,0.65 0.02,1.32 0.05,1.96 0.02,0.52 0.77,0.49 0.8,-0.02 0.03,-0.59 0.08,-1.2 0.05,-1.8 0.2,0.08 0.41,0.14 0.62,0.2 -0.15,0.99 -0.08,2.13 0.03,3.09 0.05,0.42 0.75,0.58 0.81,0.09 0.1,-0.92 0.17,-2 0.06,-2.96 0.24,0.05 0.48,0.1 0.71,0.17 0.51,0.14 0.67,-0.61 0.19,-0.78 -0.21,-0.08 -0.43,-0.13 -0.64,-0.19 0.45,-0.34 0.87,-0.71 1.33,-1.06 0.51,-0.39 1.64,-0.11 2.22,-0.11 0.46,-0 0.88,-0.22 1.27,-0.44 0.92,-0.51 1.45,-1.04 2.56,-1.17 0.5,-0.06 0.5,-0.83 -0.02,-0.8 -0.56,0.04 -1.32,-0.11 -1.81,0.27 -0.8,0.61 -1.3,1.25 -2.42,1.25 -0.61,0 -1.15,-0.11 -1.74,0.07 -0.92,0.28 -1.71,1.22 -2.51,1.72 -0.43,-0.12 -0.85,-0.29 -1.2,-0.59 -0.2,-0.17 -0.5,-0.14 -0.63,0.1 -0.31,0.1 -0.62,0.19 -0.93,0.29l-0.4 0.11c-0.35,0.03 -0.7,0.06 -1.04,0.1 -0.13,-0.12 -0.37,-0.17 -0.52,-0.05 -0.33,0.26 -0.9,0.46 -1.53,0.59l-0.4 0.06c-1.14,0.15 -2.42,0.07 -3.06,-0.31 -0.21,-0.13 -0.45,-0.02 -0.57,0.17l-0.06 0.1c-0.16,-0.09 -0.37,-0.07 -0.5,0.07 -0.26,0.04 -0.51,0.09 -0.77,0.13 0.14,-0.2 0.27,-0.4 0.41,-0.6 0.43,-0.65 0.94,-1.14 1.51,-1.66 0.36,-0.33 -0.12,-0.81 -0.5,-0.62 -0.65,0.32 -1.13,0.88 -1.58,1.44 -0.44,0.55 -0.9,1.12 -1.27,1.72 -1.4,1.44 -5.1,1.05 -6.92,1.05 -0.4,-0 -0.81,-0.01 -1.21,-0.02 0.69,-0.68 1.18,-1.66 1.6,-2.43 0.25,-0.46 -0.4,-0.78 -0.69,-0.38 -0.77,1.07 -1.56,2.35 -2.88,2.76 -0.9,-0.03 -1.8,-0.08 -2.69,-0.14 0.21,-0.34 0.43,-0.84 0.78,-0.99 0.72,-0.29 1.46,-0.18 1.89,-0.95 0.24,-0.43 -0.31,-0.75 -0.65,-0.48 -0.54,0.45 -1.31,0.44 -1.94,0.74 -0.25,0.12 -0.45,0.51 -0.6,0.73 -0.21,0.31 -0.42,0.59 -0.67,0.86 -0.7,-0.06 -1.4,-0.13 -2.11,-0.22 -0.48,-0.06 -0.69,0.65 -0.19,0.75z"/>
  <path class="fil0" d="M68.74 37.28c0.13,-0.29 0.24,-0.59 0.33,-0.89l0.07 0.03c2.22,0.59 4.39,1.3 6.49,2.25 0.47,0.21 0.86,-0.47 0.39,-0.71 -2.1,-1.08 -4.35,-1.9 -6.67,-2.37l-0.02 0c0.11,-0.33 0.24,-0.64 0.41,-0.94 0.87,0.37 1.75,0.74 2.65,1.04 0.43,0.15 0.71,-0.56 0.29,-0.73 -0.81,-0.33 -1.61,-0.67 -2.43,-0.97 0.12,-0.12 0.25,-0.23 0.41,-0.34 0.41,-0.28 0.03,-0.9 -0.41,-0.66 -1.51,0.84 -1.68,2.53 -2.21,4.01 -0.15,0.41 0.54,0.68 0.71,0.28z"/>
  <path class="fil0" d="M75.93 39.98c-1.5,-0.49 -2.95,-1.15 -4.5,-1.48 -0.49,-0.11 -0.68,0.64 -0.19,0.75 1.54,0.36 2.96,1.11 4.5,1.48 0.49,0.12 0.66,-0.6 0.19,-0.75z"/>
  <path class="fil0" d="M48.12 25.99c-0.41,-0.26 -0.95,-0.49 -1.43,-0.57 -0.17,-0.03 -0.35,0.02 -0.43,0.19 -0.09,0.17 -0.04,0.45 0.15,0.53 0.47,0.2 0.94,0.41 1.42,0.59 0.45,0.16 0.65,-0.51 0.29,-0.74z"/>
  <polygon class="fil0" points="47.22,26.87 47.28,26.89 47.36,26.9 "/>
  <path class="fil0" d="M45.91 30.59c0.25,-0.1 0.38,-0.36 0.23,-0.61l-0.17 -0.17 -0.14 -0.09c-0.18,-0.09 -0.35,-0.18 -0.52,-0.27 -0.39,-0.2 -0.79,-0.41 -1.23,-0.5 -0.53,-0.12 -0.69,0.62 -0.2,0.8 0.37,0.14 0.72,0.35 1.06,0.54 0.25,0.13 0.65,0.44 0.96,0.31z"/>
  <path class="fil0" d="M42.42 32.4c0.4,0.23 0.79,0.46 1.2,0.68 0.19,0.11 0.39,0.21 0.58,0.33l0.18 0.1 0.25 0.05c0.34,0.08 0.71,-0.32 0.47,-0.64l-0.06 -0.1 -0.29 -0.24c-0.21,-0.12 -0.43,-0.24 -0.65,-0.36 -0.44,-0.23 -0.89,-0.45 -1.36,-0.6 -0.47,-0.15 -0.72,0.55 -0.31,0.78z"/>
  <path class="fil0" d="M41.28 33.74c0.37,0.18 0.74,0.36 1.12,0.52 0.35,0.15 0.88,0.51 1.28,0.5 0.39,-0.02 0.52,-0.46 0.28,-0.73 -0.24,-0.27 -0.82,-0.39 -1.14,-0.53 -0.41,-0.18 -0.83,-0.34 -1.25,-0.49 -0.42,-0.16 -0.68,0.53 -0.29,0.73z"/>
  <path class="fil0" d="M42.68 34.76c-0.31,-0.15 -0.64,-0.28 -0.98,-0.35 -0.52,-0.11 -0.67,0.61 -0.19,0.78 0.17,0.06 0.47,0.21 0.69,0.31l0.37 0.19 0.22 0.11 0.01 0 0.01 0c0.3,0.19 0.69,-0.14 0.58,-0.47 -0.1,-0.31 -0.43,-0.44 -0.71,-0.57z"/>
  <path class="fil0" d="M30.52 36.2c0.54,0.22 1.03,0.51 1.52,0.84 0.43,0.29 0.84,0.7 1.32,0.9 0.46,0.2 0.93,-0.35 0.54,-0.74 -0.4,-0.39 -0.93,-0.7 -1.4,-1 -0.52,-0.33 -1.08,-0.63 -1.69,-0.74 -0.42,-0.08 -0.72,0.55 -0.29,0.73z"/>
  <path class="fil0" d="M31.18 37.81c-0.4,-0.03 -0.5,0.56 -0.18,0.73 0.31,0.17 0.63,0.31 0.93,0.5 0.36,0.22 0.66,0.53 1.03,0.73 0.38,0.2 0.87,-0.25 0.6,-0.63 -0.49,-0.69 -1.54,-1.28 -2.38,-1.34z"/>
  <path class="fil0" d="M28.45 42.14c0.22,-0.15 0.29,-0.49 0.07,-0.68 -0.18,-0.16 -0.44,-0.24 -0.65,-0.37 -0.26,-0.15 -0.51,-0.29 -0.81,-0.36 -0.4,-0.09 -0.7,0.41 -0.39,0.7 0.39,0.37 1.19,1.11 1.77,0.71z"/>
  <path class="fil0" d="M26.77 39.54c0.76,0.44 1.48,1 2.27,1.38 0.39,0.19 0.85,-0.36 0.47,-0.64 -0.75,-0.56 -1.51,-1.27 -2.43,-1.52 -0.47,-0.13 -0.71,0.54 -0.31,0.78z"/>
  <path class="fil0" d="M27.8 38.27c0.33,0.23 0.65,0.51 1,0.71 0.42,0.24 0.78,-0.32 0.48,-0.65 -0.29,-0.32 -0.72,-0.55 -1.09,-0.75 -0.19,-0.1 -0.44,-0.03 -0.54,0.16 -0.11,0.2 -0.02,0.42 0.16,0.54z"/>
  <path class="fil0" d="M18.7 40.84c-0.72,-0.48 -1.49,-0.96 -2.36,-1.12 -0.41,-0.08 -0.71,0.53 -0.28,0.72 0.78,0.33 1.48,0.76 2.18,1.24 0.61,0.42 1.25,1.04 1.99,1.19 0.41,0.08 0.7,-0.41 0.4,-0.72 -0.53,-0.53 -1.3,-0.9 -1.92,-1.32z"/>
  <path class="fil0" d="M20.09 39.91c-0.15,-0.1 -0.3,-0.21 -0.46,-0.31l-0.23 -0.12 -0.16 -0.05 -0.06 -0.03c-0.38,-0.23 -0.78,0.33 -0.45,0.62l0.03 0.03 0.04 0.07 0.19 0.21c0.15,0.15 0.33,0.27 0.5,0.4 0.29,0.22 0.63,0.58 1.02,0.55 0.29,-0.03 0.51,-0.29 0.42,-0.58 -0.11,-0.38 -0.54,-0.58 -0.84,-0.78z"/>
  <path class="fil0" d="M21.36 38.78c-0.39,-0.25 -0.82,-0.58 -1.27,-0.7 -0.42,-0.1 -0.68,0.42 -0.39,0.71 0.31,0.31 0.76,0.54 1.13,0.78 0.24,0.16 0.55,0.43 0.85,0.47 0.37,0.04 0.67,-0.29 0.47,-0.64 -0.16,-0.28 -0.52,-0.46 -0.78,-0.62z"/>
  <path class="fil0" d="M23.65 35.54c-0.36,-0.24 -0.72,-0.48 -1.11,-0.69 -0.45,-0.23 -0.8,0.32 -0.5,0.68 0.27,0.32 0.67,0.56 1.01,0.8 0.3,0.21 0.82,0.64 1.16,0.28 0.43,-0.45 -0.25,-0.86 -0.57,-1.07z"/>
  <path class="fil0" d="M51.71 40.58c0.47,0.13 0.67,-0.51 0.3,-0.76 -0.66,-0.44 -1.47,-0.78 -2.24,-0.98 -0.4,-0.11 -0.63,0.39 -0.37,0.67 0.59,0.6 1.52,0.86 2.31,1.07z"/>
  <path class="fil0" d="M52.71 39c0.48,0.15 0.65,-0.51 0.3,-0.76 -0.51,-0.36 -1.18,-0.68 -1.78,-0.85 -0.36,-0.11 -0.7,0.44 -0.37,0.68 0.54,0.4 1.21,0.74 1.85,0.93z"/>
  <path class="fil0" d="M65.47 41.81l0.35 -0.07 0.37 -0.16c0.35,-0.17 0.17,-0.81 -0.22,-0.75l-0.4 0.06 -0.34 0.13c-0.5,0.18 -0.28,0.93 0.24,0.79z"/>
  <path class="fil0" d="M68.7 42.92c0.03,-0.14 0.01,-0.26 -0.01,-0.4 -0.06,-0.39 -0.69,-0.35 -0.76,0.02 -0.03,0.14 -0.03,0.26 -0,0.4 0.07,0.4 0.7,0.35 0.77,-0.02z"/>
  <path class="fil0" d="M69.05 42.29c-0.06,0.21 -0.12,0.46 -0.09,0.68 0.04,0.33 0.46,0.57 0.71,0.27 0.24,-0.28 0.24,-0.63 0.15,-0.97 -0.1,-0.4 -0.67,-0.35 -0.77,0.02z"/>
  <path class="fil0" d="M68.92 41.34c-0.14,-0.12 -0.29,-0.16 -0.48,-0.11 -0.21,0.06 -0.3,0.24 -0.28,0.43 -0.01,0.19 0.11,0.38 0.3,0.44l0.28 -0c0.3,-0.1 0.44,-0.53 0.18,-0.75z"/>
  <path class="fil0" d="M70.83 40.5c-0.59,0 -0.56,0.91 0.02,0.91 0.59,0 0.56,-0.91 -0.02,-0.91z"/>
  <path class="fil0" d="M71.26 41.42c-0.1,0.3 -0.09,0.67 0.04,0.95 0.14,0.28 0.59,0.24 0.72,-0.02 0.14,-0.28 0.13,-0.66 0.04,-0.95 -0.13,-0.41 -0.67,-0.36 -0.8,0.02z"/>
  <path class="fil0" d="M72.34 41.78c0.05,0.25 -0.01,0.47 -0.03,0.71 -0.04,0.38 0.49,0.51 0.72,0.28 0.34,-0.34 0.35,-0.94 0.05,-1.32 -0.29,-0.37 -0.82,-0.13 -0.74,0.33z"/>
  <path class="fil0" d="M30.45 34.47c0.09,-0.14 0.07,-0.34 0.08,-0.5l0.03 -0.38c0.03,-0.44 -0.71,-0.52 -0.76,-0.08l-0.05 0.38c-0.02,0.16 -0.07,0.36 -0.02,0.51 0.12,0.32 0.54,0.38 0.72,0.08z"/>
  <path class="fil0" d="M29.47 36.73c0.36,-0.37 0.52,-0.85 0.62,-1.35 0.08,-0.42 -0.52,-0.69 -0.72,-0.28 -0.17,0.34 -0.3,0.72 -0.57,1 -0.41,0.42 0.25,1.06 0.66,0.63z"/>
  <path class="fil0" d="M26.17 49.5c-0.33,0.53 0.55,0.78 0.88,0.84 0.57,0.1 1.32,0.21 1.83,-0.15 0.3,-0.21 0.21,-0.8 -0.22,-0.76 -0.4,0.04 -0.81,0 -1.22,-0.03 -0.18,-0.01 -0.36,-0.04 -0.55,-0.06l-0.24 -0.03c-0.05,-0 -0.19,-0.03 -0.04,0.01l0.01 0.01c-0.16,-0.05 -0.35,0.01 -0.46,0.18z"/>
  <path class="fil0" d="M29.98 49.35c-0.49,0 -0.47,0.76 0.02,0.76 0.49,0 0.47,-0.76 -0.02,-0.76z"/>
  <path class="fil0" d="M33.09 49.07c-0.38,-0.19 -0.76,-0.22 -1.16,-0.04 -0.39,0.18 -0.09,0.85 0.31,0.7 0.17,-0.07 0.28,-0.02 0.45,0.06 0.47,0.22 0.87,-0.48 0.4,-0.72z"/>
  <path class="fil0" d="M68.42 51.52c1.11,-0.43 2.45,-0.52 3.44,-1.23 0.4,-0.29 0.01,-0.93 -0.4,-0.65 -1.01,0.69 -2.34,0.45 -3.36,1.16 -0.35,0.24 -0.12,0.88 0.32,0.72z"/>
  <path class="fil0" d="M9.91 53.74c1.25,0.09 2.75,-0.46 3.63,-1.46 0.01,0.15 0.01,0.29 0.01,0.44 -0.39,0.64 -0.82,1.1 -1.49,1.5 -0.7,0.41 -1.48,0.65 -2.17,1.07 -0.42,0.26 -0.11,0.84 0.34,0.75 1.04,-0.21 2.42,-0.74 3.3,-1.6l-0 0.02c-0.91,1.12 -1.92,2.38 -3.42,2.58 -0.43,0.06 -0.59,0.76 -0.09,0.82 1.22,0.16 2.44,-0.59 3.33,-1.57 -0.04,0.62 -0.01,1.23 0.2,1.81 0.18,0.51 0.83,0.46 1.01,-0.02 0.12,-0.34 0.2,-0.68 0.26,-1.04 0.8,0.68 1.9,1.05 2.96,1.15 0.49,0.05 0.57,-0.76 0.09,-0.86 -0.79,-0.17 -1.58,-0.38 -2.22,-0.89 -0.33,-0.26 -0.54,-0.57 -0.71,-0.91 0,-0.22 -0,-0.44 -0.01,-0.67 0.6,0.52 1.32,0.93 1.99,1.27 0.47,0.24 0.84,-0.43 0.4,-0.72 -0.96,-0.6 -1.76,-1.3 -2.51,-2.1 -0.03,-0.24 -0.05,-0.48 -0.08,-0.72 0.73,0.67 1.65,1.17 2.44,1.46 0.44,0.16 0.7,-0.54 0.3,-0.75 -0.64,-0.33 -1.24,-0.72 -1.8,-1.18 -0.49,-0.41 -0.81,-0.88 -1.13,-1.39l-0 -0.04 0.04 0.03c0.67,0.69 1.53,1.25 2.46,1.51 0.44,0.12 0.71,-0.55 0.3,-0.75 -0.66,-0.32 -1.28,-0.73 -1.83,-1.2 -0.58,-0.49 -0.83,-1.01 -1.14,-1.63l-0.01 -0.14c0.46,0.5 1.05,0.87 1.67,0.96 0.42,0.06 0.76,-0.57 0.3,-0.75 -0.98,-0.39 -1.72,-1.22 -2,-2.24l-0.02 -0.04 0.01 -0.41c0.15,0.24 0.32,0.45 0.53,0.62 0.39,0.33 0.9,-0.2 0.55,-0.57 -0.47,-0.49 -0.8,-1.33 -0.81,-2.03l0.01 -0.07 -0 -0.08 0.02 -0.1c0.12,-0.51 -0.6,-0.67 -0.77,-0.19l-0.05 0.14 -0.01 0.02 -0.02 0.06 -0.1 0.34c-0.27,0.79 -0.79,1.35 -1.39,1.98 -0.31,0.32 0.13,0.89 0.5,0.62 0.23,-0.17 0.45,-0.37 0.65,-0.57l0 0.36 -0.01 0.06 0 0.03c-0.23,0.48 -0.45,0.87 -0.87,1.23 -0.43,0.39 -0.95,0.66 -1.36,1.07 -0.35,0.36 0.12,0.84 0.52,0.64 0.62,-0.3 1.3,-0.75 1.79,-1.31l0.01 0.27 -0.03 0.42c-0.36,0.17 -0.68,0.47 -0.99,0.69 -0.56,0.4 -1.16,0.68 -1.82,0.84 -0.47,0.11 -0.31,0.78 0.13,0.8 0.71,0.03 1.32,-0.26 1.9,-0.63 0.27,-0.17 0.56,-0.36 0.83,-0.58l-0 0.05 -0.01 0.34 -0 0.05 0 0.01c-0.61,1.58 -2.26,1.93 -3.73,2.35 -0.49,0.14 -0.32,0.8 0.13,0.83z"/>
  <path class="fil0" d="M57.38 53.35c-0.01,-0.15 -0.01,-0.31 -0.01,-0.46 0.37,0.25 0.96,0.68 1.43,0.68 0.32,-0 0.49,-0.36 0.34,-0.62 -0.2,-0.34 -0.7,-0.5 -1.03,-0.7 -0.26,-0.15 -0.56,-0.32 -0.78,-0.55l-0.01 -0.22c0.34,0.21 0.71,0.38 1.02,0.5 0.37,0.14 0.69,-0.44 0.37,-0.68 -0.49,-0.37 -1.01,-0.63 -1.47,-1.03l-0.01 -0.12c0.25,0.16 0.53,0.27 0.81,0.21 0.34,-0.07 0.35,-0.49 0.17,-0.7 -0.18,-0.22 -0.51,-0.32 -0.73,-0.51l-0.35 -0.35c-0.03,-0.4 -0.06,-0.8 -0.1,-1.2 -0.05,-0.51 -0.74,-0.48 -0.79,0.02 -0.03,0.34 -0.05,0.68 -0.07,1.01 -0.09,0.19 -0.2,0.34 -0.37,0.5 -0.22,0.19 -0.49,0.33 -0.69,0.55 -0.27,0.3 0.02,0.81 0.42,0.68 0.18,-0.06 0.36,-0.15 0.54,-0.26 -0.15,0.15 -0.29,0.31 -0.46,0.43 -0.31,0.24 -0.68,0.39 -1,0.62 -0.3,0.22 -0.21,0.79 0.22,0.75 0.48,-0.05 0.9,-0.28 1.29,-0.56l0 0.32c-0.19,0.17 -0.37,0.36 -0.56,0.53 -0.31,0.28 -0.7,0.38 -1.06,0.56 -0.4,0.19 -0.13,0.73 0.22,0.75 0.53,0.03 1.02,-0.23 1.43,-0.59l0.01 0.2c-0.21,0.22 -0.42,0.42 -0.69,0.59 -0.49,0.32 -1.08,0.46 -1.57,0.79 -0.32,0.22 -0.2,0.78 0.22,0.75 0.64,-0.04 1.31,-0.29 1.88,-0.68 -0.16,0.2 -0.33,0.37 -0.58,0.55 -0.54,0.4 -1.14,0.69 -1.67,1.09 -0.35,0.25 -0.12,0.92 0.33,0.73 0.54,-0.22 1.45,-0.61 2.15,-1.14l0 0.01c-0.35,0.49 -0.72,0.85 -1.24,1.21 -0.55,0.38 -1.13,0.71 -1.62,1.16 -0.35,0.32 0.12,0.84 0.51,0.62 0.74,-0.41 1.48,-0.81 2.15,-1.32l0.23 -0.18 -0 0.27c-0.39,0.36 -0.77,0.73 -1.19,1.07 -0.56,0.45 -1.32,0.72 -1.81,1.25 -0.23,0.25 -0.07,0.77 0.32,0.72 0.76,-0.1 1.43,-0.66 2.02,-1.12 0.22,-0.17 0.44,-0.37 0.64,-0.57 -0.01,0.16 -0.01,0.33 -0.02,0.5 -0.34,0.37 -0.66,0.72 -1.11,1.02 -0.51,0.34 -1.09,0.64 -1.67,0.84 -0.44,0.15 -0.35,0.83 0.13,0.81 0.82,-0.04 1.56,-0.42 2.22,-0.87l0.34 -0.25c-0.02,0.37 -0.04,0.75 -0.04,1.12l-0.26 0.38c-0.19,0.25 -0.38,0.42 -0.65,0.58 -0.3,0.18 -0.24,0.7 0.12,0.77 0.31,0.06 0.57,-0.05 0.79,-0.24 0.03,0.73 0.1,1.44 0.25,2.12l-0.34 0c-0.67,0.01 -0.64,1.02 0.02,1.03 2,0.04 3.91,0.06 5.8,-0.68 0.22,-0.09 0.37,-0.29 0.33,-0.53 0.68,-0.21 1.38,-0.36 2.06,-0.61 0.58,-0.21 0.3,-1.13 -0.28,-0.92 -0.83,0.3 -1.69,0.46 -2.52,0.76 -0.22,0.08 -0.37,0.29 -0.33,0.52 -1.17,0.35 -2.38,0.41 -3.59,0.42 -0,-0.43 -0.01,-0.86 -0.01,-1.3 0.26,0.17 0.55,0.27 0.82,0.28 0.36,0 0.53,-0.47 0.27,-0.71 -0.2,-0.19 -0.48,-0.3 -0.71,-0.45 -0.14,-0.09 -0.27,-0.21 -0.39,-0.33l-0 -0.22c0.62,0.53 1.4,0.92 2.14,1.07 0.48,0.1 0.81,-0.62 0.32,-0.82 -0.53,-0.22 -1.05,-0.43 -1.53,-0.75 -0.36,-0.24 -0.64,-0.55 -0.93,-0.86 -0,-0.2 -0,-0.4 -0,-0.61l0.21 0.19c0.68,0.61 1.54,1.09 2.38,1.44 0.48,0.2 0.83,-0.42 0.39,-0.71 -1.06,-0.71 -2.14,-1.32 -2.98,-2.28 -0,-0.24 -0,-0.48 -0,-0.72l0.29 0.25c0.6,0.49 1.29,1.02 1.99,1.36 0.47,0.23 0.91,-0.35 0.54,-0.74 -0.46,-0.48 -1.08,-0.81 -1.62,-1.2 -0.44,-0.32 -0.81,-0.7 -1.21,-1.06 -0,-0.25 -0,-0.5 -0.01,-0.75l0.18 0.16c0.33,0.28 0.69,0.53 1.04,0.77 0.29,0.19 0.6,0.44 0.96,0.43 0.34,-0.01 0.49,-0.37 0.35,-0.65 -0.24,-0.47 -1.03,-0.77 -1.44,-1.08 -0.45,-0.34 -0.88,-0.72 -1.13,-1.23 -0,-0.16 -0,-0.32 -0.01,-0.47 0.54,0.44 1.2,0.92 1.86,1.09 0.42,0.11 0.7,-0.43 0.4,-0.72 -0.66,-0.64 -1.74,-0.94 -2.3,-1.7z"/>
  <path class="fil0" d="M60.93 57.27c0.86,0.44 1.93,0.13 2.67,-0.53l-0.02 0.37c-0.34,0.56 -0.83,0.93 -1.57,0.74 -0.47,-0.12 -0.71,0.53 -0.3,0.77 0.54,0.31 1.25,0.25 1.81,-0.05l-0 0.04c-0.28,0.28 -0.5,0.78 -0.94,0.8 -0.41,0.01 -0.58,0.59 -0.19,0.79 0.38,0.19 0.8,0.13 1.14,-0.11 0.02,0.58 0.07,1.16 0.16,1.73 -0.21,0.01 -0.42,0.02 -0.61,0.04 -0.58,0.05 -0.54,0.84 0.02,0.88 0.7,0.05 1.37,0.01 2.01,-0.28 0.51,-0.23 0.15,-0.92 -0.34,-0.87 0.06,-0.41 0.09,-0.83 0.1,-1.25 0.34,0.08 0.71,0.07 1,-0.06 0.41,-0.18 0.35,-0.78 -0.13,-0.79 -0.26,-0.01 -0.51,-0.04 -0.76,-0.12l-0.1 -0.05c-0,-0.25 -0.01,-0.5 -0.02,-0.76 0.82,0.58 2,0.78 2.9,0.56 0.39,-0.09 0.38,-0.72 -0.02,-0.79 -1.22,-0.21 -2.39,-0.28 -2.95,-1.42l-0 -0.07c0.63,0.44 1.41,0.63 2.09,0.39 0.43,-0.15 0.36,-0.84 -0.13,-0.82 -0.94,0.05 -1.51,-0.48 -1.99,-1.14l-0 -0.4c0.46,0.23 0.98,0.38 1.39,0.52 0.48,0.17 0.64,-0.51 0.3,-0.76 -0.54,-0.39 -1.28,-0.5 -1.69,-0.96l-0 -0.37c0.34,0.22 0.73,0.38 1.1,0.47 0.46,0.11 0.68,-0.51 0.29,-0.75 -0.33,-0.2 -0.7,-0.36 -1.01,-0.6 -0.18,-0.14 -0.3,-0.29 -0.4,-0.46 -0,-0.19 -0.01,-0.38 -0.01,-0.57 0.16,0.11 0.33,0.2 0.53,0.25 0.47,0.12 0.68,-0.51 0.3,-0.75 -0.49,-0.31 -0.77,-0.7 -0.9,-1.21 -0.02,-0.29 -0.04,-0.57 -0.06,-0.86 -0.03,-0.3 -0.27,-0.41 -0.48,-0.37l-0.28 0.21 -0.01 0.02 -0.01 0.05 -0 0.01 -0.02 0.09 -0.02 0.26c-0.04,0.26 -0.09,0.51 -0.19,0.75 -0.16,0.36 -0.43,0.6 -0.68,0.89 -0.25,0.28 0.01,0.84 0.41,0.67l0.36 -0.21 -0.01 0.29c-0.32,0.58 -0.69,1.04 -1.3,1.38 -0.44,0.25 -0.1,0.84 0.34,0.76 0.37,-0.07 0.69,-0.25 0.94,-0.49l0 0.11c-0.08,0.25 -0.17,0.49 -0.35,0.69 -0.26,0.3 -0.61,0.43 -0.98,0.51 -0.5,0.11 -0.32,0.82 0.14,0.84 0.42,0.02 0.84,-0.14 1.19,-0.41l-0 0.05c-0.21,0.42 -0.39,0.81 -0.75,1.15 -0.45,0.44 -1.07,0.57 -1.67,0.44 -0.45,-0.1 -0.72,0.54 -0.3,0.76z"/>
  <path class="fil0" d="M46.17 57.05c0.87,0.18 1.98,-0.04 2.69,-0.62 -0.01,0.29 -0.01,0.58 -0.01,0.86 -0.24,0.17 -0.54,0.22 -0.89,0.21 -0.28,0 -0.43,0.46 -0.14,0.57 0.31,0.12 0.7,0.13 1.04,0.03 0.02,0.57 0.06,1.13 0.14,1.69 0.06,0.36 0.64,0.51 0.71,0.08 0.1,-0.68 0.14,-1.36 0.15,-2.05 0.3,0.26 0.69,0.4 1.05,0.24 0.31,-0.13 0.28,-0.62 -0.1,-0.61 -0.44,0 -0.67,-0.51 -0.93,-0.79l-0.03 -0.02 -0.01 -0.18c0.51,0.35 1.21,0.44 1.75,0.15 0.32,-0.17 0.08,-0.66 -0.26,-0.57 -0.71,0.2 -1.25,-0.2 -1.54,-0.8 -0,-0.17 -0.01,-0.33 -0.01,-0.49 0.64,0.68 1.67,1.04 2.51,0.63 0.33,-0.16 0.07,-0.64 -0.25,-0.55 -1.15,0.29 -1.83,-0.59 -2.27,-1.51l0 -0.02 -0 -0.05 -0 -0.13c0.33,0.29 0.75,0.47 1.18,0.47 0.36,-0.01 0.43,-0.56 0.07,-0.64 -0.7,-0.14 -1.07,-0.56 -1.25,-1.2l-0 -0.25c0.25,0.28 0.57,0.5 0.97,0.59 0.35,0.08 0.55,-0.41 0.23,-0.58 -0.58,-0.31 -0.93,-0.76 -1.21,-1.31l-0.01 -0.41 0.38 0.27c0.31,0.15 0.6,-0.23 0.36,-0.49 -0.48,-0.5 -0.73,-0.95 -0.81,-1.61l-0.01 -0.15c-0.02,-0.22 -0.19,-0.31 -0.35,-0.28l-0.21 0.14 -0.03 0.07 -0 0 0 0 -0.02 0.08 -0.01 0.19 -0 0.08 -0.02 0.38c-0.1,0.55 -0.37,0.97 -0.89,1.27 -0.3,0.18 -0.08,0.65 0.25,0.55 0.23,-0.06 0.42,-0.17 0.59,-0.32 -0,0.19 -0.01,0.39 -0.01,0.58 -0.24,0.55 -0.81,0.79 -1.36,1.11 -0.3,0.18 -0.08,0.64 0.25,0.55 0.38,-0.1 0.78,-0.28 1.1,-0.52 -0,0.16 -0,0.32 -0,0.48 -0.35,0.49 -1.09,0.59 -1.61,0.95 -0.27,0.19 -0.09,0.68 0.25,0.56 0.41,-0.15 0.93,-0.31 1.35,-0.54 -0,0.17 -0,0.34 -0,0.5 -0.45,0.65 -1.02,1.16 -1.91,1.09 -0.37,-0.03 -0.38,0.52 -0.07,0.62 0.67,0.22 1.39,-0.01 1.95,-0.46l-0.01 0.24c-0.47,1.06 -1.56,1.19 -2.67,1.33 -0.32,0.04 -0.43,0.54 -0.07,0.61z"/>
  <path class="fil0" d="M16.84 47.04c2.75,0.53 4.96,2.37 7.67,2.99 0.62,0.14 0.85,-0.81 0.24,-0.95 -2.68,-0.6 -4.98,-2.92 -7.82,-2.82 -0.44,0.02 -0.53,0.69 -0.09,0.78z"/>
  <path class="fil0" d="M17.56 48.66c-0.45,-0.03 -0.51,0.68 -0.09,0.78 2.72,0.61 5.83,2.73 8.66,2.14 0.49,-0.1 0.29,-0.77 -0.13,-0.81 -2.93,-0.26 -5.54,-1.91 -8.45,-2.11z"/>
  <path class="fil0" d="M20.06 55.46c-0.45,-0.15 -0.7,0.54 -0.3,0.76 1.63,0.88 3.42,0.8 5.2,1.15 2.06,0.39 4,1.35 6.11,1.57 2.16,0.23 4.27,-0.2 6.43,-0.3 2.22,-0.1 4.02,1.25 6.17,1.5 0.64,0.07 0.91,-0.82 0.25,-1 -1.7,-0.46 -3.3,-1.23 -5.03,-1.55 -1.89,-0.36 -3.98,0.21 -5.88,0.32 -2.45,0.15 -4.78,-0.84 -7.11,-1.46 -1.93,-0.51 -3.94,-0.33 -5.84,-0.99z"/>
  <path class="fil0" d="M39.82 60.49c3.74,2.38 8.48,1.29 12.56,2.63 0.49,0.16 0.82,-0.66 0.33,-0.85 -4.03,-1.6 -8.57,-0.47 -12.52,-2.46 -0.46,-0.23 -0.81,0.42 -0.38,0.69z"/>
  <path class="fil0" d="M67.87 62.31c0.4,-0.07 0.37,-0.73 -0.02,-0.8 -0.56,-0.1 -1.19,-0.05 -1.75,0 -0.52,0.05 -0.48,0.74 0.02,0.8 0.56,0.06 1.19,0.09 1.75,-0z"/>
  <path class="fil0" d="M22.34 60.54c-0.01,0.23 -0.03,0.44 -0.11,0.65 -0.16,0.42 0.51,0.66 0.72,0.28 0.17,-0.3 0.19,-0.62 0.18,-0.96 -0.02,-0.51 -0.76,-0.48 -0.79,0.02z"/>
  <path class="fil0" d="M23.35 59.78c-0.03,0.63 -0.09,1.26 -0.13,1.89 -0.03,0.47 0.66,0.5 0.79,0.09 0.2,-0.65 0.17,-1.33 0.13,-2 -0.03,-0.51 -0.76,-0.48 -0.79,0.02z"/>
  <path class="fil0" d="M24.21 61.17c-0.03,0.29 -0.03,0.57 0.02,0.86 0.07,0.4 0.72,0.36 0.78,-0.02 0.05,-0.29 0.04,-0.57 0.02,-0.86 -0.05,-0.54 -0.78,-0.51 -0.83,0.02z"/>
  <path class="fil0" d="M25.59 61.21l0.04 0.32c0.13,0.39 0.65,0.35 0.77,-0.02 0.1,-0.31 -0.02,-0.66 -0.24,-0.88 -0.15,-0.15 -0.41,-0.14 -0.55,0.01 -0.14,0.15 -0.12,0.34 -0.02,0.49l-0 -0.05 0.01 0.05 0.03 0.05 -0.03 -0.04 0.01 0.04 -0 0.02z"/>
  <polygon class="fil0" points="25.58,61.13 25.59,61.15 25.58,61.14 "/>
  <path class="fil0" d="M37.36 63.14c0.03,-0.25 0.02,-0.49 0.01,-0.74 -0.02,-0.51 -0.76,-0.48 -0.78,0.02 -0.01,0.21 -0.03,0.42 -0,0.63 0.02,0.17 0.11,0.33 0.3,0.37 0.19,0.05 0.45,-0.07 0.48,-0.29z"/>
  <path class="fil0" d="M38.38 62.91c0.02,-0.25 0.01,-0.5 -0,-0.76 -0.02,-0.51 -0.76,-0.48 -0.78,0.02 -0.01,0.25 -0.02,0.5 -0,0.76 0.05,0.51 0.74,0.48 0.78,-0.02z"/>
  <path class="fil0" d="M39.47 62.61c0.11,-0.23 0.17,-0.45 0.18,-0.7 0,-0.5 -0.78,-0.48 -0.78,0.02l0 0.08 -0 0.02 -0.07 0.21c-0.21,0.45 0.46,0.83 0.68,0.37z"/>
  <path class="fil0" d="M40.78 63.53c0.09,-0.22 0.02,-0.51 -0,-0.74 -0.02,-0.21 -0.18,-0.39 -0.4,-0.38 -0.23,0.01 -0.36,0.19 -0.38,0.41 -0.02,0.23 -0.09,0.5 0,0.74 0.15,0.4 0.65,0.36 0.79,-0.02z"/>
  <path class="fil0" d="M41.78 63.54l0 -0.13c0.01,-0.5 -0.79,-0.48 -0.78,0.02l0 0.13c0.01,0.5 0.76,0.48 0.77,-0.02z"/>
  <path class="fil0" d="M35.06 62.4c-0.33,0.4 0.19,0.87 0.57,0.55l0.04 -0.04 0 -0 0.01 -0c0.2,-0.12 0.25,-0.38 0.13,-0.57l-0.15 -0.14c-0.2,-0.12 -0.45,-0.03 -0.56,0.16l-0.04 0.05z"/>
  <line class="fil1" x1="35.05" y1="64.83" x2="35.05" y2= "64.83" />
  <polygon class="fil0" points="35.05,64.83 35.05,64.83 35.05,64.83 35.05,64.83 "/>
  <path class="fil0" d="M35.05 64.83l0.01 0.01 -0.01 -0.01 0.02 0.25c0.05,0.52 0.75,0.48 0.79,-0.02 0.03,-0.3 -0.03,-0.57 -0.25,-0.78 -0.32,-0.3 -0.89,0.13 -0.61,0.49l0.04 0.06 0 -0.01 0 0.01z"/>
  <path class="fil0" d="M36.59 64.15c-0.24,0 -0.38,0.2 -0.4,0.42 -0.02,0.19 -0.06,0.43 0.02,0.61 0.06,0.13 0.14,0.24 0.29,0.28 0.16,0.04 0.38,-0.03 0.45,-0.2 0.1,-0.23 0.08,-0.47 0.05,-0.71 -0.02,-0.22 -0.18,-0.41 -0.42,-0.4z"/>
  <path class="fil0" d="M37.88 64.93l0 -0.13c0.01,-0.5 -0.78,-0.48 -0.78,0.02l0 0.13c0.01,0.5 0.77,0.48 0.78,-0.02z"/>
  <path class="fil0" d="M38.63 65.45c0.49,0 0.47,-0.77 -0.02,-0.77 -0.49,0 -0.47,0.77 0.02,0.77z"/>
  <path class="fil0" d="M34.22 65.38c0.56,0 0.54,-0.87 -0.02,-0.87 -0.56,0 -0.54,0.87 0.02,0.87z"/>
  <path class="fil0" d="M28.38 61.41c-0.44,-0.16 -0.64,0.5 -0.28,0.72 1.41,0.88 3.66,0.71 5.23,0.43 0.4,-0.07 0.37,-0.73 -0.02,-0.79 -1.68,-0.26 -3.25,0.24 -4.92,-0.36z"/>
  <path class="fil0" d="M44.96 64.65c0.49,0.05 1.14,0.12 1.6,-0.06 0.29,-0.12 0.45,-0.61 0.08,-0.77 -0.43,-0.17 -0.88,-0.13 -1.34,-0.13 -0.46,-0.01 -0.93,-0.06 -1.4,-0.02 -0.35,0.03 -0.58,0.58 -0.18,0.75 0.4,0.17 0.81,0.2 1.24,0.24z"/>
  <path class="fil0" d="M18.51 59.73c0.79,0.42 1.69,0.64 2.59,0.6 0.56,-0.03 0.53,-0.83 -0.02,-0.86 -0.77,-0.05 -1.48,-0.1 -2.2,-0.41 -0.45,-0.2 -0.82,0.44 -0.37,0.68z"/>
  <path class="fil0" d="M34.09 70.52c2.72,0.05 5.43,-0.35 8.14,-0.5 2.67,-0.15 5.35,0.15 8.02,-0.06 2.21,-0.18 4.32,-0.94 6.52,-1.19 1.71,-0.19 3.44,-0.18 5.15,-0.28 0.52,-0.03 0.49,-0.78 -0.02,-0.81 -4.05,-0.19 -7.7,0.88 -11.68,1.37 -2.65,0.33 -5.36,-0.12 -8.02,0.01 -2.71,0.12 -5.43,0.41 -8.13,0.64 -0.53,0.04 -0.51,0.81 0.02,0.82z"/>
  <path class="fil0" d="M48.43 74.35l0.01 -0 0.08 -0.06c0.21,-0.18 0.21,-0.56 -0.05,-0.7l-0 -0c-1.08,-0.79 -2.29,-1.33 -3.55,-1.7 1.37,-0.13 2.74,-0.28 4.11,-0.36 0.54,-0.03 0.51,-0.81 -0.02,-0.83 -2.86,-0.09 -5.71,0.41 -8.56,0.58l-0.02 0 -0.17 0.04 -0.01 0 -0.1 0.08 -0.06 0.09 -0.02 0.03 -0.02 0.06c-0.05,0.21 0.02,0.45 0.27,0.48 1.77,0.2 3.43,0.52 5.05,1.08 -4.25,-0.24 -8.64,0.67 -12.86,-0.08 -0.5,-0.09 -0.68,0.61 -0.19,0.76 2.39,0.72 4.96,0.55 7.42,0.48 2.83,-0.08 5.63,0.08 8.45,0.07l0.21 -0.03z"/>
  <path class="fil0" d="M33.31 68.55c1.97,0.02 3.95,0.14 5.92,0.21 0.46,0.02 0.54,-0.72 0.09,-0.81 -1.79,-0.35 -3.55,-0.42 -5.37,-0.4 -1.92,0.01 -3.93,0.27 -5.79,-0.3 -2.8,-0.85 -5.17,-2.94 -8.26,-2.3 -0.43,0.09 -0.32,0.82 0.12,0.77 3.2,-0.4 5.89,2.03 8.9,2.71 1.39,0.31 2.96,0.12 4.37,0.13z"/>
  <path class="fil0" d="M39.95 55.61c-0.39,0.18 -0.16,0.78 0.23,0.76 0.3,-0.01 0.62,-0.13 0.9,-0.31 0.02,0.34 0.04,0.68 0.07,1.01 0.05,0.53 0.76,0.49 0.81,-0.02l0.01 -0.19c0.46,0.36 1.03,0.56 1.59,0.44 0.45,-0.09 0.32,-0.67 -0.02,-0.8 -0.54,-0.2 -1.13,-0.42 -1.49,-0.88l0.01 -0.2c0.5,0.34 1.12,0.52 1.73,0.41 0.46,-0.08 0.33,-0.7 -0.02,-0.82 -0.43,-0.15 -0.84,-0.3 -1.22,-0.54 -0.3,-0.19 -0.36,-0.48 -0.44,-0.78l0 -0.35c0.37,0.22 0.81,0.31 1.21,0.07 0.38,-0.23 0.16,-0.73 -0.23,-0.77 -0.47,-0.04 -0.79,-0.37 -1,-0.75l-0.01 -0.4c0.34,0.09 0.62,-0.4 0.35,-0.68 -0.24,-0.25 -0.35,-0.55 -0.43,-0.87 -0.01,-0.25 -0.03,-0.5 -0.05,-0.74 -0.04,-0.51 -0.75,-0.48 -0.78,0.02 -0.03,0.33 -0.05,0.67 -0.07,1.01 -0.04,0.34 -0.1,0.66 -0.33,0.94 -0.19,0.23 -0.06,0.64 0.21,0.68l-0.15 0.14c-0.23,0.19 -0.5,0.19 -0.74,0.33 -0.33,0.19 -0.19,0.63 0.12,0.74 0.25,0.09 0.55,0 0.8,-0.13 -0,0.14 -0,0.28 -0,0.42l-0.18 0.23c-0.21,0.2 -0.51,0.3 -0.77,0.42 -0.37,0.18 -0.15,0.75 0.22,0.74 0.26,-0 0.51,-0.08 0.74,-0.2l0 0.15 -0.31 0.39c-0.22,0.21 -0.49,0.38 -0.76,0.5z"/>
  <path class="fil0" d="M69.37 49.19c0.02,0.5 0.76,0.48 0.78,-0.02 0.01,-0.28 0.02,-0.57 0.03,-0.85 0.01,-0.33 -0.05,-0.77 0.08,-1.07 0.15,-0.33 0.02,-0.73 -0.36,-0.82 -0.38,-0.09 -0.86,0.3 -0.68,0.72 0.26,0.58 0.13,1.42 0.15,2.05z"/>
  <path class="fil0" d="M58.27 48.45c0.19,0.05 0.46,-0.07 0.48,-0.29 0.05,-0.4 0.05,-0.79 0,-1.19 -0.02,-0.17 -0.11,-0.32 -0.3,-0.37 -0.19,-0.04 -0.45,0.07 -0.47,0.28 -0.05,0.4 -0.07,0.79 -0.02,1.19 0.02,0.18 0.12,0.33 0.3,0.38z"/>
  <path class="fil0" d="M52.28 51c0.12,-0.75 0.11,-1.62 -0.01,-2.38 -0.06,-0.39 -0.69,-0.55 -0.76,-0.08 -0.11,0.75 -0.14,1.62 -0.03,2.37 0.06,0.41 0.72,0.58 0.79,0.09z"/>
  <path class="fil0" d="M53.7 51.55c0.06,-0.68 0.04,-1.39 -0,-2.08 -0.03,-0.51 -0.74,-0.47 -0.77,0.02 -0.05,0.69 -0.06,1.4 -0.01,2.08 0.04,0.51 0.74,0.48 0.79,-0.02z"/>
  <path class="fil0" d="M46.07 47.51c0.17,0.35 0.04,1.05 0.04,1.44 0,0.5 0.01,0.99 0.04,1.49 0.03,0.53 0.77,0.49 0.81,-0.02 0.03,-0.49 0.04,-0.99 0.04,-1.49 0,-0.41 -0.12,-1.07 0.05,-1.45 0.49,-1.04 -1.49,-1.07 -0.98,0.02z"/>
  <path class="fil0" d="M45.58 50.98c0.03,-0.99 0.06,-1.99 -0.01,-2.98 -0.04,-0.5 -0.74,-0.47 -0.78,0.02 -0.07,0.99 -0.04,1.99 -0.01,2.98 0.02,0.52 0.79,0.49 0.8,-0.02z"/>
  <path class="fil0" d="M43.7 48.06c-0.41,0.01 -0.71,0.51 -0.47,0.87 0.1,0.15 0.03,0.6 0.03,0.78 0.01,0.31 0.02,0.61 0.04,0.92 0.03,0.53 0.78,0.49 0.81,-0.02 0.02,-0.3 0.03,-0.61 0.04,-0.92 0.01,-0.21 -0.06,-0.62 0.05,-0.79 0.25,-0.36 -0.11,-0.85 -0.51,-0.84z"/>
  <path class="fil0" d="M39.05 51.6c0.06,-0.88 0.19,-1.89 -0.03,-2.75 -0.09,-0.38 -0.66,-0.34 -0.75,0.02 -0.21,0.86 -0.08,1.88 -0.02,2.75 0.04,0.52 0.76,0.48 0.8,-0.02z"/>
  <path class="fil0" d="M37.64 51.74c0.03,-0.64 0.13,-1.32 -0.02,-1.95 -0.1,-0.39 -0.67,-0.35 -0.76,0.02 -0.16,0.62 -0.05,1.32 -0.02,1.95 0.03,0.52 0.77,0.49 0.8,-0.02z"/>
  <path class="fil0" d="M34.38 52.4c0.05,-0.71 0.13,-1.44 -0.02,-2.14 -0.09,-0.39 -0.69,-0.35 -0.77,0.02 -0.15,0.7 -0.06,1.43 -0.02,2.14 0.03,0.53 0.77,0.49 0.81,-0.02z"/>
  <path class="fil0" d="M32.12 51.09c-0.22,0.79 -0.13,1.8 -0.03,2.61 0.05,0.43 0.76,0.59 0.82,0.09 0.1,-0.85 0.2,-1.89 -0.03,-2.72 -0.11,-0.39 -0.66,-0.35 -0.76,0.02z"/>
  <path class="fil0" d="M30.29 51.67l0.03 0.33c0.01,0.16 0.03,0.31 0.04,0.47 0.04,0.52 0.76,0.49 0.8,-0.02 0.01,-0.15 0.04,-0.31 0.04,-0.47l0.03 -0.31c0.22,-0.36 -0.04,-0.87 -0.49,-0.86 -0.46,0.01 -0.66,0.51 -0.46,0.86z"/>
  <path class="fil0" d="M28.53 51.37c-0.18,0.76 -0.08,1.56 -0.03,2.33 0.03,0.53 0.78,0.5 0.82,-0.02 0.05,-0.77 0.15,-1.57 -0.03,-2.33 -0.09,-0.39 -0.67,-0.35 -0.76,0.02z"/>
  <path class="fil0" d="M27.69 52.94c0.1,-0.41 -0,-0.84 -0.04,-1.25 -0.05,-0.52 -0.75,-0.48 -0.79,0.02 -0.04,0.41 -0.13,0.84 -0.03,1.25 0.11,0.44 0.76,0.39 0.86,-0.02z"/>
  <path class="fil0" d="M39.95 23.94l0.01 0 0.02 0.17 -0.03 -0.17zm1.43 -0.23l0 0 -0.01 -0.01 -0 -0.01 -0.04 -0.08c-0.12,-0.26 -0.35,-0.42 -0.63,-0.5 -0.23,-0.06 -0.53,0.06 -0.63,0.28l-0.12 0.29 -0.02 0.19 0.01 0.07c0.02,0.16 0.04,0.22 0.11,0.37 0.15,0.29 0.53,0.41 0.84,0.32 0.28,-0.09 0.57,-0.4 0.52,-0.72l-0.03 -0.19z"/>
  <path class="fil0" d="M42.24 18.03l0 -0.01 0.02 -0 -0.02 0.01zm0.65 -0.04c-0.18,-0.07 -0.32,-0.12 -0.51,-0.07l-0.24 0.16 -0.23 0.24c-0.13,0.23 -0.12,0.52 0.02,0.74 0.26,0.43 1.04,0.49 1.26,-0.03 0.08,-0.2 0.13,-0.38 0.07,-0.59 -0.05,-0.15 -0.2,-0.38 -0.37,-0.44z"/>
  <path class="fil0" d="M32.99 17.47c-0.39,0 -0.71,0.35 -0.7,0.74 0.01,0.4 0.35,0.7 0.74,0.7 0.39,0 0.71,-0.35 0.7,-0.74 -0.01,-0.4 -0.35,-0.7 -0.74,-0.7z"/>
  <path class="fil0" d="M36.65 14.79c0.4,0 0.73,-0.36 0.72,-0.75 -0.01,-0.41 -0.35,-0.72 -0.75,-0.72 -0.4,0 -0.73,0.36 -0.72,0.75 0.01,0.41 0.35,0.72 0.75,0.72z"/>
  <path class="fil0" d="M34.01 14.43c-0.64,0 -0.61,0.98 0.02,0.98 0.64,0 0.61,-0.98 -0.02,-0.98z"/>
  <path class="fil0" d="M37.23 18.5c-0.5,0.03 -0.47,0.75 0.02,0.77l0.1 0c0.5,-0.03 0.47,-0.75 -0.02,-0.77l-0.09 0z"/>
  <path class="fil0" d="M37.04 16.03c-0.52,0 -0.5,0.8 0.02,0.8 0.52,0 0.5,-0.8 -0.02,-0.8z"/>
  <path class="fil0" d="M40.63 15.25c-0.55,0 -0.53,0.85 0.02,0.85 0.55,0 0.53,-0.85 -0.02,-0.85z"/>
  <path class="fil0" d="M39.02 16.68l-0.19 -0.01c-0.23,0.02 -0.42,0.19 -0.41,0.43 0.01,0.25 0.2,0.39 0.43,0.41l0.08 0c0.19,-0.02 0.35,-0.13 0.4,-0.32 0.05,-0.2 -0.08,-0.49 -0.31,-0.51z"/>
  <path class="fil0" d="M42.35 22.19l0 -0.1c0.02,-0.5 -0.8,-0.48 -0.78,0.02l0 0.1c0.02,0.5 0.76,0.48 0.78,-0.02z"/>
  <path class="fil0" d="M44.13 23.33c-0.49,0 -0.47,0.77 0.02,0.77 0.49,0 0.47,-0.77 -0.02,-0.77z"/>
  <path class="fil0" d="M45.36 21.62c-0.5,0 -0.48,0.77 0.02,0.77 0.5,0 0.48,-0.77 -0.02,-0.77z"/>
  <path class="fil0" d="M40.27 19.95c0.51,0 0.49,-0.79 -0.02,-0.79 -0.51,0 -0.49,0.79 0.02,0.79z"/>
  <path class="fil0" d="M42.43 24.85c-0.49,0 -0.47,0.75 0.02,0.75 0.49,0 0.47,-0.75 -0.02,-0.75z"/>
  <path class="fil0" d="M37.79 22.35c-0.54,0 -0.52,0.83 0.02,0.83 0.54,0 0.52,-0.83 -0.02,-0.83z"/>
  <path class="fil0" d="M38.64 20.19c-0.52,0 -0.5,0.81 0.02,0.81 0.52,0 0.5,-0.81 -0.02,-0.81z"/>
  <path class="fil0" d="M32.81 21.8l0 -0.01 -0 0.01zm0.39 -0.19c-0.34,-0.08 -0.58,0.16 -0.62,0.44 -0.06,0.16 -0.02,0.37 0.11,0.47 0.23,0.19 0.5,0.18 0.69,0 0.33,-0.25 0.24,-0.81 -0.18,-0.91z"/>
  <path class="fil0" d="M28.4 18.8l-0.03 -0.14 -0.1 -0.16c-0.13,-0.15 -0.3,-0.16 -0.44,-0.09l-0.17 0.11c-0.21,0.23 -0.16,0.55 0.03,0.77 0.14,0.17 0.45,0.14 0.58,-0.01 0.12,-0.13 0.16,-0.31 0.14,-0.47z"/>
  <path class="fil0" d="M30.34 16.61l0 -0.09c0.01,-0.5 -0.78,-0.48 -0.78,0.02l0 0.1c0.01,0.5 0.77,0.48 0.77,-0.02z"/>
  <path class="fil0" d="M28.62 24.78c-0.58,0 -0.56,0.9 0.02,0.9 0.58,0 0.56,-0.9 -0.02,-0.9z"/>
  <path class="fil0" d="M31.65 23.31l-0.1 0.01c-0.21,0.02 -0.38,0.17 -0.38,0.4 0.01,0.23 0.19,0.35 0.4,0.38l0.09 0.01c0.22,0.03 0.39,-0.21 0.39,-0.41 -0.01,-0.2 -0.19,-0.41 -0.41,-0.39z"/>
  <path class="fil0" d="M34.29 24.76l0.01 0.2c0.07,0.39 0.69,0.35 0.76,-0.02l0.01 -0.2c-0.04,-0.51 -0.74,-0.48 -0.78,0.02z"/>
  <path class="fil0" d="M36.3 21.89c0.29,-0.01 0.5,-0.3 0.41,-0.57l-0.08 -0.18c-0.18,-0.27 -0.55,-0.24 -0.71,0.02l-0.07 0.19c-0.09,0.28 0.17,0.56 0.44,0.55z"/>
  <path class="fil0" d="M35.08 20.4c0.86,0 0.82,-1.33 -0.03,-1.33 -0.86,0 -0.82,1.33 0.03,1.33z"/>
  <path class="fil0" d="M45.47 15.23l0 0.01 -0 -0.04c-0.02,-0.21 -0.18,-0.38 -0.4,-0.38l-0.26 0.11 -0.04 0.02c-0.27,0.14 -0.25,0.58 0.02,0.71l0.16 0.06c0.34,0.07 0.56,-0.2 0.52,-0.49z"/>
  <path class="fil0" d="M42.73 16.19c0.54,0 0.52,-0.84 -0.02,-0.84 -0.54,0 -0.52,0.84 0.02,0.84z"/>
  <path class="fil0" d="M40.06 13.5c-0.11,-0.1 -0.24,-0.13 -0.38,-0.11 -0.18,0.02 -0.33,0.12 -0.38,0.3 -0.05,0.19 0.07,0.46 0.29,0.48 0.19,0.02 0.33,0.03 0.48,-0.11 0.16,-0.14 0.14,-0.42 -0.01,-0.56z"/>
  <path class="fil0" d="M41.3 12.86l-0.03 -0.02 0.23 0.06c0.24,0.03 0.43,-0.23 0.42,-0.44 -0.01,-0.22 -0.21,-0.45 -0.44,-0.42l-0.2 0.04c-0.4,0.07 -0.37,0.73 0.02,0.79z"/>
  <path class="fil0" d="M31.86 20.11l-0 -0.09c-0.01,-0.51 -0.76,-0.48 -0.78,0.02l-0 0.09c-0.02,0.5 0.8,0.49 0.78,-0.02z"/>
  <path class="fil0" d="M34.22 8.92c0.56,0 0.54,-0.87 -0.02,-0.87 -0.56,0 -0.54,0.87 0.02,0.87z"/>
  <path class="fil0" d="M28.07 6.88c0.49,0 0.47,-0.76 -0.02,-0.76 -0.49,0 -0.47,0.76 0.02,0.76z"/>
  <path class="fil0" d="M31.27 5.16l0.04 0.02c0.28,0.16 0.58,-0.02 0.68,-0.3 0.05,-0.14 0.01,-0.27 -0.06,-0.4 -0.11,-0.22 -0.44,-0.28 -0.64,-0.15l-0.03 0.02c-0.13,0.08 -0.19,0.21 -0.19,0.35 -0.05,0.17 0.05,0.37 0.21,0.46z"/>
  <path class="fil0" d="M29.11 5.2c0.52,0 0.5,-0.8 -0.02,-0.8 -0.52,0 -0.5,0.8 0.02,0.8z"/>
  <path class="fil0" d="M23.86 8.26c0.39,0 0.71,-0.36 0.7,-0.74 -0.01,-0.4 -0.35,-0.71 -0.74,-0.71 -0.4,0 -0.71,0.35 -0.7,0.74 0.01,0.4 0.35,0.71 0.74,0.71z"/>
  <path class="fil0" d="M25.87 6.29c0.29,0.1 0.58,-0.18 0.57,-0.46 -0.01,-0.29 -0.31,-0.53 -0.59,-0.43l-0.27 0.15c-0.17,0.15 -0.14,0.45 0.02,0.59l0.27 0.14z"/>
  <path class="fil0" d="M26.14 7.71l-0.09 0.02c-0.39,0.08 -0.36,0.69 0.02,0.77l0.09 0.02c0.27,0.05 0.53,-0.14 0.52,-0.42 -0.01,-0.29 -0.28,-0.44 -0.54,-0.39z"/>
  <path class="fil0" d="M20.06 9.85l0.17 -0.05c0.14,-0.07 0.24,-0.21 0.2,-0.39 0.02,-0.28 -0.23,-0.41 -0.47,-0.38l-0.17 0.05c-0.12,0.06 -0.2,0.18 -0.19,0.35l0 0.04c0.02,0.29 0.24,0.4 0.44,0.37z"/>
  <path class="fil0" d="M22.49 10.91c0.56,0 0.54,-0.87 -0.02,-0.87 -0.56,0 -0.54,0.87 0.02,0.87z"/>
  <path class="fil0" d="M22.4 9.74c0.52,0 0.5,-0.8 -0.02,-0.8 -0.52,0 -0.5,0.8 0.02,0.8z"/>
  <path class="fil0" d="M34.69 6.03c0.49,0 0.47,-0.76 -0.02,-0.76 -0.49,0 -0.47,0.76 0.02,0.76z"/>
  <path class="fil0" d="M34.98 17.96c0.51,0 0.49,-0.79 -0.02,-0.79 -0.51,0 -0.49,0.79 0.02,0.79z"/>
  <path class="fil0" d="M35.98 17.75l-0.02 0.08c-0.08,0.27 0.16,0.54 0.43,0.54 0.29,-0.01 0.48,-0.29 0.41,-0.56l-0.02 -0.08c-0.1,-0.41 -0.71,-0.37 -0.8,0.02z"/>
  <path class="fil0" d="M44.23 21.43l0.1 -0.08c0.4,-0.33 -0.25,-0.97 -0.59,-0.56l-0.09 0.1c-0.33,0.4 0.18,0.86 0.57,0.54z"/>
  <path class="fil0" d="M40.46 21.85c0.52,0 0.5,-0.8 -0.02,-0.8 -0.52,0 -0.5,0.8 0.02,0.8z"/>
  <path class="fil0" d="M48.97 22.84c0.58,0 0.56,-0.9 -0.02,-0.9 -0.58,0 -0.56,0.9 0.02,0.9z"/>
  <path class="fil0" d="M28.21 9.16l0.14 0.38c0.14,0.11 0.34,0.17 0.49,0.05 0.16,-0.13 0.2,-0.26 0.21,-0.45 0.02,-0.54 -0.86,-0.52 -0.84,0.02z"/>
  <path class="fil0" d="M30.34 7.19c0.52,0 0.5,-0.81 -0.02,-0.81 -0.52,0 -0.5,0.81 0.02,0.81z"/>
  <path class="fil0" d="M32.99 7.27c0.5,0 0.48,-0.77 -0.02,-0.77 -0.5,0 -0.48,0.77 0.02,0.77z"/>
  <path class="fil0" d="M30.53 18.14c0.5,0 0.48,-0.77 -0.02,-0.77 -0.5,0 -0.48,0.77 0.02,0.77z"/>
  <path class="fil0" d="M17.17 22.79c0.08,0.4 0.72,0.37 0.8,-0.02l-0.02 0.03c0.15,-0.29 -0.05,-0.66 -0.39,-0.65 -0.35,0.01 -0.51,0.38 -0.36,0.67l-0.02 -0.03z"/>
  <path class="fil0" d="M11.11 30.81c0.37,-0.23 0.43,-0.76 0.11,-1.06 -0.28,-0.27 -0.73,-0.23 -0.97,0.05l-0.08 0.11c-0.11,0.16 -0.09,0.35 -0.05,0.53 0.1,0.43 0.65,0.6 1,0.38z"/>
  <path class="fil0" d="M20.2 26.2c-0.58,0 -0.55,0.89 0.02,0.89 0.58,0 0.55,-0.89 -0.02,-0.89z"/>
  <path class="fil0" d="M23.14 22.95c-0.5,0 -0.48,0.77 0.02,0.77 0.5,0 0.48,-0.77 -0.02,-0.77z"/>
  <path class="fil0" d="M12.57 18.87c0.59,0 0.56,-0.91 -0.02,-0.91 -0.59,0 -0.56,0.91 0.02,0.91z"/>
  <path class="fil0" d="M15.97 30.13c0.6,0 0.57,-0.92 -0.02,-0.92 -0.6,0 -0.57,0.92 0.02,0.92z"/>
  <polygon class="fil0" points="58.54,20.74 58.54,20.74 58.54,20.75 "/>
  <path class="fil0" d="M58.44 20.29l-0.01 -0.01c-0.18,-0.17 -0.43,-0.15 -0.61,0.02l-0.01 0.01c-0.14,0.13 -0.15,0.34 -0.06,0.5 0.12,0.36 0.61,0.36 0.76,0.02l0.03 -0.08 -0.02 0.03 0.03 -0.1 -0.01 0.06c0.05,-0.16 0.02,-0.33 -0.1,-0.45z"/>
  <polygon class="fil0" points="59.34,23.06 59.34,23.09 "/>
  <polygon class="fil0" points="59.34,23.06 59.34,23.06 59.34,23.06 "/>
  <path class="fil0" d="M59.87 23.37l-0.07 0.01 0.07 -0.02 -0 0zm0.16 -0.78c-0.15,-0.1 -0.35,-0.09 -0.51,0 -0.16,0.1 -0.22,0.28 -0.19,0.46 0.02,0.18 0.12,0.34 0.3,0.38 0.15,0.04 0.34,-0.03 0.43,-0.16 0.24,-0.19 0.21,-0.52 -0.04,-0.68z"/>
  <path class="fil0" d="M65.46 23.61l-0.01 -0.08c-0.02,-0.23 -0.19,-0.42 -0.43,-0.41 -0.25,0.01 -0.39,0.2 -0.41,0.43l-0 0.08c-0.02,0.55 0.88,0.53 0.85,-0.02z"/>
  <polygon class="fil0" points="51.64,17.31 51.71,17.22 51.72,17.21 "/>
  <path class="fil0" d="M52.45 17.01l-0.31 -0.02 -0.29 0.09 -0 0 0 0 -0.15 0.13c-0.2,0.26 -0.24,0.55 -0.08,0.85l0.02 0.04c0.22,0.42 0.85,0.45 1.15,0.12 0.38,-0.4 0.18,-1.08 -0.35,-1.22z"/>
  <path class="fil0" d="M69.78 20.21l0.02 0c0.14,0.06 0.35,0.02 0.44,-0.09 0.09,-0.11 0.17,-0.23 0.16,-0.38 -0.03,-0.28 -0.22,-0.45 -0.49,-0.47l-0.03 0c-0.54,-0.04 -0.64,0.86 -0.1,0.94z"/>
  <path class="fil0" d="M72.6 22.4l0.09 0.03c0.27,0.11 0.55,-0.18 0.55,-0.44 -0.01,-0.27 -0.3,-0.51 -0.57,-0.41l-0.08 0.03c-0.4,0.15 -0.35,0.64 0.02,0.78z"/>
  <path class="fil0" d="M65.2 28.04c-0.27,0.09 -0.34,0.35 -0.25,0.55 0.03,0.22 0.22,0.42 0.47,0.41 0.37,-0.01 0.56,-0.41 0.39,-0.72 -0.13,-0.23 -0.36,-0.32 -0.62,-0.24z"/>
  <path class="fil0" d="M70.25 27.5c0.5,0 0.48,-0.77 -0.02,-0.77 -0.5,0 -0.48,0.77 0.02,0.77z"/>
  <path class="fil0" d="M66.45 12.81c0.33,0.23 0.75,-0.24 0.53,-0.56l-0.25 -0.27c-0.41,-0.33 -0.88,0.19 -0.55,0.58l0.27 0.25z"/>
  <path class="fil0" d="M73.38 19.52l0.04 0.04 0.02 0.01 0.17 0.09 0.24 0 0.02 -0c0.34,-0.15 0.44,-0.52 0.19,-0.8 -0.2,-0.23 -0.53,-0.15 -0.73,0.02 -0.18,0.15 -0.15,0.46 0.02,0.61l0.04 0.04z"/>
  <path class="fil0" d="M48.5 4.69c0.24,-0.01 0.47,-0.22 0.45,-0.47l-0.03 -0.2c-0.14,-0.44 -0.73,-0.39 -0.86,0.02l-0.03 0.2c-0.02,0.25 0.24,0.46 0.47,0.45z"/>
  <path class="fil0" d="M55.02 6.81c0.52,0 0.5,-0.81 -0.02,-0.81 -0.52,0 -0.5,0.81 0.02,0.81z"/>
  <path class="fil0" d="M58.14 6.56c0.56,0 0.54,-0.86 -0.02,-0.86 -0.56,0 -0.53,0.86 0.02,0.86z"/>
  <path class="fil0" d="M61.44 10.73l0.19 0.07c0.27,0.07 0.54,-0.15 0.54,-0.43 -0.01,-0.29 -0.29,-0.47 -0.56,-0.4l-0.18 0.07c-0.27,0.13 -0.24,0.58 0.02,0.7z"/>
  <path class="fil0" d="M54.09 23.08l0 0 -0 0 0 -0zm0.14 0.82c0.34,0.07 0.73,-0.14 0.68,-0.53 -0.02,-0.19 -0.14,-0.42 -0.36,-0.45l-0.13 -0.02 -0.24 0.08c-0.44,0.12 -0.41,0.81 0.04,0.91z"/>
  <path class="fil0" d="M56.51 22.36c-0.53,0 -0.5,0.81 0.02,0.81 0.53,0 0.51,-0.81 -0.02,-0.81z"/>
  <path class="fil0" d="M26.86 27.96l-0.13 -0.24 -0 -0.01 -0.05 -0.04 -0.04 -0.03 -0.02 -0.01 -0.07 -0.03 -0.02 -0.01 -0.06 -0.02c-0.16,-0.04 -0.32,0.01 -0.43,0.22l-0.05 0.08c-0.23,0.35 0.25,0.78 0.58,0.55l0.08 -0.05c0.16,-0.08 0.21,-0.21 0.21,-0.33l-0 -0.06 -0 -0.01z"/>
  <path class="fil0" d="M5.28 30.67c-0.16,-0.21 -0.52,-0.33 -0.72,-0.07l-0.11 0.15c-0.19,0.33 0.08,0.75 0.45,0.74 0.39,-0.01 0.6,-0.44 0.41,-0.76l-0.04 -0.06z"/>
  <polygon class="fil0" points="6.62,27.17 6.62,27.17 6.63,27.18 "/>
  <path class="fil0" d="M6.65 27.19l-0.03 -0.01 0 0 -0.01 -0.01 -0.01 -0 0.01 0 0 0 0 0 0.03 0.01 -0 0zm0.06 0.03c-0.19,-0.2 -0.51,-0.16 -0.66,0.08 -0.1,0.15 -0.1,0.37 -0.01,0.52 0.13,0.21 0.37,0.25 0.59,0.19 0.39,-0.1 0.38,-0.61 0.08,-0.79z"/>
  <path class="fil0" d="M13.51 25.24l0.2 -0.02c0.13,-0.05 0.23,-0.14 0.27,-0.28 0.04,-0.15 -0.03,-0.37 -0.19,-0.44l-0.29 -0.05c-0.51,0.03 -0.48,0.76 0.02,0.79z"/>
  <path class="fil0" d="M41.8 3.01l0.01 -0c0.24,0.08 0.57,-0.08 0.56,-0.39 -0.01,-0.18 -0.1,-0.36 -0.26,-0.43 -0.23,-0.1 -0.44,-0.03 -0.64,0.1 -0.37,0.25 -0.12,0.86 0.33,0.72z"/>
  <path class="fil0" d="M46.31 41.66c0.28,-0.26 0.59,-0.49 0.87,-0.76 1.47,0.66 3.12,0.91 4.64,1.45 0.49,0.17 0.66,-0.52 0.31,-0.78 -1.38,-0.98 -3.28,-1.1 -4.89,-1.5l-0.16 -0.01 -0.3 0.11c-0.35,0.31 -0.71,0.61 -1.03,0.95 -0.35,0.37 0.2,0.87 0.56,0.53z"/>
 </g>
</svg>
