<?xml version="1.0" encoding="UTF-8"?>
<svg xmlns="http://www.w3.org/2000/svg" xml:space="preserve" width="0.747335in" height="0.747331in" version="1.1" style="shape-rendering:geometricPrecision; text-rendering:geometricPrecision; image-rendering:optimizeQuality; fill-rule:evenodd; clip-rule:evenodd"
viewBox="0 0 183.81 183.81"
 xmlns:xlink="http://www.w3.org/1999/xlink"
 xmlns:xodm="http://www.corel.com/coreldraw/odm/2003">
 <defs>
  <style type="text/css">
   <![CDATA[
    .fil0 {fill:black;fill-rule:nonzero}
   ]]>
  </style>
 </defs>
 <g id="Layer_x0020_1">
  <metadata id="CorelCorpID_0Corel-Layer"/>
  <path class="fil0" d="M22.77 113.76c-5.39,-2.04 -11.97,-0.18 -16.83,2.79 -2.3,-8.07 -3.47,-16.51 -3.43,-25.15 0.27,-49.02 40.37,-88.91 89.39,-88.91l0.51 0c49.29,0.28 89.18,40.6 88.91,89.9 -0.04,6.48 -0.78,12.79 -2.13,18.88l-0.06 -0.03c-10.26,-2.68 -17.62,10.33 -27.54,7.56 -0.94,-0.26 -1.48,1.13 -0.62,1.58 3.61,1.92 7.57,0.24 10.93,-1.47 5.35,-2.7 10.44,-6.89 16.79,-5.91l0.1 0c-9.54,39.12 -44.93,68.29 -86.86,68.29l-0.51 0c-23.88,-0.13 -46.28,-9.56 -63.07,-26.54 -10.24,-10.35 -17.64,-22.75 -21.83,-36.27 5.36,-2.06 9.75,-4.29 15.82,-2.99 1.17,0.25 1.5,-1.35 0.44,-1.76zm68.63 70.05l0.52 0c24.44,0 47.45,-9.49 64.79,-26.73 17.35,-17.24 26.97,-40.21 27.11,-64.67 0.28,-50.67 -40.72,-92.13 -91.39,-92.41l-0.52 -0c-50.39,0 -91.62,41 -91.9,91.4 -0.14,24.55 9.3,47.68 26.56,65.14 17.26,17.45 40.29,27.14 64.84,27.27z"/>
  <path class="fil0" d="M17.06 123.67l-0.14 -0.04 -0.24 -0.04 -0.4 0.11 -0.34 0.34 -0.02 -0.06 -0.01 -0.74 0.53 -0.53 2.77 -1.17 0.74 -0.01 0.53 0.53 0 0.75 -0.52 0.52 -2.32 0.98 -0.57 -0.64zm3.6 1.34c0.7,-0.3 1.21,-0.82 1.5,-1.52 0.29,-0.7 0.28,-1.44 -0.01,-2.14 -0.3,-0.7 -0.81,-1.21 -1.52,-1.5 -0.7,-0.28 -1.44,-0.28 -2.14,0.02l-2.77 1.16c-0.71,0.3 -1.21,0.81 -1.5,1.52 -0.29,0.71 -0.28,1.43 0.02,2.13 0.24,0.58 0.62,1.02 1.13,1.32l-0.14 0.51c-0.13,0.44 0.13,0.91 0.58,1.03l0.14 0.04 0.23 0.03 0.41 -0.11 0.4 -0.5 0.18 -0.63 0.74 -0.21 2.77 -1.16z"/>
  <path class="fil0" d="M17.68 130.19c-0.21,0.72 -0.13,1.46 0.23,2.12 0.37,0.67 0.93,1.12 1.66,1.34l0.8 0.12c0.45,0 0.9,-0.12 1.32,-0.34l4.29 -2.34c0.4,-0.22 0.55,-0.73 0.33,-1.13l-0.07 -0.14 -0.5 -0.4 -0.63 0.07 -4.29 2.35 -0.75 0.09 -0.58 -0.47 -0.08 -0.74 0.47 -0.58 4.29 -2.34 0.4 -0.5 -0.07 -0.63 -0.07 -0.13c-0.22,-0.4 -0.73,-0.55 -1.13,-0.33l-4.29 2.35c-0.67,0.36 -1.13,0.93 -1.34,1.66z"/>
  <path class="fil0" d="M29.33 134.66l-0.53 -0.35 -0.63 0.14 -5.59 3.83c-0.38,0.26 -0.47,0.78 -0.22,1.16l0.09 0.13 0.53 0.35 0.16 0.02 0.47 -0.14 5.59 -3.83c0.38,-0.26 0.48,-0.78 0.22,-1.15l-0.09 -0.13z"/>
  <path class="fil0" d="M39.34 148.93l0.59 0.24 0.59 -0.25 0.1 -0.11c0.32,-0.34 0.31,-0.86 -0.02,-1.19l-2.7 -2.61c-0.33,-0.32 -0.86,-0.31 -1.18,0.02l-0.1 0.11 -0.24 0.6 0.25 0.58 0.7 0.67 -4.08 4.2 -0.24 0.6 0.26 0.58 0.11 0.11 0.58 0.24 0.6 -0.25 4.07 -4.21 0.7 0.67z"/>
  <path class="fil0" d="M44.01 154.12c-0.3,0.39 -0.54,0.41 -0.72,0.43l-0.71 -0.33 -0.69 -0.55 1.2 -1.51 0.69 0.54 0.47 0.61c0.05,0.17 0.07,0.41 -0.24,0.81zm1.43 1.13c0.78,-0.99 0.73,-1.89 0.55,-2.47 -0.18,-0.57 -0.54,-1.08 -1.08,-1.51l-1.46 -1.16 -0.61 -0.18 -0.56 0.31 -4.25 5.36c-0.28,0.37 -0.23,0.89 0.14,1.18l0.12 0.09 0.61 0.18 0.56 -0.31 1.3 -1.64 0.64 0.5 -0.58 2.72c-0.1,0.44 0.18,0.88 0.61,0.98l0.14 0.04 0.2 0.03 0.44 -0.13 0.38 -0.54 0.51 -2.34 0.27 0.01c0.54,0 1.35,-0.19 2.09,-1.13z"/>
  <path class="fil0" d="M48.85 160.07l-0.62 -0.4 0.91 -0.73 -0.29 1.13zm2.35 -4.21l-0.13 -0.09 -0.98 0.06 -5.53 4.46 -0.3 0.58 0.2 0.62 0.1 0.11c0.3,0.34 0.81,0.39 1.15,0.1l1.03 -0.83 1.64 1.05 -0.32 1.28c-0.11,0.44 0.14,0.88 0.58,1l0.14 0.05 0.23 0.03 0.42 -0.11 0.39 -0.52 1.74 -6.9c0.09,-0.34 -0.06,-0.71 -0.36,-0.9z"/>
  <path class="fil0" d="M59.9 160.96l-0.42 -0.49 -0.14 -0.07c-0.41,-0.21 -0.91,-0.04 -1.12,0.37l-1.47 2.91 -0.16 -4.2 -0.45 -0.71 -0.14 -0.07 -0.64 -0.05 -0.49 0.41 -3.06 6.04 -0.05 0.64 0.42 0.49 0.13 0.06c0.41,0.21 0.91,0.05 1.12,-0.37l1.48 -2.91 0.16 4.2 0.46 0.71 0.14 0.07 0.38 0.09 0.26 -0.04 0.48 -0.41 3.06 -6.04 0.05 -0.63z"/>
  <path class="fil0" d="M64.45 162.52c-0.73,-0.28 -1.45,-0.25 -2.08,0.09 -0.52,0.29 -0.9,0.71 -1.11,1.26 -0.27,0.7 -0.22,1.41 0.14,2.06l0.06 0.09 0.31 0.4 0.31 0.36 0.85 0.93 0.33 0.39 0.14 0.23 0 0.41 -0.29 0.31 -0.47 0.02c-0.03,-0.02 -0.38,-0.17 -1.51,-1.3 -0.28,-0.28 -0.71,-0.32 -1.04,-0.11l-0.13 0.07 -0.37 0.53 0.12 0.63c0.26,0.4 0.59,0.76 1,1.1 0.41,0.34 0.84,0.59 1.27,0.76l0.89 0.17c0.38,0 0.75,-0.1 1.1,-0.28 0.54,-0.29 0.91,-0.71 1.12,-1.26 0.24,-0.61 0.33,-1.57 -0.57,-2.62 -0.31,-0.34 -0.57,-0.63 -0.8,-0.87l-0.56 -0.61c-0.32,-0.35 -0.3,-0.58 -0.22,-0.77l0.28 -0.32 0.56 0.01c0.11,0.04 0.44,0.21 1.26,0.89 0.29,0.25 0.7,0.26 1.01,0.04l0.12 -0.08 0.35 -0.57 -0.17 -0.64c-0.47,-0.58 -1.11,-1.03 -1.91,-1.34z"/>
  <path class="fil0" d="M73.76 165.49l-3.62 -0.99c-0.45,-0.12 -0.91,0.14 -1.03,0.58l-0.04 0.15 0.08 0.63 0.51 0.4 0.93 0.25 -1.54 5.65 0.08 0.63 0.51 0.4 0.15 0.04 0.22 0.03c0.37,0 0.7,-0.25 0.81,-0.61l1.54 -5.65 0.94 0.26c0.44,0.12 0.91,-0.15 1.02,-0.59l0.04 -0.15 -0.08 -0.63 -0.51 -0.39z"/>
  <path class="fil0" d="M81.31 167.02l-0.15 -0.02 -0.62 0.14 -0.34 0.54 -0.8 4.82 -0.4 0.64 -0.72 0.16 -0.63 -0.39 -0.16 -0.73 0.8 -4.82c0.08,-0.45 -0.23,-0.88 -0.68,-0.96l-0.15 -0.02 -0.62 0.14 -0.34 0.54 -0.81 4.82c-0.13,0.75 0.04,1.47 0.48,2.08 0.44,0.62 1.06,1 1.81,1.12l0.49 0.04c0.57,0 1.11,-0.17 1.59,-0.52 0.62,-0.44 1.01,-1.07 1.13,-1.81l0.8 -4.83c0.08,-0.45 -0.23,-0.88 -0.68,-0.96z"/>
  <path class="fil0" d="M88.01 174.35l-2.1 -0.14 0.38 -5.84c0.03,-0.46 -0.32,-0.86 -0.77,-0.89l-0.15 -0.01 -0.6 0.21 -0.28 0.57 -0.44 6.83 0.2 0.6 0.57 0.28 3.07 0.2 0.05 0 0.55 -0.21 0.28 -0.58 0.01 -0.14c0.03,-0.46 -0.32,-0.85 -0.78,-0.89z"/>
  <path class="fil0" d="M95.25 167.91l-0.6 -0.22 -0.15 0.01c-0.45,0.02 -0.81,0.4 -0.8,0.86l0.22 6.76c0.02,0.45 0.39,0.81 0.83,0.81l0.03 -0 0.15 -0 0.58 -0.27 0.23 -0.59 -0.23 -6.77 -0.27 -0.58z"/>
  <path class="fil0" d="M104.64 166.9l-0.62 -0.17 -3.73 0.5 -0.55 0.32 -0.16 0.62 0.02 0.15c0.06,0.46 0.48,0.77 0.94,0.71l0.96 -0.13 0.78 5.81 0.32 0.55 0.5 0.17 0.11 -0.01 0.15 -0.02c0.45,-0.06 0.77,-0.48 0.71,-0.94l-0.78 -5.8 0.96 -0.13c0.46,-0.06 0.78,-0.48 0.72,-0.94l-0.02 -0.14 -0.32 -0.56z"/>
  <path class="fil0" d="M119.48 166.74c-0.45,-0.06 -0.84,-0.11 -1.17,-0.15l-0.82 -0.1c-0.48,-0.07 -0.61,-0.25 -0.67,-0.45l0 -0.42 0.43 -0.36c0.11,-0.03 0.47,-0.12 1.53,-0.13 0.38,-0 0.71,-0.26 0.8,-0.62l0.04 -0.15 -0.11 -0.65 -0.55 -0.37c-0.73,-0.14 -1.52,-0.07 -2.32,0.21 -0.74,0.26 -1.27,0.74 -1.53,1.42 -0.21,0.55 -0.22,1.11 -0.03,1.67 0.25,0.71 0.75,1.22 1.44,1.48l0.1 0.03 0.51 0.1 0.46 0.08 1.25 0.16 0.51 0.09 0.26 0.08 0.27 0.31 -0.02 0.42 -0.34 0.32c-0.01,0 -0.16,0.05 -0.68,0.05 -0.35,0 -0.79,-0.02 -1.31,-0.06 -0.39,-0.03 -0.75,0.21 -0.87,0.59l-0.04 0.14 0.06 0.64 0.49 0.4c0.43,0.13 0.89,0.19 1.4,0.19l0.08 0c0.54,-0 1.03,-0.09 1.46,-0.24 0.69,-0.23 1.19,-0.71 1.45,-1.37 0.22,-0.57 0.24,-1.13 0.04,-1.68 -0.22,-0.63 -0.76,-1.41 -2.14,-1.63z"/>
  <path class="fil0" d="M126.9 160.22l-0.47 -0.43 -0.64 0.03 -0.14 0.06c-0.42,0.19 -0.6,0.69 -0.4,1.11l2.07 4.43 0.03 0.76 -0.5 0.54 -0.74 0.04 -0.55 -0.51 -2.07 -4.43c-0.19,-0.42 -0.69,-0.59 -1.11,-0.4l-0.13 0.06 -0.43 0.47 0.02 0.64 2.07 4.43c0.32,0.69 0.87,1.19 1.57,1.44 0.31,0.12 0.64,0.17 0.95,0.17 0.4,0 0.8,-0.09 1.19,-0.27 0.68,-0.32 1.18,-0.86 1.44,-1.57 0.26,-0.71 0.23,-1.45 -0.1,-2.13l-2.07 -4.43z"/>
  <path class="fil0" d="M134.05 159.73l-0.2 0.01c-0.45,0.03 -0.84,0.06 -1.17,0.09l-0.83 0.07c-0.43,0.02 -0.63,-0.1 -0.75,-0.3l-0.08 -0.42 0.35 -0.43c0.1,-0.06 0.43,-0.21 1.48,-0.44 0.37,-0.07 0.64,-0.39 0.66,-0.77l0.01 -0.15 -0.23 -0.63 -0.61 -0.26c-0.75,0.01 -1.5,0.23 -2.24,0.67 -0.67,0.4 -1.09,0.99 -1.21,1.69 -0.1,0.59 0.01,1.14 0.31,1.65 0.39,0.64 0.97,1.04 1.7,1.16l0.11 0.01 0.28 0 0.24 -0 0.47 -0.02 1.26 -0.1 0.39 -0.01 0.12 0 0.27 0.03 0.32 0.25 0.06 0.42 -0.28 0.38c-0.03,0.02 -0.37,0.19 -1.95,0.38 -0.39,0.05 -0.69,0.36 -0.73,0.75l-0.01 0.15 0.19 0.61 0.57 0.3 0.38 0.02c0.35,0 0.72,-0.04 1.1,-0.12 0.52,-0.11 0.98,-0.29 1.38,-0.53 0.63,-0.37 1.02,-0.93 1.14,-1.64 0.1,-0.59 0,-1.15 -0.29,-1.65 -0.32,-0.54 -0.97,-1.18 -2.22,-1.18z"/>
  <path class="fil0" d="M138.86 153.71l0.78 -0.58c0.37,-0.27 0.45,-0.8 0.17,-1.16l-0.09 -0.12 -0.55 -0.33 -0.62 0.16 -3.02 2.24 -0.33 0.55 0.16 0.62 0.09 0.12c0.28,0.37 0.8,0.44 1.17,0.17l0.77 -0.58 3.49 4.71 0.67 0.34 0.5 -0.16 0.12 -0.09 0.33 -0.55 -0.16 -0.62 -3.49 -4.71z"/>
  <path class="fil0" d="M144.2 148.02l-0.58 -0.27 -0.6 0.22 -0.11 0.1c-0.34,0.31 -0.37,0.84 -0.05,1.18l4.56 5 0.61 0.28 0.56 -0.21 0.11 -0.1 0.27 -0.58 -0.21 -0.61 -4.56 -5.01z"/>
  <path class="fil0" d="M149.67 141.15l-0.1 0.11 -0.21 0.6 0.28 0.58 2.42 2.18 -4.08 -0.94 -0.81 0.25 -0.11 0.12 -0.21 0.61 0.28 0.57 5.03 4.53 0.56 0.22 0.62 -0.27 0.1 -0.11 0.21 -0.61 -0.28 -0.57 -2.43 -2.18 4.09 0.94 0.81 -0.26 0.11 -0.12 0.21 -0.6 -0.27 -0.58 -5.03 -4.53c-0.35,-0.31 -0.87,-0.28 -1.18,0.06z"/>
  <path class="fil0" d="M157.91 143.2l0.5 0.16 0.13 -0.01 0.55 -0.33 1.82 -2.48 0.15 -0.62 -0.33 -0.54 -0.11 -0.09c-0.38,-0.27 -0.89,-0.19 -1.16,0.18l-1.24 1.69 -1.57 -1.15 0.8 -1.09c0.27,-0.38 0.19,-0.89 -0.18,-1.16l-0.12 -0.09 -0.62 -0.15 -0.55 0.34 -0.8 1.09 -0.96 -0.7 1.24 -1.69 0.15 -0.62 -0.33 -0.54 -0.12 -0.1c-0.37,-0.27 -0.89,-0.19 -1.16,0.18l-1.82 2.48 -0.15 0.62 0.33 0.55 5.57 4.1z"/>
  <path class="fil0" d="M156.62 133.07l0.13 0.08 0.64 0.09 0.51 -0.38 0.49 -0.83 5.05 2.97 0.43 0.12 0.21 -0.02 0.51 -0.39 0.08 -0.13c0.24,-0.4 0.1,-0.91 -0.29,-1.14l-5.05 -2.98 0.49 -0.83 0.09 -0.64 -0.39 -0.51 -0.13 -0.08c-0.4,-0.23 -0.91,-0.1 -1.14,0.3l-1.91 3.24c-0.23,0.4 -0.1,0.91 0.3,1.14z"/>
  <path class="fil0" d="M37.09 47.15c0.79,0.7 1.62,1.05 2.49,1.05l0.18 0c0.93,-0.05 1.78,-0.51 2.54,-1.35l1.1 -1.22c0.3,-0.35 0.28,-0.88 -0.07,-1.18l-0.15 -0.13 -0.6 -0.21 -0.57 0.27 -1.09 1.22c-0.41,0.46 -0.82,0.7 -1.31,0.72 -0.4,0 -0.81,-0.19 -1.24,-0.58l-3.28 -2.92c-0.45,-0.41 -0.69,-0.81 -0.71,-1.23 -0.02,-0.43 0.16,-0.85 0.57,-1.31l1.09 -1.23 0.21 -0.61 -0.27 -0.57 -0.17 -0.15c-0.34,-0.3 -0.87,-0.27 -1.17,0.07l-1.09 1.22c-0.75,0.84 -1.1,1.74 -1.05,2.69 0.05,0.93 0.51,1.78 1.34,2.53l3.27 2.92z"/>
  <path class="fil0" d="M43.96 32.45c0.06,-0.51 0.28,-0.89 0.69,-1.21 0.33,-0.26 0.68,-0.38 1.07,-0.38l0.26 0.02c0.5,0.05 0.88,0.27 1.19,0.68l2.7 3.46c0.32,0.4 0.44,0.83 0.37,1.33 -0.06,0.5 -0.27,0.88 -0.68,1.2 -0.41,0.32 -0.83,0.43 -1.34,0.37 -0.5,-0.06 -0.88,-0.27 -1.2,-0.68l-2.7 -3.46c-0.32,-0.4 -0.43,-0.82 -0.37,-1.33zm1.59 5.95c0.62,0.8 1.45,1.27 2.45,1.39l0.47 0.03c0.82,0 1.57,-0.26 2.25,-0.79 0.8,-0.62 1.27,-1.45 1.39,-2.45 0.12,-1.01 -0.13,-1.93 -0.75,-2.73l-2.7 -3.46c-0.62,-0.8 -1.45,-1.26 -2.46,-1.38 -1.01,-0.13 -1.93,0.13 -2.72,0.75 -0.8,0.62 -1.27,1.45 -1.39,2.46 -0.12,1 0.13,1.92 0.76,2.72l2.7 3.47z"/>
  <path class="fil0" d="M57.17 33.36l0.74 0.45 0.39 -0.1 0.19 -0.1 0.41 -0.5 -0.06 -0.63 -2.9 -5.53 6.36 4.17 0.84 0.04 0.21 -0.11c0.41,-0.21 0.57,-0.71 0.35,-1.12l-4.59 -8.76 -0.49 -0.41 -0.64 0.06 -0.19 0.1c-0.41,0.21 -0.56,0.72 -0.35,1.13l2.9 5.53 -6.35 -4.18 -0.85 -0.04 -0.21 0.11 -0.41 0.49 0.06 0.64 4.59 8.76z"/>
  <path class="fil0" d="M68.22 28.07c0.11,0.36 0.44,0.59 0.8,0.59l0.25 -0.04 0.2 -0.06 0.5 -0.41 0.05 -0.64 -1.85 -5.97 5.51 5.25 0.83 0.19 0.22 -0.07c0.44,-0.14 0.69,-0.6 0.55,-1.04l-2.94 -9.44c-0.14,-0.44 -0.6,-0.68 -1.04,-0.55l-0.21 0.07 -0.49 0.41 -0.06 0.64 1.86 5.96 -5.5 -5.25 -0.82 -0.19 -0.23 0.07c-0.44,0.14 -0.69,0.6 -0.55,1.05l2.94 9.44z"/>
  <path class="fil0" d="M80.9 25.45l0.52 0.18 0.09 -0 4.47 -0.55c0.46,-0.05 0.78,-0.47 0.73,-0.93l-0.02 -0.21 -0.31 -0.55 -0.61 -0.18 -3.43 0.42 -0.43 -3.58 2.34 -0.28c0.45,-0.06 0.78,-0.47 0.73,-0.93l-0.03 -0.22 -0.31 -0.56 -0.61 -0.17 -2.34 0.29 -0.3 -2.48 3.42 -0.41 0.56 -0.31 0.17 -0.61 -0.03 -0.22c-0.06,-0.45 -0.48,-0.78 -0.93,-0.73l-4.46 0.55 -0.56 0.31 -0.17 0.62 1.22 10.02 0.31 0.56z"/>
  <path class="fil0" d="M96.42 24.99l1.64 0.09 0.05 0 0.55 -0.2 0.28 -0.58 0.01 -0.21c0.02,-0.46 -0.33,-0.85 -0.79,-0.88l-1.64 -0.09c-0.62,-0.04 -1.06,-0.2 -1.34,-0.52 -0.28,-0.31 -0.4,-0.77 -0.37,-1.39l0.25 -4.39c0.03,-0.61 0.21,-1.05 0.52,-1.32 0.32,-0.28 0.77,-0.41 1.38,-0.37l1.64 0.1c0.45,0.03 0.85,-0.33 0.88,-0.78l0.01 -0.22 -0.21 -0.61 -0.57 -0.28 -1.64 -0.1c-1.13,-0.07 -2.05,0.22 -2.75,0.85 -0.7,0.61 -1.08,1.5 -1.15,2.62l-0.25 4.38c-0.06,1.12 0.21,2.04 0.84,2.74 0.62,0.7 1.5,1.08 2.63,1.15z"/>
  <path class="fil0" d="M107.45 16.48l1.75 0.43 -2.1 8.69c-0.11,0.45 0.17,0.89 0.61,1l0.21 0.05 0.2 0.02 0.43 -0.12 0.38 -0.52 2.1 -8.69 1.75 0.42 0.63 -0.1 0.38 -0.52 0.05 -0.22c0.11,-0.44 -0.16,-0.89 -0.61,-1l-5.34 -1.29c-0.45,-0.12 -0.89,0.16 -1.01,0.6l-0.05 0.22 0.1 0.63 0.51 0.38z"/>
  <path class="fil0" d="M119.14 30.47l0.21 0.1 0.34 0.07c0.32,0 0.62,-0.18 0.76,-0.5l4.02 -9.04 0.02 -0.64 -0.44 -0.46 -0.2 -0.09c-0.42,-0.19 -0.91,0 -1.1,0.43l-4.02 9.03 -0.02 0.64 0.44 0.46z"/>
  <path class="fil0" d="M130.2 36.8l1.36 0.93 0.47 0.15 0.15 -0.01 0.54 -0.35 0.12 -0.17c0.26,-0.38 0.16,-0.89 -0.22,-1.16l-1.36 -0.92c-0.51,-0.35 -0.8,-0.72 -0.88,-1.14 -0.08,-0.41 0.05,-0.86 0.41,-1.38l2.47 -3.62c0.35,-0.51 0.72,-0.79 1.13,-0.87 0.42,-0.08 0.88,0.06 1.38,0.4l1.36 0.93c0.38,0.26 0.9,0.17 1.16,-0.22l0.12 -0.18 0.14 -0.62 -0.35 -0.53 -1.35 -0.93c-0.92,-0.63 -1.87,-0.86 -2.79,-0.69 -0.92,0.17 -1.7,0.73 -2.34,1.65l-2.48 3.63c-0.64,0.93 -0.86,1.87 -0.69,2.78 0.17,0.92 0.73,1.7 1.66,2.34z"/>
  <path class="fil0" d="M139.05 44.16c0.72,0.71 1.59,1.07 2.59,1.07l0.03 0c1.01,-0.01 1.89,-0.37 2.6,-1.1l5.02 -5.08c0.32,-0.33 0.32,-0.86 -0.01,-1.18l-0.16 -0.16 -0.59 -0.24 -0.59 0.25 -5.02 5.09c-0.36,0.36 -0.76,0.54 -1.3,0.54 -0.5,0 -0.89,-0.17 -1.25,-0.52 -0.36,-0.36 -0.54,-0.76 -0.54,-1.27 -0,-0.51 0.17,-0.92 0.53,-1.28l5.02 -5.09 0.24 -0.59 -0.25 -0.58 -0.15 -0.15c-0.33,-0.32 -0.86,-0.32 -1.18,0.01l-5.01 5.09c-0.71,0.72 -1.07,1.6 -1.07,2.61 0.01,1.01 0.38,1.88 1.1,2.6z"/>
  <path class="fil0" d="M154.38 46.92l-7.31 5.14 -0.34 0.54 0.14 0.63 0.13 0.18 0.68 0.36 0.48 -0.15 7.31 -5.14 1.03 1.47c0.27,0.38 0.79,0.46 1.16,0.21l0.18 -0.13 0.34 -0.54 -0.14 -0.62 -3.16 -4.49c-0.26,-0.38 -0.78,-0.46 -1.16,-0.2l-0.18 0.13 -0.34 0.54 0.14 0.62 1.04 1.48z"/>
  <path class="fil0" d="M60.91 58.81c-0.72,0.03 -1.44,0.18 -2.16,0.29 -1.12,0.18 -1.13,1.73 0.04,1.79 0.89,0.04 1.77,-0.31 2.66,-0.15 0.67,0.12 1.17,-0.31 1.22,-0.98 0.06,-0.9 0.8,-0.95 1.55,-1.06 0.72,-0.1 1.27,-0.83 0.83,-1.53 -0.34,-0.54 -0.64,-1.34 -0.7,-1.98l-0.02 -0.11 0.23 0.02c0.56,-0.04 0.95,-0.09 1.3,-0.57 0.25,-0.34 0.29,-0.65 0.11,-1.03l-0.1 -0.21c-0.19,-0.39 -0.64,-0.52 -1.03,-0.56 -1.34,-0.1 -2.88,0.59 -2.88,2.14 0,0.8 0.3,1.45 0.66,2.08 -0.81,0.34 -1.41,0.99 -1.7,1.85z"/>
  <path class="fil0" d="M42.3 80c0.53,-0.68 0.67,-0.85 1.03,-1.61 0.24,-0.5 0.07,-0.99 -0.37,-1.29 -0.12,-0.42 -0.15,-0.84 -0.09,-1.28 0,-0.56 -0.49,-0.97 -1.02,-0.97l-0.6 -0.01c-0.14,-1.52 0.71,-2.06 1.91,-3.38 0.32,-0.35 0.35,-0.95 -0.03,-1.29 -1.13,-0.97 -1.69,-2.92 1.07,-3.14 0.77,-0.07 1.17,-0.83 0.81,-1.51 -0.11,-0.67 -0.23,-1.34 -0.34,-2.02 0.74,-0.45 1.44,-0.83 2.3,-1l0.14 0.04c1.69,0.07 2.06,2.05 2.32,3.35 0.26,1.28 1.25,1.8 2.43,2.12 0.46,0.13 1.11,-0.19 1.16,-0.7 0.18,-1.55 1.22,-1.26 2.47,-1.24 1.01,0.01 1.76,-0.15 2.52,-0.83 0.26,-0.23 0.31,-0.64 0.23,-0.95 -0.22,-0.82 -0.03,-1.28 0.15,-2 0.24,-0.97 -1.22,-1.6 -1.66,-0.66 -0.41,0.87 -0.57,1.64 -0.47,2.51 -0.9,0.43 -2.17,-0.15 -3.12,0.12 -0.82,0.22 -1.33,0.69 -1.64,1.34 -0.25,-0.42 -0.15,-0.99 -0.28,-1.62 -0.12,-0.54 -0.56,-0.94 -0.73,-1.44 -0.47,-1.37 -1.52,-1.89 -2.77,-1.84 -1.53,-0.61 -3.33,0.44 -4.41,1.57l-0.34 0.34c-0.54,1.08 -0.51,1.9 -0.16,2.81 -2.25,0.98 -3.37,3.57 -1.63,5.46 -0.75,0.62 -1.6,1.04 -2.11,1.91 -0.53,0.93 0.18,2.45 0.4,3.34 0.11,0.44 0.56,0.71 0.98,0.71l0.44 0c0.02,0.58 0.1,0.97 0.46,1.35l-0.44 0.77c-0.49,0.85 0.78,1.82 1.4,1.03z"/>
  <path class="fil0" d="M33.59 92.76c-0.34,1.18 -0.36,2.41 1.09,2.87 1.17,0.37 2.7,-0.42 3.89,-1.12 0.21,0.41 0.43,0.81 0.68,1.2 0.52,0.83 1.95,0.24 1.59,-0.71l-0 -0.01 0.02 -0.02c0.98,0.45 1.79,-1.04 0.8,-1.5 -0.57,-0.27 -1.06,-0.27 -1.52,-0.03l-0.38 -0.77c-0.23,-0.49 -0.89,-0.54 -1.32,-0.31 -0.63,0.34 -1.26,0.67 -1.93,0.94 -0.34,0.15 -0.68,0.24 -1.03,0.33 -0.51,0.13 -0.09,-0.21 0.16,-0.82 0.21,-0.49 0.13,-1.08 -0.39,-1.35 -0.34,-0.25 -0.58,-0.55 -0.74,-0.89 1.33,-0.26 2.52,-1.16 3.88,-1.47 0.83,-0.19 0.94,-1.45 0.19,-1.82 -0.91,-0.44 -0.92,-1.34 -0.63,-2.2 0.44,-1.29 1.31,-0.89 2.22,-0.33 0.91,0.55 1.66,-0.7 1.04,-1.41 -3.17,-3.6 -6.71,1.61 -4.9,4.5 -0.97,0.51 -1.99,1.07 -2.77,0.81 -0.61,-0.21 -1.25,0.38 -1.23,0.98 0.04,1.18 0.38,2.39 1.26,3.12z"/>
  <path class="fil0" d="M21.67 106.1c0.4,-1.21 0.29,-0.41 0.99,-0.32 0.73,0.09 1.39,0.07 2.14,0.06 0.51,-0.01 1.01,-0.48 0.96,-1.02 -0.18,-1.76 1.66,-1.08 2.74,-0.69 0.47,0.17 1.1,-0.23 1.19,-0.71 0.08,-0.47 0.19,-0.88 0.23,-1.31l0.48 -0.57 0.43 -0.26c0.56,-0.76 0.69,-1.61 0.92,-2.49l0.12 -0.37 0.06 -0.13 0.18 -0.03 0.79 0.19c1.01,0.25 1.64,-1.24 0.68,-1.72 -1.19,-0.58 -2.61,-0.55 -3.35,0.68 -0.46,0.76 -0.59,1.77 -0.77,2.66l-0.29 0.23 -0.23 0.26c-0.49,0.06 -0.99,0.42 -0.94,0.98l-0 0.43c-1.88,-0.38 -3.83,-0.02 -4.16,1.91 -0.39,-0.05 -0.76,-0.16 -1.19,-0.37 -0.44,-0.22 -0.93,-0.16 -1.38,-0.02 -1.02,0.31 -1.25,1.54 -1.33,2.43 -0.11,1.06 1.46,1.09 1.75,0.19z"/>
  <path class="fil0" d="M26.18 109.33c0.29,0.22 0.61,0.38 0.96,0.47 1.01,0.72 0.2,1.18 -0.4,2.03 -0.36,0.52 -0.55,1.06 -0.58,1.61 -0.42,-0.05 -0.79,0.15 -1.02,0.5 -0.37,0.57 -0.33,1.07 -0.41,1.72 -0.12,0.96 1.18,1.66 1.68,0.67l0.25 -0.77 0.57 0.13c0.99,0.31 1.56,-0.85 1.18,-1.62 -0.42,-0.86 0.93,-1.95 1.23,-2.71 0.58,-1.46 -0.41,-2.44 -1.63,-3.05l-0.11 -0.05 -0 0 -0.2 -0.09c-0.33,-0.08 -0.63,-0.45 -0.7,-0.78 -0.17,-0.75 -1.38,-0.91 -1.69,-0.18 -0.48,1.12 -1.97,2.61 -2.94,1.07 -0.6,-0.96 -1.96,-0.08 -1.47,0.91 1.22,2.45 3.84,1.82 5.28,0.13z"/>
  <path class="fil0" d="M34.64 117.15c0.99,0.54 1.93,1.28 1.09,2.23 -0.43,0.5 -0.31,1.55 0.48,1.64l0.6 0.09c-0.33,1.38 -0.23,2.83 0.96,3.83 1.29,1.08 2.84,0.1 3.9,-0.95 0.37,0.38 0.77,0.72 1.22,1.05 0.91,0.65 1.69,-0.74 1.07,-1.47 -0.52,-0.6 -1.13,-1.08 -1.64,-1.7 -0.31,-0.38 -1.06,-0.34 -1.36,0.03 -0.37,0.55 -0.83,1.01 -1.37,1.4 -1.74,1.27 -0.55,-2.65 -0.6,-2.54 0.31,-0.75 -0.11,-1.41 -0.91,-1.49l-0.01 -0c0.33,-0.77 0.44,-1.62 -0.02,-2.31 -0.77,-1.16 -2.45,-1.46 -3.64,-2.13 -0.53,-0.3 -1.32,0 -1.43,0.62 -0.06,0.31 -0.73,2.93 -1.37,2.33 -0.58,-0.56 -1.76,0.04 -1.42,0.86 0.4,0.96 1.48,2.18 2.65,1.34 0.97,-0.71 1.49,-1.73 1.79,-2.84z"/>
  <path class="fil0" d="M46.39 123.52c-0.78,-0.22 -1.43,0.88 -0.77,1.41 0.38,0.31 0.74,0.72 1.19,1.01 0.76,0.5 1.66,-0.53 1.19,-1.25 -0.41,-0.63 -0.89,-0.97 -1.6,-1.18z"/>
  <path class="fil0" d="M49.23 125.06c-0.51,0.9 0.72,1.75 1.43,1.05l0.51 -0.43c0.47,1.49 1.58,2.88 3.27,2.35l0.96 -0.71c0.56,0.04 1.15,-0.2 1.6,-0.51 0.96,-0.66 1.11,-1.95 0.97,-3 -0.15,-1.07 -1.73,-1.09 -1.71,0.04 0.01,0.51 0.03,1.24 -0.54,1.5 -0.4,0.17 -0.8,-0.07 -1.2,0.17 -0.41,0.25 -0.69,1.06 -1.15,0.4 -0.33,-0.47 -0.46,-1.14 -0.49,-1.69 -0.04,-0.63 -0.64,-1.11 -1.26,-0.91 -1.02,0.32 -1.84,0.81 -2.38,1.76z"/>
  <path class="fil0" d="M58.78 122.85l-0 0 -0.04 0.01 0 -0.01 0.03 -0.01 0.01 0 -0 0zm1.71 -0.91c-0.44,-0.93 -1.97,-1.21 -2.75,-0.6 -0.4,0.3 -0.58,0.8 -0.3,1.26 0.25,0.39 0.87,0.61 1.26,0.3l0.03 -0.03 0.09 -0.01 0.11 0.01 0.08 -0.01c0.68,0.91 1.97,0.1 1.49,-0.91z"/>
  <path class="fil0" d="M121.15 121.58c1.47,-0.2 3.22,0.59 4.65,0.09 1.58,-0.56 3.1,-2.52 4.72,-2.66 3.44,-0.31 6.14,2.77 9.43,0.37 0.95,-0.69 0.09,-2.04 -0.95,-1.53 -3.44,1.64 -6.48,-2.22 -9.64,-0.91 -1.01,0.42 -1.74,0.93 -2.55,1.66 -1.74,1.56 -3.86,0.67 -5.94,1.25 -0.95,0.27 -0.73,1.87 0.28,1.74z"/>
  <path class="fil0" d="M107.54 91.39c-0.85,0.66 -0.06,2.05 0.9,1.45 1.68,-1.03 1.89,-2.31 1.67,-3.7l0.37 -0.19c1.89,-1.61 5.05,-4.5 4.62,-7.28 -0.17,-1.06 -1.83,-1.08 -1.71,0.04 0.23,2.1 -2.09,4.25 -3.68,5.66 -0.24,-0.92 -0.47,-1.85 -0.43,-2.78 0.04,-1.03 -1.46,-1.1 -1.72,-0.19 -0.74,2.45 2.41,5.11 -0.02,7z"/>
  <path class="fil0" d="M115.13 93.84c-2.35,0.76 -4.92,1.09 -6.96,2.57 -0.87,0.63 -0.02,2.06 0.89,1.44 2.04,-1.39 4.58,-1.39 6.76,-2.46 0.88,-0.43 0.21,-1.84 -0.69,-1.54z"/>
  <path class="fil0" d="M124.26 90.42c0.71,-0.88 -0.4,-1.91 -1.26,-1.19 -1.62,1.37 -2.72,3.64 -5.02,3.94 -1.05,0.14 -1.03,1.79 0.04,1.67 2.69,-0.31 4.62,-2.4 6.24,-4.41z"/>
  <path class="fil0" d="M128.14 89.38c0.69,-0.43 1.42,-0.79 2.09,-1.25 0.9,-0.61 0.04,-2.03 -0.9,-1.45 -0.69,0.43 -1.41,0.8 -2.08,1.25 -0.9,0.61 -0.04,2.04 0.9,1.45z"/>
  <path class="fil0" d="M111.99 118.17c3.73,-0.98 4.49,-5.44 4.38,-8.77 -0.03,-0.96 -1.56,-1.19 -1.73,-0.19 -0.49,2.91 -0.26,5.97 -3.35,7.41 -0.92,0.43 -0.2,1.8 0.7,1.55z"/>
  <path class="fil0" d="M123.88 99.94c2.66,-1.22 4.08,-1.4 6.73,-0.21 1.33,0.6 2.58,1.14 4,1.48 2.61,0.62 5.88,0.73 8.28,-0.6 0.91,-0.51 0.23,-1.97 -0.75,-1.66 -1.71,0.55 -3.28,0.7 -4.8,0.58 0.27,-0.94 0.87,-1.66 1.53,-2.43 0.74,-0.87 -0.43,-1.95 -1.27,-1.21 -0.99,0.87 -1.96,2.01 -2.12,3.35 -1.18,-0.25 -2.34,-0.63 -3.55,-1.09 0.67,-1.2 1.41,-2.33 2.34,-3.36 0.75,-0.84 -0.44,-1.96 -1.26,-1.2 -1.17,1.1 -2.12,2.43 -2.73,3.91l-0.41 -0.16c-2.49,-1 -4.69,-0.13 -6.9,1.12 -0.99,0.56 -0.08,1.92 0.91,1.47z"/>
  <path class="fil0" d="M116.34 102.76c-0.46,2.52 -1.96,4.14 -4.43,4.81 -1.07,0.29 -0.56,1.84 0.49,1.62 3.04,-0.62 5.09,-3.01 5.58,-6.03 0.17,-1.07 -1.45,-1.49 -1.65,-0.4z"/>
  <path class="fil0" d="M118.37 99.22c0.35,-0.81 0.4,-1.66 0.32,-2.54 -0.05,-0.48 -0.41,-0.89 -0.92,-0.87 -0.53,0.01 -0.83,0.43 -0.87,0.92 -0.06,0.62 -0.06,1.23 -0.19,1.84 -0.19,0.96 1.24,1.63 1.66,0.65z"/>
  <path class="fil0" d="M111.77 58.72c-1.41,2.46 -1.67,5.3 -1.14,8.05 0.26,1.35 1.06,2.54 1.94,3.55 0.28,0.32 0.77,0.59 1.13,0.82 0.52,0.32 0.64,0.82 0.57,1.37 -0.22,0.69 -0.52,1.38 -0.89,2.1l-0.34 0.6c-0.48,0.9 0.72,1.79 1.43,1.06 1.1,-1.13 1.94,-2.47 2.05,-3.89 0.13,-0.38 0.25,-0.76 0.37,-1.14 0.56,-1.84 -0.48,-3.29 1.21,-4.69 0.73,-0.6 2.4,-1.3 2.49,-2.39 0.04,-0.52 0.02,-1.02 0.1,-1.46 0.89,1.25 2.52,1.89 4.03,1.5 0.98,-0.27 0.7,-1.73 -0.28,-1.73 -0.98,0 -1.81,-0.31 -2.5,-1.01l-0.14 -0.1c0.71,-0.39 1.43,-0.73 2.08,-1.24 0.88,-0.68 0.09,-2.03 -0.92,-1.48 -1.36,0.73 -2.93,1.42 -3.93,2.64 -0.25,0.31 -0.48,0.83 -0.44,1.22 0.11,1.22 -0.09,1.18 -0.94,1.99 -1.42,1.35 -2.53,1.09 -2.62,3.19 -0.01,0.43 -0.04,0.84 -0.07,1.25 -0.56,-0.44 -1.19,-0.86 -1.6,-1.41 -1.76,-2.38 -0.61,-5.63 0.1,-8.12 0.29,-1.02 -1.18,-1.55 -1.69,-0.66z"/>
  <path class="fil0" d="M98.16 45.22c0.26,1.7 0.56,3.42 0.52,5.14 -0.05,1.97 -1.23,3.69 -2.28,5.27l-0.08 0.72 -0.46 0.52c-0.98,2.69 -3.18,4.42 -4.72,6.75 -1.54,2.32 -1.52,5.09 -0.9,7.7 0.23,0.97 1.9,0.72 1.75,-0.28 -0.47,-3.14 0.17,-5.49 2.04,-8.02 1.38,-1.86 2.77,-3.5 3.55,-5.72l-0 -0.57 0.31 -0.28c1.17,-1.66 2.18,-3.39 2.47,-5.42l0.12 -0.21c0.44,-1.32 1.2,-2.49 1.74,-3.76 0.58,-1.37 0.61,-2.76 0.35,-4.2 -0.17,-0.95 -1.8,-0.69 -1.68,0.28 0.17,1.46 0.02,2.67 -0.63,3.99l-0.03 0.06c-0.12,-0.76 -0.26,-1.51 -0.38,-2.24 -0.16,-0.95 -1.82,-0.68 -1.67,0.27z"/>
  <path class="fil0" d="M70.47 54.37c2.74,2.29 6.36,3.03 8,6.5 1.35,2.85 2.89,5.56 5.5,7.43 0.89,0.63 1.73,-0.74 1.07,-1.45 -1.24,-1.35 -2.46,-2.63 -3.48,-4.16 -1.02,-1.55 -1.4,-3.39 -2.5,-4.88 -0.57,-0.77 -1.33,-1.42 -2.17,-2 -0.17,-0.24 -0.31,-0.49 -0.4,-0.82 -0.14,-0.55 -0.07,-1.16 -0.2,-1.71 -0.22,-0.96 -1.83,-0.71 -1.72,0.28 0.03,0.31 0.04,0.62 0.05,0.93 -1.08,-0.55 -2.17,-1.03 -3.14,-1.51 -0.85,-0.42 -1.8,0.73 -1.02,1.39z"/>
  <path class="fil0" d="M87.35 50.65c-0.32,0.32 -0.6,0.7 -0.82,1.09 -0.4,-0.41 -0.88,-0.78 -1.48,-1.06 -1.01,-0.48 -1.82,0.96 -0.84,1.52 2.68,1.53 1.81,4.63 2.04,7.18 0.1,1.17 1.66,1.08 1.77,-0.04 0.19,-1.9 0.28,-4.04 -0.37,-5.79l0.02 -0.03c0.28,-0.61 0.45,-1.19 0.91,-1.7 0.75,-0.82 -0.45,-1.95 -1.23,-1.18z"/>
  <path class="fil0" d="M64.92 74.77c-0.68,-0.84 -2.13,0.01 -1.46,0.9 1.19,1.57 2.41,3.12 3.7,4.62 1.91,2.21 3.19,4.62 4.83,6.97 -0.89,-0.18 -1.78,-0.26 -2.61,-0.17 -1.08,0.12 -1.07,1.68 0.04,1.71 2.45,0.04 4.35,1.29 6.36,2.49l0.11 0.1c1.93,1.76 2.83,4.26 4.54,6.2 0.7,0.79 2.1,-0.34 1.44,-1.17 -1.13,-1.45 -1.9,-3.16 -3.06,-4.58 -0.49,-0.6 -1.04,-1.15 -1.6,-1.69l-0.1 -0.16c-0.29,-0.32 -0.63,-0.6 -0.98,-0.88 -0.77,-0.72 -1.53,-1.45 -2.2,-2.29 -1.38,-1.71 -2.24,-3.78 -3.46,-5.61 -1.52,-2.29 -3.84,-4.29 -5.56,-6.45z"/>
  <path class="fil0" d="M54.59 80.16c1.65,0.83 3.03,2.44 4.79,3.02 1.87,0.63 3.47,0.38 4.84,2.05 0.61,0.74 1.91,-0.31 1.31,-1.07 -1.2,-1.52 -2.38,-2.02 -4.26,-2.31 -2.32,-0.36 -3.88,-2.48 -6.05,-3.3 -0.93,-0.36 -1.51,1.17 -0.63,1.61z"/>
  <path class="fil0" d="M75.37 75.8c-0.41,-0.91 -1.99,-0.2 -1.59,0.72 0.8,1.89 2.12,3.17 3.78,4.34 1.61,1.14 3.45,1.97 4.71,3.48 0.67,1.3 1.31,2.61 1.72,4.07 0.32,1.12 1.91,0.58 1.7,-0.52 -0.25,-1.36 -0.76,-2.57 -1.37,-3.75l-0 -0.01 -0.01 -0.02c-0.4,-0.76 -0.83,-1.52 -1.27,-2.29 -1.48,-2.61 -2.08,-5.65 -2.79,-8.53 -0.27,-1.08 -1.88,-0.57 -1.64,0.5 0.5,2.25 1.04,4.46 1.86,6.62 -1.97,-1.26 -4.06,-2.4 -5.08,-4.62z"/>
  <path class="fil0" d="M87.3 71.91c-0.08,2.31 0.31,4.65 0.19,6.95 -0.39,-1.1 -0.79,-2.19 -1.3,-3.25 -0.48,-0.99 -1.9,-0.09 -1.46,0.9 0.9,1.96 1.4,4.06 2.14,6.08 0.34,0.9 1.45,0.79 1.77,-0.05 1.29,-3.33 0.61,-7.2 0.4,-10.67 -0.07,-1.12 -1.71,-1.08 -1.74,0.04z"/>
  <path class="fil0" d="M38.04 100c-0.63,-0.93 -2.12,-0.03 -1.5,0.93 0.83,1.27 1.85,2.81 3.61,2.67 3.09,-0.24 5.31,1.9 8.3,2.39 0.85,0.14 1.5,0.46 2.06,0.84 -3.84,0.31 -7.83,3.12 -10.76,4.99 -0.95,0.61 -0.06,2.04 0.92,1.48 3.17,-1.82 8.01,-5.69 11.98,-4.61 0.36,0.33 0.75,0.63 1.22,0.88 0.32,0.17 0.68,0.32 1.07,0.44 -1.58,0.97 -3.02,2.31 -4.94,2.51 -1.1,0.11 -1.09,1.72 0.04,1.73 3.31,0.01 5.57,-2.74 8.55,-3.78 1.76,0.02 3.54,-0.16 4.79,-0.31 1.21,-0.14 1.18,-1.84 -0.04,-1.89 -2.16,-0.1 -7.46,0.52 -9.05,-1.02 -1.09,-1.07 -2.21,-2.43 -3.77,-2.84 -2.18,-0.57 -4.05,-0.91 -6.03,-2.09 -2.07,-1.25 -4.81,0.11 -6.45,-2.33z"/>
  <path class="fil0" d="M40.51 105.23c-0.23,-0.37 -0.8,-0.55 -1.17,-0.28 -0.73,0.55 -1.48,1.04 -2.3,1.46 -0.42,0.21 -0.51,0.8 -0.28,1.18 0.26,0.42 0.76,0.49 1.17,0.27 0.81,-0.41 1.56,-0.92 2.29,-1.47 0.37,-0.28 0.54,-0.74 0.28,-1.16z"/>
  <path class="fil0" d="M99.88 89.41c0.32,0.36 0.93,0.3 1.23,-0.02 0.34,-0.36 0.3,-0.89 -0.03,-1.24 -0.28,-0.29 -0.36,-0.84 -0.38,-1.26 -0.03,-1.09 -1.71,-1.06 -1.7,0.04 0.01,0.9 0.26,1.81 0.87,2.48z"/>
  <path class="fil0" d="M103.4 67.54c-0.25,0.3 -0.51,0.62 -0.74,0.96 -0.45,-2.04 -0.85,-3.92 -0.9,-5.4 -0.03,-0.95 -1.59,-1.19 -1.71,-0.19 -0.72,5.89 4.73,14.58 0.4,19.61 -0.63,0.74 0.29,2.05 1.12,1.39 3.21,-2.55 2.7,-7.58 1.74,-12.38 0.04,-1.04 0.74,-1.99 1.33,-2.81 0.64,-0.86 -0.51,-2.05 -1.24,-1.18z"/>
  <path class="fil0" d="M75.25 48.3l0.62 0.1 0.16 0c0.39,0.85 1.44,0.82 1.78,-0.06l0.09 -0.21 0.11 0.29c0.18,0.46 0.52,0.69 1.01,0.72 1.26,0.11 1.98,-0.71 2.31,-1.84l-0.11 -0.7c0.38,-0.22 0.62,-0.75 0.39,-1.23 -0.54,-1.15 -1.51,-2.52 -1.18,-3.78 0.64,0.37 1.64,-0.25 1.32,-1.03 -0.21,-0.51 -0.39,-0.93 -0.82,-1.28 -0.43,-0.36 -0.97,-0.35 -1.38,0.03 -2.03,1.9 -1.13,5.11 0.57,6.96l-0.31 0.18 -0.28 0.33c-0.34,-0.57 -0.82,-0.99 -1.59,-1.06 -0.59,-0.05 -1.03,0.38 -1.35,0.89 -0.39,-0.04 -0.76,0.09 -1.15,0.05 -0.97,-0.09 -1.06,1.41 -0.18,1.64z"/>
  <path class="fil0" d="M82.58 39.96c1.41,-0.24 3.72,-2.63 4.84,-0.97 0.57,0.84 0.63,3.11 0.32,3.91 -0.32,0.84 0.92,1.41 1.48,0.81l0.09 -0.14 0.19 0.1c0.14,0.29 0.39,0.51 0.77,0.49 0.42,-0.01 0.9,-0.41 0.83,-0.87 -0.1,-0.59 -0.42,-1.12 -1.06,-1.22l-0.18 0c0.19,-1.5 -0.27,-3.37 -0.92,-4.31 -1.95,-2.83 -4.69,-0.06 -6.86,0.57 -1.09,0.31 -0.56,1.81 0.5,1.63z"/>
  <path class="fil0" d="M90.86 45l0.13 0.65 0.24 0.6c0.03,0.5 0.41,0.87 0.92,0.88 0.89,0.01 1.76,-0.09 2.56,-0.25 0.59,-0.12 0.82,-0.76 0.84,-1.28 0.03,-0.66 -0.56,-1.11 -1.15,-1.15 -0.32,-0.02 -0.65,0.22 -0.8,0.49l-0.09 0.21 -0.01 0.01 -0.15 0.05 -0.62 0.1 -0.17 -0.36c-0.06,-0.46 -0.37,-0.84 -0.87,-0.83 -0.45,0.01 -0.86,0.42 -0.83,0.87z"/>
  <path class="fil0" d="M103.23 49.68c0.67,-0.46 1.21,0.55 1.83,1 0.5,0.36 1.12,0.57 1.7,0.77 1.52,0.53 1.8,-0.71 1.69,-1.85 1.18,-0.16 2.31,-0.69 3.44,-1.01 1.22,-0.35 1.97,-0.4 2.02,1.22 0.02,0.81 1.08,0.93 0.69,1.84 -0.96,2.22 -2.48,4.8 1.34,4.9 1.03,0.02 1.24,-1.66 0.2,-1.81 -1.21,-0.18 -1.11,-0.22 -0.48,-1.21 0.38,-0.59 0.7,-1.18 0.91,-1.85 0.36,-1.12 -0.53,-2.34 -0.84,-3.32 -1.32,-4.07 -5.8,-0.3 -8.39,-0.51 -0.56,-0.04 -1.02,0.64 -0.83,1.15l0.04 0.39 -0.21 -0.18c-0.37,-0.31 -0.78,-0.69 -1.14,-1.13 -0.96,-1.2 -2.14,-0.61 -3.05,0.28 -0.69,0.69 0.27,1.9 1.08,1.33z"/>
  <path class="fil0" d="M120.88 54.03c-1.26,-1.56 -3.97,-1.13 -4.07,1.83 -0.03,1.09 1.78,1.3 1.92,0.21 0.13,-0.96 0.71,-0.7 0.76,0.21 0.06,1.14 1.67,1.31 1.98,0.22 0.66,-2.26 2.18,-0.48 3.37,-0.11 1.49,0.45 2.13,1.18 2.85,2.27 -0.49,0.37 -0.95,0.78 -1.43,1.16 -0.55,0.44 -0.63,1.24 0.04,1.64 0.49,0.29 0.88,0.52 1.3,0.68l-0.22 0.78c-0.25,0.95 1.13,1.48 1.59,0.62 0.32,-0.6 0.57,-1.21 0.81,-1.85 0.24,-0.63 -0.4,-1.16 -0.96,-1.2l-0.26 -0.04c0.32,-0.25 0.65,-0.47 1.01,-0.66 0.47,-0.24 0.59,-0.93 0.32,-1.36 -0.68,-1.07 -1.3,-2.16 -2.32,-2.94 -0.94,-0.72 -2.13,-1 -3.19,-1.49 -1.48,-0.69 -2.6,-0.69 -3.5,0.02z"/>
  <path class="fil0" d="M127.8 64.59c-0.63,1.62 0.16,3.22 1.98,3.3 1.41,0.06 2.34,-1.01 2.79,-2.22 0.68,0.16 1.33,-0.01 2.15,-0.25 0.9,-0.28 0.71,-1.84 -0.27,-1.69 -0.81,0.13 -1.33,0.37 -2.04,-0.14 -0.64,-0.45 -1.28,0.22 -1.35,0.82 -0.07,0.66 -0.43,1.46 -1.18,1.57 -0.64,0.1 -0.53,-0.53 -0.42,-0.97 0.28,-1.11 -1.28,-1.43 -1.67,-0.42z"/>
  <path class="fil0" d="M138.4 70.03l-0.44 0.41c-0.67,-0.09 -1.4,0.59 -0.89,1.29 0.56,0.78 1.21,1.48 1.77,2.27 -1.72,0.06 -3.08,2.29 -4.93,1.44 -0.37,-0.16 -0.88,-0.17 -1.15,0.17 -0.31,0.39 -0.53,0.81 -0.76,1.24 -0.5,0.94 0.78,1.92 1.51,1.11l0.39 -0.56c0.83,0.2 1.71,0.2 2.48,-0.26 0.58,-0.35 2.01,-1.74 2.67,-1.23 0.43,0.34 0.95,0.35 1.35,-0.03l0.16 -0.06c0.54,0.04 1.04,-0.52 0.99,-1.04 -0.06,-0.82 -0.37,-1.66 -0.84,-2.35 -0.29,-0.43 -0.72,-0.52 -1.09,-0.38l-0.43 -0.5c1.22,-0.45 2.48,-1.19 2.88,-2.48 0.49,-1.53 -1.37,-3.24 -2.82,-3.09 -0.57,0.06 -1.09,0.68 -0.81,1.25l0.01 0.11 0.02 0.09c0.12,0.43 0.54,0.64 0.94,0.59l0.06 0.03 0.48 0.43 0.11 0.37c-0.14,0.58 -1.19,0.97 -1.66,1.17z"/>
  <path class="fil0" d="M148.36 82.27c-0.58,-0.77 -1.28,-0.77 -1.92,-1.38 -0.41,-0.39 -0.98,-0.32 -1.38,0.03 -0.55,0.5 -1.22,1.25 -1.78,0.47 -0.48,-0.66 -0.81,-1.41 -1.34,-2.04 -1.26,-1.5 -2.91,-1.49 -4.59,-0.69 -0.89,0.42 -0.21,1.89 0.71,1.56 2.34,-0.85 2.56,1.19 3.79,2.62 1.24,1.45 2.76,0.91 4.02,-0.06 0.37,0.17 0.74,0.31 1.11,0.57 0.4,0.76 -0.05,1.38 -0.87,1.68 -1.03,0.38 -0.58,1.93 0.49,1.64 1.98,-0.54 2.96,-2.57 1.84,-4.24l-0.09 -0.17z"/>
  <path class="fil0" d="M147.8 87.94l-0.18 0.49c-0.36,-0.01 -0.57,-0.17 -0.57,-0.71 0,-0.51 -0.44,-0.86 -0.92,-0.87l-0.36 -0.02c0.09,-0.68 -0.84,-1.32 -1.49,-0.71 -0.56,0.51 -0.83,0.87 -0.88,1.65 -0.04,0.57 0.62,0.98 1.13,0.82l0.69 -0.04c0.19,1.34 1.55,2.06 3.04,1.9 0.51,-0.05 0.79,-0.32 0.97,-0.77 0.2,-0.52 0.32,-0.98 0.31,-1.53 -0.01,-1 -1.52,-1.16 -1.75,-0.19z"/>
  <path class="fil0" d="M156.9 85.47c0.19,-0.66 -0.37,-1.15 -0.97,-1.2 -1.55,-0.14 -2.78,0.21 -4.17,0.87 -0.87,0.41 -0.2,1.88 0.69,1.53 0.79,-0.31 1.53,-0.49 2.32,-0.53 -0.06,0.31 -0.1,0.63 -0.17,0.94 -0.17,0.73 0.51,1.37 1.23,1.17 0.38,-0.11 0.82,-0.11 1.25,-0.07 0.2,1.76 1.63,3.07 2.9,4.37 -1.73,0.85 -4.09,1.02 -3.87,3.55l0.14 0.43c-0.72,0.15 -1.12,1.12 -0.29,1.57l0.25 0.13 -0.11 0.62c-0.82,0.03 -1.61,-0.03 -2.41,-0.34 -0.75,-0.3 -1.26,0.58 -1.14,1.2 0.16,0.83 0.69,1.81 1.45,2.34 -0.38,0.03 -0.77,0.12 -1.21,0.31 -1.01,0.43 -0.61,1.92 0.5,1.66 2.03,-0.49 2.85,2.21 2.82,4.03 -0.47,0 -0.93,-0.01 -1.4,-0.08 -1.1,-0.16 -1.54,1.4 -0.43,1.71 0.89,0.25 1.81,0.35 2.74,0.34 0.41,-0 0.86,-0.32 0.93,-0.74 0.37,-2.19 -0.37,-5.8 -2.39,-6.9 0.64,-0.21 0.84,-0.9 0.44,-1.41 0.43,0.01 0.86,-0.01 1.31,-0.08 0.44,-0.08 0.79,-0.62 0.76,-1.05 -0.04,-0.56 0.05,-1.16 0.09,-1.71 0.05,-0.59 -0.34,-0.99 -0.8,-1.25 0.27,-0.13 0.49,-0.39 0.53,-0.78 0.15,-1.39 3.4,-1.7 4.46,-2.59 0.45,-0.38 0.33,-1.11 -0.04,-1.49 -0.99,-1.01 -3.67,-2.8 -3.33,-4.43 0.1,-0.46 -0.17,-1.1 -0.7,-1.17 -0.55,-0.06 -1.05,-0.13 -1.54,-0.15l0.17 -0.76z"/>
  <path class="fil0" d="M153.13 109.19c-0.49,-0.8 -1.86,-0.22 -1.53,0.7l0.13 0.36c-2.75,0.42 -4.96,1.52 -4.28,4.16 -0.91,0.14 -1.65,0.59 -1.9,1.75 -0.18,0.85 0.13,1.78 0.2,2.62 0.06,0.66 -0.82,3.83 -1.43,2.63 -0.39,-0.77 -1.37,-0.52 -1.78,0.04 -0.46,0.64 -0.89,1.29 -1.35,1.94l-0.14 0.49c-0.77,0.28 -0.64,1.62 0.33,1.62 0.54,0 0.8,-0.42 0.79,-0.84l0.47 -0.21 0.8 -0.84c0.92,0.73 2.09,0.54 3.06,-0.7 0.66,-0.85 1.04,-1.94 1.26,-3 0.24,-1.18 -0.81,-3.59 1.06,-3.38 0.89,0.1 1.72,-0.72 1.18,-1.62 -1.59,-2.61 1.07,-2.66 3.07,-2.81 0.79,-0.06 1.16,-0.83 0.82,-1.51 -0.21,-0.49 -0.46,-0.95 -0.75,-1.39z"/>
  <path class="fil0" d="M129.33 112.97c-1.02,0.02 -1.85,0.57 -2.58,1.47 -0.59,0.73 0.27,2.02 1.1,1.37 0.64,-0.5 1.09,-1.06 2.02,-0.88l0.62 -0.08c1.2,0.52 2.24,-0.51 2.56,-2.3 0.12,-0.7 -0.42,-1.18 -1.09,-1.08 -0.54,-0.74 -1.08,-1.64 0.07,-1.98 0.4,-0.12 0.7,-0.52 0.68,-0.93 -0.16,-2.75 -2.61,-3.95 -4.95,-2.59 -0.97,0.57 -0.08,1.94 0.91,1.46 0.96,-0.47 1.74,-0.21 2.03,0.64 -1.63,1.07 -1.54,2.86 -0.41,4.44 -0.38,-0.08 -0.76,0.09 -0.96,0.44z"/>
  <path class="fil0" d="M143.98 110.05c1.02,-1.47 0.36,-2.82 -0.93,-3.44 0.12,-0.7 -0.04,-1.4 -0.72,-1.89 -0.96,-0.69 -2.1,-0.33 -2.97,0.31 -0.55,-0.25 -1.15,-0.4 -1.76,-0.61 -0.93,-0.3 -1.52,1.2 -0.63,1.59 0.81,0.35 1.58,0.6 2.27,1.18 0.83,0.7 1.76,-0.18 1.52,-0.96 0.25,-0.11 0.42,-0.03 0.31,0.36l-0.17 0.33 -0.06 0.45c-0.05,0.72 0.96,1.17 1.49,0.73 0.41,0.16 0.41,0.59 0.15,1.13 -0.5,1.01 0.88,1.73 1.5,0.83z"/>
  <path class="fil0" d="M139.25 110.46c-1.32,-0.03 -2.32,0.63 -2.09,2.04 0.08,0.49 0.37,0.94 0.59,1.37l0.15 0.28 0.02 0.03 0.01 0.08 0.19 0.38 0.13 0.19c0.32,0.6 1.18,0.75 1.6,0.05 0.21,-0.34 0.2,-0.78 0.11,-1.15l-0.15 -0.32 -0.17 -0.22 0.01 -0.01 -0.28 -0.44 -0.31 -0.57 0.21 -0.01c1.08,-0.08 1.04,-1.65 -0.04,-1.69z"/>
  <path class="fil0" d="M51.49 119.36c0.21,1.12 0.89,1.97 2.06,2.38 0.36,0.13 0.8,-0.1 0.97,-0.42 0.25,-0.45 0.05,-0.91 -0.34,-1.18l-0.76 -0.56 -0.22 -1c-0.02,-0.5 -0.43,-0.85 -0.92,-0.86 -0.37,-0.01 -0.69,-0.13 -1.03,-0.28 -0.99,-0.45 -1.8,0.96 -0.82,1.49 0.35,0.19 0.7,0.34 1.06,0.43z"/>
  <path class="fil0" d="M67.73 119.23c-0.09,0.56 -0.19,0.97 -0.05,1.52 0.13,0.54 0.69,0.7 1.16,0.62 1.57,-0.25 2.54,1.64 4.13,1.45 0.94,-0.11 1.22,-1.5 0.19,-1.74 -0.75,-0.17 -1.3,-0.61 -1.95,-1 -0.57,-0.35 -1.17,-0.51 -1.78,-0.55l0.01 -0.12c0.05,-0.99 -1.56,-1.16 -1.71,-0.19z"/>
  <path class="fil0" d="M91.17 116.75c0.61,0.7 1.33,1.29 1.95,1.66l0.65 0.3c0.35,1.15 -0.96,2.31 -2.05,3.11 -0.49,-1.64 -0.78,-3.22 -0.55,-5.07zm5.57 0.18c0.46,0.26 0.96,0.43 1.48,0.45l-0.08 0.83 0.27 0.65c-0.33,0.15 -0.68,0.21 -1.06,0.06 -0.49,-0.19 -0.84,-0.58 -0.94,-1.07 0.16,-0.27 0.27,-0.58 0.34,-0.91zm1.29 -5.94c0.37,0.5 0.88,0.86 1.42,1.01l-0.03 0.12 0 0.01c-0.56,1 -0.83,2.09 -0.99,3.21l-0.78 -0.3 -0.75 -0.57c0.35,-1.21 0.69,-2.37 1.13,-3.48zm1.53 -2.97l0.19 -0.26c0.24,0.39 0.54,0.71 0.9,0.93 -0.22,0.45 -0.41,0.91 -0.59,1.37l-0.12 -0.03 -0.09 -0.1 -0.3 -0.38c-0.16,-0.25 -0.3,-0.54 -0.4,-0.85l0.42 -0.67zm-6.01 27.86l0.76 0.6c0.29,0.28 0.49,0.6 0.63,0.95 -0.36,0 -0.72,0 -1.07,0 -0.41,0 -0.81,0 -1.22,0 0.41,-0.45 0.71,-0.96 0.91,-1.55zm-23.26 -8.61c-0.52,0.38 -1.1,0.26 -1.66,0.04l-0.04 -0.53c0.77,-0.09 1.53,-0.14 2.28,-0.16l-0.58 0.64zm15.34 -9.21c-1.63,-1.22 -3.96,-1.04 -5.87,-1.41 0,0 -0.43,-0.28 -1.05,-0.7 0.98,0.03 1.99,-0.01 3.05,-0.08 3.48,-0.21 4.71,1.55 5.79,3.63 -0.65,-0.48 -1.3,-0.95 -1.93,-1.43zm4.67 -23.02c-0.72,-0.09 -1.86,-0.29 -1.58,-0.98 0.42,-1.05 -0.87,-1.76 -1.53,-0.84 -1.43,1.99 0.6,3.43 2.51,3.7 0.03,0.44 0.16,0.86 0.36,1.25l-0.07 0.23c-0.43,5.25 1.06,10.08 -0.2,15.32 -0.16,0.66 -0.3,1.29 -0.42,1.93 -0.32,-0.5 -0.64,-0.99 -0.95,-1.47 2.09,-4.95 0.24,-10.17 -4.01,-13.35 -0.95,-0.71 -2.07,0.43 -1.27,1.34 1.4,1.6 2.86,3 3.72,4.98 0.68,1.55 0.5,3.2 0.19,4.82 -1.3,-1.93 -3.01,-3.52 -5.15,-4.53 -0.98,-0.46 -1.79,0.96 -0.82,1.49 2.03,1.11 3.5,2.78 4.71,4.67 -0.58,-0.42 -1.17,-0.83 -1.86,-1.16 -1.9,-0.94 -3.42,-1.42 -4.86,-3.12 -2.21,-2.59 -5.93,-3.26 -7.69,-6.17 -0.5,-0.81 -1.96,-0.21 -1.56,0.71 1.47,3.37 4.84,3.7 7.18,6.16 1.44,1.52 3.03,2.7 4.73,3.74 -2.19,0.01 -4.47,0.38 -6.62,-0.2 -0.89,-0.61 -1.59,-1.09 -1.75,-1.24 -1.75,-1.53 -4.4,-2.77 -6.69,-3.07 -1.07,-0.15 -1.51,1.47 -0.41,1.65 2.58,0.43 4.66,1.98 6.59,3.67 0.72,0.64 2.4,1.13 2.89,1.76 2.47,3.2 6.3,1.68 9.18,3.9 1.09,0.84 1.91,1.92 3.06,2.71 2.1,1.44 3,1.97 3.58,4.54l0.14 0.62c-3.31,-1.69 -6.72,-0.16 -10.61,-0.88 -2.51,-0.47 -4.55,-2.13 -7.23,-2.51 -1.73,-0.25 -3.41,-0.21 -5.07,0.13 0.27,-1.12 -0.09,-2.47 -1.11,-3.21 -0.67,-0.49 -1.61,0.36 -1.34,1.08 0.12,0.33 0.74,1.84 0.03,1.85 -1.01,0.02 -1.5,1.58 -0.49,2.02 0.93,0.41 0.62,1.17 -0.08,1.66l-0.35 0.53 -0.84 0.11c-0.44,-0.3 -0.97,-0.01 -1.23,0.36 -0.32,0.45 -1.07,0.39 -1.53,0.28l-0.04 -0.02 0.37 -0.26 -0 -0c0.27,-0.15 0.46,-0.41 0.46,-0.8l-0.02 -0.2 0 -0c0.07,-0.43 -0.07,-0.85 -0.47,-1.08 -0.36,-0.2 -0.86,-0.37 -0.78,-0.86 0.08,-0.44 0.64,-0.69 1,-0.85 0.42,-0.18 0.58,-0.9 0.3,-1.26 -0.43,-0.54 -0.78,-0.58 -1.41,-0.76 -0.72,-0.21 -1.23,0.62 -0.99,1.19 -0.47,0.43 -0.82,0.98 -0.88,1.66 -0.08,0.84 0.29,1.5 0.86,1.99 -0.83,0.88 -0.92,2.09 0.4,2.92 1.22,0.76 2.7,0.48 3.71,-0.4l0.94 0.05c0.36,-0.14 0.65,-0.44 1,-0.54 0.31,-0.08 0.48,-0.3 0.55,-0.54 0.44,-0.11 0.81,-0.33 1.09,-0.63 0.94,0.61 2.1,0.73 3.14,0.21 1.04,-0.52 1.64,-1.52 1.9,-2.61 0.93,0.08 1.86,0.21 2.82,0.4 1.65,0.34 3.19,1.49 4.78,2.1 1.44,0.55 3.16,0.18 4.62,0.03 2.25,-0.23 4.89,1.02 6.64,2.24l0.25 0.14c-0.01,2.26 -0.64,4.37 -2.49,5.82l-0.33 0c-0.04,-0.41 -0.21,-0.81 -0.51,-1.11 -0.71,-0.71 -1.9,0.26 -1.35,1.09l0 -0.07 0 0.09c-0.67,0 -1.35,-0 -2.03,-0 0.16,-0.78 0.1,-1.66 -0.04,-2.43 -0.19,-0.96 -1.71,-0.87 -1.89,0.04 -0.15,0.75 -0.18,1.61 -0.03,2.37 -0.5,0 -1,-0 -1.5,-0l0.13 -0.54c0,-0.51 -0.24,-0.84 -0.56,-1.2 -0.5,-0.55 -1.64,-0.1 -1.52,0.68l0.01 0.8 -0.01 0.26c-0.59,-0 -1.19,-0.01 -1.78,-0.01l0.08 -0.85c-0.11,-0.7 -0.46,-1.2 -0.96,-1.69 -0.83,-0.81 -1.96,0.44 -1.22,1.28 0.3,0.34 0.2,0.85 0.02,1.22l-0.01 0.02c-0.48,0 -0.96,-0.01 -1.44,-0.01l0.02 -0.23c-0.02,-0.65 -0.61,-0.95 -1.18,-0.86l-0.2 0.04c-0.5,0.09 -0.68,0.59 -0.58,1.03 -6.96,-0.04 -13.91,-0.1 -20.87,-0.08 0.02,-0.5 -0.32,-0.95 -0.75,-1.2 -0.62,-0.37 -1.22,0.02 -1.41,0.59l-0.18 0.62c-4.72,0.02 -9.43,0.08 -14.14,0.19 -1.23,0.03 -1.17,1.87 0.05,1.9 17.89,0.42 35.81,0.04 53.71,0.03l0.6 0c1.39,0 2.78,-0.01 4.17,0 18.22,0.06 36.47,0.36 54.69,-0.06 1.19,-0.03 1.13,-1.81 -0.04,-1.84 -1.15,-0.02 -2.29,-0.04 -3.44,-0.06 0.02,-0.32 -0.13,-0.68 -0.43,-0.82l-0.65 -0.12c-0.58,-0.01 -0.85,0.45 -0.83,0.91 -0.53,-0.02 -1.06,-0.02 -1.59,-0.03l-0.02 -0.23c-0.06,-0.39 -0.25,-0.73 -0.67,-0.83 -0.43,-0.11 -1,0.17 -1.07,0.65l-0.04 0.4c-0.62,-0.01 -1.25,-0.01 -1.88,-0.02l-0.09 -0.65c-0.16,-0.91 -1.64,-0.83 -1.79,0.05l-0.09 0.58c-0.42,0 -0.84,-0.01 -1.26,-0.01 -0.04,-0.68 -0.12,-1.37 -0.21,-2.04 -0.05,-0.4 -0.26,-0.73 -0.67,-0.84 -0.42,-0.1 -1.01,0.17 -1.07,0.65 -0.09,0.76 -0.14,1.5 -0.01,2.22 -1.72,-0.01 -3.44,-0.02 -5.16,-0.02 -0.1,-0.6 -0.92,-1.07 -1.48,-0.49l-0.35 0.5 -0.84 0 -0.03 -0.35c-0.04,-0.38 -0.26,-0.72 -0.66,-0.82 -0.41,-0.1 -1,0.16 -1.06,0.64l-0.05 0.54c-0.31,0 -0.63,0 -0.94,0 0.28,-0.55 0.11,-1.35 0.04,-1.81 -0.06,-0.41 -0.26,-0.76 -0.7,-0.87 -0.45,-0.11 -1.04,0.17 -1.11,0.67 -0.1,0.63 -0.28,1.41 0.02,2.02 -0.92,0 -1.85,0.01 -2.77,0.02l-0.01 -0.79c-0.06,-1.2 -1.79,-1.14 -1.85,0.05l-0.01 0.75c-3.87,0.02 -7.73,0.04 -11.6,0.06l-0.54 -0.25c-2.01,-0.32 -1.32,-1.36 -1.59,-2.83 -0.28,-1.57 -1.72,-2.79 -1.39,-4.53 0.54,-2.77 4.07,-4.19 6.89,-5.47 0.8,0.85 1.89,1.4 3.09,1.45 1.84,0.09 2.8,-1.73 2.72,-3.34l-0.04 -0.17 -0 -0.17 0.02 -0.66c0.78,0.1 1.52,0.27 1.66,1.04 -0.29,0.73 -0.44,1.42 -0.53,2.23 -0.06,0.56 0.53,0.95 1.02,0.96 0.4,0.01 0.82,0.07 1.23,0.14l0 0.36c-0.01,0.83 0.92,1.23 1.58,0.86 0.34,-0.18 0.67,-0.36 1,-0.53 2.26,1.61 5.96,0.75 5.57,-2.1 1.21,-0.1 2.45,0.37 3.73,-0.1 1.58,-0.58 1.81,-2.29 2.68,-3.55 0.65,-0.92 -0.75,-1.72 -1.48,-1.08 -1.28,1.11 -1.36,3.2 -3.59,2.72 -1.07,-0.23 -1.91,-0.18 -2.92,0.27 -0.48,0.22 -0.9,0.71 -0.69,1.29 0.78,2.06 -1.96,1.07 -2.5,0.64 -0.39,-0.29 -0.76,-0.34 -1.2,-0.13l-0.19 0.09c-0.15,-0.4 -0.54,-0.69 -0.99,-0.69 -0.4,0 -0.8,-0.05 -1.21,-0.09 0.04,-0.33 0.11,-0.65 0.2,-0.97l-0.01 -0.39c-0.05,-1.02 -0.5,-1.83 -1.42,-2.34 -0.69,-0.38 -1.64,-0.36 -2.26,-0.65 -0.58,-0.26 -1.11,-0.03 -1.35,0.45l-0.03 -0.05c-0.45,-0.82 -1.68,-0.37 -1.68,0.5 0,1.04 0.49,1.84 1.22,2.47 -0.19,0.32 -0.42,0.56 -0.77,0.51l-0.61 -0.15 0.06 -0.03c0.95,-0.62 0.08,-1.94 -0.91,-1.47 -1.97,0.94 -4.22,1.85 -6.12,3.09 -0.57,-0.58 -1.19,-1.09 -1.65,-1.77 -0.53,-0.78 -1.94,-0.25 -1.57,0.71 0.32,0.82 0.92,1.66 1.64,2.27l-0.5 0.47 -0.07 -0.06c-0.73,-0.47 -1.47,-0.89 -2.12,-1.48 -0.66,-0.59 -1.27,-1.24 -1.83,-1.91 -0.7,-0.82 -1.9,0.28 -1.41,1.15 0.9,1.58 2.42,3.31 4.25,3.85l-0.36 0.66c-0.53,-0.12 -1.03,-0.23 -1.52,-0.62 -0.59,-0.47 -1.05,-1.13 -1.52,-1.71 -0.57,-0.7 -1.97,-0.29 -1.58,0.71 0.64,1.65 2.19,3.57 4.03,3.72 0.01,1.3 0.92,2.48 1.31,3.75l-0.49 0.16 -0.57 0.09 -0.32 0.01 -0.18 0 0 0.01c-0.94,-0.18 -1.63,1.26 -0.64,1.66 0.71,0.29 1.62,0.36 2.42,0.16 0.04,0.31 0.12,0.59 0.23,0.86 -1.14,0.01 -2.29,0.01 -3.43,0.02 -0.28,-1.61 -1.54,-2.73 -3.07,-3.41 0.03,-0.41 0.04,-0.86 0.04,-1.35 0.82,0.32 1.52,0.82 2.02,1.63 0.52,0.86 1.88,0.24 1.59,-0.71 -0.52,-1.77 -2.01,-2.49 -3.64,-2.81 -0.08,-2.44 -0.4,-5.07 -1.66,-7.1 1.3,-0.76 2.79,-2.15 3.27,-3.64 0.99,0.96 2.56,1.29 3.82,0.55l0.67 0.63c1.16,0.76 3.5,0.05 4.69,-0.21 1.59,-0.35 2.95,-1.31 3.33,-2.95 0.41,-1.81 -0.18,-3.14 1.19,-4.67 0.65,-0.72 -0.25,-1.95 -1.1,-1.36 -1.03,0.73 -1.64,1.71 -1.91,2.93 -0.22,0.96 0.06,2.11 -0.33,3.01 -0.55,1.28 -2.99,1.25 -4.14,1.41 -1.39,0.19 -1.56,-1 -1.59,-2.18 0.29,-1.46 0.4,-2.94 0.9,-4.37l0.03 -0.03c0.57,-0.92 0.87,-2.01 1.25,-3.02 0.5,-1.32 1.16,-2.51 2.09,-3.58 0.72,-0.83 -0.43,-1.93 -1.24,-1.18 -0.56,0.52 -1.06,1.14 -1.51,1.82l-0.02 -0.02 -0.2 -0.31 -0.26 -0.52c0.7,-0.79 1.41,-1.58 1.99,-2.46 1.75,-2.67 0.47,-4.83 -2.12,-6.26 -0.92,-0.5 -1.99,0.86 -1.11,1.52 0.99,0.74 2.36,1.53 1.68,2.91 -0.62,1.27 -1.8,2.36 -2.67,3.45 -0.47,0.59 -0.94,1.22 -1.37,1.87l-0.34 0.46 -0.01 0.08c-1.37,2.19 -2.34,4.68 -2.25,7.24l0.04 0.2c0.02,0.6 0.08,1.72 -0.31,1.99l-0.32 -0.06 -0.65 -0.4c-0.97,-0.77 -1.54,-1.87 -1.88,-3 0.21,-0.8 0.39,-1.61 0.46,-2.43 0.36,-3.8 -0.4,-7.56 -0.56,-11.36 0.5,0.18 1.05,0.2 1.62,0.03 0.51,0.6 1.27,0.85 2.17,0.54 0.88,-0.3 0.73,-1.81 -0.27,-1.68 -0.45,0.05 -0.49,0.06 -0.6,-0.39 -0.13,-0.59 -0.92,-0.86 -1.4,-0.53 -0.86,0.58 -2.03,-0.12 -1.83,-1.13l0.2 -0.59 -0.02 -0.14c-0.05,-0.64 -0.83,-1.07 -1.35,-0.8z"/>
  <path class="fil0" d="M124.25 79.12c-0.21,0.95 1.12,1.5 1.59,0.63 0.44,-0.81 1.09,-0.69 1.38,0.19 0.26,0.78 -0.32,1.24 0.37,1.92 0.26,0.26 0.64,0.34 0.98,0.24l0.58 0.04c-0.29,0.55 -0.02,1.32 0.67,1.57 1.03,0.39 1.6,1.4 2.66,1.73 0.8,0.25 1.63,-0.8 1.09,-1.49 -0.51,-0.67 -1.15,-1.23 -1.86,-1.67l-0.04 -0.2c-0.48,-1.12 -1.34,-1.86 -2.41,-2 -0.17,-2.77 -4.28,-4.29 -5.03,-0.96z"/>
  <path class="fil0" d="M135.2 90.52c1.05,-0.92 0.93,-2.59 -0.04,-3.51 -0.61,-0.57 -1.85,0.05 -1.48,0.92 0.22,0.51 0.29,1.01 0.06,1.52 -0.42,0.96 0.66,1.75 1.46,1.07z"/>
  <path class="fil0" d="M149.6 95.63c-0.2,-0.9 -1.33,-1.15 -1.58,-1.96 -0.31,-1 -1.6,-0.65 -1.7,0.27 -0.06,0.61 0.2,1.14 0.58,1.59l0.54 0.6 -0.22 0.13c-0.51,0.38 -0.68,1.11 -0.17,1.59 0.58,0.53 0.58,1.19 -0.13,1.31 -1,0.16 -0.73,1.53 0.04,1.79 1.23,0.41 2.54,-0.26 2.62,-1.64 0.04,-0.67 -0.14,-1.37 -0.46,-1.99 0.41,-0.44 0.62,-0.98 0.47,-1.68z"/>
  <path class="fil0" d="M146.64 104.28c-0.4,0.14 -0.61,0.39 -0.82,0.73 -0.31,0.5 0.03,1.25 0.59,1.38l0.81 -0.04 0.09 -0.03 0.42 -0.26 -0.03 -0 0.3 -0.47c0.28,-0.78 -0.63,-1.54 -1.36,-1.29z"/>
  <path class="fil0" d="M131.63 124.97c0.25,0.33 0.44,0.64 0.8,0.89 0.39,0.27 0.84,0.4 1.31,0.42l0.81 -0.13c0.18,0.37 0.44,0.7 0.83,0.96 1.63,1.09 4.32,0.68 5.14,-1.2 0.28,-0.64 -0.23,-1.54 -1.02,-1.26 -1,0.35 -1.92,1.01 -2.98,0.38 -0.23,-0.13 -0.26,-1.99 -0.35,-2.46 -0.16,-0.89 -1.59,-0.8 -1.74,0.05 -0.08,0.39 -0.14,0.81 -0.18,1.24 -0.42,0.18 -0.96,0.26 -1.24,0 -0.72,-0.67 -2.01,0.29 -1.37,1.11z"/>
  <path class="fil0" d="M59.07 76.14c0.64,0.71 1.94,-0.09 1.6,-0.98 -0.14,-0.36 -1.09,-1.83 -0.49,-1.88 0.96,-0.08 1.28,-1.1 0.69,-1.8 -0.64,-0.75 -0.69,-2.74 0.38,-3.2 0.7,-0.3 1.81,0.12 2.54,0.2 0.56,0.06 0.9,-0.52 0.94,-0.98 -0.03,0.35 0.11,-0.11 0.21,-0.26l0.03 -0.08c0.4,0.18 0.86,0.16 1.24,-0.16 0.36,-0.3 0.28,-0.92 -0.03,-1.22l-0.4 -0.23 -0.29 -0.04 0.09 0.01c-0.53,-0.28 -1.05,0.05 -1.2,0.5l-0.8 0.21 -0.23 0.23c-1.38,-0.24 -2.73,-0.29 -3.82,0.78 -1.07,1.04 -1.27,2.92 -0.81,4.4 -1.37,0.92 -0.9,3.11 0.36,4.51z"/>
  <path class="fil0" d="M66.1 64c-0.74,0.35 -0.35,1.71 0.47,1.57 0.85,-0.14 1.49,0.12 1.95,0.85 0.48,0.76 1.88,0.68 2.04,-0.32 0.06,-0.39 0.06,-0.69 0.33,-0.64 1.33,0.28 1.84,-1.76 0.51,-2.04 -0.94,-0.2 -1.71,0.07 -2.26,0.64 -0.91,-0.49 -2.01,-0.54 -3.04,-0.06z"/>
  <path class="fil0" d="M73.63 70.81c-1.31,0.09 -2.45,0.79 -2.91,2.05 -0.13,0.36 0.11,0.8 0.43,0.98 0.45,0.25 0.9,0.04 1.19,-0.34 0.39,-0.54 0.95,-0.8 1.57,-0.98 0.93,-0.28 0.72,-1.77 -0.27,-1.71z"/>
  <path class="fil0" d="M81.56 57.11c0.44,-0.13 0.62,-0.49 0.62,-0.9l0 -0.01 0.17 -0.19c0.28,-0.28 0.32,-0.74 0.11,-1.07 -0.27,-0.44 -0.79,-0.5 -1.22,-0.29 -0.77,0.38 -1.27,1.28 -0.73,2.07 0.23,0.34 0.63,0.51 1.04,0.39z"/>
  <path class="fil0" d="M62.68 101.95c0.58,-0.25 1.21,-0.41 1.8,-0.65 0.47,-0.19 0.68,-0.51 0.73,-1.01 0.1,-1.07 0.76,-1.78 1.54,-2.44 0.5,-0.42 0.2,-1.14 -0.3,-1.37l-0.16 -0.24c-1.18,-1.2 -1.65,-2.78 -2.7,-4.06 -0.98,-1.2 -2.37,-1.59 -3.8,-2.08 -1.77,-0.59 -2.9,-1.85 -3.92,-3.24l-0.17 -0.23c-0.7,-0.97 -1.36,-2 -2.14,-2.91 -0.68,-0.78 -1.44,-1.52 -2.24,-2.21l0 -0.11c-0.61,-3.16 -0.64,-6.47 -1.52,-9.57 -0.27,-0.93 -1.78,-0.72 -1.7,0.27 0.22,2.49 0.39,5.1 0.88,7.59l-0.02 -0.02c-0.79,-0.56 -1.74,0.75 -1,1.36 1.52,1.26 2.94,2.61 4.33,4.01l0.08 0.09c-2.41,-0.46 -5.1,0.01 -7.21,1.01 -0.92,0.44 -0.2,1.81 0.71,1.58 2.64,-0.68 5.86,-1.74 8.33,-0.03 0.7,1.12 1.44,2.21 2.51,2.9 0.33,0.21 0.67,0.39 1.02,0.56 -2.82,0.72 -5.58,1.31 -8.56,0.52 -1.11,-0.29 -1.46,1.33 -0.42,1.69 3.68,1.29 8,0.4 11.52,-1.04l0.13 -0.09c0.36,0.14 0.71,0.29 1.06,0.45 1.38,0.66 2.16,3.04 3.18,4.43 -0.74,0.62 -1.22,1.5 -1.41,2.45 -1.67,0.67 -4.67,2.04 -2.86,3.86 0.57,0.57 1.45,0.08 1.48,-0.66 0.02,-0.53 0.3,-0.62 0.82,-0.85z"/>
  <path class="fil0" d="M60.1 104.32c-0.61,0.79 -1.07,1.77 -0.77,2.78 0.28,0.94 1.73,0.71 1.7,-0.27 -0.02,-0.6 0.09,-1.01 0.43,-1.51 0.54,-0.8 -0.77,-1.76 -1.36,-1z"/>
  <path class="fil0" d="M72.29 97.83c-1.26,-1.16 -2.33,-2.47 -2.45,-4.28 -0.07,-1.1 -1.72,-1.06 -1.71,0.04 0.02,2.64 1.7,5.1 3.98,6.37 0.46,0.26 0.94,0.02 1.16,-0.35l0.37 -0.48c0.35,-1.06 1.77,-1.87 2.85,-1.71 0.96,0.14 1.57,-1.11 0.65,-1.64 -1.66,-0.92 -3.98,0.39 -4.84,2.04z"/>
  <path class="fil0" d="M91.52 80.96c-0.7,0.84 0.43,1.93 1.24,1.18l0.53 0.1c0.36,0.4 0.98,0.29 1.34,-0.03 0.76,-0.69 1.44,-0.57 2.22,-0.01 0.73,0.52 1.69,-0.55 1.19,-1.24 -0.51,-0.7 -1.19,-1.04 -1.91,-1.11l0 -0.05c-0.28,-2.03 -0.17,-4.01 0.18,-6.02 0.19,-1.09 -1.44,-1.52 -1.68,-0.43 -0.47,2.25 -0.69,4.46 -0.2,6.73l0.03 0.06 -0.51 0.27c-0.82,-0.42 -1.75,-0.25 -2.43,0.57z"/>
  <path class="fil0" d="M105.07 63.17c0.23,0.95 1.79,0.71 1.7,-0.27 -0.15,-1.68 -1.33,-2.17 -2.64,-2.02 -0.47,-1.92 -2.39,-3.36 -4.46,-2.55 -1.04,0.41 -0.59,1.91 0.5,1.66 1.36,-0.3 2.15,0.91 2.12,2.11 -0.02,0.72 0.89,1.21 1.48,0.8 0.54,-0.38 1.12,-0.46 1.3,0.26z"/>
  <path class="fil0" d="M92.25 53.47c1.06,-0.24 2.02,-0.74 3.14,-0.52 1.16,0.24 1.5,-1.34 0.44,-1.74 -1.46,-0.56 -3.33,-0.29 -4.46,0.83 -0.66,0.64 0.08,1.62 0.88,1.43z"/>
  <path class="fil0" d="M63.5 47.94c-0.89,1.04 -1,2.42 -0.73,3.7 0.23,1.09 1.66,0.63 1.76,-0.28 0.07,-0.61 0.11,-1.45 0.5,-1.96 0.54,-0.71 1.46,-0.54 2.16,-0.95 0.57,-0.33 0.64,-1.38 -0.04,-1.65l-0.22 -0.06c-0.34,-0.32 -0.6,-0.66 -0.79,-1.11 -0.67,-1.52 1.15,-0.56 1.41,-0.41 0.76,0.44 1.42,1.06 2.25,1.39 0.57,0.24 1.08,0.02 1.3,-0.56 0.83,-2.23 1.63,0.13 1.61,1.26 -0.02,0.97 1.54,1.15 1.71,0.19 0.27,-1.58 -0.17,-3.39 -1.75,-4.12 -1.27,-0.59 -2.22,0.21 -2.82,1.22 -1.31,-0.84 -2.54,-2.09 -4.19,-1.53 -1.88,0.64 -1.62,2.5 -0.78,3.88 -0.54,0.24 -1.02,0.59 -1.37,1z"/>
  <path class="fil0" d="M37.31 70.5c0.33,0.32 0.93,0.33 1.24,-0.03 0.51,-0.59 0.65,-1.24 0.34,-1.97 -0.44,-1.04 -1.91,-0.61 -1.68,0.51l-0.06 0.43c-0.16,0.37 -0.15,0.76 0.16,1.06z"/>
  <path class="fil0" d="M58.23 52.9c-0.5,0.15 -0.68,0.63 -0.59,1.1l0.08 0.91c0.1,0.52 0.46,0.89 0.87,1.18 0.63,0.44 1.34,-0.22 1.38,-0.84 0.05,-0.8 -0.41,-1.3 -0.73,-1.97 -0.17,-0.35 -0.66,-0.49 -1.01,-0.38z"/>
  <path class="fil0" d="M28.73 118.99c-1,0.3 -2.27,0.63 -2.51,-0.76 -0.06,-0.37 -0.5,-0.63 -0.85,-0.62 -0.52,0.01 -0.8,0.42 -0.85,0.89 -0.26,2.69 3.44,4.1 5.15,2 0.56,-0.68 0,-1.81 -0.94,-1.51z"/>
  <path class="fil0" d="M46.26 128.87c-0.29,0.3 -0.35,0.8 -0.12,1.15 0.27,0.41 0.67,0.6 1.14,0.66 0.41,0.05 0.8,-0.05 1.02,-0.44 0.2,-0.35 0.13,-0.82 -0.17,-1.1l-0.72 -0.45c-0.4,-0.17 -0.83,-0.15 -1.14,0.18z"/>
  <path class="fil0" d="M54.39 132.1l-0 -0.62c-0.16,-0.52 -0.69,-0.78 -1.19,-0.64l-0.31 0.14c-0.51,0.28 -0.51,0.9 -0.21,1.31 0.39,0.72 1.48,0.66 1.73,-0.18z"/>
  <polygon class="fil0" points="52.64,132.25 52.62,132.2 52.63,132.24 "/>
  <path class="fil0" d="M110.8 131.22c-0.54,0.28 -0.77,0.73 -1.09,1.2 -0.58,0.86 0.76,1.79 1.43,1.06l0.65 -0.41 0.78 -0.45c0.38,-0.17 0.66,-0.45 0.65,-0.9 -0.01,-0.49 -0.44,-0.91 -0.94,-0.89 -0.53,0.02 -1.01,0.15 -1.48,0.4z"/>
  <path class="fil0" d="M127.48 132.09c1.35,0 1.29,-2.09 -0.05,-2.09 -1.35,0 -1.29,2.09 0.05,2.09z"/>
  <path class="fil0" d="M152.97 113.91c-0.48,-0.12 -0.96,0.18 -1.08,0.65 -0.1,0.37 -0.28,0.78 -0.32,1.21 -0.09,0.84 1.06,1.11 1.56,0.61 0.41,-0.42 0.59,-1.04 0.51,-1.62 -0.06,-0.4 -0.25,-0.74 -0.67,-0.85z"/>
  <path class="fil0" d="M160.66 88.88c0.38,0.21 0.79,0.1 1.09,-0.17 0.44,-0.38 0.67,-0.9 0.7,-1.48 0.01,-0.32 -0.21,-0.65 -0.49,-0.8 -0.4,-0.22 -0.8,-0.1 -1.13,0.17 -0.45,0.37 -0.59,0.94 -0.64,1.5l0.46 0.77z"/>
  <path class="fil0" d="M162.88 90.22l0.76 0c0.39,-0.14 0.54,-0.52 0.5,-0.9 0.03,-0.36 -0.11,-0.7 -0.48,-0.86l-0.75 -0.03c-0.84,0.23 -0.84,1.5 -0.03,1.79z"/>
  <path class="fil0" d="M135.21 61.35l-0.02 0.1c-0.14,0.82 0.63,1.35 1.36,0.99 0.31,-0.15 0.49,-0.41 0.56,-0.75 0.09,-0.46 -0.12,-0.77 -0.43,-1.08 -0.64,-0.64 -1.53,0.01 -1.47,0.74z"/>
  <path class="fil0" d="M139.01 64.2c1.11,0 1.07,-1.71 -0.04,-1.71 -1.11,0 -1.06,1.71 0.04,1.71z"/>
  <path class="fil0" d="M116.95 49.49c0.38,0.59 1.19,0.53 1.56,-0.04l0.07 -0.1c0.44,-0.63 -0.2,-1.47 -0.89,-1.46 -0.71,0.02 -1.24,0.88 -0.81,1.5l0.07 0.1z"/>
  <path class="fil0" d="M80.7 123.1c0.4,-0.12 0.42,-0.08 0.69,0.2l0.85 0.62c0.87,0.51 1.75,0.93 2.77,0.74 0.93,-0.17 0.72,-1.47 -0.04,-1.71 -0.83,-0.25 -1.75,-0.51 -2.4,-1.11 -0.79,-0.73 -1.63,-0.71 -2.57,-0.28 -0.89,0.41 -0.2,1.82 0.69,1.54z"/>
  <path class="fil0" d="M124.87 115.14c1.13,-0.64 1.56,-2.18 1,-3.33 -0.43,-0.89 -1.25,-1.24 -2.13,-1.32 -0.31,-1.23 -1.42,-2.23 -2.8,-1.73 -0.95,0.35 -0.77,1.79 0.28,1.78 0.58,-0.01 0.66,0.42 0.7,0.92 0.04,0.46 0.44,1.01 0.97,0.92 1.67,-0.25 0.98,0.74 0.62,1.76 -0.28,0.81 0.73,1.36 1.36,1z"/>
  <path class="fil0" d="M121.12 73.43c0.8,-0.39 1.21,-0.19 1.83,0.42 0.6,0.59 1.8,-0.05 1.45,-0.89 -0.73,-1.8 -3,-2.19 -4.42,-0.93 -0.83,0.73 0.28,1.83 1.14,1.4z"/>
  <path class="fil0" d="M76.13 159.08c1.64,-4.39 -2.85,-6.24 -6.55,-6.5 -2.23,-0.15 -3.76,-0.51 -5.56,-1.8 -1.24,-0.9 -2.35,-1.43 -3.81,-1.79 -2.7,-0.67 -6.23,0.9 -8.79,1.5 -0.97,0.23 -0.72,1.88 0.28,1.75 1.49,-0.19 3.16,-0.8 4.8,-1.15 -0.11,0.45 -0.11,0.92 -0.04,1.38 -0.53,0.23 -0.99,0.55 -1.49,0.85 -0.83,0.51 -0.22,1.98 0.71,1.58 0.49,-0.21 0.94,-0.46 1.38,-0.74 0.26,0.49 0.59,0.96 0.94,1.39 -0.81,0.33 -0.65,1.67 0.37,1.71 0.42,0.02 0.77,-0.1 1.07,-0.36 0.72,0.56 1.53,1.05 2.32,1.35 1.78,0.67 3.73,0.52 5.56,1.05 1.01,0.29 1.43,-1.09 0.64,-1.62 -1.9,-1.26 -4.35,-0.68 -6.37,-1.78 -1.69,-0.92 -4.05,-3.12 -2.81,-5.04 0.32,0.01 0.64,0.05 0.94,0.12 2.74,0.63 4.57,3.02 7.35,3.7 1.94,0.48 8.13,-1.11 7.59,3.17 0.06,-0.42 -4.04,1.38 -4.94,1.8 -0.66,0.13 -1.33,0.27 -1.99,0.4 -1.12,0.11 -1.1,1.74 0.04,1.76 1.49,0.02 1.32,0.03 2.76,-0.38 0.31,-0.09 0.51,-0.27 0.6,-0.47 1.31,-0.73 2.55,-1.28 4.15,-1.2 0.43,0.01 0.73,-0.33 0.86,-0.7z"/>
  <path class="fil0" d="M82.38 155.25c-0.25,-0.9 -1.53,-0.81 -1.77,0.04 -0.21,0.76 -0.12,1.61 0.01,2.36 0.15,0.9 1.63,0.82 1.77,-0.04 0.13,-0.76 0.19,-1.61 -0.01,-2.37z"/>
  <path class="fil0" d="M85.72 158.24c0.14,-0.43 0.05,-0.86 -0.01,-1.29 -0.05,-0.39 -0.25,-0.72 -0.66,-0.82 -0.42,-0.11 -0.99,0.16 -1.05,0.63 -0.07,0.51 -0.19,1.02 -0.03,1.52 0.29,0.89 1.48,0.8 1.75,-0.04z"/>
  <path class="fil0" d="M88.11 157.83l0.15 0.65c0.34,0.58 1.19,0.52 1.51,-0.03l0.13 -0.65c0.02,-1.16 -1.81,-1.12 -1.79,0.04z"/>
  <path class="fil0" d="M94.66 158.03l0.03 -0.65c-0.06,-0.4 -0.26,-0.73 -0.67,-0.84 -0.43,-0.11 -1.01,0.17 -1.07,0.65 -0.04,0.32 -0.04,0.56 0.01,0.88 0.15,0.86 1.54,0.78 1.69,-0.04z"/>
  <path class="fil0" d="M76.27 162.24c0.22,0.87 1.49,0.78 1.7,-0.04 0.13,-0.5 0.07,-1 -0.02,-1.51 -0.15,-0.86 -1.54,-0.78 -1.68,0.04 -0.09,0.51 -0.13,1.01 0,1.51z"/>
  <path class="fil0" d="M79.81 162.67c0.22,0.88 1.52,0.79 1.73,-0.04 0.16,-0.63 0.08,-1.27 0.01,-1.91 -0.05,-0.47 -0.39,-0.86 -0.9,-0.85 -0.53,0.01 -0.81,0.42 -0.86,0.9 -0.07,0.64 -0.15,1.27 0.02,1.91z"/>
  <path class="fil0" d="M84.25 161.13c-0.08,-1.14 -1.68,-1.08 -1.75,0.04 -0.04,0.67 -0.11,1.24 0.02,1.91 0.17,0.87 1.56,0.79 1.72,-0.04 0.13,-0.67 0.05,-1.24 0.01,-1.9z"/>
  <path class="fil0" d="M85.67 162.66c0.19,0.85 1.52,0.78 1.68,-0.04 0.16,-0.81 -0.26,-1.42 -1.08,-1.5 -0.38,-0.04 -0.74,0.32 -0.83,0.66l0.21 0.78 0.02 0.11z"/>
  <path class="fil0" d="M105.24 145.74c-0.01,0.48 -0.02,0.97 0.01,1.46 0.08,1.12 1.65,1.06 1.72,-0.04 0.03,-0.49 0.01,-0.97 0.01,-1.46 -0.02,-1.12 -1.71,-1.07 -1.74,0.05z"/>
  <path class="fil0" d="M109.71 145.49c-0.42,0.84 -0.47,1.66 -0.31,2.58 0.16,0.9 1.63,0.82 1.78,-0.04 0.07,-0.38 0.12,-0.75 0.12,-1.14l0.06 -0.75c0.37,-0.95 -1.2,-1.53 -1.64,-0.65z"/>
  <path class="fil0" d="M114.86 144.57c-0.41,-0.23 -0.91,-0.07 -1.14,0.33 -0.19,0.32 -0.37,0.58 -0.47,0.95 -0.12,0.46 0,1 0.23,1.39 0.45,0.79 1.69,0.39 1.66,-0.49 -0.01,-0.37 -0.1,-0.7 0.05,-1.03 0.17,-0.43 0.1,-0.91 -0.33,-1.14z"/>
  <path class="fil0" d="M119.9 147.53c1.27,0 1.22,-1.96 -0.05,-1.96 -1.26,0 -1.21,1.96 0.05,1.96z"/>
  <path class="fil0" d="M104.42 147.83c0.36,-0.63 0.04,-1.25 -0.41,-1.71 -0.69,-0.7 -1.93,0.27 -1.38,1.08l-0 0.11 0.19 0.56c0.36,0.61 1.26,0.56 1.6,-0.04z"/>
  <path class="fil0" d="M129.57 142.97l-0.07 -0.4c-0,-1.11 -1.73,-1.07 -1.73,0.05 0,0.55 0.12,1 0.48,1.43 0.63,0.74 1.92,-0.3 1.32,-1.08z"/>
  <path class="fil0" d="M132.65 141.9c-0.23,-0.92 -1.57,-0.83 -1.8,0.04 -0.2,0.79 -0.3,1.82 0.02,2.58 0.13,0.31 0.32,0.54 0.66,0.63 0.37,0.09 0.87,-0.08 1.03,-0.45 0.37,-0.87 0.31,-1.9 0.08,-2.8z"/>
  <path class="fil0" d="M135.68 141.48l-0.4 -0.04c-0.92,0.04 -1.16,1.16 -0.57,1.67l0.35 0.6c0.46,0.51 1.18,0.24 1.5,-0.23 0.31,-0.43 0.21,-1.02 -0.08,-1.44l-0.68 -0.51 -0.13 -0.04z"/>
  <path class="fil0" d="M63.54 143.03l-0.1 0.81c-0.18,0.44 -0.11,0.94 0.34,1.18 0.4,0.22 0.98,0.09 1.18,-0.34 0.27,-0.55 0.33,-1.09 0.31,-1.69 -0.03,-1.12 -1.69,-1.06 -1.73,0.05z"/>
  <path class="fil0" d="M66.66 141.95c-0.38,1.21 -0.74,2.42 -0.11,3.62 0.46,0.86 1.62,0.32 1.68,-0.5 0.06,-0.88 0.02,-1.81 0.17,-2.68 0.19,-1.14 -1.39,-1.54 -1.74,-0.43z"/>
  <path class="fil0" d="M70.19 142.61c-0.07,0.85 -0.17,1.78 0.33,2.53 0.49,0.74 1.68,0.42 1.66,-0.49 -0.02,-0.7 -0.16,-1.39 -0.23,-2.09 -0.1,-1.15 -1.66,-1.07 -1.76,0.05z"/>
  <path class="fil0" d="M75.28 144.47c0.08,-0.31 0.03,-0.56 -0.03,-0.89 -0.15,-0.86 -1.54,-0.78 -1.69,0.04l0 0.89c0.23,0.87 1.5,0.79 1.72,-0.04z"/>
  <path class="fil0" d="M78.21 143.61c0.02,-1.13 -1.78,-1.1 -1.76,0.04l0.05 0.44c0.12,0.28 0.3,0.51 0.62,0.59 0.35,0.09 0.81,-0.07 0.96,-0.42l0.13 -0.65z"/>
  <path class="fil0" d="M60.4 143.65l0.01 0.62c0.05,1.11 1.66,1.05 1.71,-0.04l0.01 -0.62c0.01,-1.12 -1.75,-1.08 -1.74,0.04z"/>
  <path class="fil0" d="M56.91 144.68c1.09,0 1.04,-1.68 -0.04,-1.68 -1.09,0 -1.04,1.68 0.04,1.68z"/>
  <path class="fil0" d="M41.88 140.47c-0.43,-0.11 -1.01,0.17 -1.08,0.65 -0.12,0.84 -0.14,1.64 0.45,2.33 0.5,0.58 1.62,0.07 1.53,-0.68 -0.06,-0.48 -0.16,-1.04 -0.22,-1.46 -0.06,-0.4 -0.26,-0.74 -0.68,-0.84z"/>
  <path class="fil0" d="M43.72 143.9c0.2,0.89 1.56,0.81 1.76,-0.05 0.21,-0.88 0.09,-1.73 -0.25,-2.56 -0.42,-1.06 -1.95,-0.6 -1.69,0.51l0.03 0.86c0.01,0.42 0.05,0.82 0.15,1.23z"/>
  <path class="fil0" d="M47.24 141.1c-0.5,0.15 -0.69,0.64 -0.6,1.12 0.17,0.82 0.08,1.79 0.49,2.53 0.34,0.6 1.3,0.57 1.62,-0.04 0.52,-1.02 -0.03,-2.26 -0.47,-3.22 -0.17,-0.36 -0.68,-0.49 -1.03,-0.39z"/>
  <polygon class="fil0" points="51.91,141.98 51.9,141.96 51.91,141.98 "/>
  <path class="fil0" d="M51.91 141.98l-0.11 -0.14 0.1 0.13 -0.01 -0.05c-0.14,-0.85 -1.57,-0.79 -1.69,0.04 -0.09,0.61 0.09,1.08 0.64,1.4 0.79,0.47 1.6,-0.49 1.17,-1.24l-0.1 -0.14 -0 -0.01z"/>
  <path class="fil0" d="M54.45 140.81l-0.06 -0.03c-0.31,-0.22 -0.81,-0.09 -1.06,0.16 -0.34,0.35 -0.31,0.91 0.03,1.24 0.45,0.45 1.12,0.73 1.7,0.34 0.61,-0.4 0.53,-1.18 -0.03,-1.56l-0.59 -0.15z"/>
  <path class="fil0" d="M93.05 141.94c-0.04,-0.89 -1.26,-1.22 -1.7,-0.42 -0.59,1.08 -0.51,2.25 -0.3,3.42 0.16,0.9 1.63,0.82 1.79,-0.04 0.17,-0.98 0.27,-1.96 0.22,-2.96z"/>
  <path class="fil0" d="M95.48 141.1c-0.42,-0.1 -1.03,0.17 -1.08,0.66 -0.1,0.85 -0.17,1.71 0,2.56 0.17,0.88 1.56,0.8 1.73,-0.05 0.15,-0.76 0.11,-1.56 0.02,-2.32 -0.05,-0.4 -0.26,-0.74 -0.67,-0.84z"/>
  <path class="fil0" d="M96.77 143.11c0.12,0.52 0.5,0.84 0.98,1.02 0.36,0.13 0.92,-0.1 1.06,-0.46 0.17,-0.44 0.16,-0.73 0.07,-1.19 -0.07,-0.4 -0.32,-0.69 -0.54,-1 -0.61,-0.85 -1.88,-0.28 -1.65,0.74l-0.01 0.31 0.09 0.57z"/>
  <path class="fil0" d="M101.89 143.23l0.17 -0.6 0.02 -0.03c0.23,-0.31 0.1,-0.81 -0.16,-1.06 -0.35,-0.33 -0.91,-0.31 -1.24,0.03 -0.45,0.46 -0.7,1.07 -0.33,1.69 0.35,0.6 1.21,0.52 1.54,-0.04z"/>
  <path class="fil0" d="M108.01 143.27c1.15,0 1.1,-1.78 -0.04,-1.78 -1.15,0 -1.1,1.78 0.04,1.78z"/>
  <path class="fil0" d="M88.93 144.13c0.69,0.37 1.55,-0.14 1.53,-0.94 -0.02,-0.82 -0.9,-1.23 -1.58,-0.85l-0.33 0.24c-0.37,0.34 -0.32,0.99 0.03,1.32l0.35 0.24z"/>
  <path class="fil0" d="M115.45 141.36l-0.03 0.33 0.04 0.5c0.05,0.39 0.25,0.72 0.66,0.83 0.42,0.1 0.99,-0.17 1.05,-0.64l0.06 -0.62 -0.01 -0.2 -0.04 -0.24 0.01 -0.01c-0.05,-1.13 -1.69,-1.07 -1.75,0.04l-0 0z"/>
  <path class="fil0" d="M120.52 142.65c0.49,0.05 0.88,-0.48 0.87,-0.92 -0.01,-0.46 -0.43,-0.92 -0.92,-0.87l-0.21 0.02c-0.47,0.05 -0.86,0.39 -0.85,0.89 0.01,0.53 0.42,0.8 0.89,0.85l0.21 0.02z"/>
  <path class="fil0" d="M81.77 150.74c0.33,-0.91 -0.11,-1.99 -0.55,-2.78 -0.49,-0.89 -2,-0.22 -1.62,0.73 0.24,0.62 0.13,1.43 0.39,2.09 0.35,0.87 1.45,0.82 1.77,-0.04z"/>
  <path class="fil0" d="M84.68 151.36c0.3,-1.22 0.15,-2.54 0.01,-3.79 -0.11,-0.92 -1.63,-1.26 -1.76,-0.19 -0.16,1.32 -0.33,2.7 -0.01,4.02 0.22,0.89 1.55,0.81 1.76,-0.04z"/>
  <path class="fil0" d="M88.21 150.52c0.2,-1 0.09,-1.95 0.01,-2.95 -0.09,-1.15 -1.69,-1.08 -1.77,0.04 -0.07,1.01 -0.17,1.95 0.02,2.95 0.17,0.88 1.56,0.8 1.73,-0.04z"/>
  <path class="fil0" d="M89.52 149.58l0 0 0.09 0.06 -0.09 -0.06zm0.52 -1.65c-0.72,-0.03 -1.08,0.86 -0.76,1.39l0.15 0.59c0.29,0.48 0.87,0.57 1.35,0.32 0.31,-0.17 0.45,-0.52 0.46,-0.86 0.02,-0.75 -0.43,-1.4 -1.21,-1.44z"/>
  <path class="fil0" d="M94.85 151.39c0.55,-0.85 0.25,-2.12 -0.37,-2.84 -0.54,-0.64 -1.77,-0.09 -1.66,0.74 0.09,0.72 -0.03,1.51 0.38,2.15 0.41,0.63 1.27,0.57 1.66,-0.04z"/>
  <path class="fil0" d="M97.64 150.31c0.41,0.14 0.73,0.02 0.95,-0.21l0.32 -0.78 0 -0.01 -0 -0.15 -0.02 -0.16 -0.01 -0.02 -0.07 -0.21 0 -0.01 -0.09 -0.15 -0.09 -0.12 -0.01 -0.02c-0.22,-0.25 -0.56,-0.38 -1.02,-0.23l-0.52 0.11c-0.94,0.21 -0.85,1.65 0.04,1.84l0.52 0.12z"/>
  <path class="fil0" d="M77.75 150.31l0.03 -0.85c-0.08,-1.14 -1.66,-1.07 -1.74,0.04l0 0.63c0.05,0.38 0.25,0.72 0.66,0.82 0.41,0.1 0.99,-0.16 1.05,-0.63z"/>
  <path class="fil0" d="M72.29 149.31l0.04 0.2c0.16,0.85 1.52,0.78 1.67,-0.04l0.04 -0.2c0.11,-0.57 -0.29,-1.14 -0.9,-1.13 -0.64,0.01 -0.96,0.6 -0.85,1.17z"/>
  <path class="fil0" d="M99.19 153.36c-0.34,-0.69 -1.6,-0.52 -1.69,0.26 -0.09,0.73 -0.03,1.43 0.06,2.16 0.09,0.77 0.11,1.56 0.36,2.3 0.31,0.91 1.53,0.84 1.81,-0.04 0.45,-1.42 0.09,-3.37 -0.54,-4.68z"/>
  <path class="fil0" d="M102.57 153.8c-0.39,-1.06 -1.96,-0.59 -1.69,0.51 0.16,0.61 -0.11,1.23 -0.07,1.85 0.04,0.72 1.07,1.29 1.58,0.6 0.65,-0.87 0.53,-2 0.18,-2.97z"/>
  <path class="fil0" d="M104.85 154.03c-0.83,-0.73 -1.86,0.32 -1.31,1.17l0.07 0.11 0 0.01 0.24 0.69c0.39,0.57 1.28,0.61 1.63,-0.04 0.25,-0.46 0.2,-0.88 -0.04,-1.34l-0.59 -0.61z"/>
  <path class="fil0" d="M106.48 156.61l-0.06 -0.06 0.1 0.05 -0.04 0.01zm1.52 -1.11c-0.31,-0.45 -0.74,-0.69 -1.29,-0.69 -0.95,0 -1.11,1.16 -0.48,1.64l0.46 0.51c0.35,0.21 0.87,0.13 1.13,-0.18l0.04 -0.05c0.29,-0.33 0.4,-0.85 0.13,-1.23z"/>
  <path class="fil0" d="M109.45 151.22l0 -0.01 0 0.01zm2.11 1.53c0.1,-0.44 0.12,-0.86 -0.04,-1.3 -0.11,-0.32 -0.28,-0.54 -0.57,-0.73l-0.12 -0.09 -0.03 -0.01c-0.59,-0.47 -1.43,0.09 -1.42,0.76l-0.01 0.03 -0.05 0.51 0.12 0.89c0.26,1.07 1.88,0.98 2.12,-0.05z"/>
  <path class="fil0" d="M115.16 150.7c0.01,-0.4 -0.31,-0.77 -0.69,-0.87 -0.43,-0.11 -0.79,0.11 -1.02,0.45 -0.23,0.32 -0.45,0.67 -0.6,1.08 -0.17,0.46 -0.27,0.94 -0.34,1.42 -0.14,0.88 0.91,1.62 1.59,0.87 0.4,-0.43 0.68,-0.9 0.88,-1.44 0.19,-0.5 0.17,-1.11 0.19,-1.52z"/>
  <path class="fil0" d="M118.03 153.65c0.15,-0.63 0.23,-1.26 0.41,-1.88 0.14,-0.46 -0.19,-0.96 -0.65,-1.07 -0.51,-0.13 -0.9,0.19 -1.07,0.64 -0.29,0.76 -0.57,1.52 -0.41,2.35 0.17,0.9 1.52,0.76 1.72,-0.04z"/>
  <path class="fil0" d="M121.39 153.03c0.3,-0.82 0.13,-1.93 -0.03,-2.77 -0.17,-0.87 -1.55,-0.8 -1.72,0.04 -0.17,0.84 -0.32,1.95 -0.01,2.78 0.33,0.9 1.46,0.8 1.77,-0.05z"/>
  <path class="fil0" d="M123.87 151.54c-0.08,-1.13 -1.68,-1.08 -1.74,0.04 -0.02,0.48 0.13,0.89 0.48,1.23 0.71,0.67 1.89,-0.25 1.34,-1.08l-0.08 -0.19z"/>
  <path class="fil0" d="M131.12 150.53l-0 0.21c-0.01,1.1 1.73,1.06 1.72,-0.04l-0 -0.21c-0.02,-1.1 -1.69,-1.05 -1.71,0.04z"/>
  <path class="fil0" d="M127.4 146.39l-0.67 -0.15c-1.19,-0.05 -1.16,1.92 0.04,1.87l0.66 -0.16c0.6,-0.33 0.53,-1.25 -0.04,-1.56z"/>
  <path class="fil0" d="M111.58 157.38c-0.51,1.05 -0.67,2.29 -0.32,3.41 0.29,0.92 1.53,0.82 1.8,-0.04 0.3,-0.94 0.19,-1.98 0.2,-2.96 0.01,-0.88 -1.3,-1.23 -1.69,-0.41z"/>
  <path class="fil0" d="M116.94 160.77c0.69,-1.15 0.38,-2.55 0.29,-3.81 -0.08,-1.17 -1.71,-1.09 -1.79,0.04 -0.08,1.19 -0.41,2.38 -0.21,3.58 0.15,0.85 1.34,0.8 1.71,0.18z"/>
  <path class="fil0" d="M118.82 159.84c0.46,0.25 0.93,0.04 1.2,-0.35 0.44,-0.61 0.37,-1.38 -0.17,-1.9 -0.68,-0.65 -1.86,0.22 -1.4,1.01l-0.06 0.25c-0.1,0.38 0.09,0.8 0.43,0.99z"/>
  <path class="fil0" d="M123.86 158.32c1.2,0 1.15,-1.85 -0.05,-1.85 -1.19,0 -1.14,1.85 0.05,1.85z"/>
  <path class="fil0" d="M95.52 164.22c-0.12,-0.35 -0.21,-0.66 -0.21,-1.03 -0.01,-0.39 0.14,-0.81 0.2,-1.2 0.13,-0.83 -0.86,-1.53 -1.51,-0.83 -0.98,1.07 -1.17,2.99 0.01,3.99 0.67,0.56 1.82,-0.01 1.51,-0.93z"/>
  <path class="fil0" d="M98.85 161.76c-0.04,-0.48 -0.39,-0.86 -0.89,-0.85 -0.52,0.01 -0.81,0.42 -0.85,0.9 -0.06,0.68 -0.02,1.3 0.34,1.9 0.51,0.86 1.87,0.24 1.59,-0.71 -0.12,-0.39 -0.13,-0.83 -0.18,-1.22z"/>
  <path class="fil0" d="M101.95 160.69c-0.43,-0.11 -1.04,0.17 -1.09,0.66 -0.07,0.6 -0.33,1.19 0.08,1.75 0.45,0.61 1.19,0.54 1.61,-0.04 0.36,-0.5 0.15,-0.99 0.09,-1.51 -0.05,-0.41 -0.27,-0.75 -0.68,-0.85z"/>
  <path class="fil0" d="M109.01 160.7l-0.21 0c-1.11,0 -1.07,1.72 0.04,1.72l0.21 0c1.11,0 1.07,-1.72 -0.04,-1.72z"/>
  <path class="fil0" d="M141.4 144.68c0.49,-0.64 0.46,-1.34 0.6,-2.09 0.18,-0.94 -1.2,-1.59 -1.62,-0.64 -0.28,0.64 -0.6,1.41 -0.57,2.11 0.03,0.73 1.08,1.29 1.59,0.61z"/>
  <path class="fil0" d="M143.37 143.12l0 -0.05 0.09 0.16 -0.09 -0.11zm1.35 -1.17l-0.12 -0.05c-0.64,-0.47 -1.37,0.04 -1.38,0.69 -0.22,0.47 0.12,1.13 0.63,1.3l0.17 0.04c0.34,0.08 0.73,-0.01 0.96,-0.28 0.26,-0.29 0.38,-0.66 0.27,-1.04l-0.28 -0.48 -0.25 -0.2z"/>
  <path class="fil0" d="M128.83 154.51l0.69 -0.03 0.41 -0.17c1.01,-0.21 0.73,-1.87 -0.29,-1.78 -0.33,0.03 -0.6,0.14 -0.86,0.26 -0.37,0.16 -0.65,0.44 -0.64,0.88 0.01,0.36 0.29,0.8 0.68,0.85z"/>
  <path class="fil0" d="M138.32 149.63l0.42 0.03c0.32,-0.03 0.54,-0.12 0.82,-0.25 1,-0.46 0.63,-2.05 -0.35,-2.26l-0.54 -0.07 -0.42 0.07c-0.35,0.17 -0.4,0.18 -0.15,0.06 -0.12,0.03 -0.7,0.3 -0.28,0.13 -0.32,0.13 -0.53,0.3 -0.71,0.59l0.03 1.05 0.46 0.44 0.14 0.05 0.42 0.14c0.39,0.03 0.44,0.04 0.16,0.02z"/>
 </g>
</svg>
