<?xml version="1.0" encoding="UTF-8"?>
<svg xmlns="http://www.w3.org/2000/svg" xml:space="preserve" width="0.747335in" height="0.747335in" version="1.1" style="shape-rendering:geometricPrecision; text-rendering:geometricPrecision; image-rendering:optimizeQuality; fill-rule:evenodd; clip-rule:evenodd"
viewBox="0 0 180.1 180.1"
 xmlns:xlink="http://www.w3.org/1999/xlink"
 xmlns:xodm="http://www.corel.com/coreldraw/odm/2003">
 <defs>
  <style type="text/css">
   <![CDATA[
    .fil0 {fill:black;fill-rule:nonzero}
   ]]>
  </style>
 </defs>
 <g id="Layer_x0020_1">
  <metadata id="CorelCorpID_0Corel-Layer"/>
  <path class="fil0" d="M116.09 94.7c9.34,0.7 18.99,0.69 28.31,-0.16 5.42,-0.5 10.9,0.26 16.29,0.82 2.95,0.3 5.9,0.5 8.86,0.51 2.47,0.01 5.45,-0.93 7.95,-0.73 -0.09,1.64 -0.23,3.27 -0.42,4.88 -8.47,-0.4 -16.86,-1.55 -25.36,-1.66 -11.75,-0.16 -23.56,-0.18 -35.29,0.46 -1.12,0.06 -1.06,1.67 0.04,1.73 11.27,0.59 22.57,0.29 33.86,0.48 8.81,0.14 17.64,1.5 26.44,1.49 -0.32,2.26 -0.73,4.49 -1.22,6.68 -0.61,-0.49 -1.33,-0.68 -2.37,-0.47 -2.1,0.43 -3.28,1.7 -5.28,0.55 -1.33,-0.77 -2.76,-1.15 -4.14,-1.16 0.35,-3.77 -5.18,-3.75 -8.01,-2.57 -0.49,0.2 -1.15,0.54 -1.42,1.02 -1.06,1.92 -3.03,1.35 -4.86,1.68 -1.7,0.3 -3.58,3.46 -3.59,5.06l0.03 0.18c-2.91,1.27 -3.02,-1.75 -3.33,-3.47 -0.25,-1.37 -1.49,-2.69 -2.51,-3.5 -1.8,-1.44 -5.45,0.83 -7.46,0.84 -1.01,0 -2.61,-0.4 -3.55,0.16 -0.34,0.2 -0.66,0.43 -0.96,0.67 -2.45,-4.66 -8.06,-3.67 -10.93,0.26 -1.06,-0.92 -2.44,-1.48 -3.64,-0.29 -1.56,1.55 -1.69,4.1 -3.11,5.61 -0.58,0.62 0.04,1.77 0.9,1.45 2.12,-0.79 2.67,-7.83 5.18,-4.69 0.44,0.55 1.31,0.67 1.69,-0.04 2.08,-3.87 6.01,-4.63 8.44,-0.98 -0.59,0.59 -1.15,1.2 -1.78,1.79 -0.8,0.75 0.27,1.83 1.14,1.4 1.16,-0.58 1.74,-1.21 2.58,-2.23 1.38,-1.66 3.2,-1.09 5.07,-1.11 2.91,-0.03 6.94,-2.81 7.07,2.38 0.04,1.33 -0.04,2.78 1.29,3.58 0.91,0.55 1.79,1.01 2.88,0.91 1.33,-0.11 2,-2.09 3.23,0.29 0.51,0.99 2.24,0.22 1.78,-0.8 -0.47,-1.07 -1.13,-2.19 -2.12,-2.51 0.87,-1.86 1.86,-3.36 4.39,-3.05 1.01,0.12 2.89,-0.09 3.4,-1.18 0.71,-1.49 0.87,-1.96 2.69,-2.24 1.77,-0.27 3.14,0.08 3.38,1.65 -1.76,0.5 -3.34,1.63 -4.44,3.39 -0.56,0.89 0.67,1.56 1.36,1 2.07,-1.69 3.78,-2.87 6.58,-2.28 1.35,0.28 2.41,1.43 3.68,1.91 1.86,0.69 4.52,-2.79 5.84,-0.7l0.22 0.26c-9.75,37.73 -44.08,65.69 -84.83,65.69 -39.55,0 -73.06,-26.36 -83.91,-62.43 1.64,-0.71 3.09,-3.46 3.53,-5.06 0.48,-1.72 2.46,-2.98 4.28,-2.14 0.73,0.33 1.46,0.75 2.31,0.5 0.52,-0.15 0.88,-0.63 1.19,-1.04 2.55,-3.38 4.05,1.93 4.48,3.06 0.42,1.08 1.93,0.61 1.7,-0.52 -0.08,-0.39 -0.16,-0.78 -0.25,-1.16 2.28,-0.96 3.76,-0.95 5.64,1.11 0.8,0.88 1.18,2.22 2.51,2.19 0.61,-0.01 1.01,-0.51 1.04,-1.09 0.12,-2.55 2.19,0.3 2.42,0.84 0.39,0.91 1.78,0.8 1.78,-0.29 -0,-0.81 -0.28,-1.52 -0.73,-2.11 0.98,-1 1.99,-2.02 3.45,-1.18 0.62,0.35 1.13,0.53 1.84,0.52 2.54,-0.03 4.09,-4.97 6.58,-1.65 0.67,0.9 2.06,0.08 1.5,-0.93 -1.79,-3.22 -4.14,-2.56 -6.68,-0.54 -1.76,1.4 -2.54,0.13 -4.33,0.18 -1.61,0.04 -2.84,1.25 -3.85,2.4 -0.35,-0.16 -0.72,-0.3 -1.11,-0.37 -1.26,-0.24 -2.05,0.4 -2.5,1.32 -0.83,-0.98 -2.38,-2.58 -3.07,-2.91 -1.67,-0.79 -3.54,-0.27 -5.09,0.6 -0.42,-0.92 -1.01,-1.73 -1.97,-2.37 -1.65,-1.11 -3.52,-0.24 -4.52,1.18 -0.67,0.94 -2.62,0.05 -3.6,0 -1.15,-0.06 -2.64,0.75 -3.53,1.46 -0.78,0.62 -2.28,5.2 -3.59,6 -1.06,-3.87 -1.87,-7.84 -2.39,-11.91 4.37,0.83 8.99,0.52 13.39,0.43 6.7,-0.13 13.39,0.32 20.1,0.27 9.39,-0.08 19.38,0.34 28.65,-1.08 1.08,-0.17 1.11,-1.71 -0.04,-1.74 -20.79,-0.48 -41.57,-0.23 -62.36,-0.17 -0.14,-1.39 -0.25,-2.79 -0.32,-4.19 9.69,-1.49 20.07,0.13 29.74,0.87 11.03,0.85 22.62,0.39 33.6,-0.78 0.9,-0.1 1.21,-1.54 0.18,-1.7 -6.15,-0.96 -12.59,-0.19 -18.78,0.08 -5.07,0.23 -10.04,-0.08 -15.08,-0.57 -9.36,-0.9 -20.49,-3.08 -29.76,-0.1 -0.03,-0.86 -0.04,-1.73 -0.04,-2.59 0,-5.06 0.44,-10.02 1.27,-14.85 4,-2.39 7.83,5.03 12.74,3.4 1.02,2.56 2.75,3.96 5.61,2.09 0.73,-0.47 1.39,-1.06 2.09,-1.57 1.86,-1.34 2.19,0.88 2.67,2.22 0.47,1.31 0.88,2.76 2.27,3.27 0.97,0.35 1.4,-0.95 0.87,-1.58 -1.61,-1.89 -1.28,-5.89 -4.12,-6.58 -3.05,-0.75 -6.11,6.1 -7.78,0.42 -0.19,-0.65 -0.97,-0.93 -1.55,-0.59 -4.47,2.71 -8,-5.07 -12.33,-3.61 0.94,-4.62 2.24,-9.11 3.87,-13.44 2.98,-0.62 5.92,-2.35 8.63,-0.16 1.38,1.12 2.51,2.55 3.98,3.57 1.96,1.36 3.64,1.33 5.04,-0.01 0.55,0.72 1.01,1.49 1.79,1.98l1.07 -0.03 0.06 -0.05c0.54,-0.42 0.63,-1.06 0.16,-1.58 -0.47,-0.53 -1.36,-2.26 -2.32,-3.01 -0.63,-0.5 -1.43,-0.41 -1.88,0.29 -1.64,2.55 -6.68,-3.48 -8.38,-4.34 -2.1,-1.07 -4.81,-0.08 -7.16,0.79 3.02,-7.31 7,-14.11 11.78,-20.27 2.62,-1.4 4.35,2.65 6.86,3.52 0.75,0.26 1.64,0.38 2.38,-0.04 2.01,-1.17 4.72,-3.31 6.25,-0.05 0.46,0.98 1.85,0.2 1.64,-0.74 -0.44,-1.97 -2.24,-3.53 -4.37,-3.38 -1.81,0.12 -4.18,2.81 -5.63,1.98 -1.79,-1.03 -3.54,-2.95 -5.29,-3.57 5.61,-6.74 12.21,-12.63 19.57,-17.45 0.54,0.74 1.38,1.04 2.4,0.99 1.76,-0.08 3.26,-0.92 4.97,-0.08 0.87,0.43 1.78,-0.71 1.02,-1.4 -0.97,-0.89 -2.22,-1.03 -3.49,-0.91 -0.8,0.08 -2.34,0.68 -3.25,0.35 7.13,-4.44 14.95,-7.88 23.25,-10.13 -0.4,0.95 -0.95,1.88 -1.38,2.73 -0.36,0.73 -0.77,1.44 -1.21,2.12 -0.81,1.28 -3.58,0.95 -4.78,0.75 -1.08,-0.19 -1.49,1.36 -0.41,1.67 2.58,0.73 5.81,0.84 7.3,-1.84 0.92,-1.66 2.36,-3.93 2.77,-5.9l0.66 -0.27c3.48,-0.81 7.04,-1.42 10.66,-1.8 -0.23,0.85 -0.38,1.73 -0.48,2.63 -0.21,1.8 -0.57,3.52 -0.92,5.3 -0.2,1.03 1.28,1.71 1.77,0.7 1.27,-2.67 1.09,-5.9 1.56,-8.8 0.95,-0.08 1.9,-0.15 2.86,-0.2 -0.03,1.13 0.02,2.27 0.12,3.38 0.1,1.16 1.68,1.08 1.78,-0.04 0.1,-1.13 0.15,-2.28 0.13,-3.42 0.58,-0.02 1.17,-0.02 1.75,-0.03l0.52 0.19 0.52 -0.2c0.8,0 1.6,0.02 2.4,0.04 0.13,2.71 1.19,5.68 2.21,8.05 0.45,1.03 1.89,0.61 1.68,-0.51 -0.49,-2.55 -1.44,-4.91 -1.94,-7.45 2.9,0.15 5.75,0.44 8.57,0.87l-0.16 0.35c-0.9,4.96 6.21,9.06 10.33,6.42 0.86,-0.55 0.25,-1.88 -0.73,-1.61 -3.29,0.91 -7.75,-0.71 -7.84,-4.62l-0.07 -0.3c11.12,1.89 21.52,5.88 30.8,11.55l-0.24 0.21c-2.48,2.2 -4.69,0.79 -6.71,-1.27 -0.3,-0.31 -0.85,-0.37 -1.21,-0.13 -1.31,0.88 -3.27,-0.35 -4.59,-0.64 -1.1,-0.24 -2.05,0.22 -2.96,0.77 -0.94,0.57 -0.07,1.92 0.89,1.44 2.5,-1.28 4.51,1.41 6.98,0.5 1.59,1.56 3.23,2.54 5.56,2.68 0.8,0.05 4.47,-2.11 4.49,-2.06 0.2,0.34 0.51,0.45 0.8,0.43 3.76,2.52 7.32,5.32 10.64,8.36 -0.86,0.05 -1.73,0.09 -2.57,-0.01 -1.06,-0.12 -1.51,1.43 -0.41,1.65 1.66,0.33 3.1,0.53 4.75,0.04 5.56,5.4 10.41,11.52 14.39,18.22 -0.58,0.43 -2.19,2.1 -2.21,2.09 -0.77,-0.44 -1.46,-0.81 -2.28,-0.26 -1.86,1.23 -1.7,4.07 -3.72,5.33 -0.8,0.5 -0.22,1.91 0.7,1.54 2.42,-0.99 2.63,-2.98 3.97,-4.88l0.02 0.01 0.5 0.34c0.37,0.23 0.89,0.27 1.31,0.14 1.05,-0.32 2.07,-1.48 2.82,-2.4 1.76,3.14 3.33,6.4 4.7,9.76l-0.29 0.05c-0.61,0.18 -1.26,0.67 -1.26,1.35 -0,0.94 -0.64,1.09 -1.46,1.21 -1.84,0.27 -4.07,0.2 -5.84,0.91 0.32,-5.74 -6.97,-3.56 -10.13,-1.3l-0.1 -0.07c-0.82,-0.56 -1.51,-1.15 -2.15,-1.91 -0.94,-1.13 -2.49,-1.1 -3.81,-1.01 -1.3,0.09 -3.71,0.94 -4.48,2.16 -0.67,1.08 -0.82,2.3 -1.13,3.46 -1.97,0.59 -2.93,-1.74 -4.69,-2.76 -0.78,-0.46 -1.48,-0.42 -2.37,-0.3 -1.15,0.16 -3.39,-1.3 -4.28,-1.76 -1.7,-0.87 -4.7,-0.65 -6.05,0.82 -0.14,0.15 -0.37,0.66 -0.64,1.31 -1.06,-0.7 -2.22,-1.26 -3.42,-1.63 0,-1.2 -0.18,-2.39 -0.45,-3.57 1.51,-0.34 2.68,-1.42 3.07,-2.99 0.26,-1.03 -1.14,-1.52 -1.67,-0.66 -0.47,0.76 -1.13,1.37 -1.9,1.78 -0.19,-0.63 -0.38,-1.25 -0.58,-1.86 -0.28,-0.89 -1.78,-0.72 -1.67,0.26 0.25,2.24 0.85,4.38 1.15,6.6 -1.39,-0.15 -2.8,-0.03 -4.16,0.48 -2.63,0.97 -2.14,5.67 -4.87,5.66 -1,-0.01 -1.11,1.45 -0.19,1.7 2.07,0.58 3.49,-0.26 4.23,-2.25 0.74,-2 1.1,-3.25 3.59,-3.39 0.6,-0.04 1.2,0.03 1.8,0.17 0.24,0.28 0.65,0.39 0.99,0.29 1.15,0.41 2.25,1.03 3.22,1.67 -0.46,1.27 -0.85,2.38 -0.87,2.37 -0.73,-0.28 -1.37,0.72 -0.96,1.31 0.76,1.08 2.21,1.47 3,0.06 1.88,-3.4 1.08,-8.43 6.94,-5.34 2.17,1.14 5.6,0.42 7.03,2.69 0.77,1.23 1.51,1.82 2.43,1.85 -0.52,0.62 0.13,1.75 0.95,1.42 1.98,-0.81 2.42,-2.21 2.75,-4.25 0.39,-2.44 3.8,-4.9 5.98,-2.31 0.58,0.69 1.09,1.15 1.94,1.48 0.9,0.34 1.35,0.86 2.21,0.16 1.63,-1.31 7.24,-4.31 7.49,-0.01l0.31 0.6c-0.4,0.37 -0.74,0.83 -1,1.41 -0.46,1.03 0.87,1.73 1.51,0.84 2.17,-3.03 9.1,-0.38 10.23,-4.14l0.56 -0.08c1.28,3.42 2.34,6.95 3.18,10.55 -0.81,-0.04 -1.75,0.23 -2.36,0.33 -2.26,0.39 -4.61,1 -5.91,2.81 -1.07,-0.94 -2.36,-1.54 -4.07,-1.64 -2.91,-0.15 -6.19,1.96 -8.47,3.79 -0.49,-2.04 -0.81,-4.47 -1.9,-5.45 -2.46,-2.21 -4.31,-0.91 -6.18,1.12 -2.41,2.62 -3.62,-0.96 -5.74,-1.36 -1.54,-0.3 -2.72,-0.37 -4.12,0.39 -1.17,0.64 -1.88,2.39 -2.53,3.46 -1.22,1.99 -3.49,2.69 -4.89,4.47 -0.19,-0.95 -0.47,-1.87 -1.33,-2.43 -0.86,-0.57 -1.22,-0.72 -2.22,-0.79 -2.33,-0.15 -3.54,-1.04 -5,-2.78 -1.28,-1.53 -3.05,-2.09 -4.92,-1.21 -3.2,1.5 -3.9,6.15 -7.41,6.38 -0.72,0.05 -1,0.73 -0.72,1.33 0.73,1.41 1.14,2.89 1.24,4.47 0.11,1.11 1.81,1.09 1.74,-0.04 -0.09,-1.5 -0.44,-2.8 -0.97,-4.12 1.54,-0.22 2.77,-0.81 3.43,-2.52 0.93,-2.43 3.8,-5.65 6.28,-2.88 1.04,1.17 1.93,2.2 3.27,3.05 0.6,0.39 1.73,0.23 2.37,0.23 2.35,-0 2.03,1.68 2.63,3.27 0.96,2.5 2.02,3.73 4.75,3.7 1.28,-0.01 1.21,-1.91 -0.04,-1.96 -1.55,-0.06 -2.22,-0.7 -2.58,-1.56l0.35 -0.32c1.22,-1.92 3.61,-2.76 5.2,-4.31 1.92,-1.89 2.75,-6.45 6.6,-2.39 1.8,1.89 4.43,0.81 6.07,-0.68 0.55,-0.5 0.96,-1.08 1.55,-1.55 1.25,-0.97 2.51,1.66 2.71,2.34 0.46,1.6 0.33,3.34 0.75,4.96 0.19,0.74 0.74,1.7 1.44,2.06 1.77,0.91 1.64,0.39 2.11,2.7 0.21,1.04 1.91,0.75 1.83,-0.3 -0.08,-1.05 -0.33,-1.93 -0.43,-3 -0.05,-0.59 -0.48,-1.02 -1.08,-1.03 -0.81,-0.01 -1.32,-0.61 -1.69,-1.48 2.13,-1.09 4.1,-2.51 6.35,-3.34 3.41,-1.27 4.77,1.74 6.47,3.97 0.81,1.05 2.46,0.09 1.78,-1.1 -0.38,-0.67 -0.77,-1.3 -1.19,-1.87 0.96,-1.05 1.96,-1.42 3.52,-1.76 0.55,-0.12 1.14,-0.13 1.69,-0.22 0.3,-0.05 0.6,-0.1 0.9,-0.14l0.02 0c0.3,0.28 0.79,0.39 1.21,0.19l0.09 -0.05c1.1,5.55 1.69,11.28 1.69,17.14 0,0.93 -0.02,1.85 -0.05,2.78 -0.9,-0.15 -1.74,-0.04 -2.83,0.13 -3.23,0.52 -6.47,0.48 -9.73,0.31 -5.92,-0.3 -11.76,-1.3 -17.71,-1.32 -5.22,-0.01 -10.47,0.64 -15.7,0.74 -5.19,0.1 -10.4,-0.08 -15.58,0.29 -1.11,0.08 -1.04,1.62 0.04,1.7zm-26.04 -94.7c-49.65,0 -90.05,40.4 -90.05,90.05 0,49.65 40.4,90.05 90.05,90.05 49.65,0 90.05,-40.4 90.05,-90.05 0,-49.65 -40.4,-90.05 -90.05,-90.05z"/>
  <path class="fil0" d="M15.84 122.63l5.39 -2.43c0.33,-0.15 0.48,-0.54 0.33,-0.86l-0.06 -0.13 -0.36 -0.35 -0.5 0.01 -6.11 2.76c-0.32,0.14 -0.48,0.53 -0.32,0.86l1.24 2.75 0.6 0.39 0.27 -0.06 0.13 -0.06 0.35 -0.36 -0.02 -0.5 -0.91 -2.02z"/>
  <path class="fil0" d="M25.37 126.98l-0.07 -0.13 -0.4 -0.3 -0.5 0.06 -5.76 3.29c-0.31,0.18 -0.42,0.58 -0.24,0.89l0.07 0.13 0.4 0.3 0.17 0.02 0.32 -0.09 5.76 -3.29c0.31,-0.18 0.43,-0.57 0.24,-0.89z"/>
  <path class="fil0" d="M26.13 133.62l1.22 -0.86 0.65 0.91 0.2 0.5c0.01,0.15 -0.02,0.34 -0.35,0.58l-0.65 0.1 -0.31 -0.16 -0.75 -1.07zm-0.82 3.3c-0.36,0.26 -0.67,0.3 -1.01,0.15l-0.54 -0.42 -0.65 -0.91 1.82 -1.28 0.71 1c0.37,0.82 0.06,1.19 -0.33,1.46zm1.96 -0.57c0.48,0.04 0.95,-0.1 1.4,-0.42 0.87,-0.62 1,-1.36 0.96,-1.88 -0.03,-0.43 -0.19,-0.84 -0.46,-1.23l-1.11 -1.57 -0.91 -0.16 -5.54 3.9 -0.26 0.43 0.11 0.49 1.11 1.57c0.27,0.38 0.65,0.69 1.13,0.91 0.32,0.14 0.65,0.22 0.98,0.22 0.5,0 1,-0.17 1.47,-0.51 0.67,-0.48 1.05,-1.08 1.12,-1.76z"/>
  <polygon class="fil0" points="31.68,141.8 31.91,141.35 31.75,140.88 30.78,139.74 31.92,138.77 33.36,140.46 33.81,140.69 34.28,140.53 34.4,140.44 34.47,139.51 32.5,137.22 32.06,137 31.58,137.15 26.44,141.56 26.36,142.48 28.33,144.77 28.82,145 29.25,144.84 29.35,144.75 29.58,144.31 29.42,143.83 27.98,142.14 29.68,140.69 30.64,141.82 31.57,141.89 "/>
  <path class="fil0" d="M37.37 146.17c-0.31,0.32 -0.62,0.44 -0.89,0.39l-0.75 -0.43 -0.74 -0.71 1.55 -1.6 0.74 0.71 0.45 0.73c0.04,0.19 0.05,0.5 -0.36,0.91zm1.78 -1.2c-0.11,-0.54 -0.4,-1.04 -0.86,-1.49l-1.31 -1.27 -0.46 -0.19 -0.46 0.2 -4.66 4.82 0.01 0.92 0.1 0.1 0.47 0.18 0.45 -0.2 1.55 -1.6 0.73 0.71 0.03 0.02 -0.86 2.69c-0.11,0.33 0.07,0.69 0.4,0.81l0.13 0.05 0.22 0.04 0.29 -0.07 0.33 -0.39 0.77 -2.38c0.84,0.23 1.67,-0.03 2.39,-0.78 0.81,-0.84 0.85,-1.67 0.73,-2.21z"/>
  <polygon class="fil0" points="45.09,150.39 45.19,150.27 45.33,149.79 45.09,149.35 42.21,147.05 41.29,147.15 41.19,147.27 41.06,147.75 41.3,148.19 42.17,148.88 38.48,153.5 38.34,153.98 38.59,154.42 38.7,154.51 39.11,154.65 39.62,154.41 43.31,149.79 44.18,150.49 "/>
  <path class="fil0" d="M51.47 153.9l-0.35 -0.36 -0.5 -0 -2.76 1.12 -0.08 -2.98 -0.2 -0.46 -0.47 -0.18 -0.15 0c-0.36,0.01 -0.64,0.31 -0.63,0.67l0.1 3.8 -1.69 2.59 -0.09 0.49 0.28 0.41 0.12 0.08 0.35 0.11 0.55 -0.3 1.69 -2.58 3.52 -1.43c0.33,-0.13 0.5,-0.51 0.36,-0.85l-0.05 -0.14z"/>
  <path class="fil0" d="M60.56 163.56l-1.09 -0.45 1.21 -1.41 -0.12 1.85zm1.32 -4.56l-0.14 -0.06 -0.75 0.18 -4.54 5.28 -0.16 0.49 0.24 0.45 0.11 0.09 0.9 -0.08 0.92 -1.07 1.98 0.81 -0.09 1.41c-0.02,0.35 0.23,0.65 0.58,0.69l0.15 0.02 0.07 0 0.42 -0.15 0.23 -0.46 0.47 -6.95 -0.41 -0.65z"/>
  <path class="fil0" d="M70.29 161.9l-0.14 -0.05 -0.5 0.05 -0.32 0.39 -1.11 3.66 -1 -4.63 -0.45 -0.49 -0.15 -0.04c-0.35,-0.1 -0.71,0.09 -0.82,0.44l-1.92 6.35 0.05 0.5 0.39 0.32 0.14 0.04c0.34,0.11 0.71,-0.09 0.81,-0.44l1.11 -3.66 1.01 4.63 0.45 0.49 0.15 0.05 0.19 0.03 0.31 -0.08 0.32 -0.39 1.92 -6.35c0.1,-0.35 -0.09,-0.71 -0.44,-0.81z"/>
  <path class="fil0" d="M75.37 168.44c-0.08,0.38 -0.28,0.65 -0.64,0.84l-0.69 0.2 -0.2 -0.02 -0.91 -0.18 1.02 -5.08 0.91 0.18 0.75 0.5c0.26,0.32 0.34,0.65 0.26,1.03l-0.5 2.53zm-0.22 -5.48l-1.7 -0.34 -0.49 0.1 -0.28 0.41 -1.33 6.64c-0.07,0.35 0.16,0.7 0.51,0.77l1.7 0.34 0.5 0.05c0.46,0 0.91,-0.12 1.37,-0.36 0.74,-0.4 1.21,-1.03 1.38,-1.84l0.51 -2.53c0.16,-0.81 -0.03,-1.58 -0.56,-2.23 -0.45,-0.55 -0.98,-0.89 -1.6,-1.01z"/>
  <path class="fil0" d="M89.47 164.52l-0.15 -0 -0.01 0c-0.35,0 -0.65,0.28 -0.65,0.64l-0.11 6.63 0.18 0.47 0.46 0.2 0.16 0c0.36,0 0.65,-0.28 0.65,-0.64l0.11 -6.63 -0.18 -0.46 -0.46 -0.2z"/>
  <path class="fil0" d="M98.32 164.09l-0.15 0.01 -0.44 0.23 -0.15 0.47 0.32 3.81 -2.64 -3.94 -0.6 -0.28 -0.16 0.01 -0.44 0.23 -0.15 0.48 0.56 6.61c0.03,0.35 0.31,0.6 0.65,0.6l0.06 -0 0.14 -0.01 0.44 -0.23 0.15 -0.48 -0.32 -3.81 2.65 3.93 0.6 0.29 0.15 -0.01 0.44 -0.23 0.15 -0.48 -0.56 -6.61c-0.03,-0.36 -0.34,-0.63 -0.71,-0.6z"/>
  <path class="fil0" d="M105.17 169.32l-0.77 0.49 -0.92 0.17 -0.92 -5.1 0.92 -0.16c0.28,-0.05 0.57,0.01 0.88,0.19 0.35,0.2 0.56,0.48 0.63,0.86l0.46 2.54c0.07,0.38 -0.02,0.71 -0.28,1.02zm1.26 -3.82c-0.15,-0.81 -0.61,-1.46 -1.34,-1.86 -0.61,-0.35 -1.24,-0.47 -1.86,-0.35l-1.71 0.31 -0.42 0.27 -0.1 0.49 1.21 6.66c0.06,0.32 0.33,0.54 0.64,0.54l0.12 -0.01 1.71 -0.31c0.61,-0.11 1.16,-0.44 1.62,-0.98 0.54,-0.64 0.75,-1.41 0.6,-2.22l-0.46 -2.53z"/>
  <path class="fil0" d="M113.49 167.65l-2.14 0.6 -0.6 -2.15 1.43 -0.41 0.39 -0.31 0.06 -0.5 -0.04 -0.14c-0.1,-0.34 -0.46,-0.55 -0.81,-0.45l-1.43 0.41 -0.41 -1.43 2.14 -0.61c0.35,-0.09 0.55,-0.46 0.45,-0.8l-0.04 -0.14 -0.31 -0.39 -0.5 -0.06 -2.9 0.82c-0.35,0.1 -0.55,0.46 -0.45,0.8l1.83 6.52 0.31 0.39 0.32 0.08 0.18 -0.03 2.91 -0.82 0.39 -0.31 0.06 -0.5 -0.04 -0.13c-0.1,-0.35 -0.46,-0.55 -0.81,-0.45z"/>
  <path class="fil0" d="M118.92 162.4c-0.14,0.2 -0.39,0.37 -0.71,0.5l-0.95 0.37 -0.81 -2.08 0.95 -0.37c0.32,-0.12 0.6,-0.16 0.85,-0.1 0.19,0.05 0.47,0.17 0.68,0.71 0.21,0.55 0.09,0.82 -0.02,0.98zm-0.33 -3.1c-0.54,-0.13 -1.11,-0.07 -1.71,0.16l-1.7 0.66 -0.36 0.35 -0.01 0.5 2.43 6.25 0.35 0.36 0.26 0.06 0.24 -0.04 0.13 -0.05c0.33,-0.13 0.5,-0.51 0.37,-0.84l-0.81 -2.08 0.95 -0.36c0.6,-0.23 1.06,-0.58 1.38,-1.03 0.32,-0.46 0.61,-1.23 0.18,-2.34 -0.42,-1.09 -1.15,-1.47 -1.7,-1.59z"/>
  <path class="fil0" d="M128.57 162.13l-0.37 -0.33 -0.5 0.03 -1.98 1 -1 -1.99 1.33 -0.67 0.33 -0.38 -0.04 -0.5 -0.07 -0.13c-0.16,-0.32 -0.55,-0.46 -0.87,-0.29l-1.33 0.66 -0.67 -1.33 1.98 -1c0.32,-0.16 0.45,-0.55 0.29,-0.88l-0.07 -0.13 -0.38 -0.33 -0.5 0.04 -2.7 1.36 -0.32 0.38 0.04 0.5 3.04 6.06 0.59 0.36 0.29 -0.07 2.7 -1.36c0.32,-0.16 0.45,-0.55 0.29,-0.88l-0.06 -0.12z"/>
  <path class="fil0" d="M132.12 152.35c-0.19,-0.3 -0.6,-0.4 -0.9,-0.21l-0.13 0.08 -0.29 0.41 0.08 0.5 2.04 3.24 -4.15 -2.28 -0.66 0.02 -0.13 0.08c-0.31,0.19 -0.4,0.6 -0.21,0.9l3.53 5.62 0.55 0.3 0.35 -0.1 0.12 -0.08 0.29 -0.41 -0.08 -0.49 -2.03 -3.24 4.16 2.28 0.66 -0.02 0.13 -0.08c0.31,-0.19 0.4,-0.6 0.21,-0.9l-3.53 -5.62z"/>
  <path class="fil0" d="M139.69 153.66c-0.08,0.36 -0.23,0.62 -0.45,0.79l-0.74 0.57 -3.16 -4.11 0.74 -0.57c0.21,-0.16 0.47,-0.24 0.8,-0.24l0.08 0c0.41,0.02 0.71,0.17 0.95,0.48l1.57 2.04c0.24,0.31 0.31,0.64 0.22,1.04zm-0.63 -3.97c-0.5,-0.65 -1.21,-1.01 -2.05,-1.04l-0.14 -0c-0.65,0 -1.22,0.18 -1.68,0.54l-1.38 1.06 -0.12 0.92 4.13 5.37 0.44 0.25 0.08 0 0.4 -0.13 1.38 -1.05c0.5,-0.38 0.83,-0.92 0.99,-1.61 0.18,-0.82 0.02,-1.6 -0.49,-2.25l-1.57 -2.04z"/>
  <polygon class="fil0" points="147.25,148.4 146.8,148.19 146.33,148.37 144.7,149.88 143.18,148.24 144.27,147.23 144.47,146.78 144.3,146.31 144.2,146.2 143.28,146.16 142.19,147.18 141.17,146.09 142.8,144.58 142.83,143.65 142.73,143.55 142.27,143.34 141.81,143.51 139.6,145.57 139.39,146.02 139.56,146.49 144.18,151.45 144.64,151.66 144.66,151.66 145.1,151.48 147.31,149.42 147.35,148.5 "/>
  <polygon class="fil0" points="147.91,138.03 146.99,138.08 146.89,138.19 146.73,138.66 146.95,139.12 149.81,141.66 145.18,140.63 144.55,140.83 144.44,140.94 144.5,141.87 149.46,146.28 149.89,146.44 150.38,146.22 150.47,146.12 150.64,145.65 150.42,145.19 147.56,142.65 152.19,143.68 152.83,143.48 152.93,143.36 152.87,142.44 "/>
  <path class="fil0" d="M149.78 135.6c0.1,0.65 0.47,1.2 1.1,1.67l2.38 1.74c0.52,0.38 1.05,0.57 1.58,0.57l0.34 -0.03c0.65,-0.1 1.2,-0.47 1.67,-1.1l0.65 -0.89 -0.14 -0.91 -0.11 -0.08 -0.49 -0.12 -0.43 0.26 -0.65 0.89c-0.23,0.31 -0.47,0.49 -0.72,0.53 -0.25,0.04 -0.53,-0.05 -0.84,-0.28l-2.37 -1.74c-0.31,-0.23 -0.48,-0.46 -0.52,-0.72 -0.04,-0.26 0.05,-0.53 0.28,-0.84l0.65 -0.89 -0.14 -0.91 -0.12 -0.09 -0.49 -0.12 -0.43 0.26 -0.65 0.89c-0.46,0.63 -0.64,1.28 -0.54,1.93z"/>
  <path class="fil0" d="M159.25 133.78l0.34 0.09 0.56 -0.32 1.54 -2.59c0.18,-0.31 0.08,-0.71 -0.22,-0.89l-0.12 -0.07 -0.5 -0.07 -0.4 0.3 -1.14 1.9 -1.91 -1.14 0.76 -1.28c0.18,-0.31 0.08,-0.71 -0.23,-0.9l-0.13 -0.08 -0.5 -0.07 -0.4 0.3 -0.76 1.28 -1.28 -0.76 1.14 -1.9c0.18,-0.31 0.08,-0.71 -0.23,-0.9l-0.13 -0.08 -0.5 -0.07 -0.4 0.3 -1.55 2.59 -0.07 0.5 0.3 0.4 5.82 3.47z"/>
  <path class="fil0" d="M43.15 31.04c0.33,-0.26 0.76,-0.39 1.29,-0.39l0.07 0c0.64,0.02 1.12,0.25 1.5,0.73l2.33 2.95c0.38,0.48 0.5,1 0.36,1.62 -0.12,0.56 -0.34,0.96 -0.69,1.23l-1.18 0.93 -4.86 -6.15 1.18 -0.93zm2.87 9.02l0.55 0.3 0.1 0.01 0.51 -0.18 1.98 -1.57c0.69,-0.54 1.15,-1.31 1.36,-2.29 0.25,-1.17 0.01,-2.23 -0.72,-3.16l-2.33 -2.95c-0.73,-0.92 -1.71,-1.4 -2.9,-1.43l-0.13 -0c-0.94,0 -1.76,0.26 -2.43,0.79l-1.98 1.57 -0.3 0.55 0.17 0.61 6.13 7.76z"/>
  <path class="fil0" d="M57.33 32.05l0.48 0.41 0.25 0.04 0.37 -0.09 3.93 -1.99c0.4,-0.2 0.57,-0.7 0.36,-1.09l-0.09 -0.19 -0.48 -0.41 -0.62 0.05 -3.02 1.53 -1.6 -3.15 2.06 -1.04 0.41 -0.48 -0.05 -0.62 -0.1 -0.2c-0.2,-0.4 -0.7,-0.56 -1.1,-0.36l-2.06 1.04 -1.11 -2.19 3.02 -1.53 0.41 -0.47 -0.05 -0.63 -0.1 -0.19c-0.2,-0.41 -0.7,-0.57 -1.09,-0.36l-3.94 1.99c-0.4,0.2 -0.56,0.7 -0.36,1.1l4.46 8.83z"/>
  <path class="fil0" d="M69.5 26.7c0.1,0.36 0.43,0.6 0.79,0.6l0.22 -0.03 4.25 -1.16 0.5 -0.39 0.08 -0.62 -0.05 -0.19c-0.12,-0.43 -0.58,-0.69 -1,-0.57l-3.26 0.89 -2.31 -8.45c-0.12,-0.44 -0.57,-0.69 -1,-0.57l-0.2 0.05 -0.49 0.39 -0.08 0.62 2.58 9.44z"/>
  <path class="fil0" d="M85.15 16.84l1.25 3.07 -2.09 0.14 0.84 -3.21zm-3.06 7.73l0.21 0.05 0.18 0.02c0.36,0 0.69,-0.25 0.79,-0.61l0.55 -2.09 3.32 -0.22 0.82 2c0.17,0.41 0.62,0.61 1.03,0.46l0.2 -0.07 0.46 -0.43 0.01 -0.64 -3.85 -9.41c-0.13,-0.33 -0.46,-0.53 -0.81,-0.51l-0.23 0.01c-0.35,0.03 -0.65,0.27 -0.74,0.61l-2.57 9.84 0.09 0.63 0.52 0.37z"/>
  <path class="fil0" d="M96.55 24.53l0.22 0.03c0.35,0.05 0.69,-0.14 0.84,-0.46l1.76 -3.63 0.75 3.97c0.06,0.34 0.34,0.61 0.69,0.66l0.22 0.03 0.11 0.01c0.34,0 0.65,-0.21 0.77,-0.54l3.4 -9.3 -0.03 -0.63 -0.46 -0.43 -0.2 -0.07c-0.43,-0.15 -0.89,0.06 -1.05,0.49l-2.25 6.16 -0.71 -3.78c-0.06,-0.35 -0.35,-0.61 -0.7,-0.66 -0.35,-0.05 -0.69,0.14 -0.84,0.46l-1.68 3.46 -0.57 -6.53c-0.04,-0.45 -0.42,-0.78 -0.88,-0.74l-0.21 0.02 -0.56 0.29 -0.19 0.6 0.86 9.86c0.03,0.38 0.32,0.69 0.71,0.74z"/>
  <path class="fil0" d="M114.07 20.69l-0.04 3.32 -1.99 -0.69 2.02 -2.63zm-5.65 6.06c0.36,0.25 0.85,0.18 1.12,-0.17l1.32 -1.71 3.15 1.09 -0.02 2.17c0,0.44 0.34,0.8 0.78,0.82l0.21 0.01 0.04 0 0.56 -0.22 0.26 -0.59 0.11 -10.17c0.01,-0.35 -0.22,-0.67 -0.55,-0.78l-0.21 -0.07c-0.33,-0.12 -0.7,-0.01 -0.92,0.28l-6.19 8.06 -0.16 0.62 0.33 0.54 0.17 0.12z"/>
  <path class="fil0" d="M126.89 24.26l1.4 0.83c0.46,0.27 0.78,0.59 0.94,0.95 0.13,0.29 0.26,0.76 -0.2,1.54 -0.47,0.79 -0.94,0.91 -1.25,0.93l-0.09 0c-0.36,0 -0.77,-0.13 -1.19,-0.38l-1.41 -0.83 1.8 -3.03zm-5.76 7.71l0.18 0.1 0.62 0.09 0.5 -0.37 1.72 -2.91 1.4 0.83 0.12 0.07 -0.32 4.2c-0.03,0.44 0.29,0.83 0.72,0.87l0.21 0.03 0.09 0 0.52 -0.19 0.29 -0.57 0.3 -3.78 0.25 0.01c0.82,0 1.99,-0.32 2.89,-1.84 0.84,-1.41 0.62,-2.55 0.29,-3.26 -0.33,-0.7 -0.89,-1.3 -1.68,-1.76l-2.29 -1.36c-0.39,-0.23 -0.89,-0.1 -1.12,0.29l-4.99 8.42c-0.23,0.39 -0.1,0.89 0.29,1.12z"/>
  <path class="fil0" d="M135.66 42.71l0.55 0.21 0.61 -0.27 0.13 -0.15 0.21 -0.59 -0.27 -0.57 -2.51 -2.27 2.37 -2.62 1.71 1.55c0.33,0.3 0.85,0.27 1.15,-0.06l0.15 -0.16 0.21 -0.59 -0.27 -0.57 -1.72 -1.55 1.64 -1.82 2.51 2.27c0.33,0.3 0.85,0.28 1.15,-0.06l0.14 -0.16 0.21 -0.59 -0.27 -0.57 -3.27 -2.95 -0.59 -0.21 -0.57 0.27 -6.63 7.34c-0.3,0.33 -0.27,0.85 0.06,1.15l3.27 2.95z"/>
  <path class="fil0" d="M77.11 123.24c0.51,-2.56 2.41,-4.54 2.74,-7.21 0.22,-1.81 -0.64,-3.53 -1.42,-5.1 -1.61,-3.22 -1.46,-5.98 -1.94,-9.4 -0.16,-1.14 -1.97,-1.59 -2.2,-0.24 -0.85,5.05 0.82,8.18 2.74,12.64 1.2,2.8 -1.05,5.21 -1.94,7.69 -0.94,2.61 -0.53,5.09 -0.27,7.81 0.53,5.52 -4.1,9.25 -6.65,13.6 -0.81,1.37 -1.24,2.86 -1.47,4.41 -0.38,0.06 -0.75,0.28 -1.06,0.47 -1.59,0.95 -1.99,-0.41 -2.14,-1.61 -0.43,-3.51 -3.27,-3.58 -6.13,-3.44l-0.79 0.48 -0.42 0.63c-0.53,-1.16 -1.1,-2.3 -1.59,-3.47 1.62,-0.98 3.08,-2.25 3.67,-4.13 0.31,-0.99 -1.12,-1.45 -1.62,-0.64 -0.73,1.18 -1.68,2.07 -2.71,2.92 -0.13,-0.45 -0.25,-0.91 -0.34,-1.38 -0.17,-0.95 -1.76,-0.69 -1.67,0.27 0.23,2.56 1.14,4.87 2.5,7.02 -0.48,0.06 -0.97,0.12 -1.41,0.33 -1.36,0.67 -1.72,1.85 -1.85,3.28 -0.1,1.2 1.88,1.4 2.11,0.23 0.5,-2.62 3.88,-1.42 4.84,-3.7 1.85,0.03 3.34,0.66 3.61,2.78 0.09,0.68 0.28,1.65 0.85,2.12 0.72,0.6 1.34,0.85 2.29,0.82 0.39,-0.02 1.09,-0.54 1.66,-0.76 -0.09,2.16 0.05,4.35 0.04,6.41 -0,0.99 1.56,1.18 1.74,0.19 0.9,-4.82 0.1,-9.47 2.95,-13.75 2.14,-3.22 5.61,-6.32 5.96,-10.43 0.24,-2.95 -0.66,-5.94 -0.08,-8.85z"/>
  <path class="fil0" d="M130.71 147.39c0.81,-0.03 1.77,-1 2.47,0.15 0.53,0.88 1.95,0.25 1.64,-0.74 -0.25,-0.8 -0.59,-1.97 -1.59,-2.18 -0.48,-0.1 -0.88,-0 -1.26,0.13 -0.07,-5.1 -5.15,-9.5 -8.69,-4.9 -3.65,-2.39 -7.38,-0.76 -9.71,2.59 -1.19,-3.1 -3.44,-5.78 -4.77,-8.8 -1.13,-2.57 -0.89,-5.46 -0.96,-8.2 -0.08,-3.01 -0.28,-5.99 -0.6,-8.98 -0.6,-5.55 -1.61,-11.18 -3.15,-16.54 -0.35,-1.23 -2.05,-0.63 -1.85,0.56 1.06,6.35 2.5,12.57 3.1,18.99 0.47,4.98 -0.44,10.06 1.03,14.9 1.17,3.86 3.88,7.02 4.96,10.93 0.77,2.76 -0.6,8.65 2.25,10.34 0.62,0.37 1.64,0 1.75,-0.76 0.41,-2.95 -0.43,-6.84 -1.05,-9.89 1.97,-3.03 4.83,-5.76 8.47,-2.49 0.55,0.5 1.57,0.44 1.91,-0.3 2.29,-4.94 5.52,0.65 4.9,3.77 -0.14,0.71 0.37,1.45 1.14,1.42z"/>
  <path class="fil0" d="M113.57 98.21c-14.41,-8.34 -30.81,-9.09 -45.05,0.04 -0.95,0.62 -0.07,1.94 0.91,1.47 3.44,-1.65 6.9,-3.09 10.45,-4.12 -0.02,0.5 0.01,1 0.01,1.47 0,1.11 0,2.17 0.26,3.25 0.21,0.91 1.57,0.82 1.78,-0.04 0.23,-0.97 0.24,-1.92 0.24,-2.91 0,-0.75 0.07,-1.59 -0.03,-2.37 2.7,-0.65 5.48,-1.05 8.37,-1.12 2.55,-0.06 5.07,0.19 7.54,0.68l0.13 0.3 -0.08 1.07c-0.03,0.56 -0.03,1.13 -0.04,1.69 -0.01,0.55 -0.05,1.13 0.09,1.68 -0.06,0.51 0.32,0.85 0.79,0.93 0.63,0.17 1.38,-0.22 1.36,-0.9 0.13,-0.47 0.11,-0.97 0.1,-1.45 -0.01,-0.55 -0.02,-1.1 -0.03,-1.65 -0.01,-0.23 -0.13,-0.81 -0.11,-1.17 4.3,1.09 8.46,2.84 12.41,4.83 1.09,0.55 1.98,-1.05 0.92,-1.67z"/>
  <path class="fil0" d="M68.52 92.58c-0.87,0.66 -0.07,2.04 0.91,1.47 6.42,-3.72 12.94,-6.68 20.46,-7.05 8.2,-0.41 15.92,3.08 22.77,7.22 1.06,0.65 1.91,-0.99 0.92,-1.67 -14.32,-9.83 -30.93,-10.64 -45.05,0.03z"/>
  <path class="fil0" d="M64.01 77.71c0.52,0.76 1.59,0.55 1.86,-0.29 0.25,-0.75 0.49,-1.51 0.73,-2.26 0.62,0.57 1.16,1.18 1.73,1.86 0.69,0.82 1.93,-0.28 1.41,-1.14 -0.82,-1.36 -1.89,-2.33 -3.17,-3.24 -0.56,-0.4 -1.25,0.08 -1.43,0.63 -0.22,0.66 -0.45,1.31 -0.68,1.96 -1.33,-1.1 -2.93,-1.4 -4.93,-1.43 -0.48,-0 -0.94,0.46 -0.9,0.95 0.44,4.87 -5.36,5.83 -5.34,10.62 0.01,1.26 1.78,1.13 1.9,-0.04 0.27,-2.54 1.91,-3.54 3.58,-5.18 1.25,-1.22 1.72,-2.78 1.74,-4.44 1.44,0.16 2.57,0.64 3.49,2z"/>
  <path class="fil0" d="M54.76 76.75c-0.26,-1.92 -2.42,-3.86 -4.18,-4.46 -1.32,-0.45 -2.32,-0.45 -3.59,0.1 -1.02,0.44 -1.91,-0.56 -2.98,-0.19 -3.37,1.14 -3.77,5.48 -7.14,6.66 -2.92,1.03 -4.48,1.78 -4,5.29 0.16,1.19 1.99,1.2 1.9,-0.04 -0.22,-3.22 2.9,-3.07 4.88,-4.45 1.87,-1.3 3.31,-6.73 6.37,-4.9 0.41,0.24 0.83,0.1 1.16,-0.18 2.16,-1.78 4.94,0.37 5.79,2.46 0.35,0.88 1.93,0.8 1.78,-0.28z"/>
  <path class="fil0" d="M42.19 69.66c0.7,0.83 1.84,-0.27 1.4,-1.13 -2.54,-4.87 -13.27,-7.56 -14.06,-0.76 -2.87,-0.26 -5.67,0.8 -5.95,4.12 -0.07,0.83 1.26,1.14 1.59,0.39 1.07,-2.43 2.77,-2.76 5.13,-2.24 0.66,0.15 1.37,-0.35 1.33,-1.06 -0.33,-6.31 8.37,-1.94 10.57,0.68z"/>
  <path class="fil0" d="M49.03 66.67c-0.87,0.98 0.54,2.32 1.47,1.4 1.45,-1.43 2.93,-3.26 5.07,-3.53 1.81,-0.23 4.02,0.66 5.78,1.03 0.46,0.1 1.01,-0.08 1.22,-0.53 3.72,-7.82 5.57,3.4 9.42,4.55 1,0.3 1.68,-1.05 0.95,-1.74 -1.91,-1.81 -5.5,-10.33 -9.33,-7.7 -1.07,0.73 -1.73,1.68 -2.41,2.76 -0.47,0.75 -3.5,-0.4 -4.33,-0.48 -3.44,-0.33 -5.68,1.78 -7.85,4.22z"/>
  <path class="fil0" d="M36.71 54.69c1.52,0.08 2.99,-1.14 4.08,-2.04 1.05,-0.87 1.94,-1.93 3.39,-2.15 3.06,-0.46 5.67,3.39 5.87,5.85 0.09,1.01 1.61,1.27 1.84,0.2 0.87,-4.05 -1.46,-5.68 -4.6,-7.67 -2.84,-1.79 -5.51,-0.37 -7.71,1.57 -4.06,3.56 -5.89,0.07 -9.71,-1 -3.08,-0.87 -5.27,2.06 -6.66,4.38 -0.56,0.92 0.75,1.8 1.48,1.08 2.21,-2.19 3.38,-4.12 6.23,-2.13 1.77,1.24 3.67,1.77 5.8,1.89z"/>
  <path class="fil0" d="M47.37 80.03c-0.29,0.63 -0.6,1.25 -0.89,1.86 -0.32,-0.95 -0.69,-1.86 -1.11,-2.71 -0.43,-0.88 -1.78,-0.21 -1.52,0.69 0.49,1.73 0.93,3.4 1.28,5.08l-0.07 0.19c-0.12,0.34 0.02,0.64 0.26,0.83 0.26,1.46 0.44,2.95 0.49,4.51 0.04,1.18 1.66,1.06 1.78,-0.05 0.2,-1.88 0.04,-3.92 -0.39,-5.91 0.63,-1.28 1.33,-2.52 1.76,-3.87 0.3,-0.93 -1.19,-1.51 -1.59,-0.63z"/>
  <path class="fil0" d="M67.17 80.39c-0.15,-0.92 -1.53,-0.75 -1.73,0.04 -0.32,1.26 -0.96,2.2 -1.73,3.08 -0.26,-0.67 -0.61,-1.3 -1.1,-1.85 -0.56,-0.64 -1.73,0.08 -1.42,0.88 0.84,2.14 0.85,4.27 1.14,6.51 0.12,0.93 1.65,1.3 1.79,0.2 0.14,-1.06 0.2,-2.2 0.1,-3.32 1.82,-1.2 3.3,-3.36 2.94,-5.54z"/>
  <path class="fil0" d="M8.32 81.41c-0.31,-0.94 -1.82,-0.76 -1.76,0.28 0.13,2.23 0.59,4.66 1.78,6.57 0.52,0.83 2.02,0.22 1.61,-0.72 -0.85,-1.98 -0.95,-4.11 -1.63,-6.14z"/>
  <path class="fil0" d="M53.67 45.89c0.35,-3.48 5.62,-4.5 7.53,-1.73 0.55,0.79 1.2,1.72 2.2,1.96 0.91,0.23 1.76,-0.19 2.52,-0.63 0.58,-0.34 1.11,-0.86 1.66,-1.26 4.43,-3.28 3.89,3.62 3.78,4.76l0.04 0.36 0.25 0.65c0.41,0.46 0.92,0.61 1.31,1.03l0.18 0.45 0.25 0.82c0.2,0.78 1.34,0.88 1.71,0.18 0.49,-0.94 0.34,-1.95 -0.28,-2.79 -0.37,-0.5 -0.93,-0.97 -1.56,-1.17 0.63,-2.72 -0.37,-5.31 -3.01,-6.58 -2.37,-1.14 -5.8,3.06 -7.24,1.09 -1.82,-2.49 -3.39,-3.11 -6.45,-2.45 -2.61,0.56 -4.9,2.59 -4.58,5.34 0.13,1.11 1.59,1.04 1.7,-0.04z"/>
  <path class="fil0" d="M39.55 59.68c-1,-0.52 -1.69,0.86 -0.82,1.49 1.34,0.98 3.15,1.3 4.71,0.73l0.17 0.62c0.34,1.12 1.88,0.59 1.69,-0.51 -0.3,-1.69 -0.54,-3.36 -1.32,-4.91 -0.46,-0.91 -1.89,-0.22 -1.6,0.72 0.23,0.74 0.41,1.5 0.59,2.25 -1.15,0.2 -2.34,0.16 -3.41,-0.39z"/>
  <path class="fil0" d="M63.22 50.43c0.52,-0.88 -0.77,-1.83 -1.44,-1.06 -0.96,1.11 -1.83,2.18 -3,3.01 -0.09,-1.04 -0.24,-2.06 -0.65,-3.04 -0.34,-0.8 -1.81,-0.75 -1.65,0.26 0.46,2.89 -0.24,6.08 1.52,8.62 0.54,0.79 2.02,0.25 1.61,-0.73 -0.44,-1.02 -0.59,-2.09 -0.68,-3.16 1.8,-0.81 3.28,-2.21 4.3,-3.91z"/>
  <path class="fil0" d="M68.15 57.98c0.5,0.12 0.87,-0.19 1.04,-0.63 0.11,-0.3 0.32,-0.6 0.44,-0.91 0.16,-0.43 0.25,-0.9 0.25,-1.36 -0,-0.91 -1.28,-1.2 -1.7,-0.42 -0.19,0.37 -0.32,0.77 -0.44,1.17 -0.11,0.36 -0.12,0.77 -0.21,1.11 -0.13,0.45 0.18,0.93 0.63,1.04z"/>
  <path class="fil0" d="M67.56 35.07c1.45,-1.21 2.76,-1.01 3.85,0.53 0.28,0.4 0.9,0.65 1.34,0.31 0.83,-0.62 1.7,-1.13 2.67,-1.51 1.87,-0.72 2.51,-0.04 2.87,1.76 0.06,0.33 0.25,0.51 0.47,0.6 0.34,2.06 0.82,4.1 1.15,6.26 0.82,5.31 -3.34,9.92 -3.22,15.25 0.05,2.15 1.09,4.1 1.19,6.27 0.14,3.01 -1.62,6.18 -2.61,8.94 -1.06,2.96 -2.3,7.61 -1.04,10.63 0.38,0.92 1.92,1.13 2.14,-0.05 0.7,-3.81 0.51,-7.57 1.68,-11.34 1.4,-4.54 2.72,-7.8 1.28,-12.48 -1.71,-5.57 2.72,-9.65 2.8,-14.97 0.08,-5.12 -1.92,-9.91 -1.75,-15.11 0.03,-1.08 -1.77,-1.3 -1.91,-0.21 -0.11,0.84 -0.13,1.64 -0.13,2.45 -1.7,-0.51 -4.23,0.36 -5.93,1.4 -1.75,-1.79 -4.35,-2.23 -6.13,0.08 -0.69,0.9 0.4,1.92 1.26,1.2z"/>
  <path class="fil0" d="M24.56 43.51c-0.96,0.44 -1.98,0.54 -3.01,0.66l0.05 -0.29c0.2,-0.95 -1.23,-1.61 -1.64,-0.65 -0.21,0.47 -0.37,0.97 -0.5,1.48l-0.16 0.8c-0.11,0.75 -0.13,1.51 -0.03,2.26 0.13,0.88 1.52,1.23 1.69,0.19 0.09,-0.53 0.16,-1.07 0.24,-1.6 1.62,0.11 3.27,-0.35 4.48,-1.46 0.82,-0.75 -0.27,-1.78 -1.13,-1.39z"/>
  <path class="fil0" d="M37.01 44.39l0.05 0.08 0.04 0.03 0.07 0.21c0.11,0.36 0.16,0.66 0.28,1.06 0.25,0.88 1.53,0.82 1.75,-0.04 0.17,-0.64 0.13,-1.27 -0.16,-1.86l-0.45 -0.64 -0.37 -0.25 -0.31 -0.12 -0.2 -0.02c-0.9,-0.19 -1.37,0.89 -0.77,1.46l0.07 0.1z"/>
  <path class="fil0" d="M46.52 124.74c-0.33,-0.86 -1.85,-0.76 -1.72,0.28 0.15,1.19 -0.14,2.2 -1.17,2.74 -0.35,-0.99 -0.69,-1.99 -0.95,-3.01 -0.24,-0.93 -1.77,-0.7 -1.68,0.27 0.21,2.13 0.94,4.06 1.7,6.04 0.99,2.57 1.2,4.89 0.76,7.62 -0.18,1.11 1.35,1.51 1.7,0.43 1.08,-3.38 0.2,-6.43 -0.88,-9.52 1.97,-0.59 3,-2.84 2.24,-4.85z"/>
  <path class="fil0" d="M27.58 123.55c-0.69,0.92 0.44,2.09 1.32,1.26 0.51,-0.49 1.5,-1.74 2.36,-1.37 0.73,0.32 1.22,1.32 1.62,1.95 0.84,1.36 1.82,3.44 3.59,3.72 0.77,0.12 1.58,-0.9 0.81,-1.48 -1.69,-1.29 -2.39,-3.36 -3.74,-4.94l0.33 -0.28c1.81,-2.49 2.77,-4.63 6.16,-2.58 0.42,0.25 1.07,0.08 1.29,-0.37 0.5,-1.05 0.95,-2.13 1.49,-3.17 2.19,-4.21 6.74,-1.39 6.48,2.19 -0.04,0.58 0.53,0.97 1.03,0.99 1.76,-0.28 2.85,0.57 3.28,2.54 -0.13,0.86 0.52,1.47 1.37,1.3 3.16,-0.62 -0.89,3.63 -1.31,4l-0.31 0.61c-0.28,0.43 -0.57,0.81 -1.36,1.03 -2.72,0.74 -4.92,2.25 -4.41,5.28 0.16,0.95 1.68,0.66 1.64,-0.26 -0.08,-2.58 2.66,-2.85 4.46,-3.28 0.43,-0.1 0.68,-0.35 1.01,-0.64l0.39 -0.63c0.8,-1.46 2.64,-0.07 3.35,0.98 1.06,1.58 1.84,3.04 3.82,3.4 0.65,0.12 1.3,-0.08 1.92,-0.24 3.59,-0.97 0.55,4.91 -0.2,6 -0.56,0.82 0.75,1.75 1.39,1.01 2.21,-2.57 4.05,-6.09 1.35,-8.98 -0.81,-0.87 -2.24,-0.38 -3.15,-0.07 -2.44,0.83 -3.59,-3.48 -5.18,-4.46 -0.29,-0.18 -0.61,-0.33 -0.95,-0.46 1.01,-1.43 1.43,-3.08 0.9,-4.2 0.98,-0.74 1.76,-1.72 2.87,-2.4 0.98,-0.6 2.39,0.7 3.37,0.99 0.79,0.24 1.92,0.22 2.55,-0.39 0.65,-0.63 1,-1.92 2.23,-0.32 0.71,0.93 0.54,2.37 0.26,3.4 -0.26,0.97 1.17,1.53 1.63,0.64 1.36,-2.64 -0.53,-8.25 -4.22,-6.34l-0.72 0.73c-0.63,0.76 -1.93,0.02 -2.46,-0.39 -0.48,-0.36 -1.04,-0.77 -1.68,-0.75 -2.42,0.08 -3.96,1.96 -5.49,3.6 -0.26,-0.05 -0.55,-0.08 -0.87,-0.09 -0.19,-2.33 -2.03,-3.3 -4.46,-3.58 -0.19,-2.72 -2.4,-5.37 -5.14,-5.73 -3.13,-0.41 -4.94,3.37 -6.12,5.91 -3.68,-1.74 -5.73,0.16 -7.67,3.89l-0.04 0.12c-1.69,-0.85 -3.59,0.23 -4.78,1.84z"/>
  <path class="fil0" d="M52.27 111.96c1.29,0.3 2.48,0.11 3.49,-0.8 1.74,-1.57 2.36,-3.78 4.99,-1.76 0.49,0.37 1.34,0.42 1.64,-0.25 1.6,-3.6 6,-1.47 5.56,2 -0.15,1.15 1.41,1.58 1.77,0.44 1.76,-5.45 -5.5,-8.69 -8.59,-4.44 -1.12,-0.69 -2.33,-1.08 -3.69,-0.49 -1.93,0.85 -2.74,3.22 -4.98,3.54 -0.94,0.13 -1.24,1.51 -0.19,1.76z"/>
  <path class="fil0" d="M26.18 117.18c0.33,0.82 0.79,1.6 1.29,2.3 0.69,0.96 2.03,0.09 1.53,-0.94 -0.18,-0.39 -0.36,-0.77 -0.54,-1.16 0.46,-0.22 0.87,-0.57 1.23,-1.03 0.25,-0.32 0.34,-0.72 0.12,-1.08 -0.24,-0.38 -0.84,-0.58 -1.22,-0.29l-0.8 0.57c-0.11,-0.39 -0.2,-0.79 -0.25,-1.2 -0.15,-1.19 -1.79,-1.17 -1.87,0.05 -0.04,0.73 0.07,1.46 0.29,2.15l0.22 0.63z"/>
  <path class="fil0" d="M66.88 125.42l-0.02 -0.88c-0.19,-0.3 -0.64,-0.53 -0.99,-0.37l-0.6 0.4 -0.17 -0.38c-0.35,-0.93 -1.9,-0.8 -1.81,0.29 0.14,1.79 1.12,3.07 2.49,4.17 0.74,0.59 2.04,-0.26 1.37,-1.11 -0.32,-0.42 -0.65,-0.85 -0.95,-1.31 0.29,-0.22 0.55,-0.48 0.69,-0.8z"/>
  <path class="fil0" d="M63.23 114.86c0.39,0.22 0.99,0.09 1.19,-0.34 0.46,-1 0.52,-2.09 -0.02,-3.06 -0.48,-0.87 -1.91,-0.22 -1.58,0.71 0.2,0.55 0.09,1.15 -0.01,1.71 -0.07,0.39 0.07,0.78 0.43,0.98z"/>
  <path class="fil0" d="M133.45 120c1.74,1.3 2.68,2.12 2.64,4.46 -0.02,0.96 1.58,1.16 1.7,0.19 0.25,-1.95 -0.1,-3.66 -1.54,-5.06l-0.76 -0.67c0.7,-1.33 0.61,-2.78 -0.27,-4.19 -0.59,-0.94 -1.94,-0.07 -1.45,0.9 0.37,0.72 0.42,1.39 0.24,2.05 -0.6,-0.56 -1.1,-1.21 -1.42,-2.21 -0.28,-0.89 -1.79,-0.72 -1.68,0.27 0.2,1.83 1.07,3.16 2.53,4.25z"/>
  <path class="fil0" d="M110.82 126.15c1.84,-0.24 3.08,-1.06 3.43,-2.98 0.17,-0.98 0.33,-1.91 0.55,-2.89 0.44,-1.97 2.47,-1.05 3.92,-1.11 0.7,-0.03 1.23,-0.6 1.64,-1.09 2.2,-2.66 3.7,0.94 3.91,2.45 0.15,1.05 0.24,2.09 0.54,3.12 0.51,1.73 2.53,2.67 1.56,4.73l-0.08 0.48c-0.58,0.34 -1.13,0.38 -2,0.79 -1.61,0.74 -2.84,1.9 -3.94,3.25l-0 0c-1.69,-0.99 -3.51,-1.54 -5.48,-1.39 -0.91,0.07 -1.17,1.52 -0.18,1.66 1.63,0.25 3.16,0.89 4.59,1.67 1.19,0.66 2.26,1.84 3.56,2.22 0.84,0.24 1.36,-0.71 1.01,-1.38 -0.34,-0.67 -1.01,-1.23 -1.74,-1.72 1.44,-1.2 2.61,-2.56 4.79,-2.39 0.39,0.03 0.77,-0.26 0.96,-0.58 1.28,-2.14 2.44,1.03 3.12,1.98 0.6,0.83 1.69,1.72 2.68,1.96 1.25,0.3 2,0.2 3.14,-0.35 0.77,-0.37 1.49,-1.03 2.22,-1.5 1.09,-0.7 5.01,-4.75 4.76,1.74 -0.04,1.21 2,1.45 2.14,0.23 0.25,-2.24 -0.94,-5.53 -3.75,-5.63 -4.22,-0.15 -6.74,5.93 -10.41,0.39 -0.64,-0.96 -1.89,-2.32 -3.15,-2.36 0.05,-0.58 -0.07,-1.18 -0.37,-1.87 -0.8,-1.86 -1.58,-3.04 -1.83,-5.11 -0.32,-2.66 -1.35,-4.64 -4.15,-5.14 -1.21,-0.22 -2.07,0.04 -2.96,0.84 -1.48,1.34 -3.21,0.36 -4.85,1.38 -2.61,1.61 -0.98,5.74 -3.9,6.86 -0.88,0.34 -0.78,1.87 0.28,1.74z"/>
  <path class="fil0" d="M144.68 125.43c0.66,1.1 2.14,2.09 3.43,1.56 0.7,-0.28 0.98,-1.33 0.18,-1.72l-0.85 -0.34c0.37,-0.24 0.72,-0.55 1.04,-0.95 0.83,-1.04 1.29,-2.37 1.61,-3.65 0.26,-1.04 -1.14,-1.52 -1.69,-0.67 -0.53,0.83 -1.01,1.68 -1.58,2.48 -0.21,0.29 -0.46,0.63 -0.75,0.93 -0.22,-0.51 -0.45,-1.04 -0.87,-1.33 -0.54,-0.55 -1.59,-0.21 -1.48,0.6 -0.17,0.7 0.22,1.68 0.59,2.41l0.37 0.69z"/>
  <path class="fil0" d="M122.57 151.43c-0.13,-0.56 -0.33,-1.1 -0.53,-1.65 1.19,-0.56 2.18,-1.42 2.87,-2.56 0.53,-0.87 -0.72,-1.75 -1.42,-1.03 -0.66,0.68 -1.38,1.28 -2.13,1.84 -0.18,-0.49 -0.35,-0.98 -0.48,-1.48 -0.25,-0.94 -1.79,-0.71 -1.69,0.27 0.17,1.79 0.57,3.92 1.72,5.36 0.64,0.8 1.91,0.31 1.66,-0.74z"/>
  <path class="fil0" d="M137.22 139.25c-0.21,0.32 -0.65,0.59 -1.01,0.79 -0.89,0.51 -0.23,1.88 0.72,1.61 1.58,-0.46 2.71,-1.89 2.19,-3.55 -0.33,-1.05 -1.92,-0.57 -1.63,0.49l-0.04 0.2 -0.24 0.45z"/>
  <path class="fil0" d="M128.25 51.96c-0.91,0.32 -0.74,1.75 0.27,1.71 2.15,-0.08 3.07,-1.37 3.45,-3.39 0.31,-1.69 -0.36,-5.69 3.71,-3.64 1.56,0.79 2.77,2.13 4.36,2.9 1.78,0.87 3.73,0.6 5.12,-0.73 0.76,-0.72 1.04,-1.78 1.88,-2.46 1.4,-1.12 2.6,3.48 3.03,4.2 0.51,0.87 2.06,0.22 1.64,-0.74 -0.2,-0.46 -0.35,-0.96 -0.49,-1.45 0.34,-0.18 0.57,-0.55 0.46,-0.94 1.07,-0.14 2.12,-0.07 3.27,0 0.92,0.06 1.13,-1.26 0.41,-1.67 -1.58,-0.9 -3.38,-0.54 -5.03,-0.04 -0.49,-0.91 -1.25,-1.55 -2.7,-1.57 -3.56,-0.06 -3.05,5.61 -7.29,3.43 -2.23,-1.14 -5.01,-5.03 -8,-3.23 -2.88,1.73 -1.24,6.61 -4.08,7.63z"/>
  <path class="fil0" d="M139.74 40.66c-0.48,0.85 0.71,1.72 1.38,1.01 0.94,-1.01 1.95,-2.06 3.24,-2.59 1.54,-0.64 2.4,0.43 3.58,1.19 0.68,0.44 1.67,-0.34 1.37,-1.11 -0.74,-1.85 -2.87,-2.82 -4.81,-2.32 -2.07,0.54 -3.72,1.97 -4.76,3.81z"/>
  <path class="fil0" d="M156.91 68.03c-0.08,-1.65 -0.39,-3.27 -0.59,-4.91 -0.12,-1.1 -1.6,-1.04 -1.7,0.04 -0.15,1.75 0.05,3.45 0.55,5.14 0.28,0.96 1.78,0.73 1.74,-0.28z"/>
  <path class="fil0" d="M146.55 66.18c0.43,0.11 1,-0.16 1.06,-0.64 0.11,-0.79 0.14,-1.62 0.03,-2.41 -0.06,-0.4 -0.25,-0.73 -0.66,-0.83 -0.43,-0.11 -1,0.17 -1.06,0.64 -0.12,0.79 -0.13,1.62 -0.03,2.41 0.05,0.39 0.25,0.73 0.67,0.83z"/>
  <path class="fil0" d="M127.96 68.55l0.28 0.72c0.4,1.09 0.64,2.22 0.5,3.48 -0.11,0.91 1.19,1.65 1.64,0.64 0.64,-1.43 0.52,-2.91 0.03,-4.33 0.34,-0.17 0.66,-0.39 0.96,-0.7 0.66,-0.66 1.05,-1.65 1.26,-2.55 0.22,-0.94 -1.2,-1.56 -1.62,-0.64 -0.38,0.83 -0.8,1.53 -1.44,2.03 -0.35,-0.63 -0.75,-1.23 -1.14,-1.79 -0.66,-0.93 -1.92,-0.09 -1.47,0.91 0.34,0.75 0.7,1.48 1,2.22z"/>
  <path class="fil0" d="M140.12 85.49c0.14,0.67 0.14,1.35 -0.13,2.02 -0.36,0.89 0.68,1.83 1.42,1.04 1.06,-1.13 0.98,-2.4 0.55,-3.7 1.5,-1.07 2.21,-2.88 2.12,-4.83 -0.05,-1.13 -1.63,-1.04 -1.72,0.04 -0.09,1.08 -0.54,2.03 -1.2,2.83 -0.4,-0.9 -0.78,-1.78 -0.88,-2.6 -0.13,-1.1 -1.73,-1.1 -1.74,0.04 -0.01,1.35 0.72,2.65 1.23,3.95 -0.2,0.44 -0.04,1 0.36,1.2z"/>
  <path class="fil0" d="M150.49 89.41c0.64,0.5 1.86,0.01 1.49,-0.92 -0.31,-0.77 -0.73,-1.47 -1.01,-2.25 -0.28,-0.76 -0.48,-1.58 -0.66,-2.37 -0.21,-0.95 -1.81,-0.7 -1.7,0.28 0.21,1.81 0.32,4.04 1.88,5.26z"/>
  <path class="fil0" d="M162.7 83.34c-0.25,0.35 -0.21,0.84 0.1,1.14 0,0.92 -0.22,1.8 -0.86,2.59 -0.68,0.85 0.45,1.97 1.23,1.17 1.04,-1.07 1.46,-2.3 1.51,-3.58l0.64 -0.16c0.78,-0.3 1.4,-0.82 1.98,-1.4 0.76,-0.76 -0.25,-1.86 -1.13,-1.4 -0.5,0.26 -1.02,0.5 -1.52,0.74l-0.17 0.09c-0.3,-1.41 -0.85,-2.82 -1.36,-4.12 -0.4,-1.03 -1.91,-0.59 -1.65,0.5 0.32,1.37 0.98,2.91 1.24,4.42z"/>
  <path class="fil0" d="M117.62 85.75c0.15,1.07 0.47,2.1 1.03,3 0.61,0.97 2.17,0.28 1.83,-0.83 -0.3,-0.96 -0.63,-1.91 -0.97,-2.84 -0.16,-1.51 0.09,-3.12 0.28,-4.56 0.14,-1.06 -1.33,-1.48 -1.65,-0.41 -0.1,0.33 -0.19,0.68 -0.27,1.03 -0.2,-0.43 -0.39,-0.86 -0.61,-1.29 -0.44,-0.9 -1.96,-0.21 -1.6,0.72 0.67,1.72 1.33,3.44 1.95,5.18z"/>
  <path class="fil0" d="M115.27 43.31c-1.08,-0.14 -2.04,0.51 -3.11,0.33 -0.39,-0.06 -0.95,-0.12 -1.29,0.14 -2.38,1.78 -1.04,4.24 -2.45,6.42 -0.6,0.93 0.85,1.65 1.46,0.81 0.85,-1.16 0.91,-2.14 0.92,-3.56 0.02,-2.89 1.44,-1.51 2.93,-1.92 1.42,-0.39 2.77,0.22 4.01,-0.63l0.46 -0.62c0.6,-1.99 2.39,-0.9 2.68,0.65 0.09,0.49 0.64,0.79 1.1,0.79 1.93,0.3 3.14,1.29 3.64,2.99 0.52,1.16 2.25,0.71 1.93,-0.58 -0.61,-2.49 -2.32,-4.16 -4.71,-4.55 -0.43,-1.38 -1.31,-2.58 -2.96,-2.56 -0.95,0.01 -1.86,0.05 -2.69,0.57 -1.19,0.73 -0.07,1.96 -1.91,1.72z"/>
  <path class="fil0" d="M103.01 34.56c0.81,1.89 -0.56,2.76 -2.04,3.31 -0.94,-3.15 -1.91,-6.28 -2.09,-9.62 -0.07,-1.17 -1.73,-1.1 -1.79,0.04 -0.25,4.31 1.06,8.44 2.18,12.55 1.39,5.09 1.08,9.44 0.77,14.61 -0.27,4.69 2.2,8.65 1.33,13.41 -0.82,4.5 -1.11,9.56 0.12,14.01 0.29,1.06 1.9,1.02 2.14,-0.05 0.46,-2.06 0.21,-3.9 -0.03,-6 -0.32,-2.82 0.06,-5.49 0.56,-8.25 0.78,-4.3 -1.06,-7.78 -1.53,-11.98 -0.48,-4.28 0.68,-8.42 -0.12,-12.74 -0.24,-1.35 -0.58,-2.67 -0.95,-3.98 2.45,-0.57 4.14,-2.44 3.68,-4.9 3.16,-0.7 5.56,0.72 6.88,3.91 0.44,1.06 1.95,0.62 1.71,-0.52 -1.04,-4.95 -5.66,-6.54 -10.14,-5.07 -0.48,0.16 -0.9,0.75 -0.68,1.27z"/>
  <path class="fil0" d="M115.26 36.69c0.72,0.41 1.52,0.6 2.32,0.32 0.82,-0.27 1.47,-0.9 1.78,-1.7 0.26,-0.69 -0.57,-1.37 -1.21,-1.15 -0.44,0.15 -0.82,0.42 -1.26,0.57 -0.39,0.13 -0.81,0.23 -1.21,0.26 -0.88,0.07 -1.21,1.23 -0.42,1.69z"/>
  <path class="fil0" d="M137.22 52.82c-0.4,-1.02 -1.94,-0.59 -1.64,0.5 0.28,1.05 0.53,2.02 1.3,2.84 0.59,0.62 1.8,-0.07 1.46,-0.9 -0.34,-0.83 -0.78,-1.61 -1.11,-2.44z"/>
  <path class="fil0" d="M81.86 104.02c0.4,-1.01 -1.03,-1.87 -1.52,-0.84 -1.35,2.85 0.36,5.28 1.83,7.74 1.72,2.89 2.04,5.28 0.44,8.36 -1.03,2 -1.53,3.87 -1.44,6.13 0.11,2.72 0.88,4.99 0.27,7.8 -0.73,3.4 -3.34,6.44 -5.37,9.13 -2.83,3.76 -3.31,7.5 -3.2,12.09 0.03,1.11 1.69,1.06 1.72,-0.04 0.08,-2.74 0.04,-5.4 1.09,-7.98 0.91,-2.23 2.68,-4.08 4.08,-6.01 2.64,-3.62 4.1,-7.39 3.79,-11.89 -0.21,-3.06 -0.84,-5.39 0.65,-8.34 0.69,-1.37 1.54,-2.9 1.46,-4.5 -0.18,-3.64 -5.14,-8.33 -3.82,-11.65z"/>
  <path class="fil0" d="M98.02 104.74c-0.13,-1.07 -1.65,-1.06 -1.69,0.04 -0.13,3.52 1.01,6.8 2.09,10.11 1.35,4.15 1.85,7.84 1.17,12.18 -0.82,5.26 -1.02,9.75 3.96,12.87 0.85,0.54 1.84,-0.79 1.05,-1.42 -5.5,-4.39 -3.01,-9.55 -2.5,-15.47 0.52,-6.1 -3.37,-12.28 -4.08,-18.31z"/>
  <path class="fil0" d="M93.35 125.34c-3.91,12.09 9.32,19.5 8.37,31.29 -0.08,1.03 1.54,1.15 1.77,0.19 2.91,-11.97 -11.82,-18.94 -8.5,-31.07 0.29,-1.06 -1.31,-1.43 -1.64,-0.41z"/>
  <path class="fil0" d="M106.96 144.93c-0.55,-0.91 -1.99,-0.25 -1.69,0.77 1.09,3.69 1.98,6.81 1.13,10.69 -0.21,0.94 1.23,1.59 1.63,0.64 1.65,-3.95 1.15,-8.43 -1.06,-12.09z"/>
  <path class="fil0" d="M89.82 145.4c1.22,3.59 2.03,6.96 1.05,10.71 -0.24,0.94 1.22,1.56 1.61,0.63 1.63,-3.88 0.59,-8.36 -1.13,-12.04 -0.41,-0.88 -1.84,-0.21 -1.53,0.69z"/>
  <path class="fil0" d="M85.17 99.45c-1.38,6.39 4.01,10.93 4.04,17.12 0.01,1.15 1.65,1.05 1.74,-0.04 0.5,-6.18 -4.69,-10.67 -4.1,-16.89 0.09,-0.97 -1.48,-1.11 -1.68,-0.18z"/>
  <path class="fil0" d="M78.6 152.81c-0.1,1.81 -0.11,3.63 0.01,5.45 0.08,1.11 1.63,1.04 1.7,-0.04 0.13,-1.81 0.11,-3.63 0.01,-5.45 -0.06,-1.12 -1.67,-1.06 -1.73,0.04z"/>
  <path class="fil0" d="M81.83 142.65c-1.36,1.28 -2.03,3.12 -1.89,4.98 0.07,0.95 1.63,1.24 1.75,0.19 0.16,-1.41 0.46,-2.85 1.4,-3.97 0.72,-0.85 -0.44,-1.97 -1.26,-1.19z"/>
  <path class="fil0" d="M82.72 29.43c-2.19,6.98 4.27,12.89 2.61,19.78 -0.78,3.25 -2.79,5.65 -3.02,9.08 -0.29,4.17 1.15,8.3 0.94,12.51 -0.06,1.1 1.59,1.02 1.69,-0.04 0.32,-3.75 -0.57,-7.39 -0.86,-11.12 -0.33,-4.13 2.35,-7.42 3.37,-11.25 1.68,-6.25 -4.56,-12.04 -3.08,-18.55 0.25,-1.07 -1.32,-1.45 -1.65,-0.41z"/>
  <path class="fil0" d="M95.84 46.64c-1.87,4.3 -1.98,7.1 -0.48,11.52 1.84,5.46 -1.13,11.35 -0.39,17 0.14,1.05 1.78,1.04 1.67,-0.04 -0.47,-4.63 0.99,-9.03 1.17,-13.63 0.07,-1.7 -0.56,-3.41 -1.07,-5 -1.09,-3.34 -0.32,-6.02 0.76,-9.21 0.32,-0.95 -1.25,-1.57 -1.65,-0.65z"/>
  <path class="fil0" d="M95.89 41.6c0.41,-4.38 -2.29,-8.21 -2.5,-12.53 -0.06,-1.12 -1.61,-1.03 -1.7,0.04 -0.37,4.37 2.15,8.22 2.4,12.53 0.07,1.19 1.69,1.09 1.8,-0.04z"/>
  <path class="fil0" d="M90.67 63.39c0.1,-5.02 2.19,-9.67 2.35,-14.67 0.14,-4.12 -1.21,-8.54 -3.04,-12.17 -0.44,-0.86 -1.8,-0.21 -1.52,0.69 1.37,4.25 2.63,8.34 2.55,12.86 -0.08,4.55 -2.23,8.73 -2.05,13.34 0.04,1.11 1.68,1.05 1.71,-0.04z"/>
  <path class="fil0" d="M88.95 80.88c0.13,1.11 1.63,1.06 1.72,-0.04 0.2,-2.26 -0.39,-4.56 -0.54,-6.81 -0.08,-1.12 -1.69,-1.07 -1.73,0.04 -0.07,2.25 0.29,4.58 0.55,6.81z"/>
  <path class="fil0" d="M81.32 77.64c-0.22,1.81 -1.26,3.23 -2.48,4.53 -0.66,0.7 0.24,1.85 1.07,1.32 1.88,-1.21 3.28,-3.36 3.17,-5.65 -0.05,-0.97 -1.63,-1.23 -1.76,-0.19z"/>
  <path class="fil0" d="M95.53 79.01c-0.48,1.6 0.28,3.55 1.97,4.06 0.83,0.25 1.5,-0.93 0.82,-1.49 -0.35,-0.29 -0.7,-0.51 -0.93,-0.91 -0.25,-0.42 -0.21,-1 -0.19,-1.47 0.06,-0.99 -1.4,-1.05 -1.66,-0.18z"/>
  <path class="fil0" d="M89.79 10.58c0.11,1.11 1.59,1.03 1.69,-0.04 0.11,-1.11 0.05,-2.24 -0.64,-3.17 -0.68,-0.91 -2,-0.09 -1.49,0.92 0.34,0.69 0.37,1.53 0.44,2.28z"/>
 </g>
</svg>
