<?xml version="1.0" encoding="UTF-8"?>
<svg xmlns="http://www.w3.org/2000/svg" xml:space="preserve" width="0.747323in" height="0.747346in" version="1.1" style="shape-rendering:geometricPrecision; text-rendering:geometricPrecision; image-rendering:optimizeQuality; fill-rule:evenodd; clip-rule:evenodd"
viewBox="0 0 266.81 266.82"
 xmlns:xlink="http://www.w3.org/1999/xlink"
 xmlns:xodm="http://www.corel.com/coreldraw/odm/2003">
 <defs>
  <style type="text/css">
   <![CDATA[
    .fil0 {fill:black;fill-rule:nonzero}
   ]]>
  </style>
 </defs>
 <g id="Layer_x0020_1">
  <metadata id="CorelCorpID_0Corel-Layer"/>
  <path class="fil0" d="M186.93 128.26l-0.01 0.29c-1.19,-1.11 -2.48,-2.14 -3.66,-3.12l-1.28 -1.05c1,-3.94 2.12,-7.6 4.2,-11.15 0.24,5 0.77,9.99 0.75,15.04zm-36.14 -58.96c15.98,0.8 32.08,0.35 48.09,0.36 7.61,0 15.21,-0.01 22.82,0.04 7.98,0.05 16.44,0.87 24.35,-0.27l0.2 -0.06c5.17,9.07 9.27,18.82 12.14,29.08 -2.7,2.16 -5.14,5.43 -6.62,8.95 -0.1,-0.79 -0.2,-1.58 -0.26,-2.37 -0.25,-3.85 0.61,-7.63 1.84,-11.25 0.48,-1.4 -1.82,-2.31 -2.43,-0.96 -2.23,5 -3.23,10.57 -2.49,15.94l-0.93 -0.79c-3.38,-2.81 -7.52,-4.95 -11.8,-6 -1.72,-0.42 -2.22,2 -0.65,2.6 3.39,1.27 6.55,2.99 9.46,5.18 1.37,1.03 2.43,2.19 3.4,3.42 -2.98,-1.39 -6.37,-1.75 -9.02,0 -1.18,0.78 -0.36,2.71 1.04,2.29 2.26,-0.7 4.84,-0.22 7.14,0.88 -0.47,0.41 -0.9,0.85 -1.27,1.26 -1.53,1.65 -2.79,3.59 -3.86,5.55 -0.75,1.37 -1.65,3.04 -1.66,4.66 -0,1.48 2.25,1.71 2.57,0.28 0.54,-2.36 2.26,-4.64 3.69,-6.53 0.49,-0.65 1.02,-1.27 1.58,-1.86 -0.7,3.65 -0.11,8.01 0.48,10.88 0.3,1.46 2.67,1.05 2.58,-0.42 -0.21,-3.4 -0.35,-6.74 0.27,-10.01 1.21,6.25 1.95,12.45 2.48,18.85 0.63,7.72 5.67,13.86 6.17,21.49l0.13 0.48 -0.12 0.56c-4.86,-1.88 -10.37,-0.19 -14.14,3.28l-0.1 -0.08c-3.9,-2.01 -9,0.82 -11.57,4.34 -1.5,-0.93 -3.2,-1.5 -4.96,-1.74 0.29,-1.26 0.58,-2.52 0.84,-3.8 1.41,-6.78 1.02,-13.76 0.44,-20.61 -0.53,-6.24 -1.18,-12.44 -2.76,-18.5 -1.72,-6.63 -4.18,-13.73 -4.01,-20.66l0.02 -0.05 0.06 -0.43c2.35,1.12 4.53,2.26 6.27,4.48 1.82,2.33 2.58,5.26 3,8.13 0.24,1.69 2.72,1.72 2.7,-0.07 -0.04,-6.09 -3.37,-12.14 -8.72,-14.84 5.85,-2.37 10.83,-4.48 17.37,-0.05 1.31,0.89 2.83,-1.21 1.63,-2.23 -5.9,-5 -12.31,-4.73 -18.43,-1.95 3.61,-4.33 8.04,-7.84 13.84,-9.04 1.58,-0.33 1.06,-2.67 -0.43,-2.7 -5.56,-0.08 -11.79,3.73 -15.89,8.69 0.92,-6.05 2.36,-11.62 6.81,-17.18 1.08,-1.33 -0.71,-3.11 -1.95,-1.86 -5.22,5.26 -7.67,11.37 -8.66,18.06 -2.26,-5.13 -6.13,-9.43 -11.49,-11.57 -1.6,-0.64 -2.92,1.52 -1.33,2.4 3.84,2.15 6.71,4.78 8.54,8.84 0.39,0.85 0.71,1.73 1.02,2.62 -0.78,-0.44 -1.58,-0.81 -2.36,-1.12 -4.38,-1.71 -9.88,-1.09 -13.89,1.26 -1.27,0.75 -0.31,3.02 1.08,2.4 3.33,-1.5 6.76,-1.8 10.32,-0.95 1.79,0.43 3.11,1.21 4.22,2.23 -3.28,-0.35 -6.65,1.02 -9.03,3.8 -1.12,1.32 0.67,2.99 1.93,1.84 2.36,-2.17 4.9,-2.66 7.56,-2.16 -4.24,2.4 -7.53,8.39 -9.08,12.1 -0.64,1.54 1.46,2.79 2.32,1.27 2.25,-4.02 5.26,-9.55 9.81,-11.48 -0.37,4.21 0.21,8.3 1.15,12.47 1.81,8.01 2.53,15.96 3.38,24.11 0.75,7.21 1.17,14.41 -0.07,21.6 -0.29,1.71 -0.65,3.4 -1.04,5.07 -3.91,0.7 -7.69,2.77 -10.16,5.98 -1.29,1.68 0.99,3.99 2.43,2.32 1.89,-2.19 4.28,-3.68 6.8,-4.41 -0.72,3 -1.41,6 -1.86,9.06 -3.29,0.09 -6.57,0.18 -9.8,0.2 -0.7,0 -1.4,0 -2.1,0 0.76,-14.8 -5.6,-32.01 -15.13,-43.11 -1.03,-1.2 -2.9,0.42 -2.1,1.71 3.14,5.08 6.3,9.82 8.62,15.39 3.53,8.47 4.03,17.11 5.03,26.01 -4.96,0 -9.94,-0.01 -14.92,-0.04 5.07,-8.16 3.24,-20.46 1.63,-29.12 -1.2,-6.49 -1.92,-12.87 -2.05,-19.45 -0.14,-6.67 0.57,-13.93 -1.48,-20.38 7.24,3.04 9.92,10.19 11.5,17.95 0.31,1.51 2.84,1.09 2.68,-0.44 -0.81,-7.78 -4.46,-18.28 -12.64,-20.5 1.64,-0.53 3.29,-1.01 5.11,-1.13 3.91,-0.26 7.13,1.43 9.65,4.3 1.05,1.19 2.95,-0.42 2.12,-1.72 -3.58,-5.61 -11.39,-7.59 -17.6,-5.31 2.76,-6.36 8.16,-11.25 15.25,-12.83 1.49,-0.34 1.09,-2.81 -0.42,-2.66 -5.98,0.61 -12.81,4.71 -16.39,10.31 0.56,-5.56 2.14,-10.53 6.97,-15.29 1.08,-1.07 -0.48,-3.07 -1.7,-2.09 -5.06,4.06 -8.42,9.9 -9.35,16.14 -4.5,-5.31 -11.71,-8.89 -17.91,-10.27 -1.76,-0.39 -2.32,2.1 -0.66,2.67 7.2,2.49 13.36,6.29 17.21,12.29 -6.14,-2.24 -14.54,-1.1 -19.99,-0.11 -1.54,0.29 -1.1,2.8 0.43,2.7 6.74,-0.45 12.59,-0.22 18.65,1.56 -6.58,1.07 -12.22,7.49 -16.5,11.94 -1.24,1.29 0.67,3.02 1.98,1.88 5.32,-4.63 9.9,-9.48 16.82,-10.88 -2.98,3.46 -4.51,7.65 -5.44,12.07 -1.73,-1.25 -3.54,-2.39 -5.41,-3.21 -1.2,-0.53 -2.64,1.06 -1.45,1.98 2.04,1.59 4.18,3.02 6.25,4.58 -0.13,0.89 -0.25,1.78 -0.37,2.67 -0.22,1.7 2.21,2.41 2.65,0.66l0.3 -1.2c1.98,1.75 3.77,3.7 5.69,5.49 -0.09,4.03 -0.17,8 0.44,12.07 0.86,5.89 1.94,11.74 2.36,17.69 0.47,6.68 -1.2,11.77 -3.74,17.61 -12.82,-0.08 -25.66,-0.08 -38.4,0.58 -1.98,0.11 -1.87,2.96 0.07,3.05 20.59,1.05 41.44,0.35 62.05,0.51 14.09,0.11 29.05,1.41 43.11,-0.35 -0.45,1.03 -0.9,2.07 -1.38,3.09 -9.77,-0.36 -19.76,-0.58 -29.49,0.11 -1.65,0.11 -1.55,2.41 0.06,2.53 9.27,0.65 18.77,0.48 28.1,0.16 -1.74,3.53 -3.63,6.96 -5.65,10.3l-0.11 -0.03c-6.18,-0.49 -12.9,-0.72 -19.07,0.06 -1.29,0.16 -1.79,2.29 -0.28,2.48 5.75,0.72 11.92,0.62 17.76,0.21 -23.12,36 -63.51,59.93 -109.25,59.93l-0.74 0c-34.67,-0.19 -67.17,-13.87 -91.55,-38.52 -6.24,-6.31 -11.75,-13.15 -16.5,-20.41 12.06,0.65 24.36,0 36.4,0.01 13.37,0.01 26.75,0.19 40.11,-0.26 1.65,-0.05 1.57,-2.49 -0.06,-2.54 -13.36,-0.46 -26.75,-0.26 -40.12,-0.26 -12.64,0.01 -25.56,-0.71 -38.2,0.11 -1.57,-2.54 -3.04,-5.13 -4.43,-7.78 13.5,0.7 27.26,0.29 40.72,-0.09 1.7,-0.04 1.61,-2.57 -0.06,-2.63 -13.91,-0.38 -28.14,-0.83 -42.05,-0.02 -1.01,-2.03 -1.96,-4.1 -2.86,-6.19 18.01,0.95 36.44,-0.15 54.45,-0.25 19.47,-0.11 38.97,0.17 58.43,-0.38 1.73,-0.05 1.64,-2.61 -0.06,-2.66 -10.75,-0.31 -21.52,-0.35 -32.28,-0.35l-0.13 -0.62c-2.81,-12.3 -6.66,-23.89 -6.51,-36.69 0.05,-3.99 0.56,-7.89 1.13,-11.73 2.45,-2.3 4.85,-4.61 7.45,-6.76 1.09,-0.9 -0.41,-2.69 -1.55,-1.91 -1.79,1.23 -3.62,2.67 -5.25,4.25 0.83,-5.74 1.42,-11.47 0.45,-17.43 6.02,2.55 7.62,12.12 9.32,17.65 0.43,1.42 2.77,1.12 2.61,-0.42 -0.59,-5.63 -2.92,-15.96 -8.68,-19.28 3.72,-0.64 7.27,0.32 10.96,2.59 1.25,0.77 2.64,-1.11 1.52,-2.07 -3.79,-3.22 -9.01,-4.56 -13.7,-3.36 5.44,-6.43 14.27,-8.53 22.74,-9.13 1.75,-0.13 1.66,-2.63 -0.07,-2.7 -8.13,-0.33 -18.15,2.06 -23.92,8.29 1.34,-5.29 4.15,-10.25 8.7,-13.45 1.38,-0.99 0.12,-3.01 -1.38,-2.23 -4.62,2.39 -9.11,8.64 -10.69,14.74 -1.19,-6.48 -4.29,-13.09 -8.91,-17.3 -1.27,-1.15 -2.92,0.65 -1.81,1.9 4.82,5.39 6.8,12.46 8.32,19.38 -2.59,-0.43 -5.59,0.06 -7.75,0.4 -4.22,0.66 -8.68,1.91 -12.18,4.43 -1.19,0.86 -0.4,3.13 1.12,2.49 6.28,-2.65 12.44,-3.79 19.03,-3.55 -7.9,7.03 -9.37,18 -8.02,28.31 0.22,1.66 2.58,1.65 2.63,-0.07 0.35,-10.1 0.42,-19.06 7.62,-26.47 2.15,12.67 -2.58,25.32 -3.39,37.97 -0.7,11.07 2.57,22.23 5.5,32.78 -6.3,0.01 -12.61,0.01 -18.91,-0.03l-1.33 -0.02c0.27,-1.93 0.2,-3.87 0.34,-5.89 0.3,-4.49 1.2,-8.86 2.19,-13.24 1.7,-7.54 5.59,-14.59 9.57,-21.14 0.72,-1.19 -1.1,-2.57 -1.99,-1.46 -4.74,5.94 -7.8,12.71 -10.12,19.91 -1.96,6.09 -4.71,14.88 -3.8,21.77 -2.5,-0.03 -5.01,-0.08 -7.52,-0.13l-0.02 -0.14c-0.16,-0.6 -0.47,-1.11 -0.87,-1.48 -2.99,-10.36 0.66,-20.17 0.04,-30.8 -0.62,-10.8 -3.03,-20.73 -0.46,-31.29l0.23 -0.07c3.53,6.23 4.41,12.55 4.87,19.8 0.1,1.68 2.5,1.59 2.58,-0.07 0.36,-7.3 -0.68,-14.38 -4.58,-20.45 2.65,0.5 5.05,1.33 7.28,3.19 3.09,2.58 4.1,6.35 5.75,9.83 0.61,1.27 2.52,0.51 2.5,-0.74 -0.13,-8.15 -7.82,-15.41 -15.86,-15.33 0.86,-2.09 1.55,-4.3 3.2,-5.87 1.2,-1.14 -0.62,-2.81 -1.82,-1.74 -1.05,0.93 -1.8,2.16 -2.45,3.43 0.12,-2.56 0.19,-5.13 0.54,-7.65 0.85,-6.11 3.24,-11.68 6.79,-16.69 0.86,-1.21 -1.14,-2.64 -2.09,-1.53 -5.25,6.12 -8.45,14.95 -9.01,23.51 -2.46,-7.19 -6.82,-12.93 -13.92,-17.43 -1.28,-0.81 -2.81,1.24 -1.58,2.14 3.94,2.9 7.05,6.42 9.65,10.55 1.78,2.84 2.45,6.11 3.52,9.17 -7.02,-2.36 -15.15,-1.14 -21.13,3.27 -1.4,1.03 -0.11,3.22 1.44,2.33 6.35,-3.67 12.37,-3.68 18.85,-2.23 -7.07,3.74 -10.25,12.27 -9.66,20.17 0.13,1.67 2.51,1.59 2.58,-0.06 0.38,-8.04 3.01,-13.93 9.49,-18.03 -3.3,9.62 -1.17,19.81 -0.16,29.83 1.16,11.62 -4.26,22.9 -1.16,34.24 -7.51,-0.18 -15.03,-0.36 -22.54,-0.35 -0.11,-0.49 -0.28,-0.98 -0.57,-1.74l-0.62 -0.83c-0.93,-2.9 -1.72,-5.85 -2.39,-8.82 1.29,-0.59 2.71,-0.93 4.03,-1.03 3.49,-0.27 6.03,2.73 7.73,5.42 -0.72,0.63 -1.33,1.35 -1.78,2.11 -0.71,1.21 1.12,2.61 2.02,1.48 2.08,-2.64 6.17,-4.2 9.14,-2.14 1.32,0.92 2.47,-1.06 1.56,-2.11 -2.21,-2.5 -5.66,-2.36 -8.53,-0.95 -1.89,-4.2 -5.43,-6.98 -10.22,-7.15 -1.56,-0.05 -3.16,0.33 -4.66,1.01 -1.78,-9.19 -2.54,-18.6 -3.1,-27.95 -0.83,-13.45 1.6,-26.92 8.55,-38.46 1.04,2.49 0.78,5.94 0.59,8.29 -0.13,1.54 2.2,1.66 2.59,0.29 0.64,-2.22 1.05,-6.32 0.05,-9.29 1.16,0.49 2.3,1.04 3.38,1.75 2.74,1.78 4.4,4.61 5.53,7.6 0.6,1.58 2.95,0.9 2.53,-0.76 -1.5,-5.92 -6.05,-10.04 -11.63,-11.86 1.19,-1.01 2.37,-2.08 3.45,-3.2 1.05,-1.1 -0.37,-2.83 -1.66,-2.04l-1.11 0.72c1.91,-6.25 4.57,-11.69 10.04,-16.29 1.15,-0.97 -0.44,-2.89 -1.65,-2.03 -4.86,3.42 -9.29,8.93 -11.32,14.95 -0.22,-0.56 -0.47,-1.1 -0.71,-1.63 -2.62,-5.57 -7.46,-9.79 -12.88,-12.56 5.17,-9.78 11.54,-18.82 18.93,-26.94 2.66,0.28 5.06,0.91 7.43,2.41 2.84,1.8 4.91,4.72 7.21,7.12 1.07,1.12 2.82,-0.39 2.06,-1.67 -0.41,-0.68 -0.83,-1.33 -1.28,-1.97 1.8,-0.49 3.61,-0.72 5.48,-0.1 1.44,0.46 2.19,-1.7 0.94,-2.42 -2.67,-1.53 -5.61,-0.87 -8.38,0.04 -2.91,-3.25 -6.53,-5.55 -10.81,-6.24 23.63,-24.44 56.73,-39.69 93.23,-39.69l0.73 0c34.56,0.19 65.92,13.95 89.09,36.17 -3.2,1.6 -5.42,4.94 -6.4,8.37 -5.78,0.08 -11.71,4.01 -12.03,10.19 -0.08,1.48 2.15,1.63 2.51,0.28 1.87,-7.02 11.24,-9.76 16.42,-4.61 1.05,1.04 2.89,-0.41 2.02,-1.64 -1.52,-2.14 -3.71,-3.41 -6.09,-3.94 1.36,-2.68 2.81,-4.97 5.53,-6.7 7.39,7.4 13.9,15.69 19.34,24.69 -6.06,-0.63 -12.33,-0.15 -18.41,-0.12 -8.34,0.04 -16.68,0.04 -25.02,0.05 -16.77,0.02 -33.62,-0.47 -50.37,0.37 -1.66,0.08 -1.57,2.46 0.07,2.55zm110.13 39.98c-2.06,-0.38 -4.53,0.15 -6.53,1.25 1.1,-3.27 2.56,-6.35 4.84,-8.94 0.64,2.53 1.2,5.1 1.69,7.69zm1.59 10.96c-2.31,-2.99 -5.37,-5.49 -8.58,-6.12 1.77,-1.84 5.11,-2.05 7.56,-1.59 0.42,2.54 0.75,5.11 1.02,7.71zm0.67 13.89c-0.04,6.35 -0.54,12.59 -1.46,18.69 -1.36,-4.58 -3.72,-8.93 -4.23,-13.91 -0.72,-7.29 -1.26,-14.08 -3.44,-21 1.76,0.99 3.4,2.06 4.98,3.64 1.52,1.51 2.89,3.3 3.97,5.21 0.12,2.44 0.19,4.89 0.17,7.37zm-5.49 36.56c-2.78,-0.89 -5.39,0.64 -7.62,2.41 -1.5,1.19 0.06,3.77 1.58,2.56 1.65,-1.31 3.15,-2.33 5.2,-2.29 -0.85,2.62 -1.78,5.21 -2.8,7.77 -8.98,-1.21 -18.32,-1.12 -27.57,-0.87 0.53,-3.15 1.25,-6.25 1.99,-9.34 3.08,0.38 6.01,1.98 8.13,4.97 0.83,1.18 3.03,0.39 2.43,-1.09 -0.57,-1.43 -1.36,-2.63 -2.26,-3.63 2.11,-1.91 4.25,-4.05 7.12,-4.04 -0.46,0.64 -0.87,1.29 -1.21,1.99 -0.72,1.48 1.35,2.6 2.22,1.23 3.26,-5.09 8.7,-7.38 14.57,-6.21 -0.54,2.2 -1.14,4.38 -1.79,6.54zm-249.29 -2.23c4.44,-2.17 9.05,-2.4 12.03,2.04 -0.39,0.68 -0.69,1.39 -0.88,2.12 -0.48,1.85 2.34,2.54 2.86,0.71l0.16 -0.46c0.66,2.52 1.41,5.02 2.24,7.47 -4.13,0.06 -8.23,0.2 -12.31,0.44 -1.57,-4.03 -2.96,-8.14 -4.12,-12.31zm-4.76 -35.76c0.08,-14.76 2.66,-28.95 7.32,-42.17 3.52,-0.1 6.95,0.31 10.39,1.16 1.81,0.44 4.58,1.08 6.69,2.24 -8.75,0.93 -17.02,9.31 -19.08,17.36 -0.37,1.46 1.95,2.46 2.52,0.99 3.29,-8.33 9.88,-12.66 17.9,-15.07 -7.76,10.72 -9.87,23.71 -10.59,36.76 -0.57,10.44 0.1,21.29 2.16,31.77 -3.45,-3.12 -9.4,-3.42 -13.49,-0.83 -2.58,-10.41 -3.89,-21.21 -3.83,-32.21zm13.67 -57.13c5.54,3.36 11.61,9.25 12.99,15.87 -1.47,-1 -3.25,-1.68 -4.71,-2.23 -4.21,-1.59 -8.96,-2.2 -13.5,-1.78 1.55,-4.06 3.29,-8.01 5.22,-11.86zm116.83 -75.56l-0.75 -0.01c-38.79,0 -73.84,16.74 -98.26,43.38l-0.65 0.72c-21.25,23.51 -34.28,54.57 -34.47,88.58 -0.09,17.38 3.12,34.27 9.34,49.96 0.01,0.45 0.18,0.89 0.49,1.25 6.53,15.98 16.21,30.69 28.72,43.34 25.06,25.33 58.48,39.4 94.12,39.59l0.75 0c35.47,0 68.87,-13.78 94.04,-38.8 25.18,-25.03 39.15,-58.37 39.35,-93.87 0.41,-73.56 -59.11,-133.74 -132.67,-134.15z"/>
  <path class="fil0" d="M52.79 208.27l-0.15 -0.17 -0.84 -0.4 -0.88 0.33 -7.21 6.68 -0.39 0.85 0.32 0.86 0.15 0.17 0.89 0.39 0.82 -0.32 7.21 -6.68c0.5,-0.45 0.53,-1.22 0.07,-1.7z"/>
  <path class="fil0" d="M63.54 218.44l-0.88 -0.29 -0.83 0.41 -3.1 3.58 1.24 -5.95 -0.39 -1.17 -0.18 -0.15c-0.51,-0.43 -1.27,-0.38 -1.71,0.12l-6.43 7.44c-0.43,0.5 -0.38,1.27 0.13,1.71l0.16 0.14 0.88 0.29 0.83 -0.41 3.09 -3.59 -1.24 5.96 0.39 1.16 0.18 0.15 0.79 0.29 0.09 -0.01 0.83 -0.42 6.43 -7.44c0.44,-0.5 0.38,-1.25 -0.13,-1.7l-0.17 -0.15z"/>
  <path class="fil0" d="M84.27 231.81l-2.4 -1.28c-0.89,-0.47 -1.88,-0.59 -2.87,-0.36 -1.14,0.25 -2.04,0.96 -2.61,2.03l-2.05 3.85c-0.54,1.01 -0.65,2.05 -0.33,3.09 0.32,1.04 0.99,1.85 2,2.39l2.5 1.33 0.57 0.14 1.07 -0.65 2.67 -5c0.31,-0.59 0.08,-1.33 -0.5,-1.64l-1.54 -0.82 -0.93 -0.09 -0.71 0.58 -0.1 0.2c-0.31,0.6 -0.09,1.33 0.5,1.64l0.27 0.15 -1.32 2.49 -1.24 -0.66 -0.73 -0.82 0.14 -1.09 2.05 -3.85 0.88 -0.7 1.03 0.13 2.41 1.27 0.92 0.1 0.72 -0.59 0.1 -0.19c0.31,-0.59 0.08,-1.32 -0.5,-1.63z"/>
  <path class="fil0" d="M92.83 239.97l-1.6 4.06 -0.75 0.78 -1.08 0.02 -0.78 -0.76 -0.01 -1.08 1.61 -4.06 0.74 -0.78 0.56 -0.12 0.53 0.11 0.77 0.75 0.01 1.07zm0.19 -4.28c-1.03,-0.41 -2.1,-0.39 -3.11,0.05 -1,0.43 -1.75,1.2 -2.15,2.23l-1.61 4.06c-0.4,1.01 -0.38,2.09 0.04,3.09 0.44,1.02 1.19,1.75 2.24,2.16 0.49,0.19 1,0.29 1.5,0.29 0.54,0 1.08,-0.11 1.6,-0.34 1.01,-0.44 1.75,-1.21 2.16,-2.22l1.61 -4.06c0.4,-1.02 0.39,-2.09 -0.05,-3.1 -0.44,-1.01 -1.2,-1.75 -2.22,-2.15z"/>
  <path class="fil0" d="M104.9 244.09l-1 3.69c-0.13,0.49 -0.41,0.8 -0.9,1.03l-1.17 0.16 -1.1 -0.3 1.88 -6.94 1.1 0.3 0.93 0.73c0.31,0.43 0.38,0.85 0.25,1.33zm-0.49 -4.61l-2.47 -0.67 -0.92 0.12 -0.57 0.73 -2.62 9.69 0.13 0.92 0.73 0.57 2.48 0.67 1.04 0.14c0.63,0 1.27,-0.15 1.91,-0.44 1.2,-0.55 2.01,-1.5 2.35,-2.74l1 -3.7c0.33,-1.24 0.11,-2.47 -0.64,-3.55 -0.64,-0.91 -1.44,-1.49 -2.4,-1.75z"/>
  <path class="fil0" d="M133.64 243.63l-0.21 -0.05c-0.65,-0.16 -1.31,0.21 -1.48,0.86l-1.35 5.08 -0.69 -2.41c-0.14,-0.5 -0.59,-0.85 -1.12,-0.88 -0.51,-0.04 -1,0.29 -1.18,0.78l-0.89 2.37 -0.92 -5.19c-0.13,-0.66 -0.75,-1.11 -1.4,-0.98l-0.22 0.03 -0.78 0.5 -0.2 0.91 1.78 9.88c0.1,0.55 0.57,0.97 1.13,0.99l0.22 0.01c0.51,0.04 1,-0.3 1.19,-0.78l1.04 -2.75 0.8 2.82c0.14,0.51 0.6,0.86 1.12,0.88l0.22 0.01 0.05 0c0.55,0 1.03,-0.37 1.17,-0.91l2.58 -9.7 -0.12 -0.91 -0.74 -0.57z"/>
  <path class="fil0" d="M144.96 253.04l-0.88 -0.29 -3.04 0.21 -0.19 -2.81 1.95 -0.14c0.67,-0.04 1.18,-0.62 1.14,-1.28l-0.02 -0.22 -0.41 -0.83 -0.89 -0.3 -1.95 0.13 -0.12 -1.71 3.04 -0.22 0.84 -0.42 0.28 -0.89 -0.02 -0.22c-0.04,-0.65 -0.63,-1.15 -1.29,-1.11l-4.46 0.31 -0.83 0.41 -0.29 0.89 0.69 10.01 0.41 0.83 0.79 0.3 0.09 -0.01 4.46 -0.31c0.66,-0.05 1.17,-0.63 1.13,-1.3l-0.01 -0.2 -0.42 -0.84z"/>
  <path class="fil0" d="M167.36 240.83l1.35 -0.41c0.64,-0.19 1,-0.86 0.81,-1.5l-0.06 -0.21 -0.58 -0.72 -0.93 -0.1 -5.22 1.58c-0.64,0.19 -1.01,0.87 -0.81,1.51l0.06 0.21 0.59 0.72 0.92 0.09 1.35 -0.41 2.46 8.15c0.16,0.52 0.64,0.86 1.16,0.86l0.35 -0.05 0.21 -0.06 0.72 -0.58 0.09 -0.92 -2.46 -8.15z"/>
  <path class="fil0" d="M179.82 238.86l-0.91 0.68 -1.17 0.51 -1.12 -2.59 1.17 -0.5 1.12 -0.18c0.25,0.05 0.58,0.19 0.87,0.87 0.29,0.68 0.17,1.01 0.04,1.22zm2.19 1.51c0.73,-1.06 0.81,-2.35 0.2,-3.77 -0.72,-1.69 -1.91,-2.25 -2.78,-2.41 -0.84,-0.16 -1.74,-0.05 -2.67,0.35l-2.48 1.07c-0.62,0.26 -0.9,0.98 -0.64,1.59l3.92 9.12c0.2,0.46 0.64,0.74 1.11,0.74l0.48 -0.1 0.2 -0.08 0.65 -0.66 -0.01 -0.93 -1.2 -2.8 1.07 -0.47 3.07 2.63c0.5,0.42 1.24,0.38 1.68,-0.1l0.14 -0.16 0.32 -0.89 -0.42 -0.85 -2.64 -2.26z"/>
  <path class="fil0" d="M192.04 228.14l-0.73 -0.57 -0.92 0.12 -0.19 0.11c-0.57,0.33 -0.78,1.07 -0.46,1.65l3.53 6.17 0.13 1.07 -0.66 0.86 -1.08 0.13 -0.86 -0.67 -3.51 -6.16c-0.33,-0.58 -1.07,-0.78 -1.64,-0.45l-0.19 0.1 -0.57 0.73 0.11 0.92 3.52 6.17c0.55,0.96 1.39,1.61 2.43,1.9l1.09 0.15c0.69,0 1.36,-0.19 1.99,-0.55 0.97,-0.55 1.61,-1.37 1.9,-2.44 0.29,-1.07 0.15,-2.13 -0.39,-3.07l-3.52 -6.17z"/>
  <path class="fil0" d="M203.84 225.78l-0.74 0.05c-0.65,0.11 -1.21,0.2 -1.69,0.28l-1.18 0.21 -0.35 0.04 -0.77 -0.37 -0.17 -0.59 0.46 -0.68c0.13,-0.1 0.6,-0.37 2.08,-0.83 0.52,-0.16 0.87,-0.66 0.85,-1.21l-0.01 -0.22 -0.42 -0.86 -0.91 -0.3c-1.09,0.12 -2.14,0.54 -3.14,1.27 -0.92,0.67 -1.45,1.58 -1.52,2.61 -0.06,0.86 0.16,1.65 0.67,2.34 0.64,0.88 1.55,1.39 2.62,1.45l0.15 0 0.75 -0.07 0.67 -0.1 1.8 -0.3 0.74 -0.09 0.18 -0.01 0.21 0.01 0.5 0.31 0.15 0.6 -0.35 0.59c-0.05,0.03 -0.51,0.33 -2.77,0.82 -0.56,0.12 -0.96,0.61 -0.96,1.18l0 0.22 0.37 0.85 0.85 0.36 0 0c0.68,0 1.4,-0.13 2.12,-0.35 0.74,-0.24 1.39,-0.56 1.93,-0.96 0.86,-0.61 1.35,-1.48 1.43,-2.51 0.06,-0.89 -0.15,-1.67 -0.64,-2.35 -0.68,-0.93 -1.69,-1.42 -2.92,-1.42z"/>
  <path class="fil0" d="M209.71 212.71l-4.03 3.68 -0.4 0.84 0.32 0.87 0.15 0.16c0.46,0.49 1.22,0.52 1.71,0.07l1.03 -0.95 5.74 6.28 0.85 0.39 0.04 0 0.82 -0.32 0.16 -0.15c0.49,-0.45 0.52,-1.21 0.07,-1.7l-5.74 -6.28 1.04 -0.95 0.4 -0.84 -0.32 -0.87 -0.15 -0.17c-0.45,-0.49 -1.22,-0.52 -1.7,-0.07z"/>
  <path class="fil0" d="M69.57 58.08l0.8 0.46 0.15 0.01 0.75 -0.25 0.24 -0.19c0.53,-0.41 0.62,-1.17 0.21,-1.69l-4.03 -5.23 3.96 -3.06 0.47 -0.81 -0.25 -0.89 -0.2 -0.26c-0.41,-0.53 -1.17,-0.62 -1.69,-0.21l-3.96 3.06 -2.22 -2.87 3.96 -3.06c0.53,-0.41 0.63,-1.16 0.22,-1.7l-0.19 -0.25 -0.81 -0.46 -0.89 0.24 -5.17 3.99 -0.46 0.81 0.25 0.89 8.87 11.49z"/>
  <path class="fil0" d="M88.21 45.73l0.68 0.63 0.42 0.08 0.51 -0.12 5.93 -2.72c0.61,-0.28 0.87,-1 0.59,-1.61l-0.12 -0.27 -0.68 -0.63 -0.92 0.04 -4.55 2.09 -5.43 -11.79 -0.68 -0.63 -0.92 0.03 -0.28 0.13c-0.61,0.28 -0.87,1 -0.59,1.61l6.06 13.17z"/>
  <path class="fil0" d="M109.27 25.14c0.4,-0.62 0.93,-0.97 1.66,-1.13l0.58 -0.06c0.49,0 0.94,0.14 1.39,0.44 0.61,0.41 0.97,0.93 1.12,1.66l1.28 6.24c0.15,0.73 0.02,1.36 -0.38,1.98 -0.4,0.61 -0.93,0.97 -1.66,1.12 -0.72,0.14 -1.36,0.03 -1.97,-0.38 -0.61,-0.4 -0.97,-0.93 -1.13,-1.66l-1.28 -6.24c-0.15,-0.74 -0.03,-1.36 0.39,-1.97zm-1.78 8.76c0.3,1.44 1.07,2.58 2.29,3.4 0.9,0.58 1.87,0.88 2.89,0.88l1.14 -0.12c1.45,-0.29 2.59,-1.06 3.39,-2.28 0.81,-1.24 1.08,-2.59 0.78,-4.02l-1.28 -6.25c-0.29,-1.44 -1.06,-2.57 -2.3,-3.38 -1.22,-0.81 -2.59,-1.08 -4.03,-0.78 -1.45,0.3 -2.59,1.08 -3.4,2.31 -0.81,1.22 -1.07,2.58 -0.76,4.02l1.27 6.25z"/>
  <path class="fil0" d="M133.51 21.71l2.42 0.05c0.79,0.01 1.43,0.2 1.9,0.54 0.38,0.27 0.88,0.79 0.85,2.13 -0.03,1.36 -0.56,1.85 -0.94,2.11 -0.47,0.3 -1.07,0.44 -1.8,0.44l-2.55 -0.06 0.12 -5.22zm-1.85 14.14l0.31 0.01c0.66,-0.01 1.23,-0.51 1.24,-1.19l0.12 -5 2.61 0.06 2.64 5.66c0.2,0.44 0.64,0.7 1.1,0.7l0.46 -0.1 0.29 -0.11 0.66 -0.68 -0.03 -0.95 -2.37 -5.1c1.73,-0.81 2.69,-2.42 2.74,-4.65 0.06,-2.43 -1.05,-3.75 -1.99,-4.43 -0.93,-0.67 -2.09,-1.03 -3.45,-1.06l-3.94 -0.1 -0.86 0.33 -0.38 0.85 -0.33 14.5 0.33 0.87 0.84 0.37z"/>
  <path class="fil0" d="M157.53 38.91l0.31 0.07 0.29 0.04c0.55,0 1.03,-0.37 1.18,-0.91l3.55 -13.91c0.17,-0.65 -0.23,-1.31 -0.87,-1.46l-0.31 -0.08 -0.92 0.12 -0.56 0.74 -3.55 13.9 0.14 0.92 0.74 0.56z"/>
  <path class="fil0" d="M182.55 33.04l1.98 1.03c0.58,0.3 1.03,0.83 1.35,1.6 0.37,0.88 0.34,1.66 -0.07,2.47l-2.57 4.95c-0.42,0.8 -1.05,1.27 -1.98,1.47l-0.87 0.11c-0.45,0 -0.86,-0.1 -1.23,-0.29l-1.97 -1.03 5.35 -10.3zm-7.95 12.02l3.32 1.72c0.77,0.4 1.61,0.6 2.51,0.6 0.46,0 0.93,-0.04 1.42,-0.15 1.74,-0.37 3.03,-1.34 3.83,-2.89l2.57 -4.95c0.8,-1.54 0.85,-3.16 0.16,-4.79 -0.58,-1.37 -1.46,-2.37 -2.62,-2.96l-3.33 -1.73 -0.92 -0.07 -0.72 0.58 -6.74 13.01c-0.3,0.6 -0.08,1.33 0.52,1.64z"/>
  <path class="fil0" d="M203.95 50.62l-1.85 4.56 -2.37 -2.03 4.21 -2.53zm-11.07 5.31c0.35,0.54 1.08,0.72 1.64,0.38l2.75 -1.65 3.75 3.2 -1.19 2.96c-0.24,0.61 0.03,1.3 0.62,1.56l0.29 0.12 0.5 0.11 0.44 -0.09 0.67 -0.67 5.64 -13.97c0.19,-0.49 0.06,-1.03 -0.34,-1.37l-0.26 -0.22 -1.41 -0.12 -12.89 7.8 -0.55 0.77 0.16 0.93 0.17 0.26z"/>
  <path class="fil0" d="M109.88 121.29c0.37,-0.99 0.6,-2 1.19,-2.9 0.67,-1.02 1.87,-2.04 2.04,-3.29 0.23,-1.73 -1.01,-2.93 -2.74,-2.61 -1.69,0.33 -2.8,2.46 -3.01,4.04 -0.22,1.6 -0.57,3.26 -0.06,4.82 0.44,1.35 2.14,1.13 2.58,-0.06z"/>
  <path class="fil0" d="M111.71 110.98c2.22,-5.38 7.05,-5.62 11.29,-2.28 5.2,4.1 1.93,9.88 -1.29,13.84 -4.12,5.05 -8.99,9 -10.16,15.7 -0.75,4.27 -0.11,9.92 4.87,10.96 2.1,0.44 3.86,-0.79 5.16,-2.28 2.83,-3.24 4.25,-7.25 7.36,-10.43 1.13,-1.15 -0.47,-3.22 -1.8,-2.22 -3.15,2.36 -5.25,5.02 -7.19,8.43 -2.02,3.55 -5.02,3.71 -5.55,-0.51 -0.27,-2.16 0.21,-4.38 0.76,-6.46 1.92,-7.4 10.66,-11.62 13.26,-19.03 3.77,-10.71 -14.77,-18.65 -19.07,-6.67 -0.49,1.35 1.81,2.26 2.36,0.92z"/>
  <path class="fil0" d="M109.79 137.52c1.21,-6.77 6.75,-12.08 10.41,-17.57 0.94,-1.42 3.31,-5.02 1.54,-6.7 -2.4,-2.3 -5.62,2.48 -7.66,2.8 -1.4,0.23 -0.97,2.44 0.38,2.41 1.18,-0.04 2.13,0 3.01,-0.93 3.12,-3.33 -0.6,2.73 -1.07,3.34 -3.46,4.54 -6.78,8.86 -8.75,14.27 -3.06,8.39 0.02,19.75 8.76,23.17 1.32,0.52 2.21,-1.45 1.27,-2.32 -5.82,-5.38 -9.41,-10 -7.9,-18.48z"/>
  <path class="fil0" d="M144.57 157.15c-1.3,1.13 -2.25,2.29 -2.94,3.68 -0.97,-1.21 -1.81,-2.05 -3.83,-2.16 -1.3,-0.08 -2.39,0.82 -3.28,1.85 -3.15,-3.73 -9.29,-3.3 -13.87,-3.75 -1.27,-0.13 -1.57,1.75 -0.57,2.31 4.23,2.32 10.27,-0.07 13.08,4.73 0.58,0.99 1.95,0.82 2.51,-0.06 1.77,-2.79 3.73,-1.24 5.47,0.66 0.67,0.74 2.02,0.3 2.22,-0.64 0.46,-2.13 1.49,-3.42 2.98,-4.93 1.14,-1.14 -0.61,-2.72 -1.78,-1.69z"/>
  <path class="fil0" d="M148 155.32c-1.23,0.8 -0.37,2.73 1.06,2.34 7.33,-2.06 13.7,-1.75 20.34,2.08 1.58,0.91 2.89,-1.19 1.79,-2.43 -4.76,-5.38 -17.41,-5.76 -23.18,-1.98z"/>
  <path class="fil0" d="M130.57 131.81c-1.03,0.94 0.12,2.77 1.41,2.3 4.74,-1.73 8.42,-3.46 13.63,-2.56 4.86,0.84 8.95,4.18 12.48,7.39 5.37,4.91 8.89,11.12 13.2,16.88 0.94,1.27 2.92,0.12 2.12,-1.31 -7.17,-12.8 -26.37,-37.78 -42.84,-22.7z"/>
  <path class="fil0" d="M115.01 108.15l-0.47 0.21c-0.94,0.49 -0.83,1.96 0.06,2.42l0.12 0.07c0.86,0.38 1.9,0.05 2.14,-0.93 0.25,-0.99 -0.78,-2.24 -1.85,-1.77z"/>
  <path class="fil0" d="M72.29 94.97c-3.74,0.99 -6.99,4.45 -8.62,7.85 -0.6,1.23 1.13,2.71 2.04,1.5 1.93,-2.64 4.05,-5.83 7.31,-6.94 1.55,-0.52 0.85,-2.84 -0.73,-2.41z"/>
  <path class="fil0" d="M54.09 77.31c-4.58,1.1 -9.06,3.36 -12.36,6.76 -1.04,1.08 0.37,2.78 1.64,2.01 3.74,-2.26 7.45,-4.5 11.51,-6.16 1.61,-0.66 0.94,-3.03 -0.79,-2.61z"/>
  <path class="fil0" d="M144.67 207.39l-1.26 -0.04c0.22,-6.89 0.31,-13.84 0.3,-20.76l0.37 -0.4c0.33,-0.42 0.54,-0.94 0.52,-1.5 -0.01,-0.56 -0.23,-1.05 -0.55,-1.43l-0.37 -0.37c-0.04,-5.09 -0.12,-10.18 -0.26,-15.23 -0.05,-1.74 -2.63,-1.66 -2.68,0.06 -0.14,5.05 -0.22,10.13 -0.26,15.21 -0.4,0.3 -0.69,0.71 -0.78,1.23 -0.07,0.46 -0.05,0.82 0.03,1.26 0.09,0.49 0.37,0.85 0.72,1.11 -0.02,6.91 0.07,13.83 0.29,20.71 -1.63,-0.06 -3.27,-0.11 -4.91,-0.13 0.23,-6.87 0.34,-13.77 0.31,-20.68l0.35 -0.42 0.06 -0.1 0.1 -0.18 0.19 -1.05 -0.16 -0.85 -0.11 -0.19 -0.15 -0.29 -0.31 -0.4c-0.05,-5.11 -0.15,-10.22 -0.33,-15.29 -0.06,-1.67 -2.51,-1.58 -2.57,0.06 -0.18,5.05 -0.29,10.15 -0.33,15.24l-0.03 0.03c-0.5,0.44 -0.82,1.05 -0.72,1.75l0.01 0.05 0.12 0.53 0.58 1.08c-0.03,6.93 0.07,13.85 0.3,20.74 -1.42,0.04 -2.83,0.12 -4.2,0.29l-0.98 0.68c-19.07,0.13 -38.12,0.37 -57.15,0.49 -1.82,0.02 -1.75,2.81 0.06,2.82 44.34,0.27 88.88,1.21 133.2,-0.08 1.72,-0.05 1.63,-2.6 -0.06,-2.65 -19.39,-0.57 -38.83,-0.7 -58.28,-0.66 -0.19,-0.35 -0.54,-0.61 -1.06,-0.63z"/>
  <path class="fil0" d="M156.17 216.29c-23.32,-0.15 -46.94,-1.16 -70.23,0.04 -1.62,0.07 -1.52,2.39 0.06,2.48 23.29,1.19 46.91,0.19 70.23,0.03 1.65,-0.01 1.58,-2.53 -0.06,-2.55z"/>
  <path class="fil0" d="M178.94 226.48l0.06 -0.01c0.48,-0.01 0.97,-0.01 1.45,-0.03 1.7,-0.03 1.62,-2.59 -0.06,-2.62 -0.48,-0.01 -0.97,-0.02 -1.45,-0.03l-0.07 -0.01c-19.42,-0.24 -39.01,-0.67 -58.43,0.03 -1.71,0.06 -1.62,2.58 0.06,2.64 19.41,0.7 39.01,0.27 58.43,0.03z"/>
  <path class="fil0" d="M151.63 231.97c-9.23,-0.26 -18.64,-0.66 -27.85,0.08 -1.64,0.13 -1.53,2.38 0.05,2.51 9.21,0.74 18.63,0.35 27.85,0.08 1.73,-0.06 1.65,-2.62 -0.06,-2.67z"/>
  <path class="fil0" d="M154.35 200.22c-1.69,0.05 -1.61,2.54 0.06,2.6 18.55,0.57 37.16,0.05 55.71,-0.04 0.82,0.01 1.2,-0.62 1.19,-1.25 -0.01,-0.63 -0.44,-1.27 -1.25,-1.26 -18.55,-0.09 -37.17,-0.61 -55.7,-0.04z"/>
  <path class="fil0" d="M150.98 191.75c6.63,-1.22 14.08,-0.36 20.81,-0.34 7.03,0.01 14.05,0.08 21.07,-0.1 1.67,-0.04 1.59,-2.53 -0.06,-2.58 -6.24,-0.16 -12.49,-0.12 -18.73,-0.11 -7.49,0.02 -15.8,1.01 -23.19,-0.36 -2.86,-0.53 -2.89,4.05 0.09,3.5z"/>
  <path class="fil0" d="M126.87 195.28c1.73,-0.15 1.62,-2.49 -0.07,-2.64 -7.9,-0.7 -16,-0.19 -23.93,-0.15 -8.39,0.05 -17.56,1.02 -25.85,-0.29 -2.85,-0.44 -2.78,3.95 -0.39,3.58 7.72,-1.21 16.1,-0.36 23.91,-0.35 8.72,0.02 17.64,0.63 26.33,-0.14z"/>
  <path class="fil0" d="M109.85 227.78c-5.39,-0.2 -11.31,-0.81 -16.64,0.03 -1.28,0.2 -1.82,2.25 -0.28,2.49 5.47,0.86 11.46,0.27 16.99,0.06 1.67,-0.07 1.58,-2.51 -0.07,-2.58z"/>
  <path class="fil0" d="M197.71 218.52c1.63,-0.03 1.55,-2.49 -0.06,-2.51 -8.14,-0.14 -16.4,-0.52 -24.52,0 -1.64,0.1 -1.55,2.41 0.05,2.51 8.12,0.52 16.39,0.15 24.53,0z"/>
  <path class="fil0" d="M131.01 109.51c-1.45,0.34 -0.94,2.38 0.4,2.46 11.17,0.6 21.61,0.88 32.14,5.32 1.72,0.73 3.15,-1.82 1.41,-2.56 -10.06,-4.3 -23.01,-7.78 -33.96,-5.22z"/>
  <path class="fil0" d="M157.71 64.05c2.27,-1.9 4.64,-3.54 7.66,-3.8 2.75,-0.24 5.51,1.01 8.06,1.81 1.48,0.46 2.27,-1.75 0.97,-2.47 -0.49,-0.28 -1,-0.53 -1.49,-0.75 3.13,-2.58 6.02,-4.79 10.61,-4.06 1.7,0.28 2.3,-2.06 0.65,-2.58 -5.4,-1.76 -11.01,1.2 -14.24,5.59 -5.12,-1.3 -10.05,0.13 -14.03,4.53 -1.12,1.23 0.6,2.75 1.81,1.74z"/>
  <path class="fil0" d="M123.68 76.76c-10.09,-0.51 -20.22,-0.4 -30.33,-0.4 -10.79,-0.01 -21.9,-0.77 -32.64,0.27 -1.95,0.18 -1.81,2.78 0.06,2.96 9.99,0.97 20.3,0.28 30.33,0.28 10.88,-0 21.77,0.14 32.64,-0.4 1.76,-0.1 1.66,-2.62 -0.07,-2.71z"/>
  <path class="fil0" d="M77.32 58.4c3.5,0.24 6.72,1.44 9.09,4.06 2.27,2.5 2.94,5.99 3.74,9.16 0.38,1.5 2.53,1.01 2.57,-0.41 0.06,-2.3 -0.3,-4.42 -1.02,-6.31 3.59,-1.36 7.18,-0.54 9.42,2.27l0.52 0.73c0.4,0.63 0.76,1.33 1.03,2.11 0.57,1.62 2.85,0.88 2.52,-0.76 -0.11,-0.53 -0.26,-1.03 -0.43,-1.51 2,-0.31 3.91,-0.58 6.04,-0.03 3.27,0.85 5.12,3.83 6.56,6.63 0.68,1.33 2.74,0.32 2.33,-1.05 -2.04,-6.92 -9.74,-11.1 -16.48,-8.35 -2.95,-3.77 -8.32,-5.02 -12.76,-2.51 -2.68,-4.23 -7.48,-6.77 -13.2,-6.61 -1.68,0.05 -1.56,2.46 0.06,2.57z"/>
  <path class="fil0" d="M106.25 52.03c0.46,0.33 1.09,0.54 1.61,0.16l0.22 -0.15c0.95,-0.69 1.21,-2.43 -0.07,-2.99l-0.48 -0.2 -0.78 0.01 -0.08 0.06c-0.57,0.25 -1.02,0.59 -1.18,1.23 -0.13,0.54 0.01,1.32 0.49,1.68l0.28 0.21z"/>
  <path class="fil0" d="M130.84 55.98l0.14 0.1 0.12 0.08 -0.04 -0.03 0.56 0.23c0.99,0.31 2.06,-0.26 2.55,-1.12l0.31 -0.77c0.45,-1.49 -0.87,-2.99 -2.37,-2.94 -1.56,0.04 -2.63,1.58 -2.22,3.06 0.15,0.54 0.47,1.07 0.93,1.4z"/>
  <path class="fil0" d="M147.65 44.28l-0.08 0.05 0.51 -0.56c0.3,-0.47 0.17,-1.03 -0.05,-1.49 -0.27,-0.56 -1.05,-0.77 -1.6,-0.6l-0.1 0.03c-0.8,0.25 -1.05,0.99 -0.86,1.65 -0.01,1 1.23,1.81 2.18,0.92z"/>
  <path class="fil0" d="M161.61 44.57l-1.05 0.29 -0.12 0.03c-1.33,0.49 -1.21,2.16 0.02,2.65l0.79 0.28c0.9,0.11 1.78,-0.26 2.01,-1.2 0.24,-0.97 -0.56,-2.19 -1.65,-2.06z"/>
  <path class="fil0" d="M197.2 31.07c0.91,-0.04 1.72,-0.67 1.7,-1.63 -0.02,-1.05 -1.14,-1.78 -2.11,-1.42 -0.56,0.21 -0.86,0.65 -0.9,1.11 -0.28,0.83 0.24,1.98 1.31,1.94z"/>
  <path class="fil0" d="M172.24 18.02l0.38 0.1c0.89,0.2 1.77,-0.47 1.75,-1.39 -0.03,-0.96 -0.94,-1.51 -1.81,-1.31l-0.38 0.1c-1.26,0.48 -1.13,2.05 0.06,2.5z"/>
  <path class="fil0" d="M119.7 12.8c1.67,0 1.6,-2.59 -0.06,-2.59 -1.67,0 -1.6,2.59 0.06,2.59z"/>
  <path class="fil0" d="M93.51 24.19c1.25,0 2.26,-1.12 2.23,-2.35 -0.02,-1.26 -1.09,-2.22 -2.33,-2.22 -1.25,0 -2.26,1.11 -2.23,2.33 0.03,1.26 1.1,2.23 2.34,2.23z"/>
  <path class="fil0" d="M73.29 29.18l0.09 -0.74c0.14,-1.71 -2.81,-1.69 -2.68,0.07l0.11 0.74c0.42,1.26 2.08,1.13 2.47,-0.06z"/>
  <path class="fil0" d="M149.94 18.81l0.35 -0.2 0.16 -0.17 0.1 -0.13 0.19 -0.86 0 -0.01 -0.1 -0.39 -0.08 -0.16 -0.16 -0.21 -0.21 -0.19 -0.13 -0.08 -0.27 -0.16 -0.27 -0.1c-2.28,-0.83 -2.34,3.7 0.07,2.82l0.27 -0.1 0.1 -0.05z"/>
  <path class="fil0" d="M208.1 35.07c1.75,0 1.67,-2.71 -0.06,-2.71 -1.75,0 -1.68,2.71 0.06,2.71z"/>
  <path class="fil0" d="M51.03 37.68c-1.66,0 -1.59,2.57 0.05,2.57 1.66,0 1.59,-2.57 -0.05,-2.57z"/>
 </g>
</svg>
