<?xml version="1.0" encoding="UTF-8"?>
<svg xmlns="http://www.w3.org/2000/svg" xml:space="preserve" width="0.747335in" height="0.747319in" version="1.1" style="shape-rendering:geometricPrecision; text-rendering:geometricPrecision; image-rendering:optimizeQuality; fill-rule:evenodd; clip-rule:evenodd"
viewBox="0 0 84.32 84.32"
 xmlns:xlink="http://www.w3.org/1999/xlink"
 xmlns:xodm="http://www.corel.com/coreldraw/odm/2003">
 <defs>
  <style type="text/css">
   <![CDATA[
    .fil0 {fill:black;fill-rule:nonzero}
   ]]>
  </style>
 </defs>
 <g id="Layer_x0020_1">
  <metadata id="CorelCorpID_0Corel-Layer"/>
  <path class="fil0" d="M77.82 43.97c1.53,0.74 3.39,1.97 5.19,1.9 -1.88,20.88 -19.48,37.31 -40.84,37.31 -20.9,0 -38.2,-15.72 -40.7,-35.95 1.31,-0.67 2.71,-1.18 4.15,-1.48 0.45,-0.09 0.33,-0.85 -0.13,-0.8 -1.36,0.14 -2.96,0.55 -4.13,1.35 -0.14,-1.36 -0.21,-2.73 -0.21,-4.12 0,-0.98 0.04,-1.95 0.11,-2.91 1.5,0.45 2.94,1.08 4.55,0.77 0.45,-0.09 0.33,-0.85 -0.13,-0.8 -1.52,0.16 -2.89,-0.59 -4.35,-0.86 0.02,-0.22 0.04,-0.43 0.06,-0.65 1.82,0.3 3.81,-0.34 5.41,-1.14 0.44,-0.22 0.11,-0.92 -0.35,-0.77 -1.66,0.56 -3.23,0.86 -4.94,0.93 1.02,-7.64 4.15,-14.63 8.78,-20.34 2.68,3.14 7.96,4.41 11.52,2.14 0.45,-0.29 0.13,-0.99 -0.38,-0.85 -3.82,1.03 -7.45,0.43 -10.4,-2.19 7.53,-8.77 18.69,-14.34 31.13,-14.34 12.17,0 23.12,5.33 30.64,13.78 -0.81,1.97 -3.64,2.14 -5.41,1.5 -1.32,-0.48 -3.2,-1.49 -4.4,-0.3 -0.34,0.33 0.11,0.81 0.5,0.61 1.28,-0.65 2.8,0.67 3.96,1.08 0.97,0.33 2.01,0.36 3.02,0.24 1.35,-0.15 2.85,-0.83 3.23,-2.08 0.56,0.67 1.1,1.37 1.61,2.07 -1.31,1.4 -3.25,1.37 -4.93,2.09 -0.94,0.4 -1.62,1.14 -2.61,1.46 -0.84,0.27 -1.88,0.18 -2.75,0.12 -2.55,-0.17 -6.49,-0.75 -8.25,1.64 -0.33,0.45 0.22,1.02 0.64,0.61 2.72,-2.71 7.01,-0.32 10.31,-0.93 0.73,-0.13 1.53,-0.36 2.07,-0.9 1,-1 1.86,-1.22 3.19,-1.5 1.1,-0.24 2.41,-0.66 3.03,-1.63 0.66,0.96 1.27,1.95 1.85,2.96 -0.86,0.91 -1.63,1.47 -2.97,0.9 -0.56,-0.24 -1.25,-0.35 -1.81,-0.06 -0.35,0.17 -0.62,0.34 -0.85,0.67 -0.7,0.99 -1.81,1.25 -2.94,1.31 -1.45,0.07 -2.66,-0.64 -4.15,-0.37 -0.47,0.08 -0.32,0.81 0.13,0.8 1.8,-0.03 3.34,0.96 5.17,0.73 0.65,-0.08 1.23,-0.38 1.79,-0.69 0.48,-0.26 1.19,-1.61 1.76,-1.38 0.88,0.35 1.66,1.17 2.7,0.78 0.89,-0.33 1.42,-0.83 1.8,-1.52 1.58,3.02 2.81,6.25 3.6,9.65 -0.6,0.24 -1.2,0.46 -1.86,0.58 -0.39,0.07 -0.38,0.74 0.02,0.79 0.7,0.1 1.44,-0.02 2.06,-0.36 0.32,1.53 0.55,3.09 0.69,4.68 -0.52,0.05 -1.04,0.09 -1.56,0.04 -0.46,-0.04 -0.53,0.71 -0.09,0.79 0.54,0.11 1.15,0.15 1.72,0.07 0.06,0.92 0.09,1.84 0.09,2.77 0,0.88 -0.03,1.76 -0.09,2.63 -1.73,-0.31 -3.24,-1.26 -4.98,-1.56 -0.43,-0.08 -0.72,0.53 -0.29,0.74zm-35.66 -43.97c-23.25,0 -42.16,18.91 -42.16,42.16 0,23.25 18.91,42.16 42.16,42.16 23.25,0 42.16,-18.91 42.16,-42.16 0,-23.25 -18.91,-42.16 -42.16,-42.16z"/>
  <path class="fil0" d="M7.72 49.8l0.21 -0.08 0.1 -0.21 0 -0.07c0.01,-0.17 -0.12,-0.31 -0.29,-0.32l-1.94 -0.1 0.95 -0.5 0.16 -0.32 -0.26 -0.25 -1.06 -0.16 1.8 -0.74c0.16,-0.06 0.23,-0.24 0.17,-0.4l-0.03 -0.06 -0.16 -0.17 -0.23 -0 -2.94 1.2 -0.19 0.33 0.01 0.07 0.26 0.25 1.15 0.17 -1.03 0.54 -0.16 0.32 0.01 0.07c0.02,0.14 0.14,0.25 0.29,0.25l3.17 0.16 0.02 0z"/>
  <path class="fil0" d="M8.46 51.12l-0.02 -0.07 -0.14 -0.19 -0.23 -0.03 -3 0.79 -0.19 0.14 -0.03 0.23 0.02 0.07 0.3 0.23 0.08 -0.01 3 -0.79c0.16,-0.04 0.26,-0.21 0.22,-0.37z"/>
  <path class="fil0" d="M7.22 56.11c0.27,-0.1 0.6,-0.34 0.69,-0.93 0.02,-0.21 0.04,-0.38 0.06,-0.54l0.04 -0.38c0.03,-0.26 0.14,-0.34 0.25,-0.37l0.25 0c0.06,0.02 0.15,0.07 0.21,0.24 0.02,0.07 0.06,0.25 0.07,0.73l0.23 0.29 0.07 0.01 0.24 -0.04 0.13 -0.2c0.06,-0.32 0.02,-0.67 -0.11,-1.03 -0.11,-0.32 -0.33,-0.54 -0.61,-0.65 -0.23,-0.09 -0.48,-0.09 -0.72,-0 -0.3,0.11 -0.52,0.32 -0.63,0.62l-0.01 0.04 -0.05 0.23 -0.03 0.21 -0.07 0.57 -0.04 0.24 -0.04 0.13 -0.18 0.16 -0.25 -0.01 -0.19 -0.2c-0.02,-0.04 -0.06,-0.23 -0.01,-0.94 0.01,-0.15 -0.08,-0.28 -0.22,-0.32l-0.07 -0.02 -0.23 0.03 -0.15 0.18c-0.06,0.2 -0.08,0.42 -0.08,0.65 0.01,0.24 0.05,0.46 0.12,0.65 0.11,0.29 0.31,0.5 0.59,0.61l0.38 0.07 0.34 -0.06z"/>
  <path class="fil0" d="M8.32 58.5l-0.26 -0.06c-0.16,-0.08 -0.26,-0.17 -0.31,-0.29l-0.19 -0.4 2.2 -1.03 0.18 0.39c0.06,0.12 0.06,0.26 0.02,0.42 -0.05,0.18 -0.15,0.31 -0.31,0.38l-1.09 0.51 -0.24 0.06zm1.62 0.05c0.35,-0.16 0.59,-0.45 0.68,-0.83 0.08,-0.32 0.06,-0.62 -0.06,-0.89l-0.34 -0.73 -0.17 -0.16 -0.23 0.01 -2.87 1.35c-0.15,0.07 -0.22,0.25 -0.15,0.41l0.34 0.74c0.12,0.26 0.34,0.47 0.64,0.62 0.18,0.08 0.37,0.13 0.55,0.13 0.18,0 0.36,-0.04 0.53,-0.12l1.09 -0.51z"/>
  <path class="fil0" d="M9.81 61.49l-0.14 -0.02 -0.32 -0.24c-0.07,-0.13 -0.09,-0.26 -0.06,-0.4l0.24 -0.32 1.19 -0.7 0.26 -0.07 0.14 0.02c0.14,0.04 0.24,0.12 0.32,0.24 0.07,0.13 0.09,0.26 0.05,0.4 -0.04,0.14 -0.11,0.24 -0.24,0.32l-1.19 0.69 -0.26 0.08zm1.79 -0.18c0.28,-0.17 0.47,-0.41 0.56,-0.73 0.08,-0.32 0.04,-0.63 -0.12,-0.91 -0.17,-0.29 -0.41,-0.47 -0.73,-0.56 -0.32,-0.08 -0.63,-0.04 -0.91,0.13l-1.19 0.69c-0.29,0.17 -0.47,0.41 -0.56,0.73 -0.08,0.32 -0.04,0.62 0.13,0.91 0.17,0.29 0.41,0.47 0.73,0.56l0.32 0.04c0.21,0 0.41,-0.05 0.6,-0.16l1.19 -0.69z"/>
  <polygon class="fil0" points="14.27,63.11 14,62.98 12.58,63.09 13.15,61.78 13.12,61.48 13.08,61.42 12.88,61.3 12.65,61.35 10.12,63.14 9.99,63.34 10.04,63.57 10.08,63.63 10.51,63.7 12.04,62.62 11.7,63.39 11.73,63.68 12.01,63.81 12.84,63.75 11.31,64.84 11.24,65.26 11.28,65.32 11.48,65.44 11.53,65.45 11.71,65.39 14.24,63.59 14.31,63.17 "/>
  <path class="fil0" d="M13.32 66.85c-0.08,-0.15 -0.26,-0.21 -0.41,-0.13l-0.64 0.31 -0.15 0.17 0.02 0.24 0.03 0.06 0.27 0.17 0.14 -0.03 0.64 -0.31 0.15 -0.18 -0.02 -0.23 -0.03 -0.06z"/>
  <path class="fil0" d="M20.46 69.46l-0.05 -0.05 -0.21 -0.07c0.2,-0.12 0.31,-0.39 0.18,-0.61 -0.36,-0.61 -1.03,-0.97 -1.71,-1.08 -0.56,-0.09 -0.77,0.7 -0.22,0.86 0.52,0.15 0.91,0.54 1.35,0.82l0.25 0.06 -0.07 0.06 -1.53 1.87 -0.24 0.13 -0.25 -0.08 -0.27 -0.22 -0.43 0.04 -0.04 0.05 -0.07 0.23 0.11 0.21 0.27 0.22c0.19,0.16 0.41,0.24 0.65,0.24l0.1 -0c0.28,-0.03 0.51,-0.16 0.7,-0.37l1.53 -1.87 -0.04 -0.43z"/>
  <path class="fil0" d="M23.4 71.68l-0.13 -0.19 -0.06 -0.04 -0.43 0.08 -1.26 1.85c-0.08,0.12 -0.19,0.19 -0.34,0.22l-0.39 -0.08c-0.12,-0.08 -0.19,-0.19 -0.22,-0.34 -0.03,-0.14 -0,-0.27 0.08,-0.39l1.27 -1.85 0.05 -0.23 -0.13 -0.2 -0.06 -0.04 -0.42 0.08 -1.26 1.86c-0.19,0.27 -0.25,0.58 -0.19,0.9 0.06,0.32 0.23,0.58 0.51,0.77 0.21,0.14 0.43,0.21 0.67,0.21l0.23 -0.02c0.33,-0.06 0.58,-0.23 0.77,-0.5l1.26 -1.85 0.05 -0.23z"/>
  <path class="fil0" d="M25.07 72.52c-0.29,-0.16 -0.6,-0.19 -0.89,-0.09 -0.24,0.09 -0.42,0.25 -0.54,0.47 -0.16,0.28 -0.18,0.58 -0.07,0.88l0.02 0.03 0.12 0.2 0.11 0.18 0.32 0.48 0.13 0.21 0.06 0.13 -0.03 0.24 -0.19 0.16 -0.28 -0.03c-0.04,-0.02 -0.19,-0.13 -0.62,-0.71l-0.37 -0.1 -0.06 0.03 -0.16 0.17 0.01 0.23c0.09,0.19 0.21,0.37 0.37,0.54 0.16,0.18 0.33,0.31 0.51,0.41 0.16,0.09 0.33,0.14 0.5,0.14l0.35 -0.06c0.24,-0.09 0.43,-0.24 0.55,-0.46 0.14,-0.25 0.24,-0.65 -0.09,-1.15 -0.12,-0.17 -0.22,-0.32 -0.31,-0.45l-0.22 -0.31c-0.14,-0.22 -0.11,-0.35 -0.05,-0.45l0.19 -0.16 0.32 0.05c0.06,0.03 0.21,0.14 0.53,0.5l0.37 0.07 0.06 -0.03 0.16 -0.19 -0.03 -0.24c-0.17,-0.29 -0.42,-0.52 -0.75,-0.71z"/>
  <path class="fil0" d="M28.75 74.33l-1.58 -0.7c-0.16,-0.07 -0.33,0 -0.4,0.16l-0.03 0.06 -0.01 0.23 0.16 0.17 0.48 0.21 -1.13 2.52c-0.07,0.15 0,0.34 0.15,0.4l0.06 0.03 0.13 0.03 0.11 -0.02 0.17 -0.16 1.13 -2.52 0.48 0.21 0.23 0 0.17 -0.16 0.03 -0.06c0.07,-0.16 -0,-0.34 -0.15,-0.41z"/>
  <path class="fil0" d="M30.87 75.16l-0.06 -0.02 -0.23 0.02 -0.16 0.18 -1.01 2.93c-0.05,0.16 0.03,0.34 0.19,0.39l0.07 0.02 0.1 0.02 0.13 -0.03 0.15 -0.18 1.01 -2.94c0.06,-0.16 -0.03,-0.33 -0.19,-0.39z"/>
  <path class="fil0" d="M34.5 76.15l-0.5 -0.12c-0.35,-0.09 -0.67,-0.05 -0.93,0.11 -0.26,0.16 -0.44,0.42 -0.52,0.77l-0.33 1.34c-0.09,0.36 -0.05,0.67 0.11,0.93 0.16,0.26 0.42,0.44 0.78,0.52l0.5 0.12 0.07 0.01 0.3 -0.23 0.02 -0.07 -0.04 -0.23 -0.19 -0.14 -0.5 -0.12c-0.18,-0.05 -0.29,-0.12 -0.36,-0.22 -0.06,-0.1 -0.07,-0.24 -0.03,-0.42l0.33 -1.34c0.04,-0.17 0.11,-0.29 0.22,-0.35 0.1,-0.06 0.24,-0.07 0.41,-0.03l0.5 0.12 0.23 -0.03 0.14 -0.19 0.02 -0.07c0.04,-0.16 -0.06,-0.33 -0.23,-0.37z"/>
  <path class="fil0" d="M37.56 76.7l-1.4 -0.21c-0.17,-0.03 -0.32,0.09 -0.35,0.26l-0.48 3.14 0.06 0.23 0.2 0.12 1.4 0.21 0.04 0 0.18 -0.06 0.12 -0.2 0.01 -0.06c0.03,-0.17 -0.09,-0.32 -0.26,-0.35l-1.03 -0.16 0.16 -1.03 0.69 0.1c0.17,0.02 0.32,-0.09 0.35,-0.26l0.01 -0.07 -0.06 -0.23 -0.2 -0.12 -0.69 -0.1 0.11 -0.69 1.03 0.16c0.17,0.02 0.32,-0.09 0.35,-0.26l0.01 -0.07 -0.06 -0.23 -0.2 -0.12z"/>
  <path class="fil0" d="M39.96 80.08l-0.07 -0.02c-0.16,-0.05 -0.33,0.04 -0.38,0.2l-0.21 0.68 0.02 0.23 0.18 0.15 0.07 0.02 0.09 0.02 0.29 -0.21 0.22 -0.68 -0.02 -0.24 -0.18 -0.15z"/>
  <path class="fil0" d="M46.16 79.02l0.18 -0.85 0.37 0.79 -0.55 0.06zm0.37 -2.05l-0.31 -0.18 -0.08 0.01 -0.26 0.24 -0.67 3.19 0.05 0.24 0.2 0.13 0.07 0.01 0.05 0c0.14,0 0.27,-0.1 0.3,-0.24l0.14 -0.65 1 -0.11 0.28 0.6c0.07,0.15 0.24,0.21 0.4,0.15l0.06 -0.03 0.17 -0.17 -0.01 -0.24 -1.38 -2.96z"/>
  <path class="fil0" d="M50.5 76.36c-0.03,-0.16 -0.2,-0.27 -0.36,-0.23l-0.07 0.01 -0.2 0.13 -0.04 0.23 0.36 1.75 -1.45 -1.68 -0.29 -0.1 -0.07 0.02 -0.19 0.13 -0.04 0.23 0.63 3.04c0.03,0.15 0.16,0.24 0.3,0.24l0.06 -0.01 0.06 -0.01 0.19 -0.13 0.04 -0.23 -0.36 -1.75 1.45 1.68 0.29 0.1 0.07 -0.02c0.16,-0.04 0.27,-0.2 0.24,-0.36l-0.63 -3.04z"/>
  <path class="fil0" d="M53.41 78.23c-0.1,0.15 -0.2,0.23 -0.33,0.27l-0.42 0.13 -0.7 -2.32 0.42 -0.12c0.13,-0.04 0.26,-0.03 0.42,0.04 0.18,0.08 0.28,0.19 0.34,0.37l0.35 1.15c0.05,0.17 0.03,0.33 -0.08,0.49zm0.38 -1.84c-0.11,-0.37 -0.36,-0.65 -0.72,-0.8 -0.3,-0.13 -0.61,-0.15 -0.88,-0.07l-0.78 0.23c-0.16,0.05 -0.25,0.22 -0.2,0.38l0.92 3.04 0.15 0.18 0.14 0.03 0.09 -0.01 0.78 -0.24c0.28,-0.08 0.52,-0.27 0.7,-0.54 0.22,-0.33 0.27,-0.7 0.16,-1.06l-0.35 -1.15z"/>
  <path class="fil0" d="M59.4 72.86c-0.08,-0.15 -0.26,-0.21 -0.41,-0.14l-0.07 0.03 -0.17 0.25 -0.09 1.42 -1.21 -0.75 -0.3 -0.01 -0.06 0.03 -0.15 0.18 0.02 0.23 1.42 2.76 0.27 0.17 0.14 -0.04 0.06 -0.03 0.15 -0.18 -0.02 -0.23 -0.86 -1.67 0.71 0.44 0.3 0.01 0.17 -0.25 0.06 -0.84 0.86 1.67c0.08,0.15 0.26,0.21 0.41,0.13l0.06 -0.03 0.15 -0.18 -0.02 -0.23 -1.42 -2.76z"/>
  <path class="fil0" d="M62.6 73.95c-0.03,0.14 -0.1,0.25 -0.23,0.33 -0.13,0.08 -0.25,0.1 -0.39,0.07 -0.14,-0.03 -0.25,-0.11 -0.33,-0.23l-0.74 -1.16c-0.08,-0.13 -0.1,-0.25 -0.07,-0.39l0.23 -0.33 0.27 -0.08 0.13 0.02c0.14,0.03 0.25,0.11 0.32,0.23l0.74 1.17c0.08,0.13 0.1,0.25 0.07,0.39zm-0.23 -1.93c-0.18,-0.28 -0.43,-0.46 -0.75,-0.53 -0.32,-0.07 -0.63,-0.02 -0.91,0.15 -0.28,0.18 -0.46,0.43 -0.53,0.76 -0.07,0.32 -0.02,0.63 0.16,0.9l0.74 1.17c0.18,0.28 0.43,0.46 0.75,0.53l0.27 0.03c0.22,0 0.44,-0.07 0.63,-0.19 0.28,-0.18 0.46,-0.43 0.53,-0.75 0.07,-0.32 0.02,-0.63 -0.16,-0.91l-0.74 -1.17z"/>
  <path class="fil0" d="M65.29 72.02c-0.04,0.17 -0.11,0.29 -0.21,0.37l-0.35 0.27 -1.47 -1.93 0.35 -0.26c0.1,-0.08 0.22,-0.11 0.37,-0.11l0.04 0c0.19,0.01 0.33,0.08 0.44,0.22l0.73 0.96c0.11,0.15 0.14,0.3 0.1,0.49zm-0.29 -1.86c-0.23,-0.31 -0.56,-0.47 -0.96,-0.49l-0.07 -0c-0.3,0 -0.56,0.08 -0.78,0.25l-0.64 0.49 -0.12 0.2 0.06 0.23 1.92 2.52 0.2 0.12 0.04 0 0.19 -0.06 0.64 -0.49c0.23,-0.18 0.39,-0.43 0.47,-0.75 0.09,-0.38 0.01,-0.75 -0.22,-1.05l-0.73 -0.96z"/>
  <polygon class="fil0" points="68.69,69.73 68.25,69.71 67.48,70.41 66.78,69.64 67.29,69.17 67.39,68.96 67.31,68.74 67.27,68.69 66.84,68.67 66.32,69.14 65.85,68.62 66.62,67.92 66.64,67.49 66.59,67.44 66.38,67.34 66.16,67.42 65.11,68.37 65.01,68.58 65.09,68.8 67.23,71.14 67.45,71.24 67.46,71.24 67.67,71.16 68.71,70.21 68.81,70 68.73,69.78 "/>
  <path class="fil0" d="M69.28 66.53l-0.19 0.35 -0.32 0.35 -0.77 -0.7 0.32 -0.36 0.34 -0.22c0.15,-0.03 0.28,0.02 0.43,0.16 0.2,0.19 0.21,0.33 0.19,0.42zm1.79 0.52l-1.13 -0.33c0.1,-0.4 -0.03,-0.78 -0.39,-1.11 -0.32,-0.29 -0.68,-0.4 -1.04,-0.32 -0.25,0.06 -0.48,0.2 -0.69,0.42l-0.58 0.63 -0.08 0.22 0.1 0.21 2.31 2.12 0.21 0.08 0.23 -0.1 0.04 -0.05 0.08 -0.22 -0.1 -0.21 -0.77 -0.7 0.32 -0.35 0.01 -0.01 1.27 0.37c0.16,0.05 0.33,-0.04 0.38,-0.2l0.02 -0.06 -0.02 -0.24 -0.18 -0.15z"/>
  <path class="fil0" d="M71.46 64.88l-0.49 -0.72 0.82 0.28 -0.33 0.44zm1.86 -0.63l-3.08 -1.06 -0.34 0.1 -0.04 0.06 -0.01 0.36 1.83 2.69 0.2 0.13 0.05 0.01 0.18 -0.06 0.05 -0.04 0.07 -0.42 -0.37 -0.55 0.61 -0.8 0.63 0.21c0.16,0.05 0.33,-0.03 0.38,-0.18l0.02 -0.06 -0.01 -0.24 -0.18 -0.16z"/>
  <path class="fil0" d="M74.72 62.3l-2.34 -1.48 0.28 -0.44c0.09,-0.14 0.05,-0.33 -0.1,-0.42l-0.06 -0.04 -0.23 -0.04 -0.19 0.13 -0.92 1.46c-0.09,0.14 -0.05,0.33 0.09,0.42l0.06 0.04 0.23 0.04 0.19 -0.13 0.28 -0.44 2.34 1.48 0.16 0.05 0.26 -0.14 0.04 -0.06 0.04 -0.23 -0.13 -0.19z"/>
  <path class="fil0" d="M76.39 59.32l-2.76 -1.42c-0.15,-0.08 -0.33,-0.02 -0.41,0.13l-0.03 0.06 -0.02 0.23 0.15 0.18 2.76 1.42 0.14 0.03 0.27 -0.17 0.03 -0.06 0.02 -0.23 -0.15 -0.18z"/>
  <path class="fil0" d="M77.34 56.39l-0.28 0.28 -0.4 0 -1.28 -0.52 -0.28 -0.28 -0 -0.4 0.28 -0.29 0.2 -0.04 0.2 0.04 1.28 0.52 0.29 0.28 0 0.4zm-0.03 -1.31l-1.28 -0.52c-0.3,-0.12 -0.62,-0.12 -0.92,0.01 -0.31,0.13 -0.52,0.35 -0.65,0.65 -0.12,0.31 -0.12,0.62 0.01,0.92 0.13,0.3 0.35,0.52 0.66,0.64l1.28 0.52c0.15,0.06 0.3,0.09 0.45,0.09 0.16,0 0.31,-0.03 0.47,-0.1 0.3,-0.13 0.52,-0.35 0.64,-0.66 0.13,-0.31 0.12,-0.62 -0,-0.92 -0.13,-0.31 -0.35,-0.52 -0.66,-0.65z"/>
  <path class="fil0" d="M75.93 51.27l-0.15 0.18 -0.02 0.07c-0.05,0.16 0.04,0.33 0.2,0.38l1.71 0.52 -2.17 0.47 -0.23 0.21 -0.02 0.07c-0.05,0.16 0.04,0.33 0.2,0.38l2.97 0.9 0.09 0.01 0.29 -0.21 0.02 -0.06 -0.02 -0.23 -0.18 -0.15 -1.71 -0.52 2.17 -0.47 0.23 -0.21 0.02 -0.07 -0.02 -0.23 -0.18 -0.15 -2.97 -0.9 -0.23 0.02z"/>
  <path class="fil0" d="M23.9 16.78l0.33 0.03c0.33,0 0.64,-0.1 0.94,-0.3l1.09 -0.72c0.18,-0.12 0.22,-0.35 0.11,-0.53l-1.45 -2.18c-0.12,-0.18 -0.36,-0.22 -0.53,-0.11l-0.67 0.45c-0.18,0.11 -0.22,0.35 -0.11,0.53l0.06 0.08 0.24 0.16 0.29 -0.06 0.27 -0.18 0.91 1.38 -0.69 0.45c-0.21,0.14 -0.41,0.18 -0.63,0.14 -0.22,-0.05 -0.39,-0.16 -0.52,-0.37l-1.11 -1.68c-0.14,-0.21 -0.18,-0.42 -0.12,-0.65 0.06,-0.21 0.17,-0.37 0.35,-0.49l1.05 -0.69 0.16 -0.24 -0.06 -0.29 -0.06 -0.09c-0.12,-0.17 -0.35,-0.22 -0.53,-0.1l-1.05 0.69c-0.35,0.24 -0.59,0.57 -0.7,0.99 -0.13,0.47 -0.05,0.93 0.23,1.36l1.11 1.68c0.26,0.4 0.63,0.64 1.07,0.73z"/>
  <path class="fil0" d="M29.13 13.83l0.2 0.21 0.15 0.03 0.14 -0.03 1.91 -0.78c0.2,-0.08 0.29,-0.3 0.21,-0.5l-0.04 -0.09 -0.21 -0.21 -0.29 -0 -1.47 0.6 -0.62 -1.53 1 -0.4c0.19,-0.08 0.29,-0.3 0.21,-0.5l-0.04 -0.1 -0.21 -0.21 -0.29 -0 -1 0.41 -0.43 -1.06 1.47 -0.59c0.2,-0.08 0.29,-0.3 0.21,-0.5l-0.04 -0.09 -0.2 -0.21 -0.29 -0 -1.91 0.78 -0.21 0.21 -0 0.29 1.74 4.29z"/>
  <path class="fil0" d="M35.15 7.81c0.13,-0.19 0.3,-0.3 0.54,-0.35l0.17 -0.01c0.16,0 0.31,0.05 0.45,0.15 0.19,0.13 0.3,0.3 0.34,0.53l0.37 1.98c0.04,0.23 0,0.43 -0.13,0.62 -0.13,0.19 -0.3,0.3 -0.53,0.34 -0.23,0.04 -0.43,0 -0.62,-0.13 -0.19,-0.13 -0.3,-0.31 -0.34,-0.53l-0.37 -1.98c-0.04,-0.23 -0,-0.42 0.13,-0.62zm-0.61 2.76c0.08,0.46 0.32,0.82 0.7,1.09 0.29,0.2 0.6,0.3 0.94,0.3l0.33 -0.03c0.46,-0.09 0.82,-0.32 1.09,-0.7 0.26,-0.39 0.35,-0.81 0.27,-1.27l-0.37 -1.98c-0.08,-0.46 -0.32,-0.82 -0.71,-1.08 -0.38,-0.26 -0.81,-0.36 -1.27,-0.27 -0.46,0.09 -0.83,0.32 -1.09,0.71 -0.26,0.38 -0.35,0.81 -0.27,1.27l0.37 1.98z"/>
  <path class="fil0" d="M41.88 6.86l0.77 0.01c0.25,0 0.45,0.06 0.6,0.17 0.12,0.08 0.28,0.25 0.28,0.67 -0.01,0.43 -0.17,0.59 -0.29,0.67 -0.15,0.09 -0.34,0.14 -0.61,0.14l-0 0 -0.76 -0.01 0.03 -1.65zm-0.55 4.47l0.1 0 0.27 -0.11 0.12 -0.27 0.03 -1.58 0.76 0.01 0.06 0 0.85 1.78c0.06,0.14 0.2,0.22 0.35,0.22l0.15 -0.03 0.09 -0.04 0.21 -0.21 -0.01 -0.3 -0.76 -1.61c0.54,-0.26 0.84,-0.77 0.85,-1.47 0.01,-0.77 -0.34,-1.18 -0.64,-1.39 -0.3,-0.21 -0.66,-0.32 -1.09,-0.33l-1.24 -0.02c-0.21,0 -0.39,0.16 -0.39,0.37l-0.07 4.59c-0,0.21 0.17,0.38 0.38,0.39z"/>
  <path class="fil0" d="M48.75 12.11l1.28 0.28 0.08 0.01c0.18,0 0.33,-0.12 0.37,-0.3l0.56 -2.55 -0.05 -0.29 -0.24 -0.17 -0.79 -0.17c-0.21,-0.04 -0.41,0.09 -0.45,0.29l-0.02 0.1 0.05 0.29 0.24 0.17 0.31 0.07 -0.35 1.62 -0.81 -0.18c-0.24,-0.05 -0.41,-0.16 -0.53,-0.35 -0.12,-0.19 -0.15,-0.39 -0.1,-0.63l0.43 -1.97c0.05,-0.25 0.18,-0.42 0.39,-0.54 0.19,-0.11 0.39,-0.14 0.6,-0.09l1.23 0.27c0.21,0.05 0.41,-0.08 0.46,-0.29l0.02 -0.1 -0.05 -0.29 -0.24 -0.16 -1.23 -0.27c-0.41,-0.09 -0.82,-0.03 -1.2,0.18 -0.43,0.24 -0.71,0.61 -0.81,1.11l-0.43 1.97c-0.1,0.47 -0.03,0.9 0.22,1.28 0.25,0.38 0.61,0.63 1.07,0.73z"/>
  <path class="fil0" d="M54.57 13.96l0.09 0.04 0.15 0.03 0.14 -0.03 0.21 -0.2 1.84 -4.15 0.01 -0.29 -0.2 -0.21 -0.09 -0.04c-0.19,-0.09 -0.42,0 -0.51,0.19l-1.83 4.15c-0.09,0.19 0,0.42 0.19,0.51z"/>
  <path class="fil0" d="M62.02 14.13l-0.45 1.48 -0.8 -0.57 1.25 -0.92zm-3.33 1.98c0.13,0.16 0.36,0.19 0.53,0.07l0.82 -0.6 1.27 0.9 -0.29 0.97c-0.06,0.2 0.05,0.41 0.24,0.47l0.09 0.03 0.13 0.02 0.17 -0.04 0.19 -0.23 1.39 -4.56c0.05,-0.16 -0.01,-0.33 -0.14,-0.42l-0.09 -0.06 -0.45 0 -3.84 2.81 -0.15 0.26 0.08 0.29 0.06 0.08z"/>
  <path class="fil0" d="M32.25 47.8c0.37,-0.49 0.4,-0.91 0.27,-1.53 -0.28,-1.26 -0.61,-2.38 -0.63,-3.69 -0.05,-2.4 0.31,-4.83 -1.5,-6.69 -0.31,-0.32 -0.86,0.12 -0.61,0.49 1.32,1.95 1.14,3.98 1.12,6.22 -0.01,0.75 -0.04,1.49 0.11,2.22 0.19,0.85 0.56,1.63 0.42,2.52 -0.07,0.43 0.49,0.88 0.82,0.45z"/>
  <path class="fil0" d="M31.06 53.31c0.59,-0.79 0.47,-2.06 0.44,-3 -0.03,-1.21 -0.2,-2.43 -0.52,-3.61l-0.1 -0.19c-0.86,-2.05 -1.02,-3.91 -1.13,-6.13 -0.02,-0.44 -0.73,-0.55 -0.8,-0.09 -0.31,2.13 -0.1,4.84 1.18,6.66l0 0.01c0.19,1 0.3,2.01 0.36,3.02 0.06,1.03 -0.22,2.04 -0.17,3.04 0.02,0.33 0.5,0.6 0.73,0.28z"/>
  <path class="fil0" d="M28 37.24c0.41,0.25 0.81,-0.34 0.48,-0.66 -0.54,-0.53 -1.31,-0.71 -2.07,-0.63 0.33,-0.33 0.68,-0.67 1.05,-1.03 0.9,-0.9 -1.12,-2.76 0.69,-3.55 0.51,-0.22 0.31,-1.03 -0.26,-0.86 -2.24,0.68 -0.73,3.2 -2.05,4.37 -0.91,0.81 -1.63,1.49 -2.03,2.65 -0.6,1.74 -0.7,3.7 -1.12,5.49 -0.05,0.22 0.05,0.43 0.23,0.54l0.26 0.27c-0.02,0.15 0.06,0.29 0.19,0.39 0.19,0.5 0.29,1.13 0.42,1.47 0.23,0.6 0.53,1.07 0.94,1.53 0.04,0.72 0,1.41 -0.04,2.15 -0.08,1.33 -0.01,2.59 -0.38,3.89 -0.14,0.5 0.6,0.67 0.78,0.19 0.24,-0.66 0.37,-1.32 0.43,-1.98 0.29,0 0.52,-0.35 0.35,-0.62l-0.29 -0.29c0.01,-0.2 0.02,-0.39 0.02,-0.59l0.33 0.15c0.32,0.09 0.67,-0.32 0.45,-0.61 -0.18,-0.24 -0.45,-0.45 -0.74,-0.55l0.02 -0.29 0.3 -0.02c0.18,-0.05 0.3,-0.22 0.29,-0.4 -0,-0.2 -0.14,-0.32 -0.31,-0.39l-0.23 -0.07c0,-0.25 -0.02,-0.49 -0.07,-0.74 0.58,-0.1 1.12,-0.04 1.74,0.02 0.43,0.04 0.53,-0.59 0.19,-0.78 -0.69,-0.37 -1.57,-0.31 -2.31,-0.05 -0.1,-0.2 -0.2,-0.4 -0.3,-0.6 0.63,-0.31 1.63,-0.18 2.24,-0.1 0.46,0.06 0.76,-0.54 0.31,-0.79 -0.66,-0.37 -2.13,-0.45 -2.95,0.05l-0.01 -0.02c-0.08,-0.2 -0.12,-0.41 -0.17,-0.63 1.01,-0.24 1.98,-0.42 3.07,-0.26 0.46,0.07 0.79,-0.57 0.32,-0.81 -1.05,-0.51 -2.66,-0.41 -3.81,0.14 -0.16,-0.19 -0.26,-0.29 -0.19,-0.56 0.06,-0.25 0.11,-0.51 0.17,-0.76 0.56,-0.02 1.11,-0.09 1.67,-0.1 0.7,-0.02 1.4,0.07 2.09,0.11 0.52,0.03 0.51,-0.69 0.09,-0.84 -1.08,-0.39 -2.48,-0.48 -3.67,-0.2 0.03,-0.19 0.07,-0.38 0.1,-0.57 0.7,-0.41 1.46,-0.65 2.28,-0.4 0.45,0.14 0.71,-0.55 0.3,-0.76 -0.68,-0.35 -1.58,-0.38 -2.33,-0.09 0.05,-0.2 0.11,-0.39 0.18,-0.57 0.42,-0.08 0.83,-0.16 1.27,-0.17 0.45,-0.01 0.89,0.09 1.34,0.13 0.5,0.05 0.48,-0.65 0.09,-0.8 -0.68,-0.26 -1.46,-0.32 -2.19,-0.19l0.08 -0.12c0.88,-0.47 1.87,-0.63 2.76,-0.08z"/>
  <path class="fil0" d="M28.82 35.53c0.14,0.41 0.67,0.37 0.8,-0.02 0.3,-0.88 0.65,-1.65 0.62,-2.59 -0.03,-0.73 -0.09,-1.81 -0.83,-2.19 -0.39,-0.2 -0.82,0.33 -0.47,0.64 0.5,0.43 0.45,1.71 0.35,2.31 -0.11,0.67 -0.72,1.15 -0.47,1.85z"/>
  <path class="fil0" d="M70.75 57.05c-2.04,1.91 -4.85,2.09 -7.48,2.46 -2.75,0.39 -5.32,1.82 -7.66,3.23 -0.38,0.23 -0.1,0.9 0.33,0.73 1.54,-0.62 2.95,-1.51 4.47,-2.18 0.63,-0.28 1.27,-0.45 1.93,-0.58l0.04 0.26c0.09,0.4 0.71,0.36 0.79,-0.02l0.05 -0.39c0.33,-0.05 0.66,-0.08 1,-0.12 -0.03,0.51 0.12,1.09 0.25,1.55 0.14,0.49 0.81,0.33 0.84,-0.14 0.02,-0.44 0.05,-1.04 -0.09,-1.52 0.37,-0.04 0.74,-0.09 1.11,-0.15 0.07,0.42 0.16,0.85 0.28,1.24 0.16,0.52 0.87,0.36 0.9,-0.14 0.02,-0.37 -0,-0.87 -0.15,-1.28 0.43,-0.09 0.86,-0.21 1.27,-0.36l0.09 0.25c0.11,0.34 0.21,0.68 0.32,1.02 0.17,0.51 0.86,0.37 0.9,-0.14 0.03,-0.43 -0.02,-0.88 -0.15,-1.3l-0.12 -0.3c0.26,-0.15 0.52,-0.32 0.76,-0.5l0.03 0.07c0.07,0.15 0.16,0.28 0.26,0.41 0.27,0.37 0.88,0.14 0.75,-0.34 -0.05,-0.18 -0.1,-0.35 -0.18,-0.52l-0.19 -0.28c0.12,-0.15 0.24,-0.3 0.35,-0.47 0.28,-0.43 -0.35,-0.83 -0.69,-0.51z"/>
  <path class="fil0" d="M43.21 71.12c-1.75,-1.2 -3.79,-1.44 -5.86,-1.65 -1.39,-0.14 -2.7,-0.3 -3.97,-0.92 -1.08,-0.52 -2.04,-1.36 -3.01,-2.06 -4.03,-2.91 -7.97,-4.88 -13.01,-3.99 -0.5,0.09 -0.3,0.78 0.13,0.82 1.24,0.09 2.41,-0.15 3.65,0.04 1.22,0.18 2.4,0.63 3.52,1.14 1.79,0.8 3.42,1.95 5,3.12 -0.14,0.23 -0.22,0.5 -0.24,0.78 -0.01,0.15 0.1,0.3 0.22,0.36 0.18,0.1 0.37,0.05 0.52,-0.08 0.14,-0.12 0.25,-0.28 0.33,-0.44 0.23,0.17 0.45,0.34 0.68,0.51 0.18,0.13 0.36,0.26 0.55,0.38 -0.22,0.29 -0.39,0.63 -0.51,0.9 -0.08,0.18 -0.07,0.37 0.08,0.51 0.15,0.14 0.46,0.17 0.59,-0.01 0.16,-0.22 0.34,-0.43 0.53,-0.63l0.23 -0.23c0.28,0.14 0.56,0.28 0.85,0.4 -0.2,0.29 -0.39,0.61 -0.48,0.96 -0.11,0.4 0.45,0.74 0.73,0.4 0.22,-0.26 0.44,-0.53 0.64,-0.82l0.13 -0.19c0.19,0.06 0.39,0.11 0.59,0.16l-0.08 0.15c-0.23,0.44 -0.46,0.95 -0.55,1.44 -0.09,0.5 0.54,0.74 0.81,0.32 0.24,-0.36 0.45,-0.75 0.66,-1.12 0.11,-0.19 0.24,-0.38 0.35,-0.58 0.22,0.03 0.43,0.05 0.65,0.08 -0.25,0.41 -0.43,0.87 -0.55,1.31 -0.14,0.49 0.54,0.7 0.79,0.31 0.32,-0.49 0.61,-1.01 0.89,-1.53 0.34,0.02 0.69,0.05 1.03,0.08 -0.14,0.3 -0.27,0.62 -0.36,0.94 -0.11,0.41 0.47,0.76 0.75,0.41 0.27,-0.35 0.62,-0.77 0.8,-1.22 0.85,0.13 1.68,0.34 2.49,0.73 0.53,0.26 0.91,-0.47 0.43,-0.79z"/>
  <path class="fil0" d="M58.87 68.34c1.62,-1.66 3.8,-2.39 5.94,-3.12 0.51,-0.18 0.28,-0.92 -0.24,-0.8 -3.18,0.74 -5.45,2.21 -7.74,4.47 -2.74,2.7 -6.08,4.5 -10.01,4.34 -0.54,-0.03 -0.57,0.76 -0.1,0.9 2.98,0.89 6.21,-0.66 8.61,-2.35 1.35,-0.95 2.4,-2.26 3.55,-3.43z"/>
  <path class="fil0" d="M13.02 58.92c2.22,1.22 4.85,1.59 7.35,1.48 0.56,-0.02 0.52,-0.82 -0.02,-0.86 -2.44,-0.16 -4.73,-0.56 -7.04,-1.36 -0.44,-0.15 -0.68,0.53 -0.29,0.74z"/>
  <path class="fil0" d="M21.24 66.96c-0.39,-0.02 -0.57,0.62 -0.19,0.77 0.99,0.39 2.09,0.91 2.83,1.68 0.35,0.36 0.93,-0.13 0.67,-0.54 -0.72,-1.15 -1.98,-1.85 -3.31,-1.91z"/>
  <path class="fil0" d="M45.19 65.8c0.15,-0.26 0.23,-0.55 0.29,-0.84l0.03 -0.13c0.35,0.13 0.7,0.25 1.06,0.35l-0.11 0.26c-0.08,0.22 -0.09,0.48 -0.07,0.71 0.04,0.4 0.61,0.62 0.82,0.2 0.1,-0.21 0.2,-0.42 0.24,-0.66l0.03 -0.28c1.9,0.42 3.85,0.42 5.86,-0.43 0.45,-0.19 0.41,-0.92 -0.14,-0.89 -2.1,0.09 -4.11,0.33 -6.19,-0.14 -2.53,-0.57 -4.86,-2.27 -7.24,-3.26 -1.87,-0.78 -3.86,-1.33 -5.87,-1.58 -0.76,-0.09 -1.54,-0.08 -2.32,-0.02 -0.1,-0.37 -0.26,-0.75 -0.31,-1.11 -0.07,-0.54 -0.05,-1.11 -0.17,-1.65 -0.09,-0.41 -0.71,-0.37 -0.8,0.02 -0.14,0.59 -0.11,1.24 -0.06,1.84 0.02,0.3 0.06,0.65 0.14,0.98l-0.32 0.04c-0.48,-2.29 -0.43,-4.64 -0.62,-6.97 -0.13,-1.5 -0.37,-3.11 -1.64,-4.06 -0.35,-0.26 -0.91,0.1 -0.63,0.52 1.97,2.98 1.21,7.18 1.79,10.66 -0.7,0.07 -1.4,0.12 -2.09,0.12l-0.24 0.07c-0.3,-0.22 -0.6,-0.45 -0.9,-0.66 0.26,-1.17 0.22,-2.37 0.59,-3.53 0.45,-1.42 1.07,-2.75 0.97,-4.27 -0.04,-0.53 -0.75,-0.48 -0.8,0.02 -0.17,1.59 -0.8,3 -1.17,4.54 -0.21,0.88 -0.26,1.79 -0.37,2.69 -0.18,-0.12 -0.36,-0.23 -0.55,-0.34 -0.02,-0.34 -0.03,-0.66 0.03,-1.01 0.08,-0.53 0.2,-1.05 0.31,-1.58 0.11,-0.52 -0.67,-0.72 -0.8,-0.2 -0.14,0.57 -0.29,1.15 -0.41,1.73 -0.04,0.19 -0.08,0.38 -0.12,0.57l-0.29 -0.12c-1.77,-0.65 -3.58,-0.93 -5.45,-1.1 -1.82,-0.16 -3.49,-0.86 -5.23,-1.25 -0.01,-2.29 -0.08,-4.58 -0.15,-6.88 0.44,0.38 0.99,0.68 1.47,0.74 0.36,0.04 0.77,-0.43 0.39,-0.71 -0.32,-0.24 -0.68,-0.39 -1.02,-0.61 -0.31,-0.2 -0.57,-0.46 -0.81,-0.74l-0.06 -0.05c-0.01,-0.31 -0.01,-0.62 -0.02,-0.92 0.96,1.03 2.28,1.79 3.61,2.11 0.58,0.14 0.75,-0.68 0.22,-0.88 -0.86,-0.33 -1.68,-0.68 -2.42,-1.24 -0.54,-0.42 -0.98,-0.94 -1.44,-1.43 -0.01,-0.48 -0.01,-0.97 -0.01,-1.46 0.3,0.32 0.63,0.6 0.91,0.86 1,0.88 2.22,1.56 3.43,2.1 0.48,0.22 0.85,-0.44 0.4,-0.72 -1.7,-1.06 -3.57,-2.07 -4.74,-3.76 0,-0.5 0,-1 0.01,-1.5 1.05,1.2 2.61,2.18 3.88,2.87 0.46,0.25 0.94,-0.39 0.55,-0.75 -0.75,-0.69 -1.65,-1.2 -2.47,-1.8 -0.72,-0.53 -1.33,-1.16 -1.96,-1.78 -0,-0.57 -0,-1.15 -0.01,-1.72 0.21,0.24 0.45,0.47 0.68,0.68 0.46,0.41 0.97,0.77 1.48,1.11 0.4,0.27 0.87,0.65 1.36,0.74 0.33,0.06 0.72,-0.31 0.47,-0.64 -0.5,-0.65 -1.45,-1.03 -2.11,-1.52 -0.81,-0.61 -1.62,-1.34 -1.87,-2.36l-0.03 -0.06c-0,-0.29 -0.01,-0.58 -0.01,-0.86 0.18,0.17 0.38,0.33 0.57,0.47 0.78,0.6 1.68,1.23 2.61,1.57 0.41,0.14 0.73,-0.47 0.4,-0.73 -1.11,-0.92 -2.88,-1.48 -3.61,-2.81 -0.01,-0.34 -0.01,-0.68 -0.02,-1.02l0.32 0.24c0.31,0.22 0.65,0.41 0.98,0.59 0.32,0.18 0.67,0.42 1.04,0.48 0.43,0.07 0.66,-0.38 0.38,-0.7 -0.36,-0.42 -1.06,-0.65 -1.54,-0.93 -0.44,-0.26 -0.92,-0.56 -1.23,-0.98 -0.01,-0.24 -0.01,-0.48 -0.02,-0.72 0.55,0.43 1.21,0.75 1.78,1 0.48,0.21 0.82,-0.41 0.39,-0.71 -0.76,-0.53 -1.58,-0.91 -2.22,-1.57 -0.01,-0.23 -0.02,-0.46 -0.03,-0.69 0.37,0.32 0.85,0.65 1.33,0.64 0.35,-0.01 0.57,-0.48 0.28,-0.73 -0.3,-0.26 -0.69,-0.4 -1,-0.65 -0.26,-0.21 -0.47,-0.45 -0.68,-0.71l-0.02 -0.36 0 -0.05 -0.01 -0.06c-0.03,-0.44 -0.05,-0.88 -0.08,-1.32 -0.03,-0.52 -0.77,-0.49 -0.8,0.02 -0.03,0.5 -0.05,1 -0.06,1.49 -0.31,0.78 -1.02,1.09 -1.64,1.65 -0.3,0.27 0.04,0.85 0.42,0.69 0.4,-0.17 0.81,-0.41 1.17,-0.7 -0,0.16 -0.01,0.33 -0.01,0.5 -0.29,0.28 -0.55,0.58 -0.88,0.83 -0.46,0.34 -0.99,0.58 -1.48,0.88 -0.42,0.26 -0.1,0.82 0.34,0.74 0.66,-0.12 1.26,-0.49 1.79,-0.9l0.22 -0.18c0,0.32 0,0.65 0.01,0.97 -0.27,0.25 -0.53,0.51 -0.79,0.76 -0.48,0.46 -1.03,0.66 -1.64,0.89 -0.42,0.16 -0.35,0.81 0.13,0.8 0.91,-0.02 1.68,-0.54 2.32,-1.17 0,0.29 0.01,0.58 0.02,0.87 -0.33,0.37 -0.68,0.7 -1.11,0.98 -0.72,0.47 -1.58,0.7 -2.33,1.12 -0.34,0.19 -0.19,0.82 0.23,0.76 1.18,-0.17 2.35,-0.68 3.24,-1.48l0.01 0.38c-0.88,1.34 -2.36,1.95 -3.69,2.85 -0.45,0.3 -0.04,0.91 0.43,0.69 0.83,-0.38 2.31,-1.01 3.3,-1.88 0.01,0.18 0.01,0.36 0.01,0.54 -0.95,1.64 -2.86,2.32 -4.27,3.52 -0.36,0.31 0.13,0.87 0.51,0.63 0.99,-0.6 2.01,-1.15 2.95,-1.84 0.26,-0.19 0.56,-0.41 0.85,-0.68 0.01,0.3 0.01,0.61 0.01,0.92 -0.6,0.58 -1.19,1.17 -1.85,1.7 -0.83,0.67 -1.84,1.09 -2.64,1.78 -0.35,0.3 0.05,0.8 0.44,0.71 1.46,-0.36 2.95,-1.56 4.07,-2.82 0,0.42 0,0.84 -0,1.26 -1.08,1.4 -2.61,2.44 -4.32,2.93 -0.45,0.13 -0.35,0.86 0.13,0.82 1.07,-0.1 2.04,-0.57 2.93,-1.15 0.4,-0.26 0.85,-0.58 1.24,-0.97 -0.01,0.67 -0.02,1.34 -0.03,2.01 -0.5,0.69 -0.85,1.49 -1.67,1.86 -0.43,0.19 -0.13,0.76 0.23,0.79 0.6,0.04 1.06,-0.47 1.4,-0.89l0.02 -0.02c-0.01,0.7 -0.01,1.4 -0.01,2.1 0,1.92 -0.14,4.07 0.26,5.98l-0.14 -0.02c-0.51,-0.05 -0.5,0.68 -0.09,0.83 1.68,0.61 3.41,1.21 5.16,1.57 2.01,0.42 4.01,0.47 5.99,1.08 1.95,0.6 3.43,1.97 5.07,3.12 1.36,0.95 3.09,1.4 4.69,1.74 0.52,0.11 0.79,-0.58 0.34,-0.86 -1.41,-0.87 -2.99,-1.16 -4.43,-1.94 0.5,0.01 1,-0.01 1.5,-0.03l0.29 0.07c0.82,-0.11 1.64,-0.08 2.46,-0.18 0.73,-0.01 1.45,0.01 2.18,0.1 1.88,0.24 3.76,1.02 5.53,1.86l-0.22 0.38c-0.24,0.44 0.33,0.81 0.68,0.5 0.15,-0.13 0.32,-0.27 0.47,-0.43 0.16,0.08 0.32,0.16 0.48,0.24l-0.1 0.2c-0.15,0.29 -0.26,0.6 -0.31,0.93 -0.03,0.2 0.03,0.4 0.22,0.5 0.2,0.11 0.52,0.05 0.61,-0.18 0.13,-0.34 0.38,-0.65 0.54,-0.98 0.23,0.11 0.46,0.23 0.7,0.34 -0.32,0.54 -0.49,1.18 -0.58,1.78 -0.06,0.45 0.58,0.8 0.8,0.31 0.24,-0.54 0.54,-1.09 0.7,-1.67 0.23,0.11 0.46,0.21 0.68,0.3 -0.15,0.42 -0.18,0.92 -0.1,1.29 0.09,0.4 0.66,0.41 0.84,0.09z"/>
  <path class="fil0" d="M42.91 75.55c-0.5,-0.26 -1.04,-0.41 -1.53,-0.66 -0.47,-0.24 -0.82,0.42 -0.39,0.7 0.52,0.35 1,0.61 1.63,0.72 0.44,0.08 0.73,-0.54 0.3,-0.76z"/>
  <path class="fil0" d="M45.99 76.61c0.41,-0.09 0.37,-0.73 -0.02,-0.82l-0.41 -0.06 -0.36 -0.02c-0.18,-0.04 -0.37,0.04 -0.46,0.2 -0.12,0.21 -0.02,0.43 0.16,0.56 0.33,0.23 0.7,0.23 1.09,0.14z"/>
  <path class="fil0" d="M52.44 68.28c-1.25,0.66 -2.64,0.86 -4.02,1.09 -0.49,0.08 -0.35,0.91 0.14,0.86 1.53,-0.15 3.06,-0.24 4.32,-1.23 0.42,-0.33 0.05,-0.98 -0.44,-0.72z"/>
  <path class="fil0" d="M54.91 67.32c0.43,-0.22 0.85,-0.44 1.2,-0.78 0.35,-0.34 -0.12,-0.85 -0.51,-0.63 -0.39,0.21 -0.78,0.42 -1.18,0.62 -0.23,0.11 -0.28,0.44 -0.15,0.64 0.14,0.23 0.41,0.27 0.64,0.15z"/>
  <path class="fil0" d="M64.7 37.45c0.8,-0.43 1.7,-1.02 2.35,-1.76 0.01,0.4 0.02,0.8 0.03,1.2 -0.43,0.24 -0.82,0.59 -1.21,0.87 -0.74,0.53 -1.54,0.92 -2.44,1.1 -0.47,0.1 -0.32,0.81 0.13,0.81 1.26,0.01 2.54,-0.74 3.57,-1.6 0.01,0.2 0.02,0.39 0.03,0.59l-0.07 0.12c-0.71,2.14 -2.84,2.73 -4.81,3.22 -0.49,0.12 -0.33,0.83 0.14,0.84 1.76,0.06 3.82,-0.8 4.84,-2.31 0.02,0.41 0.03,0.82 0.04,1.22 -1.1,1.9 -2.98,2.33 -4.82,3.37 -0.43,0.24 -0.11,0.86 0.34,0.76 1.41,-0.34 3.36,-1.07 4.49,-2.3l0 0.42c-1.18,1.52 -2.6,3.25 -4.62,3.45 -0.55,0.06 -0.51,0.79 0.02,0.84 1.76,0.17 3.5,-1.19 4.64,-2.69 0.01,0.36 0.02,0.72 0.03,1.08 -0.85,1.78 -3.45,2.75 -5.26,2.97 -0.53,0.07 -0.52,0.8 0.02,0.83 1.38,0.08 3.9,-0.72 5.28,-2.05 0,0.14 0,0.29 0.01,0.43 -0.61,2.19 -3.18,3.43 -5.3,3.49 -0.48,0.01 -0.57,0.74 -0.09,0.85 1.8,0.4 4.07,-0.6 5.34,-2.16 -0.02,0.28 -0.04,0.56 -0.07,0.84 -0.4,0.58 -0.81,1.14 -1.39,1.59 -0.76,0.59 -1.73,0.76 -2.66,0.87 -0.53,0.06 -0.51,0.79 0.02,0.83 1.53,0.12 2.88,-0.46 3.88,-1.47 -0.02,0.3 -0.03,0.6 -0.04,0.89 -0.41,0.24 -0.8,0.49 -1.27,0.62 -0.39,0.11 -0.39,0.73 0.02,0.81 0.47,0.09 0.9,-0.03 1.28,-0.25 0.04,0.48 0.11,0.95 0.23,1.4 0.14,0.51 0.89,0.47 1.02,-0.03 0.22,-0.89 0.3,-1.84 0.34,-2.8 0.77,0.49 1.67,0.83 2.49,1.01 0.55,0.11 0.71,-0.64 0.2,-0.82 -0.65,-0.24 -1.25,-0.55 -1.85,-0.92 -0.29,-0.17 -0.56,-0.38 -0.83,-0.58 0,-0.31 0,-0.62 0,-0.92 1.26,1.32 3.03,2.04 4.86,2.29 0.53,0.07 0.75,-0.69 0.21,-0.83 -1.94,-0.5 -3.69,-1.31 -5.06,-2.79 -0,-0.44 -0.01,-0.88 -0.02,-1.32 1.26,1.21 3.05,1.84 4.79,1.88 0.47,0.01 0.57,-0.78 0.09,-0.83 -2.05,-0.23 -3.65,-1.16 -4.97,-2.66 -0.02,-0.36 -0.05,-0.72 -0.07,-1.08 1,1.1 2.51,1.73 4.07,1.9 0.54,0.06 0.78,-0.74 0.21,-0.86 -1.07,-0.21 -2.12,-0.49 -2.99,-1.18 -0.75,-0.59 -1.07,-1.42 -1.47,-2.23 -0.02,-0.27 -0.04,-0.54 -0.06,-0.81 0.9,1.05 2.15,1.81 3.35,2.43 0.47,0.25 0.85,-0.44 0.4,-0.72 -1.49,-0.92 -2.76,-1.97 -3.85,-3.35 -0.03,-0.44 -0.05,-0.88 -0.08,-1.32 0.97,1.22 2.49,2.15 3.81,2.65 0.44,0.17 0.71,-0.55 0.3,-0.76 -0.86,-0.43 -1.66,-0.94 -2.4,-1.55 -0.8,-0.67 -1.3,-1.48 -1.81,-2.36l-0.01 -0.21c0.19,0.21 0.39,0.42 0.57,0.6 0.88,0.85 1.98,1.54 3.15,1.89 0.45,0.13 0.72,-0.56 0.3,-0.76 -0.86,-0.4 -1.68,-0.91 -2.42,-1.5 -0.81,-0.66 -1.27,-1.36 -1.66,-2.28 -0,-0.24 -0,-0.48 -0,-0.72 0.62,0.82 1.5,1.46 2.44,1.62 0.53,0.09 0.7,-0.62 0.2,-0.81 -1.26,-0.46 -2.24,-1.63 -2.58,-2.91 0.02,-0.34 0.04,-0.68 0.07,-1.03 0.21,0.41 0.49,0.79 0.82,1.07 0.39,0.34 0.92,-0.21 0.56,-0.58 -0.66,-0.67 -1.12,-1.83 -1.11,-2.79l0.02 -0.07 -0 -0.03 0.03 -0.2c0.08,-0.51 -0.64,-0.7 -0.78,-0.19l-0.04 0.15 -0.03 0.07c-0.28,1.35 -1.07,2.22 -2.01,3.17 -0.32,0.32 0.14,0.91 0.51,0.63 0.38,-0.3 0.73,-0.63 1.04,-0.99 -0.03,0.37 -0.06,0.75 -0.07,1.13 -0.27,0.59 -0.58,1.07 -1.09,1.52 -0.57,0.51 -1.25,0.88 -1.81,1.4 -0.36,0.34 0.12,0.86 0.53,0.65z"/>
  <path class="fil0" d="M78.24 41.08c-0.51,0.01 -0.94,-0.07 -1.29,-0.33 -0.01,-0.45 -0.02,-0.9 -0.03,-1.34 1.02,0.88 2.66,1.2 3.94,0.95 0.4,-0.07 0.39,-0.76 -0.02,-0.81 -1.66,-0.2 -3.33,-0.37 -3.99,-2.02l-0.01 -0.39c0.8,0.68 1.89,1.04 2.88,0.73 0.44,-0.14 0.35,-0.87 -0.13,-0.83 -1.28,0.11 -2.12,-0.63 -2.76,-1.58 -0,-0.26 -0,-0.53 0,-0.79 0.63,0.36 1.41,0.58 2,0.81 0.47,0.18 0.66,-0.52 0.3,-0.76 -0.69,-0.47 -1.78,-0.63 -2.3,-1.3 0,-0.28 0,-0.55 0,-0.83 0.47,0.37 1.06,0.62 1.62,0.78 0.46,0.13 0.69,-0.53 0.3,-0.76 -0.73,-0.42 -1.55,-0.76 -1.92,-1.5 -0,-0.33 -0.01,-0.67 -0.02,-1 0.24,0.21 0.53,0.38 0.87,0.48 0.46,0.13 0.69,-0.53 0.3,-0.76 -0.7,-0.41 -1.08,-0.97 -1.24,-1.7 -0.02,-0.37 -0.04,-0.74 -0.08,-1.11l-0.07 -0.21 -0.28 -0.17c-0.21,-0.02 -0.45,0.11 -0.47,0.4l-0.02 0.34c-0.13,0.9 -0.51,1.54 -1.18,2.22 -0.35,0.35 0.11,0.82 0.51,0.63 0.2,-0.1 0.39,-0.23 0.55,-0.39 -0,0.22 -0.01,0.44 -0.01,0.67 -0.42,0.8 -0.92,1.46 -1.77,1.9 -0.45,0.23 -0.1,0.87 0.35,0.77 0.59,-0.14 1.05,-0.46 1.42,-0.89l0 0.41c-0.26,0.96 -0.82,1.6 -1.86,1.79 -0.5,0.1 -0.33,0.85 0.14,0.85 0.61,0.01 1.24,-0.28 1.72,-0.73l-0 0.2 -0.03 0.17 0 0.02c-0.62,1.36 -1.65,2.62 -3.33,2.19 -0.45,-0.12 -0.73,0.56 -0.3,0.76 1.24,0.59 2.72,0.04 3.62,-0.99 -0.01,0.29 -0.02,0.58 -0.03,0.87 -0.43,0.86 -1.24,1.39 -2.25,1.1 -0.47,-0.13 -0.73,0.55 -0.31,0.78 0.79,0.42 1.78,0.26 2.5,-0.25l-0.01 0.35 -0.04 0.03c-0.38,0.42 -0.71,1.15 -1.37,1.13 -0.41,-0.01 -0.59,0.63 -0.19,0.79 0.56,0.24 1.15,0.05 1.59,-0.34 0.02,1.02 0.08,2.04 0.25,3.03 0.08,0.47 0.85,0.43 0.93,-0.02 0.15,-0.84 0.21,-1.7 0.23,-2.57 0.47,0.16 1,0.17 1.43,0 0.42,-0.16 0.35,-0.81 -0.13,-0.8z"/>
  <path class="fil0" d="M13.62 50.87c2.19,2.63 6.91,1.95 9.94,1.94 0.51,-0 0.57,-0.74 0.1,-0.87 -3.28,-0.95 -6.47,0.23 -9.53,-1.76 -0.44,-0.29 -0.79,0.34 -0.5,0.68z"/>
  <path class="fil0" d="M32.04 53.83c3.48,0.37 6.67,1.55 9.8,3.07 2.27,1.1 4.48,2.43 6.93,3.11 4.46,1.24 10.83,-0.39 14.23,-3.47 0.42,-0.38 -0.14,-1.01 -0.6,-0.74 -4.44,2.57 -10.08,4.09 -15.03,2.31 -5.2,-1.87 -9.64,-4.85 -15.34,-5.09 -0.53,-0.02 -0.48,0.75 0.02,0.81z"/>
  <path class="fil0" d="M60.88 45.3c-3.71,2.18 -7.98,3.39 -12.25,3.79 -4.9,0.46 -9.29,-0.62 -13.76,-2.52 -0.39,-0.17 -0.88,0.35 -0.48,0.65 7.54,5.6 19.67,4.02 26.95,-1.17 0.46,-0.33 0.03,-1.04 -0.46,-0.75z"/>
  <path class="fil0" d="M62.75 36.8c-4.29,-1.26 -8.85,-0.58 -13.05,0.7 -2.58,0.78 -5.03,1.88 -7.65,2.55 -2.85,0.73 -5.79,0.94 -8.72,1.02 -0.44,0.01 -0.55,0.74 -0.09,0.79 4.92,0.58 9.86,-0.62 14.42,-2.42 4.87,-1.92 9.68,-2.58 14.81,-1.52 0.73,0.15 0.99,-0.9 0.28,-1.11z"/>
  <path class="fil0" d="M18.75 41.26c1.04,0.07 2.08,0.12 3.13,0.07 0.49,-0.02 0.57,-0.72 0.09,-0.85 -0.84,-0.23 -1.67,-0.28 -2.54,-0.31 -0.93,-0.04 -1.94,-0.2 -2.85,-0.03 -0.35,0.07 -0.39,0.61 -0.08,0.75 0.7,0.32 1.49,0.31 2.25,0.37z"/>
  <path class="fil0" d="M18.13 45.72c1.54,-0.13 2.89,-0.37 4.43,-0.09 0.44,0.08 0.75,-0.56 0.3,-0.77 -1.43,-0.65 -3.42,-0.55 -4.87,0.04 -0.41,0.17 -0.37,0.86 0.13,0.82z"/>
  <path class="fil0" d="M15.89 34.14c3.14,-1.11 6.63,-1.69 9.95,-1.82 0.54,-0.02 0.52,-0.83 -0.02,-0.84 -3.4,-0.02 -7,0.65 -10.16,1.88 -0.48,0.19 -0.26,0.95 0.23,0.77z"/>
  <path class="fil0" d="M49.76 33.13c-6.34,0.43 -12.3,-0.02 -18.59,-0.99 -0.51,-0.08 -0.71,0.64 -0.2,0.79 5.77,1.6 11.73,1.91 17.68,1.49 2.22,-0.16 4.44,-0.33 6.67,-0.26 2.81,0.09 5.5,0.75 8.21,1.39 0.6,0.14 0.77,-0.7 0.23,-0.91 -4.52,-1.73 -9.25,-1.84 -14.01,-1.52z"/>
  <path class="fil0" d="M41.25 25.77c0.77,-0.96 1.81,-1.65 3.05,-1.13 1.12,0.47 1.63,1.63 1.3,2.78 -0.4,1.35 -1.75,1.99 -3.01,1.46 -1.29,-0.54 -1.72,-1.85 -1.33,-3.11zm5.27 2.39c0.78,-1.61 -0,-3.39 -1.46,-4.28 -1.66,-1.02 -3.69,-0.26 -4.53,1.4l-0.04 0.16c-0.86,1.73 -0.23,3.57 1.54,4.44 1.81,0.89 3.64,0.03 4.49,-1.72z"/>
  <path class="fil0" d="M30.31 17.44l0.04 -0.16c0.09,-0.56 -0.66,-0.74 -0.85,-0.21l-0.13 0.32c-0.14,0.07 -0.22,0.22 -0.22,0.37 -0.82,1.16 -2.44,1.47 -3.78,1 -0.41,-0.14 -0.64,0.42 -0.38,0.69 1.44,1.51 3.87,0.58 4.9,-1.01 0.83,0.41 1.89,0.45 2.75,0.27 1.26,-0.28 1.98,-1.37 2.36,-2.51 0.15,-0.47 -0.56,-0.73 -0.79,-0.31 -0.49,0.9 -1.15,1.59 -2.21,1.74 -0.58,0.08 -1.13,-0.07 -1.69,-0.18z"/>
  <path class="fil0" d="M37.13 14.97c1.33,0.82 2.58,0.66 3.98,0.06 0.72,-0.31 1.34,-0.8 2.07,-1.1 1.25,-0.51 2.52,-0.04 3.62,0.56 0.45,0.25 0.86,-0.35 0.52,-0.7 -3.12,-3.27 -6.59,1.63 -9.9,0.44 -0.45,-0.16 -0.66,0.51 -0.29,0.74z"/>
  <path class="fil0" d="M49.02 15.27c1.42,2.84 5.22,2.29 7.77,1.9 0.58,-0.08 0.56,-0.84 -0.02,-0.9 -0.94,-0.09 -1.89,0.02 -2.83,0.03 -1.73,0.01 -2.93,-0.49 -4.29,-1.53 -0.37,-0.28 -0.84,0.08 -0.62,0.51z"/>
  <path class="fil0" d="M14.37 24.78c2.35,-0.3 4.24,1.11 6.4,1.75 0.84,0.25 1.78,0.04 2.59,-0.16 1.4,-0.34 2.5,-0.15 3.89,-0.08 0.45,0.02 0.58,-0.63 0.2,-0.83 -0.84,-0.43 -1.65,-0.6 -2.58,-0.67 -1.53,-0.11 -2.73,0.78 -4.33,0.36 -2.18,-0.57 -3.98,-1.9 -6.3,-1.15 -0.42,0.13 -0.34,0.84 0.13,0.79z"/>
  <path class="fil0" d="M19.4 29.39c0.55,-0.2 0.3,-0.94 -0.25,-0.84 -1.21,0.2 -2.44,-0.22 -3.63,0.02 -0.45,0.09 -0.34,0.7 0.02,0.82 1.19,0.39 2.69,0.45 3.87,0.01z"/>
  <path class="fil0" d="M22.66 60.43c0.66,-0.04 1.32,0.66 1.82,1 0.39,0.26 0.76,-0.25 0.57,-0.6 -0.45,-0.85 -1.6,-1.38 -2.52,-1.18 -0.44,0.1 -0.32,0.81 0.12,0.78z"/>
  <path class="fil0" d="M21.66 61.89c0.61,0.13 1.16,0.48 1.77,0.57 0.51,0.07 0.83,-0.59 0.34,-0.87 -0.6,-0.35 -1.32,-0.61 -2.02,-0.5 -0.42,0.06 -0.57,0.7 -0.09,0.8z"/>
  <path class="fil0" d="M26.98 67.67c-1.55,-1.77 -4.7,-3.62 -7.14,-3.26 -0.52,0.08 -0.51,0.76 0.02,0.82 2.25,0.22 4.82,1.65 6.54,3.06 0.42,0.34 0.94,-0.2 0.58,-0.61z"/>
  <path class="fil0" d="M27.83 63.83c0.51,0.24 1.04,0.48 1.6,0.54 0.52,0.06 0.79,-0.55 0.34,-0.86 -0.43,-0.29 -0.91,-0.47 -1.39,-0.67 -0.38,-0.16 -0.78,-0.35 -1.2,-0.34 -0.31,0 -0.48,0.35 -0.33,0.61 0.21,0.36 0.63,0.55 0.99,0.72z"/>
  <path class="fil0" d="M27.43 71.09c-0.22,-0.35 -0.49,-0.61 -0.83,-0.84 -0.12,-0.09 -0.27,-0.14 -0.41,-0.2 -0.15,-0.06 -0.29,-0.05 -0.44,-0.08 -0.45,-0.1 -0.69,0.51 -0.29,0.74 0.21,0.12 0.38,0.3 0.57,0.45 0.26,0.19 0.52,0.4 0.82,0.55 0.39,0.18 0.83,-0.23 0.59,-0.62z"/>
  <path class="fil0" d="M17.71 65.61c-0.39,0.08 -0.35,0.68 0.02,0.77 0.68,0.16 1.3,0.44 1.92,0.78 0.4,0.22 0.85,-0.36 0.48,-0.66 -0.64,-0.52 -1.55,-1.07 -2.42,-0.89z"/>
 </g>
</svg>
