<?xml version="1.0" encoding="UTF-8"?>
<svg xmlns="http://www.w3.org/2000/svg" xml:space="preserve" width="0.747346in" height="0.747335in" version="1.1" style="shape-rendering:geometricPrecision; text-rendering:geometricPrecision; image-rendering:optimizeQuality; fill-rule:evenodd; clip-rule:evenodd"
viewBox="0 0 242.8 242.8"
 xmlns:xlink="http://www.w3.org/1999/xlink"
 xmlns:xodm="http://www.corel.com/coreldraw/odm/2003">
 <defs>
  <style type="text/css">
   <![CDATA[
    .fil0 {fill:black;fill-rule:nonzero}
   ]]>
  </style>
 </defs>
 <g id="Layer_x0020_1">
  <metadata id="CorelCorpID_0Corel-Layer"/>
  <path class="fil0" d="M89.77 223.16l0.89 -1.25 0.04 1.54 -0.93 -0.29zm3.2 -4.88c-0.01,-0.47 -0.32,-0.89 -0.78,-1.03l-0.2 -0.06c-0.46,-0.14 -0.95,0.03 -1.22,0.41l-5.44 7.65 -0.19 0.84 0.48 0.71 0.16 0.11c0.5,0.33 1.16,0.2 1.5,-0.28l1.02 -1.42 2.46 0.76 0.05 1.75c0.02,0.59 0.5,1.06 1.09,1.07l0.19 0 0.04 0c0.61,0 1.11,-0.5 1.11,-1.1l-0.03 -0.25 -0.24 -9.17z"/>
  <path class="fil0" d="M106.26 229.39l-2.74 -0.43 1.21 -7.65 -0.2 -0.82 -0.72 -0.44 -0.19 -0.03c-0.59,-0.09 -1.16,0.31 -1.26,0.92l-1.41 8.93c-0.1,0.6 0.32,1.16 0.92,1.26l4.02 0.64 0.17 0.01 0.65 -0.21 0.44 -0.72 0.03 -0.19c0.1,-0.61 -0.32,-1.17 -0.92,-1.26z"/>
  <path class="fil0" d="M120.73 229.14l-0.39 0.91 -0.91 0.36 -0 0 -0.9 -0.39 -0.36 -0.92 0.08 -3.97 0.39 -0.9 0.88 -0.36 0 -0.2 0.03 0 0 0.2 0.9 0.39 0.36 0.91 -0.08 3.97zm-1.21 -7.68c-0.98,0 -1.84,0.35 -2.56,1.03 -0.72,0.7 -1.11,1.57 -1.12,2.59l-0.06 3.97c-0.02,1 0.33,1.91 1.02,2.63 0.69,0.71 1.59,1.1 2.6,1.12l0.07 0c0.98,0 1.84,-0.34 2.55,-1.03 0.72,-0.69 1.11,-1.58 1.13,-2.59l0.07 -3.97c0.02,-0.99 -0.34,-1.9 -1.03,-2.62 -0.69,-0.72 -1.59,-1.11 -2.66,-1.13z"/>
  <path class="fil0" d="M136.08 220.54l-0.2 0.02 -0.74 0.42 -0.23 0.81 0.33 2.75 -2.54 0.31 -0.34 -2.76c-0.07,-0.6 -0.62,-1.03 -1.22,-0.96l-0.19 0.03 -0.74 0.41 -0.22 0.81 1.06 8.88c0.07,0.56 0.55,0.97 1.1,0.97l0.13 -0.01 0.19 -0.02 0.73 -0.41 0.23 -0.81 -0.45 -3.74 2.55 -0.31 0.45 3.74 0.42 0.74 0.82 0.23 0.19 -0.03c0.6,-0.07 1.03,-0.62 0.96,-1.22l-1.07 -8.88c-0.07,-0.61 -0.62,-1.03 -1.22,-0.96z"/>
  <path class="fil0" d="M148.36 224.49l0.09 -1.53 0.85 1.29 -0.94 0.25zm0.15 -5.84c-0.26,-0.4 -0.74,-0.58 -1.2,-0.46l-0.21 0.06c-0.46,0.12 -0.79,0.52 -0.82,1l-0.58 9.37 0.29 0.82 0.79 0.36 0.19 0 0.02 0c0.58,0 1.07,-0.46 1.1,-1.04l0.11 -1.74 2.49 -0.66 0.96 1.46c0.32,0.5 0.98,0.64 1.49,0.33l0.16 -0.1 0.51 -0.7 -0.15 -0.85 -5.15 -7.85z"/>
  <path class="fil0" d="M78.65 42.25l1 0.63 0.47 -0.1 0.26 -0.12 0.56 -0.63 -0.04 -0.84 -2.57 -5.43 4.3 -2.04 2.57 5.43 0.63 0.56 0.84 -0.04 0.27 -0.13c0.55,-0.26 0.78,-0.92 0.52,-1.47l-5.58 -11.8c-0.26,-0.55 -0.92,-0.79 -1.47,-0.53l-0.27 0.13 -0.57 0.62 0.04 0.85 1.95 4.11 -4.31 2.04 -1.95 -4.12c-0.26,-0.55 -0.92,-0.79 -1.46,-0.52l-0.25 0.12 -0.57 0.63 0.04 0.84 5.58 11.81z"/>
  <path class="fil0" d="M97.85 25.31l2.38 3.79 -2.75 0.67 0.37 -4.46zm-2.26 10.98l0.29 0.01 0.05 0c0.57,0 1.05,-0.43 1.1,-1.01l0.24 -2.9 4.36 -1.07 1.56 2.47c0.32,0.5 0.97,0.66 1.49,0.36l0.24 -0.14 0.52 -0.69 -0.14 -0.85 -7.3 -11.61c-0.25,-0.4 -0.73,-0.59 -1.19,-0.48l-0.3 0.08c-0.46,0.11 -0.8,0.51 -0.83,0.98l-1.12 13.66 0.27 0.82 0.78 0.37z"/>
  <path class="fil0" d="M113.68 32.07c0.13,0.49 0.57,0.82 1.06,0.82l0.05 0 0.3 -0.01c0.48,-0.02 0.88,-0.34 1.01,-0.79l1.5 -5.24 1.9 5.1c0.17,0.45 0.63,0.74 1.07,0.72l0.31 -0.01c0.51,-0.02 0.94,-0.4 1.03,-0.91l2.38 -13.13 -0.18 -0.82 -0.71 -0.46 -0.28 -0.05c-0.6,-0.11 -1.17,0.29 -1.28,0.89l-1.57 8.69 -1.82 -4.85c-0.17,-0.45 -0.61,-0.74 -1.07,-0.72 -0.47,0.02 -0.88,0.34 -1.02,0.8l-1.43 4.99 -2.26 -8.55c-0.15,-0.59 -0.75,-0.94 -1.34,-0.79l-0.28 0.08 -0.68 0.51 -0.11 0.83 3.41 12.9z"/>
  <path class="fil0" d="M137.16 23.73l0.72 4.41 -2.79 -0.45 2.07 -3.97zm-6.34 9.25l0.25 0.12c0.54,0.25 1.18,0.04 1.45,-0.48l1.35 -2.58 4.43 0.7 0.48 2.88c0.09,0.54 0.56,0.92 1.09,0.92l0.14 -0.01 0.28 -0.04 0.74 -0.43 0.21 -0.83 -2.23 -13.53c-0.07,-0.47 -0.44,-0.84 -0.91,-0.91l-0.31 -0.04c-0.47,-0.08 -0.93,0.16 -1.15,0.58l-6.34 12.16 -0.06 0.86 0.57 0.65z"/>
  <path class="fil0" d="M152.53 38.31l0.28 0.1 0.38 0.07c0.44,0 0.86,-0.28 1.03,-0.72l4.61 -12.22c0.21,-0.57 -0.07,-1.21 -0.65,-1.42l-0.27 -0.1 -0.85 0.02 -0.58 0.62 -4.6 12.22 0.02 0.84 0.62 0.58z"/>
  <path class="fil0" d="M164.59 43.9l0.26 0.14 0.53 0.14 0.96 -0.56 6.39 -11.39c0.29,-0.53 0.11,-1.2 -0.42,-1.5l-0.26 -0.14 -0.83 -0.1 -0.67 0.52 -6.39 11.39 -0.1 0.83 0.52 0.66z"/>
  <path class="fil0" d="M152.35 175.93c-0.54,-1.64 -0.92,-3.27 -1.03,-5.03 7.39,-2.45 14.5,-5.94 21.1,-10.43 -6.03,6.09 -12.72,11.43 -20.07,15.46zm-28.49 7.78c-12.14,0.21 -23.2,-3.71 -33.01,-9.95 0.89,-1.22 1.57,-2.71 1.57,-4.11 18.01,6.84 37.97,7.52 56.37,2.02 0.1,1.85 0.43,3.8 1.22,5.47 -7.96,3.98 -16.68,6.4 -26.16,6.57zm-35.13 -11.34c-5.24,-3.56 -10.11,-7.78 -14.58,-12.33 4.89,3.39 10.08,6.22 15.46,8.49 0.4,1.33 -0.12,2.66 -0.88,3.84zm-15.69 -104.1c0.14,0.63 0.25,1.26 0.32,1.92 0.16,1.49 2.23,1.44 2.32,-0.06 0.11,-1.82 -0.42,-3.57 -1.12,-5.24l0.5 -1.01c0.71,1.67 1.22,3.37 1.38,5.38 0.07,0.82 0.88,1.3 1.56,1.11 -2.72,1.67 -5.31,3.51 -7.72,5.43 0.81,-2.61 1.72,-5.12 2.75,-7.54zm117.69 29.44c0.72,-3.19 1.47,-6.31 2.3,-9.46l0.89 0.77c-0.6,1.37 -0.94,2.83 -1.31,4.29 -0.39,1.6 -0.89,3.23 -0.93,4.89 -0.04,1.15 1.8,1.67 2.27,0.56 0.64,-1.53 0.89,-3.19 1.27,-4.8 0.25,-1.02 0.52,-2.04 0.73,-3.06l1.05 1.06c-0.82,2.56 -2.02,5.13 -2.26,7.8 -0.14,1.44 1.9,1.39 2.32,0.26 0.69,-1.79 1.6,-3.72 2.09,-5.67l0.89 1.06c-0.3,0.61 -0.52,1.25 -0.75,1.89 -0.39,1.1 -0.83,2.22 -1.12,3.34 -0.28,1.11 1.21,2 2,1.1 0.77,-0.89 1.16,-1.93 1.52,-3.04l0.27 -0.8 0.85 1.17c-0.36,0.61 -0.68,1.24 -1,1.85 -0.44,0.83 -0.98,1.71 -1.11,2.65 -0.14,1.11 1.17,2.12 2.06,1.13 0.64,-0.72 1.04,-1.6 1.48,-2.44l0.31 -0.58 0.52 0.83c-0.12,0.51 -0.18,1.07 -0.33,1.53 -0.27,0.83 -0.72,1.62 -0.75,2.51 -0.04,1.16 1.34,1.4 2.07,0.79 0.43,-0.36 0.73,-0.92 0.95,-1.52 0.52,0.95 1.01,1.89 1.46,2.81 0.61,1.25 2.65,0.3 2.21,-1 -2.48,-7.22 -6.83,-13.24 -12.41,-18.4 -4.46,-4.12 -10.62,-8.98 -16.97,-10.11 0.97,-0.56 1.97,-1.08 2.99,-1.57 0.18,0.55 0.3,1.11 0.4,1.67 0.2,1.13 2.12,1.07 2.27,-0.06 0.14,-0.96 0.02,-1.85 -0.32,-2.67l0.82 -0.34 0.25 1c0.26,1.14 0.37,2.31 0.64,3.45 0.26,1.1 2.17,1.14 2.31,-0.06 0.18,-1.6 0.01,-3.62 -0.61,-5.3 0.58,-0.18 1.16,-0.35 1.73,-0.5 0.17,0.65 0.32,1.29 0.41,1.95 0.18,1.21 0.16,2.45 0.47,3.64 0.29,1.18 2.06,1.08 2.33,-0.05 0.42,-1.82 0.2,-4.16 -0.49,-6.12l0.95 -0.17c0.12,0.81 0.32,1.61 0.44,2.41 0.19,1.28 0.02,2.51 0.02,3.79 0,1.2 1.72,1.62 2.27,0.56 1.02,-1.97 0.75,-4.72 -0.02,-6.99 0.41,-0.02 0.83,-0.04 1.25,-0.03 0.08,0.46 0.18,0.91 0.29,1.38 0.27,1.16 0.23,2.13 0.03,3.29 -0.19,1.1 1.2,2.09 2.02,1.11 1.24,-1.46 1.11,-3.65 0.57,-5.57l0.98 0.15c0.01,0.48 0.08,0.96 0.13,1.44 0.11,1.04 0.09,2.05 0.04,3.09 -0.06,1.17 1.71,1.57 2.22,0.54 0.46,-0.95 0.55,-1.88 0.5,-2.93 -0.02,-0.46 -0.05,-0.95 -0.12,-1.45l0.86 0.31 0.16 1.14c0.12,0.64 0.11,1.27 0.12,1.92 0.02,0.97 1.41,1.66 2.07,0.8 0.56,-0.73 0.7,-1.62 0.6,-2.52 1.35,0.56 2.26,-1.38 1.04,-2.25 -5.24,-3.75 -12.19,-4.06 -18.37,-2.98 -4.1,0.72 -9.56,2.05 -13.29,4.89 0.15,-0.91 0.32,-1.81 0.53,-2.71 0.64,0.72 2.13,0.11 1.98,-0.89 -0.13,-0.87 -0.58,-1.65 -1.18,-2.29 0.11,-0.41 0.23,-0.83 0.35,-1.24l0.22 0.34c0.52,0.91 0.91,1.9 1.36,2.84 0.52,1.11 2.26,0.46 2.21,-0.66 -0.08,-1.99 -1.14,-4.48 -2.76,-5.9l0.26 -0.79c0.41,0.43 0.84,0.85 1.2,1.29 1.09,1.31 1.71,2.81 2.45,4.34 0.58,1.2 2.26,0.44 2.3,-0.68 0.06,-1.82 -0.74,-3.49 -1.79,-4.92 -0.8,-1.1 -1.91,-2.34 -3.11,-3.18 0.2,-0.61 0.42,-1.23 0.65,-1.87l0.72 0.67c0.93,0.95 1.72,2.01 2.38,3.16 0.71,1.25 2.41,0.28 2.16,-0.97 -0.29,-1.48 -1.02,-2.66 -1.99,-3.8 -0.58,-0.69 -1.34,-1.42 -2.18,-1.95l0.19 -0.49 0.41 0.34c0.71,0.57 1.36,1.2 2.04,1.81 0.84,0.75 2.54,-0.05 2.02,-1.24 -0.44,-1 -1.09,-1.75 -1.94,-2.42 -0.45,-0.34 -0.91,-0.7 -1.38,-1.03l0.48 -0.97c0.42,0.42 0.76,0.82 1.1,1.28 0.32,0.44 0.83,0.69 1.37,0.52 0.47,-0.14 0.93,-0.66 0.86,-1.18 -0.14,-0.97 -0.52,-1.68 -1.15,-2.41l-0.75 -0.71 0.6 -0.89c0.42,0.36 0.84,0.71 1.28,1.04 0.85,0.62 2.04,-0.47 1.71,-1.38 -0.24,-0.67 -0.72,-1.28 -1.32,-1.73l1.1 -1.08c0.99,-0.85 -0.37,-2.5 -1.43,-1.76 -4.89,3.43 -7.3,10.08 -9.36,15.48 -1.58,4.14 -2.95,8.5 -3.76,12.92 -3.27,-9.66 -9.46,-20.54 -19.06,-22.86 -1.24,-0.3 -2.08,1.6 -0.83,2.14l0.96 0.49c-0.48,0.66 -0.79,1.46 -0.64,2.15 0.15,0.69 0.9,0.93 1.51,0.81 0.65,-0.14 1,-0.72 1.31,-1.26l0.17 -0.32 0.89 0.65 -0.46 0.67c-0.38,0.57 -0.67,1.19 -0.92,1.83 -0.5,1.24 0.87,2.4 1.93,1.41 0.49,-0.45 0.87,-0.98 1.23,-1.53l0.36 -0.56 0.57 0.54c-0.36,0.4 -0.67,0.84 -0.99,1.27 -0.59,0.81 -1.02,1.63 -1.37,2.57 -0.41,1.11 1.32,2.05 2.03,1.12 0.7,-0.92 1.6,-1.84 2.2,-2.87l0.65 0.81c-0.6,0.54 -1.12,1.27 -1.59,1.84 -0.74,0.91 -1.37,1.84 -1.73,2.96 -0.4,1.21 1.23,1.89 2.03,1.11 0.74,-0.7 1.41,-1.47 2.08,-2.23 0.32,-0.37 0.69,-0.77 1.02,-1.2l0.47 0.74c-0.8,0.66 -1.49,1.54 -2.07,2.34 -0.92,1.28 -1.73,2.63 -1.88,4.23 -0.09,1.07 1.5,1.65 2.17,0.84 0.82,-1.02 1.36,-2.22 2.1,-3.3 0.37,-0.54 0.8,-1.02 1.22,-1.53l0.34 0.63c-0.65,0.7 -1.19,1.52 -1.74,2.31 -0.84,1.2 -1.65,2.5 -1.97,3.95 -0.3,1.35 1.5,2.02 2.2,0.86 0.64,-1.06 1.2,-2.15 1.89,-3.19 0.3,-0.46 0.63,-0.9 0.94,-1.35 0.25,0.52 0.5,1.04 0.73,1.56l-0.47 0.89c-0.47,0.95 -0.79,1.91 -0.51,2.97 0.3,1.12 1.66,1.02 2.22,0.23l0.31 -0.47c0.37,0.93 0.71,1.85 1.05,2.75 -9,-3.57 -23.1,-0.75 -29.9,5.05 -0.9,0.77 0.13,2.31 1.19,1.93 0.65,-0.23 1.3,-0.46 1.97,-0.7 -0.09,0.55 -0.13,1.1 -0.1,1.62 0.09,1.32 2.04,1.6 2.34,0.26 0.24,-1.01 0.59,-2.01 0.88,-3 0.53,-0.19 1.07,-0.37 1.61,-0.56 -0.59,2.13 -0.58,4.51 0.41,6.1 0.63,1 2.18,0.51 2.17,-0.65 -0,-1.33 -0.16,-2.56 0.05,-3.9 0.14,-0.9 0.42,-1.76 0.71,-2.62 0.45,-0.14 0.9,-0.27 1.36,-0.4 -0.99,2.31 -1.41,5 -0.66,7.19 0.43,1.24 2.31,0.97 2.3,-0.37 -0.02,-1.46 0.09,-2.82 0.47,-4.23 0.31,-1.16 0.81,-2.26 1.2,-3.39l1.21 -0.23c-1.06,2.31 -1.56,4.92 -1.49,7.44 0.03,1.37 2.08,1.62 2.4,0.27 0.64,-2.73 1.15,-5.45 2.03,-8.12 0.48,-0.04 0.95,-0.06 1.42,-0.08 -0.69,1.41 -1.11,3 -1.24,4.45 -0.11,1.17 1.81,1.64 2.26,0.55 0.4,-0.97 0.72,-1.96 1.07,-2.94 0.24,-0.68 0.54,-1.34 0.79,-2.02l0.86 0.09 -0.09 0.82c0.06,0.93 1.37,1.66 2.04,0.79 0.25,-0.33 0.51,-0.73 0.71,-1.15 0.66,0.17 1.31,0.38 1.96,0.63 -10.68,5.72 -14.16,19.64 -14.04,30.96 0.01,1.62 2.36,1.5 2.47,-0.06 0.09,-1.25 0.2,-2.48 0.34,-3.7 0.38,0.64 0.74,1.27 1.2,1.87 0.77,1.03 2.52,0.38 2.12,-0.96 -0.32,-1.07 -0.83,-2.08 -1.42,-3.02 -0.36,-0.59 -0.8,-1.23 -1.31,-1.76 0.08,-0.43 0.15,-0.87 0.24,-1.29 0.54,0.77 1.1,1.52 1.66,2.26 0.92,1.23 2.64,0.13 2,-1.24 -0.71,-1.52 -1.75,-2.9 -2.87,-4.17 0.2,-0.72 0.42,-1.43 0.67,-2.12 0.82,1.36 1.62,2.73 2.42,4.12 0.65,1.16 2.5,0.3 2.11,-0.95 -0.65,-2.12 -1.8,-4.44 -3.32,-6.21 0.25,-0.56 0.52,-1.11 0.8,-1.65 0.29,0.45 0.58,0.91 0.86,1.37 0.85,1.41 1.49,2.93 2.21,4.42 0.62,1.3 2.34,0.24 2.13,-0.96 -0.47,-2.59 -2.01,-5.19 -3.72,-7.34l0.72 -1.07c0.45,0.64 0.9,1.29 1.31,1.97 0.87,1.45 1.51,3.01 2.59,4.34 0.86,1.06 2.13,-0.21 1.96,-1.21 -0.27,-1.67 -1.24,-3.22 -2.09,-4.65 -0.55,-0.93 -1.18,-1.91 -1.95,-2.73l0.99 -1.08 0.18 0.25c0.45,0.77 0.79,1.6 1.35,2.3 0.84,1.03 2.5,0.41 2.17,-0.98 -0.24,-0.98 -0.67,-1.9 -1.16,-2.78l-0.47 -0.71c0.5,-0.42 1.01,-0.84 1.55,-1.23 4.66,17.55 6.22,35.6 5.04,53.72 -0.34,5.18 -1,10.37 -1.88,15.53 -16.07,13.17 -35.22,21.06 -56.18,21.35 -21.43,0.31 -41.41,-8.4 -57.71,-21.83 -0.71,-4.44 -1.27,-8.91 -1.67,-13.36 -1.65,-18.54 0.12,-37.34 4.88,-55.32 0.55,0.24 1.09,0.49 1.63,0.77 -2.78,3.92 -3.29,9.74 -1.8,14.13 0.44,1.29 2.66,1.06 2.46,-0.39 -0.32,-2.34 -0.31,-4.6 0.09,-6.94 0.32,-1.88 1.07,-3.6 1.69,-5.37 0.46,0.3 0.93,0.62 1.39,0.96 -2.36,4.34 -2.82,9.82 -1.74,14.53 0.32,1.39 2.5,1 2.44,-0.39 -0.17,-4.25 0.73,-8.26 1.61,-12.33 0.66,0.55 1.31,1.12 1.95,1.7 -2.76,3.78 -1.76,9.67 -1.04,13.92 0.24,1.39 2.38,0.94 2.38,-0.38 0,-3.97 -0.13,-7.64 0.97,-11.34 0.47,0.47 0.93,0.94 1.4,1.4 -2.08,3.46 -1.71,8.47 -1.1,12.17 0.23,1.43 2.45,0.96 2.44,-0.39 -0.02,-3.25 0.27,-6.27 1.02,-9.29l0.62 0.66 0.47 0.52c-1.76,4.35 -2.2,10.73 -0.17,14.71 0.58,1.14 2.44,0.53 2.36,-0.69 -0.16,-2.35 -0.32,-4.66 -0.18,-7.02 0.08,-1.38 0.32,-2.76 0.52,-4.13l0.95 1.12c-0.4,2.08 -0.3,4.35 -0.29,6.41 0,2.7 0.38,5.51 1.94,7.78 0.83,1.21 2.6,0.37 2.29,-1.03 -0.58,-2.6 -0.91,-5.13 -0.92,-7.8 -0.01,-0.52 0.01,-1.04 0.04,-1.57 0.33,0.42 0.65,0.85 0.98,1.27 -0.34,3.24 0.04,7.07 1.72,9.62 0.77,1.17 2.38,0.32 2.13,-0.95 -0.31,-1.59 -0.65,-3.13 -0.82,-4.74 1.12,1.44 2.23,2.87 3.37,4.28 1.02,1.25 3.09,0.11 2.2,-1.35 -4.46,-7.29 -9.32,-14.25 -15.13,-20.53 -3.67,-3.97 -9.86,-10.49 -15.91,-12.23 1.06,-0.65 2.11,-1.31 3.15,-1.96l0.24 0.5c0.41,0.86 0.69,1.9 1.24,2.68 0.69,0.95 2.34,0.62 2.29,-0.68 -0.04,-1 -0.56,-1.92 -0.99,-2.81l-0.59 -1.07c0.42,-0.26 0.85,-0.53 1.28,-0.79 1.09,2.6 2.15,4.98 1.88,8.03 -0.11,1.27 1.74,1.55 2.3,0.56 1.57,-2.77 0.13,-7.19 -1.83,-10.02 0.44,-0.26 0.88,-0.51 1.32,-0.77 0.55,0.92 1.03,1.86 1.39,2.92 0.56,1.64 0.71,3.38 1.15,5.05 0.28,1.07 2.13,1.13 2.28,-0.06 0.36,-2.98 -0.48,-6.72 -2.44,-9.25 0.51,-0.27 1.02,-0.54 1.53,-0.8 1.48,1.93 2.6,4.68 2.25,6.89 -0.18,1.1 1.24,2.18 2.08,1.14 1.99,-2.45 0.43,-6.69 -1.84,-9.25l1.17 -0.51c0.41,0.56 0.81,1.11 1.18,1.71 0.7,1.15 0.94,2.43 1.31,3.7 0.32,1.13 2.07,1.12 2.32,-0.05 0.47,-2.2 -0.56,-4.68 -2.13,-6.44 0.55,-0.2 1.1,-0.39 1.66,-0.57l0.61 1.02c0.54,0.91 0.68,1.75 0.79,2.78 0.12,1.14 1.67,1.69 2.27,0.56 0.89,-1.68 0.21,-3.61 -0.86,-5.19 0.42,-0.11 0.84,-0.19 1.26,-0.29l0.22 0.48c0.22,0.53 0.28,1.11 0.49,1.64 0.45,1.12 1.9,1.08 2.29,-0.05 0.29,-0.83 0.13,-1.76 -0.25,-2.6l0.78 -0.13c1.54,-0.21 1.57,-2.48 -0.05,-2.47 -7.87,0.04 -15.64,3.01 -22.63,7.21l0.2 -0.25c1.4,-2.62 -0.14,-6.42 -2.01,-8.99 0.26,-0.47 0.54,-0.94 0.82,-1.41 1.04,2.04 1.73,4.25 1.89,6.55 0.09,1.32 2.03,1.6 2.35,0.25 0.7,-2.98 -0.56,-6.85 -2.63,-9.41 0.29,-0.45 0.59,-0.89 0.89,-1.34 0.78,1.56 1.3,3.15 1.79,4.94 0.39,1.43 2.29,0.91 2.4,-0.38 0.19,-2.4 -0.81,-5.13 -2.49,-6.99l0.67 -0.9c0.4,1.02 0.73,2.06 1.12,3.11 0.45,1.2 2.39,1.02 2.31,-0.37 -0.09,-1.67 -0.66,-3.56 -1.66,-5.01l0.74 -0.92 0.18 1c0.08,0.53 0.33,0.98 0.89,1.12 0.56,0.14 1.36,-0.22 1.44,-0.86 0.17,-1.5 -0.15,-3.28 -1.27,-4.39l-0.16 -0.11c-0.44,-0.39 -1.14,-0.5 -1.71,0.05 -6.37,6.24 -12.96,14.72 -15.93,23.82 -0.83,-2.88 -1.88,-5.71 -2.88,-8.55 -2.18,-6.17 -4.77,-12.06 -9.03,-17.09 -0.58,-0.69 -1.48,-0.3 -1.83,0.36 -0.83,1.3 -1.47,2.73 -1.75,4.26 -0.28,1.46 1.84,2 2.25,0.56 0.18,-0.64 0.42,-1.24 0.67,-1.83l0.53 0.93c-1.49,2.59 -2.25,5.55 -2.21,8.55 0.01,1.3 2.09,1.58 2.31,0.26 0.33,-2.07 0.79,-4.06 1.4,-6.02 0.29,0.56 0.56,1.13 0.83,1.7 -1.23,3.68 -3.07,7.66 -2.54,11.6 0.16,1.2 2.17,1.69 2.33,0.26 0.32,-2.78 1.2,-5.43 1.87,-8.12 0.28,0.69 0.57,1.39 0.83,2.09 -0.61,1.75 -0.96,3.59 -1.35,5.41 -0.53,2.45 -1.29,4.92 -1.63,7.4 -0.17,1.25 1.52,2.13 2.18,0.86 1.07,-2.07 1.46,-4.39 1.93,-6.66 0.17,-0.8 0.35,-1.6 0.53,-2.41 0.21,0.62 0.41,1.24 0.61,1.86 -0.15,1.23 -0.25,2.47 -0.47,3.69 -0.29,1.66 -0.9,3.26 -1,4.94 -0.07,1.28 1.71,1.53 2.29,0.56 0.47,-0.78 0.83,-1.7 1.11,-2.68 0.48,1.68 0.93,3.37 1.39,5.06 -9.16,-2.66 -21.59,-0.74 -27.75,6.39 -0.83,0.98 0.32,2.55 1.46,1.8l0.92 -0.57c-0.03,0.66 -0.03,1.33 0.04,2 0.07,0.52 0.35,0.97 0.9,1.11 0.56,0.14 1.35,-0.22 1.43,-0.86 0.14,-1.21 0.1,-2.38 -0.01,-3.58 0.64,-0.33 1.28,-0.64 1.93,-0.92 -0.06,1.5 -0.02,3.03 0.15,4.43 0.15,1.24 2.19,1.7 2.36,0.26 0.22,-1.83 0.28,-3.83 0.12,-5.73 0.51,-0.19 1.04,-0.35 1.56,-0.51 -0.18,2.59 0.01,5.3 0.19,7.82 0.1,1.55 2.27,1.45 2.37,-0.06 0.19,-2.73 0.38,-5.68 0.12,-8.46 0.51,-0.12 1.02,-0.21 1.53,-0.3 -0.05,1.23 -0.05,2.47 0.05,3.68 0.11,1.52 2.21,1.42 2.32,-0.05 0.09,-1.3 0.09,-2.63 0.03,-3.94 0.55,-0.05 1.1,-0.09 1.66,-0.13 -0.03,0.58 -0.03,1.17 0.04,1.74 0.07,0.52 0.34,0.95 0.88,1.09 0.56,0.14 1.31,-0.22 1.39,-0.84 0.09,-0.67 0.1,-1.35 0.08,-2.03 1.28,0.02 2.56,0.11 3.84,0.28 -9.91,6.3 -16.16,17.5 -17.47,29.08 -0.17,1.59 2,2.23 2.47,0.61l0.26 -0.84c0.59,0.17 1.31,-0.12 1.5,-0.83 0.25,-0.95 0.03,-2.05 -0.26,-3.06 0.19,-0.54 0.38,-1.07 0.57,-1.58 0.15,0.9 0.32,1.8 0.54,2.68 0.33,1.3 2.32,0.94 2.28,-0.36 -0.06,-2.18 -0.25,-4.68 -0.93,-6.85 0.44,-0.94 0.9,-1.85 1.39,-2.74 0.22,1.96 0.3,3.92 0.31,5.97 0.01,1.32 2.09,1.59 2.35,0.26 0.58,-3.1 0.37,-6.55 -0.6,-9.63 0.52,-0.78 1.06,-1.54 1.64,-2.29 0.38,2.65 0.64,5.27 0.84,7.99 0.09,1.27 2.12,1.63 2.33,0.26 0.51,-3.39 0.15,-7.4 -1,-10.79l0.66 -0.72c0.06,0.64 0.14,1.27 0.22,1.88 0.19,1.53 2.19,1.44 2.35,-0.06 0.14,-1.3 0.08,-2.75 -0.18,-4.09 1.13,-0.99 2.34,-1.95 3.65,-2.89 -5.85,18.02 -7.16,37.31 -6.18,56.15 0.54,10.48 2.08,20.79 4.61,30.97 2.42,9.76 5.43,21.59 11.3,29.9 1.15,1.63 3.84,0.55 3.25,-1.47 -1.38,-4.72 -3.82,-9.16 -5.56,-13.78 -1.74,-4.61 -3.18,-9.34 -4.48,-14.1 -1.1,-4.03 -2.04,-8.12 -2.86,-12.24 13.67,17.08 32.82,29.78 55.28,30.44 22.47,0.66 42.35,-12.4 56.26,-29.22 -0.65,3.13 -1.36,6.25 -2.13,9.34 -1.2,4.78 -2.68,9.48 -4.31,14.14 -1.84,5.24 -4.63,10.19 -6.19,15.5 -0.61,2.1 2.22,2.87 3.33,1.3 5.87,-8.33 8.73,-20.19 11.27,-29.92 2.64,-10.15 3.94,-20.5 4.59,-30.96 1.15,-18.6 -0.36,-37.9 -6.08,-55.73 0.66,0.11 1.33,0.26 1.99,0.43 -0.15,0.41 -0.25,0.82 -0.31,1.29 -0.06,0.53 0.07,1.03 0.57,1.31 0.53,0.29 1.33,0.12 1.59,-0.46 0.22,-0.46 0.37,-0.92 0.49,-1.38l0.67 0.26c-0.94,2.05 -1.17,4.57 -1.1,6.74 0.04,1.37 2.03,1.58 2.37,0.26 0.49,-1.89 0.89,-3.9 1.16,-5.87l0.95 0.51c-1.27,2.89 -1.77,6.32 -1.88,9.41 -0.06,1.34 2.07,1.56 2.33,0.26 0.55,-2.76 1.25,-5.5 1.82,-8.26l0.97 0.68c-1.74,3.11 -2.53,7.34 -2.56,10.81 -0.01,1.34 2.04,1.55 2.33,0.25z"/>
  <path class="fil0" d="M162.55 194.43c0.3,-0.65 0.21,-1.44 -0.42,-1.8l-0.97 -0.22 -0.03 0c-11.99,-1.36 -24.37,-0.59 -36.41,-0.59 -13.81,0 -27.74,-0.43 -41.52,0.59 -1.99,0.15 -1.86,2.9 0.07,3.04 13.07,0.97 26.28,0.6 39.37,0.6 12.74,0 25.93,0.91 38.6,-0.59 0.69,-0.08 1.11,-0.52 1.3,-1.03z"/>
  <path class="fil0" d="M192.43 136.47c7.42,3.57 15.89,5.07 23.97,6.29 6.83,1.04 14.13,1.82 21.03,0.65 -0.33,1.75 -0.7,3.5 -1.11,5.23 -12.21,-0.98 -24.63,-0.31 -36.86,-0.16l-0.38 0.03c-3.2,0.09 -6.34,0.27 -9.53,0.5 -1.46,0.11 -1.37,2.14 0.06,2.25 3.2,0.24 6.34,0.42 9.55,0.5l0.38 0.04c11.95,0.14 24.08,0.79 36.02,-0.1 -0.41,1.54 -0.84,3.06 -1.31,4.58 -5.5,-0.42 -10.99,-0.31 -16.5,-0.3 -9.2,0.03 -18.79,-0.64 -27.91,0.46 -1.17,0.14 -1.61,2.07 -0.25,2.23 8.63,1.05 17.6,0.44 26.28,0.49 5.84,0.04 11.7,0.15 17.53,-0.23 -0.45,1.34 -0.92,2.66 -1.42,3.98l-0.41 -0.01c-2.11,-0.28 -4.2,-0.35 -6.34,-0.35 -5.92,0 -12.24,-0.59 -18.06,0.54 -1.12,0.22 -1.02,2 0.05,2.21 5.28,1.02 10.95,0.51 16.31,0.52 2.49,0.01 4.94,0.03 7.4,-0.27 -0.59,1.45 -1.19,2.88 -1.84,4.31l-0.14 -0.04c-9.2,-0.94 -19.82,-1.38 -28.96,0.13 -1.15,0.19 -1.05,2.08 0.06,2.27 8.76,1.45 18.91,1.08 27.85,0.22 -0.91,1.9 -1.88,3.77 -2.89,5.61 -7.63,-0.65 -16.08,-1.04 -23.64,0.19 -1.12,0.19 -1.02,2.04 0.06,2.22 7.02,1.16 14.85,0.87 22.04,0.31 -0.77,1.31 -1.56,2.62 -2.37,3.89 -4.87,-0.55 -9.78,-0.36 -14.67,-0.36 -5.3,0 -11.16,-0.68 -16.34,0.56 -1.12,0.27 -1.01,1.94 0.05,2.2 4.63,1.12 9.81,0.55 14.55,0.55 4.84,0 9.75,0.23 14.58,-0.16 -1.32,1.95 -2.69,3.85 -4.13,5.72 -0.32,-0.25 -0.75,-0.37 -1.24,-0.28 -6.93,-0.32 -13.94,0.11 -20.87,0.18 -5.18,0.06 -10.56,-0.33 -15.7,0.31 -1.52,-0.09 -1.99,2.48 -0.4,2.71l0.4 0.05c4.5,0.52 9.16,0.25 13.68,0.3 7.07,0.08 14.23,0.49 21.31,0.27 -21.68,26.13 -54.38,42.8 -90.9,42.8 -36.64,0 -69.44,-16.77 -91.12,-43.04 5.36,0.41 10.94,-0 16.21,0 7.2,0.01 14.93,0.84 22,-0.64 1.36,-0.29 1.23,-2.4 -0.06,-2.67 -6.46,-1.36 -13.43,-0.63 -20,-0.63 -6.84,0 -14.18,-0.65 -21.01,0.33 -1.15,-1.51 -2.26,-3.05 -3.33,-4.6 13.07,1.01 26.89,0.43 39.89,-0.24 1.6,-0.08 1.51,-2.37 -0.06,-2.45 -13.6,-0.7 -28.11,-1.32 -41.71,-0.1 -0.79,-1.22 -1.55,-2.45 -2.29,-3.69 8.61,0.9 17.99,0.22 26.43,-0.31 1.68,-0.1 1.58,-2.48 -0.06,-2.58 -8.99,-0.56 -19.01,-1.25 -28.07,-0.07 -0.76,-1.35 -1.5,-2.73 -2.21,-4.13 1.44,0.09 2.89,0.05 4.32,0.05 2.55,0.01 5.12,0.12 7.66,-0.13 0.86,0.09 1.25,-0.56 1.21,-1.24 0.08,-0.73 -0.35,-1.49 -1.28,-1.39 -2.18,-0.22 -4.39,-0.14 -6.58,-0.14 -2.2,0.01 -4.46,-0.13 -6.65,0.17 -0.74,-1.56 -1.45,-3.14 -2.12,-4.73 3.63,0.25 7.35,0.08 10.97,0.09 4.57,0.01 9.18,0.25 13.72,-0.28 1.27,-0.14 1.75,-2.25 0.27,-2.42 -8.17,-0.95 -17.78,-1.21 -26.09,-0.15 -0.58,-1.47 -1.12,-2.95 -1.64,-4.44 15.46,1.11 31.62,0.8 47.03,-0.09 0.85,0.05 1.23,-0.6 1.19,-1.26 0.03,-0.67 -0.39,-1.35 -1.25,-1.3 -15.69,-0.91 -32.15,-1.23 -47.86,-0.04 -0.51,-1.61 -1,-3.23 -1.44,-4.86 7.53,1.02 15.86,0.04 23.32,0.02 8.78,-0.01 17.55,-0.46 26.32,-0.89 1.58,-0.07 1.49,-2.35 -0.07,-2.43 -8.78,-0.43 -17.56,-0.75 -26.36,-0.89 -7.72,-0.12 -16.5,-1.06 -24.24,0.19 -0.34,-1.44 -0.65,-2.9 -0.94,-4.37 6.93,1.79 15.57,0.42 22.17,-0.23 9.34,-0.93 21.54,-2.01 29.25,-7.89 1,-0.76 0.37,-2.71 -0.97,-2.17 -9.16,3.72 -18.53,5.67 -28.35,6.74 -7.21,0.79 -15.36,1.65 -22.66,0.42 -1.07,-6.37 -1.63,-12.91 -1.63,-19.58 0,-0.73 0.02,-1.45 0.03,-2.17 2.84,-1.54 5.46,-2.65 8.96,-2.1 4.8,0.76 6.53,4.82 7.23,9.11 0.24,1.46 2.36,0.92 2.42,-0.39 0.04,-0.79 -0.01,-1.55 -0.14,-2.28 2.1,-1.38 4.71,-1.67 7.13,-0.93 4.03,1.23 4.79,5.69 4.7,9.32 -0.05,1.4 2.27,1.68 2.47,0.27 0.68,-4.89 -0.9,-9.88 -5.7,-11.96 -3.04,-1.31 -6.63,-0.96 -9.33,0.85 -2.78,-6.33 -11.61,-9.17 -17.64,-5.43 0.32,-6.56 1.17,-12.97 2.51,-19.2 4.73,-3.62 11.21,-3.86 15.95,0.1 4.03,3.37 4.37,9.36 3.94,14.18 -0.12,1.38 2.04,1.53 2.35,0.26 0.15,-0.59 0.27,-1.2 0.37,-1.82 3.77,-3.69 11.2,-1.42 9.44,4.54 -0.38,1.29 1.63,2.1 2.22,0.87 1.48,-3.12 0.44,-5.92 -1.62,-7.77 1.37,-2.05 3.29,-3.05 5.87,-3.52 1.35,-0.24 0.92,-2.31 -0.37,-2.3 -3.04,0.01 -6.42,1.52 -7.83,4.31 -2.42,-1.1 -5.3,-1.2 -7.45,0.16 -0.1,-4.7 -1.83,-9.36 -5.87,-12.13 -4.63,-3.17 -11.27,-3.75 -16.04,-0.9 12.94,-51.17 59.36,-89.15 114.5,-89.15 52.1,0 96.44,33.93 112.07,80.85 -6.44,1.39 -11.07,8.33 -10.7,14.8 -4.25,0.63 -8,3.79 -8.69,8.47 -0.21,1.45 1.79,1.99 2.22,0.56 1.6,-5.36 6.53,-8.05 11.82,-5.86 1.37,0.56 2.5,-1.32 1.14,-2.06 -1.23,-0.67 -2.54,-1.04 -3.85,-1.18 0.24,-2.46 0.85,-4.73 2.14,-6.93 1.59,-2.71 4.05,-4.04 6.74,-5.23 1.23,3.98 2.25,8.06 3.05,12.21 -4.25,1.44 -7.6,5.96 -7.52,10.51 -6.31,0.84 -13.1,4.33 -16.25,9.49 -3.76,-1.96 -9.24,-1.37 -12.33,1.59 -1.27,-1.85 -2.92,-3.45 -4.81,-4.68 1.71,-1.34 3.33,-2.59 5.62,-3.14 1.34,-0.32 0.94,-2.37 -0.37,-2.35 -3.02,0.04 -5.62,2.07 -7.7,4.16 -1.06,-0.47 -2.16,-0.82 -3.29,-1.04 -1.45,-0.28 -1.95,1.77 -0.55,2.22 6.06,1.92 10.12,6.61 11.55,12.73 0.3,1.3 2.41,0.95 2.31,-0.37 -0.14,-1.83 -0.63,-3.58 -1.4,-5.21 2.78,-2.32 6.57,-3.06 9.87,-1.61 -0.5,1.38 -0.75,2.84 -0.68,4.39 0.07,1.42 1.98,1.55 2.4,0.27 3.03,-9.21 12.57,-15.85 22.5,-13.75 1.5,0.32 2.04,-1.87 0.58,-2.31 -1.4,-0.42 -2.96,-0.61 -4.58,-0.61 0.74,-3.34 2.02,-6.3 5.14,-7.77 1.1,6.48 1.69,13.14 1.69,19.93 0,6.4 -0.52,12.69 -1.51,18.82 -7.57,0.23 -14.98,0.05 -22.52,-1.02 -7.54,-1.07 -14.8,-3.23 -22.21,-4.84 -1.24,-0.27 -2.04,1.53 -0.84,2.11zm-71.02 -136.47c-66.94,0 -121.41,54.46 -121.41,121.4 0,9.87 1.2,19.48 3.43,28.67 -0.07,0.48 0.04,0.99 0.33,1.38 4.09,15.99 11.36,30.71 21.09,43.46l0.64 0.84c22.23,28.61 56.95,47.05 95.91,47.05 66.94,0 121.4,-54.46 121.4,-121.4 0,-66.94 -54.46,-121.4 -121.4,-121.4z"/>
  <path class="fil0" d="M172.75 148.51c-16.32,-1.46 -33.12,-0.45 -49.5,-0.42 -8.78,0.01 -17.57,-0.01 -26.36,0.07 -8.63,0.08 -17.82,-0.85 -26.35,0.48 -1.23,0.19 -1.75,2.17 -0.26,2.41 7.97,1.24 16.44,0.42 24.49,0.5 8.79,0.07 17.57,0.06 26.36,0.08 17.08,0.04 34.65,1.11 51.67,-0.42 1.77,-0.16 1.65,-2.55 -0.07,-2.7z"/>
  <path class="fil0" d="M128.18 158.23c1.58,-0.13 1.47,-2.29 -0.06,-2.41 -7.05,-0.58 -14.15,-0.35 -21.21,-0.35 -7,0 -14.28,-0.55 -21.2,0.43 -1.15,0.16 -1.61,2.02 -0.25,2.22 6.37,0.9 12.97,0.46 19.39,0.46 7.77,0.01 15.58,0.3 23.33,-0.34z"/>
  <path class="fil0" d="M160.69 158.03c1.32,-0.17 1.83,-2.33 0.28,-2.54 -7.21,-0.95 -15.46,-0.97 -22.65,0.11 -1.16,0.17 -1.63,2.04 -0.25,2.25 7.18,1.07 15.42,1.13 22.62,0.18z"/>
  <path class="fil0" d="M106.67 165c5.23,0.69 10.58,0.47 15.85,0.48 6.2,0.02 12.44,0.29 18.62,-0.31 1.67,-0.16 1.55,-2.39 -0.07,-2.55 -5.54,-0.54 -11.11,-0.33 -16.67,-0.31 -5.79,0.01 -11.74,-0.3 -17.48,0.45 -1.16,0.15 -1.62,2.05 -0.25,2.23z"/>
  <path class="fil0" d="M187.93 166.11c3.38,0.62 7.08,0.3 10.5,0.1 1.57,-0.09 1.48,-2.33 -0.06,-2.42 -3.42,-0.2 -7.1,-0.5 -10.49,0.12 -1.12,0.2 -1.01,2 0.05,2.2z"/>
  <path class="fil0" d="M194.01 177.59c-2.6,-0.43 -5.17,-0.24 -7.77,0.05 -1.18,0.13 -1.61,2.09 -0.24,2.24 2.71,0.3 5.36,0.51 8.06,0.07 1.2,-0.2 1.09,-2.17 -0.06,-2.36z"/>
  <path class="fil0" d="M81.51 180.16c1.17,0.02 2.27,-0.03 3.43,-0.15 1.6,-0.17 1.49,-2.28 -0.06,-2.45 -1.16,-0.12 -2.27,-0.17 -3.43,-0.15 -1.28,0.02 -2.86,-0.21 -4.01,0.42 -0.74,0.41 -0.66,1.54 0.05,1.94 1.13,0.62 2.78,0.37 4.03,0.39z"/>
  <path class="fil0" d="M80.42 186.69c5.02,-0.93 10.36,0.48 15.44,-0.36 0.72,-0.12 0.97,-0.68 0.88,-1.24 0.05,-0.55 -0.22,-1.11 -0.94,-1.23 -5.08,-0.84 -10.42,0.58 -15.46,-0.36 -2.6,-0.48 -2.63,3.68 0.08,3.18z"/>
  <path class="fil0" d="M168.13 179.43c1.25,-0.14 1.71,-2.21 0.26,-2.37 -2.39,-0.28 -5.14,-0.4 -7.5,0.09 -1.11,0.23 -1.01,1.96 0.06,2.18 2.24,0.46 4.92,0.37 7.19,0.1z"/>
  <path class="fil0" d="M166.64 185.14c0.04,-0.64 -0.34,-1.29 -1.17,-1.23 -5.13,-0.41 -11.15,-0.84 -16.17,0.11 -1.11,0.21 -1.01,1.99 0.06,2.2 5,0.95 11.05,0.51 16.17,0.09 0.8,0.07 1.16,-0.55 1.11,-1.17z"/>
  <path class="fil0" d="M44.68 166.93c4.02,0.75 8.99,0.76 13.03,0.06 1.18,-0.21 1.08,-2.14 -0.06,-2.34 -4.02,-0.71 -9.01,-0.65 -13.02,0.09 -1.11,0.2 -1.01,1.99 0.05,2.19z"/>
  <path class="fil0" d="M60.35 171.77c-8.23,-0.6 -17.45,-1.17 -25.62,0.07 -1.18,0.18 -1.67,2.07 -0.26,2.29 8.28,1.25 17.59,0.71 25.93,0.1 1.61,-0.12 1.5,-2.34 -0.06,-2.45z"/>
  <path class="fil0" d="M61.24 178.67c-2.75,-0.34 -5.62,-0.37 -8.34,0.13 -1.1,0.2 -1,1.98 0.05,2.17 2.6,0.48 5.4,0.49 8.01,0.16 1.29,-0.16 1.78,-2.28 0.28,-2.46z"/>
  <path class="fil0" d="M66.99 207.56l-0.62 0.22c-0.82,0.41 -0.72,1.71 0.04,2.09l0.64 0.2c0.83,0.14 1.64,-0.41 1.62,-1.3 -0.02,-0.92 -0.85,-1.36 -1.67,-1.21z"/>
  <path class="fil0" d="M99.78 205.72l-1.06 -0.09 -0.49 0.18c-0.51,0.15 -0.87,0.65 -0.85,1.19 0.01,0.71 0.58,1.13 1.23,1.18l0.61 -0.04 0.06 -0.03c0.61,0 1.21,-0.41 1.22,-1.17 0.01,-0.51 -0.25,-1 -0.72,-1.22z"/>
  <path class="fil0" d="M121.86 206.34l0.04 -0.41 -0.45 -1.01c-0.66,-0.75 -1.8,-0.32 -2.27,0.36l0.03 1.23 0.49 0.47c0.57,0.71 1.76,0.51 2.08,-0.46l0.09 -0.19z"/>
  <polygon class="fil0" points="133.23,214.31 133.24,214.29 "/>
  <polygon class="fil0" points="133.23,214.31 133.23,214.32 133.23,214.35 "/>
  <path class="fil0" d="M132.28 212.73l-0.98 0.07c-0.4,0.17 -0.7,0.41 -0.81,0.86 -0.11,0.44 0.08,1 0.48,1.25 0.55,0.95 2.12,0.71 2.26,-0.6l0.04 -0.36c-0.07,-0.56 -0.39,-1.11 -0.98,-1.23z"/>
  <path class="fil0" d="M173.95 210.56l0.07 -0.31c0.25,-0.8 -0.47,-1.61 -1.27,-1.59 -0.84,0.02 -1.44,0.85 -1.2,1.65l0.07 0.31c0.23,1.18 2.1,1.07 2.32,-0.06z"/>
  <path class="fil0" d="M149.93 205.08c-0.49,-0.12 -1.12,0.1 -1.35,0.58l-0.19 0.63c-0.14,0.81 0.4,1.62 1.28,1.6 0.91,-0.03 1.34,-0.85 1.2,-1.66l-0.08 -0.34c-0.18,-0.4 -0.42,-0.7 -0.86,-0.81z"/>
  <path class="fil0" d="M180.15 204.05l0.37 -0c1.44,-0.01 1.38,-2.21 -0.05,-2.23l-0.37 -0c-1.44,-0.01 -1.39,2.26 0.05,2.24z"/>
  <path class="fil0" d="M195.24 204.17c0.69,0.08 1.37,-0.19 1.55,-0.93 0.19,-0.75 -0.43,-1.7 -1.27,-1.59l-0.97 0.27c-0.79,0.49 -0.7,1.59 0.05,2.05l0.64 0.2z"/>
  <path class="fil0" d="M183.46 210.33l0.94 -0.18c0.52,-0.41 0.82,-1.31 0.18,-1.8 -0.37,-0.29 -0.73,-0.36 -1.19,-0.32 -1.51,0.1 -1.41,2.21 0.06,2.31z"/>
  <path class="fil0" d="M162.46 216.07l-0.36 0.04c-0.51,0.06 -0.95,0.34 -1.09,0.87 -0.14,0.54 0.22,1.31 0.84,1.39l0.36 0.04c0.64,0.08 1.27,-0.18 1.43,-0.86 0.18,-0.7 -0.4,-1.57 -1.18,-1.48z"/>
  <path class="fil0" d="M162.46 203.93c-1.55,0 -1.49,2.41 0.06,2.41 1.56,0 1.49,-2.41 -0.06,-2.41z"/>
  <path class="fil0" d="M136.75 200.86c-1.72,0 -1.66,2.67 0.07,2.67 1.72,0 1.65,-2.67 -0.07,-2.67z"/>
  <path class="fil0" d="M144.15 210.19l-0.05 -0.01 -0.09 0c-0.78,-0.01 -1.14,0.59 -1.12,1.19 0.01,0.61 0.4,1.21 1.18,1.2l0.1 0 0.05 -0.01c0.73,-0.05 1.46,-0.34 1.44,-1.21 -0.02,-0.89 -0.78,-1.12 -1.5,-1.16z"/>
  <path class="fil0" d="M116.66 216.45c0.17,-0.7 -0.41,-1.63 -1.21,-1.51l-0.36 0.05c-0.52,0.08 -0.96,0.33 -1.1,0.88 -0.14,0.57 0.23,1.31 0.85,1.41l0.36 0.06c0.65,0.1 1.31,-0.2 1.47,-0.89z"/>
  <path class="fil0" d="M107.37 202.85c-0.64,0.06 -1.17,0.53 -1.15,1.21 0.01,0.71 0.57,1.09 1.2,1.16l0.97 -0.17c0.79,-0.53 0.7,-1.56 -0.05,-2.07l-0.97 -0.13z"/>
  <path class="fil0" d="M85.83 215.39l-0.05 -0.37c-0.08,-0.51 -0.33,-0.95 -0.87,-1.09 -0.56,-0.14 -1.3,0.22 -1.39,0.84l-0.05 0.36c-0.1,0.64 0.19,1.29 0.87,1.46 0.68,0.17 1.62,-0.41 1.49,-1.2z"/>
  <path class="fil0" d="M87.9 202.78c-1.62,0 -1.55,2.5 0.06,2.5 1.62,0 1.55,-2.5 -0.06,-2.5z"/>
  <path class="fil0" d="M73.21 220.1l-0.37 0.02c-1.53,0.07 -1.44,2.29 0.06,2.36l0.37 0.01c1.54,0.07 1.5,-2.46 -0.06,-2.39z"/>
  <path class="fil0" d="M78.72 205.05c-1.54,0 -1.48,2.38 0.06,2.38 1.53,0 1.48,-2.38 -0.06,-2.38z"/>
  <path class="fil0" d="M57.42 211.66l-0.37 0.04c-1.51,0.14 -1.4,2.17 0.06,2.31l0.36 0.03c1.51,0.14 1.49,-2.52 -0.06,-2.37z"/>
  <path class="fil0" d="M59.25 204.18c-1.7,0 -1.63,2.63 0.07,2.63 1.7,0 1.63,-2.63 -0.07,-2.63z"/>
  <path class="fil0" d="M43.51 201.8l-1 0.52c-1.08,0.69 -0.31,2.56 0.94,2.08 0.46,-0.17 0.9,-0.33 1.26,-0.66 0.39,-0.35 0.42,-1.01 0.15,-1.43 -0.3,-0.48 -0.82,-0.61 -1.35,-0.51z"/>
  <path class="fil0" d="M71.37 199.53c-1.55,0 -1.49,2.4 0.07,2.4 1.54,0 1.49,-2.4 -0.07,-2.4z"/>
  <path class="fil0" d="M172 219.54l0.03 0.99c0.25,1.15 2.01,1.04 2.26,-0.05l0 -1c-0.24,-1.16 -2.07,-1.05 -2.29,0.06z"/>
  <path class="fil0" d="M119.04 118.39c-4.95,0.21 -9.86,0.74 -14.75,1.52 -0.32,-0.53 -0.61,-1.07 -0.79,-1.69 -0.25,-0.83 -0.37,-1.65 -0.74,-2.44 -0.53,-1.15 -2.31,-0.47 -2.27,0.67 0.04,1.22 0.3,2.73 0.94,3.94 -11.31,2.04 -22.41,5.42 -33.13,9.46 -1.34,0.51 -0.75,2.58 0.65,2.16 16.01,-4.72 31.9,-9.73 48.7,-10.51 9.28,-0.43 18.61,0.39 27.72,2.14 10.77,2.06 20.89,6.35 31.56,8.63 1.51,0.32 2.4,-1.78 1,-2.54 -9.58,-5.23 -21.02,-7.64 -31.71,-9.5 -8.98,-1.55 -18.08,-2.22 -27.18,-1.84z"/>
  <path class="fil0" d="M100.6 102.56c-0.3,1.43 1.85,1.98 2.22,0.55 3.67,-14.29 19.83,-20.72 33.18,-16.67 5.45,1.65 9.91,5.32 12.83,10.15 4.14,6.85 2.72,14.66 2.4,22.17 -0.07,1.67 2.22,1.66 2.72,0.3 5.44,-15.01 -2.21,-30.93 -17.14,-35.86 -14.62,-4.83 -32.96,3.84 -36.2,19.36z"/>
  <path class="fil0" d="M58.23 110.57c-5.25,-1.52 -10.35,3.8 -9.44,8.94 -3.04,0.56 -5.74,2.68 -6.35,6.1 -0.24,1.34 1.42,1.96 2.17,0.85 1.2,-1.78 1.97,-3.48 4.12,-4.26 2.09,-0.78 4,0.32 5.84,1.17 1.19,0.54 2.47,-0.97 1.41,-1.92 -1.25,-1.12 -2.77,-1.76 -4.35,-1.98 -0.1,-1.55 0.05,-2.93 0.92,-4.39 1.08,-1.82 3.1,-2.52 5.12,-2.22 1.47,0.22 2.04,-1.85 0.56,-2.27z"/>
  <path class="fil0" d="M77.38 117.1c-0.1,1.35 2.04,1.53 2.33,0.26 0.17,-0.73 0.22,-1.44 0.18,-2.12 3.94,-0.68 7.07,2.2 7.95,6.11 0.29,1.29 2.46,0.95 2.3,-0.37 -0.67,-5.47 -5.46,-9.44 -10.79,-8.05 -1.96,-4.6 -8.58,-6.86 -12.61,-2.71 -0.9,0.92 0.32,2.42 1.41,1.73 4.26,-2.68 9.62,-0.23 9.24,5.13z"/>
  <path class="fil0" d="M168.1 119.27c1.54,-4.94 6.48,-6.29 11.02,-4.66 1.28,0.46 1.92,-1.49 0.83,-2.14 -4.14,-2.47 -10.22,-0.97 -12.83,2.96 -2.87,-1.96 -6.94,-1.46 -9.19,1.41 -0.88,1.12 0.69,2.67 1.62,1.54 1.78,-2.16 4.45,-2.22 6.55,-0.73l-0.21 1.06c-0.17,1.43 1.77,1.99 2.21,0.55z"/>
  <path class="fil0" d="M98.89 54.45c1.7,0 1.63,-2.63 -0.07,-2.63 -1.7,0 -1.63,2.63 0.07,2.63z"/>
  <path class="fil0" d="M127.27 43.42c0.64,-0.77 -0.11,-2.02 -1.07,-1.99 -0.97,0.02 -1.57,1.2 -1.03,1.96 0.35,0.93 1.7,0.91 2.1,0.03z"/>
  <path class="fil0" d="M137.06 52.2c-0.35,-1.22 -2.08,-1.09 -2.4,0.06l0.09 0.9c0.12,0.4 0.37,0.72 0.83,0.84 0.58,0.14 1.35,-0.23 1.44,-0.87l0.01 -0.04 0.05 -0.17 -0.02 -0.71z"/>
  <path class="fil0" d="M125.73 63.15c1.11,-0.36 1,-1.85 -0.06,-2.19l-0.58 -0.07c-1.48,-0.1 -1.46,2.45 0.06,2.33l0.57 -0.08z"/>
  <path class="fil0" d="M175.49 53.44c0.58,0.14 1.34,-0.23 1.43,-0.86l-0.06 0.08 0.15 -0.67c0.01,-1.6 -2.48,-1.53 -2.48,0.06l0.12 0.5c0.11,0.43 0.37,0.77 0.83,0.89z"/>
  <path class="fil0" d="M180.43 32.06c1.62,0 1.56,-2.51 -0.06,-2.51 -1.62,0 -1.56,2.51 0.06,2.51z"/>
  <path class="fil0" d="M205.62 58.75c1.1,-0.33 1.74,-1.53 1.4,-2.62 -0.38,-1.26 -1.99,-1.95 -3.12,-1.18 -0.65,0.44 -1.01,1.03 -0.99,1.84 0.04,1.37 1.4,2.35 2.71,1.96z"/>
  <path class="fil0" d="M38.76 62.87l0.21 0.19c1.19,1.15 3.22,0.22 3.18,-1.41 -0.03,-1.63 -1.95,-2.32 -3.13,-1.33 -0.74,0.59 -1.16,1.85 -0.26,2.55z"/>
  <polygon class="fil0" points="38.91,60.4 39.02,60.33 39.03,60.32 "/>
  <path class="fil0" d="M43.06 49.8c1.72,0 1.65,-2.66 -0.07,-2.66 -1.72,0 -1.64,2.66 0.07,2.66z"/>
  <path class="fil0" d="M22.61 72.89c-1.55,0 -1.49,2.42 0.07,2.42 1.56,0 1.49,-2.42 -0.07,-2.42z"/>
  <path class="fil0" d="M65.23 49.48l0.02 0.01 0.86 0.19c0.76,0.06 1.38,-0.73 1.36,-1.43 -0.02,-0.72 -0.67,-1.43 -1.43,-1.36l-0.52 0.07 -0.2 0.09 -0.15 0.05c-1.2,0.44 -1.07,1.96 0.06,2.38z"/>
  <polygon class="fil0" points="64.01,27.66 64.06,27.67 "/>
  <polygon class="fil0" points="64.06,27.67 64.08,27.69 64.1,27.69 "/>
  <path class="fil0" d="M62.26 29.39l0.02 0.09c0.28,1.06 1.7,1.34 2.42,0.58 0.74,-0.78 0.37,-2.04 -0.62,-2.36l-0.72 -0.17c-0.66,-0.06 -1.29,0.66 -1.23,1.29l0.06 0.42 0.06 0.15z"/>
  <path class="fil0" d="M218.27 87.08c1.47,0 1.41,-2.28 -0.06,-2.28 -1.47,0 -1.42,2.28 0.06,2.28z"/>
  <polygon class="fil0" points="105.41,75.58 105.44,75.62 "/>
  <polygon class="fil0" points="105.48,75.7 105.47,75.65 105.44,75.62 "/>
  <path class="fil0" d="M105.47 75.65c0.44,1.16 2.07,1.04 2.45,-0.1l-0.03 0.09 0.04 -0.09 0.01 -0.03 0.01 -0.03c0.35,-0.89 -0.3,-1.93 -1.31,-1.91 -1.09,0.02 -1.62,1.17 -1.16,2.08z"/>
  <path class="fil0" d="M152.15 60.09c1.47,0 1.42,-2.28 -0.05,-2.28 -1.48,0 -1.42,2.28 0.05,2.28z"/>
  <path class="fil0" d="M148.29 48.55l0.22 0.04c0.67,0.27 1.34,-0.32 1.53,-0.92l-0.04 -0.89c-0.17,-0.39 -0.42,-0.7 -0.86,-0.82 -0.43,-0.1 -0.94,0.07 -1.21,0.43 -0.8,0.46 -0.64,2.02 0.37,2.16z"/>
 </g>
</svg>
