<?xml version="1.0" encoding="UTF-8"?>
<svg xmlns="http://www.w3.org/2000/svg" xml:space="preserve" width="0.747346in" height="0.747331in" version="1.1" style="shape-rendering:geometricPrecision; text-rendering:geometricPrecision; image-rendering:optimizeQuality; fill-rule:evenodd; clip-rule:evenodd"
viewBox="0 0 105.81 105.81"
 xmlns:xlink="http://www.w3.org/1999/xlink"
 xmlns:xodm="http://www.corel.com/coreldraw/odm/2003">
 <defs>
  <style type="text/css">
   <![CDATA[
    .fil0 {fill:black;fill-rule:nonzero}
   ]]>
  </style>
 </defs>
 <g id="Layer_x0020_1">
  <metadata id="CorelCorpID_0Corel-Layer"/>
  <path class="fil0" d="M104.24 54.97c-4.41,-0.25 -8.86,-0.23 -13.31,-0.17 0.28,-0.28 0.55,-0.56 0.82,-0.8 0.72,-0.67 1.38,-1.4 1.93,-2.21 0.34,-0.51 -0.44,-1.04 -0.84,-0.62 -0.64,0.68 -1.31,1.33 -1.99,1.98 -0.55,0.53 -1.28,1.04 -1.73,1.68 -3.12,0.05 -6.23,0.11 -9.33,0.11 -0.29,0 -0.57,0 -0.86,0 2.44,-1.45 4.82,-3 7.25,-4.48 2.52,-1.54 5.57,-2.57 7.56,-4.83 0.44,-0.49 -0.24,-1.11 -0.73,-0.69 -2.2,1.91 -5,2.98 -7.49,4.46 -3.1,1.84 -6.12,3.8 -9.27,5.55 -2.07,0.01 -4.15,0.02 -6.22,0.03 0.9,-0.65 1.69,-1.54 2.46,-2.27 0.47,-0.45 -0.16,-1.13 -0.69,-0.84 -1.65,0.9 -2.58,2.54 -4.5,3.02l-0.22 0.12c-2.57,0.02 -5.15,0.05 -7.72,0.07l0.12 -0.03c2.84,-0.86 5.71,-2.36 7.75,-4.54 0.52,-0.56 -0.28,-1.27 -0.84,-0.8 -2.19,1.83 -4.63,3.06 -7.33,3.96 -2.55,0.85 -5.05,0.78 -7.63,1.16 -0.21,0.03 -0.36,0.15 -0.45,0.3 -3.64,0.01 -7.27,0 -10.91,-0.01 1.51,-1.16 2.81,-2.79 4.06,-4.01 0.42,-0.41 -0.15,-1.1 -0.64,-0.79 -1.07,0.69 -1.93,1.67 -2.81,2.58 -0.84,0.87 -1.72,1.59 -2.72,2.21 -4.45,-0.02 -8.91,-0.05 -13.37,-0.06 0.49,-0.38 0.98,-0.77 1.48,-1.13 1.55,-1.11 3.21,-1.57 5.03,-1.99 2.57,-0.59 4.47,-1.55 5.93,-3.8 0.33,-0.51 -0.47,-1.1 -0.86,-0.63 -2.1,2.52 -4.83,2.8 -7.79,3.68 -2.22,0.66 -4.34,2.29 -6.08,3.86 -2.99,-0 -5.98,0 -8.97,0.02 0.42,-0.34 0.8,-0.75 1.11,-1.18 0.36,-0.49 -0.42,-1 -0.82,-0.6 -0.81,0.81 -1.7,1.49 -2.82,1.79l-0.05 0.02c-3.08,0.03 -6.17,0.08 -9.25,0.15 -0.02,-0.5 -0.04,-1 -0.04,-1.5 0.74,-0.17 1.45,-0.53 2.1,-0.88 0.63,-0.34 1.85,-0.81 1.87,-1.64 0.01,-0.26 -0.19,-0.48 -0.43,-0.54 -0.65,-0.19 -1.45,0.6 -1.97,0.91 -0.52,0.31 -1.05,0.58 -1.58,0.85 0.05,-4.83 0.76,-9.5 2.06,-13.93 1.92,-0.03 3.44,-0.71 5.42,0.26 1.26,0.62 2.43,1.67 3.88,1.8 1.59,0.13 2.45,-0.37 3.69,-1.29 1.25,-0.93 3.1,0.08 4.71,0.57 -0.2,0.13 -0.4,0.26 -0.6,0.39 -0.56,0.35 -0.04,1.18 0.54,0.87 2.86,-1.55 5.6,-3.51 8.32,-5.3 1.64,-1.08 3.41,-2.2 5.35,-1.19 0.59,0.31 1.36,0.73 2.11,0.83 -0.58,0.6 -1.11,1.27 -1.45,2.02 -0.27,0.6 0.54,1.06 0.89,0.49 0.45,-0.74 1.01,-1.4 1.62,-2.02 0.66,-0.66 1.44,-1.08 2.15,-1.65 1.65,-1.03 3.14,-2.45 4.72,-3.47 1.63,-1.05 2.24,0.27 3.5,0.98 1.59,0.9 3.24,1.72 4.89,2.52l-0.51 0.24c-0.61,0.27 -0.36,1.25 0.31,1.02 3.5,-1.2 6.4,-3.68 9.25,-5.96 1.44,-1.16 3.02,-2.67 4.75,-3.38 0.85,-0.35 2.81,1.85 3.66,2.08l0.05 0.01c-0.31,0.38 -0.6,0.79 -0.86,1.19 -0.61,0.95 -1.19,1.8 -2.05,2.54 -0.49,0.43 0.17,1.04 0.66,0.81 0.93,-0.43 1.5,-1.29 2.04,-2.14 0.57,-0.89 1.12,-1.65 1.88,-2.35 0.57,-0.21 1.7,-0.74 1.98,-0.6 0.83,0.42 1.71,1.1 2.62,1.33 1.5,0.39 2.42,2.59 3.44,3.71 0.24,0.27 1.82,1.23 2.54,1.47l-0.18 0.19c-2.36,2.59 -5.07,4.67 -7.59,7.09 -0.45,0.43 0.18,1.21 0.68,0.85 2.13,-1.52 4.17,-3.22 6.15,-4.94 0.68,-0.59 1.23,-1.32 1.81,-1.99 0.18,-0.21 0.37,-0.38 0.55,-0.53l0.26 -0.2c0.85,-0.59 1.77,-0.68 2.97,-0.65 0.75,0.02 0.77,-1.02 0.13,-1.24 -1.24,-0.42 -2.32,-0.27 -3.28,0.26 -0.19,-0.14 -0.39,-0.21 -0.67,-0.32 -1.27,-0.48 -2.09,-0.81 -2.99,-1.94 -0.77,-0.98 -1.62,-2.66 -2.9,-3.07 -0.99,-0.31 -1.87,-0.87 -2.79,-1.34 -1.53,-0.77 -2.89,0.99 -4.6,0.12 -1.04,-0.52 -1.75,-1.49 -2.91,-1.79 -1.09,-0.28 -2.27,0.73 -3.06,1.31 -3.31,2.4 -6.27,5.34 -9.8,7.41l-0.25 -0.19c-1.85,-0.87 -3.67,-1.8 -5.47,-2.77 -0.67,-0.36 -1.43,-1.41 -2.26,-1.44 -3.14,-0.1 -5.57,2.94 -8.13,4.45 -2.12,1.25 -3.11,-0.85 -5,-0.74 -1.36,0.08 -2.51,0.58 -3.69,1.23 -2.61,1.43 -5,3.26 -7.46,4.95 -1.5,-0.43 -3.33,-1.52 -4.83,-1.4 -2.24,0.18 -3.3,2.32 -5.78,1.29 -1.8,-0.75 -3.03,-1.96 -5.04,-2.2 -0.85,-0.1 -1.93,-0.03 -2.86,0.25 1.28,-3.89 3,-7.58 5.12,-11 1.38,1.32 3.66,1.35 5.57,0.64 0.96,1.34 2.56,1.92 4.2,2.03 0.94,0.06 1.82,-0.36 2.66,-0.88 2.14,1.81 7.05,2.64 8.16,-0.33l0.03 -0.05c0.46,-1.09 0.13,-2.19 -0.7,-3 -0.44,-0.44 -1.11,-0.77 -1.77,-0.83 0.14,-0.8 0.05,-1.69 -0.12,-2.27 -0.22,-0.74 -0.76,-1.45 -1.49,-1.73 -0.73,-0.28 -1.46,-0.13 -2.15,0.14 -0.07,-0.58 -0.32,-1.15 -0.67,-1.54 -0.6,-0.66 -1.54,-0.77 -2.42,-0.59 0.29,-1.32 -0.05,-2.73 -1.18,-3.45 9.03,-7.83 20.81,-12.58 33.68,-12.58 14.6,0 27.8,6.11 37.17,15.91 -0.95,0.22 -1.77,0.85 -1.99,1.9 -0.1,0.52 0,1.2 0.29,1.77 -0.91,0.33 -1.72,1.12 -1.98,1.96 -0.32,1.05 0.18,2.02 0.97,2.63 -0.85,1.04 -0.46,2.63 1.13,2.87 1.25,0.19 2.47,-0.58 3.27,-1.61 1.15,1.9 4.2,2.06 5.81,0.52 1.57,2.74 2.9,5.65 3.95,8.68 -0.28,0 -0.55,0.03 -0.81,0.02 -1.25,-0.04 -2.51,-0.17 -3.75,-0.32 -0.87,-0.1 -1.74,-0.22 -2.61,-0.33 -1.77,-0.21 -2.9,-1.37 -4.53,-1.88 -0.51,-0.16 -0.91,0.57 -0.51,0.92 1.98,1.69 3.81,2.29 6.33,2.64 1.94,0.27 4.46,1.01 6.43,0.59 1.48,4.81 2.29,9.91 2.29,15.2 0,0.7 -0.02,1.39 -0.05,2.08l-0.08 -0.01zm-1.1 9.15c-5.2,-1.4 -10.73,-1.82 -16.07,-2.32 -8.56,-0.8 -17.15,-1.25 -25.73,-1.63 -16.78,-0.73 -33.58,-1.09 -50.37,-1.12 -3.04,-0.01 -6.1,-0.04 -9.14,0.09 -0.11,-0.88 -0.19,-1.76 -0.25,-2.65 17.28,0.42 34.6,0.04 51.88,0.11 8.48,0.04 16.97,0.17 25.45,0.17 8.41,0 16.94,0.43 25.33,-0.04 -0.18,2.52 -0.56,4.98 -1.09,7.39zm-1.06 3.98c-1.68,0.03 -3.35,0.22 -5.04,0.22 -0.64,0 -0.6,0.95 0.03,0.99 1.55,0.09 3.1,-0.08 4.65,-0.1 -0.19,0.55 -0.38,1.11 -0.58,1.65 -1.08,0.58 -2.6,0.29 -3.77,0.27 -1.83,-0.03 -3.68,-0.2 -5.52,-0.09 -0.65,0.04 -0.6,0.93 0.02,0.98 2.11,0.17 4.22,0.19 6.33,0.25 0.7,0.02 1.59,0.11 2.39,-0.01 -0.22,0.53 -0.44,1.06 -0.68,1.58 -0.19,0.05 -0.36,0.15 -0.56,0.18 -0.28,0.05 -0.59,0.03 -0.86,0.01 -0.61,-0.06 -0.72,0.97 -0.12,1.07 0.22,0.04 0.58,0.07 0.94,0.06 -0.39,0.81 -0.8,1.61 -1.23,2.4 -1.06,0.06 -2.12,-0.04 -3.18,0.05 -0.65,0.05 -0.6,0.93 0.02,0.99 0.83,0.08 1.65,0.14 2.49,0.16 -8.93,15.31 -25.53,25.62 -44.49,25.62 -16.12,0 -30.54,-7.45 -39.98,-19.09 1.33,0.18 2.79,-0.01 3.81,-0.65 0.51,-0.32 0.15,-1.12 -0.43,-0.95 -1.57,0.47 -2.94,0.3 -4.5,0.18 -0.89,-1.17 -1.72,-2.39 -2.51,-3.63 0.5,0.04 1,-0.01 1.46,-0.2 0.48,-0.2 0.45,-1.08 -0.16,-0.99 -0.69,0.09 -1.32,0.12 -2,0.06 -0.34,-0.57 -0.67,-1.15 -0.99,-1.74 0.38,0.05 0.76,0.05 1.15,0.03 0.91,-0.04 1.92,-0.09 2.8,-0.29 0.52,-0.12 0.49,-0.94 -0.03,-1.04 -1.51,-0.28 -3.03,0.43 -4.57,0.06 -0.29,-0.57 -0.57,-1.15 -0.83,-1.73l0.17 0.01c0.18,0.05 0.36,0.03 0.5,-0.12 0.17,-0.18 0.2,-0.54 -0.02,-0.7 -0.24,-0.18 -0.43,-0.26 -0.73,-0.27l-0.39 0.03c-0.18,-0.41 -0.35,-0.81 -0.51,-1.22 1.05,-0.12 2.1,-0.02 3.15,-0.13 1.37,-0.14 2.61,-0.58 4.01,-0.4 0.71,0.09 0.95,-0.84 0.27,-1.08 -1.15,-0.41 -2.4,-0.1 -3.57,0.13 -1.42,0.27 -2.92,-0.05 -4.3,0.35 -0.25,-0.66 -0.48,-1.32 -0.7,-1.99 0.46,-0.02 0.91,-0.05 1.37,-0.06 0.71,-0.01 1.41,0.09 2.12,0.08 0.63,-0.01 0.67,-0.87 0.12,-1.05 -1.18,-0.4 -2.69,-0.35 -3.97,-0.1 -0.19,-0.6 -0.35,-1.2 -0.52,-1.8 0.85,0.25 1.8,0.13 2.67,0.01 1.49,-0.2 2.7,-0.36 4.19,-0.12 0.61,0.1 0.86,-0.62 0.38,-0.96 -0.94,-0.68 -2.26,-0.49 -3.33,-0.33 -1.48,0.21 -2.74,0.39 -4.22,0.17 -0.14,-0.59 -0.27,-1.19 -0.39,-1.79 2.12,-0.01 4.21,-0.57 6.33,-0.23 1.44,0.23 2.71,0.24 4.16,0 0.61,-0.1 0.37,-0.97 -0.16,-1 -1.5,-0.09 -2.99,-0.29 -4.49,-0.38 -2.04,-0.12 -4.02,0.37 -6.05,0.48 -0.1,-0.56 -0.19,-1.13 -0.27,-1.7 5.85,-0.03 11.7,0.01 17.55,0.09l0.08 0.12c0.79,0.79 2.46,0.68 3.44,0.36 0.21,-0.07 0.32,-0.24 0.34,-0.43 2.46,0.04 4.91,0.09 7.37,0.14 -0.05,0.2 0.01,0.42 0.24,0.55 0.6,0.35 1.33,0.29 1.81,-0.22l0.14 -0.28c1.71,0.04 3.43,0.08 5.15,0.12 0.01,0.25 0.18,0.49 0.49,0.49 1.07,-0.01 2.18,-0.05 3.24,-0.21l0.34 -0.18c6.99,0.18 13.99,0.38 20.99,0.67 -1.93,0.06 -3.84,0.11 -5.79,0.4 -0.6,0.09 -0.59,1.04 0.02,0.96 2.38,-0.33 4.74,-0.26 7.13,-0.16 2.5,0.11 5.13,-0.38 7.6,-0.74l0.07 -0.02c3.02,0.17 6.03,0.37 9.04,0.6 -0.4,0.07 -0.79,0.15 -1.18,0.24 -0.54,0.14 -0.4,1.01 0.15,0.96 2.47,-0.19 4.88,-0.33 7.36,-0.3 0.23,0 0.38,-0.15 0.45,-0.33 1.27,0.12 2.54,0.24 3.81,0.37 2.96,0.31 5.94,0.63 8.87,1.21 -0.75,0.05 -1.49,0.13 -2.2,0.22 -0.51,0.07 -0.72,0.91 -0.11,0.99 1.34,0.18 2.94,0.21 4.35,-0.03 -0.2,0.76 -0.41,1.52 -0.64,2.27zm-83.9 -53.14c0.71,0.44 1.12,0.94 0.94,1.9 -0.18,0.96 -0.88,1.63 -1.33,2.45 -0.28,0.52 0.31,1.07 0.81,0.78 0.51,-0.3 0.93,-0.74 1.24,-1.25 0.62,-0.21 1.31,-0.46 1.89,-0.17 0.58,0.29 0.75,1.46 0.34,1.92 -0.41,0.45 0.14,1.14 0.67,0.83 0.26,-0.15 0.44,-0.37 0.57,-0.61 0.62,-0.2 1.26,-0.5 1.89,-0.19 0.44,0.22 0.62,0.71 0.73,1.15 0.26,0.96 -0.06,1.72 -0.61,2.47 -0.35,0.47 -0.01,1.1 0.59,0.97 0.4,-0.09 0.7,-0.31 0.91,-0.61 0.52,-0.04 1,0.24 1.37,0.58 0.5,0.45 0.59,1.07 0.55,1.7 -1.39,1.81 -4.19,1.05 -6.11,0.08 0.48,-0.31 0.95,-0.61 1.44,-0.8 0.6,-0.25 0.48,-1.09 -0.18,-1.13 -1.16,-0.06 -2.07,0.64 -2.98,1.27 -1.79,1.24 -3.52,0.86 -5.08,-0.32 0.64,-0.38 1.2,-0.85 1.59,-1.39 0.32,-0.45 -0.34,-1.05 -0.77,-0.73 -1.96,1.45 -4.7,2.5 -6.88,1.01 2.38,-3.65 5.21,-6.97 8.4,-9.9zm72.83 3.39c2.22,2.45 4.21,5.11 5.93,7.94 -1.4,1.09 -3.73,1.3 -4.52,-0.55l0.17 -0.51c0.14,-0.56 -0.69,-0.9 -0.95,-0.37 -0.44,0.91 -1.12,1.71 -2.01,2.2 -0.42,0.24 -1.04,0.35 -1.45,0.03 -0.34,-0.26 -0.09,-0.66 0.17,-0.96 0.21,0.07 0.42,0.12 0.64,0.15 0.55,0.06 0.67,-0.76 0.24,-0.99 -0.78,-0.44 -1.72,-0.7 -1.74,-1.76 -0.03,-1.03 1.08,-1.45 1.96,-1.48 0.18,0.06 0.37,0.09 0.58,0.06 0.4,-0.05 0.76,-0.61 0.35,-0.91 -0.62,-0.46 -1.29,-0.75 -1.18,-1.69 0.12,-0.98 0.98,-1.16 1.81,-1.18zm-38.1 -18.35c-29.17,0 -52.91,23.73 -52.91,52.9 0,29.17 23.73,52.9 52.91,52.9 29.17,0 52.9,-23.73 52.9,-52.9 0,-29.17 -23.73,-52.9 -52.9,-52.9z"/>
  <path class="fil0" d="M24.9 87.7l0.35 0.11 0.33 -0.17 0.06 -0.07c0.17,-0.2 0.15,-0.51 -0.06,-0.67l-1.36 -1.14 -0.35 -0.11 -0.32 0.17 -2.56 3.05 -0.11 0.35 0.17 0.33 1.36 1.14 0.31 0.11 0.04 -0 0.33 -0.17 0.05 -0.06c0.17,-0.2 0.15,-0.51 -0.06,-0.68l-0.93 -0.77 0.72 -0.86 0.59 0.5 0.35 0.11 0.33 -0.17 0.06 -0.07c0.17,-0.2 0.14,-0.51 -0.06,-0.68l-0.6 -0.5 0.44 -0.52 0.93 0.77z"/>
  <path class="fil0" d="M28.67 89.16c-0.38,-0.25 -0.79,-0.32 -1.18,-0.21 -0.33,0.09 -0.59,0.29 -0.78,0.57 -0.24,0.36 -0.3,0.77 -0.18,1.17l0.02 0.06 0.13 0.27 0.13 0.24 0.36 0.63 0.13 0.26 0.06 0.15 -0.05 0.23 -0.2 0.14 -0.27 -0.05c-0.02,-0.01 -0.19,-0.15 -0.69,-0.92 -0.12,-0.19 -0.36,-0.27 -0.57,-0.19l-0.08 0.03 -0.27 0.25 -0.01 0.37c0.09,0.25 0.24,0.5 0.42,0.74 0.19,0.24 0.4,0.44 0.62,0.59 0.24,0.16 0.5,0.24 0.76,0.24l0.37 -0.05c0.34,-0.1 0.6,-0.29 0.79,-0.56 0.21,-0.32 0.38,-0.84 0.01,-1.55 -0.13,-0.23 -0.24,-0.42 -0.34,-0.59l-0.24 -0.41c-0.14,-0.24 -0.1,-0.36 -0.03,-0.46l0.2 -0.15 0.31 0.07c0.06,0.04 0.22,0.17 0.6,0.66 0.13,0.18 0.36,0.24 0.57,0.15l0.08 -0.04 0.26 -0.27 -0.02 -0.38c-0.19,-0.39 -0.5,-0.72 -0.9,-0.99z"/>
  <path class="fil0" d="M33.98 92.22l-1.93 -0.99 -0.36 -0.03 -0.28 0.24 -0.04 0.08 -0.03 0.37 0.24 0.28 0.5 0.26 -1.54 3c-0.12,0.24 -0.03,0.53 0.21,0.65l0.08 0.04 0.22 0.05 0.14 -0.02 0.28 -0.24 1.54 -3 0.5 0.25 0.37 0.03 0.28 -0.24 0.04 -0.08c0.12,-0.24 0.03,-0.53 -0.21,-0.65z"/>
  <path class="fil0" d="M37.42 95.4l-0.62 1.62 -0.29 0.31 -0.43 0.01 -0.31 -0.29 -0.01 -0.43 0.62 -1.62 0.29 -0.31 0.22 -0.05 0.2 0.04 0.31 0.29 0.01 0.42zm0.05 -1.7c-0.41,-0.16 -0.83,-0.14 -1.23,0.04 -0.39,0.18 -0.68,0.49 -0.84,0.89l-0.62 1.62c-0.15,0.41 -0.14,0.83 0.04,1.23 0.18,0.4 0.49,0.69 0.9,0.84 0.19,0.07 0.38,0.11 0.57,0.11 0.22,0 0.44,-0.05 0.65,-0.15 0.4,-0.18 0.69,-0.49 0.84,-0.89l0.62 -1.62c0.15,-0.41 0.14,-0.83 -0.04,-1.23 -0.18,-0.4 -0.49,-0.68 -0.89,-0.84z"/>
  <path class="fil0" d="M47.21 97.77c-0.04,0.29 -0.15,0.38 -0.23,0.42l-0.29 0.06 -0.16 -0.01 -0.5 -0.07 0.15 -1.11 0.5 0.07c0.18,0.02 0.32,0.08 0.42,0.17 0.07,0.07 0.15,0.18 0.11,0.47zm-0.39 -1.68l-1.06 -0.15c-0.26,-0.04 -0.5,0.15 -0.54,0.41l-0.54 3.9c-0.03,0.26 0.15,0.5 0.41,0.54l0.08 0.01 0.07 0 0.29 -0.1 0.18 -0.32 0.16 -1.2 0.5 0.07c0.4,0.05 0.75,0.01 1.05,-0.14 0.31,-0.16 0.71,-0.49 0.81,-1.22 0.1,-0.72 -0.19,-1.15 -0.45,-1.39 -0.26,-0.23 -0.58,-0.38 -0.98,-0.43z"/>
  <path class="fil0" d="M52.61 96.52l-1.77 -0.05c-0.27,-0.02 -0.49,0.2 -0.49,0.47l-0.1 3.98 0.13 0.34 0.33 0.15 1.77 0.05 0.01 0 0.33 -0.13 0.15 -0.34 0 -0.08c0.01,-0.27 -0.2,-0.49 -0.47,-0.49l-1.21 -0.03 0.03 -1.12 0.78 0.02c0.27,0.01 0.48,-0.2 0.49,-0.47l0 -0.09 -0.13 -0.34 -0.34 -0.15 -0.77 -0.02 0.02 -0.68 1.21 0.03 0.34 -0.13 0.15 -0.34 0 -0.09c0.01,-0.27 -0.2,-0.48 -0.47,-0.49z"/>
  <path class="fil0" d="M57.17 98.38c-0.1,0.08 -0.24,0.13 -0.43,0.14l-0.5 0.04 -0.09 -1.11 0.51 -0.04 0.44 0.07c0.09,0.05 0.19,0.15 0.22,0.43 0.03,0.29 -0.06,0.4 -0.14,0.46zm0.63 0.84c0.41,-0.3 0.6,-0.78 0.55,-1.39 -0.06,-0.73 -0.44,-1.08 -0.74,-1.25 -0.3,-0.17 -0.65,-0.24 -1.05,-0.21l-1.06 0.09c-0.27,0.02 -0.46,0.25 -0.44,0.52l0.33 3.93 0.17 0.33 0.31 0.11 0.04 -0 0.09 -0.01c0.26,-0.02 0.46,-0.25 0.43,-0.52l-0.1 -1.2 0.46 -0.04 0.83 1.37c0.13,0.22 0.42,0.3 0.65,0.17l0.07 -0.04 0.23 -0.29 -0.05 -0.37 -0.71 -1.18z"/>
  <path class="fil0" d="M62.21 97.63c-0.09,0.09 -0.22,0.15 -0.41,0.19l-0.5 0.1 -0.22 -1.1 0.5 -0.1 0.44 0.02c0.09,0.04 0.21,0.12 0.26,0.41 0.06,0.29 -0.02,0.41 -0.08,0.48zm0.24 -1.85c-0.31,-0.14 -0.67,-0.17 -1.07,-0.09l-1.05 0.21c-0.26,0.05 -0.43,0.3 -0.38,0.56l0.76 3.87 0.21 0.31 0.27 0.08 0.1 -0.01 0.08 -0.02c0.26,-0.05 0.43,-0.3 0.38,-0.56l-0.24 -1.18 0.5 -0.1c0.39,-0.08 0.7,-0.24 0.95,-0.48 0.25,-0.25 0.51,-0.7 0.37,-1.42 -0.14,-0.71 -0.56,-1.03 -0.88,-1.16z"/>
  <path class="fil0" d="M68.76 98.23c-0.08,-0.25 -0.35,-0.39 -0.6,-0.31l-1.15 0.37 -0.34 -1.07 0.74 -0.23c0.25,-0.08 0.39,-0.35 0.31,-0.6l-0.03 -0.08 -0.24 -0.28 -0.37 -0.03 -0.74 0.24 -0.21 -0.65 1.15 -0.37c0.25,-0.08 0.39,-0.35 0.31,-0.6l-0.03 -0.08 -0.24 -0.28 -0.37 -0.03 -1.69 0.54 -0.29 0.24 -0.03 0.37 1.21 3.79c0.07,0.2 0.25,0.34 0.46,0.34l0.15 -0.02 1.69 -0.54 0.28 -0.24 0.03 -0.37 -0.02 -0.08z"/>
  <path class="fil0" d="M71.61 93.47l0.51 -0.23c0.24,-0.11 0.35,-0.39 0.24,-0.63l-0.04 -0.08 -0.27 -0.25 -0.37 0.01 -1.97 0.88 -0.25 0.27 0.01 0.37 0.04 0.08c0.11,0.24 0.39,0.35 0.63,0.24l0.51 -0.23 1.38 3.08c0.08,0.18 0.25,0.28 0.44,0.28l0.2 -0.04 0.08 -0.03 0.25 -0.27 -0.01 -0.37 -1.38 -3.08z"/>
  <path class="fil0" d="M76.68 90.13l-0.29 -0.22 -0.36 0.05 -0.07 0.05c-0.23,0.14 -0.31,0.43 -0.17,0.66l1.43 2.42 0.06 0.43 -0.25 0.34 -0.43 0.06 -0.34 -0.26 -1.43 -2.42 -0.29 -0.22 -0.37 0.05 -0.07 0.04c-0.23,0.14 -0.3,0.43 -0.17,0.66l1.43 2.42c0.22,0.38 0.56,0.63 0.98,0.74l0.41 0.05c0.28,0 0.55,-0.07 0.81,-0.23 0.38,-0.22 0.63,-0.55 0.74,-0.98 0.11,-0.43 0.05,-0.84 -0.17,-1.22l-1.43 -2.42z"/>
  <path class="fil0" d="M80.61 90.17l-0.21 -0.64 0.55 0.38 -0.34 0.26zm-0.9 -2.38l-0.56 0.01 -0.08 0.06c-0.16,0.13 -0.23,0.34 -0.16,0.54l1.3 3.88 0.25 0.28 0.2 0.05 0.17 -0.03 0.08 -0.03c0.24,-0.09 0.37,-0.36 0.29,-0.6l-0.24 -0.72 0.9 -0.67 0.63 0.43c0.21,0.15 0.5,0.1 0.66,-0.11l0.05 -0.07 0.09 -0.37 -0.2 -0.32 -3.37 -2.33z"/>
  <path class="fil0" d="M34.33 18.83l0.14 0.02 0.23 -0.06 0.11 -0.06c0.24,-0.13 0.32,-0.41 0.2,-0.65l-2.68 -5.02c-0.12,-0.23 -0.42,-0.32 -0.65,-0.2l-0.11 0.06 -0.23 0.29 0.04 0.37 2.68 5.02 0.28 0.23z"/>
  <path class="fil0" d="M44.02 13.89c-0.2,0.27 -0.42,0.43 -0.67,0.49l-0.86 0.21 -1.09 -4.47 0.86 -0.21c0.26,-0.06 0.53,-0.02 0.82,0.12 0.34,0.16 0.54,0.41 0.62,0.76l0.52 2.15c0.08,0.35 0.02,0.65 -0.2,0.96zm0.74 -3.36c-0.16,-0.67 -0.57,-1.17 -1.2,-1.47 -0.53,-0.26 -1.06,-0.33 -1.56,-0.2l-1.45 0.35c-0.26,0.06 -0.41,0.32 -0.35,0.58l1.37 5.65 0.22 0.3 0.25 0.07 0.11 -0.01 1.44 -0.35c0.5,-0.12 0.94,-0.42 1.29,-0.89 0.42,-0.56 0.55,-1.19 0.39,-1.86l-0.52 -2.15z"/>
  <path class="fil0" d="M53.37 9.8l0.58 1.86 -1.23 -0.02 0.65 -1.84zm-2.16 4.38l0.12 0.04c0.25,0.07 0.51,-0.06 0.59,-0.3l0.42 -1.2 1.96 0.03 0.38 1.21c0.06,0.2 0.25,0.33 0.46,0.33l0.13 -0.02 0.12 -0.03 0.3 -0.23 0.04 -0.37 -1.8 -5.7c-0.06,-0.2 -0.24,-0.33 -0.45,-0.34l-0.14 -0c-0.2,0 -0.39,0.13 -0.46,0.32l-1.98 5.64 0.03 0.38 0.29 0.24z"/>
  <path class="fil0" d="M66.14 9.53l-0.12 -0.03c-0.26,-0.07 -0.52,0.08 -0.59,0.34l-0.51 1.92 -2.01 -0.53 0.51 -1.92 -0.05 -0.37 -0.29 -0.22 -0.12 -0.03c-0.26,-0.07 -0.52,0.08 -0.59,0.34l-1.46 5.5 0.05 0.37 0.29 0.22 0.12 0.03c0.26,0.06 0.52,-0.09 0.59,-0.34l0.67 -2.53 2.01 0.53 -0.67 2.53c-0.07,0.26 0.08,0.52 0.34,0.59l0.12 0.03 0.13 0.02 0.24 -0.06 0.22 -0.29 1.46 -5.5 -0.05 -0.36 -0.3 -0.22z"/>
  <path class="fil0" d="M74.91 15.65l-1.23 2.21c-0.15,0.26 -0.34,0.41 -0.63,0.5l-0.29 0.04 -0.5 -0.14c-0.26,-0.15 -0.41,-0.34 -0.5,-0.62 -0.08,-0.28 -0.05,-0.53 0.1,-0.79l1.24 -2.2c0.14,-0.26 0.34,-0.41 0.62,-0.49l0.29 -0.04 0.5 0.14c0.26,0.15 0.41,0.34 0.49,0.63 0.08,0.28 0.05,0.53 -0.1,0.78zm0.14 -2.36c-0.51,-0.28 -1.06,-0.35 -1.62,-0.19 -0.56,0.16 -0.99,0.5 -1.27,1.01l-1.24 2.2c-0.29,0.51 -0.35,1.05 -0.19,1.61 0.16,0.56 0.5,0.99 1.01,1.27 0.33,0.18 0.67,0.28 1.02,0.28 0.2,0 0.39,-0.03 0.59,-0.08 0.56,-0.16 0.99,-0.5 1.28,-1.01l1.23 -2.2c0.29,-0.51 0.35,-1.05 0.19,-1.61 -0.16,-0.56 -0.5,-0.99 -1,-1.28z"/>
  <path class="fil0" d="M17.56 43.88c0.36,-0.43 -0.14,-1.16 -0.65,-0.8 -1.33,0.92 -2.48,2.08 -3.82,3.01 -1.71,1.17 -3.54,2.05 -5.49,2.73 -0.59,0.21 -0.33,1.1 0.28,0.94 1.87,-0.51 3.58,-1.41 5.22,-2.42 1.53,-0.95 3.3,-2.05 4.46,-3.45z"/>
  <path class="fil0" d="M49.83 36.53c-1.16,1.59 -2.65,2.85 -4.14,4.12 -2.03,1.73 -4.42,2.9 -6.45,4.61 -0.45,0.37 0.15,1.03 0.62,0.76 2.51,-1.42 4.89,-2.93 7.11,-4.76 1.17,-0.96 4.01,-2.71 3.91,-4.48 -0.04,-0.6 -0.74,-0.69 -1.05,-0.26z"/>
  <path class="fil0" d="M72.37 44.14c-0.79,0.7 -1.69,1.28 -2.5,1.95 -0.71,0.58 -1.61,1.27 -1.67,2.25 -0.03,0.5 0.6,0.63 0.91,0.35 0.31,-0.27 0.52,-0.65 0.78,-0.97 0.3,-0.36 0.67,-0.66 1.02,-0.97 0.73,-0.64 1.51,-1.21 2.17,-1.92 0.44,-0.47 -0.24,-1.1 -0.71,-0.68z"/>
  <path class="fil0" d="M96.43 43.9c0.71,-0.07 1.3,-0.72 1.82,-1.15 0.72,-0.6 1.43,-1.22 2.05,-1.92 0.43,-0.49 -0.24,-1.09 -0.72,-0.68 -0.63,0.54 -1.26,1.08 -1.9,1.59 -0.51,0.41 -1.23,0.76 -1.65,1.26 -0.27,0.33 -0.1,0.96 0.4,0.9z"/>
  <path class="fil0" d="M28.04 42.18c-0.57,-0.7 -1.01,-1.5 -1.47,-2.28 -0.28,-0.47 -1.12,-0.12 -0.9,0.4 0.74,1.75 1.9,3.72 3.74,4.49 0.51,0.21 1.14,-0.46 0.62,-0.85 -0.72,-0.55 -1.42,-1.05 -2,-1.76z"/>
  <path class="fil0" d="M62.76 38.22c-1.26,-0.54 -2.3,-1.84 -3.24,-2.79 -0.49,-0.49 -1.12,0.16 -0.87,0.71 0.33,0.71 0.95,1.32 1.5,1.86 0.54,0.54 1.21,1.16 1.92,1.47 0.28,0.12 0.66,0.13 0.87,-0.13l-0.06 0.06 0.07 -0.05c0.32,-0.2 0.33,-0.66 0.08,-0.89l-0.26 -0.25z"/>
  <path class="fil0" d="M64.5 34.42c-0.43,-0.19 -0.87,-0.51 -1.18,-0.87 -0.15,-0.17 -0.45,-0.18 -0.63,-0.06 -0.25,0.15 -0.3,0.46 -0.17,0.71 0.18,0.34 0.34,0.65 0.65,0.89 0.36,0.28 0.77,0.45 1.22,0.3 0.4,-0.13 0.54,-0.78 0.1,-0.97z"/>
  <path class="fil0" d="M61.55 43.08c0.58,0.14 0.93,-0.7 0.39,-0.98 -2.24,-1.13 -3.8,-3.33 -6.1,-4.29 -0.48,-0.2 -1.08,0.43 -0.59,0.8 2,1.49 3.79,3.86 6.3,4.48z"/>
  <path class="fil0" d="M54.87 42.39c0.48,0.28 0.97,-0.3 0.71,-0.74 -0.23,-0.4 -0.58,-0.73 -0.86,-1.1 -0.28,-0.36 -0.53,-0.74 -0.73,-1.15 -0.28,-0.55 -1.17,-0.13 -0.98,0.44 0.33,0.94 0.98,2.03 1.86,2.55z"/>
  <path class="fil0" d="M29.48 39.84c-0.35,-0.52 -0.59,-1.22 -1.06,-1.64 -0.3,-0.27 -0.88,-0.08 -0.84,0.37 0.06,0.68 0.54,1.33 0.9,1.89 0.46,0.72 1.01,1.45 1.75,1.91 0.42,0.26 1.01,-0.31 0.69,-0.72 -0.48,-0.61 -1,-1.16 -1.43,-1.81z"/>
  <path class="fil0" d="M30.26 37.33c-0.12,-0.19 -0.35,-0.28 -0.57,-0.22 -0.24,0.07 -0.45,0.38 -0.34,0.63 0.25,0.58 0.69,1.06 1.2,1.43 0.42,0.3 0.98,-0.32 0.69,-0.72 -0.29,-0.4 -0.72,-0.74 -0.97,-1.12z"/>
  <path class="fil0" d="M23.41 41.64c-0.3,-0.52 -1.23,-0.13 -0.98,0.44 0.35,0.8 0.79,1.69 1.43,2.3 0.46,0.43 1.06,-0.14 0.81,-0.66 -0.36,-0.72 -0.86,-1.39 -1.27,-2.09z"/>
  <path class="fil0" d="M83.58 43.66c-1.57,-0.5 -2.9,-1.12 -4.07,-2.3 -0.44,-0.45 -1.18,0.16 -0.85,0.69 0.98,1.53 2.92,2.41 4.66,2.61 0.65,0.08 0.9,-0.8 0.25,-1z"/>
  <path class="fil0" d="M81.93 40.99l0.44 0.38 0.23 0.17 0.06 0.03 0.17 0.07c0.38,0.12 0.76,-0.3 0.64,-0.66l-0.05 -0.1 -0.21 -0.32 -0.42 -0.37 -0.5 -0.41 -0.2 -0.16 -0.09 -0.07 -0.12 -0.08c-0.19,-0.14 -0.42,-0.2 -0.64,-0.07 -0.22,0.14 -0.34,0.49 -0.17,0.72 0.25,0.32 0.54,0.6 0.85,0.88z"/>
  <path class="fil0" d="M83.73 37.92c-0.56,-0.18 -0.81,0.63 -0.36,0.91 1.37,0.87 2.5,2.06 3.99,2.75 0.63,0.29 1.05,-0.54 0.51,-0.92 -1.35,-0.96 -2.52,-2.21 -4.14,-2.74z"/>
  <path class="fil0" d="M57.77 50.77c-2.21,-0.93 -4.14,-2.29 -6.09,-3.67 -0.45,-0.33 -1.02,0.45 -0.58,0.78 1.93,1.43 3.97,3.11 6.3,3.81 0.54,0.16 0.88,-0.7 0.36,-0.92z"/>
  <path class="fil0" d="M62.13 49.76c-1.15,-0.28 -2.18,-0.72 -3.25,-1.22 -0.57,-0.27 -1.04,0.56 -0.47,0.86 1.12,0.59 2.33,1.23 3.61,1.36 0.58,0.06 0.65,-0.87 0.11,-0.99z"/>
  <path class="fil0" d="M98 40.31c0.55,-0.11 0.4,-1 -0.15,-0.97 -0.91,0.06 -1.67,-0.14 -2.47,-0.58 -0.56,-0.3 -1.01,0.53 -0.48,0.86 0.93,0.57 2.02,0.91 3.1,0.68z"/>
  <path class="fil0" d="M79.37 35.95c0.47,0.32 1,-0.42 0.58,-0.79 -0.51,-0.45 -0.88,-0.9 -1.21,-1.5 -0.3,-0.56 -1.1,-0.04 -0.83,0.52 0.34,0.71 0.8,1.33 1.46,1.78z"/>
  <path class="fil0" d="M46.94 37.8c0.18,0.14 0.4,0.19 0.6,0.06 0.21,-0.13 0.33,-0.47 0.16,-0.69 -0.3,-0.39 -0.68,-0.72 -1.04,-1.06 -0.46,-0.45 -1.14,0.26 -0.69,0.73 0.31,0.32 0.61,0.68 0.96,0.96z"/>
  <path class="fil0" d="M17.76 48.6c-0.29,-0.28 -0.64,-0.5 -0.98,-0.71 -0.48,-0.29 -1.04,0.46 -0.58,0.79 0.26,0.2 0.51,0.41 0.75,0.63 0.27,0.25 0.43,0.57 0.68,0.82 0.39,0.4 0.93,-0.05 0.84,-0.52 -0.07,-0.39 -0.44,-0.75 -0.71,-1.02z"/>
  <path class="fil0" d="M19.38 46.77c-0.37,-0.56 -1.18,-0.04 -0.87,0.54 0.8,1.54 2.42,2.8 3.87,3.7 0.5,0.31 1.04,-0.44 0.6,-0.82 -1.27,-1.13 -2.64,-1.96 -3.6,-3.42z"/>
  <path class="fil0" d="M96.66 48.2c-0.49,-0.28 -1.04,0.44 -0.59,0.8 0.56,0.46 1.07,1.01 1.68,1.39 0.52,0.32 1.13,-0.49 0.64,-0.87 -0.58,-0.43 -1.1,-0.97 -1.73,-1.33z"/>
  <path class="fil0" d="M102.3 49.27c-0.67,-0.26 -1.17,-0.75 -1.68,-1.24 -0.38,-0.37 -0.85,-0.88 -1.43,-0.6 -0.39,0.19 -0.24,0.79 0.13,0.89l0.09 0.07 0.29 0.27c0.24,0.23 0.48,0.47 0.73,0.7 0.48,0.44 1.07,0.92 1.76,0.92 0.63,0.01 0.61,-0.82 0.11,-1.01z"/>
  <path class="fil0" d="M100.07 45.49c0.27,0.29 0.6,0.48 1,0.45 0.54,-0.03 0.69,-0.91 0.11,-0.99 -0.22,-0.03 -0.25,-0.05 -0.41,-0.2 -0.49,-0.45 -1.14,0.26 -0.7,0.74z"/>
  <path class="fil0" d="M46.59 46.38c-0.23,0.2 -0.44,0.42 -0.69,0.57 -0.23,0.13 -0.3,0.45 -0.16,0.68 0.15,0.25 0.43,0.27 0.68,0.16 0.37,-0.17 0.64,-0.41 0.91,-0.71 0.43,-0.51 -0.24,-1.11 -0.73,-0.7z"/>
  <path class="fil0" d="M78.17 85.94c-0.8,-0.19 -4.53,-0.62 -3.79,-2.01 0.2,-0.38 0.49,-0.72 0.83,-1.04l0.14 -0.01c1.15,-0.27 2.31,-0.1 3.47,-0.2 0.67,-0.06 0.61,-0.95 -0.03,-1.01 -0.65,-0.07 -1.31,-0.11 -1.97,-0.07 0.21,-0.15 0.42,-0.3 0.61,-0.45 1.64,-1.28 4.4,-3.11 4.47,-5.46 0.1,-3.47 -4.4,-4.91 -7.04,-5.7 -4.18,-1.26 -8.49,-1.26 -12.78,-1.79 -0.28,-0.04 -0.56,-0.08 -0.84,-0.13l-0.21 -0.04 0.38 -0.31 0.28 -0.4c2.56,-0.17 5.13,0.17 7.67,-0.06 0.66,-0.06 0.63,-0.99 -0.03,-1.02 -2.48,-0.15 -5.1,-0.34 -7.58,0.05l-0.01 -0.04c-0.61,-1.6 -3.47,-2.01 -4.86,-2.32 -4.07,-0.9 -8.31,-1.21 -12.46,-1.43 -6.32,-0.34 -12.68,-0.43 -19.01,-0.17 -0.19,0 -0.38,0 -0.58,0.01 -0.65,0.01 -0.62,0.99 0.03,1 5.43,0.13 10.86,0.27 16.28,0.7 0.46,0.04 0.92,0.08 1.38,0.12 -0.51,0.07 -1.01,0.16 -1.49,0.26 -0.56,0.12 -0.41,1.02 0.16,0.99 2.36,-0.15 4.85,-0.1 7.18,-0.5l0.01 -0 0.09 0.02c1.4,0.24 3.41,0.44 4.52,1.42 0.14,0.12 -0.28,0.39 -0.9,0.69 -0.64,0.02 -1.28,0.06 -1.93,0.05 -0.96,-0.02 -1.96,-0.15 -2.91,-0.03 -0.52,0.06 -0.7,0.89 -0.11,0.98 0.77,0.1 1.54,0.12 2.32,0.14 -0.28,0.11 -0.48,0.19 -0.55,0.22 -0.98,0.45 -1.82,1.02 -1.62,2.19l0 0.02c-0.2,0.07 -0.4,0.14 -0.62,0.19 -0.37,0.09 -0.73,0.13 -1.09,0.27 -0.5,0.19 -0.44,1.03 0.16,0.98 0.74,-0.06 1.6,-0.11 2.24,-0.53 0.52,0.29 1.22,0.37 1.74,0.46 0.33,0.06 0.66,0.11 0.99,0.16 -0.5,0.15 -1.01,0.27 -1.52,0.46 -0.5,0.19 -0.43,1.03 0.15,0.97 1.13,-0.13 2.49,-0.26 3.3,-1.15 1.3,0.18 2.6,0.35 3.89,0.55l-0.23 0.12c-0.49,0.25 -1,0.46 -1.47,0.75 -0.56,0.35 -0.05,1.11 0.53,0.85 0.62,-0.28 1.27,-0.46 1.88,-0.78 0.28,-0.16 0.61,-0.39 0.84,-0.68 0.66,0.12 1.33,0.24 1.98,0.39 1.28,0.29 2.86,0.59 3.91,1.44 0.93,0.75 -0.75,1.63 -1.32,1.96 -2.67,1.57 -5.82,2.44 -8.77,3.31 -5.72,1.69 -11.57,2.97 -17.35,4.46 -0.71,0.18 -0.37,1.19 0.32,1.06 6.05,-1.13 12.05,-2.6 17.93,-4.41 2.9,-0.89 5.89,-1.82 8.54,-3.32 2.38,-1.35 3.04,-3.51 0.24,-4.75 -3.16,-1.4 -6.88,-1.69 -10.27,-2.15 -1.38,-0.19 -2.77,-0.34 -4.14,-0.63 -0.51,-0.11 -0.99,-0.29 -0.22,-0.8 1.38,-0.91 3.15,-1.06 4.53,-2.01 2.42,-1.67 -0.45,-2.87 -3.06,-3.56 2.07,0.26 4.12,0.59 6.15,1.02 1.12,0.24 2.26,0.52 3.29,1.03 0.89,0.44 0.63,0.61 -0.15,1.04 -2.56,1.42 2.43,2.29 3,2.35 3.99,0.45 7.91,0.62 11.8,1.7 1.96,0.55 5.69,1.65 5.99,4.12 0.16,1.3 -1.51,2.58 -2.36,3.33 -1.53,1.34 -4.73,2.92 -5.29,5.06 -0.68,2.58 3.31,3.2 4.98,3.39 0.82,0.09 1.17,-1.08 0.32,-1.28z"/>
  <path class="fil0" d="M87.82 72.64c0.01,-0.44 0.02,-0.89 0.03,-1.33 0.33,0.44 0.71,0.85 1.16,1.21 0.51,0.4 1.17,-0.26 0.71,-0.74 -1.15,-1.18 -1.85,-2.36 -2.17,-3.99l-0.05 -0.11 -0.04 -0.16c-0.14,-0.54 -1.07,-0.41 -0.99,0.16 0.04,0.25 0.06,0.5 0.09,0.76 -0.02,1.33 -0.65,2.74 -1.94,3.23 -0.6,0.23 -0.34,1.15 0.29,0.97 0.74,-0.22 1.33,-0.67 1.77,-1.24 -0,0.3 -0.01,0.6 -0.02,0.89l-0.01 0.03c-0.41,1.64 -1.67,3.11 -3.27,3.7 -0.64,0.24 -0.35,1.11 0.3,0.99 1.05,-0.18 2.08,-0.88 2.85,-1.79 -0.01,0.28 -0.03,0.55 -0.04,0.83l0 0c-0.41,0.95 -0.89,1.64 -1.79,2.3 -0.9,0.67 -1.95,1.16 -3,1.55 -0.63,0.23 -0.35,1.12 0.3,0.99 1.35,-0.28 2.63,-0.91 3.71,-1.79 0.18,-0.15 0.37,-0.31 0.56,-0.5 -0.03,0.32 -0.07,0.65 -0.1,0.97 -0.33,0.78 -0.73,1.45 -1.47,2.02 -0.93,0.72 -2.1,1.05 -3.24,1.27 -0.57,0.11 -0.41,1.06 0.16,1.01 1.59,-0.15 3.28,-0.79 4.44,-1.92 0.02,0.89 0.14,1.77 0.41,2.61 0.21,0.65 1.08,0.58 1.28,-0.03 0.29,-0.92 0.27,-1.8 0.2,-2.72 1.3,1.14 3.26,1.68 4.92,1.6 0.61,-0.03 0.71,-0.9 0.12,-1.06 -1.98,-0.56 -4.11,-0.84 -5.14,-2.64 -0.01,-0.4 -0.02,-0.8 -0.03,-1.21 1.19,1.05 3.11,1.56 4.49,1.53 0.57,-0.01 0.7,-0.93 0.11,-1.02 -1.97,-0.33 -3.91,-0.89 -4.65,-2.84l-0 -0.15c-0.01,-0.39 -0.01,-0.77 -0,-1.16 0.82,1.02 2.02,1.82 3.11,2.4 0.53,0.29 1.06,-0.43 0.62,-0.84 -0.64,-0.61 -1.41,-1.06 -2.09,-1.62 -0.76,-0.61 -1.2,-1.29 -1.57,-2.15z"/>
  <path class="fil0" d="M18.37 83.45c0.1,0.59 1.07,0.54 1.17,-0.03 0.09,-0.57 0.15,-1.16 0.19,-1.74 1.29,0.98 3.19,1.38 4.54,0.99 0.55,-0.16 0.43,-1.07 -0.16,-1.01 -1.35,0.14 -3.32,-0.39 -4.32,-1.57 0,-0.51 -0,-1.02 -0.02,-1.54 1.15,0.9 2.9,1.22 4.25,0.93 0.5,-0.11 0.49,-0.94 -0.02,-1.01 -1.78,-0.26 -3.52,-0.41 -4.29,-2.11l-0.01 -0.27c0.89,0.68 2.04,1.01 3.07,0.67 0.55,-0.19 0.45,-1.08 -0.17,-1.04 -1.37,0.09 -2.23,-0.69 -2.93,-1.68 -0,-0.24 -0,-0.48 -0,-0.72 0.67,0.35 1.47,0.59 2.09,0.81 0.6,0.22 0.82,-0.65 0.38,-0.96 -0.8,-0.56 -1.9,-0.71 -2.47,-1.43 0,-0.23 -0,-0.46 -0.01,-0.69 0.51,0.36 1.11,0.62 1.68,0.77 0.58,0.15 0.87,-0.65 0.37,-0.95 -0.78,-0.47 -1.68,-0.83 -2.08,-1.63 -0,-0.3 -0.01,-0.6 -0.02,-0.9 0.25,0.2 0.54,0.36 0.88,0.45 0.58,0.16 0.87,-0.66 0.38,-0.96 -0.77,-0.47 -1.18,-1.09 -1.35,-1.9 -0.02,-0.37 -0.04,-0.74 -0.06,-1.11l-0.1 -0.27 -0.07 -0.09 -0.01 -0.01 -0.15 -0.08 -0 -0 -0.1 -0.01c-0.26,-0.03 -0.56,0.14 -0.59,0.5l-0.01 0.3c-0.05,0.4 -0.13,0.79 -0.29,1.17 -0.23,0.53 -0.61,0.88 -0.99,1.29 -0.43,0.46 0.14,1.02 0.64,0.79 0.19,-0.08 0.36,-0.2 0.52,-0.34l-0.01 0.52c-0.46,0.87 -1.01,1.59 -1.93,2.08 -0.56,0.3 -0.12,1.08 0.43,0.96 0.6,-0.12 1.08,-0.44 1.47,-0.85l-0 0.25c-0.3,1.03 -0.87,1.68 -1.99,1.91 -0.63,0.13 -0.41,1.05 0.17,1.07 0.65,0.02 1.28,-0.25 1.79,-0.68l-0 0.19 -0 0.04 0 0c-0.71,1.44 -1.74,2.78 -3.56,2.34 -0.57,-0.14 -0.91,0.69 -0.38,0.96 1.28,0.64 2.86,0.13 3.88,-0.89 -0.01,0.26 -0.02,0.52 -0.03,0.78 -0.72,1.44 -2.4,2.35 -3.98,2.01 -0.57,-0.12 -0.96,0.75 -0.39,0.98 1.29,0.51 2.56,0.28 3.7,-0.48 0.2,-0.13 0.41,-0.3 0.61,-0.48 -0,0.35 -0,0.7 -0,1.06 -0.81,1.27 -2.6,1.51 -4.06,1.42 -0.61,-0.04 -0.69,0.92 -0.11,1.05 1.36,0.31 3.08,0.12 4.25,-0.7 0.04,0.62 0.1,1.24 0.2,1.86z"/>
  <path class="fil0" d="M31.05 85.47c0.16,-0.87 0.21,-1.77 0.21,-2.67 0.85,0.98 1.97,1.77 3.06,2.09 0.56,0.16 0.99,-0.62 0.55,-1 -0.7,-0.6 -1.51,-1.06 -2.21,-1.66 -0.58,-0.5 -1.04,-1.08 -1.48,-1.69l-0.03 -0.51c0.97,0.88 2.31,1.42 3.56,1.5 0.52,0.03 0.68,-0.75 0.24,-0.97 -1.47,-0.73 -3.14,-1.14 -3.9,-2.67 -0.01,-0.44 -0.01,-0.88 -0,-1.33 0.6,0.66 1.39,1.11 2.34,1.11 0.49,-0 0.72,-0.76 0.24,-0.97 -0.63,-0.26 -1.23,-0.43 -1.73,-0.92 -0.34,-0.34 -0.57,-0.78 -0.79,-1.21 0.01,-0.32 0.03,-0.64 0.04,-0.96 0.52,0.51 1.18,0.81 1.87,0.68 0.49,-0.09 0.47,-0.93 -0.03,-0.99 -0.83,-0.1 -1.53,-0.97 -1.78,-1.82 0.02,-1.03 0,-2.07 -0.09,-3.09 -0.06,-0.66 -0.93,-0.6 -1,0.03 -0.1,0.89 -0.17,1.79 -0.23,2.69 -0.13,0.28 -0.3,0.54 -0.53,0.8 -0.4,0.45 -1,0.64 -1.4,1.06 -0.34,0.36 -0.05,0.84 0.39,0.88 0.48,0.05 1,-0.3 1.41,-0.69 -0.01,0.36 -0.03,0.71 -0.04,1.07 -0.31,0.47 -0.68,0.88 -1.13,1.3 -0.47,0.43 -1.57,1.03 -1.51,1.76 0.03,0.32 0.25,0.51 0.56,0.53 0.46,0.03 0.73,-0.36 1.04,-0.64 0.33,-0.3 0.67,-0.59 0.99,-0.9 -0.01,0.41 -0.01,0.82 -0.02,1.23 -0.55,1.38 -1.99,2.1 -3.02,3.14 -0.37,0.38 0.03,1.09 0.55,0.9 0.94,-0.35 1.78,-1.15 2.46,-1.88 0,0.22 0,0.44 0,0.65 -0.26,0.84 -0.74,1.53 -1.37,2.16 -0.38,0.38 -0.83,0.67 -1.3,0.93 -0.51,0.27 -1.05,0.25 -1.58,0.41 -0.41,0.13 -0.55,0.79 -0.1,0.99 1.18,0.51 2.63,-0.36 3.52,-1.12 0.29,-0.26 0.59,-0.55 0.86,-0.86 0.01,0.84 0.02,1.68 0.03,2.52 0.01,0.76 1.21,0.92 1.35,0.15z"/>
  <path class="fil0" d="M40.73 81.63c1.24,-0.19 2.51,-0.21 3.74,-0.49 0.55,-0.13 0.41,-1.07 -0.16,-0.99 -1.24,0.17 -2.5,0.24 -3.73,0.51 -0.54,0.12 -0.4,1.05 0.15,0.97z"/>
  <path class="fil0" d="M48.39 78.66c-0.72,0.02 -0.69,1.11 0.03,1.11 1.03,-0 2.05,-0.23 2.89,-0.84 0.54,-0.38 0.05,-1.19 -0.53,-0.87 -0.73,0.41 -1.56,0.57 -2.39,0.6z"/>
  <path class="fil0" d="M56.84 77.1c0.45,-0.33 0.16,-1.17 -0.43,-0.95 -0.67,0.25 -1.41,0.37 -2.05,0.69 -0.5,0.24 -0.21,1 0.29,0.99 0.73,-0.02 1.6,-0.3 2.18,-0.73z"/>
  <path class="fil0" d="M59.8 75.71l0.08 -0.08c0.44,-0.44 -0.26,-1.11 -0.71,-0.67l-0.08 0.08c-0.44,0.44 0.26,1.12 0.7,0.67z"/>
  <path class="fil0" d="M41.6 77.67c0.65,-0.27 0.39,-1.24 -0.32,-1.06 -1.39,0.36 -2.77,0.11 -4.16,0.34 -0.52,0.08 -0.47,0.94 0.03,1.03 1.38,0.25 3.14,0.25 4.45,-0.31z"/>
  <path class="fil0" d="M49.11 75.26c-0.73,0.1 -1.45,0.31 -2.18,0.45 -0.91,0.17 -1.84,0.25 -2.75,0.47 -0.57,0.14 -0.38,0.96 0.16,0.98 1.61,0.04 3.6,-0.24 5.06,-0.94 0.45,-0.22 0.21,-1.02 -0.28,-0.95z"/>
  <path class="fil0" d="M51.24 75.86c0.52,0.07 0.97,0.07 1.38,-0.28 0.41,-0.34 -0.06,-1.06 -0.54,-0.87 -0.24,0.1 -0.48,0.13 -0.74,0.17 -0.22,0.03 -0.41,0.15 -0.47,0.38 -0.06,0.24 0.09,0.57 0.36,0.61z"/>
  <path class="fil0" d="M43.67 74.59c0.57,-0.13 0.42,-1.08 -0.16,-1.02 -2.26,0.21 -4.58,-0.52 -6.8,-0.21 -0.5,0.07 -0.69,0.85 -0.11,0.96 2.25,0.42 4.82,0.78 7.08,0.27z"/>
  <path class="fil0" d="M34.97 71.71c1.36,0.08 2.72,-0.1 4.09,-0.03 1.39,0.07 2.7,0.35 4.05,-0.13 0.53,-0.18 0.44,-1.06 -0.16,-1.01 -2.68,0.26 -5.31,-0.15 -8,0.18 -0.63,0.08 -0.61,0.95 0.02,0.99z"/>
  <path class="fil0" d="M35.45 68.38c0.06,-0.25 -0.1,-0.58 -0.37,-0.62 -0.65,-0.09 -1.33,-0.04 -1.97,0.06 -0.23,0.03 -0.42,0.15 -0.49,0.39 -0.06,0.25 0.1,0.58 0.37,0.62 0.65,0.09 1.33,0.03 1.98,-0.07 0.23,-0.04 0.42,-0.15 0.48,-0.39z"/>
  <path class="fil0" d="M44.15 67.27c-2.03,-0.13 -4.14,0.29 -6.16,0.49 -0.63,0.06 -0.62,0.99 0.03,0.99 2.04,-0.01 4.13,-0.28 6.16,-0.47 0.65,-0.06 0.62,-0.97 -0.02,-1.01z"/>
  <path class="fil0" d="M36.86 64.95c-1.84,0.1 -3.77,-0.15 -5.57,0.26 -0.57,0.13 -0.4,1 0.16,0.98 1.84,-0.04 3.76,0.08 5.58,-0.26 0.56,-0.11 0.4,-1.01 -0.16,-0.98z"/>
  <path class="fil0" d="M22.64 66.2c1.68,0.17 3.47,0.66 5.1,-0.01 0.62,-0.25 0.36,-1.13 -0.3,-1 -1.62,0.32 -3.2,-0.1 -4.83,-0.01 -0.67,0.04 -0.6,0.95 0.03,1.01z"/>
  <path class="fil0" d="M28.06 68.13c-0.79,-0.01 -1.59,0.01 -2.39,-0 -0.75,-0.01 -1.5,-0.1 -2.23,0.12 -0.5,0.15 -0.43,0.82 0.02,0.96 0.71,0.23 1.5,0.19 2.24,0.21 0.86,0.03 1.69,-0.03 2.52,-0.28 0.58,-0.18 0.42,-1.02 -0.16,-1.02z"/>
  <path class="fil0" d="M26.38 70.46c-0.97,0.01 -2.1,0.11 -3.02,0.44 -0.53,0.19 -0.41,0.96 0.16,0.98 0.97,0.03 2.1,-0.11 3.02,-0.4 0.56,-0.18 0.42,-1.02 -0.16,-1.02z"/>
  <path class="fil0" d="M25.49 74.26c0.49,-0.09 0.45,-0.88 -0.02,-0.97 -0.26,-0.05 -0.51,-0.02 -0.77,-0 -0.64,0.04 -0.6,0.95 0.03,0.99 0.26,0.02 0.51,0.04 0.77,-0.01z"/>
  <path class="fil0" d="M24.05 76.19c0.01,0.3 0.24,0.45 0.51,0.48 0.29,0.03 0.56,0.06 0.86,-0 0.5,-0.11 0.46,-0.89 -0.02,-0.99 -0.29,-0.06 -0.57,-0.03 -0.86,0 -0.27,0.03 -0.49,0.22 -0.48,0.51z"/>
  <path class="fil0" d="M25.25 78.74c0.18,0.08 0.31,0.09 0.49,0.04 0.36,-0.09 0.45,-0.44 0.33,-0.72 -0.05,-0.23 -0.23,-0.44 -0.5,-0.41l-0.46 0.2c-0.2,0.26 -0.23,0.73 0.13,0.88z"/>
  <path class="fil0" d="M13.36 66.35c0.83,0.08 1.65,0.09 2.46,-0.17 0.54,-0.18 0.43,-1.03 -0.16,-1 -0.77,0.04 -1.55,0.1 -2.32,0.17 -0.65,0.06 -0.61,0.94 0.02,1z"/>
  <path class="fil0" d="M15.09 67.67c-1.61,0.2 -3.2,0.03 -4.8,0.17 -0.65,0.05 -0.59,0.92 0.03,0.98 1.58,0.16 3.4,0.37 4.93,-0.17 0.51,-0.18 0.43,-1.06 -0.16,-0.98z"/>
  <path class="fil0" d="M14.76 71.61l0.03 -0.02 0.04 -0.04c0.29,-0.3 0.25,-0.83 -0.22,-0.95 -0.51,-0.13 -0.98,0.59 -0.52,0.94l0.01 0.01c0.17,0.18 0.45,0.2 0.65,0.06l-0.01 0.02 0.02 -0.02z"/>
  <path class="fil0" d="M13.81 72.98c-0.95,0.13 -1.91,0.21 -2.86,0.32 -0.97,0.11 -1.94,0.01 -2.9,0.13 -0.65,0.08 -0.64,1 0.02,1.03 1.96,0.08 3.99,0.14 5.91,-0.38 0.6,-0.16 0.45,-1.18 -0.18,-1.09z"/>
  <path class="fil0" d="M12.19 80.55c-0.38,-0.12 -0.8,-0.08 -1.12,0.15 -0.44,0.3 -0.24,0.95 0.29,0.97 0.29,0.01 0.58,-0.01 0.86,-0.1 0.51,-0.17 0.46,-0.86 -0.02,-1.02z"/>
  <path class="fil0" d="M20.64 85.61c-1.27,0.26 -2.51,0.5 -3.81,0.33 -0.63,-0.09 -0.84,0.74 -0.24,0.96 1.36,0.5 3.2,0.24 4.47,-0.37 0.56,-0.27 0.11,-1.03 -0.41,-0.92z"/>
  <path class="fil0" d="M36.67 82.1c0.4,0.11 1.09,0.12 1.43,-0.13 0.42,-0.3 0.24,-0.91 -0.28,-0.94l-0.49 0.04c-0.23,0.02 -0.45,0.01 -0.68,0.08 -0.49,0.14 -0.44,0.82 0.02,0.95z"/>
  <path class="fil0" d="M16.43 63.04c1.68,0.26 3.55,0.54 5.23,0.18 0.61,-0.13 0.39,-0.98 -0.16,-1.01 -1.61,-0.1 -3.35,-0.33 -4.96,-0.13 -0.5,0.06 -0.69,0.87 -0.11,0.96z"/>
  <path class="fil0" d="M62.2 64.82c1.18,0.4 2.76,0.49 3.91,-0.05 0.45,-0.21 0.21,-1.02 -0.28,-0.95 -1.13,0.16 -2.26,0.21 -3.39,0.03 -0.64,-0.11 -0.85,0.76 -0.24,0.97z"/>
  <path class="fil0" d="M69.38 64.26c2.33,-0.04 4.72,-0.1 7.04,-0.31 0.65,-0.06 0.63,-0.99 -0.03,-1 -2.33,-0.05 -4.73,0.06 -7.04,0.33 -0.62,0.07 -0.62,0.99 0.03,0.98z"/>
  <path class="fil0" d="M74.3 66.32c-0.56,-0.18 -1.16,-0.21 -1.74,-0.16 -0.66,0.05 -0.61,0.94 0.02,1 0.54,0.05 1.06,0.19 1.6,0.17 0.6,-0.02 0.64,-0.83 0.11,-1.01z"/>
  <path class="fil0" d="M77.46 66.59c1.4,-0.03 2.85,0.4 4.22,-0 0.55,-0.16 0.43,-1.07 -0.16,-1.01 -1.4,0.14 -2.85,-0.34 -4.22,0.04 -0.55,0.15 -0.4,0.98 0.16,0.97z"/>
  <path class="fil0" d="M73.73 69.13c2.26,0.27 3.98,0.93 5.95,2.05 0.5,0.28 1.04,-0.43 0.59,-0.81 -1.68,-1.44 -4.22,-2.38 -6.45,-2.21 -0.52,0.04 -0.68,0.91 -0.1,0.98z"/>
  <path class="fil0" d="M81.38 68.91c0.99,0.01 1.97,0.02 2.96,0.08 0.57,0.04 0.64,-0.86 0.11,-0.98 -1,-0.24 -2.07,-0.11 -3.1,-0.09 -0.64,0.02 -0.61,0.98 0.02,0.99z"/>
  <path class="fil0" d="M83.04 70.23c-0.28,-0.02 -0.47,-0.02 -0.75,-0.07 -0.22,-0.04 -0.45,0.04 -0.56,0.25 -0.13,0.23 -0.05,0.57 0.2,0.69 0.41,0.2 1.13,0.38 1.49,-0.01 0.32,-0.35 0.05,-0.82 -0.38,-0.85z"/>
  <path class="fil0" d="M82.59 72.17c-0.25,0.05 -0.36,0.26 -0.35,0.48 -0.06,0.4 0.37,0.73 0.76,0.51l0.25 -0.25c0.22,-0.32 -0.1,-0.81 -0.47,-0.78l-0.19 0.03z"/>
  <path class="fil0" d="M77.47 84.11c-0.54,0.12 -0.39,1.02 0.15,0.96 0.49,-0.06 1.01,-0.06 1.5,-0.16 0.49,-0.11 0.45,-0.88 -0.02,-0.98 -0.54,-0.1 -1.1,0.07 -1.63,0.19z"/>
  <path class="fil0" d="M90.06 85.53c-0.29,-0.09 -0.63,-0.03 -0.93,-0.01 -0.65,0.06 -0.61,0.94 0.02,1 0.31,0.03 0.64,0.08 0.94,-0.02 0.5,-0.16 0.45,-0.83 -0.03,-0.98z"/>
  <path class="fil0" d="M92.21 75.48c1.35,0.22 3.02,0.27 4.36,-0.01 0.51,-0.11 0.46,-0.9 -0.03,-1 -1.34,-0.28 -3.01,-0.21 -4.36,0.01 -0.51,0.08 -0.46,0.92 0.03,1z"/>
  <path class="fil0" d="M94.41 68.87c-1.31,-0.12 -2.69,-0 -4,0.1 -0.63,0.05 -0.6,0.93 0.03,0.98 1.31,0.09 2.69,0.07 4,-0.06 0.66,-0.07 0.62,-0.96 -0.03,-1.01z"/>
  <path class="fil0" d="M94.73 65.18c-1.82,-0.05 -3.7,-0.08 -5.52,0.08 -0.66,0.06 -0.62,0.96 0.02,1.01 1.81,0.16 3.72,0.12 5.52,-0.08 0.65,-0.07 0.64,-1 -0.02,-1.02z"/>
  <path class="fil0" d="M84.29 65.46c0.6,0.1 1.3,0.1 1.9,0.03 0.23,-0.03 0.43,-0.15 0.49,-0.39 0.06,-0.25 -0.1,-0.6 -0.38,-0.63 -0.66,-0.07 -1.38,-0.09 -2.03,0.02 -0.49,0.08 -0.45,0.89 0.02,0.97z"/>
  <path class="fil0" d="M55.58 67.94c-0.63,0.15 -1.03,0.4 -1.38,0.95 -0.16,0.25 -0.01,0.54 0.2,0.69 1.83,1.28 4.25,1.17 6.37,1.6 0.63,0.13 0.87,-0.81 0.24,-0.97 -1.81,-0.46 -3.85,-0.33 -5.54,-1.17l0.4 -0.15c0.6,-0.19 0.33,-1.08 -0.29,-0.94z"/>
  <path class="fil0" d="M68.26 77.52c0.8,-1.17 0.51,-2.48 -0.23,-3.61 -0.29,-0.45 -1.12,-0.13 -0.9,0.41 0.41,1.02 0.72,1.95 -0.1,2.84 -0.72,0.78 -1.74,1.24 -2.57,1.86 -0.53,0.4 -0.05,1.21 0.54,0.87 1.12,-0.63 2.52,-1.28 3.26,-2.38z"/>
  <path class="fil0" d="M76.35 77.35c-0.54,0.36 -0.05,1.12 0.52,0.84 1.66,-0.82 3.27,-3.15 1.18,-4.46 -0.47,-0.29 -1.02,0.44 -0.58,0.79 1.24,1 -0.2,2.22 -1.12,2.82z"/>
  <path class="fil0" d="M53.95 84.99c1.7,-0.7 3.49,-1.22 5.04,-2.23 0.53,-0.35 0.02,-1.18 -0.53,-0.85 -1.54,0.94 -3.31,1.37 -4.93,2.15 -0.52,0.25 -0.12,1.15 0.42,0.93z"/>
  <path class="fil0" d="M71.94 87.41c-0.59,-0.39 -1.25,-0.71 -1.79,-1.18 -0.66,-0.59 0.11,-1.21 0.58,-1.62 0.43,-0.38 -0.16,-1.09 -0.63,-0.77 -0.84,0.56 -1.78,1.45 -1.29,2.55 0.47,1.05 1.74,1.6 2.75,1.97 0.57,0.21 0.82,-0.64 0.37,-0.94z"/>
  <path class="fil0" d="M65.92 86.32c-1.48,1.32 -1.21,3.53 0.36,4.64 0.5,0.36 0.98,-0.42 0.6,-0.83 -0.88,-0.96 -1.05,-2.06 -0.23,-3.12 0.39,-0.51 -0.24,-1.12 -0.73,-0.69z"/>
  <path class="fil0" d="M46.73 92.81c6.09,-0.64 11.63,-3.39 16.34,-7.23 0.46,-0.38 -0.18,-1.16 -0.66,-0.81 -4.67,3.37 -9.93,6.18 -15.7,7.02 -0.63,0.09 -0.63,1.09 0.03,1.02z"/>
  <path class="fil0" d="M62.05 88.93c-1.26,1.5 -2.62,2.5 -4.44,3.25 -0.61,0.26 -0.34,1.08 0.3,0.97 1.95,-0.33 4.13,-1.78 5.01,-3.58 0.26,-0.54 -0.46,-1.13 -0.87,-0.64z"/>
  <path class="fil0" d="M47.29 84.97c-4.64,1.61 -9.37,2.59 -14.17,3.6 -0.56,0.12 -0.41,1.06 0.16,1 4.87,-0.51 9.81,-1.64 14.3,-3.62 0.59,-0.26 0.35,-1.21 -0.3,-0.99z"/>
  <path class="fil0" d="M52.57 87c-1.95,0.53 -3.83,1.26 -5.87,1.44 -0.64,0.06 -0.62,0.97 0.03,0.99 2.11,0.07 4.21,-0.66 6.14,-1.44 0.61,-0.25 0.36,-1.17 -0.3,-0.99z"/>
  <path class="fil0" d="M72.02 77.82c-0.53,0.24 -0.12,1.11 0.41,0.92 2.4,-0.85 5.56,-4.89 1.65,-6.01 -0.63,-0.18 -0.83,0.75 -0.24,0.96 2.63,0.95 -0.52,3.53 -1.83,4.13z"/>
  <path class="fil0" d="M69.3 72.23c0.7,-0.03 0.64,-1.01 -0.03,-1.07 -0.98,-0.08 -1.97,-0.33 -2.96,-0.28 -0.66,0.03 -0.6,0.95 0.03,1 0.99,0.09 1.96,0.4 2.96,0.35z"/>
  <path class="fil0" d="M35.42 24.94c-0.44,-0.21 -0.83,-0.55 -1.2,-0.87l-0.38 -0.4c0.67,0.11 1.44,0.31 1.93,0.76 0.36,0.32 0.06,0.7 -0.35,0.51zm-1.76 -2.36l-0.1 0.03c-0.44,0.03 -0.79,0.25 -0.95,0.68 -0.15,0.41 0.15,0.89 0.38,1.2 0.54,0.71 1.32,1.37 2.17,1.68 1.24,0.45 2.32,-0.77 1.93,-1.95 -0.42,-1.28 -2.25,-1.75 -3.43,-1.64z"/>
  <path class="fil0" d="M54.08 24.32c-0.66,0.17 -1.37,0.16 -2.03,-0.02 -0.72,-0.19 -1.29,-1.07 -0.51,-1.59 0.39,-0.27 0.98,-0.3 1.4,-0.09 0.2,0.17 0.51,0.22 0.72,-0.02 0.68,-0.79 2.4,-1.06 2.18,0.46 -0.12,0.79 -1.11,1.09 -1.77,1.26zm-0.96 -2.71c-1.41,-0.56 -3.26,0.37 -3.09,2.06 0.2,1.97 2.72,2.12 4.21,1.89 1.82,-0.29 3.18,-1.59 2.75,-3.5 -0.41,-1.85 -2.8,-1.51 -3.87,-0.44z"/>
  <path class="fil0" d="M82.34 26.04c0.33,-1.01 0.07,-2.09 -1.08,-2.65 -1.54,-0.76 -3.46,0.18 -3.84,1.84 -0.13,0.56 0.64,0.86 0.92,0.37 0.48,-0.81 1.19,-1.64 2.24,-1.22 1,0.4 0.79,1.33 0.2,2.02 -0.34,0.41 0.02,1.25 0.6,0.98 0.41,-0.19 1.33,-0.55 1.4,0.19 0.06,0.6 -0.49,0.98 -1.02,1.05 -0.65,0.08 -0.65,1.01 0.02,1.02 1.2,0.02 2.21,-0.97 2.08,-2.2 -0.09,-0.93 -0.76,-1.33 -1.52,-1.39z"/>
 </g>
</svg>
