<?xml version="1.0" encoding="UTF-8"?>
<svg xmlns="http://www.w3.org/2000/svg" xml:space="preserve" width="0.747331in" height="0.747327in" version="1.1" style="shape-rendering:geometricPrecision; text-rendering:geometricPrecision; image-rendering:optimizeQuality; fill-rule:evenodd; clip-rule:evenodd"
viewBox="0 0 222.57 222.57"
 xmlns:xlink="http://www.w3.org/1999/xlink"
 xmlns:xodm="http://www.corel.com/coreldraw/odm/2003">
 <defs>
  <style type="text/css">
   <![CDATA[
    .fil0 {fill:black;fill-rule:nonzero}
   ]]>
  </style>
 </defs>
 <g id="Layer_x0020_1">
  <metadata id="CorelCorpID_0Corel-Layer"/>
  <path class="fil0" d="M180.83 138.33c-1.03,-0.06 -2.07,-0.09 -3.11,-0.13 -0.72,-0.02 -1.49,-0.1 -2.23,-0.07 -0,-0.56 -0.02,-1.12 -0.02,-1.69l1.1 -0.01c1.28,0 2.56,-0.04 3.82,-0.25l0.41 -0.2c0,0.79 0.01,1.57 0.03,2.35zm-0.05 -4l-0.45 -0.23c-1.12,-0.2 -2.25,-0.21 -3.39,-0.24 -0.5,-0.01 -1.02,-0.05 -1.53,-0.03 -0.02,-0.56 -0.05,-1.11 -0.07,-1.66 1.23,0.11 2.55,-0.07 3.66,-0.27 1.08,-0.18 0.98,-1.94 -0.05,-2.12 -1.09,-0.19 -2.51,-0.4 -3.76,-0.26 -0.05,-0.67 -0.09,-1.34 -0.15,-2.01 1.92,0.11 3.98,0.24 5.91,0.09 -0.12,2.23 -0.17,4.47 -0.16,6.72zm-69.49 85.22c-59.7,0 -108.26,-48.57 -108.26,-108.26 0,-59.69 48.56,-108.25 108.26,-108.25 58.7,0 106.63,46.96 108.21,105.28 -1.88,-0.14 -4.06,0.21 -5.72,0.22 -3.37,0.02 -6.86,-0.21 -10.22,0.15 -0.38,-0.29 -0.95,-0.26 -1.32,0.07 -2.77,0.73 -5.56,1.32 -8.43,1.49l-0.77 0.4c-0.3,0.17 -0.53,0.47 -0.55,0.91 -0.32,8.07 -0.28,16.24 -0.14,24.35 -0.72,0 -1.45,0.02 -2.17,0.05 0.03,-1.08 -0.01,-2.17 -0.02,-3.25l-0.02 -0.09c0.42,-0.62 0.11,-1.66 -0.89,-1.72 -2.01,-0.12 -4.11,-0.23 -6.14,-0.07 -0.03,-1.14 -0.08,-2.27 -0.13,-3.41l-0.16 -0.51c0.34,-0.58 0.25,-1.39 -0.6,-1.51 -2.61,-0.37 -5.49,-0.13 -8.11,0 -0.55,0.03 -0.86,0.38 -0.94,0.76l-0.39 0.81c-0.96,10.09 -0.31,20.92 0.02,31.06 0.04,1.4 2.12,1.33 2.16,-0.05 0.01,-0.42 0.03,-0.84 0.05,-1.26 0.62,0 1.29,-0.11 1.8,-0.17 0.58,-0.07 1.06,-0.48 1.05,-1.1 -0.02,-0.65 -0.52,-0.99 -1.1,-1.05 -0.49,-0.05 -1.08,-0.16 -1.66,-0.16 0.01,-0.38 0.03,-0.76 0.04,-1.14 0.74,0.01 1.49,-0.07 2.18,-0.12 1.36,-0.09 1.28,-2 -0.05,-2.09 -0.64,-0.04 -1.35,-0.11 -2.04,-0.11 0.02,-0.67 0.05,-1.33 0.07,-2 1.08,0.04 2.25,-0.18 3.16,-0.3 1.11,-0.15 1.54,-1.96 0.23,-2.14 -0.91,-0.12 -1.82,-0.21 -2.74,-0.25l-0.57 -0.03c0.02,-0.47 0.03,-0.93 0.04,-1.4 0.4,0.01 0.8,-0.01 1.2,-0.01 1.06,-0.01 2.11,-0.06 3.14,-0.24 1.08,-0.18 0.98,-1.95 -0.05,-2.13 -1.04,-0.17 -2.1,-0.21 -3.16,-0.22l-1.08 -0.02c0,-0.44 0,-0.89 0.01,-1.33 0.56,0.03 1.13,0 1.73,-0.01 1.22,-0.02 2.46,-0.07 3.69,-0.15l0.01 0.56c0.05,1.38 2.08,1.3 2.13,-0.05 0.09,-2.63 0.13,-5.26 0.12,-7.91 1.58,0.11 3.17,0.08 4.76,0 -0.02,1.39 -0.07,2.78 0.06,4.17l0.01 0.02c-0.35,3.22 -0.04,6.61 0.04,9.83 0.03,1.34 2.04,1.27 2.07,-0.05 0.07,-2.94 0.36,-6.04 0.12,-9 0.74,0.03 1.47,0.04 2.21,0.05 0.04,1.74 0.07,3.48 0.12,5.22 0.03,1.38 2.09,1.31 2.13,-0.05 0.26,-10.28 0.43,-20.72 0.05,-31.02 2.37,-0.04 4.7,-0.47 7,-1.05l0 0.68c-0,0.91 0,1.79 0.18,2.69 0.22,1.07 1.89,0.97 2.1,-0.05 0.18,-0.89 0.17,-1.79 0.17,-2.7l-0.01 -1.01c2.88,0.23 5.82,0.11 8.69,0.11 1.92,0.01 4.52,0.44 6.71,0.25l0 0.05c0,59.69 -48.57,108.26 -108.26,108.26zm0 -219.55c-61.37,0 -111.29,49.92 -111.29,111.28 0,61.37 49.92,111.29 111.29,111.29 61.36,0 111.28,-49.92 111.28,-111.29 0,-61.36 -49.92,-111.28 -111.28,-111.28z"/>
  <path class="fil0" d="M13.07 125.91c0.79,-0.09 1.87,-0.52 2.5,-2.08l0.82 -2.29c0.2,-0.55 0.46,-0.65 0.81,-0.68l0.4 0.12c0.12,0.08 0.26,0.22 0.31,0.61 0.02,0.14 0.02,0.59 -0.26,1.85 -0.1,0.45 0.11,0.9 0.52,1.12l0.16 0.08 0.8 0.05 0.59 -0.54c0.36,-0.83 0.49,-1.78 0.38,-2.81 -0.11,-0.93 -0.55,-1.69 -1.27,-2.18 -0.59,-0.4 -1.25,-0.56 -1.97,-0.48 -0.91,0.1 -1.64,0.56 -2.13,1.3l-0.07 0.12 -0.25 0.56 -0.21 0.53 -0.53 1.44 -0.24 0.57 -0.16 0.28 -0.52 0.24 -0.41 -0.14 -0.28 -0.5c-0,-0.05 -0.02,-0.5 0.55,-2.35 0.14,-0.45 -0.05,-0.94 -0.46,-1.18l-0.16 -0.09 -0.77 -0.09 -0.61 0.47c-0.28,0.49 -0.49,1.06 -0.62,1.68 -0.14,0.64 -0.17,1.24 -0.11,1.79 0.1,0.88 0.52,1.59 1.24,2.08 0.52,0.34 1.07,0.52 1.64,0.52l0.33 -0.02z"/>
  <path class="fil0" d="M19.71 132.46c0.1,0.48 0.52,0.81 0.98,0.81l0.2 -0.02 0.18 -0.03 0.64 -0.43 0.15 -0.76 -0.91 -4.46c-0.11,-0.54 -0.65,-0.89 -1.19,-0.79l-0.18 0.05 -0.64 0.43 -0.15 0.76 0.24 1.15 -6.95 1.42c-0.54,0.12 -0.89,0.65 -0.79,1.19l0.04 0.18 0.43 0.64 0.76 0.15 6.95 -1.42 0.24 1.15z"/>
  <path class="fil0" d="M17.88 139.86l-0.26 -0.85 1.41 0.04 -1.15 0.81zm5.47 -2.01l-0.05 -0.19c-0.13,-0.42 -0.51,-0.71 -0.94,-0.72l-8.6 -0.26 -0.74 0.29 -0.3 0.73 0 0.18c0,0.54 0.43,0.98 0.97,1l1.6 0.05 0.69 2.26 -1.31 0.93c-0.44,0.31 -0.55,0.91 -0.26,1.37l0.09 0.15 0.65 0.44 0.19 0.02 0.58 -0.18 7.04 -4.96c0.36,-0.25 0.51,-0.7 0.38,-1.11z"/>
  <path class="fil0" d="M24.93 148.38l0.54 0.55 0.77 0.01 0.17 -0.07c0.51,-0.21 0.77,-0.8 0.56,-1.31l-1.69 -4.22 -0.54 -0.55 -0.77 -0.01 -0.17 0.07c-0.52,0.2 -0.77,0.79 -0.56,1.31l0.44 1.09 -6.59 2.64c-0.52,0.21 -0.77,0.8 -0.56,1.32l0.07 0.17 0.54 0.55 0.4 0.07 0.38 -0.07 6.58 -2.64 0.44 1.09z"/>
  <path class="fil0" d="M29.73 155.95l0.16 -0.08c0.5,-0.26 0.7,-0.86 0.45,-1.36l-1.7 -3.33 -0.58 -0.5 -0.77 0.06 -7.45 3.8 -0.5 0.59 0.06 0.77 1.7 3.32 0.59 0.51 0.31 0.04 0.46 -0.11 0.15 -0.07c0.5,-0.26 0.7,-0.87 0.44,-1.36l-1.15 -2.27 2.09 -1.06 0.74 1.46c0.26,0.49 0.86,0.7 1.36,0.45l0.17 -0.09 0.5 -0.58 -0.06 -0.77 -0.74 -1.46 1.28 -0.65 1.16 2.27 0.59 0.5 0.77 -0.06z"/>
  <path class="fil0" d="M35.35 170.88c-0.09,-0.54 -0.18,-1.01 -0.26,-1.41l-0.19 -0.98c-0.12,-0.65 0.12,-0.84 0.26,-0.94l0.5 -0.16 0.57 0.37c0.09,0.11 0.32,0.5 0.73,1.72 0.14,0.43 0.53,0.72 1.02,0.68l0.18 -0.01 0.71 -0.36 0.23 -0.77c-0.11,-0.9 -0.48,-1.78 -1.11,-2.6 -0.57,-0.76 -1.34,-1.18 -2.2,-1.22l-0.17 -0c-0.65,0 -1.25,0.2 -1.77,0.6 -0.72,0.56 -1.13,1.32 -1.17,2.22l0 0.12 0.07 0.62 0.09 0.57 0.29 1.49 0.09 0.62 0 0.33 -0.26 0.43 -0.49 0.13 -0.5 -0.28c-0.03,-0.03 -0.28,-0.42 -0.73,-2.3 -0.1,-0.45 -0.52,-0.78 -0.98,-0.78l-0.02 0 -0.18 0.01 -0.71 0.31 -0.28 0.72c0.01,0.57 0.12,1.17 0.33,1.77 0.21,0.61 0.48,1.15 0.82,1.59 0.53,0.7 1.27,1.1 2.13,1.16l0.19 0c0.66,0 1.26,-0.19 1.76,-0.58 0.64,-0.48 1.35,-1.41 1.08,-3.07z"/>
  <path class="fil0" d="M41.72 176.16l-2.69 2.45 -0.85 0.31 -0.81 -0.38 -0.31 -0.85 0.39 -0.81 2.7 -2.45 0.76 -0.31 0.08 0.01 0.81 0.38 0.3 0.85 -0.38 0.81zm2.58 -0.71c0.04,-0.91 -0.26,-1.75 -0.87,-2.43 -0.62,-0.68 -1.42,-1.06 -2.34,-1.1l-0.18 -0.01c-0.85,0 -1.61,0.3 -2.25,0.89l-2.69 2.45c-0.68,0.61 -1.06,1.42 -1.1,2.34 -0.05,0.92 0.26,1.74 0.89,2.44 0.62,0.67 1.42,1.06 2.33,1.1l0.18 0c0.85,0 1.61,-0.29 2.25,-0.88l2.7 -2.45c0.68,-0.62 1.06,-1.43 1.1,-2.35z"/>
  <path class="fil0" d="M51.41 181.1l-0.09 -0.17 -0.61 -0.5 -0.78 0.08 -4.67 2.59 2.19 -4.87 0.02 -0.78 -0.55 -0.56 -0.17 -0.08c-0.51,-0.21 -1.1,0.01 -1.32,0.52l-3.53 7.85c-0.18,0.4 -0.08,0.87 0.24,1.16l0.14 0.13 0.69 0.27 0.49 -0.12 7.53 -4.17c0.48,-0.27 0.66,-0.87 0.41,-1.35z"/>
  <path class="fil0" d="M53.98 187.54l-1.29 -0.99 0.88 -1.14 2.01 1.55c0.44,0.34 1.08,0.25 1.41,-0.19l0.11 -0.14 0.21 -0.75 -0.38 -0.67 -2.96 -2.27c-0.44,-0.34 -1.07,-0.25 -1.41,0.19l-5.1 6.64 -0.21 0.75 0.39 0.67 2.96 2.27 0.62 0.21 0.13 -0.01 0.67 -0.39 0.1 -0.14c0.34,-0.44 0.26,-1.08 -0.19,-1.41l-2.01 -1.55 1.44 -1.87 1.29 0.99 0.74 0.2 0.67 -0.38 0.11 -0.14c0.34,-0.45 0.26,-1.08 -0.19,-1.42z"/>
  <path class="fil0" d="M61.36 192.27c-0.33,0.52 -0.62,0.59 -0.85,0.6l-0.87 -0.3 -0.9 -0.57 1.26 -1.98 0.9 0.57 0.64 0.68c0.09,0.2 0.14,0.49 -0.19,1zm1.87 1.18c0.82,-1.29 0.64,-2.37 0.35,-3.04 -0.28,-0.67 -0.79,-1.24 -1.5,-1.69l-1.89 -1.21c-0.47,-0.29 -1.1,-0.15 -1.4,0.31l-4.44 7 -0.13 0.77 0.44 0.63 0.15 0.09c0.47,0.3 1.09,0.16 1.39,-0.31l1.37 -2.15 0.82 0.53 -0.36 3.35c-0.06,0.54 0.32,1.03 0.86,1.11l0.17 0.02 0.14 0.02 0.62 -0.21 0.39 -0.69 0.31 -2.9 0.02 0c0.75,0 1.82,-0.28 2.68,-1.63z"/>
  <path class="fil0" d="M70.91 193.7l-3.32 -1.72c-0.5,-0.25 -1.1,-0.06 -1.36,0.43l-3.83 7.45 -0.07 0.77 0.5 0.59 3.31 1.71 0.46 0.12 0.9 -0.55 0.08 -0.15 0.07 -0.77 -0.5 -0.6 -2.26 -1.15 1.08 -2.1 1.45 0.75c0.5,0.25 1.1,0.06 1.36,-0.44l0.09 -0.17 0.07 -0.77 -0.5 -0.59 -1.46 -0.76 0.66 -1.27 2.26 1.16c0.5,0.26 1.1,0.07 1.36,-0.43l0.09 -0.16 0.06 -0.78 -0.5 -0.59z"/>
  <path class="fil0" d="M76.77 196.41l-0.17 -0.08c-0.51,-0.21 -1.1,0.04 -1.31,0.56l-3.09 7.59c-0.21,0.52 0.03,1.1 0.55,1.31l0.17 0.07 0.38 0.08 0.39 -0.08 0.55 -0.55 3.09 -7.6 -0 -0.77 -0.55 -0.54z"/>
  <path class="fil0" d="M87.26 200.95c0.16,-0.53 -0.14,-1.1 -0.67,-1.25l-2.18 -0.67c-0.81,-0.24 -1.64,-0.19 -2.41,0.16 -0.89,0.39 -1.51,1.11 -1.81,2.08l-1.06 3.48c-0.28,0.91 -0.2,1.78 0.23,2.58 0.43,0.81 1.11,1.35 2.01,1.64l2.26 0.69 0.31 0.04 0.47 -0.12 0.49 -0.6 1.39 -4.53 -0.07 -0.76 -0.6 -0.5 -1.39 -0.42 -0.77 0.08 -0.49 0.6 -0.05 0.17c-0.16,0.53 0.14,1.1 0.67,1.27l0.25 0.07 -0.69 2.25 -1.13 -0.34 -0.72 -0.57 -0.07 -0.91 1.07 -3.49 0.61 -0.71 0.86 -0.06 2.18 0.67 0.76 -0.08 0.5 -0.6 0.05 -0.17z"/>
  <path class="fil0" d="M94.64 201.63l-0.18 -0.03c-0.54,-0.11 -1.08,0.23 -1.19,0.78l-0.81 3.86 -1.5 -4.84 -0.76 -0.7 -0.19 -0.04c-0.55,-0.12 -1.08,0.24 -1.19,0.78l-1.68 8.02c-0.12,0.55 0.23,1.08 0.77,1.2l0.18 0.05 0.76 -0.15 0.44 -0.64 0.81 -3.86 1.5 4.85 0.76 0.69 0.19 0.04 0.21 0.03 0.55 -0.17 0.44 -0.64 1.68 -8.02 -0.14 -0.76 -0.64 -0.44z"/>
  <path class="fil0" d="M102.68 202.66l-4.52 -0.54c-0.56,-0.07 -1.06,0.33 -1.13,0.89l-0.02 0.18 0.21 0.75 0.67 0.37 1.17 0.14 -0.83 7.04c-0.06,0.55 0.33,1.06 0.88,1.13l0.18 0.02 0.12 0.01 0.63 -0.21 0.38 -0.67 0.83 -7.04 1.16 0.13c0.56,0.07 1.06,-0.33 1.12,-0.88l0.02 -0.18 -0.21 -0.75 -0.68 -0.37z"/>
  <path class="fil0" d="M111.91 203.3l-0.75 -0.19 -0.67 0.41 -2.01 2.73 -1.84 -2.85 -0.64 -0.43 -0.77 0.14 -0.15 0.1c-0.47,0.31 -0.6,0.93 -0.29,1.4l2.52 3.89 -0.11 3.75c-0.02,0.55 0.42,1.03 0.98,1.04l0.19 0.01 0.03 0 0.69 -0.28 0.31 -0.7 0.11 -3.76 2.75 -3.74c0.33,-0.44 0.24,-1.08 -0.21,-1.41l-0.15 -0.11z"/>
  <path class="fil0" d="M117.8 211.14l-0.18 -0.03c-0.54,-0.09 -1.05,0.28 -1.15,0.81l-0.35 1.84 0.15 0.76 0.65 0.42 0.18 0.04 0.19 0.02 0.57 -0.17 0.42 -0.65 0.35 -1.85 -0.17 -0.77 -0.67 -0.42z"/>
  <path class="fil0" d="M127.28 201.76l-0.18 0.02 -0.66 0.4 -0.19 0.75 0.59 3.91 -3.09 -4.03 -0.95 -0.38 -0.19 0.02 -0.66 0.4 -0.19 0.75 1.21 8.11c0.07,0.5 0.5,0.87 1,0.87l0.15 -0.01 0.17 -0.03 0.66 -0.39 0.19 -0.74 -0.59 -3.91 3.1 4.03 0.95 0.39 0.19 -0.03 0.67 -0.4 0.19 -0.74 -1.2 -8.11c-0.08,-0.55 -0.58,-0.93 -1.15,-0.85z"/>
  <path class="fil0" d="M133.91 206.31l0.12 -1.41 0.75 1.2 -0.87 0.21zm0.25 -5.35c-0.24,-0.36 -0.67,-0.54 -1.1,-0.44l-0.19 0.04c-0.43,0.1 -0.74,0.46 -0.77,0.9l-0.72 8.58 0.25 0.74 0.71 0.34 0.18 0.01 0.04 0c0.52,0 0.96,-0.39 1.01,-0.92l0.14 -1.6 2.29 -0.55 0.85 1.35c0.29,0.47 0.89,0.61 1.36,0.34l0.15 -0.09 0.48 -0.63 -0.12 -0.78 -4.57 -7.3z"/>
  <path class="fil0" d="M142.55 199.91l1.11 -0.38 0.59 -0.5 0.05 -0.78 -0.06 -0.17c-0.18,-0.53 -0.75,-0.81 -1.28,-0.63l-4.31 1.46 -0.59 0.51 -0.05 0.77 0.06 0.18c0.18,0.53 0.75,0.81 1.28,0.62l1.11 -0.38 2.28 6.71 0.51 0.59 0.45 0.1 0.33 -0.05 0.18 -0.06c0.53,-0.18 0.81,-0.75 0.62,-1.28l-2.28 -6.72z"/>
  <path class="fil0" d="M149.86 195.77c-0.23,-0.52 -0.82,-0.74 -1.33,-0.52l-0.17 0.08 -0.53 0.56 0.02 0.77 3.32 7.49c0.17,0.38 0.53,0.6 0.92,0.6l0.41 -0.08 0.17 -0.07 0.53 -0.56 -0.02 -0.77 -3.32 -7.5z"/>
  <path class="fil0" d="M160.28 198.02l-0.56 0.7 -0.9 0.12 -0.71 -0.56 -1.77 -3.19 -0.1 -0.89 0.57 -0.7 0.55 -0.16 0.34 0.05 0.7 0.56 1.77 3.18 0.11 0.9zm0.05 -5.15c-0.44,-0.79 -1.14,-1.35 -2.02,-1.6 -0.89,-0.25 -1.77,-0.15 -2.57,0.29 -0.8,0.45 -1.36,1.15 -1.61,2.04 -0.25,0.87 -0.14,1.76 0.31,2.56l1.76 3.18c0.45,0.81 1.15,1.36 2.02,1.61l0.94 0.14c0.56,0 1.11,-0.15 1.63,-0.44 0.81,-0.44 1.36,-1.14 1.61,-2.01 0.26,-0.89 0.16,-1.76 -0.29,-2.57l-1.77 -3.19z"/>
  <path class="fil0" d="M166.13 186.28l-0.65 -0.43 -0.75 0.15 -0.15 0.11c-0.46,0.31 -0.58,0.94 -0.27,1.4l2.22 3.27 -4.53 -2.29 -1.03 0.06 -0.16 0.12 -0.43 0.64 0.16 0.76 4.6 6.78 0.65 0.43 0.19 0.02 0.57 -0.18 0.15 -0.1c0.46,-0.31 0.58,-0.94 0.27,-1.4l-2.22 -3.27 4.54 2.29 1.02 -0.07 0.16 -0.11c0.46,-0.31 0.58,-0.93 0.27,-1.4l-4.6 -6.78z"/>
  <path class="fil0" d="M172.66 187.25l-0.5 -1.32 1.19 0.76 -0.69 0.57zm5.19 -0.33l-7.28 -4.6 -1.18 0.07 -0.15 0.12c-0.34,0.28 -0.46,0.74 -0.31,1.15l3.06 8.04 0.54 0.57 0.4 0.07 0.4 -0.07 0.17 -0.08c0.5,-0.21 0.74,-0.77 0.55,-1.28l-0.57 -1.51 1.82 -1.49 1.36 0.86c0.46,0.28 1.06,0.16 1.37,-0.29l0.1 -0.14 0.16 -0.78 -0.45 -0.65z"/>
  <path class="fil0" d="M183.83 181.54l-0.71 -0.3 -0.72 0.28 -1.81 1.78 -4.96 -5.08 -0.71 -0.3 -0.72 0.28 -0.12 0.13c-0.4,0.39 -0.41,1.03 -0.02,1.43l5.78 5.92 0.72 0.3 0.71 -0.28 2.67 -2.6c0.4,-0.39 0.41,-1.03 0.02,-1.43l-0.12 -0.12z"/>
  <path class="fil0" d="M200.2 159.41l-7.07 -4.14c-0.48,-0.28 -1.1,-0.12 -1.38,0.36l-0.09 0.16 -0.11 0.77 0.47 0.62 3.41 2 -5.08 -0.11 -0.89 0.49 -0.09 0.17 -0.11 0.76 0.47 0.62 7.08 4.15 0.51 0.14 0.25 -0.04 0.62 -0.47 0.09 -0.15c0.28,-0.48 0.12,-1.1 -0.36,-1.38l-3.41 -2 5.08 0.12 0.89 -0.5 0.1 -0.17 0.1 -0.77 -0.47 -0.62z"/>
  <path class="fil0" d="M203.18 153.37l-7.42 -3.5 -0.77 -0.04 -0.57 0.52 -0.08 0.17c-0.25,0.5 -0.03,1.11 0.48,1.34l7.42 3.5 0.43 0.09c0.38,0 0.74,-0.21 0.91,-0.57l0.08 -0.17 0.05 -0.78 -0.52 -0.57z"/>
  <path class="fil0" d="M205.15 145.67l-0.61 0.67 -0.49 0.12 -0.42 -0.08 -3.42 -1.26 -0.66 -0.61 -0.04 -0.9 0.61 -0.67 0.48 -0.11 0.42 0.08 3.41 1.25 0.67 0.61 0.04 0.89zm0.05 -3.57l-3.42 -1.26c-0.86,-0.31 -1.75,-0.28 -2.58,0.11 -0.83,0.38 -1.44,1.05 -1.75,1.9 -0.32,0.86 -0.28,1.75 0.1,2.59 0.38,0.83 1.04,1.43 1.91,1.74l3.42 1.25c0.38,0.15 0.78,0.22 1.17,0.22 0.48,0 0.95,-0.11 1.4,-0.32 0.83,-0.38 1.44,-1.05 1.75,-1.91 0.32,-0.87 0.28,-1.74 -0.1,-2.58 -0.39,-0.83 -1.05,-1.44 -1.9,-1.75z"/>
  <path class="fil0" d="M209.77 134.17l-7.92 -2.11c-0.53,-0.15 -1.09,0.18 -1.23,0.72l-0.05 0.18 0.1 0.77 0.62 0.46 3.81 1.02 -4.93 1.23 -0.73 0.72 -0.05 0.18 0.1 0.77 0.61 0.46 7.93 2.12 0.26 0.04 0.51 -0.13 0.47 -0.62 0.05 -0.17c0.15,-0.54 -0.17,-1.09 -0.71,-1.24l-3.82 -1.02 4.93 -1.24 0.72 -0.72 0.05 -0.19 -0.1 -0.76 -0.62 -0.47z"/>
  <path class="fil0" d="M58.54 48.07l0.79 0.37 0.64 -0.23 0.21 -0.17 0.36 -0.68 -0.21 -0.74 -7.55 -9.29 -0.68 -0.36 -0.74 0.22 -0.21 0.17c-0.44,0.35 -0.5,0.98 -0.15,1.42l7.55 9.29z"/>
  <path class="fil0" d="M69.88 40.16l0.59 0.5 0.3 0.05 0.47 -0.12 4.82 -2.52c0.49,-0.26 0.68,-0.87 0.43,-1.36l-0.12 -0.22 -0.59 -0.49 -0.77 0.07 -3.7 1.94 -5.02 -9.6 -0.6 -0.5 -0.77 0.07 -0.23 0.12c-0.5,0.26 -0.69,0.87 -0.43,1.36l5.61 10.71z"/>
  <path class="fil0" d="M84.87 33.33c0.12,0.44 0.53,0.73 0.96,0.73l0.28 -0.04 5.24 -1.51 0.6 -0.48 0.09 -0.77 -0.07 -0.24c-0.16,-0.53 -0.71,-0.84 -1.25,-0.69l-4.02 1.15 -2.99 -10.41 -0.48 -0.61 -0.77 -0.08 -0.24 0.07c-0.53,0.15 -0.85,0.72 -0.69,1.25l3.35 11.62z"/>
  <path class="fil0" d="M104.53 30.25l0.08 0 0.26 -0.02 0.69 -0.36 0.24 -0.73 -0.95 -11.94c-0.04,-0.55 -0.51,-0.97 -1.08,-0.93l-0.27 0.02 -0.69 0.35 -0.24 0.74 0.95 11.94c0.04,0.53 0.48,0.93 1,0.93z"/>
  <path class="fil0" d="M117.58 30.14l0.26 0.02 0.74 -0.2 0.38 -0.68 0.9 -7.5 3.5 8.52 0.81 0.62 0.28 0.03 0.12 0.01c0.5,0 0.94,-0.38 1,-0.89l1.42 -11.88c0.06,-0.55 -0.33,-1.06 -0.89,-1.12l-0.26 -0.03 -0.74 0.21 -0.38 0.67 -0.89 7.51 -3.49 -8.52 -0.81 -0.62 -0.28 -0.03c-0.56,-0.07 -1.06,0.33 -1.12,0.88l-1.42 11.89c-0.06,0.55 0.33,1.06 0.88,1.13z"/>
  <path class="fil0" d="M136.16 29.28l1.67 -5.05c0.19,-0.59 0.54,-0.99 1.09,-1.26l0.96 -0.24 0.72 0.12c0.59,0.19 0.99,0.54 1.26,1.1 0.28,0.54 0.32,1.07 0.12,1.66l-1.68 5.05c-0.19,0.59 -0.54,1 -1.09,1.27 -0.55,0.28 -1.08,0.31 -1.67,0.12 -0.59,-0.19 -0.99,-0.55 -1.27,-1.1 -0.28,-0.55 -0.31,-1.08 -0.12,-1.67zm0.67 4.92c0.48,0.16 0.96,0.24 1.43,0.24 0.67,0 1.34,-0.16 1.98,-0.49 1.1,-0.55 1.85,-1.41 2.24,-2.58l1.67 -5.05c0.38,-1.17 0.3,-2.31 -0.25,-3.41 -0.55,-1.1 -1.42,-1.85 -2.58,-2.23 -1.17,-0.38 -2.33,-0.3 -3.42,0.25 -1.08,0.55 -1.84,1.42 -2.23,2.59l-1.67 5.05c-0.39,1.17 -0.31,2.31 0.24,3.41 0.55,1.1 1.42,1.84 2.59,2.23z"/>
  <path class="fil0" d="M151.6 40.65l0.24 0.13 0.51 0.14 0.26 -0.03 0.61 -0.47 5.96 -10.38c0.27,-0.48 0.11,-1.1 -0.38,-1.38l-0.23 -0.13 -0.77 -0.1 -0.61 0.47 -5.96 10.39c-0.28,0.48 -0.11,1.1 0.37,1.37z"/>
  <path class="fil0" d="M163.81 48.79c0.45,0.77 0.97,1.42 1.55,1.93 0.73,0.64 1.55,0.96 2.46,0.96l0.55 -0.04c0.95,-0.14 1.74,-0.55 2.33,-1.24 0.69,-0.79 1.35,-2.16 0.58,-4.23 -0.31,-0.74 -0.57,-1.38 -0.79,-1.93l-0.57 -1.35c-0.41,-1.03 -0.12,-1.56 0.19,-1.9 0.26,-0.29 0.56,-0.45 0.94,-0.52 0.44,-0.06 0.86,0.08 1.3,0.47 0.2,0.18 0.69,0.73 1.63,2.37 0.23,0.4 0.69,0.59 1.14,0.48l0.25 -0.07 0.62 -0.5 0.07 -0.8c-0.4,-1.18 -1.14,-2.25 -2.21,-3.2 -0.95,-0.83 -2,-1.17 -3.14,-1.01 -0.93,0.14 -1.71,0.56 -2.33,1.27 -0.78,0.89 -1.1,1.97 -0.91,3.12l0.03 0.12 0.27 0.85 0.28 0.76 0.85 2.07 0.31 0.91 0.12 0.57c0.02,0.38 -0.09,0.71 -0.36,1.01 -0.24,0.27 -0.55,0.43 -0.95,0.49 -0.43,0.07 -0.81,-0.05 -1.17,-0.37 -0.13,-0.11 -0.65,-0.69 -1.82,-3.23 -0.2,-0.44 -0.67,-0.67 -1.13,-0.56l-0.26 0.05 -0.63 0.45 -0.14 0.76c0.18,0.76 0.49,1.54 0.94,2.3z"/>
  <path class="fil0" d="M160.23 183.71c-9.68,-0.73 -19.51,-0.61 -29.31,-0.41l0.02 -0.02c0.57,-0.58 1.35,-0.98 2.11,-1.26 1.17,-0.43 0.89,-2.08 -0.34,-2.12 -1.41,-0.06 -2.64,0.69 -3.61,1.63 -0.41,0.4 -0.77,0.89 -1.04,1.39l-0.19 0.45c-5.03,0.09 -10.06,0.19 -15.04,0.18 -16.27,-0.03 -32.54,0.07 -48.82,0.18 -1.34,0.01 -1.28,2.07 0.06,2.08 15.61,0.12 31.23,0.23 46.85,0.19 16.34,-0.04 33.07,1.08 49.37,-0.17 1.38,-0.1 1.29,-2.01 -0.05,-2.11z"/>
  <path class="fil0" d="M157.93 167.5l0.12 -0.44c0.07,-1.11 0.07,-2.23 0.06,-3.34 0,-1.04 -0.32,-2.78 0.19,-3.73l0.05 -0.14c2.63,0.22 5.4,0.23 8.03,0.05 -0.34,2.43 -0.06,5.12 0.09,7.53 -2.89,0.05 -5.71,-0.07 -8.53,0.07zm-19.18 -0.52c-2.57,0.11 -4.88,-0.52 -7.19,-0.98 0.14,-3.63 0.34,-7.38 0.05,-11.01l0.41 -0.14c5.53,0.5 11.32,0.3 16.88,0.04 -0.66,4.35 -0.09,9.31 0.14,13.63 -3.44,-0.16 -6.63,-1.7 -10.29,-1.54zm-14.32 -0.96c-0.81,0.24 -1.6,0.56 -2.39,0.91 0.16,-1.58 0.22,-3.23 0.01,-4.8 1.46,0.08 2.92,0.05 4.39,-0.04l0.13 -0.03c0.55,0.03 1.12,-0.33 1.17,-1.06 0.16,-1.98 0.16,-3.99 0.02,-5.98 0.51,0.03 1.02,0.06 1.53,0.07 -0.26,3.48 -0.09,7.07 0.04,10.57 -1.58,-0.17 -3.18,-0.15 -4.91,0.37zm44.13 -7.31l-0.39 -0.55c-0.18,-0.26 -0.46,-0.46 -0.87,-0.5 -3.17,-0.28 -6.68,-0.3 -9.85,0.05l-0.21 0.07 -0.31 -0.03c-1.2,0.03 -1.77,1.32 -1.24,2.31 0.48,0.9 0.14,2.72 0.14,3.71 -0,1.12 -0.01,2.23 0.07,3.35l0.17 0.52c-1.34,0.12 -2.68,0.32 -4.04,0.63l-0.75 0.14c0.24,-4.5 0.81,-9.63 0.04,-14.08 0.4,-0.65 0.08,-1.7 -0.93,-1.75 -6.42,-0.32 -13.31,-0.67 -19.7,0.09l-0.15 0.05 -0.72 0.11c-0.88,0 -1.76,0.03 -2.66,0.09 -0.47,0.03 -0.76,0.28 -0.89,0.61 -0.34,0.14 -0.62,0.46 -0.66,0.96 -0.14,1.8 -0.18,3.62 -0.08,5.43 -1.47,-0.07 -2.96,-0.06 -4.43,0.07 -0.39,0.04 -0.65,0.22 -0.81,0.45l-0.43 0.59c-0.51,2.16 -0.35,4.67 -0.08,6.85l0.04 0.12c-1.69,0.83 -3.36,1.64 -5.06,2.07 0.23,-11.95 0.26,-23.97 -0.05,-35.92 1.18,-1.27 2.37,-2.53 3.55,-3.8 0.52,0.58 1.03,1.15 1.55,1.7 0.67,0.71 1.31,1.47 2.05,2.1l0 0.39c0.02,1.33 2.04,1.26 2.06,-0.05l0 -0.53 0 -0.61c0.05,-3.49 0.05,-6.99 -0.02,-10.48 -0.03,-1.33 -2.02,-1.26 -2.04,0.04 -0.05,2.62 -0.06,5.24 -0.04,7.86 -0.93,-0.94 -1.9,-1.83 -2.82,-2.7 -0.5,-0.46 -1.08,-0.34 -1.42,0.03l-0.03 0.03c-1.54,1.64 -3.08,3.28 -4.62,4.92l-0.12 0.2 -0.08 0.12 -0.05 0.24 -0.03 0.16c-0.33,12.16 -0.29,24.41 -0.06,36.58 -1.41,0.02 -2.86,-0.34 -4.36,-1.3 -4.84,-3.06 -9.57,1.35 -14.34,-1.58 -3.24,-1.99 -6.7,-2.92 -10.45,-3.57 -4.48,-0.76 -7.96,2.92 -12.49,2.46 -0.32,-0.38 -0.86,-0.56 -1.44,-0.25 -1.05,0.55 -2.12,0.84 -3.2,0.94l0.32 -0.76c0.12,-7.46 0.33,-15.02 -0.04,-22.47l-0.03 -0.14c4.62,0.24 9.29,0.21 13.92,0.04 -0.13,1.66 0.06,3.42 0.09,5.01 0.02,1 0.04,2 0.09,3 -0.03,0.7 0.52,1.03 1.06,1l0.28 -0.03c2.82,0.39 5.76,0.19 8.62,0.07 -0.06,1.03 0.06,2.14 0.07,3.1 0.01,1.47 0.07,2.94 0.11,4.41 0.02,0.88 0.86,1.15 1.47,0.89 2.06,0.36 4.4,0.09 6.42,-0.08 1.41,-0.13 1.31,-2.03 -0.05,-2.15 -1.8,-0.16 -3.84,-0.38 -5.7,-0.17 0.02,-0.81 0.03,-1.62 0.06,-2.44 0.04,-1.56 0.3,-3.44 -0.16,-4.94l-0.04 -0.07 -0.02 -0.04 -0.16 -0.27 -0.11 -0.1 -0.13 -0.1 -0.56 -0.18c-2.93,-0.08 -6.03,-0.38 -8.97,-0.07 0.01,-0.41 0.02,-0.83 0.03,-1.24 0.05,-2.14 0.35,-4.57 -0.05,-6.71l-0.1 -0.52 -0 -0.04c-0.18,-0.7 -0.94,-0.85 -1.47,-0.57 -5.29,-0.22 -10.68,-0.26 -15.95,0.08 -1.08,0.07 -1.22,1.27 -0.59,1.81l-0.17 0.51c-0.36,7.45 -0.16,15.01 -0.03,22.47l0.31 0.72c-1.09,-0.08 -2.17,-0.3 -3.25,-0.64 -1.97,-0.62 -4.62,0.5 -6.78,-0 -3.88,-0.9 -6.84,-3.2 -10.96,-3.16 -1.15,0.01 -1.4,1.89 -0.22,2.05 4.62,0.66 8.98,4.09 13.66,3.99 5.04,-0.11 8.53,1.59 12.81,-0.87 4.62,1.46 7.68,-1.51 12.19,-2.12 4.85,-0.65 8.71,3.53 12.93,4.63l0.41 0.09 0.52 0.32c2.49,0.68 1.8,3.93 3.24,5.65 0.67,0.8 1.53,1.38 2.57,1.59 1.32,0.26 1.29,0.22 1.78,1.73 0.51,1.59 3,0.85 2.49,-0.75 -0.4,-1.28 -0.91,-2.79 -2.3,-3.28 -1.14,-0.39 -2.1,0.13 -2.92,-1.06 -0.74,-1.07 -0.65,-2.62 -1.25,-3.78l-0.23 -0.33 0.73 -0.13c2.33,-0.52 4.56,-1.05 6.78,0.23 0.76,0.44 1.45,1 2.29,1.3 4.18,1.51 8.31,-0.69 12.04,-2.49 3.03,-1.46 5.34,-2.37 8.5,-1.86l0.73 0.15 0.6 0.13c2.63,0.7 4.9,1.36 7.64,1.25 2.43,-0.11 4.69,0.73 6.97,1.31 -1.04,1.08 -2,2.34 -3.42,2.79 -1.22,0.38 -2.17,1.08 -2.87,2.15l-0.4 0.73c-0.77,0.31 -1.63,0.37 -2.42,0.63 -1.45,0.47 -0.76,2.76 0.69,2.26 1.13,-0.38 2.27,-0.66 3.35,-1.17 0.73,-0.35 0.69,-1.22 1.17,-1.75 0.89,-0.97 2.56,-0.84 3.54,-1.76 1.09,-1.05 2.06,-2.73 3.5,-3.35 0.79,0.03 1.58,-0.04 2.4,-0.23 5.82,-1.4 11.27,-0.7 17.15,-1.13 2.92,-0.21 7.53,-0.33 9.92,-2.18 1.38,-1.07 -0.04,-3.42 -1.44,-2.33 -1.92,1.5 -5.45,1.68 -8.27,1.73 0.17,-2.81 0.52,-5.97 -0.13,-8.69z"/>
  <path class="fil0" d="M124.49 143.06c0.02,-1.76 -0.04,-3.5 -0.28,-5.17 -0.17,-1.09 -1.95,-1.56 -2.14,-0.24 -0.58,3.95 -0.21,8.31 0,12.28 0.07,1.37 2.04,1.3 2.11,-0.04 0.07,-1.29 0.15,-2.62 0.22,-3.97 7.27,-1.04 15.09,-0.25 22.41,-0.28 1.49,-0 1.43,-2.32 -0.06,-2.32 -3.8,-0.02 -7.75,0.21 -11.68,0.26 0.06,-0.99 0.08,-1.99 0.03,-2.97l0.87 -0.01 0.84 -0.14c0.97,-0.7 1.83,-1.57 2.71,-2.39 2.44,0.2 5,0.16 7.45,0.03 0.56,0.44 1.12,0.84 1.71,1.24 0.37,0.25 0.78,0.58 1.2,0.86 -0.19,1.33 -0.04,2.78 -0.04,4.1 0,1.7 0.03,3.42 0.21,5.12 0.15,1.45 2.06,1.34 2.2,-0.05 0.18,-1.7 0.2,-3.42 0.21,-5.14 0.01,-1.6 0.23,-3.4 -0.24,-4.95l0.01 -0.02c0.23,-5.97 0.17,-11.96 0.13,-17.95l-0 -0.03c-0.04,-2.63 -0.12,-5.24 -0.15,-7.87l0.41 0.03 0.99 -0.07 0.71 -0.22 0.07 -0.04 0.12 -0.15 0.24 -0.7c0.02,-0.45 0.02,-0.89 0.02,-1.32 2.81,0.33 5.87,0.15 8.69,-0.03 -0.03,0.46 -0.05,0.92 -0.05,1.38 0,0.79 0.65,1.12 1.25,1.05l0.3 0.04 0.44 0.03c-0.36,3.93 -0.06,8.13 0.1,12.02 0.02,0.51 0.31,0.82 0.67,0.94 -1.42,0.2 -2.82,0.44 -4.2,0.83 -0.49,0.14 -0.7,0.5 -0.71,0.88l-0.03 0.12c-0.43,6.76 -0.26,13.69 -0.05,20.46 0.05,1.41 2.13,1.33 2.18,-0.05 0.19,-6.49 0.34,-13.12 -0.02,-19.61 2.68,-0.5 5.43,-0.63 8.07,-1.34 1.32,-0.35 0.69,-2.26 -0.61,-2 -1.21,0.24 -2.44,0.4 -3.67,0.57 0.26,-0.17 0.47,-0.45 0.49,-0.86 0.17,-4.15 0.55,-8.73 0,-12.86l0.01 -0.26c0.01,-0.45 -0.23,-0.89 -0.79,-1.04 -0.36,-0.1 -0.71,-0.13 -1.09,-0.12l-0.12 0.01c-0.02,-0.39 -0.04,-0.78 -0.06,-1.17 0.07,-0.58 -0.29,-1.23 -1.06,-1.28 -3.57,-0.21 -7.61,-0.54 -11.13,0.11 -0.55,0.1 -0.76,0.62 -0.7,1.1l-0.05 0.17 -0.05 1.07c-0.52,0.01 -1.11,0.03 -1.61,0.19l-0.65 0.4 -0.04 0.05 -0.11 0.25 -0.03 0.05 0 0.05 -0.04 0.19c-0.01,3.03 -0.12,6.05 -0.16,9.07l-0.01 0.04c-0.03,5.32 -0.08,10.64 0.07,15.95l-0.06 -0.04c-0.67,-0.44 -1.35,-0.88 -2.07,-1.25l-0.6 -0.1c-2.59,-0.14 -5.33,-0.21 -7.93,0.02 -0.39,-0.12 -0.82,-0.01 -1.15,0.28 -0.8,0.74 -1.7,1.44 -2.45,2.24 -0.6,-0.01 -1.22,0 -1.82,0.03 -0.45,0.01 -0.73,0.26 -0.87,0.57l-0.03 0.05 -0.01 0.07 -0.1 0.35c-0.14,1.32 -0.14,2.69 -0.06,4.03 -2.84,-0.01 -5.66,-0.14 -8.4,-0.55z"/>
  <path class="fil0" d="M73.41 122.36c0.06,-5.62 0.48,-11.39 0.09,-17.02 0.92,0.12 1.87,0.19 2.82,0.22 -0.25,5.66 -0.14,11.38 0,17.03 -0.99,-0.01 -1.98,-0.01 -2.97,0.01l0.05 -0.24zm33.14 -51.55c0.6,-0.17 1.2,-0.42 1.78,-0.7 -0.45,4.98 -0.82,10.54 -0.1,15.41 -0.57,0 -1.14,0 -1.7,0.02 0.12,-4.89 0.26,-9.84 0.02,-14.72zm6.1 -1.72c0.62,0.01 1.22,0.03 1.82,0.01 -0.34,5.41 -0.38,11.08 -0.07,16.49 -1.21,-0.02 -2.42,-0.06 -3.64,-0.07 0.74,-5.26 0.29,-11.23 -0.2,-16.51 0.69,0.07 1.39,0.06 2.09,0.08zm-52.41 61.66c-0.18,4.71 -0.12,9.45 -0.04,14.17 -0.92,0.2 -1.83,0.53 -2.72,0.83 -1.1,0.39 -2.88,0.72 -3.68,1.66l-0.09 0.15 -0.02 0.03 -0.15 0.5c-0.41,2.57 -0.09,5.32 0.01,7.91 0.05,1.34 2.01,1.27 2.06,-0.05 0.09,-2.24 0.32,-4.58 0.12,-6.83 0.79,-0.18 1.59,-0.53 2.26,-0.77 1.25,-0.43 2.61,-0.83 3.73,-1.53l0.14 -0.13c0.26,-0.17 0.46,-0.44 0.47,-0.85 0.07,-4.75 0.15,-9.53 -0,-14.27 1.07,-0.21 2.14,-0.46 3.21,-0.7 0.67,-0.15 1.43,-0.26 2.17,-0.42 -0.07,1.42 -0.06,2.84 -0.06,4.26 -0,1.34 -0.15,2.78 0.02,4.1l0 0.01 0.18 0.55 0.86 0.55c0.58,0.12 1.22,-0.11 1.31,-0.84 0.16,-1.21 0.06,-2.48 0.05,-3.7 -0,-2.04 0.05,-4.09 -0.14,-6.12l-0.03 -0.56 0 -0.01c0.06,-1.31 0.03,-2.61 -0,-3.91 0.93,0.03 1.86,0.04 2.78,-0.05l0.09 -0.03c1.57,0.03 3.14,0.07 4.71,0.01l0.67 -0.27 0.03 -0.02 0.11 -0.15 0.23 -0.62c0.16,-5.98 0.29,-12.05 0.03,-18.03 1.45,-0.02 2.88,-0.09 4.27,-0.2 -0.13,6.2 -0.26,12.48 0,18.66 0.02,0.54 0.36,0.86 0.75,0.96l0.32 0.14c0.79,0.2 1.72,0.23 2.6,0.18 -0.04,6.78 -0.22,13.59 0,20.37 -0.38,0.64 -0.1,1.7 0.74,1.86 1.17,0.24 2.51,0.09 3.67,-0.13 0.44,-0.09 0.72,-0.51 0.77,-0.94 0.18,-0.5 0.11,-1.13 0.1,-1.64l-0.04 -0.58c0.54,0 1.08,-0.07 1.56,-0.15 0.65,-0.11 0.85,-0.8 0.69,-1.35 0.1,-0.48 0.05,-1 0.02,-1.48 1.19,0.13 2.46,0.08 3.67,-0.01 0.06,4.94 0.19,9.85 0.43,14.72 0.07,1.39 2.08,1.32 2.15,-0.05 0.72,-14.49 0.51,-29.41 0.04,-43.93l0.12 0.01c0.44,0.02 0.9,0.01 1.35,-0.05 0.63,0.25 1.51,-0.08 1.53,-0.98 0.18,-7.7 0.09,-15.42 -0.03,-23.12 0.48,0.03 0.97,0.06 1.46,0.08 -0.04,12.83 -0.1,25.67 -0,38.5 0,0.58 0.4,0.89 0.84,0.95l0.22 0.05c0.81,0.02 1.63,0.04 2.44,0.03 -0.17,5.95 -0.15,11.95 0,17.91 0.03,1.37 2.08,1.31 2.12,-0.05 0.16,-6.21 0.17,-12.48 -0.02,-18.68l-0.04 -0.19c0,-0.52 -0.34,-1.05 -1.03,-1.09 -0.82,-0.05 -1.64,-0.03 -2.47,-0.01 0.09,-12.45 0.03,-24.9 -0.01,-37.35 1.13,0.02 2.25,0.02 3.38,0.02 -0.5,6.33 -0.13,12.81 -0.14,19.15 -0,4.42 -0.42,9.08 0.17,13.48l0.06 0.18 0 0.01 0.19 0.38 0.03 0.03 0.25 0.22 0.29 0.15 0.01 0c0.39,0.15 0.82,0.09 1.1,-0.19l0.08 -0.07 0.05 -0.08 0.17 -0.69c0.47,-3.86 0.17,-7.88 0.17,-11.74 -0,-6.9 0.41,-13.98 -0.14,-20.87 2.06,-0.04 4.12,-0.1 6.16,-0.14 -0.05,7.64 -0.06,15.28 -0.05,22.93 0,0.58 0.37,0.88 0.8,0.98 0.49,0.22 1.04,0.22 1.61,0.25l0.88 0c-0.07,2.11 0,4.23 0.04,6.35 0.02,1.34 2.04,1.27 2.07,-0.05 0.03,-2.4 0.13,-4.83 0,-7.23 0.15,-0.54 -0.14,-1.2 -0.77,-1.39 -0.64,-0.19 -1.39,-0.23 -2.05,-0.2l-0.42 0.01c0.01,-7.55 0,-15.11 -0.05,-22.66l-0.09 -0.5 -0.07 -0.11c-0.17,-0.3 -0.46,-0.53 -0.9,-0.53 -0.95,-0.02 -1.9,-0.04 -2.87,-0.06 0.34,-5.85 0.29,-12.03 -0.13,-17.84 -0.04,-0.57 -0.4,-0.86 -0.81,-0.93l-0.02 -0.01 -0.43 -0.06c0.09,-1.64 0.1,-3.36 -0.05,-4.97 -0.12,-1.37 -1.97,-1.28 -2.09,0.05 -0.15,1.58 -0.14,3.26 -0.05,4.86l-0.12 0 -0.44 0.01c0.42,-5.69 0.47,-12 -0.09,-17.63 -0.13,-1.35 -1.94,-1.26 -2.06,0.05 -0.55,5.65 -0.51,12 -0.09,17.7l-0.44 0.06 -0.36 0.16 -0.26 0.02 -0.61 0.21c0.15,-3.32 0.18,-6.74 -0.06,-10.04 -0.09,-1.35 -1.98,-1.27 -2.07,0.05 -0.25,3.59 -0.2,7.34 -0.01,10.93l-0.87 0.42c-0.56,-0.08 -1.19,0.26 -1.24,1.02 -0.33,5.27 -0.15,10.61 -0.02,15.9 -0.75,0.03 -1.49,0.08 -2.23,0.14 -0.41,0.03 -0.68,0.24 -0.82,0.5l-0.18 0.55c-0.13,7.57 -0.22,15.15 -0.07,22.71l-0.56 -0.01c-0.75,0.03 -1.54,0 -2.12,0.55l-0.28 0.73 -0.05 0.25c-0.31,9.18 -0.51,18.51 -0.45,27.82 -1.48,-0.12 -3.04,-0.17 -4.43,0.1 -0.59,-0.19 -1.33,0.16 -1.42,1 -0.04,0.44 -0.06,0.89 -0.08,1.33l-0.03 0.62c-0.45,0 -0.89,0.05 -1.28,0.2l-0.26 0.14 -0.6 0.7c-0.08,0.71 -0.14,1.41 -0.17,2.12l0 0.05 -0.76 -0.03c0.19,-6.94 0,-13.9 -0.02,-20.84l-0.01 -0.07c0,-0.47 -0.29,-0.98 -0.78,-1.06 -0.89,-0.14 -1.88,-0.21 -2.83,-0.13 0.22,-6.21 0.09,-12.51 -0.05,-18.71l-0 -0.16 0 -0.08c-0.02,-0.74 -0.62,-1.04 -1.18,-0.95 -3.42,-0.31 -7.31,-0.45 -10.75,0.05 -0.58,-0.41 -1.55,-0.12 -1.63,0.83 -0.57,6.07 -0.07,12.34 -0,18.44l0.02 0.11c-0.86,-0.02 -1.71,0.02 -2.55,0.04 -0.77,0.03 -1.08,0.65 -1,1.23 -0.03,1.38 -0.06,2.77 -0.03,4.15 -0.99,0.19 -2.02,0.58 -2.91,0.79 -1.31,0.32 -2.63,0.6 -3.92,0.99 -0.55,0.17 -0.75,0.57 -0.71,0.99l-0.01 0.03z"/>
  <path class="fil0" d="M184.16 158.78c0.09,1.42 2.1,1.34 2.18,-0.05 0.15,-2.3 0.19,-4.61 0.19,-6.92 0,-2.71 0.46,-5.89 -0.28,-8.51 -0.29,-1.02 -1.74,-0.92 -2.01,0.05 -0.67,2.37 -0.28,5.22 -0.27,7.66 0,2.59 0.03,5.18 0.19,7.78z"/>
  <path class="fil0" d="M193.7 165.82l-4.82 -3.44 -0.76 -0.18 -0.65 0.42 -0.11 0.15c-0.32,0.45 -0.22,1.09 0.24,1.41l4.82 3.44 0.48 0.76 -0.2 0.87 -0.77 0.48 -0.88 -0.21 -4.82 -3.43 -0.76 -0.18 -0.65 0.41 -0.1 0.14 -0.11 0.24 -0.09 -0.08c-0.74,-0.52 -1.7,-0.4 -2.55,-0.58 -0.47,-0.09 -0.95,0.09 -1.19,0.52 -0.26,0.46 -0.12,1.23 0.42,1.45 0.88,0.36 1.85,0.68 2.81,0.67 0.58,0 0.91,-0.35 1,-0.78l4.76 3.4c0.59,0.42 1.24,0.64 1.94,0.64l0.58 -0.05c0.9,-0.15 1.65,-0.62 2.19,-1.37 0.53,-0.75 0.74,-1.62 0.59,-2.52 -0.15,-0.91 -0.63,-1.67 -1.37,-2.2z"/>
  <path class="fil0" d="M29.22 137.26c0.11,-1.29 0.08,-2.63 0.03,-3.95 2.96,0.07 5.91,0.06 8.86,0 -0.08,1.41 -0.07,2.85 0.06,4.25l0.06 0.23c-0.07,6.66 -0.2,13.33 0,19.97 0.05,1.35 2.05,1.29 2.09,-0.05 0.19,-6.18 0.09,-12.38 0.02,-18.56 3.8,0.31 7.74,0.36 11.53,0.05 -0.02,1.14 -0.03,2.27 -0.03,3.41 -0,1.38 2.16,1.33 2.15,-0.06 -0.01,-1.46 -0.01,-2.92 -0.05,-4.37l-0.09 -0.57 -0.08 -0.13 -0.15 -0.19 -0.04 -0.04 -0.69 -0.31c-4.08,-0.41 -8.35,-0.38 -12.46,-0.04 0.11,-1.56 0.09,-3.15 -0.07,-4.7 -0.07,-0.71 -0.57,-1.04 -1.08,-1.02l-0.03 -0.01c-3.7,-0.1 -7.41,-0.12 -11.11,-0.01 -0.68,0.02 -1,0.53 -1,1.04l-0.01 0.05c-0.05,1.65 -0.15,3.39 -0.01,5.05 0.11,1.36 1.98,1.27 2.09,-0.05z"/>
  <path class="fil0" d="M47.94 142.52c1.37,6.42 0.34,14.01 0.37,20.55 0.01,1.39 2.15,1.34 2.16,-0.05 0.04,-6.56 -0.98,-14.13 0.39,-20.56 0.51,-2.38 -3.44,-2.43 -2.92,0.06z"/>
  <path class="fil0" d="M44.12 160.75c0.12,-5.97 0.18,-11.97 0,-17.93 -0.04,-1.36 -2.06,-1.29 -2.09,0.05 -0.17,5.97 -0.11,11.97 0,17.94 0.02,1.35 2.06,1.28 2.08,-0.05z"/>
  <path class="fil0" d="M32.18 140.6c-0.33,3.63 -0.31,7.47 -0.05,11.11 0.1,1.43 2.09,1.34 2.19,-0.05 0.26,-3.63 0.28,-7.48 -0.04,-11.11 -0.13,-1.37 -1.99,-1.28 -2.1,0.05z"/>
  <path class="fil0" d="M160.97 125.78c0.21,-3.41 0.27,-7.09 -0.06,-10.48 -0.13,-1.35 -1.94,-1.26 -2.07,0.05 -0.33,3.39 -0.27,7.08 -0.06,10.48 0.09,1.43 2.1,1.34 2.19,-0.05z"/>
  <path class="fil0" d="M156.96 147.54c0.57,0.02 1.14,-0.34 1.1,-1.08 0.46,-10.33 0.13,-20.72 -0.05,-31.05 -0.02,-1.35 -2.07,-1.29 -2.09,0.05 -0.18,10.33 -0.51,20.72 -0.05,31.04 -0.03,0.72 0.52,1.06 1.09,1.03z"/>
  <path class="fil0" d="M134.74 160.01c0.5,0.12 1.19,-0.19 1.26,-0.76l0.03 -1.03c-0.08,-1.36 -2,-1.27 -2.08,0.06l0 0.75c0.06,0.46 0.31,0.86 0.79,0.98z"/>
  <path class="fil0" d="M138.91 157.11c-0.41,-0.1 -1,0.08 -1.17,0.51 -0.18,0.45 -0.22,0.81 -0.15,1.28 0.07,0.48 0.3,0.89 0.81,1.01 0.52,0.13 1.2,-0.2 1.29,-0.78 0.07,-0.45 0.14,-0.88 -0.04,-1.32 -0.14,-0.34 -0.36,-0.62 -0.74,-0.71z"/>
  <path class="fil0" d="M143.84 159.51c0.13,-0.38 0.04,-0.91 0.04,-1.3 0,-0.68 -0.52,-1 -1.05,-0.98 -0.53,0.01 -1.06,0.36 -1.06,1.03 -0,0.41 -0.08,0.91 0.05,1.3 0.34,1.03 1.68,0.91 2.01,-0.05z"/>
  <path class="fil0" d="M135.38 161.78c-0.51,-0.13 -1.18,0.2 -1.27,0.76 -0.07,0.47 -0.15,0.84 -0.01,1.32 0.33,1.05 1.77,0.94 2.07,-0.05 0.12,-0.38 0.06,-0.66 0,-1.04 -0.07,-0.47 -0.29,-0.87 -0.79,-0.99z"/>
  <path class="fil0" d="M143.09 161.49c-0.52,-0.12 -1.24,0.2 -1.31,0.79 -0.06,0.54 -0.19,1.06 0,1.59 0.37,1.08 1.77,0.96 2.12,-0.05 0.15,-0.45 0.07,-0.86 0.02,-1.31 -0.05,-0.49 -0.32,-0.9 -0.82,-1.03z"/>
  <path class="fil0" d="M146.49 161.54c-0.5,-0.12 -1.17,0.19 -1.25,0.75 -0.08,0.6 -0.13,1.08 -0.02,1.69 0.2,1.03 1.84,0.94 2.04,-0.05 0.09,-0.5 0.07,-0.92 0,-1.42 -0.06,-0.46 -0.3,-0.85 -0.77,-0.97z"/>
  <path class="fil0" d="M71.15 148.41c0.13,-0.53 0.04,-1.04 -0.05,-1.57 -0.19,-1.02 -1.82,-0.92 -2,0.05 -0.1,0.53 -0.16,1.04 -0.03,1.58 0.26,1.06 1.83,0.95 2.08,-0.06z"/>
  <path class="fil0" d="M75.19 148.54c0.07,-0.5 0.03,-0.93 -0.02,-1.42 -0.13,-1.36 -1.95,-1.27 -2.08,0.05 -0.03,0.38 -0.11,0.74 -0.04,1.13 0.07,0.49 0.31,0.9 0.82,1.03 0.53,0.13 1.22,-0.21 1.32,-0.79z"/>
  <path class="fil0" d="M77.65 146.21c-1.36,0 -1.31,2.1 0.05,2.1 1.36,0 1.3,-2.1 -0.05,-2.1z"/>
  <path class="fil0" d="M71.64 152.95c0.15,-0.45 0.07,-0.84 0.02,-1.29 -0.05,-0.47 -0.31,-0.87 -0.8,-0.99 -0.5,-0.12 -1.2,0.19 -1.27,0.76 -0.06,0.55 -0.18,1.03 -0,1.58 0.34,1.04 1.73,0.93 2.05,-0.05z"/>
  <path class="fil0" d="M75.56 153.21c0.14,-0.46 0.02,-0.85 -0.02,-1.3 -0.09,-1.34 -1.96,-1.26 -2.06,0.05 -0.03,0.46 -0.14,0.82 -0,1.29 0.31,1.06 1.78,0.95 2.08,-0.05z"/>
  <path class="fil0" d="M77.92 158.66c0.53,0.13 1.21,-0.21 1.3,-0.79 0.09,-0.63 0.21,-1.24 -0.16,-1.82 -0.44,-0.68 -1.37,-0.6 -1.79,0.05 -0.3,0.47 -0.24,1 -0.17,1.53 0.08,0.48 0.31,0.9 0.81,1.02z"/>
  <path class="fil0" d="M75.6 158.27l0.25 -0.84 -0.18 -0.88c-0.19,-1.05 -1.88,-0.96 -2.07,0.05l-0.17 0.73 0.29 0.99c0.43,0.73 1.48,0.64 1.89,-0.05z"/>
  <path class="fil0" d="M71.79 162.26l-0.05 -0.91c-0.2,-1.04 -1.85,-0.94 -2.04,0.05l-0.04 0.91c0.12,1.39 2.01,1.29 2.13,-0.05z"/>
  <path class="fil0" d="M74.77 162.93c0.52,0.13 1.19,-0.2 1.28,-0.77l0.02 -1.04c-0.05,-0.47 -0.31,-0.87 -0.79,-0.99 -0.49,-0.13 -1.21,0.19 -1.27,0.76l-0.05 1.03c0.08,0.47 0.31,0.88 0.8,1z"/>
  <path class="fil0" d="M82.95 156.38l0 0.76c0.06,0.47 0.31,0.86 0.79,0.97 0.49,0.12 1.19,-0.18 1.25,-0.75l0.03 -1.03c-0.05,-1.35 -2.03,-1.27 -2.08,0.05z"/>
  <path class="fil0" d="M88.28 155.08c-0.43,-0.11 -0.99,0.08 -1.18,0.5 -0.26,0.61 -0.24,1.09 -0.14,1.73 0.19,1.09 1.98,1 2.15,-0.06 0.08,-0.5 0.14,-0.98 -0.07,-1.46 -0.15,-0.35 -0.37,-0.62 -0.76,-0.71z"/>
  <path class="fil0" d="M55.72 162.39c-0,-0.58 -0,-1.17 -0,-1.77 -0,-1.32 -2.04,-1.26 -2.04,0.06 -0,0.59 -0,1.18 -0,1.77 -0,1.31 2.05,1.27 2.05,-0.06z"/>
  <path class="fil0" d="M60.39 162.17c0.5,-3.86 0.19,-8.01 0.02,-11.9 -0.06,-1.37 -2.03,-1.28 -2.09,0.05 -0.17,3.78 -0.5,7.86 -0.02,11.62 0.14,1.08 1.92,1.51 2.09,0.23z"/>
  <path class="fil0" d="M122.68 176.84c0.73,-0.46 1.62,-0.8 2.28,-1.4 0.77,-0.72 0.04,-1.84 -0.84,-1.89 -0.62,-0.04 -1.22,0.28 -1.73,0.59 -0.54,0.33 -0.85,0.76 -1.19,1.27 -0.61,0.92 0.63,1.95 1.49,1.42z"/>
  <path class="fil0" d="M161.25 176.91c-1.82,-1.79 -5.57,-2.37 -7.33,-0.2 -0.6,0.73 0,2.21 1.08,1.75 1.8,-0.78 3.21,-0.57 4.97,0.18 1.1,0.47 2.21,-0.83 1.27,-1.73z"/>
  <path class="fil0" d="M169.26 173.59c-0.93,0.3 -1.35,0.22 -2.21,-0.25 -0.78,-0.43 -1.62,-0.83 -2.51,-0.94 -1.29,-0.16 -1.84,1.72 -0.5,2.01 1.12,0.25 1.95,1.11 3,1.54 1.2,0.5 2.39,0.34 3.37,-0.5 0.89,-0.76 -0.13,-2.19 -1.15,-1.86z"/>
  <path class="fil0" d="M136.6 174.11c0.45,-0.22 0.62,-0.84 0.49,-1.29 -0.16,-0.51 -0.6,-0.76 -1.11,-0.8 -0.44,-0.02 -0.92,-0.17 -1.36,-0.3 -0.44,-0.13 -1,-0.26 -1.38,-0.4 -1.1,-0.39 -1.74,1.15 -1.03,1.87 1.18,1.21 2.82,1.7 4.39,0.92z"/>
  <path class="fil0" d="M85.2 172.4c-1.67,-1.4 -3.39,-3.45 -5.81,-2.52 -1.25,0.48 -0.71,2.34 0.6,1.99 1.57,-0.41 2.78,1.48 4,2.18 1.01,0.58 2.13,-0.89 1.21,-1.65z"/>
  <path class="fil0" d="M91.04 179.02c0.37,1.45 1.91,2.38 3.36,2 1.11,-0.29 0.92,-1.8 -0.05,-2.11l-0.93 -0.28 -0.44 -0.48c-0.58,-1.13 -2.23,-0.26 -1.94,0.88z"/>
  <path class="fil0" d="M111.54 177.72c1.34,0.02 1.28,-2.09 -0.05,-2.07l-0.26 0c-1.33,0.02 -1.27,2.04 0.05,2.06l0.25 0z"/>
  <path class="fil0" d="M62.21 172.87c-1.19,0.19 -2.38,0.16 -3.47,-0.39 -1.23,-0.63 -2.18,1.12 -1.02,1.85 1.53,0.96 3.41,1.39 5.12,0.61 1.28,-0.57 0.76,-2.29 -0.62,-2.07z"/>
  <path class="fil0" d="M71.17 174.32c0.8,-0.51 0.59,-1.72 -0.31,-1.97 -0.56,-0.15 -0.93,0.15 -1.33,0.28 -1.17,0.38 -0.87,2.07 0.34,2.09 0.45,0.01 0.92,-0.17 1.29,-0.4z"/>
  <path class="fil0" d="M67.09 181.74c0.45,0.44 1.06,0.33 1.5,-0.03 0.49,-0.4 1.25,-0.55 1.81,-0.84 0.42,-0.22 0.59,-0.78 0.45,-1.21 -0.18,-0.61 -0.75,-0.8 -1.32,-0.71 -0.94,0.16 -1.82,0.6 -2.49,1.3 -0.39,0.42 -0.38,1.1 0.04,1.5z"/>
  <path class="fil0" d="M80.93 178.92c-0.47,0.06 -0.87,0.31 -0.99,0.79 -0.12,0.5 0.2,1.2 0.76,1.27 0.62,0.07 1.22,0.13 1.75,0.43 0.91,0.51 2.07,-0.6 1.44,-1.5 -0.71,-1 -1.83,-1.12 -2.96,-0.99z"/>
  <path class="fil0" d="M88.61 171.12c-0.24,0.44 -0.12,0.88 0.16,1.22 0.53,0.85 1.62,1.36 2.57,1.42 0.48,0.02 0.93,-0.39 1.04,-0.84 0.13,-0.53 -0.14,-0.93 -0.54,-1.23l-0.92 -0.62 -0.49 -0.26 -0.4 -0.17 -0.24 -0.04c-0.45,-0.17 -0.98,0.13 -1.2,0.52z"/>
  <path class="fil0" d="M88.76 189.77c-1.38,0.04 -1.31,2.08 0.05,2.12 15.64,0.55 31.59,0.82 47.23,0.01 1.4,-0.07 1.32,-2.08 -0.05,-2.15 -15.64,-0.81 -31.58,-0.54 -47.23,0.02z"/>
  <path class="fil0" d="M127.65 196.05c-4.67,-0.17 -9.49,-0.45 -14.15,0.05 -1.37,0.14 -1.27,1.95 0.06,2.09 4.65,0.49 9.47,0.22 14.14,0.04 1.42,-0.05 1.34,-2.13 -0.05,-2.18z"/>
  <path class="fil0" d="M103.94 196.1c-1.39,-0.21 -2.68,-0.09 -4.07,-0.02 -1.38,0.06 -1.3,2.05 0.05,2.11 1.29,0.06 2.5,0.2 3.79,0.01 0.47,-0.07 0.89,-0.31 1.01,-0.81 0.13,-0.53 -0.2,-1.22 -0.79,-1.29z"/>
  <path class="fil0" d="M81.44 189.25c-1.81,-0.17 -3.81,-0.38 -5.58,0.06 -1.04,0.26 -0.93,1.79 0.05,2.03 1.77,0.45 3.8,0.21 5.59,0.04 1.4,-0.13 1.3,-2 -0.05,-2.13z"/>
  <path class="fil0" d="M144.48 188.82l-0.53 -0.22c-0.94,-0.36 -1.9,0.62 -1.88,1.51 0.03,0.92 1.02,1.77 1.95,1.41l0.45 -0.2c1.15,-0.02 2.28,-0.07 3.43,-0.18 1.41,-0.12 1.32,-2.03 -0.05,-2.15 -1.14,-0.1 -2.25,-0.15 -3.37,-0.17z"/>
 </g>
</svg>
