<?xml version="1.0" encoding="UTF-8"?>
<svg xmlns="http://www.w3.org/2000/svg" xml:space="preserve" width="0.747327in" height="0.747358in" version="1.1" style="shape-rendering:geometricPrecision; text-rendering:geometricPrecision; image-rendering:optimizeQuality; fill-rule:evenodd; clip-rule:evenodd"
viewBox="0 0 457.01 457.03"
 xmlns:xlink="http://www.w3.org/1999/xlink"
 xmlns:xodm="http://www.corel.com/coreldraw/odm/2003">
 <defs>
  <style type="text/css">
   <![CDATA[
    .fil0 {fill:black;fill-rule:nonzero}
   ]]>
  </style>
 </defs>
 <g id="Layer_x0020_1">
  <metadata id="CorelCorpID_0Corel-Layer"/>
  <path class="fil0" d="M140.07 262.11l0.05 -0.3 0.03 0.08 -0.08 0.22zm-0.15 0.25l0.14 -0.22 -0.09 0.23 -0.04 -0.01zm304.5 -20.79c-0.21,-2.82 -4.11,-2.62 -4.32,0.11 -0.07,0.81 -0.3,1.68 -0.47,2.58 -0.8,-0.51 -1.58,-1.06 -2.34,-1.66l0.96 -1.23c0.98,-1.32 0.95,-3.34 0.58,-4.87 -0.5,-2.02 -3.03,-1.85 -4.03,-0.42 -0.51,0.71 -1.14,1.55 -1.74,2.42l-0.03 0.06c-0.67,-0.72 -1.32,-1.48 -1.97,-2.26 -4.03,-4.82 -8.73,-7.34 -15.06,-5.88 -2.67,0.61 -1.78,4.49 0.73,4.54 5.18,0.13 7.66,2.32 10.44,6.4 2.25,3.32 4.69,5.54 7.86,8.05 3.99,3.19 9.34,6.03 14.2,5.33 -0.73,6.18 -1.69,12.27 -2.92,18.29 -5.61,-3.04 -11.21,1.82 -16.65,6.07 -5.97,4.65 -12.35,2.45 -18.98,4.29 -6.97,1.91 -10.59,8.24 -17.56,10.38 -2.85,0.88 -2.08,5.03 0.81,5.07 3.58,0.04 5.84,-0.57 8.93,-2.37 6.13,-3.58 9.55,-7.03 17.28,-6.62 2.9,0.15 6.44,-0.59 9,-1.94 0.98,-0.5 14.25,-9.88 14.61,-7.79l0.7 1.16c-23.76,97.19 -111.55,169.52 -215.95,169.52 -103.07,0 -189.97,-70.52 -215.01,-165.85 20.94,0.42 38.78,-14.58 58.94,-18.99 13,-2.85 26.6,-0.64 39.76,-3.18 7.89,-1.5 13.91,2.16 20.58,5.57 1.34,0.68 12.55,3.81 12.68,4.24 4.14,13.29 23.81,-2.78 29.27,-5.95 4.41,-2.58 11.58,-2.06 16.61,-2.71 6.01,-0.79 11.88,-2.55 17.78,-3.92 6.83,-1.6 7.63,-0.46 13.12,1.61 2.49,0.94 5.21,2.21 7.94,2.12 3.19,-0.09 4.1,-4.31 1.44,-5.9l-0.43 -0.26 -2.07 -0.32c-3.62,-0.85 -7.09,-4.21 -10.57,-4.24 -10.49,-0.08 -20.25,3.86 -30.57,5.28 -6.28,0.87 -12.16,1.11 -17.73,4.31 -1.35,0.79 -4.53,3.26 -8.04,5.38l-0.82 -1c-0.69,-0.72 -1.89,-0.78 -2.71,-0.29 -0.92,0.57 -1.12,1.55 -0.95,2.53l0.26 1c-3.57,1.59 -6.81,1.97 -8.06,-1.02l-0.83 -1.16c0.35,-0.79 0.44,-1.7 0.14,-2.53 -0.64,-1.78 -3.2,-2.28 -4.15,-0.45l-0.59 0.68 -0.53 1.07c-1.32,-0.3 -2.61,-0.71 -3.86,-1.22l0.05 -0.13 0.41 -1.59c0.21,-1.38 0.2,-2.68 -0.61,-3.69 -0.51,-0.87 -1.63,-1.18 -2.6,-0.85l0.06 -0.08c-1.73,0.48 -2.37,2.16 -2.5,3.91 -4.86,-2.51 -9.56,-5.33 -15.09,-5.83 -1.49,-0.14 -2.96,-0.15 -4.43,-0.11 -0.36,-1.14 -1.68,-1.96 -2.88,-1.55 -0.99,0.35 -1.74,0.94 -2.07,1.92 -3.41,0.34 -6.82,0.78 -10.24,0.77 -3.76,-0.02 -7.5,-0.24 -11.24,-0.41 0.02,-0.85 -0.2,-1.71 -0.71,-2.38 -0.89,-1.18 -2.67,-1.64 -3.77,-0.39 -0.67,0.73 -1.07,1.64 -1.3,2.58 -1.59,-0.02 -3.16,-0.03 -4.75,0.02 -1.3,0.04 -2.58,0.15 -3.86,0.29l0.16 -1.99c-0.14,-1.69 -2.03,-3 -3.58,-1.94 -1.55,1.04 -2.53,2.95 -2.61,4.83 -1.08,0.22 -2.16,0.44 -3.23,0.71l0.02 -0.42c0.16,-1.25 0.72,-2.38 0.94,-3.61 0.35,-1.79 -1.67,-3.75 -3.39,-2.48 -2.17,1.57 -3.61,5.16 -3.02,8.06 -3.18,1.01 -6.33,2.17 -9.45,3.41 -0.08,-1.52 -0.8,-3.43 -2.4,-3.69l0.09 0.12 -0.76 -0.12 0.09 -0.06c-1.99,-0.05 -2.85,2.09 -3.14,3.71 -0.15,0.82 -0.26,1.75 -0.25,2.68 -1.05,0.45 -2.11,0.89 -3.17,1.34l-0.78 -1.27c-1.49,-2.08 -4.84,-0.7 -4.14,1.87l0.39 1.32 -2.04 0.86c-0.27,-0.88 -0.57,-1.76 -0.67,-2.68 -0.14,-1.35 -0.07,-2.67 -0.18,-4.01 -0.18,-2.21 -3.01,-2.96 -4.18,-1.03 -1.73,2.89 -1.72,6.87 0.14,9.65l-2.26 0.85c-0.13,-1.04 -0.5,-2.04 -1.21,-2.85 -1.29,-1.53 -3.41,-0.34 -3.97,1.15l-0.42 2.27 -0.33 1.39c-0.85,0.26 -1.7,0.53 -2.55,0.75 -0.07,-1.06 -0.33,-2.11 -0.53,-3.1 -0.47,-2.19 -3.86,-1.98 -4.31,0.11 -0.3,1.33 -0.62,2.8 -0.48,4.21l-1.51 0.26c-3.52,-15.35 -5.46,-31.29 -5.61,-47.66 4.37,0.65 11.03,4.1 13.98,5.1 5.83,1.95 11.65,3.97 17.53,5.78 2.65,0.81 4.04,-0.38 6.34,-1.76 5.65,-3.34 12.5,-4.47 18.91,-4.96 6.01,-0.42 11.99,0.58 17.74,2.16 6.34,1.73 8.46,5.92 13.5,8.66 7.58,4.1 15.32,1.37 23.4,0.08 10.38,-1.65 21.27,5.87 30.4,9.78 7.69,3.29 13.45,4.04 21.35,1.55 9.3,-2.94 16.77,-3.83 26.44,-2.91 2.93,0.29 3.75,-4.17 1.32,-5.42 -4.94,-2.52 -12.21,-2.07 -17.52,-1.19 -5.87,1 -11.24,3.69 -17.15,4.49 -6.3,0.85 -14.01,-4.05 -19.51,-6.43 -8.02,-3.51 -16.58,-7.02 -25.49,-6.17 -4.76,0.47 -9.39,1.87 -14.16,2.39 -4.7,0.52 -12.66,-7.52 -17.46,-9.42 -9.26,-3.65 -19.42,-4.6 -29.26,-3.67 -7.29,0.66 -14.41,6.34 -20.93,4.36 -7.31,-2.23 -14.58,-4.6 -22.03,-6.35 -1.95,-0.46 -4.8,-1.29 -7.41,-1.36 0.19,-13.41 1.56,-26.54 4.03,-39.3 13.76,6.18 34.23,-5.14 47.01,-8.51 12.07,-3.2 21.65,4.17 33.47,3.26 5.53,-0.43 9.49,-4.7 15.06,-3.26 6.03,1.57 9.99,7.37 14.91,10.81 1.98,1.37 10.52,4.13 11.22,6.38 0.88,2.87 3.59,5.22 6.45,5.94 8.4,2.08 21.15,-5.21 28.85,-7.81 6.14,-2.06 12.31,-2.55 18.63,-3.73 7.7,-1.44 14.78,-4.14 21.98,-7.15 14.99,-6.3 31.86,-14.96 48.14,-7.19 1.11,0.53 2.37,0.4 3.25,-0.51 2.85,-2.92 6.98,-3.18 10.66,-3.86 2.47,-0.47 1.78,-4.57 -0.69,-4.35 -3.82,0.33 -8.31,0.28 -11.69,2.39 -2.28,1.4 -8.06,-0.93 -10.67,-1.29 -12.06,-1.61 -23.24,3 -34.26,7.33 -12.83,5.03 -24.71,8.45 -38.24,11.02 -5.86,1.11 -11.51,3.2 -17.14,5.11 -2.14,0.74 -5.03,2.03 -8.01,3l-0.8 -2.09c-1.02,-1.61 -4.2,-1.52 -4.46,0.71 -0.09,0.85 -0.12,1.7 -0.08,2.55 -3.41,0.29 -6.4,-0.68 -7.86,-4.43 -0.3,-0.81 -0.93,-1.63 -1.84,-1.77 -11.72,-1.71 -18.02,-14.25 -29.31,-17.94 -1.58,-0.52 -3.13,-0.46 -4.62,-0.13 -0.09,-1.42 -1.05,-2.8 -2.19,-3.62 -1.56,-1.15 -3.5,0.53 -3.52,2.14 -0.03,1.15 0.28,2.28 0.84,3.26l-0.49 0.21c-2.02,0.9 -4.03,1.27 -6,1.32 0.36,-1.72 0.33,-3.48 -0.43,-5.19 -0.73,-1.65 -3.38,-2.55 -4.34,-0.45 -0.75,1.66 -0.88,3.27 -0.78,4.95 -3.95,-0.99 -7.84,-2.75 -11.7,-3.96l-1.67 -0.44 -0.4 -0.68c-0.8,-1.59 -2.71,-1.64 -3.75,-0.43l0.02 -0.02 -0.02 0.04 -0.18 0.24 -0.16 0.23c-1.24,-0.06 -2.48,-0.04 -3.72,0.07 0.09,-0.94 0.19,-1.89 0.34,-2.81 0.36,-2.27 -2.06,-3.53 -3.76,-2.06 -1.3,1.1 -2.59,3.63 -2.8,5.9 -2.96,0.74 -5.93,1.75 -8.9,2.88l-0.02 -1.05c-0.01,-1.17 -0.04,-2.45 -0.62,-3.47 -0.6,-1.51 -2.64,-1.93 -3.7,-0.52 -1.78,1.56 -1.98,4.74 -1.15,7.21 -3.08,1.25 -6.19,2.49 -9.27,3.54l-0.01 -0.02c-0.54,-1.24 -0.41,-1.97 0.04,-3.36 0.71,-2.15 -1.95,-3.7 -3.7,-2.68 -2.56,1.49 -3.31,3.95 -2.8,6.75l0.35 1.06c-2.14,0.49 -4.26,0.81 -6.4,0.91l0 -0.47c-0.21,-1.8 -2.55,-3.22 -3.95,-1.52l-0.95 1.78c-0.94,-0.14 -1.89,-0.34 -2.83,-0.59 2.43,-10.82 5.66,-21.34 9.62,-31.51 11.94,1.04 23.35,-5.97 35.82,-3.8 6.47,1.13 12.1,5.38 18.17,7.68 5.64,2.12 10.77,2 16.69,1.17 7.35,-1.01 7.56,-0.12 12.28,4.24 5.19,4.78 11.85,5.13 15.47,12.03 5.64,10.8 17.81,12.17 27.76,17.16 1.37,0.7 2.97,0.26 3.77,-1.1 4.05,-6.9 19.18,-3.52 26.02,-4.93 11.64,-2.4 24.83,-4.77 35.66,-9.67 2.5,-1.13 0.51,-4.67 -1.88,-4.14 -13.71,3.04 -28.85,9 -42.86,9 -6.98,0 -15.38,-0.43 -20.27,4.95 -4.21,-1.89 -8.58,-3.36 -12.88,-5.09 -3.7,-1.47 -6.68,-3.45 -9.23,-6.69 -1.67,-2.12 -2.8,-5.71 -4.99,-7.36 -4.76,-3.58 -10.23,-5.95 -14.94,-9.59 -6.18,-4.75 -2,-4.86 -11.23,-4.92 -8.68,-0.04 -14.45,-1.22 -22.33,-5.24 -5.15,-2.64 -10.2,-4.82 -15.93,-5.84 -10.89,-1.94 -21.51,1.95 -32.04,4.6 1.96,-4.55 4.05,-9 6.3,-13.37 6.41,-0.04 11.86,-1.8 17.91,-3.98 8.39,-3.04 16.2,-3.7 25.06,-3.58 9.05,0.11 18.12,1.4 27.15,2.11 10.18,0.79 20.36,0.07 30.54,0.71 16.95,1.1 33.31,6.68 50.24,8.03 17.6,1.42 33.75,-2.5 50.89,-5.84 7.99,-1.55 16.09,-1.91 23.96,-3.97 7.13,-1.88 13.9,-4.77 21.12,-6.4 13.61,-3.06 29.28,1.83 43.89,5.16l1.22 1.68c6.93,5.15 -2.46,8.16 -6.25,10.96 -3,2.17 -5.35,5.32 -7.89,7.99 -6.51,6.86 -22.39,2.9 -31.04,7.32 -4.08,2.1 -8.03,4.45 -12.07,6.61 -5.65,3.02 -7.64,1.77 -13.76,1.5 -11.66,-0.48 -21.35,3.82 -31.81,8.44 -2.51,1.11 -1.54,4.94 1.27,4.2 8.08,-2.16 15.59,-5.97 23.92,-7.29 4.73,-0.75 8.57,2.55 13.28,1.76 5.55,-0.93 10.34,-3.58 15.22,-6.27 8.81,-4.84 16.33,-5.92 26.27,-6.45 4.06,-0.22 8.83,-1 12.02,-3.75 2.5,-2.14 4.69,-4.58 7.02,-6.9 3.25,-3.25 7.59,-2.16 11.11,-4.33 6.22,-3.86 7.01,-8.86 4.61,-13.11 18.15,1.95 36,3.47 53.92,7.07 12.62,2.52 26.54,4.99 38.84,0.08 10.41,20.71 17.67,43.26 21.17,67.02 -1.58,-0.48 -3.11,-1.23 -4.63,-2.09l0.25 -0.55c0.51,-1.48 -0.4,-2.96 -1.32,-3.85 -1.43,-1.38 -3.52,-0.21 -3.63,1.5 -0.83,-0.5 -1.65,-1.01 -2.48,-1.48 0.92,-3.38 0.51,-7.4 -0.54,-10.48 -0.79,-2.36 -4.32,-1.83 -4.31,0.68 0.02,1.96 0.07,3.91 -0.02,5.88l-0.2 1.79c-1.6,-0.39 -3.23,-0.46 -4.91,-0.09l-0.57 -1.71c-1.15,-2.63 -4.7,-1.54 -4.22,1.27l-0.1 1.56 0.01 0.43c-1.19,0.43 -2.38,0.9 -3.57,1.37 -0.26,-1.01 -0.76,-1.99 -0.64,-3.01 0.09,-0.97 -0.82,-1.89 -1.71,-2.12 -1.24,-0.3 -2.34,0.47 -2.7,1.64 -0.5,1.54 -0.64,3.75 0.18,5.28 -0.95,0.34 -1.91,0.67 -2.87,0.93 -0.88,0.24 -1.75,0.4 -2.63,0.54l-0.03 -0.32c-0.3,-0.95 -0.5,-1.95 -0.78,-2.9 -0.28,-0.88 -0.79,-1.71 -0.98,-2.61 -0.42,-2.12 -3.94,-2.03 -4.26,0.11 -0.23,1.44 -0.35,2.63 0,4.09l0.89 1.88c-2.26,-0.07 -4.53,-0.37 -6.78,-0.8 -0.18,-1.32 -0.83,-2.57 -1.48,-3.74 -1.05,-1.87 -4.37,-1.01 -4.12,1.21l0.13 1.27c-1.31,-0.33 -2.58,-0.67 -3.85,-1.02 -1.13,-0.3 -2.26,-0.59 -3.37,-0.83l-0.92 -2.08c-1.22,-1.48 -3.25,-0.33 -3.62,1.2 -2.15,-0.32 -4.26,-0.5 -6.35,-0.5l-0.13 -0.19 -2.74 -0.28 -0.62 0.54 -0.07 0.12c-3.94,0.43 -7.81,1.64 -11.68,3.93 -8.43,5.03 -18.14,2.24 -27.34,2.97 -8.26,0.66 -16.48,1.56 -24.73,2.31 -2.84,0.26 -2.7,4.23 0.11,4.39 7.12,0.4 14.13,-0.25 21.21,-0.95 7.97,-0.78 15.89,0.28 23.83,-0.53 7.8,-0.79 12.52,-6.94 20.82,-5.57 6.44,1.06 12.76,3.06 19.08,4.69 11.36,2.96 21.36,1.82 32.13,-2.59 6.93,-2.85 9.78,-0.81 15.88,2.84 3.59,2.15 7.31,3.86 11.44,4.12 0.66,6.16 1.1,12.41 1.24,18.72l-0.08 0.02c-11.99,6.16 -26.16,-2.25 -38.99,-1.37 -10.77,0.72 -21.53,6.72 -31.91,9.5 -2.44,0.65 -1.83,4.49 0.7,4.36 13.28,-0.75 24.43,-9.08 38.03,-8.49 11.99,0.53 21.1,6.63 32.3,2.63 -0.02,5.99 -0.3,11.92 -0.81,17.81 -1.92,-0.09 -3.72,-0.38 -5.4,-0.93 0.39,-1.59 -0.01,-3.41 -0.14,-5.03zm-215.92 -235.35c84.21,0 157.61,47.05 195.33,116.25 -14.52,5.65 -31.65,0.36 -46.32,-2.26 -16.53,-2.91 -33.39,-3.03 -49.97,-5.36 -15.87,-2.22 -31.59,-7.75 -47.77,-6.41 -6.51,0.53 -12.87,2.99 -19,5.05 -8.66,2.92 -17.45,3.81 -26.39,5.25 -18.98,3.06 -36.41,8.22 -55.86,5.97 -17.13,-2 -33.7,-7 -50.96,-8.32 -19.06,-1.46 -37.91,-1.69 -56.99,-4 -13.11,-1.59 -23.88,3.68 -35.82,7.31 38.15,-67.68 110.7,-113.48 193.76,-113.48zm0 -6.22c-109.32,0 -200.94,77.19 -223.28,179.91l-0.4 1.86c-3.15,15.1 -4.82,30.72 -4.82,46.75 0,125.99 102.51,228.52 228.5,228.52 126,0 228.52,-102.52 228.52,-228.52 0,-126.02 -102.52,-228.51 -228.52,-228.51z"/>
  <path class="fil0" d="M56.71 316.44c0.5,1.04 1.73,1.47 2.77,0.98l0.34 -0.17 1.06 -1.18 -0.09 -1.6 -4.07 -8.42c-0.49,-1.04 -1.72,-1.45 -2.76,-0.97l-0.34 0.16 -1.06 1.19 0.09 1.59 1.05 2.17 -13.12 6.34 -1.06 1.17 0.09 1.6 0.16 0.33c0.36,0.75 1.11,1.17 1.88,1.17l0.89 -0.2 13.12 -6.34 1.04 2.17z"/>
  <path class="fil0" d="M69.3 330.89l-0.24 -1.57 -0.2 -0.32c-0.59,-0.98 -1.86,-1.3 -2.84,-0.71l-4.47 2.69 -2.49 -4.16 4.48 -2.67c0.98,-0.59 1.31,-1.86 0.72,-2.85l-0.19 -0.31 -1.27 -0.94 -1.58 0.22 -14.44 8.65 -0.95 1.27 0.24 1.56 0.18 0.33c0.59,0.98 1.86,1.29 2.85,0.71l6.09 -3.64 2.48 4.14 -6.09 3.64 -0.94 1.28 0.23 1.58 0.2 0.32 1.77 0.99 1.06 -0.29 14.45 -8.65 0.95 -1.27z"/>
  <path class="fil0" d="M73.71 335.92c-0.68,-0.93 -1.98,-1.13 -2.91,-0.46l-13.9 10.11c-0.92,0.68 -1.13,1.96 -0.46,2.9l4.5 6.2 1.35 0.82 0.32 0.02 1.22 -0.39 0.29 -0.23c0.92,-0.66 1.13,-1.96 0.46,-2.89l-3.07 -4.23 3.91 -2.84 1.97 2.73c0.68,0.92 1.98,1.14 2.9,0.46l0.3 -0.22 0.84 -1.35 -0.38 -1.56 -1.97 -2.71 2.39 -1.73 3.07 4.21c0.66,0.93 1.95,1.14 2.89,0.46l0.3 -0.21 0.84 -1.36 -0.37 -1.54 -4.5 -6.2z"/>
  <path class="fil0" d="M92.2 368.38c0.88,-0.91 1.48,-0.93 1.71,-0.93 0.2,0 0.79,0 1.7,0.88l2.02 1.94c0.83,0.8 2.14,0.77 2.94,-0.05l0.26 -0.27 0.58 -1.48 -0.65 -1.46 -2.01 -1.94c-1.48,-1.41 -3.11,-2.12 -4.95,-2.12l-0.01 0c-1.77,0.03 -3.41,0.81 -4.86,2.32l-5.17 5.39c-1.45,1.51 -2.17,3.19 -2.12,4.94 0.02,1.77 0.81,3.41 2.33,4.86l2.02 1.94 1.43 0.58 0.05 0 1.43 -0.64 0.26 -0.26c0.8,-0.82 0.77,-2.14 -0.06,-2.94l-2.02 -1.94c-0.93,-0.88 -0.95,-1.5 -0.95,-1.69 -0.01,-0.19 -0.02,-0.79 0.88,-1.72l5.18 -5.4z"/>
  <path class="fil0" d="M108.22 382.39c-0.75,0.93 -1.31,1.06 -1.79,1.06l-0.02 0 -1.77 -0.83 -1.71 -1.37 3.02 -3.76 1.71 1.37 1.16 1.54c0.13,0.43 0.18,1.04 -0.6,2zm3.52 2.85c1.96,-2.46 1.85,-4.69 1.42,-6.14 -0.43,-1.42 -1.33,-2.69 -2.67,-3.77l-3.61 -2.88c-0.89,-0.72 -2.2,-0.59 -2.92,0.32l-10.65 13.27 -0.44 1.51 0.77 1.39 0.28 0.23c0.9,0.72 2.2,0.57 2.91,-0.32l3.27 -4.06 1.56 1.26 -1.49 6.76c-0.25,1.08 0.41,2.17 1.5,2.44l0.36 0.1 0.52 0.08 1.08 -0.31 0.95 -1.33 1.3 -5.82 0.71 0.04c1.34,0 3.33,-0.48 5.16,-2.77z"/>
  <path class="fil0" d="M122.44 392.55l-4.14 6.21 -1.55 1.04 -1.81 -0.36 -1.04 -1.53 0.36 -1.82 4.15 -6.24 1.53 -1.03 0.52 -0.05 1.3 0.42 1.03 1.54 -0.36 1.81zm4.79 -2.71c-0.36,-1.83 -1.39,-3.37 -2.94,-4.42 -1.59,-1.04 -3.37,-1.38 -5.22,-1.02 -1.86,0.38 -3.35,1.37 -4.41,2.96l-4.14 6.23c-1.04,1.56 -1.41,3.36 -1.04,5.19 0.36,1.84 1.39,3.37 2.96,4.43 1.18,0.77 2.46,1.17 3.8,1.17l1.4 -0.14c1.85,-0.37 3.37,-1.39 4.42,-2.96l4.14 -6.21c1.05,-1.6 1.4,-3.36 1.03,-5.22z"/>
  <path class="fil0" d="M141.46 400.59l1.04 -1.27 -0.23 -1.64c-0.96,-1.58 -2.4,-2.9 -4.27,-3.92 -1.71,-0.93 -3.51,-1.09 -5.17,-0.43 -1.37,0.53 -2.42,1.46 -3.13,2.74 -0.89,1.64 -1,3.42 -0.31,5.12l0.12 0.25 0.64 1.1 0.65 0.98 1.8 2.56 0.67 1.09 0.28 0.6 -0.12 1.01 -0.82 0.67 -1.17 -0.11c-0.07,-0.05 -0.87,-0.54 -3.29,-3.69 -0.6,-0.77 -1.65,-1.02 -2.54,-0.61l-0.33 0.16 -1.06 1.18 0.09 1.59c0.5,1.04 1.21,2.07 2.11,3.03 0.9,0.97 1.87,1.75 2.88,2.29 0.93,0.52 1.89,0.76 2.87,0.76l2.08 -0.4c1.41,-0.53 2.47,-1.45 3.16,-2.72 0.79,-1.44 1.33,-3.77 -0.56,-6.65 -0.65,-0.93 -1.2,-1.73 -1.67,-2.42l-1.2 -1.66c-0.68,-0.98 -0.54,-1.53 -0.3,-1.99l0.79 -0.7 1.38 0.21c0.25,0.13 1.01,0.65 2.8,2.6 0.65,0.7 1.67,0.87 2.49,0.43l0.34 -0.18z"/>
  <path class="fil0" d="M149.87 405.24l1.39 0.08c0.26,0.1 1.07,0.55 3.03,2.34 0.7,0.63 1.72,0.71 2.51,0.2l0.32 -0.2 0.92 -1.37 -0.37 -1.6c-1.11,-1.5 -2.66,-2.68 -4.61,-3.54 -1.79,-0.77 -3.58,-0.77 -5.19,0.02 -1.32,0.68 -2.29,1.68 -2.87,3.03 -0.74,1.73 -0.7,3.49 0.14,5.13l0.13 0.25 0.76 1.04 0.72 0.9 2.02 2.4 0.77 1.02 0.34 0.59 -0.03 1.01 -0.76 0.73 -1.17 0c-0.08,-0.03 -0.93,-0.46 -3.62,-3.37 -0.65,-0.72 -1.73,-0.87 -2.57,-0.37l-0.31 0.18 -0.96 1.26 0.22 1.59c0.59,0.98 1.38,1.95 2.37,2.82 0.98,0.88 2.03,1.58 3.09,2.02 0.79,0.36 1.61,0.53 2.42,0.53 0.86,0 1.71,-0.2 2.54,-0.61 1.35,-0.66 2.34,-1.67 2.91,-2.98 0.65,-1.51 0.99,-3.88 -1.16,-6.58 -0.72,-0.87 -1.33,-1.61 -1.88,-2.25l-1.33 -1.56c-0.77,-0.92 -0.69,-1.47 -0.49,-1.95l0.73 -0.77z"/>
  <path class="fil0" d="M169.59 414.79c-0.4,1.22 -0.93,1.51 -1.33,1.61l-1.94 -0.15 -2.08 -0.68 1.51 -4.58 2.08 0.69 1.62 1.02c0.28,0.36 0.53,0.9 0.14,2.09zm-0.35 -7.41l-4.38 -1.45c-1.11,-0.38 -2.26,0.21 -2.62,1.31l-5.33 16.17c-0.36,1.09 0.23,2.26 1.32,2.61l0.35 0.11 1.59 -0.12 1.04 -1.19 1.63 -4.95 1.91 0.62 0.96 6.84c0.15,1.04 1.03,1.78 2.06,1.78l0.21 -0.01 0.37 -0.03 1.42 -0.8 0.42 -1.56 -0.82 -5.92c2.14,-0.53 3.73,-2.11 4.54,-4.6 0.98,-2.99 0.09,-5.04 -0.82,-6.24 -0.9,-1.18 -2.18,-2.05 -3.82,-2.58z"/>
  <path class="fil0" d="M186.38 419.28l-1.7 7.28 -1.09 1.52 -1.8 0.3 -1.51 -1.08 -0.31 -1.83 1.7 -7.28 1.08 -1.5 1.22 -0.37 0.6 0.07 1.5 1.08 0.3 1.82zm-0.77 -7.3c-1.84,-0.44 -3.64,-0.13 -5.24,0.86 -1.59,1 -2.66,2.49 -3.09,4.32l-1.69 7.29c-0.43,1.83 -0.13,3.64 0.85,5.23 0.99,1.58 2.5,2.64 4.34,3.07l1.63 0.2c1.27,0 2.47,-0.34 3.6,-1.04 1.6,-1.01 2.67,-2.48 3.08,-4.31l1.71 -7.29c0.42,-1.84 0.13,-3.61 -0.88,-5.24 -1.01,-1.61 -2.46,-2.65 -4.31,-3.08z"/>
  <path class="fil0" d="M199.56 426.97l1.28 -2.6 0.53 2.85 -1.81 -0.25zm2.75 -11.7l-0.39 -0.05c-0.89,-0.13 -1.74,0.33 -2.14,1.13l-7.86 15.84 -0.1 1.62 1.12 1.18 0.34 0.15c1,0.44 2.19,0.03 2.69,-0.98l1.46 -2.93 4.8 0.66 0.61 3.24c0.18,1 1.05,1.71 2.03,1.71l0.3 -0.03 0.37 -0.05 1.38 -0.85 0.35 -1.58 -3.2 -17.38c-0.17,-0.88 -0.87,-1.57 -1.77,-1.68z"/>
  <path class="fil0" d="M220.59 430.68c-0.04,0.88 -0.39,1.51 -1.11,2.05l-1.89 0.71 -0.01 0 -1.96 -0.1 0.63 -12.31 1.95 0.1 1.81 0.88c0.68,0.61 0.96,1.27 0.92,2.13l-0.33 6.53zm-2.17 -14.07l-4.39 -0.22 -1.5 0.53 -0.68 1.43 -0.86 17.16c-0.05,1.15 0.81,2.12 1.96,2.18l4.39 0.23 0.35 0.02c1.56,0 3.07,-0.53 4.48,-1.6 1.81,-1.34 2.83,-3.22 2.95,-5.44l0.33 -6.52c0.1,-2.22 -0.72,-4.19 -2.38,-5.72 -1.4,-1.27 -2.96,-1.96 -4.65,-2.05z"/>
  <path class="fil0" d="M239.32 426.42c-1.03,-0.47 -1.91,-0.87 -2.67,-1.21l-1.87 -0.84c-1.1,-0.49 -1.27,-1.02 -1.28,-1.54l0.33 -1.01c0.18,-0.23 0.48,-0.49 1.33,-0.53 0.37,0 1.35,0.1 3.69,0.81 0.91,0.29 1.87,-0.09 2.37,-0.9l0.2 -0.32 0.24 -1.62 -1.03 -1.28c-1.52,-0.81 -3.25,-1.21 -5.16,-1.21l-0.53 0.01c-1.95,0.08 -3.56,0.87 -4.65,2.27 -0.92,1.16 -1.35,2.5 -1.29,3.97 0.07,1.86 0.87,3.44 2.34,4.57l0.21 0.15 1.13 0.6 1.05 0.53 2.85 1.29 1.14 0.59 0.55 0.38 0.41 0.92 -0.36 0.99 -1.06 0.51c-0.16,0 -1.17,-0.08 -4.71,-1.49 -0.91,-0.36 -1.95,-0.05 -2.49,0.76l-0.21 0.3 -0.31 1.56 0.88 1.33c0.97,0.65 2.1,1.16 3.35,1.55 1.15,0.32 2.25,0.47 3.29,0.47l0.38 0c1.81,-0.07 3.34,-0.82 4.43,-2.21 0.95,-1.18 1.38,-2.51 1.33,-3.95 -0.05,-1.65 -0.77,-3.92 -3.87,-5.45z"/>
  <path class="fil0" d="M274.11 427.91l-1.51 1.06 -1.82 -0.33 -1.05 -1.54 -1.6 -7.3 0.32 -1.82 1.52 -1.06 0.57 -0.06 1.26 0.39 1.05 1.51 1.6 7.3 -0.33 1.83zm3.15 -10.11c-0.4,-1.83 -1.45,-3.33 -3.03,-4.35 -1.61,-1.02 -3.39,-1.34 -5.22,-0.94 -1.84,0.41 -3.35,1.45 -4.37,3.04 -1,1.58 -1.32,3.38 -0.92,5.22l1.6 7.3c0.41,1.83 1.46,3.35 3.02,4.35 1.15,0.74 2.38,1.11 3.69,1.11l1.56 -0.18c1.82,-0.39 3.34,-1.43 4.35,-3.02 1.01,-1.58 1.33,-3.38 0.94,-5.22l-1.61 -7.3z"/>
  <path class="fil0" d="M293.63 415.55c-0.34,-1.09 -1.5,-1.7 -2.6,-1.34l-4.99 1.56 -0.88 -2.81 4.98 -1.56 1.22 -1.03 0.14 -1.58 -0.12 -0.36c-0.34,-1.1 -1.5,-1.69 -2.6,-1.35l-7.3 2.28c-1.09,0.37 -1.7,1.52 -1.35,2.61l5.11 16.22c0.28,0.9 1.1,1.46 1.98,1.46l0.62 -0.11 0.35 -0.09 1.22 -1.04 0.13 -1.57 -2.13 -6.75 4.98 -1.58 1.21 -1.03 0.14 -1.58 -0.12 -0.36z"/>
  <path class="fil0" d="M321.06 406.45l-0.46 -2.86 2.09 2 -1.63 0.87zm-2.17 -10.77c-0.65,-0.61 -1.62,-0.76 -2.41,-0.34l-0.35 0.18c-0.79,0.41 -1.23,1.3 -1.09,2.17l2.88 17.44 0.88 1.37 1.17 0.38 0.41 -0.05 0.37 -0.08c1.09,-0.21 1.8,-1.26 1.63,-2.37l-0.54 -3.24 4.28 -2.26 2.38 2.28c0.81,0.76 2.08,0.76 2.88,-0.02l0.27 -0.26 0.63 -1.5 -0.64 -1.5 -12.77 -12.21z"/>
  <path class="fil0" d="M338.51 384.4l-1.31 -0.92 -1.56 0.3 -0.35 0.22 -0.93 1.82 0.25 7.03 -6.32 -3.11 -2.04 0.13 -0.33 0.21 -0.92 1.3 0.3 1.57 9.15 14.13 1.31 0.9 0.43 0.04 1.12 -0.33 0.32 -0.2c0.96,-0.62 1.23,-1.9 0.61,-2.86l-4.7 -7.29 2.73 1.33 2.04 -0.1 0.95 -1.82 -0.11 -3.04 4.71 7.28 1.31 0.88 1.56 -0.28 0.32 -0.2c0.97,-0.61 1.25,-1.91 0.61,-2.86l-9.14 -14.14z"/>
  <path class="fil0" d="M360.63 388.32c-0.71,-0.89 -2.01,-1.06 -2.92,-0.34l-4.1 3.22 -2.99 -3.82 2.65 -2.07c0.9,-0.71 1.06,-2 0.36,-2.91l-0.23 -0.29 -1.38 -0.78 -1.53 0.42 -2.64 2.07 -1.82 -2.33 4.11 -3.22 0.79 -1.38 -0.43 -1.54 -0.23 -0.3c-0.71,-0.88 -2,-1.06 -2.91,-0.34l-6.03 4.71 -0.79 1.38 0.43 1.53 10.59 13.54 1.64 0.81 1.27 -0.45 6.04 -4.71 0.78 -1.38 -0.43 -1.54 -0.21 -0.29z"/>
  <path class="fil0" d="M364.44 371.45l-1.07 1.64 -1.6 1.5 -3.29 -3.52 1.59 -1.5 1.69 -0.94 0.26 -0.03c0.2,0 0.79,0 1.63,0.91 0.87,0.92 0.87,1.55 0.78,1.94zm9.99 3.28l-5.59 -2.12c0.57,-2.11 -0.05,-4.25 -1.88,-6.18 -1.7,-1.83 -3.72,-2.61 -5.87,-2.28 -1.47,0.21 -2.86,0.93 -4.1,2.1l-3.38 3.16c-0.83,0.79 -0.88,2.1 -0.09,2.93l11.63 12.44 1.51 0.65 1.41 -0.55 0.27 -0.25 0.65 -1.45 -0.55 -1.48 -3.56 -3.81 1.46 -1.37 6.47 2.43c1.05,0.39 2.22,-0.1 2.64,-1.15l0.14 -0.33 -0.01 -1.61 -1.17 -1.12z"/>
  <path class="fil0" d="M372.1 353.9c-0.85,-0.76 -2.17,-0.7 -2.92,0.16l-0.26 0.27 -0.52 1.51 0.69 1.42 12.55 11.22 1.37 0.53 1.56 -0.68 0.25 -0.28 0.53 -1.5 -0.69 -1.43 -12.55 -11.21z"/>
  <path class="fil0" d="M398.18 347.73c-0.92,-0.68 -2.22,-0.49 -2.91,0.43l-1.66 2.23c-0.78,1.04 -1.38,1.14 -1.58,1.16l-1.83 -0.65 -5.99 -4.48c-1.02,-0.77 -1.11,-1.35 -1.14,-1.55 -0.03,-0.2 -0.1,-0.81 0.65,-1.82l1.68 -2.25c0.69,-0.92 0.5,-2.21 -0.43,-2.9l-0.3 -0.22 -1.54 -0.38 -1.37 0.81 -1.67 2.23c-1.25,1.68 -1.76,3.43 -1.5,5.19 0.26,1.74 1.23,3.26 2.92,4.53l5.99 4.47c1.38,1.04 2.83,1.57 4.29,1.57l0.87 -0.06c1.75,-0.25 3.28,-1.23 4.53,-2.93l1.68 -2.22 0.38 -1.55 -0.8 -1.35 -0.28 -0.23z"/>
  <path class="fil0" d="M399.83 332.76l-0.97 1.56 -1.86 -2.22 2.83 0.66zm-10.79 -5.33l0.19 2.43 11.35 13.55 1.45 0.74 0.13 0 1.41 -0.54 0.26 -0.25c0.82,-0.76 0.92,-2.01 0.2,-2.86l-2.11 -2.54 2.55 -4.12 3.21 0.76c1.08,0.24 2.17,-0.4 2.46,-1.47l0.08 -0.35 -0.2 -1.63 -1.32 -0.95 -17.21 -4.04c-0.88,-0.2 -1.77,0.18 -2.23,0.92l-0.22 0.35z"/>
  <path class="fil0" d="M132.32 89.47l1.72 0.93 1.16 -0.35 0.45 -0.31 0.88 -1.33 -0.32 -1.55 -13.71 -20.4 -1.32 -0.88 -1.56 0.32 -0.47 0.31c-0.95,0.65 -1.2,1.93 -0.56,2.88l13.72 20.39z"/>
  <path class="fil0" d="M155.56 75.71l1.12 1.12 0.79 0.16 0.8 -0.16 0.49 -0.2c1.06,-0.44 1.56,-1.66 1.11,-2.72l-5.92 -14.35 14.81 11.76 2.08 0.31 0.54 -0.23c1.06,-0.44 1.56,-1.66 1.13,-2.72l-9.38 -22.71c-0.43,-1.06 -1.66,-1.56 -2.71,-1.12l-0.51 0.21 -1.12 1.12 0 1.58 5.92 14.35 -14.79 -11.76 -2.09 -0.3 -0.53 0.22c-1.06,0.43 -1.57,1.65 -1.12,2.7l9.38 22.73z"/>
  <path class="fil0" d="M191.6 40.81c1.1,-0.21 2.28,0.02 3.52,0.7 1.43,0.79 2.23,1.86 2.52,3.39l1.8 9.39c0.29,1.5 -0.05,2.82 -1.08,4.07 -0.93,1.11 -1.91,1.76 -3.01,1.97l-3.74 0.71 -3.75 -19.52 3.75 -0.72zm-3.24 25l1.18 0.36 0.38 -0.03 6.3 -1.21c2.19,-0.42 4.13,-1.62 5.75,-3.58 1.94,-2.34 2.63,-5.02 2.08,-7.95l-1.81 -9.38c-0.56,-2.94 -2.2,-5.15 -4.87,-6.62 -2.21,-1.22 -4.48,-1.62 -6.68,-1.21l-6.29 1.21 -1.33 0.87 -0.31 1.56 4.73 24.66 0.87 1.32z"/>
  <path class="fil0" d="M229.78 61.54l0.55 0.01 0.04 0 1.44 -0.58 0.62 -1.45 0.41 -24.58c0.02,-1.15 -0.89,-2.09 -2.04,-2.11l-0.55 -0.02 -1.48 0.59 -0.63 1.45 -0.39 24.58c-0.02,1.16 0.89,2.09 2.03,2.11z"/>
  <path class="fil0" d="M267.26 46.35l0.96 8.37 -5.21 -1.09 4.25 -7.28zm-12.77 16.79l0.46 0.26c0.98,0.53 2.2,0.19 2.77,-0.78l2.79 -4.73 8.27 1.76 0.62 5.45c0.12,1.05 1.02,1.84 2.07,1.84l0.14 -0.02 0.54 -0.03 1.44 -0.75 0.46 -1.55 -2.9 -25.64c-0.11,-0.88 -0.76,-1.6 -1.63,-1.79l-0.58 -0.13c-0.87,-0.17 -1.77,0.22 -2.23,0.99l-13.04 22.26 -0.21 1.6 1.03 1.27z"/>
  <path class="fil0" d="M288.58 72.51l0.48 0.23c1.05,0.44 2.27,-0.03 2.73,-1.08l6.2 -14.23 1.82 18.82 1.24 1.71 0.53 0.24 0.83 0.18 0.76 -0.16 1.15 -1.1 9.81 -22.54c0.46,-1.04 -0.03,-2.27 -1.08,-2.72l-0.5 -0.23 -1.59 -0.03 -1.14 1.11 -6.19 14.24 -1.83 -18.83 -1.23 -1.7 -0.54 -0.23 -1.6 -0.02 -1.13 1.1 -9.82 22.53 -0.03 1.58 1.11 1.14z"/>
  <path class="fil0" d="M335.23 75.92l-2.41 8.07 -4.36 -3.07 6.76 -5zm-17.99 10.86c0.69,0.85 1.95,1.03 2.85,0.36l4.41 -3.26 6.92 4.84 -1.56 5.26c-0.32,1.07 0.26,2.19 1.32,2.56l0.51 0.17 0.67 0.12 0.95 -0.23 1.04 -1.25 7.36 -24.75c0.24,-0.86 -0.08,-1.77 -0.8,-2.28l-0.48 -0.34 -2.43 0.03 -20.72 15.37 -0.82 1.41 0.44 1.56 0.34 0.42z"/>
  <path class="fil0" d="M354.41 273.09l0.07 0.03c7.89,0.06 15.76,-0.11 23.65,-0.19 -0.1,2.8 -0.22,5.58 -0.23,8.38 -17.57,-1.47 -37.14,-1.78 -54.65,0.13 0.09,-2.87 0.03,-5.75 -0.11,-8.61 10.42,0.14 20.85,0.2 31.27,0.26zm20.23 29.55c-15.68,-0.6 -31.65,-0.48 -47.24,0.36 0.26,-5.45 0.38,-10.95 0.03,-16.4 15.38,1.34 31.98,1.12 47.33,-0.02 -0.31,5.32 -0.33,10.71 -0.12,16.07zm-64.13 -12.41c-3.55,1.66 -6.81,4.3 -8.87,7.61 -6.01,-3.91 -13.47,-0.52 -16.3,5.68 -0.98,-0.52 -2.13,-0.78 -3.37,-0.59 -3.01,0.46 -5.29,2.7 -6.55,5.39 -1.18,2.57 2.39,4.58 3.87,2.13 0.65,-1.05 1.55,-2.19 2.73,-2.68 1.06,-0.47 1.63,0.08 2.18,0.88l-0.01 0.11c-0.03,2.46 3.76,2.87 4.27,0.47 0.66,-3.13 1.55,-5.9 4.36,-7.75 2.34,-1.53 4.92,-0.92 7.04,0.49 -0.28,1.07 -0.44,2.17 -0.44,3.31 -0.02,2.84 4.03,2.58 4.29,-0.09 0.78,-8.04 12.15,-14.53 18.5,-8.77l0.3 0.2c0.06,2.91 0.18,5.81 0.33,8.66 0.08,1.51 1.23,2.17 2.34,2.09 1.08,0.07 2.17,0.09 3.25,0.15 -0.19,4.33 -0.26,8.66 -0.26,12.99 0,3.14 4.87,3.01 4.87,-0.11 0,-4.23 -0.07,-8.45 -0.25,-12.68 5.96,0.26 11.96,0.44 17.97,0.49l0.02 0.04c0.46,0.68 0.15,2.41 0.17,3.24 0.02,1.39 0.14,2.79 0.25,4.19 0.27,2.88 4.19,2.67 4.44,-0.13 0.09,-1.17 0.16,-2.38 0.21,-3.57 0.06,-1.07 -0.29,-2.82 0.24,-3.75 5.96,-0.01 11.9,-0.14 17.81,-0.35 -0.16,2.22 -0.33,4.43 -0.33,6.66 -0.01,2 -0.47,4.7 0.71,6.44 1.02,1.51 3.01,1.34 3.97,-0.1 1.04,-1.56 0.65,-4 0.65,-5.8 -0.01,-2.48 -0.18,-4.93 -0.35,-7.36 1.09,-0.05 2.2,-0.07 3.28,-0.13 3.04,-0.16 2.87,-4.53 -0.12,-4.68 -0.84,-0.04 -1.68,-0.06 -2.52,-0.1 0.24,-5.52 0.22,-11.07 -0.1,-16.6l1.02 -0.07c1.29,0.1 2.67,-0.7 2.73,-2.4 0.13,-4.19 -0.13,-8.37 -0.27,-12.55l0.08 -0.52c-0.02,-1.11 -0.77,-2.23 -2.21,-2.22 -8.7,-0.05 -17.37,-0.27 -26.07,-0.2l-0.05 0.01c-11.15,0.09 -22.29,0.14 -33.44,0.29 -1.32,0.02 -1.95,0.98 -1.99,2l-0.05 0.2c-0.31,4.36 -0.43,8.77 -0.16,13.14l0.38 1.15 0.22 0.27 0.28 0.26 0.15 0.09 1.42 0.3 1.63 0.17c-0.1,1.39 -0.2,2.77 -0.23,4.17 -3.35,-2.17 -8.17,-1.84 -12,-0.05z"/>
  <path class="fil0" d="M338.13 292.15c-0.07,1.4 -0.28,2.77 -0.27,4.16 0.03,3.13 4.81,2.98 4.83,-0.11 0,-1.4 -0.21,-2.76 -0.28,-4.14 -0.13,-2.79 -4.14,-2.64 -4.28,0.09z"/>
  <path class="fil0" d="M360.95 292.85c-0.04,1.37 -0.16,2.67 0.06,4.04 0.35,2.11 3.86,1.94 4.19,-0.11 0.22,-1.37 0.08,-2.7 0.03,-4.04 -0.1,-2.78 -4.18,-2.62 -4.28,0.12z"/>
  <path class="fil0" d="M269.11 318.48c17.19,1.08 34.65,0.5 51.88,0.46 3.41,-0.01 3.26,-5.27 -0.13,-5.28 -17.21,-0.03 -34.66,-0.6 -51.84,0.47 -2.84,0.19 -2.67,4.18 0.09,4.35z"/>
  <path class="fil0" d="M276.7 169.34c15.01,-3.52 28.69,3.14 43.63,0.65 13.84,-2.33 26.83,-7.22 38.66,-14.8l0.77 -0.68c7.48,-0.97 15.37,0.11 22.71,1.16 3.53,0.5 6.93,1.3 10.35,2.28 4.71,1.35 6.61,3.47 8.49,6.82 -5.39,2.83 -10.91,6.33 -16.93,6.68 -6.36,0.37 -12.82,-1.72 -19.28,-1.52 -5.6,0.16 -11.35,1.61 -16.75,3.02 -3.37,0.9 -7.02,6.77 -10.09,8.76 -16.57,10.68 -38.69,4.67 -55.61,15.82 -3.71,2.45 0.36,7.64 3.86,4.77 15.73,-12.96 40.27,-4.66 57.39,-16.08 3.23,-2.16 5.56,-7.04 9.3,-8.13 8.09,-2.36 15.91,-2.06 24.12,-0.72 11.55,1.89 19.08,-2.87 29.02,-7.51 0.84,0.11 1.61,-0.21 2.16,-0.8 3.18,-0.79 6.48,-1.11 9.75,-1.21 4.08,-0.15 7.39,1.52 11.27,1.87 1.85,0.18 2.91,-2.26 1.99,-3.68 -4.15,-6.37 -15.8,-3.97 -23.11,-2.59 -0.66,-1.44 -1.27,-2.87 -1.96,-4.2l0.89 -0.81 0.25 -0.22 0.5 -0.43 0.8 -1.08c0.69,-1.71 0.14,-3.65 -1.82,-4.17 -1.75,-0.47 -3.52,0.5 -4.54,1.94l-0.77 -0.51c-0.81,-0.43 -1.66,-0.84 -2.51,-1.22 0.83,-1.04 1.59,-2.15 2.52,-3.2 1.57,-1.77 -0.08,-4.38 -2.34,-3.82 -2.65,0.69 -4.34,2.82 -5.73,5.08 -1.81,-0.52 -3.64,-0.98 -5.44,-1.42l0.53 -2.08 0.16 -0.57 0.31 -0.85 0.47 -1.29c0.85,-1.78 -0.67,-4.08 -2.74,-3.39 -0.92,0.31 -1.77,0.74 -2.47,1.4 -0.88,0.82 -1.05,1.23 -1.59,2.07 -0.57,0.88 -0.94,2.14 -0.98,3.34 -8.49,-1.57 -17.33,-1.94 -25.83,-0.95 -1.77,0.22 -3.02,1.24 -3.54,2.59l-2.21 1.32 -1.37 -0.52c-1.83,-0.92 -3.37,0.6 -3.22,2.28l-0.02 -0.07 0.04 0.76c-1.52,0.78 -3.07,1.52 -4.62,2.23l-1.51 -0.69 -0.21 -0.07 -0.09 -0.14 -0.12 -0.07 -0.26 -0.29 -0.6 -0.84 -0.49 -0.65 -0.92 -0.89c-1.34,-0.96 -3.36,-0.55 -3.78,1.22 -0.43,1.91 0.13,3.64 1.21,5.16 -0.93,0.34 -1.89,0.65 -2.85,0.94 -0.43,-1.73 -0.82,-3.48 -2.01,-4.88 -0.97,-1.09 -3.22,-0.78 -3.79,0.59 -0.56,1.37 -0.65,3.83 -0.14,6 -4.09,1.03 -8.24,1.78 -12.44,2.16 -13.03,1.17 -25.04,-3.54 -37.88,1.35 -2.98,1.13 -1.69,5.47 1.44,4.75z"/>
  <path class="fil0" d="M256.34 257.75c6.96,-2.42 21.31,-10.21 18.11,-19.88 -2.85,-8.6 -11.41,-9.18 -19.31,-9.11 -2.65,0.02 -5.28,0.11 -7.92,0.11 -1.5,-0.06 -2.95,-0.26 -4.37,-0.6 -2.97,-1.62 -3.33,-2.23 -1.08,-1.83 8.72,-6.32 12.5,-11.42 23.28,-4.78 1.4,0.86 3.82,0.62 4.86,-0.75 2.91,-3.83 6.56,-7.37 9.32,-11.31 0.6,-0.39 1.04,-0.97 1.16,-1.78l0.05 -0.36c0.25,-1.85 -0.53,-3.64 -2.48,-4.14 -4.93,-1.24 -9.19,5.11 -12.15,9.55 -10.27,-5.11 -16.99,-2.16 -25.95,6.17 -4.78,4.46 -9.46,11.43 0.24,14.19 6.07,1.72 39.56,0.76 22.19,13.24 -8.45,6.06 -18.4,5.51 -27.74,2.11 -9.18,-3.35 -13.02,-5.45 -22.9,-4.25 -2.76,0.33 -2.69,4.14 0.1,4.3 9.41,0.54 15.49,3.93 24.04,7.1 5.9,2.18 14.38,4.19 20.56,2.02z"/>
  <path class="fil0" d="M297.16 215.82c2.48,-1.42 0.19,-4.78 -2.27,-3.67 -14.86,6.77 1.04,16.35 7.3,22.75 0.75,0.77 2.02,1.06 3.04,0.74 10.03,-3.33 18.13,-6.46 28.06,-0.65 5.78,3.41 7.87,4.09 13.61,1.6 7.82,-3.4 23.95,5.61 29.35,-1.9 1.32,-1.84 -0.65,-4 -2.49,-4.1 -9.04,-0.42 -23.25,-4.43 -31.43,0.93 -2.29,1.5 -13.47,-6.97 -17.33,-7.1 -6.99,-0.25 -14.12,1.28 -20.33,4.53 -4.43,-3.27 -13.68,-9.57 -7.48,-13.11z"/>
  <path class="fil0" d="M410.04 230.93c-5.12,0.55 -9.55,2.55 -14.03,5 -2.96,1.61 -7.42,9.33 -9.95,9.73 -6.38,0.98 -12.54,-3.4 -19.06,-2.25 -8.18,1.44 -14.95,5.5 -23.47,5.49 -5.46,-0.02 -11.28,-0.1 -17.17,0.09 -0.04,-1.54 -0.31,-3.15 -0.46,-4.65 -0.11,-1 -0.66,-1.84 -1.68,-2.1 -0.9,-0.23 -2.08,0.18 -2.47,1.08 -0.8,1.8 -1.22,3.99 -0.73,5.94 -1.47,0.09 -2.92,0.23 -4.37,0.39 0.12,-0.77 0.14,-1.56 0.17,-2.34 0.07,-1.37 0.02,-2.68 -0.36,-4.02 -0.74,-2.56 -4.22,-2.22 -4.95,0.11 -0.63,2 -1.03,4.83 -0.18,6.96 -2.67,0.43 -5.29,1.02 -7.84,1.75l-0.49 -1.7 -0.02 -0.09c-0.53,-2.14 -3.7,-1.95 -4.22,0.07 -0.49,0.84 -0.58,2.04 -0.6,2.9l0 0.65c-1.93,0.8 -3.8,1.71 -5.6,2.75 -0.62,-1.51 -0.94,-3.08 -1.32,-4.66 -0.48,-2.12 -3.85,-2.02 -4.26,0.1 -0.45,2.29 -0.16,5.29 1.03,7.65 -1.19,0.93 -2.32,1.96 -3.4,3.07 -0.34,-1.21 -1.09,-2.38 -1.95,-3.12 -1.8,-1.56 -4.78,0.59 -3.34,2.7l0.46 1.27c0.26,0.89 0.6,1.62 1.22,2.34l0.26 0.2 -0.14 0.15c-4.31,0.8 -8.41,0.14 -12.79,-0.13 -2.24,-0.14 -3.09,3.39 -1.05,4.3 5.49,2.45 10.43,2.79 16.4,2.01 1.19,-0.16 2.19,-0.72 2.74,-1.62l0.09 -0.1c10.92,-15.55 33.05,-15.48 50.11,-15.78 7.64,-0.13 14.4,0.09 21.67,-2.64 6.27,-2.34 11.1,-3.22 17.79,-1.59 4.7,1.14 8.55,1.8 13.38,1.04 1.67,-0.26 2.59,-0.98 3.19,-2.56 3.35,-8.73 11.7,-9.68 18.73,-13.97 1.95,-1.19 1.12,-4.71 -1.32,-4.46z"/>
  <path class="fil0" d="M131.77 303.88c-1.95,0.26 -3.8,0.82 -5.67,1.4 -2.22,0.69 -4.53,1.1 -6.67,2 -1.84,0.76 -2.23,3.81 0.11,4.25 1.64,0.32 3.41,0.28 5.19,-0.02 0.25,2.75 0.59,5.47 1.22,8.18 0.54,2.36 4.6,1.74 4.23,-0.68 -0.43,-2.9 -0.77,-5.79 -1.12,-8.72 1.45,-0.54 2.83,-1.23 4.02,-1.98 1.87,-1.2 1.17,-4.75 -1.31,-4.44z"/>
  <path class="fil0" d="M197.13 315.34c2,-0.39 2.01,-3.25 0.43,-4.12 -0.8,-0.47 -1.71,-0.62 -2.45,-1.16 -0.93,-0.71 -1.78,-1.18 -2.88,-1.6 -2.83,-1.03 -5.25,1.11 -7.6,2.21 -2.4,1.13 -0.41,4.23 1.75,3.86 0.84,-0.13 1.58,-0.32 2.35,-0.59 -0.09,3.12 -0.22,6.22 -0.34,9.32 -0.08,2.58 3.67,2.79 4.35,0.48 0.84,-2.89 0.7,-6.08 0.52,-9.17 1.13,0.67 2.21,1.11 3.87,0.77z"/>
  <path class="fil0" d="M233.45 318.21c-0.66,2.12 2.2,3.49 3.65,2 1.91,-1.98 2.7,-4.65 3.38,-7.24 0.43,-1.62 0.92,-3.4 1.2,-5.16 1.35,1.15 2.75,2.25 4.21,3.13 2.22,1.35 4.14,-1.73 2.55,-3.48 -1.74,-1.9 -4.22,-3.19 -6.29,-4.76l-0.26 -0.14c-0.34,-0.65 -1,-1.17 -1.91,-1.21 -3.77,-0.16 -7.45,2.07 -10.94,3.23 -2.21,0.73 -1.82,4.5 0.67,4.2 2.31,-0.29 4.56,-1 6.8,-1.76 -0.28,1.26 -0.47,2.59 -0.76,3.83 -0.56,2.54 -1.56,4.9 -2.31,7.37z"/>
  <path class="fil0" d="M220.94 317.73l0 1.38c0.26,2.8 4.04,2.62 4.3,-0.1l0 -1.38c-0.26,-2.81 -4.06,-2.62 -4.3,0.1z"/>
  <path class="fil0" d="M211.45 318.69l-0.28 0.37c-1.26,1.76 1.33,4.08 3.02,2.89l0.38 -0.29c1.18,-0.82 1.47,-2.48 0.38,-3.52 -1.14,-1.08 -2.67,-0.61 -3.51,0.55z"/>
  <path class="fil0" d="M208.75 309.72c-1.02,-0.25 -2.48,0.41 -2.61,1.55l-0.08 1.97c0.1,2.8 4.24,2.65 4.33,-0.11l-0.02 -1.38c-0.11,-0.95 -0.63,-1.78 -1.62,-2.03z"/>
  <path class="fil0" d="M174.95 318.07c-0.01,2.74 1.49,5.27 4.05,6.27 1.86,0.74 3.45,-1.83 2.44,-3.33 -0.98,-1.45 -1.63,-2.63 -2.48,-4.12 -1.1,-1.94 -4,-0.87 -4.01,1.18z"/>
  <path class="fil0" d="M164.14 319.85c0.88,-0.91 1.01,-2.04 0.94,-3.25 -0.16,-2.8 -4.1,-2.62 -4.28,0.1l-0.08 0.65c-1.15,2.16 1.72,4.26 3.42,2.51z"/>
  <path class="fil0" d="M170.26 321.68l-0.07 -1.85c-0.42,-2.12 -3.74,-1.91 -4.15,0.1l-0.01 1.85c0.48,2.15 3.76,1.94 4.23,-0.1z"/>
  <path class="fil0" d="M144.51 313.25c-0.07,2.4 -0.3,4.79 0.37,7.17 0.64,2.2 3.76,1.98 4.35,-0.1 0.71,-2.57 0.43,-5.28 -0.46,-7.75 -0.83,-2.35 -4.16,-1.77 -4.25,0.69z"/>
  <path class="fil0" d="M140.88 319.7l0.02 -1.03c-0.26,-2.81 -4.05,-2.62 -4.3,0.1l0.02 1.04c0.19,2.78 4.07,2.6 4.26,-0.11z"/>
  <path class="fil0" d="M116.75 319.37l-0.04 -0.7c-0.13,-0.98 -0.63,-1.8 -1.64,-2.06 -1.05,-0.26 -2.48,0.4 -2.64,1.59l-0.09 1.27c0.11,1.21 0.98,2.17 2.26,2.15 1.31,-0.03 2.03,-1.06 2.15,-2.24z"/>
  <path class="fil0" d="M107.7 322.49l0.1 -0.06c0.96,-0.64 1.22,-1.62 1.02,-2.7l-0.06 -0.29c-0.39,-1.81 -2.55,-1.94 -3.7,-0.91l-0.46 0.36c-0.87,0.76 -0.83,2.51 0.08,3.2l0.11 0.09c0.85,0.66 1.95,0.93 2.9,0.31z"/>
  <path class="fil0" d="M314.61 323.98l0.04 0.03 -0.04 -0.03zm-213.35 -1.96c-0.42,-0.91 -1.7,-1.25 -2.58,-0.98 -1.04,0.31 -1.54,1.2 -1.62,2.22 -0.07,1.15 -0.13,2.33 -0.03,3.49 -6.29,0.06 -12.55,0.14 -18.84,0.25 -3.15,0.06 -3,4.81 0.11,4.87 51.25,0.85 102.56,0.25 153.81,0.57 24.38,0.15 48.74,0.03 73.13,0.1 23.42,0.08 47,1.16 70.36,-0.57 3.31,-0.26 3.11,-4.82 -0.12,-5.08 -16.22,-1.19 -32.56,-1.04 -48.87,-0.81 0.97,-1.04 0.73,-2.5 -0.49,-3.4l-2.02 -0.18c-1.69,0.3 -1.9,2.53 -0.89,3.61 -2.1,0.03 -4.2,0.07 -6.29,0.08l-1.13 -1.85 -0.49 -0.2c-1.34,-0.93 -3.64,0.02 -3.49,1.89l0.04 0.22c-1.4,0.01 -2.8,0.03 -4.19,0.03l-0.15 -0.93c0.16,0.96 -0.06,-0.36 -0.11,-0.69l-0.28 -1.27c-0.88,-3.29 -5.72,-2.14 -5.67,0.83l0.1 2.09c-5.36,0.02 -10.73,0.02 -16.09,0.02 -0.27,-0.92 -0.75,-1.8 -1.39,-2.32 -1.32,-1.04 -4.04,-0.88 -4.27,1.24l0.01 1.08c-5.08,0 -10.16,0.02 -15.23,0.02l-1.2 -1.36c-1.15,-0.52 -2.85,-0.38 -3.47,0.96l-0.02 0.03 -0.1 0.38c-2.92,0 -5.85,0.02 -8.77,0.02 0.4,-1.92 0.03,-4.14 -2.12,-4.75 -0.93,-0.24 -2.16,0.21 -2.57,1.14l-0.28 2.11 0.54 1.23 0 0.27c-4.87,0.01 -9.74,0.01 -14.61,0.03 -9.15,0.03 -18.31,0.05 -27.48,0.07l-0.01 -0.4 -0.55 -1.94 -0.26 -0.48 -0.76 -0.77c-1.3,-1.45 -4.18,-0.26 -3.92,1.72l0.02 0.14 0.03 1.44 0.04 0.27c-32.25,0.02 -64.51,-0.09 -96.74,0.2 0.05,-1.61 -0.4,-3.26 -1.08,-4.69z"/>
  <path class="fil0" d="M87.05 318.55l0.04 -0.09c0.66,-1.27 0.25,-2.85 -1.02,-3.55 -1.46,-0.8 -3.41,0.02 -3.79,1.67l-0.03 0.09c-0.65,2.84 3.41,4.54 4.79,1.89z"/>
  <path class="fil0" d="M256.69 322.67c3.32,0 3.19,-5.15 -0.13,-5.15 -3.33,0 -3.19,5.15 0.13,5.15z"/>
  <path class="fil0" d="M66.26 309.53c7.85,-4.03 15.2,-7.75 24.12,-4.69 1.8,0.62 3.85,1.38 5.81,0.87 4.01,-1.04 6.79,1.06 10.39,1.68 4.24,0.74 6.49,-1.45 9.62,-4.2 8.72,-7.68 18.61,-5.06 29.16,-5.74 2.9,-0.18 2.74,-4.3 -0.11,-4.46 -9.03,-0.47 -17.25,-1.51 -25.94,1.44 -1.86,0.62 -3.59,2.08 -5.03,3.37 -4.54,4.1 -5.22,4.63 -10.79,2.62 -2.37,-0.85 -2.68,-0.72 -5.16,-0.24 -4.16,0.82 -7.51,-1.18 -11.5,-1.49 -8.15,-0.6 -16.18,2.63 -22.89,7.09 -2.38,1.59 -0.18,5.05 2.32,3.74z"/>
  <path class="fil0" d="M172.1 298.34c9.58,1.23 15.59,-4.82 22.41,-10.69 8.04,-6.95 13.96,-5.63 23.53,-3.54 5.28,1.15 8.81,-3.47 14.08,-2.96 2.43,0.23 2.89,-3.95 0.48,-4.27 -5.61,-0.8 -10.32,3.14 -15.99,1.78 -5.34,-1.28 -8.72,-2.89 -14.17,-1.3 -11.36,3.31 -17.17,17.01 -29.88,16.73 -2.41,-0.06 -2.9,3.96 -0.47,4.25z"/>
  <path class="fil0" d="M261.02 298.95c0.01,-1.71 -2.11,-2.89 -3.53,-1.91 -1.74,1.19 -2.28,2.98 -1.39,4.88 0.8,1.69 3.02,1.13 3.88,-0.09 0.53,-0.75 1.02,-1.73 1.04,-2.88z"/>
  <path class="fil0" d="M289.8 242.41c-0.48,1.23 -0.22,2.47 0.32,3.63 0.77,1.67 3.52,1.47 4.27,-0.1 0.53,-1.16 0.7,-2.43 0.22,-3.65 -0.95,-2.43 -3.93,-2.17 -4.82,0.13z"/>
  <polygon class="fil0" points="337.85,152.93 337.86,152.95 "/>
  <path class="fil0" d="M182.94 348.68c-26.8,-0.48 -53.74,-0.74 -80.54,0.04 -2.8,0.07 -2.65,4.23 0.1,4.3 26.8,0.77 53.74,0.52 80.55,0.04 2.84,-0.04 2.7,-4.33 -0.11,-4.38z"/>
  <path class="fil0" d="M245.16 359.02c-26.93,-0.37 -54.34,-1.8 -81.23,0.05 -2.84,0.2 -2.67,4.15 0.1,4.34 26.89,1.84 54.3,0.42 81.24,0.07 2.88,-0.05 2.75,-4.43 -0.11,-4.46z"/>
  <path class="fil0" d="M239.98 344.93c-2.78,0.06 -2.64,4.2 0.1,4.28 13.13,0.3 26.28,0.43 39.41,0.08 2.89,-0.07 2.74,-4.38 -0.11,-4.45 -13.13,-0.35 -26.28,-0.21 -39.4,0.08z"/>
  <path class="fil0" d="M301.51 349.06c-2.79,0.06 -2.67,4.26 0.1,4.32 6,0.1 11.99,0.14 17.98,0 2.81,-0.06 2.67,-4.25 -0.1,-4.32 -6,-0.15 -11.99,-0.11 -17.98,0z"/>
  <path class="fil0" d="M212.43 389.98c7.49,0.23 14.97,0.12 22.47,0.03 2.79,-0.03 2.67,-4.27 -0.09,-4.31 -7.5,-0.09 -14.98,-0.2 -22.47,0.03 -2.76,0.09 -2.62,4.18 0.1,4.25z"/>
  <path class="fil0" d="M300.92 374.14c2.81,-0.03 2.7,-4.33 -0.1,-4.36 -15.96,-0.18 -32.11,-0.89 -48.06,0.03 -2.8,0.17 -2.63,4.15 0.11,4.31 15.94,0.92 32.08,0.2 48.05,0.02z"/>
  <path class="fil0" d="M272.58 388c2.86,-0.09 2.73,-4.33 -0.1,-4.43 -4.75,-0.15 -9.45,-0.3 -14.18,0.06 -2.83,0.2 -2.65,4.1 0.1,4.31 4.73,0.36 9.44,0.2 14.18,0.05z"/>
  <path class="fil0" d="M218.89 375.25c-15.38,-0.32 -32.05,1.47 -47.25,-0.77 -4.86,-0.71 -4.79,6.71 -0.67,6.12 15.47,-2.28 32.34,-0.53 48.02,-0.86 2.9,-0.08 2.77,-4.42 -0.1,-4.49z"/>
  <path class="fil0" d="M135.7 374.36c-2.14,0.45 -1.95,3.79 0.1,4.2 4.87,1.04 10.16,0.31 15.1,0.13 2.92,-0.1 2.75,-4.38 -0.11,-4.49 -4.96,-0.17 -10.21,-0.87 -15.09,0.15z"/>
  <path class="fil0" d="M189.85 392.55c-2.69,-0.2 -5.55,-0.6 -8.19,0.11 -2.16,0.58 -1.95,3.7 0.1,4.26 2.62,0.7 5.52,0.27 8.2,0.07 2.9,-0.2 2.72,-4.26 -0.11,-4.44z"/>
  <path class="fil0" d="M244.81 400.49c-11.28,-0.37 -22.97,-1.07 -34.22,0.05 -2.85,0.28 -2.65,4.09 0.1,4.36 11.26,1.11 22.94,0.42 34.24,0.06 2.89,-0.09 2.74,-4.37 -0.12,-4.47z"/>
  <path class="fil0" d="M310.49 382.93c-4.44,-0.18 -9.84,0.6 -14.07,-0.86 -4.83,-1.66 -4.96,7.76 0.15,5.99 4.18,-1.43 9.62,-0.6 14.01,-0.8 2.83,-0.11 2.67,-4.21 -0.1,-4.33z"/>
  <path class="fil0" d="M341.03 365.19c2.9,-0.13 2.74,-4.31 -0.11,-4.45 -7.84,-0.39 -17.49,-1.98 -25.11,0.15 -2.12,0.62 -1.89,3.6 0.1,4.17 7.61,2.14 17.28,0.52 25.12,0.13z"/>
  <path class="fil0" d="M354.34 338c-3.15,-0.04 -6.84,0.59 -9.84,-0.51 -4.83,-1.77 -4.97,7.86 0.14,5.99 2.95,-1.07 6.73,-0.46 9.84,-0.47 3.13,-0.01 6.25,-0.16 9.38,-0.3 2.85,-0.14 2.7,-4.28 -0.12,-4.42 -3.13,-0.13 -6.26,-0.26 -9.39,-0.3z"/>
  <path class="fil0" d="M201.73 339.84c-2.1,0.45 -1.9,3.69 0.1,4.12 4.32,0.93 9.32,0.63 13.7,0.2 2.97,-0.31 2.77,-4.25 -0.11,-4.54 -4.39,-0.43 -9.36,-0.72 -13.69,0.23z"/>
  <path class="fil0" d="M141.56 343.05c2.87,-0.1 2.72,-4.32 -0.1,-4.4 -16.75,-0.57 -33.73,-0.49 -50.46,0.05 -2.79,0.09 -2.65,4.19 0.09,4.28 16.75,0.54 33.72,0.63 50.47,0.07z"/>
 </g>
</svg>
