<?xml version="1.0" encoding="UTF-8"?>
<svg xmlns="http://www.w3.org/2000/svg" xml:space="preserve" width="0.747335in" height="0.747331in" version="1.1" style="shape-rendering:geometricPrecision; text-rendering:geometricPrecision; image-rendering:optimizeQuality; fill-rule:evenodd; clip-rule:evenodd"
viewBox="0 0 184.78 184.78"
 xmlns:xlink="http://www.w3.org/1999/xlink"
 xmlns:xodm="http://www.corel.com/coreldraw/odm/2003">
 <defs>
  <style type="text/css">
   <![CDATA[
    .fil0 {fill:black;fill-rule:nonzero}
   ]]>
  </style>
 </defs>
 <g id="Layer_x0020_1">
  <metadata id="CorelCorpID_0Corel-Layer"/>
  <path class="fil0" d="M151.39 107.18c10.54,-0.01 19.69,-6.63 30.39,-5.49 -0.3,2.93 -0.74,5.82 -1.32,8.66l-0.05 0c-10.15,-1.01 -20.59,-0.84 -30.92,-0.56 -1.25,-12.25 -1.85,-24.7 -3.97,-36.83 0.37,-0.01 0.75,-0.03 1.12,-0.04 1.18,-0.04 1.12,-1.77 -0.04,-1.82 -6.42,-0.24 -13.1,-0.6 -19.5,-0.05 -1.25,0.11 -1.17,1.81 0.04,1.91 0.47,0.04 0.96,0.07 1.43,0.1 -2.13,12.25 -2.72,24.84 -3.99,37.2 -1.57,0.01 -3.15,0.02 -4.73,0.03 0.1,-1.16 0.14,-2.33 0.16,-3.49l0.14 0.01c0.95,0.07 1.89,0.29 2.84,0.41 0.94,0.12 1.65,-1.18 0.66,-1.67 -1.08,-0.53 -2.38,-0.84 -3.63,-0.83 -0.01,-0.86 -0.02,-1.72 -0.02,-2.58 -0.02,-3.35 0.18,-6.85 -0.32,-10.18 0.14,-0.26 0.16,-0.58 -0,-0.91 -0.99,-1.96 -2.85,-3.74 -4.23,-5.46 -1.44,-1.81 -2.81,-3.99 -4.54,-5.54 -0.69,-1.2 -2.55,-2.21 -3.51,-2.97 -1.39,-1.11 -2.84,-2.38 -4.42,-3.22l-0.04 -0.01 -0.17 -0.05 -0.17 -0.04 -0.08 -0.02c-4.68,-0.24 -9.72,-0.59 -14.38,-0.04l-0.21 0.07 -0.42 0.11 -0.06 0.02c-1.51,0.8 -2.85,2.03 -4.2,3.06 -1.06,0.81 -2.97,1.94 -3.68,3.11l-0.04 0.02c-1.67,1.51 -2.98,3.6 -4.38,5.34 -1.43,1.79 -3.37,3.65 -4.38,5.67l-0.08 0.73c-0.46,2.99 -0.28,6.11 -0.33,9.12 -0.04,3.07 -0.18,6.19 0.1,9.26 -13.56,-0.13 -27.13,-0.3 -40.69,-0.36 -0.35,-1.64 -0.87,-2.98 0.47,-4.68 1,-1.28 1.44,-2.62 1.51,-4.2 0.11,-2.38 1.86,-1.92 3.62,-2.29 1.3,-0.28 2.04,-1.34 2.28,-2.55 0.2,-1.05 -1.11,-1.51 -1.68,-0.66 -1.41,2.08 -3.3,0.68 -4.99,1.91 -0.64,0.47 -1.01,1 -1.23,1.59l0 -0c-0.14,-1 -0.89,-1.59 -1.76,-1.97 -1.6,-0.71 -2.8,-0.74 -4,-2.18 -0.64,-0.77 -1.76,0.12 -1.54,0.94 0.18,0.7 0.56,1.2 1.05,1.61 -0.75,0.47 -1.58,0.78 -2.49,0.65 -1.04,-0.15 -1.8,-0.82 -2.24,-1.72 0.29,-0.39 0.52,-0.87 0.64,-1.43 0.22,-1.06 -1.13,-1.52 -1.7,-0.67 -1.02,1.49 -2.74,1.65 -3.66,-0.03 -0.45,-0.83 -1.52,-0.37 -1.64,0.38 -2.52,-0.25 -4.44,-1.7 -4.67,-4.57 -0.3,-3.73 2.95,-5.33 6.19,-5.14 1,0.05 1.18,-1.6 0.19,-1.75 -0.41,-0.06 -0.8,-0.09 -1.19,-0.09 -0.04,-0.74 0.28,-1.41 0.84,-1.99 1.01,-1.04 2.4,-0.8 3.5,-0.08 0.81,0.53 1.77,-0.77 1,-1.37 -0.34,-0.26 -0.71,-0.47 -1.09,-0.64 1.55,-3.81 5.69,-4.95 9,-2.94l-0.17 0.08c-0.89,0.49 -0.23,1.95 0.73,1.61 2.06,-0.72 3.66,0.13 4.98,1.69 0.59,0.68 1.84,-0.1 1.5,-0.93 -0.77,-1.88 -2.76,-2.97 -4.74,-2.98 -4.09,-4.37 -11.3,-2.55 -13.05,3.06 -0.91,-0.01 -1.82,0.26 -2.65,0.9 -1.18,0.91 -1.85,2.33 -1.69,3.74 -3.01,0.64 -5.17,3.04 -5.4,6.53 -0.28,4.37 3.44,7.34 7.49,6.8 0.98,1.15 2.6,1.49 3.96,1 1.35,3.42 6.17,3.83 8.5,0.82 0.92,0.18 1.99,0.39 2.23,0.95 0.76,1.8 -2.25,4.9 -3.16,6.25 -0.89,1.31 -1.11,2.8 -1.07,4.32 -6.47,-0.01 -12.94,0.02 -19.4,0.1 -0.32,-1.58 -0.59,-3.18 -0.82,-4.78 6.3,-0.4 11.77,3.67 18.08,3.11 1.19,-0.11 1.12,-1.75 -0.05,-1.83 -6.18,-0.47 -12.03,-4.1 -18.27,-3.06 -0.44,-3.6 -0.67,-7.28 -0.67,-11 0,-4.97 0.41,-9.86 1.19,-14.61 1.11,0.27 2.49,0.09 3.49,0.06 1.48,-0.05 2.96,-0.08 4.43,-0.26 0.96,-0.12 1.33,-1.7 0.21,-1.84 -1.41,-0.18 -2.83,-0.23 -4.25,-0.28 -1,-0.04 -2.31,-0.22 -3.45,-0.04 1.07,-5.59 2.66,-11 4.73,-16.18 5.28,-1.33 9.7,0.77 10.51,6.8 0.15,1.14 1.8,1.15 1.8,-0.04 0,-1.41 -0.26,-2.68 -0.72,-3.81 2.21,-0.83 4.84,-0.69 6.39,1.25 -0.18,0.3 -0.34,0.61 -0.45,0.97 -0.31,0.98 1.21,1.56 1.66,0.65 1.44,-2.89 5.69,-2.77 6.74,0.38 0.16,0.47 0.52,0.64 0.88,0.6 3.78,0.65 7.93,0.14 11.74,0.04 1.16,-0.04 1.1,-1.76 -0.05,-1.8 -3.59,-0.1 -7.46,-0.53 -11.05,-0.05 -1.13,-3.23 -5.54,-3.99 -8.16,-2.18 -1.91,-2.55 -5.79,-2.94 -8.58,-1.49 -2.07,-3.04 -5.88,-4.42 -9.77,-3.58 2.42,-5.64 5.42,-10.98 8.89,-15.96 4.03,0.3 8.22,0.04 12.22,-0.12 1.15,-0.05 1.09,-1.72 -0.04,-1.77 -3.48,-0.14 -7.13,-0.37 -10.67,-0.22 0.76,-1.02 1.54,-2.03 2.34,-3.01 14.34,0.87 28.96,0.06 43.31,-0.06 1.12,-0.01 1.07,-1.72 -0.04,-1.74 -13.81,-0.1 -27.85,-0.86 -41.66,-0.14 4.06,-4.74 8.61,-9.05 13.57,-12.86 3.46,0.77 6.39,3.95 6.81,7.46 0.14,1.14 1.74,1.13 1.8,-0.04 0.03,-0.7 -0.08,-1.42 -0.28,-2.13 3.35,-1.72 7.42,-0.95 8.6,2.96l0.37 0.45c-0.42,0.83 0.63,1.76 1.39,1.01 1.26,-1.25 3.24,-0.58 4.2,0.7 0.68,0.9 2.03,0.09 1.5,-0.93 -1.05,-2.01 -3.84,-2.86 -5.82,-1.88 -0.95,-4.8 -6.95,-6.33 -10.89,-3.96 -1.18,-2.32 -3.36,-4.33 -5.73,-5.11 14.82,-10.78 33.04,-17.14 52.72,-17.14 20.97,0 40.28,7.23 55.59,19.3 -2.04,0.95 -3.52,2.96 -4.32,5.16 -0.87,-0.21 -1.8,-0.23 -2.79,-0.02 -2.6,0.56 -4.43,3.1 -5.06,5.58 -2.19,0 -4.39,0.08 -6.54,0.18 -1.12,0.05 -1.06,1.68 0.04,1.73 3.59,0.18 7.32,0.31 10.9,0.04 1.19,-0.08 1.11,-1.73 -0.04,-1.82 -0.79,-0.06 -1.6,-0.09 -2.4,-0.12 1.12,-2.72 3.3,-4.13 5.58,-3.59 0.22,0.36 0.69,0.55 1.08,0.41 0.73,0.37 1.46,0.95 2.14,1.77 0.65,0.77 1.94,-0.3 1.36,-1.1 -0.69,-0.96 -1.5,-1.75 -2.42,-2.31 1,-2 2.02,-3.87 4.21,-4.52 4.79,3.98 9.16,8.45 13.05,13.32 -5.1,-0.12 -10.24,-0.22 -15.32,0.08 -1.14,0.07 -1.07,1.68 0.04,1.75 5.55,0.33 11.17,0.18 16.73,0.04 9.64,12.8 15.94,28.23 17.61,45.01 -5.78,-0.77 -12.16,-0.2 -17.89,0.11 -1.19,0.07 -1.12,1.77 0.04,1.83 5.79,0.32 12.21,0.88 18.03,0.09 0.18,2.29 0.27,4.6 0.27,6.93 0,2.51 -0.11,4.99 -0.31,7.45 -10.57,-1.91 -20.27,4.45 -30.61,5.58 -1.12,0.12 -1.11,1.77 0.04,1.77zm27.47 9.75c-1.98,-1.42 -4.56,-2.01 -6.88,-2.57 -1.17,-0.29 -2.33,-0.56 -3.49,-0.86 3.84,-0.1 7.65,-0.3 11.43,-0.66 -0.32,1.38 -0.67,2.74 -1.06,4.09zm-1.84 5.74c-4.39,-1.54 -8.71,-2.95 -12.94,-4.99 -2.68,-1.29 -5.28,-2.73 -7.89,-4.17 1.78,0.02 3.55,0.05 5.33,0.06 4.93,3.15 11.87,2.09 16.66,5.66 -0.36,1.16 -0.75,2.31 -1.16,3.44zm-39.94 -23.53c3.25,1.85 6.54,3.61 9.88,5.15 0.24,1.88 0.47,3.73 0.67,5.56 -3.25,0.1 -6.49,0.19 -9.69,0.25 -3.83,0.08 -7.66,0.13 -11.49,0.16 0.22,-1.95 0.46,-3.94 0.72,-5.96 3.35,-1.54 6.66,-3.3 9.91,-5.16zm-2.53 -1.46c-2.4,1.3 -4.77,2.65 -7.06,4.08 0.33,-2.53 0.67,-5.1 0.99,-7.67 2.01,1.2 4.03,2.4 6.06,3.59zm11.1 -3.57c0.33,2.56 0.66,5.12 0.99,7.63 -2.28,-1.43 -4.63,-2.76 -7.02,-4.06 2.03,-1.18 4.03,-2.38 6.03,-3.57zm-8.57 -11.94c2.5,1.43 5.05,2.79 7.62,3.97 0.22,1.98 0.45,3.97 0.69,5.94 -2.75,1.4 -5.54,2.8 -8.31,4.25 -2.78,-1.46 -5.58,-2.86 -8.34,-4.27 0.24,-1.97 0.47,-3.94 0.69,-5.91 2.59,-1.19 5.13,-2.54 7.64,-3.98zm-2.51 -1.47c-1.66,0.9 -3.28,1.82 -4.86,2.8 0.18,-1.82 0.34,-3.63 0.47,-5.44 1.45,0.87 2.91,1.76 4.39,2.63zm9.39 -2.61c0.13,1.79 0.29,3.59 0.47,5.4 -1.57,-0.98 -3.19,-1.9 -4.83,-2.78 1.47,-0.87 2.92,-1.75 4.36,-2.61zm-6.87 1.28c-2.26,-1.17 -4.53,-2.29 -6.77,-3.41 0.06,-0.92 0.1,-1.85 0.14,-2.77 4.38,0.18 8.83,0.04 13.21,-0.13 0.04,0.97 0.09,1.94 0.15,2.92 -2.22,1.11 -4.48,2.23 -6.73,3.39zm-53.09 22.52c1.13,0.04 2.26,0.04 3.38,0.04 -0.18,2.39 0.01,4.87 0.1,7.24 0.04,1.12 1.69,1.07 1.73,-0.05 0.09,-2.36 0.29,-4.86 0.1,-7.24 1.09,-0.05 2.23,-0.09 3.25,0.13 -0.11,1.3 -0.02,2.63 -0.03,3.91 -0.01,1.48 -0.03,2.95 0.06,4.43 -2.89,0 -5.77,-0.02 -8.65,-0.03 0.13,-2.76 0.31,-5.69 0.07,-8.44zm7.27 -23.18c1,0.81 2.45,2.26 3.71,2.75 1.09,1.88 2.75,3.57 4.09,5.26 1.32,1.66 2.58,3.74 4.15,5.2l0 0.01c-0.45,2.97 -0.27,6.06 -0.31,9.05 -0.05,3.11 -0.19,6.27 0.11,9.38 -2.82,0 -5.63,0 -8.44,0 0.09,-1.49 0.07,-2.99 0.06,-4.49 -0.01,-1.43 0.07,-2.88 -0.1,-4.3 0.34,-0.89 -0.11,-2.28 -1.43,-1.82 -1.59,0.57 -3.64,0.25 -5.31,0.25 -1.61,-0 -3.22,-0.03 -4.84,0.07l-0.07 0.01c-0.37,-0.02 -0.72,0.16 -0.79,0.66 -0.4,3.09 -0.21,6.44 -0.06,9.58 -3.11,-0.01 -6.23,-0.04 -9.35,-0.07 0.23,-2.68 0.14,-5.38 0.13,-8.07 -0.02,-3.34 0.18,-6.84 -0.32,-10.16 1.57,-1.42 2.82,-3.49 4.13,-5.13 1.38,-1.74 3.08,-3.48 4.21,-5.41 1.2,-0.47 2.57,-1.88 3.54,-2.63 1.16,-0.92 2.44,-1.84 3.53,-2.89 1.04,1 2.25,1.86 3.35,2.75zm26.26 22.28c-0.05,3.1 -0.19,6.26 0.11,9.35 -4.13,0.02 -8.27,0.03 -12.4,0.03 0.24,-2.72 0.15,-5.45 0.13,-8.18 -0.02,-3.14 0.16,-6.41 -0.23,-9.55 0.8,0.06 1.6,0.12 2.41,0.14 -0.12,4.83 -0.15,9.68 0.02,14.5 0.04,1.16 1.75,1.11 1.79,-0.04 0.16,-4.79 0.14,-9.62 0.02,-14.42 0.78,0 1.57,-0.01 2.35,-0.02 -0.49,3.7 -0.26,7.87 0.01,11.55 0.09,1.2 1.76,1.12 1.85,-0.04 0.26,-3.67 0.52,-7.88 0,-11.56 1.4,-0.05 2.79,-0.12 4.16,-0.19 -0.34,2.78 -0.18,5.65 -0.22,8.43zm-18.03 -19.36c3.35,0.31 6.85,0.16 10.22,0.04 1.09,1.8 2.68,3.43 3.97,5.06 0.94,1.2 1.86,2.6 2.88,3.84 -3.91,-0.2 -7.97,-0.36 -11.82,0.01 -1.03,-1.76 -2.68,-3.37 -3.94,-4.94 -1.45,-1.81 -2.81,-3.99 -4.54,-5.54 -0.69,-1.2 -2.56,-2.21 -3.51,-2.97 -0.52,-0.41 -1.04,-0.84 -1.58,-1.26 3.65,0.15 7.42,-0.06 11.01,-0.24 1.1,1.15 2.46,2.1 3.68,3.09 0.37,0.29 0.79,0.68 1.25,1.07 -2.57,-0.08 -5.17,-0.11 -7.69,0.13 -1.13,0.11 -1.05,1.62 0.04,1.72zm71.1 55.04c-1.08,-1.86 -3.1,-3.46 -5.09,-3.86 -1.03,-0.22 -1.48,1.09 -0.65,1.65 0.84,0.57 1.71,1.06 2.47,1.74 0.82,0.73 1.44,1.6 2.11,2.45 -15.73,26.13 -44.38,43.63 -77.04,43.63 -34.38,0 -64.31,-19.41 -79.42,-47.84 1.71,-0.19 3.48,-0.62 4.98,-1.45 0.84,-0.46 0.36,-1.7 -0.51,-1.71 -1.78,-0.02 -3.67,0.49 -5.31,1.18l-0.14 0.09c-0.78,-1.55 -1.51,-3.12 -2.2,-4.72 0.52,-0.05 1.13,-0.27 1.43,-0.65l0.03 -0.05c6.27,-3.52 14.05,-2.15 20.77,-4.46 7.04,-2.41 12.66,-7.35 19.76,-9.55 2.39,-0.03 4.77,-0.05 7.15,-0.07 -1.95,1.75 -5.27,2.28 -7.6,3.15 -2.81,1.04 -5.28,2.83 -7.7,4.56 -3.39,2.44 -6.58,4.32 -10.61,5.57 -3.99,1.23 -8.13,1.82 -12.03,3.36 -1.04,0.41 -0.59,2.02 0.51,1.68 4.43,-1.35 8.96,-2.2 13.4,-3.48 4.14,-1.19 7.39,-3.67 10.8,-6.19 3.42,-2.53 7.16,-3.91 11.14,-5.27 1.98,-0.68 3.64,-1.63 4.6,-3.4 2.01,-0.02 4.01,-0.05 6.01,-0.06 -0.16,7.42 -16.84,5.95 -20.11,11.84 -0.57,1.02 0.79,1.93 1.59,1.17 3.79,-3.58 9.56,-4.54 14.4,-6.09 3.51,-1.12 6.37,-3.39 6.04,-6.94 1.36,-0.01 2.71,-0.02 4.07,-0.03 -0.14,2.3 1.91,4.96 0.03,6.34 -3.84,2.8 -9.68,0.92 -12.46,5.54 -0.51,0.84 0.6,1.97 1.43,1.35 2.14,-1.58 4.08,-2.34 6.68,-2.86 2.36,-0.46 4.51,-1.02 6.4,-2.57 2.56,-2.09 0.2,-5.18 0.27,-7.82 2.01,-0.02 4.02,-0.04 6.03,-0.05 -0.3,1.34 0.41,2.75 1.35,3.98 0.98,1.29 2.13,2.65 1.27,4.33 -0.77,1.52 -2.79,2.16 -4.34,2.46 -0.88,0.17 -0.73,1.47 0.04,1.68 2.44,0.63 5.88,-1.38 6.46,-3.88 0.34,-1.43 0.07,-2.49 -0.58,-3.76 -0.82,-1.61 -2.64,-2.98 -2.02,-4.8 2.04,-0.01 4.08,-0.01 6.11,-0.01 -0.66,2.21 0.12,4.28 1.76,6.11 1.16,1.31 2.5,2.46 3.15,4.14 1.06,2.74 -1.57,3.5 -3.62,4.01 -0.89,0.22 -0.91,1.73 0.04,1.87 2.82,0.4 6.27,-1.1 6.22,-4.43 -0.08,-4.84 -6.51,-6.94 -5.61,-11.7 0.51,0 1.03,0 1.54,0 1.85,0 3.7,0 5.54,0 -0.08,2 0.95,3.7 2.04,5.39 0.85,1.32 1.69,2.57 2.09,4.1 0.58,2.2 -1.12,4 -2.26,5.66 -0.55,0.8 0.57,1.79 1.33,1.27 2.76,-1.88 4.27,-4.95 3.13,-8.22 -1.04,-2.97 -3.92,-5.07 -4.46,-8.2 2.61,0 5.21,0 7.82,0 0.12,2.3 1.85,4.28 3.15,6.06 0.84,1.17 1.68,2.39 2.23,3.73 0.9,2.21 -0.93,3.06 -2.49,4.17 -0.91,0.65 -0.27,1.91 0.78,1.71 3.31,-0.6 5.06,-3.39 4.01,-6.58 -1.14,-3.45 -4.33,-5.8 -5.79,-9.09 2.2,0 4.39,0.01 6.58,0.01 1.46,5.16 7.66,8.28 7.46,13.94 -0.04,1.2 1.47,1.28 2.05,0.5 1.58,-2.16 -0.56,-5.34 -1.81,-7.11 -1.77,-2.52 -3.99,-4.74 -5.66,-7.32 2.21,0.01 4.43,0.02 6.64,0.04 1.06,2.51 2.42,4.9 4.55,6.66 1.09,0.9 2.3,1.63 3.38,2.54 1.66,1.4 1.73,3.01 2.28,4.96 0.29,1.06 1.67,0.87 1.99,-0.05 0.99,-2.84 -0.88,-5.48 -3.01,-7.21 -1.3,-1.05 -2.76,-1.91 -4.08,-2.93 -1.26,-0.97 -2.09,-2.51 -2.92,-3.95 1.75,0.02 3.51,0.05 5.26,0.07l0.06 0.18c2.6,4.57 8.24,5.9 11.48,9.94 2.53,3.15 5.36,7.82 9.85,7.88 0.93,0.01 1.45,-1.28 0.73,-1.89 -1.59,-1.36 -3.4,-2.35 -4.95,-3.77 -1.77,-1.62 -3.16,-3.62 -4.7,-5.46 -2.66,-3.17 -6.83,-4.25 -9.98,-6.84 0.7,0.01 1.39,0.02 2.08,0.03 1.42,0.02 2.85,0.06 4.28,0.1 7.18,6.79 17.14,16.03 27.42,16.23 1.17,0.02 1.17,-1.56 0.21,-1.9 -5.22,-1.91 -9.96,-4.19 -14.58,-7.28 -3.22,-2.16 -6.15,-4.74 -9.33,-6.95 2.05,0.06 4.1,0.12 6.16,0.17 3.85,2.56 7.89,4.78 12.04,6.82 3.71,1.83 7.85,3.8 12.02,4.55 -1.59,4.11 -3.48,8.08 -5.64,11.87zm-160.9 -10.99l-0.47 0.04 -0.11 0 -0.19 -0.02c-0.58,-1.45 -1.13,-2.93 -1.64,-4.42 5.9,-3.42 12.01,-3.05 18.64,-3.36 5.25,-0.25 10.27,-2.38 15,-4.69 1.63,-0.02 3.27,-0.03 4.9,-0.05 -4.9,2.26 -9.45,5.53 -14.36,7.61 -6.84,2.9 -14.89,0.91 -21.44,4.83l-0.25 0.03 -0.09 0.03zm17.43 -15.82c-0.52,0 -1.03,0 -1.56,0 0.08,-0.92 0.18,-1.82 0.54,-2.71 0.21,-0.53 0.54,-1.04 0.9,-1.52l-0.15 0.38c-0.35,1.32 -0.21,2.64 0.27,3.85zm-21.58 5.64c3.24,-0.77 6.65,-0.07 9.97,-0.56 2.32,-0.34 4.66,-0.95 6.94,-1.65 4.16,0 8.33,-0.01 12.49,-0.04 -0.6,0.25 -1.21,0.49 -1.81,0.72 -3.8,1.44 -7.69,1.72 -11.69,1.83 -4.71,0.12 -11.1,0.03 -14.8,3.51 -0.4,-1.26 -0.76,-2.53 -1.1,-3.81zm-0.58 -2.3c2.75,0.04 5.5,0.06 8.24,0.08l-0.43 0.06c-2.81,0.3 -5.17,-0.39 -7.73,0.23l-0.09 -0.36zm87.44 -113.19c-31.18,0 -58.8,15.53 -75.54,39.25l-0.49 0.71c-10.31,14.9 -16.36,32.97 -16.36,52.42 0,50.95 41.45,92.39 92.39,92.39 50.95,0 92.39,-41.44 92.39,-92.39 0,-50.94 -41.44,-92.39 -92.39,-92.39z"/>
  <path class="fil0" d="M31.21 137.92l-0.09 -0.13 -0.54 -0.34 -0.63 0.15 -1.72 1.22 -1.13 -1.6 1.73 -1.21 0.34 -0.54 -0.15 -0.62 -0.08 -0.12c-0.27,-0.38 -0.79,-0.47 -1.17,-0.2l-5.56 3.92 -0.34 0.54 0.14 0.62 0.08 0.12c0.27,0.37 0.79,0.47 1.17,0.2l2.34 -1.65 1.13 1.59 -2.35 1.65 -0.34 0.55 0.14 0.63 0.09 0.12 0.68 0.35 0.48 -0.15 5.56 -3.93c0.38,-0.26 0.47,-0.79 0.2,-1.16z"/>
  <path class="fil0" d="M34.2 148.83l-0.51 -0.54 1.06 -0.51 -0.55 1.04zm3.18 -3.68c-0.25,-0.26 -0.64,-0.33 -0.97,-0.18l-6.45 3.07 -0.44 0.49 0.06 0.66 0.07 0.13c0.21,0.4 0.7,0.56 1.1,0.37l1.2 -0.57 1.36 1.41 -0.61 1.18c-0.21,0.4 -0.07,0.89 0.32,1.12l0.13 0.08 0.42 0.11 0.23 -0.03 0.51 -0.41 3.32 -6.33c0.17,-0.32 0.11,-0.71 -0.13,-0.96l-0.11 -0.12z"/>
  <path class="fil0" d="M48.54 154.84c-0.3,-0.35 -0.82,-0.4 -1.18,-0.11l-2.79 2.35 0.57 -1.64c0.12,-0.34 0.01,-0.72 -0.28,-0.94l-0.98 -0.03 -1.44 0.99 1.54 -3.31c0.2,-0.42 0.01,-0.91 -0.4,-1.11l-0.13 -0.07 -0.64 -0.03 -0.47 0.44 -2.94 6.3c-0.17,0.35 -0.06,0.78 0.25,1.02l0.12 0.09 0.99 0.03 1.68 -1.15 -0.67 1.92c-0.12,0.34 -0.01,0.72 0.28,0.94l0.12 0.09 0.51 0.17 0.54 -0.19 5.33 -4.47 0.3 -0.57 -0.19 -0.61 -0.1 -0.12z"/>
  <path class="fil0" d="M57.76 160.55l-0.42 -0.49 -0.65 -0.04 -3.08 1.06 0.86 -1.57 0.07 -0.64 -0.4 -0.5 -0.13 -0.07c-0.41,-0.22 -0.92,-0.07 -1.14,0.33l-3.28 5.96c-0.22,0.4 -0.07,0.91 0.33,1.14l0.13 0.07 0.64 0.07 0.5 -0.4 1.1 -2 0.51 -0.18 -0.01 3.56c0,0.46 0.36,0.83 0.82,0.84l0.15 0 0.02 0 0.58 -0.24 0.26 -0.6 0.01 -4.19 2.64 -0.91c0.44,-0.15 0.67,-0.62 0.52,-1.06l-0.04 -0.14z"/>
  <path class="fil0" d="M67.69 164.47l-2.91 -1.06 -0.64 0.02 -0.44 0.47 -2.38 6.53 0.03 0.64 0.47 0.43 2.91 1.06 0.29 0.05c0.34,0 0.66,-0.21 0.79,-0.55l0.05 -0.13 -0.03 -0.63 -0.47 -0.44 -1.98 -0.73 0.67 -1.84 1.28 0.47c0.43,0.15 0.91,-0.07 1.07,-0.5l0.05 -0.14 -0.03 -0.65 -0.47 -0.44 -1.27 -0.46 0.41 -1.12 1.98 0.72 0.64 -0.03 0.43 -0.47 0.05 -0.15c0.16,-0.43 -0.07,-0.91 -0.5,-1.07z"/>
  <path class="fil0" d="M80.06 167.79l-0.59 -0.26 -0.6 0.24 -2.02 1.96 -1.12 -2.58 -0.46 -0.45 -0.65 0.01 -0.14 0.06c-0.42,0.18 -0.61,0.68 -0.43,1.1l1.53 3.53 -0.61 3.06 0.13 0.63 0.53 0.35 0.15 0.03 0.16 0.01c0.39,0 0.74,-0.28 0.82,-0.68l0.61 -3.05 2.77 -2.67c0.33,-0.32 0.34,-0.85 0.02,-1.18l-0.11 -0.11z"/>
  <path class="fil0" d="M90.36 168.54l-3.09 -0.14 -0.6 0.22 -0.27 0.58 -0.32 6.94c-0.02,0.46 0.34,0.85 0.8,0.87l3.09 0.15 0.04 0c0.45,0 0.82,-0.35 0.84,-0.8l0.01 -0.14 -0.22 -0.6 -0.58 -0.28 -2.11 -0.1 0.09 -1.95 1.36 0.06 0.6 -0.22 0.27 -0.58 0.01 -0.15c0.02,-0.47 -0.34,-0.85 -0.8,-0.87l-1.36 -0.06 0.05 -1.2 2.11 0.1 0.6 -0.22 0.28 -0.58 0.01 -0.15c0.02,-0.46 -0.34,-0.85 -0.8,-0.88z"/>
  <path class="fil0" d="M114.06 169.56c-0.45,-0.09 -0.83,-0.18 -1.16,-0.24l-0.81 -0.16c-0.54,-0.11 -0.6,-0.36 -0.64,-0.49l0.04 -0.43c0.05,-0.11 0.15,-0.24 0.46,-0.32 0.06,-0.01 0.23,-0.04 0.64,-0.04 0.25,0 0.56,0.01 0.91,0.04 0.38,0.02 0.73,-0.2 0.86,-0.56l0.05 -0.14 -0.05 -0.66 -0.52 -0.41c-0.72,-0.2 -1.51,-0.2 -2.34,0.03 -0.76,0.2 -1.33,0.65 -1.64,1.3 -0.26,0.53 -0.32,1.1 -0.17,1.67 0.19,0.74 0.65,1.29 1.33,1.6l0.1 0.04 0.49 0.15 0.46 0.11 1.24 0.26 0.5 0.13 0.25 0.1 0.24 0.33 -0.06 0.42 -0.37 0.29 -0.26 0.02c-0.38,0 -0.96,-0.06 -1.73,-0.19 -0.38,-0.06 -0.77,0.15 -0.91,0.52l-0.06 0.14 0.01 0.64 0.46 0.45c0.44,0.17 0.93,0.28 1.46,0.31l0.36 0.01c0.4,0 0.78,-0.05 1.12,-0.14 0.71,-0.19 1.25,-0.62 1.56,-1.27 0.27,-0.55 0.33,-1.12 0.18,-1.68 -0.17,-0.64 -0.65,-1.47 -2.01,-1.8z"/>
  <path class="fil0" d="M124.24 163.61l0.9 -0.39 0.44 -0.46 -0.01 -0.64 -0.06 -0.14c-0.19,-0.43 -0.68,-0.62 -1.11,-0.44l-3.47 1.5 -0.44 0.46 0.01 0.65 0.06 0.14c0.19,0.42 0.68,0.61 1.11,0.44l0.89 -0.39 2.34 5.41 0.46 0.45 0.31 0.06 0.34 -0.07 0.14 -0.06c0.42,-0.18 0.62,-0.68 0.44,-1.1l-2.34 -5.4z"/>
  <path class="fil0" d="M135.18 161.27l-0.28 -1.14 0.91 0.75 -0.63 0.4zm-1.21 -4.28l-0.98 -0.06 -0.14 0.09c-0.31,0.19 -0.45,0.56 -0.37,0.9l1.7 6.94 0.39 0.52 0.42 0.11 0.23 -0.03 0.14 -0.04c0.43,-0.12 0.69,-0.56 0.58,-1l-0.31 -1.29 1.66 -1.04 1.03 0.84c0.35,0.29 0.86,0.24 1.16,-0.09l0.1 -0.11 0.21 -0.62 -0.31 -0.58 -5.52 -4.54z"/>
  <path class="fil0" d="M144.06 150.82l0.73 -0.64 0.29 -0.57 -0.2 -0.61 -0.1 -0.12c-0.31,-0.35 -0.83,-0.38 -1.18,-0.09l-2.86 2.48c-0.35,0.31 -0.39,0.83 -0.09,1.18l0.1 0.11 0.57 0.29 0.61 -0.2 0.74 -0.63 3.85 4.45 0.64 0.29 0.55 -0.2 0.11 -0.11 0.29 -0.57 -0.2 -0.61 -3.85 -4.45z"/>
  <path class="fil0" d="M157.66 145.01c-0.35,-0.3 -0.88,-0.26 -1.18,0.1l-1.37 1.6 -1.49 -1.27 0.88 -1.03 0.2 -0.62 -0.29 -0.57 -0.12 -0.1c-0.35,-0.3 -0.88,-0.26 -1.18,0.1l-0.88 1.03 -0.91 -0.78 1.37 -1.6c0.3,-0.35 0.26,-0.88 -0.09,-1.18l-0.11 -0.1 -0.61 -0.2 -0.58 0.29 -2.01 2.35c-0.3,0.35 -0.26,0.88 0.09,1.18l5.28 4.51 0.55 0.2 0.64 -0.3 2.01 -2.35 0.2 -0.61 -0.29 -0.57 -0.11 -0.1z"/>
  <path class="fil0" d="M69.95 28.44l0.37 0.09 0.27 -0.04 0.21 -0.07c0.44,-0.15 0.67,-0.63 0.52,-1.06l-3.19 -9.41 -0.42 -0.48 -0.64 -0.05 -0.21 0.08c-0.44,0.15 -0.67,0.62 -0.52,1.06l3.19 9.41 0.42 0.48z"/>
  <path class="fil0" d="M83.46 16.09c0.32,-0.39 0.71,-0.6 1.23,-0.65l0.21 -0.01c0.42,0 0.78,0.14 1.12,0.41 0.39,0.32 0.6,0.71 0.65,1.22l0.44 4.39c0.05,0.51 -0.08,0.93 -0.4,1.34 -0.32,0.4 -0.71,0.6 -1.22,0.65 -0.51,0.05 -0.94,-0.08 -1.33,-0.4 -0.4,-0.32 -0.6,-0.71 -0.65,-1.23l-0.44 -4.39c-0.05,-0.51 0.07,-0.93 0.4,-1.33zm-1.85 5.91c0.1,1.02 0.55,1.86 1.34,2.5 0.68,0.56 1.46,0.83 2.32,0.83l0.4 -0.01c1.02,-0.1 1.86,-0.55 2.5,-1.34 0.65,-0.79 0.93,-1.7 0.82,-2.72l-0.43 -4.39c-0.1,-1.01 -0.55,-1.85 -1.34,-2.5 -0.79,-0.64 -1.7,-0.92 -2.72,-0.83 -1.02,0.11 -1.86,0.55 -2.51,1.35 -0.65,0.79 -0.92,1.7 -0.82,2.72l0.43 4.39z"/>
  <path class="fil0" d="M98.66 25.13l0.23 0.03c0.37,0.05 0.71,-0.15 0.87,-0.47l1.78 -3.74 0.79 4.06c0.07,0.36 0.36,0.63 0.71,0.67l0.23 0.03 0.11 0.01c0.35,0 0.67,-0.22 0.79,-0.55l3.43 -9.56 -0.03 -0.65 -0.48 -0.43 -0.21 -0.07c-0.44,-0.16 -0.91,0.07 -1.07,0.5l-2.28 6.33 -0.75 -3.87c-0.07,-0.35 -0.36,-0.63 -0.72,-0.67 -0.36,-0.05 -0.71,0.14 -0.86,0.47l-1.7 3.56 -0.62 -6.7c-0.04,-0.46 -0.44,-0.8 -0.91,-0.76l-0.22 0.02 -0.57 0.3 -0.19 0.61 0.94 10.11c0.04,0.39 0.34,0.7 0.73,0.75z"/>
  <path class="fil0" d="M118.52 21.77l-0.11 3.4 -2.02 -0.75 2.13 -2.65zm-5.92 6.08c0.36,0.27 0.87,0.21 1.15,-0.14l1.39 -1.73 3.2 1.19 -0.07 2.22c-0.01,0.45 0.33,0.83 0.78,0.86l0.22 0.01 0.06 0 0.56 -0.22 0.28 -0.59 0.34 -10.43c0.01,-0.37 -0.21,-0.69 -0.55,-0.81l-0.22 -0.09c-0.34,-0.13 -0.72,-0.02 -0.94,0.26l-6.52 8.14 -0.18 0.63 0.33 0.56 0.17 0.13z"/>
  <path class="fil0" d="M142.66 68.08c-3.86,-0.12 -7.8,-0.25 -11.65,-0 0.03,-5.23 0.03,-10.46 -0,-15.69 1.78,0.11 3.57,0.14 5.36,0.13 -0.03,2.58 -0.03,5.16 0,7.73 0.02,1.14 1.75,1.09 1.76,-0.04 0.04,-2.58 0.04,-5.14 0.01,-7.71 0.51,-0.01 1.01,-0.02 1.52,-0.04 -0.04,4.52 -0.04,9.05 0,13.56 0.01,1.14 1.75,1.1 1.76,-0.04 0.04,-4.53 0.04,-9.05 0,-13.57 0.41,-0.01 0.83,-0.03 1.24,-0.04 -0.04,5.24 -0.04,10.47 -0,15.71zm-8.57 -17.69c0.84,-0.45 1.89,-0.86 2.74,-1.42 0.86,0.57 1.94,0.99 2.79,1.44l0.14 0.07c-1.92,-0.05 -3.85,-0.07 -5.77,-0.04l0.1 -0.05zm9.81 0.29l-0.01 -0.01 -0.04 -0.02c-1.1,-0.65 -2.21,-1.27 -3.32,-1.9 -1.06,-0.58 -2.28,-1.52 -3.47,-1.81l-0.41 0.01 -0.08 0.01c-1.18,0.28 -2.41,1.24 -3.46,1.82 -1.12,0.62 -2.24,1.25 -3.34,1.9l-0.06 0.03 -0.03 0.01 -0.04 0.04 -0.15 0.11 -0.01 0.02 -0.02 0.03 -0.08 0.11 -0.07 0.16 -0.03 0.13 -0.03 0.15c-0.04,5.84 -0.05,11.67 -0,17.52 0,0.6 0.51,0.87 0.98,0.81l0.1 0.03c4.37,0.33 8.87,0.14 13.24,0.01 0.35,-0.01 0.57,-0.18 0.7,-0.41l0.16 -0.49c0.05,-5.83 0.04,-11.68 -0,-17.51 0,-0.41 -0.23,-0.66 -0.52,-0.76z"/>
  <path class="fil0" d="M87.29 82.53c-0.53,0.46 -0.44,1.35 -0.47,1.98 -0.03,0.55 0.09,1.09 0.16,1.57 0.07,0.42 0.27,0.77 0.71,0.88 0.46,0.12 1.05,-0.17 1.13,-0.68 0.09,-0.55 0.23,-1.09 0.2,-1.65 -0.04,-0.7 0.07,-1.64 -0.51,-2.14 -0.38,-0.32 -0.86,-0.29 -1.22,0.03z"/>
  <path class="fil0" d="M80.68 89.21c-0.37,1.1 -0.24,2.37 -0.08,3.48 0.06,0.41 0.26,0.76 0.69,0.87 0.45,0.11 1.04,-0.17 1.11,-0.67 0.17,-1.2 0.34,-2.54 -0.06,-3.72 -0.29,-0.84 -1.39,-0.75 -1.67,0.04z"/>
  <path class="fil0" d="M93.8 92.69l0.01 0.04c0.12,0.43 0.43,0.77 0.93,0.76l0.12 -0.02c0.33,-0.01 0.63,-0.18 0.75,-0.55l0.07 -0.39c0.07,-0.51 0.13,-1.03 0.12,-1.56 -0.02,-0.72 0.1,-1.55 -0.48,-2.08 -0.37,-0.34 -0.89,-0.3 -1.24,0.03 -0.53,0.49 -0.43,1.23 -0.45,1.89 -0.01,0.59 0.02,1.15 0.11,1.73l0.04 0.15z"/>
  <path class="fil0" d="M43.28 84.8c0.7,-0.8 -0.22,-1.82 -1.12,-1.38 -1.05,0.51 -2.36,0.45 -3.3,-0.23 0.13,-0.45 0.34,-0.89 0.68,-1.29 0.78,-0.92 -0.52,-2.18 -1.36,-1.29 -0.82,0.88 -1.22,1.9 -1.32,3.09 -0.12,1.29 0.11,2.76 -0.73,3.86 -0.67,0.89 0.45,2.02 1.27,1.21 0.97,-0.95 1.1,-2.13 1.17,-3.31 1.51,0.79 3.53,0.68 4.71,-0.66z"/>
  <path class="fil0" d="M27 82.33c0.29,0.58 0.59,1.06 0,1.52 -0.53,0.41 -1.16,0.68 -1.76,0.98l-0.03 -0.04 -0.66 -0.79c-0.15,-0.36 -0.18,-0.73 -0.14,-1.11 0.1,-1 -1.48,-1.11 -1.71,-0.19 -0.28,1.12 0.04,2.36 0.89,3.12 -0.79,0.63 -1.36,1.45 -1.33,2.57 0.03,0.94 1.58,1.18 1.7,0.19 0.21,-1.75 2.4,-2.19 3.69,-2.96 1.59,-0.94 1.98,-2.72 0.83,-4.21 -0.68,-0.89 -2,-0.1 -1.49,0.92z"/>
  <path class="fil0" d="M16.16 89.44l0.11 -0.38c0.18,-0.36 0.6,-0.52 1.04,-0.68 0.95,-0.34 0.74,-1.73 -0.28,-1.74 -0.95,-0.01 -1.88,0.45 -2.4,1.25 -0.23,0.34 -0.37,0.74 -0.44,1.14l-0.03 0.28 -0.24 -0.57c-0.32,-0.93 -1.81,-0.75 -1.74,0.28 0.07,1.11 0.7,2.05 1.84,2.24 0.92,0.16 1.97,-0.29 2.83,0.16 0.83,0.44 1.8,-0.76 1.01,-1.37 -0.53,-0.41 -1.09,-0.57 -1.69,-0.62z"/>
  <path class="fil0" d="M32.09 87.48c-0.54,0.16 -0.7,0.66 -0.62,1.16 0.13,0.79 0.37,1.49 -0.08,2.24 -0.51,0.84 0.78,1.81 1.4,1.03 0.46,-0.57 0.76,-1.1 0.82,-1.83 0.07,-0.74 -0.06,-1.57 -0.45,-2.2 -0.22,-0.35 -0.66,-0.53 -1.06,-0.4z"/>
  <path class="fil0" d="M43.47 89.63l-0 0 0.03 0.44c-0.83,0.14 -1.65,0.4 -2.33,1.06 -0.8,0.79 0.41,1.85 1.23,1.18 0.97,-0.79 2.45,-0.52 3.61,-0.67 1.32,-0.17 2.38,-0.86 3.03,-2.02 0.47,-0.84 -0.75,-1.78 -1.38,-1.01 -0.65,0.79 -1.48,1.06 -2.37,1.21l0.33 -0.78c0.22,-0.51 0.46,-1.02 0.72,-1.5 0.49,-0.89 -0.73,-1.79 -1.42,-1.05 -0.71,0.77 -1.52,2 -1.45,3.13z"/>
  <path class="fil0" d="M35.78 101.25c2.42,1.47 6.09,0.67 7.34,-1.83 0.98,0.33 2.05,0.39 3.12,0.22 2.31,-0.37 3.72,-2.15 4.1,-4.26 4.32,0.8 8.77,-1.44 9.27,-6.4 0.46,-4.54 -2.64,-7.39 -6.53,-7.87 0.12,-1.45 -0.33,-2.83 -1.36,-3.96 -1.13,-1.25 -2.82,-1.57 -4.43,-1.39 -0.31,-2.17 -2.01,-3.95 -4.28,-4.62 -1.16,-0.34 -2.31,-0.3 -3.36,0.02 -1.04,-1.16 -2.38,-1.94 -4,-2.09 -0.84,-0.07 -1.71,0.03 -2.47,0.35 -1.45,-1.54 -3.29,-2.22 -5.5,-1.79 -1.86,0.36 -3.83,1.93 -3.98,3.89 -0.07,0.97 1.24,1.08 1.68,0.41 1.6,-2.43 4.09,-2.78 6.26,-1.26l-0.29 0.5c-0.39,0.88 0.74,1.89 1.45,1.06 1.42,-1.66 3.47,-1.27 5.04,-0.14 -1.17,0.87 -2.04,2.17 -2.37,3.7 -0.24,1.14 1.36,1.51 1.73,0.44 0.78,-2.28 2.55,-3.72 5.03,-3.3 2.56,0.43 3.53,2.61 3.12,4.98 -0.19,1.11 1.3,1.45 1.67,0.42l0.21 -0.73c1.04,-0.02 2.06,0.19 2.88,0.91 0.75,0.66 0.99,1.62 1.03,2.59 -0.41,0.03 -0.81,0.08 -1.23,0.16 -0.99,0.2 -0.71,1.84 0.28,1.74 3.8,-0.37 7.97,1.24 7.35,5.78 -0.63,4.65 -5.37,4.97 -9.05,4.23 -0.93,-0.18 -1.55,1.15 -0.62,1.6l0.57 0.24c-1.01,2.7 -4.56,3.59 -6.68,1.3 -0.7,-0.76 -1.83,0.26 -1.36,1.1 0.27,0.49 0.62,0.89 0.99,1.23 -1.05,1.59 -3.21,1.55 -4.99,1.18 -0.99,-0.21 -1.49,1.1 -0.64,1.62z"/>
  <path class="fil0" d="M26.88 89.83l-0.08 0.47 -0.05 0.22 -0.02 0.04 -0.09 0.1 -0.19 0.12c-0.34,0.18 -0.48,0.65 -0.37,1 0.14,0.47 0.62,0.69 1.08,0.58l0.28 -0.07 0.37 -0.18 0.56 -0.59c0.34,-0.5 0.32,-1.16 0.23,-1.72 -0.15,-0.88 -1.56,-0.78 -1.72,0.04z"/>
  <path class="fil0" d="M22.87 80.42c0.33,-0.47 0.79,-1.13 1.36,-1.56 0.32,-0.25 0.51,-0.61 0.38,-1.02 -0.13,-0.43 -0.67,-0.79 -1.12,-0.6 -1.06,0.45 -2.04,1.35 -2.29,2.53 -0.23,1.05 1.1,1.47 1.67,0.66z"/>
  <path class="fil0" d="M46.41 82.69c0.51,-0.44 0.73,-1.01 0.68,-1.68 -0.08,-1.17 -1.72,-1.1 -1.8,0.04l-0.01 0.11 -0.02 0.13 -0.12 0.18c-0.7,0.9 0.41,1.95 1.27,1.21z"/>
  <path class="fil0" d="M68.24 104.59c-2.34,-0.11 -4.39,0.32 -6.64,0.9 -4.04,1.03 -7.31,0.43 -11.33,-0.31 -6.17,-1.16 -12.8,-0.18 -18.9,0.98 -0.97,0.19 -0.7,1.84 0.28,1.72 6.94,-0.81 13.91,-1.89 20.79,-0.09 5.64,1.48 10.3,-0.62 15.85,-1.31 1.21,-0.15 1.19,-1.83 -0.04,-1.89z"/>
  <path class="fil0" d="M128.65 108.14c5.26,1.15 11.3,1.06 16.56,-0.04 0.99,-0.21 0.72,-1.87 -0.28,-1.76 -5.17,0.55 -10.69,0.89 -15.85,0.1 -1.1,-0.17 -1.54,1.45 -0.43,1.7z"/>
  <path class="fil0" d="M125.53 51.24c-2.99,-1.77 -6.2,-0.99 -8.43,1.08 -6.67,-4.54 -15.84,0.01 -18.49,7.1 -2.15,-0.72 -4.42,0.14 -6.21,1.89 -4.21,-1.75 -10.26,2.44 -9.85,7.45 -3.64,-0.6 -7.5,-0.16 -11.16,-0.03 -1.18,0.04 -1.13,1.78 0.04,1.83 3.75,0.14 7.69,0.59 11.41,-0.09 0.42,-0.08 0.61,-0.45 0.6,-0.82 0.44,0.01 0.88,-0.28 0.87,-0.87 -0.07,-3.92 4.32,-7.01 7.58,-5.38l0.28 0.14c0.5,0.3 0.97,0.71 1.38,1.26 0.7,0.93 2.12,0.09 1.55,-0.95 -0.29,-0.54 -0.62,-0.98 -0.99,-1.36 0.59,-0.45 1.19,-0.89 1.88,-1.17 1.41,-0.6 2.63,0.24 3.74,1.03 0.9,0.65 1.83,-0.77 1.1,-1.5l-0.53 -0.48c2.85,-5.91 9.23,-9.87 15.53,-6.63 -0.69,0.99 -1.21,2.14 -1.46,3.37 -0.21,1.01 1.21,1.63 1.71,0.67 1.96,-3.74 4.14,-6.65 8.75,-4.88 0.99,0.38 1.51,-1.17 0.66,-1.67z"/>
  <path class="fil0" d="M115.52 63.48c-4.51,-0.67 -9.78,1.92 -9.59,6.84 -2.95,-0.46 -6.16,-0.09 -9.09,0.08 -1.21,0.07 -1.14,1.78 0.05,1.85 3.25,0.17 6.81,0.61 10.01,-0.1l0.43 -0.28 0.5 -0.6c0.24,-1.95 0.49,-3.6 2.21,-4.8 1.52,-1.04 3.52,-1.16 5.3,-1.26 0.95,-0.04 1.2,-1.57 0.19,-1.72z"/>
  <path class="fil0" d="M84.78 72.41c-1.63,-0.31 -3.35,-0.05 -4.99,-0 -1.13,0.03 -1.08,1.72 0.04,1.75 1.65,0.04 3.36,0.3 4.99,-0.01 0.88,-0.17 0.8,-1.57 -0.04,-1.73z"/>
  <path class="fil0" d="M124.51 74.34c-1.91,-0.08 -3.81,-0.12 -5.72,-0.16 -1.72,-0.04 -3.47,-0.23 -5.14,0.21 -0.87,0.23 -0.78,1.49 0.04,1.71 1.67,0.44 3.43,0.23 5.15,0.2 1.9,-0.05 3.81,-0.09 5.71,-0.17 1.16,-0.06 1.1,-1.74 -0.04,-1.79z"/>
  <path class="fil0" d="M120.66 63.71c0.17,-1.06 0.39,-1.98 1.15,-2.78 0.69,-0.73 1.73,-1.16 2.71,-1.35 0.97,-0.19 0.71,-1.82 -0.27,-1.72 -2.85,0.28 -5.67,2.53 -5.35,5.66 0.1,0.94 1.61,1.26 1.78,0.19z"/>
  <path class="fil0" d="M154.11 64.91c-0.05,1 1.59,1.18 1.76,0.2 0.14,-0.82 0.14,-1.65 0.02,-2.46 0.73,0.02 1.44,0.14 2.11,0.55 1.04,0.63 1.14,2.03 1.16,3.11 0.02,0.96 1.59,1.19 1.73,0.19l0.04 -0.46c1.1,0.05 2.19,0.21 3.19,0.68 1.4,0.65 1.84,1.78 1.98,3.14 -2.22,0.01 -4.43,-0.04 -6.59,-0.32 -1.94,-0.24 -1.96,2.68 -0.27,2.47 5.85,-0.73 11.98,0.01 17.88,-0.31 1.23,-0.07 1.16,-1.83 -0.05,-1.89 -2.97,-0.16 -6.01,-0.04 -9.04,0.02 0.32,-3.92 -3.65,-5.77 -7.22,-5.59 -0.22,-0.94 -0.69,-1.8 -1.5,-2.46 -1.09,-0.88 -2.52,-1.12 -3.89,-0.96 -1.23,-3.17 -4.31,-5.54 -7.93,-4.87 -0.96,0.18 -0.7,1.8 0.27,1.7 4.04,-0.45 6.53,3.64 6.35,7.26z"/>
  <path class="fil0" d="M163.69 75.3c1.18,-0.04 1.12,-1.78 -0.04,-1.82 -4.31,-0.14 -8.85,-0.5 -13.14,0.04 -0.89,0.11 -1.24,1.58 -0.19,1.71 4.38,0.55 8.98,0.21 13.37,0.07z"/>
  <path class="fil0" d="M75.54 72.72c-6.31,-0.77 -13.18,-0.5 -19.52,-0.09 -1.21,0.08 -1.14,1.78 0.04,1.85 6.24,0.4 13.07,0.69 19.29,-0.07 0.88,-0.1 1.22,-1.56 0.18,-1.69z"/>
  <path class="fil0" d="M44.28 51.39c-7.29,-0.22 -14.81,-0.75 -22.08,0.03 -1.16,0.13 -1.08,1.65 0.04,1.77 7.27,0.78 14.79,0.24 22.08,0.04 1.2,-0.04 1.14,-1.81 -0.05,-1.84z"/>
  <path class="fil0" d="M33.71 48.16c2.5,0.24 5.05,0.1 7.55,0.02 1.17,-0.03 1.11,-1.76 -0.05,-1.79 -2.5,-0.08 -5.05,-0.22 -7.55,0.02 -1.15,0.11 -1.07,1.65 0.04,1.75z"/>
  <path class="fil0" d="M132.06 43.58c-2.09,-0.08 -4.17,-0.06 -6.26,-0.01 0.36,-0.19 0.6,-0.57 0.44,-1.03 -0.94,-2.73 -3.89,-2.97 -6.22,-1.92 -2.43,-8.91 -15.46,-7.73 -19.63,-0.74 -2.99,-0.77 -6.74,0.37 -7.18,3.55 -0.15,1.1 1.38,1.52 1.7,0.42 0.84,-2.98 5.95,-3.17 7.36,-0.59 0.46,0.86 1.96,0.2 1.58,-0.71 -0.34,-0.8 -0.92,-1.42 -1.64,-1.89 4.49,-4.69 13.32,-6.93 16.14,0.73l0.12 0.21c-0.36,0.31 -0.68,0.65 -0.93,1.02 -0.62,0.93 0.8,1.89 1.54,1.13 1.43,-1.48 4.21,-2.71 5.52,-0.47l0.35 0.32 -0.72 0.02c-1.12,0.04 -1.06,1.68 0.04,1.72 2.61,0.1 5.21,0.14 7.83,0.04 1.17,-0.04 1.11,-1.76 -0.04,-1.81z"/>
  <path class="fil0" d="M102.99 46.12c-5.77,-0.12 -11.56,-0.2 -17.33,0.01 -1.13,0.04 -1.07,1.7 0.04,1.74 5.77,0.22 11.56,0.14 17.33,0.02 1.15,-0.02 1.1,-1.76 -0.04,-1.78z"/>
  <path class="fil0" d="M94.32 50.33c-1.13,0.04 -1.07,1.69 0.04,1.74 1.59,0.06 3.17,0.13 4.76,0.04 1.18,-0.07 1.11,-1.75 -0.05,-1.82 -1.58,-0.09 -3.16,-0.02 -4.75,0.04z"/>
  <path class="fil0" d="M54.84 61.36c1.1,-1.29 2.41,-1.15 3.46,0.08 0.32,0.37 1.02,0.33 1.33,-0.04 1.24,-1.49 2.21,-1.6 3.26,0.13 0.55,0.9 2.14,0.24 1.72,-0.78 -1.21,-2.89 -3.73,-3.16 -5.73,-1.3 -1.71,-1.23 -3.86,-1.11 -5.32,0.69 -0.71,0.87 0.53,2.08 1.28,1.21z"/>
  <path class="fil0" d="M72.36 54.89c1.07,-0.91 1.77,-0.55 2.6,0.36 0.45,0.5 1.18,0.24 1.51,-0.24 0.74,-1.06 1.69,-0.87 2.62,-0.22 0.98,0.68 1.85,-0.94 0.89,-1.61 -1.48,-1.05 -3.12,-0.98 -4.37,0.04 -1.43,-1.09 -3.09,-0.9 -4.55,0.43 -0.87,0.79 0.44,1.98 1.3,1.24z"/>
  <path class="fil0" d="M60.7 45.65c0.67,-0.56 1.01,-0.26 1.5,0.28 0.45,0.5 1.18,0.24 1.51,-0.23 0.44,-0.64 0.99,-0.44 1.53,-0.07 0.98,0.68 1.84,-0.93 0.89,-1.61 -1.1,-0.78 -2.33,-0.75 -3.29,-0.08 -1.1,-0.73 -2.38,-0.53 -3.46,0.46 -0.87,0.8 0.44,1.98 1.31,1.24z"/>
  <path class="fil0" d="M142.09 145.37l0.06 -0.78c0.94,-0.98 1.86,-1.77 3.25,-2.12 0.99,-0.25 0.71,-1.77 -0.28,-1.75 -1.06,0.04 -2.06,0.41 -2.9,1 -0.03,-0.76 -0.09,-1.52 -0.23,-2.25 -0.17,-0.85 -1.51,-0.77 -1.68,0.04 -0.12,0.59 -0.17,1.19 -0.21,1.81 -1.27,-1.02 -2.93,-1.55 -4.46,-1.22 -1.13,0.23 -0.66,1.72 0.29,1.82 2.02,0.21 3.33,1.42 4.26,3.1l0.03 0.4c0.11,1.22 1.75,1.13 1.86,-0.05z"/>
  <path class="fil0" d="M89.19 156.88c-2.06,-0.28 -3.92,0.56 -5.44,1.84 0.02,-1.29 -0.01,-2.58 -0.06,-3.88 0.82,-1.34 1.76,-2.28 3.24,-3.01 0.97,-0.48 0.2,-1.85 -0.74,-1.64 -0.96,0.22 -1.84,0.73 -2.57,1.41 -0.01,-0.93 -0.02,-1.85 -0.03,-2.78 0.82,-0.62 1.52,-1.37 2.64,-1.08 0.82,0.22 1.55,-0.94 0.83,-1.51 -1.18,-0.95 -2.43,-0.61 -3.51,0.13 -0.02,-1.06 -0.06,-2.12 -0.11,-3.19l0.21 -0.28c0.46,-1.08 1.27,-2 2.43,-2.29 0.96,-0.25 0.72,-1.83 -0.28,-1.74 -1.06,0.09 -1.93,0.58 -2.58,1.29l-0.09 -0.84c-0.1,-0.9 -1.6,-1.24 -1.72,-0.18 -0.07,0.61 -0.13,1.23 -0.17,1.84 -0.89,-0.87 -2.05,-1.44 -3.19,-1.49 -1.05,-0.05 -1.16,1.54 -0.2,1.79 1.74,0.46 2.7,2.19 3.15,3.77l0.03 0.06 -0.01 0.5c-1.39,-0.77 -3.32,-0.99 -4.65,-0.88 -1.19,0.1 -1.09,1.69 0.04,1.81 1.68,0.18 3.56,0.63 4.55,2.08 -0.02,0.95 -0.03,1.9 -0.05,2.84l-0.01 0.15c-1.66,-1.31 -3.92,-2.03 -5.61,-1.61 -1.03,0.25 -0.71,1.77 0.29,1.78 2.14,0.02 4.1,1.36 5.22,3.14 -0.02,0.42 -0.03,0.82 -0.04,1.23 -2.21,-1.36 -5.44,-1.74 -7.36,-0.91 -1.06,0.45 -0.64,2.04 0.53,1.75 2.61,-0.63 5.11,0.7 6.86,2.55 0.06,1.28 0.18,2.56 0.41,3.81 0.12,0.64 0.6,0.85 1.08,0.77 0.48,0.04 0.95,-0.2 1.06,-0.82 0.09,-0.45 0.15,-0.9 0.21,-1.35 1.69,-1.4 3.03,-3.07 5.44,-3.25 0.98,-0.07 1.27,-1.66 0.2,-1.8z"/>
  <path class="fil0" d="M107.42 155.83c-2.29,-0.82 -5.09,-0.19 -7.1,1.33 0.03,-0.94 0.05,-1.89 0.04,-2.84 1.19,-1.68 2.92,-2.65 5.15,-2.41 1.11,0.12 1.57,-1.4 0.43,-1.72 -1.85,-0.53 -4.04,-0.02 -5.64,1.17 -0.02,-0.52 -0.04,-1.04 -0.06,-1.55 1.38,-1.56 2.85,-2.73 5.12,-3.15 1.03,-0.19 0.69,-1.75 -0.29,-1.76 -1.95,-0.01 -3.65,0.73 -5,1.93 -0.04,-0.74 -0.09,-1.49 -0.14,-2.23 0.18,-0.46 0.49,-0.79 1.06,-1.14 0.81,-0.48 1.79,-0.74 2.69,-1.01 0.94,-0.28 0.74,-1.86 -0.28,-1.75 -1.11,0.12 -2.51,0.48 -3.64,1.12 -0.05,-0.79 -0.1,-1.57 -0.14,-2.34 -0.07,-1.32 -1.96,-1.24 -2.03,0.05 -0.04,0.8 -0.09,1.6 -0.14,2.41 -0.51,-0.35 -1.05,-0.65 -1.55,-0.92 -0.88,-0.48 -1.88,0.79 -1.06,1.44 0.57,0.46 1.16,0.89 1.7,1.38 0.33,0.3 0.53,0.64 0.72,1 -0.03,0.4 -0.05,0.81 -0.08,1.21l-0.01 -0.01c-0.59,-0.49 -1.22,-0.92 -1.9,-1.25 -0.87,-0.43 -1.91,0.8 -1.05,1.44 0.54,0.4 1.06,0.82 1.59,1.24 0.42,0.34 0.81,0.72 1.24,1.06 -0.03,0.58 -0.06,1.16 -0.08,1.74 -0.76,-0.55 -1.63,-0.93 -2.53,-1.18 -1.01,-0.27 -1.59,1.21 -0.67,1.7 0.79,0.42 1.5,0.92 2.15,1.54 0.38,0.35 0.67,0.76 0.95,1.18 -0.01,0.71 -0.01,1.41 0,2.13 -1.33,-0.91 -2.96,-1.49 -4.15,-1.53 -1.04,-0.03 -1.18,1.55 -0.2,1.79 1.15,0.29 2.22,1.05 3.11,1.82 0.45,0.38 0.85,0.79 1.18,1.28l0.22 0.35c0.1,1.36 0.26,2.7 0.49,4.01l0.1 0.51c0.16,0.48 0.61,0.65 1.06,0.59 0.46,0 0.89,-0.23 0.99,-0.79l0.01 -0.05 0.02 -0.11c0.18,-1.05 0.32,-2.12 0.43,-3.2 2.13,-1.76 4.16,-2.97 7.11,-2.7 1.11,0.1 1.1,-1.48 0.2,-1.8z"/>
  <path class="fil0" d="M119.13 156.19c-1.45,-0.06 -3.31,0.36 -4.5,1.37 0.03,-0.75 0.05,-1.5 0.06,-2.26l0.09 -0.06c0.78,-0.83 1.44,-1.63 2.43,-2.21 1.16,-0.69 2.54,-0.91 3.86,-1.06 0.98,-0.11 1.27,-1.57 0.2,-1.8 -1.99,-0.42 -4.81,0.24 -6.54,1.78 0,-0.61 -0,-1.22 -0.01,-1.83 0.81,-1.08 1.77,-1.76 3.2,-1.94 1.15,-0.14 1.11,-1.7 -0.04,-1.78 -1.08,-0.09 -2.26,0.22 -3.22,0.83 -0.02,-0.76 -0.06,-1.52 -0.1,-2.28 0.5,-0.73 1.17,-1.26 1.92,-1.73 0.88,-0.54 0.24,-1.85 -0.73,-1.61 -0.46,0.11 -0.91,0.33 -1.32,0.61 -0.03,-0.69 -0.05,-1.39 -0.07,-2.09 -0.02,-1.13 -1.73,-1.08 -1.75,0.04 -0.01,0.52 -0.03,1.03 -0.05,1.54l-0.74 -0.46c-0.88,-0.4 -1.87,0.73 -1.05,1.43 0.36,0.31 0.72,0.62 1,1 0.3,0.41 0.45,0.87 0.62,1.34l0.02 0.04c-0.02,0.39 -0.04,0.78 -0.06,1.17 -0.89,-0.63 -1.96,-0.99 -3.09,-0.89 -0.94,0.08 -1.23,1.58 -0.19,1.74 1.43,0.22 2.56,1.02 3.19,2.19 -0.01,0.98 -0.01,1.96 -0.01,2.93 -1.07,-0.5 -2.38,-0.65 -3.45,-0.39 -1.1,0.26 -0.72,1.83 0.3,1.87 0.71,0.04 1.43,0.1 2.09,0.41 0.62,0.29 0.8,0.85 1.1,1.38 0.02,0.74 0.03,1.48 0.06,2.22 -0.66,-0.18 -1.38,-0.19 -2.07,0.03 -1.04,0.34 -0.72,1.73 0.29,1.8 0.49,0.04 0.97,0.09 1.42,0.32l0.49 0.43 0.04 0.87c0.09,1.24 1.82,1.17 1.91,-0.04l0.01 -0.11 0.26 -0.56 0.39 -0.35c0.93,-1.56 2.77,-1.56 4.33,-2.04 1.06,-0.33 0.74,-1.81 -0.3,-1.85z"/>
  <path class="fil0" d="M133.62 149.99c-1.72,-0.35 -3.54,0.27 -4.82,1.45 0,-0.95 -0.02,-1.9 -0.04,-2.84l0.01 -0.02c0.88,-1.62 2.62,-1.91 4.28,-2.28 1.04,-0.24 0.73,-1.84 -0.29,-1.82 -1.32,0.02 -2.85,0.36 -4.01,1.12 0,-0.84 0,-1.68 -0.03,-2.51l0.43 -0.35c0.54,-0.44 1.15,-0.81 1.8,-1.06 0.95,-0.37 0.77,-1.77 -0.29,-1.8 -0.77,-0.01 -1.5,0.28 -2.13,0.73l-0.14 -0.9c-0.17,-0.87 -1.55,-0.79 -1.71,0.03 -0.1,0.52 -0.16,1.05 -0.22,1.57 -0.44,-0.2 -0.94,-0.34 -1.46,-0.36 -0.4,-0.01 -0.76,0.31 -0.85,0.68 -0.12,0.5 0.19,0.93 0.65,1.08 0.85,0.29 1.25,0.53 1.54,1.22 -0.01,0.55 -0,1.09 -0,1.64 -0.85,-0.6 -1.84,-0.99 -2.81,-1.06 -1.07,-0.06 -1.1,1.48 -0.19,1.77 0.94,0.31 1.7,0.76 2.36,1.51 0.28,0.32 0.46,0.68 0.6,1.05 -0.02,0.84 -0.04,1.68 -0.03,2.52 -0.8,-0.22 -1.68,-0.14 -2.36,0.38 -0.85,0.65 -0.29,1.87 0.76,1.67 0.88,-0.16 1.36,0.16 1.77,0.65 0.04,0.35 0.1,0.71 0.16,1.06 0.14,0.73 1.04,0.85 1.56,0.48l0.64 -0.57c0.79,-2.02 2.4,-3.41 4.63,-3.31 1,0.04 1.16,-1.53 0.19,-1.74z"/>
  <path class="fil0" d="M72.2 148.51c-1.89,-0.29 -3.86,0.13 -5.27,1.21 -0.02,-0.88 -0.06,-1.76 -0.11,-2.65 0.23,-0.33 0.48,-0.64 0.78,-0.93 0.8,-0.74 1.93,-0.97 2.96,-1.15 1.01,-0.19 0.69,-1.74 -0.27,-1.73 -1.33,0.01 -2.61,0.45 -3.65,1.21 -0.05,-0.55 -0.1,-1.1 -0.14,-1.65 0.47,-0.47 0.97,-0.83 1.73,-0.94 1.13,-0.17 1.1,-1.67 -0.04,-1.77 -0.64,-0.06 -1.31,0.12 -1.91,0.43l-0.08 -0.83c-0.12,-1.21 -1.73,-1.12 -1.85,0.04 -0.03,0.33 -0.07,0.68 -0.1,1.02 -0.81,-0.64 -1.96,-0.9 -3.01,-0.65 -1.02,0.24 -0.71,1.75 0.28,1.76 0.95,0 1.71,0.32 2.07,1.24l0.4 0.46c-0.04,0.45 -0.08,0.9 -0.11,1.36 -1.26,-0.95 -3.11,-1.34 -4.53,-1.05 -1.06,0.22 -0.68,1.73 0.29,1.77 1.74,0.07 3.3,0.88 4.05,2.5 -0.02,0.4 -0.03,0.8 -0.05,1.2 -1.77,-1.43 -4.4,-2.17 -6.18,-1.71 -1.03,0.27 -0.74,1.83 0.29,1.81 2.35,-0.04 4.87,1.4 5.9,3.52 0.01,0.36 0.02,0.73 0.04,1.1 -1.95,-0.96 -4.69,-1.06 -6.44,-0.75 -1.07,0.2 -0.69,1.75 0.29,1.79 2.38,0.08 5.64,0.14 6.58,2.74l0.07 0.45c0.12,0.64 0.62,0.86 1.11,0.78 0.48,0.03 0.96,-0.22 1.08,-0.84l0.03 -0.22 0.04 -0.05c0.62,-1.34 2.31,-1.88 3.67,-2.05 1.14,-0.14 1.1,-1.69 -0.04,-1.77 -1.04,-0.08 -2.27,0.22 -3.28,0.81 0.05,-0.66 0.09,-1.34 0.12,-2.02 0.78,-2.17 2.9,-2.59 5.09,-2.67 0.98,-0.03 1.22,-1.61 0.2,-1.76z"/>
  <path class="fil0" d="M49.89 150.01c0.39,-0.97 0.56,-1.58 1.63,-2.01 1.03,-0.41 2.2,-0.46 3.29,-0.45 1.09,0.01 1.11,-1.46 0.2,-1.78 -1.58,-0.55 -3.33,-0.2 -4.81,0.48 0.06,-0.83 0.11,-1.68 0.13,-2.53l0 -0.01c0.29,-0.71 0.7,-1.14 1.36,-1.55 0.82,-0.52 0.23,-1.98 -0.71,-1.59l-0.61 0.31c-0.04,-0.82 -0.17,-1.61 -0.5,-2.23 -0.31,-0.58 -1.2,-0.51 -1.5,0.04 -0.32,0.59 -0.43,1.32 -0.46,2.09 -0.53,-0.38 -1.12,-0.67 -1.71,-0.84 -0.94,-0.26 -1.54,1.2 -0.63,1.61 1,0.45 1.7,1.13 2.37,1.94l-0 0.29c-0.01,0.39 -0.01,0.79 0.01,1.18 -1.26,-0.8 -2.72,-0.51 -3.87,0.43 -0.85,0.7 0.28,1.83 1.14,1.4 0.65,-0.33 1.3,-0.35 1.85,0.16 0.65,0.59 0.54,1.5 0.78,2.26l0.45 0.51 0.11 0.32c0.27,0.55 1.27,0.55 1.5,-0.04z"/>
  <path class="fil0" d="M41.6 140c0.4,-0.06 0.74,-0.25 0.84,-0.68 0.1,-0.42 -0.16,-1.03 -0.65,-1.08 -1.05,-0.12 -2.39,0.12 -3.44,0.72l0.01 -0.56 -0.03 -0.73 -0.02 -0.38 -0.05 -0.29 0 -0.02 -0 -0.02 0 0.02c-0.05,-0.39 -0.25,-0.72 -0.66,-0.82 -0.43,-0.1 -1,0.16 -1.06,0.64 -0.09,0.62 -0.14,1.25 -0.12,1.88 -0.31,-0.06 -0.62,-0.08 -0.94,-0.04 -0.4,0.05 -0.73,0.26 -0.84,0.67 -0.11,0.44 0.17,1 0.65,1.08 0.4,0.06 0.79,0.16 1.08,0.31l0.38 0.34 -0.04 0.4c-0.03,0.97 1.22,1.08 1.68,0.41 0.34,-0.49 0.57,-0.92 1.09,-1.25 0.63,-0.41 1.41,-0.49 2.14,-0.6z"/>
  <path class="fil0" d="M65.73 135.89l0.17 0.1c0.02,0.58 0.46,0.96 1.07,1.02l0.21 0.01c0.44,-0.01 0.82,-0.32 0.98,-0.71 0.49,-0.18 0.98,-0.36 1.33,-0.79 0.62,-0.77 -0.21,-1.94 -1.12,-1.38 -0.29,0.18 -0.62,0.29 -0.96,0.39l-0.23 -0.17c-0.32,-0.2 -0.77,-0.25 -1.06,-0.43 -0.71,-0.44 -1.72,0.53 -1.16,1.22 0.24,0.29 0.45,0.53 0.79,0.73z"/>
  <path class="fil0" d="M69.15 130.09l0.03 0.01 -0.08 -0.01 0.06 -0zm0.13 0.03l-0.02 -0.01 -0.01 -0.01 0.03 0.01zm-1.37 1.14l0.05 0.13 0.24 0.28 0.16 0.18 0.02 0.03 0.03 0.05 0.03 0.14c0.22,0.79 1.23,0.98 1.78,0.42l0.55 -0.59c0.33,-0.25 0.52,-0.61 0.39,-1.03 -0.14,-0.47 -0.66,-0.76 -1.13,-0.61l-0.25 0.1 -0.5 -0.24 -0.03 -0.01 -0.02 -0.01 -0.01 -0.01c-0.58,-0.68 -1.73,0.1 -1.45,0.89l0.12 0.28z"/>
  <path class="fil0" d="M80.62 136.18c0.71,-0.11 1.05,0.43 1.34,0.98 0.31,0.59 1.28,0.69 1.7,0.17 0.57,-0.69 1.45,-0.81 2.2,-1.25 0.92,-0.54 0.22,-1.8 -0.73,-1.6 -0.71,0.15 -1.35,0.36 -1.96,0.67 -0.84,-0.93 -1.99,-1.29 -3.28,-0.58 -0.96,0.53 -0.19,1.75 0.72,1.6z"/>
  <path class="fil0" d="M88.57 131.76c0.68,-0.59 -0.09,-1.82 -0.92,-1.49 -1.22,0.49 -2.1,0.48 -3.26,-0.17 -0.95,-0.53 -1.88,0.77 -1.11,1.51 1.4,1.35 3.84,1.42 5.29,0.15z"/>
  <path class="fil0" d="M98.48 136.75c0.57,0.51 1.3,0.32 1.71,-0.26 0.47,-0.66 1.19,-0.38 1.83,-0.8 0.61,-0.42 0.55,-1.51 -0.26,-1.67 -1.01,-0.18 -1.96,-0.03 -2.72,0.57l-0.33 -0.14 -0.65 -0.23 -0.4 -0.14 -0.34 -0.04 -0.02 0c-0.62,0.08 -1.08,0.71 -0.71,1.32 0.4,0.65 1.41,0.96 1.89,1.38z"/>
  <path class="fil0" d="M97.97 131.9l0.73 0.32 0.12 0.07 0.18 0.22c0.42,0.54 1.07,0.63 1.59,0.17 0.42,-0.37 1.05,-0.47 1.39,-0.91 0.48,-0.62 0.16,-1.51 -0.68,-1.53 -0.44,-0.01 -0.91,0.18 -1.34,0.43l-0.5 -0.28c-0.34,-0.13 -0.73,-0.13 -1.09,-0.13 -0.93,-0 -1.08,1.19 -0.4,1.64z"/>
  <path class="fil0" d="M113.13 138.04c0.64,0.62 1.64,0.25 1.88,-0.55 0.27,-0.9 1.32,-1.06 2.09,-1.31 0.96,-0.3 0.74,-1.78 -0.28,-1.75 -1.15,0.04 -2.2,0.47 -3.02,1.21 -0.59,-0.44 -1.22,-0.79 -1.97,-1 -0.86,-0.24 -1.6,0.98 -0.87,1.57 0.74,0.6 1.48,1.17 2.17,1.83z"/>
  <path class="fil0" d="M114.97 131.91l-0.02 0.09 -0.01 -0.12 0.03 0.03zm-2.65 0.81l0.55 0.14 0.53 0.27c0.8,0.34 1.51,-0.14 1.56,-0.91 0.15,-0.29 0.34,-0.54 0.44,-0.87 0.29,-0.84 -0.93,-1.46 -1.5,-0.82l-0.23 0.24 -0.4 -0.12c-0.43,-0.1 -0.8,-0.14 -1.15,-0.14 -0.87,-0.36 -1.51,0.8 -0.92,1.49 0.24,0.29 0.63,0.55 1.12,0.71z"/>
  <path class="fil0" d="M124.83 136.43c0.62,-0.04 1.18,-0.07 1.75,0.24 0.55,0.3 0.74,0.64 1.44,0.42 0.57,-0.18 0.47,-0.79 0.94,-0.97 0.49,-0.21 0.96,-0.37 1.32,-0.8 0.73,-0.87 -0.54,-2.1 -1.29,-1.22 -0.25,0.29 -0.78,0.38 -1.12,0.54l-0.39 0.26c-0.28,-0.18 -0.63,-0.28 -0.94,-0.36 -0.66,-0.17 -1.37,-0.08 -1.99,0.16 -0.89,0.35 -0.78,1.81 0.28,1.74z"/>
  <path class="fil0" d="M125.45 131.8l0.75 0.3c0.59,0.51 1.35,0.27 1.66,-0.37l0.15 -0.08 0.79 -0.54c0.59,-0.77 -0.18,-1.85 -1.09,-1.35l-0.69 0.21 -0.22 0.1c-0.44,-0.2 -0.92,-0.31 -1.34,-0.22 -0.75,-0.05 -1.11,0.89 -0.64,1.44l0.62 0.5z"/>
  <path class="fil0" d="M138.68 133.34c-1.1,-0.29 -1.62,1.22 -0.7,1.79 0.67,0.41 1.21,0.82 1.52,1.57 0.3,0.7 1.24,1.1 1.83,0.43 0.77,-0.87 1.73,-1.25 2.83,-1.55 0.98,-0.27 0.75,-1.91 -0.29,-1.79 -1.08,0.12 -2.08,0.49 -3,1.05 -0.53,-0.71 -1.23,-1.23 -2.19,-1.5z"/>
  <path class="fil0" d="M136.85 130.94l0.44 0.48c0.28,0.7 1.43,1.05 1.8,0.2 0.36,-0.84 1.4,-0.92 1.81,-1.72 0.32,-0.64 -0.27,-1.63 -1.05,-1.29 -0.57,0.24 -1.18,0.58 -1.68,1.02l-0.25 -0.2c-0.25,-0.31 -0.59,-0.5 -1,-0.38 -0.41,0.12 -0.78,0.66 -0.58,1.09 0.14,0.32 0.29,0.54 0.51,0.8z"/>
  <path class="fil0" d="M50.64 136.89c0.24,0.55 0.98,1.06 1.56,0.6 1.28,-1.04 2.53,-1.38 4.11,-1.7 0.87,-0.17 0.84,-1.63 -0.04,-1.76 -1.52,-0.21 -3,0.26 -4.28,1.05 -0.34,-0.5 -0.7,-0.96 -1.06,-1.47 -0.54,-0.79 -2.01,-0.25 -1.6,0.72 0.37,0.89 0.93,1.68 1.31,2.56z"/>
  <path class="fil0" d="M55.44 131.87c1.12,0.01 2.45,0.14 3.39,-0.58 0.83,-0.64 0.29,-1.87 -0.74,-1.65 -0.67,0.14 -1.3,0.25 -1.96,0.31l-0.08 -0.32c-0.22,-0.98 -1.74,-0.69 -1.7,0.27 0.01,0.35 0.12,0.69 0.14,1.05 0.03,0.53 0.44,0.91 0.96,0.91z"/>
  <path class="fil0" d="M37.39 133.04c0.85,0.23 1.29,0.46 1.48,1.36 0.22,1.02 1.34,0.92 1.84,0.28 1.12,-0.42 2.27,-0.72 3.43,-1.01 0.97,-0.24 0.71,-1.8 -0.27,-1.73 -1.07,0.08 -2.08,0.34 -3.1,0.64l-0.28 0.07c-0.65,-1.02 -1.79,-1.51 -3.14,-1.29 -0.9,0.14 -0.73,1.49 0.04,1.68z"/>
  <path class="fil0" d="M44.54 130.62c1.08,-0.01 2.22,-0.04 3.17,-0.61 0.86,-0.51 0.24,-1.92 -0.72,-1.6 -0.57,0.19 -1.13,0.27 -1.71,0.3l-0.13 -0.54c-0.19,-1.02 -1.67,-0.65 -1.7,0.27 -0.02,0.43 0.1,0.83 0.13,1.26 0.04,0.52 0.43,0.92 0.97,0.92z"/>
  <path class="fil0" d="M73.49 128.11c1.08,-0.85 2.49,-1.06 3.79,-1.34 0.88,-0.18 0.83,-1.61 -0.04,-1.77 -1.84,-0.31 -3.62,0.38 -4.84,1.76 -0.62,0.71 0.29,1.98 1.09,1.34z"/>
  <path class="fil0" d="M59.01 127.85c1.44,0 1.38,-2.23 -0.05,-2.23 -1.44,0 -1.38,2.23 0.05,2.23z"/>
  <path class="fil0" d="M118.94 129.64c0.95,-0.87 1.26,-2.13 1.04,-3.37 -0.09,-0.46 -0.67,-0.69 -1.08,-0.57 -0.49,0.15 -0.65,0.61 -0.58,1.07 0.11,0.67 -0.23,1.18 -0.64,1.67 -0.73,0.86 0.43,1.94 1.25,1.19z"/>
  <path class="fil0" d="M105.55 133.4c1.29,0 1.24,-2 -0.05,-2 -1.29,0 -1.24,2 0.05,2z"/>
  <path class="fil0" d="M89.41 137.78c1.26,0 1.21,-1.95 -0.05,-1.95 -1.26,0 -1.21,1.95 0.05,1.95z"/>
  <path class="fil0" d="M90.83 132.36c-1.14,0 -1.09,1.76 0.04,1.76 1.13,0 1.09,-1.76 -0.04,-1.76z"/>
  <path class="fil0" d="M69.66 137.9c0.15,0.51 0.64,0.68 1.11,0.6 0.98,-0.18 1.68,-0.98 2.27,-1.71 0.26,-0.31 0.34,-0.72 0.11,-1.08 -0.23,-0.38 -0.84,-0.6 -1.22,-0.29 -0.61,0.5 -1.21,1.06 -1.89,1.46 -0.35,0.21 -0.5,0.64 -0.38,1.02z"/>
  <path class="fil0" d="M73.65 130.12c-0.48,0.4 -0.93,0.87 -1.18,1.44 -0.46,1.04 0.92,1.8 1.54,0.85 0.25,-0.4 0.61,-0.72 0.91,-1.08 0.74,-0.88 -0.42,-1.93 -1.27,-1.21z"/>
  <path class="fil0" d="M88.75 140.95c-0.34,0.49 -0.74,0.91 -0.88,1.51 -0.2,0.88 0.9,1.5 1.54,0.84 0.4,-0.41 0.8,-0.88 1.02,-1.42 0.47,-1.15 -0.97,-1.96 -1.68,-0.93z"/>
  <path class="fil0" d="M61.97 132.74c0.68,-0.33 0.95,-1.11 1.2,-1.76 0.2,-0.53 0.24,-1.41 0.7,-1.79 0.74,-0.6 0.31,-2.06 -0.75,-1.66 -0.85,0.32 -1.37,1.05 -1.68,1.88 -0.14,0.4 -0.24,0.79 -0.31,1.2l-0.1 0.6c-0.93,0.7 -0.1,2.01 0.94,1.51z"/>
  <path class="fil0" d="M152.3 133.27c-1.2,-0.47 -2.29,-0.97 -3.19,-1.93 -0.68,-0.73 -1.94,0.29 -1.36,1.11 0.98,1.38 2.3,2.64 4.13,2.55 0.84,-0.04 1.32,-1.36 0.42,-1.72z"/>
 </g>
</svg>
