<?xml version="1.0" encoding="UTF-8"?>
<svg xmlns="http://www.w3.org/2000/svg" xml:space="preserve" width="0.747343in" height="0.747331in" version="1.1" style="shape-rendering:geometricPrecision; text-rendering:geometricPrecision; image-rendering:optimizeQuality; fill-rule:evenodd; clip-rule:evenodd"
viewBox="0 0 115.42 115.42"
 xmlns:xlink="http://www.w3.org/1999/xlink"
 xmlns:xodm="http://www.corel.com/coreldraw/odm/2003">
 <defs>
  <style type="text/css">
   <![CDATA[
    .fil0 {fill:black;fill-rule:nonzero}
   ]]>
  </style>
 </defs>
 <g id="Layer_x0020_1">
  <metadata id="CorelCorpID_0Corel-Layer"/>
  <path class="fil0" d="M113.1 58.19c-1.78,-0.71 -4.27,0.12 -4.89,2.04 -0.69,-0.15 -1.44,0.03 -2.08,0.44l-0.13 -0.09c-2.25,-0.94 -4.81,-0.18 -5.8,1.88 -1.32,0.14 -2.85,1.43 -2.86,2.82 -1.39,0.23 -2.64,1.25 -2.81,2.71 -1.04,-0 -2.08,-0.01 -3.12,-0.01 0.1,-0.31 0.23,-0.61 0.46,-0.9 0.49,-0.62 1.21,-0.88 1.98,-0.9 0.47,-0.01 0.58,-0.76 0.09,-0.84l-0.28 -0.02c0.16,-0.35 0.38,-0.65 0.75,-0.87 0.4,-0.24 0.11,-0.91 -0.34,-0.75 -0.73,0.26 -1.3,0.98 -1.41,1.75 -1.16,0.35 -2.19,1.35 -2.42,2.53 -1.59,-0 -3.17,-0 -4.76,0l0 -0.14c-0.02,-1.03 0.51,-1.81 1.28,-2.44 0.27,-0.22 0.56,-0.39 0.86,-0.53 0.05,0.77 0.11,1.53 0.16,2.29 0.04,0.59 0.97,0.57 0.92,-0.02 -0.06,-0.86 -0.12,-1.72 -0.18,-2.59 0.79,-0.2 1.62,-0.22 2.41,-0.13 0.53,0.06 0.76,-0.7 0.21,-0.84 -0.23,-0.06 -0.47,-0.1 -0.7,-0.13 0.69,-1.09 1.62,-2.38 2.93,-1.33 0.42,0.34 0.95,-0.21 0.58,-0.6l-0.33 -0.29c1.82,-1.69 3.88,-1.54 5.26,0.73 0.25,0.41 0.97,0.11 0.78,-0.35 -0.2,-0.51 -0.48,-0.94 -0.79,-1.3 0.66,-0.47 1.42,-0.85 2.18,-0.29 0.42,0.3 0.81,-0.35 0.5,-0.68 -0.95,-1.05 -2.55,-0.64 -3.43,0.31 -1.65,-1.1 -3.94,-0.68 -5.32,1.22 -1.46,-0.32 -3.05,1.04 -3.45,2.57 -0.3,0.02 -0.6,0.05 -0.9,0.11 -0.4,-5.76 -0.81,-11.52 -1.22,-17.27l0.14 -0.02 0.46 -0.17 0.14 -0.28c0.07,-0.25 -0.01,-0.52 -0.3,-0.61l-0.29 -0.04c-0.56,-0.06 -1.12,-0.03 -1.69,-0.03 -0.7,0 -1.5,-0.1 -2.16,0.15 -0.44,0.17 -0.39,0.71 0.02,0.87l0.48 0.12c-0.09,1.39 -0.18,2.78 -0.27,4.17l-0.01 0.1c-0.26,3.99 -0.52,7.99 -0.78,11.98 -1.05,0.28 -1.84,1.22 -2.44,2.07 -0.28,0.41 0.39,0.9 0.7,0.51 0.46,-0.59 0.99,-1.16 1.67,-1.49 -0.09,1.46 -0.19,2.93 -0.29,4.39 -1.64,0.01 -3.27,0.02 -4.91,0.03 0.46,-0.59 1.05,-1.02 1.85,-1.17 0.47,-0.09 0.32,-0.83 -0.13,-0.81 -1.2,0.04 -2.42,0.86 -2.87,1.99 -1.43,0.01 -2.85,0.02 -4.28,0.03 0.32,-0.44 0.76,-0.8 1.32,-0.77 0.4,0.02 0.55,-0.6 0.19,-0.76 -1.1,-0.49 -2.14,0.55 -2.53,1.54 -4.02,0.03 -8.04,0.07 -12.05,0.09 -0.88,0 -1.77,0 -2.65,0.01 0,-0.34 0.03,-0.68 0.2,-1.05 0.11,-0.26 0.26,-0.51 0.4,-0.76 0.53,-0.11 1.05,-0.34 1.47,-0.68 0.95,0.8 2.73,0.6 3.53,-0.32 0.72,0.17 1.44,-0.07 1.87,-0.72 0.47,-0.7 0.44,-1.62 0.03,-2.33 0.22,-0.55 0.27,-1.15 0.08,-1.75 -0.23,-0.73 -0.89,-1.3 -1.64,-1.42 0.2,-0.85 -0.02,-1.78 -0.61,-2.47 -0.69,-0.82 -1.76,-1.13 -2.69,-0.68 -0.45,-1.31 -1.5,-2.32 -3.02,-2.45 -1.67,-0.14 -3.43,0.91 -3.91,2.53 -1.08,-0.18 -2.27,0.49 -2.64,1.71 -0.17,0.56 0.66,0.86 0.93,0.37 0.59,-1.09 1.51,-1.38 2.49,-0.54 0.37,0.31 0.94,-0.11 0.67,-0.54 -0.15,-0.23 -0.32,-0.42 -0.51,-0.57 0.59,-1.01 1.18,-1.85 2.56,-1.91 1.6,-0.08 2.6,1.4 2.82,2.81 0.08,0.53 0.89,0.56 0.87,-0.02l-0.04 -0.47c1.52,-0.4 2.59,1.29 1.93,2.72 -0.24,0.52 0.44,0.87 0.75,0.43 0.45,0.15 0.83,0.33 1.02,0.83 0.21,0.56 0.06,1.19 -0.2,1.71 -0.16,0.33 0.16,0.69 0.45,0.65 0.02,0.72 -0.38,1.39 -1.29,1.25l-0.35 0.09 -0.08 0.02c-0.73,0.4 -1.61,0.67 -2.38,0.33 0.11,-0.2 0.2,-0.4 0.25,-0.62 0.11,-0.49 -0.56,-0.76 -0.82,-0.32 -0.24,0.4 -0.61,0.73 -1.05,0.96 0.04,-0.32 0.02,-0.63 -0.03,-0.93 1.14,-0.11 1.9,-1.51 1.89,-2.61 -0.01,-0.52 -0.69,-0.53 -0.85,-0.09 -0.27,0.75 -0.59,1.43 -1.32,1.69 -0.1,-0.28 -0.23,-0.56 -0.36,-0.84 -0.2,-0.44 -0.86,-0.1 -0.74,0.33 0.23,0.82 0.58,1.58 0.42,2.46l-0.08 0.3c-0.43,0.03 -0.85,-0.07 -1.21,-0.32 0.19,-0.33 0.28,-0.72 0.21,-1.17 -0.07,-0.43 -0.78,-0.62 -0.85,-0.09 -0.18,1.29 -1.74,1.63 -2.6,0.75 -0.36,-0.36 -0.88,0.12 -0.66,0.54 0.63,1.18 2.21,1.29 3.23,0.66 0.32,0.43 0.78,0.68 1.3,0.77 -0.13,0.21 -0.25,0.42 -0.34,0.62 -0.14,0.32 -0.28,0.75 -0.33,1.19 -1.53,0 -3.05,0.01 -4.58,0.01 0.09,-2.24 0.22,-4.58 -0.05,-6.79l-0.01 -0.3c-0.34,-0.78 -1.06,-1.45 -1.59,-2.11 -0.52,-0.66 -1.03,-1.51 -1.68,-2.04l-0.02 -0.01c-0.26,-0.4 -0.87,-0.78 -1.25,-1.09 -0.51,-0.41 -1.06,-0.9 -1.65,-1.18l-0 0 -0.18 -0.07c-1.72,-0.26 -3.64,-0.1 -5.38,0.01l-0.22 0.08c-0.59,0.28 -1.12,0.77 -1.63,1.17 -0.36,0.28 -1,0.64 -1.26,1.09l-0.02 0.01c-0.49,0.4 -1.13,1.34 -1.61,1.95 -0.48,0.6 -1.21,1.33 -1.54,1.97 -4.2,0.71 -8.76,2.12 -12.7,3.7 -0.45,0.18 -0.37,0.71 -0.01,0.85 -0.05,0.47 -0.01,0.95 -0.02,1.42 -0.01,0.47 0.01,0.93 0.03,1.39 -1.68,-0.04 -3.35,-0.08 -5.03,-0.12 0.25,-0.82 0.26,-1.8 0.32,-2.57l0.02 -0.37c0.23,-0.12 0.44,-0.29 0.62,-0.48 0.49,0.35 0.99,0.62 1.63,0.66 0.82,0.06 1.45,-0.54 1.81,-1.21 0.25,-0.47 -0.35,-0.86 -0.72,-0.53 -0.38,0.34 -0.75,0.59 -1.27,0.56 -0.3,-0.02 -0.63,-0.13 -0.93,-0.26 0.15,-0.34 0.24,-0.71 0.26,-1.13 0.02,-0.49 -0.76,-0.57 -0.86,-0.09 -0.1,0.46 -0.29,0.86 -0.56,1.16 -0.04,-0.48 -0.11,-0.96 -0.22,-1.42 0.81,-0.34 1.44,-1.12 1.62,-1.98 0.1,-0.46 -0.59,-0.77 -0.79,-0.31 -0.26,0.58 -0.67,0.97 -1.15,1.32 -0.11,-0.26 -0.22,-0.51 -0.36,-0.74 -0.23,-0.38 -0.86,-0.2 -0.84,0.25 0.01,0.25 0.03,0.49 0.05,0.73l-0.09 0.03c-0.46,0.25 -0.85,0.09 -1.33,0.04 -0.46,-0.05 -0.76,0.53 -0.31,0.79 0.55,0.32 1.25,0.39 1.8,0.1 0.05,0.63 0.09,1.26 0.09,1.89l-0.42 -0.03 0.25 -0.46c0.17,-0.43 -0.37,-0.95 -0.71,-0.52 -1.06,1.36 -3.19,1.32 -3.9,-0.27l0.26 -0.26c0.31,-0.4 -0.1,-0.91 -0.55,-0.68 -0.35,0.18 -0.78,0.36 -1.13,0.07 -0.37,-0.3 -0.24,-0.72 0,-1.06 0.14,-0.2 0.07,-0.4 -0.08,-0.52l-0.1 -0.17c-0.19,-0.18 -0.4,-0.34 -0.4,-0.59l0.33 -0.55c0.45,-0.44 1,-0.39 1.5,-0.11 0.35,0.2 0.83,-0.24 0.56,-0.59 -0.2,-0.26 -0.44,-0.42 -0.7,-0.5 0.37,-1.82 2.58,-1.81 3.57,-0.38 0.25,0.37 0.92,0.12 0.74,-0.34 -0.15,-0.38 -0.36,-0.69 -0.61,-0.94 0.85,-1.11 2.22,-1.59 3.49,-1 -0.1,0.33 -0.15,0.67 -0.13,1.02 0.03,0.57 0.83,0.53 0.87,-0.02 0.12,-1.59 1.65,-2.85 3.25,-2.64 1.17,0.15 1.61,1.46 1.76,2.53l0.03 0.25 0.02 0.24c0.05,0.55 0.85,0.54 0.86,-0.02l0 -0.13c0.48,-0.11 0.92,-0.02 1.33,0.37 0.53,0.5 0.61,1.29 0.32,1.93 -0.18,0.41 0.37,0.91 0.68,0.49 0.67,-0.91 0.62,-2.11 -0.12,-2.98 -0.57,-0.66 -1.46,-1.01 -2.28,-0.8 -0.25,-1.41 -1.07,-2.69 -2.63,-2.88 -1.37,-0.16 -2.8,0.62 -3.55,1.78 -1.56,-0.9 -3.68,-0.16 -4.61,1.36 -1.54,-0.74 -3.68,0.09 -3.84,2.13 -0.46,0.09 -0.92,0.33 -1.26,0.62 -0.74,0.64 -0.74,1.75 0.02,2.26 -0.39,0.62 -0.31,1.38 0.19,1.96 0.34,0.41 0.86,0.55 1.35,0.49 0.37,1.97 2.97,2.61 4.52,1.58 0.36,0.17 0.72,0.27 1.08,0.3 -0.1,0.82 -0.37,1.73 -0.39,2.58 -2.87,-0.07 -5.74,-0.11 -8.61,-0.1 -0.27,-0.35 -0.51,-0.69 -0.64,-1.12 -0.14,-0.46 -0.13,-0.94 -0.18,-1.41l0.06 -0.04c0.83,0.7 2.15,0.64 2.59,-0.57 0.17,-0.46 -0.45,-0.66 -0.75,-0.41 -0.39,0.33 -0.78,0.43 -1.16,0.28 0.19,-0.3 0.32,-0.65 0.35,-1.04 0.05,-0.53 -0.72,-0.53 -0.87,-0.1 -0.34,0.95 -1.21,1.14 -2.08,1.12 -0.28,-2.28 -0.43,-4.6 -0.43,-6.96 0,-0.58 0.01,-1.15 0.03,-1.73 1.28,-0.32 2.32,0.31 3.06,1.62 0.25,0.43 0.95,0.11 0.79,-0.36 -0.09,-0.29 -0.22,-0.55 -0.38,-0.8 0.52,-0.32 1.08,-0.53 1.72,-0.5 0.48,0.02 0.52,-0.68 0.09,-0.81 -0.81,-0.25 -1.69,0.13 -2.35,0.63 -0.78,-0.75 -1.85,-1.13 -2.89,-0.91 0.34,-6.74 1.87,-13.16 4.38,-19.07 5.67,2.97 11.79,5.69 18.27,5.82 3.64,0.08 6.82,0.72 10.12,2.3 2.21,1.07 4.38,3.08 6.98,3.11 3.7,0.04 7.25,-0.23 10.97,0.1 3.53,0.32 6.97,0.69 10.44,1.43 6.51,1.39 12.97,3.66 19.66,3.97 0.61,0.03 0.56,-0.87 -0.02,-0.94 -12.98,-1.38 -25.21,-6.68 -38.48,-5.73 -1.84,0.13 -3.32,0.22 -5.04,-0.57 -1.39,-0.64 -2.64,-1.6 -3.98,-2.32 -2.55,-1.39 -5.23,-2.24 -8.1,-2.65 -3.5,-0.49 -6.85,-0.56 -10.26,-1.62 -3.46,-1.07 -6.68,-2.75 -9.94,-4.3 2.28,-4.98 5.28,-9.58 8.85,-13.66 4.67,4.08 11.11,5.88 16.15,9.48 2.86,2.04 5.95,3.72 8.75,5.85 1.93,1.48 3.46,3.64 5.98,4.09 0.87,0.16 1.91,-0.3 2.71,-0.57 1.79,-0.61 3.89,-0.4 5.67,0.1 3.22,0.9 5.96,3.45 9.08,4.72 3.02,1.23 6.21,2.09 9.31,3.1 3.14,1.02 6.04,2.71 9.37,3 0.6,0.05 0.71,-0.99 0.12,-1.05 -3.25,-0.37 -6.13,-2.05 -9.2,-3.07 -3.31,-1.09 -6.67,-1.9 -9.9,-3.22 -4.59,-1.87 -8.53,-6.09 -13.93,-4.86 -2.17,0.49 -3.78,0.6 -5.52,-0.96 -1.11,-0.99 -2.15,-2.02 -3.33,-2.94 -2.4,-1.86 -5.07,-3.35 -7.6,-5.03 -5.37,-3.56 -11.15,-6.41 -16.71,-9.67 5.15,-5.59 11.41,-10.14 18.44,-13.29 1.97,0.86 4.18,0.46 6.09,1.66 2.1,1.31 3.36,3.03 5.81,3.81 0.54,0.17 0.77,-0.6 0.34,-0.87 -1.95,-1.24 -3.57,-2.87 -5.46,-4.18 -1.55,-1.07 -3.28,-1.01 -5.03,-1.16 6.52,-2.66 13.65,-4.13 21.12,-4.13 23,0 42.8,13.9 51.47,33.73 -4.32,0.28 -8.35,-0.76 -12.24,-2.82 -1.86,-0.99 -3.66,-2.16 -5.65,-2.87 -2.64,-0.95 -5.19,-0.78 -7.92,-1.17 -4.95,-0.71 -8.74,-4.21 -12.49,-7.23 -1.63,-1.31 -3.14,-2.14 -5.24,-2.41 -2.58,-0.32 -5.12,0.16 -7.68,-0.5 -0.44,-0.11 -0.74,0.57 -0.3,0.76 2.04,0.88 4.11,0.83 6.3,0.87 3.56,0.06 5.69,2.24 8.28,4.35 3.46,2.82 7.02,5.11 11.51,5.76 2.98,0.43 5.55,0.3 8.38,1.6 2.35,1.08 4.51,2.54 6.9,3.56 2.56,1.09 7.79,2.86 10.78,1.6 0.48,1.18 0.91,2.37 1.3,3.59 -3.45,-0.3 -7.31,1.4 -9.86,3.58 -3.58,3.07 -7.75,5.47 -12.59,5.53 -0.55,0.01 -0.68,0.9 -0.11,0.99 3.48,0.53 7,-1.18 9.9,-2.92 1.76,-1.05 3.18,-2.51 4.86,-3.65 2.53,-1.73 5.2,-2.11 8.14,-2.42 0.44,1.44 0.82,2.9 1.14,4.38 -2.05,-0.65 -4.93,1.06 -6.71,1.94 -5.28,2.6 -11.16,4.04 -17.06,3.69 -0.47,-0.02 -0.56,0.77 -0.09,0.84 3.97,0.57 7.96,-0.13 11.78,-1.21 1.83,-0.52 3.61,-1.23 5.33,-2.03 1.93,-0.89 5.2,-3.4 7.13,-1.32 0.58,3.23 0.88,6.55 0.88,9.94l0 0.01c-0.27,0.11 -0.53,0.27 -0.76,0.46zm-0.26 10.16c-5.75,-0.2 -11.51,-0.3 -17.28,-0.34 0.17,-0.62 0.48,-1.13 1.12,-1.53 0.89,-0.56 1.96,-0.35 2.8,0.17 0.41,0.25 0.86,-0.37 0.5,-0.67 -0.5,-0.42 -1.08,-0.64 -1.68,-0.71 0.33,-0.79 0.82,-1.35 1.56,-1.72l-0.06 0.48c-0.03,0.41 0.61,0.56 0.77,0.19 0.43,-0.97 0.82,-1.9 1.71,-2.54 0.92,-0.67 2.09,-0.64 3.14,-0.37 -0.45,0.53 -0.75,1.19 -0.73,1.93 0.01,0.45 0.71,0.55 0.8,0.09 0.35,-1.78 2.24,-2.93 3.59,-1.36 0.33,0.38 0.88,-0.13 0.66,-0.53 -0.18,-0.32 -0.39,-0.57 -0.62,-0.76 0.37,-0.47 0.72,-0.92 1.24,-1.27 0.62,-0.42 1.33,-0.54 2.05,-0.45 -0.21,0.3 -0.36,0.64 -0.33,0.97 0.03,0.34 0.38,0.55 0.69,0.37 0.4,-0.22 0.61,-0.72 0.91,-1.05l0.18 -0.18c-0.08,3.16 -0.42,6.27 -1,9.29zm-27.16 -3.68l0.23 0.12c-1.05,0.87 -1.42,1.98 -1.43,3.2 -0.32,0 -0.63,0 -0.95,0 0.1,-1.5 0.19,-3.03 0.29,-4.58 0.74,0.08 1.37,0.72 1.85,1.26zm-0.25 -3.94c0.63,0.01 1.28,0.05 1.9,-0.03 0.07,1.05 0.15,2.1 0.22,3.13 -0.4,0.16 -0.79,0.36 -1.15,0.61l-0.06 -0.3c-0.6,-0.89 -1.39,-1.58 -2.45,-1.69 0.04,-0.58 0.08,-1.17 0.11,-1.75 0.47,0.07 0.96,0.02 1.43,0.03zm0.03 -4.81c0.51,0.01 1.03,0.03 1.54,-0.01 0.08,1.23 0.17,2.46 0.26,3.69 -0.52,-0.05 -1.04,-0.03 -1.57,-0.02 -0.51,0 -1.09,-0.05 -1.62,0.02 0.08,-1.23 0.16,-2.46 0.24,-3.69 0.38,0.04 0.77,0.01 1.15,0.02zm-0.77 -5.97c0.08,-1.23 0.15,-2.44 0.23,-3.65l0.51 -0.01c0.3,0.01 0.6,0.02 0.91,0.02 0.08,1.2 0.17,2.41 0.25,3.63 -0.39,-0.03 -0.78,0 -1.16,0.01 -0.24,0 -0.49,-0.01 -0.74,0zm0.76 1.15c0.4,0.01 0.81,0.03 1.22,-0.01 0.08,1.22 0.17,2.44 0.25,3.66 -0.41,-0.03 -0.82,-0.01 -1.24,-0 -0.41,0 -0.87,-0.04 -1.3,0 0.08,-1.22 0.16,-2.44 0.23,-3.66 0.28,0.03 0.57,0 0.84,0.01zm26.32 21.79c-4.84,-1.95 -10.67,-1.56 -15.76,-1.68 -4.41,-0.11 -10.03,0.29 -14.53,-1.24 10.38,0.06 20.75,0.02 31.1,-0.34 -0.24,1.1 -0.51,2.18 -0.81,3.25zm-2.32 6.62c-2.63,-2.14 -6.93,-3.01 -10,-3.74 -2.73,-0.64 -5.47,-0.82 -8.26,-1 -4.82,-0.32 -13.19,-0.28 -16.31,-4.84 1.3,0.01 2.6,0.02 3.9,0.03 3.39,2.87 10.02,2.53 13.99,2.69 6.08,0.22 12.72,-0.25 18.69,1.32 -0.58,1.89 -1.24,3.74 -2,5.54zm-51.73 34.34c-21.35,0 -39.95,-11.98 -49.44,-29.57l0.05 -0.09c3.55,-7.3 14.51,-8.07 21.66,-8.9 3.66,-0.42 7.35,-0.98 10.84,-2.18 1.6,-0.55 3.96,-1.51 4.36,-3.34 0.69,0 1.38,0 2.07,0 -3.02,4.58 -9.37,5.6 -14.14,7.72 -3.21,1.42 -8.84,3.71 -10.16,7.28 -0.15,0.4 0.35,0.6 0.64,0.47 2.07,-0.96 3.74,-2.9 5.73,-4.1 2.52,-1.52 5.26,-2.66 7.98,-3.76 4.34,-1.74 8.85,-3.23 11.06,-7.6 0.56,0 1.11,0 1.67,0 -1.56,5.73 -6.91,9.03 -11.64,12.1 -2.36,1.54 -4.74,3.07 -6.93,4.84 -1.6,1.3 -3.97,3.21 -4.26,5.39 -0.07,0.53 0.49,0.89 0.92,0.5 0.89,-0.81 1.45,-1.94 2.25,-2.86 1.09,-1.26 2.31,-2.35 3.63,-3.37 2.42,-1.89 5.09,-3.47 7.63,-5.18 4.1,-2.77 8.59,-6.24 9.35,-11.43 0.6,0 1.19,0 1.79,0 -0.57,7.35 -5.72,12.4 -10.44,17.5 -1.85,2 -3.68,4.04 -5.43,6.12 -0.49,0.59 -1.96,1.99 -1.17,2.87 0.42,0.46 0.98,-0.08 0.91,-0.56 0.12,0.74 0.57,-0.24 0.95,-0.72 0.76,-0.96 1.57,-1.87 2.37,-2.8 1.93,-2.22 3.86,-4.43 5.81,-6.61 3.96,-4.42 8.16,-9.52 7.89,-15.8 0.7,0 1.4,0 2.1,0.01 -0.14,5.89 -1.93,10.9 -4.22,16.33 -1.74,4.11 -5.06,9.67 -4.07,14.27 0.12,0.55 0.89,0.45 1.03,-0.03 0.76,-2.61 1.08,-5.24 2.01,-7.83 0.92,-2.57 2.18,-5 3.13,-7.56 1.78,-4.8 3.51,-10 3.06,-15.19 0.32,0 0.64,0 0.95,0.01 0.36,5.54 0.17,11.07 0.07,16.62 -0.06,3.17 -0.09,6.31 0.14,9.48 0.17,2.38 0.29,5.18 1.3,7.36 0.27,0.59 1.15,0.23 1.14,-0.34 -0.06,-2.62 -0.77,-5.26 -0.96,-7.9 -0.21,-2.87 -0.3,-5.77 -0.32,-8.64 -0.03,-5.51 0.25,-11.09 -0.32,-16.58 0.47,0 0.95,0 1.43,0.01 0.36,5 0.75,10.06 1.6,15 1,5.85 2.86,13.07 7.1,17.48 0.54,0.57 1.4,-0.2 1.03,-0.84 -1.54,-2.73 -3.17,-5.2 -4.3,-8.16 -1.1,-2.88 -1.79,-5.91 -2.35,-8.93 -0.88,-4.8 -1.01,-9.79 -2.08,-14.55 0.41,0 0.83,0.01 1.24,0.01 -0.02,5.3 1.98,10.63 4.38,15.27 1.38,2.67 3.07,5.24 5,7.54 1.68,1.99 3.93,4.9 6.53,5.66 0.45,0.13 0.92,-0.45 0.62,-0.85 -1.4,-1.81 -3.56,-3.11 -5.13,-4.83 -2.11,-2.31 -3.83,-4.96 -5.35,-7.69 -2.56,-4.57 -4.83,-9.8 -5.11,-15.1 0.34,0 0.68,0 1.02,0.01 0.15,5.33 4.05,10.35 7.59,14.02 2.18,2.25 4.63,4.25 7.18,6.07 1.96,1.39 4.47,3.28 6.89,3.7 0.76,0.13 1.11,-0.8 0.48,-1.22 -1.74,-1.16 -3.75,-1.94 -5.53,-3.09 -2.49,-1.62 -4.78,-3.53 -6.94,-5.56 -3.97,-3.73 -8.05,-8.31 -8.78,-13.91 0.34,0 0.69,0 1.03,0.01 0.03,4.75 4.14,8.14 7.83,10.55 2.23,1.46 4.76,2.51 7.21,3.52 3.27,1.35 6.39,3.24 9.68,4.46 0.57,0.21 0.91,-0.6 0.53,-0.97 -2.1,-2.1 -5.37,-3.11 -8.05,-4.27 -2.13,-0.92 -4.28,-1.76 -6.36,-2.8 -4.37,-2.2 -9.46,-5.2 -9.98,-10.49 0.81,0.01 1.62,0.01 2.43,0.02 0.36,5.64 6.91,8.6 11.68,9.95 7.76,2.2 16.06,0.94 23.01,5.84 0.81,0.57 1.52,-0.77 0.74,-1.34 -6.08,-4.44 -13.65,-4.24 -20.75,-5.35 -5.32,-0.83 -12.28,-3.41 -13.66,-9.09 1.04,0.01 2.09,0.02 3.13,0.02 1.74,4.83 9.3,5.62 13.53,6.07 2.93,0.31 5.88,0.33 8.8,0.7 2.52,0.32 5.01,1.01 7.42,1.79 1.89,0.61 3.61,1.58 5.44,2.31 -8.82,19.48 -28.44,33.06 -51.18,33.06zm-53.41 -38.85c1.26,-0.35 2.48,-0.89 3.74,-1.21 2.12,-0.54 4.31,-0.76 6.48,-0.94 3.95,-0.33 7.92,-0.22 11.87,-0.22 3.2,0.01 6.43,-0.14 9.6,-0.56 2.28,-0.3 5.11,-0.64 6.86,-2.31 0.49,0 0.98,0 1.47,0 -0.87,2.38 -6.47,2.98 -8.33,3.32 -3.27,0.59 -6.57,0.87 -9.88,1.18 -6.24,0.58 -15.28,2.43 -18.7,8.37 -1.22,-2.45 -2.26,-5 -3.12,-7.63zm29.77 -13.29c-2.98,0.75 -5.98,1.75 -8.69,2.84 -0.29,-0.04 -0.58,-0.06 -0.87,-0.08 2.88,-0.74 5.78,-1.68 8.39,-2.79l0.18 -0.02c0.32,0.02 0.66,0.04 0.99,0.06zm-8.12 3.65c3.83,-0.76 7.99,-1.91 11.64,-3.41 -0.18,2.06 -0.06,4.2 0.01,6.26 -2.12,0.02 -4.25,0.04 -6.37,0.08 -1.77,0.03 -3.53,0.03 -5.3,0.02 0.03,-0.5 0.04,-1.01 0.04,-1.51 -0.01,-0.47 0.03,-0.97 -0.02,-1.44zm23.83 2.81c-3.74,0 -7.48,0 -11.21,0.03 0.08,-2.18 0.21,-4.46 -0.03,-6.61l0 -0 0 0 0 -0 0.11 -0.09c0.62,-0.51 1.09,-1.31 1.58,-1.93 0.49,-0.62 1.15,-1.27 1.54,-1.98 0.48,-0.18 0.95,-0.69 1.28,-0.95 0.4,-0.31 0.86,-0.64 1.24,-1.01 0.36,0.34 0.77,0.63 1.14,0.94 0.33,0.27 0.67,0.53 1.01,0.78l0.35 0.23c0.37,0.68 1,1.29 1.47,1.89 0.47,0.59 1.01,1.47 1.55,1.94 -0.26,2.2 -0.13,4.52 -0.05,6.75zm-9.62 -11.32c-0.85,-0.1 -1.74,-0.1 -2.62,-0.08l0.17 -0.14c0.46,-0.36 1,-0.73 1.4,-1.18 1.17,0.08 2.42,0.17 3.63,0.13l-0.3 0.25c-0.36,0.28 -1,0.64 -1.26,1.09l-0.02 0.01c-0.49,0.4 -1.13,1.34 -1.61,1.95 -0.44,0.55 -1.12,1.23 -1.47,1.83 -1.3,-0.15 -2.69,-0.09 -4.03,-0.02 0.3,-0.39 0.57,-0.8 0.85,-1.15 0.47,-0.6 1.1,-1.21 1.49,-1.89 1.21,0.06 2.5,0.13 3.7,-0.02 0.42,-0.05 0.57,-0.74 0.09,-0.8zm-19.25 8.62l0.17 0.01c-0.03,0.57 0.01,1.15 0.04,1.71 0.03,0.53 0.79,0.5 0.82,-0.02 0.03,-0.53 0.06,-1.09 0.04,-1.64l0.22 0.01c-0.03,0.62 0.04,1.26 0.06,1.86 0.02,0.53 0.79,0.5 0.82,-0.02 0.02,-0.59 0.09,-1.21 0.06,-1.82l0.32 0c-0.03,0.61 0.01,1.22 0.03,1.83 0.02,0.52 0.79,0.5 0.81,-0.02 0.03,-0.61 0.07,-1.23 0.03,-1.83 0.21,-0.01 0.41,-0.03 0.61,-0.05 -0.03,0.44 -0.01,0.89 -0.01,1.32 -0,0.49 0.01,0.98 0.04,1.47 -1.36,-0.02 -2.73,-0.04 -4.1,-0.06 0.02,-0.48 0.04,-0.95 0.03,-1.43 -0,-0.44 0.02,-0.88 -0.02,-1.32zm-17.98 4.5c9.11,0.11 18.19,-0.5 27.31,-0.34 3.57,0.07 7.13,0.09 10.7,0.11 -2.34,1.01 -5.24,1.08 -7.64,1.25 -3.23,0.22 -6.46,0.23 -9.7,0.2 -3.81,-0.04 -7.62,-0.04 -11.41,0.34 -2.57,0.26 -5.99,0.59 -8.33,2.04 -0.35,-1.18 -0.66,-2.38 -0.93,-3.6zm-0.41 -2.01c-0.13,-0.71 -0.25,-1.43 -0.35,-2.15 0.22,0.02 0.43,0.02 0.64,-0.02 -0.05,0.74 0.11,1.54 0.5,2.15 -0.25,0 -0.49,0 -0.74,0l-0.05 0zm55.19 -67.98c-31.82,0 -57.71,25.89 -57.71,57.71 0,31.82 25.89,57.71 57.71,57.71 31.82,0 57.71,-25.89 57.71,-57.71 0,-31.82 -25.89,-57.71 -57.71,-57.71z"/>
  <path class="fil0" d="M16.45 87.08l-0.27 -0.38 0.7 -0.21 -0.43 0.59zm2.36 -1.89l-0.06 -0.08c-0.13,-0.19 -0.37,-0.26 -0.58,-0.2l-4.27 1.29 -0.32 0.26 -0.03 0.41 0.03 0.09c0.09,0.26 0.38,0.41 0.65,0.33l0.8 -0.24 0.7 1 -0.49 0.67c-0.17,0.22 -0.12,0.54 0.1,0.72l0.07 0.05 0.33 0.12 0.07 -0 0.35 -0.21 2.64 -3.6 0.01 -0.62z"/>
  <path class="fil0" d="M20.75 90.56l-1.25 1.09c-0.17,0.14 -0.36,0.18 -0.57,0.15 -0.21,-0.04 -0.36,-0.11 -0.46,-0.23l-0.32 -0.37 2.35 -2.04 0.32 0.38c0.1,0.12 0.16,0.27 0.16,0.48 0,0.24 -0.07,0.4 -0.23,0.54zm0.21 -2.61l-0.36 -0.18 -0.38 0.12 -3.28 2.85 -0.18 0.36 0.13 0.38 0.73 0.84c0.28,0.32 0.66,0.52 1.13,0.61l0.33 0.03c0.44,0 0.83,-0.15 1.17,-0.44l1.25 -1.08c0.42,-0.37 0.64,-0.86 0.63,-1.43 -0.01,-0.48 -0.16,-0.89 -0.44,-1.21l-0.73 -0.84z"/>
  <path class="fil0" d="M27.02 98l-0.37 -0.28 0.61 -0.41 -0.24 0.69zm1.7 -2.51l-0.08 -0.06 -0.61 -0.02 -3.7 2.49 -0.22 0.35 0.09 0.4 0.06 0.08c0.17,0.23 0.48,0.29 0.71,0.13l0.69 -0.46 0.97 0.74 -0.27 0.78c-0.09,0.27 0.04,0.56 0.3,0.66l0.09 0.04 0.19 0.03 0.22 -0.04 0.28 -0.31 1.47 -4.21c0.07,-0.21 0,-0.45 -0.18,-0.59z"/>
  <path class="fil0" d="M32.48 98.05c-0.42,-0.26 -0.87,-0.32 -1.3,-0.19 -0.35,0.11 -0.63,0.33 -0.83,0.65 -0.25,0.4 -0.3,0.85 -0.16,1.28l0.02 0.06 0.15 0.29 0.15 0.26 0.41 0.68 0.16 0.28 0.06 0.16 -0.04 0.25 -0.21 0.15 -0.29 -0.04c-0.02,-0.01 -0.22,-0.15 -0.78,-0.98 -0.14,-0.2 -0.4,-0.28 -0.63,-0.19l-0.09 0.04 -0.29 0.28 0 0.4c0.11,0.27 0.27,0.54 0.48,0.79 0.21,0.26 0.45,0.47 0.7,0.62 0.25,0.16 0.52,0.24 0.79,0.24l0.45 -0.07c0.36,-0.12 0.65,-0.33 0.84,-0.64 0.22,-0.36 0.39,-0.93 -0.04,-1.69 -0.15,-0.24 -0.28,-0.45 -0.39,-0.63l-0.28 -0.45c-0.18,-0.29 -0.09,-0.43 -0.04,-0.5l0.21 -0.17 0.35 0.07c0.06,0.04 0.25,0.18 0.67,0.7 0.15,0.18 0.4,0.24 0.62,0.14l0.09 -0.04 0.28 -0.31 -0.03 -0.42c-0.22,-0.41 -0.56,-0.77 -1.02,-1.05z"/>
  <path class="fil0" d="M38.08 101.77l0.04 -0.09c0.12,-0.26 0.02,-0.57 -0.24,-0.7l-2.12 -1.04c-0.26,-0.13 -0.57,-0.02 -0.7,0.24l-0.04 0.08 -0.03 0.4 0.26 0.3 0.55 0.27 -1.62 3.3 -0.02 0.4 0.27 0.3 0.09 0.04 0.23 0.05c0.2,0 0.38,-0.11 0.47,-0.29l1.62 -3.3 0.55 0.27 0.4 0.03 0.3 -0.27z"/>
  <path class="fil0" d="M41.18 104.21c-0.11,0.3 -0.25,0.37 -0.35,0.39l-0.49 -0.06 -0.52 -0.19 0.42 -1.14 0.52 0.19 0.4 0.27c0.06,0.09 0.12,0.23 0.01,0.53zm-0.02 -1.88l-1.1 -0.41c-0.27,-0.1 -0.57,0.04 -0.67,0.31l-1.49 4.04 0.01 0.4 0.29 0.27 0.09 0.03c0.27,0.11 0.57,-0.04 0.67,-0.31l0.46 -1.24 0.47 0.17 0.18 1.74c0.03,0.27 0.26,0.46 0.52,0.46l0.04 0 0.09 -0.01 0.36 -0.18 0.12 -0.39 -0.15 -1.5c0.54,-0.12 0.96,-0.5 1.19,-1.12 0.27,-0.74 0.07,-1.27 -0.15,-1.58 -0.21,-0.31 -0.53,-0.54 -0.94,-0.69z"/>
  <path class="fil0" d="M46.68 104.01l-1.87 -0.48c-0.28,-0.08 -0.57,0.1 -0.64,0.37l-1.09 4.2c-0.07,0.28 0.09,0.57 0.38,0.64l1.87 0.48 0.13 0.02 0.27 -0.07 0.24 -0.32 0.02 -0.09c0.07,-0.28 -0.1,-0.56 -0.38,-0.63l-1.28 -0.33 0.31 -1.18 0.82 0.21c0.28,0.07 0.56,-0.09 0.64,-0.37l0.02 -0.09 -0.06 -0.4 -0.32 -0.24 -0.82 -0.21 0.19 -0.72 1.28 0.33c0.28,0.08 0.57,-0.09 0.64,-0.37l0.03 -0.1 -0.06 -0.4 -0.32 -0.24z"/>
  <path class="fil0" d="M55.51 107.48l-0.41 0.09 -0.63 -0.03 0.06 -1.22 0.55 0.03c0.2,0.01 0.36,0.06 0.47,0.14 0.09,0.07 0.19,0.19 0.17,0.5 -0.02,0.32 -0.13,0.43 -0.22,0.48zm0.74 -1.89c-0.3,-0.23 -0.67,-0.35 -1.1,-0.38l-1.17 -0.06 -0.38 0.13 -0.17 0.36 -0.22 4.29 0.13 0.38 0.36 0.17 0.09 0 0.03 0c0.28,0 0.51,-0.22 0.52,-0.5l0.07 -1.32 0.55 0.03c0.43,0.02 0.81,-0.06 1.13,-0.26 0.33,-0.2 0.73,-0.6 0.77,-1.41 0.04,-0.79 -0.31,-1.23 -0.62,-1.46z"/>
  <path class="fil0" d="M61.52 109.57l-0.38 -0.13 -1.32 0.06 -0.06 -1.22 0.85 -0.04 0.36 -0.17 0.13 -0.38 -0 -0.09c-0.01,-0.29 -0.26,-0.52 -0.55,-0.5l-0.85 0.04 -0.03 -0.75 1.32 -0.06c0.29,-0.02 0.51,-0.26 0.5,-0.54l-0 -0.09 -0.17 -0.37 -0.38 -0.13 -1.93 0.09c-0.29,0.01 -0.51,0.26 -0.5,0.55l0.21 4.34 0.17 0.36 0.35 0.14 0.03 0 1.93 -0.1c0.29,-0.01 0.51,-0.25 0.5,-0.54l-0 -0.09 -0.17 -0.36z"/>
  <path class="fil0" d="M65.51 106.93c-0.1,0.09 -0.26,0.15 -0.46,0.18l-0.55 0.08 -0.18 -1.2 0.54 -0.08c0.19,-0.03 0.36,-0.01 0.48,0.04 0.1,0.05 0.22,0.15 0.27,0.46 0.05,0.32 -0.04,0.44 -0.12,0.52zm0.75 0.87c0.42,-0.36 0.6,-0.89 0.5,-1.55 -0.12,-0.78 -0.55,-1.15 -0.9,-1.31 -0.33,-0.17 -0.71,-0.22 -1.15,-0.16l-1.16 0.17c-0.29,0.04 -0.48,0.31 -0.44,0.59l0.63 4.25c0.04,0.26 0.26,0.45 0.52,0.45l0.07 -0 0.09 -0.02 0.35 -0.21 0.1 -0.39 -0.2 -1.3 0.5 -0.07 0.99 1.44c0.16,0.23 0.47,0.3 0.71,0.14l0.08 -0.05 0.23 -0.34 -0.08 -0.4 -0.86 -1.24z"/>
  <path class="fil0" d="M74.84 105.38l-0.02 -0.73 0.45 0.57 -0.43 0.16zm-0.18 -2.77c-0.14,-0.18 -0.38,-0.24 -0.59,-0.17l-0.09 0.03c-0.21,0.08 -0.35,0.28 -0.35,0.51l0.13 4.46 0.17 0.37 0.35 0.14 0.04 0 0.09 -0.01c0.28,-0.02 0.5,-0.26 0.49,-0.54l-0.02 -0.83 1.15 -0.42 0.52 0.65c0.17,0.22 0.49,0.26 0.72,0.09l0.07 -0.05 0.21 -0.35 -0.11 -0.4 -2.78 -3.49z"/>
  <path class="fil0" d="M80.22 102.43c-0.28,-0 -0.53,-0.01 -0.74,-0.01l-0.52 -0c-0.3,-0 -0.39,-0.12 -0.45,-0.23l-0.03 -0.27 0.24 -0.25c0.06,-0.03 0.28,-0.11 0.95,-0.19 0.24,-0.03 0.42,-0.21 0.46,-0.45l0.01 -0.09 -0.11 -0.4 -0.37 -0.19c-0.47,-0.04 -0.95,0.06 -1.43,0.3 -0.45,0.21 -0.74,0.56 -0.85,1 -0.1,0.36 -0.06,0.72 0.1,1.05 0.21,0.42 0.55,0.71 1,0.82l0.07 0.01 0.32 0.03 0.29 0.01 0.79 0.01 0.32 0.02 0.17 0.03 0.19 0.18 0.02 0.26 -0.19 0.22c-0.02,0.01 -0.24,0.1 -1.24,0.13 -0.25,0.01 -0.45,0.19 -0.5,0.43l-0.02 0.09 0.08 0.39 0.34 0.22 0.5 0.04 0.44 -0.03c0.33,-0.04 0.64,-0.13 0.89,-0.26 0.41,-0.2 0.69,-0.53 0.8,-0.96 0.1,-0.37 0.07,-0.72 -0.09,-1.05 -0.18,-0.38 -0.57,-0.83 -1.45,-0.87z"/>
  <path class="fil0" d="M84.12 99.96l-0.35 0.35 -0.47 0.29 -0.64 -1.04 0.47 -0.29 0.44 -0.15 0.03 0c0.11,0 0.26,0.05 0.42,0.31 0.17,0.27 0.14,0.42 0.1,0.52zm-0.46 -1.98l-0.08 0c-0.35,0 -0.7,0.11 -1.04,0.31l-0.99 0.61 -0.23 0.32 0.06 0.4 2.25 3.66 0.33 0.23 0.12 0.01 0.28 -0.08 0.08 -0.05c0.25,-0.15 0.32,-0.47 0.17,-0.72l-0.69 -1.12 0.47 -0.29c0.37,-0.23 0.63,-0.52 0.79,-0.85 0.16,-0.35 0.26,-0.91 -0.16,-1.59 -0.41,-0.68 -0.96,-0.84 -1.34,-0.86z"/>
  <path class="fil0" d="M90.59 98.47c-0.18,-0.23 -0.5,-0.27 -0.73,-0.1l-1.05 0.8 -0.74 -0.97 0.67 -0.52c0.23,-0.18 0.27,-0.5 0.1,-0.73l-0.06 -0.07 -0.35 -0.21 -0.39 0.1 -0.68 0.52 -0.45 -0.59 1.05 -0.8 0.2 -0.35 -0.1 -0.39 -0.06 -0.07c-0.17,-0.23 -0.5,-0.28 -0.73,-0.1l-1.54 1.17 -0.2 0.35 0.1 0.39 2.63 3.45 0.42 0.21 0.32 -0.11 1.54 -1.18 0.2 -0.35 -0.1 -0.39 -0.05 -0.07z"/>
  <path class="fil0" d="M92.02 93.83l-0.27 0.41 -0.4 0.38 -0.83 -0.89 0.41 -0.38 0.42 -0.23 0.07 -0c0.05,0 0.2,0 0.41,0.22 0.22,0.24 0.22,0.39 0.19,0.49zm2.52 0.83l-1.41 -0.53c0.14,-0.54 -0.01,-1.08 -0.47,-1.57 -0.43,-0.46 -0.94,-0.66 -1.48,-0.57 -0.37,0.06 -0.72,0.23 -1.04,0.53l-0.85 0.8c-0.21,0.2 -0.22,0.53 -0.02,0.74l2.93 3.14 0.38 0.17 0.36 -0.14 0.07 -0.06 0.17 -0.36 -0.14 -0.38 -0.9 -0.96 0.37 -0.35 1.63 0.62c0.27,0.1 0.56,-0.03 0.67,-0.29l0.04 -0.09 0 -0.41 -0.3 -0.28z"/>
  <path class="fil0" d="M95.67 91.24l-0.37 -0.63 0.68 0.29 -0.31 0.35zm2.63 -0.61l-4.12 -1.73c-0.21,-0.09 -0.45,-0.03 -0.6,0.14l-0.06 0.07c-0.15,0.17 -0.17,0.42 -0.06,0.61l2.26 3.85 0.33 0.24 0.12 0.01 0.28 -0.08 0.08 -0.05c0.24,-0.15 0.31,-0.46 0.17,-0.71l-0.42 -0.72 0.81 -0.92 0.76 0.32c0.26,0.11 0.56,-0.01 0.68,-0.26l0.04 -0.08 0.01 -0.41 -0.29 -0.29z"/>
  <path class="fil0" d="M35.58 20.8l-3.55 -1.84 0.39 -2.69c0.04,-0.29 -0.15,-0.55 -0.44,-0.59l-0.13 -0.02 -0.39 0.09 -0.21 0.35 -0.52 3.56 -1.27 -1.87c-0.16,-0.24 -0.48,-0.31 -0.73,-0.14l-0.11 0.07 -0.22 0.33 0.08 0.39 3.47 5.15 0.44 0.23 0.29 -0.09 0.11 -0.07 0.22 -0.33 -0.08 -0.4 -1.22 -1.81 0.13 -0.91 3.18 1.65c0.25,0.13 0.56,0.03 0.7,-0.21l0.06 -0.12 0.04 -0.41 -0.26 -0.31z"/>
  <path class="fil0" d="M41.95 15.54l-0.04 -2.13 1.31 1.68 -1.27 0.45zm-0.19 -4.24c-0.14,-0.18 -0.38,-0.24 -0.59,-0.17l-0.14 0.05c-0.21,0.08 -0.35,0.28 -0.35,0.51l0.14 6.51 0.17 0.37 0.35 0.14 0.03 0 0.13 -0.01c0.28,-0.02 0.5,-0.25 0.49,-0.53l-0.03 -1.38 2.01 -0.72 0.86 1.09c0.17,0.22 0.49,0.26 0.72,0.1l0.11 -0.08 0.21 -0.35 -0.11 -0.4 -4.02 -5.13z"/>
  <path class="fil0" d="M55.29 8.45l-0.38 -0.12 -0.14 0.02c-0.29,0.03 -0.5,0.28 -0.47,0.57l0.36 3.9 -2.69 -3.95 -0.48 -0.22 -0.15 0.01c-0.29,0.03 -0.5,0.28 -0.47,0.57l0.57 6.18 0.19 0.36 0.33 0.12 0.05 -0 0.13 -0.01c0.29,-0.03 0.5,-0.28 0.47,-0.57l-0.36 -3.9 2.7 3.95 0.48 0.22 0.15 -0.01 0.35 -0.18 0.12 -0.39 -0.57 -6.18 -0.19 -0.35z"/>
  <path class="fil0" d="M63.39 15.75c0.41,0.21 0.82,0.35 1.22,0.41l0.34 0.03c0.46,0 0.87,-0.16 1.23,-0.46 0.38,-0.32 0.61,-0.73 0.68,-1.19 0.09,-0.54 -0.01,-1.32 -0.92,-2.01 -0.33,-0.24 -0.63,-0.45 -0.88,-0.63 -0.25,-0.17 -0.46,-0.32 -0.62,-0.43 -0.47,-0.33 -0.48,-0.65 -0.45,-0.88 0.03,-0.2 0.12,-0.36 0.27,-0.49 0.18,-0.15 0.41,-0.2 0.7,-0.16 0.14,0.02 0.51,0.13 1.37,0.58 0.21,0.11 0.47,0.07 0.63,-0.11l0.09 -0.1 0.14 -0.39 -0.19 -0.37c-0.5,-0.41 -1.12,-0.67 -1.86,-0.78 -0.65,-0.1 -1.21,0.05 -1.65,0.43 -0.37,0.32 -0.59,0.72 -0.67,1.2 -0.1,0.61 0.07,1.17 0.47,1.62l0.05 0.05 0.35 0.29 0.33 0.25 0.94 0.67 0.39 0.31 0.21 0.21c0.12,0.16 0.16,0.34 0.13,0.54l-0.28 0.48c-0.18,0.15 -0.38,0.2 -0.61,0.16 -0.09,-0.01 -0.48,-0.12 -1.7,-0.91 -0.21,-0.13 -0.48,-0.11 -0.65,0.07l-0.09 0.1 -0.15 0.37 0.15 0.37c0.29,0.29 0.64,0.54 1.05,0.75z"/>
  <path class="fil0" d="M76.28 14.5l-0.18 2.12 -1.24 -0.53 1.41 -1.59zm-3.89 3.61c0.22,0.18 0.54,0.16 0.73,-0.05l0.92 -1.03 1.96 0.84 -0.12 1.38c-0.02,0.28 0.18,0.53 0.46,0.56l0.14 0.02 0.07 0 0.33 -0.11 0.2 -0.36 0.55 -6.5c0.02,-0.23 -0.11,-0.44 -0.32,-0.53l-0.13 -0.06c-0.21,-0.09 -0.45,-0.04 -0.6,0.13l-4.33 4.87 -0.13 0.39 0.19 0.36 0.11 0.09z"/>
  <path class="fil0" d="M82.78 23.59c0.26,0.38 0.55,0.7 0.87,0.95 0.36,0.28 0.76,0.42 1.18,0.42l0.41 -0.04c0.49,-0.1 0.88,-0.35 1.17,-0.72 0.33,-0.43 0.63,-1.16 0.16,-2.21 -0.18,-0.38 -0.34,-0.7 -0.47,-0.97l-0.34 -0.68c-0.25,-0.52 -0.12,-0.8 0.03,-0.99 0.12,-0.16 0.27,-0.25 0.47,-0.3 0.22,-0.05 0.45,0.01 0.69,0.2 0.12,0.09 0.39,0.36 0.92,1.17 0.13,0.2 0.38,0.28 0.61,0.21l0.13 -0.05 0.31 -0.28 0.01 -0.42c-0.24,-0.59 -0.67,-1.12 -1.25,-1.58 -0.52,-0.4 -1.09,-0.54 -1.66,-0.42 -0.48,0.1 -0.87,0.35 -1.16,0.73 -0.38,0.49 -0.5,1.05 -0.37,1.65l0.02 0.06 0.17 0.43 0.17 0.38 0.51 1.04 0.2 0.46 0.08 0.29c0.02,0.2 -0.02,0.37 -0.15,0.54 -0.12,0.15 -0.27,0.24 -0.48,0.29 -0.22,0.05 -0.42,0 -0.62,-0.15 -0.07,-0.06 -0.36,-0.34 -1.06,-1.61 -0.12,-0.22 -0.37,-0.32 -0.61,-0.25l-0.13 0.04 -0.31 0.25 -0.04 0.4c0.11,0.39 0.3,0.78 0.56,1.16z"/>
  <path class="fil0" d="M46.23 63.21c-0.11,0.27 -0.13,0.55 -0.14,0.85 -0.01,0.26 0.04,0.48 0.08,0.74 0.07,0.42 0.76,0.38 0.83,-0.02 0.08,-0.47 0.16,-1.03 -0.03,-1.48 -0.12,-0.28 -0.59,-0.44 -0.74,-0.08z"/>
  <path class="fil0" d="M44.06 58.55c-0.21,0.41 -0.15,0.88 -0.06,1.3 0.1,0.42 0.74,0.38 0.83,-0.02 0.09,-0.4 0.14,-0.89 -0.07,-1.3 -0.14,-0.27 -0.57,-0.24 -0.7,0.01z"/>
  <path class="fil0" d="M41.99 63.13l-0.41 0.02c-0.3,0.2 -0.28,0.51 -0.29,0.83 -0.01,0.28 0.02,0.54 0.07,0.81 0.04,0.22 0.28,0.33 0.49,0.31l0.06 -0.01 0.02 0 0.02 -0.01 0.29 -0.32c0.05,-0.27 0.07,-0.53 0.07,-0.81 -0.01,-0.34 0,-0.61 -0.31,-0.82z"/>
  <path class="fil0" d="M86.12 37.15c0.03,-0.6 0,-1.22 -0.12,-1.81 -0.08,-0.4 -0.71,-0.36 -0.78,0.02 -0.12,0.59 -0.14,1.21 -0.11,1.82 0.03,0.65 0.98,0.62 1.01,-0.03z"/>
  <path class="fil0" d="M85.22 41.78c-0.12,0.59 -0.14,1.21 -0.11,1.81 0.03,0.65 0.98,0.62 1.01,-0.03 0.03,-0.6 0,-1.22 -0.12,-1.81 -0.08,-0.4 -0.71,-0.36 -0.78,0.02z"/>
  <path class="fil0" d="M84.01 37.74c0.36,0.55 1.15,0.04 0.86,-0.53 -0.26,-0.51 -0.59,-0.98 -0.94,-1.42l-0.46 -0.17c-0.2,0.06 -0.35,0.3 -0.27,0.5 0.22,0.56 0.48,1.12 0.81,1.63z"/>
  <path class="fil0" d="M87.14 41.35l-0.46 -0.18c-0.2,0.06 -0.35,0.3 -0.27,0.51 0.22,0.56 0.48,1.12 0.81,1.62 0.36,0.55 1.15,0.04 0.86,-0.53 -0.26,-0.51 -0.59,-0.98 -0.94,-1.42z"/>
  <path class="fil0" d="M83.33 38.78c0.59,0.3 1.03,-0.53 0.49,-0.89 -0.48,-0.31 -1,-0.55 -1.52,-0.77l-0.49 0.08 0.01 0.58c0.47,0.37 0.97,0.72 1.51,1z"/>
  <path class="fil0" d="M89.38 41.11c-0.48,-0.31 -1,-0.56 -1.52,-0.77l-0.49 0.07 0.02 0.58c0.47,0.38 0.97,0.72 1.51,1 0.59,0.3 1.03,-0.53 0.49,-0.89z"/>
  <path class="fil0" d="M83.27 40.02c0.66,-0.03 0.62,-0.98 -0.02,-1.01 -0.6,-0.03 -1.22,-0 -1.81,0.12 -0.4,0.08 -0.36,0.71 0.02,0.78 0.59,0.12 1.21,0.14 1.81,0.11z"/>
  <path class="fil0" d="M87.88 39.91c0.59,0.12 1.21,0.14 1.81,0.11 0.66,-0.03 0.62,-0.98 -0.03,-1.01 -0.6,-0.03 -1.22,-0 -1.81,0.12 -0.4,0.08 -0.36,0.71 0.02,0.78z"/>
  <path class="fil0" d="M83.31 40.26c-0.51,0.26 -0.98,0.59 -1.42,0.94l-0.18 0.46c0.06,0.19 0.3,0.35 0.51,0.27 0.56,-0.22 1.11,-0.47 1.62,-0.81 0.55,-0.36 0.04,-1.15 -0.53,-0.86z"/>
  <path class="fil0" d="M87.27 38.46c0.06,0.2 0.3,0.35 0.51,0.27 0.56,-0.22 1.12,-0.48 1.62,-0.81 0.55,-0.36 0.04,-1.15 -0.53,-0.86 -0.51,0.25 -0.98,0.58 -1.42,0.93l-0.18 0.47z"/>
  <path class="fil0" d="M84 41.32c-0.31,0.47 -0.56,1 -0.77,1.52l0.08 0.49 0.57 -0.02c0.37,-0.47 0.73,-0.97 1,-1.51 0.3,-0.59 -0.53,-1.03 -0.88,-0.49z"/>
  <path class="fil0" d="M87.09 37.76c0.37,-0.47 0.72,-0.97 1,-1.51 0.3,-0.59 -0.53,-1.03 -0.88,-0.49 -0.31,0.47 -0.56,0.99 -0.77,1.52l0.08 0.49 0.57 -0.02z"/>
  <path class="fil0" d="M91.5 39.93l0.1 0.01 0.15 0.11c0.28,0.14 0.69,0.2 0.99,0.09 0.73,-0.27 0.66,-1.19 -0.04,-1.44 -0.3,-0.11 -0.72,-0.03 -0.98,0.11l-0.17 0.14 -0.09 -0.03c-0.21,0.03 -0.33,0.07 -0.49,0.22l0.01 0.58c0.16,0.15 0.3,0.18 0.5,0.21z"/>
  <path class="fil0" d="M86.32 39.14c-0.2,-0.32 -0.72,-0.51 -1.05,-0.25l-0.02 0.01c-0.32,0.26 -0.49,0.67 -0.25,1.05 0.24,0.39 0.89,0.51 1.2,0.12l0.01 -0.02c0.22,-0.27 0.29,-0.61 0.1,-0.92z"/>
  <path class="fil0" d="M54.17 61.71c0.44,0.06 0.75,-0.55 0.3,-0.77l-0.22 -0.13c0.2,-0.19 0.36,-0.43 0.47,-0.71 0.19,-0.48 -0.43,-0.86 -0.72,-0.4l-0.37 0.54 -0.16 -0.3c-0.2,-0.51 -1,-0.29 -0.83,0.25 0.22,0.7 0.77,1.39 1.54,1.5z"/>
  <path class="fil0" d="M58.77 60.17c0.36,-0.28 0.48,-0.71 0.45,-1.15 -0.03,-0.44 -0.75,-0.57 -0.81,-0.09 -0.03,0.24 -0.1,0.47 -0.23,0.68 -0.2,0.34 0.25,0.82 0.58,0.55z"/>
  <path class="fil0" d="M22.88 60.04l-0.42 0.32c-0.39,0.14 -0.42,0.74 0.02,0.84 0.51,0.11 1.07,-0.22 1.14,-0.76 0.03,-0.2 -0.03,-0.38 -0.21,-0.48l-0.52 0.08z"/>
  <path class="fil0" d="M21.83 61.97c-0.78,0.47 -1.62,0.86 -2.53,0.44 -0.5,-0.23 -0.84,0.42 -0.41,0.74 1.14,0.82 2.74,0.57 3.56,-0.59 0.27,-0.38 -0.27,-0.8 -0.62,-0.59z"/>
  <path class="fil0" d="M9.77 60.85c-0.07,0.21 -0.19,0.41 -0.31,0.6 -0.22,0.36 0.25,0.81 0.6,0.57 0.41,-0.28 0.63,-0.68 0.54,-1.18 -0.09,-0.46 -0.71,-0.34 -0.83,0.02z"/>
  <path class="fil0" d="M20.2 58.61c0.09,-0.53 -0.66,-0.72 -0.81,-0.2 -0.07,0.22 -0.16,0.44 -0.29,0.65l-0.13 -0.14c-0.13,-0.19 -0.15,-0.45 -0.15,-0.68 -0.02,-0.48 -0.7,-0.54 -0.82,-0.09 -0.13,0.47 -0.02,1.09 0.31,1.51l-0.09 0.02c-0.44,0.05 -0.56,0.69 -0.09,0.8 1.18,0.28 1.9,-0.86 2.08,-1.86z"/>
  <path class="fil0" d="M111.32 62.25c-0.08,0.24 -0.17,0.47 -0.22,0.72 -0.05,0.26 -0.05,0.52 -0.06,0.78 -0.03,0.51 0.69,0.52 0.84,0.09 0.08,-0.24 0.17,-0.48 0.21,-0.73 0.04,-0.26 0.04,-0.52 0.06,-0.78 0.03,-0.5 -0.68,-0.51 -0.82,-0.09z"/>
  <path class="fil0" d="M104.41 65.13c-0.11,0.41 -0.08,0.89 0.09,1.28 0.18,0.42 0.86,0.38 0.84,-0.14 -0.01,-0.38 -0.01,-0.79 -0.11,-1.16 -0.11,-0.42 -0.72,-0.38 -0.83,0.02z"/>
  <path class="fil0" d="M77.15 63.28c-0.73,-0.06 -1.8,0.24 -2.47,0.82 -1.49,-0.7 -3.64,-0.54 -4.8,0.67 -0.85,-0.6 -2.28,-0.45 -3.04,0.29 -0.59,-0.31 -1.31,-0.43 -1.93,-0.36 -0.47,0.06 -0.63,0.8 -0.1,0.88 0.99,0.15 2.05,0.31 2.31,1.44 0.1,0.4 0.77,0.4 0.84,-0.02 0.07,-0.49 -0.05,-0.91 -0.3,-1.25 0.55,-0.3 1.18,-0.53 1.71,-0.24 -0.1,0.21 -0.18,0.44 -0.24,0.68 -0.1,0.5 0.56,0.76 0.83,0.32 0.49,-0.78 0.9,-1.39 1.81,-1.72 0.78,-0.28 1.61,-0.19 2.38,0.03 -0.09,0.26 -0.11,0.56 -0,0.87 0.12,0.37 0.72,0.4 0.8,-0.02 0.16,-0.84 0.97,-1.39 1.78,-1.54 -0.06,0.26 -0.06,0.55 0,0.85 0.11,0.51 0.89,0.36 0.88,-0.14 -0.01,-1.34 1.48,-1.86 2.55,-1.31 0.43,0.21 0.89,-0.35 0.51,-0.69 -1.05,-0.92 -2.73,-0.56 -3.53,0.44z"/>
 </g>
</svg>
