<?xml version="1.0" encoding="UTF-8"?>
<svg xmlns="http://www.w3.org/2000/svg" xml:space="preserve" width="0.747331in" height="0.747331in" version="1.1" style="shape-rendering:geometricPrecision; text-rendering:geometricPrecision; image-rendering:optimizeQuality; fill-rule:evenodd; clip-rule:evenodd"
viewBox="0 0 160.58 160.58"
 xmlns:xlink="http://www.w3.org/1999/xlink"
 xmlns:xodm="http://www.corel.com/coreldraw/odm/2003">
 <defs>
  <style type="text/css">
   <![CDATA[
    .fil0 {fill:black;fill-rule:nonzero}
   ]]>
  </style>
 </defs>
 <g id="Layer_x0020_1">
  <metadata id="CorelCorpID_0Corel-Layer"/>
  <path class="fil0" d="M158.17 84.94c-2.41,-0.69 -5.08,-1.12 -7.56,-1.48 -6.59,-0.96 -12.2,1.19 -18.29,3.09 -0.83,0.26 -0.6,1.46 0.24,1.48 1.96,0.05 3.65,-0.84 5.51,-1.35 2.73,-0.74 5.53,-1.07 8.35,-1.21 3.01,-0.15 5.92,0.44 8.8,1.27 0.89,0.25 1.85,0.24 2.71,0.56l0.12 0.18c-3.64,39.71 -37.13,70.91 -77.77,70.91 -39.93,0 -72.95,-30.12 -77.55,-68.83 8.43,-0.12 16.48,-1.87 24.43,-4.66 2.07,-0.73 4.41,-1.9 6.65,-1.9 4.95,0 9.28,2.72 14.25,1.05 1.03,-0.34 0.54,-1.75 -0.48,-1.58 -4.9,0.81 -9.3,-1.5 -14.12,-1.49 -2.08,0 -4.29,1.08 -6.2,1.76 -8.06,2.89 -16.13,5.02 -24.7,5.3 -0.22,-2.27 -0.35,-4.57 -0.37,-6.89 8.24,0.03 16.57,-4.27 24.07,-7.09 4.6,-1.73 8.58,-2.9 13.47,-1.55 4.2,1.16 8.58,4.24 13.04,3.93 1.04,-0.07 1.61,-1.63 0.52,-2.12 -3.98,-1.81 -8.68,-3.19 -12.91,-4.4 -4.19,-1.2 -7.92,-0.54 -11.93,0.91 -8.71,3.16 -17.03,7.14 -26.26,8.46 0.54,-42.61 35.36,-77.1 78.09,-77.1 40.75,0 74.31,31.38 77.8,71.24 -1.59,-0.53 -3.76,-0.23 -5.29,-0.44 -4.91,-0.68 -9.46,-2.89 -14.39,-3.57 -8.68,-1.21 -15.23,5.56 -23.56,6.46 -0.88,0.09 -1.16,1.47 -0.18,1.64 7.15,1.23 12.81,-5.3 19.72,-5.82 4.7,-0.35 9.67,1.92 14.11,3.2 3.21,0.92 6.68,0.65 9.79,1.66 0.06,1.24 0.09,2.48 0.09,3.74 0,1.57 -0.05,3.12 -0.14,4.67l-0.07 -0.02zm-77.88 -84.94c-44.27,0 -80.29,36.02 -80.29,80.29 0,44.27 36.02,80.29 80.29,80.29 44.27,0 80.29,-36.02 80.29,-80.29 0,-44.27 -36.02,-80.29 -80.29,-80.29z"/>
  <path class="fil0" d="M11.04 97.29l4.18 -0.88c0.31,-0.07 0.52,-0.38 0.45,-0.69l-0.03 -0.13 -0.25 -0.37 -0.44 -0.08 -4.18 0.88c-0.28,0.06 -0.51,0.02 -0.75,-0.14 -0.23,-0.15 -0.37,-0.35 -0.43,-0.63 -0.06,-0.28 -0.01,-0.52 0.14,-0.75 0.15,-0.23 0.36,-0.37 0.63,-0.43l4.18 -0.88 0.37 -0.25 0.08 -0.44 -0.03 -0.13c-0.07,-0.31 -0.38,-0.51 -0.69,-0.44l-4.18 0.88c-0.62,0.13 -1.1,0.46 -1.45,0.99 -0.35,0.53 -0.45,1.11 -0.32,1.72 0.13,0.62 0.46,1.11 0.98,1.45 0.38,0.25 0.8,0.38 1.23,0.38l0.49 -0.05z"/>
  <path class="fil0" d="M17.18 101.05l-0.04 -0.13 -0.28 -0.35 -0.44 -0.04 -3.27 0.98 2.95 -3.03 0.14 -0.58 -0.04 -0.13c-0.09,-0.31 -0.42,-0.48 -0.73,-0.39l-5.66 1.7 -0.35 0.28 -0.04 0.44 0.04 0.13c0.09,0.31 0.42,0.48 0.73,0.39l3.27 -0.98 -2.95 3.03 -0.14 0.57 0.04 0.14 0.55 0.42 0.17 -0.03 5.66 -1.7c0.31,-0.09 0.48,-0.41 0.39,-0.72z"/>
  <path class="fil0" d="M18.53 104.72l-0.05 -0.12 -0.31 -0.32 -0.44 -0.01 -5.5 2.18c-0.3,0.12 -0.44,0.45 -0.33,0.76l0.05 0.12 0.31 0.32 0.23 0.05 0.21 -0.04 5.51 -2.17c0.3,-0.12 0.44,-0.46 0.32,-0.76z"/>
  <path class="fil0" d="M20.38 111.75c0.14,0.29 0.49,0.4 0.78,0.26l0.12 -0.06 0.3 -0.33 -0.03 -0.45 -1.46 -2.94c-0.14,-0.29 -0.49,-0.41 -0.78,-0.26l-0.12 0.06 -0.3 0.34 0.03 0.44 0.44 0.89 -4.71 2.34 -0.29 0.34 0.03 0.44 0.06 0.12 0.53 0.32 0.26 -0.06 4.72 -2.34 0.44 0.89z"/>
  <path class="fil0" d="M18.08 117.04l1.7 -1.03 0.69 1.13c0.16,0.27 0.52,0.36 0.8,0.2l0.11 -0.07 0.27 -0.36 -0.07 -0.44 -0.69 -1.13 1.14 -0.69 1.02 1.7 0.36 0.27 0.44 -0.07 0.11 -0.07c0.27,-0.17 0.36,-0.52 0.2,-0.8l-1.39 -2.3c-0.16,-0.28 -0.52,-0.37 -0.8,-0.2l-5.17 3.13c-0.28,0.16 -0.36,0.52 -0.2,0.8l1.39 2.3 0.5 0.28 0.3 -0.08 0.1 -0.07 0.27 -0.35 -0.07 -0.44 -1.02 -1.69z"/>
  <path class="fil0" d="M25.14 121.41l-1.86 1.35c-0.29,0.2 -0.58,0.25 -0.93,0.16 -0.31,-0.08 -0.54,-0.22 -0.69,-0.42l-0.49 -0.68 3.74 -2.71 0.49 0.67c0.15,0.2 0.21,0.46 0.19,0.78 -0.02,0.36 -0.17,0.63 -0.45,0.83zm0.41 -3.63l-0.38 -0.23 -0.43 0.1 -4.89 3.55 -0.13 0.81 0.9 1.25c0.33,0.45 0.8,0.76 1.41,0.92l0.64 0.08c0.49,0 0.95,-0.15 1.37,-0.45l1.86 -1.35c0.59,-0.43 0.93,-1.05 0.98,-1.8 0.04,-0.63 -0.1,-1.18 -0.43,-1.63l-0.9 -1.25z"/>
  <path class="fil0" d="M35.8 130.06l-0.07 -0.44 -0.07 -0.11 -0.81 -0.17 -3.1 2.01 0.9 -1.83 -0.12 -0.67 -0.67 -0.1 -1.82 0.94 1.96 -3.14c0.17,-0.27 0.08,-0.64 -0.19,-0.81l-0.11 -0.07 -0.44 -0.07 -0.36 0.26 -3.2 5.12 0.09 0.73 0.1 0.1 0.67 0.1 1.97 -1.01 -0.98 1.98 0.11 0.67 0.1 0.1 0.41 0.16 0.32 -0.1 5.07 -3.28 0.25 -0.37z"/>
  <polygon class="fil0" points="36.83,130.42 36.01,130.49 32.15,135.14 32.22,135.96 34.29,137.68 34.66,137.81 35.11,137.61 35.19,137.51 35.32,137.08 35.12,136.69 33.59,135.42 34.87,133.89 35.89,134.74 36.71,134.66 36.79,134.56 36.92,134.14 36.72,133.74 35.7,132.89 36.55,131.87 38.07,133.14 38.89,133.06 38.98,132.96 39.11,132.53 38.9,132.14 "/>
  <path class="fil0" d="M46.74 137.52c-0.55,-0.33 -1.14,-0.39 -1.69,-0.2 -0.46,0.16 -0.81,0.46 -1.06,0.87 -0.3,0.53 -0.36,1.11 -0.16,1.67l0.03 0.07 0.21 0.39 0.21 0.35 0.61 0.92 0.23 0.4 0.1 0.25 -0.07 0.46 -0.37 0.29 -0.53 -0.06c-0.05,-0.03 -0.35,-0.24 -1.17,-1.37l-0.71 -0.19 -0.12 0.05 -0.31 0.32 0.01 0.45c0.16,0.36 0.39,0.71 0.69,1.05 0.3,0.34 0.62,0.61 0.96,0.81 0.32,0.18 0.65,0.28 0.98,0.28l0.63 -0.11c0.47,-0.16 0.83,-0.45 1.06,-0.86 0.27,-0.47 0.47,-1.22 -0.12,-2.19 -0.22,-0.33 -0.41,-0.62 -0.57,-0.87l-0.4 -0.6c-0.27,-0.42 -0.2,-0.66 -0.09,-0.85l0.37 -0.3 0.6 0.1c0.12,0.07 0.4,0.28 0.99,0.98l0.7 0.14 0.12 -0.06 0.3 -0.35 -0.05 -0.46c-0.31,-0.55 -0.78,-1.01 -1.4,-1.37z"/>
  <path class="fil0" d="M53.58 141.85l0.06 -0.12 0.02 -0.45 -0.3 -0.33 -2.97 -1.41c-0.3,-0.14 -0.64,-0.01 -0.78,0.28l-0.06 0.12 -0.02 0.45 0.3 0.33 0.9 0.43 -2.26 4.75c-0.14,0.29 -0.02,0.64 0.27,0.78l0.12 0.06 0.25 0.06 0.19 -0.03 0.33 -0.3 2.26 -4.76 0.9 0.43c0.29,0.14 0.64,0.02 0.78,-0.27z"/>
  <path class="fil0" d="M55.95 146.59l-0.98 -0.37 1.05 -1.29 -0.07 1.66zm1.05 -4.09l-0.14 -0.05 -0.65 0.18 -3.91 4.83 -0.13 0.44 0.23 0.4 0.1 0.08 0.8 -0.1 0.8 -0.98 1.79 0.67 -0.05 1.26c-0.01,0.31 0.23,0.58 0.54,0.6l0.13 0.01 0.04 0 0.39 -0.15 0.19 -0.41 0.24 -6.2 -0.38 -0.57z"/>
  <path class="fil0" d="M64.21 144.93l-0.35 -0.28 -0.13 -0.04c-0.31,-0.09 -0.63,0.09 -0.72,0.4l-0.93 3.29 -0.97 -4.12 -0.41 -0.43 -0.13 -0.04 -0.44 0.05 -0.27 0.35 -1.61 5.69 0.05 0.44 0.35 0.28 0.12 0.03c0.31,0.09 0.63,-0.09 0.72,-0.4l0.93 -3.28 0.97 4.12 0.41 0.42 0.13 0.04 0.16 0.02 0.56 -0.42 1.61 -5.69 -0.05 -0.44z"/>
  <path class="fil0" d="M67.7 150.27c-0.07,0.34 -0.25,0.58 -0.57,0.76 -0.29,0.15 -0.55,0.21 -0.79,0.16l-0.82 -0.16 0.87 -4.53 0.82 0.16 0.68 0.44c0.23,0.28 0.31,0.57 0.24,0.91l-0.43 2.26zm-0.24 -4.89l-1.52 -0.29c-0.31,-0.06 -0.62,0.15 -0.68,0.46l-1.15 5.93 0.09 0.44 0.37 0.25 1.52 0.29 0.42 0.04c0.42,0 0.82,-0.11 1.24,-0.33 0.66,-0.36 1.08,-0.93 1.21,-1.65l0.44 -2.26c0.15,-0.72 -0.04,-1.41 -0.51,-1.98 -0.4,-0.49 -0.88,-0.79 -1.43,-0.9z"/>
  <path class="fil0" d="M72.82 152.24l-0.12 -0.04c-0.3,-0.1 -0.62,0.06 -0.73,0.35l-0.47 1.27 0.02 0.45 0.33 0.3 0.12 0.04 0.2 0.04 0.55 -0.38 0.47 -1.28 -0.02 -0.45 -0.34 -0.3z"/>
  <path class="fil0" d="M85.09 152.07l-0.72 0.36 -0.84 0.04 -0.27 -4.61 0.89 -0.05 0.71 0.26c0.29,0.22 0.44,0.48 0.46,0.83l0.13 2.29c0.02,0.35 -0.09,0.63 -0.36,0.87zm0.54 -5.04c-0.51,-0.37 -1.06,-0.55 -1.61,-0.51l-1.54 0.09 -0.4 0.19 -0.15 0.42 0.35 6.03 0.19 0.4 0.39 0.15 0.03 0 1.54 -0.09c0.56,-0.03 1.07,-0.26 1.54,-0.69 0.55,-0.51 0.81,-1.16 0.77,-1.9l-0.13 -2.29c-0.04,-0.73 -0.38,-1.36 -0.98,-1.8z"/>
  <path class="fil0" d="M90.21 146.12l-0.44 -0.11 -0.13 0.02c-0.32,0.04 -0.54,0.34 -0.5,0.66l0.83 5.86 0.23 0.38 0.35 0.12 0.08 -0.01 0.13 -0.02c0.32,-0.05 0.54,-0.34 0.5,-0.66l-0.83 -5.86 -0.23 -0.38z"/>
  <path class="fil0" d="M97.35 144.57l-0.13 -0.01 -0.43 0.12 -0.22 0.4 -0.41 4.27 -2.23 -3.66 -0.36 -0.27 -0.45 0.08 -0.11 0.07c-0.27,0.17 -0.36,0.52 -0.19,0.79l3.22 5.31 0.5 0.28 0.13 -0.02 0.14 -0.03 0.45 -0.51 0.6 -6.18c0.03,-0.32 -0.2,-0.6 -0.51,-0.64z"/>
  <path class="fil0" d="M101.32 143.9c-0.1,-0.31 -0.42,-0.48 -0.73,-0.38l-0.13 0.04 -0.34 0.29 -0.04 0.44 1.8 5.64 0.29 0.34 0.27 0.07 0.18 -0.03 0.13 -0.04c0.31,-0.1 0.47,-0.43 0.38,-0.73l-1.8 -5.63z"/>
  <path class="fil0" d="M108.4 146.52c-0.15,0.29 -0.34,0.48 -0.57,0.57l-0.77 0.32 -1.78 -4.26 0.77 -0.32c0.23,-0.1 0.5,-0.1 0.81,-0 0.35,0.11 0.57,0.31 0.71,0.63l0.88 2.12c0.13,0.32 0.12,0.62 -0.06,0.94zm0.37 -3.56c-0.28,-0.68 -0.81,-1.15 -1.52,-1.37 -0.6,-0.19 -1.18,-0.17 -1.69,0.04l-1.43 0.59 -0.32 0.32 0 0.44 2.32 5.58 0.31 0.32 0.22 0.04 0.23 -0.04 1.43 -0.59c0.51,-0.21 0.92,-0.6 1.22,-1.16 0.35,-0.66 0.38,-1.37 0.11,-2.05l-0.88 -2.12z"/>
  <path class="fil0" d="M115.4 144.14l-0.34 -0.29 -0.45 0.04 -1.76 0.91 -0.92 -1.77 1.18 -0.61 0.29 -0.34 -0.04 -0.44 -0.06 -0.12c-0.15,-0.28 -0.5,-0.4 -0.79,-0.25l-1.18 0.61 -0.61 -1.18 1.76 -0.91c0.29,-0.15 0.39,-0.5 0.25,-0.78l-0.06 -0.12 -0.34 -0.29 -0.45 0.04 -2.39 1.24 -0.29 0.34 0.03 0.45 2.78 5.36 0.52 0.31 0.27 -0.06 2.39 -1.24c0.28,-0.15 0.39,-0.5 0.25,-0.79l-0.06 -0.11z"/>
  <path class="fil0" d="M119.02 140.92c-0.1,0.31 -0.25,0.53 -0.47,0.66l-0.7 0.44 -2.46 -3.91 0.71 -0.44c0.21,-0.13 0.49,-0.18 0.79,-0.14 0.36,0.05 0.62,0.21 0.8,0.5l1.22 1.95c0.19,0.29 0.22,0.59 0.1,0.94zm-0.23 -3.58c-0.39,-0.62 -0.98,-1 -1.72,-1.1 -0.64,-0.08 -1.19,0.03 -1.66,0.32l-1.31 0.82 -0.26 0.36 0.07 0.44 3.21 5.12 0.36 0.26 0.13 0.01 0.31 -0.09 1.31 -0.82c0.47,-0.3 0.81,-0.75 1.01,-1.35 0.24,-0.71 0.15,-1.41 -0.24,-2.03l-1.23 -1.95z"/>
  <path class="fil0" d="M127.37 128.24l-0.35 -0.28 -0.44 0.05 -0.11 0.07c-0.28,0.16 -0.38,0.51 -0.22,0.79l1.8 3.23 -1.76 -1.02 -0.68 0.07 -0.15 0.67 0.82 1.87 -3 -2.16 -0.81 0.13 -0.08 0.11 -0.1 0.43 0.24 0.38 4.9 3.53 0.34 0.11 0.39 -0.15 0.1 -0.09 0.15 -0.66 -0.88 -2.03 1.91 1.11 0.68 -0.07 0.1 -0.09 0.12 -0.72 -2.94 -5.28z"/>
  <polygon class="fil0" points="134.41,129.06 133.99,128.9 133.58,129.08 132.22,130.51 130.77,129.14 131.69,128.18 131.85,127.77 131.67,127.36 131.57,127.27 130.75,127.29 129.83,128.25 128.87,127.34 130.23,125.9 130.21,125.08 130.12,124.98 129.7,124.82 129.29,125.01 127.44,126.96 127.46,127.78 131.84,131.94 132.24,132.1 132.67,131.92 134.52,129.97 134.5,129.15 "/>
  <path class="fil0" d="M138.21 120.07l1.11 -1.64 0.09 -0.44 -0.25 -0.37 -0.11 -0.07 -0.81 0.16 -1.11 1.64 -1.1 -0.75 1.11 -1.64 0.09 -0.44 -0.24 -0.37 -0.11 -0.07c-0.27,-0.18 -0.63,-0.1 -0.81,0.16l-1.5 2.23 -0.09 0.44 0.24 0.37 4.96 3.34 0.33 0.1 0.11 -0.01 0.37 -0.25 0.07 -0.1 -0.16 -0.81 -2.19 -1.47z"/>
  <path class="fil0" d="M141.7 115.14l-1.12 -1.23 1.63 0.31 -0.51 0.92zm3.34 -1.7l-6.1 -1.16 -0.62 0.29 -0.07 0.12 0.08 0.68 4.19 4.58 0.41 0.19 0.01 0 0.41 -0.17 0.09 -0.09 0.02 -0.81 -0.85 -0.93 0.94 -1.67 1.24 0.23c0.3,0.06 0.61,-0.13 0.68,-0.44l0.03 -0.13 -0.08 -0.45 -0.38 -0.25z"/>
  <path class="fil0" d="M147.43 108.6c-0.29,-0.13 -0.64,0 -0.77,0.29l-0.82 1.8 -4.8 -2.18 -0.44 -0.01 -0.33 0.3 -0.05 0.12c-0.13,0.29 -0,0.64 0.29,0.77l5.44 2.47 0.24 0.05 0.53 -0.34 1.11 -2.45 0.01 -0.44 -0.3 -0.33 -0.12 -0.05z"/>
  <path class="fil0" d="M142.75 104.58l5.63 2.01 0.19 0.03 0.25 -0.06 0.3 -0.33 0.9 -2.54c0.1,-0.3 -0.05,-0.64 -0.36,-0.74l-0.12 -0.04 -0.44 0.02 -0.3 0.33 -0.66 1.87 -4.97 -1.76 -0.45 0.02 -0.29 0.33 -0.05 0.12c-0.11,0.3 0.05,0.64 0.36,0.74z"/>
  <path class="fil0" d="M46.52 30.84l-5.08 -2.26 0.32 -3.77c0.04,-0.4 -0.26,-0.75 -0.66,-0.79l-0.19 -0.02 -0.54 0.17 -0.26 0.49 -0.42 4.98 -1.91 -2.5c-0.24,-0.32 -0.7,-0.38 -1.02,-0.13l-0.15 0.11 -0.28 0.48 0.14 0.54 5.24 6.86 0.58 0.29 0.44 -0.15 0.15 -0.11 0.28 -0.49 -0.14 -0.54 -1.85 -2.41 0.11 -1.28 4.55 2.04c0.36,0.16 0.79,0 0.96,-0.36l0.08 -0.17 0.02 -0.56 -0.39 -0.42z"/>
  <path class="fil0" d="M56.8 25.75l-0.08 -0.16 -0.42 -0.37 -0.55 0.03 -2.71 1.32 -1.38 -2.84 1.85 -0.9 0.37 -0.42 -0.04 -0.55 -0.08 -0.18c-0.18,-0.36 -0.61,-0.51 -0.97,-0.33l-1.85 0.9 -0.96 -1.96 2.71 -1.32 0.37 -0.42 -0.04 -0.55 -0.08 -0.17c-0.18,-0.36 -0.61,-0.51 -0.98,-0.34l-3.53 1.72c-0.36,0.18 -0.51,0.61 -0.34,0.97l3.85 7.93 0.42 0.37 0.24 0.04 0.32 -0.07 3.53 -1.72c0.36,-0.17 0.52,-0.61 0.34,-0.97z"/>
  <path class="fil0" d="M62.42 23.54l0.33 0.45 0.37 0.1 0.19 -0.02 0.18 -0.04c0.39,-0.1 0.62,-0.5 0.52,-0.89l-1.35 -5.28 4.57 4.83 0.71 0.2 0.2 -0.05c0.39,-0.1 0.63,-0.5 0.53,-0.89l-2.14 -8.36c-0.1,-0.39 -0.5,-0.63 -0.89,-0.53l-0.19 0.04 -0.45 0.33 -0.07 0.55 1.35 5.29 -4.56 -4.83 -0.71 -0.21 -0.2 0.05 -0.45 0.33 -0.08 0.55 2.14 8.36z"/>
  <path class="fil0" d="M74.5 13.29l1.57 -0.08 0.39 7.8c0.02,0.39 0.34,0.69 0.72,0.69l0.04 0 0.19 -0.01 0.5 -0.24 0.19 -0.53 -0.39 -7.8 1.57 -0.08c0.4,-0.02 0.71,-0.36 0.69,-0.76l-0.01 -0.19 -0.24 -0.51 -0.52 -0.19 -4.79 0.24 -0.51 0.24 -0.19 0.53 0.01 0.19c0.02,0.4 0.36,0.71 0.76,0.69z"/>
  <path class="fil0" d="M89.04 22.36l0.51 0.04c0.68,0 1.31,-0.21 1.88,-0.63 0.72,-0.53 1.15,-1.24 1.28,-2.11l0.92 -6.17 -0.13 -0.54 -0.47 -0.29 -0.19 -0.03c-0.39,-0.06 -0.77,0.21 -0.83,0.61l-0.92 6.17c-0.07,0.44 -0.27,0.77 -0.62,1.04 -0.36,0.26 -0.74,0.35 -1.17,0.29 -0.44,-0.07 -0.77,-0.26 -1.04,-0.62 -0.26,-0.36 -0.35,-0.73 -0.28,-1.18l0.92 -6.17c0.06,-0.4 -0.22,-0.77 -0.61,-0.83l-0.19 -0.03 -0.54 0.13 -0.29 0.48 -0.93 6.17c-0.13,0.88 0.07,1.68 0.59,2.39 0.53,0.71 1.24,1.14 2.12,1.27z"/>
  <path class="fil0" d="M100.84 25.42l1.35 0.49 0.25 0.04 0.31 -0.07 0.38 -0.41 0.06 -0.17c0.14,-0.38 -0.06,-0.8 -0.43,-0.93l-1.35 -0.49c-0.51,-0.19 -0.83,-0.44 -0.99,-0.77 -0.15,-0.33 -0.14,-0.75 0.04,-1.25l1.32 -3.6c0.18,-0.51 0.44,-0.82 0.77,-0.98 0.34,-0.16 0.75,-0.14 1.25,0.04l1.35 0.49c0.37,0.13 0.8,-0.05 0.93,-0.43l0.07 -0.18 -0.02 -0.56 -0.42 -0.37 -1.35 -0.5c-0.92,-0.33 -1.78,-0.33 -2.51,0.02 -0.74,0.35 -1.29,0.98 -1.62,1.91l-1.31 3.61c-0.34,0.92 -0.34,1.76 0.01,2.5 0.34,0.74 0.99,1.29 1.91,1.63z"/>
  <path class="fil0" d="M108.85 28.97l0.16 0.1 0.55 0.09 0.45 -0.33 1.59 -2.59 1.24 -0.36 -0.26 4.98c-0.02,0.39 0.27,0.73 0.67,0.76l0.19 0.02 0.05 0 0.48 -0.18 0.24 -0.51 0.29 -5.56 3.64 -1.05c0.39,-0.11 0.61,-0.51 0.5,-0.9l-0.06 -0.18 -0.35 -0.44 -0.55 -0.07 -4.81 1.39 1.65 -2.68c0.21,-0.35 0.1,-0.79 -0.24,-1l-0.16 -0.1 -0.55 -0.09 -0.46 0.33 -4.52 7.36c-0.21,0.34 -0.1,0.79 0.24,1z"/>
  <path class="fil0" d="M120.36 37.44l0.5 0.2 0.02 0 0.51 -0.23 2.77 -2.97 4.87 -1.07c0.39,-0.08 0.64,-0.47 0.56,-0.86l-0.04 -0.19 -0.31 -0.47 -0.56 -0.1 -3.96 0.87 0.59 -4.02 -0.14 -0.54 -0.48 -0.28 -0.19 -0.03c-0.41,-0.06 -0.77,0.22 -0.83,0.62l-0.72 4.94 -2.77 2.97c-0.27,0.3 -0.26,0.76 0.03,1.03l0.14 0.13z"/>
  <path class="fil0" d="M50.49 88.04l-0 0 -0.01 -0.01 0.01 0zm-3.69 9.73c-0.3,0.77 0.37,2.64 2.28,3.08 -0.44,1.49 -1.28,2.87 -1.52,4.46 -0.06,0.38 0.06,0.7 0.39,0.91 3.2,2.02 0.69,7.93 3.24,10.46l0.42 0.23c1.04,0.5 2.21,-0.4 3.24,-0.53l0.09 -0.03 0.59 -0.36c1.23,-2.01 0.88,-4.6 1.13,-6.86 0.13,-1.17 0.9,-2.17 1.02,-3.32 0.21,-1.97 -1.19,-3.42 -0.85,-5.42 0.16,-0.93 -1.25,-1.3 -1.44,-0.36 -0.2,0.98 -0.24,1.7 0,2.67 0.19,0.5 0.4,1 0.63,1.49 0.33,0.77 -0.43,2.76 -0.75,3.89 -0.63,2.23 -0.39,4.57 -1.05,6.82 -0.33,0.06 -0.65,0.15 -0.96,0.25 -0.4,0.13 -0.74,0.17 -1.11,0.18 -0.7,-1.07 -0.59,-3.04 -0.74,-4.21 -0.17,-1.36 -0.39,-2.71 -0.83,-4.02 -0.25,-0.75 -0.75,-1.72 -1.47,-2.12 0.11,0.06 1.47,-3.92 1.65,-4.98l0.14 -0.66 0.02 -0.06c0.7,-5.23 0.23,-10.1 2.27,-15.13 1.84,-4.56 5.19,-11.42 9.93,-13.46 0.86,-0.37 0.47,-1.77 -0.42,-1.42 -4.86,1.91 -7.68,7.67 -9.94,12.03 -0.16,0.3 -0.3,0.6 -0.44,0.9 -0.41,-0.15 -0.98,0.01 -1.05,0.5 -0.06,0.4 -0.04,0.81 0.3,1.09l0.07 0.04 -0.09 0.25c-0.43,-0.23 -1.07,-0.01 -1.12,0.64 -0.01,0.28 0.01,0.57 0.12,0.83l0.39 0.45 -0.02 0.08c-0.49,-0.55 -1.48,-0.2 -1.27,0.66 0.08,0.36 0.21,0.71 0.43,1l0.1 0.1 -0.67 0.05c-0.33,0.2 -0.49,0.71 -0.25,1.04l0.46 0.73 0.41 0.31 -0.03 0.25 -0.69 -0.13c-0.44,0.13 -0.57,0.53 -0.5,0.94l-0.01 0.03 0.05 0.31 0.15 0.4c0.17,0.38 0.37,0.66 0.71,0.91l0.02 0.01 -0.06 0.61c-0.25,-0.28 -0.62,-0.42 -0.98,-0.2 -0.36,0.22 -0.44,0.68 -0.24,1.03 0.27,0.48 0.6,0.83 1.08,1.06l-0.03 0.4 -0.14 -0.16c-0.25,-0.33 -0.66,-0.48 -1.04,-0.24 -0.33,0.2 -0.49,0.71 -0.24,1.04 0.35,0.48 0.7,0.93 1.18,1.27l0.09 0.04 -0.03 0.49c-0.35,0.03 -0.77,0.1 -0.98,0.27l-0.11 -0.01c-0.27,0.06 -0.55,-0.28 -0.79,-0.48 -0.4,-0.35 -0.57,-0.52 -0.76,-0.05z"/>
  <path class="fil0" d="M75.81 116.88c0.43,-0.03 0.65,-0.31 0.7,-0.62l0 -0 0.02 -0.11 0 -0.03c0.27,-2.07 0.6,-4.15 0.34,-6.24 -0.32,-2.62 -1.88,-5.13 -2.56,-7.68 -0.26,-0.97 -1.63,-0.5 -1.47,0.44 0.43,2.4 1.54,4.55 2.31,6.84 0.62,1.83 0.2,3.91 -0.03,5.83 -0.28,-0.02 -0.57,-0.04 -0.86,-0.05 0.23,-0.44 0.44,-0.88 0.47,-1.01 0.41,-1.61 -0.1,-3.47 -0.47,-5.04 -1,-4.37 -3.43,-8.12 -5.37,-12.06l0.12 -0.46c0.23,-0.98 -1.23,-1.33 -1.51,-0.38l-0.17 0.61 -0.04 0.15c-0.89,3.12 -1.59,6.18 -2.38,9.33 -0.42,1.68 -0.27,3.42 -0.55,5.12 -0.19,1.21 -1.24,2.53 -1.82,3.78 -0.42,-0.03 -0.86,-0.06 -1.29,-0.06 0.69,-1.06 1.73,-1.96 2.31,-3.06 0.82,-1.55 0.71,-4.04 0.77,-5.74 0.09,-2.73 0.52,-5.4 0.71,-8.12 0.19,-2.74 -0.25,-5.49 -0.07,-8.23 0.06,-0.99 -1.43,-0.92 -1.52,0.04 -0.04,0.44 -0.06,0.88 -0.08,1.32l-0.58 -0.04c-0.46,0.03 -0.89,0.33 -1.33,0.11 -0.44,-0.22 -0.85,-0.35 -1.35,-0.34 -1.11,0.02 -2.33,1.28 -2.92,2.09 -1.02,1.38 -1.64,2.98 -1.84,4.68 -0.11,0.96 1.32,1.37 1.49,0.38 0.17,-0.94 0.43,-1.84 0.83,-2.72 0.4,-0.89 1.38,-2.61 2.48,-2.73 0.46,-0.05 0.92,0.45 1.41,0.48 0.81,0.05 1.32,-0.42 1.79,0.39 0.03,1.08 0.08,2.16 0.13,3.25 0.09,2.3 -0.44,4.56 -0.66,6.83 -0.27,2.88 0.42,6.39 -1.51,8.85 -0.87,1.1 -1.78,1.85 -2.08,3.26 -0.08,0.37 0.07,0.65 0.31,0.8l0.25 0.12c0.95,0.24 2.08,0.12 3.06,0.04 0.41,0.1 0.9,-0.07 1.08,-0.57 0.99,-2.8 2.09,-4.71 2.28,-7.71 0.19,-3.1 1.16,-6.11 2.03,-9.09 0.69,1.29 1.49,2.53 2.01,3.92 0.61,1.61 1.23,3.23 1.84,4.84 0.62,1.64 1.02,3.33 1.06,5.09 0.03,1.61 -1.3,1.57 -1.29,2.73 0,0.43 0.28,0.67 0.61,0.73l0.04 0.02c1.02,0.25 2.24,0.1 3.27,0.03z"/>
  <path class="fil0" d="M98.15 101.02c-0.46,1.81 -1.01,3.56 -1.36,5.4 -0.18,0.93 -0.27,1.88 -0.34,2.82 -0.12,1.57 -0.89,1.95 -1.86,2.97 -0.79,0.83 -0.8,1.99 -0.67,3.08 -0.62,-0.04 -1.25,-0.05 -1.87,-0.03 0.79,-1.93 2.44,-3.46 3.24,-5.46 1,-2.5 1.44,-5.68 1.71,-8.34 0.36,-3.53 -1.67,-5.69 -2.16,-9.05 -0.18,-1.27 -0.15,-2.38 -0.48,-3.63 -0.36,-1.33 -1.32,-2.33 -1.87,-3.6 0.37,-0.34 0.76,-0.62 1.19,-0.83 0.36,0.7 0.86,1.33 1.51,1.95 0.69,0.65 1.33,1.17 1.93,1.67 -0.28,2.23 -0.19,4.35 0.5,6.55 0.73,2.29 1.15,4.06 0.53,6.49zm5.42 15.89c1.51,0.15 3.09,0.04 4.58,-0.02l0.04 -0.01c0.32,0 0.63,-0.17 0.7,-0.57 0.11,-0.61 -0.09,-1.22 -0.21,-1.82 -0.39,-1.95 -0.03,-3.56 0.12,-5.49 0.13,-1.78 -0.4,-3.2 -0.66,-4.96 -0.35,-2.31 0.11,-4.77 0.04,-7.1 -0.03,-0.96 -1.47,-0.92 -1.48,0.04 -0.01,2 -0.16,3.99 -0.18,5.99 -0.04,2.32 0.91,4.39 0.54,6.73 -0.23,1.47 -0.59,3.86 -0.13,5.61 -0.58,-0.03 -1.17,-0.05 -1.76,-0.05 1.15,-1.8 1.31,-3.99 1.19,-6.23 -0.1,-1.89 -0.52,-3.75 -0.67,-5.64 -0.14,-1.75 0.17,-3.71 -0.62,-5.36 -0.9,-1.87 -1.89,-3.57 -2.5,-5.58 -0.41,-1.3 -0.7,-2.74 -1.62,-3.8 -2.25,-2.58 -5.75,-3.36 -6.52,-7.08 -0.17,-0.82 -1.53,-0.6 -1.46,0.24 0.03,0.35 0.08,0.67 0.15,0.99 -0.82,0.27 -1.46,0.78 -2.02,1.38l-0.31 0.35c-0.35,0.41 -0.68,0.86 -1.01,1.3 -2.65,3.45 -5.81,4.54 -10.08,4.61 -3.51,0.06 -9.43,-0.62 -11.2,3.39 -0.4,0.92 0.79,1.57 1.36,0.75 0.2,-0.29 0.44,-0.55 0.69,-0.78 -0.09,2.38 0.92,5.02 1.63,7.07 0.27,0.78 1.53,0.64 1.48,-0.24 -0.17,-2.63 -1.99,-5.23 -1.43,-7.89 3.63,-1.53 9.31,-0.38 12.76,-1.14 1.59,-0.35 2.86,-1.33 4.05,-2.38 0.75,-0.66 1.42,-1.59 2.12,-2.49 0.63,1.87 1.73,3.51 1.83,5.75 0.13,2.78 2.14,4.97 2.24,7.79 0.11,2.98 -0.72,7.81 -2.07,10.53 -1.07,2.17 -2.8,2.67 -2.91,5.35l0.15 0.44 0.02 0.03 0.07 0.07 0.33 0.19c1.33,0.25 2.81,0.1 4.16,0.03 0.27,-0.02 0.46,-0.14 0.58,-0.3 0.2,-0.2 0.32,-0.49 0.24,-0.84 -0.55,-2.34 1.48,-2.5 2.08,-4.23 0.74,-2.12 0.62,-4.57 1.13,-6.77 0.55,-2.39 1.43,-4.56 1.34,-7.05 -0.04,-1.25 -0.61,-2.52 -1.06,-3.66 -0.62,-1.55 -0.76,-3.13 -0.7,-4.74 0.89,0.91 1.62,1.97 2.14,3.7 0.43,1.4 0.92,2.72 1.55,4.03 1.26,2.59 1.17,4.85 1.48,7.63 0.41,3.8 1.46,7.49 -1.17,10.77 -0.66,0.82 0.17,1.78 0.99,1.48z"/>
  <path class="fil0" d="M64.64 68.72c-0.99,0.17 -0.52,1.64 0.45,1.49 2.91,-0.47 4.86,0.86 7.59,1.04 3.06,0.2 5.7,-0.47 8.61,-1.36 3.02,-0.92 5.97,-1.94 9.11,-2.39 3.66,-0.52 7.08,0.56 10.44,1.88 1,0.39 1.85,-1.03 0.83,-1.49 -5.93,-2.72 -11.2,-2.6 -17.4,-0.78 -4.17,1.22 -8.14,2.99 -12.58,2.34 -2.53,-0.37 -4.43,-1.16 -7.04,-0.72z"/>
  <path class="fil0" d="M103.21 69.09c-0.59,-0.04 -1.08,0.84 -0.55,1.33 3.85,3.55 2.24,8.74 1.44,13.29 -0.29,1.63 -0.76,3.63 -0.42,5.28 0.44,2.14 1.59,3.98 2.26,6.05 0.3,0.94 1.87,0.76 1.76,-0.28 -0.27,-2.59 -1.97,-4.62 -2.13,-7.25 -0.17,-2.76 0.71,-5.91 1.07,-8.66 0.33,-2.56 0.32,-4.9 -0.68,-6.89 3.53,2.85 4.23,7.88 4.57,12.45 0.44,6.13 0.72,12.27 1.16,18.4 0.08,1.1 1.63,1.04 1.7,-0.04 0.24,-4.11 -0.35,-8.13 -0.54,-12.22 -0.15,-3.15 -0.22,-6.29 -0.63,-9.42 -0.66,-5.17 -2.71,-11.07 -8.49,-12.1l-0.51 0.07z"/>
  <path class="fil0" d="M107.29 80.21c-0.16,3.71 -0.41,7.8 0.73,11.38 0.25,0.8 1.63,0.64 1.51,-0.24 -0.48,-3.75 -0.61,-7.41 -0.76,-11.18 -0.04,-0.97 -1.44,-0.91 -1.49,0.04z"/>
  <path class="fil0" d="M108.74 94.66c0.12,2.74 -0.19,5.54 0.35,8.23 0.18,0.9 1.64,0.64 1.58,-0.25 -0.2,-2.74 0.08,-5.5 -0.44,-8.22 -0.17,-0.85 -1.52,-0.6 -1.49,0.24z"/>
  <path class="fil0" d="M67.16 116.66c1.17,-1.59 1.84,-3.81 1.65,-5.79 -0.08,-0.8 -1.37,-1.07 -1.5,-0.17 -0.24,1.78 -0.73,3.37 -1.41,5.03 -0.31,0.75 0.69,1.71 1.26,0.92z"/>
  <path class="fil0" d="M71 112.98c-0.14,-0.78 -1.38,-0.7 -1.52,0.04 -0.15,0.77 -0.22,1.52 -0.52,2.24 -0.32,0.77 0.61,1.62 1.25,0.92 0.78,-0.87 0.99,-2.06 0.8,-3.2z"/>
  <path class="fil0" d="M80.61 113.04c0.13,-0.85 -1.04,-1.44 -1.48,-0.58 -0.41,0.79 -0.6,1.65 -0.78,2.51 -0.15,0.71 0.8,1.36 1.31,0.72 0.64,-0.79 0.81,-1.67 0.95,-2.64z"/>
  <path class="fil0" d="M83.44 114.6c0.19,-0.58 0.31,-1.18 0.37,-1.78 0.08,-0.83 -1.18,-1.05 -1.54,-0.37 -0.52,1 -1.57,2.36 -0.96,3.5 0.22,0.41 0.76,0.47 1.13,0.27 0.59,-0.32 0.79,-1.02 0.98,-1.61z"/>
  <path class="fil0" d="M86.46 108.59c-0.91,1.89 -2.01,4.18 -1.71,6.34 0.12,0.83 1.37,1.12 1.56,0.17 0.41,-2.03 1.1,-3.95 1.54,-5.96 0.18,-0.81 -1.01,-1.34 -1.39,-0.55z"/>
  <path class="fil0" d="M89.24 115.37c0.03,-0.49 0.04,-0.95 0.16,-1.43 0.11,-0.47 0.29,-0.93 0.41,-1.41 0.23,-0.86 -0.95,-1.27 -1.4,-0.55 -0.66,1.08 -1.2,2.6 -0.61,3.81 0.37,0.76 1.42,0.27 1.45,-0.43z"/>
  <path class="fil0" d="M98.42 113.63c-0.38,-0.21 -0.81,-0.04 -1.03,0.3 -0.45,0.68 -0.64,1.49 -0.45,2.29 0.19,0.78 1.31,0.67 1.5,-0.04 0.15,-0.56 0.17,-1.15 0.35,-1.7 0.1,-0.32 -0.09,-0.69 -0.37,-0.85z"/>
  <path class="fil0" d="M100.91 111.13c-0.87,1.57 -1.19,3.35 -1.31,5.12 -0.06,0.88 1.29,0.97 1.5,0.17 0.4,-1.51 0.56,-3.09 1.14,-4.55 0.35,-0.89 -0.85,-1.62 -1.34,-0.74z"/>
  <path class="fil0" d="M112.38 112.86c-0.12,-0.75 -1.35,-0.68 -1.47,0.04 -0.08,0.49 -0.1,0.99 -0.17,1.49 -0.08,0.58 -0.28,1.11 -0.47,1.66 -0.26,0.76 0.84,1.32 1.35,0.75 0.94,-1.06 0.98,-2.6 0.76,-3.93z"/>
  <path class="fil0" d="M113.69 110.91c0.16,1.42 0.23,2.82 0.1,4.25 -0.07,0.88 1.34,1.01 1.52,0.17 0.33,-1.57 0.18,-3.1 -0.15,-4.66 -0.18,-0.83 -1.58,-0.61 -1.48,0.24z"/>
  <path class="fil0" d="M116.46 112.86c0.15,1.04 0.19,2.11 0.11,3.16 -0.06,0.76 1.19,1.08 1.48,0.36 0.52,-1.3 0.58,-2.71 -0.15,-3.95 -0.37,-0.63 -1.55,-0.36 -1.44,0.43z"/>
  <path class="fil0" d="M120.31 114.8c0,0.45 -0.05,0.89 -0.07,1.34 -0.04,0.75 1.15,1.06 1.45,0.36 0.24,-0.57 0.27,-1.13 0.27,-1.73 0,-1.07 -1.65,-1.02 -1.65,0.04z"/>
  <path class="fil0" d="M122.55 109.94c0.25,1.86 0.83,3.74 0.49,5.62 -0.19,1.03 1.17,1.32 1.53,0.38 0.8,-2.05 0.06,-4.23 -0.52,-6.24 -0.23,-0.81 -1.62,-0.64 -1.5,0.24z"/>
  <path class="fil0" d="M127.96 115.82c0.38,-1.06 0.17,-2.24 -0.03,-3.32 -0.13,-0.73 -1.34,-0.69 -1.45,0.03 -0.15,1.03 0.04,2.08 -0.04,3.12 -0.07,0.94 1.25,0.93 1.53,0.17z"/>
  <path class="fil0" d="M128.87 113.22c0.13,0.83 0.13,1.71 0.37,2.52 0.22,0.76 1.32,0.71 1.52,-0.04 0.27,-0.96 0.06,-2.07 -0.48,-2.9 -0.38,-0.59 -1.53,-0.38 -1.41,0.42z"/>
  <path class="fil0" d="M58.12 115.94c0.32,-1.15 0.66,-2.17 1.25,-3.22 0.45,-0.79 -0.59,-1.44 -1.21,-0.89 -1.05,0.92 -1.61,2.57 -1.56,3.95 0.03,0.89 1.3,1.01 1.53,0.17z"/>
  <path class="fil0" d="M49 115.82c0.19,-1.62 -0.49,-3.19 -1.41,-4.49 -0.59,-0.82 -1.86,-0.06 -1.34,0.83 0.68,1.16 1.04,2.38 1.27,3.69 0.13,0.74 1.4,0.71 1.49,-0.04z"/>
  <path class="fil0" d="M43.97 112.68c-0.37,0.23 -0.43,0.67 -0.25,1.04 0.17,0.35 0.3,0.72 0.41,1.1 0.14,0.46 0.12,0.94 0.21,1.41 0.06,0.34 0.45,0.57 0.78,0.56 0.38,-0.01 0.62,-0.27 0.75,-0.6 0.44,-1.15 -0.26,-2.54 -0.98,-3.41l-0.92 -0.09z"/>
  <path class="fil0" d="M40.68 114.05c0.16,0.55 0.16,1.13 0.28,1.69 0.16,0.76 1.34,0.69 1.49,-0.04 0.16,-0.77 0.14,-1.64 -0.3,-2.32 -0.51,-0.76 -1.72,-0.23 -1.47,0.66z"/>
  <path class="fil0" d="M39.23 115.77c0.91,-1.68 0.23,-3.83 -0.65,-5.39 -0.42,-0.73 -1.68,-0.19 -1.36,0.61 0.53,1.33 0.93,2.78 0.57,4.21 -0.23,0.87 1.02,1.36 1.45,0.57z"/>
  <path class="fil0" d="M36.17 116.25c0.93,-1.45 0.56,-3.68 -0.52,-4.93 -0.48,-0.56 -1.53,0.08 -1.24,0.76 0.51,1.24 0.51,2.3 0.34,3.6 -0.12,0.86 0.93,1.33 1.42,0.56z"/>
  <path class="fil0" d="M33.02 115.77c0.37,-0.89 0.21,-1.89 -0.07,-2.79 -0.25,-0.83 -1.54,-0.64 -1.51,0.24 0.01,0.34 0.04,0.67 0.07,1.01 0.03,0.39 0,0.78 0.04,1.18 0.04,0.35 0.24,0.65 0.59,0.74 0.31,0.08 0.75,-0.06 0.87,-0.38z"/>
  <path class="fil0" d="M63.05 83.95c-0.02,0.69 0.07,1.38 0.12,2.06 0.06,0.98 1.48,0.93 1.51,-0.04 0.02,-0.69 -0.1,-1.38 -0.13,-2.06 -0.05,-0.97 -1.48,-0.92 -1.5,0.04z"/>
  <path class="fil0" d="M93.41 79.42c0.42,-0.13 0.57,-0.53 0.5,-0.93 -0.12,-0.65 -0.41,-1.23 -0.81,-1.76 -0.25,-0.32 -0.66,-0.47 -1.03,-0.24 -0.33,0.2 -0.48,0.7 -0.24,1.03 0.31,0.44 0.52,0.88 0.65,1.4 0.1,0.39 0.55,0.61 0.93,0.5z"/>
  <path class="fil0" d="M69.76 77.15c-0.36,-0.85 -0.73,-1.68 -1.32,-2.38 -0.55,-0.65 -1.64,0.24 -1.15,0.94 0.45,0.65 0.69,1.4 1.07,2.08 0.42,0.76 1.74,0.19 1.4,-0.63z"/>
  <path class="fil0" d="M35.1 122.44c0.28,-1.04 0.19,-2.14 -0.19,-3.15 -0.28,-0.78 -1.63,-0.67 -1.52,0.24 0.11,0.9 0.26,1.82 0.18,2.73 -0.07,0.9 1.32,0.99 1.53,0.17z"/>
  <path class="fil0" d="M38 122.44c0.22,-0.78 0.4,-1.57 0.54,-2.37 0.17,-0.96 -1.16,-1.29 -1.47,-0.36 -0.25,0.78 -0.45,1.55 -0.55,2.37 -0.12,0.95 1.21,1.34 1.48,0.37z"/>
  <path class="fil0" d="M41.84 121.69c0.03,-0.6 0.01,-1.21 0,-1.82 -0.03,-0.97 -1.48,-0.93 -1.5,0.04 -0.02,0.61 -0.04,1.21 0,1.82 0.06,0.98 1.44,0.92 1.5,-0.04z"/>
  <path class="fil0" d="M44.22 123.34c0.44,-0.13 0.57,-0.53 0.51,-0.94 -0.09,-0.6 -0.13,-1.2 -0.15,-1.81 -0.04,-0.98 -1.47,-0.92 -1.5,0.04 -0.03,0.75 -0.02,1.48 0.21,2.21 0.13,0.39 0.54,0.62 0.94,0.5z"/>
  <path class="fil0" d="M46.17 119.9c-0.03,0.79 -0.05,1.58 -0.01,2.36 0.05,0.99 1.46,0.93 1.51,-0.03 0.04,-0.79 0.02,-1.58 -0,-2.37 -0.04,-0.97 -1.47,-0.92 -1.5,0.04z"/>
  <path class="fil0" d="M50.82 121.69c-0.1,-0.79 -0.11,-1.58 -0.23,-2.37 -0.04,-0.34 -0.21,-0.63 -0.58,-0.72 -0.37,-0.09 -0.87,0.14 -0.93,0.55 -0.13,0.93 -0.15,1.88 0.16,2.79 0.28,0.83 1.7,0.68 1.58,-0.25z"/>
  <path class="fil0" d="M53.69 122.41c0.07,-0.98 -0.01,-1.97 -0.21,-2.94 -0.08,-0.41 -0.58,-0.63 -0.96,-0.51 -0.44,0.13 -0.58,0.55 -0.51,0.96 0.13,0.83 0.09,1.69 0.15,2.53 0.07,1 1.47,0.94 1.53,-0.04z"/>
  <path class="fil0" d="M56.41 122.44c0.31,-1.03 0.6,-2.04 0.58,-3.12 -0.02,-1.03 -1.49,-0.95 -1.57,0.04 -0.02,0.27 -0.19,0.75 -0.26,1.09 -0.1,0.54 -0.19,1.07 -0.26,1.62 -0.11,0.97 1.22,1.36 1.51,0.38z"/>
  <path class="fil0" d="M60.06 123.35c0.16,-1.41 0.3,-2.85 -0.02,-4.24 -0.19,-0.87 -1.53,-0.61 -1.52,0.25 0.02,1.27 -0.13,2.56 -0.01,3.83 0.07,0.82 1.44,1.09 1.54,0.17z"/>
  <path class="fil0" d="M61.66 119.34c-0.42,1.22 -0.33,2.46 -0,3.69 0.23,0.85 1.59,0.64 1.53,-0.25 -0.07,-1.02 -0.3,-2.06 -0.04,-3.07 0.25,-0.98 -1.17,-1.3 -1.49,-0.37z"/>
  <path class="fil0" d="M66.63 122.44c0.13,-1.03 0.12,-2.1 0,-3.12 -0.09,-0.8 -1.41,-1.09 -1.51,-0.17 -0.12,1.02 -0.17,2.1 -0.05,3.12 0.04,0.36 0.24,0.66 0.6,0.75 0.38,0.1 0.91,-0.15 0.96,-0.58z"/>
  <path class="fil0" d="M69.14 120.07c-0.24,0.96 -0.33,1.95 -0.22,2.94 0.04,0.34 0.23,0.64 0.59,0.73 0.37,0.09 0.89,-0.15 0.94,-0.56 0.1,-0.91 0.06,-1.83 0.17,-2.73 0.11,-0.94 -1.22,-1.34 -1.47,-0.37z"/>
  <path class="fil0" d="M72.67 118.43c-0.58,1.39 -0.98,2.91 -0.62,4.42 0.21,0.88 1.51,0.61 1.52,-0.25 0.01,-1.24 0.22,-2.42 0.51,-3.62 0.19,-0.81 -1.06,-1.37 -1.41,-0.55z"/>
  <path class="fil0" d="M76.82 122.21c-0.33,-1.18 -0.19,-2.22 -0.16,-3.43 0.01,-0.89 -1.3,-0.99 -1.52,-0.17 -0.36,1.33 -0.53,3.04 0.26,4.24 0.49,0.75 1.66,0.23 1.42,-0.64z"/>
  <path class="fil0" d="M79.4 122.41c0.02,-1.14 -0.15,-2.32 -0.21,-3.46 -0.05,-0.99 -1.47,-0.93 -1.52,0.04 -0.06,1.19 -0.19,2.52 0.2,3.67 0.29,0.84 1.51,0.64 1.53,-0.25z"/>
  <path class="fil0" d="M82.65 122.39c-0.17,-0.41 -0.3,-0.85 -0.35,-1.3 -0.05,-0.42 0.11,-0.96 -0.04,-1.35l0 0.02c-0.16,-0.63 -1.05,-0.99 -1.4,-0.25 -0.08,0.15 -0.21,0.42 -0.25,0.7 -0.04,0.31 -0.05,0.61 -0.03,0.93 0.05,0.68 0.25,1.34 0.65,1.89 0.49,0.67 1.78,0.23 1.41,-0.64z"/>
  <path class="fil0" d="M85.59 122.6c0.13,-1.32 0.05,-2.68 -0.02,-4 -0.06,-0.98 -1.45,-0.92 -1.51,0.04 -0.07,1.32 -0.14,2.69 -0.02,4.01 0.09,1.01 1.46,0.94 1.55,-0.04z"/>
  <path class="fil0" d="M87.61 119.15c-0.49,1.07 -0.59,2.32 -0.46,3.49 0.09,0.79 1.4,1.08 1.5,0.17 0.12,-1.04 0.08,-2.08 0.37,-3.1 0.22,-0.83 -1.04,-1.35 -1.41,-0.55z"/>
  <path class="fil0" d="M92.15 118.77c-0.06,-1 -1.49,-0.94 -1.55,0.04 -0.07,1.31 -0.11,2.79 0.4,4.03 0.3,0.74 1.62,0.68 1.5,-0.24 -0.16,-1.28 -0.29,-2.53 -0.36,-3.83z"/>
  <path class="fil0" d="M95.24 122.6c-0.04,-1.14 -0.04,-2.32 -0.18,-3.46 -0.09,-0.81 -1.44,-1.1 -1.54,-0.17 -0.14,1.26 -0.14,2.65 0.2,3.88 0.24,0.85 1.55,0.63 1.52,-0.25z"/>
  <path class="fil0" d="M98.33 122.63c0.36,-1.09 0.1,-2.55 -0.49,-3.5 -0.44,-0.72 -1.64,-0.21 -1.37,0.62 0.3,0.9 0.32,1.78 0.3,2.71 -0.02,0.94 1.29,0.98 1.55,0.17z"/>
  <path class="fil0" d="M101.77 118.77c-0.08,-0.78 -1.35,-1.04 -1.47,-0.16 -0.19,1.34 -0.54,2.93 -0.01,4.23 0.3,0.75 1.6,0.68 1.51,-0.25 -0.07,-0.64 -0.12,-1.26 -0.08,-1.91 0.04,-0.64 0.12,-1.27 0.06,-1.91z"/>
  <path class="fil0" d="M105.6 122.21c-0.18,-0.96 -0.27,-1.92 -0.34,-2.89 -0.09,-0.99 -1.44,-0.93 -1.52,0.04 -0.09,1.17 -0.14,2.44 0.47,3.49 0.47,0.82 1.55,0.18 1.4,-0.63z"/>
  <path class="fil0" d="M106.65 119.72c0,0.68 0.15,1.39 0.39,2.02 0.36,0.89 1.69,0.52 1.44,-0.43 -0.14,-0.53 -0.31,-1.07 -0.33,-1.62 -0.04,-0.97 -1.51,-0.93 -1.5,0.04z"/>
  <path class="fil0" d="M110.12 118.79c-0.13,0.56 -0.09,1.14 -0.02,1.71 0.1,0.74 0.19,1.54 0.62,2.18 0.51,0.77 1.71,0.24 1.46,-0.66 -0.29,-1.07 -0.29,-2.2 -0.59,-3.26 -0.21,-0.73 -1.3,-0.69 -1.48,0.04z"/>
  <path class="fil0" d="M115.28 118.96c-0.02,-0.91 -1.24,-0.96 -1.51,-0.17 -0.41,1.21 -0.37,2.76 0.24,3.89 0.37,0.69 1.57,0.35 1.49,-0.44 -0.06,-0.55 -0.19,-1.09 -0.23,-1.64 -0.03,-0.55 0.02,-1.09 0.01,-1.64z"/>
  <path class="fil0" d="M118.51 122.22c-0.19,-0.8 -0.47,-1.52 -0.52,-2.35 -0.06,-0.97 -1.47,-0.93 -1.5,0.04 -0.03,1 0.16,2.05 0.65,2.93 0.44,0.78 1.56,0.19 1.37,-0.62z"/>
  <path class="fil0" d="M119.59 120.09c-0.04,0.78 -0.07,1.58 -0.02,2.37 0.07,1 1.47,0.94 1.54,-0.04 0.05,-0.78 0.02,-1.58 -0.03,-2.37 -0.05,-0.97 -1.43,-0.91 -1.49,0.04z"/>
  <path class="fil0" d="M124.66 120.3l-0.02 -0.79 -0.06 -0.42 -0.07 -0.19 -0.03 -0.08 -0.12 -0.18 -0.04 -0.05 -0.14 -0.09 -0.13 -0.07 -0.05 -0.02 -0.17 -0.02 -0.03 -0.01 -0.21 0.04 -0.05 0.02 -0.04 0.02 -0.38 0.37 -0.03 0.09 -0.02 0.06 -0.01 0.04 -0.04 0.23c-0.04,0.33 -0.05,0.65 -0.06,0.98 -0,0.56 -0.07,1.16 0.1,1.7 0.24,0.77 1.29,0.69 1.52,-0.04 0.16,-0.5 0.1,-1.07 0.09,-1.6z"/>
  <path class="fil0" d="M126.32 121.91c0.04,0.34 0.22,0.63 0.58,0.72 0.37,0.09 0.87,-0.14 0.92,-0.56 0.09,-0.74 0.04,-1.47 0.01,-2.21 -0.04,-0.98 -1.45,-0.92 -1.5,0.04 -0.04,0.66 -0.1,1.34 -0.01,2z"/>
  <path class="fil0" d="M129.6 119.36c-0.06,0.62 -0.08,1.23 0.02,1.84 0.12,0.76 1.38,0.69 1.5,-0.04 0.1,-0.61 0.07,-1.23 0.02,-1.84 -0.04,-0.42 -0.35,-0.76 -0.79,-0.75 -0.46,0.01 -0.71,0.37 -0.75,0.79z"/>
  <path class="fil0" d="M36.93 128.43c-0.05,-1.04 -0.27,-2.05 -0.17,-3.1 0.09,-0.89 -1.33,-1 -1.54,-0.17 -0.27,1.14 -0.12,2.39 0.21,3.51 0.24,0.83 1.54,0.63 1.5,-0.24z"/>
  <path class="fil0" d="M38.72 124.3c0.3,1.37 0.06,2.79 -0.04,4.17 -0.06,0.86 1.35,1 1.49,0.16 0.29,-1.57 0.43,-3.22 -0.01,-4.78 -0.27,-0.94 -1.65,-0.5 -1.44,0.44z"/>
  <path class="fil0" d="M42.91 129.32c-0.19,-0.96 -0.27,-1.92 -0.35,-2.89 -0.08,-0.97 -1.41,-0.91 -1.5,0.04 -0.08,1.13 -0.07,2.25 0.38,3.3 0.39,0.9 1.67,0.53 1.47,-0.44z"/>
  <path class="fil0" d="M45.5 129.34c-0.02,-1.15 -0.08,-2.37 -0.4,-3.48 -0.24,-0.82 -1.57,-0.63 -1.49,0.24 0.1,1.16 0.06,2.36 0.39,3.49 0.25,0.84 1.52,0.62 1.5,-0.24z"/>
  <path class="fil0" d="M46.36 125.71c-0.13,1.1 -0.14,2.26 0.18,3.32 0.25,0.84 1.53,0.63 1.51,-0.24 -0.02,-0.96 -0.08,-1.96 -0.2,-2.92 -0.1,-0.78 -1.39,-1.07 -1.5,-0.16z"/>
  <path class="fil0" d="M51.51 128.97c-0.07,-0.91 -0.16,-1.82 -0.2,-2.73 -0.04,-0.97 -1.47,-0.92 -1.5,0.04 -0.04,0.98 -0.09,1.99 0.2,2.94 0.24,0.81 1.55,0.63 1.49,-0.24z"/>
  <path class="fil0" d="M55.12 129.32c-0.22,-0.97 -0.33,-1.9 -0.35,-2.89 -0.02,-0.97 -1.48,-0.93 -1.5,0.04 -0.02,1.1 -0.04,2.26 0.38,3.3 0.37,0.91 1.69,0.53 1.47,-0.44z"/>
  <path class="fil0" d="M58.77 128.95c-0.16,-1.03 -0.41,-2.03 -0.53,-3.08 -0.11,-0.98 -1.43,-0.92 -1.51,0.04 -0.1,1.21 0.1,2.58 0.64,3.67 0.42,0.86 1.52,0.15 1.39,-0.63z"/>
  <path class="fil0" d="M61.88 128.97c0.05,-0.66 0.02,-1.34 -0.01,-2 -0.04,-0.98 -1.47,-0.92 -1.5,0.04 -0.02,0.67 -0.06,1.34 -0.01,2 0.08,0.99 1.43,0.92 1.51,-0.04z"/>
  <path class="fil0" d="M65.39 124.97c-0.1,-0.83 -1.46,-1.15 -1.58,-0.18 -0.2,1.6 -0.24,3.36 0,4.95 0.12,0.79 1.4,1.13 1.55,0.17 0.24,-1.59 0.25,-3.35 0.04,-4.95z"/>
  <path class="fil0" d="M68.8 126.4c-0.19,-0.86 -1.63,-0.63 -1.53,0.25 0.13,1.19 0.13,2.27 0,3.46 -0.08,0.79 1.13,1 1.46,0.36 0.64,-1.24 0.36,-2.77 0.08,-4.06z"/>
  <path class="fil0" d="M72.28 129.88c0.13,-1.21 -0.08,-2.49 -0.4,-3.66 -0.23,-0.83 -1.55,-0.62 -1.5,0.24 0.07,1.15 0.21,2.32 0.36,3.46 0.13,1.01 1.44,0.95 1.55,-0.04z"/>
  <path class="fil0" d="M75.56 129.88c0.06,-1.43 -0.07,-2.95 -0.19,-4.37 -0.09,-0.99 -1.43,-0.92 -1.52,0.04 -0.13,1.47 -0.2,3.14 0.2,4.58 0.24,0.87 1.47,0.6 1.51,-0.25z"/>
  <path class="fil0" d="M78.67 129.16c-0.01,-1.15 -0.3,-2.31 -0.38,-3.46 -0.08,-0.97 -1.45,-0.92 -1.51,0.04 -0.07,1.19 0,2.53 0.37,3.67 0.27,0.84 1.53,0.64 1.52,-0.25z"/>
  <path class="fil0" d="M81.9 129.54c0.32,-1.21 0.42,-2.49 -0.01,-3.68 -0.33,-0.92 -1.67,-0.51 -1.45,0.44 0.25,1.02 0.04,2.04 -0.04,3.08 -0.06,0.88 1.29,0.97 1.5,0.16z"/>
  <path class="fil0" d="M83.7 125.92c-0.04,1.27 -0.12,2.56 -0.01,3.83 0.08,0.99 1.44,0.93 1.52,-0.04 0.11,-1.27 0.04,-2.56 -0.01,-3.83 -0.03,-0.98 -1.47,-0.92 -1.5,0.04z"/>
  <path class="fil0" d="M88.86 129.91c0.26,-1.38 0.18,-2.95 -0.4,-4.24 -0.4,-0.9 -1.64,-0.54 -1.47,0.44 0.22,1.27 0.1,2.57 0.34,3.83 0.14,0.78 1.39,0.71 1.53,-0.04z"/>
  <path class="fil0" d="M90.8 125.55c-0.1,1.13 -0.12,2.33 -0.01,3.46 0.08,1 1.45,0.94 1.54,-0.04 0.1,-1.13 0.08,-2.33 -0.02,-3.46 -0.09,-0.98 -1.41,-0.91 -1.5,0.04z"/>
  <path class="fil0" d="M95.57 130.09c0.27,-1.44 0.24,-2.93 0.2,-4.39 -0.03,-0.97 -1.47,-0.92 -1.5,0.04 -0.04,1.4 -0.12,2.79 -0.19,4.19 -0.04,0.85 1.33,1 1.49,0.16z"/>
  <path class="fil0" d="M97 130.13c0.16,0.78 1.35,0.69 1.51,-0.04 0.29,-1.29 0.35,-3.18 -0.59,-4.21 -0.5,-0.55 -1.59,0.07 -1.27,0.78 0.49,1.09 0.11,2.32 0.35,3.46z"/>
  <path class="fil0" d="M101.62 129.34c-0.01,-1.02 -0.13,-2.07 -0.21,-3.1 -0.08,-0.98 -1.42,-0.92 -1.5,0.04 -0.09,1.06 -0.19,2.29 0.19,3.3 0.3,0.81 1.53,0.66 1.52,-0.24z"/>
  <path class="fil0" d="M104.54 129.34c-0.09,-1.38 -0.18,-2.82 -0.34,-4.19 -0.11,-0.82 -1.46,-1.14 -1.58,-0.17 -0.18,1.48 -0.2,3.21 0.39,4.61 0.32,0.77 1.6,0.7 1.53,-0.25z"/>
  <path class="fil0" d="M107.45 128.79c-0.04,-1.08 -0.25,-2.27 -0.59,-3.3 -0.26,-0.81 -1.57,-0.64 -1.5,0.24 0.08,1.08 0.26,2.26 0.57,3.3 0.25,0.84 1.55,0.64 1.52,-0.24z"/>
  <path class="fil0" d="M109.8 129.08c0.31,-0.19 0.5,-0.71 0.24,-1.03l-0.07 -0.54c-0,-0.96 -1.49,-0.92 -1.49,0.04 0,0.43 0.01,0.93 0.29,1.29 0.26,0.32 0.65,0.48 1.03,0.24z"/>
  <path class="fil0" d="M113.43 128.59c-0.17,-0.97 -0.24,-1.92 -0.36,-2.89 -0.09,-0.77 -1.36,-1.06 -1.47,-0.16 -0.15,1.19 -0.2,2.62 0.43,3.69 0.48,0.81 1.54,0.18 1.4,-0.63z"/>
  <path class="fil0" d="M114.82 125.37c-0.03,1.38 0.1,3.03 0.84,4.23 0.49,0.8 1.61,0.2 1.43,-0.65 -0.13,-0.66 -0.3,-1.31 -0.41,-1.98 -0.1,-0.62 -0.14,-1.24 -0.32,-1.84 -0.26,-0.87 -1.52,-0.62 -1.54,0.25z"/>
  <path class="fil0" d="M120.05 129.16c0.04,-0.61 -0.09,-1.2 -0.17,-1.8 -0.08,-0.62 -0.13,-1.25 -0.25,-1.87 -0.15,-0.75 -1.37,-0.7 -1.5,0.03 -0.2,1.2 -0.07,2.75 0.35,3.88 0.33,0.87 1.5,0.65 1.57,-0.25z"/>
  <path class="fil0" d="M123.3 127.91c0.15,-0.85 -0.31,-1.84 -0.67,-2.6 -0.14,-0.31 -0.58,-0.42 -0.88,-0.33 -0.44,0.13 -0.6,0.55 -0.51,0.96 0.07,0.35 0.12,0.69 0.19,1.03 0.09,0.39 0.15,0.86 0.4,1.18 0.38,0.49 1.33,0.53 1.46,-0.23z"/>
  <path class="fil0" d="M125.94 126.64c0.23,-0.51 0.13,-1.13 0.07,-1.67 -0.04,-0.33 -0.22,-0.62 -0.57,-0.71 -0.36,-0.09 -0.86,0.14 -0.91,0.55 -0.07,0.62 -0.2,1.29 0.07,1.87 0.24,0.52 1.11,0.46 1.34,-0.03z"/>
  <path class="fil0" d="M44.64 134.67c0.43,0.72 1.67,0.2 1.36,-0.61 -0.23,-0.59 -0.47,-1.15 -0.94,-1.6 -0.29,-0.28 -0.77,-0.26 -1.05,0.03 -0.3,0.32 -0.23,0.74 0.03,1.05 0.27,0.32 0.39,0.78 0.6,1.13z"/>
  <path class="fil0" d="M46.73 133.83c0.13,0.4 0.22,0.81 0.35,1.22 0.27,0.81 1.59,0.65 1.52,-0.24 -0.08,-1.06 -0.33,-2.25 -1.32,-2.82 -0.74,-0.43 -1.49,0.61 -0.88,1.2l0.33 0.65z"/>
  <path class="fil0" d="M51.15 136.08c0.12,-1.23 -0.13,-2.47 -0.41,-3.66 -0.19,-0.82 -1.56,-0.61 -1.48,0.24 0.12,1.15 0.21,2.31 0.35,3.46 0.12,1 1.44,0.94 1.54,-0.04z"/>
  <path class="fil0" d="M54.25 136.44c-0.04,-1.16 -0.28,-2.36 -0.6,-3.48 -0.24,-0.8 -1.57,-0.62 -1.48,0.24 0.13,1.16 0.22,2.37 0.56,3.49 0.26,0.83 1.54,0.64 1.52,-0.25z"/>
  <path class="fil0" d="M57.14 133.53c-0.05,-0.98 -1.45,-0.92 -1.49,0.04 -0.06,1.09 -0.08,2.28 0.38,3.3 0.4,0.9 1.66,0.54 1.47,-0.45 -0.19,-0.97 -0.3,-1.9 -0.36,-2.89z"/>
  <path class="fil0" d="M58.77 134.31c0.17,0.78 0.15,1.59 0.36,2.37 0.25,0.95 1.62,0.5 1.44,-0.44 -0.15,-0.78 -0.19,-1.59 -0.37,-2.37 -0.22,-0.94 -1.63,-0.5 -1.43,0.43z"/>
  <path class="fil0" d="M63.91 136.63c0.07,-1.36 -0.13,-2.87 -0.42,-4.21 -0.18,-0.84 -1.51,-0.6 -1.48,0.24 0.07,1.37 -0.06,2.9 0.37,4.22 0.29,0.87 1.49,0.62 1.53,-0.25z"/>
  <path class="fil0" d="M67.18 136.99c0.15,-1.51 0.05,-3.05 -0.02,-4.55 -0.04,-0.98 -1.47,-0.93 -1.51,0.04 -0.06,1.51 -0.16,3.05 -0.01,4.55 0.1,1.01 1.44,0.93 1.54,-0.04z"/>
  <path class="fil0" d="M69.28 136.66c0.05,0.35 0.22,0.64 0.59,0.73 0.37,0.1 0.89,-0.14 0.94,-0.56 0.13,-1 -0.12,-2 -0.4,-2.95 -0.27,-0.95 -1.63,-0.5 -1.44,0.43 0.16,0.78 0.19,1.57 0.31,2.35z"/>
  <path class="fil0" d="M30.36 120.03c-0.02,0.7 0.09,1.51 0.36,2.15 0.34,0.81 1.55,0.7 1.57,-0.25 0.01,-0.7 -0.15,-1.5 -0.43,-2.15 -0.33,-0.77 -1.48,-0.67 -1.49,0.24z"/>
  <path class="fil0" d="M29.27 115.86c-0.02,-0.48 -0.21,-0.92 -0.37,-1.36 -0.16,-0.46 -0.32,-0.89 -0.52,-1.33 -0.27,-0.58 -1.31,-0.41 -1.39,0.21 -0.13,1.01 0.07,2.38 0.91,3.08 0.52,0.44 1.4,0.14 1.37,-0.61z"/>
  <path class="fil0" d="M133.2 115.95c0.33,0.08 0.79,-0.07 0.92,-0.4 0.28,-0.69 0.27,-1.62 0.21,-2.36 -0.07,-0.75 -1.14,-1.14 -1.51,-0.37 -0.34,0.7 -0.51,1.83 -0.2,2.57 0.11,0.27 0.29,0.49 0.59,0.56z"/>
  <path class="fil0" d="M72.39 133.51c0.03,0.97 0.01,1.94 -0.02,2.92 -0.02,0.89 1.34,1.02 1.54,0.17 0.27,-1.15 0.44,-2.41 -0.11,-3.5 -0.35,-0.7 -1.43,-0.3 -1.41,0.42z"/>
  <path class="fil0" d="M77.14 137.72c0.07,-1.31 -0.27,-2.7 -0.42,-4.01 -0.1,-0.83 -1.3,-1.06 -1.52,-0.17 -0.36,1.41 -0.05,3.06 0.32,4.44 0.25,0.95 1.58,0.64 1.63,-0.26z"/>
  <path class="fil0" d="M80.01 136.84c0.23,-0.65 0.1,-1.34 -0.02,-2 -0.12,-0.7 -0.33,-1.39 -0.71,-2 -0.38,-0.61 -1.55,-0.38 -1.44,0.43 0.07,0.54 0.19,1.07 0.3,1.61 0.14,0.66 0.07,1.37 0.32,2 0.3,0.77 1.27,0.72 1.55,-0.04z"/>
  <path class="fil0" d="M82.81 137.69c0.47,-1.48 -0.22,-3.49 -0.67,-4.91 -0.25,-0.82 -1.54,-0.63 -1.5,0.24 0.03,0.75 0.11,1.5 0.22,2.25 0.12,0.81 0.09,1.69 0.37,2.46 0.28,0.78 1.33,0.74 1.58,-0.04z"/>
  <path class="fil0" d="M84.87 137.06c0.3,0.57 1.35,0.45 1.44,-0.22 0.18,-1.36 -0.34,-3.01 -0.77,-4.3 -0.27,-0.81 -1.53,-0.64 -1.49,0.24 0.03,0.74 0.15,1.46 0.26,2.18 0.11,0.72 0.2,1.46 0.56,2.1z"/>
  <path class="fil0" d="M89.5 136.6c0.18,-0.58 0.09,-1.25 0.03,-1.84 -0.06,-0.69 -0.2,-1.31 -0.55,-1.91 -0.35,-0.63 -1.51,-0.34 -1.41,0.42 0.15,1.14 -0.12,2.54 0.43,3.57 0.35,0.67 1.3,0.4 1.49,-0.23z"/>
  <path class="fil0" d="M92.92 137.03c0.59,-1.29 0.74,-4.16 -1,-4.66 -0.63,-0.18 -1.03,0.44 -0.93,0.98 0.1,0.53 0.35,1.01 0.41,1.56 0.07,0.58 0.03,1.17 0.02,1.75 -0.02,0.77 1.16,1.09 1.49,0.37z"/>
  <path class="fil0" d="M96.13 136.71c0.16,-1.17 0.17,-2.44 0.02,-3.61 -0.11,-0.79 -1.39,-1.09 -1.51,-0.16 -0.16,1.17 -0.18,2.43 -0.03,3.6 0.11,0.79 1.41,1.1 1.52,0.17z"/>
  <path class="fil0" d="M99.44 136.11c0.19,-0.64 0.09,-1.31 0.06,-1.97 -0.04,-0.62 -0.04,-1.25 -0.21,-1.86 -0.23,-0.76 -1.29,-0.69 -1.5,0.04 -0.35,1.16 -0.35,2.93 0.19,4.01 0.33,0.66 1.29,0.39 1.47,-0.23z"/>
  <path class="fil0" d="M102.16 136.19c0.34,-0.57 0.25,-1.34 0.25,-1.98 0,-0.66 -0.13,-1.26 -0.42,-1.85 -0.36,-0.71 -1.45,-0.3 -1.43,0.42 0.02,0.56 0,1.12 -0.01,1.68 -0.01,0.61 -0.11,1.21 0.21,1.77 0.31,0.54 1.1,0.47 1.39,-0.03z"/>
  <path class="fil0" d="M105.06 135.57c0.51,-0.82 0.25,-2.15 0.03,-3.03 -0.19,-0.74 -1.3,-0.68 -1.47,0.04 -0.11,0.48 -0.12,0.98 -0.12,1.47 0,0.46 -0.03,0.93 0.1,1.38 0.19,0.69 1.1,0.72 1.45,0.15z"/>
  <path class="fil0" d="M108.64 134.89c0.26,-0.87 0.29,-1.83 0.1,-2.72 -0.16,-0.74 -1.31,-0.67 -1.47,0.04 -0.18,0.81 -0.14,1.68 -0.16,2.51 -0.02,0.91 1.29,0.98 1.52,0.17z"/>
  <path class="fil0" d="M111.73 134.71c0.08,-0.95 0.27,-1.99 0.05,-2.93 -0.18,-0.75 -1.29,-0.66 -1.47,0.04 -0.22,0.91 -0.19,2 -0.12,2.93 0.07,1.01 1.44,0.93 1.53,-0.04z"/>
  <path class="fil0" d="M113.67 133.96c0.32,0.57 1.29,0.44 1.42,-0.22 0.12,-0.65 -0.08,-1.47 -0.39,-2.04 -0.16,-0.29 -0.55,-0.42 -0.86,-0.32 -0.35,0.11 -0.5,0.4 -0.54,0.74 -0.03,0.31 0.04,0.61 0.09,0.92 0.06,0.33 0.11,0.64 0.28,0.93z"/>
  <path class="fil0" d="M117.15 131.73c-0.36,-0.09 -0.85,0.14 -0.91,0.55 -0.05,0.39 -0.12,0.8 -0.13,1.2 -0.01,0.74 1.12,1.05 1.44,0.36 0.2,-0.45 0.24,-0.91 0.17,-1.39 -0.05,-0.34 -0.22,-0.62 -0.57,-0.71z"/>
  <path class="fil0" d="M55.04 139.32l0.06 0.47 0.56 0.53c0.37,0.09 0.67,-0.09 0.87,-0.38 0.41,-0.58 0.12,-1.31 -0.41,-1.68 -0.55,-0.39 -1.3,0.3 -1.1,0.89l0.02 0.17z"/>
  <path class="fil0" d="M58.39 141.51c0.31,0.76 1.52,0.67 1.49,-0.24 -0.03,-0.81 0.05,-1.7 -0.22,-2.48 -0.27,-0.78 -1.56,-0.64 -1.49,0.24 0.07,0.82 -0.1,1.7 0.21,2.48z"/>
  <path class="fil0" d="M62.51 141.93c0.22,-0.83 0.12,-1.86 -0.09,-2.69 -0.18,-0.76 -1.34,-0.7 -1.51,0.04 -0.19,0.83 -0.11,1.87 0.12,2.69 0.21,0.75 1.3,0.69 1.48,-0.04z"/>
  <path class="fil0" d="M63.85 142.79c0.25,0.9 1.44,0.58 1.51,-0.24 0.09,-1.08 -0.1,-2.14 -0.58,-3.11 -0.39,-0.78 -1.63,-0.19 -1.37,0.61 0.29,0.88 0.19,1.84 0.44,2.74z"/>
  <path class="fil0" d="M68.64 142.28c-0.01,-0.76 -0.2,-1.55 -0.32,-2.3 -0.12,-0.73 -1.36,-0.68 -1.46,0.04 -0.14,0.91 -0.07,1.86 0.35,2.69 0.36,0.72 1.44,0.3 1.43,-0.43z"/>
  <path class="fil0" d="M69.29 139.58c0.15,1.09 -0.05,2.23 0.2,3.31 0.19,0.78 1.33,0.68 1.52,-0.04 0.27,-1.08 0.39,-2.74 -0.29,-3.69 -0.4,-0.56 -1.53,-0.4 -1.42,0.42z"/>
  <path class="fil0" d="M73.43 139.18c-0.55,-0.18 -1.1,0.43 -0.92,0.97 0.31,0.93 0.14,1.89 0.34,2.83 0.17,0.79 1.34,0.68 1.52,-0.04 0.3,-1.2 0.6,-3.27 -0.94,-3.76z"/>
  <path class="fil0" d="M76.16 140.6c0.42,1.02 0.21,2.14 0.44,3.19 0.17,0.77 1.33,0.69 1.5,-0.04 0.28,-1.24 0.27,-2.97 -0.68,-3.93 -0.51,-0.52 -1.56,0.05 -1.26,0.77z"/>
  <path class="fil0" d="M79.32 139.88c0.09,0.56 0.25,1.09 0.3,1.66 0.05,0.56 0.06,1.13 0.13,1.69 0.11,0.79 1.41,1.1 1.53,0.17 0.17,-1.31 0.21,-3 -0.53,-4.15 -0.52,-0.8 -1.57,-0.2 -1.43,0.64z"/>
  <path class="fil0" d="M82.49 140.49c0.05,1.04 -0.26,2.1 -0.07,3.12 0.12,0.64 1.19,0.76 1.44,0.15 0.46,-1.13 0.61,-2.58 0.07,-3.7 -0.34,-0.71 -1.48,-0.31 -1.44,0.43z"/>
  <path class="fil0" d="M85.14 139.94c0,0.49 0.02,0.98 0.02,1.47 -0,0.59 -0.07,1.17 0.09,1.74 0.19,0.78 1.32,0.69 1.51,-0.04 0.15,-0.56 0.12,-1.17 0.12,-1.75 -0,-0.57 -0.05,-1.13 -0.24,-1.67 -0.29,-0.8 -1.49,-0.64 -1.49,0.24z"/>
  <path class="fil0" d="M90.51 143.09c0.02,-0.98 -0.45,-1.93 -0.56,-2.92 -0.12,-0.97 -1.46,-0.94 -1.52,0.04 -0.07,1.01 0.17,2.18 0.56,3.12 0.34,0.79 1.51,0.68 1.53,-0.25z"/>
  <path class="fil0" d="M93.69 142.12c0.19,-1.1 0.2,-2.44 -0.38,-3.42 -0.47,-0.78 -1.58,-0.19 -1.39,0.63 0.2,0.93 -0.06,1.92 0.26,2.83 0.24,0.69 1.38,0.77 1.52,-0.04z"/>
  <path class="fil0" d="M96.67 142.57c0.13,-1 -0.1,-2.02 -0.08,-3.03 0.01,-0.84 -1.36,-1.01 -1.49,-0.16 -0.16,1.03 -0.25,2.23 0.09,3.23 0.22,0.66 1.38,0.77 1.48,-0.04z"/>
  <path class="fil0" d="M100.06 139.27c-0.08,-0.99 -1.44,-0.93 -1.52,0.04 -0.06,0.7 -0.13,1.44 0.12,2.12 0.3,0.85 1.42,0.61 1.5,-0.24 0.05,-0.63 -0.04,-1.28 -0.1,-1.91z"/>
  <path class="fil0" d="M102.58 138c-0.37,-0.09 -0.89,0.14 -0.93,0.56 -0.08,0.73 -0.08,1.44 0.19,2.14 0.31,0.82 1.48,0.64 1.52,-0.24 0.02,-0.59 -0.11,-1.15 -0.19,-1.73 -0.04,-0.35 -0.22,-0.64 -0.58,-0.73z"/>
  <path class="fil0" d="M104.84 137.19c-0.08,0.39 -0.09,0.81 -0.09,1.21 0,0.41 -0,0.83 0.14,1.21 0.13,0.34 0.41,0.58 0.8,0.58 0.33,-0.01 0.72,-0.26 0.77,-0.61 0.1,-0.83 0.14,-1.84 -0.23,-2.6 -0.29,-0.6 -1.26,-0.39 -1.39,0.22z"/>
  <path class="fil0" d="M109.05 138.74c0.07,-0.32 0.05,-0.61 0.02,-0.93 -0.04,-0.34 -0.22,-0.62 -0.57,-0.71 -0.36,-0.09 -0.87,0.14 -0.92,0.55 -0.05,0.39 -0.07,0.74 0,1.13 0.15,0.75 1.32,0.67 1.47,-0.04z"/>
  <path class="fil0" d="M53.93 113.96c0.12,-0.29 0.17,-0.69 -0.02,-0.96l-0.83 0.15 -0.02 0.57c0.03,0.51 0.65,0.76 0.87,0.24z"/>
  <path class="fil0" d="M54.86 106.86c0.24,-0.5 0.27,-1.05 0.16,-1.59l-0.22 -0.36c-0.38,0.36 -0.73,0.74 -1.06,1.15l-0.27 0.3 -0.01 0.15c-0.03,0.74 1.08,1.01 1.41,0.35z"/>
  <path class="fil0" d="M54.19 99.02l-0.07 -0.27c-0.07,-0.31 -0.17,-0.63 -0.27,-0.93 -0.28,-0.8 -1.32,-0.72 -1.58,0.04 -0.36,1.05 -0.01,3.09 1.51,2.77 0.41,-0.08 0.6,-0.5 0.63,-0.87l-0.2 -0.66 -0.02 -0.09z"/>
  <path class="fil0" d="M127.2 88.65c-0.52,-1.63 -1.86,-2.36 -3.36,-1.93 -0.07,-1.64 -0.7,-3.08 -2.06,-4.3 -2.26,-2 -4.93,-0.59 -7.13,0.55 -0.79,0.4 -0.18,1.74 0.63,1.41 0.91,-0.37 1.67,-0.78 2.6,-1.17 2.94,-1.25 4.49,2.58 4.17,4.77 -0.1,0.66 0.63,1.47 1.3,0.95 0.79,0.26 1.58,0.52 2.37,0.78 0.06,0.36 0.49,0.61 0.83,0.6 0.33,0.56 0.65,1.12 0.98,1.68 -0.09,0.48 0.27,1.14 0.85,1.05 5.43,-0.86 1.73,5.25 1.35,5.06 -0.5,-0.25 -1.3,-0.04 -1.39,0.61 -0.09,0.65 -0.35,1.27 -0.61,1.87 -0.17,0.38 -0.35,0.76 -0.55,1.13 -0.3,0.6 -0.44,1.54 -0.64,0.78 -0.19,-0.76 -1.1,-0.83 -1.61,-0.38 -0.52,0.46 -1.07,0.88 -1.63,1.3 -0.98,0.74 0.02,2.38 1.01,1.63 0.31,-0.23 0.62,-0.47 0.93,-0.72 1.41,2.08 3.96,-1.96 4.75,-4.3 3.42,-0.26 5.19,-9.2 -0.69,-8.81 -0.02,-1.39 -0.61,-2.37 -2.08,-2.56z"/>
  <path class="fil0" d="M117.55 109.26c0.37,0.63 1.59,0.56 1.68,-0.26 0.2,-1.77 -0.07,-3.62 0.04,-5.42 0.02,-0.35 0.04,-0.7 0.05,-1.06 1.01,-0.21 1.83,-0.67 2.43,-1.57 0.5,-0.75 -0.66,-1.56 -1.24,-0.91 -0.35,0.38 -0.74,0.64 -1.19,0.85 -0.05,-1.05 -0.22,-2.08 -0.63,-3.08 -0.37,-0.88 -1.69,-0.52 -1.44,0.44 0.54,2.12 0.35,4.26 0.07,6.4 -0.2,1.52 -0.6,3.22 0.23,4.61z"/>
  <path class="fil0" d="M20.13 96.9c1.95,-1.89 4.15,-1.04 5.68,0.62l0.39 0.47c0.2,0.26 0.39,0.53 0.56,0.81 0.45,0.74 1.72,0.2 1.4,-0.63 -0.1,-0.27 -0.23,-0.53 -0.37,-0.78 0.71,-0.37 1.48,-0.6 2.31,-0.6 1.53,0 1.92,1.23 1.99,2.53 0.04,0.86 1.4,1.08 1.55,0.17 0.11,-0.65 0.09,-1.21 -0.02,-1.71l0.1 -0.12c1.54,-2.88 4.3,-0.24 5.72,1.3 0.53,0.58 1.57,-0.07 1.3,-0.8 -0.18,-0.49 -0.47,-0.95 -0.81,-1.37 0.42,-1.68 0.37,-3.37 1.95,-4.49 1.16,-0.83 2.93,-1.27 3.81,0.13 0.46,0.74 1.75,0.21 1.42,-0.64 -0.9,-2.33 -3.4,-2.62 -5.45,-1.6 -2.13,1.06 -3.17,3.01 -3.36,5.22 -1.93,-1.13 -4.36,-1.19 -5.54,0.76 -1.4,-1.35 -4.03,-1.35 -5.94,-0.1 -2.06,-2.18 -5.53,-2.79 -7.78,-0.2 -0.63,0.72 0.39,1.7 1.08,1.03z"/>
  <path class="fil0" d="M35.06 106.74c0.78,0.42 1.64,-0.67 0.93,-1.28 -1.31,-1.12 -3.71,-1.27 -5.1,-0.11 -1.46,-1.59 -3.62,-2.52 -5.51,-1.41 -0.73,0.43 -0.2,1.66 0.62,1.37 2.35,-0.84 4.61,2.05 5.05,4.06 0.19,0.88 1.52,0.61 1.52,-0.24 -0.01,-0.72 -0.23,-1.47 -0.58,-2.19 0.98,-0.47 1.88,-0.82 3.06,-0.19z"/>
  <path class="fil0" d="M91.41 94.03c0.75,-0.18 0.72,-1.36 -0.04,-1.5 -2.15,-0.4 -4.55,1.16 -4.94,3.28 -2.09,-0.65 -4.82,0.23 -6.31,1.88 -1.38,-0.96 -3.1,-1.33 -4.66,-0.52 -0.72,0.38 -0.3,1.44 0.43,1.44 1.06,0.01 1.96,-0.02 2.94,0.47 1.07,0.55 1.83,1.53 2.3,2.62 0.39,0.93 1.74,0.55 1.51,-0.46 -0.19,-0.85 -0.63,-1.67 -1.22,-2.38 1.89,-1.24 4.44,-2.61 6,-0.26 0.57,0.86 1.76,0.07 1.33,-0.82 -0.19,-0.41 -0.44,-0.75 -0.73,-1.04 0.25,-0.61 0.5,-1.21 0.96,-1.69 0.67,-0.69 1.55,-0.82 2.43,-1.03z"/>
  <path class="fil0" d="M82.04 105.91c0.19,0.45 0.13,0.97 0.22,1.45 0.14,0.75 1.34,0.68 1.48,-0.04 0.13,-0.7 0.04,-1.42 -0.25,-2.06 -0.37,-0.83 -1.81,-0.18 -1.45,0.65z"/>
  <path class="fil0" d="M61.32 100.04c0.79,0.63 1.7,-0.36 1.06,-1.12 -0.94,-1.11 -2.33,-1.96 -3.83,-1.86 -0.84,0.05 -1.08,1.43 -0.17,1.54 1.17,0.15 2.03,0.71 2.93,1.44z"/>
  <path class="fil0" d="M43.1 104.74c0.54,-0.6 1.39,-0.87 2.05,-1.31 0.78,-0.53 0.21,-1.58 -0.65,-1.43 -0.53,0.1 -1.06,0.34 -1.52,0.63 -0.49,0.31 -0.79,0.75 -1.1,1.22 -0.49,0.73 0.65,1.53 1.22,0.9z"/>
  <path class="fil0" d="M91.35 102.53c-0.87,-0.09 -1.88,0.08 -2.58,0.64 -0.8,0.64 -0.1,1.82 0.84,1.36 0.57,-0.28 1.16,-0.38 1.79,-0.46 1,-0.13 0.95,-1.44 -0.04,-1.54z"/>
  <path class="fil0" d="M135.48 95.68c1.39,0.06 2.47,0.5 3.33,1.65 0.59,0.79 1.82,0.06 1.32,-0.81 -0.22,-0.38 -0.5,-0.73 -0.8,-1.04 0.73,-0.95 1.29,-2 2.36,-2.65 0.85,-0.51 0.07,-1.68 -0.79,-1.28 -1.32,0.62 -2.01,1.87 -2.8,3.02 -0.86,-0.44 -1.85,-0.6 -2.86,-0.38 -0.88,0.19 -0.57,1.45 0.24,1.49z"/>
  <path class="fil0" d="M128.04 106.03c-0.39,0.64 0.46,1.52 1.1,1.04 0.95,-0.72 1.86,-1.21 2.95,-1.33 0.01,0.36 0.04,0.72 0.1,1.07 0.15,0.88 1.52,0.6 1.51,-0.24 -0,-0.36 0,-0.75 0.03,-1.13l0.09 -0.66c0.14,-0.82 0.46,-1.59 1.15,-2.11 0.75,-0.58 0.05,-1.79 -0.79,-1.28 -1.01,0.61 -1.6,1.57 -1.88,2.64 -1.6,-0.08 -3.45,0.7 -4.24,2z"/>
  <polygon class="fil0" points="56.53,44.73 56.52,44.93 "/>
  <path class="fil0" d="M56.75 44.14l-0.07 0.09 -0.15 0.5 0.02 0.53c0.11,0.35 0.33,0.7 0.68,0.85 0.69,0.31 1.5,0.16 1.89,-0.54 0.15,-0.28 0.22,-0.58 0.21,-0.9 -0.01,-0.46 -0.27,-0.95 -0.7,-1.15 -0.29,-0.14 -0.66,-0.28 -0.98,-0.14 -0.36,0.16 -0.66,0.31 -0.87,0.67l-0.03 0.1z"/>
  <path class="fil0" d="M96.43 36.85c0.3,0.92 1.47,1.2 2.15,0.51l0.05 -0.05c0.39,-0.39 0.52,-1.14 0.17,-1.6l-0.03 -0.04c-0.51,-0.68 -1.37,-0.81 -2.01,-0.21l-0.04 0.03c-0.33,0.31 -0.44,0.87 -0.3,1.29l0.02 0.07z"/>
  <path class="fil0" d="M116.9 59.35l-0.15 -0.01c-0.76,-0.05 -1.37,0.71 -1.35,1.42 0.02,0.74 0.67,1.4 1.42,1.35l0.15 -0.01c0.43,0.03 0.8,-0.21 1.05,-0.55 0.18,-0.24 0.3,-0.53 0.29,-0.86 -0.01,-0.34 -0.13,-0.61 -0.32,-0.84 -0.26,-0.33 -0.66,-0.53 -1.1,-0.51z"/>
  <path class="fil0" d="M138.16 45.13l0.52 -0.06 0.05 -0.02c0.25,-0.08 0.47,-0.25 0.62,-0.52l0.13 -0.38 0.01 -0.08 0 -0.14 -0.02 -0.13 -0.01 -0.07 -0.01 -0.09c-0.11,-0.36 -0.43,-0.64 -0.79,-0.77l-0.03 -0.01 -0.06 -0.01 -0.13 -0.03 -0.33 -0.01c-0.64,0.04 -1.15,0.53 -1.14,1.19 0.01,0.68 0.56,1.09 1.19,1.13z"/>
  <path class="fil0" d="M117.73 45.84l0.01 -0.01 -0.01 0.01zm0.42 -1.74c-0.71,-0.36 -1.28,0.07 -1.61,0.69 -0.37,0.67 0.29,1.31 0.94,1.15 0.39,0.12 0.86,-0.03 1.01,-0.44 0.34,-0.42 0.14,-1.16 -0.33,-1.4z"/>
  <path class="fil0" d="M88.46 55.55l-0.1 0.06c-0.43,0.27 -0.5,0.77 -0.3,1.16 0.13,0.46 0.7,0.78 1.19,0.48 0.38,-0.12 0.67,-0.45 0.66,-0.91 -0.02,-0.77 -0.82,-1.1 -1.45,-0.79z"/>
  <path class="fil0" d="M78.83 29.26c-0.61,0.07 -1.13,0.39 -1.29,1.03 -0.16,0.66 0.26,1.55 0.99,1.65l0.21 0.03c-0.1,-0.01 0.93,0.13 0.23,0.02 0.59,0.09 1.27,-0.09 1.55,-0.68l0.13 -0.33c0.1,-0.68 -0.21,-1.58 -1.01,-1.69 -0.29,-0.04 -0.53,-0.06 -0.82,-0.02z"/>
  <path class="fil0" d="M75.02 45.74l0.71 0.13c0.51,0.05 0.92,-0.49 0.91,-0.95 -0.01,-0.48 -0.45,-0.96 -0.95,-0.9l-0.35 0.05 -0.35 0.08c-0.81,0.26 -0.73,1.35 0.04,1.59z"/>
  <polygon class="fil0" points="75.26,44.08 75.33,44.07 "/>
  <path class="fil0" d="M74.53 60.71l-0.13 -0.62c-0.28,-0.35 -0.85,-0.54 -1.19,-0.13 -0.2,0.25 -0.22,0.48 -0.22,0.78 0.02,0.99 1.52,0.94 1.53,-0.04z"/>
  <path class="fil0" d="M48.75 60.17l-0.01 0.01 0.01 -0.01zm0.9 -0.22l-0.28 -0.03 0.06 -0.02c-0.47,-0.1 -0.85,0.16 -0.98,0.54 -0.28,0.42 -0.15,1.13 0.33,1.35l0.11 0.05 -0.02 -0.02 0.56 0.17c0.44,-0.01 0.88,-0.33 0.97,-0.78l0.01 -0.02c0.1,-0.51 -0.18,-1.15 -0.74,-1.24z"/>
  <polygon class="fil0" points="37.41,45.78 37.35,45.88 37.42,45.78 "/>
  <path class="fil0" d="M38.28 45.05l-0.64 0.37 -0.1 0.15 -0.13 0.21 -0.06 0.1 0 0.56c0.04,1.11 1.52,1.58 2.26,0.79 0.42,-0.43 0.49,-1.1 0.17,-1.61 -0.28,-0.46 -0.97,-0.81 -1.51,-0.57z"/>
  <path class="fil0" d="M26.12 36.02l-0.66 0.19 -0.3 0.3 -0.1 0.08c-0.38,0.41 -0.25,1.02 0.2,1.3 0.27,0.17 0.51,0.15 0.81,0.1l0.33 -0.15 0.11 -0.09c0.89,-0.33 0.59,-1.73 -0.37,-1.72z"/>
  <path class="fil0" d="M23.79 57.09l-0.23 -0.17 -0.17 -0.09c-0.69,-0.42 -1.42,0.36 -1.18,1.03l0.39 0.64 0.12 0.08c0.66,0.42 1.61,-0.33 1.33,-1.07l-0.26 -0.43z"/>
  <path class="fil0" d="M11.31 58.36l-0.04 0.23c-0.04,0.44 0.12,0.87 0.6,0.98 0.47,0.12 1.07,-0.27 1.01,-0.81l-0.07 -0.45c-0.25,-0.75 -1.25,-0.67 -1.49,0.04z"/>
  <path class="fil0" d="M144.9 60.03l0.28 0.5c0.29,0.73 1.47,0.6 1.51,-0.31 -0.02,0.44 0.04,-0.01 0.08,-0.14 0.13,-0.38 -0.1,-0.9 -0.47,-1.07 -0.36,-0.17 -0.74,-0.19 -1.08,0.04 -0.36,0.24 -0.45,0.62 -0.33,0.98l0 -0z"/>
  <path class="fil0" d="M64.33 30.89c0.33,0.08 0.75,-0.07 0.9,-0.39l0.12 -0.64c-0.02,-1.07 -1.63,-1.02 -1.65,0.04l0.05 0.44c0.12,0.27 0.28,0.47 0.58,0.55z"/>
  <path class="fil0" d="M103.63 33.9l0.01 -0 0.04 0.04 -0.06 -0.04zm0.38 0.28l-0.17 -0.3c-0.14,-0.25 -0.39,-0.42 -0.7,-0.42 -0.32,0.01 -0.71,0.25 -0.74,0.59l-0.03 0.16c-0.08,0.3 0.03,0.61 0.24,0.82l0.11 0.12 -0 -0.02c0.27,0.24 0.63,0.35 0.97,0.13l0 -0c0.33,-0.21 0.41,-0.55 0.35,-0.91l-0.01 -0.04 -0.01 -0.14z"/>
  <path class="fil0" d="M105.08 52.82l-0.41 0.17c-0.53,0.38 -0.47,1.05 0.04,1.41l0.42 0.17c0.57,0.2 1.14,-0.36 1.13,-0.9 -0.02,-0.57 -0.61,-1.04 -1.17,-0.85z"/>
  <path class="fil0" d="M133.48 50.41l0.06 -0.02c0.38,-0.06 0.7,-0.24 0.79,-0.64 0.1,-0.41 -0.16,-0.95 -0.61,-1.02l-0.21 -0.04c-0.55,-0.16 -1.1,0.32 -1.09,0.87 0.01,0.55 0.53,0.93 1.06,0.83z"/>
  <polygon class="fil0" points="133.56,50.4 133.48,50.41 "/>
 </g>
</svg>
