<?xml version="1.0" encoding="UTF-8"?>
<svg xmlns="http://www.w3.org/2000/svg" xml:space="preserve" width="0.747331in" height="0.747331in" version="1.1" style="shape-rendering:geometricPrecision; text-rendering:geometricPrecision; image-rendering:optimizeQuality; fill-rule:evenodd; clip-rule:evenodd"
viewBox="0 0 451.16 451.16"
 xmlns:xlink="http://www.w3.org/1999/xlink"
 xmlns:xodm="http://www.corel.com/coreldraw/odm/2003">
 <defs>
  <style type="text/css">
   <![CDATA[
    .fil0 {fill:black;fill-rule:nonzero}
   ]]>
  </style>
 </defs>
 <g id="Layer_x0020_1">
  <metadata id="CorelCorpID_0Corel-Layer"/>
  <path class="fil0" d="M42.04 305.59l11.16 -4.42 1.13 -1.09 0.02 -1.57 -0.14 -0.35c-0.42,-1.05 -1.61,-1.55 -2.66,-1.15l-11.16 4.44 -1.85 -0.04 -1.26 -1.3 0.03 -1.84 1.32 -1.27 11.15 -4.4c1.05,-0.43 1.57,-1.61 1.16,-2.65l-0.13 -0.34 -1.09 -1.15 -1.57 -0.03 -11.17 4.42c-1.72,0.69 -3.03,1.95 -3.76,3.64 -0.74,1.69 -0.76,3.51 -0.07,5.26 0.69,1.75 1.92,3 3.64,3.75 0.89,0.39 1.81,0.59 2.72,0.59 0.83,0 1.68,-0.17 2.51,-0.49z"/>
  <path class="fil0" d="M62.65 316.84l-0.13 -1.57 -0.17 -0.33c-0.52,-1.01 -1.76,-1.39 -2.75,-0.86l-7.12 3.66 5.69 -8.56 0.12 -2.07 -0.18 -0.35 -1.21 -1.01 -1.56 0.14 -14.76 7.63c-1.01,0.53 -1.4,1.76 -0.88,2.77l0.17 0.32 1.19 1.01 1.57 -0.13 7.11 -3.69 -5.69 8.58 -0.12 2.07 0.19 0.35 1.2 1.01 0.62 0.09 0.95 -0.23 14.75 -7.64 1.01 -1.19z"/>
  <path class="fil0" d="M70.14 328.89l-0.29 -1.55 -0.2 -0.31c-0.61,-0.95 -1.88,-1.21 -2.83,-0.59l-13.91 9.09 -0.88 1.3 0.29 1.54 0.2 0.31 1.72 0.92 1.11 -0.34 13.92 -9.1 0.88 -1.27z"/>
  <path class="fil0" d="M77.04 348.34l-5.74 4.63 -1.77 0.52 -1.59 -0.87 -0.52 -1.76 0.88 -1.6 5.75 -4.65 1.43 -0.52 0.31 0.02 1.62 0.87 0.51 1.76 -0.87 1.6zm5.31 -1.12c0.2,-1.88 -0.29,-3.57 -1.47,-5.03 -1.18,-1.49 -2.73,-2.32 -4.61,-2.52 -1.87,-0.19 -3.56,0.32 -5.02,1.48l-5.74 4.63c-1.48,1.19 -2.31,2.73 -2.52,4.59 -0.19,1.83 0.33,3.58 1.5,5.03 1.17,1.45 2.75,2.32 4.59,2.52l0.79 0.04c1.58,0 2.99,-0.51 4.24,-1.53l5.74 -4.61c1.47,-1.18 2.31,-2.73 2.51,-4.6z"/>
  <path class="fil0" d="M96.56 359.68l-0.26 -0.27 -1.43 -0.6 -1.47 0.59 -5.69 5.63 2.89 -9.88 -0.5 -2.01 -0.29 -0.29c-0.79,-0.81 -2.08,-0.81 -2.89,-0.02l-11.83 11.67 -0.61 1.43 0.59 1.47 0.25 0.26c0.8,0.8 2.1,0.81 2.89,0.02l5.71 -5.63 -2.89 9.88 0.5 2.02 0.29 0.28 1.45 0.61 1.43 -0.59 11.84 -11.66c0.8,-0.79 0.81,-2.08 0.02,-2.89z"/>
  <path class="fil0" d="M96.91 382.16c-0.68,-0.88 -1.93,-1.04 -2.82,-0.39l-3.07 2.24 -0.81 1.34 0.38 1.53 0.22 0.29 1.33 0.81 0.33 0.04 1.21 -0.4 3.06 -2.26 0.82 -1.37 -0.41 -1.52 -0.24 -0.31z"/>
  <path class="fil0" d="M125.3 383.08l-0.87 -1.3 -0.32 -0.23c-0.93,-0.62 -2.2,-0.38 -2.84,0.56l-7.21 10.73 -0.95 0.64 -1.08 -0.23 -1.54 -1.03c-0.94,-0.63 -2.21,-0.39 -2.83,0.55l-0.19 0.29 -0.32 1.54 0.86 1.3 1.54 1.02c1.01,0.69 2.12,1.03 3.29,1.03l1.15 -0.09c1.56,-0.3 2.88,-1.19 3.77,-2.52l7.21 -10.72 0.32 -1.54z"/>
  <path class="fil0" d="M142.21 392.01l-0.33 -0.16 -1.55 -0.16 -1.22 1 -5.67 10.57 -1.43 1.16 -1.8 -0.19 -1.16 -1.42 0.18 -1.82 5.66 -10.58 0.16 -1.55 -1 -1.22 -0.32 -0.18c-0.99,-0.53 -2.23,-0.15 -2.77,0.83l-5.67 10.6c-0.89,1.65 -1.06,3.4 -0.53,5.2 0.54,1.79 1.67,3.16 3.33,4.05 1.03,0.56 2.11,0.83 3.21,0.83l2 -0.3c1.78,-0.54 3.17,-1.69 4.05,-3.31l5.67 -10.57c0.53,-1.01 0.16,-2.25 -0.84,-2.79z"/>
  <path class="fil0" d="M154.26 397.29c-1.78,-0.73 -3.55,-0.7 -5.11,0.12 -1.29,0.68 -2.23,1.69 -2.78,3.04 -0.71,1.71 -0.63,3.45 0.23,5.06l0.13 0.23 0.76 1.01 0.74 0.91 2.05 2.33 0.76 0.99 0.35 0.59 -0.01 0.98 -0.72 0.75 -1.17 0.02c-0.08,-0.04 -0.92,-0.43 -3.63,-3.27 -0.65,-0.69 -1.72,-0.83 -2.54,-0.34l-0.3 0.19 -0.93 1.27 0.24 1.55c0.61,0.98 1.41,1.91 2.39,2.75 1,0.87 2.04,1.52 3.08,1.95 0.77,0.32 1.54,0.46 2.31,0.46 0.89,0 1.76,-0.21 2.59,-0.64 1.32,-0.68 2.27,-1.69 2.82,-2.99 0.61,-1.52 0.91,-3.86 -1.27,-6.49 -0.71,-0.84 -1.36,-1.57 -1.89,-2.17l-1.35 -1.54c-0.77,-0.89 -0.7,-1.44 -0.5,-1.91l0.71 -0.76 1.37 0.04c0.25,0.1 1.06,0.54 3.03,2.27 0.7,0.6 1.73,0.67 2.5,0.15l0.3 -0.21 0.88 -1.36 -0.4 -1.58c-1.11,-1.45 -2.67,-2.61 -4.61,-3.41z"/>
  <path class="fil0" d="M176.98 405.13l-8.85 -2.64c-1.08,-0.33 -2.22,0.29 -2.54,1.39l-0.11 0.35 0.16 1.56 1.22 0.98 2.29 0.69 -4.11 13.79 0.17 1.54 1.21 1.01 0.35 0.11 0.59 0.08c0.88,0 1.69,-0.56 1.96,-1.47l4.1 -13.78 2.28 0.68 1.56 -0.16 0.99 -1.21 0.11 -0.36 -0.16 -1.57 -1.22 -0.98z"/>
  <path class="fil0" d="M190.84 408.43l-0.36 -0.06 -1.53 0.31 -0.87 1.31 -3.09 16.32c-0.23,1.11 0.51,2.19 1.62,2.4l0.37 0.07 0.38 0.04 1.16 -0.35 0.86 -1.31 3.11 -16.33c0.21,-1.11 -0.51,-2.19 -1.64,-2.41z"/>
  <path class="fil0" d="M212.86 411.12l-2.74 -0.25c-2.11,-0.18 -3.79,0.31 -5.14,1.42 -1.33,1.14 -2.1,2.76 -2.28,4.81l-0.65 7.34c-0.18,2.05 0.3,3.79 1.42,5.13 1.13,1.33 2.75,2.09 4.81,2.27l2.74 0.25 0.19 0.01 1.32 -0.48 0.72 -1.4 0.03 -0.34c0.09,-1.13 -0.74,-2.13 -1.86,-2.22l-2.75 -0.24c-1.27,-0.12 -1.66,-0.55 -1.78,-0.71 -0.13,-0.14 -0.51,-0.6 -0.39,-1.88l0.64 -7.34c0.12,-1.27 0.57,-1.64 0.73,-1.77 0.41,-0.34 1.04,-0.48 1.87,-0.39l2.75 0.24c1.13,0.12 2.11,-0.73 2.22,-1.85l0.03 -0.38 -0.47 -1.49 -1.39 -0.73z"/>
  <path class="fil0" d="M231.8 428.07l-0.03 0 -5.16 0.06 -0.05 -4.75 3.31 -0.05c1.13,-0.02 2.04,-0.94 2.03,-2.06l-0.01 -0.38 -0.61 -1.44 -1.46 -0.58 -3.31 0.03 -0.03 -2.9 5.16 -0.07c1.11,-0.01 2.03,-0.93 2.01,-2.06l0 -0.37 -0.61 -1.44 -1.47 -0.59 -7.55 0.09 -1.44 0.61 -0.59 1.45 0.18 16.96 0.62 1.44 1.44 0.59 0.02 0 7.57 -0.08 1.44 -0.62 0.58 -1.46 -0.01 -0.35c-0.02,-1.11 -0.92,-2.02 -2.04,-2.02z"/>
  <path class="fil0" d="M249.5 427.01l-0.37 -0.03c-1.1,-0.09 -2.1,0.67 -2.25,1.76l-0.51 3.77 0.4 1.5 1.35 0.79 0.36 0.05 0.29 0.02 1.24 -0.41 0.79 -1.37 0.51 -3.76 -0.41 -1.54 -1.4 -0.78z"/>
  <path class="fil0" d="M274.5 424.42c-0.24,-1.12 -1.32,-1.83 -2.43,-1.58l-2.69 0.58c-0.83,0.18 -1.46,0.13 -1.92,-0.17 -0.16,-0.11 -0.66,-0.43 -0.93,-1.68l-1.54 -7.22c-0.27,-1.22 0.05,-1.72 0.17,-1.89 0.11,-0.17 0.43,-0.66 1.67,-0.92l2.7 -0.59c1.11,-0.24 1.8,-1.32 1.57,-2.44l-0.07 -0.36 -0.88 -1.28 -1.55 -0.28 -2.69 0.57c-2.03,0.43 -3.53,1.41 -4.49,2.89 -0.95,1.48 -1.2,3.23 -0.76,5.25l1.54 7.23c0.44,2 1.39,3.51 2.87,4.46 1,0.65 2.16,0.98 3.45,0.98l1.81 -0.21 2.71 -0.57 1.29 -0.9 0.28 -1.54 -0.08 -0.34z"/>
  <path class="fil0" d="M289.55 417.14l-1.38 1.18 -0.78 0.13 -1.05 -0.27 -1.19 -1.39 -2.27 -7.02 0.15 -1.83 1.4 -1.19 0.76 -0.13 1.06 0.29 1.17 1.38 2.27 7.03 -0.14 1.82zm2.11 -10.22c-0.57,-1.79 -1.72,-3.13 -3.39,-3.99 -1.66,-0.84 -3.46,-0.99 -5.22,-0.43 -1.77,0.58 -3.15,1.75 -4.01,3.42 -0.84,1.64 -0.98,3.45 -0.41,5.21l2.28 7.03c0.57,1.77 1.74,3.15 3.4,3.99 0.97,0.49 2,0.76 3.06,0.76l2.16 -0.35c1.76,-0.56 3.15,-1.74 3.99,-3.39 0.85,-1.67 0.99,-3.46 0.41,-5.21l-2.27 -7.03z"/>
  <path class="fil0" d="M307.63 395.16c-0.46,-1.03 -1.65,-1.49 -2.69,-1.05l-0.34 0.16 -1.08 1.13 0.03 1.57 3.22 7.32 -8.19 -6.22 -2.07 -0.25 -0.37 0.16c-1.02,0.46 -1.49,1.67 -1.04,2.69l6.68 15.23 1.14 1.08 0.74 0.14 0.82 -0.17 0.34 -0.15c1.04,-0.44 1.51,-1.66 1.05,-2.7l-3.22 -7.33 8.21 6.23 2.05 0.24 0.36 -0.16 1.09 -1.13 -0.04 -1.57 -6.69 -15.22z"/>
  <path class="fil0" d="M326.78 392.88c-0.55,-0.96 -1.8,-1.32 -2.78,-0.76l-4.48 2.53 -1.44 -2.53 4.49 -2.54c0.98,-0.55 1.33,-1.8 0.78,-2.78l-0.18 -0.33 -1.24 -0.97 -1.55 0.2 -6.58 3.72 -0.98 1.22 0.2 1.56 8.27 14.62 1.25 0.96 0.54 0.07 1.01 -0.26 0.31 -0.18c0.98,-0.55 1.32,-1.79 0.77,-2.78l-3.44 -6.1 4.48 -2.53 0.97 -1.23 -0.19 -1.55 -0.19 -0.34z"/>
  <path class="fil0" d="M336.05 378.02c-0.64,-0.91 -1.92,-1.12 -2.85,-0.49l-0.3 0.22 -0.84 1.32 0.34 1.54 9.6 13.57 1.67 0.87 1.19 -0.37 0.3 -0.23 0.83 -1.32 -0.34 -1.53 -9.59 -13.58z"/>
  <path class="fil0" d="M359.06 377.01c-0.14,0.81 -0.42,1.41 -0.88,1.79l-1.44 1.28 -7.98 -9.18 1.46 -1.27c0.46,-0.38 1.07,-0.6 1.89,-0.62l0.02 -0.37 0.07 0 0 0.37c0.86,0 1.49,0.29 2.03,0.91l4.24 4.88c0.55,0.65 0.75,1.32 0.6,2.21zm-1.46 -10.03c-1.39,-1.59 -3.25,-2.43 -5.59,-2.43l-0.01 0c-1.88,0.04 -3.46,0.62 -4.72,1.73l-3.29 2.83c-0.85,0.75 -0.93,2.04 -0.19,2.89l11.12 12.79 1.41 0.71 0.14 0 1.34 -0.5 3.27 -2.84c1.27,-1.11 2.05,-2.58 2.36,-4.44 0.36,-2.19 -0.19,-4.23 -1.63,-5.89l-4.23 -4.87z"/>
  <path class="fil0" d="M378.63 361.65l-1.46 -0.55 -1.44 0.64 -3.53 3.75 -3.47 -3.28 2.28 -2.41 0.55 -1.46 -0.65 -1.44 -0.28 -0.25c-0.82,-0.78 -2.11,-0.75 -2.89,0.07l-2.28 2.41 -2.12 -2 3.54 -3.73 0.54 -1.48 -0.64 -1.43 -0.27 -0.25c-0.82,-0.78 -2.12,-0.75 -2.89,0.09l-5.18 5.51c-0.78,0.83 -0.74,2.13 0.07,2.89l12.35 11.65 1.42 0.56 1.48 -0.65 5.18 -5.5c0.78,-0.81 0.75,-2.12 -0.09,-2.89l-0.25 -0.24z"/>
  <path class="fil0" d="M379.16 334.71c-0.89,-0.69 -2.17,-0.52 -2.86,0.38l-0.23 0.3 -0.42 1.51 0.79 1.36 6.35 4.87 -10.18 -1.52 -1.92 0.77 -0.24 0.31 -0.41 1.51 0.78 1.38 13.18 10.13 1.24 0.43 1.63 -0.8 0.22 -0.29 0.41 -1.51 -0.79 -1.36 -6.34 -4.88 10.19 1.51 1.91 -0.76 0.24 -0.3 0.41 -1.52 -0.77 -1.38 -13.19 -10.14z"/>
  <path class="fil0" d="M403.03 328.58l-0.29 -0.18 -1.56 -0.25 -1.27 0.92 -1.46 2.33c-0.68,1.1 -1.25,1.22 -1.45,1.27l-1.84 -0.49 -6.28 -3.9c-1.06,-0.66 -1.2,-1.23 -1.24,-1.44 -0.06,-0.19 -0.19,-0.77 0.48,-1.85l1.47 -2.35c0.59,-0.96 0.29,-2.21 -0.67,-2.81l-0.31 -0.19 -1.55 -0.26 -1.27 0.92 -1.45 2.33c-1.09,1.76 -1.43,3.52 -1.04,5.23 0.39,1.69 1.48,3.1 3.24,4.2l6.28 3.89c1.29,0.81 2.57,1.19 3.85,1.19l1.36 -0.14c1.71,-0.41 3.12,-1.5 4.21,-3.26l1.46 -2.35c0.59,-0.96 0.29,-2.22 -0.66,-2.83z"/>
  <path class="fil0" d="M394.51 303.77l-3.31 6.79 -0.11 1.56 1.04 1.19 15.25 7.44 0.9 0.22 0.67 -0.11 1.17 -1.04 3.3 -6.78 0.11 -1.58 -1.04 -1.18 -0.32 -0.15c-1.01,-0.48 -2.24,-0.07 -2.72,0.94l-2.27 4.63 -4.29 -2.1 1.46 -2.98c0.49,-1.02 0.08,-2.25 -0.95,-2.75l-0.33 -0.15 -1.57 -0.1 -1.17 1.04 -1.46 2.98 -2.62 -1.28 2.27 -4.64 0.09 -1.55 -1.04 -1.18 -0.34 -0.16c-1.01,-0.49 -2.24,-0.07 -2.73,0.94z"/>
  <path class="fil0" d="M114.84 100.27c-0.79,-0.8 -2.09,-0.82 -2.89,-0.03l-6.09 5.89 -15.27 -15.78 -1.43 -0.62 -1.46 0.57 -0.39 0.37c-0.8,0.79 -0.82,2.08 -0.04,2.89l17.05 17.61 1.44 0.64 0.03 0 1.42 -0.58 7.94 -7.69 0.62 -1.44 -0.58 -1.47 -0.35 -0.36z"/>
  <path class="fil0" d="M122.7 72.55c-0.67,-1.06 -0.87,-2.11 -0.6,-3.33 0.27,-1.22 0.89,-2.11 1.95,-2.79 0.76,-0.48 1.51,-0.71 2.31,-0.71l1.03 0.13c1.21,0.25 2.08,0.87 2.76,1.94l5.81 9.07c0.69,1.06 0.87,2.12 0.6,3.35 -0.26,1.2 -0.88,2.08 -1.93,2.77 -1.06,0.68 -2.13,0.87 -3.35,0.6 -1.22,-0.26 -2.1,-0.87 -2.79,-1.94l-5.81 -9.08zm7.59 15.53l2 0.22c1.69,0 3.31,-0.49 4.82,-1.45 2.11,-1.33 3.44,-3.26 3.97,-5.68 0.54,-2.43 0.13,-4.73 -1.21,-6.82l-5.81 -9.07c-1.34,-2.1 -3.26,-3.44 -5.69,-3.97 -2.41,-0.54 -4.74,-0.11 -6.82,1.22 -2.1,1.34 -3.43,3.26 -3.96,5.69 -0.52,2.41 -0.12,4.69 1.22,6.81l5.82 9.07c1.34,2.11 3.25,3.45 5.67,3.97z"/>
  <path class="fil0" d="M154.76 66.8c0.91,2.33 2.51,4.03 4.77,5.01 1.18,0.52 2.4,0.8 3.62,0.8 1.1,0 2.21,-0.22 3.31,-0.64 2.33,-0.91 4.02,-2.51 5.01,-4.77 1.01,-2.27 1.07,-4.61 0.17,-6.94l-6.31 -16.33 -1.08 -1.14 -1.57 -0.03 -0.5 0.2c-1.06,0.39 -1.58,1.59 -1.16,2.64l6.31 16.33c0.44,1.21 0.43,2.27 -0.08,3.42 -0.49,1.12 -1.27,1.87 -2.45,2.33 -1.18,0.45 -2.25,0.43 -3.4,-0.09 -1.15,-0.49 -1.88,-1.28 -2.34,-2.46l-6.32 -16.34 -1.08 -1.15 -1.57 -0.03 -0.5 0.21c-1.05,0.4 -1.57,1.59 -1.16,2.63l6.31 16.35z"/>
  <path class="fil0" d="M196.35 62.72l1.18 0.39 0.36 -0.04 0.53 -0.1c1.11,-0.18 1.85,-1.24 1.67,-2.35l-4.03 -23.93c-0.18,-1.12 -1.25,-1.85 -2.36,-1.69l-0.53 0.1c-1.12,0.18 -1.87,1.22 -1.69,2.36l4.03 23.92 0.83 1.33z"/>
  <path class="fil0" d="M232.52 56.51l-0.01 0c-0.35,-0.02 -1.91,-0.26 -7.03,-2.7 -0.87,-0.41 -1.89,-0.17 -2.5,0.58l-0.32 0.42 -0.41 1.52 0.76 1.37c1.26,0.97 2.75,1.77 4.44,2.41 1.69,0.62 3.35,0.96 4.91,1.01l0.29 0.01c2.2,0 4.14,-0.84 5.59,-2.43 1.31,-1.44 2.01,-3.12 2.07,-4.95 0.06,-2.12 -0.66,-5.11 -4.56,-7.35 -1.42,-0.78 -2.66,-1.45 -3.71,-2 -1.06,-0.57 -1.94,-1.04 -2.63,-1.4 -1.98,-1.06 -2.19,-2.27 -2.16,-3.2 0.02,-0.8 0.29,-1.43 0.81,-2.03 0.37,-0.4 1.01,-0.94 2.61,-0.94l0.02 0c0.56,0.02 2.04,0.24 5.6,1.6 0.87,0.34 1.86,0.03 2.39,-0.73l0.32 -0.43 0.34 -1.59 -0.92 -1.33c-2.14,-1.33 -4.69,-2.05 -7.58,-2.14l-0.34 -0.01c-2.41,0 -4.38,0.83 -5.86,2.47 -1.28,1.41 -1.94,3.09 -2.01,4.98 -0.08,2.39 0.82,4.5 2.59,6.08l0.21 0.17 1.51 0.95 1.43 0.82 3.98 2.15 1.66 1.01 0.91 0.75c0.54,0.56 0.78,1.22 0.75,2.03l-0.86 1.99c-0.57,0.65 -1.24,0.95 -2.29,0.95z"/>
  <path class="fil0" d="M263.46 65.07l0.52 0.13 0.48 0.06c0.92,0 1.76,-0.65 1.99,-1.59l5.57 -23.61c0.25,-1.11 -0.42,-2.21 -1.53,-2.46l-0.52 -0.13 -1.56 0.24 -0.91 1.28 -5.58 23.61 0.25 1.55 1.28 0.92z"/>
  <path class="fil0" d="M302.88 58.68l-0.94 8.26 -4.78 -2.2 5.72 -6.06zm-15.61 13.69c0.83,0.73 2.07,0.66 2.84,-0.14l3.72 -3.93 7.56 3.5 -0.59 5.38c-0.13,1.08 0.64,2.1 1.73,2.26l0.53 0.08 0.3 0.02 1.25 -0.43 0.79 -1.39 2.83 -25.32c0.1,-0.88 -0.37,-1.71 -1.16,-2.08l-0.53 -0.24c-0.8,-0.38 -1.74,-0.18 -2.36,0.45l-17.45 18.55 -0.55 1.51 0.71 1.44 0.39 0.34z"/>
  <path class="fil0" d="M318.01 88.82l1.52 0.38 1.34 -0.81 9.07 -12.35 -2.35 18.54 0.82 1.89 0.47 0.34 1.21 0.41 1.65 -0.83 14.37 -19.56 0.38 -1.54 -0.82 -1.33 -0.43 -0.32c-0.92,-0.67 -2.2,-0.48 -2.87,0.43l-9.06 12.35 2.36 -18.51 -0.82 -1.9 -0.45 -0.34 -1.53 -0.39 -1.34 0.81 -14.37 19.56c-0.67,0.91 -0.48,2.19 0.43,2.86l0.43 0.3z"/>
  <path class="fil0" d="M361.76 101.96l-4.06 7.24 -3.54 -3.88 7.6 -3.36zm-20.01 4.47l0.09 1.59 0.23 0.49c0.49,0.98 1.66,1.42 2.67,0.96l4.97 -2.18 5.6 6.18 -2.63 4.73c-0.54,0.95 -0.22,2.16 0.7,2.74l0.46 0.28 1.07 0.31 0.51 -0.08 1.27 -0.97 12.46 -22.24 -0.26 -2.36 -0.4 -0.43c-0.58,-0.65 -1.53,-0.86 -2.33,-0.5l-23.31 10.3 -1.1 1.18z"/>
  <path class="fil0" d="M442.17 260.82l-2.05 0.19c-1.42,-1.21 -3.55,-3.53 -4.53,-4.2 -3.05,-2.12 -7.23,-3.48 -10.91,-3.86 -6.56,-0.64 -11.81,1.56 -14.06,7.29 -5.21,-2.98 -4.87,-11.43 -13.44,-9.21 -2.68,0.71 -1.39,4.49 1.22,4.03 4.76,-0.83 7.64,9.21 13.16,10.46 1.21,0.29 2.53,-0.42 2.81,-1.68 2.01,-9.21 11.13,-6.16 16.91,-2.72 3.6,2.14 5.01,6.5 9.35,6.66l0.29 -0.04c-19.79,100.82 -109,177.27 -215.33,177.27l-1.23 0c-58.62,-0.32 -113.59,-23.44 -154.8,-65.13 -30.7,-31.02 -51,-69.57 -59.25,-111.44 11.2,-6.77 22.3,-2.88 29.72,8.34 1.71,2.59 5.1,1.15 5.4,-1.27 3.94,-4.98 9.67,-4.06 13.65,0.88 1.47,1.81 4.87,0.77 4.02,-1.8 -2.94,-8.77 -14.19,-9.94 -20.15,-4.23 -7.93,-10.99 -22.42,-14.7 -33.64,-7.36 -1.27,-7.42 -2.17,-14.94 -2.68,-22.53 0.63,-0.32 1.18,-0.84 1.6,-1.63 4.9,-9.25 12.48,-2.88 19.85,-1.27 6.7,1.46 12.11,-1.79 18.97,0.94 2.11,0.86 3.31,4.85 4.75,6.61 1.32,1.64 3.52,2.57 5.49,3.23 4.94,1.68 7.81,2.76 11.67,-0.81 1.17,-1.06 1.25,-3.4 1.5,-4.85 1.34,-7.58 13.88,-2.28 17.99,-1.38 4.84,1.06 9.64,-1.32 13.26,-4.35 3.76,-3.13 8.81,-8.82 14.19,-3.83 2.16,2 3.67,4.18 6.13,5.87 5.86,4.03 13.54,-2.74 19.87,0.35 3.56,1.73 6.52,-3.65 2.97,-5.38 -2.94,-1.42 -5.16,-2.26 -8.45,-2.15 -5.01,0.16 -8.68,4.97 -14.1,0.39 -5.08,-4.3 -7.01,-7.25 -14.08,-5.79 -2.37,0.5 -4.75,2.72 -6.52,4.23 -6.61,5.61 -11.44,6.51 -19.86,4.31 -4.73,-1.24 -11.88,-1.83 -14.62,3.39 -0.98,1.85 -1.66,7.2 -4.59,6.71 -4.85,-0.8 -7.07,-3.34 -9.52,-7.3 -2.96,-4.81 -9.83,-7.38 -15.18,-7.52 -4.09,-0.1 -6.53,1.44 -10.76,-0.97 -3.26,-1.84 -7.3,-3.09 -10.98,-3.69 -4.08,-0.65 -7.38,0.62 -10.04,2.93 -0.02,-1.39 -0.03,-2.78 -0.02,-4.16 0.67,-120.32 99.08,-218.22 219.4,-218.22l1.24 0c119.79,0.67 216.92,97.69 218.18,217.06 -1.56,-0.49 -3.32,-0.66 -5.19,-0.55 -6.4,0.37 -7.56,7.81 -11.98,10.93 -7.04,4.97 -11.9,-3.11 -18.64,-1.93 -4.45,0.79 -9.94,4.02 -12.95,7.4 -1.08,1.21 -0.58,3.19 1.04,3.6 2.83,0.72 5.49,-1.33 7.89,-2.63 6.73,-3.6 8.95,2.52 14.56,1.91 4.22,-0.46 7.68,-0.9 11.46,-2.91 5.27,-2.81 6.84,-8.93 13.74,-6.74 -0.29,9.67 -1.22,19.2 -2.74,28.53zm-215.34 -260.81l-1.27 -0.01c-123.69,0 -224.87,100.63 -225.55,224.33 -0.34,60.26 22.81,117.03 65.18,159.89 42.38,42.83 98.89,66.62 159.14,66.94l1.27 0c59.99,0 116.47,-23.29 159.02,-65.6 42.58,-42.33 66.19,-98.7 66.53,-158.73 0.68,-124.38 -99.95,-226.14 -224.33,-226.82z"/>
  <path class="fil0" d="M170.58 105.55c5.83,18.12 14.46,35.34 23.81,51.89 9.22,16.33 20.02,34.42 35.36,45.81l1 2.26c-2.93,-1.14 -5.89,-2.1 -9.02,-2.8 -2.84,-0.66 -3.69,3.33 -1.07,4.29 4.41,1.62 8.88,3.04 13.32,4.56l0.22 0.03c0.49,0.77 1,1.53 1.5,2.29 -2.81,-0.62 -5.7,-0.96 -8.59,-1.45 -2.77,-0.44 -3.84,3.56 -1.06,4.27 4.44,1.14 9.11,1.51 13.46,3.01 0.49,0.76 0.99,1.52 1.45,2.3 -3.28,-0.8 -6.75,-0.87 -10.09,-0.55 -3.07,0.27 -2.83,4.36 0.12,4.66 4.65,0.48 9.16,1.22 13.67,2.41l0.73 1.33c-3.44,-0.33 -7.24,0.35 -10.16,0.63 -2.94,0.28 -2.78,4.31 0.12,4.52 4.94,0.38 9.69,0 14.51,1.42 1.14,0.33 1.99,-0.23 2.4,-1.06l0.23 -1.72c-3.81,-11.67 -11.26,-22.81 -18.81,-32.45l-0.71 -1.02c-14.64,-12.11 -25.01,-29.06 -34.37,-45.33 -9.26,-16.08 -17.72,-33.04 -24.02,-50.52 -0.9,-2.49 -4.79,-1.35 -3.96,1.21z"/>
  <path class="fil0" d="M226.11 180.59c-2.55,-3.66 -4.96,-8.27 -6.42,-12.91 5.49,5.33 10.82,10.92 17.34,14.93 2.1,1.28 4.54,-1.98 2.56,-3.48 -7.71,-5.91 -14.29,-13.04 -21.88,-19.06l-2.28 -0.28 -0.01 0 -0.34 0.21 -0.37 0.28 -0.29 0.41 -0.13 0.17 -0.19 0.9 0 0.02c-0.15,7.42 3.92,16.01 8.67,21.53 1.61,1.88 4.75,-0.71 3.34,-2.72z"/>
  <path class="fil0" d="M248.77 174.81c-7.43,-9.73 -13.58,-20 -19.7,-30.55l-0.09 -0.17 -0.3 -0.34 -0.12 -0.15 -2.1 -0.33 -0.15 0.06 -0.21 0.14c-0.58,0.33 -1.04,0.91 -1.08,1.79 -0.36,6.88 -0.24,16.17 3.79,22.08 1.59,2.32 5.04,0.19 3.7,-2.28 -1.57,-2.89 -2.27,-6.45 -2.62,-10.07 4.45,8 9.56,15.75 15.59,22.49 1.61,1.78 4.76,-0.75 3.3,-2.68z"/>
  <path class="fil0" d="M268.84 236.6c-1.28,0.39 -2.28,1.15 -3.41,1.37 -0.96,0.17 -1.61,1.27 -1.59,2.18 0.03,1.33 1.06,2.04 2.28,2.17 1.74,0.17 3.17,-0.64 4.53,-1.7 0.8,-0.62 1.26,-1.49 0.95,-2.53 -0.34,-1.17 -1.6,-1.83 -2.76,-1.49z"/>
  <path class="fil0" d="M273.62 245.39c0.22,-0.87 -0.19,-2.05 -1.06,-2.44l-1.68 -0.29 -0.08 -0.02 -0.19 0c-1.44,-0.01 -2.12,1.11 -2.09,2.21 0.02,1.11 0.76,2.25 2.21,2.23l0.19 0.01 0.01 -0.01 1.22 -0.14c0.72,-0.3 1.28,-0.75 1.49,-1.56z"/>
  <path class="fil0" d="M273.37 252.38l2.21 0.03c0.74,-0.29 1.3,-0.77 1.5,-1.57 0.21,-0.87 -0.18,-2.08 -1.06,-2.45 -0.8,-0.32 -1.64,-0.43 -2.4,-0.2l-0.09 0c-2.66,0.12 -2.59,3.81 -0.15,4.18z"/>
  <path class="fil0" d="M266.16 208.69c-8.95,10.71 -13.62,26.69 -12.04,40.57 1.22,10.63 14.02,17.57 21.27,7.53 1.4,-1.93 -1.82,-4.24 -3.33,-2.45 -4.95,3.29 -8.72,3.13 -11.34,-0.45 -1.27,-1.83 -1.32,-4.49 -1.48,-6.62 -0.29,-4.04 0.35,-8.17 1.06,-12.13 1.51,-8.31 4.56,-16.9 9.41,-23.83 1.46,-2.07 -1.95,-4.54 -3.56,-2.62z"/>
  <path class="fil0" d="M305.95 223.64c-11.53,-7.66 -25.44,-1.85 -34.33,7.14 -1.65,1.66 0.74,4.78 2.64,3.25 9.21,-7.41 17.97,-11.67 29.56,-6.52 2.61,1.16 4.51,-2.29 2.13,-3.87z"/>
  <path class="fil0" d="M310.11 229.19c21.57,5.88 43.85,10.83 66.03,14.5 -19.49,7.4 -48.58,19.11 -63,3.82 -0.19,-0.86 -0.98,-1.42 -1.84,-1.55l-1 0.02 -0.21 0.09 -0.34 0.14 0.16 -0.02 -0.02 0.01 -0.6 0.24 -0.99 0.73 -1.3 1.2c-0.8,0.7 -1.58,1.19 -2.56,2.06l-0.54 2.31c0.34,1.1 1.25,1.59 2.31,1.69 1.43,0.12 3.19,-0.62 4.43,-1.56l0.39 -0.39c15.64,20.59 56.97,-0.11 74.38,-7.03l0.43 -0.21 1.04 0.14c2.73,0.41 3.86,-3.68 1.06,-4.24 -25.66,-5.02 -51.06,-11.43 -76.8,-16.06 -2.67,-0.48 -3.68,3.4 -1.02,4.13z"/>
  <path class="fil0" d="M301.1 228.93l-1.58 -0.03 -0.39 0.16c-0.89,0.13 -1.57,0.29 -2.3,0.85 -0.98,0.74 -1.56,2.48 -0.34,3.38 1.12,0.84 2.05,1.15 3.47,0.91 1.34,-0.21 2.56,-1.01 2.84,-2.41 0.27,-1.29 -0.44,-2.47 -1.71,-2.85z"/>
  <path class="fil0" d="M307.08 238.7c13.16,3 26.79,4.31 40.15,6.15 2.75,0.39 3.87,-3.76 1.06,-4.26 -13.47,-2.36 -27.1,-5.1 -40.73,-6.18 -2.49,-0.2 -2.83,3.75 -0.47,4.29z"/>
  <path class="fil0" d="M278.12 238.35c2.59,-0.76 5.18,-1.36 7.65,-2.53 2.15,-1.03 0.5,-4.63 -1.7,-3.8 -2.36,0.9 -4.81,1.46 -7.18,2.3 -2.56,0.89 -1.4,4.82 1.23,4.03z"/>
  <path class="fil0" d="M275.96 244.82c2.46,0.44 4.59,-0.51 6.77,-1.54 0.86,-0.4 1.18,-1.6 0.93,-2.45 -0.36,-1.18 -1.54,-1.69 -2.69,-1.43 -1.71,0.37 -3.4,0.88 -5.11,1.29 -2.02,0.46 -1.95,3.76 0.11,4.13z"/>
  <path class="fil0" d="M284.95 248.57c0.69,-0.65 0.76,-1.84 0.27,-2.62 -0.66,-1.05 -1.92,-1.25 -2.96,-0.69 -1.08,0.56 -2.22,1.02 -3.32,1.53 -1.94,0.93 -0.86,4.13 1.18,3.97 1.89,-0.15 3.45,-0.89 4.83,-2.2z"/>
  <path class="fil0" d="M294.06 258.58l-0.57 2.04c-0.12,0.82 0,1.58 0.63,2.17 0.7,0.66 1.92,0.88 2.73,0.29 1.59,-1.14 2.05,-2.77 1.42,-4.59 -0.74,-2.16 -3.5,-1.9 -4.21,0.09z"/>
  <path class="fil0" d="M300.4 258.83c-0.7,1.7 -1.1,3.88 -1.08,5.72 0,0.99 0.75,1.88 1.7,2.11 1.06,0.27 1.91,-0.26 2.5,-1.09 1.18,-1.64 1.64,-4.42 0.91,-6.32 -0.6,-1.58 -3.24,-2.35 -4.03,-0.42z"/>
  <path class="fil0" d="M308.12 259.93c0.22,5.98 -1.37,10.63 -5.07,15.35 -3.19,4.06 -7.5,5.96 -11.33,9.11 -2.02,1.67 0.38,4.12 2.32,3.78 5.32,-0.9 10.89,-7.01 13.87,-11.17 3.62,-5.07 6.47,-11.49 4.42,-17.75 -0.76,-2.27 -4.29,-1.78 -4.2,0.67z"/>
  <path class="fil0" d="M176.35 304.46c-2.9,0.24 -2.82,4.46 0.11,4.53 9.99,0.17 18.15,6.28 28.29,5.13 8.94,-1.02 16.8,-8.56 25.24,-11.31 10.42,-3.41 21.8,-2.22 32.57,-2.76 8.48,-0.42 14.35,-5.68 20.91,-10.47 2.2,-1.61 0.19,-4.93 -2.21,-3.6 -3.79,2.1 -7.11,4.8 -10.77,7.14 -5.08,3.26 -12.18,2.28 -17.87,2.13 -8.15,-0.2 -16.18,0.78 -24.01,2.96 -9.69,2.66 -17.1,10.4 -27.28,11.51 -8.41,0.94 -16.13,-6.01 -24.97,-5.27z"/>
  <path class="fil0" d="M143.77 316.16c-1.2,2.17 1.78,4.34 3.49,2.56 6.16,-6.46 14.23,-11.92 23.48,-10.41 2.34,0.39 3.89,-2.8 1.59,-4.01 -8.94,-4.65 -24.1,3.84 -28.56,11.86z"/>
  <path class="fil0" d="M143.54 313.3c2.18,-0.69 3.62,-3.13 4.18,-5.24 0.61,-2.4 -2.31,-3.73 -3.99,-2.19l-1.69 2.09c-0.6,0.85 -1.13,1.56 -1.41,2.55 -0.46,1.71 1.26,3.31 2.92,2.79z"/>
  <path class="fil0" d="M140.39 306.22c0.91,-0.44 1.77,-0.91 2.56,-1.54 2.13,-1.66 0.24,-4.91 -2.23,-3.6 -1.07,0.55 -2.04,1.1 -2.98,1.86l-0.27 2.59c0.65,1.06 1.88,1.19 2.91,0.69z"/>
  <path class="fil0" d="M148.39 294.7c-1.99,0.37 -3.82,0.78 -5.63,1.74 -2.14,1.15 -0.51,4.83 1.74,3.9 1.65,-0.69 3.45,-0.93 5.11,-1.55 2.63,-0.97 1.45,-4.59 -1.23,-4.08z"/>
  <path class="fil0" d="M155.21 294.52c4.01,0.29 8.02,0.2 12.03,0.36 2.52,0.13 2.99,-4.03 0.48,-4.42 -4.16,-0.63 -8.44,-0.49 -12.62,-0.2 -2.78,0.2 -2.61,4.07 0.1,4.26z"/>
  <path class="fil0" d="M170.24 288.6c5.48,1.14 11.49,-2.16 15.13,-6.12 4.24,-4.61 2.84,-10.42 -3.07,-12.45 -2.53,-0.88 -3.56,2.77 -1.6,4.08 0.9,0.59 2.22,1.3 1.9,2.53 -0.34,1.28 -1.99,2.44 -2.97,3.2 -2.58,2 -6.25,3.96 -9.5,4.58 -2.13,0.43 -1.9,3.76 0.1,4.18z"/>
  <path class="fil0" d="M178.31 264.92c-0.8,0.49 -1.54,0.96 -2.23,1.63 -1.72,1.64 0.22,4.1 2.24,3.64 1.38,-0.3 2.3,-1.21 3.09,-2.32 1.34,-1.89 -1.33,-4.03 -3.09,-2.94z"/>
  <path class="fil0" d="M175 260.85c-1.75,1.03 -1.02,4.36 1.2,4.03 2.22,-0.34 3.96,-1.26 5.74,-2.56 2,-1.45 0.72,-4.93 -1.84,-4.09 -1.86,0.61 -3.43,1.61 -5.1,2.62z"/>
  <path class="fil0" d="M221.13 260.51c-9.12,1.28 -19.83,6.66 -25.87,13.71 -1.56,1.81 0.69,5.06 2.78,3.42 3.67,-2.89 7.32,-5.5 11.46,-7.7 4.13,-2.17 8.64,-3.37 12.83,-5.37 1.92,-0.93 0.92,-4.36 -1.21,-4.06z"/>
  <path class="fil0" d="M209.81 256.76c-6.31,2.31 -12.76,5.05 -17.68,9.72 -1.95,1.84 0.68,4.92 2.89,3.57 5.56,-3.37 12.5,-4.77 17.01,-9.67 1.42,-1.54 -0.08,-4.4 -2.22,-3.61z"/>
  <path class="fil0" d="M187.31 259.85c-1.79,1.89 0.61,4.78 2.81,3.48 2.22,-1.31 4.44,-2.64 6.7,-3.85 2.68,-1.48 5.61,-2.13 8.38,-3.37 1.77,-0.79 2.31,-3.86 -0.11,-4.27 -6.36,-1.09 -13.59,3.63 -17.78,8.01z"/>
  <path class="fil0" d="M204.06 244.96c-6.56,-1.08 -14.14,3.15 -18.8,7.48 -1.64,1.52 0.19,4.53 2.29,3.71 2.81,-1.06 5.49,-2.41 8.23,-3.62 2.93,-1.28 6.06,-2.1 8.9,-3.58 1.64,-0.86 1.22,-3.69 -0.62,-3.99z"/>
  <path class="fil0" d="M199.7 237.83c-5.96,-0.88 -11.96,0.58 -17.07,3.74 -2.15,1.33 -0.61,5 1.85,4.1 4.83,-1.73 9.63,-3.13 14.76,-3.6 2.27,-0.21 2.99,-3.86 0.46,-4.24z"/>
  <path class="fil0" d="M182.85 235.28c4.44,-0.15 8.86,0.28 13.31,0.17 2.49,-0.07 2.86,-3.66 0.47,-4.3 -4.89,-1.28 -9.57,-1.69 -14.49,-0.31 -2.48,0.7 -1.85,4.53 0.71,4.44z"/>
  <path class="fil0" d="M186.58 223.04c-2.38,0.28 -2.9,2.94 -1.06,4.29 2.84,2.08 6.29,1.92 9.61,2.02 2.67,0.07 2.72,-3.62 0.48,-4.39 -2.97,-1.01 -5.81,-2.28 -9.04,-1.92z"/>
  <path class="fil0" d="M192.8 217.8c-0.78,-0.44 -1.46,-1.02 -2.31,-1.37 -0.95,-0.39 -1.78,-0.52 -2.81,-0.66 -1,-0.13 -1.95,0.14 -2.46,1.06 -0.59,1.06 -0.18,2.41 0.87,3 0.74,0.43 1.41,0.85 2.22,1.14 0.76,0.26 1.66,0.32 2.4,0.62 1.08,0.46 2.33,0.26 2.94,-0.84 0.58,-1.05 0.18,-2.37 -0.86,-2.96z"/>
  <path class="fil0" d="M184.26 212.95c1.95,1.85 4.6,1.95 7.09,1.4 2.46,-0.54 1.71,-4.26 -0.68,-4.24 -1.49,0.02 -2.79,-0.89 -4.24,-1.12 -2.21,-0.34 -3.99,2.24 -2.17,3.97z"/>
  <path class="fil0" d="M187.45 207.95c2.23,1.67 4.85,-0.99 2.99,-3.13 -0.71,-0.83 -1.67,-1.39 -2.76,-1.55 -2.36,-0.36 -3.78,2.69 -1.57,3.98l1.34 0.69z"/>
  <path class="fil0" d="M242.74 246.12c-1.69,0.88 -1.34,4.01 0.66,4.27 1.53,0.19 3.39,0.7 4.89,0.14 1.79,-0.67 2.41,-2.84 1.01,-4.25 -1.75,-1.79 -4.59,-1.21 -6.56,-0.16z"/>
  <path class="fil0" d="M242.64 237.92c-2.51,0.14 -3.02,3.84 -0.49,4.44 2.51,0.59 5.42,1.06 8.02,0.81 1.74,-0.19 3.09,-2.49 1.46,-3.82 -2.61,-2.14 -5.89,-1.59 -9,-1.42z"/>
  <path class="fil0" d="M236.59 154.14c0.18,3 4.23,2.73 4.53,-0.1 0.26,-2.54 0.7,-5.16 1.24,-7.77 1.74,9.28 4.34,18.53 8.91,26.7 1.17,2.14 4.85,0.54 3.91,-1.75 -4.6,-11.41 -7.51,-22.85 -10.15,-34.83 0.08,-0.78 -0.34,-1.38 -0.95,-1.75l-0.22 -0.13c-0.86,-0.39 -1.91,-0.33 -2.57,0.4l-0.21 0.28 -0.12 0.13 -0.11 0.24 -0.04 0.07c-2.83,5.61 -4.6,12.24 -4.23,18.54z"/>
  <path class="fil0" d="M255.24 158.73c-0.44,-3.73 -0.56,-7.61 -0.2,-11.45 1.36,6.14 2.94,12.24 4.46,18.36 3.21,12.82 4.48,25.45 5.95,38.5 0.27,2.41 4.22,3.27 4.57,0.51 2.84,-22.18 -7.37,-46.58 -12.75,-67.83l-0.36 -0.93 -1.54 -0.88 -1.67 0.47 -0.64 1.22c-2.76,7.09 -3.28,15.28 -2.01,22.7 0.4,2.37 4.48,1.72 4.19,-0.68z"/>
  <path class="fil0" d="M164.13 105.7c-0.77,-2.18 -4.59,-1.83 -4.22,0.68 1.28,8.54 5.36,16.17 9.16,23.83 4.05,8.19 8.39,16.59 15.44,22.58 1.94,1.65 5.16,-0.62 3.59,-2.9 -9.43,-13.63 -18.46,-28.46 -23.97,-44.19z"/>
  <path class="fil0" d="M175.23 150.91c2.38,1.43 4.8,-2 2.83,-3.86 -5.82,-5.54 -11.03,-11.43 -15.68,-17.98 -4.39,-6.2 -8.44,-12.89 -13.94,-18.18 -1.78,-1.7 -4.52,0.6 -3.29,2.68 7.74,13.25 16.62,29.25 30.08,37.34z"/>
  <path class="fil0" d="M137.77 123.88c-1.8,-1.29 -4.01,1.31 -2.88,3.02 6.58,9.98 18.03,16.96 27.82,23.45 2.28,1.51 4.66,-1.96 2.77,-3.76 -8.5,-8.11 -18.16,-15.86 -27.71,-22.71z"/>
  <path class="fil0" d="M147.64 158.76c2.31,1.38 4.58,-1.89 2.72,-3.7 -2.28,-2.23 -4.51,-4.4 -6.68,-6.58 4.93,2.8 10.05,5.13 14.77,6.92 2.51,0.95 3.87,-3.02 1.67,-4.27 -10.53,-6 -20.1,-14.04 -30.78,-19.67 -1.58,-1.49 -4.33,-0.06 -3.73,2.26 2.71,10.61 13.01,19.64 22.04,25.04z"/>
  <path class="fil0" d="M145.09 171.27c2.15,1.37 3.92,-1.32 3.05,-3.19 -0.91,-1.92 -2.2,-2.64 -1.99,-5.01 0.11,-1.17 -0.93,-2.03 -1.9,-2.38 -4.9,-1.76 -8.5,-6.14 -12.44,-9.36 -1.84,-1.52 -4.65,0.52 -3.33,2.7 2.74,4.49 7.43,9.27 12.66,11.04 0.29,2.54 1.69,4.76 3.94,6.2z"/>
  <polygon class="fil0" points="148.46,179.09 148.42,179.15 "/>
  <polygon class="fil0" points="143.76,178.14 143.83,178.24 143.79,178.16 "/>
  <path class="fil0" d="M143.67 177.95l0.09 0.18 -0.02 -0.02 -0.08 -0.16zm0.08 0.18l0.02 0 0.02 0.03 0.04 0.08 0.76 1.05c1.01,1.27 2.93,1.3 3.82,-0.13l0.59 -1.1 -0.08 -1.94c-0.37,-1.05 -1.12,-1.92 -2.09,-2.45 -1.95,-1.05 -5.43,-0.14 -4.74,2.63l0.82 1.23 0.81 0.59 0.03 0.03 -0.01 -0.01z"/>
  <path class="fil0" d="M150.44 187.05c2.23,-0.62 2,-3.77 -0.11,-4.36 -1.59,-0.45 -3.42,-0.59 -5.03,-0.19 -2.05,0.5 -1.9,3.08 -0.43,4.09 1.57,1.07 3.81,0.97 5.57,0.46z"/>
  <path class="fil0" d="M150.27 194.2c1.93,0.52 3.35,-1.68 2.41,-3.31 -1.16,-2.01 -3.34,-2.58 -5.46,-2.97 -2.31,-0.42 -3.82,2.82 -1.56,3.96 1.53,0.79 2.92,1.85 4.6,2.31z"/>
  <path class="fil0" d="M146.69 201.13c1.73,0.69 3.46,0.65 5.27,0.22 2.19,-0.5 1.97,-3.8 -0.09,-4.28 -1.52,-0.38 -3.3,-0.5 -4.75,0.08 -0.72,0.29 -1.29,0.76 -1.48,1.55 -0.22,0.86 0.17,2.07 1.06,2.43z"/>
  <path class="fil0" d="M152.15 210.5c2.02,-0.18 2.98,-2.51 1.53,-4 -1.61,-1.66 -5.66,-2.78 -7.3,-0.64 -0.59,0.78 -0.9,1.84 -0.28,2.71 1.22,1.74 4.03,2.09 6.05,1.93z"/>
  <path class="fil0" d="M154.44 214.21c-1.15,-1.48 -2.52,-2.41 -4.45,-2.29 -2.32,0.15 -2.95,3.81 -0.47,4.23l2.04 1.1c1.74,1.23 4.17,-1.35 2.89,-3.04z"/>
  <path class="fil0" d="M154.61 226.23c2.33,1.06 4.22,-1.63 2.58,-3.52 -0.92,-1.05 -2.05,-1.74 -3.29,-2.35 -2.15,-1.05 -4.41,1.76 -2.53,3.45 1.02,0.92 1.99,1.84 3.24,2.41z"/>
  <path class="fil0" d="M156.31 235.89c1.87,-0.37 3.18,-1.04 4.58,-2.33 1.48,-1.37 0.2,-3.93 -1.69,-3.85 -2.22,0.11 -3.56,1.1 -5.13,2.55 -0.71,0.68 -0.78,1.87 -0.27,2.67 0.54,0.91 1.52,1.16 2.51,0.96z"/>
  <path class="fil0" d="M164 240.21c0.79,-1.44 -0.3,-3.33 -1.99,-3.26l-1.63 0.53 -1.17 1.19c-1.6,1.42 0.22,4.4 2.21,3.6 1.06,-0.43 2.01,-1.02 2.57,-2.05z"/>
  <path class="fil0" d="M166.8 242.91c-1.59,0.51 -2.69,1.49 -4.08,2.34 -2.14,1.3 -0.58,4.54 1.77,3.91 1.8,-0.47 3.24,-1.26 4.57,-2.57 1.58,-1.58 -0.15,-4.34 -2.26,-3.67z"/>
  <path class="fil0" d="M170.1 249.01c-1.18,0.64 -2.16,2 -2.97,2.72 -0.72,0.62 -0.75,1.88 -0.27,2.65 0.66,1.06 1.95,1.25 3,0.7 1.46,-0.75 3.09,-1.69 3.6,-3.61 0.53,-2.01 -1.69,-3.37 -3.36,-2.46z"/>
  <path class="fil0" d="M173.23 259.5c2.19,0.69 4.74,-0.58 5.97,-2.34 1.1,-1.62 -0.54,-3.29 -2.09,-3.44 -1.69,-0.14 -3.86,0.39 -5.09,1.62 -1.39,1.41 -0.52,3.6 1.21,4.16z"/>
  <path class="fil0" d="M189.42 157.98c-1.37,-1.67 -4.4,0.25 -3.58,2.2 4.39,10.32 10.56,22.41 19.53,29.5 1.98,1.55 5.21,-0.6 3.62,-2.96 -6.46,-9.51 -12.32,-19.81 -19.57,-28.73z"/>
  <path class="fil0" d="M175.33 162.75c1.71,4.34 5.88,8.16 10.27,9.68 2.11,0.73 3.63,-2.31 2.05,-3.71 -1.52,-1.36 -3.16,-2.54 -4.67,-3.88 -1.48,-1.32 -2.68,-2.88 -4.03,-4.31 -1.48,-1.56 -4.41,0.18 -3.61,2.23z"/>
  <path class="fil0" d="M175.15 174.69c3.24,3.15 7.92,6.8 12.65,4.91 2.27,-0.92 1.93,-4.39 -0.7,-4.37 -3.85,0.03 -6.46,-3.09 -9.92,-4.24 -2.16,-0.71 -3.51,2.26 -2.04,3.7z"/>
  <path class="fil0" d="M294.99 274.16c-1.12,1.99 1.23,4.08 3.13,2.97 1.97,-1.14 3.57,-3.46 3.58,-5.78 0.01,-1.82 -2.58,-2.99 -3.79,-1.47l-1.47 2.22 -1.46 2.05z"/>
  <path class="fil0" d="M290.97 269.33c-0.34,0.91 0.29,2.03 1.08,2.46 0.93,0.52 1.89,0.24 2.66,-0.41 1.16,-1.01 1.78,-2.07 1.92,-3.63 0.17,-1.89 -2.71,-2.94 -3.85,-1.48 -0.78,0.99 -1.37,1.87 -1.81,3.05z"/>
  <path class="fil0" d="M289.96 277.02l-1.3 1.78c-0.92,1.99 1.08,3.96 3.04,2.88 1.18,-0.65 1.75,-1.87 2.21,-3.09 0.33,-0.89 -0.28,-1.97 -1.05,-2.39 -1.11,-0.63 -2.22,-0.13 -2.9,0.83z"/>
  <path class="fil0" d="M274.35 288.45c0.85,-0.39 1.61,-0.99 2.38,-1.53 0.95,-0.67 1.95,-1.34 2.54,-2.37 0.87,-1.52 -0.35,-3.51 -2.09,-3.43 -2.31,0.1 -5.04,2.23 -6.03,4.28 -1.08,2.2 1.17,3.99 3.2,3.05z"/>
  <path class="fil0" d="M266.36 286.17c-1.35,0.45 -2.49,1.14 -3.53,2.12 -1.54,1.48 0.18,4.48 2.26,3.66 1.31,-0.54 2.54,-1.07 3.51,-2.14 1.47,-1.59 -0.08,-4.35 -2.24,-3.64z"/>
  <path class="fil0" d="M266.9 279.85l-2.05 0.48c-2.01,0.5 -2.06,3.87 0.09,4.19 1.38,0.18 2.55,0 3.7,-0.82 1.97,-1.41 0.65,-4.44 -1.74,-3.86z"/>
  <path class="fil0" d="M253.93 286.08c1.88,0.41 3.64,0.6 5.51,-0.09 2.09,-0.77 1.88,-3.41 -0.11,-4.13 -1.86,-0.7 -3.62,-0.45 -5.51,-0.03 -2.17,0.46 -1.95,3.8 0.11,4.25z"/>
  <polygon class="fil0" points="276.36,279.56 276.34,279.56 "/>
  <path class="fil0" d="M272.86 276.56c-1.69,1.78 0.62,4.72 2.71,3.34l0.79 -0.34 0.94 -0.76c1.2,-1.35 0.36,-3.88 -1.64,-3.71 -1.22,0.1 -1.99,0.6 -2.79,1.47z"/>
  <path class="fil0" d="M239.07 293.9c1.5,-1.06 1.54,-4.02 -0.67,-4.34 -1.64,-0.21 -3.29,0.31 -4.82,0.9 -2.32,0.91 -1.97,4.52 0.72,4.45 1.53,-0.03 3.49,-0.1 4.77,-1.01z"/>
  <path class="fil0" d="M226.94 296.23c0.84,-0.19 1.69,-0.35 2.55,-0.52 2,-0.39 1.97,-3.88 -0.1,-4.11 -1.34,-0.17 -2.46,0 -3.71,0.53 -2.51,1.07 -1.49,4.69 1.26,4.1z"/>
  <path class="fil0" d="M218.24 300.34c0.82,-0.3 1.34,-0.74 2.03,-1.28 0.77,-0.59 1.22,-1.44 0.93,-2.42 -0.33,-1.05 -1.59,-1.86 -2.67,-1.43 -0.97,0.39 -1.68,0.93 -2.48,1.58 -1.69,1.37 0.24,4.28 2.2,3.56z"/>
  <path class="fil0" d="M218.22 293.64c1.2,-0.51 2.04,-1.22 3.06,-2.01 0.9,-0.71 1.34,-1.84 0.68,-2.91 -0.6,-0.97 -1.93,-1.29 -2.9,-0.69 -0.89,0.55 -1.69,1.21 -2.56,1.78 -1.93,1.27 -0.56,4.8 1.72,3.82z"/>
  <path class="fil0" d="M228.25 288.31l0.05 0.01 0.87 0.1c1.94,0.18 2.77,-2.58 1.46,-3.76 -1.19,-1.05 -2.59,-1.01 -3.91,-0.24 -2.03,1.21 -0.65,4.31 1.53,3.89z"/>
  <path class="fil0" d="M256.09 181.69c-0.38,-2.76 -4.03,-2.64 -4.28,0.1 -0.41,4.54 1.06,8.84 2.63,13.02 0.98,2.62 4.74,1.48 4.14,-1.25 -0.87,-3.96 -1.95,-7.85 -2.49,-11.87z"/>
  <path class="fil0" d="M251.2 200.94c1.92,1.48 4.97,-0.52 3.48,-2.82 -2.35,-3.58 -4.91,-6.96 -6.31,-11.04 -0.66,-1.9 -3.82,-2.15 -4.2,0.1 -0.89,5.4 2.96,10.63 7.03,13.76z"/>
  <path class="fil0" d="M237.26 192.11c-1.06,5.51 4.3,11.18 9.15,12.82 2.21,0.75 3.7,-2.36 2.11,-3.85 -1.48,-1.39 -2.94,-2.76 -4.19,-4.37 -1.25,-1.63 -1.85,-3.56 -2.95,-5.25 -1.02,-1.55 -3.74,-1.36 -4.12,0.65z"/>
  <path class="fil0" d="M113.72 358.09l1.2 -1.02 0.08 -0.07c5.13,-1 9.51,-3.75 11.9,-8.63 2.94,-5.93 1.41,-12.98 -0.24,-19.03 -0.68,-2.47 -4.83,-1.9 -4.53,0.73 0.55,4.75 0.96,9.59 -0.24,14.27 -1.11,4.4 -5.41,6.6 -9.16,8.53 -1.54,-0.33 -3.14,-0.24 -4.72,-0.19 -2.05,0.05 -6.69,-0.53 -8.1,1.35 -0.58,0.8 -0.94,1.88 -0.29,2.77 1.55,2.12 5.36,1.64 7.7,1.71 2.03,0.06 4.46,0.41 6.39,-0.42z"/>
  <path class="fil0" d="M171.59 321.5c2.52,0.06 2.96,-3.92 0.48,-4.4 -4.86,-0.98 -10.63,-0.75 -13.77,3.63 -1.38,1.95 1.35,4.04 3.14,2.99 3.13,-1.85 6.53,-2.31 10.14,-2.22z"/>
  <path class="fil0" d="M123.38 314.81c8.11,0.92 10.4,9.07 9.64,16.28 -0.26,2.49 3.69,2.76 4.27,0.46 2.29,-9 -1.71,-22.87 -13.41,-21.22 -2.31,0.32 -3.27,4.18 -0.49,4.48z"/>
  <path class="fil0" d="M104.43 326.92c-0.4,2.73 3.41,3.76 4.2,1.05 1.32,-4.49 5.62,-5.28 9.73,-5.56 2.36,-0.14 2.89,-3.65 0.47,-4.2 -6.26,-1.43 -13.42,1.97 -14.4,8.71z"/>
  <path class="fil0" d="M123.92 300.38c2.34,0.65 3.79,-2.93 1.56,-4 -3.46,-1.66 -6.98,-1.35 -9.76,1.44 -1.97,1.99 1.05,4.71 3.09,2.95 1.44,-1.24 3.43,-0.87 5.1,-0.39z"/>
  <path class="fil0" d="M153.27 334.55c-0.18,1.1 0.19,2.18 1.21,2.74 0.88,0.5 2.32,0.41 2.97,-0.47 1.46,-1.96 2.62,-3.76 5.01,-4.66 2.26,-0.85 1.95,-4.59 -0.69,-4.39 -3.57,0.29 -7.82,3.02 -8.49,6.78z"/>
  <path class="fil0" d="M187.34 319.11c-0.97,0.14 -1.81,0.64 -2.06,1.66 -0.28,1.1 0.41,2.47 1.59,2.67 1.97,0.34 3.76,0.86 5.64,1.52 0.91,0.32 2,-0.27 2.44,-1.06 0.6,-1.09 0.14,-2.32 -0.86,-2.97 -1.95,-1.27 -4.38,-2.15 -6.75,-1.82z"/>
  <path class="fil0" d="M141.68 359.74c-3,-5.22 -4.68,-10.57 -4.47,-16.65 0.08,-2.44 -3.95,-2.9 -4.3,-0.47 -1.08,7.36 0.41,14.18 5.38,19.87 1.7,1.95 4.6,-0.65 3.4,-2.75z"/>
  <path class="fil0" d="M124.27 287.88c1.27,0.34 2.7,1.55 3.61,2.47 1.11,1.15 1.8,2.81 2.27,4.3 0.74,2.36 4.54,1.85 4.37,-0.7 -0.18,-2.63 -1.02,-5.03 -2.77,-7.04 -0.82,-0.93 -1.75,-1.68 -2.83,-2.3 -1.21,-0.71 -2.31,-0.7 -3.62,-0.86 -2.66,-0.32 -3.76,3.42 -1.03,4.12z"/>
  <path class="fil0" d="M138.65 289.96c1.23,0.69 2.48,0.12 3.24,-0.95 1.73,-2.45 1.73,-5.82 0.48,-8.46 -0.93,-1.96 -4.39,-0.92 -4.12,1.22 0.25,1.88 -0.28,3.71 -0.76,5.51 -0.28,1.03 0.24,2.16 1.16,2.67z"/>
  <path class="fil0" d="M209.63 365.54c-18.26,-0.08 -37.44,-1.67 -55.56,0.61 -2.32,0.3 -3.21,4.1 -0.49,4.45 17.08,2.15 35.01,0.75 52.2,0.69 18.52,-0.06 37.03,-0.26 55.56,-0.63 2.91,-0.06 2.78,-4.45 -0.11,-4.5 -17.21,-0.35 -34.4,-0.57 -51.6,-0.62z"/>
  <path class="fil0" d="M287.18 367.63c-2.79,0.31 -2.59,3.98 0.1,4.27 11.2,1.22 23.59,1.12 34.81,0.08 2.88,-0.27 2.67,-4.14 -0.12,-4.41 -11.21,-1.05 -23.58,-1.15 -34.8,0.07z"/>
  <path class="fil0" d="M294.68 379.76c-25.26,-1.93 -51.86,-1.6 -77.13,0.15 -2.77,0.19 -2.61,4.07 0.11,4.28 25.27,1.75 51.87,2.09 77.13,0.16 2.99,-0.23 2.81,-4.38 -0.11,-4.59z"/>
  <path class="fil0" d="M253.72 396.8c-8.05,-0.64 -17.2,-1.57 -25.13,0.26 -2.1,0.49 -1.9,3.67 0.1,4.13 7.9,1.83 17.1,0.88 25.14,0.24 3.04,-0.24 2.84,-4.4 -0.11,-4.63z"/>
  <path class="fil0" d="M197.14 384.33c2.33,-0.47 2.12,-4.14 -0.12,-4.59 -4.61,-0.96 -9.19,-0.62 -13.87,-0.48 -5.67,0.14 -11.81,-0.55 -17.36,0.77 -2.07,0.48 -1.88,3.61 0.1,4.08 5.55,1.3 11.72,0.59 17.39,0.74 4.69,0.12 9.23,0.43 13.85,-0.52z"/>
  <path class="fil0" d="M198.36 392.83c-3.42,-0.5 -6.77,-0.39 -10.15,0.02 -2.23,0.28 -3.08,3.96 -0.47,4.28 3.39,0.43 6.72,0.68 10.14,0.15 2.29,-0.34 3.24,-4.03 0.48,-4.44z"/>
  <path class="fil0" d="M125.64 375.9c3.51,0.78 7.25,0.47 10.8,0.16 2.87,-0.25 2.68,-4.16 -0.1,-4.39 -3.57,-0.31 -7.27,-0.62 -10.79,0.18 -2.05,0.47 -1.86,3.61 0.09,4.05z"/>
  <path class="fil0" d="M316.04 336.03c1.76,0.35 4.04,-0.61 4.34,-2.6 0.89,-6.2 2.89,-10.8 7.88,-14.06 0.87,1.1 1.79,2.16 2.83,3.23 1.75,1.79 4.67,0.68 5.31,-1.54 2.62,-9.01 10.83,-9.72 17.63,-14.06 1.88,-1.2 1.18,-4.88 -1.34,-4.49 -8.18,1.21 -15.72,5.26 -20.06,11.99l-0.7 -1.01c-1.01,-1.59 -2.81,-1.78 -4.41,-1.04 -7.23,3.39 -11.13,8.98 -13.26,16.16 -14.97,-1.47 -20.51,8.64 -21.8,23.41 -11.51,0 -23.04,0 -34.56,-0.02 2.9,-9.69 -8.54,-15.28 -17.67,-16.5 0.91,-4.75 -1.23,-7.43 -4.74,-11.65 -1.58,-1.88 -4.81,0.75 -3.34,2.7 2.9,3.83 4.46,5.61 2.53,10.56 -0.61,1.58 1.02,3 2.44,3.04 3.92,0.13 7.67,1.05 11.17,2.83 4.06,2.07 4.84,5.15 4.24,9 -29.69,-0.09 -59.42,-0.71 -89.07,0.75 -4.73,-0.88 -9.8,-2.41 -12.84,-6.22 -3.79,-4.77 -2.17,-11.25 -0.34,-16.43 0.92,-2.62 -3.04,-3.91 -4.36,-1.7 -4.03,6.72 -5.35,14.73 -0.95,21.62 3.93,6.13 11.17,8.03 17.96,7.45 28.73,1.43 57.54,0.87 86.3,0.77 31.11,-0.11 62.22,0.19 93.34,-0.44 3.48,-0.07 3.32,-5.31 -0.13,-5.37 -14.56,-0.29 -29.11,-0.38 -43.67,-0.4 2.25,-10.29 3.98,-18.6 17.26,-15.97z"/>
  <path class="fil0" d="M375.21 299.68c-2.88,0.08 -2.62,4.11 0.11,4.35 0.89,0.09 1.88,0.55 2.75,0.79 1.44,0.4 2.93,0.4 4.41,0.26 2.34,-0.21 3.09,-4 0.49,-4.34 -2.62,-0.35 -5.08,-1.16 -7.76,-1.06z"/>
  <path class="fil0" d="M279.14 313.07c-1.48,2.5 2.3,4.46 3.88,2.15 4.02,-5.92 10.58,-8.23 15.7,-2.26 1.33,1.56 3.87,0.49 4.34,-1.26 1.41,-5.31 6.03,-6.08 10.82,-6.59 2.87,-0.29 2.8,-4.37 -0.1,-4.47 -5.71,-0.2 -11.17,1.56 -14.1,6.06 -7.15,-5.32 -15.85,-1.54 -20.54,6.36z"/>
  <path class="fil0" d="M386.47 274c-3.26,0.38 -6.38,0.37 -9.42,1.36l-1.74 -2.02c-1.38,-1.54 -3.66,-2.25 -5.61,-2.67 -4.12,-0.88 -8.44,0.72 -11.91,2.79 -2.36,1.4 -0.18,4.75 2.2,3.56 2.52,-1.27 5.09,-1.9 7.92,-1.9 4.02,-0.01 3.73,3.39 6.29,4.85 1.16,0.66 2.1,1.11 3.4,0.44 3.02,-1.55 6.46,-0.85 9.58,-1.99 2.27,-0.85 1.96,-4.75 -0.71,-4.44z"/>
  <path class="fil0" d="M100.33 279.69c3.47,-6.42 10.41,-12.75 18.13,-6.55 0.92,0.76 2.28,1.11 3.35,0.36 1.41,-1.01 2.09,-1.57 3.28,-2.82 1.51,-1.6 -0.12,-4.63 -2.34,-3.78 -0.92,0.36 -1.58,0.64 -2.24,0.98 -8.64,-5.58 -18.26,-1.53 -23.77,6.73 -8.83,-3.98 -18.4,-3.94 -25.01,4.28 -1.7,2.11 1.11,4.9 3.07,2.94 6.75,-6.78 14.08,-5.41 21.66,-1.03 1.33,0.78 3.13,0.23 3.87,-1.11z"/>
  <path class="fil0" d="M84.64 303.7c2.68,-1.59 5.27,-1.11 8.05,0.05 2.51,1.05 4.58,-2.42 2.08,-3.79 -4.12,-2.22 -8.4,-2.63 -12.41,0.06 -2.32,1.55 -0.14,5.1 2.28,3.68z"/>
  <path class="fil0" d="M145.44 255.21c1.82,-1.51 4.4,-2.14 6.7,-2.37 2.79,-0.29 2.68,-4.15 -0.1,-4.34 -3.68,-0.23 -7.16,1.06 -9.69,3.77 -1.93,2.06 1.02,4.66 3.09,2.94z"/>
  <path class="fil0" d="M335.3 279.23c2.16,1.03 4.64,-1.88 2.61,-3.55 -3.76,-3.04 -8.17,-3.83 -12.85,-3.59 -2.79,0.14 -2.57,4.03 0.1,4.25 3.47,0.29 7.03,1.39 10.15,2.89z"/>
 </g>
</svg>
