<?xml version="1.0" encoding="UTF-8"?>
<svg xmlns="http://www.w3.org/2000/svg" xml:space="preserve" width="0.747343in" height="0.747319in" version="1.1" style="shape-rendering:geometricPrecision; text-rendering:geometricPrecision; image-rendering:optimizeQuality; fill-rule:evenodd; clip-rule:evenodd"
viewBox="0 0 289.81 289.8"
 xmlns:xlink="http://www.w3.org/1999/xlink"
 xmlns:xodm="http://www.corel.com/coreldraw/odm/2003">
 <defs>
  <style type="text/css">
   <![CDATA[
    .fil0 {fill:black;fill-rule:nonzero}
   ]]>
  </style>
 </defs>
 <g id="Layer_x0020_1">
  <metadata id="CorelCorpID_0Corel-Layer"/>
  <path class="fil0" d="M265.8 158.78c-3.45,0.58 -6.59,2.08 -9.78,3.46 -5.75,2.49 -10.57,1.03 -16.41,-0.06 -17.11,-3.19 -34.69,1.21 -50.2,8.4 -1.64,0.03 -3.27,0.07 -4.89,0.11 -1.06,-0.03 -1.56,0.78 -1.53,1.59 -0.01,0.84 0.53,1.69 1.61,1.65 16.33,0.46 32.69,0.15 49.03,0.13 16.35,-0.02 32.9,0.66 49.24,-0.24 -0.33,1.63 -0.71,3.24 -1.1,4.85 -3.09,-0.18 -6.19,-0.03 -9.3,-0.02 -4.26,0.03 -8.64,-0.26 -12.87,0.36 -1.42,0.2 -2.01,2.51 -0.3,2.76 3.77,0.55 7.6,0.37 11.41,0.39 3.35,0.02 6.76,0.23 10.13,0.08 -0.64,2.33 -1.34,4.63 -2.09,6.9 -4.97,-0.36 -9.93,-0.31 -14.92,-0.3 -5.05,0.01 -10.37,-0.5 -15.33,0.54 -1.36,0.29 -1.23,2.4 0.07,2.68 4.96,1.04 10.3,0.51 15.35,0.52 4.58,0.02 9.15,0.05 13.72,-0.22 -0.78,2.18 -1.62,4.33 -2.49,6.45 -3.12,-0.45 -6.6,-0.38 -9.54,0.46 -1.35,0.38 -1.21,2.27 0.06,2.63 2.43,0.69 5.23,0.82 7.89,0.6 -0.91,2 -1.85,3.98 -2.84,5.94 -0.84,-0.07 -1.69,-0.09 -2.56,-0.05 -4.1,0.18 -8.63,-0.4 -12.64,0.52 -1.34,0.31 -1.21,2.36 0.07,2.65 4,0.92 8.55,0.32 12.66,0.5l0.58 -0.01c-3,5.49 -6.35,10.77 -10.02,15.8 -4.64,-0.38 -9.79,-0.42 -14.27,0.36 -1.34,0.23 -1.21,2.4 0.06,2.62 3.6,0.64 7.67,0.72 11.56,0.53 -1.38,1.77 -2.8,3.49 -4.24,5.19 -3.89,-0.27 -7.92,-0.53 -11.75,0.18 -1.35,0.26 -1.23,2.42 0.07,2.67 2.87,0.55 5.88,0.52 8.84,0.36 -1.77,1.95 -3.6,3.83 -5.47,5.67l-0.23 -0.06c-2.11,-0.23 -4.2,-0.3 -6.31,-0.29l-0.03 -0 -0.24 -0.01 -0.16 0.02c-2.36,0.04 -4.69,0.35 -7.07,0.38 -1.77,0.03 -1.7,2.7 0.07,2.73 2.37,0.04 4.71,0.34 7.09,0.39l0.16 0.02 0.24 -0.01 0.03 0c1.07,0 2.13,-0.02 3.19,-0.06 -2.73,2.51 -5.54,4.92 -8.46,7.21 -3.83,-0.38 -7.93,-0.38 -11.66,0.31 -1.33,0.25 -1.21,2.38 0.06,2.62 2.22,0.41 4.61,0.57 6.97,0.55 -23.18,16.75 -51.63,26.63 -82.35,26.63 -30.71,0 -59.14,-9.87 -82.32,-26.6 4.7,-0.27 9.36,-1.03 13.98,-2.03 6.93,0.43 13.97,0.31 20.89,0.02 1.85,-0.08 1.75,-2.77 -0.07,-2.85 -2.72,-0.12 -5.46,-0.19 -8.21,-0.23 1.04,-0.26 2.08,-0.53 3.12,-0.79 6.53,-1.63 13.1,-2.9 19.83,-3.36 4.93,-0.35 9.45,0.24 14.08,-1.83 0.48,-0.22 0.99,-0.48 1.45,-0.79 5.34,0.26 10.71,0.2 16.05,-0.04 1.82,-0.08 1.73,-2.73 -0.07,-2.81 -4.88,-0.22 -9.79,-0.3 -14.68,-0.1l-0.03 -0.12c-0.85,-2.42 7.31,-2.78 9.35,-2.98 5.08,-0.48 10.09,-1.07 15.19,-1.38 2.17,-0.14 4.41,-0.33 6.54,-0.79 1.09,-0.24 2.39,-0.81 3.69,-1.34l0.03 0.01c5.62,1.25 12.18,0.4 17.89,0.11 1.85,-0.09 1.75,-2.75 -0.06,-2.84 -3.79,-0.19 -7.92,-0.61 -11.9,-0.52 2.8,-5.02 15.58,-6.34 20.11,-7.22 6.8,-1.32 13.86,-1.84 20.6,-3.53 3.51,3.07 11.77,1.8 15.49,1.59 6.74,-0.4 14.77,-0.71 21.15,-3.17 1.41,-0.55 1.46,-2.22 0.71,-3.08 -0.85,-2.91 -1.7,-5.8 -2.26,-8.78 -0.15,-0.78 -0.95,-1.14 -1.64,-1.19 -5.21,-0.38 -6.03,-5.6 -9.29,-8.68 -3.18,-2.99 -8.19,-5.46 -11.85,-7.87 -2.34,-1.53 -5.74,-1 -8.4,-1.07 -6.06,-0.17 -12.46,0.19 -15.96,-5.61 0.06,-1.1 -0.02,-2.22 -0.04,-3.32l-0.25 -0.74c-0.26,-0.47 -0.78,-0.78 -1.48,-0.53 -16.32,5.83 -33.09,4.37 -49.99,2.54 -16.52,-1.79 -32.72,-2.11 -49.29,-0.52 -14.59,1.41 -28.94,4.66 -43.14,8.24 -12.54,3.16 -25.15,6.91 -36.6,13.04l-0.2 0.14c-3.25,-6.91 -5.97,-14.11 -8.09,-21.57 3.14,0.2 6.22,0.34 9.35,-0.19l0.02 0.03c-0.44,4.11 -0.23,8.57 0.15,12.58 0.18,1.88 2.7,1.76 2.87,-0.06 0.4,-4.27 0.6,-9.01 0.04,-13.33 2.37,-2.53 4.33,-5.61 6.34,-8.38 2,-2.76 4.01,-5.55 5.5,-8.61l0.24 0.36c0.66,1.05 1.3,2.08 2.13,3.02 0.56,0.64 1.67,0.52 2.22,-0.06 0.65,-0.67 0.5,-1.57 -0.05,-2.22 -1.15,-1.38 -1.95,-3.27 -3.25,-4.56l-0.16 -0.2 -0.77 -0.55 -0.01 -0.01 -1.27 -0.04c-4.32,-0.48 -8.71,-0.25 -13.06,-0.26 -4.83,-0.02 -9.85,-0.35 -14.66,0.23 -0.47,-4.11 -0.78,-8.28 -0.88,-12.48 12.39,-7.5 25.97,-12.51 39.32,-18.03 7.49,-3.1 14.68,-6.87 22.18,-9.96 7.56,-3.11 15.84,-4.01 23.58,-6.57 6.16,-2.04 19.12,-6.17 17.33,-14.9 -0.81,-3.93 -0.52,-6.23 3.36,-8.84 2.68,-1.8 6.08,-2.67 9.13,-3.66 4.69,-1.54 9.16,-3.27 12.45,-7.08 1.23,-1.43 -0.71,-3.23 -2.09,-1.99 -1,0.88 -2.07,1.64 -3.19,2.3 -1.5,-0.68 -2.78,-1.47 -3.96,-2.8 -1.11,-1.24 -3.17,0.46 -2.25,1.83 0.71,1.04 1.64,1.98 2.71,2.71 -3.02,1.28 -6.23,2.21 -9.28,3.37 -1,-0.25 -1.93,-0.53 -2.42,-1.44 -0.74,-1.38 -2.98,-0.35 -2.49,1.13 0.24,0.7 0.66,1.38 1.21,1.96 -2.77,1.43 -5.26,3.32 -7.11,6.22 -2.35,3.67 2.47,6.82 -0.65,10.86 -1.67,2.16 -4.73,3.81 -8.05,5.12 -2.61,0.25 -4.51,-0.53 -6.36,-2.33 -1.3,-1.27 -3.21,0.75 -1.93,2.04 0.87,0.87 1.82,1.59 2.83,2.14 -1.82,0.54 -3.51,1 -4.9,1.4 -1.18,0.33 -2.36,0.64 -3.53,0.95 -1.06,-0.24 -2.07,-0.62 -2.91,-1.33 -1.48,-1.25 -3.42,0.77 -2.08,2.18l0.33 0.3c-4.37,1.08 -8.71,2.19 -12.96,3.94 -7.52,3.1 -14.74,6.92 -22.24,10.07 -12.25,5.13 -24.61,9.84 -36.07,16.57 0,-1.83 0.05,-3.64 0.12,-5.45 10.63,-2.54 18.83,-12.11 28.87,-16.17 1.69,-0.68 0.98,-3.25 -0.83,-2.75 -10.4,2.91 -17.84,12.07 -27.89,15.81 2.91,-46.95 28.89,-87.75 66.73,-111.16 -5.43,7.7 -7.78,16.93 -12.07,26.07 -6.82,14.54 -26.42,16.31 -34.79,29.87 -0.95,1.53 1.41,2.74 2.4,1.33 8.31,-11.83 25.2,-13.87 33.03,-25.88 3.13,-4.8 4.88,-10.21 6.74,-15.59 2.81,-8.13 6.58,-15.1 13.1,-20.6 19.59,-10.33 41.89,-16.2 65.54,-16.2 12.54,0 24.7,1.66 36.29,4.75 -9.31,2.57 -18.57,9.96 -24.75,15.31 -1.27,1.09 0.44,3.07 1.8,2.22 10.18,-6.35 19.64,-14.41 31.99,-14.8 2.92,0.99 5.8,2.08 8.63,3.26 -3.96,0.81 -7.96,1.95 -11.42,3.87 -1.43,0.8 -0.34,2.84 1.13,2.5 5,-1.18 10.06,-2.71 14.92,-4.35 8.96,4.11 17.41,9.13 25.25,14.95l-0.43 0.28c-2.19,0.46 -4.68,0.15 -6.3,-1.38 -1.13,-1.07 -3.12,0.44 -2.14,1.75 0.81,1.12 1.75,1.87 2.89,2.37 -1.76,0.64 -3.56,1.22 -5.09,2.26 -1.36,0.93 -0.42,2.95 1.15,2.58 2.58,-0.62 5.17,-1.8 7.58,-2.85 1.42,-0.61 2.78,-1.35 4,-2.27l0.58 -0.32 0.4 -0.4c10.22,7.96 19.32,17.31 27.02,27.75 -12.02,2.13 -23.68,5.62 -35.03,10.06 -8.36,3.27 -17.72,6.59 -24.51,12.65 -1.59,1.42 -3.37,3.98 -2.6,6.25 0.4,1.17 1.02,2.01 1.93,2.85 1.87,1.73 -1.52,1.72 -3.35,2.27 -5.81,1.76 -9.42,4.67 -13.1,9.55 -2.96,3.94 -6.31,5.72 -10.89,7.33 -3.09,1.08 -5.85,2.35 -8,4.86 -1.42,1.65 0.8,3.7 2.41,2.29 4.93,-4.34 11.86,-4.62 16.73,-9.13 2.15,-1.99 3.68,-4.82 5.65,-7.01 2.64,-2.94 5.91,-3.84 9.52,-4.94 2.27,-0.7 5.8,-1.81 5.73,-4.78 -0.08,-3.2 -5.16,-3.09 -2.15,-6.6 5.45,-6.33 16.09,-9.4 23.6,-12.36 11.74,-4.63 24,-6.86 35.94,-10.67 1.27,1.8 2.5,3.64 3.68,5.5 -15.68,2.6 -32.27,5.68 -46.82,11.96 -1.58,0.68 -0.93,3.18 0.79,2.62 15.71,-5.07 31.71,-8.02 47.68,-11.91 4.14,6.84 7.71,14.07 10.65,21.61 -4.29,-0.3 -8.69,-0.26 -13.08,-0.03l-1.06 -0.56c-0.71,-0.61 -1.23,-1.6 -1.62,-2.44 -0.71,-1.61 -3.11,-0.99 -2.67,0.81 0.22,0.89 0.51,1.73 0.93,2.5 -0.82,0.07 -1.64,0.13 -2.45,0.22l-1.08 -0.16c-2.73,0.63 -4.65,-1.49 -5.87,-3.68 -0.75,-1.34 -2.99,-0.35 -2.46,1.11 0.47,1.28 1.23,2.53 2.19,3.56l-0.35 0.05c-6.22,0.82 -14.24,2.14 -20.17,5.8 -1.55,-0.39 -2.91,-1.2 -3.98,-2.46 -1,-1.17 -2.99,0.46 -2.09,1.7 0.88,1.21 1.98,2.18 3.24,2.84 -0.99,0.88 -1.89,1.84 -2.64,2.93 -0.39,0.56 -0.83,1.18 -1.17,1.84 -1.03,0.29 -2.19,0.27 -3.2,0 -1.76,-0.45 -2.27,2.05 -0.66,2.66 0.97,0.36 2.11,0.61 3.21,0.6 0.02,0.53 0.15,0.93 0.49,1.9 0.6,1.78 -4.4,1.7 -5.16,1.78 -1.75,0.19 -3.52,0.47 -5.28,0.84 -1.03,-0.45 -2.09,-0.75 -3.16,-1.11 -0.5,-0.17 -0.99,-0.33 -1.49,-0.51l-0.66 -0.25c-0.06,-0.03 -1.08,-0.36 -0.54,-0.09 -1.33,-0.67 -2.87,1.2 -1.6,2.18 0.44,0.35 0.75,0.76 1.27,1.07l0.4 0.2c-3.38,1.07 -6.66,2.44 -9.68,4.1 -1.53,0.84 -2.98,1.9 -4.37,3.02 -0.69,-0.33 -1.38,-0.7 -1.97,-1.16 -1.39,-1.07 -3.01,0.62 -1.87,1.97 0.4,0.46 0.89,0.85 1.41,1.21l-1.11 0.93c-3.63,3 -5.62,3.52 -9.97,3.43 -6.03,-0.14 -10.26,3.35 -13.51,8.07 -1.01,1.46 1.23,2.88 2.4,1.76 3.36,-3.24 6.18,-5.84 11.2,-6.11 1.63,-0.09 3.3,0.37 4.91,-0.01 5.71,-1.34 10.03,-6.9 14.83,-9.95 5.69,-3.63 14.81,-6.02 21.57,-6.06 2.73,-0.02 7,-1.41 6.24,-5.06 -2.3,-10.98 17.37,-13.53 24.76,-14.51 9.04,-1.2 18.16,-0.62 27.18,-1.44 5.35,14.87 8.27,30.89 8.27,47.59 0,4.96 -0.26,9.87 -0.76,14.7 -6.25,-1.9 -12.83,-1.92 -19.3,-0.83zm17.66 12.04c-15.7,-0.89 -31.6,-0.25 -47.32,-0.26 -13.23,-0.02 -26.48,-0.22 -39.71,-0.09 14.9,-5.75 30.65,-7.82 46.53,-4.22 6.81,1.55 11.15,0.69 17.62,-1.99 7.93,-3.29 15.92,-2.63 24.1,-1.16 -0.33,2.6 -0.74,5.17 -1.23,7.72zm-90.75 14.83c0.95,-0.3 1.88,-0.62 2.82,-0.97l-0.01 0.8c-0.93,0.32 -1.86,0.62 -2.8,0.9l-0.02 -0.73zm-18.07 3.19c5.15,-0.29 10.27,-1.04 15.31,-2.39l-0.01 0.69c-5.05,1.29 -10.14,2.02 -15.26,2.35l-0.04 -0.65zm-20.73 0.39l0.22 -1.04c5.95,0.59 11.89,0.94 17.76,0.76l-0.04 0.68c-5.93,0.24 -11.9,0.02 -17.94,-0.41zm-2.12 -0.16c-1.22,-0.09 -2.44,-0.19 -3.66,-0.3 -5.75,-0.49 -11.47,-0.84 -17.19,-1.03 0.01,-0.54 -0.01,-1.09 -0.02,-1.64 6.84,0.42 13.68,1.07 20.58,1.82l0.15 0.02 0.14 1.14zm-44.48 -3.13c6.99,-0.39 13.92,-0.35 20.83,-0 -0.02,0.58 -0.04,1.16 -0.03,1.73 -6.91,-0.16 -13.8,-0.07 -20.74,0.34 0.01,-0.69 -0.02,-1.38 -0.07,-2.07zm-25.35 2.9c7.42,-1.24 14.89,-2.19 22.43,-2.74 -0.04,0.71 -0.07,1.41 -0.05,2.11 -1.65,0.12 -3.32,0.24 -4.98,0.4 -5.82,0.56 -11.6,1.42 -17.34,2.47 0,-0.74 -0.02,-1.5 -0.05,-2.25zm-24.84 5.21c7.28,-1.8 14.59,-3.39 21.95,-4.7 -0.04,0.77 -0.07,1.55 -0.04,2.31 -7.36,1.43 -14.67,3.16 -21.93,4.98l0.03 -0.84c0,-0.56 0.02,-1.16 -0.01,-1.75zm-25.3 7.41c7.19,-2.66 14.63,-4.72 22.05,-6.59 -0.03,0.86 0.02,1.73 0.08,2.57 -7.45,1.92 -14.89,4.1 -22.09,6.89 0.08,-0.96 0.09,-1.95 -0.05,-2.87zm25.58 53.87c4.69,-0 9.22,-2.31 14.34,-3.82 1.59,-0.47 1.2,-2.91 -0.46,-2.87 -3.26,0.09 -6,1.53 -8.98,2.71 -3.89,1.53 -6.94,0.4 -10.49,-0.71 -2.78,-2.45 -5.46,-5 -8.04,-7.66 2.39,-0.32 4.5,-1.12 6.75,-2.16 5.2,-2.41 8.29,-2.12 12.09,1.81 2.87,2.97 5.86,3.02 9.2,1.59 0.88,1.36 1.66,2.76 2.46,4.22 0.72,1.32 2.63,0.56 2.65,-0.79 0.04,-2.62 -1.51,-4.5 -3,-6.59 -0.59,-0.82 -1.54,-1.04 -2.43,-0.57 -5.95,3.12 -6.9,-2.89 -11.7,-4.42 -1.3,-0.41 -2.52,-0.52 -3.7,-0.45l0.11 -0.13c0.75,-0.96 1.48,-1.91 2.08,-2.98 0.78,-1.39 -1.14,-2.78 -2.23,-1.63 -1.76,1.86 -3.26,3.99 -4.86,6 -2.31,0.93 -4.57,2.13 -7.06,2.77 0.65,-0.74 1.3,-1.49 1.95,-2.24 2.35,-2.74 5.24,-5.58 6.95,-8.77 0.75,-1.39 -1.14,-2.83 -2.23,-1.64 -3.62,3.93 -6.89,8.32 -10.29,12.52 -0.74,-0.82 -1.48,-1.65 -2.2,-2.49 1.82,-2.15 3.44,-4.52 5.14,-6.74 2.19,-2.86 4.54,-5.66 6.51,-8.67 0.87,-1.34 -1.19,-2.81 -2.22,-1.63 -2.31,2.6 -4.31,5.5 -6.41,8.27 -1.63,2.14 -3.4,4.24 -4.98,6.45 -0.81,-0.97 -1.61,-1.97 -2.4,-2.97 1.88,-2.14 3.68,-4.35 5.5,-6.53 2.12,-2.54 4.6,-5.02 6.38,-7.82 0.88,-1.4 -1.11,-2.65 -2.22,-1.63 -2.34,2.18 -4.24,4.99 -6.26,7.44 -1.72,2.07 -3.48,4.13 -5.15,6.24 -0.93,-1.23 -1.84,-2.49 -2.73,-3.75 1.56,-1.42 3.03,-2.95 4.52,-4.43 1.78,-1.77 4.69,-3.86 5.75,-6.17 0.66,-1.42 -0.73,-2.59 -2.07,-1.97 -2.19,1 -4.18,3.78 -5.85,5.46 -1.42,1.42 -2.89,2.83 -4.27,4.31 -0.55,-0.83 -1.1,-1.66 -1.63,-2.5 0.78,-0.72 1.51,-1.54 2.2,-2.19 1.28,-1.21 2.5,-2.44 3.68,-3.74 1.29,-1.41 -0.68,-3.12 -2.08,-1.98 -1.09,0.89 -2.54,2.13 -3.75,3.28 -0.54,0.52 -1.24,1.07 -1.9,1.65 -1.02,-1.69 -2,-3.39 -2.95,-5.13 3.14,-1.65 6.37,-3.1 9.66,-4.42l0.3 -0.11c9.08,-3.61 18.62,-6.14 28.06,-8.48 15.71,-3.88 31.52,-6.85 47.68,-8 15.47,-1.09 30.67,0.05 46.07,1.36 6.81,0.58 13.57,0.82 20.23,0.4l0.4 -0.03c7.7,-0.52 15.29,-1.96 22.72,-4.85 1.11,2.04 2.59,3.49 4.43,4.5 -0.89,0.38 -1.75,0.81 -2.52,1.22 -1.54,0.84 -0.29,2.81 1.17,2.58 2.06,-0.34 4.37,-1.14 6.24,-2.1l0.24 0.06c1.84,0.35 3.74,0.42 5.63,0.44 -2.13,1.45 -4.11,3.47 -4.51,6.02 -0.3,1.83 2.36,2.55 2.82,0.71 0.59,-2.4 2.58,-4.02 4.55,-5.35 0.53,-0.35 0.67,-0.86 0.59,-1.32 1.04,0.03 1.98,0.11 2.85,0.24 -3.62,3.66 -6.29,7.45 -5.04,13.06 0.35,1.52 2.91,1.13 2.73,-0.44 -0.3,-2.44 -0.28,-4.47 0.99,-6.65 1.13,-1.93 2.95,-3.43 4.4,-5.13 1.07,0.44 2.15,1.05 3.38,1.85 3.59,2.37 8.07,4.27 10.44,8 1.22,1.91 1.98,3.68 3.74,5.17 0.52,0.42 4.05,1.38 4.1,1.62 0.42,2.24 0.94,4.58 1.77,6.74 -4.54,1.4 -9.67,1.67 -14.29,2.13 -0.87,0.09 -2.62,0.34 -4.7,0.58 -1.41,-0.2 -2.57,-0.53 -3.72,-1.59 -1.22,-1.1 -2.19,-2.58 -3.05,-3.97 -0.96,-1.52 -3.03,-0.12 -2.32,1.44 0.72,1.55 1.7,3.2 2.93,4.55 -3.09,0.04 -5.81,-0.32 -6.6,-1.62l-0.3 -0.33 -0.15 -0.31c-0.27,-1.03 -1.25,-1.83 -1.97,-2.61 -0.96,-1.02 -2.15,-2.21 -3.58,-2.45 -1.43,-0.23 -2.34,1.34 -1.34,2.42 0.81,0.87 1.8,1.57 2.65,2.41l0.56 0.6c-9.62,2.34 -19.65,3.01 -29.26,5.57 -2.77,0.74 -5.61,1.65 -8.15,3.05 -4.61,-7.58 -15.55,0.74 -20.14,-6.8 -3.24,-5.32 -4.82,-10.31 -12.18,-8.19 -1.57,0.46 -1.22,3.18 0.47,2.92 7.1,-1.1 7.21,5.89 11.08,10.02 4.77,5.08 12.96,-0.49 18.15,3.76l-0.66 0.53c-0.47,0.4 -0.81,0.96 -1.17,1.47l-0.22 0.31 -0.11 0.03c-5.14,1.55 -9.41,2.88 -14.87,3.19 -6.87,0.4 -14.36,0.54 -21.02,2.42 -0.61,0.17 -1.49,0.36 -2.35,0.62 -2.93,-7.14 -11.26,-10.42 -17.86,-13.5 -4.01,-1.86 -7.79,-3.07 -12.27,-2.18 -2.67,0.53 -5.23,1.28 -7.83,2.08 -1.53,0.47 -4.08,-2.6 -4.09,-2.4 0.05,-1.49 -1.85,-2.02 -2.8,-1.09l-0.18 0.17c-0.58,0.56 -0.58,1.42 -0.22,2.09 1.02,1.92 2.88,3.36 4.25,5.01 0.4,0.48 1.23,0.6 1.79,0.43 3.77,-1.15 7.48,-2.43 11.41,-2.9 3.97,-0.49 7.56,1.45 11.06,3.01 5.65,2.52 11.4,5.1 14.1,10.85l-0.25 0.45c-0.2,0.58 -0.39,1.01 -0.22,1.63 0.8,2.92 -4.28,2.97 -6.08,3.11 -9.47,0.76 -18.19,1.4 -27.48,3.67 -10.94,2.67 -21.5,5.49 -32.77,6.21l-1.09 -0.86zm-38.9 -48.09l0.51 -0.16c3.12,-1.64 6.32,-3.09 9.59,-4.4l-0 1.17c-0.01,0.58 0.04,1.15 0.1,1.72 -3.03,1.27 -6,2.66 -8.9,4.21 -0.44,-0.85 -0.87,-1.7 -1.29,-2.55zm-11.02 -30.85c0.73,0.02 1.47,-0.02 2.23,-0.03 2.46,-0.01 4.93,-0.16 7.38,-0.33 1.89,-0.12 1.78,-2.77 -0.07,-2.89 -2.16,-0.15 -4.31,-0.25 -6.47,-0.32 -1.28,-0.04 -2.58,-0.14 -3.84,-0.01 -0.11,-0.56 -0.22,-1.13 -0.33,-1.7 2.82,0.25 5.93,-0.24 8.58,-0.36 1.85,-0.08 1.75,-2.76 -0.07,-2.84 -2.83,-0.12 -6.16,-0.65 -9.12,-0.27 -0.17,-1.02 -0.31,-2.04 -0.46,-3.05 3.98,0.39 8.02,0.19 12.01,0.19 4.18,0 8.49,0.23 12.7,-0.04 -1.4,2.11 -2.78,4.22 -4.25,6.28 -2.18,3.05 -4.95,5.98 -6.8,9.29 -3.54,-0.66 -7.03,-0.42 -10.58,-0.18 -0.32,-1.23 -0.62,-2.48 -0.91,-3.73zm137.41 -176.4c-79.9,0 -144.91,65 -144.91,144.9 0,79.9 65.01,144.9 144.91,144.9 79.9,0 144.9,-65 144.9,-144.9 0,-79.9 -65,-144.9 -144.9,-144.9z"/>
  <path class="fil0" d="M106.23 262.91l-1.34 3.93c-0.18,0.52 -0.5,0.85 -1.04,1.06l-0.81 0.17 -0.47 -0.07 -1.17 -0.4 2.53 -7.38 1.17 0.4 0.95 0.85c0.31,0.49 0.37,0.95 0.19,1.47zm-0.22 -5.03l-2.63 -0.9 -1 0.06 -0.67 0.76 -3.52 10.31c-0.24,0.69 0.13,1.44 0.82,1.67l2.64 0.9 1.4 0.23c0.59,0 1.2,-0.12 1.81,-0.35 1.34,-0.51 2.29,-1.47 2.74,-2.81l1.34 -3.92c0.45,-1.33 0.3,-2.68 -0.45,-3.89 -0.62,-1.02 -1.46,-1.72 -2.48,-2.07z"/>
  <path class="fil0" d="M120.96 262.07l-0.24 -0.05c-0.72,-0.15 -1.4,0.32 -1.55,1.03l-2.14 10.46 0.19 0.99 0.84 0.56 0.23 0.04 0.26 0.03c0.62,0 1.16,-0.43 1.29,-1.06l2.14 -10.46 -0.19 -0.99 -0.84 -0.56z"/>
  <path class="fil0" d="M136.48 269.71l-0.95 0.21 -0.27 -0.01 -1.37 -0.1 0.23 -3.05 1.38 0.1c0.5,0.03 0.88,0.16 1.16,0.38 0.22,0.17 0.46,0.48 0.4,1.27 -0.06,0.81 -0.34,1.07 -0.57,1.2zm3.43 -0.99c0.15,-1.98 -0.71,-3.11 -1.46,-3.71 -0.73,-0.59 -1.66,-0.93 -2.75,-1.01l-2.92 -0.22c-0.74,-0.05 -1.36,0.49 -1.42,1.21l-0.8 10.77c-0.05,0.72 0.49,1.35 1.21,1.41l0.23 0.02 0.96 -0.31 0.45 -0.9 0.24 -3.3 1.27 0.1 1.65 4.07c0.2,0.51 0.69,0.82 1.22,0.82l0.45 -0.08 0.22 -0.08 0.75 -0.7 0.02 -1.03 -1.4 -3.51c1.23,-0.65 1.96,-1.86 2.08,-3.54z"/>
  <path class="fil0" d="M152.09 264.64l-0.95 -0.34 -0.24 0.01c-0.73,0.04 -1.28,0.66 -1.25,1.38l0.53 10.66 0.44 0.91 0.88 0.34 0.06 -0.01 0.24 -0.01c0.73,-0.04 1.29,-0.65 1.24,-1.38l-0.53 -10.66 -0.43 -0.9z"/>
  <path class="fil0" d="M170.92 266.82l-0.98 -0.21 -1.87 0.33c-0.71,0.12 -1.19,0.8 -1.06,1.52l0.04 0.23 0.55 0.85 0.98 0.22 0.34 -0.06 0.54 3.02 -1.51 0.27 -1.16 -0.23 -0.62 -1.02 -0.83 -4.66 0.28 -1.19 0.96 -0.59 2.92 -0.52c0.71,-0.12 1.18,-0.8 1.06,-1.52l-0.04 -0.23 -0.55 -0.85 -0.98 -0.22 -2.91 0.52c-1.09,0.19 -2,0.74 -2.7,1.62 -0.79,0.99 -1.09,2.19 -0.86,3.49l0.84 4.67c0.22,1.21 0.82,2.18 1.8,2.85 0.73,0.51 1.55,0.77 2.45,0.77l0.85 -0.08 3.04 -0.54c0.72,-0.12 1.18,-0.81 1.06,-1.52l-1.08 -6.07 -0.54 -0.85z"/>
  <path class="fil0" d="M184.83 268.32l-0.89 0.74 -1.17 -0.1 -0.76 -0.9 -1.42 -4.53 0.1 -1.16 0.91 -0.75 0.48 -0.09 0.68 0.19 0.75 0.9 1.42 4.52 -0.1 1.18zm1.43 -6.56c-0.36,-1.14 -1.11,-2.03 -2.16,-2.58 -1.06,-0.55 -2.22,-0.66 -3.35,-0.3 -1.14,0.36 -2.04,1.11 -2.59,2.17 -0.55,1.04 -0.65,2.21 -0.29,3.34l1.42 4.53c0.35,1.14 1.1,2.03 2.15,2.58 0.64,0.33 1.31,0.5 2,0.5l1.35 -0.21c1.14,-0.36 2.03,-1.1 2.59,-2.15 0.55,-1.06 0.65,-2.22 0.3,-3.36l-1.42 -4.52z"/>
  <path class="fil0" d="M83.89 56.51l0.81 0.6 0.32 0.04 0.68 -0.19 0.3 -0.18c0.62,-0.38 0.82,-1.18 0.45,-1.8l-5.27 -8.74 4.42 2.34 1.29 -0.03 0.64 -1.13 -0.01 -5.01 5.28 8.74 0.81 0.6 1 -0.16 0.3 -0.18c0.62,-0.38 0.82,-1.18 0.45,-1.81l-8.06 -13.34 -0.81 -0.6 -1 0.15 -0.32 0.2 -0.64 1.13 0.03 7.51 -6.65 -3.52 -1.3 0.04 -0.32 0.19c-0.61,0.38 -0.82,1.18 -0.44,1.8l8.05 13.35z"/>
  <path class="fil0" d="M114.44 30.8l2.93 4.46 -3.26 0.87 0.33 -5.33zm-2.41 13.16l0.34 0 0.03 0c0.69,0 1.27,-0.53 1.31,-1.23l0.22 -3.47 5.18 -1.38 1.91 2.9c0.39,0.59 1.17,0.77 1.78,0.4l0.29 -0.18 0.61 -0.84 -0.18 -1.01 -9 -13.67c-0.31,-0.47 -0.89,-0.69 -1.43,-0.55l-0.36 0.1c-0.55,0.15 -0.94,0.62 -0.97,1.19l-1 16.34 0.35 0.96 0.94 0.43z"/>
  <path class="fil0" d="M146.88 39.04l0.35 0.01 0.02 0 0.92 -0.37 0.4 -0.92 0.31 -15.59c0.02,-0.73 -0.56,-1.33 -1.29,-1.34l-0.35 -0 -0.94 0.37 -0.4 0.93 -0.31 15.58c-0.01,0.73 0.57,1.33 1.29,1.34z"/>
  <path class="fil0" d="M172.02 42.43l0.32 0.1 1 -0.09 0.65 -0.78 2.91 -9.4 2.47 11.74 0.89 0.98 0.35 0.11 0.39 0.06 0.61 -0.16 0.65 -0.78 4.62 -14.89c0.22,-0.69 -0.18,-1.43 -0.87,-1.65l-0.33 -0.1 -1.01 0.09 -0.64 0.78 -2.92 9.4 -2.44 -11.74 -0.91 -0.98 -0.35 -0.11 -1 0.09 -0.65 0.78 -4.62 14.89c-0.22,0.69 0.17,1.43 0.87,1.65z"/>
  <path class="fil0" d="M200.02 54.6l5.93 3.91 0.72 0.22 1.1 -0.59 0.18 -0.27 0.19 -0.99 -0.57 -0.84 -4.54 -3 3.14 -4.75 3.11 2.05c0.6,0.4 1.42,0.23 1.82,-0.37l0.19 -0.3 0.19 -0.98 -0.56 -0.84 -3.1 -2.05 2.17 -3.29 4.54 2.99c0.6,0.4 1.42,0.23 1.82,-0.37l0.19 -0.29 0.19 -0.99 -0.56 -0.84 -5.92 -3.91c-0.6,-0.4 -1.42,-0.23 -1.82,0.38l-8.76 13.28c-0.4,0.61 -0.23,1.42 0.36,1.82z"/>
  <path class="fil0" d="M34.99 174.11l-0.18 -0.55c-0.23,-1.31 -2.37,-1.2 -2.6,0.06l-0.02 0.11c-0.27,0.66 -0.26,1.39 -0.28,2.13 -0.03,0.97 0.13,2.16 1.25,2.44 0.6,0.15 1.44,-0.14 1.69,-0.75 0.2,-0.48 0.25,-0.93 0.27,-1.44l-0.02 -1.25 -0.11 -0.76z"/>
  <path class="fil0" d="M101.72 160.24c-0.3,-1.33 -2.32,-1.2 -2.6,0.06 -0.18,0.81 -0.22,1.59 -0.24,2.42 -0.02,0.81 -0.09,1.65 0.18,2.43 0.49,1.4 2.31,1.26 2.77,-0.07 0.26,-0.77 0.18,-1.63 0.16,-2.44 -0.03,-0.84 -0.08,-1.6 -0.26,-2.41z"/>
  <path class="fil0" d="M95.44 173.55c-0.42,-0.96 -1.98,-1.49 -2.51,-0.27 -0.56,1.27 -0.43,2.68 -0.45,4.03l0.02 1.29 0.12 0.47 0.39 0.65c0.49,0.49 1.07,0.55 1.56,0.37l0.71 -0.42c0.62,-0.62 0.49,-1.53 0.48,-2.32 -0,-1.22 0.17,-2.67 -0.33,-3.8z"/>
  <path class="fil0" d="M105.82 173.54c-0.05,1.5 -0.21,2.94 -0.06,4.45 -0.08,0.76 0.75,1.39 1.45,1.37l0.58 -0.15c0.49,-0.18 0.86,-0.61 0.79,-1.3 0.15,-1.51 -0,-2.94 -0.05,-4.44 -0.06,-1.76 -2.65,-1.67 -2.71,0.06z"/>
  <path class="fil0" d="M149.07 101.9c-0.44,1.04 -0.41,2.12 -0.41,3.23 0,1.01 0.11,1.92 0.55,2.84 0.47,0.99 2.09,0.88 2.55,-0.06 0.4,-0.82 0.51,-1.69 0.51,-2.61 0,-1 0.12,-2.15 -0.28,-3.08 -0.47,-1.11 -2.3,-1.72 -2.91,-0.31z"/>
  <path class="fil0" d="M148.51 130.22c-0.31,1.05 -0.27,2.15 -0.3,3.24 -0.02,1.22 -0.02,2.43 0.23,3.64 0.28,1.41 2.49,1.28 2.76,-0.07 0.22,-1.05 0.2,-2.11 0.21,-3.18 0.01,-1.23 0.04,-2.5 -0.32,-3.69 -0.39,-1.31 -2.22,-1.18 -2.58,0.06z"/>
  <path class="fil0" d="M175.92 177.08l-0.4 -0.09c-4.84,-1.15 -8.81,2.26 -13.39,2.6 -0.3,-5.07 -0.58,-10.15 -0.86,-15.23 1.28,-1.22 2.33,-2.81 3.39,-4.2 0.86,-1.15 1.72,-2.29 2.57,-3.45 1.69,1.99 3.64,3.83 5.41,5.7 1.11,1.18 2.22,2.37 3.34,3.55 -0.07,3.7 -0.15,7.43 -0.06,11.13zm-15.1 -21.16c1.08,0.08 2.15,0.09 3.22,0.05 -0.54,0.68 -1.07,1.37 -1.62,2.06 -0.44,0.57 -0.92,1.15 -1.4,1.73 -0.07,-1.28 -0.14,-2.56 -0.21,-3.85zm-4.96 -64.12l-0.04 0.82c-1.72,-0.11 -3.47,-0.2 -5.25,-0.29 0.07,-0.62 0.07,-1.26 0.03,-1.89 1.78,-0.07 3.56,-0.13 5.33,-0.21 -0.03,0.52 -0.05,1.05 -0.07,1.56zm-18.46 29.16c0.52,-8.33 0.95,-16.65 1.17,-24.98 5.14,0.36 10.52,0.19 15.67,-0.1 0.29,8.37 0.71,16.75 1.18,25.11 -5.88,-0.5 -12.13,-0.47 -18.03,-0.03zm-0.85 -28.36l0.02 -1.15 -0.03 -1.18 0.85 0.07c-0.05,0.72 -0.03,1.45 0.03,2.16l-0.87 0.1zm5.08 -0.81l0.03 0.46 -1.27 0.04c0.04,-0.59 0.05,-1.2 0.03,-1.79l1.03 0.02 0.05 0.11 0.1 0.15 -0.01 0.22 0.03 0.79zm5.98 0.45c-0.97,-0.03 -1.93,-0.04 -2.9,-0.04l0.01 -0.23 0.18 -1.42c0.89,0 1.79,-0.01 2.69,-0.03 -0.04,0.57 -0.04,1.15 0.02,1.72zm-8.32 -6.35c4.49,0.42 9.2,0.24 13.71,-0.04l0.03 1.35c-4.57,-0.18 -9.2,-0.3 -13.76,-0.09l0.03 -1.22zm2.81 -13.94c2.63,0.09 5.29,0.05 7.93,-0.05 0.27,1.42 0.16,3.04 0.09,4.52 -0.99,-0.62 -2.16,-1 -3.44,-1.04 -1.51,-0.05 -3.09,0.45 -4.41,1.33 0.01,-1.6 -0.03,-3.2 -0.17,-4.76zm4.82 6.62c1.89,0.23 2.76,1.48 3.23,3.01l0.06 1.16c-2.71,-0.14 -5.46,-0.21 -8.17,-0.09l0.02 -0.32c0.58,-2.27 2.34,-4.07 4.85,-3.76zm-0.62 -15.2c1.45,2.72 3.99,4.66 7.38,5.38l-1.39 -0.07 -0.97 -0.05c-3.93,-0.18 -7.95,-0.26 -11.84,0.02 3.12,-0.8 5.44,-2.7 6.82,-5.27zm-62.74 110.77c-1.65,0.25 -3.33,0.4 -5.02,0.49l-0.12 -0.02 -0.23 0.04c-5.64,0.26 -11.45,-0.15 -17,-0.15 -4.63,0 -9.27,0.02 -13.91,0.06l-0.12 0c-2.01,0.02 -4.03,0.04 -6.05,0.09 5.34,-9.44 10.57,-19.11 15.03,-28.99 14.05,0.61 28.29,0.58 42.35,0.02 -5.43,9.19 -10.31,18.85 -14.93,28.47zm95.16 -5.36l1.28 1.32c1.27,1.24 2.98,-0.67 1.86,-1.96 -2.2,-2.54 -4.55,-4.96 -6.84,-7.41 -2.2,-2.36 -4.32,-5.05 -6.81,-7.13l-1.3 -0.54c-2.08,-0.17 -4.17,-0.29 -6.26,-0.11 -0.51,-9.68 -1.03,-19.37 -1.62,-29.05 0.83,-0.68 0.97,-2.14 -0.16,-2.5 -0.54,-8.57 -1.14,-17.13 -1.88,-25.69l0.69 -0.05c1,-0.07 1.43,-0.83 1.36,-1.57 0.18,-0.76 0.09,-1.62 0.07,-2.38 -0.04,-1.12 -0.09,-2.24 -0.27,-3.35 -0.12,-0.73 -0.8,-1.03 -1.46,-0.97l-0.09 -0.02 -1.25 -0.05c0.08,-1.14 0.1,-2.33 -0.22,-3.38 -0.17,-0.59 -0.65,-0.87 -1.15,-0.9l-0.17 -0.04 -1.29 -0.08 0.04 -0.15c0.05,-0.5 0.04,-0.98 -0.01,-1.45 0.04,-1.23 0.05,-2.46 0.05,-3.69 0,-1.82 -0.29,-4.01 0.09,-5.87 0.79,-0.04 1.57,-0.09 2.35,-0.13 0.51,-0.03 0.85,-0.26 1.06,-0.58l0.23 -0.52c0.12,-0.98 0.05,-1.9 0.02,-2.89l-0.03 -0.16 -0.06 -0.3 -0.07 -0.16 -0.66 -0.57 -0.05 -0.02 -0.13 -0.05c-2.88,-0.42 -5.44,-1.33 -7.01,-3.9 -0.77,-1.27 -1.11,-2.76 -1.27,-4.27 0.68,-0.47 1.14,-1.27 1.12,-2.13 -0.02,-0.87 -0.49,-1.6 -1.17,-2.02 0.09,-1.41 0.03,-2.79 -0.03,-4.2 -0.07,-1.78 -2.66,-1.68 -2.73,0.07 -0.06,1.42 -0.12,2.82 -0.03,4.23 -0.62,0.47 -1.03,1.24 -1.01,2.05 0.02,0.76 0.39,1.42 0.94,1.86 -0.57,4.44 -2.93,7.55 -7.98,8.28l-0.23 0.08 -0.31 0.11 -0.02 0.01c-0.4,0.21 -0.71,0.58 -0.73,1.16 -0.02,0.86 -0.12,1.67 -0.02,2.53l0.05 0.22c-0.01,0.53 0.27,1.03 0.98,1.11 0.84,0.1 1.68,0.18 2.53,0.24 -0.31,3.63 -0.2,7.46 0.01,11.07l-1.42 0.16 -0.02 0.01c-0.53,0.04 -1.06,0.38 -1.24,0.98 -0.3,1.01 -0.29,2.18 -0.2,3.3l-1.32 0.11 -0.09 0.02 -0.44 0.12 -0.1 0.05 -0.36 0.27 -0.01 0.01 -0.33 0.54c-0.28,1 -0.25,2.06 -0.26,3.09 -0.01,0.9 0.01,1.8 0.23,2.68 -0.1,0.63 0.19,1.27 1.03,1.38l1.21 0.13c-0.8,8.5 -1.38,17.03 -1.87,25.56 -1.8,0.23 -1.75,2.48 -0.16,2.89 -0.51,9.35 -0.95,18.72 -1.45,28.07 -1.09,-0.06 -2.21,-0.01 -3.27,0.01 -1.83,0.02 -3.66,0.04 -5.49,0.14 -0.64,0.04 -1.03,0.37 -1.23,0.79 -1.41,1.28 -2.5,3.21 -3.61,4.65 -1.27,1.67 -2.69,3.34 -3.77,5.14 -0.97,0.03 -1.94,0.1 -2.91,0.17 -0.53,-1.09 -1.06,-2.19 -1.6,-3.28 -2.6,-5.29 -4.76,-11.68 -8.34,-16.4l-0.18 -0.17 -0.12 -0.11 -0.16 -0.12 -0.76 -0.27c-15.12,-0.68 -30.5,-0.73 -45.62,-0.04 -0.75,0.03 -1.16,0.48 -1.3,1.02 -6.12,10.14 -11.51,20.93 -16.63,31.6 -0.61,1.28 0.63,2.37 1.67,2.12l0.68 0.01c-0.45,4.77 -0.3,10.01 0.1,14.67 0.16,1.83 2.65,1.7 2.79,-0.06 0.39,-4.61 0.56,-9.85 0.11,-14.56 0.97,0.02 1.94,0.03 2.91,0.04 -0.37,3.68 -0.11,7.75 0.2,11.3 0.16,1.84 2.65,1.71 2.81,-0.07 0.31,-3.53 0.56,-7.53 0.19,-11.19 0.89,0.01 1.78,0.01 2.66,0.01 -0.07,1.28 0,2.59 0.01,3.87 0.02,2.09 -0.1,4.21 0.14,6.27 0.17,1.45 2.56,1.98 2.75,0.3 0.22,-1.91 0.15,-3.82 0.17,-5.75 0.02,-1.55 0.11,-3.13 0.02,-4.7 0.89,0.01 1.77,0.01 2.66,0.01 -0.18,2.81 0.1,5.69 0.15,8.48 0.02,1.75 2.66,1.66 2.69,-0.06 0.04,-2.77 0.37,-5.64 0.16,-8.44 0.72,-0.01 1.42,-0.02 2.14,-0.03 -0.09,1.06 0,2.17 0.01,3.2 0.02,1.57 -0.02,3.12 0.23,4.68 0.23,1.41 2.55,1.29 2.77,-0.06 0.26,-1.56 0.19,-3.13 0.22,-4.7 0.02,-1.04 0.1,-2.15 -0,-3.21 0.66,-0.02 1.32,-0.04 1.98,-0.06 -0.05,1.02 0.01,2.07 0,3.06 -0,1.43 -0.01,2.83 0.23,4.24 0.24,1.36 2.45,1.24 2.68,-0.07 0.25,-1.4 0.22,-2.83 0.22,-4.25 -0.01,-1 0.04,-2.04 -0.01,-3.06 0.62,-0.02 1.23,-0.02 1.85,-0.02 -0.03,0.62 -0.01,1.24 -0.01,1.85 -0.01,1.29 -0.12,2.65 0.2,3.91 0.35,1.37 2.35,1.23 2.68,-0.07 0.28,-1.1 0.17,-2.28 0.18,-3.41 0,-0.73 0.03,-1.5 -0.01,-2.26l1.06 0.03 0.29 0.41c0.01,1.64 -0.07,3.3 0.13,4.91 0.18,1.43 2.52,1.96 2.73,0.3 0.2,-1.72 0.15,-3.47 0.17,-5.2l0.18 -0.22c0.66,0.06 1.31,0.15 1.96,0.23l0.02 1.05c0.01,1.04 0.1,2.02 0.32,3.03 0.32,1.42 2.48,1.28 2.78,-0.07 0.23,-1.01 0.3,-2.01 0.3,-3.04 0.01,-0.58 0.04,-1.25 -0.02,-1.9l0.08 -0.23c5.33,-9.37 10.59,-18.97 15.14,-28.79 1.61,3.96 3.99,7.83 5.8,11.53 2.61,5.37 5.23,10.74 8.07,15.99 -0.24,1.61 -0.31,3.51 0.03,5.08 0.29,1.35 2.37,1.22 2.65,-0.07 0.31,-1.43 0.24,-3.13 0.05,-4.64l0.09 -1.1c-1.26,-2.89 -2.58,-5.75 -3.95,-8.59 3.97,0.22 7.97,0.17 11.94,0.18 3.6,0 7.61,0.48 11.25,-0.03 1.02,2.13 2.2,4.23 3.42,6.28 -2.29,-0.22 -4.69,-0.01 -6.94,-0.02 -3.73,-0.02 -7.34,0.05 -11.05,0.53 -1.46,0.18 -2.02,2.57 -0.31,2.79l0.18 0.02 -0 0.58c-0.01,0.68 -0.07,1.38 0.01,2.06 0.07,0.69 0.45,1.28 1.16,1.45 0.73,0.18 1.76,-0.29 1.86,-1.11 0.08,-0.73 0.06,-1.45 0.06,-2.18l-0 -0.48c2.1,0.17 4.19,0.25 6.33,0.24l-0.01 0.11c-0.04,1.01 0.05,2.06 0.4,3.01 0.52,1.42 2.31,1.27 2.79,-0.07 0.21,-0.56 0.39,-1.77 0.38,-2.98 1.83,0.07 3.68,0.11 5.45,-0.11l-0.02 1.31c-0,1.02 0.02,1.95 0.24,2.96 0.34,1.44 2.53,1.3 2.84,-0.07 0.21,-0.89 0.24,-1.77 0.23,-2.68 -0,-0.66 0.02,-1.37 -0.03,-2.07 0.58,-0.36 0.95,-1.13 0.55,-1.94 -1.51,-3.12 -3.07,-6.4 -5.19,-9.19 0.02,-0.67 -0.35,-1.36 -1.08,-1.53 -3.97,-0.89 -8.57,-0.26 -12.62,-0.26 -2.2,0 -4.4,-0.01 -6.61,0 0.85,-1.08 1.64,-2.2 2.44,-3.27 0.99,-1.31 2.32,-2.7 3.2,-4.2 1.59,0.07 3.18,0.1 4.78,0.12 1,0.01 2.01,0.05 3.01,0.01 -0.06,1.03 -0.11,2.07 -0.18,3.11 -0.11,1.88 2.8,1.79 2.91,-0.08 0.09,-1.51 0.19,-3.02 0.29,-4.53l0.01 -0.2c0.62,-9.77 1.35,-19.53 1.99,-29.31 6.02,0.47 12.46,0.51 18.45,-0.02 1.12,18.96 2.54,37.9 3.68,56.86 0.08,1.25 1.39,1.62 2.23,1.17 4.22,0.25 7.78,-2.41 11.98,-2.75 2.38,-0.19 5.18,1.41 7.49,1.95 2.36,0.55 4.7,-0.02 7.11,0.65 2.03,0.56 2.64,-2.39 0.78,-3.09 -1.66,-0.62 -2.46,-0.87 -4.23,-0.79 -2.12,0.1 -4.02,-0.27 -5.96,-0.74 0.1,-2.99 0.07,-6 0.02,-9z"/>
  <path class="fil0" d="M166.48 164.85c-0.3,1.14 -0.34,2.64 -0.04,3.8 0.36,1.38 2.38,1.24 2.71,-0.07 0.3,-1.15 0.23,-2.67 -0.08,-3.8 -0.34,-1.33 -2.27,-1.2 -2.6,0.06z"/>
  <path class="fil0" d="M93.23 234.7c1.16,-1.5 -0.7,-3.3 -2.14,-2.03 -3.58,3.16 -4.4,8.36 -4.03,12.89 0.17,2.04 3.34,1.97 3.18,-0.07 -0.34,-4.12 0.45,-7.5 2.99,-10.78z"/>
  <path class="fil0" d="M96.68 245.04c-0.29,-5.21 1.48,-9.11 4.78,-13.06 1.11,-1.33 -0.76,-3.15 -1.96,-1.86 -3.95,4.29 -6.09,9.1 -5.74,14.99 0.11,1.87 3.01,1.81 2.91,-0.07z"/>
  <path class="fil0" d="M83.71 231.86c-1.86,1.67 -2.98,4.33 -3.53,6.72 -0.42,1.88 2.51,2.61 2.91,0.73 0.42,-2.02 1.31,-3.94 2.61,-5.55 1.11,-1.38 -0.67,-3.09 -1.99,-1.9z"/>
  <path class="fil0" d="M173.12 206.81c1.5,-1.01 0.11,-3.24 -1.47,-2.38 -3.66,2 -6.16,6.3 -6.35,10.43 -0.07,1.58 2.39,1.8 2.73,0.31 0.79,-3.51 2.02,-6.29 5.09,-8.35z"/>
  <path class="fil0" d="M174.47 208.63c-3.39,4.52 -5.98,10.64 -3.89,16.26 0.65,1.74 3.11,0.96 2.74,-0.83 -1.09,-5.33 0.59,-9.34 3.34,-13.83 0.8,-1.31 -1.25,-2.85 -2.19,-1.6z"/>
  <path class="fil0" d="M112.02 202.38c1.49,1.01 3.06,-1.29 1.82,-2.48 -6.65,-6.34 -15.56,-7.22 -23.98,-4.17 -12.11,4.38 -22.11,9.41 -35.44,8 -1.63,-0.18 -1.89,2.53 -0.31,2.84 9.69,1.95 18.88,-0.42 27.89,-3.99 11.18,-4.43 19.07,-7.6 30.03,-0.19z"/>
  <path class="fil0" d="M119.05 196.87c2.95,1.48 6.26,1.09 9.38,1.87 0.54,1.75 1.49,3.12 2.97,4.35 2.84,2.37 5.09,4.37 7.4,7.34 0.98,1.26 3.23,0.5 2.68,-1.21 -1.49,-4.75 -5.34,-6.52 -8.69,-9.72 -1.95,-1.86 -0.72,-3.35 -3.56,-4.29 -2.89,-0.96 -6.13,-0.32 -9.07,-1.14 -1.65,-0.47 -2.64,2.02 -1.1,2.8z"/>
  <path class="fil0" d="M158.46 197.32c2.8,0.47 5.74,1.23 8.67,1.63l-0.12 0.19c-1.01,1.51 -1.9,3.15 -2,4.98 -0.07,1.37 1.68,1.78 2.53,0.98 1.1,-1.04 1.75,-2.46 2.53,-3.74 0.42,-0.69 1.09,-1.4 1.53,-2.18 0.73,-0.04 1.44,-0.13 2.16,-0.26 1.03,2.93 1.62,7.7 4.97,8.48l1.03 0.18c-1.07,2.44 -1.75,5.12 -1.4,7.73 0.25,1.87 3.15,1.88 2.99,-0.08 -0.22,-2.63 0.51,-5.03 1.44,-7.43 2.63,0 5.3,-0.38 7.92,-0.51 2.28,4.19 6.43,4.36 10.42,7.12 1.52,1.05 3.08,-1.3 1.85,-2.52 -2.9,-2.9 -8.04,-2.61 -9.73,-6.74 -0.28,-0.67 -0.82,-1.18 -1.59,-1.15 -3.22,0.12 -6.42,0.56 -9.65,0.64 -4.67,0.13 -4.27,-5.11 -6.22,-8.05l-0.91 -0.66 -0.05 -0.01 -0.27 -0.03c-1.2,0.12 -2.36,0.12 -3.53,0.06l-0.28 -0.01c-4.02,-0.23 -7.85,-1.24 -11.97,-1.37 -1.56,-0.05 -1.86,2.48 -0.3,2.74z"/>
  <path class="fil0" d="M120.21 211.86c-5.29,-1 -9.81,-3.87 -13.96,-7.67 -1.34,-1.22 -2.98,0.66 -1.89,1.98 5.08,6.17 12.46,9.76 20.49,9.49 1.49,-0.05 2.21,-1.91 1.14,-2.94 -2.4,-2.31 -4.78,-4.87 -7.37,-6.96 -1.56,-1.25 -3.38,0.72 -2.11,2.22 1.14,1.35 2.4,2.63 3.69,3.88z"/>
  <path class="fil0" d="M132.73 223.24c-1.34,-0.93 -2.78,1.18 -1.65,2.25 2.33,2.21 4.36,4.36 5.87,7.2 0.71,1.34 2.69,0.58 2.69,-0.8 0,-1.73 -1.33,-3.23 -2.36,-4.49 -1.32,-1.6 -2.85,-2.98 -4.55,-4.16z"/>
  <path class="fil0" d="M142.97 230.72c0.55,0.92 0.84,1.96 1.4,2.86 0.81,1.31 2.73,0.64 2.77,-0.82 0.03,-1.24 -0.64,-2.42 -1.22,-3.47 -0.59,-1.06 -1.4,-2.05 -2.35,-2.79 -1.2,-0.92 -3.22,0.36 -2.2,1.78 0.57,0.79 1.1,1.59 1.61,2.43z"/>
  <path class="fil0" d="M196.75 214.47c-1.37,-0.8 -2.94,1.25 -1.66,2.26 0.58,0.45 1.09,0.95 1.6,1.47 0.52,0.53 0.89,1.11 1.38,1.69 0.45,0.52 1.33,0.53 1.87,0.2 0.75,-0.47 0.88,-1.38 0.5,-2.12 -0.79,-1.52 -2.25,-2.66 -3.7,-3.5z"/>
  <path class="fil0" d="M226.9 215.67c0.02,-3.33 1.84,-5.78 3.99,-8.16 1.27,-1.41 -0.76,-3.32 -2.12,-2.02 -2.77,2.64 -5.5,6.63 -4.71,10.64 0.33,1.67 2.84,1.12 2.85,-0.45z"/>
  <path class="fil0" d="M231.12 213.48c0.26,1.36 2.42,1.24 2.68,-0.07 0.17,-0.88 0.09,-1.78 0.4,-2.63 0.55,-1.48 -1.79,-2.31 -2.52,-1 -0.62,1.14 -0.82,2.44 -0.57,3.69z"/>
  <path class="fil0" d="M238.72 217.12c-0.16,0.61 0.13,1.27 0.68,1.57 0.73,0.4 1.48,0.07 1.92,-0.55 1.03,-1.44 0.58,-3.23 -0.65,-4.39 -0.59,-0.56 -1.54,-0.53 -2.1,0.05 -0.61,0.64 -0.45,1.48 0.05,2.1 0.39,0.46 0.25,0.65 0.1,1.21z"/>
  <path class="fil0" d="M95.88 203.52c-4.11,-1.26 -8.74,-1.25 -12.16,1.6 -1.23,1.03 0.41,2.85 1.71,2.11 4.23,-2.43 10.33,-1.93 13.31,2.17 1.98,2.73 3.06,5.83 6.46,6.98 1.61,0.55 2.13,-1.7 1,-2.53 -4.14,-3.03 -5,-8.69 -10.32,-10.33z"/>
  <path class="fil0" d="M98.47 215.34c-0.78,-1.31 -1.28,-2.77 -2.08,-4.07 -0.82,-1.31 -2.9,-0.38 -2.46,1.11 1.09,3.61 2.88,7.5 6.66,8.87 1.3,0.47 2.44,-1.57 1.32,-2.4 -1.39,-1.02 -2.55,-2.01 -3.44,-3.51z"/>
  <path class="fil0" d="M117.04 218.56c-1.45,-0.36 -2.42,1.9 -0.98,2.49 2.15,0.89 3.55,2.73 5.45,3.99 1.43,0.96 2.62,-1.13 1.65,-2.25 -1.61,-1.88 -3.68,-3.64 -6.12,-4.24z"/>
  <path class="fil0" d="M70.39 212.79c-2.78,1.6 -5.83,5.48 -5.55,8.88 0.14,1.65 2.35,1.88 2.85,0.31 0.92,-2.87 2.17,-5.02 4.41,-7.08 1.18,-1.09 -0.4,-2.87 -1.72,-2.11z"/>
  <path class="fil0" d="M75.01 215c-3.79,1.82 -6.88,7.79 -6.4,11.92 0.17,1.49 2.48,1.98 2.78,0.31 0.76,-4.15 2.25,-7.22 5.3,-10.15 1.19,-1.14 -0.39,-2.69 -1.68,-2.07z"/>
  <path class="fil0" d="M77.82 220.26c-1.76,2.26 -3.77,4.94 -3.45,7.97 0.18,1.71 2.65,1.69 2.69,-0.06 0.07,-2.38 1.29,-4.22 2.7,-6.06 1.03,-1.35 -0.87,-3.22 -1.94,-1.85z"/>
  <path class="fil0" d="M233.03 182.51c4.89,-1.11 10.27,0.25 15.25,-0.5 1.41,-0.2 1.99,-2.48 0.3,-2.73 -5.12,-0.76 -10.62,0.57 -15.64,-0.56 -3.1,-0.7 -3.16,4.53 0.09,3.79z"/>
  <path class="fil0" d="M217.14 181.99c2.05,0.07 4.09,0.08 6.14,0.01 1.77,-0.05 1.68,-2.67 -0.07,-2.73 -2.05,-0.06 -4.09,-0.05 -6.14,0.01 -1.76,0.06 -1.66,2.66 0.07,2.71z"/>
  <path class="fil0" d="M231.47 189.97c1.99,0.61 4.45,0.28 6.5,0.09 1.83,-0.17 1.71,-2.62 -0.07,-2.8 -2.06,-0.19 -4.49,-0.52 -6.49,0.1 -1.33,0.41 -1.19,2.22 0.06,2.61z"/>
  <path class="fil0" d="M203.8 181.99c2.05,0.07 4.07,0.13 6.11,0.04 1.82,-0.08 1.72,-2.73 -0.07,-2.8 -2.06,-0.09 -4.06,-0.02 -6.11,0.04 -1.76,0.06 -1.67,2.66 0.06,2.71z"/>
  <path class="fil0" d="M211.37 188.31c2.57,0.62 5.69,0.23 8.32,0.07 1.82,-0.11 1.71,-2.69 -0.06,-2.8 -2.65,-0.16 -5.73,-0.54 -8.31,0.09 -1.34,0.32 -1.21,2.32 0.06,2.63z"/>
  <path class="fil0" d="M244.18 201.92c4.59,0.95 9.75,0.43 14.4,0.08 1.85,-0.14 1.73,-2.7 -0.07,-2.84 -4.65,-0.35 -9.79,-0.85 -14.4,0.1 -1.35,0.28 -1.22,2.39 0.07,2.65z"/>
  <path class="fil0" d="M258.7 219.12c1.35,-0.01 2.69,-0.08 4.04,-0.21 1.91,-0.17 1.78,-2.75 -0.07,-2.91 -1.19,-0.11 -2.36,-0.2 -3.55,-0.2 -1.28,-0.01 -2.58,-0.18 -3.71,0.5 -0.91,0.54 -0.81,1.85 0.06,2.36 0.99,0.59 2.11,0.48 3.23,0.47z"/>
  <path class="fil0" d="M215.35 231.5c4.85,0.9 10.35,0.34 15.27,0.1 1.85,-0.09 1.75,-2.77 -0.07,-2.85 -4.93,-0.23 -10.4,-0.78 -15.26,0.12 -1.34,0.25 -1.21,2.39 0.06,2.63z"/>
  <path class="fil0" d="M235.05 236.74c-11.26,-0.97 -23.85,-1.29 -35.07,0.16 -1.42,0.18 -1.96,2.5 -0.3,2.73 11.36,1.47 24.04,1.18 35.44,0.2 2.02,-0.17 1.89,-2.91 -0.07,-3.08z"/>
  <path class="fil0" d="M224.75 246.51c-5.01,-0.42 -10.1,-0.27 -15.12,0.03 -1.8,0.11 -1.7,2.67 0.07,2.77 5.02,0.3 10.11,0.45 15.12,0.02 1.84,-0.16 1.72,-2.67 -0.07,-2.83z"/>
  <path class="fil0" d="M193.84 242.31c-11.34,-0.4 -23.11,-1.02 -34.42,0.09 -1.79,0.18 -1.66,2.58 0.07,2.74 11.31,1.11 23.07,0.49 34.42,0.09 1.9,-0.07 1.8,-2.85 -0.07,-2.92z"/>
  <path class="fil0" d="M192.96 249.58c-5.44,-0.54 -11.23,-0.56 -16.66,0.03 -1.82,0.2 -1.69,2.58 0.07,2.78 5.43,0.59 11.22,0.58 16.66,0.03 1.86,-0.18 1.73,-2.67 -0.07,-2.84z"/>
  <path class="fil0" d="M214.89 256.37c-3.78,-0.17 -7.64,-0.46 -11.4,0.05 -1.4,0.19 -1.96,2.48 -0.31,2.7 3.9,0.52 7.86,0.26 11.77,0.09 1.85,-0.08 1.75,-2.76 -0.06,-2.84z"/>
  <path class="fil0" d="M208.74 264.06c-3.75,-0.33 -8.06,-0.71 -11.76,0.09 -1.35,0.29 -1.22,2.38 0.06,2.65 3.69,0.79 8.02,0.4 11.77,0.08 1.84,-0.17 1.71,-2.67 -0.07,-2.82z"/>
  <path class="fil0" d="M164.9 253.52c-4.2,-0.36 -8.91,-0.62 -13.07,0.11 -1.34,0.24 -1.22,2.41 0.06,2.64 4.15,0.74 8.89,0.45 13.08,0.1 1.87,-0.16 1.74,-2.7 -0.07,-2.85z"/>
  <path class="fil0" d="M143.2 253.55c-1.57,-0.1 -3.21,-0.27 -4.75,0.09 -1.34,0.31 -1.21,2.33 0.07,2.63 1.53,0.37 3.2,0.18 4.75,0.07 1.82,-0.12 1.71,-2.68 -0.06,-2.8z"/>
  <path class="fil0" d="M124.78 253.31c-2.9,-0.2 -5.88,-0.41 -8.76,0.03 -1.41,0.21 -1.99,2.48 -0.31,2.74 3.02,0.46 6.1,0.28 9.14,0.07 1.85,-0.13 1.73,-2.71 -0.07,-2.83z"/>
  <path class="fil0" d="M88.62 261.45c-3.2,-0.15 -6.44,-0.11 -9.65,0.03 -1.76,0.07 -1.66,2.64 0.07,2.71 3.2,0.14 6.43,0.18 9.65,0.03 1.79,-0.09 1.7,-2.68 -0.07,-2.76z"/>
  <path class="fil0" d="M93.88 268.26c-0.82,-0.05 -1.6,-0.07 -2.41,0 -1.79,0.16 -1.66,2.58 0.07,2.74 0.82,0.08 1.59,0.05 2.41,0.01 1.79,-0.11 1.68,-2.64 -0.06,-2.75z"/>
  <path class="fil0" d="M199.94 232.3c1.79,-0.05 1.7,-2.73 -0.08,-2.77 -1.55,-0.04 -3.05,-0.11 -4.6,0.02 -1.78,0.16 -1.66,2.57 0.07,2.73 1.55,0.13 3.06,0.07 4.61,0.03z"/>
  <path class="fil0" d="M112.47 152.78c4.31,0.1 8.21,-5.06 4.89,-8.62 -0.93,-1 -1.47,-0.36 -0.26,-1.59 1,-1.03 2.31,-1.78 3.52,-2.52 3.18,-1.95 6.62,-3.09 10.13,-4.25 1.58,-0.52 1.29,-3.23 -0.48,-3.01 -5.54,0.69 -11.49,3.71 -15.56,7.5 -1.01,0.94 -2.16,2.55 -1.74,4.02 0.19,0.65 0.5,1.13 1.02,1.56 2.42,1.96 0.19,3.59 -1.97,4.09 -1.65,0.38 -1.1,2.78 0.45,2.82z"/>
  <path class="fil0" d="M157.42 62.78c-1.49,0.75 -0.36,3.12 1.18,2.62 1.95,-0.64 5.65,-2.24 5.59,-4.82 -0.07,-2.79 -3.02,-3.06 -5.07,-3.96 -1.27,-0.56 5.76,-3.98 6.18,-4.13 2.85,-1.02 5.95,-1.41 8.93,-1.74 4.79,-0.53 9.61,-0.35 14.41,-0.3 1.78,0.02 1.62,-2.55 -0.07,-2.7 -9.34,-0.81 -19.93,-0.62 -28.43,3.77 -1.86,0.95 -5.24,3.2 -4.48,5.71 0.92,3.04 7.62,2.57 1.75,5.54z"/>
  <path class="fil0" d="M111.96 66.66c-9.05,6.72 -20.67,8.63 -29.94,14.98 -5.05,3.45 -7.93,8.76 -2.48,12.61 -0.97,0.74 -2.08,1.36 -3.11,1.97 -3.79,2.28 -7.77,4.25 -11.73,6.2 -7.98,3.94 -16.15,7.53 -24.24,11.26 -1.49,0.68 -0.34,2.96 1.14,2.54 8.25,-2.37 16.04,-6.14 23.7,-9.95 5.86,-2.91 13.64,-5.89 18.19,-10.79 0.89,-0.95 1.04,-2.24 0.22,-3.26 -0.39,-0.48 -0.97,-0.68 -1.56,-0.79 -5.06,-0.95 0.67,-5.61 1.89,-6.52 9.22,-6.85 21.07,-8.11 29.84,-15.89 1.29,-1.15 -0.52,-3.38 -1.91,-2.35z"/>
  <path class="fil0" d="M137.02 39.16c-8.46,4.27 -25.58,15.52 -14.74,25.91 1.17,1.13 3.25,-0.46 2.25,-1.82 -7.68,-10.42 7.87,-16.36 14.23,-21.95 1.27,-1.11 -0.42,-2.81 -1.74,-2.14z"/>
 </g>
</svg>
