<?xml version="1.0" encoding="UTF-8"?>
<svg xmlns="http://www.w3.org/2000/svg" xml:space="preserve" width="0.747323in" height="0.747331in" version="1.1" style="shape-rendering:geometricPrecision; text-rendering:geometricPrecision; image-rendering:optimizeQuality; fill-rule:evenodd; clip-rule:evenodd"
viewBox="0 0 992.77 992.78"
 xmlns:xlink="http://www.w3.org/1999/xlink"
 xmlns:xodm="http://www.corel.com/coreldraw/odm/2003">
 <defs>
  <style type="text/css">
   <![CDATA[
    .fil0 {fill:black;fill-rule:nonzero}
   ]]>
  </style>
 </defs>
 <g id="Layer_x0020_1">
  <metadata id="CorelCorpID_0Corel-Layer"/>
  <path class="fil0" d="M294.11 553.07c27.05,-0.5 54.08,-1.61 80.7,-2.43l0.06 1.37 0.07 3.95 0.2 4.56c-14.98,0 -29.98,0 -44.98,0.07 -11.22,0.04 -22.44,-0.04 -33.67,-0.07 -0.52,-2.51 -1.34,-5.02 -2.38,-7.44zm647.11 -145.43c3.43,-5.35 6.1,-11.36 11.29,-15.31 4.31,-3.28 9.3,-4.06 14.45,-4.39 2.09,9.06 3.89,18.21 5.48,27.43 -11.4,-1.1 -22.77,-0.98 -34.28,-0.94 -12.88,0.04 -26.88,-0.94 -39.72,1.35l-5.17 -0.09c-9.01,6.41 -16.53,15.43 -24.32,23.28 -8.65,8.69 -17.51,17.33 -25.35,26.85l-1.01 1.92c-5.33,1.12 -4.76,9.19 1.11,9.5 1.85,0.09 3.74,0.18 5.59,0.28 -2.44,15.06 -1.61,32.56 -0.52,47.68 -8.71,-0.04 -17.38,0 -26.09,0 -6.04,0.04 -18.82,2.73 -24.28,-0.15 -8.01,-4.19 -10.92,4.8 -8.47,9.8l0.02 1.55c-20.7,-1.44 -42.32,-2.79 -62.66,0.7 -4.65,0.79 -4.23,8.42 0.22,9.17 22.16,3.8 46,1.81 68.3,0.28 4.04,-0.29 5.33,-3.96 4.15,-6.73l0.33 -3.67c4.91,-1.22 13.54,0.5 17.77,0.52 10.52,0.07 21.05,0.11 31.57,0.07 18.1,-0.04 36.22,-0.43 54.3,-0.9 6.31,-0.17 6,-9.56 -0.2,-9.72 -14.67,-0.41 -29.31,-0.72 -43.96,-0.87 1.05,-14.93 1.86,-32.18 -0.47,-47.2 39.32,1.92 80.71,3.13 119.58,-0.06 0.24,6.98 0.41,14.02 0.35,21.07 -1.46,264.8 -218.03,480.23 -482.81,480.23l-2.71 0c-128.97,-0.7 -249.97,-51.63 -340.65,-143.32 -90.28,-91.27 -139.78,-212.14 -139.54,-340.49 5.09,0.52 10.18,0.85 15.29,1.06l0.07 0.31c3.12,7.45 0.76,19.15 0.74,27.08 -0.04,7.2 -1.07,15.06 0.89,21.99 1.45,4.98 8.41,4.47 9.77,-0.22 1.96,-6.92 0.87,-14.89 0.83,-22.05 -0.02,-7.01 -2.56,-18.99 0.13,-25.48l0.48 -1.46c3.27,0 6.5,-0.02 9.74,-0.06 -1.26,13.06 -1.18,26.77 0.09,39.67 0.63,6.33 9.02,5.87 9.65,-0.22 1.26,-12.82 1.42,-26.59 0.09,-39.54 2.47,0 4.95,0 7.4,0l0.07 0c-1.1,10.07 -1.38,20.87 -0.05,30.77 0.68,5.04 8.95,7.03 9.74,1.07 1.35,-10.24 1.26,-21.41 0.11,-31.76 2.92,0.02 5.83,0.07 8.75,0.13 -0.9,11.85 -0.66,24.06 -0.19,35.79 0.28,6.88 10.31,6.53 10.61,-0.26 0.42,-11.53 0.77,-23.67 -0.18,-35.31 2.54,0.04 5.05,0.06 7.54,0.07 -2.27,13.17 -0.55,28.58 0.52,41.5 0.52,6.33 9.19,5.9 9.67,-0.26 1.07,-12.86 2.71,-28.1 0.48,-41.24 2.27,-0.04 4.5,-0.11 6.74,-0.2 -1.31,11.23 -0.22,23.1 0.44,34.2 0.4,6.22 9.19,5.83 9.54,-0.24 0.7,-11.2 1.72,-23.14 0.37,-34.43 1.88,-0.13 3.73,-0.31 5.61,-0.46 -0.07,11.99 0.55,24.02 1.07,35.87 0.24,6.15 9.21,5.79 9.43,-0.24 0.72,-17.03 1.85,-34.65 0.46,-51.71 36.53,3.15 74.38,1.01 111.02,-0.13 -0.69,19.25 -0.89,38.82 -0.19,58.09 -22.6,0.11 -45.15,0.92 -67.31,3.01 -6.26,0.57 -5.81,8.99 0.24,9.56 29.45,2.73 59.5,3.27 89.61,2.92 1.07,2.23 1.79,4.69 2.4,7.15 -53.66,-0.46 -107.57,-1.33 -160.98,1.39 -6.72,0.35 -6.31,9.98 0.26,10.31 65.39,3.32 131.55,1.01 197.05,1.23 32.81,0.11 65.67,0.09 98.51,0.09 9.39,0 18.93,0.22 28.52,0.5l0.31 0.04c23.77,0.61 47.88,1.26 70.98,-1.92 4.19,-0.53 6.28,-6.12 3.77,-8.72l0.06 -0.26c0.31,-8.56 0.22,-17.16 0.2,-25.72l4.15 0.09c4.04,0.04 7.95,-0.22 11.94,-1.01 4.85,-0.96 4.39,-8.67 -0.28,-9.63 -3.51,-0.66 -7.09,-1 -10.69,-0.96 -1.72,0.02 -3.63,-0.07 -5.52,0.07 -0.48,-7.51 -0.98,-15.83 1.39,-21.77 0.9,-2.27 0.96,-4.04 0.55,-5.47 6.8,-1.31 12.62,2.23 17.77,6.68 4.59,3.9 10.55,-1.25 7.91,-6.44 -1.21,-2.43 -2.82,-4.5 -4.7,-6.2l2.47 -3.97c2.18,-2.58 5.29,-3.63 8.34,-4.87 5.35,-2.23 4.08,-9.23 -1.57,-9.76 -8.23,-0.79 -16.29,5.5 -19.45,13.21 -4.19,-1.05 -8.67,-1.18 -13.06,-0.39 0.37,-8.14 0.06,-16.39 -0.16,-24.49 -0.17,-6.16 -9.34,-5.86 -9.5,0.24 -0.26,9.15 -0.63,18.43 0,27.57 -6.66,3.53 -11.96,9.26 -13.49,16.85 -0.96,4.69 5.53,9.45 8.89,4.88 1.63,-2.15 3.06,-4.17 4.63,-5.99 2.2,8.8 0.57,19.94 0.57,28.52 0,8.93 -0.09,17.8 0.17,26.72 -7.82,-0.81 -15.68,-1.22 -23.62,-1.34 0.44,-5.36 0.77,-10.41 -0.2,-15.71 -0.83,-4.59 -8.25,-4.18 -9.06,0.22 -0.94,5.18 -0.59,10.22 -0.16,15.42 -2.82,0 -5.66,0.04 -8.52,0.07 0.31,-6.5 0.17,-13.15 0.68,-19.65 2.75,-4.41 0.07,-10.61 -5.61,-10.46 -5.74,0.13 -7.68,6.01 -5.33,10.31 0.58,6.58 0.41,13.34 0.72,19.98 -3.04,0.04 -6.07,0.12 -9.12,0.19 0.44,-13.95 0.13,-27.99 -0.53,-41.88 -0.31,-6.13 -9.15,-5.79 -9.45,0.22 -0.69,13.88 -0.98,27.88 -0.55,41.81 -1.96,0 -3.93,0.04 -5.87,0.04 -17.58,0 -35.18,0 -52.77,0 -0.02,-3.84 -0.15,-7.79 0.64,-11.29 2.27,-3.69 1.12,-8.91 -3.82,-10.17 -2.12,-0.52 -4.19,0.2 -5.77,1.51 -11.48,-0.33 -23.03,-0.74 -34.63,-1.14 1.04,-19.91 2.42,-41.17 -0.66,-60.52 -0.74,-4.58 -8.32,-4.17 -9.02,0.2 -2.01,12.38 -2.1,25.59 -1.64,38.71 -13.67,-0.74 -27.86,-1.17 -41.24,0.61 -4.78,0.61 -6.62,8.42 -1.01,9.15 13.9,1.83 28.52,1.46 42.68,0.75 0.18,3.62 0.37,7.2 0.59,10.74 -20.28,-0.66 -40.63,-1.18 -60.9,-1.24 0.74,-20.52 0.48,-41.34 -0.33,-61.81 0.69,-2.77 -0.9,-6.23 -4.7,-6.33 -40.02,-1.16 -81.66,-3.95 -121.54,0.18 -3.96,0.43 -5.2,3.9 -4.02,6.53 -0.28,2.82 -0.5,5.63 -0.64,8.51 -17.88,-1.52 -35.85,-0.74 -53.8,-0.69 -23.56,0.06 -47.88,-1.55 -71.33,1.05 0.26,-11.36 0.9,-22.62 1.96,-33.78l1.61 -1.5c14.89,-21.7 52.44,-17.91 60.68,8.03 1.7,5.37 9.82,4.1 9.71,-1.55 -0.06,-3.23 -0.65,-6.23 -1.66,-9.04 7.45,-4.82 15.61,-7.58 21.87,1.57 2.99,4.39 10.72,1.42 8.76,-3.95l-1.58 -3.42c4.82,-6.63 9.61,-10.39 18.56,-10.66 8.04,-0.26 16.26,3.88 20.63,10.59 -1.77,1.75 -3.38,3.74 -4.65,6.01 -2.53,4.5 4.24,9.83 7.47,5.46 6.05,-8.15 17.64,-13.54 24.07,-2.95 2.75,4.52 10.83,1.18 8.66,-3.9l-1.2 -2.32c6.69,-8.25 14.11,-12.79 25.37,-12.34 12.47,0.5 20.19,10.13 21.53,21.81 0.74,6.26 9.54,6.14 9.83,-0.24 0.12,-2.9 -0.18,-5.63 -0.75,-8.14 10.09,-4.17 18.61,1.64 24.39,10.81 2.91,4.61 10.33,1.33 8.74,-3.96 -0.61,-1.99 -1.48,-3.84 -2.51,-5.61 8.95,-8.58 24.3,-14.7 34.39,-6.01 -3.2,2.88 -5.76,6.48 -7.29,10.77 -1.53,4.36 5.09,8.01 7.99,4.36 5.52,-6.99 13.5,-12.44 21.53,-11.47 0.16,6.16 0.33,12.38 0.55,18.5 0.22,6.39 9.57,6.04 9.83,-0.24 0.13,-4.26 0.24,-8.56 0.35,-12.88 3.91,2.53 9.96,-2.31 6.68,-6.4 -1.92,-2.38 -4.02,-4.37 -6.33,-6.01 0.52,-24.63 0.44,-49.38 -0.94,-73.84 -0.31,-6.11 -9.06,-5.72 -9.39,0.26 -1.29,22.9 -1.4,46.14 -0.98,69.25 -2.25,-0.22 -4.59,-0.09 -7.04,0.39 -2.33,0.46 -4.58,1.16 -6.7,2.07 -11.66,-14.63 -37.38,-9.76 -49.04,3.82 -7.88,-6.36 -19.07,-8.28 -28.45,-3.37 -12.8,-18.68 -46.82,-20.47 -58.84,1.1 -5.64,-3.3 -12.64,-3.15 -18.93,-0.48 -5.35,-9.83 -15.81,-14.94 -27.23,-16.09 -10.52,-0.99 -23.28,4.36 -28.34,14.02 -8.26,-4.26 -19.3,-2.71 -26.68,4.01 -14.23,-16.12 -45.63,-19.71 -62.4,-6.51 31.94,-235.45 234.77,-417.91 478.44,-417.91l2.73 0c223.99,1.24 411.98,155.63 465.14,363.13 -15.79,-0.63 -31.09,12.4 -31.92,28.8 -0.22,5.09 6.57,5.87 8.93,2.2zm37.1 59.12c-39.65,-3.21 -81.87,-1.9 -121.9,0.09 7.18,-6.42 13.95,-13.31 20.76,-20.07 6.68,-6.63 14.06,-13.16 20.11,-20.52 11.59,2.27 24.09,1.26 35.85,1.51 13.69,0.3 27.49,0.53 41.09,-1.07 1.9,13.2 3.26,26.55 4.1,40.06zm-479.19 -466.74l-2.79 -0.02c-272.18,0 -494.84,221.44 -496.34,493.64 -0.75,132.6 50.2,257.53 143.43,351.83 93.23,94.25 217.59,146.59 350.19,147.31l2.79 0c132.03,0 256.29,-51.27 349.93,-144.38 93.67,-93.12 145.68,-217.18 146.4,-349.28 1.53,-273.68 -219.91,-497.59 -493.62,-499.1z"/>
  <path class="fil0" d="M71.31 589.38c0.44,2.12 2.3,3.6 4.42,3.6l0.87 -0.07 0.79 -0.17 2.9 -1.9 0.66 -3.4 -2.2 -11.09 6.27 -1.27 2.22 11.12c0.48,2.44 2.86,4.02 5.29,3.54l0.79 -0.16 2.86 -1.9 0.69 -3.39 -3.23 -16.29 -1.9 -2.88 -3.39 -0.7 -36.25 7.21 -2.88 1.9 -0.66 3.39 0.15 0.77c0.5,2.43 2.86,4.04 5.29,3.53l15.09 -2.99 2.22 11.15z"/>
  <path class="fil0" d="M80.66 625.8l-1.16 -3.8 6.29 0.17 -5.13 3.63zm24.37 -9.1l-0.24 -0.83c-0.57,-1.85 -2.25,-3.14 -4.18,-3.15l-38.38 -0.96 -3.31 1.31 -1.33 3.26 0.02 0.77c0.02,2.45 1.96,4.41 4.37,4.47l7.14 0.18 3.08 10.07 -5.79 4.14c-1.99,1.42 -2.47,4.13 -1.17,6.16l0.47 0.66 2.93 1.94 0.81 0.09 2.6 -0.83 31.29 -22.27c1.59,-1.16 2.27,-3.15 1.68,-5.02z"/>
  <path class="fil0" d="M114.18 668l2.45 2.42 3.45 -0.02 0.77 -0.31c2.29,-0.98 3.36,-3.6 2.4,-5.88l-7.9 -18.73c-0.96,-2.29 -3.6,-3.37 -5.87,-2.42l-0.77 0.33 -2.44 2.42 0.02 3.47 2.04 4.85 -29.19 12.25c-2.29,0.94 -3.36,3.6 -2.4,5.9l0.33 0.74 2.44 2.44 1.69 0.33 1.76 -0.35 29.17 -12.27 2.03 4.84z"/>
  <path class="fil0" d="M133.37 705.45c1.16,2.16 3.89,2.99 6.07,1.83l0.72 -0.4 2.18 -2.68 -0.37 -3.45 -9.71 -17.84 -2.69 -2.16 -3.43 0.39 -0.72 0.39c-2.15,1.18 -2.97,3.91 -1.79,6.09l2.53 4.59 -27.81 15.15 -2.18 2.67 0.39 3.45 0.39 0.72 3.95 2.33 2.18 -0.55 27.79 -15.11 2.51 4.59z"/>
  <path class="fil0" d="M158.06 726.84l-2.9 -1.88 -3.36 0.7 -30.2 20.63c-2.04,1.39 -2.58,4.19 -1.2,6.24l0.48 0.7 2.88 1.86 0.85 0.07 2.55 -0.79 30.17 -20.63c2.09,-1.4 2.6,-4.19 1.2,-6.26l-0.46 -0.64z"/>
  <path class="fil0" d="M221.62 801.98l-1.37 -3.17 -0.68 -0.63 -4.26 -1.11 -14.76 3.95 3.5 -14.87 -1.26 -4.28 -0.61 -0.59c-1.79,-1.73 -4.63,-1.68 -6.39,0.09l-25.48 26.22 -1.27 3.21 1.34 3.17 0.61 0.57c1.77,1.72 4.63,1.68 6.36,-0.11l13.1 -13.49 -1.49 6.44 1.26 4.26 4.28 1.12 6.42 -1.69 -13.12 13.5c-1.75,1.79 -1.72,4.65 0.08,6.39l0.59 0.57 3.14 1.26 0.06 0 3.19 -1.37 25.48 -26.22 1.27 -3.23z"/>
  <path class="fil0" d="M227.51 838.83l-3.1 -2.45 5.26 -3.43 -2.15 5.88zm14.94 -21.31l-0.66 -0.53 -5.28 -0.24 -32.14 20.96 -1.98 2.93 0.76 3.43 0.42 0.66c1.4,1.99 4.12,2.51 6.16,1.18l6 -3.88 8.25 6.55 -2.45 6.69c-0.83,2.27 0.29,4.8 2.51,5.72l0.74 0.29 1.72 0.33 1.83 -0.37 2.42 -2.56 13.17 -36.09c0.64,-1.87 0.07,-3.86 -1.46,-5.09z"/>
  <path class="fil0" d="M274.48 840.01c-3.58,-2.31 -7.43,-2.88 -11.1,-1.79 -3.08,0.96 -5.5,2.8 -7.25,5.5 -2.15,3.39 -2.71,7.22 -1.49,11.04l0.2 0.53 1.2 2.45 1.26 2.29 3.5 5.83 1.29 2.45 0.52 1.38 -0.43 2.16 -1.88 1.33 -2.51 -0.44c-0.17,-0.11 -1.83,-1.29 -6.55,-8.48 -1.16,-1.75 -3.37,-2.45 -5.35,-1.72l-0.75 0.24 -2.51 2.38 -0.09 3.48c0.93,2.36 2.31,4.69 4.08,6.92 1.81,2.25 3.8,4.06 5.92,5.42 2.2,1.44 4.56,2.14 6.98,2.14l3.67 -0.58c3.15,-0.96 5.61,-2.77 7.27,-5.37 1.96,-3.03 3.5,-7.97 -0.15,-14.56l-5.58 -9.28c-1.33,-2.23 -0.94,-3.39 -0.35,-4.36l1.85 -1.37 2.93 0.63c0.52,0.33 2.12,1.61 5.68,6.09 1.26,1.61 3.45,2.16 5.33,1.33l0.72 -0.28 2.45 -2.62 -0.22 -3.58c-1.84,-3.61 -4.74,-6.7 -8.63,-9.19z"/>
  <path class="fil0" d="M320.68 871.02c1.11,-2.18 0.24,-4.88 -1.98,-6.05l-5.4 -2.75c-4.04,-1.99 -8.04,-2.47 -11.66,-1.28 -3.65,1.2 -6.55,3.86 -8.61,7.9l-7.36 14.48c-2.04,4.06 -2.51,7.97 -1.31,11.61 1.2,3.66 3.84,6.57 7.91,8.62l5.41 2.77 2.04 0.48 1.41 -0.22 2.62 -2.23 0.35 -0.72c1.13,-2.18 0.26,-4.91 -1.97,-6.05l-5.41 -2.73c-2.54,-1.29 -2.91,-2.51 -3.06,-2.93 -0.13,-0.39 -0.52,-1.63 0.75,-4.13l7.36 -14.49c1.26,-2.47 2.49,-2.9 2.91,-3.01l4.14 0.72 5.42 2.75 3.45 0.27 2.62 -2.23 0.37 -0.78z"/>
  <path class="fil0" d="M358.64 882.23l-0.78 -0.3c-2.31,-0.88 -4.91,0.28 -5.81,2.6l-4.1 10.55 -9.8 -3.79 4.11 -10.57c0.89,-2.29 -0.26,-4.94 -2.58,-5.83l-0.74 -0.29 -3.45 0.09 -2.38 2.49 -13.21 34.09c-0.9,2.31 0.24,4.93 2.55,5.83l0.74 0.29 3.45 -0.09 2.4 -2.49 5.57 -14.37 9.78 3.8 -5.55 14.39 0.07 3.45 2.53 2.38 0.77 0.3 1.58 0.28c1.81,0 3.51,-1.07 4.19,-2.88l13.23 -34.11 -0.09 -3.45 -2.49 -2.38z"/>
  <path class="fil0" d="M388.25 891.43l-0.77 -0.22 -3.44 0.42 -2.12 2.71 -9.71 35.26c-0.64,2.42 0.76,4.87 3.15,5.55l0.79 0.22 1.18 0.15 2.23 -0.59 2.14 -2.71 9.67 -35.26c0.66,-2.4 -0.74,-4.88 -3.13,-5.53z"/>
  <path class="fil0" d="M428.47 900.29l-0.79 -0.15c-2.46,-0.37 -4.76,1.28 -5.19,3.71l-6.09 36.06c-0.41,2.43 1.23,4.76 3.67,5.16l0.81 0.17 0.79 0.07 2.56 -0.87 1.87 -2.91 6.09 -36.05 -0.79 -3.36 -2.93 -1.83z"/>
  <path class="fil0" d="M468.8 941.82l-0.77 -0.24c-2.34,-0.63 -4.76,0.66 -5.5,2.99l-2.58 7.95c-0.76,2.32 0.53,4.85 2.89,5.63l0.79 0.27 1.39 0.22 2.04 -0.52 2.25 -2.6 2.56 -7.99 -0.31 -3.49 -2.77 -2.23z"/>
  <path class="fil0" d="M514.34 924.51c-0.96,0.69 -2.35,1.07 -4.08,1.11l-4.72 0.17 -0.35 -10.48 5.17 -0.15 3.67 0.88c0.81,0.52 1.75,1.46 1.83,4.15 0.11,3.12 -1.05,3.95 -1.51,4.31zm5.02 -16.73c-2.55,-1.63 -5.57,-2.47 -9.06,-2.47l-10.74 0.33c-2.47,0.07 -4.41,2.18 -4.34,4.65l1.18 36.96 1.44 3.13 3.08 1.22 0.13 0 0.79 -0.02c2.49,-0.07 4.45,-2.14 4.39,-4.63l-0.39 -11.34 4.72 -0.15c3.69,-0.11 6.9,-1.12 9.54,-2.97 2.64,-1.94 5.79,-5.66 5.55,-12.6 -0.2,-6.81 -3.56,-10.35 -6.31,-12.1z"/>
  <path class="fil0" d="M552.6 928.39l1.2 -6.18 2.75 5.67 -3.95 0.51zm3.63 -23.56c-0.83,-1.77 -2.66,-2.75 -4.63,-2.51l-0.87 0.11c-1.96,0.26 -3.49,1.68 -3.85,3.61l-7.22 37.71 0.74 3.43 2.99 1.86 0.81 0.12 0.69 0.05c2.12,0 4.02,-1.5 4.42,-3.65l1.37 -6.99 10.41 -1.41 3.15 6.42c1.04,2.16 3.62,3.08 5.81,2.16l0.76 -0.31 2.42 -2.58 -0.17 -3.53 -16.83 -34.5z"/>
  <path class="fil0" d="M599.52 912.45c-0.79,0.87 -2.04,1.52 -3.76,1.92l-4.61 1.09 -2.42 -10.18 4.61 -1.12c1.7,-0.35 3.06,-0.35 4.21,0.05 0.88,0.37 1.97,1.11 2.6,3.75 0.72,3.04 -0.24,4.11 -0.63,4.5zm7.05 6.94c3.37,-3.42 4.48,-8.14 3.15,-13.71 -1.57,-6.64 -5.57,-9.45 -8.61,-10.63 -2.99,-1.15 -6.4,-1.29 -10.04,-0.44l-9.76 2.32c-2.43,0.58 -3.91,3.01 -3.34,5.43l8.52 35.96 2.04 2.8 2.34 0.65 1.05 -0.09 0.78 -0.2c2.42,-0.59 3.91,-3.01 3.34,-5.42l-2.64 -11.05 4.24 -0.96 9.59 11.57c1.55,1.86 4.3,2.15 6.24,0.68l0.61 -0.5 1.74 -3.04 -1.01 -3.38 -8.25 -9.98z"/>
  <path class="fil0" d="M646.02 914.88l-3.01 2.66 -1.79 0.33 -2.25 -0.55 -2.68 -3.04 -5.33 -15.36 0.24 -3.99 3.03 -2.66 1.79 -0.33 2.25 0.59 2.62 2.97 5.33 15.35 -0.2 4.02zm4.15 -22.62c-1.37,-3.89 -3.93,-6.79 -7.66,-8.58 -3.67,-1.8 -7.66,-2.04 -11.53,-0.68 -3.89,1.34 -6.81,3.93 -8.6,7.66 -1.77,3.69 -2.03,7.62 -0.68,11.5l5.35 15.35c1.34,3.85 3.96,6.83 7.64,8.61 2.09,1.04 4.26,1.53 6.47,1.53 1.66,0 3.38,-0.31 5.06,-0.88 3.89,-1.35 6.79,-3.91 8.62,-7.62 1.79,-3.69 2.03,-7.66 0.66,-11.53l-5.33 -15.35z"/>
  <path class="fil0" d="M697.85 899.48c-1.05,-2.25 -3.71,-3.19 -5.98,-2.2l-10.28 4.8 -13.36 -28.75c-1.05,-2.23 -3.71,-3.21 -5.98,-2.18l-0.7 0.37 -2.34 2.53 0.11 3.43 15.63 33.51c0.75,1.64 2.38,2.6 4.06,2.6l1.92 -0.41 15.07 -7.01 2.33 -2.58 -0.15 -3.39 -0.33 -0.72z"/>
  <path class="fil0" d="M737.24 877.28l-2.77 -2.1 -3.43 0.48 -9.74 5.81 -5.37 -9.02 6.27 -3.74c2.14,-1.26 2.85,-3.99 1.59,-6.12l-0.42 -0.72 -2.75 -2.1 -3.43 0.52 -6.29 3.71 -3.25 -5.5 9.74 -5.79c2.12,-1.28 2.82,-4.01 1.58,-6.16l-0.42 -0.71 -2.75 -2.08 -3.43 0.5 -14.3 8.49c-2.14,1.31 -2.84,4.04 -1.57,6.18l19.06 32.12 3.88 2.21 2.31 -0.66 14.3 -8.49c2.12,-1.27 2.82,-4 1.59,-6.15l-0.39 -0.66z"/>
  <path class="fil0" d="M786.57 821.06l8.39 -7.64 1.5 -3.12 -1.18 -3.26 -0.57 -0.59c-1.66,-1.85 -4.52,-1.97 -6.35,-0.29l-8.39 7.62 -4.3 -4.76 8.39 -7.62 1.46 -3.14 -1.16 -3.25 -0.55 -0.61c-1.66,-1.83 -4.52,-1.96 -6.35,-0.3l-12.32 11.18c-1.85,1.68 -1.99,4.54 -0.33,6.36l24.83 27.38 3.16 1.5 0.22 0 3.01 -1.18 0.59 -0.55c1.83,-1.66 1.96,-4.52 0.31,-6.36l-10.35 -11.36z"/>
  <path class="fil0" d="M839.45 788.65l-3.26 -1.2 -3.12 1.49 -7.6 8.39 -7.78 -7.03 4.89 -5.4c1.68,-1.83 1.51,-4.69 -0.31,-6.35l-0.63 -0.53 -3.21 -1.2 -3.12 1.49 -4.93 5.41 -4.74 -4.28 7.58 -8.42 1.16 -3.27 -1.5 -3.1 -0.61 -0.54c-1.83,-1.68 -4.67,-1.53 -6.34,0.31l-11.15 12.33c-1.68,1.86 -1.53,4.71 0.31,6.39l27.71 25 3.03 1.18 0.24 0 3.1 -1.46 11.16 -12.38c1.66,-1.83 1.51,-4.65 -0.33,-6.35l-0.55 -0.5z"/>
  <path class="fil0" d="M840.56 727.72c-2.01,-1.44 -4.83,-1.01 -6.31,0.98l-0.52 0.72 -0.53 4.41 5.9 14.08 -15.22 -1.42 -4.02 1.79 -0.53 0.7 -0.85 3.36 1.79 2.97 29.46 21.66 2.66 0.88 3.66 -1.85 0.46 -0.63 0.85 -3.37 -1.79 -2.95 -15.17 -11.14 6.59 0.61 4.06 -1.81 0.53 -4.41 -2.55 -6.11 15.15 11.15 3.37 0.83 2.93 -1.77 0.5 -0.68c1.44,-2.01 1.01,-4.83 -0.98,-6.28l-29.45 -21.72z"/>
  <path class="fil0" d="M887.33 721.21l-31.46 -18.6c-2.14,-1.28 -4.89,-0.58 -6.16,1.57l-0.42 0.7 -0.52 3.39 2.09 2.77 31.47 18.62 2.29 0.64 3.86 -2.21 0.44 -0.69 0.5 -3.41 -2.09 -2.79z"/>
  <path class="fil0" d="M912.24 671.61l-33.2 -15.35c-2.25,-1.05 -4.93,-0.04 -5.98,2.18l-0.31 0.76 -0.17 3.45 2.33 2.53 15.99 7.4 -22.56 1.66 -3.78 2.64 -0.37 0.79c-1.03,2.27 -0.04,4.91 2.22,5.94l33.19 15.35 1.88 0.41c1.72,0 3.34,-0.96 4.1,-2.6l0.35 -0.72 0.13 -3.43 -2.33 -2.53 -16.01 -7.4 22.62 -1.7 3.74 -2.62 0.39 -0.77c1.01,-2.27 0.04,-4.94 -2.23,-5.98z"/>
  <path class="fil0" d="M883.64 643.57l35.29 12.18 1.47 0.2c1.85,0 3.6,-1.15 4.25,-3.01l5.42 -15.72 -0.2 -3.45 -2.6 -2.27 -0.74 -0.28c-2.34,-0.79 -4.89,0.46 -5.7,2.8l-3.69 10.7 -9.93 -3.41 2.38 -6.9 -0.22 -3.43 -2.58 -2.27 -0.77 -0.29c-2.33,-0.83 -4.93,0.44 -5.72,2.78l-2.38 6.9 -6.05 -2.09 3.69 -10.74c0.79,-2.34 -0.44,-4.87 -2.78,-5.69l-0.77 -0.29 -3.45 0.24 -2.29 2.55 -5.42 15.74c-0.79,2.38 0.46,4.93 2.81,5.74z"/>
  <path class="fil0" d="M257.58 149.54c-1.51,-1.97 -4.34,-2.32 -6.31,-0.85l-1.03 0.83 -1.72 4.1 3.06 25.55 -24 -9.34 -4.39 0.61 -1.01 0.77c-1.96,1.53 -2.32,4.37 -0.79,6.35l32.7 42.21 2.99 1.72 0.58 0.04 2.73 -0.94 0.96 -0.72c1.96,-1.53 2.33,-4.37 0.79,-6.33l-21.4 -27.68 15.98 6.26 4.41 -0.64 1.72 -4.08 -2.03 -17.07 21.4 27.66 2.99 1.74 3.34 -0.93 0.94 -0.72c1.97,-1.53 2.32,-4.37 0.81,-6.35l-32.69 -42.2z"/>
  <path class="fil0" d="M320.46 151.51l-2.49 -18.1 12.86 12.99 -10.37 5.11zm-5.83 -36c-1.37,-1.39 -3.49,-1.72 -5.2,-0.87l-1.15 0.58c-1.75,0.85 -2.71,2.75 -2.47,4.69l7.66 55.46 1.8 3.06 2.68 0.85 0.77 -0.07 1.15 -0.17c2.38,-0.46 4,-2.67 3.67,-5.07l-1.63 -11.81 16.48 -8.12 8.41 8.47c1.7,1.74 4.45,1.79 6.24,0.13l0.85 -0.77 1.47 -3.23 -1.29 -3.26 -39.45 -39.85z"/>
  <path class="fil0" d="M390.22 94.63c2.84,-0.76 5.3,-0.76 7.34,-0.02 1.66,0.61 4.01,1.94 5.24,6.79 1.29,4.87 -0.05,7.18 -1.18,8.47 -1.42,1.63 -3.61,2.85 -6.47,3.56l-8.71 2.31 -4.93 -18.82 8.71 -2.29zm-6.29 51.57c0.53,2.03 2.36,3.37 4.36,3.37l1.14 -0.17 1.11 -0.29 2.75 -2.05 0.5 -3.45 -4.74 -18.03 8.71 -2.27 0.71 -0.2 15.24 17.57c1.61,1.81 4.36,2.04 6.26,0.55l0.87 -0.7 1.68 -3.14 -1.1 -3.34 -13.68 -15.83c5.33,-4.65 7.11,-11.37 4.98,-19.45 -2.29,-8.74 -7.62,-12.32 -11.68,-13.74 -3.99,-1.46 -8.54,-1.53 -13.39,-0.28l-14.21 3.73 -2.71 2.1 -0.48 3.39 13.71 52.22z"/>
  <path class="fil0" d="M469.15 104.98l1.4 25.02 1.51 3.12 2.99 1.17 0.28 0 1.18 -0.09c2.49,-0.13 4.39,-2.25 4.24,-4.74l-1.4 -25.04 16.09 -26.36c1.31,-2.09 0.63,-4.85 -1.44,-6.16l-1.05 -0.63 -3.43 -0.55 -2.79 2.03 -13.04 21.39 -15.44 -19.78 -3.02 -1.72 -3.32 0.96 -0.94 0.74c-1.94,1.5 -2.29,4.34 -0.76,6.29l18.95 24.38z"/>
  <path class="fil0" d="M536.03 136.09l24.06 3.44 0.65 0.05c2.2,0 4.12,-1.62 4.45,-3.89l0.15 -1.09c0.35,-2.47 -1.37,-4.74 -3.8,-5.11l-18.45 -2.62 6.83 -47.82c0.35,-2.47 -1.34,-4.74 -3.82,-5.11l-1.16 -0.15 -3.34 0.83 -1.77 2.97 -7.6 53.41c-0.35,2.47 1.37,4.74 3.82,5.09z"/>
  <path class="fil0" d="M632.96 115.39l-0.43 18.31 -10.9 -3.9 11.33 -14.41zm-31.48 33.09c1.96,1.42 4.69,1.05 6.18,-0.85l7.36 -9.35 17.31 6.16 -0.26 11.92c-0.05,2.42 1.83,4.45 4.23,4.58l1.16 0.07 0.3 0 3.04 -1.18 1.44 -3.21 1.2 -56.03c0.04,-1.97 -1.16,-3.71 -2.99,-4.37l-1.18 -0.42c-1.81,-0.63 -3.85,-0.04 -5.06,1.47l-34.59 44.14 -0.9 3.37 1.83 3.05 0.94 0.66z"/>
  <path class="fil0" d="M671.2 177.95l0.99 0.59 3.39 0.53 2.79 -2.07 17.47 -28.82 -1.53 41.05 2.18 4.02 1.09 0.64 2.34 0.66 3.84 -2.18 27.68 -45.66c1.27,-2.12 0.61,-4.89 -1.53,-6.16l-0.99 -0.65 -3.44 -0.52 -2.78 2.05 -17.46 28.82 1.55 -41.01 -2.16 -4.04 -1.09 -0.65c-2.12,-1.31 -4.89,-0.61 -6.2,1.5l-27.66 45.66c-1.31,2.12 -0.61,4.93 1.52,6.22z"/>
  <path class="fil0" d="M770.95 184.08l6.07 5.63c1.83,1.68 2.92,3.97 3.32,7.07 0.47,3.47 -0.37,6.26 -2.66,8.74l-14.06 15.24c-2.12,2.34 -4.63,3.44 -7.8,3.44l-0.72 -0.04c-3.13,-0.15 -5.53,-1.06 -7.36,-2.71l-6.07 -5.57 29.28 -31.79zm-41.76 32.27l1.46 3.12 10.24 9.45c3.56,3.26 8.17,5.13 13.67,5.42l1.33 0.04c6.01,0 11.15,-2.23 15.24,-6.66l14.06 -15.28c4.37,-4.76 6.15,-10.5 5.28,-17.04 -0.75,-5.47 -2.93,-9.89 -6.53,-13.2l-10.26 -9.45c-1.83,-1.68 -4.67,-1.57 -6.35,0.24l-36.96 40.11 -1.18 3.25z"/>
  <path class="fil0" d="M646.26 581.96c21.59,1.42 41.96,7.27 61.2,16.42 -20.58,-0.77 -41.53,-1.1 -62.09,-0.44 0.35,-5.31 0.66,-10.63 0.88,-15.98zm72.73 7.12c-21.22,-13.67 -46.9,-17.27 -72.31,-17.62 0.93,-33.47 -0.26,-67.25 -0.4,-100.59 -0.12,-31.9 -0.15,-63.9 -0.55,-95.81 24.31,71.39 48.78,142.72 73.27,214.02zm-85.54 -117.9c-0.15,36.63 -1.51,73.8 0.04,110.52 -28.01,-2.12 -57.11,-1.72 -85.37,-0.48 27.62,-72.05 58.47,-149.1 86.18,-224.36 -0.66,38.1 -0.66,76.25 -0.85,114.32zm11.36 -143.3c-0.11,-3.74 -3.38,-5.13 -6.16,-4.41l-1.96 0.92 -1.63 3.12c-34.04,84.06 -64.83,169.45 -97.16,254.21l-4.24 0.22c-6.83,0.35 -6.44,10.11 0.26,10.48 32.79,1.72 67.22,2.71 100.09,0.2 0.11,1.92 0.26,3.85 0.39,5.75 -4.35,0.24 -8.72,0.52 -13.01,0.85 -6.42,0.53 -5.99,9.34 0.2,9.82 31.57,2.56 64.8,1.86 96.77,0.48 -5.33,6.63 -10.37,13.56 -15.99,19.96 -52.75,-2.04 -106.13,-0.7 -158.95,0.22 -0.98,-4.28 -2.8,-8.4 -4.02,-12.6 21.9,2.49 46.77,1.64 67.99,-0.74 5.29,-0.59 7.23,-9.37 1.12,-10.07 -23.52,-2.62 -51.48,-3.67 -74.85,-0.15 -4.01,0.61 -6.15,5.72 -4.1,8.43 1.18,6.77 4.85,13.04 5.17,19.93 0.07,2.04 1.26,3.32 2.71,3.95l0.24 0.13 0.99 0.2 0.87 0.17c54.52,0.92 109.69,2.44 164.21,0.28l4.61 -1.42c8.36,-9.24 15.46,-19.59 23.52,-29.07 2.34,-1.52 3.43,-4.91 1.68,-7.53 -29.39,-85.63 -58.78,-171.24 -88.39,-256.75 -0.12,-5.52 -0.2,-11.06 -0.37,-16.57z"/>
  <path class="fil0" d="M739.51 570.76c44.07,2.93 92.28,4.37 136.29,0.2 6.66,-0.61 6.2,-9.59 -0.26,-10.22 -44.01,-4.13 -92.2,-2.73 -136.3,0.22 -6.4,0.41 -5.99,9.41 0.26,9.8z"/>
  <path class="fil0" d="M481.7 455.61c-7.71,0.47 -16.15,5.71 -21.96,11.39 -2.2,-1.18 -4.61,-2.07 -7.12,-2.56 0.52,-12.86 0.26,-25.83 -0.22,-38.63 4.69,-25.44 9.7,-50.85 13.96,-76.41 5.26,25 10.5,49.95 15.78,74.91l0.2 0.64c-0.24,10.22 -0.64,20.41 -0.64,30.66zm75.87 -39.96c-0.31,1.66 -0.52,3.34 -0.41,5.04 0.28,5.09 7.64,7.46 10.08,2.46 2.67,-5.5 4.26,-10.5 8.76,-14.91 4.87,-4.74 10.69,-5.13 16.9,-3.26 5.59,1.72 7.79,-6.01 3.5,-8.93 -11.68,-7.9 -27.56,-1.03 -35.02,10.37 -12.34,-8.06 -30.39,-2.4 -36.58,10.88 -10.66,-4.59 -25.43,-1.37 -33.03,7.79l-0.02 -0.69 0.22 -3.08c-7.29,-33.01 -14.56,-65.98 -21.9,-98.97 -0.53,-2.31 -2.21,-3.23 -3.99,-3.19 -2.14,-0.37 -4.41,0.52 -5.02,3.39 -7.14,33.55 -12.29,67.55 -18.12,101.33l0.02 0.98 -0.07 0.31c-0.52,13.01 -0.77,26.2 -0.28,39.23 -6.55,1.45 -12.16,5.72 -15.98,11.36 -2.97,4.39 4.06,9.45 7.47,5.46 3.34,-3.93 8.04,-6.27 13.21,-6.57 5.44,-0.31 8.82,3.1 11.9,7.07 3.42,4.37 10.13,1.64 8.88,-4.02l-1.55 -3.99c2.62,-2.27 5.4,-4.3 8.5,-5.9 6.01,-3.19 10,-0.94 14.34,3.53 4.08,4.3 9.48,-1.4 7.4,-5.99 -1.46,-3.17 -3.32,-5.41 -5.37,-6.98l1.01 -3.04c-0.04,-4.48 -0.13,-9.01 -0.24,-13.52l3.47 -2.07c4.32,-6.31 7.14,-11.29 15.02,-13.43 8.47,-2.27 13.5,3.84 17.23,10.39 2.99,5.24 9.82,1.11 8.91,-4.02 -0.53,-2.97 -1.57,-5.46 -2.92,-7.66 4.1,-9.52 13.93,-13.6 23.66,-9.36z"/>
  <path class="fil0" d="M391.85 477.22c-1.57,-0.82 -3.28,-1.41 -5.06,-1.92 -1.88,-10.61 -12.58,-15.96 -22.62,-14.43 -5.88,0.88 -6,10.04 0.22,9.5 4.71,-0.42 8.47,0.87 11.09,3.96 -6.16,0.7 -12.01,3.31 -15.74,8.31 -3.15,4.24 0.94,9.83 5.87,7.25 7.01,-3.67 12.97,-6.01 20.7,-2.6 8.17,3.58 12.6,11.57 13.66,20.11 0.74,6.2 9.45,6.11 9.74,-0.22 0.59,-12.75 -6.58,-24.28 -17.86,-29.96z"/>
  <path class="fil0" d="M426.29 445.1c-0.53,-1.81 -1.31,-3.42 -2.18,-4.89l3.47 -3.21c2.38,-1.55 5.15,-2.29 7.93,-2.79 4.63,-0.88 4.43,-8.69 -0.22,-9.35 -7.14,-0.98 -14.89,1.72 -19.32,7.34 -5,-2.73 -10.98,-3.63 -16.53,-2.69 0.02,-3.79 0,-7.55 -0.15,-11.29l-0.22 -1.01c0.54,-2.57 -0.99,-5.63 -4.5,-5.85 -10.83,-0.66 -23.21,-1.8 -33.9,0.26 -2.6,0.5 -3.53,3.1 -3.04,5.35l-0.11 0.22c-2.05,8.14 -2.58,17.68 -1.5,26.05 0.81,6.13 10.85,8.52 11.81,1.31 0.98,-7.53 0.81,-15.61 -0.53,-23.16 7.42,0.61 15.31,0.15 22.71,-0.33 -0.13,4.06 -0.16,8.14 -0.02,12.2 -4.87,3.45 -8.2,8.99 -7.95,16.72 0.17,5.31 8.17,6.33 9.37,1.04 3.36,-14.74 19.56,-14.04 26.25,-2.03 2.7,4.78 10.08,1.22 8.62,-3.87z"/>
  <path class="fil0" d="M831.46 363.49c-7.64,-0.13 -15.24,0.22 -22.88,0.07 -6.76,-0.11 -13.21,-0.68 -19.8,-0.2 -0.04,-4.78 -0.24,-9.5 -0.64,-14.12 1.8,0.07 3.61,0.13 5.42,0.15l0.02 0.41 0.08 3.65c-0.12,6 9.45,5.79 9.34,-0.22l-0.31 -3.84c2.23,-0.02 4.48,-0.02 6.72,-0.02 2.29,0 4.63,0.09 7.01,0.18 -0.04,1.79 0.19,3.63 0.69,5.15 1.53,4.63 7.62,4.13 9.07,-0.22 0.48,-1.4 0.66,-3.08 0.65,-4.76 1.74,-0.02 3.49,-0.06 5.24,-0.17 -0.41,4.56 -0.58,9.24 -0.59,13.93zm-35.96 -37.84c4.69,0.72 9.5,0.59 14.21,0.59 4.98,0 10.11,0.22 15.07,-0.54 4.58,3.34 5.94,8.21 6.85,13.44 -6.33,-0.28 -12.79,0.13 -19.06,0.15 -7.99,0.02 -16.04,-0.24 -24.04,0.13 0.94,-5.37 2.23,-10.31 6.97,-13.77zm7.42 -19.52c2.33,0.17 4.69,0.09 6.94,0.09 2.38,0 4.89,0.11 7.36,-0.06 0.61,3.06 1.8,6.02 2.78,9.03 -2.78,-0.13 -5.61,-0.06 -8.37,-0.06 -3.84,0 -7.74,-0.11 -11.57,0.13 0.96,-3.03 2.21,-6.04 2.86,-9.14zm88.53 84.91c-3.71,-1.72 -8.03,-2.34 -12.4,-2.04 -5.5,0.39 -12.47,2.9 -16.75,7.32 -6.12,-3.23 -13.5,-4.63 -20.15,-3.5 0.77,-15.76 1.83,-32.93 -0.22,-48.43 1.57,-10.09 -2.67,-21.33 -11.36,-26.61 -0.5,-6.16 -2.75,-12.64 -4.48,-18.37 -0.46,-1.47 -1.57,-2.79 -3.32,-3.38l-3.85 -0.74 0.04 -0.24c0.05,-4.54 0,-9.3 -2.46,-13.26l-1.66 -1.85c0.59,-4.67 0.7,-9.17 0.07,-13.89 -0.31,-2.16 -1.39,-3.97 -3.63,-4.54 -2.32,-0.58 -5.5,0.9 -5.83,3.5 -0.7,5.15 -0.79,9.98 -0.07,15.07l-1.83 2.03c-2.4,3.9 -2.33,8.78 -2.27,13.21l-4.04 0.85c-1.79,0.61 -2.77,1.88 -3.1,3.32l-0.04 0.04c-1.75,5.71 -3.93,12.09 -4.45,18.17 -8.76,5.24 -12.8,16.59 -11.34,26.63 -1.79,14.39 -1.18,29.95 -0.44,44.67 -5.09,-0.83 -10.48,-0.55 -15.94,1.03 -8.95,2.57 -18.37,9.96 -21.66,19.12 -15.96,-4.1 -32.98,6.51 -40.19,24.72 -5.33,0.85 -10.22,3.86 -13.15,9.26 -2.84,5.2 5.11,9.61 8.06,4.43 4.26,-7.34 12.92,-4.15 18.45,-0.31 4.52,3.08 9.39,-3.99 5.55,-7.55 -2.29,-2.18 -5.02,-3.78 -7.88,-4.76 3.54,-5.94 7.42,-11.11 13.76,-14.8 9.52,-5.5 18.8,1.27 25.87,7.25 3.91,3.32 10.87,-1.47 7.36,-5.96 -2.66,-3.34 -5.5,-5.94 -8.45,-7.97 7.12,-16.79 28.25,-17.46 41.25,-6.52 4.76,4.01 10.69,-2.34 6.61,-6.92 -2.9,-3.28 -6.16,-5.74 -9.69,-7.62 0.35,-6.18 0.65,-12.56 0.85,-18.99 6.72,0.55 13.34,0.02 20.18,-0.28 7.55,-0.31 15.11,0.17 22.71,0.09 0.16,7.53 0.59,15.04 0.94,22.27l0.26 1.07c-3.14,2.27 -5.7,5.51 -7.25,9.88 -1.83,5.2 6.06,7.81 8.63,3.38 3.77,-6.34 10.67,-7.58 17.31,-4.98 7.89,3.13 9.96,8.91 13.1,16.05 1.53,3.48 7.55,5.7 9.43,1.01 2.73,-6.85 1.31,-13.04 -2.44,-18.01 6.7,-4.12 14.91,-5.19 21.07,1.53 3.23,3.51 9.71,-0.4 7.97,-4.87l-1.72 -3.26c6.44,-5.33 14.74,-6.2 21.4,0.22 3.82,3.73 10.5,-1.46 7.33,-5.94 -8.66,-12.38 -26.74,-11.04 -36.14,-0.55z"/>
  <path class="fil0" d="M804.47 382.36c-0.66,-1.62 -1.74,-2.86 -3.49,-3.32 -1.88,-0.46 -4.61,0.39 -5.41,2.34 -1.03,2.66 -1.44,5.59 -0.61,8.34 1.53,4.98 8.34,4.47 9.78,-0.22 0.64,-2.1 0.55,-5.09 -0.28,-7.14z"/>
  <path class="fil0" d="M825.21 389.5c0.65,-2.1 0.53,-5.09 -0.29,-7.14 -0.63,-1.62 -1.72,-2.86 -3.45,-3.32 -1.9,-0.46 -4.61,0.39 -5.41,2.34 -1.05,2.66 -1.47,5.59 -0.63,8.34 1.52,4.98 8.36,4.47 9.78,-0.22z"/>
  <path class="fil0" d="M759.2 472.87c-1.53,-7.23 -5.59,-14.01 -11.5,-18.56 -4.8,-3.73 -10.69,2.29 -6.53,6.86 6.88,7.57 8.32,16.68 7.47,26.53 -0.5,5.89 7.71,5.59 9.48,1.05 0.76,-1.99 1.16,-4 1.44,-6.05 8.58,-3.21 15.55,0.9 21.52,7.27 3.91,4.21 10.13,-1.42 7.49,-6.07 -6,-10.65 -18.38,-14.67 -29.37,-11.04z"/>
  <path class="fil0" d="M810.34 463.99c3.65,-16.22 -9.28,-35.85 -27.16,-34.17 -5.09,0.5 -6.68,8.52 -1.01,9.48 12.18,2.09 16.9,14.06 18.63,24.93 0.81,4.98 8.54,4.23 9.54,-0.24z"/>
  <path class="fil0" d="M833.64 486.15c-3.74,2.56 -7.9,7.25 -9.91,12.18 -8.34,0.15 -16.55,4.15 -19.85,12.29 -1.98,4.93 3.5,9.54 7.66,5.59 6.26,-5.85 13.38,-8.62 21.74,-5.13 5.9,2.47 10.16,-5.07 4.81,-8.69l-2.26 -1.34c1.62,-2.71 3.41,-5.35 4.78,-8.23 2.03,-4.26 -2.58,-9.65 -6.96,-6.66z"/>
  <path class="fil0" d="M874.92 493.75c-2.42,5.2 -1.75,11.81 -0.74,17.27 0.94,4.96 8.91,4.52 9.82,-0.26 1.01,-5.52 1.47,-11.98 -0.94,-17.2 -1.44,-3.19 -6.74,-2.82 -8.14,0.18z"/>
  <path class="fil0" d="M918.44 511.78l0.87 -3.3c-0.28,-1.83 -0.31,-2.12 -0.13,-0.83l-0.07 -0.96 -0.37 -4.37c-0.26,-2.86 -0.72,-5.15 -2.38,-7.07l-0.02 -0.04c-1.87,-3.58 -6.35,-2.56 -8.04,0.22l-0.15 0.15 0 -0.02 0 0.04 -0.35 0.46 -0.81 3.55c0.17,-1.87 -0.09,0.81 -0.11,1.38l0.04 2.14c0.09,3.23 -0.07,7.77 2.53,10.04 2.75,2.38 7.2,1.96 9.01,-1.39z"/>
  <path class="fil0" d="M950.56 509.29l2.1 2.51 0.87 0.24 2.77 0.17 0.2 -0.02 0.04 0 1.1 -0.55 1.15 -0.93 0.48 -0.63 0.2 -0.27 0.02 -0.08 0.61 -1.69c1.14,-3.69 1.51,-8.43 -0.47,-11.68 -0.27,-2.01 -1.37,-3.71 -3.45,-4.25 -2.2,-0.51 -5.26,0.87 -5.55,3.38l-0.09 0.77c-2.14,3.53 -1.66,9.17 -0.26,12.6l0.28 0.42z"/>
  <path class="fil0" d="M576.18 459.95c4.96,-0.65 6.9,-8.82 1.05,-9.56 -8.86,-1.16 -17.97,-0.64 -26.85,0.04 -6.11,0.48 -5.69,8.88 0.26,9.36 8.39,0.64 17.16,1.27 25.54,0.17z"/>
  <path class="fil0" d="M184.53 518.66c1.11,-4.52 0.02,-9.52 -0.29,-14.13 -0.42,-6.13 -8.96,-5.7 -9.37,0.26 -0.35,4.65 -1.35,9.54 -0.22,14.13 1.2,5.06 8.74,4.54 9.88,-0.26z"/>
  <path class="fil0" d="M211.6 520.51c2.2,-4.85 0.92,-10.79 0.39,-15.98 -0.59,-6.09 -8.73,-5.63 -9.32,0.26 -0.24,2.45 -0.66,4.8 -0.66,7.29 -0.02,2.47 -0.37,5.2 0.65,7.53 1.51,3.39 7.01,5.28 8.95,0.9z"/>
  <path class="fil0" d="M245.02 517.85c0.57,-2.55 0.68,-5.15 0.86,-7.73 0.24,-3.21 0.02,-6.42 -2.32,-8.8 -1.77,-1.81 -4.8,-1.59 -6.51,0.17 -3.71,3.76 -2.31,11.88 -1.26,16.56 1.05,4.71 8.23,4.25 9.23,-0.2z"/>
  <path class="fil0" d="M462.23 432.95c-1.39,3.82 -1.11,9.32 -0.07,13.2 1.23,4.76 8.12,4.28 9.3,-0.22 1.04,-3.87 1.22,-9.37 -0.18,-13.21 -1.7,-4.58 -7.46,-4.12 -9.04,0.24z"/>
  <path class="fil0" d="M730.63 651.3c-61.09,-2.58 -125.35,-6.39 -186.26,-0.13 -6.75,0.7 -6.29,9.67 0.26,10.37 60.89,6.2 125.15,2.45 186.22,-0.17 6.55,-0.26 6.18,-9.76 -0.22,-10.07z"/>
  <path class="fil0" d="M626.92 689.84c6.47,-0.44 6.09,-9.47 -0.24,-9.91 -26.66,-1.9 -55.77,-3.23 -82.29,0.33 -4.74,0.63 -6.58,8.37 -1.03,9.13 27.04,3.58 56.42,2.4 83.56,0.44z"/>
  <path class="fil0" d="M656.39 691.06c21.07,2.18 43.19,1.37 64.37,0.3 3.25,0.17 4.76,-2.36 4.63,-4.87 0.05,-2.62 -1.55,-5.22 -4.91,-5.08 -21.12,-1.03 -43.28,-1.88 -64.31,0.31 -6.15,0.63 -5.71,8.71 0.22,9.34z"/>
  <path class="fil0" d="M566.57 719.25c22.07,1.96 45.31,2.23 67.36,0.31 6.56,-0.57 6.12,-9.47 -0.22,-10.02 -22.07,-1.92 -45.31,-1.66 -67.36,0.3 -6.14,0.55 -5.72,8.89 0.22,9.41z"/>
  <path class="fil0" d="M636.51 736.32c-15.75,-1.16 -33.36,-2.53 -48.93,0.44 -4.56,0.87 -4.15,8.12 0.2,8.96 15.55,3.01 33.23,1.53 48.96,0.37 6.39,-0.46 5.98,-9.32 -0.24,-9.78z"/>
  <path class="fil0" d="M636.4 767.24c-8.02,-1.79 -17.01,-0.12 -25.15,0.09 -6.01,0.2 -5.74,9.15 0.24,9.3 8.17,0.22 17.07,1.87 25.15,0.06 4.82,-1.05 4.34,-8.45 -0.24,-9.45z"/>
  <path class="fil0" d="M653.77 717.54c16,2.69 32.8,1.57 48.93,0.64 6.69,-0.39 6.31,-9.91 -0.24,-10.26 -16.17,-0.96 -32.92,-1.94 -48.95,0.66 -4.52,0.74 -4.15,8.25 0.26,8.95z"/>
  <path class="fil0" d="M684.21 737.83c-9.61,-0.85 -21.28,-2.14 -30.7,0.43 -4.54,1.25 -4.1,7.77 0.26,8.96 9.36,2.58 21.11,1.22 30.7,0.37 6.35,-0.58 5.93,-9.21 -0.26,-9.76z"/>
  <path class="fil0" d="M656.17 767.37c-6,0.24 -5.69,9.02 0.22,9.25 4.23,0.13 8.36,0.77 12.64,0.5 6.66,-0.48 6.24,-9.78 -0.26,-10.22 -4.24,-0.31 -8.38,0.35 -12.6,0.48z"/>
  <path class="fil0" d="M631.91 795.84c-1.83,1.72 -1.61,4.89 0.15,6.51 2.73,2.55 6.66,2.23 10.17,2.34 3.08,0.13 6.16,0.13 9.24,0.17 7.51,0.05 7.21,-11.72 -0.29,-11.64 -2.75,0 -5.54,0.04 -8.31,0.11 -3.82,0.09 -7.97,-0.24 -10.96,2.51z"/>
  <path class="fil0" d="M143.31 638.46c0.13,6.12 9.25,5.79 9.41,-0.24 0.33,-12.77 0.64,-25.66 0.11,-38.45 35.42,2.1 71.57,2.82 107.66,2.51 -0.39,14.56 -0.15,29.15 0.07,43.67 0.08,5.94 9.1,5.7 9.17,-0.22 0.22,-14.52 0.46,-29.02 0.07,-43.52 27.75,-0.33 55.39,-1.24 82.58,-2.55 6.29,-0.35 5.96,-9.45 -0.26,-9.74 -67.66,-3.3 -138.14,-4.12 -205.74,0.2 -4.6,0.28 -5.48,5.22 -3.12,7.79 -0.66,13.49 -0.35,27.07 0.04,40.55z"/>
  <path class="fil0" d="M474.12 614.2c0.22,-5.04 0.11,-10 -0.07,-15.04 -0.17,-6.01 -9.1,-5.7 -9.26,0.24 -0.17,5 -0.3,9.98 -0.07,15.01 0.24,6.12 9.19,5.81 9.41,-0.2z"/>
  <path class="fil0" d="M495.2 606.48c1.28,-5.11 0,-11.11 -0.15,-16.33 -0.2,-5.96 -9.06,-5.69 -9.23,0.24 -0.17,5.24 -1.38,11.18 -0.09,16.31 1.2,4.82 8.32,4.36 9.47,-0.22z"/>
  <path class="fil0" d="M380.99 623.2c0.24,-9.54 0.22,-19 -0.05,-28.52 -0.2,-6.03 -9.08,-5.72 -9.26,0.22 -0.33,9.5 -0.33,18.99 -0.07,28.54 0.15,6.09 9.24,5.79 9.39,-0.24z"/>
  <path class="fil0" d="M241.29 651.74c0.18,-5.52 0.28,-11.04 -0.07,-16.55 -0.35,-5.99 -8.86,-5.61 -9.21,0.24 -0.31,5.54 -0.26,11.01 -0.07,16.53 0.22,6.09 9.15,5.76 9.36,-0.22z"/>
  <path class="fil0" d="M200.44 641.45c-0.09,2.99 -0.31,6.04 -0.07,9.01 0.55,6.12 8.9,5.72 9.41,-0.22 0.26,-2.99 0.02,-6.01 -0.07,-9.04 -0.15,-5.98 -9.1,-5.66 -9.26,0.26z"/>
  <path class="fil0" d="M168.93 642.94l0 4.5c0.13,5.99 9.1,5.72 9.2,-0.22l0 -4.5c-0.02,-5.96 -9.18,-5.7 -9.2,0.22z"/>
  <path class="fil0" d="M338.82 623.2c-0.26,-5.94 -8.91,-5.64 -9.17,0.24 -0.64,15.87 -0.94,31.9 -0.88,47.93 -5.26,0.33 -10.48,0.74 -15.66,1.33 -4.83,0.58 -6.61,8.56 -1.01,9.21 5.55,0.63 11.18,1.07 16.77,1.4 0.15,7.08 0.37,14.15 0.7,21.22 0.31,6.09 9.1,5.74 9.37,-0.22 0.33,-6.8 0.55,-13.61 0.68,-20.44 25.78,0.88 51.87,-0.54 77.36,-1.42 6.55,-0.26 6.2,-9.87 -0.26,-10.11 -25.33,-0.93 -51.35,-2.4 -76.99,-1.52 0.07,-15.92 -0.24,-31.86 -0.9,-47.62z"/>
  <path class="fil0" d="M392.69 698.17c-6.09,0.13 -5.81,9.37 0.22,9.46 42.09,0.58 84.08,2.57 126.19,0.65 6.99,-0.3 6.58,-10.42 -0.26,-10.74 -42.09,-1.88 -84.06,0.05 -126.14,0.63z"/>
  <path class="fil0" d="M406.44 619.01c7.49,0.28 14.91,0.78 22.4,0.82 2.84,0.04 6.27,0.46 9.67,0.53 -0.09,11.07 0.12,22.12 0.55,33.12 0.26,6.26 9.41,5.9 9.61,-0.22 0.5,-11.86 0.72,-23.8 0.53,-35.74 1.57,-1.83 1.42,-4.58 -0.09,-6.42 -0.11,-4.5 -0.3,-8.96 -0.58,-13.42 -0.37,-6.1 -8.99,-5.72 -9.34,0.22 -0.2,3.45 -0.31,6.96 -0.44,10.42 -2.79,0.07 -5.59,0.39 -7.93,0.41 -8.25,0.09 -16.4,0.53 -24.6,0.86 -6.14,0.19 -5.83,9.21 0.2,9.41z"/>
  <path class="fil0" d="M221.77 753.22c36.86,-5.15 76.81,-1.29 114.09,-1.87 6.35,-0.11 6.04,-9.69 -0.24,-9.76 -36.64,-0.57 -76.12,3.38 -112.38,-1.68 -10.54,-1.46 -10.46,14.52 -1.47,13.31z"/>
  <path class="fil0" d="M424.24 770.4c-41.46,-0.11 -83.23,-1.85 -124.65,-0.06 -6.04,0.31 -5.69,9.04 0.22,9.3 41.4,1.81 83.19,0.09 124.67,-0.04 5.93,-0.04 5.66,-9.19 -0.24,-9.2z"/>
  <path class="fil0" d="M451.28 750.76c-6.13,0.41 -5.74,9.04 0.24,9.41 13.51,0.86 27.03,0.55 40.55,0.11 6.22,-0.2 5.9,-9.41 -0.26,-9.61 -13.5,-0.46 -27.03,-0.76 -40.53,0.09z"/>
  <path class="fil0" d="M519.28 779.68c13.5,0.9 27.01,0.58 40.55,0.13 6.23,-0.2 5.9,-9.41 -0.24,-9.61 -13.52,-0.44 -27.05,-0.76 -40.55,0.13 -6.12,0.37 -5.77,9 0.24,9.35z"/>
  <path class="fil0" d="M538.6 824.79c6.16,-0.28 5.83,-9.19 -0.2,-9.47 -49.26,-2.16 -101.16,5.02 -149.95,-1.81 -10.53,-1.47 -10.46,14.52 -1.47,13.28 49.38,-6.9 101.76,0.2 151.63,-2.01z"/>
  <path class="fil0" d="M532.6 856.32c6.15,-0.26 5.83,-9.21 -0.2,-9.45 -16.55,-0.69 -33.06,-0.69 -49.59,0.02 -6.13,0.26 -5.79,9.17 0.24,9.43 16.5,0.68 33.05,0.7 49.56,0z"/>
  <path class="fil0" d="M575.92 869.18c-14.78,-0.89 -30.33,-1.48 -45.04,0.29 -4.82,0.57 -6.63,8.49 -1.04,9.19 15.19,1.81 31.07,1.33 46.33,0.39 6.4,-0.39 6.03,-9.47 -0.26,-9.87z"/>
  <path class="fil0" d="M410.72 854.29c-11.44,-0.69 -23.1,-0.61 -34.54,0.13 -6.09,0.39 -5.76,8.95 0.2,9.38 11.48,0.7 23.1,0.77 34.6,0.11 6.23,-0.37 5.87,-9.23 -0.26,-9.61z"/>
  <path class="fil0" d="M322.12 810.89c-6.07,0.26 -5.72,9.04 0.22,9.34 7.03,0.3 14.03,0.83 21.04,0.12 6.26,-0.63 5.81,-8.99 -0.24,-9.56 -7.03,-0.72 -14.02,-0.22 -21.01,0.11z"/>
  <path class="fil0" d="M187.19 713.64c32.68,1.98 66.39,1.83 99.12,0.24 6.44,-0.33 6.09,-9.63 -0.24,-9.91 -32.69,-1.61 -66.42,-1.74 -99.14,0.24 -6.15,0.35 -5.77,9.06 0.26,9.42z"/>
  <path class="fil0" d="M173.98 692.83c7.08,-2.67 16.26,-1.31 23.72,-1.37 8.51,-0.02 16.99,-0.09 25.52,-0.33 6.12,-0.22 5.79,-9.26 -0.24,-9.45 -7.29,-0.24 -14.54,-0.35 -21.85,-0.39 -8.58,-0.02 -19.31,1.64 -27.47,-1.47 -10.48,-3.96 -10.78,17.25 0.31,13.01z"/>
  <path class="fil0" d="M749.56 694.05c18.31,1.46 37.18,0.96 55.55,0.18 6.31,-0.26 5.94,-9.41 -0.24,-9.7 -18.36,-0.74 -37.21,-1.26 -55.57,0.2 -6.07,0.48 -5.69,8.84 0.26,9.32z"/>
  <path class="fil0" d="M807.46 703.88c-4.26,-0.87 -8.47,2.2 -8.36,6.7 0.09,4.69 4.47,7.16 8.67,6.31l1.33 -0.28 0.9 -0.4 0.72 -0.28 0.2 -0.07 0.9 -0.07 2.07 -0.09c2.01,-0.07 4.67,0.07 6.53,-1.01l0.15 -0.06 0.85 -0.68 0.13 -0.11 0.11 -0.19c1.37,-1.6 1.88,-4.1 0.53,-5.79l-0.42 -0.5 -0.37 -0.5 -2.03 -1.09c-1.55,-0.57 -3.28,-0.53 -5.22,-0.57l-2.07 -0.11 -0.77 -0.08 -0.39 -0.04 -0.87 -0.29 0.28 0.09 -2.88 -0.89z"/>
  <path class="fil0" d="M768.64 758.7c6.12,-0.09 5.87,-9.34 -0.22,-9.46 -20.71,-0.33 -41.35,-0.17 -62.01,0.09 -6.04,0.07 -5.74,9.21 0.22,9.28 20.68,0.26 41.35,0.44 62.01,0.09z"/>
  <path class="fil0" d="M733.29 736.82c18.23,0.09 36.44,0.09 54.63,0.02 6,-0.02 5.76,-9.26 -0.24,-9.3 -18.21,-0.06 -36.42,-0.04 -54.6,0.04 -6,0 -5.76,9.23 0.2,9.24z"/>
  <path class="fil0" d="M752.68 783.35c-9,-0.2 -18.02,-0.24 -27.04,0.08 -5.94,0.26 -5.61,9.02 0.26,9.2 9.01,0.33 17.99,0.31 27.03,0.09 6.07,-0.12 5.79,-9.26 -0.24,-9.38z"/>
  <path class="fil0" d="M702.68 818.37c6.11,-0.15 5.81,-9.24 -0.22,-9.39 -9.01,-0.22 -17.99,-0.22 -27.03,0.12 -5.96,0.22 -5.65,8.95 0.24,9.17 9.01,0.35 18.01,0.33 27.01,0.11z"/>
  <path class="fil0" d="M761.13 635.49c33.67,3.67 71.25,4.61 104.91,0.46 5.2,-0.63 7.14,-9.2 1.09,-9.94 -33.66,-4.1 -71.31,-3.49 -104.95,0.22 -4.89,0.52 -6.64,8.65 -1.05,9.26z"/>
  <path class="fil0" d="M858.53 601.06c6.24,-0.48 5.83,-9.1 -0.26,-9.56 -17.82,-1.39 -36.22,-0.98 -54.04,0.13 -6.07,0.35 -5.72,8.93 0.22,9.28 17.81,1.1 36.25,1.53 54.08,0.15z"/>
  <path class="fil0" d="M849.6 664.23c6.34,-0.13 6.05,-9.63 -0.26,-9.76 -24.77,-0.52 -49.61,0 -74.41,0.26 -5.98,0.07 -5.72,9.21 0.24,9.26 24.8,0.24 49.63,0.77 74.43,0.24z"/>
  <path class="fil0" d="M480.04 677.59c9.45,0.33 19.1,1.42 28.56,0.53 6.85,-0.68 6.36,-9.87 -0.26,-10.5 -9.48,-0.9 -19.08,0.22 -28.54,0.52 -6.11,0.22 -5.79,9.23 0.24,9.45z"/>
  <path class="fil0" d="M585.78 842c27.45,0.87 56.63,3.78 83.95,0.33 5.15,-0.65 7.14,-9.14 1.09,-9.87 -27.79,-3.5 -57.31,-0.7 -85.28,0.15 -6.1,0.22 -5.77,9.2 0.24,9.39z"/>
 </g>
</svg>
