<?xml version="1.0" encoding="UTF-8"?>
<svg xmlns="http://www.w3.org/2000/svg" xml:space="preserve" width="0.747331in" height="0.747331in" version="1.1" style="shape-rendering:geometricPrecision; text-rendering:geometricPrecision; image-rendering:optimizeQuality; fill-rule:evenodd; clip-rule:evenodd"
viewBox="0 0 113.96 113.96"
 xmlns:xlink="http://www.w3.org/1999/xlink"
 xmlns:xodm="http://www.corel.com/coreldraw/odm/2003">
 <defs>
  <style type="text/css">
   <![CDATA[
    .fil0 {fill:black;fill-rule:nonzero}
   ]]>
  </style>
 </defs>
 <g id="Layer_x0020_1">
  <metadata id="CorelCorpID_0Corel-Layer"/>
  <path class="fil0" d="M32.6 97.54c-0.21,-0.41 -0.55,-0.76 -0.99,-1.05 -0.41,-0.26 -0.86,-0.33 -1.27,-0.2 -0.35,0.11 -0.63,0.32 -0.83,0.63 -0.25,0.4 -0.31,0.83 -0.17,1.27l0.02 0.06 0.14 0.29 0.14 0.25 0.4 0.67 0.15 0.28 0.06 0.15 -0.05 0.25 -0.21 0.15 -0.29 -0.05c-0.02,-0.01 -0.21,-0.15 -0.76,-0.97 -0.13,-0.2 -0.39,-0.28 -0.62,-0.19l-0.08 0.03 -0.28 0.28 -0.01 0.4c0.1,0.27 0.26,0.54 0.47,0.79 0.21,0.26 0.44,0.47 0.68,0.62 0.25,0.16 0.52,0.24 0.8,0.24l0.43 -0.06c0.36,-0.11 0.64,-0.32 0.83,-0.62 0.22,-0.35 0.4,-0.91 -0.02,-1.66 -0.14,-0.24 -0.27,-0.45 -0.38,-0.63l-0.27 -0.44c-0.15,-0.26 -0.11,-0.4 -0.04,-0.5l0.21 -0.16 0.34 0.07c0.06,0.04 0.24,0.18 0.65,0.7 0.15,0.18 0.4,0.25 0.61,0.15l0.09 -0.04 0.28 -0.3 -0.03 -0.41z"/>
  <path class="fil0" d="M36.62 100.01l0.04 -0.08 0.03 -0.39 -0.25 -0.3 -2.07 -1.08 -0.4 -0.03 -0.3 0.26 -0.04 0.08c-0.13,0.25 -0.03,0.56 0.22,0.7l0.53 0.28 -1.67 3.22c-0.13,0.25 -0.03,0.56 0.22,0.7l0.08 0.04 0.24 0.06 0.15 -0.02 0.3 -0.25 1.67 -3.23 0.53 0.28c0.25,0.13 0.57,0.03 0.7,-0.22z"/>
  <path class="fil0" d="M38.27 103.34l-0.42 -0.17 0.47 -0.54 -0.05 0.72zm0.97 -2.83l-0.09 -0.04c-0.21,-0.08 -0.44,-0.03 -0.59,0.14l-2.87 3.34 -0.12 0.39 0.19 0.36 0.07 0.05c0.22,0.17 0.53,0.14 0.71,-0.06l0.54 -0.62 1.12 0.46 -0.06 0.82c-0.02,0.28 0.19,0.52 0.46,0.55l0.09 0.01 0.05 0 0.33 -0.12 0.18 -0.36 0.3 -4.4c0.01,-0.22 -0.11,-0.43 -0.32,-0.51z"/>
  <path class="fil0" d="M44.26 102.21l-2.23 -0.69c-0.27,-0.08 -0.56,0.07 -0.65,0.34l-0.03 0.09 0.04 0.39 0.3 0.25 0.57 0.18 -1.07 3.47c-0.09,0.27 0.07,0.56 0.34,0.64l0.09 0.03 0.15 0.02 0.24 -0.06 0.25 -0.3 1.07 -3.47 0.57 0.18 0.4 -0.04 0.25 -0.31 0.03 -0.09c0.08,-0.27 -0.07,-0.56 -0.34,-0.64z"/>
  <path class="fil0" d="M48.11 103.11l-1.87 -0.4c-0.28,-0.06 -0.55,0.12 -0.61,0.4l-0.89 4.19c-0.06,0.28 0.12,0.56 0.4,0.62l1.87 0.4 0.11 0.01 0.28 -0.08 0.23 -0.33 0.02 -0.08c0.06,-0.28 -0.12,-0.55 -0.4,-0.61l-1.28 -0.27 0.25 -1.18 0.82 0.17c0.28,0.06 0.55,-0.12 0.61,-0.39l0.02 -0.09 -0.07 -0.39 -0.33 -0.23 -0.82 -0.17 0.15 -0.72 1.27 0.27c0.28,0.06 0.55,-0.12 0.61,-0.4l0.02 -0.09 -0.07 -0.39 -0.32 -0.23z"/>
  <path class="fil0" d="M55.99 107.53l-0.19 0.42c-0.12,0.11 -0.23,0.17 -0.43,0.16l-0.42 -0.19 -0.16 -0.43 0.06 -1.86 0.19 -0.42 0.41 -0.16 0 -0.09 0.02 0 0 0.09 0.42 0.19 0.16 0.43 -0.06 1.86zm-0.49 -3.61l-0.06 0c-0.45,0 -0.85,0.16 -1.18,0.47 -0.34,0.32 -0.53,0.73 -0.54,1.21l-0.06 1.86c-0.02,0.47 0.14,0.89 0.47,1.24 0.32,0.34 0.74,0.53 1.21,0.54l0.06 0c0.45,0 0.85,-0.16 1.18,-0.47 0.34,-0.32 0.53,-0.74 0.55,-1.21l0.06 -1.86c0.01,-0.47 -0.15,-0.9 -0.47,-1.24 -0.32,-0.34 -0.74,-0.53 -1.21,-0.55z"/>
  <path class="fil0" d="M61.11 105.81l-0.37 -0.13 -1.3 0.07 -0.04 -0.73 1.3 -0.07c0.28,-0.01 0.5,-0.26 0.49,-0.54l-0 -0.09 -0.17 -0.36 -0.37 -0.13 -1.91 0.11 -0.36 0.17 -0.13 0.37 0.24 4.24c0.02,0.27 0.24,0.49 0.51,0.49l0.03 0 0.09 -0.01 0.36 -0.17 0.13 -0.38 -0.1 -1.76 1.3 -0.07c0.29,-0.02 0.5,-0.26 0.49,-0.54l-0.01 -0.09 -0.17 -0.36z"/>
  <path class="fil0" d="M69.29 106.54l-0.32 0.19 -0.59 0.14 -0.28 -1.17 0.65 -0.15c0.4,-0.01 0.58,0.1 0.66,0.46 0.07,0.3 -0.02,0.43 -0.12,0.53zm-1.45 -1.93l-0.17 -0.72 0.59 -0.14 0.29 -0c0.05,0.01 0.13,0.04 0.19,0.27l-0.07 0.31 -0.12 0.12 -0.7 0.17zm1.93 0.04c0.11,-0.27 0.13,-0.57 0.05,-0.9 -0.17,-0.7 -0.6,-0.98 -0.94,-1.09 -0.28,-0.08 -0.58,-0.09 -0.88,-0.02l-1.18 0.28 -0.32 0.23 -0.06 0.39 1 4.17c0.06,0.23 0.27,0.4 0.5,0.4l0.12 -0.02 1.18 -0.28c0.31,-0.07 0.59,-0.23 0.85,-0.47 0.43,-0.42 0.58,-0.98 0.43,-1.61 -0.12,-0.5 -0.37,-0.87 -0.74,-1.1z"/>
  <path class="fil0" d="M72.76 104.45l-0 -0.72 0.44 0.58 -0.43 0.14zm-0.11 -2.74c-0.14,-0.18 -0.37,-0.25 -0.58,-0.18l-0.09 0.03c-0.21,0.07 -0.35,0.27 -0.35,0.49l0.02 4.41 0.16 0.37 0.36 0.14 0.02 0 0.09 -0c0.28,-0.01 0.5,-0.24 0.5,-0.52l-0 -0.82 1.15 -0.39 0.49 0.65c0.17,0.22 0.48,0.27 0.71,0.11l0.07 -0.05 0.22 -0.34 -0.1 -0.4 -2.66 -3.52z"/>
  <path class="fil0" d="M77.57 102.36l0.45 -2.33c0.05,-0.28 -0.13,-0.55 -0.41,-0.6l-0.09 -0.02 -0.39 0.08 -0.22 0.33 -0.33 1.7 -1.48 -0.91 -0.4 -0.06 -0.32 0.24 -0.05 0.08c-0.14,0.24 -0.07,0.55 0.17,0.7l2.02 1.24 0.78 1.76c0.08,0.19 0.27,0.31 0.47,0.31l0.21 -0.04 0.09 -0.04 0.27 -0.29 -0.01 -0.39 -0.77 -1.76z"/>
  <path class="fil0" d="M81.57 99.88l-0 0c-0.28,0.01 -0.52,0.02 -0.73,0.03l-0.55 0.03c-0.28,0 -0.36,-0.11 -0.42,-0.2l-0.04 -0.26 0.23 -0.26c0.06,-0.03 0.28,-0.12 0.93,-0.24 0.23,-0.04 0.41,-0.23 0.42,-0.47l0.01 -0.09 -0.13 -0.39 -0.37 -0.17 -0.06 0c-0.44,0 -0.9,0.12 -1.34,0.37 -0.43,0.24 -0.7,0.59 -0.79,1.03 -0.07,0.36 -0.02,0.71 0.16,1.03 0.23,0.41 0.58,0.67 1.03,0.76l0.07 0.01 0.32 0.01 0.06 0 0.23 -0 0.78 -0.03 0.32 0 0.16 0.02 0.19 0.16 0.03 0.26 -0.18 0.23c-0.02,0.01 -0.23,0.12 -1.22,0.2 -0.24,0.02 -0.44,0.21 -0.47,0.45l-0.01 0.09 0.1 0.38 0.34 0.2 0.34 0.02c0.19,0 0.39,-0.02 0.59,-0.06 0.32,-0.06 0.62,-0.16 0.87,-0.3 0.39,-0.22 0.65,-0.56 0.74,-0.99 0.07,-0.37 0.03,-0.72 -0.15,-1.03 -0.2,-0.36 -0.6,-0.78 -1.47,-0.78z"/>
  <path class="fil0" d="M22.22 34.03l0.07 -0.12 0.06 -0.39 -0.23 -0.32 -5.27 -3.13c-0.25,-0.15 -0.56,-0.06 -0.71,0.18l-0.08 0.13 -0.01 0.51 1.4 2.6 -2.96 0.01 -0.44 0.25 -0.07 0.13 -0.06 0.39 0.24 0.32 5.27 3.13 0.26 0.07 0.13 -0.02 0.32 -0.24 0.07 -0.12c0.15,-0.25 0.07,-0.56 -0.18,-0.7l-3.45 -2.05 1.97 -0.01 0.44 -0.25 0.01 -0.51 -0.93 -1.73 3.45 2.05c0.25,0.15 0.56,0.07 0.71,-0.18z"/>
  <path class="fil0" d="M23.91 27.32l-0.87 1 -1.07 -1.81 1.94 0.81zm-0.55 3.84l0.33 0.24 0.12 0.01 0.28 -0.08 0.11 -0.08c0.23,-0.15 0.3,-0.46 0.16,-0.69l-0.69 -1.18 1.38 -1.59 1.26 0.52c0.26,0.11 0.55,-0.01 0.67,-0.26l0.06 -0.12 0.01 -0.4 -0.28 -0.29 -5.94 -2.47c-0.21,-0.08 -0.44,-0.03 -0.59,0.14l-0.1 0.11 -0.06 0.6 3.27 5.54z"/>
  <path class="fil0" d="M27.4 22.52l0.07 -0 0.45 -0.06 0.41 -0.08 1.12 -0.24 0.49 -0.08 0.29 -0.01c0.2,0.02 0.35,0.11 0.48,0.27 0.12,0.15 0.17,0.31 0.16,0.53 -0.01,0.23 -0.1,0.4 -0.29,0.55 -0.07,0.06 -0.4,0.26 -1.79,0.64 -0.23,0.06 -0.4,0.28 -0.39,0.52l0.01 0.13 0.17 0.36 0.35 0.13 0.03 0c0.4,-0.02 0.82,-0.11 1.24,-0.26 0.43,-0.16 0.8,-0.37 1.11,-0.61 0.46,-0.37 0.71,-0.86 0.73,-1.43 0.01,-0.49 -0.13,-0.92 -0.42,-1.29 -0.38,-0.47 -0.91,-0.72 -1.54,-0.72 -0.17,0 -0.34,0.02 -0.54,0.05 -0.4,0.09 -0.75,0.16 -1.04,0.23 -0.3,0.06 -0.54,0.12 -0.73,0.16l-0.31 0.04c-0.27,0 -0.47,-0.09 -0.63,-0.3 -0.12,-0.15 -0.18,-0.32 -0.18,-0.52 0,-0.14 0.04,-0.37 0.35,-0.61 0.11,-0.08 0.43,-0.29 1.34,-0.61 0.22,-0.08 0.36,-0.3 0.34,-0.53l-0.01 -0.14 -0.2 -0.36 -0.4 -0.11c-0.63,0.1 -1.24,0.37 -1.81,0.83 -0.5,0.41 -0.77,0.91 -0.78,1.49 -0.02,0.48 0.13,0.91 0.43,1.29 0.38,0.47 0.9,0.73 1.49,0.74z"/>
  <path class="fil0" d="M34.05 17.77l0.07 0.01 0.45 0.02 0.17 0 0.25 -0 1.14 -0.04 0.49 0.01 0.29 0.05c0.19,0.06 0.32,0.17 0.43,0.35 0.09,0.17 0.11,0.34 0.06,0.54 -0.05,0.22 -0.17,0.38 -0.38,0.49 -0.08,0.04 -0.45,0.19 -1.88,0.31 -0.24,0.02 -0.44,0.2 -0.47,0.44l-0.02 0.13 0.1 0.39 0.34 0.2 0.49 0.03c0.25,0 0.51,-0.02 0.78,-0.07 0.45,-0.08 0.86,-0.21 1.2,-0.4 0.52,-0.28 0.86,-0.72 0.97,-1.28 0.1,-0.48 0.04,-0.93 -0.18,-1.34 -0.25,-0.47 -0.79,-1.03 -1.93,-1.03 -0.41,0.01 -0.76,0.02 -1.07,0.03 -0.3,0.01 -0.56,0.02 -0.75,0.03l-0.05 0c-0.53,0 -0.72,-0.23 -0.83,-0.43 -0.1,-0.18 -0.12,-0.35 -0.08,-0.55 0.03,-0.14 0.11,-0.35 0.46,-0.54 0.12,-0.07 0.47,-0.21 1.43,-0.36 0.23,-0.04 0.41,-0.23 0.43,-0.47l0.01 -0.13 -0.13 -0.39 -0.37 -0.17 -0.1 -0c-0.6,0 -1.22,0.17 -1.83,0.5 -0.57,0.31 -0.92,0.75 -1.04,1.33 -0.1,0.47 -0.03,0.92 0.2,1.34 0.29,0.54 0.75,0.88 1.34,1z"/>
  <path class="fil0" d="M42.63 12.82l1.25 1.69 -1.26 0.41 0.01 -2.1zm-0.68 5.22l0.02 0 0.13 -0c0.28,-0.01 0.5,-0.24 0.5,-0.51l0.01 -1.37 2 -0.65 0.82 1.1c0.16,0.22 0.48,0.28 0.71,0.12l0.11 -0.08 0.22 -0.34 -0.09 -0.4 -3.83 -5.17c-0.13,-0.18 -0.36,-0.25 -0.57,-0.18l-0.14 0.04c-0.21,0.07 -0.36,0.26 -0.36,0.49l-0.04 6.43 0.16 0.37 0.36 0.15z"/>
  <path class="fil0" d="M49.2 13.77c0.09,0.69 0.38,1.22 0.83,1.57 0.36,0.28 0.81,0.42 1.32,0.42l0.42 -0.03 1.01 -0.14 0.34 -0.2 0.1 -0.38 -0.02 -0.13c-0.04,-0.28 -0.3,-0.48 -0.58,-0.44l-1.01 0.13c-0.37,0.05 -0.67,0 -0.87,-0.16 -0.21,-0.16 -0.33,-0.42 -0.39,-0.8l-0.36 -2.7c-0.05,-0.38 0,-0.66 0.16,-0.87 0.16,-0.21 0.42,-0.34 0.8,-0.39l1.01 -0.14 0.34 -0.2 0.1 -0.39 -0.02 -0.14c-0.04,-0.28 -0.3,-0.48 -0.58,-0.44l-1.01 0.14c-0.69,0.09 -1.22,0.37 -1.57,0.84 -0.35,0.46 -0.48,1.04 -0.39,1.73l0.36 2.7z"/>
  <path class="fil0" d="M56.92 8.64l-0.27 6.12 0.14 0.38 0.36 0.17 0.13 0.01 0.02 0c0.28,0 0.5,-0.22 0.52,-0.49l0.13 -2.82 2.23 0.1 -0.12 2.82 0.13 0.37 0.36 0.17 0.14 0.01 0.03 0c0.27,0 0.5,-0.22 0.51,-0.49l0.27 -6.12 -0.13 -0.37 -0.36 -0.17 -0.14 -0c-0.29,-0.03 -0.53,0.21 -0.54,0.49l-0.1 2.13 -2.23 -0.1 0.1 -2.14c0.01,-0.29 -0.21,-0.53 -0.49,-0.54l-0.13 -0 -0.37 0.14 -0.17 0.36z"/>
  <path class="fil0" d="M66.32 16.45l0.53 0.06c0.42,0 0.82,-0.12 1.19,-0.35 0.53,-0.33 0.87,-0.81 1.01,-1.43l0.99 -4.31 -0.07 -0.39 -0.32 -0.23 -0.13 -0.03c-0.28,-0.06 -0.56,0.11 -0.62,0.39l-0.98 4.32c-0.07,0.31 -0.23,0.53 -0.5,0.7 -0.26,0.17 -0.53,0.21 -0.84,0.14 -0.31,-0.07 -0.53,-0.23 -0.7,-0.5 -0.17,-0.26 -0.21,-0.53 -0.14,-0.85l0.98 -4.31 -0.07 -0.39 -0.32 -0.23 -0.13 -0.03c-0.28,-0.06 -0.55,0.11 -0.62,0.39l-0.99 4.32c-0.14,0.61 -0.04,1.19 0.29,1.72 0.33,0.53 0.81,0.87 1.43,1.01z"/>
  <path class="fil0" d="M72.66 18.2c0.34,0.31 0.7,0.54 1.06,0.69 0.26,0.11 0.52,0.17 0.78,0.17 0.28,0 0.56,-0.07 0.82,-0.2 0.44,-0.22 0.76,-0.55 0.94,-0.97 0.21,-0.5 0.32,-1.26 -0.39,-2.15 -0.26,-0.31 -0.49,-0.58 -0.69,-0.81l-0.49 -0.57c-0.36,-0.43 -0.3,-0.74 -0.21,-0.96l0.38 -0.4c0.21,-0.1 0.43,-0.09 0.71,0.02 0.13,0.06 0.45,0.25 1.17,0.9 0.17,0.15 0.43,0.17 0.63,0.04l0.11 -0.07 0.23 -0.34 -0.09 -0.4c-0.38,-0.51 -0.91,-0.91 -1.59,-1.2 -0.59,-0.25 -1.16,-0.25 -1.68,0.01 -0.43,0.21 -0.74,0.55 -0.93,0.98 -0.24,0.56 -0.22,1.14 0.05,1.67l0.03 0.06 0.27 0.37 0.26 0.32 0.74 0.88 0.3 0.39 0.15 0.25c0.07,0.18 0.07,0.36 -0.01,0.55l-0.39 0.39c-0.21,0.1 -0.4,0.1 -0.63,0.01 -0.08,-0.03 -0.43,-0.23 -1.4,-1.28 -0.16,-0.18 -0.43,-0.22 -0.64,-0.09l-0.12 0.07 -0.24 0.32 0.06 0.39c0.21,0.35 0.48,0.67 0.82,0.97z"/>
  <path class="fil0" d="M81.13 23.08l0.29 0.08 0.1 -0.01 0.33 -0.22 0.07 -0.11c0.16,-0.24 0.09,-0.56 -0.14,-0.72l-1.78 -1.18 1.24 -1.86 1.22 0.81 0.39 0.08 0.33 -0.22 0.08 -0.12c0.16,-0.24 0.09,-0.56 -0.15,-0.72l-1.22 -0.81 0.86 -1.29 1.78 1.18 0.39 0.07 0.33 -0.22 0.07 -0.11c0.16,-0.24 0.09,-0.56 -0.14,-0.71l-2.32 -1.55 -0.39 -0.08 -0.33 0.22 -3.46 5.21c-0.16,0.24 -0.09,0.55 0.14,0.72l2.32 1.54z"/>
  <path class="fil0" d="M85.91 27l0.36 0.14 0.37 -0.15 3.84 -4 0.8 0.77 0.37 0.15 0.37 -0.16 0.09 -0.1c0.2,-0.21 0.19,-0.53 -0.01,-0.73l-2.45 -2.36 -0.37 -0.15 -0.36 0.16 -0.1 0.1c-0.2,0.21 -0.19,0.53 0.02,0.73l0.8 0.77 -3.84 4 -0.14 0.37 0.16 0.37 0.1 0.09z"/>
  <path class="fil0" d="M95.35 28.59l-4.49 3.25c-0.23,0.17 -0.28,0.49 -0.12,0.72l0.08 0.11 0.42 0.22 0.3 -0.1 4.49 -3.25 0.65 0.91c0.17,0.23 0.49,0.28 0.72,0.11l0.11 -0.08 0.21 -0.34 -0.09 -0.38 -1.99 -2.76c-0.17,-0.23 -0.49,-0.28 -0.72,-0.12l-0.11 0.08 -0.21 0.34 0.09 0.39 0.65 0.9z"/>
  <path class="fil0" d="M97.32 35.99l-0.02 0.07 -0.04 0.45 -0.02 0.41 -0.02 1.14 -0.03 0.49 -0.06 0.29 -0.37 0.41c-0.17,0.08 -0.34,0.1 -0.55,0.04 -0.22,-0.06 -0.37,-0.18 -0.47,-0.41 -0.04,-0.08 -0.17,-0.46 -0.21,-1.89 -0.01,-0.24 -0.18,-0.45 -0.42,-0.49l-0.13 -0.03 -0.39 0.08 -0.22 0.33c-0.07,0.39 -0.08,0.82 -0.02,1.27 0.06,0.45 0.17,0.86 0.34,1.22 0.25,0.53 0.68,0.89 1.23,1.04l0.54 0.07c0.28,0 0.56,-0.06 0.81,-0.18 0.48,-0.23 1.07,-0.74 1.12,-1.87 0.01,-0.41 0.02,-0.76 0.02,-1.07l0.01 -0.75c0.01,-0.57 0.26,-0.76 0.47,-0.86 0.18,-0.09 0.36,-0.1 0.55,-0.05 0.14,0.04 0.35,0.13 0.51,0.48 0.06,0.13 0.18,0.49 0.29,1.44 0.03,0.23 0.21,0.42 0.44,0.45l0.13 0.02 0.4 -0.11 0.19 -0.36c0.05,-0.63 -0.08,-1.29 -0.4,-1.95 -0.28,-0.58 -0.72,-0.96 -1.28,-1.1 -0.46,-0.12 -0.92,-0.08 -1.35,0.12 -0.55,0.26 -0.92,0.71 -1.06,1.29z"/>
  <path class="fil0" d="M111.08 44.92c-2.3,-1.6 -4.64,-2.06 -7.67,-1.62 -4.31,0.62 -8.54,2.33 -12.95,1.51 -2.17,-0.4 -4.22,-1.35 -6.37,-1.86 -2.23,-0.52 -4.37,-0.93 -6.4,-2.02 -2.11,-1.14 -3.79,-3.3 -5.57,-4.88 -1.56,-1.38 -3.28,-2.58 -5.23,-3.33 -0.64,-0.25 -1.01,0.78 -0.43,1.09 4.05,2.2 6.74,5.89 10.57,8.29 3.3,2.07 7.94,2.46 11.61,3.64 3.42,1.1 6.93,0.68 10.4,0.04 2.26,-0.42 4.44,-1.04 6.76,-1.1 2.3,-0.07 3.78,1.43 5.51,2.67l0.28 0.13c0.55,3.19 0.83,6.46 0.82,9.81l0 0.02c-1.41,-0.14 -2.8,0.03 -4.23,0.03 -2.82,0.01 -5.18,-0.96 -7.76,-1.99 -3.78,-1.51 -6.9,-2.14 -10.95,-2.08 -3.81,0.06 -7.58,-1.99 -10.76,-3.92 -1.86,-1.12 -1.81,-1.36 -4.02,-1.23 -2.21,0.13 -4.37,0.31 -6.58,0.22 -0.72,-0.03 -0.86,1.16 -0.14,1.26 1.94,0.27 3.86,0.18 5.82,0.07 2.25,-0.14 3,0.32 4.83,1.46 2.61,1.62 6.04,3.44 9.17,3.69 2.24,0.18 4.48,-0.11 6.7,0.25 2.35,0.38 4.71,1.56 6.9,2.43 3.46,1.37 7.26,2.06 10.98,1.47 -0.14,3.94 -0.7,7.78 -1.62,11.47 -2.91,-0.37 -5.94,-0.09 -8.87,-0.06 -3.67,0.04 -7.34,0.02 -11.01,0.02 -7.83,-0 -15.8,-0.45 -23.61,0.07 -0.79,0.05 -0.75,1.17 0.03,1.22 7.47,0.5 15.1,0.07 22.59,0.07 3.71,0 7.43,0.01 11.14,0.02 3.09,0.01 6.31,0.34 9.39,-0.02 -0.16,0.57 -0.32,1.14 -0.5,1.7 -4.72,-0.48 -9.75,-0.22 -14.46,0.04 -0.72,0.04 -0.68,1.08 0.03,1.11 4.56,0.25 9.45,0.52 14.03,0.08 -0.18,0.52 -0.36,1.04 -0.55,1.55 -1.12,-0.08 -2.39,-0.21 -3.43,0.08 -0.52,0.14 -0.47,0.89 0.03,1.02 0.62,0.17 1.27,0.1 1.9,0.09 0.35,-0.01 0.7,-0.01 1.05,-0.02 -0.2,0.5 -0.4,0.99 -0.62,1.49 -1.54,-0.12 -2.72,-0.41 -4.13,-1.15 -1.58,-0.83 -3.47,-0.86 -5.16,-1.36 -1.47,-0.44 -2.94,-0.83 -4.49,-0.53 -2.44,0.47 -4.06,1.82 -6.65,0.62 -1.1,-0.51 -2.08,-0.58 -3.27,-0.41 -2.27,0.33 -4,-0.74 -6.11,-1.38 -3.1,-0.94 -7.38,-1.58 -10.57,-0.85 -0.62,0.14 -0.44,1.1 0.17,1.09 4.06,-0.1 8.57,0.37 12.32,2.01 1.25,0.55 2.09,0.9 3.49,0.73 2.17,-0.26 3.49,0.42 5.47,0.91 1.06,0.26 2.34,-0.37 3.28,-0.74 2.47,-0.97 4.44,-0.66 6.9,0.07 0.9,0.27 1.72,0.45 2.51,0.67 0.11,0.6 0.35,1.21 0.52,1.77 0.2,0.65 1.05,0.42 1.1,-0.18 0.03,-0.35 0,-0.71 -0.06,-1.08 0.58,0.24 1.16,0.53 1.76,0.95 0.58,0.41 1.37,0.53 2.13,0.59 -0.33,0.68 -0.66,1.36 -1.02,2.03 -1.07,-0.22 -2.05,-0.77 -3.16,-0.81 -0.94,-0.03 -1.87,0.05 -2.81,0.1 -0.39,-0.1 -0.76,-0.23 -1.13,-0.46 -0.55,-0.35 -0.89,-0.92 -1.44,-1.28 -0.33,-0.21 -0.86,0.09 -0.81,0.5 0.05,0.44 0.23,0.83 0.49,1.16 -2.11,-0.27 -4.07,-0.87 -6.32,-0.49l-0.4 0.08c-0.01,-0.34 -0.29,-0.67 -0.69,-0.52 -0.54,0.2 -1.01,0.5 -1.42,0.89 -0.29,-0.1 -0.57,-0.25 -0.84,-0.39l0.1 -0.08c0.4,-0.33 0.81,-0.64 1.19,-0.98 0.43,-0.38 -0.05,-1.14 -0.58,-0.95 -0.49,0.18 -0.92,0.48 -1.32,0.81 -0.31,0.25 -0.65,0.51 -0.93,0.81l-0.51 -0.03c-1.2,-0.08 -2.22,-0.59 -3.16,-1.3 -0.4,-0.3 -0.89,-0.09 -0.94,0.41 -0.08,1.02 1.42,1.57 2.18,1.85 0.65,0.24 1.26,0.36 1.95,0.43 0.46,0.04 0.85,0.07 1.26,0.21 -1.56,0.56 -3.12,1.09 -4.8,1.13 -1.57,0.04 -3.22,-0.28 -4.8,-0.32 -2,-0.05 -4.01,0.11 -6.01,0.14 -1.36,0.03 -2.72,-0.01 -4.09,-0.09l-0.3 -0.19c-0.43,-0.08 -0.8,-0.36 -1.16,-0.73 0.38,-0.21 0.74,-0.47 1.05,-0.68 0.51,-0.34 0.16,-1.23 -0.45,-1.01 -0.35,0.13 -0.69,0.26 -1.03,0.41l-0.47 0.21c-0.18,-0.23 -0.37,-0.45 -0.55,-0.66l0.25 -0.18c0.2,-0.16 0.32,-0.38 0.24,-0.65 -0.09,-0.3 -0.41,-0.46 -0.71,-0.38 -0.28,0.08 -0.58,0.22 -0.84,0.41 -0.38,-0.19 -0.78,-0.33 -1.2,-0.45l0.23 -0.12c0.55,-0.28 0.13,-1.21 -0.44,-0.98 -0.52,0.2 -1.01,0.42 -1.42,0.76 -0.62,-0.1 -1.24,-0.18 -1.84,-0.3 -0.47,-0.1 -0.98,0.44 -0.65,0.9 1.28,1.76 3.83,0.93 5.43,2.4 0.32,0.29 0.61,0.65 0.89,1 -4.16,-0.39 -8.34,-1.05 -12.44,-1.47l0.09 -0.09c0.42,-0.4 0.85,-0.78 1.29,-1.16 0.45,-0.4 -0.06,-1.25 -0.62,-1.01 -0.55,0.24 -1.02,0.55 -1.49,0.93 -0.4,0.32 -0.85,0.73 -1.13,1.19l-0.09 0 -0.01 -0.02c-0.2,-0.24 -0.31,-0.58 -0.48,-0.85l-0.07 -0.08 0.01 -0 0.49 -0.5c0.42,-0.4 -0.04,-1.15 -0.59,-0.96 -0.35,0.12 -0.8,0.31 -1.1,0.6 -0.21,-0.1 -0.43,-0.18 -0.67,-0.26l0.11 -0.16c0.33,-0.5 -0.34,-1.06 -0.81,-0.77 -0.34,0.21 -0.76,0.41 -0.94,0.77 -0.38,0.17 -0.47,0.72 -0.06,0.97 0.67,0.41 1.47,0.52 2.16,0.92l0.4 0.36c-0.43,0.02 -0.86,0.05 -1.29,0.11 -1.16,0.14 -3.04,1.2 -4.11,1.03 -0.97,-0.15 -1.92,-0.09 -2.85,0.11l-0.05 -0.07c-0.58,-0.59 -1.01,-1.6 -1.9,-1.82 -1.18,-0.29 -1.83,0.47 -2.83,-0.61 -0.67,-0.73 -1.36,-1.16 -2.37,-1.21 -0.97,-0.05 -1.88,0.02 -2.58,-0.87 1.65,-0.7 2.72,-1.73 4.91,-0.89 0.22,0.09 0.44,0.12 0.67,0.12 0.76,1.15 2.52,1.85 3.73,1.83 0.56,-0.01 0.79,-0.83 0.27,-1.09 -0.61,-0.3 -1.24,-0.56 -1.85,-0.87 -0.2,-0.1 -0.37,-0.22 -0.53,-0.34 0.75,-0.39 1.48,-0.93 2.11,-1.3 0.78,0.42 1.73,0.31 2.4,0.9l0.46 0.2c0.13,0.07 0.3,0.1 0.49,0.06 0.83,-0.17 1.38,-0.51 2.03,-1.07 1.81,-1.56 2.74,-1.45 4.72,-0.29l0.55 0.26c0.31,0.25 0.62,0.5 0.91,0.8 0.44,0.45 0.81,0.93 1.43,1.14 0.39,0.13 0.86,-0.33 0.69,-0.72 -0.15,-0.33 -0.36,-0.62 -0.6,-0.89 1.05,0 2.1,-0.03 3.17,0.53 1.72,0.9 2.74,-0.41 4.26,-1.07 0.7,-0.3 1.79,0.04 2.7,0.25 0.59,0.78 1.76,0.59 2.27,1.4 0.34,0.53 1.03,0.23 1.08,-0.32 0.06,-0.67 -0.34,-1.28 -0.93,-1.57 0.33,-0.21 0.65,-0.43 0.95,-0.54 0.87,-0.34 0.48,-1.48 -0.28,-1.41 0,-0.39 -0.01,-0.79 -0.06,-1.18l-0.11 -0.25c0.06,-0.32 -0.13,-0.69 -0.56,-0.71l-0.33 -0.01c0.35,-8.64 0.5,-17.55 0.03,-26.2l0.08 0.03c0.49,0.16 0.83,-0.41 0.68,-0.81 0.02,-1.01 0.13,-2.09 0.01,-3.09 0.07,-0.24 0.01,-0.52 -0.26,-0.65 -0.89,-0.41 -1.82,-0.73 -2.77,-0.97 0.02,-1.07 0.08,-2.19 -0.11,-3.23 0.02,-0.21 -0.06,-0.42 -0.29,-0.54l-0.48 -0.23c-1.47,-0.82 -2.25,-2.1 -2.66,-3.78l-0.09 -0.18 -0.44 -0.2 -0.46 0.23 -0.09 0.18c-0.4,1.62 -1.15,2.86 -2.51,3.68 -0.22,0.1 -0.44,0.21 -0.64,0.33l-0.05 0.04 -0.19 0.36 0.01 0.24c-0.12,1.05 -0.18,2.15 -0.18,3.27 -0.73,0.22 -1.45,0.5 -2.15,0.83 -0.28,0.14 -0.32,0.39 -0.23,0.62 -0.14,1 -0.07,2.08 -0,3.1 -0.09,0.21 0,0.46 0.19,0.62l0.02 0.02 0.35 0.13c-0.13,1.75 -0.04,3.51 -0.06,5.27 -0.03,2.36 -0.18,4.8 0.04,7.17 -2.95,-0.29 -6.08,-0.11 -9.01,0.11 -0.53,0.04 -0.71,0.51 -0.58,0.88 -0.18,0.91 -0.07,1.93 -0.09,2.84 -0.01,0.25 -0.01,0.5 -0.02,0.75l-0 0.41c-0.01,0.68 0.02,1.35 0.14,2.04 0.07,0.37 0.48,0.49 0.79,0.37l0.55 0.06c-0.12,0.93 -0.03,1.93 -0.03,2.84l0 0c-3.84,-0.27 -7.76,-0.02 -11.6,-0 -4.62,0.03 -9.23,0.05 -13.85,0.08l-0.39 -0.49 0 0c0.2,-3.79 -4.87,-4.55 -6.9,-2.13 -1.88,-0.76 -3.9,1.27 -3.79,3.21 -0.44,0.07 -0.88,0.25 -1.25,0.51 -0.36,-0.58 -0.87,-1.04 -1.56,-1.26 -0.64,-0.21 -1.54,-0.07 -2.22,0.32 -0.75,-3.72 -1.13,-7.55 -1.11,-11.43 0.05,-10.01 2.79,-19.4 7.51,-27.49 1.56,0.09 3.2,-0.1 4.55,0.83 0.83,0.58 1.6,-0.81 0.76,-1.37 -1.26,-0.84 -2.87,-1.01 -4.4,-0.95 9.82,-15.68 27.24,-26.14 47.01,-26.14l0.31 0c26.31,0.15 48.3,18.7 53.8,43.37zm-6.28 40.02c-0.79,-0.07 -1.57,-0.11 -2.36,-0.12 -1.03,-0.03 -2.14,0.12 -3.15,-0.03 -1.21,-0.19 -1.19,1.68 -0.17,1.53 1.6,-0.25 3.29,-0.09 4.94,-0.14 -0.86,1.39 -1.78,2.73 -2.76,4.03l-0.15 -0.04c-1.56,-0.1 -3.13,-0.09 -4.7,-0.12 -1.55,-0.02 -3.24,-0.23 -4.76,0.14 -0.54,0.13 -0.49,0.94 0.03,1.07 1.52,0.37 3.21,0.16 4.77,0.13 1.32,-0.02 2.65,-0.02 3.97,-0.08 -0.86,1.09 -1.76,2.14 -2.7,3.16 -2.62,-0.09 -5.4,-0.37 -7.95,0.04 -0.54,0.09 -0.49,0.97 0.03,1.06 2.18,0.35 4.53,0.2 6.81,0.09 -10.08,10.34 -24.15,16.78 -39.65,16.78l-0.31 0c-14.78,-0.08 -28.66,-5.91 -39.06,-16.41 2.61,-0.14 5.3,0 7.89,-0.07 0.73,-0.02 0.7,-1.11 -0.03,-1.14 -3.02,-0.09 -6.17,0.11 -9.17,-0.16 -0.74,-0.8 -1.46,-1.62 -2.15,-2.46 2.39,0.28 4.85,0.06 7.24,0.05 2.92,-0.02 5.84,-0.03 8.76,-0.1 0.72,-0.02 0.68,-1.09 -0.03,-1.1 -2.6,-0.06 -5.19,-0.08 -7.79,-0.1 -2.77,-0.02 -5.7,-0.31 -8.46,0.08 0.14,-1.66 1.7,-2.11 3.29,-2.53l0.06 0.02c5.97,0.47 12.3,0.44 18.28,0.05 0.77,-0.05 0.72,-1.14 -0.03,-1.19 -3.58,-0.23 -7.28,-0.33 -10.95,-0.28 0.87,-0.1 1.74,-0.22 2.61,-0.38 0.51,-0.1 0.72,-0.71 0.62,-1.15 0.11,0.46 3.45,0.32 4.23,0.4 0.74,0.07 1.66,0.37 2.27,-0.2 0.32,-0.3 0.25,-0.97 -0.18,-1.15 -1.54,-0.62 -6.49,-1.39 -7.81,0.4 -1.97,0.33 -3.97,0.35 -5.94,0.68 -1.71,0.29 -3.42,0.97 -5.08,1.47 -1.59,0.48 -2.75,1.24 -3.14,2.38 -2.71,-3.72 -4.92,-7.74 -6.61,-11.96 0.89,0.24 1.8,0.41 2.71,0.61 1.36,0.3 2.42,0.98 3.66,1.52l0.4 0.11 0.04 0.17c0.05,0.4 -0.04,0.76 -0.18,1.13 -0.2,0.52 0.6,0.93 0.94,0.52 0.27,-0.32 0.44,-0.74 0.51,-1.17 0.61,0.56 1.01,1.27 1.31,2.17 -0.71,0.75 -0.73,1.47 -0.79,2.58 -0.04,0.9 1.47,0.87 1.4,-0.03 -0.06,-0.79 -0.1,-1.24 0.68,-1.66l0.2 -0.17 0.2 -0.19c0.25,-0.39 0.39,-0.6 0.87,-0.61 0.39,-0.01 0.8,0.15 1.17,0.25 0.77,0.22 1.42,0.47 2.18,0.11 0.4,-0.19 0.35,-0.84 -0.03,-1.02 -0.87,-0.41 -2.03,-0.65 -2.99,-0.72 -0.59,-0.04 -1.17,0.09 -1.62,0.4 -0.4,-1.01 -1.05,-2.15 -1.89,-2.8l0.1 -0.11c1.16,-1.23 2.12,-0.38 3.02,0.15 0.62,0.37 1.19,0.54 1.69,0.49 0.5,0.23 1.02,0.42 1.5,0.69 0.79,0.43 1.08,1.42 1.51,2.15 0.31,0.52 0.85,1.04 1.44,1.2 0.25,0.07 0.45,0.1 0.72,0.1l0.64 0.56c0.44,0.31 1.08,-0.14 1.05,-0.64l-0.1 -0.46c0.2,-0.11 0.4,-0.21 0.65,-0.24 0.46,-0.07 0.93,0 1.39,0.03 0.57,0.04 0.75,-0.82 0.26,-1.06 -1.06,-0.53 -2.46,-0.53 -3.36,0.25l-0.56 -0.02c-0.71,0.07 -1.05,-0.95 -1.29,-1.44l-0.08 -0.14c0.19,-0.12 0.39,-0.25 0.6,-0.35 0.33,-0.16 0.68,-0.26 1.03,-0.37 0.6,-0.17 0.47,-1.17 -0.18,-1.11 -0.72,0.07 -1.6,0.29 -2.2,0.77 -0.44,-0.44 -0.96,-0.76 -1.54,-0.98l0.18 -0.34c0.5,-1.08 2.65,-3.19 4.09,-1.92 0.82,0.72 3.4,1.47 3.67,2.2l0.09 0.17c0.31,0.67 0.72,1.39 1.32,1.7 1.44,0.76 3.42,0.19 4.39,1.7 0.36,0.56 0.89,1.19 1.67,1.08 0.74,-0.1 1.62,-0.65 2.23,0.2l0.27 0.34c-0.7,0.28 -1.37,0.63 -2.01,1.04 -0.63,0.4 -0.18,1.33 0.52,1.16 1.44,-0.35 2.73,-1.06 4.21,-1.3 1,-0.15 2.02,0.49 3.01,0.09 3.23,-1.26 6.05,-1.14 9.46,-0.74 6.14,0.73 12.39,1.23 18.57,1.15 3.29,-0.04 6.53,0.15 9.82,0.32 2.53,0.14 5.06,-1.21 7.41,-1.94 3.35,-1.03 6.21,0.19 9.53,0.33 1.35,0.06 2.65,-0.14 3.99,-0.19 0.84,-0.03 1.67,0.28 2.51,0.48 -0.21,0.38 -0.43,0.75 -0.65,1.13zm-60.61 -21.84c3.26,0.16 6.66,0.14 9.9,-0.13 0.21,0.26 0.43,0.5 0.67,0.71 -3.52,-0.18 -7.19,-0.25 -10.61,0.13 0.02,-0.24 0.03,-0.48 0.03,-0.71zm4.63 -3.41c-1.51,-0.01 -3.12,-0.15 -4.63,0.04 -0.01,-0.23 -0.02,-0.46 -0.04,-0.69 2.76,0.16 5.67,0.14 8.41,-0.18 0.01,0.31 0.05,0.62 0.11,0.93 -1.28,-0.1 -2.57,-0.1 -3.85,-0.1zm4.49 2.07c-3.01,-0.22 -6.14,-0.22 -9.14,-0.08 -0,-0.19 -0,-0.39 0,-0.6 1.32,0.17 2.7,0.05 4.02,0.04 1.59,-0 3.21,0.04 4.79,-0.13 0.1,0.26 0.21,0.51 0.33,0.76zm-0.24 -18.04c0.04,-0.72 0.06,-1.46 -0.01,-2.16 0.43,-0.09 0.85,-0.18 1.27,-0.26 0.02,0.66 0.06,1.31 0.11,1.95 -0.46,0.13 -0.92,0.29 -1.37,0.47zm11.55 30.16c-0.98,0.36 -1.87,0.61 -3.14,0.38 -0.65,-0.12 -1.26,-0.04 -1.89,0.11 -0.99,0.23 -1.81,1.38 -2.88,1.25 -0.86,-0.11 -1.7,-0.79 -2.6,-0.93 -1.87,-0.29 -2.31,0.84 -4.24,-0.73 -0.58,-0.48 -1.16,-0.78 -1.87,-0.99 -1.29,-0.38 -2.43,0.39 -3.49,1.23l0 -0.16c0,-0.23 0,-0.45 0,-0.67l0.02 -0.72 0.06 -0.15c3.38,0.28 6.84,0.1 10.22,0.11 3.28,0.01 6.56,0.08 9.84,-0.08 -0.04,0.45 -0.06,0.9 -0.03,1.36zm-0.2 -30.15c-0.65,-0.25 -1.31,-0.46 -1.99,-0.62 0.06,-0.67 0.06,-1.34 0.06,-2.01 0.63,0.11 1.27,0.27 1.91,0.46 -0.06,0.71 -0.01,1.45 0.02,2.17zm-0.84 1.08c-0.14,2.44 -0.22,4.9 -0.27,7.36 -0.19,-0.01 -0.38,-0.01 -0.57,-0.01 -0.49,0.01 -1.05,-0.07 -1.46,0.24 -0.25,0.19 -0.4,0.63 -0.09,0.86 0.43,0.33 0.86,0.3 1.39,0.31 0.24,0 0.48,0 0.71,-0 -0.05,4.37 0.01,8.77 0.14,13.13 -0.22,0 -0.44,0 -0.66,0 -0.22,0 -0.44,0 -0.66,0.01l-0.29 0.04c-0.05,0.01 -0.41,0.07 -0.18,0.06 -0.7,0.05 -0.66,1.03 0.03,1.08l0.06 0.04 0.4 0.06c0.22,0.01 0.44,0.01 0.66,0.01 0.22,0 0.45,0 0.67,0 0.04,1.1 0.08,2.19 0.12,3.28 -2.93,-0.1 -5.88,-0.04 -8.81,-0.04 -3.08,0 -6.21,-0.14 -9.29,0.04 0.1,-1.14 0.11,-2.3 0.14,-3.44l0.01 -0.26c0.45,0.01 0.92,-0.05 1.37,-0.09 0.75,-0.07 0.69,-1.08 -0.03,-1.14 -0.42,-0.04 -0.87,-0.11 -1.31,-0.1 0,-0.36 -0.01,-0.73 -0.05,-1.09 3.98,0.29 8.19,0.07 12.08,-0.16l0.01 -0c0.28,0.02 0.44,-0.15 0.5,-0.36l0.01 -0.04 0.01 -0.11 -0.08 -0.35 -0.01 -0.02 -0.09 -0.12 -0.1 -0.07 -0.06 -0.03 -0.07 -0.04c-2.38,-0.73 -3.88,-3.16 -4.17,-5.56 0.05,-0.42 0.08,-0.84 0.11,-1.26 0.51,0.04 1.05,-0.01 1.52,-0.07 0.25,-0.04 0.46,-0.16 0.53,-0.42 0.07,-0.27 -0.1,-0.64 -0.41,-0.67 -0.49,-0.07 -1.06,-0.12 -1.6,-0.09 0,-0.2 0,-0.4 0,-0.59 0.32,0.03 0.64,0.02 0.97,0.02 0.72,0 1.43,-0.04 2.15,-0.14 0.57,-0.08 0.8,-1.01 0.12,-1.1 -0.67,-0.09 -1.36,-0.16 -2.04,-0.16 -0.4,0 -0.81,-0.02 -1.2,0.03 -0,-0.31 -0.01,-0.62 -0.01,-0.93 0.55,0.02 1.1,0.04 1.65,-0.01 0.71,-0.06 0.67,-1.03 -0.03,-1.09 -0.53,-0.05 -1.08,-0.03 -1.62,-0.01 0,-0.27 0,-0.54 0.01,-0.81 0.97,0.09 2.02,-0.01 2.95,-0.07 0.73,-0.04 0.69,-1.08 -0.03,-1.12 -0.92,-0.05 -1.95,-0.15 -2.91,-0.07 0,-0.27 0.01,-0.54 0.01,-0.81 0.97,0.08 1.99,-0.04 2.93,-0.1 0.7,-0.04 0.66,-1.03 -0.03,-1.08 -0.93,-0.06 -1.94,-0.17 -2.9,-0.09 0,-0.27 -0.01,-0.54 -0.01,-0.81 0.55,0.02 1.1,0.04 1.65,-0.01 0.71,-0.06 0.67,-1.03 -0.03,-1.09 -0.55,-0.05 -1.11,-0.03 -1.66,-0.01 -0.02,-0.29 -0.04,-0.58 -0.07,-0.86 3.36,-0.69 6.54,-0.91 9.87,-0.09zm-7.55 -1.92l-0.37 0.07c0.04,-0.61 0.08,-1.25 0.1,-1.89l0.26 -0.04c-0.05,0.61 -0.04,1.24 0,1.86zm3.49 -1.16c0,0.32 -0.01,0.64 -0,0.95 -0.77,-0.04 -1.54,-0.02 -2.3,0.05 0.04,-0.61 0.04,-1.23 -0.02,-1.83 0.78,-0.07 1.55,-0.1 2.33,-0.09 -0.02,0.3 -0.01,0.61 -0.01,0.91zm1.18 -0.85l0.48 0.04c-0.01,0.65 -0.01,1.29 0.03,1.94l-0.51 -0.07c0.01,-0.29 0,-0.57 0,-0.86 0,-0.35 0.01,-0.7 -0,-1.05zm-2.62 -5.9l0.34 -0.53 0.34 0.54c-0.23,-0.01 -0.45,-0.01 -0.68,-0.01zm3.14 1.88c-0.09,0.83 -0.05,1.69 -0.04,2.53 -1.79,-0.29 -3.62,-0.26 -5.4,0.08 -0.01,-0.88 -0.05,-1.76 -0.15,-2.59 1.92,-0.25 3.66,-0.44 5.59,-0.02zm-20.48 32.38c1.17,-0.01 2.34,-0.04 3.5,-0.12 0.02,0.76 0.06,1.51 0.12,2.26l-0.13 0.01 -0.31 0.12 -0.08 -0.01 -0.22 0.03c-0.96,-0.11 -1.94,-0.16 -2.92,-0.18 0.05,-0.69 0.08,-1.42 0.03,-2.11zm-1.23 2.1c-0.87,0.01 -1.75,0.03 -2.62,0.05 0.02,-0.73 0.02,-1.47 0,-2.2 0.86,0.02 1.72,0.03 2.59,0.04 -0.06,0.69 -0.02,1.42 0.03,2.1zm-6.59 0.09c0.02,-0.4 0.04,-0.81 0.04,-1.22 0,-0.33 0.05,-0.72 0.03,-1.1 0.94,0.01 1.89,0.03 2.84,0.05 -0.02,0.75 -0.02,1.5 -0,2.25 -0.62,0.01 -1.23,0.03 -1.84,0.02 -0.36,0 -0.71,-0 -1.07,-0.01zm-3.76 -2.33c0.86,0 1.73,0.01 2.59,0.01 -0.02,0.32 0,0.64 0,0.95 0,0.46 0.02,0.91 0.05,1.36 -0.88,-0.01 -1.76,-0.03 -2.65,-0.05 0.02,-0.76 0.04,-1.52 0,-2.27zm-1.1 2.25c-0.87,-0.01 -1.75,-0.02 -2.62,-0.03 0.02,-0.75 0.05,-1.5 -0.01,-2.25 0.87,0.01 1.75,0.01 2.63,0.02 -0.04,0.75 -0.02,1.51 0,2.26zm-3.79 -0.02c-0.92,0.01 -1.83,0.02 -2.74,0.06 0.06,-0.77 0.05,-1.58 -0.04,-2.33 0.93,0 1.87,0.01 2.8,0.02 -0.05,0.75 -0.03,1.51 -0.01,2.26zm-3.96 0.12l-0.34 0.02c-0.14,-0.67 -0.55,-1.28 -1.11,-1.69 0.09,-0.24 0.15,-0.49 0.16,-0.74 0.44,0 0.88,0 1.31,0.01 -0.03,0.39 -0.02,0.78 -0.03,1.18 -0,0.4 -0.02,0.82 0,1.22zm-17.36 -2c0.5,-0.4 1.23,-0.58 1.81,-0.29 0.57,0.28 0.8,1.07 1.11,1.58 0.36,0.58 1.17,0.15 1.04,-0.47l-0.01 -0.04c0.54,-0.5 1.3,-0.59 1.97,-0.28 0.56,0.26 1.12,-0.44 0.65,-0.89l-0.44 -0.31c0.05,-0.56 0.09,-1.08 0.4,-1.62 0.32,-0.57 0.83,-0.78 1.38,-0.72l-0.03 0.07c-0.18,0.57 0.61,0.96 0.99,0.54 0.87,-0.95 1.62,-1.67 2.98,-1.74 1.27,-0.07 1.96,0.71 2.29,1.75 -0.41,0.02 -0.83,0.15 -1.19,0.37 -0.5,0.31 -0.14,1.17 0.43,0.96 0.37,-0.14 0.81,-0.23 1.15,0.04 0.27,0.22 0.32,0.57 0.3,0.9 -0.28,-0.05 -0.58,-0.07 -0.88,-0.02 -0.59,0.09 -0.54,1.08 0.03,1.16 1.17,0.18 2.01,0.92 1.8,2.19 -0.1,0.6 0.75,1.02 1.05,0.41l0.11 -0.29 0.05 0.01c4.31,0.29 8.73,0.04 13.06,0.03 3.35,-0.01 6.87,0.31 10.22,-0.05 0.08,0.27 -0.03,0.85 -0.03,1.09 0,0.44 0.01,0.88 0.08,1.32l-0.38 0.26c-0.79,-0.81 -1.93,-0.38 -2.83,-1.09 -0.3,-0.23 -0.62,-0.28 -0.96,-0.1 -0.73,0.37 -1.41,0.8 -2.1,1.25 -1.11,0.71 -2.6,0.05 -3.81,0.04 -1.44,-0.01 -2.5,1.08 -3.74,1.63 -1.03,-1.75 -2.88,-1.85 -4.79,-2.77 -0.73,-0.36 -1.85,-0.13 -2.83,0.33 -0.81,-1.25 -3.13,-1.56 -4.01,-0.25 -0.28,0.42 0.21,0.9 0.63,0.78 0.82,-0.22 1.65,-0.42 2.27,0.13 -0.33,0.25 -0.61,0.52 -0.78,0.78 -0.37,0.55 -0.76,1.86 -1.83,1.29 -0.56,-0.3 -1.03,-0.6 -1.62,-0.85 -0.91,-0.38 -1.86,-0.01 -2.67,0.41 -0.79,0.4 -1.14,0.94 -2.03,0.39l-0.21 -0.11c0.25,-0.6 0.32,-1.29 0.22,-1.93 -0.1,-0.71 -1.11,-0.72 -1.13,0.03 -0.02,0.5 -0.09,0.98 -0.25,1.44l-0.18 -0.06c-0.89,-0.32 -1.83,-0.47 -2.77,-0.59 0.06,-0.32 0.05,-0.67 -0.03,-0.97 -0.07,-0.24 -0.3,-0.4 -0.55,-0.4 -0.33,0.01 -0.52,0.27 -0.54,0.57 -0.02,0.24 -0.09,0.45 -0.18,0.65 -0.46,-0.05 -0.91,-0.1 -1.36,-0.18 -0.75,-2.08 -1.38,-4.22 -1.87,-6.39zm54.02 -69.44c-31.24,0 -56.8,25.42 -56.97,56.66 -0.08,14.57 5.28,28.34 15.13,38.98 0.07,0.21 0.21,0.39 0.42,0.46 0.3,0.32 0.6,0.63 0.91,0.95 10.7,10.82 24.98,16.83 40.2,16.91l0.32 0c15.15,0 29.42,-5.88 40.17,-16.57 10.75,-10.69 16.72,-24.93 16.81,-40.09 0.17,-31.42 -25.25,-57.12 -56.66,-57.29l-0.32 -0z"/>
  <path class="fil0" d="M71.65 79.65c0.52,0.5 0.7,1.31 1.29,1.72 0.52,0.35 1.1,0.38 1.71,0.4 0.64,0.02 1.25,0.02 1.9,0.1 0.77,0.1 1.34,0.67 1.99,1.04 0.5,0.28 1.21,-0.36 0.81,-0.85l-0.03 -0.03 0.26 -0.14c0.52,-0.29 0.22,-1.02 -0.31,-1.04 -0.35,-0.01 -0.64,0.12 -0.87,0.34 -0.32,-0.22 -0.67,-0.37 -1.02,-0.48l0.14 -0.12c0.2,-0.15 0.32,-0.37 0.24,-0.63 -0.08,-0.27 -0.41,-0.49 -0.69,-0.37 -0.5,0.2 -0.96,0.49 -1.36,0.85l-0.53 -0.02c0.3,-0.25 0.62,-0.48 0.91,-0.74 0.41,-0.37 -0.06,-1.17 -0.58,-0.95 -0.49,0.21 -0.95,0.47 -1.38,0.79l-0.54 0.48c-0.21,-0.2 -0.37,-0.43 -0.55,-0.69l0.17 -0.11c0.27,-0.18 0.57,-0.33 0.82,-0.54 0.2,-0.16 0.32,-0.37 0.24,-0.63 -0.08,-0.27 -0.41,-0.48 -0.69,-0.37 -0.29,0.11 -0.86,0.38 -1.3,0.72 -0.25,-0.25 -0.54,-0.47 -0.84,-0.68l0.01 -0.01c0.31,-0.5 -0.32,-1.01 -0.78,-0.74l-0.18 0.12 -0.29 -0.18c-0.56,-0.35 -1.02,0.43 -0.64,0.87 0.63,0.72 1.42,1.26 2.11,1.92z"/>
  <path class="fil0" d="M59.37 56.93c0.26,0.03 0.5,0.08 0.76,0.1 0.26,0.01 0.51,-0.03 0.77,-0.07 0.25,-0.04 0.47,-0.16 0.53,-0.43 0.07,-0.27 -0.11,-0.63 -0.41,-0.68 -0.27,-0.04 -0.54,-0.09 -0.83,-0.09 -0.24,-0 -0.46,0.06 -0.7,0.08 -0.25,0.03 -0.46,0.17 -0.53,0.42 -0.07,0.26 0.1,0.64 0.4,0.67z"/>
  <path class="fil0" d="M61.04 62.59l-0.51 -0c-0.69,-0 -0.66,1.07 0.03,1.07l0.52 -0c0.69,-0.02 0.65,-1.04 -0.03,-1.06z"/>
  <path class="fil0" d="M58.6 69.85c0.75,0.22 1.62,0.09 2.39,0.04 0.73,-0.05 0.68,-1.07 -0.03,-1.11 -0.77,-0.05 -1.63,-0.18 -2.38,0.04 -0.53,0.15 -0.47,0.9 0.03,1.04z"/>
  <path class="fil0" d="M87.84 74.51c1.31,0.07 2.63,0.03 3.94,0 0.69,-0.02 0.66,-1.05 -0.03,-1.06 -1.31,-0.03 -2.63,-0.07 -3.94,0 -0.69,0.04 -0.65,1.02 0.03,1.05z"/>
  <path class="fil0" d="M82.41 74.51c0.6,0.02 1.2,0.04 1.81,0.01 0.7,-0.03 0.66,-1.04 -0.03,-1.08 -0.6,-0.03 -1.2,-0.02 -1.81,0.01 -0.69,0.03 -0.65,1.04 0.03,1.06z"/>
  <path class="fil0" d="M49.18 40.8c-3.98,-1.13 -7.49,-2.82 -11.15,-4.73 -3.28,-1.72 -6.83,-3.36 -10.61,-3.24 -0.7,0.02 -0.87,1.16 -0.14,1.26 4.16,0.54 7.71,2.13 11.39,4.07 3.23,1.7 6.65,3.68 10.37,3.86 0.72,0.03 0.78,-1.03 0.13,-1.21z"/>
  <path class="fil0" d="M67.63 57.79c2.66,0.18 4.8,0.37 7.05,1.9 1.32,0.9 2.58,1.29 4.14,0.88 0.65,-0.17 0.47,-1.15 -0.18,-1.14 -2.13,0.05 -3.37,-1.22 -5.18,-2.07 -1.75,-0.82 -3.97,-0.76 -5.85,-0.65 -0.7,0.04 -0.66,1.03 0.03,1.07z"/>
  <path class="fil0" d="M84 62.28c1.27,-0.01 2.53,-0.39 3.79,-0.5 0.72,-0.07 0.69,-1.08 -0.03,-1.12 -1.3,-0.07 -2.69,0.18 -3.94,0.55 -0.6,0.18 -0.44,1.07 0.17,1.07z"/>
  <path class="fil0" d="M60.31 29.15c-3.94,-2.13 -8.57,0.08 -12.32,-2.28 -2.46,-1.55 -4.5,-4.89 -7.64,-5.07 -0.63,-0.04 -0.84,0.91 -0.29,1.18 2.95,1.42 4.99,3.91 7.73,5.64 3.62,2.3 8.19,0.27 12.09,1.62 0.65,0.22 1.01,-0.78 0.43,-1.1z"/>
  <path class="fil0" d="M55.46 17.98c-0.54,-0.36 -1.05,0.45 -0.64,0.88 2.47,2.61 4.87,4.28 8.48,4.8 3.66,0.52 5.92,4.1 9.83,3.47 0.68,-0.11 0.45,-1.14 -0.18,-1.15 -3.47,-0.05 -5.95,-3.09 -9.29,-3.74 -1.76,-0.35 -3.24,-0.6 -4.78,-1.59 -1.21,-0.78 -2.2,-1.86 -3.41,-2.66z"/>
  <path class="fil0" d="M43.63 47.52c-3.58,-0.36 -6.82,-1.89 -10.41,-0.72 -1.71,0.56 -3.1,1.46 -4.93,1.72 -2.04,0.29 -4.16,-0.23 -6.21,-0.09 -0.59,0.04 -0.76,1 -0.12,1.08 3.21,0.38 6.52,0.96 9.59,-0.3 2.29,-0.94 4.02,-1.56 6.57,-1.18 1.88,0.29 3.63,0.71 5.54,0.68 0.79,-0.01 0.71,-1.11 -0.03,-1.19z"/>
  <path class="fil0" d="M93.86 63.12c3.16,0.46 6.32,3.66 9.61,2.62 0.6,-0.19 0.48,-1.2 -0.18,-1.13 -3.44,0.38 -5.92,-2.7 -9.31,-2.55 -0.58,0.03 -0.73,0.96 -0.12,1.05z"/>
  <path class="fil0" d="M16.9 46.85c-3.03,-0.76 -6.05,-2.87 -9.26,-2.19 -0.62,0.13 -0.42,1.06 0.17,1.06 1.8,0 3.22,0.39 4.86,1.12 1.33,0.59 2.64,1.15 4.11,1.18 0.68,0.01 0.77,-1.01 0.13,-1.17z"/>
  <path class="fil0" d="M10.5 71.6l0.23 0.58c0.26,0.45 1.03,0.35 1.13,-0.18 0.14,-0.7 -0.39,-1.43 -0.95,-1.79 -0.23,-0.14 -0.56,-0.08 -0.74,0.11 -0.24,0.25 -0.2,0.62 0.02,0.86l0.31 0.41z"/>
  <path class="fil0" d="M14.95 73.11c-0.1,-0.41 -0.08,-0.8 0.07,-1.2 0.25,-0.64 -0.53,-1.08 -0.93,-0.51 -0.45,0.64 -0.53,1.48 -0.13,2.16 0.33,0.55 1.12,0.14 0.98,-0.44z"/>
  <path class="fil0" d="M45.01 87.44c2.91,0.47 5.97,0.23 8.91,0.24 3.57,0.01 7.15,0.07 10.72,-0.06 0.93,-0.03 0.85,-1.54 -0.04,-1.41 -3.24,-0.11 -6.5,-0.07 -9.74,-0.06 -3.25,0.01 -6.66,-0.27 -9.88,0.25 -0.53,0.08 -0.48,0.96 0.03,1.04z"/>
  <path class="fil0" d="M44.81 91.41c4.03,0.39 8.21,0.29 12.24,0.04 0.76,-0.05 0.72,-1.12 -0.03,-1.17 -4.03,-0.25 -8.22,-0.35 -12.24,0.05 -0.71,0.07 -0.66,1.01 0.03,1.08z"/>
  <path class="fil0" d="M60.3 89.81c-0.55,0.09 -0.78,0.97 -0.12,1.07 1.43,0.22 2.85,0.19 4.28,0.05 0.76,-0.07 0.71,-1.1 -0.03,-1.16 -1.38,-0.12 -2.76,-0.17 -4.14,0.03z"/>
  <path class="fil0" d="M65.64 93.83c-2.98,-0.21 -5.99,-0.11 -8.97,-0.11 -3.24,0 -6.6,-0.23 -9.82,0.23 -0.55,0.08 -0.77,0.97 -0.12,1.06 2.96,0.43 6.01,0.25 8.99,0.25 3.31,0 6.65,0.12 9.95,-0.11 0.43,0.04 0.63,-0.29 0.62,-0.63 0.03,-0.36 -0.19,-0.74 -0.65,-0.7z"/>
  <path class="fil0" d="M65.12 97.36c-2.35,-0.2 -4.7,-0.19 -7.05,-0.21 -2.6,-0.01 -5.56,-0.39 -8.1,0.25 -0.55,0.14 -0.5,0.95 0.03,1.08 2.29,0.58 4.93,0.26 7.28,0.25 2.63,-0.01 5.25,0.01 7.87,-0.21 0.76,-0.06 0.71,-1.1 -0.03,-1.17z"/>
  <path class="fil0" d="M56.83 101.18c-1.28,-0.2 -2.64,-0.2 -3.91,0.05 -0.52,0.1 -0.47,0.92 0.03,1.02 1.22,0.24 2.54,0.25 3.76,0.06 0.58,-0.09 0.82,-1.02 0.12,-1.13z"/>
  <path class="fil0" d="M65.45 100.83c-0.71,-0.12 -1.41,-0.17 -2.13,-0.16 -0.94,0 -2.26,0.26 -3.17,-0.03 -1.21,-0.39 -1.24,1.9 0.04,1.49 0.8,-0.26 1.99,-0.02 2.83,-0.02 0.83,0 1.63,-0.03 2.46,-0.17 0.57,-0.09 0.51,-1.02 -0.03,-1.11z"/>
  <path class="fil0" d="M67.77 88.3c1.54,0.38 3.3,0.21 4.88,0.21 1.65,0.01 3.28,-0.01 4.92,-0.14 0.78,-0.07 0.73,-1.13 -0.03,-1.19 -1.47,-0.12 -2.91,-0.15 -4.38,-0.15 -1.75,0.01 -3.7,-0.2 -5.42,0.22 -0.53,0.13 -0.48,0.92 0.03,1.05z"/>
  <path class="fil0" d="M95.12 85.12c-1.85,-0.16 -4.01,-0.33 -5.83,0.07 -0.52,0.12 -0.47,0.91 0.03,1.02 1.81,0.41 3.99,0.23 5.83,0.07 0.76,-0.06 0.71,-1.1 -0.03,-1.16z"/>
  <path class="fil0" d="M82.42 88.64c1.07,0.28 2.34,0.21 3.42,0.05 0.59,-0.09 0.83,-1.04 0.12,-1.14 -1.14,-0.16 -2.45,-0.25 -3.58,0.04 -0.53,0.14 -0.48,0.91 0.03,1.04z"/>
  <path class="fil0" d="M70.12 90.68c-0.55,0.08 -0.77,0.97 -0.12,1.07 2.08,0.3 4.25,0.13 6.35,0.04 0.73,-0.03 0.69,-1.1 -0.03,-1.13 -2.04,-0.09 -4.17,-0.27 -6.21,0.03z"/>
  <path class="fil0" d="M86.31 92.06c-1.31,-0.2 -2.62,-0.05 -3.94,0 -0.7,0.03 -0.66,1.04 0.03,1.07 1.26,0.06 2.53,0.22 3.79,0.02 0.56,-0.09 0.8,-0.99 0.12,-1.1z"/>
  <path class="fil0" d="M73.43 97.13c0.73,-0.06 0.69,-1.07 -0.03,-1.13 -0.32,-0.02 -0.64,-0.05 -0.96,-0.07l-0.48 -0.02 -0.43 -0.1c-0.41,-0.06 -0.83,0.12 -0.94,0.56 -0.11,0.45 0.26,1.03 0.77,0.96 0.33,-0.05 0.62,-0.12 0.95,-0.13 0.37,-0.01 0.74,-0.05 1.11,-0.08z"/>
  <path class="fil0" d="M36.02 91.59c0.92,0.05 1.81,0.15 2.73,-0.01 0.55,-0.09 0.5,-0.99 -0.03,-1.08 -0.91,-0.16 -1.81,-0.05 -2.73,0 -0.7,0.04 -0.66,1.05 0.03,1.08z"/>
  <path class="fil0" d="M33.63 95.36c2.94,0.36 6.33,0.37 9.28,0.05 0.75,-0.08 0.69,-1.07 -0.03,-1.15 -2.9,-0.31 -6.25,-0.32 -9.13,0.04 -0.55,0.07 -0.76,0.97 -0.12,1.05z"/>
  <path class="fil0" d="M52.19 69.29l-0.56 -0.03c-0.22,-0 -0.43,0.03 -0.65,0.05 -0.69,0.04 -0.65,1.03 0.03,1.07 0.18,0.01 0.37,0.05 0.56,0.05 0.22,-0 0.43,-0.02 0.65,-0.03 0.72,-0.05 0.67,-1.05 -0.03,-1.11z"/>
  <path class="fil0" d="M59.84 47.61c0.27,0.03 0.52,0.1 0.79,0.09 0.24,-0.01 0.49,-0.02 0.73,-0.05 0.3,-0.03 0.55,-0.25 0.55,-0.58 -0.01,-0.34 -0.27,-0.52 -0.58,-0.55 -0.22,-0.02 -0.43,-0.04 -0.65,-0.04 -0.26,-0.01 -0.49,0.04 -0.73,0.07 -0.24,0.03 -0.45,0.16 -0.51,0.41 -0.06,0.25 0.1,0.62 0.39,0.65z"/>
 </g>
</svg>
