<?xml version="1.0" encoding="UTF-8"?>
<svg xmlns="http://www.w3.org/2000/svg" xml:space="preserve" width="0.747343in" height="0.747335in" version="1.1" style="shape-rendering:geometricPrecision; text-rendering:geometricPrecision; image-rendering:optimizeQuality; fill-rule:evenodd; clip-rule:evenodd"
viewBox="0 0 113.95 113.95"
 xmlns:xlink="http://www.w3.org/1999/xlink"
 xmlns:xodm="http://www.corel.com/coreldraw/odm/2003">
 <defs>
  <style type="text/css">
   <![CDATA[
    .fil0 {fill:black;fill-rule:nonzero}
   ]]>
  </style>
 </defs>
 <g id="Layer_x0020_1">
  <metadata id="CorelCorpID_0Corel-Layer"/>
  <path class="fil0" d="M23.27 54.32c0.22,-0.32 0.39,-0.68 0.57,-1 0.2,-0.34 0.39,-0.68 0.58,-1.03 0.52,0.39 1.04,0.79 1.57,1.17 0.67,0.49 1.35,1.08 2.08,1.51l0 0.02c-0.23,0.36 -0.47,0.72 -0.69,1.09 -0.15,0.25 -0.33,0.5 -0.49,0.76 -0.49,-0.4 -1.04,-0.73 -1.54,-1.09 -0.69,-0.49 -1.38,-0.96 -2.08,-1.44zm83.81 17.27c-0.74,-0.42 -1.78,-0.39 -2.47,0.13 -0.95,-0.66 -2.44,-0.39 -3.29,0.49 -0.68,-0.5 -1.59,-0.54 -2.34,-0.13 -0.31,-0.25 -0.69,-0.43 -1.14,-0.51 -0.69,-0.13 -1.57,0.05 -2.12,0.55 -0.81,-0.54 -2,-0.61 -2.82,-0.1 -0.96,-0.83 -2.55,-0.69 -3.57,0.22 -1.11,-0.81 -2.89,-0.75 -3.74,0.3 -0.88,-0.77 -2.32,-0.82 -3.27,-0.19 0.17,-4.71 0.26,-9.55 -0.01,-14.25l-0.01 -0.05c0,-0.28 -0.18,-0.57 -0.55,-0.59 -3.26,-0.16 -6.63,-0.27 -9.95,-0.19 0.09,-3.41 0.1,-6.84 -0.01,-10.25 1.47,0.07 2.95,0.04 4.42,0 -0.21,2.55 -0.15,5.28 0,7.82 0.02,0.39 0.33,0.55 0.62,0.51 0.74,0.14 1.6,0.16 2.39,0.09 -0.01,0.23 -0.01,0.46 0,0.69 0.04,0.73 1.09,0.69 1.13,-0.03 0.02,-0.41 0.01,-0.83 -0.04,-1.24 0.06,-0.26 -0.05,-0.52 -0.39,-0.57 -0.8,-0.12 -1.71,-0.15 -2.56,-0.06 0.14,-2.5 0.18,-5.14 -0.06,-7.61l-0.02 -0.07c0.04,-0.29 -0.14,-0.62 -0.52,-0.63 -0.47,-0.01 -0.95,-0.02 -1.43,-0.03 0.05,-2.37 0.1,-4.75 -0.02,-7.12 -0.03,-0.69 -1.02,-0.65 -1.05,0.03 -0.12,2.35 -0.07,4.72 -0.02,7.07 -0.21,-0 -0.43,-0 -0.64,-0 0.01,-0.73 0.01,-1.46 -0.01,-2.18 -0.02,-0.68 -1.04,-0.65 -1.05,0.03 -0.02,0.72 -0.02,1.44 -0.01,2.17 -0.43,0.01 -0.86,0.03 -1.29,0.05 -0.22,0.02 -0.36,0.13 -0.43,0.27l-0.08 0.26c-0.13,3.59 -0.11,7.22 -0.02,10.81 -1.04,0.04 -2.07,0.1 -3.09,0.18 -0.21,0.02 -0.35,0.12 -0.43,0.25l-0.09 0.13 -0.08 0.37c-0.21,1.51 -0.01,3.17 0,4.67 0.03,3.17 -0.02,6.35 0.09,9.53 0.03,0.68 1.02,0.64 1.04,-0.03 0.11,-2.89 0.06,-5.79 0.08,-8.68 0.02,-1.64 0.22,-3.44 0.05,-5.11 0.34,0.03 0.68,0.05 1.02,0.07 -0.14,4.08 -0.05,8.2 0.02,12.28 0.01,0.7 1.07,0.67 1.08,-0.03 0.07,-4.05 0.16,-8.15 0.02,-12.21 0.35,0.02 0.7,0.03 1.06,0.04 -0.1,3.8 -0.09,7.62 0,11.42 0.01,0.7 1.06,0.66 1.07,-0.03 0.09,-3.79 0.09,-7.58 0,-11.37 0.4,0 0.8,0.01 1.2,0.01 0.65,3.66 -0.02,7.78 0.13,11.47 0.03,0.7 1.05,0.66 1.08,-0.03 0.15,-3.69 -0.51,-7.79 0.14,-11.45 0.35,-0 0.69,-0.01 1.04,-0.01 0.33,1.78 0.12,3.8 0.12,5.59 0,1.74 0.01,3.47 0.04,5.21 0.01,0.68 1.04,0.65 1.05,-0.03 0.03,-1.74 0.04,-3.48 0.04,-5.21 0,-1.8 -0.2,-3.81 0.14,-5.59 0.31,-0.01 0.63,-0.02 0.94,-0.03 0.36,1.83 0.12,3.92 0.11,5.75 -0.01,1.79 0.03,3.58 0.05,5.37 0.01,0.68 1.04,0.65 1.05,-0.03 0.02,-1.79 0.04,-3.58 0.05,-5.37 0.01,-1.86 -0.25,-3.93 0.12,-5.78 0.44,-0.02 0.87,-0.04 1.31,-0.06 -0.25,4.7 -0.15,9.55 0.03,14.25l0.02 0.08c-0.59,-0.11 -1.25,-0.02 -1.8,0.24 -0.45,-0.71 -1.32,-1.14 -2.2,-1.21 -0.71,-0.05 -1.77,0.28 -2.4,0.87 -0.79,-0.69 -2.11,-0.67 -2.9,0.06 -0.26,-0.18 -0.53,-0.33 -0.8,-0.43 -1.16,-0.44 -2.5,-0.01 -3.22,0.96 -0.75,-0.43 -1.66,-0.52 -2.47,-0.09 -0.83,-0.95 -2.23,-1.28 -3.29,-0.32 -0.69,-0.78 -1.9,-0.89 -2.74,-0.06 -0.98,-0.76 -2.53,-0.69 -3.55,0.33 -0.42,-0.25 -0.91,-0.39 -1.45,-0.35 -0.7,0.04 -1.42,0.44 -1.85,1.01 -1.04,-0.53 -2.42,-0.38 -3.31,0.59 -0.32,-0.35 -0.72,-0.65 -1.2,-0.86 -1.41,-0.61 -2.92,-0.14 -3.79,0.98 -0.94,-0.88 -2.5,-0.75 -3.4,0.31 -0.54,-0.56 -1.28,-0.91 -2.17,-0.96 -1.35,-0.07 -2.54,0.85 -3.07,2.03 -0.82,-0.35 -1.75,-0.39 -2.64,-0.13 -0.98,-1.95 -3.96,-2.35 -5.7,-0.77 -1.57,-1.18 -3.9,-1.2 -5.33,0.3 -0.32,-0.28 -0.68,-0.53 -1.07,-0.73 -2.41,-1.26 -5.19,-0.46 -6.64,1.63 -0.56,-0.68 -1.27,-1.21 -2.14,-1.49 -2.45,-0.8 -5.21,0.1 -6.82,2.04 -2.39,-6.19 -3.71,-12.91 -3.71,-19.93 0,-1.49 0.06,-2.96 0.18,-4.41 2.07,0.25 4.25,0.36 6.44,0.37 -0.12,6.25 -0.46,12.7 0.02,18.94l0.03 0.38c0.03,0.35 0.05,0.7 0.08,1.05 0.07,0.73 1.04,0.68 1.12,-0.03l0.04 -0.48c0.42,0.03 0.85,0 1.28,-0.02 0.83,-0.04 1.65,-0.07 2.47,-0.2 0.54,-0.09 0.5,-0.99 -0.03,-1.07 -0.82,-0.14 -1.65,-0.15 -2.47,-0.2 -0.38,-0.02 -0.76,-0.04 -1.13,-0.03 0.02,-0.24 0.04,-0.49 0.05,-0.73 0.46,0.01 0.94,-0.03 1.37,-0.04 0.73,0 1.7,0.12 2.39,-0.17l0.31 -0.27c0.19,-0.25 0.21,-0.6 -0.08,-0.79l-0.38 -0.15c-0.61,-0.17 -1.31,-0.12 -1.93,-0.13 -0.5,0 -1.06,-0.06 -1.6,-0.04 0.01,-0.2 0.02,-0.4 0.03,-0.61l0.32 0.04c0.43,0.03 0.86,0.01 1.29,0.01 0.56,0 1.15,0.04 1.71,-0.01l0.52 -0.11c0.25,-0.12 0.34,-0.33 0.33,-0.55 0.07,-0.32 -0.05,-0.65 -0.5,-0.71l-0.02 -0 -0.28 -0.03c-0.48,-0.04 -0.98,-0.02 -1.47,-0.02 -0.43,-0 -0.87,0.01 -1.3,0.01 -0.15,0 -0.36,0.04 -0.57,0.06 0.01,-0.33 0.01,-0.65 0.02,-0.98 0.27,0.01 0.55,0 0.83,0 0.85,0.01 1.69,0 2.53,-0.12 0.59,-0.09 0.84,-1.04 0.12,-1.15 -0.7,-0.11 -1.39,-0.15 -2.1,-0.14 -0.43,0 -0.92,-0.04 -1.39,-0.02l-0 -0.49 0.33 -0.01c0.5,0 1.27,0.12 1.62,-0.32 0.22,-0.26 0.19,-0.55 -0.02,-0.81 -0.39,-0.48 -1.39,-0.3 -1.93,-0.3l-0 0c-0,-0.23 -0.01,-0.46 -0.01,-0.69 1.15,0.1 2.38,0.02 3.47,-0.11 0.58,-0.07 0.8,-1.03 0.12,-1.11 -1.15,-0.14 -2.42,-0.23 -3.61,-0.12 -0.01,-0.38 -0.01,-0.76 -0.02,-1.14 0.93,0.1 1.97,0.03 2.82,-0.1 0.56,-0.08 0.79,-0.99 0.12,-1.09 -0.91,-0.14 -2,-0.22 -2.98,-0.11 -0.01,-0.29 -0.01,-0.58 -0.02,-0.87 0.47,0.04 0.96,-0 1.4,-0 0.75,-0.01 1.53,-0 2.27,-0.15 0.55,-0.11 0.5,-0.98 -0.03,-1.08 -0.65,-0.13 -1.33,-0.11 -1.99,-0.14 -0.53,-0.02 -1.13,-0.07 -1.69,-0.01 -0.01,-0.28 -0.01,-0.56 -0.02,-0.84 0.37,0.02 0.74,0 1.11,0.01 0.89,0 1.77,0.07 2.63,-0.19 0.59,-0.17 0.52,-0.98 -0.03,-1.15 -0.77,-0.23 -1.53,-0.18 -2.32,-0.18 -0.45,0 -0.95,-0.04 -1.42,-0.01 -0.01,-0.24 -0.01,-0.48 -0.02,-0.72 1.77,-0.02 3.52,-0.1 5.2,-0.2 -0.2,3.34 -0.08,6.71 -0.09,10.05 -0.01,3.52 -0.26,7.2 0.15,10.69 0.07,0.61 1.08,0.84 1.16,0.13 0.39,-3.25 0.15,-6.61 0.18,-9.88 0.01,-1.16 0.02,-2.32 0.03,-3.49 1.81,0.2 3.79,0.3 5.6,0.06 0,1.25 0.01,2.5 0.01,3.74 -0.01,3.11 -0.22,6.34 0.15,9.43 0.07,0.59 1.05,0.82 1.13,0.12 0.34,-2.83 0.17,-5.77 0.17,-8.63 -0.01,-3.08 0.07,-6.2 -0.06,-9.29 0.33,0.25 0.66,0.5 0.99,0.74 0.71,0.52 1.43,1.16 2.21,1.59 -0.15,4.98 -0.26,10.14 0.05,15.11 0.04,0.73 1.08,0.69 1.12,-0.03 0.31,-4.97 0.2,-10.12 0.05,-15.1 0.17,-0.18 0.32,-0.39 0.45,-0.61 -0.07,5.28 -0.44,10.64 0.09,15.86 -0.04,0.39 0.25,0.55 0.56,0.53 0.31,0.03 0.62,-0.15 0.58,-0.55 0.61,-6 0.04,-12.18 0.09,-18.21l-0.04 -0.45 -0.29 -0.33c-0.56,-0.54 -1.27,-0.96 -1.9,-1.4 -0.87,-0.62 -1.76,-1.22 -2.64,-1.83l-0.45 -0.03 -0.31 0.24c-0.33,0.51 -0.66,1.02 -0.98,1.54 -0.24,0.39 -0.55,0.8 -0.71,1.24l-0.09 0.17 -0.06 0.5c-0.08,1.4 -0.11,2.8 -0.12,4.21 -1.8,-0.24 -3.79,-0.15 -5.59,0.06 0.01,-2.22 -0.01,-4.45 -0.16,-6.65 0.21,-0.44 -0.03,-1.09 -0.69,-1.14 -4.31,-0.28 -9.16,-0.42 -13.5,0.1 2.88,-27.87 26.5,-49.68 55.13,-49.68 18.07,0 34.15,8.7 44.27,22.12 -3.91,1.6 -7.88,3.08 -11.84,4.55 -7.66,2.83 -15.48,5.03 -23.2,7.62 -0.56,0.19 -0.46,1.16 0.17,1.06 7.73,-1.23 15.48,-4.48 22.78,-7.23 4.29,-1.61 8.54,-3.32 12.77,-5.08 1.4,1.94 2.68,3.97 3.82,6.08 -9.58,2.83 -19.22,5.43 -28.82,8.16 -0.67,0.19 -0.36,1.18 0.31,1.02 9.78,-2.34 19.41,-5.31 29.05,-8.18 0.35,0.69 0.69,1.38 1.01,2.08 -10.09,2.66 -20.44,4.74 -30.36,7.92 -0.68,0.22 -0.36,1.14 0.31,1.03 10.29,-1.8 20.44,-5.18 30.53,-7.91 2.68,6.11 4.28,12.79 4.58,19.8 -1.56,-0.11 -3.24,-0.09 -4.76,0.06 -0.22,0.02 -0.36,0.14 -0.43,0.28l-0.03 0.06 -0.01 0.04 -0.04 0.17c-0.02,0.78 -0.04,1.56 -0.05,2.35l-0.52 -0.02c-0.23,-0 -0.49,-0.03 -0.75,-0.03 0.16,-4.86 0.2,-9.83 -0.04,-14.68 0.2,-0.32 0.04,-0.83 -0.46,-0.86 -1.43,-0.08 -3.05,-0.27 -4.45,0.05 -0.2,0.05 -0.31,0.19 -0.35,0.35l-0.06 0.25c-0.09,5.03 -0.02,10.07 -0.04,15.1 -0.01,2.77 -0.15,5.56 -0.15,8.34l-0.42 -0c-0.24,0 -0.49,-0.01 -0.74,0.01 0.02,-2.28 0.01,-4.57 -0.06,-6.85l-0.03 -0.14c0.1,-0.31 -0.08,-0.73 -0.51,-0.74 -1.42,-0.04 -2.9,-0.13 -4.31,0.02 -0.45,0.05 -0.58,0.45 -0.43,0.75 -0.01,0.34 -0.02,0.68 -0.03,1.02 -0.66,-0.03 -1.32,-0.05 -1.97,0.01 -0.04,-1.56 -0.04,-3.14 0.26,-4.6 0.15,-0.74 -0.53,-1.04 -1.03,-0.87 -0.72,-0.07 -1.45,-0.05 -2.18,-0.05 -0.89,0 -1.86,-0.1 -2.73,0.14 -0.28,-0.02 -0.59,0.15 -0.6,0.53 -0.04,1.32 -0.07,2.64 -0.09,3.96l-0.04 0.1 0.03 0.45c-0.01,0.81 -0.01,1.62 -0.01,2.43l-0.47 -0.02c-0.26,0.01 -0.51,0.01 -0.77,0.01l-0.42 0.03 -0.21 0.08 -0.09 0.07c-0.24,0.19 -0.38,0.6 -0.09,0.83 0.43,0.34 0.99,0.26 1.52,0.26l0.53 -0.02c0.01,2.12 0.04,4.24 0.09,6.36 -0.17,0.22 -0.19,0.54 0.01,0.71l0 0.25c0.02,0.69 1.05,0.66 1.07,-0.03l0 -0.06c0.5,0.01 1.01,-0 1.5,-0.03 0.71,-0.04 0.67,-1.04 -0.03,-1.08 -0.47,-0.03 -0.97,-0.05 -1.46,-0.04 0,-0.23 0.01,-0.46 0.01,-0.7 0.83,0.1 1.68,0.04 2.5,0.01 0.7,-0.03 0.67,-1.06 -0.03,-1.08 -0.81,-0.03 -1.65,-0.1 -2.46,0 0.01,-0.37 0.01,-0.73 0.02,-1.1 0.43,0.02 0.86,0.03 1.3,-0 0.72,-0.06 0.67,-1.05 -0.03,-1.1 -0.43,-0.04 -0.84,-0.03 -1.26,-0.01 0,-0.29 0.01,-0.59 0.01,-0.88 0.81,0.07 1.66,0.02 2.44,-0.08 0.56,-0.07 0.78,-0.99 0.12,-1.07 -0.83,-0.11 -1.7,-0.16 -2.55,-0.1 0,-0.38 0,-0.76 0,-1.14 0.64,0.03 1.28,0.07 1.91,-0.01 0.57,-0.07 0.78,-1 0.12,-1.08 -0.68,-0.08 -1.36,-0.06 -2.04,-0.02 -0,-0.35 -0,-0.69 -0,-1.03 0.64,-0.02 1.28,-0.02 1.92,-0.07 0.71,-0.05 0.66,-1.04 -0.03,-1.08 -0.63,-0.05 -1.27,-0.05 -1.91,-0.07 -0,-0.3 -0.01,-0.59 -0.02,-0.89 0.78,0.06 1.59,0.09 2.36,-0.04 0.54,-0.09 0.49,-0.98 -0.03,-1.06 -0.77,-0.13 -1.58,-0.09 -2.36,-0.03 -0.01,-0.34 -0.02,-0.69 -0.03,-1.03 0.64,0.08 1.31,0.04 1.94,0.04 0.69,0 1.39,0.03 2.08,-0.01 0.36,2.06 0.12,4.35 0.12,6.42 0,2.28 -0.01,4.55 0.04,6.83 0.02,0.69 1.04,0.65 1.06,-0.03 0.04,-1.94 0.04,-3.89 0.04,-5.83 0,-0.66 -0.02,-1.34 -0.05,-2.03 0.63,0.06 1.27,0.04 1.91,0.01 -0.06,2.69 -0.04,5.39 0.06,8.06 0.03,0.69 1.04,0.66 1.07,-0.03 0.1,-2.79 0.11,-5.61 0.04,-8.42l-0.01 -0.37c-0.01,-0.35 -0.02,-0.71 -0.03,-1.06 1.04,0.06 2.1,0.03 3.15,-0 -0.11,3.69 -0.06,7.4 0.01,11.09 0.01,0.68 1.05,0.65 1.06,-0.03 0.02,-1.09 0.03,-2.19 0.05,-3.28 0.26,0.02 0.53,0 0.78,0.01l0.4 -0c0.02,1.13 0.07,2.26 0.16,3.38 -0.03,0.39 0.27,0.56 0.57,0.54 0.31,0.02 0.63,-0.17 0.6,-0.57 0.34,-3.94 0.06,-7.93 0.03,-11.88 -0.05,-5.19 0.04,-10.37 -0.05,-15.56 0.4,0.05 0.82,0.06 1.23,0.06 -0.21,4.22 -0.06,8.48 -0.06,12.7 -0,4.32 -0.18,8.68 0.04,13 0.04,0.71 1.06,0.67 1.1,-0.03 0.22,-4.32 0.04,-8.68 0.04,-13 -0,-4.23 0.15,-8.49 -0.06,-12.71 0.28,-0.02 0.56,-0.03 0.83,-0.05 -0.23,5 -0.18,10.11 -0.01,15.11 0.02,0.43 0.4,0.58 0.71,0.48 0.33,0.05 0.71,0.01 1.03,0.01 0.21,0 0.42,-0.01 0.63,-0.02 -0.04,3.09 -0.02,6.19 0.05,9.27 0.02,0.7 1.07,0.67 1.09,-0.03 0.09,-4.05 0.11,-8.13 -0.01,-12.18 1.39,0.11 2.86,0.12 4.26,0.02 0.01,0.4 0.02,0.8 0.02,1.21 0,4.87 -0.64,9.6 -1.83,14.11 -1.08,-0.61 -2.74,-0.46 -3.5,0.51zm2.36 3.26c-13.28,-0.28 -26.59,0.66 -39.75,2.58l-0.01 -0.25c-0.02,-0.68 -1.04,-0.65 -1.06,0.03l-0.01 0.39c-7.39,1.11 -14.74,2.53 -22,4.24 -10.92,2.56 -22.22,5.53 -32.45,10.3 -3.42,-4.15 -6.24,-8.81 -8.34,-13.84 1.39,-1.59 3.19,-2.67 5.43,-2.19 2.04,0.44 2.98,2.72 3.5,4.49 0.17,0.59 1.16,0.46 1.09,-0.17 -0.11,-1.01 -0.41,-2.06 -0.91,-3 1.28,-1.71 3.16,-2.46 5.27,-1.48 2.26,1.05 2.36,3.23 1.49,5.26 -0.23,0.55 0.46,1.18 0.9,0.66 1.48,-1.73 1.35,-3.86 0.21,-5.46 1.73,-1.01 3.61,-0.68 4.85,1.14 0.35,0.51 1.23,0.17 1.01,-0.46 -0.14,-0.41 -0.33,-0.77 -0.58,-1.09 1.65,-1.04 3.89,-0.46 4.04,1.79 0.05,0.75 1.07,0.69 1.14,-0.03 0.03,-0.23 0.03,-0.46 0.01,-0.67 0.9,-0.21 1.73,-0.07 2.46,0.61 0.88,0.81 0.73,2.06 0.18,2.99 -0.31,0.53 0.49,1.15 0.88,0.65 1.01,-1.29 1.21,-2.97 0.12,-4.29l-0.33 -0.33c0.4,-0.75 1,-1.34 1.93,-1.39 1.19,-0.06 1.81,1.04 2.23,1.97 0.23,0.51 1.14,0.24 1.06,-0.31 -0.05,-0.35 -0.16,-0.68 -0.29,-0.99 0.3,-0.4 0.7,-0.7 1.22,-0.72 0.65,-0.03 1,0.65 1.22,1.15 0.27,0.6 1.11,0.12 0.99,-0.45l-0.06 -0.21c0.61,-0.98 1.56,-1.44 2.72,-0.92 1.23,0.56 1.36,1.8 1.02,2.96 -0.18,0.61 0.73,0.95 1.02,0.4 0.49,-0.89 0.52,-1.86 0.19,-2.69 0.95,-1.19 2.46,-0.64 2.97,0.64 0.22,0.55 1.18,0.5 1.1,-0.18 -0.06,-0.48 -0.22,-0.89 -0.46,-1.23 0.75,-0.9 1.86,-0.71 2.58,0.37 0.4,0.59 1.22,0.05 0.93,-0.57l-0.29 -0.48c0.4,-0.33 0.87,-0.56 1.42,-0.49 0.75,0.1 1,0.77 1.16,1.41 0.15,0.6 1.1,0.44 1.07,-0.17 -0.02,-0.37 -0.11,-0.7 -0.24,-0.99 0.63,-0.54 1.2,-0.18 1.5,0.56 0.26,0.67 1.16,0.37 1.04,-0.32l-0.03 -0.14 0.24 -0.12c0.96,-0.82 1.86,0.32 2.19,1.17 0.26,0.67 1.18,0.37 1.05,-0.32l-0.05 -0.18c0.26,-0.09 0.52,-0.15 0.8,-0.11 0.59,0.08 1,0.57 1.34,1.01 0.36,0.48 1.28,0.18 1.02,-0.46 -0.11,-0.28 -0.26,-0.53 -0.44,-0.75 1.15,-1.3 3.07,-0.14 3.33,1.43 0.1,0.59 0.96,0.46 1.09,-0.03 0.18,-0.64 -0,-1.26 -0.36,-1.79 0.51,-0.34 1.13,-0.29 1.55,0.3l0.43 0.23 0.03 0 0.13 -0.01 0.02 -0 0.29 -0.15c0.56,-0.35 0.96,-0.72 1.7,-0.77 1.02,-0.07 1.34,0.6 1.75,1.4 0.28,0.55 1.01,0.19 1.05,-0.31l0 -0.1c0.3,-0.14 0.6,-0.24 0.94,-0.26 0.59,-0.04 0.87,0.27 1.06,0.8 0.21,0.58 1.11,0.48 1.09,-0.18 -0.01,-0.38 -0.11,-0.7 -0.27,-0.96 0.23,-0.38 0.68,-0.59 1.12,-0.64 0.72,-0.07 1.19,0.33 1.62,0.85 0.29,0.35 0.81,0.1 0.91,-0.27 0.84,-1.13 2.08,-0.93 3.01,0.05 0.45,0.47 1.09,-0.16 0.83,-0.68l-0.02 -0.03c0.89,-0.72 2.05,-0.54 2.56,0.65 0.29,0.65 1.21,0.39 1.07,-0.33l-0.09 -0.31c0.72,-0.27 1.64,-0.15 1.96,0.63 0.22,0.52 1.13,0.49 1.06,-0.17l-0.07 -0.38c0.78,-0.46 1.64,-0.29 2.15,0.6 0.27,0.46 1.13,0.26 1.05,-0.31l-0.09 -0.4c0.53,-0.15 0.98,0.09 1.48,0.55 0.4,0.38 0.96,-0.01 0.91,-0.47 0.7,-0.71 1.71,-0.81 2.36,0.1 0.35,0.49 1.17,0.17 0.99,-0.44l-0.05 -0.14c0.21,-0.12 0.44,-0.18 0.73,-0.18 0.49,0.01 0.72,0.38 0.92,0.76 0.26,0.46 1.07,0.24 1.01,-0.3l-0.07 -0.35c0.33,-0.36 0.71,-0.56 1.24,-0.58 0.47,-0.02 0.8,0.16 1.07,0.45 -0.24,0.81 -0.49,1.62 -0.76,2.42zm-52.46 37.54c-16.8,0 -31.89,-7.52 -42.06,-19.37 10.05,-4.25 20.84,-7.09 31.42,-9.61 20.54,-4.9 41.58,-7.38 62.69,-7.4 -7.78,21.21 -28.18,36.39 -52.05,36.39zm0 -112.4c-31.42,0 -56.97,25.56 -56.97,56.97 0,31.41 25.56,56.97 56.97,56.97 31.41,0 56.97,-25.56 56.97,-56.97 0,-31.42 -25.56,-56.97 -56.97,-56.97z"/>
  <polygon class="fil0" points="25.69,92.15 25.1,92.2 22.32,95.45 22.37,96.04 23.82,97.28 24.09,97.38 24.12,97.38 24.4,97.23 24.46,97.16 24.41,96.58 23.34,95.67 24.26,94.59 24.98,95.21 25.28,95.3 25.56,95.16 25.62,95.09 25.58,94.51 24.86,93.89 25.47,93.18 26.54,94.09 27.12,94.04 27.18,93.97 27.28,93.67 27.14,93.39 "/>
  <path class="fil0" d="M33.54 99.67c-0.18,0.32 -0.37,0.37 -0.53,0.38l-0.48 -0.15 -0.56 -0.32 0.69 -1.22 0.57 0.32 0.39 0.38c0.06,0.11 0.11,0.3 -0.07,0.61zm0.9 -1.01c-0.15,-0.31 -0.41,-0.57 -0.76,-0.78l-1 -0.57 -0.31 -0.04 -0.25 0.19 -2.1 3.69 -0.04 0.32 0.2 0.25 0.08 0.05 0.2 0.05 0.36 -0.21 0.69 -1.22 0.56 0.32c0.35,0.2 0.69,0.29 1.05,0.26 0.35,-0.03 0.85,-0.19 1.22,-0.84 0.36,-0.64 0.26,-1.15 0.1,-1.47z"/>
  <path class="fil0" d="M36.79 99.57c-0.21,-0.09 -0.45,0 -0.54,0.21l-1.74 3.87c-0.09,0.21 0,0.46 0.21,0.55l1.74 0.78 0.17 0.04 0.15 -0.03 0.23 -0.22 0.04 -0.08c0.1,-0.21 0,-0.45 -0.21,-0.54l-1.28 -0.58 1.53 -3.41 0.01 -0.32 -0.22 -0.23 -0.08 -0.04z"/>
  <path class="fil0" d="M43 102l-0.09 -0.03 -0.32 0.02 -0.21 0.24 -0.97 2.87 -0.36 0.41 -0.54 0.03 -0.41 -0.36c-0.09,-0.18 -0.1,-0.35 -0.03,-0.54l0.97 -2.87c0.07,-0.22 -0.04,-0.45 -0.26,-0.52l-0.08 -0.03 -0.32 0.02 -0.21 0.24 -0.97 2.87c-0.15,0.42 -0.12,0.84 0.08,1.24 0.2,0.4 0.51,0.68 0.94,0.82l0.53 0.09c0.24,0 0.48,-0.06 0.71,-0.17 0.4,-0.2 0.68,-0.51 0.82,-0.94l0.97 -2.87c0.07,-0.22 -0.04,-0.45 -0.26,-0.53z"/>
  <path class="fil0" d="M46.46 104.53c-0.08,0.36 -0.25,0.46 -0.36,0.5l-0.26 0.04 -0.29 -0.04 -0.63 -0.15 0.32 -1.37 0.63 0.15c0.22,0.05 0.37,0.13 0.48,0.25 0.08,0.09 0.19,0.26 0.1,0.61zm-0.37 -1.76l-1.12 -0.26 -0.31 0.05 -0.18 0.26 -0.97 4.13 0.05 0.31 0.25 0.18 0.09 0.02c0.22,0.05 0.44,-0.09 0.5,-0.31l0.32 -1.37 0.63 0.15 0.02 0.01 0.4 1.74c0.04,0.19 0.21,0.32 0.4,0.32l0.08 -0.01 0.09 -0.02 0.27 -0.18 0.06 -0.32 -0.36 -1.55c0.53,-0.15 0.9,-0.56 1.05,-1.2 0.17,-0.72 -0.08,-1.18 -0.32,-1.44 -0.23,-0.26 -0.55,-0.44 -0.95,-0.53z"/>
  <path class="fil0" d="M50.57 103.66l-0.09 -0.01c-0.22,-0.03 -0.43,0.13 -0.47,0.35l-0.57 4.16 0.08 0.31 0.27 0.16 0.09 0.01 0.06 0.01c0.21,0 0.38,-0.15 0.41,-0.36l0.57 -4.16 -0.08 -0.31 -0.28 -0.16z"/>
  <path class="fil0" d="M55.23 108.08l-0.41 0.11 -0 0 -0.71 -0.03 0.06 -1.41 0.78 0.03c0.55,0.13 0.61,0.43 0.6,0.73 -0.01,0.36 -0.18,0.49 -0.32,0.57zm-0.99 -3.19l0.71 0.03 0.33 0.09c0.08,0.05 0.16,0.14 0.15,0.4l-0.2 0.36 -0.2 0.09 -0.82 -0.03 0.04 -0.94zm2.11 0.56c0.03,-0.67 -0.29,-1.03 -0.57,-1.21 -0.23,-0.15 -0.49,-0.23 -0.79,-0.24l-1.21 -0.05c-0.22,-0.01 -0.42,0.17 -0.43,0.4l-0.18 4.28 0.11 0.29 0.29 0.13 1.21 0.05 0.07 0c0.27,0 0.55,-0.07 0.82,-0.21 0.5,-0.27 0.78,-0.73 0.8,-1.34 0.02,-0.52 -0.13,-0.94 -0.45,-1.24 0.2,-0.23 0.32,-0.52 0.33,-0.86z"/>
  <path class="fil0" d="M60.97 104.06l-0.3 -0.1 -0.1 0c-0.23,0.01 -0.4,0.21 -0.39,0.43l0.16 3.03c0.01,0.2 -0.05,0.36 -0.18,0.52 -0.13,0.15 -0.29,0.22 -0.53,0.23l-0.47 -0.18c-0.15,-0.13 -0.22,-0.29 -0.23,-0.49l-0.16 -3.03 -0.14 -0.28 -0.3 -0.11 -0.09 0c-0.23,0.01 -0.4,0.21 -0.39,0.44l0.16 3.03c0.02,0.45 0.2,0.83 0.53,1.12 0.31,0.27 0.67,0.42 1.08,0.42l0.1 -0c0.45,-0.03 0.82,-0.21 1.12,-0.53 0.3,-0.33 0.44,-0.73 0.42,-1.17l-0.16 -3.03 -0.14 -0.29z"/>
  <path class="fil0" d="M65.01 105.83c-0.26,-0.09 -0.5,-0.16 -0.69,-0.23l-0.49 -0.16c-0.34,-0.11 -0.4,-0.28 -0.43,-0.43l0.07 -0.33c0.04,-0.07 0.14,-0.18 0.38,-0.21 0.17,-0.03 0.51,0.01 0.98,0.1l0.45 -0.23 0.04 -0.08 0.01 -0.33 -0.23 -0.23c-0.41,-0.17 -0.87,-0.21 -1.39,-0.14 -0.45,0.07 -0.8,0.28 -1.02,0.64 -0.18,0.29 -0.25,0.61 -0.2,0.95 0.06,0.43 0.29,0.77 0.65,1l0.05 0.03 0.29 0.12 0.27 0.1 0.75 0.24 0.31 0.12 0.17 0.09 0.17 0.29 -0.08 0.32c-0.07,0.12 -0.17,0.18 -0.37,0.2 -0.15,0 -0.48,-0.04 -1.21,-0.25l-0.48 0.21 -0.04 0.08 -0.03 0.32 0.2 0.24c0.25,0.13 0.53,0.22 0.84,0.28l0.53 0.05 0.36 -0.03c0.41,-0.06 0.75,-0.28 0.97,-0.62 0.19,-0.3 0.26,-0.62 0.21,-0.95 -0.06,-0.38 -0.28,-0.88 -1.04,-1.16z"/>
  <path class="fil0" d="M74.24 101.3l-0.21 -0.24 -0.32 -0.02 -0.09 0.03c-0.22,0.07 -0.33,0.31 -0.25,0.53l1 2.86c0.07,0.19 0.06,0.36 -0.03,0.54l-0.4 0.36c-0.19,0.07 -0.36,0.06 -0.54,-0.03 -0.18,-0.09 -0.29,-0.21 -0.36,-0.4l-1 -2.86 -0.21 -0.24 -0.32 -0.02 -0.08 0.03c-0.22,0.08 -0.33,0.31 -0.25,0.53l1 2.86c0.15,0.42 0.43,0.73 0.83,0.93 0.22,0.11 0.46,0.16 0.69,0.16l0.55 -0.1c0.42,-0.15 0.73,-0.42 0.93,-0.83 0.19,-0.4 0.22,-0.82 0.07,-1.24l-1 -2.86z"/>
  <path class="fil0" d="M78.35 99.46c-0.09,-0.21 -0.34,-0.3 -0.55,-0.2l-0.09 0.04 -0.21 0.23 0.01 0.32 1.01 2.2 -2.42 -1.77 -0.42 -0.04 -0.09 0.04c-0.21,0.09 -0.3,0.34 -0.2,0.55l1.76 3.81 0.23 0.22 0.14 0.03 0.17 -0.04 0.08 -0.04c0.21,-0.1 0.3,-0.34 0.2,-0.55l-1.01 -2.2 2.43 1.77 0.41 0.04 0.09 -0.04 0.21 -0.23 -0.01 -0.32 -1.76 -3.81z"/>
  <path class="fil0" d="M82.28 97.24c-0.11,-0.2 -0.37,-0.26 -0.57,-0.15l-0.08 0.05 -0.2 0.25 0.04 0.32 1.53 2.62c0.1,0.17 0.12,0.34 0.07,0.54 -0.05,0.19 -0.15,0.33 -0.33,0.43 -0.18,0.1 -0.35,0.12 -0.54,0.08 -0.2,-0.05 -0.33,-0.16 -0.43,-0.33l-1.53 -2.62 -0.25 -0.19 -0.31 0.04 -0.08 0.04c-0.2,0.12 -0.26,0.37 -0.15,0.57l1.52 2.62c0.22,0.39 0.56,0.64 0.99,0.75l0.42 0.06c0.28,0 0.56,-0.08 0.81,-0.23 0.39,-0.23 0.64,-0.56 0.76,-0.99 0.11,-0.43 0.06,-0.85 -0.17,-1.23l-1.53 -2.62z"/>
  <polygon class="fil0" points="86.17,94.52 85.59,94.43 85.51,94.49 85.34,94.86 85.5,96.78 83.73,96.01 83.33,96.06 83.24,96.12 83.15,96.69 85.6,100.1 85.87,100.27 85.93,100.27 86.18,100.2 86.25,100.14 86.35,99.56 84.87,97.5 85.91,97.96 86.31,97.91 86.49,97.54 86.39,96.41 87.87,98.47 88.14,98.64 88.45,98.57 88.52,98.51 88.62,97.93 "/>
  <path class="fil0" d="M28.62 25.68l0.4 0.19 0.32 -0.11 0.11 -0.09 0.19 -0.35 -0.11 -0.38 -2.51 -3.14 1.85 0.69 0.5 -0.08 0.19 -0.47 -0.26 -1.95 2.5 3.14 0.35 0.19 0.38 -0.11 0.11 -0.09c0.22,-0.18 0.26,-0.5 0.08,-0.73l-3.83 -4.79 -0.35 -0.19 -0.38 0.11 -0.12 0.09 -0.19 0.47 0.4 2.93 -2.77 -1.03 -0.5 0.08 -0.11 0.09c-0.22,0.18 -0.26,0.5 -0.08,0.73l3.83 4.79z"/>
  <path class="fil0" d="M37.23 19.73l0.3 0.25 0.16 0.03 0.24 -0.06 0.12 -0.06c0.25,-0.13 0.35,-0.44 0.22,-0.7l-2.8 -5.45 -0.3 -0.26 -0.39 0.03 -0.12 0.06c-0.25,0.13 -0.35,0.44 -0.22,0.7l2.8 5.45z"/>
  <path class="fil0" d="M43.26 15.26c0.19,0.67 0.54,1.16 1.04,1.44 0.3,0.17 0.64,0.26 1.01,0.26 0.24,0 0.5,-0.04 0.76,-0.11l0.98 -0.27 0.31 -0.25 0.05 -0.39 -0.03 -0.12c-0.08,-0.28 -0.36,-0.44 -0.64,-0.36l-0.98 0.28c-0.37,0.1 -0.66,0.09 -0.89,-0.04 -0.23,-0.13 -0.39,-0.37 -0.49,-0.74l-0.73 -2.62c-0.1,-0.37 -0.09,-0.65 0.04,-0.88 0.13,-0.23 0.37,-0.39 0.74,-0.49l0.98 -0.28 0.31 -0.24 0.05 -0.39 -0.04 -0.13c-0.08,-0.27 -0.37,-0.43 -0.64,-0.36l-0.98 0.28c-0.67,0.19 -1.15,0.54 -1.44,1.05 -0.29,0.5 -0.33,1.1 -0.15,1.77l0.73 2.62z"/>
  <path class="fil0" d="M51.8 15.46l0.34 0.13 0.04 -0 0.13 -0.01c0.29,-0.02 0.5,-0.27 0.48,-0.55l-0.2 -2.81 2.23 -0.16 0.2 2.81c0.02,0.29 0.27,0.5 0.56,0.48l0.14 -0.01 0.36 -0.18 0.12 -0.38 -0.44 -6.11 -0.18 -0.36 -0.38 -0.12 -0.14 0.01c-0.28,0.02 -0.5,0.27 -0.48,0.55l0.15 2.13 -2.23 0.16 -0.15 -2.13 -0.18 -0.35 -0.38 -0.12 -0.13 0.01c-0.28,0.02 -0.5,0.27 -0.48,0.55l0.44 6.12 0.18 0.35z"/>
  <path class="fil0" d="M62.2 15.67l0.14 0.02 0.06 0c0.26,0 0.48,-0.19 0.51,-0.45l0.77 -6.08 -0.1 -0.38 -0.35 -0.2 -0.14 -0.02c-0.28,-0.04 -0.54,0.17 -0.58,0.45l-0.77 6.08 0.1 0.38 0.35 0.2z"/>
  <path class="fil0" d="M70.36 17.61l1.68 0.57 0.17 0.03 0.23 -0.05 0.26 -0.3 1.14 -3.35c0.09,-0.27 -0.06,-0.56 -0.33,-0.66l-1.03 -0.35c-0.27,-0.09 -0.56,0.05 -0.65,0.32l-0.04 0.13 0.02 0.39 0.3 0.26 0.41 0.14 -0.72 2.12 -1.06 -0.36c-0.32,-0.11 -0.53,-0.29 -0.67,-0.56 -0.13,-0.27 -0.14,-0.55 -0.03,-0.86l0.87 -2.58c0.11,-0.33 0.3,-0.54 0.61,-0.66 0.28,-0.12 0.53,-0.13 0.82,-0.03l1.61 0.55 0.4 -0.03 0.26 -0.3 0.04 -0.13c0.09,-0.27 -0.06,-0.56 -0.33,-0.65l-1.61 -0.55c-0.54,-0.18 -1.11,-0.16 -1.64,0.06 -0.61,0.25 -1.04,0.71 -1.26,1.37l-0.87 2.58c-0.21,0.61 -0.17,1.2 0.1,1.75 0.28,0.55 0.72,0.94 1.33,1.14z"/>
  <path class="fil0" d="M80.36 16.86l-0.43 2.05 -1.15 -0.67 1.58 -1.38zm-4.25 3.07c0.19,0.2 0.51,0.22 0.71,0.03l1.03 -0.9 1.82 1.06 -0.28 1.34c-0.06,0.27 0.11,0.54 0.38,0.61l0.13 0.03 0.13 0.02 0.27 -0.08 0.23 -0.33 1.32 -6.3c0.05,-0.22 -0.05,-0.44 -0.24,-0.55l-0.13 -0.07c-0.19,-0.11 -0.43,-0.09 -0.6,0.06l-4.83 4.25 -0.18 0.36 0.14 0.38 0.09 0.1z"/>
  <path class="fil0" d="M83.46 24.81c0.21,0.19 0.54,0.17 0.73,-0.04l2.58 -2.89 -1.03 4.6 0.16 0.5 0.11 0.1 0.34 0.13 0.39 -0.17 4.08 -4.58 0.13 -0.37 -0.17 -0.35 -0.1 -0.09c-0.21,-0.19 -0.54,-0.17 -0.73,0.04l-2.58 2.89 1.04 -4.6 -0.16 -0.5 -0.11 -0.1c-0.21,-0.19 -0.54,-0.17 -0.73,0.04l-4.08 4.57 -0.13 0.38 0.18 0.36 0.1 0.09z"/>
  <path class="fil0" d="M43.62 45.43c0.3,-0.31 0.59,-0.64 0.88,-0.94 0.52,-0.53 1.04,-1.07 1.55,-1.61 0.52,0.55 1.04,1.09 1.57,1.63 0.3,0.31 0.6,0.65 0.92,0.97 -1.61,-0.12 -3.3,-0.15 -4.93,-0.06zm22.21 16.35c-0.24,-0.07 -0.48,-0.06 -0.72,-0.05l-0.01 0c0.12,-10 -0.05,-20.03 -0.21,-30.01 -0.01,-0.39 -0.32,-0.56 -0.61,-0.53 -1.16,-0.03 -2.32,-0.04 -3.48,-0.04 -0.66,-0.01 -1.32,0 -1.99,0.01 -0.65,0 -1.8,0.23 -2.4,-0.1 -0.92,-0.5 -1.25,0.55 -0.97,1.13 -0.31,9.73 -0.32,19.57 -0.15,29.35 -0.73,-0.06 -1.46,-0.05 -2.19,-0.05 -0.79,0 -1.7,-0.1 -2.55,-0.04 -0.01,-0.6 -0.01,-1.2 -0.01,-1.8 0,-0.57 0,-1.15 0.01,-1.72 0.32,0.01 0.65,-0.02 0.95,-0.01 0.25,0 0.51,0 0.77,-0.01l0.02 0.51c0,0.58 0.01,1.14 0.08,1.71 0.07,0.59 1.04,0.81 1.12,0.13 0.07,-0.57 0.1,-1.12 0.1,-1.69 0,-0.41 0.09,-0.97 -0.06,-1.38 -0.04,-0.2 -0.16,-0.38 -0.37,-0.43l-0.26 -0.05c-0.47,-0.07 -0.96,-0.07 -1.43,-0.07 -0.28,-0 -0.6,-0.03 -0.9,-0.02 0.05,-3.6 0.12,-7.23 -0.16,-10.8 -0.02,-0.2 -0.11,-0.34 -0.23,-0.42 -0.46,-0.66 -1.14,-1.21 -1.7,-1.76 -0.6,-0.59 -1.21,-1.17 -1.81,-1.75 0.08,-0.76 0.03,-1.52 -0.01,-2.28 -0.05,-1.16 0.06,-2.33 -0.04,-3.48 -0.07,-0.72 -1.04,-0.67 -1.1,0.03 -0.09,1.03 -0.02,2.09 -0.03,3.12 -0.01,0.88 -0.1,1.74 -0.02,2.61 -0.62,0.59 -1.23,1.18 -1.84,1.78 -0.57,0.56 -1.23,1.1 -1.69,1.77l-0.19 0.31c-0.19,0.2 -0.24,0.51 -0.09,0.71 -0.13,1.38 -0.22,2.82 -0.25,4.28 -0.73,-0.08 -1.46,-0.06 -2.21,-0.06 -1.11,-0 -2.31,-0.14 -3.39,0.13l-0.08 0.02 -0.03 0.01c-0.43,0.12 -0.53,0.58 -0.36,0.91 -0.15,1.26 -0.15,2.64 0.03,3.86 0.08,0.57 1.01,0.8 1.11,0.12 0.16,-1.11 0.19,-2.34 0.1,-3.5 0.72,0.07 1.48,0 2.2,0 0.89,-0 1.76,0.03 2.64,-0.07 0.01,1.52 0.09,3.03 0.26,4.45 -2.72,-0.09 -5.51,-0.09 -8.12,0.23 -0.23,0.03 -0.39,0.15 -0.48,0.31l-0.03 0.04 -0.03 0.05 -0.08 0.4c-0.17,1.58 -0.17,3.18 -0.15,4.78 -0.52,-0.02 -1.04,0 -1.56,0.01 -0.68,0.02 -0.65,1.03 0.03,1.05 0.52,0.01 1.03,0.03 1.55,0.01 0,0.28 0,0.57 0,0.85 -0,2.54 -0.25,5.18 0.06,7.7 0.04,0.37 0.28,0.55 0.54,0.59 0.31,0.08 0.67,-0.04 0.72,-0.45 0.28,-2.28 0.08,-4.61 0.08,-6.91 -0,-2.35 0.14,-4.76 -0.08,-7.1 3.3,0.33 6.83,0.23 10.15,0.07 -0.32,4.61 -0.33,9.4 -0.05,13.99 0.05,0.87 1.27,0.81 1.32,-0.03 0.28,-4.73 0.27,-9.67 -0.08,-14.4 0.18,-0.43 -0.05,-1.03 -0.67,-1.06 -0.63,-0.03 -1.27,-0.06 -1.91,-0.09 0.37,-3.19 0.32,-6.74 0.03,-9.96 2.08,0.17 4.3,0.15 6.34,-0.04 -0.25,4 -0.08,8.06 -0.09,12.05 -0,1.09 -0.02,2.19 -0.04,3.29l-0.01 0.36c-0.05,3.19 -0.11,6.4 0.17,9.55 0.07,0.75 1.08,0.7 1.15,-0.03 0.26,-2.95 0.2,-5.96 0.16,-8.94 0.72,0.04 1.48,-0.04 2.16,-0.04 0.86,0 1.72,0.02 2.58,-0.06 0.05,2.63 0.1,5.26 0.17,7.89 -0.01,0.36 0.27,0.53 0.55,0.52 0.29,0 0.57,-0.18 0.56,-0.55 0.33,-12.73 0.45,-25.63 0.05,-38.36 0.5,-0.14 1.25,-0 1.7,-0 0.83,0 1.65,0.01 2.48,0.01 0.97,0 1.94,-0.01 2.91,-0.03 -0.22,13.15 -0.43,26.37 0.02,39.5 0.03,0.73 1.1,0.69 1.13,-0.03 0.1,-2.94 0.16,-5.89 0.2,-8.84 0.26,0.01 0.52,0.02 0.78,-0.06 0.56,-0.15 0.5,-0.95 -0.03,-1.1z"/>
  <path class="fil0" d="M57.26 30.61c0.83,0.25 1.73,0.14 2.59,0.14 0.95,-0 1.91,0.04 2.85,-0.08 0.58,-0.08 0.81,-1.03 0.12,-1.12 -0.86,-0.12 -1.73,-0.1 -2.6,-0.1 -0.98,0 -2.05,-0.14 -2.99,0.14 -0.52,0.15 -0.47,0.87 0.03,1.02z"/>
  <path class="fil0" d="M62.5 33.43c-1.51,0.02 -3.02,-0.04 -4.53,0.03 -0.68,0.03 -0.64,1.01 0.03,1.04 1.5,0.07 3.02,0.01 4.52,0.03 0.71,0.01 0.68,-1.11 -0.03,-1.1z"/>
  <path class="fil0" d="M62.5 35.21c-1.51,0.02 -3.02,-0.04 -4.53,0.03 -0.68,0.03 -0.64,1.01 0.03,1.04 1.5,0.07 3.02,0.01 4.52,0.03 0.71,0.01 0.68,-1.11 -0.03,-1.11z"/>
  <path class="fil0" d="M62.5 37c-1.51,0.02 -3.02,-0.04 -4.53,0.03 -0.68,0.03 -0.64,1.01 0.03,1.04 1.5,0.07 3.02,0.01 4.52,0.03 0.71,0.01 0.68,-1.11 -0.03,-1.1z"/>
  <path class="fil0" d="M62.5 38.79c-1.51,0.02 -3.02,-0.04 -4.53,0.03 -0.68,0.03 -0.64,1.01 0.03,1.04 1.5,0.07 3.02,0.01 4.52,0.03 0.71,0.01 0.68,-1.11 -0.03,-1.1z"/>
  <path class="fil0" d="M62.5 40.58c-1.51,0.02 -3.02,-0.04 -4.53,0.03 -0.68,0.03 -0.64,1.01 0.03,1.04 1.5,0.07 3.02,0.01 4.52,0.03 0.71,0.01 0.68,-1.11 -0.03,-1.1z"/>
  <path class="fil0" d="M62.5 42.37c-1.51,0.02 -3.02,-0.04 -4.53,0.03 -0.68,0.03 -0.64,1.01 0.03,1.04 1.5,0.07 3.02,0.01 4.52,0.03 0.71,0.01 0.68,-1.11 -0.03,-1.1z"/>
  <path class="fil0" d="M62.5 44.16c-1.51,0.02 -3.02,-0.04 -4.53,0.03 -0.68,0.03 -0.64,1.01 0.03,1.04 1.5,0.07 3.02,0.01 4.52,0.03 0.71,0.01 0.68,-1.11 -0.03,-1.1z"/>
  <path class="fil0" d="M62.5 45.94c-1.51,0.02 -3.02,-0.04 -4.53,0.03 -0.68,0.03 -0.64,1.01 0.03,1.04 1.5,0.07 3.02,0.01 4.52,0.03 0.71,0.01 0.68,-1.11 -0.03,-1.1z"/>
  <path class="fil0" d="M62.5 47.73c-1.51,0.02 -3.02,-0.04 -4.53,0.03 -0.68,0.03 -0.64,1.01 0.03,1.04 1.5,0.07 3.02,0.01 4.52,0.03 0.71,0.01 0.68,-1.11 -0.03,-1.1z"/>
  <path class="fil0" d="M62.5 49.52c-1.51,0.02 -3.02,-0.04 -4.53,0.03 -0.68,0.03 -0.64,1.01 0.03,1.04 1.5,0.07 3.02,0.01 4.52,0.03 0.71,0.01 0.68,-1.11 -0.03,-1.1z"/>
  <path class="fil0" d="M62.5 51.31c-1.51,0.02 -3.02,-0.04 -4.53,0.03 -0.68,0.03 -0.64,1.01 0.03,1.04 1.5,0.07 3.02,0.01 4.52,0.03 0.71,0.01 0.68,-1.11 -0.03,-1.1z"/>
  <path class="fil0" d="M62.5 53.1c-1.51,0.02 -3.02,-0.04 -4.53,0.03 -0.68,0.03 -0.64,1.01 0.03,1.04 1.5,0.07 3.02,0.01 4.52,0.03 0.71,0.01 0.68,-1.11 -0.03,-1.1z"/>
  <path class="fil0" d="M62.5 54.88c-1.51,0.02 -3.02,-0.04 -4.53,0.03 -0.68,0.03 -0.64,1.01 0.03,1.04 1.5,0.07 3.02,0.01 4.52,0.03 0.71,0.01 0.68,-1.11 -0.03,-1.11z"/>
  <path class="fil0" d="M62.5 56.67c-1.51,0.02 -3.02,-0.04 -4.53,0.03 -0.68,0.03 -0.64,1.01 0.03,1.04 1.5,0.07 3.02,0.01 4.52,0.03 0.71,0.01 0.68,-1.11 -0.03,-1.1z"/>
  <path class="fil0" d="M62.5 58.46c-1.51,0.02 -3.02,-0.04 -4.53,0.03 -0.68,0.03 -0.64,1.01 0.03,1.04 1.5,0.07 3.02,0.01 4.52,0.03 0.71,0.01 0.68,-1.11 -0.03,-1.11z"/>
  <path class="fil0" d="M62.5 60.25c-1.51,0.02 -3.02,-0.04 -4.53,0.03 -0.68,0.03 -0.64,1.01 0.03,1.04 1.5,0.07 3.02,0.01 4.52,0.03 0.71,0.01 0.68,-1.11 -0.03,-1.1z"/>
  <path class="fil0" d="M62.5 62.04c-1.51,0.02 -3.02,-0.04 -4.53,0.03 -0.68,0.03 -0.64,1.01 0.03,1.04 1.5,0.07 3.02,0.01 4.52,0.03 0.71,0.01 0.68,-1.11 -0.03,-1.1z"/>
  <path class="fil0" d="M62.5 63.83c-1.51,0.02 -3.02,-0.04 -4.53,0.03 -0.68,0.03 -0.64,1.01 0.03,1.04 1.5,0.07 3.02,0.01 4.52,0.03 0.71,0.01 0.68,-1.11 -0.03,-1.1z"/>
  <path class="fil0" d="M62.5 65.61c-1.51,0.02 -3.02,-0.04 -4.53,0.03 -0.68,0.03 -0.64,1.01 0.03,1.04 1.5,0.07 3.02,0.01 4.52,0.03 0.71,0.01 0.68,-1.11 -0.03,-1.1z"/>
  <path class="fil0" d="M62.5 67.44c-1.51,0.02 -3.02,-0.04 -4.53,0.03 -0.68,0.03 -0.64,1.01 0.03,1.04 1.5,0.07 3.02,0.01 4.52,0.03 0.71,0.01 0.68,-1.11 -0.03,-1.1z"/>
  <path class="fil0" d="M62.5 69.27c-1.51,0.02 -3.02,-0.04 -4.53,0.03 -0.68,0.03 -0.64,1.01 0.03,1.04 1.5,0.07 3.02,0.01 4.52,0.03 0.71,0.01 0.68,-1.11 -0.03,-1.1z"/>
  <path class="fil0" d="M30 80.44c-0.12,-0.46 -0.33,-0.88 -0.64,-1.18 -0.45,-0.44 -1.12,0.15 -0.83,0.67 0.36,0.66 0.38,1.33 0.43,2.06 0.04,0.61 0.92,0.73 1.08,0.12l0.07 -0.46c0.38,0.02 0.74,0.11 1.07,0.37 0.48,0.39 0.56,0.94 0.52,1.52 -0.04,0.54 0.86,0.78 1.06,0.26 0.73,-1.85 -0.98,-3.58 -2.76,-3.37z"/>
  <path class="fil0" d="M19.64 84.56c-0.3,-0.41 -0.68,-0.78 -1.14,-1.06 -1.44,-0.86 -3.19,-0.24 -4.21,0.95 -0.45,0.52 0.29,1.23 0.78,0.74 0.8,-0.8 1.8,-1.18 2.85,-0.64 1.11,0.56 1.27,1.86 1.2,2.96 -0.04,0.64 0.94,0.71 1.09,0.12 0.17,-0.67 0.15,-1.34 -0.03,-1.96 0.38,-0.28 0.79,-0.46 1.29,-0.37 0.64,0.12 0.93,0.77 1.11,1.32 0.2,0.6 1.12,0.47 1.1,-0.18 -0.06,-2.18 -2.55,-3.1 -4.04,-1.89z"/>
  <path class="fil0" d="M42.17 79.31c-0.01,-0.22 -0.04,-0.44 -0.1,-0.63 -0.16,-0.6 -1.05,-0.43 -1.05,0.17 0,0.5 -0.16,0.97 -0.18,1.47 -0.02,0.59 0.75,0.67 1.03,0.25l0.01 -0.02 0.4 0.15c0.35,0.17 0.57,0.47 0.84,0.73 0.4,0.4 1.04,-0.04 0.9,-0.55 -0.23,-0.82 -1.03,-1.41 -1.87,-1.57z"/>
  <path class="fil0" d="M47.78 79.27l-0.18 0.34c-0.24,0.48 0.29,1.03 0.76,0.73 0.33,-0.21 0.51,-0.58 0.4,-0.96 -0.14,-0.45 -0.74,-0.49 -0.98,-0.1z"/>
  <path class="fil0" d="M52.98 77.67c-0.04,0.4 0.05,0.82 -0.12,1.2 -0.1,0.22 -0.09,0.48 0.1,0.65 0.2,0.19 0.58,0.21 0.76,-0.02 0.44,-0.54 0.57,-1.36 0.24,-1.99 -0.2,-0.39 -0.94,-0.31 -0.99,0.15z"/>
  <path class="fil0" d="M56.85 77.3l0 0.35c0.07,0.69 0.99,0.64 1.06,-0.03l0 -0.35c-0.02,-0.69 -1.03,-0.65 -1.06,0.03z"/>
  <path class="fil0" d="M61.89 76.18c-0,0.31 0,0.59 -0.07,0.89 -0.13,0.57 0.73,0.95 0.98,0.39 0.19,-0.43 0.17,-0.85 0.15,-1.3 -0.02,-0.69 -1.05,-0.66 -1.06,0.03z"/>
  <path class="fil0" d="M24.75 43.06c-1.92,0.41 -4.08,-0.06 -6.04,0.16l-0.06 0.01c-0.31,0 -0.63,0.22 -0.65,0.63 -0.2,4.36 -0.51,9.11 0.06,13.44 0.08,0.6 1.05,0.83 1.15,0.13 0.55,-4.19 0.3,-8.76 0.1,-13.01 1.69,0.07 3.46,-0.19 5.11,0.07 -0.21,1.73 -0.12,3.64 -0.03,5.34 -0.03,0.44 0.31,0.65 0.65,0.63 0.36,0.02 0.72,-0.21 0.7,-0.67 0.1,-1.81 0.19,-3.85 -0.08,-5.68 0.18,-0.51 -0.11,-1.23 -0.9,-1.06z"/>
  <path class="fil0" d="M11.88 49.24c-2.22,-0.3 -4.78,-0.29 -7.01,-0.05 -0.78,0.08 -0.72,1.11 0.03,1.19 2.16,0.23 4.69,0.27 6.85,-0.03 0.58,-0.08 0.81,-1.02 0.12,-1.12z"/>
  <path class="fil0" d="M71.97 90c-0.11,0.24 -0.2,0.49 -0.3,0.73 -2.18,0 -4.36,0.02 -6.53,0.06 -0.16,-0.27 -0.33,-0.53 -0.51,-0.8 2.44,0.07 4.9,0.08 7.34,0.01zm-6.05 -3.96c0.32,-0.67 0.62,-1.34 0.93,-2 0,1.6 0.03,3.2 0.05,4.8 -0.75,0.01 -1.5,0.02 -2.25,0.04 0.51,-0.9 0.86,-1.99 1.26,-2.84zm2.08 -2.67c0.53,0.81 1.06,1.61 1.59,2.41 0.61,0.92 1.21,2.12 1.95,3.08 -1.19,-0.03 -2.38,-0.04 -3.58,-0.04 0.02,-1.81 0.06,-3.64 0.04,-5.46zm-4.91 6.06l0.07 0.28c0.22,0.37 0.45,0.74 0.68,1.11 -1.08,0.02 -2.16,0.05 -3.24,0.08 -0.74,0.02 -0.7,1.12 0.03,1.13 7.06,0.21 14.23,0.26 21.29,-0.02 0.71,-0.03 0.67,-1.07 -0.03,-1.1 -3,-0.12 -6.03,-0.17 -9.05,-0.18 0.14,-0.33 0.26,-0.66 0.39,-0.99l0.09 -0.33 -0.02 -0.11 -0 -0.02 -0.02 -0.04 -0.02 -0.05c-0.48,-1.35 -1.67,-2.63 -2.46,-3.79 -0.96,-1.41 -1.94,-2.81 -2.91,-4.21l-0.31 -0.23c-0.23,-0.09 -0.5,-0.04 -0.65,0.25l-0.01 0.02 -0.04 0.08c-0.64,1.28 -1.28,2.57 -1.91,3.86 -0.6,1.24 -1.69,2.75 -1.9,4.14l0 0.12z"/>
  <path class="fil0" d="M69.31 93.88c-0.78,0.04 -0.74,1.17 0.03,1.2 4.42,0.21 8.93,0.16 13.36,-0.04 0.73,-0.03 0.69,-1.09 -0.03,-1.12 -4.42,-0.2 -8.94,-0.26 -13.36,-0.04z"/>
  <path class="fil0" d="M66.46 94.09c-4.47,-0.34 -9.29,-0.33 -13.76,-0.02 -0.38,-0.03 -0.56,0.26 -0.53,0.56 -0.02,0.3 0.17,0.62 0.56,0.59 4.47,0.32 9.29,0.32 13.76,-0.02 0.73,-0.06 0.68,-1.06 -0.03,-1.12z"/>
  <path class="fil0" d="M47.21 94c-1.17,0 -2.33,0 -3.5,0.08 -0.75,0.05 -0.7,1.1 0.03,1.15 1.17,0.07 2.33,0.08 3.5,0.08 1.1,-0 2.3,0.15 3.36,-0.14 0.52,-0.14 0.47,-0.89 -0.03,-1.02 -1.06,-0.29 -2.27,-0.14 -3.37,-0.14z"/>
  <path class="fil0" d="M41.1 94.11c-2.26,-0.44 -4.93,-0.18 -7.22,-0.03 -0.38,-0.03 -0.56,0.27 -0.54,0.57 -0.01,0.3 0.17,0.61 0.56,0.58 2.3,0.15 4.95,0.4 7.22,-0.04 0.55,-0.11 0.5,-0.98 -0.03,-1.09z"/>
  <path class="fil0" d="M40.01 96.51c-0.72,0.03 -0.69,1.09 0.03,1.11 5.6,0.2 11.47,0.38 17.06,0 0.73,-0.05 0.69,-1.07 -0.03,-1.12 -5.59,-0.38 -11.46,-0.2 -17.06,0.01z"/>
  <path class="fil0" d="M60.8 97.62c5.41,0.36 11.23,0.46 16.63,0.03 0.38,0.03 0.56,-0.26 0.54,-0.57 0.02,-0.31 -0.17,-0.63 -0.57,-0.6 -5.4,-0.43 -11.22,-0.34 -16.63,0.03 -0.72,0.05 -0.68,1.06 0.03,1.11z"/>
  <path class="fil0" d="M68.62 99.16c-3.66,-0.28 -7.4,-0.07 -11.08,-0.07 -3.68,-0 -7.4,-0.17 -11.07,0.07 -0.77,0.05 -0.72,1.13 0.03,1.17 3.67,0.24 7.4,0.07 11.08,0.07 3.67,-0 7.42,0.21 11.08,-0.07 0.76,-0.06 0.71,-1.11 -0.03,-1.16z"/>
  <path class="fil0" d="M73.04 100.02c0.71,-0.04 0.67,-1.04 -0.03,-1.09 -0.62,-0.04 -1.35,-0.14 -1.95,0.03 -0.53,0.15 -0.47,0.9 0.03,1.04 0.59,0.17 1.34,0.06 1.96,0.02z"/>
  <path class="fil0" d="M63.1 101.33c-2.74,-0.15 -5.8,-0.43 -8.5,0.04 -0.53,0.09 -0.49,0.96 0.03,1.05 2.7,0.47 5.77,0.18 8.5,0.03 0.73,-0.04 0.69,-1.08 -0.03,-1.12z"/>
  <path class="fil0" d="M83.82 90.78c-0.52,0.14 -0.47,0.89 0.02,1.02 0.73,0.2 1.65,0.14 2.38,0.03 0.56,-0.08 0.79,-0.99 0.12,-1.08 -0.79,-0.11 -1.75,-0.19 -2.53,0.02z"/>
  <path class="fil0" d="M97.23 90.56c-2.14,-0.18 -4.51,-0.3 -6.64,0.02 -0.55,0.08 -0.77,0.97 -0.12,1.07 2.18,0.32 4.59,0.22 6.78,0.03 0.73,-0.06 0.68,-1.05 -0.03,-1.12z"/>
  <path class="fil0" d="M95.34 92.81c-1.02,-0.1 -2.15,-0.18 -3.16,0.04 -0.53,0.11 -0.47,0.92 0.03,1.03 1,0.21 2.15,0.14 3.16,0.03 0.72,-0.07 0.67,-1.03 -0.03,-1.1z"/>
  <path class="fil0" d="M75.97 88.56c5.28,0.28 10.74,0.24 16.03,0.01 0.72,-0.03 0.68,-1.08 -0.03,-1.11 -5.29,-0.23 -10.75,-0.27 -16.03,0.01 -0.71,0.04 -0.67,1.05 0.03,1.09z"/>
  <path class="fil0" d="M98.84 87.48c-1.41,-0.16 -3.03,-0.21 -4.42,0.02 -0.53,0.09 -0.48,0.95 0.02,1.03 1.34,0.22 2.93,0.18 4.28,0.03 0.57,-0.07 0.77,-1.01 0.12,-1.08z"/>
  <path class="fil0" d="M72.95 85.97c2.33,0.25 4.82,0.11 7.15,0 0.71,-0.03 0.67,-1.06 -0.03,-1.09 -2.34,-0.1 -4.83,-0.25 -7.16,0 -0.71,0.08 -0.66,1.01 0.03,1.09z"/>
  <path class="fil0" d="M82.75 84.79c-0.72,0.06 -0.67,1.05 0.03,1.1 3.48,0.28 7.2,0.28 10.69,0.01 0.74,-0.06 0.69,-1.08 -0.03,-1.13 -3.48,-0.27 -7.21,-0.26 -10.69,0.01z"/>
  <path class="fil0" d="M100.91 84.72c-0.75,-0.12 -1.53,-0.1 -2.29,-0.1 -0.81,0 -1.69,-0.08 -2.48,0.13 -0.52,0.14 -0.47,0.9 0.03,1.03 0.79,0.21 1.67,0.12 2.48,0.12 0.76,0 1.53,0.01 2.29,-0.11 0.54,-0.09 0.49,-0.98 -0.03,-1.06z"/>
  <path class="fil0" d="M70.4 83.62c1.1,0.22 2.39,0.11 3.51,0.03 0.71,-0.05 0.67,-1.05 -0.03,-1.1 -1.12,-0.08 -2.4,-0.19 -3.5,0.04 -0.52,0.11 -0.47,0.93 0.03,1.03z"/>
  <path class="fil0" d="M91.03 82.46c-5.01,-0.18 -10.16,-0.25 -15.17,0.02 -0.71,0.04 -0.67,1.05 0.03,1.09 5.01,0.27 10.16,0.2 15.17,0.02 0.73,-0.03 0.69,-1.09 -0.03,-1.12z"/>
  <path class="fil0" d="M102.99 82.3c-3.12,-0.37 -6.67,-0.25 -9.81,0.01 -0.7,0.06 -0.65,1.01 0.03,1.07 3.07,0.26 6.59,0.4 9.65,0.03 0.58,-0.07 0.8,-1.04 0.12,-1.12z"/>
  <path class="fil0" d="M73.38 81.22c2.12,0.21 4.34,0.07 6.47,0.01 0.7,-0.02 0.67,-1.06 -0.03,-1.08 -2.13,-0.06 -4.34,-0.21 -6.46,0.01 -0.7,0.07 -0.65,1 0.02,1.07z"/>
  <path class="fil0" d="M82.86 80.97c4.76,0.08 9.55,0.07 14.31,0 0.7,-0.01 0.67,-1.07 -0.03,-1.08 -4.76,-0.07 -9.54,-0.08 -14.3,0 -0.7,0.01 -0.67,1.07 0.02,1.08z"/>
  <path class="fil0" d="M104.02 79.9c-1.27,-0.16 -2.66,-0.1 -3.94,-0 -0.7,0.05 -0.65,1.02 0.03,1.07 1.22,0.09 2.57,0.17 3.79,0.01 0.56,-0.07 0.78,-1 0.12,-1.08z"/>
  <path class="fil0" d="M93.47 78.6c3.95,0.31 8.2,0.3 12.15,-0.04 0.71,-0.06 0.66,-1.02 -0.03,-1.08 -3.95,-0.34 -8.2,-0.35 -12.15,-0.04 -0.76,0.06 -0.71,1.11 0.03,1.17z"/>
  <path class="fil0" d="M86.66 78.66c1.17,0.07 2.42,0.16 3.58,-0.05 0.52,-0.09 0.47,-0.93 -0.03,-1.01 -1.16,-0.2 -2.42,-0.11 -3.59,-0.04 -0.71,0.04 -0.67,1.06 0.03,1.1z"/>
  <path class="fil0" d="M69.19 81.21c0.73,0.18 1.56,0.11 2.3,0.03 0.72,-0.08 0.66,-1.02 -0.03,-1.09 -0.74,-0.08 -1.56,-0.15 -2.29,0.04 -0.52,0.13 -0.47,0.9 0.02,1.02z"/>
  <path class="fil0" d="M54.88 83.71c2.8,0.31 5.77,0.13 8.59,0.03 0.71,-0.03 0.67,-1.06 -0.03,-1.08 -2.76,-0.1 -5.7,-0.29 -8.44,0.01 -0.55,0.06 -0.75,0.98 -0.12,1.05z"/>
  <path class="fil0" d="M62 81.68c0.34,0.16 0.71,0.14 1.08,0.13 0.36,-0.02 0.72,-0.02 1.08,-0.05 0.71,-0.06 0.67,-1.03 -0.03,-1.09 -0.67,-0.06 -1.54,-0.2 -2.16,0.09 -0.36,0.17 -0.32,0.76 0.02,0.92z"/>
  <path class="fil0" d="M45.67 86c3.21,-0.71 7.03,-0.16 10.3,-0.21 0.69,-0.01 0.66,-1.06 -0.03,-1.07 -3.29,-0.05 -7.1,0.5 -10.32,-0.22 -1.22,-0.27 -1.24,1.78 0.04,1.49z"/>
  <path class="fil0" d="M62.09 85.9c0.56,-0.09 0.79,-0.98 0.12,-1.09 -1.11,-0.17 -2.4,-0.12 -3.51,0.01 -0.54,0.07 -0.74,0.96 -0.11,1.04 1.1,0.13 2.4,0.21 3.5,0.04z"/>
  <path class="fil0" d="M39.2 88.45c3.03,0.42 6.4,0.25 9.45,0.05 0.74,-0.05 0.69,-1.09 -0.03,-1.14 -3,-0.2 -6.33,-0.39 -9.31,0.03 -0.55,0.08 -0.77,0.97 -0.12,1.06z"/>
  <path class="fil0" d="M50.72 87.49c-0.54,0.11 -0.49,0.96 0.02,1.06 1.99,0.4 4.15,0.17 6.17,0.17 1.08,0 2.48,0.21 3.54,-0.1 0.3,-0.09 0.43,-0.33 0.43,-0.58l-0.17 -0.47 -0.44 -0.2c-0.85,-0.2 -1.9,-0.06 -2.74,-0.06 -2.23,0 -4.62,-0.25 -6.82,0.18z"/>
  <path class="fil0" d="M37.9 91.82c3.61,-0.06 7.24,0.17 10.83,-0.15 0.72,-0.06 0.67,-1.04 -0.03,-1.11 -3.59,-0.32 -7.24,-0.12 -10.84,-0.15 -3.21,-0.03 -7.1,-0.79 -10.18,0.11 -0.61,0.18 -0.55,1.03 0.03,1.2 1.42,0.41 2.69,0.26 4.17,0.18 2,-0.1 4.02,-0.05 6.02,-0.08z"/>
  <path class="fil0" d="M54.1 91.69c1.12,-0.13 2.3,-0.05 3.43,-0.09 0.73,-0.03 0.69,-1.1 -0.03,-1.13 -1.24,-0.05 -2.5,0.01 -3.73,-0.12 -0.9,-0.1 -1.93,-0.12 -2.79,0.17 -0.52,0.18 -0.47,0.86 0.03,1.04 0.96,0.33 2.1,0.25 3.09,0.14z"/>
  <path class="fil0" d="M34.26 88.44c0.38,0.18 0.75,0.15 1.17,0.14 0.48,-0.01 0.96,-0.02 1.43,-0.06 0.71,-0.06 0.66,-1.03 -0.03,-1.09 -0.41,-0.04 -0.83,-0.05 -1.25,-0.06 -0.47,-0.01 -0.9,-0.06 -1.34,0.15 -0.36,0.17 -0.32,0.76 0.02,0.92z"/>
  <path class="fil0" d="M36 60.06c-0.29,4.14 -0.14,8.39 -0.02,12.54 0.02,0.71 1.07,0.67 1.09,-0.03 0.11,-4.15 0.27,-8.4 -0.02,-12.54 -0.05,-0.69 -1.01,-0.64 -1.05,0.03z"/>
  <path class="fil0" d="M38.45 59.93c-0.32,4.04 -0.15,8.23 -0.02,12.28 0.02,0.72 1.08,0.68 1.11,-0.03 0.13,-4.06 0.3,-8.24 -0.02,-12.28 -0.06,-0.7 -1.01,-0.65 -1.06,0.03z"/>
  <path class="fil0" d="M41.04 60.06c-0.24,4.03 -0.24,8.2 -0.03,12.24 -0.02,0.37 0.27,0.54 0.55,0.53 0.3,0.01 0.59,-0.18 0.57,-0.55 0.21,-4.04 0.21,-8.2 -0.03,-12.24 -0.04,-0.69 -1.02,-0.65 -1.06,0.03z"/>
  <path class="fil0" d="M53.59 64.32c-0.27,2.42 -0.07,4.95 -0.02,7.38 0.02,0.69 1.05,0.65 1.06,-0.03 0.05,-2.38 0.27,-4.88 -0,-7.24 -0.06,-0.55 -0.97,-0.75 -1.04,-0.11z"/>
  <path class="fil0" d="M51.51 64.46c-0.15,2.66 -0.06,5.36 -0.01,8.02 0.02,0.69 1.06,0.66 1.07,-0.03 0.05,-2.66 0.15,-5.36 -0.01,-8.02 -0.04,-0.69 -1.02,-0.65 -1.05,0.03z"/>
  <path class="fil0" d="M72.61 39.66c-2.06,0.65 -4.23,0.98 -6.25,1.73 -0.68,0.25 -0.37,1.16 0.32,1.05 2.09,-0.36 4.3,-0.9 6.25,-1.72 0.63,-0.27 0.37,-1.27 -0.32,-1.05z"/>
  <path class="fil0" d="M71.05 42.96c-1.56,0.38 -3.15,0.62 -4.69,1.06 -0.6,0.17 -0.44,1.08 0.17,1.06 1.64,-0.05 3.32,-0.45 4.85,-1.04 0.68,-0.26 0.39,-1.26 -0.33,-1.08z"/>
  <path class="fil0" d="M48.35 41.25c1.7,-0.33 3.7,-0.81 5.4,-1.48 0.68,-0.27 0.38,-1.19 -0.32,-1.06 -1.8,0.32 -3.74,0.92 -5.39,1.5 -0.68,0.24 -0.37,1.18 0.31,1.04z"/>
  <path class="fil0" d="M53.88 43.34c-0.97,0.01 -1.95,0.4 -2.9,0.55 -0.64,0.1 -0.67,1.1 0.03,1.05 0.98,-0.08 2.13,-0.14 3.05,-0.51 0.56,-0.22 0.48,-1.09 -0.18,-1.08z"/>
  <path class="fil0" d="M51.75 45.96c-0.52,0.22 -0.48,1.1 0.17,1.06 0.71,-0.05 1.44,-0.22 2.13,-0.41 0.58,-0.16 0.44,-1.12 -0.17,-1.06 -0.71,0.07 -1.47,0.14 -2.13,0.41z"/>
  <path class="fil0" d="M37.57 44c2.14,-0.53 4.27,-1.08 6.36,-1.81 0.71,-0.25 0.39,-1.25 -0.33,-1.1 -5.39,1.12 -10.82,2.35 -16.16,3.66 -0.64,0.16 -0.46,1.14 0.18,1.13 3.32,-0.07 6.75,-1.09 9.96,-1.88z"/>
  <path class="fil0" d="M40.02 46.44c-4.08,0.89 -8.2,1.4 -12.32,2.1 -0.62,0.11 -0.41,1.04 0.17,1.05 4.06,0.06 8.67,-0.67 12.48,-2.06 0.7,-0.26 0.39,-1.26 -0.33,-1.1z"/>
  <path class="fil0" d="M33.15 50.7c-1.31,-0.07 -2.61,0.22 -3.89,0.43 -0.6,0.1 -0.43,1.09 0.17,1.05 1.25,-0.09 2.5,-0.26 3.75,-0.37 0.71,-0.06 0.68,-1.06 -0.03,-1.1z"/>
  <path class="fil0" d="M16.25 46.45c-4.15,0.23 -8.56,0.67 -12.69,0.09 -0.67,-0.09 -0.95,0.91 -0.26,1.04 4.16,0.82 8.79,0.47 12.97,-0.04 0.68,-0.08 0.69,-1.13 -0.03,-1.09z"/>
  <path class="fil0" d="M97.36 82.06c-0.11,-0.79 0.56,-0.92 0.49,-1.67 -1.6,0.48 -3.03,-1.27 -3.94,0 1.36,-0.18 0.46,1.56 1.48,1.67 0.12,-1.07 0.85,0.57 1.97,0z"/>
  <path class="fil0" d="M15.09 76.64c-0.96,-1.05 -2.38,-2.56 -0.49,-3.75 -1.6,-0.51 -0.38,1.35 -1.97,0.83 -0.12,1.77 1.02,2.47 2.47,2.92z"/>
 </g>
</svg>
