<?xml version="1.0" encoding="UTF-8"?>
<svg xmlns="http://www.w3.org/2000/svg" xml:space="preserve" width="0.747331in" height="0.747315in" version="1.1" style="shape-rendering:geometricPrecision; text-rendering:geometricPrecision; image-rendering:optimizeQuality; fill-rule:evenodd; clip-rule:evenodd"
viewBox="0 0 242.72 242.71"
 xmlns:xlink="http://www.w3.org/1999/xlink"
 xmlns:xodm="http://www.corel.com/coreldraw/odm/2003">
 <defs>
  <style type="text/css">
   <![CDATA[
    .fil0 {fill:black;fill-rule:nonzero}
   ]]>
  </style>
 </defs>
 <g id="Layer_x0020_1">
  <metadata id="CorelCorpID_0Corel-Layer"/>
  <path class="fil0" d="M23.87 163.03c-3.79,-1.85 -8.84,-0.69 -12.9,0.33 -1,-2.62 -1.89,-5.27 -2.7,-7.96 1.75,-0.14 3.45,-0.71 5.17,-1.26l0.21 1.04c0.19,1.13 2.12,1.07 2.27,-0.06 0.06,-0.47 0.11,-0.93 0.06,-1.41l-0.05 -0.25c0.78,-0.17 1.57,-0.3 2.38,-0.31 3.24,-0.06 6.96,0.61 10.05,-0.62 1.28,-0.51 1.05,-2.4 -0.38,-2.41 -3.65,-0.03 -7.33,-0.12 -10.97,-0.01 -3.21,0.09 -6.5,1.38 -9.47,2.72 -0.96,-3.5 -1.75,-7.06 -2.39,-10.66 1.23,0.32 2.45,0.53 3.67,0.64 -0.01,0.64 0.04,1.29 0.27,1.9 0.45,1.22 2.3,0.99 2.28,-0.37 -0.01,-0.47 -0.04,-0.95 -0.08,-1.42 1.33,0.01 2.67,-0.07 4,-0.2l0 0.02c0.08,0.51 0.32,0.96 0.87,1.09 0.57,0.14 1.3,-0.22 1.4,-0.83l0.04 -0.54c1.83,-0.24 3.67,-0.52 5.51,-0.74 0.29,0.62 1.02,1.07 1.67,0.55l0.65 -0.81c2.14,-0.2 4.28,-0.29 6.47,-0.08 1.4,0.13 1.48,-1.75 0.58,-2.38 -3.04,-2.13 -7.13,-0.99 -10.51,-0.32 -5.98,1.17 -11.41,1.16 -17.36,0.24 -0.69,-4.66 -1.1,-9.38 -1.24,-14.15 20.98,-4.04 41.2,-7.81 62.72,-7.48 17.41,0.27 34.75,2.06 52.17,1.87 22.44,-0.25 43.96,-7.93 66.36,-8.34 18.12,-0.33 36.31,1.6 54.4,0.99 0.22,2.68 0.34,5.39 0.37,8.11 -4.45,-1.21 -10,0.65 -14.25,1.25 -1.48,0.21 -1.44,2.18 0.05,2.3 1.84,0.16 4.11,-0.35 6.42,-0.77l0.24 0.63c0.39,0.81 1.73,0.72 2.09,-0.05l0.22 -0.98c1.9,-0.24 3.73,-0.21 5.23,0.48 -0.03,2.64 -0.15,5.26 -0.35,7.86 -5.28,-1.06 -10.86,0.74 -16.11,1.4 -6.84,0.84 -13.71,-0.36 -20.56,-0.56 -1.49,-0.04 -1.36,2.13 0.05,2.26 2.44,0.23 4.88,0.47 7.32,0.67l-0.11 0.88c-0.06,0.63 0.02,1.27 0.33,1.83 0.47,0.85 1.71,0.73 2.16,-0.05l0.17 -0.4 0.13 -0.35 0.13 -0.7 0.13 -1c1.63,0.09 3.27,0.16 4.9,0.17 0.02,0.68 0.11,1.37 0.46,1.96 0.5,0.82 1.66,0.73 2.14,-0.05 0.35,-0.58 0.45,-1.27 0.39,-1.94l0.41 -0.01c1.52,-0.06 3.03,-0.21 4.52,-0.38 -0.03,0.59 0,1.19 0.09,1.76 0.08,0.54 0.34,1 0.91,1.14 0.51,0.13 1.11,-0.1 1.36,-0.59 0.38,-0.79 0.61,-1.74 0.58,-2.67 1.2,-0.15 2.41,-0.29 3.63,-0.41 0.01,0.42 0.07,0.83 0.2,1.17 0.45,1.15 1.85,1.03 2.27,-0.05 0.15,-0.39 0.2,-0.85 0.2,-1.31 1.32,-0.05 2.65,-0.02 4.01,0.09 -0.37,3.5 -0.88,6.94 -1.54,10.34 -8.12,-3.04 -17.76,1.98 -26.12,-0.6 -1.22,-0.37 -2.02,1.61 -0.82,2.1 1.56,0.64 3.16,0.97 4.77,1.12l0.06 0.51 -0.01 0.17 0.11 0.67c0.37,1.13 1.9,1.03 2.24,-0.06l-0.03 -1.2c3.35,-0.03 6.76,-0.65 10.11,-0.92l0.04 0.64c-0.01,0.67 -0.08,1.26 0.06,1.92 0.24,1.09 1.74,1.07 2.24,0.24 0.44,-0.73 0.65,-1.89 0.48,-2.91 2.15,-0 4.25,0.27 6.28,1.04 -0.66,3.04 -1.45,6.05 -2.35,9.01 -1.27,-0.79 -2.68,-1.83 -4.06,-1.7 -2.29,0.21 -7.43,3.17 -9.06,0.4 -0.28,-0.51 -1.03,-0.85 -1.59,-0.61 -4.92,2.09 -9.29,0.27 -14.31,0.03 -3.84,-0.19 -8.02,1.12 -11.68,2.05 -1.46,0.37 -0.76,2.46 0.66,2.19 3.11,-0.58 6.2,-1.25 9.32,-1.46 -0.07,0.65 -0.04,1.38 0.19,2.01 0.15,0.4 0.44,0.72 0.87,0.82 0.49,0.13 1.16,-0.09 1.37,-0.59 0.29,-0.71 0.44,-1.43 0.49,-2.21l0 -0.07c0.68,0.03 1.35,0.09 2.03,0.19 1.5,0.22 2.86,0.49 4.18,0.66 -0.02,0.91 0.07,1.82 0.01,2.7 -0.08,1.19 1.77,1.62 2.27,0.55 0.44,-0.95 0.62,-2.01 0.59,-3.06 0.94,-0.02 1.91,-0.12 2.96,-0.37 0.97,-0.23 2.13,0.56 3.39,1.05 -0.12,0.71 -0.14,1.57 0.29,2.11 0.46,0.6 1.43,0.9 1.99,0.21 0.5,-0.6 0.64,-1.38 0.7,-2.17 0.89,-0.23 1.79,-0.6 2.6,-0.89 2.22,-0.79 3.91,0.34 5.78,1.25 -0.83,2.46 -1.73,4.88 -2.7,7.27 -3.08,-1.48 -5.06,2.64 -8.95,0.44 -6.22,-3.53 -15.84,0.3 -22.62,-0.38 -1.29,-0.13 -1.49,1.99 -0.25,2.25 3.72,0.78 7.44,0.37 11.16,0.06l-0.03 0.29c-0.07,0.68 -0.14,1.36 0.08,2.02 0.27,0.82 1.46,1.25 2.08,0.5 0.55,-0.69 0.63,-1.38 0.68,-2.23l-0.02 -0.78c1.23,-0.06 2.45,-0.08 3.69,0 -0.04,0.85 0.05,1.71 0.2,2.5 0.2,1.07 1.76,1.1 2.23,0.24 0.38,-0.7 0.59,-1.51 0.64,-2.33 2.34,0.54 3.44,2.05 6.05,1.9 1.21,-0.06 2.51,-1.8 3.73,-1.4 -18.39,41.4 -59.92,70.4 -107.94,70.4l-0.67 -0c-31.53,-0.18 -61.11,-12.62 -83.28,-35.04 -11.03,-11.16 -19.57,-24.12 -25.36,-38.22 1.46,-0.19 2.91,-0.45 4.36,-0.65 0.62,-0.09 1.24,-0.11 1.85,-0.11 0,0.62 0.12,1.26 0.27,1.74 0.4,1.21 2.01,1.09 2.38,-0.05 0.14,-0.44 0.24,-1 0.25,-1.56 0.69,0.03 1.38,0.05 2.07,0.02 1.27,-0.06 1.85,-1.9 0.61,-2.5zm-20.56 -42.33c0.36,-64.74 53.31,-117.4 118.05,-117.4l0.66 0c60.73,0.33 110.62,46.7 116.76,105.76 -17.39,-1.86 -35.21,-1.99 -52.65,-1.81 -22.96,0.24 -44.99,8.07 -67.94,8.54 -17.88,0.36 -35.71,-1.44 -53.58,-1.56 -20.35,-0.14 -41.68,1.92 -61.28,7.78 -0,-0.43 -0.01,-0.87 -0.01,-1.3zm117.38 122.01l0.69 0c32.27,0 62.65,-12.53 85.55,-35.29 22.75,-22.63 35.44,-52.7 35.78,-84.76l0.01 -0.78c0.3,-66.85 -53.82,-121.52 -120.68,-121.88l-0.68 -0c-66.54,0 -120.98,54.14 -121.35,120.68 -0.18,32.42 12.28,62.96 35.08,86.02 22.79,23.05 53.2,35.84 85.61,36.01z"/>
  <path class="fil0" d="M28.48 182.74l0.93 0.51 0.59 -0.18 0.16 -0.09 0.48 -0.69 -0.14 -0.83 -1.48 -2.34 6.53 -4.16 0.49 -0.69 -0.15 -0.83 -0.11 -0.16c-0.32,-0.52 -1,-0.67 -1.52,-0.34l-7.62 4.86 -0.48 0.69 0.15 0.83 2.18 3.43z"/>
  <path class="fil0" d="M44.74 185.82l-0.08 -0.18 -0.63 -0.57 -0.84 0.05 -1.85 0.89 -0.56 0.63 0.04 0.84 0.09 0.18 0.99 0.63 0.47 -0.11 1.85 -0.89c0.55,-0.27 0.78,-0.92 0.52,-1.47z"/>
  <path class="fil0" d="M51.65 193.04l-0.79 -0.29 -0.77 0.35 -6.23 6.68 -0.29 0.79 0.35 0.77 2.97 2.78 0.75 0.29 0.04 0 0.76 -0.35 0.13 -0.14c0.41,-0.45 0.39,-1.15 -0.06,-1.56l-2.03 -1.89 1.76 -1.88 1.3 1.22c0.45,0.42 1.14,0.39 1.55,-0.04l0.14 -0.14 0.3 -0.79 -0.35 -0.77 -1.3 -1.23 1.07 -1.14 2.03 1.89c0.44,0.41 1.14,0.39 1.55,-0.05l0.14 -0.15 0.29 -0.79 -0.34 -0.77 -2.97 -2.78z"/>
  <path class="fil0" d="M60.95 201.08c-0.49,-0.36 -1.18,-0.25 -1.53,0.23l-0.12 0.17 -0.19 0.82 0.45 0.72 1.03 0.75 -4.53 6.28c-0.36,0.49 -0.24,1.18 0.24,1.53l0.16 0.12 0.65 0.21 0.17 -0.02 0.72 -0.44 4.53 -6.27 1.04 0.75c0.5,0.36 1.19,0.24 1.54,-0.25l0.12 -0.16 0.19 -0.82 -0.44 -0.72 -4.03 -2.89z"/>
  <path class="fil0" d="M73.04 213.12l-1.9 3.48 -0.77 0.62 -0.97 -0.1 -0.62 -0.77 0.11 -0.97 1.9 -3.5 0.77 -0.62 0.37 -0.05 0.6 0.16 0.62 0.77 -0.11 0.97zm0.64 -3.85c-0.88,-0.48 -1.85,-0.58 -2.81,-0.3 -0.95,0.28 -1.71,0.89 -2.19,1.78l-1.89 3.48c-0.48,0.88 -0.59,1.84 -0.3,2.81 0.28,0.97 0.88,1.7 1.78,2.18 0.55,0.31 1.15,0.46 1.75,0.46l1.05 -0.15c0.97,-0.28 1.72,-0.89 2.2,-1.77l1.9 -3.49c0.48,-0.87 0.58,-1.85 0.29,-2.81 -0.27,-0.95 -0.89,-1.71 -1.77,-2.19z"/>
  <path class="fil0" d="M85.23 214.74l-0.19 -0.07 -0.84 0.02 -0.59 0.61 -3.24 8.33 0.02 0.84 0.61 0.58 0.19 0.08 0.39 0.07c0.45,0 0.86,-0.26 1.03,-0.69l3.25 -8.34c0.22,-0.57 -0.06,-1.2 -0.63,-1.43z"/>
  <path class="fil0" d="M97 227.59l-2.69 -0.67 1.86 -7.51 -0.13 -0.83 -0.68 -0.51 -0.18 -0.04c-0.59,-0.15 -1.19,0.21 -1.33,0.8l-2.18 8.77 0.12 0.83 0.68 0.5 3.95 0.98 0.27 0.03c0.49,0 0.94,-0.33 1.07,-0.83l0.04 -0.18 -0.12 -0.84 -0.68 -0.5z"/>
  <path class="fil0" d="M111.68 220.93l-4.04 -0.46c-0.59,-0.08 -1.15,0.36 -1.23,0.96l-1.06 9.07c-0.07,0.61 0.37,1.15 0.97,1.22l4.04 0.47 0.13 0.01 0.68 -0.24 0.41 -0.74 0.02 -0.18c0.07,-0.6 -0.36,-1.16 -0.97,-1.22l-2.76 -0.32 0.3 -2.55 1.76 0.21 0.81 -0.24 0.42 -0.73 0.02 -0.2c0.07,-0.6 -0.36,-1.15 -0.96,-1.22l-1.77 -0.2 0.18 -1.56 2.76 0.32c0.6,0.08 1.15,-0.36 1.22,-0.96l0.02 -0.2 -0.23 -0.81 -0.74 -0.42z"/>
  <path class="fil0" d="M136.89 228.81l-0.92 0.55 -1.03 0.14 -0.88 -6.47 1.03 -0.14 1.03 0.27c0.42,0.26 0.63,0.58 0.69,1.03l0.47 3.44c0.06,0.46 -0.06,0.82 -0.39,1.18zm2.31 -4.94c-0.16,-1.16 -0.79,-2.11 -1.8,-2.74 -0.85,-0.53 -1.75,-0.74 -2.63,-0.62l-2.31 0.31 -0.73 0.42 -0.21 0.82 1.22 9.04c0.08,0.55 0.55,0.96 1.09,0.96l0.15 -0.01 2.31 -0.31c0.89,-0.13 1.68,-0.56 2.37,-1.3 0.81,-0.88 1.16,-1.96 1,-3.13l-0.46 -3.45z"/>
  <path class="fil0" d="M151.32 218.18c-0.16,-0.59 -0.76,-0.94 -1.35,-0.78l-0.19 0.05 -0.67 0.51 -0.1 0.83 1.67 6.23 -0.13 0.99 -0.77 0.59 -0.98 -0.12 -0.6 -0.79 -1.67 -6.23 -0.51 -0.67 -0.84 -0.11 -0.19 0.06c-0.59,0.16 -0.94,0.76 -0.78,1.35l1.68 6.23c0.26,0.97 0.86,1.74 1.71,2.24 0.57,0.33 1.18,0.5 1.81,0.5l0.99 -0.14c0.97,-0.25 1.74,-0.85 2.24,-1.71 0.51,-0.88 0.63,-1.82 0.37,-2.79l-1.67 -6.24z"/>
  <path class="fil0" d="M174.61 207.59l-0.67 -0.52 -0.84 0.11 -0.18 0.1c-0.53,0.3 -0.71,0.97 -0.41,1.5l2.13 3.74 -3.04 -1.85c0.25,-0.68 0.01,-1.6 -0.82,-1.78 -2.3,-0.49 -4.6,-1.1 -6.47,-2.58 -0.95,-0.75 -1.55,-1.67 -2.08,-2.64 0,-0.65 -0.01,-1.29 -0.04,-1.94 1.76,1.51 3.83,2.7 5.8,3.7 1.37,0.71 2.44,-1.27 1.15,-2.07 -2.79,-1.77 -5.11,-3.78 -7.3,-6.12 -0.07,-0.71 -0.16,-1.41 -0.23,-2.1 2.11,1.94 4.8,3.42 7.1,4.26 1.28,0.46 2.03,-1.58 0.86,-2.19 -1.87,-0.97 -3.62,-2.08 -5.24,-3.43 -1.42,-1.19 -2.36,-2.58 -3.3,-4.06l-0.01 -0.1 0.09 0.09c1.95,2 4.47,3.64 7.17,4.39 1.29,0.36 2.06,-1.59 0.86,-2.19 -1.91,-0.95 -3.72,-2.12 -5.34,-3.5 -1.68,-1.42 -2.43,-2.94 -3.32,-4.76l-0.03 -0.39c1.35,1.46 3.06,2.53 4.86,2.79 1.23,0.18 2.21,-1.65 0.86,-2.2 -2.86,-1.15 -5,-3.55 -5.81,-6.51l-0.05 -0.11 0.04 -1.2c0.43,0.69 0.94,1.32 1.55,1.81 1.15,0.95 2.64,-0.59 1.6,-1.67 -1.37,-1.42 -2.34,-3.86 -2.37,-5.89l0.04 -0.19 -0.01 -0.23 0.06 -0.29c0.35,-1.47 -1.76,-1.93 -2.25,-0.56l-0.13 0.41 -0.03 0.07 -0.05 0.16 -0.28 1c-0.79,2.29 -2.3,3.92 -4.04,5.74 -0.89,0.94 0.37,2.6 1.46,1.8 0.68,-0.51 1.32,-1.07 1.9,-1.67l0.01 1.06 -0.02 0.18 0.01 0.08c-0.67,1.39 -1.32,2.52 -2.53,3.58 -1.26,1.13 -2.78,1.92 -3.97,3.14 -1.02,1.04 0.34,2.43 1.51,1.86 1.81,-0.88 3.77,-2.19 5.21,-3.83l0.04 0.78 -0.08 1.22c-1.05,0.5 -1.99,1.37 -2.89,2.02 -1.62,1.15 -3.37,1.99 -5.31,2.45 -1.37,0.32 -0.91,2.27 0.38,2.33 2.06,0.09 3.83,-0.77 5.54,-1.84 0.78,-0.49 1.62,-1.05 2.42,-1.67l-0.01 0.13 -0.03 1 0 0.17c-1.79,4.6 -6.57,5.61 -10.86,6.84 -1.43,0.41 -0.94,2.33 0.39,2.42 3.65,0.25 8.01,-1.36 10.58,-4.25 0.02,0.43 0.03,0.86 0.04,1.29 -1.15,1.86 -2.39,3.2 -4.33,4.35 -2.03,1.21 -4.31,1.88 -6.32,3.13 -1.22,0.76 -0.31,2.45 0.98,2.18 3.04,-0.61 7.05,-2.14 9.59,-4.64l-0 0.05c-2.64,3.24 -5.59,6.94 -9.97,7.52 -1.24,0.16 -1.73,2.21 -0.27,2.39 3.55,0.44 7.12,-1.74 9.71,-4.6 -0.1,1.8 -0.02,3.6 0.58,5.28 0.53,1.48 2.44,1.34 2.93,-0.07 0.34,-0.97 0.58,-2 0.76,-3.04 1.74,1.46 3.94,2.44 6.23,2.96l0.08 0.24 4.42 7.77 0.96 0.56 0.54 -0.14 0.17 -0.09 0.52 -0.67 -0.1 -0.83 -2.13 -3.74 4.74 2.87 1.11 0.02 0.19 -0.1 0.52 -0.67 -0.1 -0.83 -4.42 -7.77z"/>
  <path class="fil0" d="M186.79 208.57l-0.96 0.24 -0.85 -0.51 -2.38 -3.18 -0.25 -0.95 0.51 -0.84 0.74 -0.26 0.21 0.01 0.84 0.5 2.38 3.18 0.25 0.96 -0.5 0.84zm-0.21 -6.42c-0.6,-0.79 -1.44,-1.29 -2.43,-1.43 -1.01,-0.15 -1.93,0.09 -2.74,0.69 -0.79,0.6 -1.29,1.44 -1.43,2.43 -0.14,0.98 0.1,1.93 0.7,2.73l2.39 3.18c0.6,0.8 1.44,1.3 2.42,1.44l0.54 0.04c0.79,0 1.53,-0.26 2.19,-0.75 0.8,-0.6 1.3,-1.44 1.43,-2.42 0.15,-1.01 -0.09,-1.92 -0.69,-2.74l-2.39 -3.17z"/>
  <path class="fil0" d="M193.68 194.47c0.1,0 0.42,0 0.86,0.46 0.47,0.49 0.48,0.81 0.43,1.03l-0.55 0.87 -0.83 0.81 -1.79 -1.84 0.83 -0.81 0.89 -0.51 0.15 -0.01zm-2.71 -1.2l-1.76 1.71c-0.44,0.42 -0.45,1.12 -0.02,1.56l6.29 6.49 0.79 0.34 0.76 -0.32 0.14 -0.13c0.44,-0.42 0.45,-1.12 0.02,-1.56l-1.92 -1.99 0.76 -0.74 3.47 1.23c0.56,0.2 1.17,-0.08 1.39,-0.63l0.07 -0.18 -0.02 -0.86 -0.63 -0.58 -2.98 -1.07c0.28,-1.13 -0.08,-2.26 -1.06,-3.27 -0.92,-0.96 -1.99,-1.35 -3.14,-1.15 -0.77,0.13 -1.5,0.52 -2.16,1.15z"/>
  <path class="fil0" d="M201.31 185.49c0.2,-0.26 0.52,-0.42 0.93,-0.51 0.47,-0.09 0.85,-0.02 1.22,0.27l2.72 2.17c0.36,0.29 0.52,0.64 0.53,1.11 0.01,0.45 -0.09,0.79 -0.29,1.04l-0.65 0.82 -5.11 -4.09 0.65 -0.81zm3.97 7.57l0.69 0.25 0.12 -0.01 0.74 -0.41 1.46 -1.82c0.56,-0.69 0.84,-1.56 0.83,-2.57 -0.02,-1.2 -0.51,-2.22 -1.43,-2.95l-2.71 -2.17c-0.92,-0.74 -2.03,-1 -3.19,-0.75 -0.99,0.2 -1.77,0.66 -2.34,1.36l-1.46 1.82c-0.38,0.48 -0.3,1.17 0.17,1.55l7.13 5.7z"/>
  <path class="fil0" d="M50.37 53.32l4.06 1.05 1.05 -0.28 0.3 -1.05 -0.98 -4.08 5.99 6.11c0.42,0.43 1.12,0.44 1.56,0.01l0.21 -0.2 0.33 -0.78 -0.32 -0.79 -9.14 -9.32 -0.78 -0.33 -0.78 0.32 -0.23 0.22 -0.3 1.04 1.47 6.12 -6.09 -1.59 -1.05 0.28 -0.22 0.22 -0.34 0.78 0.32 0.78 9.14 9.32 0.79 0.33 0.77 -0.32 0.21 -0.2 0.33 -0.78 -0.31 -0.79 -6 -6.1z"/>
  <path class="fil0" d="M71.51 46.7l0.7 0.48 0.23 0.02 0.6 -0.18 0.25 -0.16c0.51,-0.34 0.65,-1.01 0.32,-1.53l-7.12 -10.94c-0.33,-0.51 -1.01,-0.65 -1.52,-0.33l-0.25 0.16 -0.48 0.7 0.15 0.83 7.11 10.94z"/>
  <path class="fil0" d="M83.98 39.59l0.59 0.6 0.44 0.09 0.41 -0.07 0.27 -0.11c0.56,-0.23 0.84,-0.87 0.61,-1.43l-3.02 -7.67 7.76 6.37 1.1 0.18 0.29 -0.12 0.61 -0.59 0.01 -0.84 -4.79 -12.15 -0.59 -0.61 -0.84 -0.01 -0.27 0.11c-0.56,0.23 -0.84,0.87 -0.62,1.43l3.03 7.67 -7.76 -6.38 -1.1 -0.17 -0.28 0.1 -0.61 0.59 -0.01 0.85 4.79 12.15z"/>
  <path class="fil0" d="M102.09 34.67l0.19 -0.01 0.28 -0.05 0.71 -0.45 0.18 -0.83 -1.43 -8.12 6.33 7.8 1.04 0.39 0.31 -0.05c0.6,-0.11 1,-0.67 0.89,-1.28l-2.26 -12.86c-0.1,-0.59 -0.67,-0.99 -1.27,-0.89l-0.29 0.05 -0.71 0.45 -0.18 0.83 1.43 8.12 -6.32 -7.8 -1.04 -0.39 -0.31 0.05c-0.6,0.11 -0.99,0.67 -0.89,1.27l2.26 12.86c0.1,0.54 0.56,0.91 1.09,0.91z"/>
  <path class="fil0" d="M120.64 32.76l5.94 0.14 0.03 0 0.76 -0.31 0.34 -0.76 0.01 -0.28c0.01,-0.6 -0.47,-1.11 -1.08,-1.12l-4.55 -0.12 0.11 -4.76 3.12 0.08 0.79 -0.3 0.34 -0.78 0.01 -0.29c0.01,-0.6 -0.47,-1.11 -1.08,-1.12l-3.11 -0.08 0.08 -3.3 4.56 0.12 0.78 -0.31 0.34 -0.77 0 -0.29c0.01,-0.61 -0.46,-1.11 -1.07,-1.13l-5.94 -0.14 -0.79 0.3 -0.34 0.77 -0.34 13.32c-0.02,0.61 0.46,1.12 1.08,1.14z"/>
  <path class="fil0" d="M139.46 34.15c0.83,0.5 1.67,0.86 2.49,1.04l1 0.12c0.85,0 1.64,-0.27 2.36,-0.79 0.84,-0.63 1.38,-1.44 1.6,-2.4 0.25,-1.11 0.18,-2.76 -1.64,-4.35 -0.67,-0.55 -1.26,-1.04 -1.75,-1.44l-1.25 -1c-0.93,-0.78 -0.92,-1.43 -0.82,-1.92 0.1,-0.41 0.3,-0.73 0.64,-0.99 0.4,-0.29 0.87,-0.37 1.49,-0.22 0.29,0.06 1.05,0.34 2.79,1.42 0.42,0.26 0.98,0.2 1.35,-0.14l0.2 -0.2 0.34 -0.8 -0.35 -0.8c-0.99,-0.92 -2.26,-1.57 -3.78,-1.92 -1.33,-0.3 -2.55,-0.07 -3.53,0.67 -0.82,0.62 -1.35,1.43 -1.57,2.43 -0.29,1.25 -0.03,2.46 0.74,3.47l0.09 0.1 0.7 0.66 0.66 0.58 1.88 1.55 0.78 0.7 0.41 0.48c0.23,0.36 0.28,0.73 0.18,1.16l-0.66 0.96c-0.4,0.29 -0.8,0.37 -1.31,0.25 -0.19,-0.04 -0.98,-0.32 -3.43,-2.15 -0.41,-0.32 -0.99,-0.29 -1.38,0.05l-0.22 0.19 -0.38 0.75 0.27 0.8c0.56,0.65 1.27,1.23 2.09,1.72z"/>
  <path class="fil0" d="M157.86 35.27l2.39 -5.28c0.28,-0.62 0.7,-1.01 1.33,-1.24l0.84 -0.17 0.99 0.23c0.62,0.29 1.02,0.7 1.25,1.34 0.23,0.62 0.21,1.2 -0.06,1.81l-2.39 5.28c-0.28,0.62 -0.71,1.02 -1.33,1.26l-0.84 0.16 -0.98 -0.24c-0.61,-0.28 -1.01,-0.7 -1.25,-1.33 -0.23,-0.63 -0.21,-1.2 0.07,-1.83zm0.16 5.42c0.65,0.29 1.33,0.45 2.01,0.45 0.57,0 1.15,-0.11 1.71,-0.32 1.25,-0.46 2.17,-1.33 2.72,-2.54l2.4 -5.27c0.55,-1.22 0.59,-2.47 0.12,-3.73 -0.47,-1.25 -1.33,-2.17 -2.54,-2.72 -1.21,-0.55 -2.49,-0.59 -3.74,-0.12 -1.24,0.47 -2.16,1.32 -2.71,2.54l-2.4 5.28c-0.55,1.23 -0.59,2.48 -0.14,3.73 0.47,1.25 1.33,2.16 2.56,2.72z"/>
  <path class="fil0" d="M173.52 49.58l0.65 0.21 0.18 -0.01 0.72 -0.44 6.93 -9.56 1.92 1.4c0.49,0.36 1.18,0.25 1.54,-0.24l0.17 -0.24 0.2 -0.83 -0.44 -0.71 -5.87 -4.25c-0.49,-0.36 -1.18,-0.25 -1.53,0.25l-0.18 0.23 -0.2 0.82 0.44 0.72 1.93 1.39 -6.93 9.56c-0.36,0.49 -0.25,1.18 0.24,1.54l0.23 0.17z"/>
  <path class="fil0" d="M194.18 54.35l-2.16 3.92 -1.92 -2.08 4.08 -1.84zm-10.75 2.47l0.05 0.87 0.13 0.25c0.26,0.54 0.9,0.76 1.44,0.52l2.66 -1.19 3.04 3.3 -1.4 2.56c-0.28,0.51 -0.11,1.16 0.39,1.47l0.24 0.15 0.57 0.16 0.28 -0.04 0.68 -0.54 6.63 -12c0.23,-0.42 0.17,-0.92 -0.15,-1.28l-0.21 -0.23c-0.32,-0.36 -0.83,-0.45 -1.26,-0.26l-12.5 5.64 -0.58 0.62z"/>
  <path class="fil0" d="M67.07 188.34c-0.67,-0.59 -1.52,-0.93 -2.27,-1.39 -0.52,-0.32 -0.96,-0.75 -1.39,-1.2l-0.01 -1.05c2.03,1.81 4.61,3.14 7.07,3.69 1.39,0.31 2.36,-1.84 0.95,-2.41 -1.71,-0.69 -3.37,-1.35 -4.91,-2.38 -1.2,-0.8 -2.15,-1.87 -3.13,-2.91 -0.01,-0.76 -0.01,-1.53 -0.01,-2.29l0.98 0.88c2.18,1.94 4.9,3.46 7.58,4.59 1.4,0.6 2.44,-1.23 1.15,-2.07 -3.46,-2.27 -7.05,-4.28 -9.73,-7.45 0,-0.87 -0.01,-1.75 -0.01,-2.62 0.56,0.51 1.15,0.99 1.74,1.45 1.81,1.41 3.78,2.93 5.83,3.95 1.37,0.68 2.67,-1.05 1.58,-2.15 -1.5,-1.49 -3.44,-2.58 -5.16,-3.8 -1.47,-1.06 -2.71,-2.32 -4.02,-3.54 -0.01,-0.93 -0.02,-1.86 -0.03,-2.78l0.92 0.81c1.03,0.89 2.17,1.67 3.32,2.43 0.92,0.61 1.86,1.33 3.01,1.38 0.98,0.04 1.46,-1.12 1.03,-1.89 -0.86,-1.5 -3.26,-2.39 -4.62,-3.41 -1.52,-1.14 -2.98,-2.44 -3.73,-4.18 -0.01,-0.58 -0.02,-1.16 -0.03,-1.73 1.78,1.45 3.99,3.09 6.22,3.73 1.21,0.35 2.06,-1.28 1.16,-2.12 -2.19,-2.04 -5.73,-3.06 -7.49,-5.59 -0.02,-0.57 -0.04,-1.15 -0.06,-1.72l0.26 0.18c1.22,0.82 3.02,2.11 4.52,2.17 0.91,0.03 1.47,-1.1 0.99,-1.82 -0.7,-1.06 -2.21,-1.56 -3.27,-2.17 -0.9,-0.52 -1.9,-1.11 -2.63,-1.9l-0.05 -0.93c1.05,0.69 2.21,1.24 3.23,1.64 1.1,0.44 2.53,-1.01 1.36,-1.87 -1.6,-1.18 -3.32,-2.03 -4.77,-3.35l-0.03 -0.7c0.74,0.54 1.62,1.01 2.43,0.89 1.05,-0.15 1.57,-1.26 0.8,-2.09 -0.62,-0.68 -1.63,-1.01 -2.35,-1.61 -0.43,-0.36 -0.81,-0.77 -1.17,-1.18 -0.1,-1.3 -0.18,-2.59 -0.29,-3.88 -0.13,-1.5 -2.18,-1.4 -2.3,0.05 -0.09,1.09 -0.14,2.17 -0.19,3.27 -0.27,0.64 -0.65,1.14 -1.23,1.65 -0.71,0.63 -1.56,1.06 -2.22,1.74 -0.81,0.84 0.07,2.39 1.22,1.98 0.7,-0.25 1.42,-0.64 2.1,-1.11l-0.01 0.27c-0.57,0.54 -1.1,1.15 -1.73,1.63 -1.01,0.75 -2.18,1.24 -3.2,1.95 -0.89,0.62 -0.61,2.35 0.64,2.2 1.51,-0.19 2.79,-0.9 4.02,-1.77l0.26 -0.18c0.01,0.44 0.01,0.87 0.01,1.32 -0.55,0.5 -1.07,1.03 -1.61,1.53 -1.02,0.95 -2.18,1.35 -3.42,1.9 -1.19,0.54 -1.03,2.26 0.37,2.31 1.78,0.07 3.39,-0.86 4.75,-2.09l0.03 0.99c-0.68,0.74 -1.4,1.42 -2.29,1.98 -1.58,1.03 -3.46,1.48 -5.04,2.5 -0.95,0.6 -0.56,2.29 0.65,2.19 2.37,-0.2 4.82,-1.21 6.74,-2.77 -0.67,1 -1.37,1.79 -2.48,2.6 -1.72,1.25 -3.64,2.21 -5.37,3.46 -1.01,0.73 -0.34,2.68 0.96,2.13 1.81,-0.77 4.86,-2.05 7.07,-3.83l0.01 0.33c-2.36,3.43 -6.16,4.91 -9.23,7.68 -1.04,0.92 0.35,2.45 1.47,1.81 2.34,-1.33 4.72,-2.61 6.87,-4.25l0.96 -0.77 -0 1.2c-1.27,1.2 -2.52,2.42 -3.88,3.51 -1.82,1.46 -4.17,2.33 -5.79,3.96 -0.97,0.97 0.13,2.23 1.25,2.04 2.3,-0.39 4.58,-2.31 6.37,-3.76 0.69,-0.57 1.36,-1.19 2,-1.82 -0.02,0.65 -0.04,1.3 -0.08,1.96 -2.51,2.73 -5.34,4.86 -8.99,6.04 -1.28,0.42 -1.02,2.45 0.38,2.36 2.59,-0.15 4.92,-1.36 7.03,-2.8 0.44,-0.3 0.9,-0.64 1.34,-1 -0.06,1.26 -0.12,2.54 -0.15,3.81 -0.86,1.23 -1.59,2.48 -3.01,3.28 -0.87,0.49 -0.7,2.08 0.36,2.23 1.07,0.16 1.93,-0.28 2.66,-0.94 0.1,2.89 0.41,5.71 1.12,8.36 0.47,1.73 3.1,1.26 3.08,-0.5 -0.03,-1.76 -0.05,-3.54 -0.07,-5.32 0.84,0.58 1.78,1.09 2.82,1.13 1.05,0.04 1.56,-1.4 0.8,-2.07z"/>
  <path class="fil0" d="M176.42 176.9c-1.33,1.27 -3.11,1.66 -4.86,1.26 -1.3,-0.3 -2.09,1.57 -0.87,2.2 2.51,1.3 5.63,0.39 7.77,-1.53l-0.05 1.07c-0.98,1.64 -2.42,2.7 -4.56,2.16 -1.35,-0.33 -2.07,1.57 -0.88,2.25 1.58,0.91 3.64,0.73 5.29,-0.15l-0.01 0.13c-0.82,0.81 -1.45,2.27 -2.75,2.32 -1.17,0.04 -1.68,1.73 -0.56,2.29 1.1,0.55 2.32,0.38 3.32,-0.31 0.07,2.08 0.24,4.15 0.64,6.15 0.27,1.36 2.42,1.24 2.68,-0.06 0.35,-1.76 0.51,-3.55 0.57,-5.38 1,0.24 2.05,0.21 2.9,-0.17 1.2,-0.53 1.03,-2.26 -0.37,-2.32 -0.76,-0.03 -1.48,-0.12 -2.2,-0.36l-0.28 -0.14c-0.01,-0.74 -0.03,-1.47 -0.05,-2.21 2.39,1.67 5.83,2.27 8.46,1.63 1.13,-0.27 1.12,-2.13 -0.05,-2.32 -3.56,-0.6 -6.96,-0.81 -8.59,-4.13l-0 -0.22c1.82,1.27 4.11,1.85 6.09,1.14 1.26,-0.45 1.04,-2.45 -0.38,-2.39 -2.72,0.15 -4.39,-1.39 -5.79,-3.32l0 -1.16c1.33,0.66 2.85,1.11 4.04,1.52 1.4,0.48 1.85,-1.48 0.86,-2.2 -1.57,-1.14 -3.73,-1.43 -4.9,-2.81l-0.01 -1.06c0.98,0.65 2.11,1.11 3.19,1.36 1.34,0.32 1.97,-1.47 0.86,-2.17 -0.96,-0.6 -2.03,-1.06 -2.93,-1.74 -0.52,-0.4 -0.89,-0.84 -1.16,-1.35 -0.01,-0.55 -0.02,-1.1 -0.03,-1.64 0.46,0.31 0.96,0.58 1.55,0.72 1.36,0.34 1.97,-1.48 0.86,-2.19 -1.43,-0.91 -2.25,-2.03 -2.62,-3.52 -0.05,-0.84 -0.11,-1.68 -0.19,-2.5 -0.08,-0.88 -0.77,-1.2 -1.38,-1.07l-0.83 0.62 -0.02 0.07 -0.04 0.13 -0 0.04 -0.07 0.26 -0.05 0.75c-0.11,0.74 -0.25,1.48 -0.56,2.18 -0.46,1.06 -1.25,1.76 -1.99,2.6 -0.72,0.82 0.04,2.44 1.2,1.95l1.06 -0.62 -0.02 0.83c-0.93,1.67 -2.01,3.03 -3.78,4.03 -1.29,0.73 -0.28,2.45 1,2.21 1.09,-0.2 1.99,-0.73 2.75,-1.44l0 0.32c-0.22,0.74 -0.49,1.41 -1.02,2.03 -0.76,0.87 -1.77,1.24 -2.86,1.48 -1.46,0.32 -0.94,2.39 0.39,2.45 1.23,0.05 2.45,-0.41 3.47,-1.19l-0.01 0.14c-0.62,1.24 -1.15,2.34 -2.19,3.35z"/>
  <path class="fil0" d="M90.13 192.96c-2.59,0.13 -4.23,-1.25 -5.59,-3.04 1.43,0.88 3.15,1.24 4.77,0.66 1.22,-0.43 1.01,-2.44 -0.37,-2.34 -2.1,0.17 -3.69,-1.02 -4.61,-2.69 0,-0.54 -0.01,-1.09 -0.01,-1.63 0.99,0.65 2.12,1.1 3.2,1.37 1.34,0.32 1.97,-1.47 0.85,-2.18 -0.95,-0.6 -2.03,-1.06 -2.93,-1.73 -0.52,-0.4 -0.89,-0.84 -1.15,-1.35 -0.01,-0.55 -0.02,-1.1 -0.04,-1.65 0.46,0.32 0.96,0.57 1.55,0.73 1.35,0.34 1.97,-1.49 0.86,-2.2 -1.43,-0.91 -2.25,-2.04 -2.62,-3.52 -0.05,-0.84 -0.11,-1.67 -0.19,-2.51 -0.08,-0.87 -0.78,-1.2 -1.39,-1.06l-0.83 0.62 -0.02 0.06 -0.04 0.14 -0.01 0.04 -0.07 0.26 -0.06 0.75c-0.1,0.75 -0.26,1.48 -0.56,2.18 -0.46,1.06 -1.25,1.76 -1.99,2.6 -0.72,0.81 0.04,2.44 1.2,1.95l1.06 -0.62 -0.02 0.84c-0.93,1.67 -2.01,3.03 -3.78,4.03 -1.29,0.73 -0.28,2.45 1,2.21 1.09,-0.2 1.99,-0.74 2.75,-1.44l0 1.04c-1.03,2.22 -3.18,3.41 -5.76,3.7 -1.61,0.18 -1.56,2.4 0.05,2.5 1.78,0.11 3.89,-0.57 5.56,-1.76 -0.57,1.14 -1.09,2.17 -2.08,3.11 -1.33,1.27 -3.11,1.66 -4.86,1.26 -1.3,-0.3 -2.09,1.57 -0.87,2.2 2.5,1.29 5.63,0.39 7.77,-1.52 -0.03,0.54 -0.04,1.09 -0.07,1.64 -0.55,1.18 -1.45,1.88 -3,2.22 -1.66,0.38 -3.61,0.03 -5.1,-0.75 -1.19,-0.62 -2.51,1.03 -1.43,1.95 2.35,1.99 6.55,2.25 9.38,0.76l-0.01 1.12c-0.7,1.38 -2.03,2.47 -3.69,2.25 -1.28,-0.17 -2.23,1.61 -0.89,2.25 1.57,0.75 3.28,0.53 4.66,-0.27 0.1,1.6 0.27,3.19 0.58,4.75 0.27,1.36 2.42,1.22 2.68,-0.07 0.35,-1.75 0.51,-3.55 0.57,-5.37 1.01,0.24 2.06,0.2 2.91,-0.18 1.19,-0.53 1.02,-2.26 -0.37,-2.32 -0.76,-0.03 -1.48,-0.11 -2.21,-0.36l-0.29 -0.13c-0.01,-0.66 -0.02,-1.32 -0.04,-1.98 1.21,0.63 2.66,0.94 4.09,0.85 1.19,-0.09 1.61,-1.66 0.55,-2.27 -1.09,-0.62 -2.33,-0.75 -3.44,-1.27 -0.79,-0.36 -1.14,-1 -1.36,-1.72l-0.04 -0.88c1.83,1.28 4.11,1.86 6.1,1.14 1.25,-0.44 1.03,-2.46 -0.38,-2.38z"/>
  <path class="fil0" d="M136.02 213.91c1.21,-0.43 1.01,-2.44 -0.38,-2.33 -1.96,0.16 -3.49,-0.88 -4.42,-2.39 -0.04,-0.64 -0.07,-1.26 -0.1,-1.88 0.97,0.62 2.07,1.06 3.12,1.31 1.34,0.32 1.97,-1.48 0.86,-2.18 -0.95,-0.6 -2.03,-1.06 -2.93,-1.74 -0.5,-0.38 -0.87,-0.81 -1.14,-1.3 -0,-0.56 -0.01,-1.12 -0.02,-1.68 0.45,0.31 0.95,0.56 1.52,0.71 1.36,0.35 1.97,-1.49 0.87,-2.19 -1.37,-0.87 -2.17,-1.93 -2.57,-3.31 -0.05,-0.91 -0.13,-1.82 -0.24,-2.72l-0.09 -0.24 -0.01 -0.05 -0.03 -0.04 -0.04 -0.1 -0.79 -0.6c-0.6,-0.19 -1.27,0 -1.37,0.8l-0.1 1.12c-0.11,0.72 -0.26,1.43 -0.55,2.12 -0.46,1.07 -1.25,1.76 -2,2.6 -0.72,0.82 0.04,2.44 1.2,1.95l1.05 -0.62 -0.02 0.86c-0.92,1.66 -2.01,3.02 -3.78,4.01 -1.29,0.73 -0.28,2.45 1,2.21 1.02,-0.19 1.87,-0.68 2.6,-1.32 -0.03,0.46 -0.05,0.92 -0.09,1.39 -1.1,1.92 -3.13,2.95 -5.52,3.22 -1.61,0.18 -1.55,2.4 0.07,2.5 1.71,0.1 3.73,-0.51 5.36,-1.63 0.06,1.25 0.22,2.48 0.59,3.62 0.44,1.37 2.27,1.22 2.68,-0.05 0.28,-0.88 0.42,-1.79 0.5,-2.71 1.44,0.88 3.15,1.23 4.78,0.66z"/>
  <path class="fil0" d="M32.95 166.06c2.36,0.51 5.36,-0.07 7.35,-1.62 -0.02,0.74 -0.03,1.49 -0.03,2.24 -0.65,0.42 -1.43,0.55 -2.36,0.56 -0.83,0.01 -1.25,1.32 -0.41,1.66 0.83,0.35 1.87,0.37 2.81,0.11 0.06,1.56 0.19,3.09 0.42,4.59 0.17,1.05 1.85,1.5 2.05,0.23 0.29,-1.84 0.41,-3.7 0.44,-5.57 0.89,0.76 1.98,0.99 3.06,0.51 0.88,-0.41 0.32,-1.7 -0.5,-1.7 -1.2,-0.01 -1.82,-1.44 -2.54,-2.16l-0.04 -0.03 -0.01 -0.39c1.43,0.9 3.32,1.14 4.78,0.33 0.93,-0.51 0.23,-1.91 -0.74,-1.65 -1.89,0.51 -3.33,-0.52 -4.15,-2.09 -0.01,-0.42 -0.03,-0.83 -0.04,-1.25 1.8,1.82 4.61,2.72 6.88,1.6 0.95,-0.47 0.22,-1.85 -0.73,-1.62 -3.17,0.79 -4.99,-1.61 -6.21,-4.11l0 -0.07 -0.01 -0.36c0.92,0.76 2.06,1.24 3.19,1.22 1.05,-0.03 1.26,-1.63 0.21,-1.85 -1.93,-0.39 -2.9,-1.53 -3.43,-3.27l-0 -0.55c0.69,0.74 1.55,1.3 2.61,1.52 1,0.21 1.6,-1.19 0.66,-1.69 -1.58,-0.85 -2.53,-2.09 -3.32,-3.6l-0.02 -1 0.97 0.66c0.93,0.42 1.76,-0.67 1.04,-1.42 -0.6,-0.64 -1.16,-1.19 -1.59,-1.97 -0.39,-0.7 -0.53,-1.49 -0.63,-2.27l-0.03 -0.61c-0.04,-0.65 -0.57,-0.89 -1.03,-0.8l-0.16 0.04 -0.01 0 -0.42 0.37 -0.08 0.2 -0.01 0.01 0 0.01 -0.06 0.22 -0.02 0.48 -0.01 0.27 -0.05 1.04c-0.27,1.51 -1.03,2.63 -2.44,3.48 -0.87,0.53 -0.23,1.87 0.73,1.61 0.61,-0.17 1.12,-0.46 1.57,-0.82 -0.01,0.49 -0.02,1 -0.03,1.49 -0.68,1.52 -2.22,2.15 -3.72,3.04 -0.88,0.53 -0.23,1.85 0.72,1.6 1.04,-0.27 2.1,-0.74 2.98,-1.38l-0.01 1.19c-0.97,1.35 -3.01,1.63 -4.43,2.62 -0.79,0.56 -0.27,1.99 0.73,1.62 1.11,-0.41 2.51,-0.82 3.68,-1.45l-0.01 1.05 -0.01 0.22c-1.24,1.76 -2.79,3.16 -5.22,2.99 -1.09,-0.08 -1.11,1.49 -0.2,1.8 1.8,0.6 3.77,0.01 5.31,-1.17l-0.03 0.59c-1.33,2.83 -4.26,3.14 -7.28,3.57 -0.94,0.14 -1.27,1.55 -0.2,1.78z"/>
  <path class="fil0" d="M189.11 136.94c-5.51,-1.06 -10.74,-2.52 -16.37,-2.89 -6.78,-0.44 -13.82,0.58 -20.6,0.92 -27.7,1.42 -55.76,3.06 -83.24,7.07 -1.8,0.26 -1.84,3.05 0.07,2.91 22.81,-1.66 45.51,-4.74 68.36,-5.95 11.7,-0.61 23.8,-2.02 35.5,-1.48 5.53,0.25 10.7,2.01 16.07,3.08 1.55,0.31 7.69,2.46 8.67,1.86 -2.4,1.46 -5.85,1.86 -8.55,2.49 -4.17,0.98 -8.22,2.62 -12.31,3.9 -10.48,3.26 -21,5.12 -31.96,5.67 -23.87,1.19 -48.1,0.07 -71.79,-3.05 -2.42,-0.32 -3.36,3.4 -0.92,3.71 25.93,3.25 51.95,3.88 78.04,2.57 11.93,-0.61 23.52,-3.83 34.79,-7.58 3.83,-1.28 15.54,-2.2 16.69,-6.82 1.26,-5.1 -9.65,-5.88 -12.44,-6.42z"/>
  <path class="fil0" d="M162.05 122.39c2.44,-0.28 4.9,-0.18 7.34,-0.35 1.53,-0.1 1.43,-2.24 -0.05,-2.34 -2.58,-0.19 -5.12,-0.05 -7.65,0.43 -1.27,0.25 -0.92,2.4 0.37,2.25z"/>
  <path class="fil0" d="M185.91 122.72c1.03,0.03 2.05,0.08 3.08,0.13 -0.07,0.45 -0.09,0.84 0,1.3 0.22,1.14 2.03,1.04 2.24,-0.05l0.02 -1.04 -0.02 -0.08c1.67,0.1 3.34,0.2 5.01,0.24 -0.03,0.44 -0.03,0.87 0.09,1.29 0.32,1.14 1.93,1.02 2.23,-0.05 0.11,-0.4 0.11,-0.81 0.09,-1.22 0.79,-0.01 1.59,-0.04 2.38,-0.1 2.08,-0.15 3.9,-0.65 5.86,-0.81 -0.01,0.58 0.02,1.16 0.01,1.7 -0.01,0.53 0.41,1.01 0.91,1.13 0.69,0.18 1.23,-0.26 1.45,-0.88 0.21,-0.58 0.34,-1.24 0.37,-1.91 2.06,0.29 3.98,1.24 6.07,1.48 1.48,0.18 2.1,-1.89 0.58,-2.31 -4.19,-1.16 -7.64,-2.65 -12.08,-1.7 -6.05,1.28 -12.2,0.64 -18.34,0.64 -1.44,0 -1.37,2.19 0.05,2.22z"/>
  <path class="fil0" d="M175.44 117.74c0.78,-0.15 1.58,-0.25 2.39,-0.32l0.14 0.67c0.42,1.16 1.89,1.04 2.29,-0.05l0.13 -0.75c3.15,-0.06 6.39,0.18 9.41,0.14 1.48,-0.02 1.41,-2.27 -0.06,-2.29 -4.83,-0.07 -10.18,-0.54 -14.94,0.43 -1.44,0.29 -0.77,2.45 0.65,2.18z"/>
  <path class="fil0" d="M96.99 166.27c-3.09,-0.33 -5.84,-1.91 -8.95,-2.07 -3.41,-0.18 -6.76,0.42 -10.14,0.66 -1.5,0.11 -1.46,2.32 0.06,2.34 3.45,0.05 6.87,-0.73 10.31,-0.35 -0.13,0.7 -0.03,1.45 0,2.15 0.05,1.21 1.71,1.66 2.3,0.56 0.27,-0.49 0.43,-1.09 0.45,-1.65l-0.01 -0.45c2.09,0.68 3.93,1.63 6.36,1.23 1.51,-0.25 0.86,-2.29 -0.39,-2.42z"/>
  <path class="fil0" d="M124.8 170.29c0,1.2 1.78,1.69 2.31,0.56 0.22,-0.45 0.38,-0.95 0.46,-1.46l1.02 0.34c4.19,1.26 8.9,-0.09 13.08,-0.66 4.19,-0.57 8.17,0.99 12.25,-0.38 1.56,-0.52 0.82,-2.65 -0.72,-2.38 -4.38,0.75 -9.04,-0.5 -13.52,0.12 -4.56,0.63 -8.35,1.32 -12.81,-0.28 -2.66,-0.95 -5.19,-0.93 -7.89,-0.21 -3.92,1.05 -6.96,1.03 -10.98,0.76 -1.37,-0.09 -1.46,1.94 -0.25,2.29 2.15,0.64 5.41,1.45 7.66,0.96 2.36,-0.51 4.55,-1.52 6.97,-1.75 0.79,-0.09 1.6,0.04 2.4,0.25 -0.05,0.61 0,1.25 0,1.84z"/>
  <path class="fil0" d="M167.91 160.87c-0.64,0.14 -1.24,0.39 -1.89,0.48 -0.73,0.11 -1.47,0.11 -2.2,0.22 -0.52,0.08 -0.97,0.33 -1.1,0.88 -0.14,0.57 0.23,1.32 0.85,1.42 1.71,0.26 3.88,0.23 5.31,-0.86 1.08,-0.81 0.38,-2.46 -0.97,-2.14z"/>
  <path class="fil0" d="M121.4 187.52c-2.36,-1.99 -4.91,-1.55 -7.83,-1.09 -5.02,0.77 -9.78,-0.54 -14.74,-0.97 -1.33,-0.12 -1.45,1.93 -0.25,2.25 2.44,0.67 4.88,1.21 7.35,1.54 -0.02,0.67 0.07,1.34 0.34,1.84 0.45,0.81 1.67,0.72 2.09,-0.05 0.23,-0.41 0.32,-0.96 0.32,-1.53l0.71 0.05c0.92,0.03 1.82,0.01 2.7,-0.04 -0,0.87 -0,1.75 0.05,2.62 0.07,1.1 1.8,1.76 2.28,0.56 0.4,-0.97 0.74,-2.22 0.58,-3.35 1.7,-0.08 3.4,-0.08 5.21,0.31 1.18,0.26 2.19,-1.29 1.18,-2.14z"/>
  <path class="fil0" d="M145.22 187.71c-1.58,-4.85 -9.97,-1.61 -13.33,-1.16 -1.47,0.21 -1.43,2.18 0.06,2.31 3.76,0.3 8.14,-1.96 11.48,0.3 0.92,0.63 2.12,-0.46 1.79,-1.45z"/>
  <path class="fil0" d="M97.26 197.8c1.95,2.1 4.6,2.77 7.33,2.82l0.11 0.83c0.24,1.16 2.06,1.05 2.29,-0.06l0.11 -0.88c0.7,-0.08 1.4,-0.16 2.07,-0.27 1.16,-0.19 1.68,-2.1 0.25,-2.28 -1.15,-0.15 -2.26,-0.15 -3.34,-0.16l-0.46 -0.09 -0.37 0.08c-2.17,-0.03 -4.21,-0.23 -6.26,-1.83 -1.27,-1 -2.86,0.62 -1.74,1.82z"/>
  <path class="fil0" d="M119.35 198.32c-0.84,-0.19 -1.87,0.1 -2.67,-0.24 -0.58,-0.23 -1.23,-0.15 -1.56,0.45 -0.3,0.53 -0.11,1.28 0.45,1.56 1.13,0.57 2.58,0.75 3.83,0.48 1.15,-0.24 1.04,-2.01 -0.05,-2.25z"/>
  <path class="fil0" d="M104.21 209.85l0.01 -0.09 0.07 0.22 -0.08 -0.14zm10.83 -2.75c-4.78,1.97 -9.5,-0.94 -14.36,-0.77 -1.36,0.05 -1.57,2.02 -0.26,2.35 1.13,0.3 2.4,0.68 3.72,1.04l0.04 0.25 0.04 0.27 0.08 1.17c0.09,1.09 1.72,1.72 2.24,0.55 0.18,-0.42 0.32,-1 0.35,-1.58 3.38,0.69 6.85,0.81 9.39,-1.29 0.93,-0.76 -0.14,-2.44 -1.23,-1.99z"/>
  <path class="fil0" d="M140.69 198.68c-1.02,-0.08 -1.74,0.54 -1.83,1.54 -0.09,1.06 1.35,1.37 1.96,0.72 1.4,-0.22 1.29,-2.12 -0.13,-2.26z"/>
  <path class="fil0" d="M142.16 204.54c-0.54,0 -0.96,0.32 -1.4,0.41 -1.31,0.3 -0.92,2.29 0.36,2.28 0.54,-0.01 0.97,-0.32 1.41,-0.42 1.32,-0.3 0.91,-2.27 -0.36,-2.27z"/>
  <path class="fil0" d="M192.41 167.85l-1.05 -0.08c-1.53,-0.05 -1.49,2.45 0.06,2.4l0.74 -0.04c0.52,-0.08 0.95,-0.32 1.09,-0.87 0.14,-0.57 -0.22,-1.31 -0.84,-1.41z"/>
  <path class="fil0" d="M167.28 169.9l-0.88 0.15c-1.45,0.05 -1.38,2.22 0.05,2.25 1.14,0.02 2.22,-0.22 2.8,-1.31 0.67,-1.29 -1.21,-2.32 -1.97,-1.09z"/>
  <path class="fil0" d="M131.57 133.81c3.85,-0.2 7.53,-0.99 11.2,-1.79l0.06 1.14c0.25,0.83 1.5,1.26 2.09,0.5 0.48,-0.6 0.65,-1.42 0.63,-2.24 0.92,-0.19 1.85,-0.37 2.76,-0.53 -0.02,0.45 -0.02,0.89 0.1,1.33 0.29,1.15 1.97,1.03 2.25,-0.05 0.14,-0.54 0.1,-1.1 0.06,-1.66 2.07,-0.28 4.16,-0.42 6.32,-0.34l-0.05 0.55c0,0.67 0.07,1.15 0.51,1.68 0.4,0.5 1.34,0.43 1.73,-0.04 0.46,-0.56 0.53,-1.28 0.44,-1.99l0.4 0.05c4.08,0.58 7.27,0.44 11.01,0.01 -0.01,0.5 -0.06,0.99 0.01,1.48 0.09,0.55 0.34,1 0.92,1.15 0.52,0.13 1.11,-0.11 1.36,-0.59 0.36,-0.72 0.49,-1.56 0.42,-2.39l0.08 -0.01c1.08,-0.15 2.13,-0.15 3.18,-0.07 -0.07,0.52 -0.02,1.05 0.15,1.5 0.16,0.4 0.42,0.71 0.86,0.82 0.48,0.12 1.15,-0.09 1.36,-0.59 0.17,-0.44 0.25,-0.9 0.28,-1.36 1.09,0.22 2.17,0.48 3.25,0.76 -0.09,0.51 -0.14,1.04 -0.14,1.52 0.01,1.3 1.67,1.55 2.31,0.57 0.27,-0.41 0.38,-0.92 0.4,-1.46 1.81,0.41 3.64,0.7 5.53,0.63 1.61,-0.06 1.53,-2.45 -0.06,-2.48 -5.34,-0.14 -10.1,-2.66 -15.46,-2.76 -2.16,-0.04 -4.34,0.47 -6.46,0.78 -3.45,0.51 -6.77,-0.24 -10.17,-0.65 -9.55,-1.13 -18.13,2.98 -27.39,4.28 -1.41,0.19 -1.44,2.34 0.05,2.26z"/>
  <path class="fil0" d="M66.64 137.96c0.97,0.02 1.94,-0.15 2.9,-0.41 0.01,0.43 0.04,0.87 0.12,1.29 0.2,1.15 2.07,1.04 2.26,-0.05 0.12,-0.69 0.14,-1.39 0.17,-2.1 0.75,-0.29 1.5,-0.59 2.25,-0.87 0.03,0.44 0.09,0.85 0.23,1.2 0.47,1.2 1.93,1.07 2.37,-0.06 0.21,-0.54 0.26,-1.24 0.21,-1.92 1.6,-0.23 3.22,-0.08 4.85,0.16l0 0.04c0.05,0.42 0.03,0.84 0.07,1.26 0.09,1.15 1.65,1.64 2.24,0.55 0.21,-0.39 0.33,-0.9 0.35,-1.43 2.15,0.34 4.29,0.55 6.39,-0.04 2.13,-0.6 4.17,-1.16 6.21,-1.61l0.1 0.64c0.26,1.17 2.05,1.06 2.3,-0.06l0.13 -1.09c1.51,-0.27 3.04,-0.46 4.62,-0.57 -0.09,0.76 -0.15,1.52 -0.1,2.31 0.03,0.53 0.37,0.99 0.89,1.12 0.69,0.17 1.2,-0.26 1.43,-0.86 0.34,-0.91 0.35,-1.77 0.27,-2.66l0.52 -0.01c1.47,0.02 2.95,0.14 4.41,0.29l0.04 0.23c0.34,1.13 1.85,1.03 2.24,0.02 2.95,0.34 5.88,0.73 8.84,0.74 1.57,0 1.89,-2.5 0.31,-2.78 -9.74,-1.69 -19.85,-2.49 -29.44,0.3 -3.55,1.04 -5.98,1.45 -9.68,1 -2.47,-0.3 -4.84,-0.52 -7.34,-0.28 -3.64,0.35 -7.03,2.38 -10.52,3.37 -1.29,0.37 -0.9,2.21 0.37,2.25z"/>
  <path class="fil0" d="M53.63 137.68c-1.02,-0.26 -2.03,0.17 -3.03,0.42 -1.15,0.29 -2.38,0.36 -3.49,0.72 -1.15,0.36 -1.1,2.02 0.05,2.33 1.13,0.3 2.31,-0.01 3.42,-0.24 1.07,-0.21 2.52,-0.32 3.39,-1 0.81,-0.62 0.76,-1.96 -0.35,-2.23z"/>
  <path class="fil0" d="M33 128.96c-7.22,-3.1 -16.28,0.37 -23.77,1.01 -1.25,0.1 -1.65,2.17 -0.25,2.33 2.26,0.26 4.44,0.14 6.63,-0.12l0.07 0.41c0.26,1.15 2,1.03 2.25,-0.06l0.08 -0.67c0.69,-0.1 1.38,-0.22 2.08,-0.32 1.48,-0.23 2.92,-0.37 4.35,-0.44l0.03 0.44c0.07,0.51 0.34,0.95 0.87,1.09 0.55,0.14 1.32,-0.21 1.39,-0.84l0.05 -0.74c1.86,0 3.72,0.1 5.65,0.25 1.22,0.09 1.69,-1.86 0.57,-2.34z"/>
  <path class="fil0" d="M42.18 129.73c1.27,0.08 2.54,0.03 3.82,-0.07l0.06 0.98c0.09,1.16 1.67,1.67 2.27,0.56 0.3,-0.56 0.37,-1.2 0.29,-1.83 1.44,-0.2 2.88,-0.45 4.31,-0.7l0.13 0.83c0.31,1.21 2.08,1.09 2.38,-0.06l0.11 -1.19c2.59,-0.39 5.06,-0.61 7.53,-0.64l0.04 1.2c0.05,1.13 1.77,1.73 2.29,0.55 0.25,-0.55 0.39,-1.13 0.43,-1.73 1.87,0.07 3.76,0.23 5.73,0.5 1.37,0.18 2.49,-1.86 0.97,-2.48 -9.38,-3.78 -20.87,0.59 -30.42,1.73 -1.51,0.18 -1.47,2.26 0.06,2.36z"/>
  <path class="fil0" d="M85.68 126.87c1.25,-0.05 2.48,-0.21 3.7,-0.43l0.09 0.47c0.34,1.18 1.97,1.05 2.29,-0.05l0.09 -0.91c1.88,-0.42 3.75,-0.91 5.64,-1.29 0.02,0.46 0.02,0.92 0,1.38 -0.04,0.99 1.43,1.63 2.06,0.8 0.55,-0.74 0.77,-1.71 0.63,-2.61 0.52,-0.06 1.04,-0.13 1.57,-0.15 2.07,-0.12 4.15,-0.01 6.23,0.18 -0.01,0.47 -0.02,0.95 -0.02,1.42 0.02,1.16 1.7,1.63 2.23,0.55 0.27,-0.55 0.39,-1.13 0.37,-1.7 2.92,0.33 5.83,0.73 8.74,0.82 1.35,0.04 1.62,-2.21 0.26,-2.38 -5.37,-0.65 -10.79,-1.19 -16.19,-1.48 -6.16,-0.33 -12.08,1.92 -18.06,3 -1.38,0.24 -0.96,2.41 0.38,2.38z"/>
  <path class="fil0" d="M126.49 124.92c3.42,0.55 6.83,0.24 10.28,-0.24 -0.02,0.46 -0.02,0.91 -0.01,1.36 0.03,1.44 1.93,1.49 2.37,0.27 0.24,-0.65 0.45,-1.34 0.54,-2.06 1.06,-0.16 2.12,-0.32 3.18,-0.45l0.2 0.91c0.47,1.18 1.89,1.06 2.33,-0.05l0.2 -1.14c1.94,-0.15 3.89,-0.17 5.84,0.07 1.64,0.2 2.17,-1.9 0.62,-2.48 -7.46,-2.8 -17.7,0.58 -25.3,1.57 -1.19,0.15 -1.62,2.03 -0.25,2.25z"/>
  <path class="fil0" d="M98.47 176.65c-1.5,0.09 -1.38,2.14 0.05,2.28 2.93,0.27 6.03,0.75 9.18,1.19l0.24 1.05c0.37,0.8 1.72,0.71 2.06,-0.05l0.2 -0.68c4.85,0.59 9.76,0.92 14.33,0.04 0.1,0.8 0.32,1.58 0.62,2.19 0.4,0.83 1.78,0.76 2.16,-0.05 0.38,-0.83 0.5,-1.92 0.41,-2.95 1.82,-0.62 3.49,-0.87 5.16,-0.95 0,0.55 0.08,1.07 0.24,1.45 0.35,0.88 1.34,1.15 2.06,0.49 0.56,-0.51 0.72,-1.19 0.79,-1.92 0.75,0.03 1.52,0.08 2.32,0.13 2.67,0.17 6.1,-0.17 8.65,0.47 1.55,0.39 2.65,-1.6 1.49,-2.7 -1.36,-1.29 -3.97,-1 -5.66,-1.1 -3.13,-0.19 -6.69,-0.87 -9.81,-0.61 -5.23,0.42 -9.66,2.84 -15.07,2.98 -6.5,0.18 -12.91,-1.61 -19.43,-1.25z"/>
  <path class="fil0" d="M119.25 54.48c0.94,1.87 2.4,3.37 4.25,4.34 -1.85,0.97 -3.29,2.47 -4.23,4.35 -0.94,-1.88 -2.4,-3.37 -4.25,-4.33 1.85,-0.97 3.3,-2.48 4.23,-4.35zm-9.35 4.52l0.59 0.85 0.2 0.09 0.02 0.01c3.96,0.64 6.86,3.07 7.41,7.18 -0.1,0.86 0.88,1.23 1.58,1l0.15 -0.06 0.11 -0.06 0.24 -0.22 0.01 -0.01 0.15 -0.44c0.58,-4.18 3.32,-6.69 7.41,-7.38l0.35 -0.13c0.42,-0.22 0.58,-0.7 0.49,-1.16l-0.59 -0.85 -0.2 -0.08 -0.03 -0.01c-3.96,-0.64 -6.85,-3.08 -7.41,-7.18 0.09,-0.87 -0.88,-1.24 -1.58,-1l-0.16 0.06 -0.11 0.07 -0.23 0.22 -0.01 0.01 -0.16 0.44c-0.57,4.19 -3.31,6.7 -7.4,7.39l-0.35 0.12c-0.43,0.22 -0.58,0.69 -0.49,1.16z"/>
  <path class="fil0" d="M64.57 94.48l-1.04 -1.07 1.02 -1.08 1.04 1.07 -1.02 1.08zm0.36 4.12l0.14 -0.06 0.53 -0.52 0.05 -0.15 0.02 -0.05c0.29,-1.96 1.48,-2.93 3.36,-3.31l0 0 0.26 -0.12c0.44,-0.22 0.6,-0.7 0.5,-1.15l-0.62 -0.85 -0.14 -0.06 -0.06 -0.03c-1.68,-0.34 -3,-1.24 -3.27,-3.05 0.04,-0.49 -0.25,-0.82 -0.64,-0.97l-0.53 -0.13 -0.19 0.05 -0.14 0.03 -0.13 0.06 -0.53 0.52 -0.05 0.15 -0.02 0.06c-0.29,1.96 -1.48,2.92 -3.37,3.3l-0 0 -0.26 0.12c-0.44,0.23 -0.6,0.7 -0.5,1.16l0.62 0.84 0.14 0.06 0.06 0.03c1.68,0.34 3.01,1.23 3.27,3.04 -0.04,0.49 0.25,0.82 0.65,0.97l0.52 0.14 0.2 -0.05 0.14 -0.03z"/>
  <path class="fil0" d="M168.44 68.27c-0.55,0.4 -1.01,0.9 -1.39,1.46 -0.38,-0.55 -0.86,-1.04 -1.4,-1.44 0.54,-0.4 1.01,-0.89 1.39,-1.46 0.38,0.56 0.86,1.05 1.4,1.44zm-1.83 -5.67l-0.18 0.06 -0.09 0.05 -0.24 0.24 -0.16 0.42c-0.34,2.23 -1.72,3.39 -3.87,3.81l-0.27 0.11c-0.44,0.22 -0.59,0.7 -0.5,1.16l0.61 0.85 0.15 0.07 0.05 0.02c1.97,0.38 3.49,1.47 3.79,3.57 -0.08,0.86 0.88,1.23 1.57,1.01l0.19 -0.07 0.09 -0.04 0.25 -0.24 0 -0 0.16 -0.42c0.33,-2.23 1.71,-3.39 3.87,-3.81l0.28 -0.12c0.43,-0.22 0.59,-0.7 0.5,-1.16l-0.61 -0.85 -0.15 -0.06 -0.05 -0.02c-1.97,-0.39 -3.49,-1.47 -3.79,-3.58 0.08,-0.85 -0.88,-1.22 -1.57,-1z"/>
  <path class="fil0" d="M113.28 63.19c-0.76,0.71 -1.48,1.45 -2.21,2.2 -1.01,1.06 0.59,2.56 1.64,1.56 0.75,-0.72 1.48,-1.45 2.2,-2.2 1.01,-1.07 -0.58,-2.54 -1.63,-1.56z"/>
  <path class="fil0" d="M113.13 54.5c1.12,0.97 2.52,-0.55 1.57,-1.65 -0.45,-0.52 -0.97,-0.98 -1.48,-1.45 -1.07,-0.99 -2.51,0.57 -1.54,1.61 0.47,0.51 0.93,1.03 1.46,1.48z"/>
  <path class="fil0" d="M124.85 51.44c-0.56,0.54 -1.1,1.1 -1.64,1.66 -1.01,1.03 0.58,2.53 1.61,1.53 0.55,-0.54 1.12,-1.08 1.66,-1.64 1.01,-1.05 -0.59,-2.55 -1.63,-1.55z"/>
  <path class="fil0" d="M124.79 63.34c-1.11,-0.96 -2.49,0.55 -1.55,1.62 0.57,0.66 1.19,1.24 1.83,1.85 1.07,1.01 2.55,-0.58 1.57,-1.64 -0.6,-0.64 -1.19,-1.26 -1.85,-1.83z"/>
  <path class="fil0" d="M82.41 64.78c-1.24,1.02 -0.7,3.23 0.89,3.63 0.92,0.23 1.9,-0.2 2.36,-1.04 0.46,-0.83 0.27,-2.04 -0.48,-2.65 -0.7,-0.81 -2.08,-0.74 -2.77,0.06z"/>
  <path class="fil0" d="M139.57 89.36c-1.17,0 -2.12,1.05 -2.09,2.2 0.03,1.19 1.03,2.09 2.2,2.09 1.17,0 2.12,-1.05 2.09,-2.2 -0.04,-1.19 -1.02,-2.09 -2.2,-2.09z"/>
  <path class="fil0" d="M204.07 93.54c0.49,-0.09 0.92,-0.45 1.23,-0.83 0.61,-0.74 0.81,-1.72 0.27,-2.58 -0.55,-0.88 -2.03,-1.42 -2.93,-0.69 -0.55,0.44 -1.07,0.83 -1.2,1.6 -0.13,0.75 0.02,1.47 0.59,2.01 0.59,0.55 1.28,0.62 2.04,0.49z"/>
  <polygon class="fil0" points="215.49,70.12 215.51,70.22 "/>
  <path class="fil0" d="M214.24 72.07l0.6 -0.25c0.51,-0.39 0.82,-0.96 0.66,-1.6l-0.03 -0.19 -0.23 -0.49c-0.34,-0.59 -1.02,-0.72 -1.57,-0.49 -0.79,0.08 -1.47,0.69 -1.45,1.57 0.03,1.08 1.03,1.65 2.02,1.45z"/>
  <path class="fil0" d="M95.16 88.93c-1.42,0 -1.37,2.21 0.05,2.21 1.42,0 1.37,-2.21 -0.05,-2.21z"/>
  <path class="fil0" d="M114.62 82.19c-1.61,0.11 -1.51,2.36 0.06,2.47l0.97 -0.2c0.56,-0.43 0.88,-1.41 0.2,-1.93 -0.4,-0.29 -0.76,-0.38 -1.24,-0.34z"/>
  <path class="fil0" d="M98.89 54.3c1.75,0 1.68,-2.71 -0.06,-2.71 -1.75,0 -1.68,2.71 0.06,2.71z"/>
  <path class="fil0" d="M94.5 72.59c0.77,0.19 1.75,-0.44 1.64,-1.31l-0.28 -0.98c-0.52,-0.81 -1.63,-0.73 -2.12,0.05l-0.21 0.64c-0.09,0.71 0.2,1.41 0.97,1.6z"/>
  <path class="fil0" d="M81.48 48.01l-0.27 0.04 -0.01 0.01 -0.04 0.01 -0.26 0.06c-0.55,0.14 -0.8,0.58 -0.82,1.06 -0.12,0.56 0.1,1.16 0.87,1.27l0.27 0.05c1.92,0.48 2.01,-2.76 0.27,-2.5z"/>
  <path class="fil0" d="M45.96 78.42c-1.72,0 -1.65,2.66 0.06,2.66 1.71,0 1.65,-2.66 -0.06,-2.66z"/>
  <path class="fil0" d="M61.38 73.03c-1.57,0 -1.5,2.43 0.06,2.43 1.57,0 1.5,-2.43 -0.06,-2.43z"/>
  <path class="fil0" d="M27.98 97.32l-0.15 -0.11c-0.62,-0.82 -1.97,-0.76 -2.61,0.01 -0.78,0.69 -0.99,1.66 -0.55,2.6 0.22,0.64 0.63,1.14 1.37,1.33 0.98,0.24 2.25,-0.37 2.42,-1.46l-0.09 0.18c0.41,-0.76 0.37,-1.98 -0.39,-2.54z"/>
  <path class="fil0" d="M34.97 75.01c-0.71,0.01 -1.42,0.48 -1.42,1.4l0 0.08 0 0.01 0.01 0.43c-0.01,0.91 0.69,1.34 1.39,1.33 0.71,-0.01 1.43,-0.48 1.42,-1.39l0 -0.43 0.01 -0.01 -0.01 -0.08c0.01,-0.91 -0.69,-1.34 -1.41,-1.33z"/>
  <path class="fil0" d="M41.19 92.17c-1.51,0 -1.44,2.34 0.06,2.34 1.51,0 1.44,-2.34 -0.06,-2.34z"/>
  <path class="fil0" d="M23.93 84.87c-1.45,0 -1.39,2.25 0.05,2.25 1.45,0 1.39,-2.25 -0.05,-2.25z"/>
  <path class="fil0" d="M41.24 62.16c1.47,0 1.42,-2.28 -0.05,-2.28 -1.47,0 -1.41,2.28 0.05,2.28z"/>
  <path class="fil0" d="M105.39 105.76l-0.35 -0.08c-0.81,-0.18 -1.6,0.42 -1.58,1.27 0.02,0.88 0.85,1.36 1.64,1.19l0.34 -0.08c1.17,-0.32 1.05,-1.99 -0.05,-2.3z"/>
  <path class="fil0" d="M126.47 93.72c-0.33,-1.2 -2.05,-1.07 -2.36,0.06l-0.08 0.35c-0.14,0.82 0.39,1.63 1.29,1.61 0.93,-0.03 1.35,-0.86 1.21,-1.68l-0.07 -0.35z"/>
  <path class="fil0" d="M131.4 101.33c-0.46,0.51 -0.4,1.2 0.04,1.69 0.32,0.36 0.79,0.39 1.23,0.41 1.62,0.06 1.58,-2.6 -0.07,-2.54 -0.45,0.01 -0.88,0.09 -1.21,0.44z"/>
  <path class="fil0" d="M156.48 96.87c-1.61,0 -1.54,2.48 0.07,2.48 1.6,0 1.53,-2.48 -0.07,-2.48z"/>
  <path class="fil0" d="M183.65 97.95c-1.63,0 -1.56,2.53 0.06,2.53 1.63,0 1.57,-2.53 -0.06,-2.53z"/>
  <path class="fil0" d="M189.65 79.11l-0.5 -0.95 -0.03 -0.03 -0.14 -0.1 -0.02 -0.01c-0.41,-0.32 -0.88,-0.41 -1.34,-0.31l-0.27 0.08 -0.03 0.01 -0.09 0.01 -0.44 0.22c-1.21,0.46 -1.12,2.21 0.01,2.7l0.17 0.09 -0.06 -0.03 0.1 0.04 0.1 0.04 0.06 0.03 1.17 0.14 0.4 -0.14 0.05 -0.03 0.11 -0.05 0.12 -0.11 0.17 -0.12 0.04 -0.03 0.4 -0.77 0.01 -0.04 0.03 -0.18 0.01 -0.19 -0 -0.16 -0.01 -0.11z"/>
  <polygon class="fil0" points="187.09,80.87 186.96,80.82 "/>
  <polygon class="fil0" points="189.18,80.58 189.17,80.59 189.15,80.61 "/>
  <polygon class="fil0" points="188.89,80.82 188.88,80.82 188.87,80.83 "/>
  <path class="fil0" d="M169.7 87.21c-1.76,0 -1.68,2.71 0.06,2.71 1.75,0 1.68,-2.71 -0.06,-2.71z"/>
  <path class="fil0" d="M180.72 80.01c-1.57,0 -1.5,2.42 0.06,2.42 1.56,0 1.49,-2.42 -0.06,-2.42z"/>
  <path class="fil0" d="M143.26 77.46c-1.54,0 -1.47,2.38 0.06,2.38 1.54,0 1.48,-2.38 -0.06,-2.38z"/>
  <path class="fil0" d="M138.98 62.87c0.55,0.14 1.3,-0.22 1.39,-0.84l0.05 -0.67c0.1,-1.49 -2.43,-1.46 -2.34,0.05l0.03 0.37c0.07,0.51 0.33,0.94 0.87,1.08z"/>
  <path class="fil0" d="M130.05 74.56c-1.5,0 -1.44,2.32 0.05,2.32 1.5,0 1.44,-2.32 -0.05,-2.32z"/>
  <path class="fil0" d="M154.75 52.64l0.35 0.08c0.8,0.15 1.6,-0.4 1.58,-1.26 -0.03,-0.89 -0.84,-1.33 -1.64,-1.19l-0.35 0.07c-1.17,0.32 -1.05,2.01 0.06,2.31z"/>
  <path class="fil0" d="M131.11 44.62l0.62 0.52c1.03,0.57 2.07,-0.62 1.52,-1.6l-0.54 -0.61c-1.02,-1.1 -2.72,0.66 -1.61,1.69z"/>
  <path class="fil0" d="M193.15 68.33c-0.49,-0.07 -0.93,-0.14 -1.42,-0.09 -0.55,0.08 -1.01,0.36 -1.15,0.93 -0.15,0.59 0.23,1.38 0.89,1.48 0.5,0.06 0.92,0.05 1.42,-0.01 0.52,-0.07 0.97,-0.34 1.11,-0.9 0.14,-0.56 -0.22,-1.34 -0.85,-1.42z"/>
  <path class="fil0" d="M204.28 80.25c1.59,0 1.53,-2.47 -0.06,-2.47 -1.59,0 -1.53,2.47 0.06,2.47z"/>
  <path class="fil0" d="M206.81 61.49l0.08 0.09 -0.09 -0.22 0.12 0.24 -0.02 -0.02 0.02 0.02c0.52,1 2.17,0.6 2.18,-0.6l-0.21 -0.82 -0.09 -0.17 -0.06 -0.06c-0.29,-1.38 -2.49,-0.99 -2.42,0.39l0.23 0.84 0.26 0.32z"/>
  <path class="fil0" d="M219.01 89.29l0.16 0.2 0.09 0.09c1.57,1.52 4.09,-0.14 3.52,-2.17 -0.25,-0.93 -1.2,-1.61 -2.17,-1.55l-0.86 0.23 -0.45 0.18 -0.04 0.01 -1 0.56c-0.36,0.47 -0.59,1.2 -0.18,1.73l0.92 0.71z"/>
  <path class="fil0" d="M83.2 103.84c-0.73,-0.13 -1.44,0.02 -1.97,0.57 -0.91,0.96 -0.65,2.55 0.49,3.19 0.98,0.53 2.23,0.17 2.77,-0.8 0.6,-1.09 0.01,-2.72 -1.29,-2.96z"/>
  <path class="fil0" d="M79.16 84.04l0.58 -0.1c1.28,-0.44 1.15,-2.11 -0.06,-2.53l-0.22 -0.04c-0.74,-0.09 -1.45,0.2 -1.65,0.99 -0.2,0.79 0.46,1.78 1.35,1.68z"/>
  <path class="fil0" d="M47.42 103.17c-1.64,0 -1.57,2.55 0.06,2.55 1.65,0 1.57,-2.55 -0.06,-2.55z"/>
  <path class="fil0" d="M129.5 13.78c1.04,0.45 2.19,-0.11 2.11,-1.35 -0.04,-0.68 -0.59,-1.25 -1.29,-1.23 -0.47,0.01 -0.79,0.26 -1,0.6 -0.65,0.44 -0.55,1.67 0.18,1.98z"/>
  <path class="fil0" d="M175.51 26.51c0.54,0.14 1.3,-0.22 1.37,-0.83l0.05 -0.57c0.04,-1.47 -2.34,-1.43 -2.29,0.05l0.01 0.27c0.06,0.51 0.33,0.94 0.86,1.08z"/>
  <path class="fil0" d="M190.96 39.04c1.6,0 1.53,-2.47 -0.05,-2.47 -1.6,0 -1.53,2.47 0.05,2.47z"/>
  <path class="fil0" d="M71.08 25.33c1.09,-0.03 1.68,-0.88 1.78,-1.87l-0.29 -1.03c-0.44,-0.88 -1.72,-1.08 -2.51,-0.59 -0.64,0.4 -0.89,1.05 -0.82,1.7l-0.02 -0.05 -0.01 0.06c-0.1,0.99 0.97,1.8 1.87,1.79z"/>
  <path class="fil0" d="M51.89 35.96c1.54,0 1.48,-2.38 -0.06,-2.38 -1.54,0 -1.47,2.38 0.06,2.38z"/>
  <path class="fil0" d="M29.25 65.32c-1.45,0 -1.39,2.24 0.05,2.24 1.45,0 1.39,-2.24 -0.05,-2.24z"/>
  <path class="fil0" d="M23.6 72.27l-0.01 0.01 -0.19 0.02 0.19 -0.03zm0.43 -0.12c0.88,-0.4 0.77,-1.97 -0.26,-2.15 -0.97,-0.17 -1.76,0.4 -1.71,1.42 0.05,1.17 1.33,1.37 1.97,0.73z"/>
  <path class="fil0" d="M12.45 105.8c-1.46,0 -1.39,2.25 0.06,2.25 1.45,0 1.39,-2.25 -0.06,-2.25z"/>
  <path class="fil0" d="M218.85 99.65c0.91,-0.19 1.27,-1.05 1.04,-1.89 -0.24,-0.85 -1.13,-1 -1.76,-0.63 -0.56,0.15 -1.01,0.63 -0.99,1.29 0.03,0.91 0.88,1.4 1.71,1.23z"/>
  <path class="fil0" d="M228.65 98.18l0.36 0.05 0.32 -0.05 -0.09 0.01c0.53,-0.06 0.98,-0.34 1.11,-0.89 0.14,-0.57 -0.22,-1.36 -0.86,-1.43l-0.92 -0.01c-1.19,0.3 -1.07,2.05 0.06,2.33z"/>
 </g>
</svg>
