<?xml version="1.0" encoding="UTF-8"?>
<svg xmlns="http://www.w3.org/2000/svg" xml:space="preserve" width="0.747315in" height="0.747335in" version="1.1" style="shape-rendering:geometricPrecision; text-rendering:geometricPrecision; image-rendering:optimizeQuality; fill-rule:evenodd; clip-rule:evenodd"
viewBox="0 0 429.41 429.42"
 xmlns:xlink="http://www.w3.org/1999/xlink"
 xmlns:xodm="http://www.corel.com/coreldraw/odm/2003">
 <defs>
  <style type="text/css">
   <![CDATA[
    .fil0 {fill:black;fill-rule:nonzero}
   ]]>
  </style>
 </defs>
 <g id="Layer_x0020_1">
  <metadata id="CorelCorpID_0Corel-Layer"/>
  <path class="fil0" d="M404.47 217.45c-5.38,-11.11 -17.7,-24.45 -30.76,-30.33 15.77,-1.54 31.65,-1.51 47.66,-2.62 1.44,9.86 2.19,19.95 2.19,30.21l-0.02 1.34c-6.34,-0.04 -12.76,0.42 -19.08,1.4zm-189.77 206.12c-106.5,0 -194.62,-80.13 -207.28,-183.27 8.56,-5.49 17.74,-10.07 27.3,-13.68 15.58,1.93 29.37,13.36 30.64,29.68 0.21,2.71 4.09,2.6 4.2,-0.1 0.6,-14.65 -11.43,-28.72 -25.59,-32.73 7.57,-2.31 15.31,-4.02 23.13,-5.1l0.15 -0.02c2.41,-0.33 4.83,-0.58 7.25,-0.79 7.39,1.64 13.26,3.53 18.6,10.2 4.88,6.09 9.1,14.6 7.39,22.53 -12.84,5.57 -25.64,9.86 -40.57,10.3 -2.19,0.06 -2.74,3.65 -0.43,3.96 17.11,2.25 33.13,-4.4 48.29,-11.62 17.84,-8.51 33.69,-16.04 53.56,-15.97 5.44,5.74 12.64,9.98 19.8,13.05 6.49,2.78 13.33,4.76 20.05,6.87 2.44,0.78 17.36,4.76 22.24,8.99 -4.09,-0.61 -8.44,-0.74 -12.46,-0.42 -2.67,0.21 -2.43,3.77 0.1,4.04 4.03,0.44 8.23,1.43 12.33,1.31 -3.6,3.42 -9.51,5.6 -14.18,7.56 -3.41,0 -6.83,-0.35 -10.25,-0.65 -3.2,-0.27 -8.53,-1.44 -10.84,1.52 -1.37,1.76 0.45,4.3 2.51,3.09 1.17,-0.68 5.75,-0.08 9.17,0.38 -3.7,1.79 -7.35,3.67 -10.9,5.74 -2.03,1.2 -4.01,2.5 -5.94,3.91 -4.31,-0.58 -8.79,-0.65 -12.93,-0.08 -2.5,0.34 -2.53,3.96 0.1,3.98 2.66,0.04 5.22,0.15 7.77,0.35 -2.85,2.77 -5.25,5.9 -6.88,9.42 -4.86,-0.34 -10.17,0.2 -14.69,1.37 -2.23,0.58 -1.67,4.24 0.66,4.04 4.05,-0.33 8.24,-0.26 12.34,-0.52 -0.37,1.62 -0.59,3.31 -0.62,5.09 -0.02,1.3 0.1,2.55 0.33,3.77 -2.53,0.02 -5.1,0.36 -7.32,1.3 -1.93,0.82 -1.82,4.26 0.62,3.97 2.73,-0.33 5.45,-0.45 8.16,-0.68 1.6,3.54 4.09,6.69 6.91,9.54 -4.4,0.55 -8.81,1.23 -13.22,1.69 -2.16,0.22 -2.84,3.57 -0.43,4.01 6.03,1.13 11.97,-0.54 17.92,-1.69 1.12,0.99 2.24,1.96 3.34,2.89 3.14,2.69 7.11,5.8 8.48,9.88 -6.92,-0.24 -13.69,-3.17 -20.58,-1.85 -2.34,0.45 -1.56,3.96 0.64,3.98 6.22,0.07 13.77,3.51 20.21,2.74 -0.5,2.39 -1.87,4.72 -3.66,6.96 -5.15,-0.83 -10.55,-0.09 -15.68,0.37 -2.63,0.22 -2.5,3.9 0.1,4.07 3.79,0.25 7.61,0.08 11.42,0.02 -2.26,2.16 -4.63,4.18 -6.57,5.97 -5.37,-0.39 -10.77,-0.14 -16.17,-0.02 -2.88,0.07 -2.75,4.4 0.11,4.46 4.36,0.1 8.74,0.33 13.1,0.2 0.37,1.72 2.39,3.06 4.32,1.96 9.19,-5.21 23.28,-17 20.37,-29.39 -2.2,-9.4 -11.57,-14.85 -18.1,-21.13 -12.96,-12.46 -6.31,-22.73 5.52,-31.05 1.03,0.02 1.76,-0.62 2.09,-1.42 11.88,-7.77 27.74,-13.76 34.92,-18.17 10.06,-6.19 8.97,-15.16 -0.66,-20.66 -13.5,-7.73 -30.12,-9.15 -44.31,-15.48 -15.84,-7.05 -28.9,-24.41 -19.83,-41.71 6.57,-12.52 19.02,-22.36 32.43,-29.11 -20.49,15.27 -41.32,39.7 -15.48,56.48 25.42,16.5 61.82,7.85 85.67,27.6 25.18,20.86 -51.57,41.43 -25.88,67.19 8.05,8.07 22.55,10.18 32.96,13.39 16.22,5.03 28.89,11.73 36.57,27.44 1.22,2.51 5.68,1.22 5.3,-1.58 -1.32,-10.1 -7.02,-17.07 -14.72,-22.24 2.66,-0.35 5.25,-1.05 8.02,-1.01 2.62,0.03 2.63,-3.49 0.47,-4.27 -4.57,-1.68 -8.68,0.57 -13.13,1.45l-0.92 0.57c-6.88,-3.57 -14.72,-6.16 -22.3,-8.45 4.88,-1.96 9.82,-4.7 14.84,-3.38 2.35,0.62 3.61,-2.74 1.53,-3.91 -9.52,-5.39 -18,5.67 -27.79,3.4l-1.22 0.08c-1.84,-0.59 -3.63,-1.19 -5.31,-1.81 -4.48,-1.66 -10.1,-4.12 -11.63,-9.05l-0.18 -0.87c3.95,-0.33 7.81,0.06 11.81,0.44 4.29,0.42 9.06,-0.68 13.13,-1.89 2.38,-0.7 1.77,-4.3 -0.68,-4.26 -4.82,0.1 -9.46,1.37 -14.3,0.97 -3.26,-0.28 -6.32,-0.47 -9.41,-0.03 2.57,-6.47 11.51,-12.4 15.64,-15.66 5.8,-4.56 11.98,-9.68 15.72,-15.89 5.92,-0.22 11.72,1.29 17.64,0.26 8.36,-1.45 14.8,-4.73 23.1,-0.65 1.76,0.88 4.34,-1.21 2.89,-3.04 -4.27,-5.36 -10.67,-5 -16.95,-3.96 -4.96,0.82 -9.49,2.69 -14.56,2.95 -3.46,0.17 -6.66,-0.18 -9.94,-0.07 0.74,-2.07 1.21,-4.25 1.3,-6.56 25.28,-0.53 50.48,-7.88 73.15,-18.6 13.63,-6.45 26.91,-13.58 40.81,-19.46 5.07,1.23 9.21,2.44 13.35,6.03 3.3,2.86 5.82,6.54 7.96,10.3 1.17,2.06 4.72,0.53 3.82,-1.73 -2.67,-6.91 -8.79,-14.27 -16.15,-17.41 8.22,-1.8 16.85,-1.99 25.15,-3.2 -3.3,112.3 -95.66,202.64 -208.76,202.64zm-208.64 -199.64c12.63,-1.79 28.95,-8.84 36.21,-19.26 6.45,0.21 12.93,-0.33 19.07,-1.48 1.24,1.53 2.32,2.84 2.92,4.96 0.5,1.73 0.6,3.62 0.46,5.44 -20.29,3.13 -41.01,10.43 -57.83,21.95 -0.38,-3.84 -0.66,-7.71 -0.82,-11.61zm-0.21 -9.23c0,-7.29 0.38,-14.49 1.11,-21.58 8.05,6.48 18.53,9.96 29.48,11.13 -8.32,7.77 -19.95,10.7 -30.53,14.69 -0.03,-1.4 -0.06,-2.82 -0.06,-4.24zm4.1 -41.24c10.96,7.37 26.3,9.22 38.81,10.72 1.94,0.24 3.91,0.45 5.9,0.65 -4.15,3.82 -7.09,8.52 -7.16,14.49 -9.19,0.26 -18.36,-0.85 -26.77,-3.99 4.2,-1.81 8.28,-4.23 10.57,-8.22 1.19,-2.08 -1.75,-4.24 -3.38,-2.47 -3.5,3.78 -7.8,6.14 -12.35,8.42 -2.81,-1.41 -5.49,-3.09 -8.04,-5.06 0.63,-4.9 1.44,-9.75 2.4,-14.54zm1.4 -6.48c25.13,1.58 50.6,0.58 75.76,0.63 8.85,0.01 17.78,0.21 26.71,0.36 -0.57,1.11 -1.01,2.26 -1.34,3.31 -0.74,2.42 2.72,3.52 3.95,1.56 0.81,-1.29 1.73,-2.5 2.69,-3.67l1 -1.12c9.73,0.13 19.46,0.12 29.14,-0.26 -1.88,1.4 -3.57,3.06 -5,4.88l-0.36 0.81c-13.45,0.02 -26.96,1.71 -40,4.15 -2.28,0.41 -1.66,4.29 0.64,4.02 4.74,-0.57 9.43,-1.02 14.11,-1.42 -1.68,1.44 -3.05,3.13 -3.99,5.04 -9.21,0.69 -18.66,2.46 -27.23,5.24 0.95,-2.15 2.1,-4.14 3.6,-6.15 2.55,-0.4 5.09,-0.87 7.58,-1.48 2.7,-0.66 1.42,-4.64 -1.24,-4.08 -5.48,1.17 -11.13,1.76 -16.84,1.97l1.05 -0.87c2.74,-2.26 4.6,-5.25 5.81,-8.56 0.88,-2.39 -2.71,-3.45 -3.93,-1.54 -1.71,2.66 -3.82,5.01 -6.3,6.99 -1.75,1.4 -3.84,2.49 -5.47,4.03 -7.32,-0.17 -14.63,-0.81 -21.71,-1.59 -12.88,-1.44 -27.7,-3.45 -39.06,-10.41l0.42 -1.83zm145.72 28.74c-3.73,-3.02 -7.99,-5.43 -12.54,-7.19 1.77,-1.66 3.56,-3.25 5.73,-4.57 3.22,-1.97 6.9,-3.19 10.51,-4.28 3.16,0.21 6.35,0.48 9.55,0.82 -5.37,4.51 -9.99,9.6 -13.25,15.21zm-23.54 27.69c6.62,0.18 13.06,-0.55 19.14,-2.95 0.18,0.87 0.37,1.75 0.61,2.63 0.89,3.2 2.28,6.11 4.03,8.78 -6.42,-0.28 -12.75,0.72 -18.94,2.47 -0.21,-4.06 -2.09,-7.8 -4.84,-10.93zm-12.47 -38.47c0.81,-0.85 1.65,-1.69 2.68,-2.42 1.92,-1.36 4.05,-2.31 6.26,-3.07 6.18,-0.3 12.36,-0.41 18.55,-0.3 -3.68,1.9 -6.97,4.45 -9.15,7.73 -3.89,-1.06 -7.87,-1.71 -11.79,-1.88 -2.14,-0.09 -4.33,-0.1 -6.55,-0.06zm0.88 5.57c12.56,-0.76 22.6,3.14 32.92,9.53 -2,4.65 -3.03,9.62 -2.85,14.87 -11.17,1.88 -22.17,1.3 -33.14,0.16l-0.01 -0.05c-2.02,-7.83 -6.57,-18.45 -14.14,-23.1 5.71,-0.66 11.47,-1.06 17.22,-1.41zm-54.92 11.41c2.74,-0.72 5.39,-1.54 7.88,-2.48 2.57,-0.97 1.46,-4.83 -1.24,-4.12 -6.91,1.84 -14.3,3.22 -21.77,3.78 1.01,-6.23 4.69,-9.67 9.18,-13.74 7.8,0.53 15.72,0.56 23.49,-0.18 -1.3,2.28 -2.1,4.97 -2.49,7.26l-1.23 0.45c-2.39,0.99 -1.35,4.82 1.18,3.92 4.32,-1.52 8.7,-2.6 13.13,-3.45l0.4 0.2c10.47,3.05 14.58,11.71 18.51,20.97 -13.12,-1.5 -26.26,-3.35 -39.68,-2.14l-1.07 0.11c-0.76,0 -1.55,0.02 -2.34,0.07l-0.87 0.26 -0.75 0.1c0.37,-3.74 -0.26,-8.15 -2.34,-11.03zm31.82 24.59c-2.55,-3.86 -5.68,-6.97 -9.24,-9.29 11.49,0.85 23.84,4.17 35.87,5.58 4.29,3.44 8.06,7.21 8.46,12.9 -5.78,1.95 -11.42,4.43 -16.87,6.97 -3.9,1.83 -7.72,3.63 -11.51,5.36 1.07,-7.49 -2.61,-15.36 -6.71,-21.52zm-84.07 -72.25c31.43,2.41 63.47,0.14 94.98,-0.15 33.98,-0.3 67.97,-0.14 101.96,-0.11 67.52,0.05 135.34,2.99 202.81,-0.1 1.53,5.03 2.88,10.14 4.04,15.33 -7.02,-0.15 -14.05,-0.21 -21.08,-0.16 0.1,-1.07 0.21,-2.13 0.43,-3.19 4.88,-0.06 9.75,-0.11 14.63,-0.17 2.62,-0.02 2.5,-4.02 -0.11,-4.06 -35.1,-0.4 -70.38,-1.09 -105.47,0.01l-0.25 -0.05c-7.5,-0.16 -14.91,0.21 -22.24,0.99l-0.14 0.02c-9.2,0.99 -18.27,2.66 -27.26,4.86l-0.53 -0.43c-1.26,-0.67 -2.51,-1.75 -3.05,-3.1 1.34,-0.05 2.7,-0.08 4.04,-0.14 2.7,-0.12 2.55,-4.04 -0.1,-4.15 -1.97,-0.1 -3.95,-0.14 -5.93,-0.21l-0.33 -0.02c-12.4,-0.42 -25.02,-0.45 -37.33,0.3l-1.47 -0.18c-3.65,0.9 -7.57,2.14 -11.59,3.65 -7.87,-0.17 -15.72,-0.23 -23.58,0.09 -2.63,0.1 -2.5,3.94 0.1,4.05 4.46,0.17 8.91,0.23 13.36,0.21 -5.61,2.74 -11.18,6 -16.25,9.75l-1.19 -0.75c-7.75,-1.77 -15.66,-2.68 -23.62,-2.97 2.43,-1.98 4.84,-3.93 7.64,-5.52l0.69 -0.73c1.92,-0.13 3.84,-0.25 5.75,-0.42 2.95,-0.26 2.75,-4.27 -0.12,-4.52 -25.27,-2.23 -51.21,-0.74 -76.58,-0.69 -24.72,0.04 -49.75,-0.93 -74.45,0.55 0.69,-2.69 1.45,-5.35 2.26,-7.99zm2.22 -6.92c34.81,-6.28 69.77,-16.57 105.19,-17.8 34.05,-1.18 66.53,11.2 100.09,14.8 35,3.78 69.82,-2.95 104.61,-6.24 16.78,-1.59 31.88,0.42 48.34,3.66 11.92,2.36 24.11,4.52 36.19,2.73 0.54,1.5 1.06,3.02 1.56,4.53 -67,-2.96 -134.34,-0.09 -201.4,-0.03 -32.71,0.02 -65.43,0.22 -98.15,-0.08 -32.11,-0.3 -64.81,-2.62 -96.86,-0.34l0.42 -1.24zm197.71 -141.5c88.48,0 164.28,55.3 194.66,133.14 -14.05,1.53 -28.13,-1.99 -41.87,-4.59 -15.15,-2.87 -29.05,-2.96 -44.37,-1.45 -35.78,3.52 -71.09,10.11 -107.07,5.28 -32.78,-4.4 -64.08,-14.91 -97.48,-13.73 -16.72,0.59 -33.31,3.81 -49.58,7.49 -16.7,3.78 -33.58,6.7 -50.27,10.49 29.46,-79.69 106.19,-136.63 195.97,-136.63zm166.01 163.53c-5.38,-0.17 -10.78,-0.33 -16.21,-0.47 0.04,-0.88 0.01,-1.77 -0.05,-2.67 9.6,-0.06 19.22,-0.17 28.8,-0.29 -0.22,1.04 -0.33,2.12 -0.3,3.2 -4.09,0.05 -8.16,0.12 -12.24,0.22zm-34.44 18.36c-4.7,-3.14 -10.23,-6.61 -16,-8.92 5.27,-0.97 10.49,-2.14 15.83,-2.69 8.71,-0.9 17.48,-1.21 26.24,-1.54 1.85,-0.06 3.71,-0.1 5.56,-0.15 1.23,1.05 2.38,2.07 3.26,3.5 0.45,0.73 0.74,1.52 0.98,2.34 -12.55,0.77 -24.87,2.75 -35.87,7.47zm-31.19 17.72c9.99,-5.34 20.33,-9.98 31.43,-13.45l0.45 -0.2c5.09,-1.39 10.19,-2.43 15.3,-3.25 16.34,6.24 26.54,16.49 37.29,29.76 -2.87,0.57 -5.73,1.26 -8.52,2.06 -12.44,3.54 -24.4,10.82 -35.9,16.54l-1.76 0.86c-6.23,-13.41 -22.86,-28.47 -38.27,-32.33zm-30.23 18.18c7.94,-5.11 15.85,-10.09 23.93,-14.68 17.67,4.11 29.4,17.23 40.28,30.93 -11.59,5.56 -23.29,10.47 -35.8,13.84 -12.55,3.38 -25.44,4.45 -38.14,6.9l-0.02 -0.21c-1.64,-9.89 -12.76,-15.55 -21.91,-18.94 11.44,-3.34 21.76,-11.47 31.68,-17.84zm-34.11 -16.56c1.21,-0.72 2.43,-1.44 3.64,-2.15 13.01,-1.67 23.64,3.08 33.76,10.8 -13.41,9.04 -28.01,20.99 -44.17,22.74 -11.31,-3.22 -23.07,-4.92 -34.62,-6.89 -1.3,-0.21 -2.66,-0.45 -4.06,-0.71 16.13,-4.76 31.43,-15.45 45.45,-23.8zm-29.53 -10.03l0.06 0.04c7.09,2.97 13.81,6.46 20.69,9.74 -14.6,9.07 -29.89,18.28 -45.97,22.01 -9.25,-2.47 -18.27,-6.53 -22.12,-14.36 16.93,-0.21 32.43,-9.52 47.35,-17.44zm-20.41 -6.74c1.06,3.45 4.48,5.94 8.11,7.52 -11.62,5.8 -23.48,10.91 -36.57,12.34 -0.3,-1.44 -0.47,-2.98 -0.46,-4.64 0.02,-5.74 3.28,-11.15 7.37,-15.89 7.13,2.12 14.37,1.99 21.54,0.68zm30.01 -14.93l-0.4 0.14c-2.35,-0.46 -4.27,-1.8 -5.7,-3.73 -1.87,-2.53 -1.73,-4.84 -0.16,-7.41l0.06 -0.17c8.03,0.22 16.13,0.15 24.16,-0.09 0.21,1.81 1.2,3.54 2.62,4.83 -6.92,1.87 -13.77,4.03 -20.58,6.42zm21.86 2.94c-1.63,-0.81 -3.06,-1.73 -4.29,-2.97 12.05,-3.44 24.17,-6.07 36.62,-7.73 1.01,0.86 2,1.72 2.9,2.7 -11.99,1.25 -23.77,4.15 -35.23,8zm72.94 -12.21c11.4,0.18 22.81,0.21 34.22,0.16 0.01,0.86 0.06,1.7 0.17,2.55 -10.92,-0.25 -21.88,-0.33 -32.77,-0.14 -0.44,-0.78 -0.96,-1.54 -1.43,-2.29l-0.18 -0.28zm-14.66 15.39c2.34,-0.41 4.71,-0.76 7.13,-1.02 8.05,1.09 15.54,4.72 22.6,8.79 -4.13,1.19 -8.16,2.61 -12.11,4.21 -4.64,-5.33 -10.9,-9.43 -17.62,-11.98zm-8.59 1.86c8.22,2.49 15.31,6.42 21.83,11.95 -11.17,4.95 -21.74,11.23 -32.1,17.83 -6.64,-6.8 -17.38,-13 -27.64,-13.94 12.16,-6.67 24.53,-12.38 37.9,-15.84zm-87.79 11.61c-3.3,-1.42 -7.17,-2.73 -9.11,-5.64 7.13,-1.76 14.17,-4.41 20.86,-6.83 5.9,-2.13 11.78,-4.09 17.66,-5.86 0.79,1.38 1.99,2.58 3.37,3.56 -3.45,1.24 -6.86,2.56 -10.22,3.93 -7.69,3.14 -15.11,7.02 -22.56,10.84zm14.12 -1.74c14.13,-6.84 29.01,-12.08 44.31,-15.44 4.62,1.24 8.44,2.62 11.29,6.22 -9.41,3.73 -18.47,8.48 -27.35,13.68 -3.54,2.07 -7.13,4.27 -10.75,6.52 -5.77,-3.83 -12.78,-7.9 -19.69,-9.89 0.73,-0.36 1.47,-0.73 2.19,-1.09zm73.96 -19.43l0.18 -0.04c7.87,0.55 15.82,0.85 23.8,1 -2.89,0.47 -5.8,0.96 -8.74,1.45l-0.23 0 -0.38 0.1c-10.04,0.59 -19.6,2.83 -28.8,6.12 -1.6,-2.75 -3.89,-4.86 -6.58,-6.36 6.85,-1.15 13.78,-1.92 20.76,-2.27zm-10.97 -5.33l-0.98 -1.53c5.3,-0.57 10.65,-0.97 16.1,-1.17l0.23 -0.05c4.37,0.14 8.75,0.25 13.14,0.33 0.43,0.88 0.96,1.84 1.56,2.76 -6.37,0.18 -12.7,0.45 -18.98,0.89l-0.19 -0.04c-3.57,-0.07 -7.11,0.06 -10.64,0.31l-0.24 -1.51zm-67.58 9.37c-13.3,4.94 -27.11,10.16 -41.23,7.94 2.22,-2.21 4.48,-4.23 6.48,-5.99 7.18,-6.37 15.5,-11.7 24.05,-16.05 2.03,0.13 4.09,0.18 6.12,0.27 -2.46,4.52 0.2,10.71 4.58,13.83zm196.56 2.24c-10.67,-0.1 -22.08,-0.48 -33.43,-0.05 -0.38,-2.05 -1.28,-4.06 -2.55,-5.77 11.61,-0.23 23.22,-0.26 34.81,-0.54 0.43,2.11 0.81,4.24 1.17,6.36zm-205.98 -180.07c-118.38,0 -214.7,96.32 -214.7,214.71 0,118.39 96.32,214.71 214.7,214.71 118.39,0 214.71,-96.32 214.71,-214.71 0,-118.39 -96.32,-214.71 -214.71,-214.71z"/>
  <path class="fil0" d="M31 269.2c1.51,-0.39 3.45,-1.51 4.21,-4.66 0.23,-1.03 0.42,-1.93 0.57,-2.7l0.38 -1.89c0.24,-1.1 0.71,-1.37 1.17,-1.49l0.99 0.1c0.25,0.12 0.56,0.35 0.74,1.08 0.07,0.26 0.2,1.12 0.02,3.6 -0.06,0.88 0.46,1.7 1.3,1.99l0.33 0.11 1.54 -0.11 0.98 -1.2c0.46,-1.68 0.45,-3.52 -0.06,-5.46 -0.45,-1.77 -1.5,-3.1 -3,-3.82 -1.24,-0.59 -2.57,-0.73 -3.91,-0.38 -1.69,0.44 -2.98,1.5 -3.72,3.07l-0.1 0.23 -0.33 1.15 -0.26 1.08 -0.61 2.89 -0.3 1.16 -0.25 0.58 -0.77 0.57 -0.97 -0.14 -0.69 -0.86c-0.02,-0.1 -0.19,-0.97 0.41,-4.64 0.15,-0.91 -0.35,-1.79 -1.21,-2.13l-0.32 -0.13 -1.49 0.03 -1.04 1.07c-0.41,1.02 -0.64,2.16 -0.73,3.39 -0.08,1.24 0.02,2.41 0.29,3.46 0.43,1.65 1.44,2.9 2.92,3.64 0.82,0.39 1.68,0.6 2.52,0.6l1.37 -0.18z"/>
  <path class="fil0" d="M39.69 277.3l-2.15 1.68 -0.57 -1.61 2.72 -0.06zm7.57 -0.54c0.67,-0.52 0.92,-1.4 0.64,-2.19l-0.12 -0.36c-0.29,-0.79 -1.06,-1.29 -1.88,-1.29l-16.6 0.37 -1.4 0.63 -0.51 1.44 0.02 0.34c0.06,1.05 0.97,1.8 1.99,1.83l3.1 -0.06 1.52 4.28 -2.43 1.91c-0.82,0.64 -0.99,1.82 -0.37,2.66l0.19 0.28 1.31 0.8 0.27 0.02 1.2 -0.41 13.06 -10.25z"/>
  <path class="fil0" d="M39.05 294.32l12.43 -5.75c0.98,-0.45 1.4,-1.6 0.96,-2.59l-0.15 -0.31 -1.09 -1.01 -1.49 0.06 -14.51 6.71 -1 1.1 0.05 1.49 3.02 6.53 1.1 1 0.67 0.13 0.82 -0.19 0.3 -0.14c0.97,-0.45 1.4,-1.61 0.94,-2.59l-2.06 -4.45z"/>
  <path class="fil0" d="M62.68 309.68l0.9 -1.18 -0.18 -1.48 -0.17 -0.31c-0.54,-0.93 -1.73,-1.25 -2.67,-0.71l-9.89 5.71 -1.73 0.22 -1.38 -1.05 -0.22 -1.73 1.07 -1.38 9.89 -5.7c0.93,-0.54 1.25,-1.73 0.73,-2.67l-0.18 -0.29 -1.18 -0.91 -1.48 0.2 -9.89 5.7c-1.53,0.88 -2.59,2.25 -3.03,3.94 -0.46,1.7 -0.24,3.42 0.65,4.96 0.89,1.53 2.24,2.59 3.94,3.04l1.74 0.24c1.12,0 2.19,-0.3 3.21,-0.89l9.9 -5.71z"/>
  <path class="fil0" d="M65.16 313.16c-1.39,-0.13 -2.66,0.22 -3.78,1.01 -1.45,1.01 -2.28,2.45 -2.42,4.17l-0.01 0.26 0.1 1.2 0.14 1.09 0.43 2.93 0.12 1.19 -0.02 0.63 -0.52 0.79 -0.77 0.23 -0.2 -0.01 -0.94 -0.58c-0.05,-0.07 -0.53,-0.83 -1.24,-4.48 -0.18,-0.9 -0.97,-1.55 -1.88,-1.57l-0.33 -0.01 -1.4 0.54 -0.6 1.37c-0.02,1.09 0.15,2.24 0.52,3.43 0.35,1.2 0.85,2.26 1.47,3.14 0.98,1.4 2.36,2.22 4.01,2.38l0.59 0.02c1.18,0 2.26,-0.33 3.21,-1 1.26,-0.89 2.7,-2.62 2.31,-5.84 -0.16,-1.05 -0.29,-1.96 -0.41,-2.73l-0.31 -1.9c-0.16,-1.11 0.18,-1.52 0.58,-1.81l0.96 -0.26 1.07 0.74c0.15,0.22 0.57,0.99 1.28,3.38 0.25,0.85 0.98,1.41 1.92,1.4l0.34 -0.01 1.4 -0.65 0.5 -1.46c-0.16,-1.75 -0.81,-3.45 -1.96,-5.09 -1.05,-1.5 -2.49,-2.37 -4.16,-2.53z"/>
  <path class="fil0" d="M87.1 346.6c-0.82,0.83 -1.35,0.83 -1.53,0.83l-0.26 -0.03 -1.56 -0.95 -1.47 -1.44 3.19 -3.22 1.47 1.45 0.93 1.55c0.08,0.41 0.05,0.98 -0.77,1.81zm4.94 -2.6c-0.26,-1.37 -0.98,-2.64 -2.12,-3.78l-3.07 -3.06 -1.38 -0.57 -0.01 0 -1.37 0.57 -11.26 11.37c-0.76,0.76 -0.76,1.99 0.01,2.74l0.25 0.25 1.36 0.57 1.39 -0.58 3.45 -3.48 1.45 1.44c1.14,1.13 2.4,1.84 3.77,2.11 2.02,0.38 3.94,-0.29 5.62,-1.99 2.07,-2.09 2.19,-4.2 1.92,-5.59z"/>
  <path class="fil0" d="M99.37 357.46l-4.49 5.42 -1.55 0.81 -1.65 -0.52 -0.81 -1.54 0.52 -1.66 4.49 -5.4 1.53 -0.81 0.25 -0.02 1.42 0.53 0.81 1.54 -0.51 1.65zm4.74 -2.04c-0.17,-1.8 -0.95,-3.27 -2.32,-4.41 -1.37,-1.14 -2.97,-1.65 -4.78,-1.48 -1.75,0.17 -3.26,0.97 -4.39,2.34l-4.5 5.4c-1.12,1.36 -1.64,3.01 -1.48,4.76 0.17,1.76 0.98,3.28 2.35,4.41 1.21,1 2.59,1.51 4.11,1.51l0.65 -0.03c1.76,-0.16 3.29,-0.97 4.41,-2.32l4.48 -5.4c1.14,-1.38 1.64,-2.98 1.47,-4.76z"/>
  <path class="fil0" d="M112.57 367.2c-0.68,0.98 -1.23,1.1 -1.63,1.1l-1.71 -0.65 -1.7 -1.17 2.59 -3.73 1.68 1.17 1.2 1.36c0.14,0.39 0.22,0.96 -0.43,1.92zm3.5 2.41c1.68,-2.43 1.42,-4.52 0.9,-5.85 -0.5,-1.3 -1.42,-2.43 -2.75,-3.34l-3.58 -2.47 -1.46 -0.31 -1.25 0.81 -9.08 13.17c-0.61,0.88 -0.39,2.09 0.5,2.71l0.27 0.2 1.11 0.34 0.35 -0.03 1.25 -0.81 2.79 -4.04 1.68 1.16c1.33,0.91 2.69,1.39 4.15,1.4 1.4,0 3.42,-0.51 5.1,-2.94z"/>
  <path class="fil0" d="M132.59 372.5l-0.91 -1.17 -0.31 -0.17c-0.95,-0.54 -2.13,-0.2 -2.66,0.73l-5.62 9.95 -1.37 1.08 -1.72 -0.22 -1.07 -1.36 0.21 -1.74 5.61 -9.94c0.54,-0.94 0.21,-2.13 -0.73,-2.66l-0.29 -0.17 -1.48 -0.18 -1.18 0.92 -5.62 9.94c-0.86,1.54 -1.08,3.25 -0.61,4.95 0.47,1.69 1.53,3.05 3.09,3.92 1.01,0.57 2.07,0.86 3.17,0.86l1.77 -0.25c1.71,-0.48 3.06,-1.53 3.93,-3.07l5.62 -9.94 0.18 -1.47z"/>
  <path class="fil0" d="M138.71 374.82l-0.31 -0.14 -1.49 -0.05 -1.09 1.02 -6.58 14.56c-0.45,0.98 -0.01,2.13 0.97,2.57l6.55 2.97 0.8 0.17c0.75,0 1.45,-0.42 1.79,-1.14l0.13 -0.3 0.06 -1.49 -1.02 -1.09 -4.47 -2.02 5.65 -12.48c0.44,-0.98 0.01,-2.13 -0.97,-2.58z"/>
  <path class="fil0" d="M156.58 382.12l-0.33 -0.11 -1.49 0.08 -0.99 1.11 -5.2 14.95c-0.36,1.01 0.17,2.13 1.19,2.48l0.34 0.11 0.64 0.1 0.85 -0.19 0.99 -1.11 5.2 -14.94c0.36,-1.01 -0.18,-2.12 -1.19,-2.48z"/>
  <path class="fil0" d="M186.35 389.44c-1.88,-0.29 -3.43,0.14 -4.71,1.24 -1.04,0.91 -1.68,2.06 -1.9,3.43 -0.28,1.73 0.18,3.34 1.32,4.64l0.18 0.17 0.93 0.77 0.89 0.66 2.4 1.71 0.94 0.74 0.44 0.45 0.21 0.93 -0.51 0.85 -1.07 0.28c-0.09,-0.02 -0.96,-0.21 -4.09,-2.22 -0.77,-0.49 -1.78,-0.38 -2.43,0.26l-0.25 0.25 -0.57 1.38 0.57 1.37c0.78,0.77 1.73,1.45 2.83,2.03 1.09,0.57 2.21,0.95 3.27,1.12l0.97 0.08c1.32,0 2.5,-0.45 3.54,-1.32 1.08,-0.93 1.72,-2.07 1.94,-3.42 0.24,-1.52 -0.01,-3.76 -2.59,-5.71 -0.86,-0.62 -1.6,-1.16 -2.25,-1.6l-1.59 -1.11c-0.9,-0.65 -0.96,-1.18 -0.88,-1.65l0.48 -0.88 1.28 -0.25c0.26,0.03 1.11,0.26 3.31,1.42 0.78,0.41 1.75,0.24 2.34,-0.41l0.25 -0.25 0.5 -1.46 -0.72 -1.37c-1.35,-1.1 -3.04,-1.83 -5.02,-2.13z"/>
  <path class="fil0" d="M207.32 391.77l-0.36 -0.02c-1.08,-0.07 -2,0.75 -2.07,1.82l-0.76 11.4 -0.77 1.57c-0.43,0.38 -0.92,0.56 -1.64,0.55l-1.57 -0.77 -0.55 -1.65 0.75 -11.4c0.07,-1.08 -0.74,-2 -1.81,-2.07l-0.34 -0.02 -1.42 0.49 -0.66 1.33 -0.75 11.39c-0.12,1.77 0.42,3.4 1.58,4.73 1.17,1.32 2.71,2.08 4.48,2.19l0.48 0.02c1.6,0 3.02,-0.53 4.25,-1.6 1.33,-1.17 2.09,-2.71 2.22,-4.46l0.75 -11.4 -0.48 -1.41 -1.33 -0.66z"/>
  <path class="fil0" d="M220.31 399.98c-0.42,0.29 -1.02,0.45 -1.77,0.47l-2.04 0.04 -0.1 -4.53 2.05 -0.04 0.02 -0.36 0.1 0 0 0.36 1.64 0.4c0.34,0.23 0.75,0.64 0.77,1.81 0.02,1.19 -0.35,1.62 -0.68,1.85zm2.24 -7.21c-1.12,-0.74 -2.46,-1.1 -3.98,-1.1l-0.21 0 -4.35 0.09 -1.36 0.61 -0.54 1.39 0.34 15.98 0.61 1.37 1.34 0.53 0.05 0 0.33 -0.01c1.09,-0.02 1.93,-0.92 1.91,-1.99l-0.1 -4.9 2.05 -0.05c1.59,-0.03 2.99,-0.45 4.13,-1.25 1.17,-0.81 2.54,-2.42 2.47,-5.42 -0.06,-2.95 -1.5,-4.49 -2.68,-5.27z"/>
  <path class="fil0" d="M236.83 398.75c-0.4,0.33 -0.98,0.55 -1.71,0.63l-2.05 0.22 -0.5 -4.51 2.04 -0.22c0.73,-0.08 1.33,-0.01 1.8,0.25 0.36,0.19 0.8,0.57 0.93,1.73 0.13,1.19 -0.21,1.64 -0.51,1.9zm2.65 3.35c1.62,-1.28 2.35,-3.24 2.08,-5.72 -0.33,-2.93 -1.89,-4.34 -3.14,-5.01 -1.24,-0.65 -2.64,-0.89 -4.28,-0.72l-4.32 0.48c-1.07,0.11 -1.84,1.08 -1.72,2.15l1.74 15.9 0.73 1.3 1.22 0.43 0.22 -0.01 0.33 -0.04c1.06,-0.13 1.83,-1.09 1.72,-2.15l-0.54 -4.88 1.88 -0.2 3.5 5.48c0.57,0.87 1.71,1.16 2.62,0.62l0.29 -0.18 0.92 -1.21 -0.26 -1.51 -3.01 -4.73z"/>
  <path class="fil0" d="M257.96 403.3l-1.47 -0.29 -4.8 0.97 -0.91 -4.45 3.1 -0.62 1.24 -0.84 0.29 -1.46 -0.07 -0.34c-0.22,-1.06 -1.24,-1.73 -2.29,-1.52l-3.1 0.62 -0.55 -2.71 4.8 -0.98 1.24 -0.84 0.29 -1.46 -0.07 -0.35c-0.22,-1.05 -1.24,-1.72 -2.3,-1.52l-7.05 1.42 -1.24 0.84 -0.29 1.46 3.19 15.83c0.18,0.92 1,1.56 1.91,1.56l0.39 -0.04 7.05 -1.43c1.05,-0.21 1.73,-1.23 1.52,-2.29l-0.07 -0.33 -0.83 -1.24z"/>
  <path class="fil0" d="M272.96 384.3l-0.94 -1.16 -1.49 -0.15 -0.36 0.11 -1.33 1.38 -1.64 6.39 -4.87 -4.46 -1.87 -0.42 -0.36 0.1 -1.16 0.94 -0.16 1.47 4.52 15.16 0.94 1.16 0.92 0.24 0.56 -0.08 0.34 -0.1c1.03,-0.31 1.62,-1.4 1.31,-2.43l-2.31 -7.81 2.11 1.94 1.87 0.42 1.34 -1.38 0.7 -2.77 2.32 7.8 0.94 1.16 1.48 0.15 0.33 -0.1c1.03,-0.31 1.62,-1.4 1.32,-2.43l-4.51 -15.16z"/>
  <path class="fil0" d="M283.59 390.13l-0.16 -2.72 1.76 2.08 -1.59 0.64zm-0.98 -10.27c-0.54,-0.64 -1.43,-0.87 -2.21,-0.55l-0.35 0.14c-0.77,0.3 -1.28,1.08 -1.21,1.92l0.94 16.58 0.69 1.37 1.27 0.47 0.19 -0.01 0.34 -0.04c1.04,-0.1 1.81,-1 1.76,-2.05l-0.18 -3.09 4.23 -1.68 2 2.36c0.68,0.8 1.87,0.92 2.69,0.27l0.26 -0.21 0.75 -1.33 -0.45 -1.47 -10.72 -12.68z"/>
  <path class="fil0" d="M322.33 377.15l-1.21 -0.88 -1.47 0.25 -4.16 2.59 -7.26 -11.61c-0.57,-0.92 -1.77,-1.2 -2.68,-0.62l-0.29 0.18 -0.88 1.21 0.26 1.48 8.45 13.55 1.66 0.92 1.04 -0.3 6.11 -3.81c0.9,-0.57 1.18,-1.76 0.62,-2.67l-0.17 -0.28z"/>
  <path class="fil0" d="M336.37 366.89l-1.28 -0.77 -1.45 0.38 -3.91 2.95 -2.74 -3.62 2.51 -1.91c0.86,-0.64 1.04,-1.87 0.39,-2.72l-0.22 -0.29 -1.28 -0.76 -1.44 0.38 -2.52 1.9 -1.67 -2.21 3.91 -2.96 0.76 -1.28 -0.37 -1.45 -0.22 -0.29c-0.64,-0.85 -1.87,-1.02 -2.73,-0.37l-5.74 4.33c-0.85,0.64 -1.03,1.88 -0.37,2.73l9.73 12.89 1.28 0.75 0.26 0.02 1.18 -0.4 5.75 -4.33c0.85,-0.66 1.03,-1.87 0.38,-2.73l-0.21 -0.26z"/>
  <path class="fil0" d="M349.92 353.64l-7.84 -1.98 -1.18 -7.99c-0.16,-1.05 -1.1,-1.79 -2.16,-1.65l-0.36 0.04 -1.32 0.76 -0.37 1.46 0.93 6.25 -6.13 -1.55 -1.5 0.23 -0.87 1.23 -0.08 0.34c-0.23,1.03 0.39,2.06 1.42,2.31l7.84 1.99 1.2 7.99 0.78 1.3 1.14 0.36 0.33 -0.02 0.34 -0.06c1.04,-0.18 1.74,-1.17 1.59,-2.21l-0.93 -6.24 6.12 1.54c1.01,0.26 2.06,-0.35 2.35,-1.36l0.1 -0.33 -0.18 -1.51 -1.22 -0.91z"/>
  <path class="fil0" d="M372.29 329.29c-0.86,-0.66 -2.08,-0.49 -2.74,0.35l-3 3.88 -3.59 -2.77 1.93 -2.5c0.66,-0.86 0.5,-2.08 -0.36,-2.74l-0.27 -0.22 -1.44 -0.39 -1.3 0.74 -1.93 2.5 -2.19 -1.69 3 -3.89 0.39 -1.44 -0.74 -1.29 -0.27 -0.21c-0.86,-0.65 -2.08,-0.5 -2.75,0.35l-4.4 5.69 -0.39 1.44 0.74 1.3 12.79 9.87 1.19 0.41 1.53 -0.76 4.4 -5.7 0.38 -1.44 -0.73 -1.3 -0.26 -0.2z"/>
  <path class="fil0" d="M379.68 312.12c-1.85,-1.18 -3.99,-1.2 -6.28,0.09 -0.91,0.54 -1.7,1.01 -2.35,1.41l-1.66 1c-0.76,0.45 -1.28,0.54 -1.88,0.15l-0.6 -0.79 0.28 -1.28c0.14,-0.22 0.69,-0.9 2.63,-2.46 0.69,-0.55 0.93,-1.5 0.57,-2.31l-0.14 -0.32 -1.13 -1.05 -1.55 0.11c-1.56,0.79 -2.88,2.05 -3.96,3.73 -0.99,1.55 -1.24,3.22 -0.76,4.82 0.41,1.32 1.21,2.37 2.38,3.11 1.49,0.95 3.14,1.17 4.78,0.64l0.24 -0.09 1.07 -0.53 0.96 -0.54 2.53 -1.52 1.05 -0.57 0.61 -0.23 0.93 0.19 0.57 0.81 -0.18 1.09c-0.05,0.07 -0.57,0.79 -3.67,2.85 -0.76,0.51 -1.08,1.48 -0.74,2.34l0.12 0.32 1.04 1.07 0.78 0.17 0.72 -0.14c1.02,-0.4 2.02,-1 2.98,-1.77 0.98,-0.78 1.76,-1.64 2.34,-2.56 0.92,-1.43 1.14,-3.02 0.67,-4.61 -0.42,-1.37 -1.21,-2.42 -2.35,-3.14z"/>
  <path class="fil0" d="M388.78 302.54l-12.16 -6.3 1.05 -2c0.49,-0.97 0.13,-2.14 -0.84,-2.63l-0.31 -0.16 -1.48 -0.14 -1.14 0.96 -4.05 7.8c-0.5,0.96 -0.11,2.13 0.83,2.63l0.32 0.16 1.48 0.13 1.14 -0.96 1.05 -2.01 12.14 6.3 0.9 0.22 1.73 -1.05 0.16 -0.31 0.14 -1.48 -0.96 -1.15z"/>
  <path class="fil0" d="M393.15 287.85l-1.24 1.24 -0.85 0.19 -0.89 -0.19 -6.49 -2.66 -1.23 -1.22 0 -1.75 1.23 -1.23 0.85 -0.19 0.88 0.19 6.49 2.66 1.25 1.23 0.01 1.73zm0.36 -6.9l-6.49 -2.67c-1.64,-0.67 -3.35,-0.66 -4.99,0.02 -1.65,0.69 -2.84,1.88 -3.52,3.54 -0.68,1.64 -0.67,3.36 0.02,4.99 0.68,1.62 1.9,2.84 3.54,3.51l6.49 2.66c0.82,0.33 1.66,0.5 2.5,0.5 0.83,0 1.68,-0.17 2.49,-0.51 1.64,-0.69 2.83,-1.88 3.51,-3.55 0.68,-1.64 0.68,-3.36 -0.01,-4.99 -0.68,-1.63 -1.91,-2.85 -3.54,-3.51z"/>
  <path class="fil0" d="M111.08 93.94l1.28 0.75 0.26 0.02 1.18 -0.4 0.41 -0.31c0.87,-0.65 1.03,-1.87 0.39,-2.73l-9.13 -12.07 6.87 2.77 1.91 -0.26 0.77 -1.76 -0.8 -7.37 9.13 12.06 1.28 0.76 1.45 -0.38 0.4 -0.3c0.86,-0.65 1.03,-1.88 0.38,-2.74l-13.94 -18.42c-0.65,-0.86 -1.88,-1.03 -2.74,-0.38l-0.45 0.34 -0.76 1.76 1.2 11.07 -10.33 -4.15 -1.9 0.25 -0.44 0.33c-0.86,0.65 -1.03,1.88 -0.38,2.74l13.94 18.42z"/>
  <path class="fil0" d="M144.09 72.39c0.33,0.69 1.03,1.1 1.76,1.1l0.84 -0.19 0.47 -0.22 1 -1.11 -0.09 -1.49 -9.99 -20.82 -1.12 -1 -1.48 0.09 -0.46 0.22c-0.97,0.46 -1.38,1.63 -0.91,2.59l9.99 20.83z"/>
  <path class="fil0" d="M167.21 50.18l0.23 0.1 1.64 0.49 1.52 0.38 4.2 0.93 1.79 0.49 1.02 0.43c0.65,0.39 1.03,0.92 1.22,1.68l-0.27 2.04c-0.38,0.78 -0.96,1.23 -1.86,1.45l-0.99 0.08c-1.33,0 -3.39,-0.25 -6.14,-0.72 -0.91,-0.15 -1.8,0.33 -2.14,1.19l-0.19 0.47 0.02 1.49 1.06 1.05c1.4,0.56 2.98,0.91 4.69,1.05l1.34 0.05c1.2,0 2.35,-0.13 3.41,-0.39 2.15,-0.55 3.8,-1.83 4.76,-3.77 0.82,-1.66 1.02,-3.37 0.6,-5.07 -0.5,-1.95 -1.94,-4.51 -6.08,-5.55 -1.5,-0.33 -2.81,-0.62 -3.92,-0.86l-2.77 -0.59c-2.08,-0.47 -2.6,-1.52 -2.81,-2.39 -0.18,-0.72 -0.12,-1.38 0.21,-2.05 0.25,-0.5 0.73,-1.19 2.17,-1.55 0.3,-0.07 0.92,-0.17 2.12,-0.17 0.94,0 2.09,0.06 3.43,0.17 0.88,0.08 1.7,-0.45 2,-1.28l0.17 -0.49 -0.1 -1.54 -1.2 -0.98c-2.3,-0.66 -4.83,-0.66 -7.5,0.01 -2.36,0.59 -4.05,1.9 -5.03,3.88 -0.8,1.63 -0.98,3.34 -0.54,5.08 0.56,2.22 1.93,3.91 3.95,4.88z"/>
  <path class="fil0" d="M200.85 44.06l0.21 0.14 1.51 0.81 1.41 0.68 3.92 1.75 1.65 0.83 0.93 0.63c0.55,0.5 0.82,1.1 0.86,1.89l-0.67 1.95c-0.53,0.69 -1.18,1.01 -2.16,1.05 -0.46,0 -2.07,-0.2 -6.81,-2.04 -0.86,-0.33 -1.83,-0.02 -2.33,0.74l-0.28 0.42 -0.28 1.47 0.84 1.24c1.25,0.83 2.72,1.49 4.37,1.95 1.45,0.42 2.84,0.62 4.17,0.62l0.56 -0.01c2.22,-0.1 4.09,-1.05 5.41,-2.74 1.14,-1.46 1.68,-3.1 1.59,-4.84 -0.09,-2.02 -1,-4.8 -4.85,-6.65 -1.4,-0.63 -2.63,-1.17 -3.67,-1.63l-2.6 -1.12c-1.95,-0.88 -2.25,-2.01 -2.28,-2.89 -0.03,-0.76 0.16,-1.39 0.62,-1.98 0.33,-0.44 0.94,-1.02 2.55,-1.09 0.69,0 2.18,0.19 5.31,1.11 0.85,0.25 1.76,-0.1 2.22,-0.86l0.26 -0.43 0.21 -1.53 -0.97 -1.2c-2.12,-1.11 -4.59,-1.6 -7.35,-1.49 -2.44,0.11 -4.36,1.05 -5.71,2.8 -1.1,1.43 -1.62,3.07 -1.54,4.88 0.1,2.28 1.11,4.21 2.9,5.56z"/>
  <path class="fil0" d="M237.47 40.61c0.18,-1.18 0.7,-2.06 1.68,-2.75 0.74,-0.55 1.53,-0.82 2.4,-0.82l0.73 0.06c1.19,0.18 2.06,0.71 2.76,1.68 0.69,0.94 0.93,1.93 0.76,3.12l-1.56 10.13c-0.18,1.19 -0.72,2.07 -1.69,2.78 -0.94,0.69 -1.96,0.93 -3.11,0.76 -1.2,-0.19 -2.07,-0.72 -2.78,-1.68 -0.7,-0.96 -0.94,-1.95 -0.76,-3.14l1.56 -10.13zm1.3 19.29l1.4 0.11c1.81,0 3.49,-0.57 5,-1.67 1.92,-1.4 3.06,-3.31 3.43,-5.64l1.56 -10.14c0.36,-2.34 -0.17,-4.49 -1.57,-6.41 -1.4,-1.92 -3.3,-3.07 -5.63,-3.42 -2.37,-0.37 -4.52,0.18 -6.43,1.57 -1.89,1.39 -3.03,3.29 -3.4,5.64l-1.57 10.13c-0.36,2.35 0.17,4.51 1.57,6.41 1.4,1.9 3.3,3.05 5.65,3.42z"/>
  <path class="fil0" d="M269.08 67.76c1.01,0.37 2.01,0.55 3.02,0.55 1.21,0 2.41,-0.27 3.57,-0.8 2.15,-1 3.67,-2.62 4.48,-4.84l5.79 -15.64c0.38,-1.01 -0.14,-2.12 -1.15,-2.5l-0.48 -0.18 -1.49 0.05 -1.02 1.09 -5.78 15.64c-0.42,1.13 -1.12,1.88 -2.21,2.39 -1.06,0.49 -2.07,0.53 -3.2,0.11 -1.13,-0.41 -1.88,-1.11 -2.39,-2.19 -0.49,-1.09 -0.53,-2.11 -0.11,-3.23l5.79 -15.64c0.38,-1 -0.14,-2.13 -1.15,-2.5l-0.47 -0.18 -1.49 0.06 -1.01 1.09 -5.78 15.63c-0.84,2.23 -0.75,4.45 0.24,6.59 0.99,2.14 2.62,3.65 4.85,4.48z"/>
  <path class="fil0" d="M305.84 59.73l3.3 2.06c1.08,0.67 1.82,1.45 2.19,2.3 0.3,0.7 0.58,1.84 -0.57,3.67 -1.15,1.86 -2.29,2.12 -3.15,2.15 -0.89,0 -1.88,-0.33 -2.91,-0.97l-3.31 -2.06 4.44 -7.14zm-14.13 18.11l0.43 0.26c0.91,0.57 2.12,0.29 2.68,-0.63l4.25 -6.85 3.31 2.06 0.28 0.17 -0.99 10.01c-0.1,1.04 0.64,1.98 1.68,2.12l0.5 0.06 0.26 0.02 1.22 -0.42 0.72 -1.34 0.89 -8.99 0.77 0.03c1.91,0 4.64,-0.73 6.83,-4.25 2.07,-3.33 1.61,-6.06 0.85,-7.76 -0.74,-1.69 -2.06,-3.14 -3.9,-4.29l-5.39 -3.35c-0.92,-0.57 -2.11,-0.28 -2.68,0.63l-12.33 19.83 -0.23 1.47 0.86 1.21z"/>
  <path class="fil0" d="M322.41 100.64l1.33 0.53 1.42 -0.62 15.83 -16.81 0.53 -1.4 -0.62 -1.36 -0.37 -0.36c-0.8,-0.73 -2.02,-0.7 -2.76,0.09l-15.83 16.82 -0.53 1.39 0.61 1.36 0.38 0.35z"/>
  <path class="fil0" d="M326.06 268.43c3.82,0.19 7.64,0.33 11.47,0.4 4.43,0.09 8.72,-1.21 13.22,-1.03 2.51,0.1 2.62,-3.47 0.46,-4.16 -4.06,-1.33 -8,-0.45 -12.13,0.11 -4.55,0.62 -9.12,-0.29 -13.68,0.58 -2.45,0.47 -1.55,3.99 0.66,4.1z"/>
  <path class="fil0" d="M352.37 256.78c5.11,-0.45 9.77,-0.28 14.87,0.1 4.05,0.3 8.41,-0.41 11.34,-3.35 1.57,-1.56 -0.16,-4.17 -2.2,-3.58 -4.79,1.38 -8.84,1.65 -13.82,1.33 -3.93,-0.25 -7.86,-0.47 -11.37,1.52 -1.81,1.04 -0.97,4.17 1.18,3.97z"/>
  <path class="fil0" d="M375.12 245.54c3.78,0.08 7.58,0.32 11.38,0.43 3.61,0.1 7.3,-0.72 9.32,-3.9 1.27,-1.99 -1.28,-3.96 -3.1,-2.96 -5.95,3.28 -12.42,-0.47 -18.33,1.99 -2.33,0.96 -1.96,4.4 0.73,4.45z"/>
  <path class="fil0" d="M353.92 279.35c3.67,0.7 7.08,0.92 9.71,-2.11 1.58,-1.83 -0.56,-4.65 -2.71,-3.33 -2.73,1.68 -7,-0.33 -9.93,-0.48 -3.97,-0.21 -8.44,0.82 -12.38,1.43 -2.3,0.35 -3.07,3.7 -0.48,4.32 5.26,1.26 10.46,-0.82 15.78,0.18z"/>
  <path class="fil0" d="M366.27 267.15c2.71,1.54 5.78,1.5 8.74,0.86 2.05,-0.45 1.85,-3.61 -0.1,-4.04 -2.53,-0.54 -5.12,-0.65 -7.7,-0.66 -2.08,-0.02 -2.67,2.86 -0.94,3.84z"/>
  <path class="fil0" d="M306.91 288.42c3.18,-0.57 6.26,-1.82 9.36,-2.7 3.92,-1.11 6.98,-0.59 10.85,0.21 1.98,0.41 3.69,-2.16 1.98,-3.61 -3.69,-3.16 -8.23,-2.86 -12.79,-2.02 -7.1,1.32 -12.63,4.57 -20.02,2.58 -1.87,-0.5 -3.5,2.13 -1.88,3.42 3.75,3 7.93,2.95 12.5,2.11z"/>
  <path class="fil0" d="M289.36 292.91c-8,1.72 -14.94,0.91 -22.95,0.02 -2.08,-0.23 -3.81,2.77 -1.48,3.78 7.66,3.34 18.51,3.43 26.12,-0.02 2.29,-1.04 0.45,-4.24 -1.69,-3.78z"/>
  <path class="fil0" d="M314.59 293.23c-2.61,0.3 -2.47,3.78 0.1,4.02 4.84,0.43 9.69,-0.07 14.52,0.57 4.28,0.57 8.11,1.89 12.39,0.84 2.14,-0.52 1.99,-3.81 -0.1,-4.27 -9.08,-1.99 -17.68,-2.21 -26.89,-1.16z"/>
  <path class="fil0" d="M364.81 290.14c-3.85,-3.02 -9.08,-2.08 -13.24,-0.21 -1.8,0.83 -0.84,4.03 1.12,3.77 3.5,-0.48 6.67,-0.62 10.16,0.02 1.89,0.33 3.76,-2.17 1.96,-3.58z"/>
  <path class="fil0" d="M295.32 305.42c-2.31,1.05 -4.5,1.91 -7.04,2.12 -2.52,0.21 -4.98,-0.5 -7.47,-0.7 -1.75,-0.14 -2.71,2.46 -1.37,3.53 4.9,3.88 14.55,3.38 18.57,-1.63 1.6,-1.99 -0.48,-4.33 -2.7,-3.31z"/>
  <path class="fil0" d="M309.17 310.31c4.15,-0.26 7.84,-0.14 12,0.1 4.49,0.25 9.15,0.38 13.59,-0.41 2.25,-0.4 1.83,-3.71 -0.1,-4.22 -4.41,-1.18 -9.09,-0.47 -13.62,-0.66 -4.46,-0.19 -8.2,-0.24 -12.52,1.11 -2.2,0.69 -1.73,4.21 0.65,4.07z"/>
  <path class="fil0" d="M357.49 308.66c2.01,-0.89 1.96,-3.37 -0.11,-4.15 -2,-0.75 -4.15,-0.28 -6.18,0.12 -2.12,0.41 -4.34,0.67 -6.41,1.25 -2.31,0.66 -2.24,4.19 0.12,4.71 2.12,0.47 4.16,0.02 6.25,-0.4 2.07,-0.42 4.38,-0.67 6.33,-1.53z"/>
  <path class="fil0" d="M338.04 327.41c3.49,0.38 7.38,0.28 9.73,-2.7 1.29,-1.64 0.02,-4.43 -2.26,-3.68 -3.89,1.28 -7.1,0.83 -11.09,0.4 -3.51,-0.38 -6.78,-0.39 -9.6,1.91 -1.44,1.17 -0.14,3.69 1.56,3.56 4.03,-0.32 7.65,0.07 11.66,0.51z"/>
  <path class="fil0" d="M315.24 341.7c4,-0.98 7.66,-1.88 11.8,-1.51 2.04,0.18 2.83,-3.13 0.96,-3.9 -4.86,-2.03 -9.35,-0.52 -13.94,1.48 -2.4,1.04 -1.44,4.58 1.19,3.93z"/>
  <path class="fil0" d="M317.39 324.57c-2.46,-1.84 -5,-2.31 -8.04,-2.43 -4.28,-0.17 -8.15,0.2 -12.39,-0.69 -2.39,-0.5 -3.53,2.6 -1.53,3.88 5.78,3.68 13.63,0.88 20,2.81 1.93,0.58 3.68,-2.3 1.96,-3.57z"/>
  <path class="fil0" d="M146.68 248.1c4.5,0.57 9.18,0.31 13.72,0.54 2.57,0.13 2.58,-3.44 0.47,-4.18 -4.24,-1.5 -9.34,-1.18 -13.72,-0.57 -2.17,0.3 -3.06,3.89 -0.47,4.21z"/>
  <path class="fil0" d="M116.6 255.74c7.15,-1.31 14.2,-0.34 21.32,0.62 2.64,0.35 3.72,-3.41 1.02,-4.09 -7.6,-1.93 -15.92,-2.84 -23.5,-0.37 -2.51,0.82 -1.33,4.31 1.16,3.85z"/>
  <path class="fil0" d="M155.43 253.73c-2.38,-0.1 -2.59,3.42 -0.45,4.02 7.78,2.18 16.5,0.83 24.42,0.06 2.64,-0.26 2.5,-3.89 -0.11,-4.08 -7.91,-0.58 -15.91,0.37 -23.86,0z"/>
  <path class="fil0" d="M176.48 270.46c7.73,0.21 15.24,-2.16 22.91,-2.89 2.63,-0.26 2.55,-4 -0.12,-4.11 -7.72,-0.33 -15.22,2.35 -22.89,2.96 -2.59,0.21 -2.5,3.96 0.1,4.04z"/>
  <path class="fil0" d="M164.37 268.98c2.29,-0.55 1.69,-4.24 -0.65,-4.08 -5.34,0.37 -10.29,-0.53 -15.52,-1.37 -2.65,-0.42 -3.46,3.07 -1,3.98 5.46,2.04 11.47,2.85 17.17,1.47z"/>
  <path class="fil0" d="M95.12 270.46c12.93,0.76 25.24,-5.38 37.94,-0.52 2.18,0.83 3.56,-2.8 1.49,-3.78 -12.57,-5.97 -26.41,-0.4 -39.53,0.26 -2.64,0.13 -2.47,3.9 0.1,4.05z"/>
  <path class="fil0" d="M66.81 282.59c6.44,2.23 12.31,0.99 18.84,-0.33 5.95,-1.21 11.32,-0.33 17.2,0.5 4.42,0.63 8.81,-0.32 13.22,-0.53 2.77,-0.14 2.5,-3.9 -0.1,-4.17 -3.21,-0.34 -6.05,-0.04 -9.27,0.2 -4.33,0.3 -8.4,-1.45 -12.66,-1.39 -8.93,0.11 -17.33,3.81 -26.26,1.8 -2.59,-0.58 -3.41,3.09 -0.98,3.93z"/>
  <path class="fil0" d="M172.07 279.07c-5.55,-0.8 -10.54,0.37 -15.94,1.56 -7.64,1.68 -14.58,-2.43 -22.17,-0.94 -2.22,0.43 -1.61,4.11 0.62,3.9 6.29,-0.58 11.94,2.41 18.23,2.15 6.37,-0.27 12.34,-2.5 18.82,-2.52 2.33,-0.01 2.83,-3.82 0.45,-4.16z"/>
  <path class="fil0" d="M124.25 289.8c-4.1,-0.45 -7.69,0.92 -11.7,1.54 -5.72,0.89 -11.4,-1.09 -16.99,-1.98 -2.62,-0.41 -3.45,3.07 -0.99,3.96 4.62,1.69 9.08,2.89 14.01,3.22 5.44,0.36 10.41,-2.51 15.78,-2.68 2.7,-0.09 2.41,-3.78 -0.1,-4.06z"/>
  <path class="fil0" d="M154.39 293.73c-4.47,1.15 -8.72,-0.94 -13.02,-1.93 -2.17,-0.5 -3.68,2.87 -1.48,3.76 5.11,2.05 10.26,4.53 15.71,2.16 2.41,-1.05 1.45,-4.67 -1.21,-3.99z"/>
  <path class="fil0" d="M80.01 296.22c0.25,-1 -0.38,-2.33 -1.49,-2.49 -2.74,-0.37 -5.6,-0.4 -8.34,0 -0.89,0.13 -1.66,0.57 -1.88,1.51 -0.25,0.98 0.37,2.26 1.45,2.42 2.72,0.4 5.59,0.49 8.32,0.11 0.93,-0.13 1.71,-0.59 1.95,-1.55z"/>
  <path class="fil0" d="M77.57 312.34c5.96,-0.81 11.79,-2.63 17.83,-2.67 5.56,-0.05 10.62,2.66 16.29,2.27 2.68,-0.18 2.56,-4.05 -0.1,-4.15 -5.55,-0.22 -10.78,-2.18 -16.3,-2.66 -5.94,-0.51 -12.67,1.86 -18.33,3.31 -2.15,0.55 -1.63,4.21 0.62,3.9z"/>
  <path class="fil0" d="M145.74 307.35c-6.95,-0.87 -14.05,0.3 -21,0.85 -2.79,0.21 -2.67,4.16 0.1,4.3 6.78,0.33 13.65,-0.88 20.45,-1.04 2.29,-0.06 2.84,-3.82 0.45,-4.11z"/>
  <path class="fil0" d="M123.2 319.54c-8.4,1.48 -15.4,1.25 -23.74,-0.48 -2.22,-0.45 -3.64,2.73 -1.48,3.8 7.97,3.96 18.22,3.78 26.44,0.69 2.59,-0.97 1.42,-4.47 -1.21,-4.02z"/>
  <path class="fil0" d="M137.34 321.03c-2.03,0.72 -1.82,3.31 0.1,3.99 2.31,0.82 4.85,0.63 7.27,0.66 2.47,0.02 4.97,-0.02 7.41,-0.39 2.31,-0.35 3.27,-4.05 0.5,-4.48 -2.31,-0.36 -4.62,-0.42 -6.96,-0.45 -2.74,-0.03 -5.71,-0.26 -8.32,0.67z"/>
  <path class="fil0" d="M109.64 336.5c-2.77,0.13 -5.53,-0.63 -8.28,-0.9 -2.35,-0.23 -2.59,3.43 -0.44,4 3.23,0.85 6.02,1.76 9.38,1.01 2.34,-0.52 1.67,-4.21 -0.66,-4.11z"/>
  <path class="fil0" d="M139.3 334.47c-6.61,0.72 -12.78,1.59 -19.44,1.02 -2.61,-0.21 -2.49,3.42 -0.45,4.2 10.56,4.06 22.99,-1.67 34.11,0.47 2.39,0.46 3.57,-2.61 1.53,-3.9 -4.69,-2.97 -10.45,-2.37 -15.74,-1.79z"/>
  <path class="fil0" d="M142.33 348.99c-2.06,-1.16 -3.99,1.64 -2.39,3.27 6.64,6.74 19.55,7.19 26.33,0.46 1.73,-1.73 -0.61,-4.44 -2.64,-3.25 -6.87,4 -14.51,3.34 -21.3,-0.49z"/>
  <path class="fil0" d="M118.01 356.21c3.09,0.21 6.19,0.41 9.27,0.07 2.17,-0.25 2.95,-3.85 0.45,-4.13 -3.28,-0.37 -6.54,-0.21 -9.81,0.02 -2.63,0.17 -2.47,3.85 0.09,4.04z"/>
  <path class="fil0" d="M162.25 362.33c-7.68,1.02 -15.07,3.24 -22.9,2.91 -2.36,-0.1 -2.81,3.78 -0.46,4.15 8.05,1.33 16.29,-0.78 24.02,-2.95 2.24,-0.62 1.73,-4.43 -0.66,-4.11z"/>
  <path class="fil0" d="M198.27 297.1c-6.48,3.18 -12.16,8.33 -13.14,15.83 -0.95,7.13 4.03,12.73 9.64,16.27 1.96,1.24 4.3,-1.88 2.42,-3.3 -4.31,-3.23 -8.31,-7.29 -7.58,-13.12 0.7,-5.72 6.16,-9.7 10.8,-12.26 2.29,-1.28 0.17,-4.55 -2.13,-3.42z"/>
  <path class="fil0" d="M252.92 257.39c10.43,5.57 -0.97,16.27 -7.56,19.53 -2.1,1.03 -0.5,4.56 1.68,3.73 9.97,-3.78 23.2,-20.75 7.84,-26.81 -2.35,-0.93 -4.33,2.28 -1.95,3.55z"/>
  <path class="fil0" d="M255.52 339.92c-2.38,-1.13 -4.05,2.07 -1.94,3.53 11.98,8.26 30.54,7.95 37.52,22.55 1.03,2.15 4.57,0.5 3.77,-1.69 -5.8,-15.76 -26.03,-18 -39.35,-24.39z"/>
  <path class="fil0" d="M250.21 378.53c-0.61,2.3 2.95,3.8 3.93,1.55 3.7,-8.59 0.76,-19.41 -5.16,-26.38 -1.61,-1.91 -4.06,0.63 -3.14,2.55 3.49,7.28 6.57,14.02 4.38,22.28z"/>
  <path class="fil0" d="M266.52 373.15c0.34,1.98 3.79,1.91 4.01,-0.1 0.8,-7.1 -4.36,-13.5 -9.97,-17.22 -1.96,-1.31 -4.01,1.69 -2.38,3.25 4.28,4.09 7.28,8.16 8.34,14.07z"/>
  <path class="fil0" d="M212.09 342.17c-1.54,-1.65 -4.51,0.71 -3.1,2.52 9.96,12.7 3.56,28.61 -9.43,35.84 -2,1.12 -0.47,4.68 1.68,3.72 15.82,-7.12 23.69,-28.26 10.86,-42.08z"/>
  <path class="fil0" d="M222.61 367.07c0.22,4.36 -0.37,9.75 -4.08,12.62 -1.75,1.34 -0.65,4.84 1.71,3.81 6.1,-2.64 9.16,-11.58 6.18,-17.57 -0.93,-1.87 -3.92,-0.83 -3.81,1.13z"/>
  <path class="fil0" d="M231.37 349.25c5.84,9.26 8.08,19.59 3.15,29.75 -1.21,2.48 2.14,4.2 3.67,2.02 7.37,-10.44 4.07,-25.07 -3.67,-34.32 -1.52,-1.8 -4.35,0.64 -3.15,2.55z"/>
  <path class="fil0" d="M229.9 334.07c-4.13,-5.4 -16.47,-16.27 -9.61,-23.3 1.87,-1.91 -1,-4.48 -2.94,-2.8 -10.13,8.71 2.33,22.46 9.24,28.78 1.73,1.59 4.84,-0.69 3.31,-2.68z"/>
  <path class="fil0" d="M236.83 252.92c4.42,1.05 7.22,4.58 5.43,9.11 -0.99,2.52 2.43,4.62 3.79,2.09 3.73,-7.02 -0.47,-14.26 -8.22,-15.24 -2.59,-0.33 -3.67,3.39 -1.01,4.03z"/>
  <path class="fil0" d="M230.06 296.02c1.37,-1.71 2.71,-3.55 4.45,-4.9 0.87,-0.68 1.3,-1.78 0.65,-2.8 -0.58,-0.95 -1.85,-1.25 -2.8,-0.67 -2.37,1.45 -4.25,3.53 -5.62,5.94 -1.12,2.01 1.81,4.3 3.31,2.43z"/>
  <path class="fil0" d="M225.5 82.29c6.85,3.19 9.01,11.08 5.92,17.69 -7.8,16.61 -32.39,3.78 -24,-12.11 4.6,-5.78 10.94,-8.91 18.08,-5.58zm-21.52 3.14l-0.14 0.38c-5.28,8.83 -2.58,18.65 6.06,24.13 8.96,5.69 19.49,1.86 24.63,-6.75 5.18,-8.65 1.92,-18.79 -6.06,-24.22 -8.63,-5.87 -19.52,-2.04 -24.49,6.46z"/>
 </g>
</svg>
