<?xml version="1.0" encoding="UTF-8"?>
<svg xmlns="http://www.w3.org/2000/svg" xml:space="preserve" width="0.747335in" height="0.747315in" version="1.1" style="shape-rendering:geometricPrecision; text-rendering:geometricPrecision; image-rendering:optimizeQuality; fill-rule:evenodd; clip-rule:evenodd"
viewBox="0 0 136.17 136.17"
 xmlns:xlink="http://www.w3.org/1999/xlink"
 xmlns:xodm="http://www.corel.com/coreldraw/odm/2003">
 <defs>
  <style type="text/css">
   <![CDATA[
    .fil0 {fill:black;fill-rule:nonzero}
   ]]>
  </style>
 </defs>
 <g id="Layer_x0020_1">
  <metadata id="CorelCorpID_0Corel-Layer"/>
  <path class="fil0" d="M33.46 112.4l-0.06 -0.1 -0.38 -0.28 -0.47 0.07 -2.78 1.7 1.2 -3.04 -0.01 -0.47 -0.35 -0.33 -0.1 -0.04c-0.32,-0.11 -0.67,0.04 -0.79,0.35l-1.94 4.89c-0.1,0.25 -0.03,0.53 0.18,0.7l0.09 0.08 0.39 0.14 0.32 -0.09 4.49 -2.75c0.29,-0.18 0.38,-0.55 0.21,-0.84z"/>
  <path class="fil0" d="M36.04 114.2l-0.09 -0.07 -0.47 -0.1 -0.4 0.25 -2.87 4.11c-0.2,0.28 -0.13,0.66 0.15,0.86l0.09 0.06 0.35 0.11 0.11 -0.01 0.4 -0.25 2.88 -4.11c0.19,-0.28 0.12,-0.66 -0.15,-0.86z"/>
  <path class="fil0" d="M39.85 118.95c-0.19,0.33 -0.36,0.38 -0.53,0.4l-0.51 -0.17 -0.57 -0.32 0.72 -1.24 0.56 0.32 0.42 0.4c0.06,0.12 0.1,0.3 -0.09,0.61zm0.34 -2.19l-1.19 -0.68 -0.47 -0.06 -0.37 0.29 -2.52 4.4 -0.06 0.47 0.29 0.37 0.1 0.05c0.3,0.17 0.67,0.07 0.84,-0.23l0.78 -1.35 0.51 0.3 -0.13 2.06c-0.02,0.33 0.23,0.61 0.55,0.65l0.11 0.01 0.06 0 0.4 -0.15 0.22 -0.43 0.11 -1.78c0.48,-0.02 1.12,-0.23 1.6,-1.07 0.47,-0.81 0.33,-1.47 0.14,-1.87 -0.2,-0.4 -0.52,-0.73 -0.96,-0.99z"/>
  <path class="fil0" d="M46.21 120.6l0.05 -0.1 0.02 -0.47 -0.32 -0.34 -2.53 -1.16c-0.31,-0.15 -0.68,-0.01 -0.82,0.3l-0.05 0.1 -0.02 0.47 0.32 0.35 0.65 0.3 -1.81 3.94c-0.14,0.31 -0.01,0.68 0.3,0.82l0.1 0.05 0.26 0.06 0.21 -0.04 0.35 -0.32 1.81 -3.94 0.65 0.3c0.31,0.14 0.68,0.01 0.82,-0.3z"/>
  <path class="fil0" d="M50.68 121.51l-0.11 -0.04c-0.32,-0.11 -0.68,0.05 -0.79,0.38l-1.21 3.41 -0.37 0.41 -0.54 0.03 -0.41 -0.37 -0.03 -0.55 1.22 -3.41c0.12,-0.32 -0.05,-0.68 -0.37,-0.79l-0.11 -0.04 -0.47 0.02 -0.32 0.35 -1.22 3.41c-0.19,0.54 -0.16,1.07 0.08,1.58 0.24,0.5 0.65,0.87 1.18,1.06 0.24,0.08 0.47,0.12 0.7,0.12 0.3,0 0.59,-0.07 0.88,-0.2 0.51,-0.24 0.87,-0.64 1.06,-1.17l1.21 -3.41 -0.03 -0.48 -0.35 -0.32z"/>
  <path class="fil0" d="M55.46 122.79l-2.7 -0.69 -0.47 0.07 -0.29 0.38 -0.03 0.11c-0.08,0.33 0.12,0.67 0.45,0.75l0.7 0.18 -1.08 4.2 0.07 0.47 0.38 0.28 0.11 0.03 0.15 0.02c0.27,0 0.53,-0.18 0.6,-0.46l1.08 -4.21 0.7 0.19 0.47 -0.07 0.28 -0.38 0.03 -0.11c0.08,-0.33 -0.11,-0.67 -0.44,-0.75z"/>
  <path class="fil0" d="M60.11 123.64l-2.25 -0.37 -0.46 0.11 -0.25 0.41 -0.82 5.05 0.11 0.46 0.4 0.25 2.25 0.36 0.1 0.01 0.36 -0.12 0.25 -0.4 0.02 -0.1c0.05,-0.34 -0.18,-0.65 -0.51,-0.71l-1.54 -0.25 0.24 -1.42 0.98 0.16c0.34,0.06 0.65,-0.17 0.71,-0.51l0.02 -0.11 -0.11 -0.46 -0.4 -0.25 -0.98 -0.16 0.14 -0.87 1.53 0.25c0.34,0.06 0.66,-0.17 0.71,-0.51l0.02 -0.11 -0.11 -0.46 -0.4 -0.25z"/>
  <path class="fil0" d="M70.19 129.19l-1.55 0.03 -0.02 -1.44 1 -0.01 0.43 -0.19 0.18 -0.44 -0 -0.11c-0.01,-0.34 -0.28,-0.61 -0.62,-0.61l-0.01 0 -1 0.02 -0.02 -0.88 1.56 -0.03 0.44 -0.19 0.17 -0.44 -0 -0.11c-0.01,-0.34 -0.3,-0.59 -0.63,-0.61l-2.28 0.04c-0.34,0.01 -0.61,0.29 -0.61,0.63l0.08 5.12 0.18 0.43 0.43 0.17 0.01 0 2.28 -0.03 0.43 -0.19 0.17 -0.44 -0 -0.1c-0.01,-0.34 -0.28,-0.6 -0.63,-0.61z"/>
  <path class="fil0" d="M75.85 123.89l-0.46 -0.14 -2.77 0.29c-0.34,0.04 -0.58,0.34 -0.55,0.68l0.02 0.11 0.22 0.42 0.46 0.13 0.72 -0.07 0.45 4.32 0.23 0.42 0.39 0.14 0.07 -0.01 0.11 -0.01c0.34,-0.04 0.58,-0.34 0.55,-0.68l-0.45 -4.32 0.72 -0.07c0.34,-0.03 0.58,-0.34 0.55,-0.68l-0.01 -0.11 -0.22 -0.42z"/>
  <path class="fil0" d="M84.57 125.53l0.04 -0.86 0.49 0.71 -0.53 0.15zm0.01 -3.27c-0.15,-0.22 -0.43,-0.32 -0.68,-0.24l-0.11 0.04c-0.26,0.07 -0.44,0.3 -0.44,0.57l-0.2 5.26 0.17 0.45 0.44 0.19 0.11 0c0.33,0 0.6,-0.26 0.61,-0.59l0.04 -0.98 1.38 -0.41 0.56 0.8c0.19,0.27 0.55,0.35 0.84,0.17l0.09 -0.06 0.28 -0.4 -0.1 -0.48 -3 -4.33z"/>
  <path class="fil0" d="M89.98 122.65l-0.48 0.33 -0.61 0.24 -0.52 -1.34 0.6 -0.24 0.57 -0.07c0.12,0.03 0.29,0.11 0.43,0.45 0.14,0.36 0.07,0.52 0,0.62zm1.09 0.81c0.39,-0.53 0.46,-1.19 0.17,-1.92 -0.34,-0.87 -0.94,-1.17 -1.38,-1.27 -0.42,-0.1 -0.89,-0.06 -1.37,0.13l-1.28 0.5c-0.32,0.12 -0.48,0.48 -0.35,0.8l1.85 4.72 0.33 0.34 0.25 0.05 0.23 -0.04 0.1 -0.04c0.32,-0.12 0.48,-0.49 0.35,-0.8l-0.57 -1.45 0.56 -0.22 1.52 1.39c0.25,0.22 0.62,0.21 0.86,-0.02l0.08 -0.08 0.17 -0.45 -0.2 -0.44 -1.32 -1.2z"/>
  <path class="fil0" d="M95.53 117.89l-0.36 -0.31 -0.47 0.04 -0.11 0.06 -0.34 0.51 -0.16 2.09 -1.77 -1.13 -0.61 -0.04 -0.11 0.06 -0.31 0.36 0.04 0.47 2.24 4.49 0.55 0.34 0.27 -0.06 0.1 -0.05 0.31 -0.35 -0.03 -0.47 -1.15 -2.31 0.76 0.49 0.61 0.03 0.34 -0.51 0.07 -0.91 1.15 2.31 0.36 0.31 0.47 -0.03 0.1 -0.05c0.31,-0.15 0.43,-0.52 0.28,-0.82l-2.24 -4.49z"/>
  <path class="fil0" d="M98.43 116.13c-0.18,-0.29 -0.55,-0.38 -0.85,-0.21l-0.09 0.06 -0.28 0.38 0.07 0.47 2.63 4.27 0.38 0.28 0.14 0.02 0.32 -0.1 0.09 -0.06c0.29,-0.18 0.38,-0.56 0.2,-0.85l-2.63 -4.27z"/>
  <path class="fil0" d="M104.57 114.83l-0.4 0.03c-0.33,0.06 -0.62,0.11 -0.88,0.16l-0.58 0.11c-0.27,0.05 -0.45,0.01 -0.58,-0.17l-0.09 -0.3 0.23 -0.35c0.07,-0.05 0.3,-0.19 1.06,-0.43 0.26,-0.09 0.44,-0.34 0.43,-0.62l-0.01 -0.11 -0.22 -0.44 -0.47 -0.14c-0.55,0.06 -1.09,0.29 -1.6,0.67 -0.46,0.34 -0.73,0.81 -0.76,1.34 -0.03,0.44 0.09,0.84 0.35,1.2 0.33,0.45 0.8,0.7 1.35,0.73l0.08 -0 0.38 -0.04 0.35 -0.05 0.92 -0.16 0.38 -0.05 0.2 0 0.26 0.16 0.08 0.3 -0.18 0.31c-0.02,0.02 -0.26,0.17 -1.41,0.43 -0.29,0.07 -0.49,0.32 -0.48,0.61l0 0.11 0.19 0.43 0.43 0.18 0.01 0c0.35,-0.01 0.71,-0.07 1.08,-0.19 0.38,-0.12 0.7,-0.29 0.98,-0.5 0.43,-0.32 0.68,-0.77 0.72,-1.29 0.03,-0.45 -0.09,-0.85 -0.34,-1.19 -0.35,-0.47 -0.86,-0.71 -1.47,-0.71z"/>
  <path class="fil0" d="M28.4 36.95l0.42 0.16 0.03 0 0.43 -0.21 0.11 -0.12c0.23,-0.26 0.2,-0.65 -0.05,-0.87l-3.58 -3.19 2.31 0.43 0.58 -0.19 0.13 -0.6 -0.7 -2.24 3.58 3.19c0.26,0.23 0.65,0.2 0.87,-0.05l0.11 -0.12 0.16 -0.45 -0.21 -0.43 -5.47 -4.87c-0.26,-0.23 -0.65,-0.21 -0.87,0.05l-0.12 0.13 -0.13 0.6 1.06 3.37 -3.47 -0.65 -0.57 0.19 -0.11 0.13 -0.16 0.45 0.2 0.42 5.47 4.87z"/>
  <path class="fil0" d="M36.54 28.84l0.41 0.24 0.07 0.01 0.38 -0.13 0.13 -0.1c0.27,-0.21 0.31,-0.6 0.11,-0.87l-4.52 -5.76 -0.41 -0.24 -0.46 0.13 -0.13 0.1c-0.27,0.21 -0.32,0.6 -0.11,0.87l4.52 5.76z"/>
  <path class="fil0" d="M41.22 20.92l0.08 0.01 0.54 0.04 0.3 0.01 1.72 -0.04 0.44 0.02 0.35 0.06 0.5 0.43c0.1,0.19 0.13,0.4 0.07,0.65 -0.06,0.27 -0.21,0.45 -0.47,0.59 -0.1,0.05 -0.54,0.22 -2.24,0.33 -0.29,0.02 -0.53,0.24 -0.57,0.53l-0.03 0.16 0.12 0.46 0.41 0.24 0.64 0.05c0.29,0 0.58,-0.03 0.88,-0.08 0.54,-0.09 1.03,-0.25 1.44,-0.47 0.63,-0.33 1.04,-0.85 1.18,-1.52 0.13,-0.57 0.07,-1.11 -0.2,-1.6 -0.3,-0.56 -0.93,-1.25 -2.29,-1.25 -0.49,0.01 -0.91,0.02 -1.28,0.03l-0.93 0.03c-0.65,0 -0.88,-0.28 -1.01,-0.52 -0.11,-0.21 -0.13,-0.42 -0.09,-0.65 0.04,-0.17 0.14,-0.42 0.55,-0.64 0.15,-0.08 0.57,-0.24 1.71,-0.42 0.27,-0.04 0.49,-0.27 0.52,-0.54l0.02 -0.16 -0.15 -0.47 -0.44 -0.21c-0.76,-0.04 -1.54,0.16 -2.31,0.57 -0.69,0.36 -1.11,0.89 -1.26,1.57 -0.12,0.56 -0.05,1.1 0.22,1.6 0.34,0.64 0.89,1.06 1.59,1.21z"/>
  <path class="fil0" d="M50.1 16.85l0.07 0.03 0.53 0.13 0.49 0.09 1.35 0.22 0.57 0.12 0.33 0.12c0.21,0.11 0.34,0.27 0.42,0.51 0.07,0.22 0.05,0.42 -0.05,0.65 -0.11,0.26 -0.28,0.4 -0.57,0.49 -0.04,0.01 -0.18,0.05 -0.58,0.05 -0.42,0 -0.98,-0.04 -1.69,-0.12 -0.29,-0.04 -0.56,0.14 -0.65,0.41l-0.05 0.15 0.03 0.47 0.35 0.31c0.45,0.15 0.96,0.24 1.5,0.25l0.11 0c0.5,0 0.97,-0.07 1.39,-0.2 0.67,-0.21 1.17,-0.65 1.43,-1.28 0.23,-0.54 0.27,-1.09 0.1,-1.62 -0.19,-0.61 -0.7,-1.39 -2.03,-1.64 -0.48,-0.08 -0.9,-0.15 -1.26,-0.2l-0.89 -0.13c-0.67,-0.11 -0.85,-0.44 -0.93,-0.7 -0.07,-0.23 -0.06,-0.44 0.03,-0.66 0.07,-0.16 0.21,-0.39 0.66,-0.53 0.13,-0.04 0.46,-0.11 1.28,-0.11l0.48 0.01c0.29,0.02 0.53,-0.17 0.61,-0.44l0.05 -0.15 -0.06 -0.49 -0.4 -0.29c-0.74,-0.17 -1.54,-0.12 -2.37,0.14 -0.73,0.23 -1.25,0.68 -1.52,1.31 -0.22,0.53 -0.25,1.08 -0.08,1.62 0.22,0.69 0.68,1.2 1.34,1.47z"/>
  <path class="fil0" d="M61.83 18.72l0.08 -0.01 0.16 -0.02 0.41 -0.23 0.13 -0.45 -0.89 -7.27c-0.05,-0.34 -0.35,-0.59 -0.69,-0.54l-0.16 0.02 -0.41 0.23 -0.13 0.46 0.89 7.27c0.04,0.31 0.31,0.54 0.61,0.54z"/>
  <path class="fil0" d="M69.87 18.16c0.51,0.2 1.01,0.31 1.48,0.34l0.15 0.01c0.65,0 1.2,-0.24 1.64,-0.7 0.41,-0.43 0.63,-0.92 0.66,-1.48 0.04,-0.64 -0.16,-1.55 -1.32,-2.25 -0.42,-0.25 -0.79,-0.46 -1.11,-0.64l-0.78 -0.43c-0.59,-0.34 -0.64,-0.7 -0.63,-0.99 0.02,-0.24 0.1,-0.43 0.26,-0.6 0.18,-0.18 0.4,-0.26 0.7,-0.26l0.1 0c0.17,0.01 0.61,0.09 1.68,0.53 0.26,0.11 0.56,0.02 0.73,-0.21l0.1 -0.13 0.11 -0.48 -0.27 -0.41c-0.63,-0.42 -1.4,-0.65 -2.26,-0.7 -0.78,-0.05 -1.41,0.19 -1.9,0.7 -0.39,0.42 -0.61,0.92 -0.64,1.49 -0.04,0.73 0.22,1.37 0.74,1.85l0.06 0.05 0.45 0.31 0.43 0.26 1.18 0.68 0.5 0.31 0.27 0.23c0.16,0.18 0.22,0.38 0.21,0.62l-0.28 0.6c-0.17,0.18 -0.37,0.27 -0.63,0.27l-0.07 0c-0.11,-0.01 -0.57,-0.09 -2.1,-0.87 -0.26,-0.13 -0.57,-0.07 -0.76,0.16l-0.1 0.12 -0.14 0.45 0.23 0.42c0.37,0.31 0.82,0.56 1.32,0.76z"/>
  <path class="fil0" d="M78.79 19.27c0.46,0.29 0.93,0.49 1.39,0.6l0.59 0.07c0.47,0 0.91,-0.14 1.3,-0.43 0.47,-0.34 0.78,-0.79 0.91,-1.34 0.15,-0.62 0.12,-1.55 -0.89,-2.45 -0.37,-0.31 -0.7,-0.58 -0.97,-0.82l-0.69 -0.57c-0.52,-0.44 -0.51,-0.81 -0.44,-1.08 0.06,-0.24 0.17,-0.41 0.36,-0.55 0.23,-0.16 0.49,-0.2 0.84,-0.11 0.16,0.04 0.58,0.2 1.56,0.81 0.24,0.15 0.55,0.12 0.75,-0.07l0.12 -0.11 0.2 -0.45 -0.19 -0.45c-0.55,-0.52 -1.26,-0.89 -2.11,-1.1 -0.75,-0.18 -1.43,-0.06 -1.98,0.35 -0.47,0.34 -0.77,0.79 -0.9,1.35 -0.17,0.71 -0.03,1.38 0.39,1.95l0.05 0.06 0.39 0.38 0.37 0.33 1.05 0.88 0.43 0.4 0.23 0.27c0.12,0.2 0.15,0.41 0.1,0.65l-0.38 0.53c-0.22,0.16 -0.45,0.21 -0.74,0.14 -0.1,-0.03 -0.54,-0.19 -1.91,-1.23l-0.77 0.02 -0.12 0.1 -0.22 0.42 0.15 0.45c0.31,0.36 0.7,0.7 1.16,0.98z"/>
  <path class="fil0" d="M88.19 22.54l0.15 0.07 0.25 0.06 0.22 -0.05 0.34 -0.32 2.97 -6.7 0.01 -0.48 -0.33 -0.34 -0.15 -0.07c-0.31,-0.14 -0.68,0.01 -0.81,0.32l-2.97 6.7c-0.14,0.31 0,0.68 0.32,0.81z"/>
  <path class="fil0" d="M99.06 20.19l1.02 0.69c0.33,0.23 0.55,0.48 0.66,0.76 0.09,0.23 0.16,0.59 -0.22,1.15 -0.39,0.57 -0.76,0.64 -0.99,0.64 -0.3,-0.01 -0.62,-0.12 -0.95,-0.35l-1.02 -0.7 1.5 -2.2zm-4.59 5.64l0.35 0.11 0.51 -0.27 1.44 -2.11 1.02 0.69c0.57,0.38 1.15,0.59 1.75,0.59 0.58,0 1.43,-0.22 2.14,-1.25 0.7,-1.03 0.59,-1.9 0.37,-2.45 -0.21,-0.55 -0.61,-1.03 -1.18,-1.41l-1.66 -1.13 -0.47 -0.1 -0.39 0.26 -4.17 6.12 -0.09 0.46 0.26 0.4 0.13 0.09z"/>
  <path class="fil0" d="M107.13 26.51l0.88 0.87c0.29,0.28 0.46,0.57 0.52,0.87 0.05,0.23 0.05,0.6 -0.43,1.09 -0.37,0.38 -0.74,0.52 -1.09,0.46 -0.29,-0.06 -0.59,-0.23 -0.88,-0.51l-0.88 -0.87 1.87 -1.9zm-5.63 4.62l0.11 0.11 0.44 0.18 0.01 0 0.44 -0.19 1.79 -1.82 0.88 0.87c0.49,0.48 1.02,0.77 1.6,0.89 0.84,0.15 1.64,-0.14 2.34,-0.85 0.87,-0.89 0.92,-1.76 0.81,-2.34 -0.11,-0.58 -0.42,-1.11 -0.91,-1.6l-1.43 -1.41 -0.44 -0.18 -0.01 0 -0.43 0.18 -5.2 5.28c-0.24,0.24 -0.23,0.64 0.01,0.87z"/>
  <path class="fil0" d="M108.65 38.9l0.1 0.46 0.1 0.14 0.5 0.26 0.36 -0.11 5.99 -4.22c0.28,-0.2 0.34,-0.58 0.14,-0.87l-0.09 -0.13 -0.4 -0.25 -0.46 0.1 -5.99 4.22 -0.25 0.4z"/>
  <path class="fil0" d="M96.94 62.68c-0.9,-0.05 -1.78,-0.03 -2.68,0.03 -0.85,0.06 -0.8,1.24 0.03,1.3 0.9,0.06 1.78,0.08 2.68,0.03 0.89,-0.04 0.84,-1.32 -0.04,-1.36z"/>
  <path class="fil0" d="M100.55 64.69l-0.31 -0.01c-0.82,-0.01 -0.79,1.29 0.03,1.28l0.31 -0.01c0.82,-0.01 0.78,-1.26 -0.03,-1.27z"/>
  <path class="fil0" d="M11.82 85.18c-2.74,1.02 -5.18,2.42 -6.4,4.47 -0.38,-1.12 -0.74,-2.25 -1.06,-3.39 1.66,-0.11 4.52,-0.45 7.46,-1.08zm-9.5 -9.2c5.31,-1.44 10.63,0.29 15.9,1.46l0.56 0.3 0.12 0.04 0.51 0.44c1.48,1.35 -0.25,2.61 -1.39,3.25 -4.09,2.29 -9.37,3.07 -14.02,3.41 -0.76,-2.91 -1.32,-5.88 -1.68,-8.91zm-0.46 -8.26c0,-0.57 0.01,-1.13 0.03,-1.7 1.65,1.71 4.22,2.42 6.49,3.35 2.8,1.14 4.63,3.52 6.71,5.59 -4.26,-1.22 -9.19,-2.2 -12.93,-0.53 -0.21,-2.21 -0.31,-4.45 -0.3,-6.7zm1.17 -12.06c1.62,1.55 5.04,1.42 5.85,3.83 0.27,0.82 1.45,0.45 1.27,-0.38 -0.57,-2.61 -3.24,-3.25 -5.38,-4.37 1.77,-0.16 3.54,-0.2 5.28,0.21 0.9,0.21 1.75,0.51 2.6,0.79 1.52,2.71 5.21,3.12 7.59,4.81 0.58,0.42 1.35,-0.44 0.95,-0.99 -0.86,-1.19 -1.96,-1.77 -3.3,-2.3 -0.66,-0.26 -1.25,-0.51 -1.8,-0.79 2.2,0.17 4.42,0.25 6.63,0.42 1.61,0.13 3.16,0.41 4.71,0.82 0.25,0.07 6.3,2.4 3.37,3.7 -0.35,0.16 -2.4,0.4 -4.88,0.81 -2.03,-0.17 -4.05,-0.25 -6.08,-0.6 -2.31,-0.4 -4.61,-1 -6.95,-1.18 -3.56,-0.26 -7.49,0.27 -10.77,1.87 0.19,-2.25 0.51,-4.47 0.92,-6.65zm10.65 13.45c1.66,-0.3 3.22,-0.4 4.88,-0.26 2.12,0.75 4.79,0.59 6.76,0.9 1.41,0.22 2.85,1.53 1.18,2.55 -1.18,0.72 -2.66,1.07 -3.98,1.48 -1.03,0.32 -3.18,0.73 -3.97,1.74 -2.54,-1.67 -4.19,-4.35 -6.68,-6.11 0.61,-0.08 1.21,-0.19 1.81,-0.3zm2.49 -1.93c-2.2,0.05 -4.51,0.71 -6.53,1.04 -2.73,-1.14 -5.98,-1.82 -7.46,-4.3 4.07,-1.44 7.99,-2.19 12.38,-1.52 1.81,0.27 3.65,0.73 5.51,1.09 -2.95,0.86 -5.05,2.05 -3.9,3.7zm-11.7 -17.51l0.42 0c0.87,-0.04 0.82,-1.28 -0.02,-1.34 0.29,-0.92 0.6,-1.84 0.93,-2.74 6.47,0.25 12.96,0.17 19.45,0.07 0.27,0.03 0.53,0.07 0.79,0.1 -0.31,0.12 -0.64,0.23 -0.94,0.35 -1.31,0.49 -3.93,0.93 -4.68,2.29 -1.24,2.23 2.72,3.07 3.97,3.26l0.55 0.08 0.35 0.13c0.36,0.06 0.72,0.11 1.09,0.17l-0.02 0.22c0.02,0.63 0.61,1.01 1.19,0.87l0.36 -0.14 0.13 -0.02 0.51 -0.09c0.24,-0.07 0.38,-0.24 0.44,-0.43 3.65,0.56 7.28,1.2 10.79,2.49 0.6,0.22 1.22,0.48 1.81,0.78l-0.42 0.46c-0.08,0.32 0.12,0.76 0.48,0.8 0.33,0.05 0.64,0.17 0.97,0.21 0.3,0.03 0.58,0.03 0.87,0 0.12,0.68 -1.55,1 -2.32,1.1 -0.82,0.11 -1.26,0.72 -1.11,1.52 0.52,2.79 5.46,2.18 7.39,2.14 0.99,-0.02 1.97,-0.04 2.96,-0.02 0.39,0.01 0.78,0.04 1.17,0.09l0.21 0.03c-1.95,1.11 -4.95,1.2 -7.06,1.56 -2.25,0.39 -11.29,1.72 -9.89,5.91 0.52,1.55 1.74,1.9 3.14,2.48 0.21,0.09 -2.36,0.76 -2.62,0.79 -0.97,0.13 -1.95,0.2 -2.93,0.3 -2.34,0.26 -3.3,1.42 -2.55,2.89l-0.48 0.13c-0.66,0.24 -0.56,1.32 0.21,1.27 0.51,-0.04 1,0.06 1.5,0.07 2.42,2.3 -2.12,3.23 -3.86,3.73 -1.63,0.47 -3.29,0.78 -4.93,1.22 -1.28,0.35 -3.01,0.7 -4.88,1.14 3.54,-1.42 5.72,-3.45 3.41,-6.19 -0.04,-0.05 -0.46,-0.45 -0.73,-0.69l-0.12 -0.24c1.29,-0.93 3.51,-1.17 4.99,-1.58 1.42,-0.39 3.62,-1.09 4.35,-2.53 2.11,-4.18 -5.14,-4.59 -7.56,-4.71 -0.97,-0.05 -1.9,-0.24 -2.84,-0.48 -2.8,-0.73 0.56,-2.16 1.65,-2.39 2.45,-0.51 5.11,-0.73 7.58,-1.1 2.55,-0.38 6.82,-1.33 4.55,-4.74 -2.44,-3.67 -9.27,-3.63 -13.09,-3.82 -3.26,-0.16 -6.09,-0.66 -9.21,-1.61 -2.18,-0.66 -4.64,-0.42 -6.92,-0.07 0.29,-1.26 0.61,-2.5 0.96,-3.73zm63.61 -47.81l0.38 0c27.88,0.16 51.69,17.6 61.31,42.1 -20.33,-0.65 -40.71,-0.3 -61.05,-0.29 -10.5,0.01 -21.01,0.2 -31.52,0.21 -10.23,0.02 -20.49,-0.41 -30.72,-0.04 9.72,-24.55 33.71,-41.98 61.61,-41.98zm62.75 45.01c-0.61,-0.07 -1.24,-0.11 -1.77,0.09 -0.67,0.25 -0.6,1.09 0.03,1.32 0.65,0.24 1.48,0.12 2.21,0.03 0.5,1.61 0.95,3.25 1.33,4.91l-0.01 -0c-0.26,-0.01 -0.51,0.05 -0.76,0.07 -0.86,0.06 -0.8,1.26 0.03,1.31 0.25,0.02 0.51,0.08 0.77,0.07l0.28 -0.02c0.17,0.8 0.32,1.62 0.46,2.43l-0.11 -0 -0.57 -0.17c-0.58,-0.12 -1.16,0.3 -1.15,0.92 0.02,0.64 0.61,0.98 1.19,0.86l0.4 -0.17 0.16 0.01 0.3 -0.01c0.28,1.9 0.47,3.83 0.58,5.78 -0.69,0 -1.4,0.11 -2.05,0.28 -0.64,0.17 -0.6,1.13 0.03,1.29 0.67,0.16 1.39,0.15 2.09,0.06 0.03,0.74 0.04,1.49 0.04,2.23l-0.07 -0.01c-0.3,-0.02 -0.58,0.05 -0.87,0.11 -0.69,0.14 -0.62,1.23 0.04,1.36 0.31,0.06 0.59,0.09 0.89,0.09 -0.03,1.21 -0.09,2.42 -0.18,3.61 -1.57,0.06 -3.37,-0.15 -2.77,-2.15 0.27,-0.9 0.46,-2.25 -0.42,-2.93 -4.05,-3.1 -8.86,0.34 -12.92,1.56 -4.73,1.43 -8.96,1.46 -13.77,1.3 -2.17,-0.07 -6.48,-0.39 -7.69,2 -0.38,0.76 0.69,1.33 1.15,0.63 1.43,-2.19 7.67,-0.99 9.85,-0.83 4.39,0.33 8.83,-0.58 12.97,-2.03 2.52,-0.88 4.8,-2.45 7.6,-1.98 2.96,0.5 0.68,2.62 1.2,4.11 0.59,1.73 2.77,2.47 4.62,2.3 -0.25,2.32 -0.63,4.59 -1.12,6.83 -1.04,-0.08 -2.14,-0.14 -3.13,0.12 -0.81,0.21 -0.73,1.4 0.04,1.6 0.83,0.22 1.76,0.2 2.65,0.15 -1.12,4.5 -2.69,8.82 -4.68,12.91 -2.22,-3.18 -5.71,-5.41 -9.28,-7.21 0.04,-0.51 0.04,-1.01 -0.02,-1.53 -0.04,-0.36 -0.24,-0.68 -0.62,-0.77 -0.39,-0.1 -0.94,0.15 -0.99,0.6 -0.04,0.3 -0.07,0.58 -0.08,0.88 -0.87,-0.41 -1.74,-0.81 -2.59,-1.18 -1.02,-0.45 -2.06,-0.88 -3.1,-1.3 0.07,-0.85 0.02,-1.74 -0.48,-2.3 -0.3,-0.33 -0.9,-0.29 -1.19,0.03 -0.38,0.43 -0.4,0.93 -0.42,1.47 -3.54,-1.32 -7.16,-2.42 -10.8,-3.33 -0.09,-0.51 -0.44,-1.04 -0.65,-1.45 -0.36,-0.71 -0.67,-1.52 -1.15,-2.15 -0.5,-0.64 -1.84,-0.5 -1.71,0.51 0.11,0.87 0.56,1.65 0.94,2.42l0.03 0.07c-2.37,-0.52 -4.84,-1.05 -6.95,-2.12 -1.47,-0.75 1.98,-1.41 2,-1.41 0.6,-0.06 1.2,-0.1 1.8,-0.19 0.86,-0.13 1.48,-0.47 2.1,-1.06 1.88,-1.81 0.7,-3.5 -1.01,-4.76l0.39 -0.07c0.74,-0.13 0.53,-1.34 -0.21,-1.29 -0.84,0.06 -1.64,0.08 -2.45,0.02 -0.46,-0.23 -0.88,-0.41 -1.21,-0.54 -1.53,-0.62 -6.62,-1.91 -3.71,-4.1 0.38,-0.29 0.81,-0.53 1.26,-0.75 0.87,0.06 1.8,0.03 2.62,-0.12 0.67,-0.13 0.56,-0.94 0.09,-1.22 0.65,-0.4 1.23,-0.89 1.62,-1.56 0.98,-1.68 -0.55,-2.78 -1.87,-3.39l0.29 -0.04c0.33,-0.05 0.61,-0.21 0.7,-0.56 0.09,-0.37 -0.14,-0.84 -0.54,-0.9 -0.45,-0.07 -0.96,-0.13 -1.46,-0.14 0.14,-0.21 0.32,-0.46 0.53,-0.78 1.63,-2.48 -0.8,-4.01 -2.97,-4.58 -2.61,-0.7 -5.37,-0.49 -8.02,-0.9 0.54,-0.19 1.09,-0.33 1.63,-0.47 1.09,-0.28 2.2,-0.47 3.31,-0.61 4.84,-0.26 9.74,-0.2 14.47,-0.24 2.79,-0.02 14.41,0.2 15.24,-4.03 5.7,-0.06 11.41,-0.17 17.11,-0.35 0.16,0.46 0.33,0.92 0.48,1.38zm-60.95 6.99l-0.61 0.07c-0.66,0.11 -0.59,1.17 0.03,1.29 0.8,0.14 1.69,0.17 2.52,0.04 1.24,0.45 2.66,0.56 3.93,0.73 1.02,0.14 2.05,0.26 3.07,0.41l0.29 0.05c-1.08,0.21 -2.21,0.29 -3.25,0.46 -2.24,0.36 -4.28,0.99 -6.44,1.62 -2.42,0.7 -4.81,-0.37 -7.16,-0.83 -1.75,-0.34 -3.59,-0.33 -5.36,-0.35 -1.91,-0.03 -3.82,0.04 -5.73,-0.03 -0.38,-0 -0.76,-0.04 -1.13,-0.09l0.06 -0.1c1.83,-3.98 -6.3,-5.31 -10.69,-5.75 -2.16,-0.43 -4.33,-0.65 -6.51,-0.81 -2.57,-0.38 -5.12,-0.55 -7.36,-0.65l-0.36 0.06 -0.33 -0.03c-0.97,-0.11 -3.93,-0.26 -2,-1.1 1.03,-0.44 2.09,-0.8 3.13,-1.21 0.63,-0.25 2.69,-0.99 2.71,-2.01 2.45,-0.03 4.91,-0.05 7.37,-0.05 10.5,0.02 21,0.2 31.51,0.21 14.22,0.01 28.44,0.19 42.67,0.08 -2.06,1.33 -6.29,1.11 -8.12,1.19 -2.4,0.12 -4.81,0.13 -7.22,0.21 -6.77,0.24 -14.33,-0.34 -20.86,1.77l-0.5 0.31c-1.02,0.36 -1.97,0.82 -2.81,1.4 -1.28,0.87 -1.47,2.11 -0.84,3.1zm55.16 47.96c-0.91,-2.17 -3.04,-3.86 -4.89,-5.14 -0.62,-0.43 -1.33,0.56 -0.77,1.06 1.94,1.74 3.7,3.44 4.55,5.9 -0.28,0.42 -0.55,0.85 -0.83,1.26 -0.36,-1.1 -1.1,-2.14 -1.83,-2.91 -0.52,-0.55 -1.39,0.2 -1.01,0.82 0.76,1.26 1.43,2.44 1.59,3.89 -0.53,0.73 -1.07,1.45 -1.62,2.16 -0.07,-3.15 -1.96,-6.31 -4.47,-8.04 -0.62,-0.43 -1.28,0.54 -0.76,1.04 2.47,2.37 3.79,5.39 3.72,8.81l0.01 0.05c-0.43,0.51 -0.87,1.01 -1.32,1.52l-0.16 -0.3c-0.75,-1.15 -2.7,-1.49 -3.86,-2.05 -2.17,-1.05 -0.27,-3.77 0.06,-5.47 0.35,-1.84 -0.82,-3.08 -2.34,-3.82 -0.78,-0.38 -1.34,0.69 -0.64,1.16 3.4,2.32 -1.19,5.58 0.38,8.59 0.85,1.64 4.46,1.66 4.79,3.2l0.23 0.36c-12.07,12.57 -29.03,20.42 -47.74,20.42l-0.37 -0c-14.03,-0.08 -27.36,-4.49 -38.49,-12.58 0.16,-0.3 0.29,-0.62 0.48,-0.91 0.28,-0.43 0.68,-0.76 1.02,-1.14 0.43,-0.47 0.1,-1.18 -0.53,-1.2 -0.79,-0.02 -1.5,0.48 -1.98,1.08 -0.22,0.27 -0.44,0.6 -0.6,0.96 -2.31,-1.79 -4.53,-3.75 -6.62,-5.87 -1.87,-1.89 -3.61,-3.87 -5.22,-5.94 2,-0.15 3.72,-1.67 4.31,-3.78 0.36,-1.27 0.23,-2.73 0.28,-4.03 0.1,-2.68 2.16,-3.59 3.6,-5.52 0.7,-0.94 1.09,-1.81 1.08,-3.01 -0.01,-0.97 -0.51,-1.56 0.2,-2.46 0.68,-0.86 1.69,-1.41 2.62,-1.92 2.95,-1.62 8.49,-3.18 11.58,-1.17 0.88,0.57 1.73,-0.73 1.05,-1.43 -4.13,-4.26 -14.76,-0.18 -17.71,3.9 -1.16,1.6 0.18,3.41 -1.06,5.08 -1.16,1.56 -2.65,2.2 -3.39,4.11 -0.56,1.43 -0.4,3.18 -0.46,4.68 -0.09,2.59 -2.05,2.37 -3.84,3.21 -0.9,-1.26 -1.75,-2.55 -2.55,-3.86 0.37,-1.14 0.78,-2.03 1.63,-3.04 0.95,-1.12 2.1,-2.12 3.33,-2.92 0.74,-0.48 0.06,-1.54 -0.7,-1.15 -1.54,0.79 -2.91,1.93 -4.09,3.18 -0.44,0.47 -0.98,1.14 -1.37,1.86 -0.61,-1.08 -1.18,-2.17 -1.72,-3.28 1.11,-1.54 2.11,-3.07 3.51,-4.4 1.93,-1.83 4.36,-3.05 6.77,-4.09 0.77,-0.34 0.47,-1.55 -0.39,-1.29 -4.13,1.23 -8.61,4 -10.75,7.95 -0.41,-0.91 -0.8,-1.84 -1.18,-2.77 0.34,-4.27 7.58,-5.8 10.84,-6.69 3.71,-1.01 7.51,-1.67 11.23,-2.66 2.41,-0.64 7.36,-2.12 5.63,-5.64 -0.38,-0.79 -0.9,-1.38 -1.54,-1.97l-0.13 -0.11c2.04,-0.18 4.1,-0.25 6.07,-0.87 3.04,-0.95 2.44,-4.05 -0.22,-5.01 -3.52,-1.27 4.34,-3.21 5.59,-3.43 2.73,-0.47 5.45,-0.93 8.07,-1.85 2.05,-0.71 3.88,-3.41 0.83,-4.31 -1,-0.3 -6.05,-0.1 -8.79,-0.36 1.86,-1.15 2.79,-3.11 0.39,-4.92 -0.24,-0.18 -0.49,-0.35 -0.74,-0.51 2.79,0.7 5.11,1.62 4.07,2.59 -0.27,0.25 -0.32,0.65 -0.23,0.98 0.35,1.4 2.17,1.5 3.34,1.62 3,0.33 6.05,0.13 9.05,0.33 3.12,0.21 6.13,1.87 9.3,1.19 3.17,-0.68 6.17,-1.58 9.4,-2.11 1.35,-0.23 3.95,-0.37 4.49,-1.98 0.62,-1.85 -1.82,-2.37 -3.08,-2.62 -1.49,-0.3 -3.02,-0.42 -4.54,-0.61 -0.66,-0.08 -1.33,-0.2 -1.99,-0.33 -0.48,-0.1 -0.94,-0.24 -1.39,-0.43l-0.16 -0.12c0.68,-0.73 1.71,-1.2 2.89,-1.52l0.08 0.61c0.46,1.52 2.53,1.59 3.8,1.73 2.02,0.21 4.03,0.22 6.04,0.53 0.79,0.12 2.45,0.28 2.99,0.99 0.12,0.15 -0.98,1.5 -1.14,1.74 -0.79,1.17 -0.38,2.43 0.59,3.35 0.7,0.66 1.74,0.97 2.57,1.4 -0.34,-0.17 -2.62,1.42 -3.09,1.66 -2.13,1.08 -4.03,2.4 -3.74,5.05 0.35,3.3 6.94,4.23 9.2,5.66 2.72,1.72 -3.79,1.88 -4.7,2.31 -1.82,0.87 -2.87,3.11 -1.39,4.82 1.74,2 4.76,2.49 7.17,3.23 2.76,0.84 5.59,1.42 8.36,2.23 6.62,1.96 13.17,4.51 19.01,8.23 2.05,1.3 4.02,2.89 5.9,4.44 -0.48,0.9 -0.98,1.79 -1.5,2.66zm-120.29 -8.68c3.33,8.43 8.37,16.18 14.93,22.83 12.79,12.93 29.85,20.1 48.03,20.21l0.38 0c18.1,0 35.15,-7.03 48,-19.8 12.85,-12.78 19.98,-29.79 20.08,-47.91 0.21,-37.54 -30.17,-68.26 -67.71,-68.46l-0.39 -0c-29.01,0 -53.91,18.34 -63.67,44.04 -0.27,0.19 -0.38,0.53 -0.32,0.85 -2.6,7.13 -4.04,14.82 -4.09,22.82 -0.05,8.76 1.55,17.27 4.65,25.2l0.09 0.24z"/>
  <path class="fil0" d="M54.02 67.02c1.61,0.88 3.77,0.71 5.53,0.61 4.07,-0.21 10.75,-0.75 13.97,-3.71l0.26 -0.18c1.75,-2.33 -4.63,-2.22 -5.45,-2.24 -4.24,-0.13 -9.83,-0.65 -13.55,1.72 -0.68,0.44 -0.05,1.47 0.66,1.07 2.84,-1.6 6.54,-1.31 9.71,-1.29 1.5,0.01 3,0.05 4.5,0.13 0.67,0.03 1.35,0.09 2.02,0.17l0.16 0.03c-2.81,1.44 -6.12,1.98 -9.19,2.38 -1.83,0.25 -6.95,1.26 -7.97,-0.61 -0.16,-0.31 -0.66,-0.44 -0.94,-0.23 -0.8,0.6 -0.55,1.7 0.29,2.16z"/>
  <path class="fil0" d="M60.59 71.27l0.19 0.06 0.26 0.13 0.02 0.01 0.04 0.04 0.1 0.11 0.07 0.11 0.01 0.04 0.01 0.02 0 0.05 -0.01 0.04 -0.01 0.01 -0 0.01 -0.08 0.08 -0.18 0.11 -0.08 0.05 -0.05 0.01 -0.34 0.1 -0.09 0.01 -0.17 0.02 -0.46 0.04c-0.38,0.02 -0.76,-0.01 -1.14,-0.05 -0.26,-0.02 -0.52,-0.07 -0.77,-0.13l-0.36 -0.11c0.21,-0.25 0.55,-0.43 0.81,-0.59l0.06 -0.06 0.02 0c0.53,-0.13 1.08,-0.18 1.62,-0.17l0.25 0.02 0.27 0.05zm-2.73 -1.2l-0.28 0.34c-0.73,0.36 -1.65,0.9 -1.63,1.82 0.02,0.86 0.97,1.29 1.67,1.5 1.58,0.48 3.58,0.71 4.93,-0.41 1.04,-0.86 0.78,-2.45 -0.18,-3.24 -1.33,-1.11 -3.12,-0.86 -4.51,-0.02z"/>
  <path class="fil0" d="M50.55 85.2c3.73,4.11 11.45,3.96 16.5,4.17 2.41,0.1 10.54,1.05 8.27,-3.75 -0.94,-1.99 -4.59,-2.7 -6.41,-3.47 -3.9,-1.65 -8.11,-2.32 -12.13,-3.59 -0.87,-0.27 -1.35,1.04 -0.57,1.46 1.27,0.69 2.57,1.22 3.89,1.7 -0.34,0.18 -0.56,0.51 -0.44,0.92 0.11,0.38 0.57,0.66 0.96,0.51 0.66,-0.26 1.36,-0.43 2.06,-0.56 1.77,0.57 3.55,1.12 5.3,1.8 -0.54,0.14 -1.07,0.31 -1.59,0.48 -0.69,0.21 -0.54,1.37 0.21,1.28 1.52,-0.17 3,-0.5 4.53,-0.49l0.03 -0c0.39,0.16 0.79,0.34 1.17,0.54 2.37,1.23 -2.38,0.89 -3.07,0.85 -3.13,-0.17 -6.25,-0.26 -9.36,-0.68 -0.81,-0.11 -1.61,-0.26 -2.41,-0.44 0.43,-0.35 0.15,-1.22 -0.49,-1.23 -0.84,-0.01 -1.87,0.03 -2.77,0.28 -0.67,-0.26 -1.28,-0.58 -1.91,-0.95 -1.99,-1.07 -2.01,-2.49 -0.08,-4.28 0.76,-0.22 1.53,-0.32 2.32,-0.31 0.79,-0.04 1.01,-1.35 0.16,-1.45 -4.77,-0.54 -7.56,3.44 -4.16,7.2z"/>
  <path class="fil0" d="M86.24 111.88c1.2,-2.25 2.55,-2.87 4.94,-3.58 1.47,-0.43 2.84,-1.06 4.13,-1.87 3.66,-2.31 6.47,-7.42 1.15,-9.6 -1.28,-0.52 -3.41,0.07 -4.42,-0.68 -1.2,-0.9 -1.95,-1.66 -3.4,-2.3 -3.47,-1.54 -7.2,-1.17 -10.88,-1 -3.94,0.19 -7.64,-1.47 -11.61,-1.51 -4.1,-0.03 -10.08,1.05 -13.6,-1.6 -1.96,-1.48 -3.43,-3.94 -6.25,-3.37 -2.16,0.44 -2.41,2.01 -2.03,3.93 0.3,1.49 -5.36,3.31 -6.78,4.31 -1.17,0.82 -2.5,1.89 -3.95,2.11 -1.91,0.29 1.09,-2.08 1.36,-2.24 2.42,-1.46 6.97,-2.96 6.91,-6.42 -0.02,-1.19 -1.84,-1.14 -1.84,0.05l-0.02 0.3c-0.53,-0.22 -1.05,-0.31 -1.62,-0.26 -0.29,0.03 -0.55,0.2 -0.62,0.5 -0.08,0.31 0.12,0.76 0.48,0.79 0.42,0.05 0.83,0.14 1.25,0.2 -0.7,0.89 -1.97,1.53 -3.35,2.13l-0.33 -0.11c-0.51,-0.03 -1.03,-0.01 -1.55,-0.01 -0.66,0.01 -0.78,0.78 -0.42,1.14 -1.46,0.7 -2.72,1.52 -3.16,2.74 -0.49,1.37 0.28,3.01 1.67,3.5 2.35,0.83 4.73,-0.93 6.55,-2.21 2.05,-1.44 4.81,-1.76 6.68,-3.33 0.68,-0.57 1.27,-1.28 1.33,-2.21 0.03,-0.43 0,-0.81 -0.08,-1.23 -0.36,-1.91 1.19,-1.04 2.23,-0.1 2.63,2.38 4.44,3.4 8.06,3.89 4.19,0.57 8.42,-0.07 12.57,0.58 1.85,0.29 3.55,1.08 5.43,1.25 1.84,0.17 3.65,0.09 5.49,0.01 2.11,-0.09 4.09,0.01 6.13,0.6 1.99,0.57 2.98,2.15 4.79,2.89 1.65,0.67 3.37,-0.29 4.94,0.99 1.03,0.84 -1.65,3.03 -2.15,3.42 -2.56,2.01 -6.31,1.83 -8.7,4.01 -1.29,1.18 -1.47,2.57 -2.52,3.89 -1.04,1.31 -2.45,1.94 -4.03,2.31 -3.38,0.78 -7.32,-0.51 -10.52,-1.51 -6.73,-2.11 -12.71,-3.74 -19.88,-3.28 -3.57,0.23 -7.07,1.04 -10.32,2.54 -1.35,0.62 -0.3,2.94 1.07,2.37 7.32,-3 15.81,-3.08 23.35,-0.79 5.7,1.73 11.69,4.43 17.75,3.11 2.41,-0.52 4.58,-2.2 5.73,-4.36z"/>
  <path class="fil0" d="M105.02 99.92c1.36,4.66 -5.44,7.49 -8.73,9.1 -2.86,1.39 -6.43,4.24 -5.55,7.82 0.19,0.72 1.33,0.7 1.48,-0.04 1.1,-5.73 6.69,-6.32 10.81,-9.29 2.53,-1.83 5.11,-5.02 3.21,-8.14 -0.4,-0.66 -1.43,-0.18 -1.22,0.55z"/>
  <path class="fil0" d="M117.19 98.43c-2.44,-2.01 -5.21,-3.74 -8.33,-4.46 -0.8,-0.18 -1.11,1.03 -0.31,1.24 2.89,0.74 5.39,2.37 7.74,4.16 0.65,0.5 1.55,-0.4 0.9,-0.94z"/>
  <path class="fil0" d="M82.68 80.55c1.13,4.14 6.84,6.09 10.56,7.03 0.9,0.23 1.16,-1.05 0.34,-1.36 -3.13,-1.2 -8.39,-2.49 -9.63,-6.05 -0.28,-0.8 -1.49,-0.44 -1.26,0.38z"/>
  <path class="fil0" d="M78.45 89.12c1.31,-2.15 0.82,-5.39 -1.65,-6.46 -0.75,-0.33 -1.37,0.74 -0.62,1.13 1.72,0.9 1.9,3.1 1.14,4.71 -0.36,0.76 0.7,1.35 1.14,0.63z"/>
  <path class="fil0" d="M80.24 89.89c-0.66,0.33 -0.14,1.48 0.53,1.18 2.48,-1.12 4.73,-0.33 7.23,0.28 0.83,0.2 1.11,-1.01 0.31,-1.27 -2.8,-0.92 -5.29,-1.57 -8.07,-0.19z"/>
  <path class="fil0" d="M83.67 86.21c0.67,0.34 1.44,-0.6 0.8,-1.09 -3.15,-2.39 -3.82,-7 -0.38,-9.53 0.68,-0.5 0.07,-1.51 -0.69,-1.11 -4.47,2.38 -4.13,9.49 0.26,11.74z"/>
  <path class="fil0" d="M96.29 88.35c5.11,2.7 11.21,2.7 16.34,5.34 0.76,0.4 1.36,-0.7 0.64,-1.16 -4.93,-3.12 -11.16,-3.3 -16.52,-5.38 -0.69,-0.27 -1.1,0.86 -0.46,1.2z"/>
  <path class="fil0" d="M91.77 91.36c-0.62,-0.44 -1.27,0.54 -0.76,1.04 1.36,1.34 3.11,1.92 4.92,2.4 1.79,0.48 5.21,0.73 5.5,3.04 0.1,0.84 1.32,0.84 1.33,-0.03 0,-2.05 -1.53,-3.06 -3.28,-3.72 -2.57,-0.97 -5.41,-1.09 -7.71,-2.73z"/>
  <path class="fil0" d="M59.13 76.55c1.76,0.27 3.54,0.27 5.31,0.25 2.05,-0.03 3.41,1.72 5.12,2.61 1.17,0.61 2.49,0.7 3.78,0.72 0.79,0.01 0.91,-1.18 0.15,-1.36 -2.6,-0.61 -4.38,-1.86 -6.67,-3.08 -1.27,-0.67 -2.93,-0.42 -4.29,-0.43 -2.03,-0.02 -8.95,-0.19 -8.29,-3.39 0.17,-0.8 -1.02,-1.11 -1.24,-0.31 -0.96,3.52 3.56,4.59 6.12,4.99z"/>
  <path class="fil0" d="M44.83 74.75c2,-1.97 -0.07,-2.97 -1.33,-4.54 -1.2,-1.48 5.74,-2.64 6.45,-2.83 0.69,-0.18 0.53,-1.35 -0.2,-1.26 -2.22,0.27 -10.18,1.41 -7.2,5.23 0.3,0.39 0.68,0.67 1.06,0.98 1.61,1.29 -1.81,2.32 -2.41,2.4 -1.07,0.15 -2.32,0.19 -3.29,0.71 -0.76,0.41 -1.14,0.88 -1.17,1.75 -0.06,1.37 2.36,1.45 1.11,2.87 -0.48,0.55 0.2,1.5 0.83,1.03 1.39,-1.04 1.82,-2.46 0.22,-3.51 -1.4,-0.91 2.56,-1.43 2.91,-1.49 0.98,-0.17 2.31,-0.62 3.03,-1.33z"/>
  <path class="fil0" d="M46.42 77.48c1.03,-0.34 2.06,-0.71 2.95,-1.34 2.05,-1.45 -1.26,-3.76 -0.07,-4.76 0.57,-0.48 -0.2,-1.35 -0.8,-0.99 -0.93,0.56 -1.22,1.2 -0.88,2.26 0.19,0.61 1.46,1.82 0.57,2.43 -0.8,0.54 -1.79,0.81 -2.7,1.12 -0.89,0.31 -2.21,0.88 -2.47,1.89 -0.43,1.61 0.47,2.65 1.22,4.02 0.39,0.71 1.43,0.17 1.24,-0.56 -0.13,-0.53 -0.21,-0.68 -0.48,-1.15 -0.89,-1.58 0.05,-2.48 1.41,-2.93z"/>
  <path class="fil0" d="M70.31 66.38c-1.73,0.08 -3.52,0.72 -4.38,1.97 -1.91,2.77 0.17,5.48 3.03,6.2 0.58,0.15 1.12,-0.54 0.77,-1.06 -0.49,-0.72 -1.15,-1.17 -1.91,-1.59 -0.53,-0.3 -0.73,-0.75 -0.73,-1.26 0.61,0.01 1.23,-0.09 1.85,-0.02 0.31,0.03 0.59,-0.04 0.75,-0.33 0.16,-0.29 0.07,-0.77 -0.27,-0.92 -0.49,-0.21 -1.15,-0.36 -1.79,-0.35 0.94,-1.24 3.46,-1.1 4.93,-1.04l0.12 0.07c1.24,0.42 11.28,1.81 7.38,4.87 -2.52,1.98 -6.55,2.65 -9.43,1.17 -0.63,-0.32 -1.3,0.53 -0.74,1.01 3.17,2.76 8.93,1.12 11.78,-1.29 1.43,-1.2 1.49,-2.98 0.36,-4.37 -0.56,-0.69 -1.42,-1.14 -2.26,-1.48 -0.46,-2.12 3.84,-4.02 5.16,-4.93 0.69,-0.48 0.06,-1.42 -0.67,-1.09 -1.78,0.81 -5.79,3.04 -5.93,5.51 -1.4,-0.45 -2.87,-0.77 -4.33,-0.82 0.66,-0.31 1.3,-0.64 1.92,-0.98 1.01,-0.56 1.71,-1.32 2.25,-2.33 1,-1.86 2.87,-2.03 4.53,-2.91 0.66,-0.34 0.16,-1.43 -0.53,-1.18 -2,0.7 -3.64,1.02 -4.92,2.77 -1.27,1.74 -2.13,2.44 -4.06,3.3 -0.94,0.42 -1.91,0.74 -2.89,1.05z"/>
  <path class="fil0" d="M39.74 103.29c0.73,-0.52 1.57,-0.68 2.44,-0.75 0.85,-0.07 0.81,-1.26 -0.03,-1.31 -1.17,-0.07 -2.37,0.22 -3.25,1.02 -0.57,0.51 0.22,1.48 0.84,1.04z"/>
  <path class="fil0" d="M44.22 104.81c0.46,-0.19 0.95,-0.23 1.44,-0.33 0.64,-0.13 0.6,-1.17 -0.03,-1.29 -0.69,-0.12 -1.35,0.04 -1.96,0.37 -0.68,0.37 -0.17,1.53 0.56,1.24z"/>
  <path class="fil0" d="M49.7 104.97c-0.26,0.08 -0.55,0.01 -0.82,0.1 -0.65,0.21 -0.58,1.08 0.03,1.28 0.44,0.14 0.93,0.04 1.33,-0.18 0.66,-0.37 0.17,-1.39 -0.53,-1.19z"/>
  <path class="fil0" d="M50.6 97.94c-1.24,0.07 -2.34,0.43 -3.42,1.02 -0.64,0.36 -0.15,1.49 0.53,1.19 0.94,-0.4 1.91,-0.75 2.92,-0.9 0.81,-0.12 0.84,-1.37 -0.03,-1.31z"/>
  <path class="fil0" d="M54.08 103.17c-0.24,0.61 0.55,0.97 1,0.73 0.64,-0.33 1.21,-0.61 1.93,-0.7 0.9,-0.11 0.86,-1.31 -0.03,-1.39 -1.13,-0.11 -2.45,0.2 -2.9,1.36z"/>
  <path class="fil0" d="M62.3 106.02c0.68,0.12 1.33,0.09 2,-0.11 0.7,-0.21 0.54,-1.35 -0.21,-1.29 -0.61,0.05 -1.21,0.04 -1.82,0.14 -0.64,0.11 -0.58,1.15 0.03,1.26z"/>
  <path class="fil0" d="M55.89 100.48c0.38,-0.19 0.77,-0.35 1.19,-0.46 0.33,-0.08 0.52,-0.48 0.43,-0.79 -0.11,-0.35 -0.45,-0.49 -0.79,-0.42 -0.54,0.11 -1.01,0.33 -1.49,0.58 -0.31,0.16 -0.38,0.6 -0.21,0.88 0.2,0.32 0.57,0.36 0.89,0.21z"/>
  <path class="fil0" d="M65.83 98.61c-0.7,-0.12 -1.41,0.16 -1.89,0.66 -0.21,0.21 -0.24,0.55 -0.09,0.8 0.17,0.27 0.63,0.44 0.91,0.21 0.33,-0.27 0.71,-0.2 1.1,-0.28 0.7,-0.14 0.66,-1.29 -0.03,-1.4z"/>
  <path class="fil0" d="M70.19 103.93c-0.77,0.17 -0.49,1.26 0.21,1.3 0.98,0.05 1.94,0.26 2.9,0.44 0.76,0.15 1.29,-0.97 0.52,-1.32 -1.15,-0.53 -2.39,-0.69 -3.63,-0.42z"/>
  <path class="fil0" d="M55.47 106.51c-0.78,0.32 -0.46,1.44 0.38,1.26 0.83,-0.18 1.69,-0.18 2.53,-0.08 0.84,0.1 1.18,-1.05 0.33,-1.3 -1.07,-0.31 -2.2,-0.3 -3.24,0.12z"/>
  <path class="fil0" d="M72.02 110.5c-0.86,0.06 -0.81,1.27 0.03,1.32l0.31 0.02c0.89,-0.07 0.83,-1.29 -0.03,-1.36l-0.31 0.02z"/>
  <path class="fil0" d="M78.85 104.1c1.17,-0.16 2.32,-0.28 3.5,-0.2 0.78,0.06 0.86,-1.14 0.15,-1.33 -1.3,-0.34 -2.84,-0.47 -4.02,0.29 -0.52,0.33 -0.32,1.33 0.37,1.23z"/>
  <path class="fil0" d="M85.51 105.5c0.47,-0.15 0.97,-0.09 1.44,-0.19 0.66,-0.14 0.59,-1.16 -0.03,-1.29 -0.62,-0.13 -1.22,-0.02 -1.79,0.23 -0.33,0.14 -0.55,0.45 -0.44,0.82 0.1,0.34 0.48,0.55 0.82,0.44z"/>
  <path class="fil0" d="M88.29 101.18c0.54,-0.15 1.12,-0.15 1.68,-0.19 0.85,-0.06 0.79,-1.24 -0.04,-1.3 -0.69,-0.05 -1.36,-0.01 -2.02,0.23 -0.79,0.29 -0.44,1.47 0.38,1.26z"/>
  <path class="fil0" d="M77.11 109.43c0.01,0.35 0.33,0.72 0.71,0.67 0.89,-0.11 1.77,-0.27 2.65,-0.45 0.76,-0.16 0.54,-1.38 -0.22,-1.34 -0.84,0.06 -1.64,0.28 -2.47,0.4 -0.37,0.06 -0.69,0.3 -0.68,0.71z"/>
  <path class="fil0" d="M72.84 100.36c0.37,-0.14 0.76,-0.23 1.13,-0.39 0.38,-0.16 0.75,-0.32 1.14,-0.42 0.74,-0.2 0.54,-1.34 -0.21,-1.32 -0.46,0.02 -0.95,0.11 -1.38,0.28 -0.45,0.17 -0.8,0.45 -1.22,0.66 -0.67,0.34 -0.16,1.45 0.54,1.2z"/>
  <path class="fil0" d="M82.15 100.72c0.78,0.08 0.88,-1.17 0.15,-1.35 -0.31,-0.07 -0.62,-0.11 -0.95,-0.1 -0.3,0.01 -0.58,0.09 -0.88,0.1 -0.86,0.05 -0.82,1.31 0.03,1.34 0.54,0.01 1.11,-0.04 1.65,0.01z"/>
  <path class="fil0" d="M49.64 94.22c-0.43,-0.05 -0.85,-0.1 -1.29,-0.13 -0.51,-0.03 -0.97,0.06 -1.47,0.13 -0.3,0.04 -0.55,0.19 -0.62,0.5 -0.08,0.32 0.12,0.75 0.48,0.8 0.95,0.13 1.79,0.16 2.75,0.04 0.31,-0.04 0.57,-0.2 0.64,-0.52 0.08,-0.33 -0.12,-0.78 -0.5,-0.83z"/>
  <path class="fil0" d="M43.56 96.2c-0.6,-0.13 -1.21,-0.18 -1.82,-0.09 -0.39,0.06 -0.72,0.31 -0.71,0.75 0.01,0.5 0.48,0.78 0.94,0.68 0.47,-0.1 0.97,-0.08 1.45,-0.04 0.75,0.07 0.85,-1.14 0.14,-1.3z"/>
  <path class="fil0" d="M33.32 103.1c-0.6,0.1 -1.14,0.25 -1.7,0.49 -0.26,0.12 -0.36,0.5 -0.28,0.75 0.1,0.34 0.48,0.55 0.82,0.44 0.51,-0.16 1.03,-0.27 1.55,-0.4 0.36,-0.09 0.55,-0.5 0.45,-0.83 -0.12,-0.39 -0.48,-0.51 -0.84,-0.45z"/>
  <path class="fil0" d="M35.2 109.76c0.46,-0.28 1.03,-0.35 1.48,-0.66 0.27,-0.18 0.41,-0.51 0.32,-0.84 -0.13,-0.42 -0.52,-0.56 -0.91,-0.49 -0.66,0.11 -1.22,0.55 -1.71,0.97 -0.58,0.5 0.2,1.39 0.82,1.01z"/>
  <path class="fil0" d="M42.36 106.17c-0.58,0.02 -1.07,0.25 -1.57,0.52 -0.65,0.35 -0.15,1.49 0.54,1.19 0.46,-0.2 0.94,-0.25 1.39,-0.48 0.61,-0.3 0.26,-1.24 -0.36,-1.23z"/>
  <path class="fil0" d="M23.3 110.24c-0.55,0.06 -1.11,0.27 -1.54,0.63 -0.53,0.43 -0.02,1.21 0.54,1.23 0.49,0.01 0.99,-0.28 1.39,-0.54 0.56,-0.36 0.34,-1.38 -0.39,-1.32z"/>
  <path class="fil0" d="M27.66 105.01c-0.86,-0.58 -1.76,-0.24 -2.68,-0.05 -0.73,0.16 -0.53,1.36 0.21,1.29 0.65,-0.06 1.33,-0.09 1.99,-0.01 0.75,0.1 1.14,-0.8 0.49,-1.24z"/>
  <path class="fil0" d="M24.98 100.58c0.46,-0.07 0.97,-0.15 1.44,-0.1 0.28,0.02 0.55,-0.24 0.61,-0.49 0.09,-0.36 -0.14,-0.68 -0.47,-0.79 -0.59,-0.2 -1.22,-0.09 -1.79,0.11 -0.28,0.1 -0.47,0.34 -0.47,0.64 0.01,0.32 0.32,0.69 0.67,0.64z"/>
  <path class="fil0" d="M29.34 101.49c0.35,0.07 0.72,0.12 1.07,0.01 0.66,-0.21 0.59,-1.09 -0.03,-1.29 -0.35,-0.12 -0.72,-0.05 -1.07,0.02 -0.64,0.13 -0.58,1.14 0.03,1.26z"/>
  <path class="fil0" d="M27.66 92.1c0.39,-0.09 0.81,-0.1 1.21,-0.17 0.66,-0.12 0.6,-1.19 -0.03,-1.3 -0.55,-0.1 -1.07,-0.08 -1.61,0.04 -0.4,0.09 -0.61,0.57 -0.5,0.94 0.12,0.41 0.54,0.59 0.94,0.5z"/>
  <path class="fil0" d="M34.12 88.72c0.54,-0.18 1.07,-0.16 1.6,0.01 0.75,0.24 1.09,-0.84 0.48,-1.22 -0.82,-0.52 -1.8,-0.48 -2.63,0.01 -0.64,0.39 -0.18,1.45 0.54,1.2z"/>
  <path class="fil0" d="M65.77 111.01c0.76,0.08 1.55,-0.26 2.24,-0.54 0.82,-0.34 0.47,-1.45 -0.39,-1.31 -0.68,0.12 -1.43,0.25 -2.06,0.52 -0.72,0.31 -0.56,1.24 0.21,1.33z"/>
  <path class="fil0" d="M77.41 113.56c0.24,0.02 0.48,0.03 0.72,0 0.29,-0.05 0.54,-0.19 0.61,-0.49 0.08,-0.32 -0.13,-0.73 -0.47,-0.78 -0.31,-0.05 -0.59,-0.04 -0.89,-0.02 -0.85,0.07 -0.79,1.22 0.03,1.29z"/>
  <path class="fil0" d="M61.21 95.47c-0.55,0.07 -1.1,0.06 -1.65,0.11 -0.85,0.07 -0.79,1.23 0.04,1.3 0.61,0.05 1.21,0.03 1.82,-0.13 0.71,-0.18 0.53,-1.37 -0.2,-1.28z"/>
  <path class="fil0" d="M61.51 85.92c0.35,-0.06 0.72,-0.05 1.06,-0.07 0.84,-0.07 0.78,-1.22 -0.03,-1.28 -0.48,-0.04 -0.94,0 -1.4,0.13 -0.33,0.1 -0.53,0.46 -0.43,0.79 0.11,0.36 0.45,0.48 0.79,0.43z"/>
  <path class="fil0" d="M53.9 81.87c-0.3,0.03 -0.55,0.19 -0.62,0.5 -0.08,0.31 0.12,0.76 0.48,0.8 0.35,0.04 0.72,0.05 1.03,0.1 0.29,0.05 0.58,-0.05 0.73,-0.32 0.16,-0.29 0.07,-0.75 -0.26,-0.89 -0.45,-0.2 -0.88,-0.24 -1.36,-0.18z"/>
  <path class="fil0" d="M71.85 73.83c0.58,0.02 1.17,0.04 1.75,0.08 0.77,0.05 0.81,-1.08 0.14,-1.29 -0.63,-0.19 -1.28,-0.17 -1.93,-0.15 -0.88,0.04 -0.83,1.32 0.03,1.35z"/>
  <path class="fil0" d="M78.13 72.85c0.72,-0.02 0.88,-1.14 0.14,-1.28 -0.69,-0.13 -1.45,-0.15 -2.14,-0.08 -0.7,0.08 -0.89,1.1 -0.14,1.28 0.68,0.16 1.44,0.1 2.14,0.08z"/>
  <path class="fil0" d="M73.62 70.54c0.22,-0.09 0.39,-0.23 0.45,-0.48 0.07,-0.26 -0.05,-0.63 -0.32,-0.74 -0.38,-0.15 -0.66,-0.12 -1.06,-0.07 -0.3,0.04 -0.54,0.19 -0.62,0.49 -0.08,0.31 0.13,0.74 0.48,0.79 0.35,0.05 0.72,0.15 1.07,0z"/>
  <path class="fil0" d="M89.83 66.88c-0.44,-0.08 -0.89,0.02 -1.32,0.06 -0.85,0.08 -0.8,1.23 0.03,1.3 0.45,0.04 0.88,0.12 1.33,0.05 0.71,-0.13 0.65,-1.29 -0.03,-1.41z"/>
  <path class="fil0" d="M95.68 65.92c-0.68,-0.14 -1.34,-0.16 -1.99,0.12 -0.33,0.14 -0.55,0.45 -0.44,0.82 0.1,0.33 0.47,0.54 0.81,0.43 0.47,-0.15 0.98,-0.12 1.47,-0.07 0.75,0.07 0.86,-1.14 0.14,-1.3z"/>
  <path class="fil0" d="M94.99 59.31c-0.75,0.12 -0.52,1.33 0.21,1.3 1.13,-0.06 2.27,-0.22 3.4,-0.11 0.75,0.07 0.86,-1.14 0.14,-1.3 -1.28,-0.27 -2.48,-0.1 -3.75,0.11z"/>
  <path class="fil0" d="M103.74 60.74c-0.82,-0.09 -1.56,-0.05 -2.33,0.24 -0.81,0.3 -0.44,1.39 0.38,1.26 0.65,-0.11 1.33,-0.1 1.99,-0.17 0.87,-0.09 0.81,-1.25 -0.04,-1.33z"/>
  <path class="fil0" d="M108.96 60.17c-0.3,-0.04 -0.59,-0.04 -0.89,-0.03 -0.85,0.05 -0.79,1.25 0.03,1.3 0.24,0.01 0.48,0.03 0.72,-0 0.29,-0.04 0.54,-0.19 0.61,-0.49 0.08,-0.31 -0.12,-0.74 -0.47,-0.78z"/>
  <path class="fil0" d="M106.97 65.04l0.41 -0.01c0.82,-0.01 0.78,-1.25 -0.03,-1.26l-0.41 -0.01c-0.82,-0.01 -0.79,1.29 0.03,1.28z"/>
  <path class="fil0" d="M114.45 60.24l-0.1 0c-0.29,0.04 -0.54,0.19 -0.62,0.5 -0.08,0.3 0.12,0.75 0.48,0.79l0.28 0.02c0.85,-0.04 0.8,-1.27 -0.03,-1.31z"/>
  <path class="fil0" d="M112.63 63.7c0.4,0.01 0.81,0.01 1.2,-0.12 0.78,-0.28 0.44,-1.43 -0.37,-1.24 -0.28,0.07 -0.57,0.07 -0.86,0.08 -0.83,0.02 -0.79,1.27 0.03,1.28z"/>
  <path class="fil0" d="M56.33 54.61c-0.99,-0.26 -2.05,-0.27 -3.06,-0.22 -0.83,0.04 -0.79,1.24 0.03,1.28 0.91,0.04 1.82,0.01 2.72,0.19 0.81,0.16 1.11,-1.04 0.31,-1.25z"/>
  <path class="fil0" d="M66.87 55.42c-0.41,-0 -0.82,0 -1.24,0 -0.82,0 -0.78,1.27 0.03,1.27 0.41,0 0.82,0 1.24,0 0.82,-0.01 0.78,-1.26 -0.03,-1.27z"/>
  <path class="fil0" d="M59.86 51.49c-0.48,-0.03 -0.96,-0.02 -1.44,0.01 -0.84,0.05 -0.79,1.24 0.03,1.29 0.49,0.03 0.96,0.03 1.44,0.01 0.85,-0.04 0.8,-1.27 -0.03,-1.3z"/>
  <path class="fil0" d="M60.69 54.59l-0.61 0c-0.82,0 -0.79,1.27 0.03,1.27l0.62 0c0.82,0 0.78,-1.27 -0.04,-1.27z"/>
  <path class="fil0" d="M64.81 51.71l-0.41 -0.01c-0.83,-0.01 -0.8,1.3 0.03,1.29l0.41 -0.01c0.83,-0.05 0.78,-1.22 -0.03,-1.27z"/>
  <path class="fil0" d="M51.42 52.13c-0.48,-0.01 -0.96,0 -1.44,0 -0.81,0 -0.78,1.26 0.03,1.26 0.48,0 0.96,0.01 1.44,0 0.82,-0.01 0.78,-1.25 -0.03,-1.26z"/>
  <path class="fil0" d="M54.75 49.68l0.62 -0c0.82,-0.02 0.78,-1.25 -0.03,-1.27l-0.62 -0c-0.82,0 -0.79,1.27 0.03,1.27z"/>
  <path class="fil0" d="M47.09 48.37c-0.29,-0.02 -0.57,-0.05 -0.86,-0.07 -0.27,-0.02 -0.5,-0.11 -0.75,-0.15 -0.59,-0.1 -1.16,0.28 -1.15,0.92 0.02,0.66 0.61,0.96 1.19,0.87 0.26,-0.05 0.48,-0.12 0.75,-0.14 0.28,-0.02 0.57,-0.05 0.85,-0.07 0.89,-0.06 0.83,-1.3 -0.03,-1.36z"/>
  <path class="fil0" d="M63.57 48.83c-0.81,0 -0.78,1.27 0.03,1.27 0.81,0 0.78,-1.27 -0.03,-1.27z"/>
  <path class="fil0" d="M36.59 62.82c-0.29,0.04 -0.54,0.19 -0.61,0.49 -0.08,0.32 0.12,0.74 0.47,0.79 0.59,0.08 1.23,0.07 1.82,0.01 0.84,-0.09 0.78,-1.2 -0.03,-1.29 -0.53,-0.05 -1.12,-0.08 -1.65,-0.01z"/>
  <path class="fil0" d="M29.76 65.92c-0.27,-0.05 -0.52,-0.05 -0.79,-0.03 -0.87,0.06 -0.81,1.28 0.03,1.34 0.27,0.02 0.52,0.01 0.79,-0.04 0.65,-0.12 0.58,-1.15 -0.03,-1.27z"/>
  <path class="fil0" d="M32.26 69.24c0.63,-0.16 0.57,-1.1 -0.03,-1.25l-0.58 -0.03c-0.86,0.04 -0.81,1.27 0.03,1.32l0.59 -0.04z"/>
  <path class="fil0" d="M94.52 56.55c-0.58,-0.12 -1.1,-0.09 -1.66,0.09 -0.69,0.23 -0.54,1.31 0.21,1.28 0.5,-0.02 0.98,0.01 1.49,-0.1 0.64,-0.14 0.58,-1.13 -0.03,-1.27z"/>
  <path class="fil0" d="M104.46 57.23c-0.29,-0.09 -0.58,-0.15 -0.88,-0.18 -0.33,-0.04 -0.71,-0.09 -1.03,0.03 -0.44,0.17 -0.7,0.79 -0.27,1.14 0.58,0.48 1.52,0.51 2.21,0.31 0.67,-0.19 0.58,-1.11 -0.03,-1.3z"/>
  <path class="fil0" d="M95.23 54.01c-0.64,0.14 -0.58,1.12 0.03,1.25 0.55,0.12 1.09,0.11 1.64,0.04 0.3,-0.04 0.56,-0.2 0.63,-0.51 0.08,-0.32 -0.13,-0.76 -0.49,-0.81 -0.63,-0.09 -1.2,-0.11 -1.82,0.02z"/>
  <path class="fil0" d="M91.87 54.31l-0.54 -0.07c-0.3,-0.04 -0.58,0.04 -0.74,0.32 -0.13,0.24 -0.11,0.62 0.12,0.8 0.39,0.3 0.72,0.33 1.18,0.23 0.65,-0.12 0.59,-1.15 -0.03,-1.27z"/>
  <path class="fil0" d="M111.43 57.45c-0.59,-0.26 -1.36,-0.32 -1.85,0.18 -0.39,0.4 -0.15,1.01 0.34,1.17 0.41,0.13 0.79,-0.08 1.19,-0.09 0.63,-0.02 0.95,-0.99 0.31,-1.26z"/>
  <path class="fil0" d="M118.06 59.08c-0.4,-0.13 -0.73,-0.05 -1.13,0.02 -0.65,0.12 -0.59,1.17 0.03,1.28l0.18 0.04 0.25 0.03c0.24,0.04 0.47,0 0.7,-0.07 0.66,-0.21 0.59,-1.1 -0.03,-1.3z"/>
  <path class="fil0" d="M117.63 61.44l-0.45 0.05c-0.83,0.01 -0.79,1.28 0.03,1.28 0.27,0 0.54,-0.02 0.79,-0.11 0.77,-0.28 0.43,-1.39 -0.37,-1.21z"/>
  <path class="fil0" d="M122.62 63.03c-0.37,-0.11 -0.73,-0.11 -1.1,-0.08 -0.85,0.07 -0.79,1.23 0.03,1.3 0.25,0.02 0.5,0.04 0.75,0.07 0.84,0.11 1.15,-1.04 0.32,-1.29z"/>
  <path class="fil0" d="M121.52 61.69c0.36,0.06 0.71,-0.1 0.8,-0.48 0.08,-0.34 -0.13,-0.73 -0.48,-0.8l0.01 0.01 -0.31 -0.1c-0.36,-0.04 -0.71,0.1 -0.81,0.49 -0.11,0.45 0.24,0.8 0.67,0.83l0.13 0.05z"/>
  <path class="fil0" d="M128.65 62.16c0.41,0.04 0.82,0.14 1.23,0.16 0.76,0.03 0.81,-1.07 0.14,-1.28 -0.46,-0.14 -0.93,-0.2 -1.41,-0.17 -0.35,0.03 -0.64,0.3 -0.63,0.66 0.01,0.38 0.31,0.6 0.66,0.63z"/>
  <path class="fil0" d="M113.27 65.48c-0.47,-0.08 -0.88,-0.03 -1.34,0.01 -0.86,0.07 -0.8,1.25 0.03,1.32 0.47,0.04 0.87,0.08 1.34,0.01 0.68,-0.11 0.62,-1.23 -0.03,-1.33z"/>
  <path class="fil0" d="M108.07 67.43c-0.57,-0.04 -1.13,0.05 -1.7,0.08 -0.85,0.04 -0.81,1.28 0.03,1.31 0.57,0.02 1.13,-0.02 1.7,-0.08 0.85,-0.08 0.8,-1.24 -0.03,-1.31z"/>
  <path class="fil0" d="M103.59 63.97l-0.31 0c-0.81,0 -0.78,1.26 0.03,1.26l0.31 0c0.81,0 0.78,-1.26 -0.03,-1.26z"/>
  <path class="fil0" d="M99.98 68.76c-0.59,-0.09 -1.2,-0.12 -1.8,-0.09 -0.85,0.05 -0.79,1.24 0.03,1.3 0.54,0.04 1.09,0.16 1.62,0.09 0.3,-0.04 0.55,-0.19 0.62,-0.5 0.08,-0.32 -0.13,-0.74 -0.48,-0.79z"/>
  <path class="fil0" d="M36.41 57.98c0.27,0.01 0.53,0 0.79,-0.11 0.77,-0.31 0.43,-1.35 -0.37,-1.22l-0.45 0.05c-0.83,0.05 -0.78,1.24 0.03,1.28z"/>
  <path class="fil0" d="M29 55.29c0.49,0.02 0.98,-0.04 1.47,-0.08 0.86,-0.06 0.8,-1.26 -0.03,-1.32 -0.55,-0.03 -1.12,-0.09 -1.64,0.11 -0.71,0.26 -0.54,1.25 0.2,1.29z"/>
  <path class="fil0" d="M34.65 55.34c0.35,-0.12 0.69,-0.17 1.06,-0.13 0.73,0.06 0.82,-1.1 0.14,-1.26 -0.53,-0.13 -1.08,-0.05 -1.58,0.16 -0.33,0.13 -0.54,0.44 -0.43,0.8 0.1,0.33 0.47,0.55 0.8,0.43z"/>
  <path class="fil0" d="M25.91 78.22c-0.36,-0.16 -0.72,-0.24 -1.11,-0.24 -0.4,0.01 -0.71,0.14 -1.06,0.32 -0.53,0.26 -0.38,1.18 0.2,1.28 0.63,0.1 1.23,0.16 1.83,-0.1 0.23,-0.1 0.41,-0.24 0.47,-0.49 0.07,-0.28 -0.06,-0.65 -0.33,-0.77z"/>
  <path class="fil0" d="M28.19 79.42c-0.83,0.03 -0.79,1.25 0.03,1.28l0.48 -0.03c0.62,-0.1 0.57,-1.13 -0.03,-1.23l-0.48 -0.02z"/>
  <path class="fil0" d="M27.45 75.38c-0.48,-0.11 -1.01,-0.14 -1.49,-0.12 -0.31,0.01 -0.59,0.23 -0.67,0.53 -0.1,0.39 0.15,0.72 0.51,0.85 0.53,0.19 1.14,0.17 1.68,0.05 0.67,-0.15 0.6,-1.17 -0.03,-1.31z"/>
  <path class="fil0" d="M33.68 71.35c-0.52,-0.02 -1.16,-0.11 -1.66,0.07 -0.69,0.24 -0.62,1.14 0.04,1.37 0.53,0.19 1.31,0.06 1.83,-0.13 0.72,-0.25 0.55,-1.28 -0.21,-1.31z"/>
  <path class="fil0" d="M35.4 64.73c-0.65,-0.25 -1.39,-0.12 -2.05,0.02 -0.73,0.15 -0.52,1.32 0.21,1.28 0.56,-0.03 1.14,0.08 1.7,0.01 0.78,-0.08 0.85,-1.05 0.14,-1.31z"/>
  <path class="fil0" d="M25.74 64.91c-0.55,-0.09 -1.1,0.05 -1.63,0.16 -0.46,0.09 -1.04,0.35 -1.48,0.33 -0.73,-0.03 -0.87,1.17 -0.14,1.29 0.55,0.08 1.09,-0.03 1.63,-0.14 0.47,-0.1 1.03,-0.34 1.48,-0.32 0.75,0.03 0.89,-1.2 0.14,-1.31z"/>
  <path class="fil0" d="M60.78 65.42c0.34,-0.01 0.67,-0.11 1,-0.16 0.66,-0.11 0.6,-1.2 -0.03,-1.31 -0.34,-0.06 -0.66,-0.12 -1.01,-0.15 -0.36,-0.03 -0.71,0.08 -1.05,0.17 -0.65,0.18 -0.59,1.12 0.03,1.29 0.35,0.09 0.69,0.17 1.06,0.16z"/>
  <path class="fil0" d="M66.71 64.72c0.63,-0.14 0.58,-1.12 -0.03,-1.25 -0.38,-0.08 -0.9,-0.11 -1.27,0 -0.65,0.19 -0.58,1.09 0.03,1.27 0.38,0.11 0.89,0.06 1.27,-0.02z"/>
  <path class="fil0" d="M118.27 65.35c-0.26,-0.02 -0.51,-0.01 -0.77,0.01 -0.83,0.04 -0.78,1.22 0.03,1.27 0.26,0.02 0.51,0.02 0.77,0.01 0.84,-0.05 0.78,-1.23 -0.03,-1.28z"/>
  <path class="fil0" d="M128.81 63.91c-0.83,-0.24 -1.86,-0.41 -2.69,-0.13 -0.71,0.24 -0.6,1.13 0.03,1.36l0.33 0.13c0.25,0.08 0.52,0.11 0.78,0.13 0.51,0.04 1.08,0.03 1.58,-0.11 0.71,-0.19 0.62,-1.19 -0.04,-1.38z"/>
  <path class="fil0" d="M123.84 58.3c0.33,0.12 0.61,0.25 0.97,0.29 0.42,0.05 0.85,0.02 1.24,-0.14 0.68,-0.27 0.59,-1.35 -0.21,-1.32 -0.29,0.01 -0.57,-0.01 -0.86,-0.03 -0.26,-0.02 -0.57,-0.03 -0.81,-0.09 -0.35,-0.09 -0.72,0.13 -0.8,0.48 -0.09,0.38 0.15,0.67 0.48,0.8z"/>
  <path class="fil0" d="M106.71 54.44c0.96,0.05 1.84,0.18 2.8,-0.01 0.66,-0.13 0.6,-1.17 -0.03,-1.29 -0.96,-0.19 -1.85,-0.04 -2.8,0 -0.85,0.04 -0.8,1.26 0.03,1.3z"/>
  <path class="fil0" d="M100.63 53.13l0.6 -0.14c0.29,-0.02 0.57,-0.03 0.85,-0.08 0.3,-0.05 0.56,-0.19 0.64,-0.51 0.08,-0.33 -0.13,-0.76 -0.49,-0.82 -0.31,-0.05 -0.61,-0.06 -0.92,-0.09 -0.27,-0.02 -0.46,-0.1 -0.72,-0.16 -0.58,-0.12 -1.16,0.3 -1.15,0.92 0.02,0.64 0.61,0.99 1.19,0.87z"/>
  <path class="fil0" d="M102.2 53.93l-0.15 -0c-0.82,-0.01 -0.78,1.28 0.03,1.26l0.15 -0c0.81,-0.01 0.78,-1.24 -0.03,-1.26z"/>
  <path class="fil0" d="M114.13 55.51c0.31,0 0.62,0.01 0.93,-0.01 0.83,-0.02 0.78,-1.25 -0.03,-1.27 -0.31,-0.01 -0.62,-0.01 -0.93,-0.01 -0.83,0.01 -0.8,1.28 0.03,1.29z"/>
  <path class="fil0" d="M118.92 52.58c0.68,0.03 1.33,0.08 2.01,0 0.29,-0.03 0.54,-0.19 0.62,-0.49 0.08,-0.31 -0.12,-0.75 -0.47,-0.79 -0.74,-0.09 -1.44,-0.04 -2.19,-0.02 -0.84,0.03 -0.8,1.27 0.03,1.3z"/>
  <path class="fil0" d="M120.12 55.29c-0.23,-0.02 -0.47,-0.04 -0.7,-0.05 -0.24,-0.01 -0.45,0.02 -0.69,0.05 -0.29,0.04 -0.55,0.19 -0.62,0.5 -0.08,0.32 0.13,0.76 0.48,0.8 0.26,0.03 0.5,0.09 0.75,0.07 0.27,-0.01 0.54,-0.03 0.81,-0.05 0.87,-0.07 0.81,-1.25 -0.03,-1.32z"/>
  <path class="fil0" d="M125.56 53.99l0.49 0.05 0.6 -0.05c0.29,-0.05 0.54,-0.19 0.62,-0.5 0.08,-0.32 -0.12,-0.74 -0.48,-0.79 -0.44,-0.07 -0.82,-0.07 -1.26,-0.03 -0.86,0.08 -0.8,1.25 0.03,1.33z"/>
  <path class="fil0" d="M124.17 51.02l0.31 -0c0.81,-0.01 0.78,-1.25 -0.03,-1.26l-0.31 -0c-0.81,-0.01 -0.78,1.27 0.03,1.27z"/>
  <path class="fil0" d="M130.01 55.79l-0.62 -0.02c-0.83,0 -0.8,1.29 0.03,1.29l0.62 -0.01c0.82,-0.05 0.77,-1.22 -0.03,-1.26z"/>
  <path class="fil0" d="M129.27 51.97c0.59,0.03 1.13,0.13 1.72,-0.02 0.65,-0.17 0.58,-1.12 -0.03,-1.28 -0.59,-0.15 -1.13,-0.05 -1.72,-0.01 -0.86,0.05 -0.8,1.26 0.03,1.32z"/>
  <path class="fil0" d="M116.23 49.42c0.23,-0.05 0.47,-0.1 0.72,-0.11 0.31,-0.02 0.62,0 0.91,-0.12 0.23,-0.09 0.41,-0.25 0.47,-0.49 0.07,-0.27 -0.06,-0.66 -0.33,-0.76 -0.32,-0.13 -0.62,-0.15 -0.97,-0.16 -0.29,-0.01 -0.56,-0.07 -0.84,-0.13 -0.58,-0.12 -1.16,0.3 -1.15,0.92 0.02,0.64 0.61,0.98 1.19,0.86z"/>
  <path class="fil0" d="M111.66 51.18l0.47 -0.01c0.82,-0.05 0.77,-1.22 -0.03,-1.27l-0.47 -0.01c-0.83,0 -0.79,1.29 0.03,1.29z"/>
  <path class="fil0" d="M106.56 51.19l0.47 0c0.84,-0.03 0.79,-1.26 -0.04,-1.3l-0.46 0c-0.84,0.01 -0.8,1.28 0.03,1.3z"/>
  <path class="fil0" d="M120.92 48.73c0.47,0.01 0.92,0.07 1.39,0 0.3,-0.04 0.55,-0.19 0.62,-0.5 0.08,-0.32 -0.12,-0.75 -0.48,-0.8 -0.54,-0.08 -1.04,-0.03 -1.57,-0.02 -0.85,0.02 -0.81,1.3 0.03,1.31z"/>
  <path class="fil0" d="M126.64 48.56c0.83,0 0.79,-1.29 -0.03,-1.29 -0.83,0 -0.79,1.29 0.03,1.29z"/>
  <path class="fil0" d="M91.57 52.43c0.3,-0.04 0.54,-0.19 0.62,-0.5 0.08,-0.32 -0.12,-0.74 -0.48,-0.79 -0.43,-0.06 -0.88,-0.02 -1.26,-0.01 -0.83,0.04 -0.79,1.25 0.03,1.28 0.32,0.02 0.71,0.07 1.08,0.02z"/>
  <path class="fil0" d="M94.82 52.55c0.32,-0.04 0.62,-0.1 0.94,-0.18 0.24,-0.06 0.51,-0.06 0.75,-0.09 0.3,-0.05 0.54,-0.19 0.62,-0.5 0.08,-0.32 -0.12,-0.74 -0.48,-0.8 -0.27,-0.04 -0.55,-0.06 -0.82,-0.1 -0.27,-0.04 -0.54,-0.12 -0.81,-0.16 -0.5,-0.06 -0.99,0.14 -1.12,0.67 -0.13,0.54 0.31,1.22 0.92,1.15z"/>
  <path class="fil0" d="M116.1 68.57c-0.66,-0.06 -1.37,-0.07 -2.03,0.05 -0.63,0.11 -0.58,1.14 0.03,1.24 0.65,0.11 1.37,0.1 2.02,0.04 0.87,-0.08 0.81,-1.25 -0.03,-1.33z"/>
  <path class="fil0" d="M19.39 53.99c1.26,0.38 2.81,0.36 4.07,-0.02 0.77,-0.23 0.52,-1.28 -0.22,-1.33 -1.2,-0.08 -2.5,-0.09 -3.7,-0.01 -0.79,0.05 -0.9,1.13 -0.15,1.36z"/>
  <path class="fil0" d="M10.3 51.35c0.79,0.08 1.52,0.08 2.32,0 0.87,-0.08 0.81,-1.24 -0.03,-1.32 -0.79,-0.07 -1.52,-0.08 -2.32,0.01 -0.86,0.08 -0.8,1.23 0.04,1.31z"/>
  <path class="fil0" d="M15.56 49.5c0.68,0.04 1.32,0.09 2.01,0.01 0.3,-0.04 0.55,-0.19 0.62,-0.5 0.08,-0.32 -0.12,-0.75 -0.48,-0.8 -0.75,-0.1 -1.44,-0.05 -2.18,-0.01 -0.86,0.04 -0.81,1.28 0.03,1.31z"/>
  <path class="fil0" d="M9.07 48.22c1.19,0 1.15,-1.84 -0.05,-1.84 -1.19,0 -1.15,1.84 0.05,1.84z"/>
  <path class="fil0" d="M6.41 50.52c-0.41,-0.02 -0.82,-0.01 -1.23,0 -0.84,0.03 -0.79,1.25 0.03,1.29 0.41,0.01 0.82,0.02 1.24,0 0.84,-0.04 0.79,-1.26 -0.03,-1.29z"/>
  <path class="fil0" d="M12.32 48.22l0.53 -0.13 -0.02 0.01 0.43 -0.14c0.68,-0.19 0.6,-1.14 -0.03,-1.32l-0.19 -0.05 -0.11 -0.05 -0.41 -0.13c-0.5,-0.08 -0.99,0.15 -1.12,0.67 -0.13,0.53 0.31,1.24 0.92,1.15z"/>
  <path class="fil0" d="M14.94 53.36c0.36,0.02 0.72,0.04 1.08,0 0.29,-0.04 0.54,-0.2 0.61,-0.49 0.08,-0.31 -0.12,-0.74 -0.47,-0.78 -0.43,-0.05 -0.83,-0.05 -1.26,-0.02 -0.85,0.05 -0.79,1.24 0.03,1.3z"/>
  <path class="fil0" d="M18.34 47.64c0.28,0.02 0.57,0.07 0.86,0.08 0.34,0.02 0.67,-0.01 1,-0.05 0.3,-0.04 0.56,-0.2 0.64,-0.52 0.08,-0.32 -0.13,-0.77 -0.49,-0.82 -0.35,-0.04 -0.69,-0.07 -1.04,-0.07 -0.34,0 -0.66,0.06 -1,0.08 -0.84,0.04 -0.79,1.26 0.04,1.3z"/>
  <path class="fil0" d="M71.97 120.84c-2.56,-0.45 -5.02,-0.54 -7.41,-1.68 -1.91,-0.9 -3.31,-2.65 -5.26,-3.57 -3.59,-1.7 -8.25,-1.61 -12.1,-1.26 -0.84,0.08 -0.79,1.22 0.03,1.29 5.02,0.44 9.97,0 14.04,3.55 3.04,2.65 6.48,3.88 10.53,3.26 0.82,-0.13 1.15,-1.41 0.18,-1.58z"/>
  <path class="fil0" d="M56.5 120.9c0.77,0.02 0.86,-1.14 0.14,-1.32 -1.17,-0.31 -2.27,-0.8 -3.4,-1.22 -0.61,-0.23 -1.11,0.71 -0.61,1.11 1.11,0.87 2.44,1.4 3.87,1.44z"/>
  <path class="fil0" d="M121.87 79.28c-1.22,-0.08 -2.75,-0.3 -3.92,0.09 -0.8,0.27 -0.72,1.33 0.04,1.59 0.88,0.29 1.97,0.23 2.97,0.15l0.37 0.56c-0.24,0.07 -0.47,0.16 -0.68,0.27 -0.54,0.29 -0.48,1.12 0.04,1.4 0.69,0.37 1.57,0.49 2.46,0.49 0.24,0.24 0.48,0.48 0.73,0.71l-0.09 -0.01c-0.46,-0.04 -1.06,-0.04 -1.51,0.17l-0 0c-0.75,0.21 -0.74,1.18 -0.15,1.53 0.45,0.31 1.2,0.28 1.71,0.25 0.41,-0.02 0.81,-0.09 1.22,-0.15l0.45 -0.33c0.95,0.82 1.91,1.62 2.77,2.43 0.87,0.81 2.05,-0.46 1.26,-1.32 -1.05,-1.13 -2.09,-2.4 -3.18,-3.61 0.85,-0.23 1.15,-1.62 0.09,-1.77 -0.62,-0.09 -1.34,-0.19 -2.08,-0.26 -0.52,-0.47 -1.06,-0.91 -1.62,-1.3 -0,-0.43 -0.29,-0.87 -0.87,-0.9z"/>
  <path class="fil0" d="M125.19 80.77c0.46,0.06 0.89,0.12 1.37,0.11 0.44,-0.01 0.89,-0.04 1.33,-0.07 1.11,-0.08 1.05,-1.63 -0.05,-1.71 -0.84,-0.06 -1.63,-0.08 -2.47,0.02 -0.38,0.05 -0.7,0.25 -0.8,0.64 -0.1,0.4 0.16,0.97 0.62,1.02z"/>
  <path class="fil0" d="M106.19 82.43c-0.11,0.86 0.44,1.85 1.7,1.23 0.55,-0.28 1.54,-0.08 2.13,-0.08 0.77,0 1.54,0 2.31,0l0.13 0c-0.1,0.24 -0.1,0.52 0.07,0.73l0.03 0.05 0.07 0.15c0.26,0.43 0.62,0.82 0.97,1.19 0.25,0.25 0.58,0.42 0.87,0.62 0.4,0.28 1,0.04 1.22,-0.35 0.17,-0.32 0.13,-0.63 -0.04,-0.89l0.02 -0.01 -0.13 -0.19 0.04 0.1 -0.01 -0.01 -0.07 -0.17 -0.09 -0.14 -0.32 -0.4 -0.53 -0.48 -0.11 -0.09 -0.13 -0.09 0 -0c0.68,0 1.36,-0.02 2.03,-0.08 0.84,-0.08 1.02,-0.94 0.6,-1.42l0.02 -0.17 0 -0.08 -0 -0.08 -0.14 -0.42c-0.26,-0.4 -0.6,-0.73 -0.94,-1.04 -0.55,-0.51 -1.1,-1.13 -1.83,-1.35 -0.62,-0.19 -1.18,0.47 -1.01,1.06 0.2,0.67 0.78,1.19 1.25,1.69 -0.59,-0 -1.19,0.01 -1.78,0.01l-0.14 -0.37c-0.94,-1.28 -2.11,-2.52 -3.47,-3.34 -0.74,-0.45 -1.54,0.48 -1.12,1.18 0.6,1.01 1.44,1.9 2.35,2.67 -0.7,0.04 -1.39,0.03 -1.93,-0.12 -0.21,-0.35 -0.41,-0.66 -0.71,-0.96 -0.43,-0.42 -0.86,-0.78 -1.48,-0.8 -0.45,-0.01 -0.83,0.42 -0.82,0.86 0.02,0.62 0.43,1.06 0.84,1.48l0.16 0.15z"/>
  <path class="fil0" d="M103.91 80.18c-0.33,-0.29 -0.83,-0.3 -1.15,0.03 -0.33,0.34 -0.26,0.81 0.03,1.15l0.34 0.44c0.17,0.2 0.35,0.32 0.63,0.43 0.6,0.23 1.24,-0.51 1.03,-1.08 -0.18,-0.48 -0.53,-0.65 -0.88,-0.96z"/>
  <path class="fil0" d="M99.83 79.75c-0.6,0.37 -0.83,1.42 -0.2,1.89 0.23,0.17 0.43,0.37 0.71,0.43 0.33,0.07 0.7,0.04 0.99,-0.14 0.64,-0.39 0.54,-1.27 0.15,-1.79 -0.39,-0.52 -1.06,-0.76 -1.65,-0.39z"/>
  <path class="fil0" d="M120.78 85.67c-0.57,-0.75 -1.18,-1.43 -2,-1.9 -0.73,-0.42 -1.5,0.46 -1.1,1.15 0.43,0.75 1.06,1.34 1.74,1.85 0.32,0.24 0.71,0.33 1.07,0.11 0.38,-0.24 0.58,-0.83 0.29,-1.22z"/>
  <path class="fil0" d="M125.19 87.96c-1.2,-0.18 -2.83,-0.42 -3.95,0.06 -0.57,0.24 -0.9,1.2 -0.16,1.51 1.16,0.49 2.68,0.34 3.92,0.15 0.39,-0.06 0.73,-0.25 0.83,-0.66 0.11,-0.43 -0.17,-0.99 -0.64,-1.06z"/>
  <path class="fil0" d="M98.82 78.29c1.5,0.34 3.23,0.32 4.76,0.1 0.93,-0.14 1.3,-1.63 0.2,-1.79 -1.62,-0.24 -3.4,-0.27 -5,0.09 -0.81,0.18 -0.73,1.43 0.04,1.6z"/>
  <path class="fil0" d="M112.42 77.67c0.9,0.2 1.87,0.3 2.86,0.34l0.5 0.56 0.47 0.5c0.33,0.32 0.72,0.36 1.15,0.29 0.28,-0.05 0.56,-0.37 0.61,-0.64 0.05,-0.28 0.01,-0.51 -0.07,-0.71 1.42,-0.06 2.82,-0.18 4.11,-0.28l0.42 0.33c0.78,0.5 1.67,-0.52 1.2,-1.26 -0.38,-0.59 -0.91,-0.93 -1.43,-1.37 -0.34,-0.29 -0.85,-0.31 -1.18,0.03l-0.22 0.43c-2.77,-0.22 -5.88,-0.41 -8.49,0.17 -0.82,0.18 -0.74,1.44 0.04,1.61z"/>
 </g>
</svg>
