
<svg xmlns="http://www.w3.org/2000/svg" xml:space="preserve" width="0.747346in" height="0.747335in" version="1.1" style="shape-rendering:geometricPrecision; text-rendering:geometricPrecision; image-rendering:optimizeQuality; fill-rule:evenodd; clip-rule:evenodd"
viewBox="0 0 4544.36 4544.29"
 xmlns:xlink="http://www.w3.org/1999/xlink"
 xmlns:xodm="http://www.corel.com/coreldraw/odm/2003">
 <defs>
  <style type="text/css">
   <![CDATA[
    .fil1 {fill:black}
    .fil0 {fill:black;fill-rule:nonzero}
   ]]>
  </style>
 </defs>
 <g id="Layer_x0020_1">
  <metadata id="CorelCorpID_0Corel-Layer"/>
  <path class="fil0" d="M3598.15 2121.74c90.18,123.96 278.78,147.28 416.76,181.89 93.24,23.48 176.17,64.54 263.41,103.8 57.69,25.93 127.29,67.49 194.01,75.84 -7.95,83.53 -20.54,165.61 -37.51,246.19 -206.41,-16.83 -427.15,-83.02 -594.3,-204.73 -19.85,-14.53 -44.58,19.44 -25.5,34.71 164.85,132.51 396.75,208.18 609.93,214.76 -24.25,103.71 -55.83,204.73 -94.01,302.26 -5.75,-3.88 -13.09,-5.24 -21.45,-1.68 -46.44,19.32 -110.22,-23.58 -159.61,-27.2 -61.91,-4.64 -104.4,49.82 -133.2,99.13 -28.2,-9.53 -54.03,-5.58 -88.34,1.77 -31.91,6.94 -59.44,26.19 -92.48,31.6 -29.9,4.88 -64.95,-11.42 -94.99,-12.93 -39.96,-2.03 -66.48,26.86 -88.7,57.93 -47.78,67.15 -77.28,132.34 -150.48,176.84 -17.07,10.32 -10.13,43.23 11.83,39.86 93.05,-14.44 128.8,-99.56 171.19,-173.8 38.16,-66.96 91.21,-39.36 150.99,-37.32 64.01,2.03 114.69,-62.08 179.38,-23.05 12.83,7.76 31.07,2.01 38.02,-10.99 90.44,-170 154.19,-25.42 253.52,-60.81 -336.88,790.75 -1122.05,1346.53 -2034.39,1346.53 -819.12,0 -1535.56,-447.86 -1917.37,-1111.49 66.55,28.7 143.76,32.27 228.02,18.34 120.94,-19.87 200.25,-20.21 319.23,16.28 69.76,21.38 138.59,18.77 207.6,47.97 50.66,21.45 91.21,50.75 140.69,74.5 21.95,10.56 47.38,-19.27 26.43,-36.15 -60.14,-48.41 -108.45,-80.82 -183.52,-102.8 -58.6,-17.21 -118.64,-23.22 -178.28,-35.38 -46.37,-9.36 -88.5,-31.15 -136.14,-36.32 -92.05,-10.03 -177.68,18.24 -268.55,27.89 -86.47,9.12 -150.68,-20.21 -207.41,-70.02 -19.08,-37.42 -37.25,-75.58 -54.22,-114.26 108.78,3.38 222.61,12.5 329.7,-0.5 155.58,5.75 311.21,39.52 465.86,51.76 136.29,10.89 268.99,-2.35 405.37,21.04 35.55,6.08 70.86,18.82 104.81,32.34 -26.36,0.34 -51.85,1.94 -72.97,2.03 -145.1,1.17 -291.11,4.81 -436.13,8.43 -28.03,0.77 -26.43,41.82 1.03,43 124.49,5.65 246.43,6.15 370.92,-0.1 72.2,-3.61 168.56,-15.27 237.82,10.89l-0.84 1.1c-11.75,11.83 -7.35,30.74 5.98,38.95 80.65,49.75 170.43,63.42 263.67,68.9 46.37,2.71 435.2,-21.35 395.67,77.04 -5.67,14 -2.87,27.27 10.29,35.72 18.15,11.66 37.66,21.35 58.2,29.73 -118.91,0.34 -238.08,3.88 -355.38,10.89 -27.7,1.6 -26.79,43.14 1.1,42.97 198.36,-1.08 400.22,8.62 598.01,-6.42l12.93 -5.39c53.03,0.34 105.05,-2.71 152.02,-6.51 27.7,-2.37 25.93,-40.29 -1.03,-42.4 -113.26,-8.95 -224.89,-4.14 -337.05,-27.63 -39.19,-8.19 -85.06,-12.66 -86.73,-41.97 -1.36,-22.89 -20.01,-40.96 -35.89,-55.23 -68.42,-61.91 -172.22,-59.37 -257.69,-57.53 -122.62,2.54 -253.86,6.85 -365.17,-49.65l2.97 -2.87c7.92,-7.92 8.95,-20.95 3.11,-30.31 -36.99,-59.87 -127.6,-81.75 -189.77,-104.23 -24.66,-8.86 -49.99,-15.7 -75.41,-21.62 43.4,-36.39 89.01,-68.32 139.42,-96.02 68.42,-37.59 152.45,-36.32 207.68,-95.76 16.37,-17.5 -6.15,-46.97 -26.69,-32.94 -68.66,46.71 -152.42,53.89 -224.98,94.32 -50.66,28.13 -119.41,67.92 -154.12,119.27 -88.34,-13.36 -179.38,-13.09 -267.55,-9.29 -137.05,6.08 -276.07,-27.03 -414.42,-43.67 60.06,-24.59 119.43,-52.45 183.95,-62.17 90.78,-13.6 240.59,22.31 311.05,-54.13 53.03,-57.6 45.68,-234.2 152.18,-210.05 65.45,14.87 183.69,41.56 234.85,-17.48 18.41,-21.45 -11.47,-50.08 -31.91,-30.31 -63.51,61.55 -184.69,-18.17 -262.83,-7.68 -38.76,-1.2 -78.02,-1.36 -116.11,1.68 -27.7,2.2 -25.93,40.19 0.93,42.33 19.75,1.51 39.76,2.18 59.78,2.27 -19.85,37.49 -31.67,88 -40.96,112.83 -29.04,77.35 -70.1,94.85 -154.79,101.5 -62.91,5 -124.75,1.77 -187.57,11.16 -98.06,14.77 -183.86,72.47 -278.54,101.1 -19.92,-0.1 -39.79,0.5 -59.63,1.94 -47.62,-2.11 -96.09,-4.81 -144.33,-6.08 81.68,-27.63 162.17,-76.61 219.84,-107.94 82.59,-45.01 162.5,-94.66 245.86,-137.99 105.05,-54.56 218.74,-89.34 323.38,-146.27 195.83,-106.51 413.99,-279.04 542.78,-462.06 115.77,-164.58 168.73,-334.24 143.64,-529.09 88.6,-20.85 187.66,-16.9 280.91,-5.41 -0.6,19.94 2.35,41.63 1.84,59.37 -1.17,41.22 -4.98,82.59 -5.82,123.89 -0.67,26.53 3.64,50.25 19.92,71.79 29.57,39.02 58.8,33.61 50.01,96.62 -3.97,28.7 35.38,39.43 44.34,10.96 9.38,-30.48 17.57,-67.63 -0.84,-97.12 -20.88,-33.44 -54.15,-38.83 -54.82,-83.69 -0.41,-39.6 17.74,-117.97 8.19,-172.94 11.32,1.77 22.65,3.54 33.54,5.39 139.26,23.32 310.19,72.63 382.41,205.4 5.65,54.56 -6.51,102.94 -16.23,157.59 -4.31,24.39 31.84,42.23 42.83,16.81 18.31,-42.16 47.81,-116.04 32.17,-168.42 28.37,-8.95 55.32,-23.89 88,-26.6 69.33,-5.48 142.13,18 209.69,31.07 29.23,5.67 40.55,-38.33 11.16,-45.08 -63.34,-14.29 -125.99,-27.79 -190.77,-33.54 -33.37,-2.94 -65.04,2.27 -97.55,8.69 -11.56,3.21 -22.79,7.35 -33.68,12.42l-10.49 5.58c-39.26,-82.02 -135.55,-131.07 -215.03,-163.51 -187.64,-76.61 -417.36,-96.69 -615.15,-52.69 -10.22,2.27 -19.34,14.44 -18.15,24.99 7.52,65.88 16.21,125.99 6.75,192.55 -14.87,106.17 -74.24,232.43 -138.92,324.14 -242.99,-14.53 -491.7,-19.68 -734.83,-11.56 -27.89,0.91 -26.36,41.8 1.01,42.8 231.23,8.62 466.1,20.95 697.84,16.21 -130.23,161.4 -313.58,301.35 -490.59,403.45 -154.72,89.18 -324.55,145.84 -480.2,235.02 -106.24,60.97 -318.23,215.19 -452.34,160.9 -38.42,-99.33 -69.93,-201.93 -93.82,-307.41 186.63,7.18 374.89,-0.6 561.36,-4.57 27.87,-0.5 26.53,-42.4 -1.1,-42.9 -189.6,-3.71 -380.54,-5.48 -570.15,1.44 -20.44,-99.66 -33.78,-201.67 -40.19,-305.71 114,-9.82 238.65,-54.32 344.23,-90.87 60.3,-20.88 141.05,-102.03 209.18,-68.49 53.05,25.93 99.33,79.22 146.13,115.36 55.3,42.56 157.24,95.09 230.04,68.49 55.49,-20.28 87.4,-58.2 154.89,-40.89 69.93,17.91 143.06,33.95 211.65,55.83 29.3,9.38 40.1,-36.39 11.4,-46.11 -68.59,-23.22 -141.36,-35.38 -211.12,-57.6 -42.16,-13.33 -72.13,-3.21 -113.02,10.13 -63.92,21.04 -95.26,39.19 -167.39,18.34 -71.94,-20.78 -129.87,-81.92 -187.4,-127.12 -63.58,-49.82 -113.93,-64.85 -188.17,-26.6 -132.34,68.32 -292.28,121.71 -442.79,143.33 -1.17,-30 -1.94,-60.14 -1.94,-90.44 0,-127.19 10.89,-251.94 31.58,-373.29 58.7,-121.01 203.53,-237.41 285.12,-76.68 10.72,21.28 43.33,13.5 48.48,-7.52 42.13,-171.79 145.86,-336.97 333.17,-361.22 196.19,-25.16 315.69,110.55 362.57,283.25l-11.4 11.59c-16.4,17.81 7.42,50.08 27.6,34.02 49.91,-39.6 115.03,-82.93 166.21,-14.17 29.13,39.09 17.64,91.98 2.27,133.27 -9.53,25.5 28.9,44.74 45.7,25.06 107.18,-125.56 217.04,-38.42 253.62,85.22 7.52,25.66 46.35,19.08 45.94,-7.25 -1.44,-77.88 -46.54,-141.55 -114.1,-177.78 -56.09,-30.16 -113.16,-12.52 -163,17.81 5.67,-119.94 -104.98,-200.76 -212.32,-138.51 -41.63,-186.2 -173.71,-308.84 -375.4,-308.08 -205.47,0.84 -336.38,167.89 -396.42,348.3 -74.67,-83.19 -189.43,-55.83 -270.52,17.38 33.37,-141.63 80.58,-278.01 139.95,-407.74 78.95,-62.65 186.13,-61.81 266.45,11.59 18.51,16.71 50.25,-6.85 34.88,-28.22 -61.24,-84.7 -170.76,-102.51 -260.8,-67.39 365.7,-717.42 1111.66,-1209.96 1970.66,-1209.96 836.93,0 1566.51,467.61 1941.74,1155.23 -88.5,-28.03 -184.86,8.62 -225.49,109.45 -10.63,26.26 23.32,46.37 39.02,21.55 60.3,-95.28 143.4,-109.12 231.4,-44 42.4,86.73 79.38,176.58 110.22,269.22 -85.39,-35.12 -203.37,-3.21 -245.09,78.55 -121.61,-280.55 -543.72,-173.2 -602.15,110.62 -100.76,-92.12 -288.4,-14.67 -327.52,119.1 -8.79,29.88 35.57,39.26 46.04,11.4 42.23,-112.76 214.26,-178.88 278.37,-47.3 11.47,23.32 48.38,10.15 47.21,-14 -6.61,-137.75 84.94,-243.92 211.55,-285.96 153.45,-51.02 273.7,42.56 323.88,183.16 4.38,12.09 14.6,16.23 23.99,14.87 11.13,2.63 24.39,-2.27 28.7,-15.87 37.49,-115.36 165.52,-153.45 242.89,-64.85 28.8,100.07 50.49,203.1 64.95,308.34 -195.61,-18.07 -396.68,-11.59 -592.03,3.54 -28.63,2.2 -27.87,45.84 1.17,44.77 199.58,-7.95 397.95,4.29 597.17,2.44 9.22,82.09 14.2,165.45 14.2,250.07 0,50.08 -1.77,99.73 -5.15,149.05 -56.33,-22.72 -116.13,-38.69 -172.03,-62.58 -68.75,-29.23 -135.47,-61.31 -206.67,-84.29 -156.49,-50.58 -345.16,-57.5 -467.95,-178.95 -16.81,-16.54 -46.87,6.75 -32.51,26.36zm-1325.92 -2121.74c-929.26,0 -1729.88,560.86 -2081.55,1361.73l-4.14 5.91 -2.61 9.38c-118.24,274.9 -183.93,577.49 -183.93,895.13 0,343.03 76.58,668.51 213.4,960.48l2.47 13.17 13.17 19.68c369.22,756.47 1146.28,1278.81 2043.2,1278.81 1252.86,0 2272.13,-1019.28 2272.13,-2272.13 0,-1252.88 -1019.28,-2272.16 -2272.13,-2272.16z"/>
  <path class="fil0" d="M955.17 3667.14c8.09,8.12 21.11,8.04 29.21,-0.07l2.63 -2.71 5.98 -14.6 -6.15 -14.53 -65.95 -65.38c-8.12,-8.02 -21.11,-8.02 -29.23,0.1l-2.61 2.61 -6.01 14.63 6.18 14.6 16.97 16.88 -101.93 102.87c-7.95,8.12 -7.95,21.11 0.17,29.13l2.61 2.63 14.53 5.98 14.6 -6.08 102.03 -102.94 16.97 16.88z"/>
  <path class="fil0" d="M1112.16 3745.85l-2.87 -2.44 -15.03 -4.64 -14.1 7.35 -33.11 39.86 -36.99 -30.67 33.28 -39.93 4.64 -15.03 -7.45 -14.03 -2.78 -2.37c-8.79,-7.16 -21.71,-5.98 -28.97,2.8l-107.01 128.7 -4.64 15.13 7.35 13.93 2.8 2.27 15.03 4.74 13.93 -7.35 45.08 -54.22 36.91 30.64 -44.93 54.22c-7.42,8.79 -6.15,21.79 2.63,29.06l2.87 2.44 13.17 4.74 1.94 -0.1 13.93 -7.35 106.91 -128.8c7.28,-8.69 6.18,-21.69 -2.61,-28.97z"/>
  <path class="fil0" d="M1175.75 3791.22l-15.44 -3.3 -13.26 8.52 -97.29 140.62 -3.38 15.37 8.62 13.26 62.58 43.33 11.66 3.71 17.04 -8.86 1.94 -2.87 3.38 -15.46 -8.43 -13.33 -42.73 -29.47 27.36 -39.52 27.43 18.98c9.29,6.51 22.22,4.14 28.63,-5.22l2.11 -3.14 3.38 -15.37 -8.52 -13.26 -27.53 -19.01 16.81 -24.16 42.56 29.57c9.46,6.42 22.22,4.14 28.7,-5.24l2.13 -3.04 3.38 -15.44 -8.55 -13.36 -62.58 -43.31z"/>
  <path class="fil0" d="M1544.56 4026.33l1.6 -3.38 0.6 -15.7 -10.72 -11.66 -84.46 -38.69 -15.87 -0.57 -11.49 10.8 -1.6 3.38c-4.64,10.32 -0.07,22.55 10.13,27.29l21.81 9.96 -60.23 131.74 -0.57 15.8 10.8 11.49 3.38 1.68 8.62 1.77c7.78,0 15.2,-4.48 18.67,-11.99l60.3 -131.74 21.79 10.05c10.39,4.64 22.62,0.07 27.27,-10.22z"/>
  <path class="fil0" d="M1646.33 4111.2c-4.14,11.92 -9.53,14.7 -13.43,15.8l-19.34 -1.94 -20.42 -7.25 16.04 -45.2 20.44 7.18 15.94 10.65c2.63,3.54 5,9.12 0.77,20.76zm-1.77 -73.81l-43.33 -15.27c-10.72,-3.81 -22.46,1.77 -26.17,12.5l-56.59 159.53c-3.81,10.72 1.77,22.46 12.5,26.33l3.47 1.2 15.7 -0.84 10.65 -11.75 17.31 -48.88 18.82 6.58 8.12 68.4c1.27,10.49 10.05,18.17 20.44,18.17l1.68 0 3.54 -0.34 14.36 -7.45 4.57 -15.54 -6.85 -58.94c21.19,-4.74 37.32,-20.28 46.04,-44.86 10.46,-29.37 2.01,-50.08 -6.77,-62.15 -8.69,-11.99 -21.28,-20.95 -37.49,-26.69z"/>
  <path class="fil0" d="M1840.84 4095.59l-73.83 -18.91 -15.61 2.18 -9.46 12.69 -42.56 165.52 2.18 15.63 12.59 9.46 73.9 18.98 5.05 0.6c9.22,0 17.5,-6.08 20.04,-15.37l0.74 -3.47 -2.18 -15.61 -12.52 -9.55 -50.32 -12.93 11.99 -46.51 32.34 8.26 15.63 -2.18 9.46 -12.69 0.93 -3.61c2.85,-10.99 -3.9,-22.22 -14.87,-24.99l-32.37 -8.38 7.35 -28.46 50.18 12.93 15.63 -2.2 9.53 -12.57 1.03 -3.71c2.68,-10.99 -3.9,-22.22 -14.87,-25.09z"/>
  <path class="fil0" d="M1937.19 4237.98l13.43 -25.52 4.55 28.46 -17.98 -2.94zm30.24 -115.53l-3.97 -0.69c-8.79,-1.34 -17.4,2.87 -21.55,10.72l-81.83 155.58 -1.36 16.04 10.75 12.16 3.28 1.6c9.96,4.74 21.95,0.77 27.12,-9.05l15.27 -28.87 47.54 7.85 5.15 32.27c1.7,10.03 10.39,17.31 20.37,17.31l2.51 -0.17 3.64 -0.43 13.93 -8.09 3.97 -15.73 -27.79 -173.47c-1.44,-8.69 -8.26,-15.61 -17.04,-17.04z"/>
  <path class="fil0" d="M2154.49 4239.49c-9.46,-5.75 -17.91,-10.8 -24.99,-14.94l-17.57 -10.39c-11.66,-7.01 -11.16,-13.26 -10.99,-16.73l4.4 -9.62 10.89 -3.81 2.44 0.1c2.71,0.17 11.9,1.87 36.05,12.16 8.71,3.71 18.58,1.1 24.32,-6.18l2.3 -2.94 4.21 -15.87 -8.69 -13.77c-15.2,-10.56 -33.71,-16.73 -54.82,-18.34 -19.51,-1.44 -36.15,4.57 -48.65,17.14 -10.29,10.39 -16.04,23.22 -17.14,37.85 -1.44,18.48 4.81,35.05 17.98,47.71l2.03 1.7 10.46 7.42 9.72 6.15 26.79 15.97 10.53 7.11 5.17 4.38 3.04 9.55 -4.74 9.46 -10.96 3.81c-1.03,-0.1 -10.32,-1.36 -45.1,-19.94 -8.45,-4.64 -19.1,-2.61 -25.42,4.81l-2.27 2.78 -4.91 15.03 7.18 14.12c8.86,7.42 19.51,13.77 31.58,18.82 12.16,5.08 24.08,8.12 35.55,8.95l5.08 0.26c15.8,0 30.14,-5.91 41.22,-17.07 10.63,-10.72 16.54,-23.39 17.64,-37.59 1.27,-16.37 -3.3,-39.6 -32.34,-58.1z"/>
  <path class="fil0" d="M2342.99 4146l-0.34 0 -3.81 0.07c-11.32,0.19 -20.44,9.55 -20.28,20.95l2.03 120.87 -6.85 17.31 -17.31 7.18 -16.64 -6.77 -7.35 -16.97 -1.94 -120.75c-0.17,-11.32 -9.38,-20.37 -20.61,-20.37l-3.81 0 -14.6 6.34 -5.82 14.7 1.94 120.85c0.24,19.01 7.35,35.31 20.95,48.41 13.17,12.83 29.37,19.32 47.88,19.32l1.27 0c18.74,-0.34 35.48,-7.59 48.38,-20.95 13.19,-13.57 19.77,-30.14 19.51,-49.05l-1.94 -120.78c-0.26,-11.32 -9.55,-20.35 -20.68,-20.35z"/>
  <path class="fil0" d="M2484.69 4222.18c-4.21,3.47 -10.39,5.65 -18.24,6.42l-21.52 2.11 -4.81 -47.71 21.62 -2.11 18.91 2.78c3.88,2.13 8.45,6.08 9.72,18.51 1.17,12.59 -2.47,17.31 -5.67,20.01zm27.72 35.81c17.31,-13.36 25.23,-34.04 22.62,-60.3 -3.04,-31.07 -19.42,-46.2 -32.61,-53.39 -12.93,-7.09 -27.94,-9.86 -45.1,-8.19l-45.77 4.48 -13.93 7.52 -4.64 15.13 16.81 168.39 7.35 13.86 13.09 4.72 2.03 -0.07 3.71 -0.43c11.23,-1.1 19.51,-11.23 18.41,-22.55l-5.08 -51.59 19.85 -2.03 36.32 58.44c6.01,9.38 18.17,12.5 27.79,6.92l3.21 -1.77 9.72 -12.83 -2.54 -15.87 -31.24 -50.42z"/>
  <path class="fil0" d="M2690.76 4269.99l-51.02 9.53 -8.86 -47.21 32.77 -6.25 13.26 -8.62 3.21 -15.54 -0.77 -3.54c-2.11,-11.23 -12.76,-18.58 -24.06,-16.47l-32.77 6.18 -5.51 -28.73 51.02 -9.7c11.16,-2.13 18.51,-12.86 16.4,-23.99l-0.69 -3.71 -8.69 -13.26 -15.37 -3.3 -74.91 14.2c-11.16,2.18 -18.51,12.9 -16.4,24.16l31.84 167.89c1.87,9.96 10.49,16.88 20.21,16.88l3.88 -0.5 74.81 -14.1 13.26 -8.69 3.21 -15.46 -0.74 -3.45c-2.2,-11.25 -12.86,-18.51 -24.08,-16.3z"/>
  <path class="fil0" d="M3005.11 4102.17c-11.08,-1.17 -20.71,-2.11 -28.97,-2.87l-20.37 -1.87c-11.83,-1.17 -15.2,-5.72 -16.97,-10.56l-0.17 -10.53 10.49 -9.05c2.61,-1.01 11.47,-3.38 37.92,-4.38 9.29,-0.26 17.31,-6.85 19.32,-16.06l0.77 -3.54 -2.94 -16.14 -13.77 -8.79c-18.17,-2.94 -37.59,-0.74 -57.26,6.85 -18.24,6.92 -30.83,19.44 -36.75,36.24 -4.88,13.77 -4.72,27.77 0.5,41.46 6.68,17.38 19.34,29.64 36.68,35.62l2.44 0.6 12.57 2.27 11.59 1.44 31.07 3.04 12.5 1.87 6.51 1.87 6.85 7.42 -0.26 10.49 -8.45 8.09c-0.41,0.17 -5.58,1.77 -24.06,1.77 -7.28,0 -15.54,-0.17 -25.09,-0.57 -10.13,-0.69 -18.34,5.72 -20.95,15.11l-0.93 3.54 2.03 15.63 12.5 9.72c9.46,2.51 19.61,3.78 30.4,3.78l6.18 -0.17c13.07,-0.5 25.23,-2.87 35.96,-7.01 16.81,-6.42 28.8,-18.41 34.81,-34.95 5.08,-14.2 4.98,-28.2 -0.1,-41.56 -5.91,-15.27 -19.92,-34.45 -54.03,-38.76z"/>
  <path class="fil0" d="M3131.11 3987.64l21.55 -10.46c10.29,-4.98 14.44,-17.31 9.53,-27.53l-1.68 -3.38 -11.75 -10.49 -15.78 0.93 -83.53 40.7c-10.32,5 -14.63,17.24 -9.55,27.55l1.6 3.38 11.73 10.46 15.9 -0.93 21.52 -10.46 63.44 130.14 11.8 10.49 6.77 1.17 9.03 -2.11 3.38 -1.6c10.15,-5.08 14.46,-17.4 9.46,-27.63l-63.42 -130.23z"/>
  <path class="fil0" d="M3290.64 3986.73l-6.25 -28.13 21.79 18.74 -15.54 9.38zm-27.87 -105.67c-6.75,-5.82 -16.4,-6.58 -24.08,-2.01l-3.38 2.01c-7.52,4.64 -11.4,13.53 -9.36,22.22l38.26 171.53 9.36 13 10.82 3.04 5.24 -0.67 3.54 -0.93c10.72,-2.87 17.21,-13.6 14.77,-24.39l-7.01 -31.84 41.3 -24.92 24.85 21.21c8.43,7.16 21.02,6.49 28.44,-1.6l2.54 -2.71 5.58 -15.2 -7.25 -14.53 -133.61 -114.19z"/>
  <path class="fil0" d="M3418.17 3810.39l19.34 -14.12c9.29,-6.66 11.23,-19.51 4.55,-28.7l-2.18 -3.04 -13.43 -8.28 -15.46 3.71 -75.07 54.73 -8.28 13.53 3.81 15.27 2.2 3.04c6.75,9.22 19.58,11.16 28.8,4.48l19.32 -14.1 85.32 117.06 16.61 8.52 12.09 -3.88 3.04 -2.27 8.35 -13.43 -3.71 -15.37 -85.3 -117.14z"/>
  <path class="fil0" d="M3466.21 3724.07l5.08 14.96 112.32 128.7 15.54 7.09 13.6 -5.05 57.34 -50.08 7.11 -14.12 -5.17 -14.94 -2.27 -2.61c-7.52,-8.62 -20.52,-9.46 -29.04,-2.03l-39.12 34.11 -31.67 -36.22 25.26 -21.95 7.09 -14.2 -5.15 -15.03 -2.54 -2.78c-7.52,-8.45 -20.42,-9.38 -29.04,-1.87l-25.16 21.88 -19.27 -22.05 39.12 -34.21c8.59,-7.42 9.46,-20.44 2.11,-28.97l-2.54 -2.87 -14.1 -7.01 -15.03 5 -57.43 50.06 -7.01 14.2z"/>
  <path class="fil0" d="M957.94 861.44l-14.7 -5.84 -14.51 6.42 -4.07 4.31 -4.98 19.61 30.83 113.76 -114.96 -26.36 -19.58 5.75 -3.97 4.21 -5.75 14.6 6.34 14.53 176.08 169.52 14.36 5.82 0.34 0 14.44 -6.42 3.9 -3.88c7.85,-8.21 7.59,-21.28 -0.69,-29.16l-115.17 -111.06 76.42 17.57 19.51 -5.82 4.98 -19.68 -20.42 -75.77 115.27 111.06 14.77 5.75 14.46 -6.32 3.78 -3.97c7.95,-8.19 7.68,-21.28 -0.5,-29.13l-176.17 -169.49z"/>
  <path class="fil0" d="M1359.87 779.43l-54.3 -93.99c-6.34,-10.99 -7.78,-21.79 -4.48,-33.78 3.21,-12.16 9.79,-20.78 20.92,-27.12l21.64 -6.25 12.16 1.77c11.99,3.14 20.59,9.72 26.93,20.71l54.3 93.99c6.34,11.06 7.78,21.79 4.57,34.04 -3.21,11.99 -9.79,20.52 -20.68,26.93 -10.99,6.34 -21.88,7.78 -33.97,4.55 -12.16,-3.21 -20.76,-9.86 -27.1,-20.85zm84.2 56.43c21.79,-12.59 36.05,-31.17 42.49,-55.23 6.49,-24.25 3.45,-47.57 -9.12,-69.26l-54.22 -94.01c-12.5,-21.62 -31.17,-35.89 -55.49,-42.4 -23.99,-6.42 -47.64,-3.28 -69.16,9.12 -21.71,12.59 -36.08,31.27 -42.66,55.49 -6.42,24.08 -3.28,47.38 9.29,69.16l54.39 93.92c12.5,21.79 31.17,36.15 55.23,42.49 8.02,2.18 16.14,3.28 23.99,3.28 15.63,0 30.83,-4.21 45.27,-12.57z"/>
  <path class="fil0" d="M1898.77 380.9l-9.29 -12.76 -15.63 -2.27 -5.31 1.27c-11.06,2.78 -17.74,13.93 -15.03,24.9l36.99 150.01 -128.03 -137.84 -20.01 -5.98 -5.67 1.44c-11.06,2.71 -17.81,13.84 -15.03,24.9l58.46 237.31 9.36 12.76 10.65 3.04 4.88 -0.67 5.24 -1.27c10.99,-2.71 17.74,-13.86 15.03,-24.92l-36.91 -149.89 128.12 137.72 20.11 5.91 5.55 -1.34 12.76 -9.38 2.27 -15.61 -58.51 -237.31z"/>
  <path class="fil0" d="M2277.88 369.15l44.5 1.7 -8.45 220.75 5.58 14.87 14.36 6.58 5.41 0.26 0.74 0c11.06,0 20.18,-8.69 20.61,-19.85l8.45 -220.84 44.34 1.68 14.87 -5.48 6.68 -14.36 0.17 -5.48c0.41,-11.32 -8.55,-20.95 -19.85,-21.35l-135.57 -5.17 -14.84 5.58 -6.68 14.27 -0.17 5.51c-0.34,11.3 8.52,20.95 19.85,21.35z"/>
  <path class="fil0" d="M2854.7 514.15l0.17 83.79 -50.34 -16.64 50.18 -67.15zm0.24 133.03l0.26 54.56c0,11.06 8.79,20.09 19.85,20.52l5.24 0.24 1.24 0c11.42,0 20.61,-9.29 20.61,-20.59l-0.41 -4.24 -0.53 -252.51c-0.07,-8.86 -5.72,-16.71 -14.1,-19.51l-5.58 -1.84c-8.35,-2.71 -17.72,0.17 -22.96,7.25l-153.55 205.64 -3.71 15.7 8.62 13.6 4.38 3.04c9.12,6.34 21.55,4.24 28.22,-4.64l32.68 -43.57 79.72 26.36z"/>
  <path class="fil0" d="M3157.03 865.66l15.37 3.3 13.26 -8.62 87.4 -127.19 -17.57 187.23 8.79 18.91 4.74 3.3 11.73 3.61 16.97 -8.93 138.42 -201.52 3.21 -15.54 -8.59 -13.17 -4.48 -3.04c-9.48,-6.51 -22.31,-4.14 -28.63,5.31l-87.43 127.19 17.84 -187.16 -8.88 -18.98 -4.88 -3.3c-9.29,-6.34 -22.22,-3.97 -28.63,5.31l-138.35 201.6c-6.42,9.38 -4.05,22.22 5.34,28.63l4.38 3.04z"/>
  <path class="fil0" d="M3701.35 1095.02l-44.43 70.86 -33.71 -40.79 78.14 -30.07zm-201.26 56.33c4.38,10.15 16.04,15.03 26.36,10.99l50.82 -19.51 53.46 64.85 -28.87 46.3c-5.84,9.36 -3.21,21.69 5.91,27.94l4.48 2.97 11.56 3.64 4.21 -0.43 13.26 -9.22 136.14 -217.63 -1.51 -24.06 -3.81 -4.4c-5.58,-6.82 -14.96,-9.29 -23.22,-6.15l-239.44 92.38 -11.56 11.25 0.1 16.21 2.11 4.88z"/>
  <path class="fil0" d="M2904.78 3686.08c16.37,9.19 34.69,14.34 53.7,10.89 21.55,-4.07 20.44,-33.87 4.57,-43.5 -15.03,-9.12 -30.07,-15.8 -43.59,-27.63l-15.27 -15.03c-0.77,-31.31 -1.6,-62.48 -1.77,-93.05 -0.1,-28.8 -0.43,-57.69 -0.77,-86.49 29.13,26.19 65.88,43.09 101.43,40.29 26.36,-2.11 29.73,-37.15 4.98,-45.27 -47.04,-15.27 -84.03,-37.82 -107.08,-78.71 -0.34,-31.41 -0.84,-62.75 -1.36,-94.15 10.82,13.84 21.98,27.03 32.37,39.52 34.11,41.2 86.13,95.18 144.5,85.63 21.45,-3.54 20.85,-34.62 4.64,-43.67 -45.77,-25.66 -81.42,-51.35 -116.47,-91.38 -24.42,-27.79 -44,-59.27 -66.48,-88.6l0 -2.61c-0.41,-27.2 -0.41,-54.56 -0.41,-81.83 13.6,15.27 28.13,29.9 43.4,43.47 37.15,32.87 85.13,74.76 133.1,88.94 24.32,7.35 35.45,-23.05 21.62,-39.26 -30.83,-35.98 -80.41,-58.8 -117.06,-89.37 -29.71,-24.73 -55.47,-52.86 -80.72,-81.73 0.24,-30.24 0.6,-60.57 1.27,-90.87 36.32,49.82 86.3,91.95 138.32,111.46 24.66,9.29 40.89,-26.76 23.58,-43.07 -28.8,-27.27 -61.67,-49.58 -90.13,-77.28 -28.11,-27.1 -49.22,-58.77 -69.57,-91.38 0.5,-17.91 0.91,-35.98 1.34,-53.96 38.69,48.48 85.73,91.47 145.77,98.8 23.72,2.8 39.6,-27.87 16.14,-40.96 -36.99,-20.59 -70.19,-40.86 -99.83,-71.53 -21.21,-21.95 -39.79,-46.28 -60.14,-69.23 0.67,-25.69 1.1,-51.45 1.44,-77.11 24.16,25.83 52.95,47.97 80.41,65.86 18.58,12.16 41.63,-13.07 29.47,-30.98 -16.4,-23.92 -39.62,-40.89 -61.24,-59.71 -19.58,-17.07 -34.54,-36.24 -47.71,-57.43 0.17,-24.25 0.43,-48.48 0.24,-72.8 24.08,23.82 53.98,38.26 86.06,32.01 26.86,-5.31 15.37,-40.96 -7.01,-43.33 -34.78,-3.81 -63.92,-43.23 -80.48,-79.38 -1.17,-47.21 -2.78,-94.35 -5.65,-141.39 -1.84,-28.03 -41.37,-26.26 -43.16,1.1 -2.51,40.22 -4.81,80.58 -6.75,120.94 -6.49,21.45 -17.57,40.53 -32.94,59.47 -17.14,21.11 -43.47,37.06 -56.33,60.88 -8.79,16.3 7.01,39.52 26.09,32.27 22.05,-8.35 42.33,-28.13 58.96,-48.24 -0.67,19.18 -1.1,38.35 -1.77,57.53 -14.1,26.69 -32.01,49.41 -54.06,72.8 -21.21,22.62 -63.78,49.05 -63.85,82.66 -0.1,16.73 15.7,24.08 30.07,21.81 18.15,-2.97 28.87,-20.01 41.13,-32.44 15.03,-15.3 30.24,-30.31 44.41,-46.54 -0.34,15.37 -0.57,30.74 -0.84,46.04 -25.09,76.61 -82.09,121.35 -134.18,180.05 -18.51,20.95 5.91,47.14 29.21,36.05 42.33,-20.18 76.34,-63.75 103.63,-100.4 -0.1,11.49 -0.26,23.13 -0.26,34.62 -11.32,51.95 -37.59,93.68 -71.7,134.04 -27.87,32.85 -68.92,58.77 -91.21,95.35 -10.13,16.64 7.85,40.79 26.93,33.28 48.48,-19.18 89.44,-73.23 121.11,-113.02l14.46 -19.42c0,16.14 0.07,32.27 0.07,48.31 -21.35,74.24 -62.91,131.07 -118.14,183.86 -19.34,18.58 -67.39,49.58 -52.55,81.99 9.22,20.04 35.41,9.48 41.32,-6.42l-6.08 11.83 6.75 -5.82c8.62,-6.58 16.37,-14.7 24.56,-22.05 21.79,-20.01 43.33,-40.46 63.94,-61.74 14.36,-14.87 28.03,-32.17 40.29,-50.82 0,14.1 0.07,28.11 0.07,42.13l-0.17 20.44c-34.95,101.77 -132.24,135.88 -198.79,215.1 -15.97,18.91 6.08,50.15 28.37,34.95 56.07,-37.99 122.62,-81.49 168.65,-137.05 -0.34,16.97 -0.77,33.85 -1.17,50.92 -17.67,22.62 -35.14,45.01 -56.5,64.95 -30.5,28.2 -67.75,45.77 -104.81,63.68 -25.35,12.16 -6.01,52.02 19.92,44.07 49.91,-15.37 100.09,-46.44 138.85,-86.73 -0.26,10.39 -0.5,20.78 -0.86,31.1 -9.62,12.9 -19.32,25.16 -31.24,36.05 -13.26,11.99 -29.97,19.51 -42.4,32.25 -17.38,17.74 2.3,40.29 22.81,37.01 18.15,-2.87 34.88,-15.63 49.15,-27.96 -1.94,99.16 -1.53,197.88 5.98,294.74 2.47,31.58 52.28,40.63 57.93,6.32 6.85,-40.43 9.05,-82.16 9.48,-124.13z"/>
  <path class="fil0" d="M3460.13 2338.11c0.17,-12.16 0.34,-24.25 0.5,-36.41 25.09,27.79 55.49,49.34 92.14,50.08 21.88,0.5 29.47,-31.58 10.15,-41.3 -23.15,-11.66 -43.09,-21.11 -61.41,-39.93 -14.44,-14.79 -26.43,-31.84 -39.62,-47.81 0.17,-15.03 0.17,-30.16 0.17,-45.2 21.55,21.21 48.24,40.29 77.61,47.3 20.44,4.91 38.69,-23.05 20.78,-37.49 -20.09,-16.06 -41.89,-29.47 -61.05,-46.8 -14.79,-13.33 -25.02,-30.31 -37.68,-45.17l-0.24 -19.77c11.47,10.32 23.89,19.34 36.72,26.36 24.08,13.09 41.82,-17.31 26.36,-36.05 -12.66,-15.3 -28.9,-27.53 -42.56,-42.06 -11.66,-12.5 -18.24,-26.86 -23.05,-42.4 -1.01,-28.46 -2.03,-56.93 -3.81,-85.3 -1.77,-28.13 -41.13,-26.36 -43.07,1.01 -2.11,32.77 -3.97,65.55 -5.58,98.39 -7.76,11.73 -15.54,23.32 -25.16,33.95 -12.83,14.53 -31,22.81 -43.4,37.08 -13.09,15.03 -3.23,38.26 16.97,38.35 17.81,0.07 34.11,-11.25 47.78,-23.99 -0.41,10.22 -0.84,20.35 -1.27,30.64 -27,33.44 -61.72,55.76 -93.89,84.55 -19.18,17.38 6.58,45.08 27.36,33.61 20.52,-11.32 43.81,-25.85 64.25,-43.16 -0.41,10.99 -0.77,21.88 -1.01,32.94 -13.09,20.35 -31.41,36.72 -50.42,51.35 -20.61,15.94 -53.05,29.97 -65.71,53.19 -10.22,18.58 7.52,35.65 25.93,32.17 14.1,-2.71 26.19,-13.33 37.75,-21.35 15.37,-10.65 30.67,-21.71 45.1,-33.71l5.75 -4.88c-0.26,16.11 -0.67,32.25 -0.93,48.38 -31.41,64.78 -100.59,96.29 -148.31,148.64 -19.25,20.85 6.08,46.54 29.13,35.89 41.06,-18.74 78.64,-55.13 110.65,-86.3l7.68 -7.85c-0.1,13.33 -0.26,26.76 -0.34,40.19 -11.16,47.64 -37.68,83.96 -71.46,118.81 -28.2,29.16 -74.64,52.62 -94.49,88.1 -10.22,18.15 7.68,38.35 26.93,33.18 42.56,-11.23 85.63,-61.88 114.93,-92.55 8.12,-8.52 16.04,-17.57 23.65,-27.1 0,26.76 0,53.46 0.1,80.13 -26.62,31.94 -51.18,64.61 -81.18,93.92 -33.52,32.7 -73.81,60.4 -103.11,96.96 -16.97,21.11 6.32,55.66 31.41,38.69 40.29,-27.29 77.04,-63.42 111.99,-97.22 14.36,-13.93 28.3,-28.7 41.06,-44.34 0,20.88 0.17,41.73 0.24,62.51l-0.07 9.29c-49.24,82.85 -121.54,139.76 -196.02,199.73 -21.71,17.4 -2.3,52.36 23.22,37.68 50.58,-29.16 97.03,-64.78 138.42,-106 10.72,-10.72 22.38,-23.32 33.52,-36.89 -0.41,22.53 -0.84,45.17 -1.44,67.73 -18.74,24.73 -36.15,50.25 -57.84,72.87 -29.64,30.83 -66.22,49.91 -104.3,68.32 -25.26,12.33 -5.82,52.12 19.94,44.17 52.19,-16.04 102.17,-51.18 139.69,-95.18 -0.53,13.02 -0.86,26.02 -1.27,39.02 -9.65,13.09 -19.61,25.52 -31.77,36.58 -13.17,11.99 -29.9,19.51 -42.3,32.25 -17.48,17.84 2.27,40.29 22.79,37.01 18.07,-2.87 34.81,-15.46 48.98,-27.79 -2.87,97.19 -4.72,194.25 -2.51,290.6 0.84,33.18 50.25,38.85 58.01,6.34 21.62,-90.87 14.36,-193.58 15.03,-286.39 0.17,-30.74 -0.17,-61.57 -0.26,-92.31 30.4,26.76 65.28,46.28 101.7,44 26.53,-1.7 29.4,-37.25 4.91,-45.27 -45.96,-15.03 -75.77,-44.5 -106.84,-75.67 -0.43,-39.02 -1.01,-77.95 -1.7,-116.97 9.46,10.22 19.18,19.68 28.56,28.39 36.65,33.78 83.53,65.62 133.94,71.87 29.04,3.61 38.76,-33.95 11.06,-43.93 -77.78,-28.03 -130.57,-89.44 -174.9,-154.96 -0.34,-19.34 -0.34,-38.59 -0.43,-57.93 13.19,16.64 26.96,32.85 41.56,48.05 33.01,34.62 76.08,77.54 122.71,91.47 24.49,7.25 35.12,-23.05 21.62,-39.28 -29.23,-35.05 -73.81,-59.27 -106.58,-91.78 -28.8,-28.56 -53.62,-60.47 -79.14,-91.9 0.26,-13.93 0.34,-27.87 0.6,-41.8l17.64 18.51c39.12,39.36 85.99,70.26 129.73,103.78 22.46,17.14 49.75,-10.56 30.5,-32.01 -29.4,-32.58 -65.28,-58.87 -98.22,-87.74 -34.47,-30.14 -57.86,-60.47 -77.95,-99.33l0.5 -21.95c40.1,39.62 94.25,71.46 131.24,93.15 21.62,12.59 44.84,-18.65 25.93,-35.29 -33.01,-29.23 -69.5,-54.15 -102.44,-83.45 -24.49,-21.79 -39.19,-44.5 -52.36,-70.6l0.24 -12.83c34.04,34.45 77.61,59.71 125.16,68.9 26.02,4.98 35.81,-26.5 16.06,-40.86 -29.06,-21.21 -63.18,-34.21 -91.57,-56.33 -19.58,-15.13 -34.28,-33.71 -47.71,-53.46z"/>
  <path class="fil0" d="M3017.44 1955.1c81.23,52.19 191.11,49.24 283.76,64.45 24.92,4.05 40.53,-29.3 16.64,-42.4 -30.07,-16.47 -69.09,-15.97 -102.44,-19.51 -60.73,-6.32 -121.11,-14.36 -176.27,-42.06 -26.09,-13.17 -46.11,23.92 -21.69,39.52z"/>
  <path class="fil0" d="M3007.8 3720.96c-27.94,16.47 -66.12,29.8 -82.83,59.04 -10.15,17.55 7.85,41.46 27.7,34.35 52.79,-18.82 116.3,-58.68 157.26,-96.86 21.95,-20.52 36.82,-63.51 55.06,-88.27 33.01,-44.74 75.41,-76.68 132,-81.32 31.31,-2.54 30.57,-50.32 -1.1,-48.98 -60.97,2.61 -109.88,31.41 -149.31,73.23 -29.83,-2.37 -59.97,-2.3 -89.87,-2.3 -32.01,0 -65.55,-2.61 -97.03,3.14 -23.15,4.14 -21.11,41.46 1.01,45.51 27.96,5.08 57.26,2.71 85.56,2.8 20.25,0.07 40.79,0.34 61.38,0 -29.47,41.89 -53.36,72.2 -99.83,99.66z"/>
  <path class="fil0" d="M2690.93 3818.65c-138.66,34.11 -224.55,173.63 -372.52,181.41 -71.03,3.71 -157.26,-75.58 -216.1,-107.25 -28.8,-15.46 -70.86,19.85 -107.01,11.83 -51.85,-11.42 -94.42,-54.06 -135.81,-94.68 160.13,5.41 321.01,0.84 480.97,3.64 28.87,0.5 27.03,-42.4 -1.01,-44.17 -175.43,-10.56 -353.71,-13.6 -529.45,-4.84l-18.15 -13.67c-32.94,-22.22 -65.04,-37.82 -104.57,-43.33 -14.7,-2.01 -28.54,-0.41 -43.07,1.6 -33.11,4.31 -13.33,8.79 -28.54,-23.22 -3.81,-8.02 -13.36,-11.16 -21.28,-11.56 -109.12,-6.75 -145.03,-71.63 -225.92,-129.3 -21.79,-15.63 -42.06,18.07 -26.02,35.72 42.73,47.04 87.5,91.71 140.69,126.86 14.87,9.89 39.52,19.58 57.26,20.52 45.94,2.37 36.41,-14.36 54.15,24.75 3.61,8.02 13.67,11.3 21.62,11.73 45.1,1.77 75.67,-9.72 119.51,11.32 43.81,21.11 80.29,59.71 116.11,91.95 51.11,46.13 118.17,105.91 193.41,90.87 63.34,-12.66 91.04,10.22 147.54,46.04 41.03,26.02 79.05,40.96 126.93,45.94 146.2,15.37 256.32,-144.24 386.05,-183.26 31.58,-9.55 17.14,-56.76 -14.79,-48.91z"/>
  <path class="fil0" d="M1829.75 2661.05c-24.06,16.97 -2.18,51.85 23.75,38.52 34.45,-17.74 73.14,-27.03 110.39,-9.12 16.04,7.68 32.51,0 37.99,-16.64 52.62,-158.26 210.62,-265.11 217.47,-439.91 1.01,-23.82 -37.49,-28.13 -41.73,-4.57 -28.37,156.66 -158.34,261.73 -216.7,405.3 -45.1,-11.66 -91.64,-1.53 -131.17,26.43z"/>
  <path class="fil0" d="M1674.19 2622.03c-22.79,7.01 -40.27,22.98 -48.21,45.53 -3.71,10.8 5.08,22.96 15.37,25.59 12.26,3.04 21.62,-4.57 25.66,-15.37 3.04,-7.88 12.59,-11.59 19.85,-13.86l4.48 -1.01 6.77 -0.53 4.88 0.19 0.86 0c19.68,4.55 34.19,-20.28 19.49,-36.48 -12.23,-13.36 -34.11,-8.71 -49.15,-4.07z"/>
  <path class="fil0" d="M1579.94 3549.93c172.96,0.84 345.59,-3.71 518.29,-10.05 27.7,-1.1 26.69,-43.74 -1.1,-43.23 -172.77,3.81 -345.4,8.95 -518.2,10.46 -27.7,0.26 -26.43,42.73 1.01,42.83z"/>
  <path class="fil0" d="M2775.05 3701.18c-94.51,-9.62 -193.82,4.31 -288.66,6.51 -28.3,0.67 -27.1,43.4 1.1,43.83 94.85,1.6 194.32,6.58 288.74,-3.73 30.57,-3.28 28.46,-43.64 -1.17,-46.61z"/>
  <path class="fil0" d="M1845.48 2925.23c10.29,-19.77 14.1,-52.79 40.86,-62.24 25.69,-9.05 14.2,-47.14 -12.23,-40.36 -22.31,5.65 -37.85,20.76 -49.51,40.19 -4.88,8.35 -8.35,17.64 -11.73,26.69l-3.64 11.4 -0.77 3.81c-10.03,24.66 24.25,45.44 37.01,20.52z"/>
  <path class="fil0" d="M1798.51 3198.69c-26.6,-38.42 -68.73,-57 -119.41,-38.35 -24.99,9.38 -13.93,48.07 12.16,40.19 42.8,-12.83 66.79,6.85 79.31,46.2 5.22,16.21 28.37,23.72 40.19,9.62 30.81,-36.89 78.79,-66.03 125.23,-38.16 21.71,12.93 46.13,-19.68 26.29,-35.81 -54.15,-44 -117.83,-26.93 -163.77,16.3z"/>
  <path class="fil0" d="M2178.72 3241.66c-21.11,13.6 -45.01,25.09 -69.07,32.1 -44.6,13 -62.17,-24.92 -89.53,-49.99 -18.84,-17.33 -46.37,5.82 -34.11,27.7 25.26,45.01 58.94,75.31 112.66,75.51 39.86,0.07 79.65,-25.09 108.02,-50.94 18.84,-17.31 -6.85,-47.95 -27.96,-34.38z"/>
  <path class="fil0" d="M2611.38 3322.91c-23.72,-13.09 -57.43,-29.73 -85.03,-29.04 -28.9,0.74 -64.37,70.67 -82.45,62.24 -28.44,-13.09 -51.09,-69.09 -71.53,-93.08 -27.43,-32.17 -66.03,-47.81 -107.58,-44.34 -27.03,2.2 -26.43,42.4 0.93,42.23 98.63,-0.67 89.34,122.02 168.22,141.7 30.16,7.52 59.63,-5.72 75.24,-32.34 24.32,-41.63 46.2,-16.97 85.66,-5.15 25.33,7.61 39,-29.8 16.54,-42.23z"/>
  <path class="fil0" d="M3348.07 3280.28c-31.34,-4.57 -52.79,5.05 -76.01,26.09 -12.33,11.06 -22.05,25.83 -32.34,38.76 -9.05,11.49 -19.51,26.69 -27.46,26.43 -24.66,-0.41 -45.01,-6.32 -69.76,1.36 -33.95,10.46 -51.76,46.28 -59.27,78.11 -5.67,23.72 29.13,38.52 40.29,15.87 13.17,-26.86 22.02,-53.89 56.4,-46.2 16.64,3.64 35.31,11.42 52.52,6.18 52.88,-15.97 52.45,-94.51 110.98,-103.13 22.29,-3.28 31.58,-39.6 4.64,-43.47z"/>
  <path class="fil0" d="M3865.17 3001.83c27.46,13.84 37.25,38.59 59.37,57.24 23.15,19.44 54.56,10.39 79.31,0.1 24.75,-10.39 14.03,-50.18 -12.33,-40.86 -31.17,10.96 -39.36,8.69 -57.5,-16.4 -10.05,-13.93 -22.05,-27.03 -36.65,-36.39 -43,-27.7 -106.08,-34.98 -126.62,-87.67 -10.03,-25.85 -47.21,-14.79 -41.2,12.4 14.6,66.15 82.33,84.55 135.62,111.58z"/>
  <path class="fil0" d="M2440.28 2974.81c48.48,-109.12 107.51,-197.29 127.43,-318.23 4.4,-26.76 -35.05,-37.32 -41.3,-10.29 -23.05,100.67 -64.95,185.7 -119.58,272.27 -12.5,19.77 -22.31,39.79 -30.4,61.64 -28.2,75.17 -79.38,108.45 -143.73,150.17 -21.71,13.93 -6.44,47.64 18.48,40.86 107.51,-29.37 147.2,-102.1 189.1,-196.42z"/>
  <path class="fil0" d="M2115.9 2879.53c-14.29,19.68 19.58,44.53 34.19,25.09 73.83,-98.13 193.24,-141.96 234.63,-264.84 48.29,-143.9 166.28,-247.03 203.61,-396.51 7.01,-27.87 -34.98,-38.09 -42.9,-10.8 -38.85,132.58 -142.13,217.97 -189.7,343.46 -28.11,74.14 -52.09,127.19 -112.9,180.05 -45.6,39.62 -91.31,74.16 -126.93,123.55z"/>
  <path class="fil0" d="M2392.31 1380.24c-14.94,8.69 -66.62,-34.64 -96.19,-24.99 -33.11,10.8 -61.41,31.82 -87.33,54.53 -18.24,15.97 7.01,46.63 26.6,32.77 18.24,-12.74 37.01,-24.99 56.33,-36.15 43.43,-24.9 58.96,26.53 95.69,25.69 19.85,-0.5 39.28,-15.97 55.76,-25.16 39.86,-22.31 63.34,8.76 92.48,27.94 23.13,15.3 46.35,-19.51 27.77,-37.82 -55.83,-55.4 -105.98,-54.22 -171.1,-16.81z"/>
  <path class="fil0" d="M3040.9 1223.58c21.71,13.33 43.26,-18 25.69,-35.05 -43,-41.73 -103.63,-43.16 -149.74,-11.32 -45.94,-43.4 -93.48,-27.87 -148.31,7.35 -25.66,16.47 -1.94,53.29 24.59,39.76 42.97,-22.02 67.49,-43.57 105.48,2.37 8.12,9.89 25.42,7.78 33.44,-0.84 36.22,-38.76 69.59,-26.36 108.85,-2.27z"/>
  <path class="fil0" d="M3641.79 1370.61c-19.65,19.92 10.82,48.12 31.1,29.64 39.69,-36.15 83.36,-54.65 137.22,-48.48 27.46,3.28 39.02,-35.38 10.72,-42.83 -67.56,-17.48 -132.41,14.03 -179.04,61.67z"/>
  <path class="fil0" d="M3130.94 1769.4c26.09,11.56 47.47,-25.18 21.71,-39.36 -69.59,-38.09 -150.24,-12.83 -205.47,38.93 -18.07,17.07 6.99,48.31 27.43,33.78 47.81,-34.21 97.96,-59.11 156.33,-33.35z"/>
  <path class="fil0" d="M1397.62 1579.46c-19.61,14.1 -6.85,49.99 18.15,40.46 51.85,-19.44 99.23,-28.8 147.8,4.88 21.02,14.6 44.67,-18.91 26.09,-35.55 -51.95,-46.28 -135.04,-50.92 -192.04,-9.79z"/>
  <path class="fil0" d="M1912.03 1804.61c26.43,7.42 55.23,4.14 82.33,3.71 29.8,-0.43 59.54,-1.01 89.18,-2.54 28.39,-1.27 26.79,-42.13 -1.01,-43.4 -29.73,-1.44 -59.61,-2.03 -89.44,-2.54 -27.2,-0.34 -55.56,-3.38 -81.99,4.05 -20.71,5.91 -18.58,35.14 0.93,40.72z"/>
  <path class="fil0" d="M1906.12 1911.03c51.16,11.99 115.01,6.49 167.12,1.94 29.23,-2.54 27.29,-42.13 -1.1,-44.6 -52.19,-4.55 -115.7,-9.7 -167.05,2.3 -20.52,4.81 -18.41,35.79 1.03,40.36z"/>
  <path class="fil0" d="M1877.32 2014.73c32.41,0.26 66.62,-2.44 99.13,0.84l10.99 1.77c39.93,2.2 80.22,0.77 120.34,0.34 30.83,-0.34 29.47,-47.38 -1.27,-47.71 -40.03,-0.41 -80.22,-1.94 -120.27,0.34l-10.56 1.6c-32.75,2.87 -66.7,0.77 -99.4,1.03 -27.1,0.17 -25.93,41.63 1.03,41.8z"/>
  <path class="fil0" d="M1856.71 2131.53c89.34,7.85 181.99,3.45 271.59,0.77 28.13,-0.77 26.69,-42.49 -1.1,-43.33 -89.61,-2.63 -182.25,-7.09 -271.5,0.84 -27.2,2.44 -25.42,39.45 1.01,41.73z"/>
  <path class="fil0" d="M1798.27 2248.74c102.17,10.82 210.29,5 312.82,0.86 28.61,-1.1 27.1,-43 -1.1,-44.1 -102.53,-4.14 -210.55,-10.05 -312.75,0.93 -27.77,2.87 -25.76,39.43 1.03,42.3z"/>
  <path class="fil0" d="M1710.17 2357.86c103.2,20.44 220.68,6.08 325.24,1.27 28.11,-1.27 26.6,-41.89 -1.03,-43.14 -104.81,-4.91 -221.85,-18.94 -325.15,1.51 -20.52,4.05 -18.65,36.48 0.93,40.36z"/>
  <path class="fil0" d="M1596.75 2474.83c55.16,9.55 111.75,5.84 167.55,5.91 62.67,0 126.35,3.04 188.76,-4.21 22.81,-2.63 31.34,-40.63 4.74,-43.59 -55.76,-6.42 -111.82,-4.88 -167.82,-4.88 -64.52,0.07 -130.57,-4.81 -194.25,6.25 -20.52,3.54 -18.67,37.08 1.01,40.53z"/>
  <path class="fil0" d="M1673.45 2532.19c-55.59,-2.71 -115.7,-9.22 -170.62,1.77 -20.59,4.05 -18.65,36.72 1.03,40.63 54.63,10.89 115.27,4.12 170.67,1.44 28.46,-1.44 26.86,-42.49 -1.08,-43.83z"/>
  <path class="fil0" d="M1911.77 2582.77c28.2,-1.2 26.69,-42.49 -1.1,-43.59 -43.07,-1.68 -87.83,-5.91 -130.64,0.53 -21.55,3.21 -30.5,37.99 -4.64,41.87 44.91,6.85 91.21,2.97 136.38,1.2z"/>
  <path class="fil0" d="M1535.94 2635.97c-64.95,-0.41 -134.01,-6.92 -198.03,4.24 -20.95,3.61 -19.01,37.66 0.93,41.13 64.01,11.23 133.51,4.38 198.29,3.95 31.91,-0.07 30.57,-49.22 -1.2,-49.32z"/>
  <path class="fil0" d="M1073.4 2820.76c-30.91,0.1 -62.51,-2.2 -92.98,4.38 -20.61,4.57 -18.67,36.41 1.08,40.72 26.45,5.82 53.65,4.05 80.68,4.14 29.04,0.07 58.44,1.44 87.4,-2.54 22.46,-3.04 31.41,-39.86 4.72,-43.5 -26.93,-3.64 -53.79,-3.28 -80.89,-3.21z"/>
  <path class="fil0" d="M1107.18 2914.41c-91.71,-3.04 -184.12,-5.55 -275.74,0.43 -27.12,1.77 -25.52,39.86 0.91,41.56 91.64,5.91 184.12,3.45 275.93,0.41 27.43,-0.93 26,-41.46 -1.1,-42.4z"/>
  <path class="fil0" d="M1785.58 3108.75c75.43,10.22 159.63,7.18 235.3,0.5 28.2,-2.37 26.36,-40.7 -1.1,-43.16 -73.47,-6.25 -156.23,-9.89 -229.46,-0.07 -22.12,3.04 -30.91,39.19 -4.74,42.73z"/>
  <path class="fil0" d="M2112.6 3071.5c-27.79,1.34 -26.19,41.39 1.1,42.73 17.24,0.77 34.21,1.44 51.52,0.17 28.03,-2.03 26.26,-41.03 -1.1,-43.07 -17.24,-1.17 -34.28,-0.67 -51.52,0.17z"/>
  <path class="fil0" d="M2290.47 2968.03c-74.33,-6.08 -152.38,-3.21 -226.85,0.53 -27.53,1.44 -26.02,41.03 1.1,42.4 74.48,3.71 152.42,6.58 226.83,0.57 28.39,-2.35 26.53,-41.3 -1.08,-43.5z"/>
  <path class="fil0" d="M2378.11 2866.46c-47.45,-3.97 -99.56,-3.81 -146.85,1.44 -28.06,3.04 -26.02,39.76 0.91,42.64 47.54,5.24 99.59,5.41 147.04,1.44 29.73,-2.54 27.63,-43 -1.1,-45.51z"/>
  <path class="fil0" d="M2428.36 2796.6c2.63,-10.89 -4.21,-24.83 -16.04,-26.69 -25.59,-3.95 -55.83,-6.66 -80.99,1.1 -20.78,6.34 -18.67,34.81 0.93,40.89 23.13,7.09 51.76,4.98 75.34,1.34 9.79,-1.44 18.15,-6.25 20.76,-16.64z"/>
  <path class="fil0" d="M2454.05 2706.4c2.71,-10.8 -4.24,-24.73 -15.97,-26.6 -13.09,-2.01 -24.32,-2.44 -37.15,0.93 -20.88,5.41 -18.74,35.72 0.93,40.86 10.72,2.71 20.52,3.04 31.5,1.36 9.79,-1.53 18.05,-6.25 20.68,-16.57z"/>
  <path class="fil1" d="M1120.35 1054.06c-93.05,134.64 167.39,38.78 0,0z"/>
 </g>
</svg>
