<?xml version="1.0" encoding="UTF-8"?>
<svg xmlns="http://www.w3.org/2000/svg" xml:space="preserve" width="0.747335in" height="0.747315in" version="1.1" style="shape-rendering:geometricPrecision; text-rendering:geometricPrecision; image-rendering:optimizeQuality; fill-rule:evenodd; clip-rule:evenodd"
viewBox="0 0 180.14 180.14"
 xmlns:xlink="http://www.w3.org/1999/xlink"
 xmlns:xodm="http://www.corel.com/coreldraw/odm/2003">
 <defs>
  <style type="text/css">
   <![CDATA[
    .fil1 {fill:none;fill-rule:nonzero}
    .fil0 {fill:black;fill-rule:nonzero}
   ]]>
  </style>
 </defs>
 <g id="Layer_x0020_1">
  <metadata id="CorelCorpID_0Corel-Layer"/>
  <path class="fil0" d="M30.29 141.71l-0.47 -0.55 1.05 -0.43 -0.59 0.98zm3.4 -3.29l-0.1 -0.12c-0.23,-0.26 -0.6,-0.35 -0.93,-0.22l-6.45 2.62 -0.45 0.46 0.02 0.64 0.06 0.13c0.18,0.4 0.65,0.59 1.05,0.42l1.2 -0.48 1.25 1.45 -0.67 1.11c-0.23,0.38 -0.11,0.86 0.26,1.1l0.12 0.08 0.45 0.13 0.18 -0.02 0.52 -0.38 3.59 -5.98c0.18,-0.3 0.15,-0.68 -0.08,-0.95z"/>
  <path class="fil0" d="M33.17 147.49l4.02 -4.11c0.31,-0.32 0.31,-0.84 -0.01,-1.15l-0.1 -0.1 -0.58 -0.24 -0.58 0.25 -4.69 4.79 -0.23 0.58 0.24 0.57 2.16 2.11 0.58 0.24 0.58 -0.24 0.1 -0.1 0.23 -0.59 -0.25 -0.58 -1.47 -1.44z"/>
  <path class="fil0" d="M41.93 146.65c-0.35,-0.29 -0.87,-0.23 -1.15,0.12l-4.24 5.19c-0.29,0.35 -0.23,0.87 0.11,1.15l2.33 1.91 0.52 0.18 0.63 -0.29 0.09 -0.1 0.18 -0.6 -0.3 -0.56 -1.59 -1.3 3.64 -4.45 0.18 -0.6 -0.3 -0.55 -0.11 -0.09z"/>
  <path class="fil0" d="M55.65 156.96l0.07 -0.13c0.22,-0.39 0.07,-0.89 -0.32,-1.11l-2.64 -1.46c-0.4,-0.22 -0.9,-0.08 -1.11,0.31l-3.26 5.87c-0.22,0.39 -0.08,0.89 0.32,1.11l0.12 0.07 0.4 0.1 0.22 -0.03 0.49 -0.39 1.36 -2.44 1.79 1 0.63 0.07 0.49 -0.39 0.07 -0.13c0.22,-0.39 0.07,-0.89 -0.32,-1.11l-1.79 -1 0.56 -1.02 1.8 1 0.62 0.07 0.49 -0.39z"/>
  <path class="fil0" d="M59.8 160.85l-1.2 2.69 -0.53 0.51 -0.72 -0.02 -0.51 -0.53 0.02 -0.73 1.2 -2.7 0.53 -0.5 0.34 -0.07 0.39 0.09 0.5 0.53 -0.02 0.73zm1.68 -1.37c-0.27,-0.7 -0.76,-1.21 -1.44,-1.51 -0.68,-0.3 -1.4,-0.32 -2.1,-0.05 -0.7,0.27 -1.2,0.75 -1.51,1.44l-1.19 2.7c-0.3,0.67 -0.32,1.4 -0.05,2.08 0.26,0.7 0.75,1.21 1.45,1.52 0.36,0.16 0.73,0.24 1.1,0.24 0.33,0 0.66,-0.06 0.98,-0.18 0.69,-0.26 1.22,-0.77 1.52,-1.44l1.19 -2.69c0.3,-0.68 0.32,-1.4 0.05,-2.1z"/>
  <path class="fil0" d="M66.22 163.26c-0.16,0.48 -0.37,0.59 -0.53,0.63l-0.77 -0.07 -0.81 -0.28 0.61 -1.8 0.82 0.27 0.64 0.41c0.1,0.14 0.2,0.36 0.05,0.82zm-0.11 -2.93l-1.72 -0.59 -0.63 0.04 -0.41 0.47 -2.16 6.36 0.04 0.62 0.48 0.42 0.13 0.05c0.43,0.14 0.89,-0.08 1.04,-0.51l0.66 -1.94 0.75 0.25 0.35 2.71c0.06,0.41 0.41,0.71 0.81,0.71l0.07 -0 0.14 -0.01 0.56 -0.3 0.17 -0.62 -0.3 -2.33c0.84,-0.2 1.47,-0.82 1.81,-1.8 0.4,-1.18 0.06,-1.99 -0.3,-2.46 -0.35,-0.48 -0.85,-0.82 -1.5,-1.04z"/>
  <path class="fil0" d="M79.16 169.24l-0.37 0.63 -0.7 0.17 -0.63 -0.37 -0.17 -0.71 0.44 -2.91 0.37 -0.62 0.55 -0.19 0.17 0.01 0.62 0.37 0.18 0.7 -0.44 2.91zm-0.1 -5.76c-0.75,-0.11 -1.44,0.06 -2.04,0.51 -0.59,0.44 -0.96,1.06 -1.08,1.8l-0.43 2.91c-0.11,0.74 0.06,1.44 0.5,2.03 0.44,0.59 1.06,0.97 1.79,1.07l0.43 0.03c0.58,0 1.12,-0.18 1.59,-0.54 0.6,-0.44 0.97,-1.06 1.08,-1.8l0.43 -2.91c0.11,-0.73 -0.07,-1.43 -0.51,-2.03 -0.45,-0.61 -1.05,-0.97 -1.79,-1.08z"/>
  <path class="fil0" d="M87.56 164.36l-0.15 -0.01c-0.45,-0.01 -0.84,0.32 -0.86,0.77l-0.29 4.78 -0.32 0.66c-0.18,0.16 -0.38,0.24 -0.68,0.23l-0.66 -0.32 -0.23 -0.69 0.28 -4.78 -0.21 -0.6 -0.56 -0.27 -0.14 -0.01c-0.46,-0.02 -0.83,0.32 -0.86,0.77l-0.28 4.78c-0.04,0.74 0.19,1.42 0.68,1.97 0.5,0.56 1.13,0.87 1.89,0.91l0.17 0c0.68,0 1.29,-0.23 1.8,-0.68 0.57,-0.5 0.87,-1.14 0.92,-1.88l0.28 -4.78 -0.21 -0.6 -0.57 -0.27z"/>
  <path class="fil0" d="M93.03 167.76c-0.17,0.12 -0.43,0.19 -0.74,0.2l-0.86 0.02 -0.05 -1.9 0.92 -0.03 0.68 0.16c0.15,0.09 0.32,0.26 0.33,0.76 0.02,0.5 -0.14,0.68 -0.28,0.78zm1 1.49c0.72,-0.48 1.1,-1.28 1.07,-2.32 -0.04,-1.23 -0.64,-1.88 -1.15,-2.2 -0.46,-0.3 -1.01,-0.45 -1.64,-0.45l-1.95 0.05 -0.57 0.26 -0.22 0.58 0.19 6.7 0.26 0.57 0.56 0.22 0.03 0 0.15 -0.01c0.45,-0.02 0.8,-0.39 0.79,-0.84l-0.06 -2.06 0.79 -0.02 1.28 2.4c0.2,0.39 0.68,0.55 1.08,0.35l0.13 -0.06 0.42 -0.48 -0.05 -0.64 -1.1 -2.08z"/>
  <path class="fil0" d="M108.86 169.04l-0.62 -0.12 -1.08 0.23c-0.33,0.07 -0.59,0.05 -0.76,-0.06 -0.17,-0.12 -0.3,-0.34 -0.37,-0.68l-0.6 -2.88c-0.1,-0.49 0.02,-0.69 0.07,-0.76 0.04,-0.06 0.17,-0.26 0.67,-0.36l1.08 -0.22c0.44,-0.1 0.72,-0.53 0.63,-0.97l-0.03 -0.15 -0.35 -0.51 -0.61 -0.12 -1.08 0.23c-0.8,0.17 -1.41,0.55 -1.8,1.14 -0.38,0.58 -0.49,1.28 -0.32,2.09l0.61 2.89c0.17,0.8 0.55,1.41 1.13,1.79 0.4,0.27 0.87,0.4 1.39,0.4l0.71 -0.08 1.08 -0.23c0.44,-0.09 0.72,-0.52 0.64,-0.96l-0.03 -0.13 -0.35 -0.52z"/>
  <path class="fil0" d="M114.35 166.97l-0.56 0.45 -0.3 0.05 -0.43 -0.12 -0.46 -0.56 -0.86 -2.82 0.07 -0.72 0.57 -0.46 0.29 -0.05 0.44 0.12 0.45 0.56 0.86 2.82 -0.07 0.74zm0.91 -4.07c-0.22,-0.72 -0.67,-1.26 -1.33,-1.61 -0.66,-0.35 -1.37,-0.42 -2.08,-0.2 -0.72,0.22 -1.26,0.66 -1.62,1.33 -0.35,0.66 -0.42,1.36 -0.2,2.08l0.86 2.82c0.22,0.71 0.68,1.27 1.33,1.61 0.4,0.22 0.83,0.32 1.27,0.32l0.82 -0.13c0.72,-0.22 1.27,-0.66 1.61,-1.33 0.35,-0.66 0.42,-1.37 0.2,-2.08l-0.86 -2.82z"/>
  <path class="fil0" d="M120.95 158.66l-0.45 -0.46 -0.63 0 -0.14 0.06c-0.42,0.17 -0.61,0.65 -0.44,1.06l1.8 4.44 -0 0.74 -0.52 0.51 -0.73 -0 -0.51 -0.53 -1.8 -4.44 -0.44 -0.44 -0.63 -0 -0.13 0.06c-0.42,0.17 -0.62,0.65 -0.45,1.06l1.8 4.44c0.28,0.7 0.78,1.2 1.47,1.49 0.35,0.14 0.7,0.22 1.06,0.22 0.34,0 0.7,-0.07 1.04,-0.21 0.69,-0.28 1.2,-0.79 1.49,-1.47 0.29,-0.69 0.3,-1.39 0.01,-2.09l-1.8 -4.44z"/>
  <path class="fil0" d="M126.92 155.64c-0.21,-0.4 -0.7,-0.56 -1.1,-0.35l-0.13 0.07 -0.41 0.47 0.05 0.63 1.46 2.84 -3.42 -2.28 -0.82 -0.04 -0.14 0.07 -0.4 0.48 0.05 0.63 3.04 5.9 0.48 0.41 0.25 0.03 0.38 -0.09 0.13 -0.07c0.4,-0.21 0.56,-0.7 0.35,-1.1l-1.47 -2.84 3.42 2.28 0.82 0.04 0.14 -0.07 0.4 -0.48 -0.05 -0.62 -3.04 -5.9z"/>
  <path class="fil0" d="M131.39 151.81l-3.11 1.97c-0.38,0.24 -0.49,0.75 -0.25,1.13l0.08 0.13 0.52 0.36 0.61 -0.11 0.81 -0.51 3.07 4.85 0.69 0.38 0.44 -0.13 0.13 -0.08 0.36 -0.51 -0.11 -0.62 -3.08 -4.85 0.8 -0.51c0.38,-0.24 0.49,-0.74 0.25,-1.12l-0.08 -0.13 -0.51 -0.35 -0.62 0.1z"/>
  <path class="fil0" d="M137.92 151.39l-0.48 0.6 -0.68 0.52 -1.16 -1.51 0.68 -0.52 0.7 -0.3 0.01 -0.15 0.03 0 0 0.15c0.15,0 0.38,0.05 0.67,0.43 0.31,0.4 0.28,0.63 0.23,0.79zm3.79 1.67l-2.11 -1.04c0.3,-0.81 0.14,-1.67 -0.5,-2.5 -0.72,-0.92 -1.53,-1.12 -2.08,-1.12l-0.14 0c-0.59,0.03 -1.15,0.25 -1.69,0.67l-1.44 1.11c-0.36,0.27 -0.43,0.78 -0.15,1.14l4.08 5.33 0.65 0.32 0.5 -0.17 0.11 -0.09 0.32 -0.54 -0.16 -0.6 -1.25 -1.64 0.63 -0.48 2.44 1.2c0.4,0.2 0.88,0.04 1.08,-0.35l0.07 -0.13 0.06 -0.63 -0.41 -0.48z"/>
  <path class="fil0" d="M139.05 147.84l3.66 0.83 2.06 2.24 0.6 0.26 0.55 -0.21 0.11 -0.1 0.27 -0.57 -0.21 -0.59 -2.06 -2.24 -0.52 -3.71c-0.06,-0.45 -0.47,-0.75 -0.91,-0.7l-0.15 0.02 -0.55 0.31 -0.16 0.61 0.38 2.72 -2.68 -0.61 -0.62 0.11 -0.36 0.51 -0.03 0.15c-0.09,0.44 0.18,0.87 0.62,0.97z"/>
  <path class="fil0" d="M48.53 37.88l0.54 0.33 0.13 0.01 0.48 -0.15 0.17 -0.12c0.36,-0.26 0.45,-0.77 0.19,-1.14l-3.55 -4.98 6.74 3.2 0.82 -0.07 0.19 -0.13c0.37,-0.26 0.45,-0.77 0.19,-1.14l-5.63 -7.88 -0.53 -0.34 -0.61 0.14 -0.18 0.13c-0.37,0.26 -0.45,0.78 -0.19,1.14l3.55 4.98 -6.73 -3.21 -0.82 0.08 -0.19 0.13 -0.33 0.53 0.14 0.61 5.63 7.88z"/>
  <path class="fil0" d="M59.07 31.13c0.14,0.3 0.43,0.47 0.74,0.47l0.35 -0.08 3.99 -1.88 0.42 -0.47 -0.03 -0.62 -0.09 -0.18c-0.19,-0.4 -0.68,-0.59 -1.09,-0.39l-3.06 1.44 -1.51 -3.2 2.09 -0.99c0.41,-0.19 0.59,-0.68 0.4,-1.09l-0.09 -0.19 -0.46 -0.42 -0.63 0.03 -2.09 0.98 -1.04 -2.22 3.06 -1.44c0.41,-0.19 0.58,-0.67 0.39,-1.08l-0.09 -0.2 -0.46 -0.42 -0.63 0.03 -3.99 1.87 -0.42 0.46 0.03 0.63 4.21 8.95z"/>
  <path class="fil0" d="M73.77 24.18c-0.29,0.29 -0.59,0.47 -0.91,0.56l-1.71 0.45 -0.9 -3.42 1.89 -0.5c1.12,-0.08 1.71,0.3 1.98,1.3 0.18,0.67 0.07,1.17 -0.34,1.6zm-4 -4.2l-0.62 -2.37 1.71 -0.45c0.33,-0.09 0.61,-0.09 0.86,-0.02 0.24,0.07 0.54,0.23 0.7,0.87 0.11,0.41 0.04,0.74 -0.22,1.05 -0.28,0.33 -0.43,0.39 -0.45,0.39l-1.97 0.52zm6.13 2.12c-0.31,-1.16 -0.96,-1.98 -1.89,-2.39 0.33,-0.64 0.41,-1.37 0.19,-2.17 -0.38,-1.44 -1.28,-1.98 -1.98,-2.18 -0.58,-0.16 -1.2,-0.16 -1.84,0.01l-2.71 0.71 -0.5 0.38 -0.08 0.62 2.52 9.57c0.1,0.36 0.43,0.6 0.79,0.6l0.21 -0.02 2.71 -0.72c0.63,-0.16 1.23,-0.51 1.76,-1.04 0.88,-0.89 1.16,-2.06 0.82,-3.37z"/>
  <path class="fil0" d="M84.08 14.91c0.53,-0.04 0.97,0.03 1.31,0.23 0.27,0.16 0.65,0.48 0.72,1.37 0.07,0.92 -0.25,1.29 -0.49,1.49 -0.31,0.24 -0.74,0.39 -1.27,0.42l-1.63 0.13 -0.28 -3.52 1.63 -0.13zm-2.5 9.56l0.53 0.2 0.06 -0.01 0.21 -0.02c0.45,-0.04 0.78,-0.43 0.75,-0.88l-0.26 -3.36 1.63 -0.13 0.13 -0.01 2.15 3.63c0.22,0.38 0.71,0.52 1.1,0.3l0.18 -0.1 0.39 -0.5 -0.08 -0.63 -1.93 -3.27c1.1,-0.66 1.64,-1.8 1.52,-3.31 -0.12,-1.64 -0.96,-2.44 -1.63,-2.84 -0.67,-0.39 -1.47,-0.55 -2.39,-0.48l-2.65 0.2 -0.56 0.28 -0.19 0.6 0.76 9.76 0.28 0.56z"/>
  <path class="fil0" d="M97.57 17.04l0.73 3.24 -2.09 -0.2 1.36 -3.03zm-4.29 7.12l0.19 0.08c0.41,0.16 0.87,-0.02 1.05,-0.42l0.89 -1.97 3.31 0.33 0.48 2.11c0.09,0.38 0.42,0.64 0.8,0.64l0.15 -0.01 0.21 -0.04 0.53 -0.35 0.11 -0.63 -2.24 -9.93c-0.08,-0.34 -0.37,-0.6 -0.71,-0.63l-0.23 -0.02c-0.35,-0.03 -0.69,0.16 -0.83,0.48l-4.16 9.27 -0.01 0.65 0.46 0.45z"/>
  <path class="fil0" d="M107.12 26.19c0.6,0.41 1.2,0.7 1.8,0.88 0.3,0.09 0.61,0.13 0.9,0.13 0.57,0 1.11,-0.16 1.61,-0.5 0.65,-0.43 1.08,-1 1.28,-1.71 0.23,-0.81 0.25,-2.04 -1.03,-3.29 -0.47,-0.44 -0.88,-0.82 -1.24,-1.14l-0.88 -0.79c-0.66,-0.62 -0.63,-1.1 -0.52,-1.46 0.09,-0.3 0.25,-0.53 0.52,-0.7 0.31,-0.2 0.66,-0.23 1.11,-0.1 0.21,0.06 0.76,0.3 2.01,1.17 0.3,0.22 0.71,0.19 0.99,-0.05l0.17 -0.14 0.28 -0.57 -0.22 -0.61c-0.69,-0.72 -1.61,-1.26 -2.72,-1.58 -0.97,-0.27 -1.88,-0.16 -2.64,0.34 -0.63,0.42 -1.06,1 -1.27,1.73 -0.27,0.92 -0.13,1.82 0.4,2.6l0.06 0.08 0.49 0.52 0.47 0.46 1.33 1.23 0.55 0.55 0.28 0.37c0.15,0.27 0.18,0.55 0.09,0.86l-0.53 0.69c-0.3,0.2 -0.61,0.24 -0.98,0.13 -0.14,-0.04 -0.71,-0.28 -2.45,-1.73 -0.29,-0.25 -0.72,-0.26 -1.03,-0.02l-0.16 0.13c-0.35,0.28 -0.42,0.79 -0.14,1.15 0.38,0.5 0.88,0.95 1.48,1.37z"/>
  <path class="fil0" d="M116.96 29.88l0.19 0.09 0.63 0.04 0.47 -0.41 1.52 -3.05 1.35 -0.52 0.2 5.59c0.01,0.44 0.37,0.78 0.81,0.78l0.23 0 0.58 -0.25 0.22 -0.6 -0.22 -6.23 3.96 -1.54c0.42,-0.16 0.63,-0.63 0.47,-1.05l-0.08 -0.2 -0.43 -0.45 -0.63 -0.01 -5.23 2.03 1.57 -3.15c0.2,-0.41 0.04,-0.9 -0.37,-1.1l-0.19 -0.09 -0.63 -0.05 -0.47 0.41 -4.32 8.67c-0.2,0.4 -0.04,0.9 0.37,1.1z"/>
  <path class="fil0" d="M134.06 31.26l-1.04 3.15 -1.68 -1.26 2.73 -1.89zm-7.5 3.26l0.15 0.62 0.13 0.17c0.26,0.35 0.76,0.43 1.12,0.18l1.78 -1.23 2.67 2 -0.68 2.05c-0.14,0.42 0.08,0.86 0.48,1.02l0.2 0.07 0.29 0.05 0.35 -0.08 0.43 -0.48 3.2 -9.66c0.11,-0.34 -0,-0.71 -0.29,-0.92l-0.18 -0.14 -0.96 -0.02 -8.35 5.8 -0.34 0.54z"/>
  <path class="fil0" d="M123.78 71.06c-2.06,0.07 -3.68,-0.2 -5.47,-0.93 0.07,-1.63 0.08,-3.25 0.03,-4.85 3.81,2.11 9.14,2.17 13.03,0.18 -0.14,0.88 -0.27,1.76 -0.39,2.65 -1.04,0.38 -2.1,0.38 -3.21,0.34 -1.01,-0.04 -1.08,1.43 -0.19,1.69 1.06,0.31 2.14,0.48 3.12,0.2 -0.23,2.06 -0.4,4.15 -0.54,6.25 -0.95,0.03 -1.85,-0.08 -2.81,-0.16 -0.71,-0.06 -1.14,1.04 -0.56,1.47 0.94,0.7 2.12,1.02 3.24,0.81 -0.03,0.58 -0.06,1.15 -0.09,1.72l-0.85 -0.19c-0.72,-0.3 -1.67,0.41 -1.11,1.18 0.46,0.63 0.96,0.99 1.8,1.04l0.06 -0c-0.17,3.75 -0.31,7.43 -0.54,10.89 -3.54,-1.97 -8.53,-1.99 -12.16,-0.14 0.03,-0.76 0.07,-1.52 0.1,-2.27 0.16,-3.62 0.32,-7.23 0.49,-10.85 0.11,-2.51 0.31,-5.06 0.46,-7.62 1.79,0.86 4,0.88 5.87,0.38 1,-0.27 0.74,-1.82 -0.29,-1.78zm-19.21 0.84c-0.44,-0.01 -0.87,-0.05 -1.3,-0.09 0.01,-0.62 0.02,-1.24 0.02,-1.87 1.24,0.39 2.77,0.22 3.91,-0.07 1.02,-0.25 0.72,-1.78 -0.28,-1.77 -0.68,0 -1.35,-0.04 -2.03,-0.15 -0.61,-0.1 -1.11,-0.32 -1.63,-0.59 -0.02,-0.69 -0.06,-1.37 -0.1,-2.06 3.83,2.09 9.17,2.13 13.04,0.12 -0.37,2.8 -0.6,5.7 -0.74,8.62 -0.67,0.1 -1.33,0.19 -2.01,0.22 -0.88,0.04 -1.77,-0.1 -2.65,-0.04 -1.17,0.09 -1.3,1.63 -0.22,1.99 1.43,0.48 3.32,0.61 4.79,-0.02 -0.03,0.86 -0.05,1.71 -0.07,2.57 -0.64,0.12 -1.3,0.07 -1.91,-0.17 -0.97,-0.37 -1.38,1.08 -0.63,1.59 0.78,0.53 1.66,0.75 2.5,0.63 -0.07,4.3 -0.07,8.54 -0.21,12.49 -3.56,-1.95 -8.54,-1.94 -12.15,-0.07 0.01,-0.77 0.02,-1.54 0.03,-2.3 0.04,-3.62 0.09,-7.24 0.12,-10.85 0.02,-2.07 0.1,-4.17 0.17,-6.27 0.61,0.09 1.24,0.02 1.84,-0.26 0.86,-0.4 0.32,-1.63 -0.49,-1.64zm-8.87 -0.41c1.63,0.63 3.36,0.81 4.93,0.28 -0.02,0.59 -0.03,1.18 -0.05,1.76 -0.47,0.06 -0.96,0.01 -1.4,-0.06 -1.01,-0.17 -1.43,1.04 -0.64,1.61 0.62,0.44 1.33,0.61 2.01,0.53 -0.03,6.04 0.24,12.13 0.24,17.65 -3.62,-1.95 -8.69,-1.9 -12.3,0.07 -0.05,-4.48 0.09,-9.33 0.1,-14.23 0.35,0.02 0.71,-0.01 1.02,-0.15 0.37,-0.16 0.65,-0.44 0.64,-0.87 -0.01,-0.38 -0.29,-0.79 -0.68,-0.85 -0.33,-0.06 -0.66,-0.15 -0.99,-0.23 -0.01,-0.92 -0.02,-1.83 -0.04,-2.75 1.2,0.26 2.58,0.04 3.63,-0.39 0.9,-0.37 0.81,-1.86 -0.28,-1.79 -0.76,0.05 -1.52,0.08 -2.27,0.04 -0.39,-0.03 -0.77,-0.12 -1.15,-0.22 -0.03,-0.83 -0.07,-1.66 -0.13,-2.48 0.64,0.12 1.27,0.06 1.9,-0.26 0.35,-0.18 0.5,-0.66 0.39,-1.02 -0.13,-0.42 -0.48,-0.6 -0.88,-0.64 -0.4,-0.04 -0.82,-0.14 -1.21,-0.24l-0.37 -0.15c-0.05,-0.58 -0.11,-1.17 -0.17,-1.74 3.85,2.05 9.19,2.07 13.04,0.03 -0.14,1.39 -0.24,2.82 -0.32,4.24 -1.47,0.48 -3.08,0.34 -4.6,0.16 -1.12,-0.14 -1.47,1.28 -0.42,1.69zm-15.43 0.21c1.63,0.42 3.8,0.3 5.39,-0.59 -0,0.54 0,1.08 0,1.62 -0.61,0.27 -1.23,0.45 -1.95,0.58 -0.9,0.16 -0.69,1.42 0.04,1.64 0.66,0.21 1.33,0.17 1.95,-0.03 0.04,1.93 0.12,3.86 0.22,5.79 -0.43,0.09 -0.88,0.11 -1.34,0.05 -1.08,-0.15 -1.5,1.37 -0.41,1.66 0.61,0.16 1.25,0.26 1.86,0.19 0.19,3.66 0.42,7.25 0.54,10.63 -3.63,-1.93 -8.7,-1.85 -12.29,0.14 -0.23,-5.25 -0.24,-11.01 -0.49,-16.75 1.66,0.53 3.81,0.21 5.05,-0.69 0.67,-0.49 0.49,-1.9 -0.52,-1.74 -1.63,0.26 -3.17,0.53 -4.66,-0.09 -0.07,-1.24 -0.16,-2.47 -0.26,-3.7 0.48,0.03 0.98,-0.08 1.43,-0.35 0.61,-0.35 0.53,-1.5 -0.25,-1.59 -0.37,-0.05 -0.91,0.02 -1.37,-0.04 -0.11,-1.02 -0.23,-2.03 -0.37,-3.03 3.87,2.03 9.2,2.01 13.03,-0.04 -0.07,1 -0.12,2.02 -0.15,3.04 -0.8,0.48 -1.56,0.87 -2.48,1.12 -0.97,0.25 -2.01,0.32 -2.99,0.49 -0.89,0.16 -0.74,1.49 0.04,1.69zm-12.14 -2.47c0.64,0.73 1.68,0.82 2.63,0.58 0.11,2.33 0.31,4.67 0.47,6.98 -0.63,0.13 -1.26,0.23 -1.91,0.24 -0.68,0.02 -1.36,-0.15 -2.04,-0.18 -0.92,-0.05 -1.03,1.17 -0.39,1.6 1.29,0.86 3.04,0.84 4.48,0.28l0.04 0.6c0.03,0.5 0.05,0.99 0.08,1.48l-0.28 0.05c-0.52,0.04 -1.05,-0.04 -1.57,-0.04 -0.95,-0.01 -1.03,1.16 -0.39,1.63 0.68,0.5 1.54,0.63 2.36,0.51 0.14,2.49 0.27,4.97 0.41,7.46 0.05,0.91 0.1,1.82 0.15,2.73 -3.7,-1.86 -8.77,-1.7 -12.31,0.37 -0.42,-5.9 -0.58,-12.44 -1.1,-18.88 1.71,0.43 3.79,0.05 5.25,-0.53 0.94,-0.37 0.82,-1.88 -0.29,-1.83 -0.99,0.03 -1.98,0.14 -2.97,0.15 -0.75,0.02 -1.47,-0.08 -2.2,-0.17 -0.03,-0.33 -0.06,-0.66 -0.1,-0.97 1.13,0.15 2.39,-0.18 3.31,-0.76 0.92,-0.58 0.24,-1.88 -0.75,-1.66 -0.65,0.14 -1.31,0.19 -1.98,0.18 -0.31,-0 -0.59,-0.1 -0.87,-0.2 -0.15,-1.15 -0.32,-2.28 -0.51,-3.4 3.89,2.01 9.23,1.97 13.05,-0.11 -0.02,0.75 -0.02,1.49 -0.01,2.24l-0.45 0.06c-0.59,0.07 -1.18,-0.04 -1.75,0.15 -0.65,0.22 -0.77,0.97 -0.35,1.45zm-10.18 36.04c0.03,0.41 0.05,0.81 0.08,1.21 -0.59,-0.04 -1.19,-0.04 -1.78,-0.03l0.18 -0.13c0.46,-0.32 0.99,-0.67 1.51,-1.04zm-2.46 -1.56c-1.18,0.81 -2.33,1.64 -3.48,2.49l-0.48 -0.47c1.34,-0.92 2.67,-1.83 4,-2.76 0.71,-0.49 1.52,-0.99 2.28,-1.55l0.01 0.8c-0.83,0.38 -1.59,0.97 -2.33,1.48zm85.32 -40.44c4.44,0.74 8.37,-1.27 12.55,-2.39 -0.01,1.18 0.15,2.42 0.91,3.32 0.26,0.32 0.8,0.32 1.13,0.12 0.39,-0.24 0.47,-0.64 0.4,-1.06 -0.09,-0.52 -0.27,-1.01 -0.34,-1.53 -0.07,-0.57 -0.08,-1.15 -0.11,-1.72l0.17 -0.6c0.02,-4.97 2.97,-7.9 7.56,-8.7 -0.4,1.41 -0.21,3.01 0.6,4.3 0.55,0.86 1.94,0.25 1.64,-0.74 -0.43,-1.42 -0.59,-3.1 0.29,-4.33 0.59,-0.42 1.02,-0.98 1.5,-1.59 3.53,6.48 6.25,13.45 8.06,20.78 -4.18,-0.26 -8.78,-0.65 -12.87,0.1 -0.84,0.16 -0.77,1.51 0.04,1.66 4.22,0.78 9,0.33 13.26,0.06 0.19,0.88 0.37,1.77 0.55,2.66 -4.69,-0.32 -9.44,-0.11 -14.14,-0.09 -5.3,0.02 -10.85,-0.41 -16.11,0.3 -0.88,0.12 -1.23,1.56 -0.18,1.7 4.87,0.65 9.96,0.29 14.87,0.32 5.29,0.02 10.66,0.28 15.94,-0.11 0.8,4.82 1.2,9.77 1.17,14.81 -0.01,2.14 -0.11,4.26 -0.27,6.37 -2.14,-0.11 -4.24,0.41 -5.93,1.82 -1.54,1.3 -2.07,3.35 -1.75,5.26 -1.64,0.12 -3.23,0.85 -4.35,2.04 -1.57,-1.72 -4.57,-2.08 -6.16,-0.42 -0.74,-0.83 -1.69,-1.51 -2.85,-1.97 -3.1,-1.23 -6.54,-0.05 -8.2,2.76 -2.07,-0.74 -4.5,-0.33 -5.89,1.28 -2.31,-1.22 -5.12,-0.43 -6.71,1.52 -1.36,-1.32 -3.46,-1.73 -5.21,-1 -1.14,0.47 -0.65,2 0.55,1.81 1.33,-0.21 2.42,0.03 3.38,1 0.79,0.81 0.8,1.91 1.28,2.86 0.29,0.6 1.35,0.59 1.61,-0.04 0.42,-1.02 0.14,-2.14 -0.41,-3.11 1.15,-1.41 2.89,-2.09 4.64,-1.44 -0.11,0.35 -0.2,0.72 -0.23,1.13 -0.1,1.11 1.49,1.1 1.8,0.2 0.55,-1.56 1.37,-2.55 3.11,-2.61 1.48,-0.04 2.85,0.89 3.7,2.03 0.68,0.91 2.01,0.09 1.5,-0.93 -0.38,-0.76 -0.93,-1.37 -1.56,-1.85 1.44,-2.01 3.71,-2.82 6.15,-1.85 2.65,1.05 3.59,3.72 3.34,6.37 -0.09,0.96 1.52,1.13 1.68,0.19 0.28,-1.66 0.07,-3.26 -0.58,-4.64 0.49,-0.41 0.97,-0.73 1.69,-0.79 0.92,-0.08 1.75,0.44 2.32,1.13l-0.22 0.61c-0.28,0.99 1.16,1.52 1.64,0.65 1.1,-1.99 2.98,-3.1 5.03,-2.92l0.31 0.04c0.54,0.08 1.08,0.24 1.62,0.5 1.05,0.5 1.78,-0.91 0.86,-1.55 -0.55,-0.38 -1.16,-0.64 -1.79,-0.81 -0.03,-1.44 0.23,-2.77 1.36,-3.84 1.07,-1.02 2.6,-1.34 4.08,-1.43 -0.4,3.96 -1.06,7.84 -1.98,11.63 -2.28,-1.31 -5.41,-0.55 -7.09,1.71 -0.55,0.74 0.2,1.95 1.09,1.35 1.94,-1.3 3.56,-2.09 5.43,-0.85 -0.59,2.2 -1.27,4.37 -2.03,6.51 -4.54,-0.51 -9.12,-0.63 -13.7,-0.62 -0.26,-1.67 -1.14,-3.13 -2.62,-4.2 -1.44,-1.04 -3.34,-1.16 -4.94,-0.51 -0.69,-0.71 -1.62,-1.21 -2.56,-1.35 -1.07,-0.16 -1.47,1.32 -0.41,1.64 1.26,0.37 1.93,1.25 2.37,2.43 0.33,0.9 1.72,0.74 1.7,-0.27 -0.01,-0.31 -0.07,-0.6 -0.16,-0.88 0.94,-0.17 1.94,0.12 2.77,0.59 1.01,0.58 1.56,1.51 1.86,2.55 -3.4,0.03 -6.78,0.1 -10.16,0.12 -10.11,0.05 -20.23,0.13 -30.34,0.22 7.53,-5.29 5.21,-19.43 -6.64,-19.86 -11.98,-0.44 -13.99,14.54 -6.48,19.96 -7.81,0.06 -15.62,0.05 -23.43,-0.01 6.19,-4.7 4.09,-16.63 -6.01,-16.99 -10.08,-0.37 -12.01,11.92 -6.13,16.89 -9.52,-0.1 -19.04,-0.21 -28.56,-0.28 2.95,-2.16 5.88,-4.34 8.85,-6.48 1.59,-1.14 3.19,-2.27 4.79,-3.39 0.8,0.05 1.63,-0.07 2.44,-0.1 1.17,-0.05 2.42,0.07 3.58,-0.15 0.61,0.21 1.33,0.15 1.96,0.16 0.85,0.02 1.64,0.01 2.48,-0.18 0.91,-0.2 0.83,-1.6 -0.05,-1.79 -0.74,-0.17 -1.45,-0.19 -2.21,-0.17 -0.35,0.01 -0.71,-0.01 -1.08,0 0.06,-0.81 0.11,-1.62 0.15,-2.46 0.77,0.04 1.55,0 2.32,0.01 1.29,0.01 2.57,-0.02 3.86,-0.12 1.18,-0.09 1.1,-1.71 -0.05,-1.8 -1.29,-0.1 -2.57,-0.13 -3.86,-0.12 -0.73,0 -1.46,-0.03 -2.2,0.01 0.02,-0.74 0.03,-1.48 0.01,-2.21 3.38,0.33 7.07,0.07 10.37,-0.18 1.15,-0.09 1.07,-1.67 -0.04,-1.76 -3.3,-0.25 -7.04,-0.52 -10.42,-0.17 -0.04,-0.75 -0.11,-1.49 -0.2,-2.22 3.85,-1.88 8.99,-2.02 12.77,0.08 0.41,0.39 1.17,0.35 1.49,-0.11 3.84,-1.84 8.92,-1.97 12.68,0.1 0.39,0.38 1.09,0.35 1.45,-0.07 3.84,-1.87 8.94,-2.02 12.71,0.05 0.37,0.39 1.07,0.38 1.45,-0.03 3.81,-1.87 8.89,-2.04 12.67,-0.01 0.33,0.45 1.1,0.44 1.51,0.02 3.72,-1.84 8.66,-2.04 12.42,-0.16 -0.06,0.54 -0.09,1.06 -0.09,1.6 -1.47,-0.11 -2.96,-0.1 -4.44,-0.12 -1.66,-0.02 -3.53,-0.29 -5.13,0.21 -0.86,0.26 -0.77,1.43 0.04,1.68 1.6,0.5 3.49,0.22 5.15,0.2 1.47,-0.02 2.95,-0.01 4.42,-0.12l0.03 0.86 -0.01 0.81c-1.35,-0.05 -2.68,-0.07 -4.03,-0.09 -1.93,-0.03 -4.16,-0.38 -6.03,0.15 -0.86,0.24 -0.77,1.45 0.04,1.68 1.68,0.47 3.64,0.16 5.37,0.14 1.53,-0.02 3.06,-0.04 4.58,-0.09 0.01,0.45 0.06,0.89 0.16,1.31 -0.82,0.71 -1.7,1.46 -2.33,2.33 -0.6,-0.07 -1.2,-0.11 -1.82,-0.11 -0.93,0 -2.06,-0.14 -2.89,0.36 -0.57,0.34 -0.5,1.15 0.04,1.48 0.73,0.45 1.75,0.33 2.58,0.34 0.97,0 1.87,-0.03 2.82,-0.22 0.34,-0.06 0.55,-0.32 0.61,-0.62 0.87,-0.64 1.63,-1.56 2.34,-2.38l0.41 -0.36c0.75,-1.4 0.43,-3.24 0.39,-4.78 -0.04,-1.58 0.14,-3.12 -0.06,-4.68l-0 -0.12 0.1 -0.68c0.09,-1.19 0.18,-2.38 0.28,-3.58 0.28,-3.63 0.57,-7.25 0.85,-10.88 0.4,-5.24 1.22,-10.63 1.05,-15.9l-0.08 -0.59 -0.02 -0.04 -0.12 -0.16 -0.15 -0.13 -0.09 -0.06 -0.13 -0.06 -0.21 -0.05 -0.03 -0 -0.26 0.01 -0.22 0.08 -0.05 0.01 -0.01 0.01 -0.04 0.02c-4.17,2.45 -10,2.24 -14.23,0.03l-0.44 -0.15 -0.02 0 -0.23 0 -0.38 0.15c-4.16,2.42 -9.96,2.2 -14.17,0l-0.68 -0.15 -0.44 0.17c-4.16,2.39 -9.93,2.17 -14.13,-0.02l-0.15 -0.07 -0.07 -0.04 -0.74 0.05c-4.09,2.44 -9.82,2.27 -14.05,0.17l-0.69 -0.26 -0.5 0.1c-4.11,2.44 -9.85,2.27 -14.08,0.15 -0.45,-0.56 -1.56,-0.18 -1.58,0.64 -0.18,5.36 0.68,10.85 1.11,16.18 0.3,3.63 0.6,7.25 0.9,10.88 0.09,1.08 0.18,2.17 0.27,3.26 0.03,0.35 0.33,2.13 0.26,1.22l0.06 0.26c-0.11,0.93 -0.19,1.88 -0.24,2.85 -1.36,0.55 -2.62,1.61 -3.75,2.41 -1.53,1.07 -3.05,2.15 -4.57,3.24 -0.43,-0.41 -0.87,-0.8 -1.31,-1.19 -0.88,-0.76 -1.96,0.43 -1.22,1.28 0.31,0.35 0.62,0.69 0.94,1.04 -1.36,0.97 -2.72,1.93 -4.09,2.89 -5.09,3.54 -10.27,6.99 -15.33,10.54l-0.18 0.15c-3.81,-0.01 -7.61,-0 -11.42,0.02 1.41,-2.25 4.68,-3.16 6.83,-1.35 0.77,0.65 1.88,-0.21 1.37,-1.11 -0.44,-0.77 -1.04,-1.3 -1.71,-1.64 0.23,-0.51 0.57,-0.97 1.04,-1.39 0.72,-0.65 -0.28,-1.85 -1.07,-1.32 -0.82,0.55 -1.5,1.33 -1.85,2.24 -2.82,-0.1 -6.08,1.98 -6.96,4.58 -2.4,0.02 -4.8,0.03 -7.2,0.06l-0.13 0.01c-1.65,-4.76 -2.88,-9.68 -3.68,-14.71 3.47,-3.54 9.07,-2.11 11.54,2.07 -0.82,0.63 -1.44,1.54 -1.66,2.72 -0.21,1.13 1.31,1.46 1.7,0.42 1.12,-2.97 5.42,-3.27 6.22,0.04 0.23,0.95 1.8,0.71 1.7,-0.27 -0.09,-0.87 -0.39,-1.57 -0.81,-2.16 1.35,-1.09 3.35,-1.04 4.18,0.53 -0.47,0.82 -0.68,1.77 -0.46,2.73 0.21,0.93 1.48,0.74 1.72,-0.05 0.44,-1.39 0.85,-2.45 2.33,-2.98 1.2,-0.43 2.4,-0.12 3.37,0.59 -0.16,0.52 -0.28,1.05 -0.32,1.61 -0.08,0.99 1.51,1.13 1.71,0.19 0.35,-1.66 1.1,-3.17 2.8,-3.74 1.52,-0.51 2.7,0.35 3.46,1.6 0.53,0.89 1.92,0.24 1.63,-0.74 -0.63,-2.18 -2.95,-3.35 -5.13,-2.89 -1.45,0.31 -2.55,1.13 -3.32,2.23 -1.33,-1.06 -3.08,-1.36 -4.82,-0.88 -0.6,0.17 -1.18,0.47 -1.68,0.86 -0.63,-0.94 -1.66,-1.56 -2.92,-1.7 -1.43,-0.15 -3.03,0.3 -3.91,1.43 -1.26,-0.7 -2.86,-0.81 -4.26,-0.36 -2.55,-4.67 -9.34,-7.06 -13.42,-3.63 -0.52,-3.97 -0.78,-8 -0.76,-12.08 0.03,-4.84 0.46,-9.59 1.24,-14.22 3.23,-0.87 9.4,-3.44 11.5,-0.76 0.49,0.62 0.87,1.33 1.2,2.06 -1.15,0.61 -2.23,1.29 -3.48,1.72 -1.19,0.42 -0.63,2.3 0.57,1.88 1.24,-0.43 2.52,-0.99 3.67,-1.7 0.35,0.99 0.69,1.99 1.1,2.92 -1.19,0.66 -2.34,1.5 -3.34,2.26 -0.92,0.71 -0.1,1.99 0.93,1.51 0.94,-0.44 1.82,-0.92 2.72,-1.44 0.64,-0.37 1.3,-0.7 1.93,-1.09 0.95,0.26 1.09,1 1.43,2.45 -2.05,0.98 -3.53,2.85 -5.7,3.65 -1.03,0.38 -0.57,1.96 0.5,1.64 2.16,-0.65 3.65,-2.51 5.57,-3.53 0.25,1.33 0.47,2.67 0.75,4 -2.23,1.02 -4.06,2.82 -6.4,3.52 -1.06,0.32 -0.57,1.87 0.49,1.63 2.39,-0.53 4.2,-2.3 6.33,-3.43 0.29,0.93 0.69,1.7 1.27,2.41 -1.9,0.49 -3.79,1.33 -4.67,2.91 -0.42,0.76 0.5,1.71 1.25,1.19 1.67,-1.15 3.46,-1.78 5.31,-2.46 0.35,0.18 0.71,0.33 1.06,0.45 0.63,0.22 1.15,0.6 1.59,1.08 -0.49,0.21 -0.97,0.45 -1.44,0.7 -0.34,0.18 -0.68,0.39 -1,0.59l-0.39 0.24c-0.09,0.06 -0.67,0.59 -0.36,0.32 -0.72,0.59 -0.29,2.11 0.74,1.65 0.2,-0.09 0.58,-0.12 0.05,-0.06l0.61 -0.22 0.84 -0.53c0.66,-0.38 1.37,-0.65 2.06,-0.95 0.49,1.03 0.81,2.16 1.08,3.12 0.39,1.41 2.54,0.76 2.18,-0.65 -0.63,-2.41 -1.55,-4.5 -3.19,-6.38 -1.54,-1.79 -3.92,-1.44 -4.81,-4.13 -1.07,-3.23 -0.54,-8.47 -3.03,-11.06 -0.59,-0.61 -1.47,-1.12 -2.36,-0.82l-0.33 0.16c0.04,-0.15 0.03,-0.43 -0.16,-0.89 -0.56,-1.38 -0.97,-2.82 -1.64,-4.15 -0.58,-1.14 -2.38,-4.53 -4.12,-4.32 -3.41,0.41 -6.65,1.44 -9.91,2.44 7.28,-37.27 38.33,-66.2 76.57,-70.33 0.1,2.77 -1.72,5.28 -4.13,6.69 -0.84,0.49 -0.21,1.94 0.7,1.56 3.27,-1.35 6.18,-4.88 5.53,-8.45 2.41,-0.2 4.85,-0.31 7.31,-0.31l0.49 0c4.11,0.03 8.15,0.34 12.11,0.91 -0.21,0.34 -0.41,0.68 -0.83,0.96 -0.93,0.63 -2.08,0.99 -3.13,1.36 -2.01,0.69 -4.38,1.05 -6.16,2.26 -0.89,0.61 -0.28,2.04 0.78,1.73 1.69,-0.48 12.07,-2.63 11.85,-5.9 25.97,4.52 48.02,20.52 60.77,42.54 -1.5,1.3 -3.11,1.88 -5.03,2.41 -1.41,0.39 -2.67,0.8 -3.77,1.83 -2.33,2.2 -3.69,4.88 -3.9,8.02 -4.02,1.21 -7.99,3.31 -12.26,3.02 -0.96,-0.06 -1.13,1.52 -0.18,1.68zm-30 43.21c-0.02,-1.77 -0.06,-3.54 -0.1,-5.32 1.09,0.06 2.07,0.27 2.95,0.62 -0.97,1.55 -1.92,3.12 -2.85,4.7zm1.75 0.94c0.9,-1.6 1.79,-3.21 2.66,-4.83 0.88,0.59 1.62,1.33 2.19,2.17 -1.63,0.86 -3.24,1.75 -4.85,2.66zm0.98 1.73c1.58,-0.93 3.14,-1.87 4.69,-2.84 0.39,0.93 0.62,1.93 0.69,2.95 -1.79,-0.06 -3.59,-0.09 -5.38,-0.11zm0 1.97c1.79,-0.01 3.57,-0.05 5.35,-0.11 -0.1,1 -0.36,1.97 -0.77,2.89 -1.51,-0.95 -3.04,-1.87 -4.59,-2.78zm0.06 7.27c-0.63,0.28 -1.32,0.49 -2.07,0.64l-0.81 0.01c0.06,-1.73 0.09,-3.48 0.11,-5.22 0.9,1.54 1.82,3.06 2.77,4.57zm-1.05 -5.55c1.56,0.88 3.13,1.74 4.71,2.59 -0.57,0.81 -1.28,1.52 -2.13,2.11 -0.84,-1.58 -1.7,-3.14 -2.58,-4.7zm-5.35 -0.07c-0.84,1.51 -1.68,3.03 -2.51,4.55 -0.78,-0.59 -1.44,-1.29 -1.98,-2.07 1.5,-0.82 3,-1.65 4.49,-2.48zm-0.96 -1.67c-1.47,0.88 -2.94,1.76 -4.4,2.64 -0.41,-0.87 -0.68,-1.8 -0.81,-2.74 1.73,0.04 3.47,0.07 5.21,0.1zm0 -1.93c-1.77,0.03 -3.54,0.06 -5.3,0.1 0.04,-1.01 0.24,-2.01 0.61,-2.93 1.56,0.95 3.12,1.9 4.69,2.83zm0.96 -1.68c-1.61,-0.9 -3.23,-1.79 -4.84,-2.68 0.56,-0.82 1.28,-1.56 2.18,-2.14 0.88,1.61 1.77,3.21 2.66,4.82zm1.76 11.57l-0.21 0c-0.94,-0.17 -1.8,-0.45 -2.57,-0.84 0.9,-1.48 1.79,-2.96 2.68,-4.45 0.02,1.76 0.05,3.52 0.11,5.28zm-0.09 -12.53c-0.93,-1.56 -1.86,-3.11 -2.81,-4.65 0.86,-0.34 1.82,-0.58 2.91,-0.68 -0.05,1.77 -0.08,3.55 -0.1,5.33zm-33.99 1.44c-0.02,-1.28 -0.06,-2.56 -0.09,-3.84 0.79,0.05 1.52,0.21 2.17,0.45 -0.71,1.12 -1.4,2.25 -2.08,3.39zm1.74 0.93c0.65,-1.16 1.29,-2.34 1.9,-3.52 0.65,0.45 1.19,1 1.63,1.61 -1.19,0.62 -2.36,1.25 -3.53,1.9zm0.98 1.72c1.14,-0.68 2.27,-1.37 3.38,-2.08 0.27,0.7 0.45,1.44 0.52,2.19 -1.3,-0.05 -2.6,-0.09 -3.9,-0.1zm0 1.97c1.3,-0.01 2.59,-0.06 3.87,-0.11 -0.09,0.74 -0.28,1.46 -0.56,2.14 -1.09,-0.69 -2.2,-1.37 -3.31,-2.04zm-0.68 5.99c-0.46,0.19 -0.96,0.35 -1.49,0.47l-0.63 -0.01c0.05,-1.25 0.08,-2.5 0.1,-3.75 0.66,1.11 1.34,2.21 2.03,3.29zm-0.31 -4.27c1.13,0.63 2.27,1.25 3.42,1.85 -0.43,0.58 -0.95,1.11 -1.57,1.56 -0.6,-1.14 -1.21,-2.28 -1.84,-3.41zm-5.33 -0.08c-0.6,1.09 -1.2,2.18 -1.79,3.27 -0.56,-0.44 -1.04,-0.94 -1.45,-1.5 1.08,-0.59 2.16,-1.17 3.23,-1.77zm-0.96 -1.66c-1.05,0.63 -2.1,1.27 -3.15,1.92 -0.28,-0.65 -0.49,-1.32 -0.6,-2 1.25,0.03 2.5,0.06 3.75,0.08zm0 -1.91c-1.28,0.02 -2.57,0.05 -3.85,0.09 0.04,-0.74 0.18,-1.48 0.44,-2.17 1.13,0.7 2.27,1.39 3.41,2.08zm0.96 -1.66c-1.19,-0.66 -2.37,-1.3 -3.55,-1.94 0.43,-0.6 0.96,-1.15 1.62,-1.59 0.64,1.18 1.28,2.36 1.93,3.53zm1.73 10.04l-0.25 -0c-0.64,-0.14 -1.24,-0.35 -1.79,-0.6 0.65,-1.06 1.3,-2.13 1.94,-3.19 0.02,1.27 0.05,2.53 0.1,3.8zm-0.07 -11c-0.68,-1.12 -1.37,-2.25 -2.05,-3.37 0.64,-0.23 1.35,-0.41 2.14,-0.49 -0.03,1.28 -0.06,2.57 -0.09,3.86zm-39.79 10.63c4,-2.84 8,-5.72 12.02,-8.54 1.5,-1.05 3.01,-2.1 4.52,-3.13l0.49 0.55c-1.15,0.85 -2.31,1.7 -3.48,2.53 -4.06,2.9 -8.19,5.71 -12.25,8.6 -0.43,-0 -0.87,-0.01 -1.31,-0.01zm135.14 10.76c-1.67,-0.48 -3.32,-0.64 -4.97,-0.59 -0.06,-0.36 -0.13,-0.72 -0.15,-1.07 -0.07,-1.11 -1.64,-1.04 -1.71,0.04l-0.14 0.83 -0.05 0.36c-0.45,0.06 -0.89,0.12 -1.34,0.2 -0.05,-0.96 -0.16,-1.9 -0.22,-2.86 -0.07,-1.13 -1.67,-1.06 -1.74,0.05 -0.07,1.09 -0.19,2.16 -0.24,3.25 -0.75,0.17 -1.5,0.35 -2.25,0.54l-0.07 -0.77c-0.05,-1.12 -1.67,-1.06 -1.72,0.04 -0.02,0.37 -0.11,0.75 -0.14,1.13l-0 0.1c-0.34,0.09 -0.7,0.17 -1.04,0.25 -0.06,-0.37 -0.14,-0.75 -0.18,-1.12 -0.04,-0.37 -0.25,-0.7 -0.64,-0.79 -0.4,-0.1 -0.96,0.16 -1.02,0.61 -0.07,0.58 -0.22,1.18 -0.26,1.77 -0.5,0.1 -0.99,0.19 -1.49,0.27 -0.02,-0.31 -0.05,-0.61 -0.06,-0.89 -0.06,-0.87 -0.15,-1.73 -0.2,-2.6 -0.07,-1.11 -1.64,-1.04 -1.7,0.04 -0.05,0.87 -0.15,1.74 -0.2,2.61 -0.02,0.34 -0.06,0.7 -0.07,1.06 -0.6,0.01 -1.19,-0.03 -1.77,-0.09 0.07,-0.54 -0.02,-1.08 -0.17,-1.6 -0.24,-0.83 -1.42,-0.75 -1.65,0.04 -0.11,0.4 -0.18,0.81 -0.17,1.22 -4.23,-0.92 -8.25,-2.84 -12.75,-1.07 -1.09,0.43 -0.63,2.05 0.53,1.74 6.15,-1.58 11.28,2.45 17.41,2.1 6.58,-0.38 12.45,-3.97 19.02,-2.59 -14.85,27.39 -43.87,46.06 -77.07,46.06l-0.5 -0c-23.4,-0.13 -45.36,-9.37 -61.81,-26.01 -8.47,-8.56 -14.96,-18.56 -19.24,-29.44 31.96,0.4 63.95,-0.49 95.92,-0.37 13.55,0.05 27.09,0.24 40.63,0.32 8.84,0.05 17.81,0.52 26.63,-0.37 -1.01,2.59 -2.15,5.13 -3.4,7.59zm-77.74 -129.41l-0.51 -0c-49.39,0 -89.79,40.18 -90.06,89.57 -0.13,24.06 9.11,46.73 26.03,63.84 16.92,17.1 39.48,26.6 63.54,26.73l0.51 0c23.95,0 46.5,-9.3 63.49,-26.19 17,-16.91 26.43,-39.41 26.57,-63.38 0.13,-24.06 -9.11,-46.73 -26.03,-63.84 -16.92,-17.1 -39.48,-26.6 -63.54,-26.73z"/>
  <path class="fil0" d="M97.7 106.52c-2.09,-0.38 -4.24,-0.25 -6.36,-0.25 -2.25,0 -4.57,-0.16 -6.79,0.19 -0.96,0.15 -0.88,1.74 0.04,1.89 2.23,0.36 4.56,0.18 6.81,0.18 2.12,0.01 4.25,0.12 6.35,-0.26 0.89,-0.17 0.81,-1.6 -0.04,-1.76z"/>
  <path class="fil0" d="M88.49 100.13c0.08,-0.99 0.14,-2.05 -0.06,-3.03 -0.17,-0.82 -1.46,-0.74 -1.62,0.04 -0.2,0.97 -0.13,2.04 -0.05,3.02 0.09,1.13 1.63,1.05 1.72,-0.04z"/>
  <path class="fil0" d="M72.72 96.7c-0.15,0.71 -0.14,1.49 -0,2.2 0.16,0.84 1.49,0.76 1.65,-0.04 0.14,-0.72 0.12,-1.49 -0.03,-2.2 -0.17,-0.83 -1.45,-0.75 -1.62,0.03z"/>
  <path class="fil0" d="M101.08 96.5c-0.42,0.96 -0.16,2.2 -0.1,3.23 0.06,1.09 1.62,1.03 1.67,-0.04 0.03,-0.51 0.05,-1.01 0.08,-1.51 0.03,-0.51 0.09,-1.04 -0.11,-1.51 -0.25,-0.59 -1.22,-0.91 -1.54,-0.17z"/>
  <path class="fil0" d="M115.18 96.79c-0.16,0.51 -0.09,1.1 -0.04,1.62 0.05,0.46 0.38,0.84 0.87,0.82 0.5,-0.01 0.78,-0.41 0.82,-0.86 0.05,-0.54 0.12,-1.1 -0.04,-1.62 -0.26,-0.82 -1.37,-0.74 -1.61,0.04z"/>
  <path class="fil0" d="M98.82 102.94c-5.52,-0.29 -11.59,-0.69 -17.07,0.01 -0.9,0.12 -1.25,1.59 -0.19,1.72 5.57,0.71 11.69,0.33 17.3,0.03 1.14,-0.06 1.08,-1.7 -0.04,-1.76z"/>
  <path class="fil0" d="M90.58 100.18c2.34,0.52 5.12,0.3 7.49,0.07 1.17,-0.11 1.08,-1.67 -0.04,-1.78 -2.38,-0.23 -5.15,-0.44 -7.49,0.08 -0.83,0.18 -0.75,1.47 0.04,1.64z"/>
  <path class="fil0" d="M84.2 98.47c-2.7,-0.21 -5.72,-0.39 -8.4,0.08 -0.82,0.15 -0.75,1.47 0.04,1.61 2.68,0.48 5.71,0.29 8.41,0.08 1.16,-0.09 1.08,-1.69 -0.04,-1.77z"/>
  <path class="fil0" d="M97.25 110.58c-1.58,-0.86 -3.31,-0.58 -5.07,-0.58 -2.38,0 -4.77,-0.08 -7.15,0.06 -2.02,0.12 -1.9,2.98 0.08,3.1 2.08,0.12 4.17,0.06 6.25,0.06 2.01,0 4.15,0.37 5.94,-0.61 0.48,-0.27 0.62,-0.65 0.57,-1.02 0.04,-0.37 -0.13,-0.74 -0.62,-1.01z"/>
  <path class="fil0" d="M124.57 109.24c-0.95,0 -1.92,-0.09 -2.66,0.61 -0.57,0.54 -0.5,1.53 0.05,2.04 0.73,0.69 1.77,0.56 2.69,0.57 0.88,0 1.59,-0.79 1.57,-1.65 -0.02,-0.89 -0.77,-1.57 -1.65,-1.57z"/>
  <path class="fil0" d="M62.7 110.22c-0.47,-0.14 -1.02,-0.1 -1.51,-0.1 -0.82,0 -1.46,0.13 -1.96,0.87 -0.29,0.43 -0.24,1.12 0.04,1.54 0.48,0.71 1.15,0.8 1.93,0.81 0.52,0.01 1.07,0.03 1.58,-0.12 1.52,-0.44 1.37,-2.58 -0.07,-2.99z"/>
  <path class="fil0" d="M17.83 128.59c-0.18,1.03 -0.23,2.05 -0.27,3.09 -0.03,0.93 -0.14,1.99 -0.01,2.93 -0.06,1.21 1.98,1.59 2.17,0.29l0.03 -0.22c0.25,-1.95 0.05,-4.22 -0.28,-6.13 -0.14,-0.83 -1.5,-0.76 -1.64,0.04z"/>
  <path class="fil0" d="M23.47 132.25l-0.1 -0.24c-0.06,-0.36 -0.24,-0.67 -0.63,-0.76 -0.41,-0.1 -0.96,0.16 -1.02,0.61 -0.13,0.94 -1.04,4.44 0.84,4.39 1.12,-0.03 1.08,-1.23 1.08,-2.04 0,-0.42 -0.03,-0.85 -0.07,-1.27l-0.1 -0.7z"/>
  <path class="fil0" d="M27.39 135.93c0,-0.41 -0.01,-0.83 -0.01,-1.24 -0.01,-0.42 0.1,-0.7 0.19,-1.1 0.17,-0.77 -0.4,-1.53 -1.22,-1.52 -0.84,0.02 -1.31,0.81 -1.14,1.57 0.08,0.4 0.17,0.68 0.17,1.1 0,0.41 -0.01,0.82 -0.01,1.23 0,1.31 2.02,1.26 2.02,-0.05z"/>
  <path class="fil0" d="M30.75 134.49c0.18,-1.63 0.11,-3.26 0.09,-4.9 -0.02,-1.32 -2.02,-1.26 -2.04,0.05 -0.03,1.64 -0.09,3.27 0.09,4.9 0.13,1.22 1.74,1.13 1.86,-0.05z"/>
  <path class="fil0" d="M32.61 133.23l0.1 0.8c0.01,0.38 0.09,0.74 0.15,1.12l0.08 0.31c-0.06,0.33 0.04,0.67 0.42,0.82 6.44,2.67 13.84,1.27 20.57,0.67 3.85,-0.34 7.33,-0.21 11.12,0.61 4.22,0.92 8.45,2.22 12.75,1.14 1.09,-0.28 0.74,-1.84 -0.3,-1.88 -2.23,-0.06 -4.43,-0.33 -6.62,-0.66 -0.02,-0.4 -0.08,-0.78 -0.09,-1.1 -0.05,-0.8 -0.14,-1.6 -0.16,-2.41 -0.03,-1.12 -1.71,-1.07 -1.74,0.04 -0.02,0.8 -0.11,1.61 -0.16,2.42l-0.06 0.7c-0.82,-0.13 -1.64,-0.27 -2.46,-0.4 0.17,-1.52 0.22,-2.88 -0.1,-4.42 -0.18,-0.86 -1.53,-0.78 -1.7,0.04 -0.29,1.43 -0.27,2.7 -0.12,4.09 -0.79,-0.11 -1.59,-0.21 -2.38,-0.28 0.12,-1.55 -0.04,-3.08 -0.26,-4.64 -0.13,-0.89 -1.56,-1.25 -1.72,-0.19 -0.23,1.56 -0.39,3.1 -0.3,4.65 -0.4,-0.02 -0.81,-0.03 -1.21,-0.04 0.24,-2.2 0.01,-4.5 0.01,-6.68 -0.01,-1.46 -2.25,-1.4 -2.26,0.06 -0.01,2.19 -0.22,4.48 0.02,6.68l-0.17 0.01c-0.58,0.04 -1.16,0.08 -1.74,0.13l-0.03 -0.26 -0.06 -0.42 -0.1 -0.19c-0.06,-0.39 -0.25,-0.72 -0.66,-0.82 -0.43,-0.11 -0.99,0.16 -1.06,0.64l-0.14 0.43 -0.08 0.73 0 0.09c-0.67,0.06 -1.33,0.12 -2,0.18 0.02,-1.02 -0.14,-2.06 0.17,-3.02 0.61,-1.91 -3,-1.96 -2.36,0.06 0.32,0.99 0.13,2.08 0.16,3.14 -0.64,0.05 -1.28,0.1 -1.92,0.14 0.08,-1.83 -0.2,-3.68 -0.28,-5.49 -0.05,-1.13 -1.69,-1.07 -1.74,0.04 -0.09,1.84 -0.37,3.71 -0.27,5.55 -0.4,0.01 -0.8,0.02 -1.2,0.02l0.03 -0.35c0.19,-1.99 0.26,-3.9 0.1,-5.89 -0.12,-1.38 -2,-1.29 -2.11,0.05 -0.17,1.99 -0.1,3.9 0.1,5.88l0.02 0.28c-0.53,-0.01 -1.06,-0.05 -1.58,-0.08l-0.03 -0.39c-0.06,-0.55 -0.05,-1.1 -0.06,-1.65 -0.02,-1.11 -1.69,-1.06 -1.71,0.04 -0.01,0.51 -0.01,1.02 -0.05,1.52l-0.02 0.28c-0.87,-0.11 -1.74,-0.26 -2.61,-0.44 0.07,-0.57 0.13,-1.14 0.23,-1.7 0.15,-0.78 -0.39,-1.54 -1.22,-1.52 -0.85,0.02 -1.29,0.81 -1.14,1.57z"/>
  <path class="fil0" d="M116.1 145.39c0.49,-1.22 0.13,-2.68 0.04,-3.95 -0.08,-1.13 -1.66,-1.06 -1.73,0.04 -0.07,1.14 -0.47,2.63 -0.04,3.73 0.26,0.65 1.39,1.02 1.73,0.18z"/>
  <path class="fil0" d="M117.73 140.48c0.21,0.78 0.06,1.74 0.06,2.53 -0.01,0.83 0.12,1.64 0.22,2.45 0.11,0.93 1.65,1.27 1.77,0.19 0.09,-0.77 0.21,-1.53 0.24,-2.3 0.04,-0.95 -0.18,-2.01 0.07,-2.93 0.53,-1.92 -2.91,-1.96 -2.36,0.05z"/>
  <path class="fil0" d="M123.66 146.59c0.27,-1.54 0.3,-2.99 0.14,-4.54 -0.14,-1.37 -1.96,-1.28 -2.09,0.05 -0.16,1.57 -0.11,2.99 0.16,4.54 0.16,0.91 1.64,0.82 1.79,-0.05z"/>
  <path class="fil0" d="M125.87 145.62c0.21,0.92 1.62,0.84 1.82,-0.04 0.18,-0.8 0.28,-1.59 0.29,-2.4 0,-0.58 -0.01,-1.14 -0.05,-1.72 -0.04,-0.49 -0.25,-0.93 -0.28,-1.44 -0.07,-1.13 -1.67,-1.06 -1.74,0.04 -0.03,0.45 -0.15,0.73 -0.25,1.15 -0.13,0.54 -0.08,1.18 -0.08,1.74 -0.01,0.91 0.1,1.78 0.3,2.67z"/>
  <path class="fil0" d="M129.55 142.83c0,0.47 -0.02,0.94 0.09,1.4 0.27,1.03 1.79,0.93 2.04,-0.05 0.11,-0.41 0.08,-0.84 0.08,-1.26 0,-0.34 0.03,-0.63 0.08,-0.95 0.1,-0.66 -0.2,-1.31 -0.89,-1.49 -0.7,-0.16 -1.65,0.42 -1.52,1.23 0.06,0.39 0.12,0.72 0.12,1.12z"/>
  <path class="fil0" d="M133.51 141.69l-0.2 0.78c-0.07,0.41 -0.03,0.78 0.16,1.1 0.24,0.91 1.51,0.84 1.8,0.03 0.22,-0.35 0.24,-0.76 0.17,-1.18l-0.19 -0.78c-0.05,-0.47 -0.39,-0.87 -0.9,-0.86 -0.53,0.01 -0.81,0.43 -0.85,0.9z"/>
  <path class="fil0" d="M112.53 143.76l-0.01 -0.34 -0.01 -0.34 -0.09 -0.36 0 -0c-0.15,-0.28 -0.47,-0.47 -0.78,-0.47l-0.45 0.16c-0.22,0.13 -0.39,0.36 -0.38,0.71l-0.01 0.29 -0.01 0.33 -0 0.08 -0.04 0.11c-0.14,0.38 -0.14,0.84 -0.09,1.24l0.03 0.11 0.03 0.11 0.06 0.19 0.16 0.23 0.06 0.07 0.18 0.12 0.18 0.09 0.06 0.03 0.23 0.02 0.04 0.01 0.28 -0.06 0.07 -0.03 0.06 -0.02 0.51 -0.5 0.07 -0.44 -0.01 -0.06c0.02,-0.37 0.01,-0.73 -0.08,-1.11l-0.06 -0.18 0.03 0.08 -0.02 -0.1z"/>
  <path class="fil0" d="M105.87 153.42c2.31,0.62 4.48,1.3 6.87,1.54 4.03,0.39 9.35,-1.06 12.9,-2.87 0.88,-0.45 0.37,-1.76 -0.52,-1.75 -2.12,0.02 -4.1,0.82 -6.14,1.37 -0.54,0.15 -1.08,0.26 -1.61,0.37l0.02 -0.23 -0.02 -0.67 -0.18 -0.75c-0.14,-0.84 -1.53,-0.77 -1.66,0.04l-0.17 0.76 -0.02 0.67 0.04 0.48c-0.77,0.07 -1.53,0.09 -2.3,0.06 -0.04,-0.33 -0.11,-0.67 -0.13,-0.97 -0.08,-1.13 -1.66,-1.06 -1.74,0.05l-0.1 0.74c-0.47,-0.07 -0.93,-0.16 -1.41,-0.26 -0.01,-0.58 -0.02,-1.17 -0.04,-1.74 -0.02,-1.1 -1.67,-1.05 -1.69,0.04 -0.01,0.43 -0.02,0.86 -0.03,1.28 -0.65,-0.16 -1.28,-0.3 -1.88,-0.43 0.18,-1.11 0.55,-2.43 -0.19,-3.37 -0.32,-0.39 -0.97,-0.61 -1.35,-0.14 -0.76,0.95 -0.52,2.07 -0.34,3.18 -0.66,-0.09 -1.32,-0.16 -1.97,-0.19l-0.07 -0.25 -0.02 -0.06 -0.06 -0.11 0.01 0.03 -0.02 -0.03 -0.13 -0.24c-0.02,-0.49 -0.03,-0.97 -0.05,-1.46 0.02,-0.55 -0.4,-0.8 -0.82,-0.78 -0.43,-0.01 -0.86,0.27 -0.84,0.82 -0.02,0.47 -0.03,0.95 -0.05,1.43l-0.09 0.12c0.01,-0.02 -0.33,0.59 -0.06,0.15l-0.13 0.42c-0.48,0.04 -0.96,0.11 -1.45,0.19l0 -0.39 0 -0.01 -0 -0.39c0,-0.55 -0.43,-0.81 -0.85,-0.8 -0.43,0.01 -0.86,0.29 -0.85,0.85l-0 0.38 0 0.02 0 0.73c-0.47,0.13 -0.95,0.28 -1.44,0.45 -1.06,0.37 -0.58,1.86 0.5,1.65 3.47,-0.67 6.69,-0.84 10.12,0.09z"/>
  <path class="fil0" d="M91.86 133.69c5.22,-2.05 9.57,-4.8 15.36,-2.98 3.74,1.18 7.11,3.82 11.06,1.96 0.91,-0.43 0.36,-1.79 -0.53,-1.77 -0.61,0.01 -1.2,-0.03 -1.78,-0.1l0.03 -0.45 -0.04 -0.72 -0.09 -0.55 -0.07 -0.16c-0.15,-1.05 -1.47,-1.02 -1.73,-0.09l-0.09 0.21 -0.08 0.35c-0.05,0.33 -0.07,0.66 -0.07,0.99 -0.44,-0.11 -0.87,-0.23 -1.3,-0.36 0.1,-0.32 0.02,-0.83 0.02,-1.16 -0,-0.45 -0,-0.89 -0.03,-1.35l-0.12 -0.74 -0.14 -0.37 0.01 0.03c-0.18,-0.82 -1.52,-1.12 -1.65,-0.12 -0.05,0.42 -0.21,0.81 -0.25,1.25 -0.04,0.45 -0.03,0.9 -0.03,1.35l-0.01 0.38c-0.49,-0.16 -0.98,-0.32 -1.47,-0.48l0.03 -0.28c0,-0.64 0.01,-1.36 -0.25,-1.97l-0.01 -0.07c-0.04,-0.39 -0.25,-0.71 -0.65,-0.81 -0.41,-0.1 -0.98,0.16 -1.03,0.63 -0.04,0.34 -0.19,0.68 -0.23,1.03l-0.05 0.86c-0.33,-0.07 -0.68,-0.14 -1.02,-0.2 -0.03,-0.28 -0.07,-0.57 -0.09,-0.89 -0.06,-1.1 -1.64,-1.04 -1.7,0.04l-0.08 0.67 -0.05 -0c-0.97,-0.03 -1.93,0.09 -2.89,0.29 0.09,-0.88 0.07,-1.79 -0.47,-2.39 -0.3,-0.33 -0.89,-0.29 -1.17,0.03 -0.64,0.71 -0.51,1.93 -0.36,2.93 -0.4,0.13 -0.79,0.28 -1.19,0.44l0.02 -0.32c-0,-0.45 -0.05,-0.82 -0.28,-1.21 -0.2,-0.33 -0.72,-0.61 -1.1,-0.46 -1.1,0.44 -1,1.8 -0.8,2.91 -1.48,0.7 -2.93,1.45 -4.3,2.09 -0.87,0.4 -0.2,1.88 0.69,1.53z"/>
  <polygon class="fil0" points="102.03,150.18 102.03,150.19 102.03,150.19 "/>
  <path class="fil0" d="M79.91 152.49c-0.7,0.11 -1.4,0.22 -2.11,0.34l-0.04 -0.35c-0.07,-1.11 -1.65,-1.05 -1.71,0.04l-0.09 0.51 -0.01 0.1c-0.5,0.08 -1,0.16 -1.5,0.23l0.06 -0.45 0.03 -0.86 -0.04 -0.8c0.31,-0.72 0.05,-1.57 -0.78,-1.78 -0.82,-0.2 -1.85,0.65 -1.47,1.54 0.21,0.49 0.06,1.12 0.06,1.66 -0,0.31 0.05,0.64 0.1,0.97 -0.52,0.06 -1.03,0.12 -1.55,0.17 0.54,-1.59 0.05,-4.93 -0.05,-5.63 -0.13,-0.87 -1.53,-1.23 -1.69,-0.19 -0.2,1.3 -0.22,2.62 -0.23,3.93 -0.01,0.53 -0.1,1.4 0.14,2.03 -0.58,0.03 -1.15,0.04 -1.73,0.03 0.44,-2.29 0.23,-5.04 -0.19,-7.26 -0.16,-0.85 -1.53,-0.78 -1.69,0.04 -0.42,2.19 -0.6,4.87 -0.19,7.14 -0.68,-0.05 -1.35,-0.14 -2.02,-0.25 0.24,-2.1 0.36,-4.51 -0.2,-6.52 -0.24,-0.85 -1.44,-0.77 -1.67,0.04 -0.52,1.83 -0.45,4.06 -0.25,6 -0.72,-0.2 -1.42,-0.46 -2.12,-0.76l0.04 -0.51c-0.01,-0.33 -0.05,-0.66 -0.11,-0.99l-0.1 -0.33c-0.02,-0.06 -0.35,-0.69 -0.19,-0.38 -0.29,-0.57 -1.19,-0.51 -1.47,0.03l-0.12 0.23 -0.16 0.5c-0.07,0.32 -0.09,0.67 -0.1,1 -0.01,0.37 0.06,0.72 0.18,1.06 0.05,0.38 0.36,0.72 0.71,0.8l0.05 0c6.25,4.45 15.89,3.48 22.5,0.54 0.89,-0.4 0.87,-2.07 -0.3,-1.89z"/>
  <path class="fil0" d="M83.86 147.16c-0.01,-0.51 -0.43,-0.93 -0.91,-0.99 -0.45,-0.17 -1,0.04 -1.2,0.6 -0.23,0.68 0.21,1.21 0.83,1.42 0.65,0.22 1.3,-0.4 1.28,-1.03z"/>
  <path class="fil0" d="M89.6 144.69c-0.25,0.64 0.42,1.3 1.02,1.28 0.63,-0.01 1.21,-0.7 0.96,-1.33l-0.18 -0.37c-0.34,-0.44 -1.08,-0.69 -1.5,-0.16l-0.31 0.58z"/>
  <path class="fil0" d="M95.69 143.66l0.17 0.07c0.56,0.24 1.23,0.03 1.4,-0.61 0.16,-0.64 -0.52,-1.46 -1.21,-1.15l-0.18 0.08c-0.29,0.12 -0.52,0.3 -0.6,0.63 -0.09,0.35 0.07,0.82 0.43,0.98z"/>
  <path class="fil0" d="M91.8 147.64c-1.26,0 -1.21,1.95 0.05,1.95 1.26,0 1.21,-1.95 -0.05,-1.95z"/>
  <path class="fil0" d="M84.05 142.66c0.3,-0.29 0.43,-0.59 0.45,-1.01 0.02,-1.02 -1.45,-1.04 -1.65,-0.15l-0.01 0c-0.75,0.78 0.45,1.91 1.22,1.16z"/>
  <path class="fil0" d="M93.48 141.13c1.15,0 1.11,-1.79 -0.04,-1.79 -1.15,0 -1.11,1.79 0.04,1.79z"/>
  <path class="fil0" d="M102.84 139.36c-1.12,0 -1.08,1.75 0.04,1.75 1.12,0 1.08,-1.75 -0.04,-1.75z"/>
  <path class="fil0" d="M104.72 145.83c1.15,0 1.11,-1.79 -0.05,-1.79 -1.16,0 -1.11,1.79 0.05,1.79z"/>
  <path class="fil0" d="M107.21 136.08l-0.3 0.24c-0.37,0.38 -0.32,0.97 0.03,1.33l0.31 0.24c0.67,0.49 1.58,-0.22 1.56,-0.94 -0.02,-0.75 -0.94,-1.35 -1.61,-0.87z"/>
  <path class="fil0" d="M98.59 139.68c1.12,0 1.08,-1.74 -0.04,-1.74 -1.12,0 -1.08,1.74 0.04,1.74z"/>
  <path class="fil0" d="M100.43 146.56c1.3,0 1.25,-2.01 -0.05,-2.01 -1.3,0 -1.24,2.01 0.05,2.01z"/>
  <path class="fil0" d="M122.44 134.86l-0.14 0.24c-0.46,0.81 0.5,1.64 1.27,1.2l0.24 -0.13c0.56,-0.3 0.6,-1.13 0.16,-1.55 -0.45,-0.43 -1.23,-0.32 -1.54,0.24z"/>
  <path class="fil0" d="M128.23 136.27c1.21,0 1.16,-1.88 -0.05,-1.88 -1.21,0 -1.17,1.88 0.05,1.88z"/>
  <path class="fil0" d="M133.34 136.51c1.25,0 1.2,-1.94 -0.05,-1.94 -1.26,0 -1.21,1.94 0.05,1.94z"/>
  <path class="fil0" d="M137.22 139.45c0.56,-0.02 0.92,-0.44 0.99,-0.95 0.16,-0.57 -0.07,-1.2 -0.75,-1.37 -0.85,-0.21 -1.74,0.77 -1.25,1.56 0.14,0.44 0.53,0.77 1.01,0.76z"/>
  <path class="fil0" d="M141.51 137.98c1.31,0 1.25,-2.02 -0.05,-2.02 -1.3,0 -1.25,2.02 0.05,2.02z"/>
  <path class="fil0" d="M140.08 141.62c1.26,0 1.21,-1.95 -0.05,-1.95 -1.26,0 -1.2,1.95 0.05,1.95z"/>
  <path class="fil0" d="M154.8 138.42l0.87 -0.25c0.61,-0.45 0.54,-1.18 -0.04,-1.61 -0.25,-0.18 -0.59,-0.23 -0.89,-0.23 -1.35,0 -1.3,2.09 0.05,2.09z"/>
  <path class="fil0" d="M156.22 141.77c1.19,0 1.15,-1.85 -0.04,-1.85 -1.19,0 -1.15,1.85 0.04,1.85z"/>
  <path class="fil0" d="M161.34 137.86c1.42,0 1.36,-2.19 -0.05,-2.19 -1.42,0 -1.36,2.19 0.05,2.19z"/>
  <path class="fil0" d="M130.74 149.07l-0.03 -0.02 0.06 0.02 -0.03 0zm-0.78 -1c-0.13,0.64 0.51,1.17 1.12,1.03 0.63,-0.03 1.22,-0.58 0.99,-1.35 -0.37,-1.21 -2.15,-0.78 -2.11,0.32z"/>
  <path class="fil0" d="M113.26 136.69c-1.4,0 -1.35,2.18 0.05,2.18 1.41,0 1.35,-2.18 -0.05,-2.18z"/>
  <path class="fil0" d="M103.65 132.55c-1.22,0 -1.17,1.89 0.04,1.89 1.22,0 1.17,-1.89 -0.04,-1.89z"/>
  <path class="fil0" d="M95.88 133.86c-1.37,0 -1.32,2.13 0.06,2.13 1.38,0 1.32,-2.13 -0.06,-2.13z"/>
  <path class="fil0" d="M88.26 136.34l-0.08 0.2 -0.01 0.04 -0.06 0.18 0.18 0.76c0.19,0.3 0.52,0.49 0.94,0.31l0.18 -0.07c1.89,-0.66 -0.48,-2.98 -1.14,-1.42z"/>
  <path class="fil0" d="M86.28 144.48c-1.12,0 -1.07,1.73 0.04,1.73 1.12,0 1.07,-1.73 -0.04,-1.73z"/>
  <path class="fil0" d="M75.45 143.25l0.07 0 -0.27 -0.03c-1.15,-0.09 -1.13,1.89 0.04,1.8l0.19 -0.03 0.02 0 0.02 -0 0.04 -0.01 -0.03 0c1.1,-0.09 1.02,-1.68 -0.08,-1.73z"/>
  <path class="fil0" d="M78.35 142.8c1.2,0 1.15,-1.86 -0.04,-1.86 -1.2,0 -1.15,1.86 0.04,1.86z"/>
  <path class="fil0" d="M78.55 145.91c-0.7,-0.15 -1.21,0.45 -1.08,1.11l0.26 0.59 0.08 0.05c0.35,0.27 0.78,0.38 1.19,0.12 0.36,-0.22 0.57,-0.7 0.42,-1.12 -0.15,-0.42 -0.45,-0.67 -0.87,-0.76z"/>
  <path class="fil0" d="M68.75 141.57c1.19,0 1.14,-1.84 -0.05,-1.84 -1.19,0 -1.14,1.84 0.05,1.84z"/>
  <path class="fil0" d="M71.7 143.65l-0.16 0.04c-0.87,0.14 -0.79,1.56 0.04,1.7l0.16 0.04c0.58,0.2 1.16,-0.35 1.14,-0.92 -0.01,-0.59 -0.62,-1.06 -1.19,-0.86z"/>
  <path class="fil0" d="M64.05 141.69c1.08,0 1.04,-1.67 -0.04,-1.67 -1.08,0 -1.04,1.67 0.04,1.67z"/>
  <path class="fil0" d="M59.75 144.97c1.1,0 1.05,-1.71 -0.04,-1.71 -1.1,0 -1.05,1.71 0.04,1.71z"/>
  <path class="fil0" d="M56.85 138.72c-0.49,0.05 -0.9,0.41 -0.88,0.93 0.02,0.54 0.44,0.83 0.92,0.88l0.21 0.02c1.17,0.11 1.16,-1.96 -0.05,-1.84l-0.2 0.02z"/>
  <path class="fil0" d="M53.99 145.65l-0.28 0.04 0.07 0c-0.39,0.05 -0.73,0.26 -0.84,0.67 -0.11,0.43 0.16,1.01 0.64,1.07l-0.06 -0.05 0.5 0.12c1.19,0.03 1.15,-1.89 -0.04,-1.86z"/>
  <path class="fil0" d="M50.47 142.14l0.05 0.19c0.25,0.84 1.44,0.76 1.67,-0.04l0.05 -0.19c0.17,-0.58 -0.33,-1.16 -0.92,-1.14 -0.6,0.01 -1.03,0.61 -0.86,1.19z"/>
  <path class="fil0" d="M49.13 146.85c1.14,0 1.1,-1.78 -0.05,-1.78 -1.14,0 -1.1,1.78 0.05,1.78z"/>
  <path class="fil0" d="M43.51 142.6l-0.39 0.16c-0.59,0.37 -0.52,1.17 0.04,1.53l0.4 0.15c0.6,0.16 1.2,-0.33 1.18,-0.95 -0.02,-0.64 -0.63,-1.04 -1.23,-0.89z"/>
  <path class="fil0" d="M49.13 152.58c1.15,0 1.1,-1.78 -0.05,-1.78 -1.15,0 -1.1,1.78 0.05,1.78z"/>
  <path class="fil0" d="M46.05 154.71c-0.5,-0.12 -1.17,0.3 -1.09,0.88l0.03 0.2c0.05,0.38 0.24,0.71 0.65,0.8 0.42,0.1 0.97,-0.16 1.03,-0.62l0.03 -0.19c0.07,-0.48 -0.14,-0.95 -0.64,-1.08z"/>
  <path class="fil0" d="M71.97 157.76l-0.43 0.06c-0.83,0.28 -0.75,1.37 0.04,1.64l0.43 0.05c1.12,0.08 1.1,-1.83 -0.04,-1.75z"/>
  <path class="fil0" d="M75.65 160.46c-1.33,0 -1.28,2.06 0.05,2.06 1.33,0 1.28,-2.06 -0.05,-2.06z"/>
  <path class="fil0" d="M83.21 157.65c-1.26,0 -1.21,1.96 0.05,1.96 1.26,0 1.21,-1.96 -0.05,-1.96z"/>
  <path class="fil0" d="M88.73 158.02c-0.9,0.02 -1.32,1.14 -0.68,1.76l0.1 0.09c0.35,0.35 0.89,0.3 1.24,-0.02l0.1 -0.11c0.65,-0.63 0.1,-1.75 -0.76,-1.72z"/>
  <path class="fil0" d="M90.82 155.42c1.12,0 1.08,-1.74 -0.04,-1.74 -1.12,0 -1.08,1.74 0.04,1.74z"/>
  <path class="fil0" d="M96.7 158.66c-1.28,0 -1.23,1.99 0.05,1.99 1.28,0 1.23,-1.99 -0.05,-1.99z"/>
  <path class="fil0" d="M102.73 157.48c0.12,-0.49 -0.11,-1.02 -0.55,-1.26 -0.49,-0.27 -1.31,-0.13 -1.54,0.44l-0.03 0.06 -0.07 0.79 -0.01 -0.01 0.08 0.16 0.01 0.03c0.15,0.3 0.38,0.53 0.74,0.63 0.6,0.15 1.23,-0.23 1.38,-0.83z"/>
  <path class="fil0" d="M104.6 160.95c-0.13,-0.35 -0.29,-0.56 -0.6,-0.78l-1.09 0.03c-0.31,0.22 -0.45,0.46 -0.57,0.81 -0.26,0.73 0.46,1.48 1.17,1.46 0.74,-0.02 1.35,-0.79 1.1,-1.52z"/>
  <path class="fil0" d="M109.17 156.91c-1.17,0 -1.12,1.81 0.04,1.81 1.17,0 1.12,-1.81 -0.04,-1.81z"/>
  <path class="fil0" d="M89.69 150.7c0.17,-0.68 -0.53,-1.49 -1.25,-1.19l-0.16 0.05c-0.92,0.24 -0.83,1.6 0.05,1.82l-0.08 -0.04c0.59,0.24 1.28,0.04 1.44,-0.63z"/>
  <path class="fil0" d="M81.22 133.52c1.36,0 1.31,-2.11 -0.05,-2.11 -1.36,0 -1.31,2.11 0.05,2.11z"/>
  <path class="fil0" d="M82.81 134.6c-1.22,0 -1.17,1.88 0.05,1.88 1.21,0 1.16,-1.88 -0.05,-1.88z"/>
  <path class="fil0" d="M87.93 130.07l0.68 -0.02c0.87,-0.17 0.79,-1.54 -0.04,-1.7l-0.68 0c-0.88,0.15 -0.8,1.58 0.04,1.73z"/>
  <path class="fil0" d="M92.87 127.13c1.28,0 1.23,-1.99 -0.05,-1.99 -1.28,0 -1.23,1.99 0.05,1.99z"/>
  <path class="fil0" d="M83.49 127.37l0.01 -0c0.49,0.08 1.04,-0.22 1.01,-0.85 -0.06,-1.16 -1.5,-1.37 -2.03,-0.4 -0.36,0.65 0.27,1.51 1.01,1.25z"/>
  <path class="fil0" d="M85.32 132.06l0.03 0.05 0.06 0.1c0.5,0.81 1.72,0.59 1.97,-0.31l0 -0.01c0.11,-0.42 -0.09,-1.02 -0.52,-1.2l-0.32 -0.12 -0.12 -0.04 -0.33 -0.02c-0.54,0.07 -0.89,0.4 -0.91,0.95l0.15 0.57 0.01 0.02z"/>
  <path class="fil0" d="M74.68 132.59c1.21,0 1.15,-1.87 -0.04,-1.87 -1.21,0 -1.16,1.87 0.04,1.87z"/>
  <path class="fil0" d="M76.46 129.13c0.62,0.19 1.23,-0.37 1.22,-0.97 -0.02,-0.63 -0.66,-1.11 -1.27,-0.92l-0.57 0.32c-0.36,0.31 -0.31,0.97 0.03,1.27l0.59 0.3z"/>
  <path class="fil0" d="M70.79 127.49c1.22,0 1.17,-1.89 -0.04,-1.89 -1.22,0 -1.17,1.89 0.04,1.89z"/>
  <path class="fil0" d="M67.9 128.82l0.19 0.05c0.58,0.15 1.15,-0.32 1.14,-0.91 -0.01,-0.62 -0.61,-1.01 -1.19,-0.86l-0.19 0.05c-0.85,0.22 -0.77,1.47 0.04,1.68z"/>
  <path class="fil0" d="M65.68 126.34c1.06,0 1.01,-1.63 -0.04,-1.63 -1.05,0 -1.01,1.63 0.04,1.63z"/>
  <path class="fil0" d="M50.79 127.65l-0.02 0.01 0.02 -0.01zm-0.28 0.38c0.27,-0.1 0.49,-0.3 0.57,-0.63 0.14,-0.57 -0.33,-1.32 -0.98,-1.23 -0.41,0.06 -0.78,0.16 -1,0.55 -0.21,0.37 -0.13,0.75 0.05,1.12 0.26,0.51 0.96,0.53 1.36,0.19z"/>
  <path class="fil0" d="M52.14 129.96c0.62,0.17 1.24,-0.36 1.23,-0.98 -0.02,-0.65 -0.66,-1.1 -1.28,-0.92l-0.58 0.32c-0.35,0.37 -0.31,0.93 0.03,1.29l0.6 0.3z"/>
  <path class="fil0" d="M60.54 125.45l0.64 0.12c1.13,0 1.08,-1.74 -0.04,-1.74l-0.63 0.15c-0.57,0.32 -0.5,1.16 0.03,1.47z"/>
  <path class="fil0" d="M43.12 125.95l0.03 0.11 -0.02 -0.02 -0.01 -0.09zm0.19 0.5l0.47 0.33c0.41,0.1 1.01,-0.17 1.06,-0.64 0.01,-0.13 0.13,-0.51 0.02,-0.17l-0.13 -0.74c-0.21,-0.35 -0.69,-0.56 -1.08,-0.41l-0.33 0.15c-0.58,0.28 -0.52,1.16 -0.02,1.48z"/>
  <path class="fil0" d="M37.07 127.42c1.12,0 1.08,-1.74 -0.04,-1.74 -1.13,0 -1.08,1.74 0.04,1.74z"/>
  <path class="fil0" d="M32.98 129.58c1.28,0 1.23,-1.98 -0.05,-1.98 -1.28,0 -1.23,1.98 0.05,1.98z"/>
  <path class="fil0" d="M27.03 125.95l0.19 0.03c0.57,0.1 1.12,-0.27 1.11,-0.88 -0.02,-0.64 -0.59,-0.93 -1.15,-0.83l-0.19 0.03c-0.84,0.14 -0.76,1.51 0.04,1.65z"/>
  <path class="fil0" d="M23.54 126.68l-0.2 0.03c-0.38,0.05 -0.71,0.24 -0.81,0.65 -0.1,0.41 0.16,0.97 0.62,1.03l0.2 0.03c0.48,0.07 0.94,-0.14 1.07,-0.64 0.13,-0.51 -0.3,-1.18 -0.87,-1.1z"/>
  <path class="fil0" d="M14.75 124.22c-1.15,0 -1.11,1.79 0.04,1.79 1.15,0 1.11,-1.79 -0.04,-1.79z"/>
  <path class="fil0" d="M21.29 123.82c-1.15,0 -1.1,1.78 0.04,1.78 1.15,0 1.1,-1.78 -0.04,-1.78z"/>
  <path class="fil0" d="M120.66 127.09c1.23,0 1.18,-1.91 -0.05,-1.91 -1.23,0 -1.18,1.91 0.05,1.91z"/>
  <path class="fil0" d="M122.67 130.43l0.39 0.14c0.53,0.09 1.06,-0.16 1.2,-0.72 0.14,-0.56 -0.34,-1.33 -0.98,-1.23l-0.65 0.19c-0.63,0.32 -0.56,1.33 0.04,1.63z"/>
  <path class="fil0" d="M128.18 126.65c0.51,0.07 1.01,-0.15 1.15,-0.69 0.14,-0.55 -0.32,-1.27 -0.94,-1.18l-0.82 0.34c-0.23,0.28 -0.37,0.75 -0.11,1.08 0.2,0.24 0.41,0.41 0.73,0.46z"/>
  <path class="fil0" d="M134.52 124.44c-1.14,0 -1.1,1.76 0.04,1.76 1.14,0 1.1,-1.76 -0.04,-1.76z"/>
  <path class="fil0" d="M138.49 126.27l-0.14 0.11c-0.6,0.36 -0.54,1.19 0.02,1.56 0.59,0.43 1.48,0.25 1.67,-0.53 0.2,-0.8 -0.8,-1.72 -1.55,-1.13z"/>
  <polygon class="fil0" points="138.39,127.95 138.37,127.94 138.32,127.91 "/>
  <path class="fil0" d="M144.33 124.65c-1.12,0 -1.08,1.74 0.04,1.74 1.12,0 1.08,-1.74 -0.04,-1.74z"/>
  <path class="fil0" d="M150.95 124.63c-0.81,0.4 -0.73,1.44 0.04,1.82 0.71,0.35 1.59,-0.12 1.56,-0.95 -0.02,-0.86 -0.91,-1.21 -1.61,-0.87z"/>
  <path class="fil0" d="M165.98 125.67c0.62,0.22 1.25,-0.4 1.24,-0.99 -0.02,-0.63 -0.67,-1.15 -1.29,-0.93l-0.58 0.33c-0.36,0.32 -0.32,0.99 0.03,1.29l0.59 0.31z"/>
  <path class="fil0" d="M151.47 140.98c0.62,0.13 1.23,-0.32 1.21,-0.97 -0.02,-0.68 -0.65,-1.04 -1.26,-0.91l-0.58 0.31c-0.35,0.37 -0.31,0.93 0.03,1.28l0.59 0.29z"/>
  <path class="fil0" d="M54.85 89.19c-1.87,0.35 -3.3,1.17 -4.41,2.73 -0.65,0.91 -1.25,1.81 -2.05,2.59 -1.04,1.02 -3.59,0.72 -4.96,0.76 -0.42,0.01 -0.8,0.3 -0.9,0.72 -0.36,1.51 -1.07,2.62 -2.16,3.72 -0.69,0.69 0.29,1.96 1.1,1.35 1.34,-1.01 2.19,-2.31 2.7,-3.86 1.93,0.07 4.39,0.16 5.79,-1.2 1.94,-1.86 2.59,-4.18 5.54,-4.72 1.38,-0.26 0.74,-2.34 -0.63,-2.09z"/>
  <path class="fil0" d="M133.78 79.78c-1.32,0.3 -0.68,2.18 0.6,1.97 5.86,-0.97 3.66,5.07 5.45,8.24l-0.6 0.86c-0.47,0.7 -0.99,1.36 -1.28,2.16 -0.27,0.73 0.75,1.45 1.37,1 0.61,-0.47 1.01,-1.1 1.43,-1.73l0.51 -0.78c0.43,0.34 0.82,0.65 1.18,1.04 -1.56,1.73 -2.92,3.86 -3.85,5.97 -0.4,0.92 0.67,1.78 1.44,1.05 1.49,-1.43 2.38,-3.4 3.41,-5.21 0.28,0.73 0.53,1.48 0.89,2.17l0.3 0.51c-0.98,0.82 -1.91,1.69 -2.59,2.8 -0.68,1.11 1.06,2.04 1.75,0.97 0.62,-0.94 1.49,-1.69 2.32,-2.47 0.44,0.17 0.91,0.22 1.44,0.26l-0.16 0.19c-0.56,0.68 -1.51,1.66 -1.27,2.62 0.14,0.56 0.88,0.84 1.36,0.51 0.59,-0.4 1.03,-1.32 1.49,-1.87 0.36,-0.44 0.74,-0.86 1.11,-1.28l0.16 0.02c0.59,0.09 1.41,-0.19 1.49,-0.89 0.38,-3.48 3.29,-2.33 5.29,-1.03l-0.15 0.26c-0.33,0.56 -0.89,1.08 -1.14,1.67 -0.36,0.87 0.43,1.59 1.27,1.21 0.67,-0.3 1.13,-1.13 1.5,-1.73l0.35 -0.66c0.54,0.01 1.1,-0.11 1.62,-0.28 0.24,0.55 0.51,1.1 0.82,1.63 -0.28,0.32 -0.55,0.67 -0.79,1.05 -0.48,0.74 -1.01,1.62 -1.02,2.53 -0.01,0.81 1.04,1.15 1.57,0.6 0.51,-0.53 0.76,-1.29 1.13,-1.92l0.35 -0.54c0.92,0.98 2.08,1.63 3.57,1.56 1.32,-0.07 1.34,-1.73 0.24,-2.17 -2.22,-0.87 -3.11,-2.68 -3.95,-4.75 -0.33,-0.82 -1.09,-1.07 -1.89,-0.72 -2.24,1.03 -4.57,-2.02 -7.32,-1.49 -2.07,0.4 -3.14,1.49 -3.61,3.21 -1.49,-0.03 -2.84,0.04 -3.52,-1.53 -0.63,-1.43 -1.04,-2.89 -1.88,-4.22 -0.48,-0.76 -1.9,-1.15 -2.18,-1.88 -0.83,-2.17 -0.93,-4.79 -1.45,-7.05 -0.09,-0.4 -0.48,-0.74 -0.87,-0.83 -2.31,-0.51 -3.37,-1.61 -5.89,-1.03z"/>
  <line class="fil1" x1="11.01" y1="94.01" x2="11.01" y2= "94.01" />
  <path class="fil0" d="M12.57 95.69l-0.04 -0.25 0.04 0.25zm1.5 -1.13l-0.6 -0.32 -0.8 -0.19c-0.33,-0.05 -0.66,-0.08 -0.99,-0.09l-0.35 0 -0.32 0.04 0.01 0 -0.01 0c-0.39,0.04 -0.71,0.25 -0.81,0.65 -0.1,0.43 0.16,0.96 0.63,1.04l0.01 0 0.22 0.07 0.41 0.14c0.23,0.08 0.51,0.19 0.88,0.29 0.3,0.09 0.64,0.19 0.96,0.2 0.15,0.01 0.64,-0.1 0.18,-0.03l0.29 -0.05 0.15 -0.08 0.07 -0.04 0 0 0.09 -0.05 0.12 -0.09 0.24 -0.44c0.13,-0.35 -0.06,-0.7 -0.27,-0.96 0.07,0.08 0.26,0.22 -0.09,-0.11z"/>
  <path class="fil0" d="M14.01 96.23c0.3,-0.19 0.22,-0.14 0.07,-0.06l-0.09 0.05 0.02 0.01z"/>
  <path class="fil0" d="M11.08 91.1c0.71,0.08 1.7,0.35 2.34,-0.08 0.6,-0.42 0.54,-1.19 -0.04,-1.59 -0.57,-0.4 -1.46,-0.16 -2.1,-0.09 -0.4,0.05 -0.74,0.26 -0.84,0.68 -0.11,0.43 0.16,1.02 0.65,1.08z"/>
  <path class="fil0" d="M17.72 99.27c-0.42,-0.24 -0.82,-0.18 -1.27,-0.12 -0.41,0.05 -0.75,0.26 -0.85,0.68 -0.11,0.43 0.17,1.03 0.66,1.09 0.54,0.07 1,0.17 1.5,-0.12 0.59,-0.33 0.53,-1.21 -0.04,-1.53z"/>
  <path class="fil0" d="M105.83 56.28c-4.82,-1.28 -8.44,-1.84 -11.3,-6.5 -1.56,-2.54 -3.01,-4.81 -5.78,-6.13 -2.01,-0.96 -4.31,-1.31 -6.41,-1.98 -5.65,-1.8 -5.03,-7.62 -0.82,-10.91 0.71,-0.56 0.27,-2.01 -0.71,-1.59 -3.14,1.34 -5,5.04 -4.81,8.37 0.18,3.35 3.01,5.13 5.84,6.15 1.93,0.71 3.97,1.06 5.88,1.84 2.78,1.13 4.02,4 5.47,6.39 2.69,4.45 7.47,6.05 12.43,6.37 1.17,0.07 1.3,-1.72 0.22,-2z"/>
  <path class="fil0" d="M134.49 48.24c-10.36,4.22 -22.2,4.89 -32.79,1.11 -0.91,-0.32 -1.5,1.18 -0.62,1.58 10.34,4.66 24.03,3.86 34.13,-1.08 0.91,-0.44 0.21,-1.99 -0.72,-1.61z"/>
  <path class="fil0" d="M149.8 43.85c0.29,-0.98 -1.31,-1.63 -1.69,-0.66 -3.9,9.83 -14.83,12.18 -24.29,12.65 -0.95,0.05 -1.2,1.59 -0.19,1.73 9.93,1.36 23.09,-3.35 26.17,-13.71z"/>
  <path class="fil0" d="M67.68 53.36c-3.76,-0.13 -7.53,-0.21 -11.29,-0.26 0.3,-1.94 0.81,-3.71 2.46,-5.04 1.77,-1.42 4.11,-1.42 6.19,-0.86 0.94,0.25 1.57,-1.24 0.64,-1.61 -0.61,-0.25 -1.24,-0.41 -1.86,-0.51 0.54,-2.01 1.7,-3.66 3.53,-4.78 0.84,-0.52 0.21,-2.03 -0.72,-1.61 -1.36,0.62 -2.62,1.44 -3.44,2.72 -0.75,1.16 -1.02,2.3 -1.16,3.59 -4.17,0.22 -7.79,3.5 -7.49,8.08 -2.63,-0.03 -5.25,-0.05 -7.88,-0.05 -6.67,0 -13.69,-0.57 -20.38,-0.01 1.57,-1.36 3.08,-2.7 5.06,-3.52 2.47,-1.03 5.07,-0.48 7.54,0.19 0.98,0.27 1.62,-1.26 0.66,-1.68 -1.48,-0.67 -2.97,-1.01 -4.43,-1.08 0.64,-1.49 0.89,-3.14 1.58,-4.63 0.86,-1.82 2.13,-3.29 3.96,-4.17 0.92,-0.45 0.22,-1.92 -0.72,-1.61 -2.07,0.68 -3.51,2.03 -4.68,3.83 -1.12,1.74 -2.18,4.49 -1.92,6.58l0.02 0.05c-3.73,0.39 -7.14,2.54 -9.64,5.83l-0.21 0.58c-0.75,0.38 -0.94,1.67 0.1,1.81 7.01,0.93 14.43,0.28 21.49,0.28 7.55,0 15.1,-0.08 22.64,-0.33 1.16,-0.04 1.1,-1.75 -0.04,-1.79z"/>
  <path class="fil0" d="M89.49 52.82c-4.33,-0.37 -9.01,-0.63 -13.31,0.06 -0.84,0.14 -0.77,1.53 0.04,1.66 4.29,0.7 8.99,0.43 13.31,0.06 1.16,-0.1 1.08,-1.69 -0.04,-1.78z"/>
 </g>
</svg>
