<?xml version="1.0" encoding="UTF-8"?>
<svg xmlns="http://www.w3.org/2000/svg" xml:space="preserve" width="0.748138in" height="0.747343in" version="1.1" style="shape-rendering:geometricPrecision; text-rendering:geometricPrecision; image-rendering:optimizeQuality; fill-rule:evenodd; clip-rule:evenodd"
viewBox="0 0 129.71 129.57"
 xmlns:xlink="http://www.w3.org/1999/xlink"
 xmlns:xodm="http://www.corel.com/coreldraw/odm/2003">
 <defs>
  <style type="text/css">
   <![CDATA[
    .fil0 {fill:black;fill-rule:nonzero}
   ]]>
  </style>
 </defs>
 <g id="Layer_x0020_1">
  <metadata id="CorelCorpID_0Corel-Layer"/>
  <path class="fil0" d="M109.75 69.92c5.92,0.38 12.05,0.56 17.98,0.13 -0.17,1.97 -0.41,3.92 -0.76,5.83 -6.19,-0.5 -12.69,-0.51 -18.86,0.15 -0.82,0.09 -0.76,1.17 0.03,1.25 6.07,0.64 12.44,0.65 18.53,0.17 -0.1,0.5 -0.21,1.01 -0.33,1.51 -2.46,0 -4.92,0.18 -7.36,0.47 -0.78,0.09 -0.77,1.22 0.03,1.22 2.31,-0 4.63,-0.07 6.94,-0.11 -0.19,0.74 -0.4,1.47 -0.62,2.2 -0.8,-0.46 -1.89,-0.54 -2.69,-0.34 -0.68,0.16 -0.47,1.18 0.19,1.18 0.46,0 0.87,0.02 1.3,0.14 0.31,0.09 0.53,0.25 0.77,0.41 -0.52,1.6 -1.1,3.18 -1.74,4.72 -0.47,0.14 -0.81,0.35 -1.34,0.35 -0.5,0 -1.01,-0.14 -1.51,-0.2 -0.62,-0.07 -1.11,0.81 -0.43,1.11 0.67,0.31 1.66,0.57 2.53,0.48 -1.21,2.69 -2.61,5.27 -4.17,7.74 -0.97,-1.07 -4.07,-1.75 -4.87,-1.56 -0.55,0.13 -0.59,0.91 -0.12,1.17 0.71,0.38 1.58,0.45 2.35,0.68 0.48,0.14 1.35,0.34 1.44,0.87l0.24 0.35c-11.33,16.85 -30.56,27.97 -52.35,27.97 -24.55,0 -45.87,-14.12 -56.27,-34.66l0.6 -0.3 0.6 -0.16c0.25,-0.06 0.46,-0.18 0.69,-0.26 0.62,-0.18 0.59,-1.1 -0.03,-1.25 -0.27,-0.07 -0.48,-0.15 -0.77,-0.14 -0.33,0.01 -0.67,0.12 -0.98,0.22 -0.26,0.08 -0.57,0.2 -0.86,0.36 -0.79,-1.66 -1.5,-3.37 -2.15,-5.1 0.9,-0.14 2.03,0.39 2.79,0.57 0.96,0.22 2.04,0.13 3.01,0.07 2.81,-0.19 5.12,-0.91 7.9,0.09 0.65,0.23 1.06,-0.84 0.44,-1.11 -3.16,-1.41 -5.97,-0.52 -9.28,-0.32 -1.56,0.09 -3.88,-1.48 -5.46,-0.99 -0.62,-1.85 -1.16,-3.74 -1.61,-5.66 1.25,0.21 2.63,0.05 3.85,-0.12 1.13,-0.16 2.23,-0.6 3.33,-0.91 2.01,-0.57 4.4,0.28 6.38,0.76 0.78,0.19 1.07,-0.99 0.3,-1.21 -2.34,-0.66 -4.66,-1.32 -7.08,-0.88 -1.41,0.26 -2.68,0.78 -4.13,0.95 -0.31,0.02 -0.63,0.03 -0.95,0.02 -0.82,0 -1.46,-0.69 -1.57,0.09 0.06,-0.47 -0.22,-0.79 -0.59,-0.84 -0.28,-1.4 -0.51,-2.83 -0.7,-4.26 6.08,0.31 12.34,0.35 18.4,0.07 0.93,-0.05 0.88,-1.39 -0.03,-1.44 -6.11,-0.29 -12.4,-0.24 -18.52,0.07 -0.21,-1.94 -0.32,-3.92 -0.34,-5.91 3.28,0.56 7.06,-0.03 10.28,-0.09 4.38,-0.09 8.78,-0.35 13.17,-0.37 0.82,-0 0.78,-1.26 -0.03,-1.26 -4.01,-0.02 -8.04,-0.26 -12.05,-0.34 -3.54,-0.07 -7.77,-0.75 -11.36,-0.12 0.03,-1.46 0.12,-2.9 0.25,-4.33 7.77,-0.33 15.57,-0.44 23.37,-0.43l0.57 0c12.05,0.02 24.11,0.28 36.13,0.4 -0.01,0.5 -0.02,1 -0.01,1.5 0.01,0.78 1.2,0.75 1.21,-0.03 0.01,-0.49 0,-0.98 -0.01,-1.46 0.24,0 0.47,0 0.7,0 -0.08,1.51 -0.19,3.02 -0.32,4.52l-0.4 -0.16c-1.07,-0.03 -2.16,-0.01 -3.23,0.03 -0.79,0.04 -0.74,1.18 0.03,1.21 0.44,0.02 0.87,0.03 1.31,0.04 0.02,0.95 -0.15,1.85 -1.06,2.36 -0.7,0.4 -0.05,1.43 0.66,1.06 1.25,-0.67 1.7,-2.07 1.62,-3.42 0.24,-0 0.47,0 0.71,-0l0.27 -0.07c-0.12,1.29 -0.23,2.76 -0.67,4.01 -0.5,0.01 -1,0.05 -1.48,0.17l-0.3 0.2 -0.14 0.25c-1.25,5.34 -2.6,10.34 -4.76,15.38 -0.4,0.02 -0.79,0.06 -1.19,0.09 -0.35,0.04 -0.54,0.26 -0.59,0.5 -3.27,8.63 -8.56,17.59 -15.56,23.75 -0.58,0.51 0.22,1.47 0.84,1.04 3.43,-2.36 6.02,-5.88 8.4,-9.23 3.17,-4.44 6.03,-9.38 7.4,-14.71 3.28,0.26 6.62,0.11 9.91,0.1 2.98,0 6.07,0.22 9.04,-0.08 1.37,5.35 4.28,10.22 7.41,14.73 2.34,3.36 5.01,6.87 8.41,9.21 0.64,0.44 1.35,-0.58 0.79,-1.08 -6.99,-6.15 -12.27,-15.14 -15.54,-23.75l-0.01 -0.01c-0.03,-0.22 -0.18,-0.41 -0.48,-0.46 -0.43,-0.05 -0.86,-0.09 -1.29,-0.12 -2.15,-5.04 -3.51,-10.05 -4.77,-15.4 -0.07,-0.31 -0.34,-0.44 -0.61,-0.43l-0 -0c-0.42,-0.05 -0.85,-0.08 -1.27,-0.1 -0.51,-1.37 -0.57,-3 -0.72,-4.41 -0.19,-1.72 -0.3,-3.46 -0.39,-5.2 0.31,0 0.61,0 0.91,0 -0.05,0.54 -0.13,1.07 -0.12,1.61 0.02,0.79 1.16,0.74 1.2,-0.03 0.03,-0.52 0.1,-1.05 0.13,-1.57 9.34,0.07 18.68,0.13 28.02,0.13 10.35,0 20.84,0.49 31.16,-0.32l0.22 -0.01c0.08,0.87 0.15,1.74 0.19,2.61 -3.48,-0.24 -7.01,-0 -10.5,0.06 -3.81,0.07 -7.65,-0.1 -11.46,0.12 -0.8,0.05 -0.76,1.19 0.03,1.23 3.81,0.22 7.65,0.06 11.47,0.12 3.5,0.06 7.03,0.3 10.52,0.06 0.02,0.58 0.02,1.15 0.02,1.73 0,1.27 -0.04,2.54 -0.12,3.8 -5.96,-0.44 -12.15,-0.27 -18.11,0.13 -0.8,0.05 -0.75,1.17 0.03,1.22zm-106.38 -18.66c4.04,-2.05 6.94,0.59 10.35,2.26 0.94,0.75 1.67,1.72 2.68,2.4 0.53,0.36 1.29,-0.41 0.88,-0.92l-0.34 -0.43c4.19,0.61 8.91,-1.34 13.11,-0.75 1.99,0.28 3.94,0.87 5.95,0.98l0.12 0.06c0.68,0.19 1.23,0.67 1.86,0.98 0.61,0.3 1.32,-0.54 0.73,-1l-0.1 -0.08c1.55,-0.11 3.09,-0.31 4.65,-0.32 3.22,-0.01 5.91,1.59 8.76,2.75 -8.49,0.12 -16.99,0.26 -25.48,0.27l-0.26 -0.15c-0.24,-0.1 -0.45,-0.15 -0.67,-0.29 -0.2,-0.12 -0.38,-0.35 -0.6,-0.47 -0.42,-0.23 -0.93,0.09 -0.93,0.56l0.06 0.35c-4.41,-0 -8.82,-0.05 -13.22,-0.14l-0.06 -0.06c-0.42,-0.3 -0.99,-0.43 -1.26,-0.88 -0.36,-0.59 -1.38,-0.16 -1.12,0.5l0.19 0.38c-0.26,-0.01 -0.53,-0.02 -0.8,-0.02 -0.45,-0.7 -1.08,-1.28 -1.62,-1.9 -0.46,-0.54 -1.31,0.19 -0.94,0.76 0.24,0.37 0.5,0.73 0.78,1.09 -1.24,-0.04 -2.49,-0.09 -3.73,-0.14 0.24,-1.96 0.57,-3.9 0.99,-5.8zm64.59 18.78c0.41,4.73 1.78,10.25 4.18,14.46 -1.82,-0.03 -3.64,0.05 -5.44,0.04 -2.84,-0 -5.71,-0.12 -8.56,-0.04 2.39,-4.19 3.77,-9.7 4.18,-14.42 0.76,0.07 1.53,0.02 2.29,0.02 1.11,-0 2.24,0.03 3.36,-0.07zm-2.92 -1.41l-0.58 -0.01c0.38,-1.13 0.48,-2.41 0.62,-3.52l0.06 -0.56c0.04,0.34 0.07,0.69 0.11,1.04 0.13,0.98 0.25,2.07 0.57,3.05 -0.26,0 -0.52,0 -0.79,0zm-52.53 -38.78c3.98,2.34 8.85,0.95 12.97,-0.37 2.87,-0.92 5.71,-1.56 8.71,-1.88 1.85,-0.19 3.68,-0.08 5.39,0.69 1.16,0.52 1.93,1.63 3.02,2.25 2.14,1.22 4.58,1.04 6.97,0.87 3.57,-0.25 7.14,-0.46 10.7,-0.89 5.42,-0.65 10.85,-1.58 16.33,-1.25 1.04,0.06 2.04,0.26 3.04,0.56 1.27,0.38 1.17,0.44 1.2,1.39 0.03,1.1 1.32,1.45 2.17,1.63 2.34,0.5 4.86,0.39 7.23,0.75 1.48,0.22 3.42,0.22 4.67,1.14 1.19,0.87 -0.17,1.44 0.15,2.28 1.45,3.71 8.4,2.87 11.46,2.73 3.51,-0.15 6.88,-0.75 10.35,0.11 1.62,0.4 3.11,1.19 4.62,1.89 0.77,0.36 1.7,0.47 2.44,0.9 0.52,1.39 1,2.8 1.43,4.23l-0.2 0.07c-5.01,3.02 -10.35,5.09 -16.28,4.94 -4.86,-0.12 -8.68,-3.01 -13.63,-1.87 -2.42,0.56 -4.7,1.62 -7.13,2.17 -2.77,0.62 -5.63,0.22 -8.43,0.44 -5.39,0.42 -9.95,3.73 -15.2,4.38l-0.22 0.05c-2.74,0.02 -5.47,0.06 -8.21,0.09l-0.22 -0.1c-4.18,-1 -7.48,-3.73 -11.9,-4.18 -2.31,-0.24 -4.64,0.33 -6.94,0.36 -2.61,0.04 -5.15,-0.93 -7.73,-1.18 -5.62,-0.54 -11.14,2.28 -16.3,-0.96 -2.83,-1.78 -5.94,-3.12 -9.06,-2.01 1.79,-6.94 4.73,-13.42 8.62,-19.23zm52.42 -28.08c4.39,0 8.68,0.45 12.82,1.31 1.96,0.65 3.73,1.33 5.35,2.69 1.38,1.16 1.43,2.59 2.23,4 1.29,2.27 4.39,2.37 6.17,4.16 0.56,0.57 1.36,-0.19 1.03,-0.84 -0.6,-1.16 -1.31,-1.93 -2.57,-2.39 -1.24,-0.46 -2.82,-0.61 -3.37,-2.03 -0.24,-0.64 -0.34,-1.38 -0.72,-1.96 -0.44,-0.69 -0.96,-1.32 -1.54,-1.89 12.39,4.02 23.11,11.77 30.82,21.94 -2.43,-0.62 -9.06,0.61 -9.98,-2.04 -0.78,-2.25 -1.05,-3.82 -3.58,-4.67 -1.63,-0.55 -1.38,-1.86 -1.82,-3.31 -0.38,-1.25 -2.04,-1.61 -3.1,-1.87 -0.72,-0.18 -1.21,0.94 -0.49,1.24 1.99,0.84 1.95,2.21 2.51,3.94 0.21,0.64 0.71,1.38 1.41,1.56 1.38,0.35 2.46,0.63 2.97,2.23 0.33,1.04 0.4,1.98 1.1,2.86 1.39,1.74 4.31,1.38 6.27,1.4 2.51,0.03 5,0.17 6.81,1.6 2.27,3.37 4.23,6.98 5.82,10.77 -0.76,-0.25 -1.54,-0.47 -2.23,-0.78 -1.99,-0.91 -3.99,-1.57 -6.17,-1.85 -5.16,-0.65 -10.33,0.93 -15.54,0.05 -0.87,-0.15 -2.48,-0.43 -2.14,-1.78 0.09,-0.37 0.07,-0.82 -0.09,-1.16 -0.65,-1.34 -1.56,-1.97 -2.99,-2.38 -2.14,-0.6 -4.65,-0.79 -6.85,-0.98 -0.38,-0.03 -4.71,-0.28 -4.41,-0.7l-0.02 -0.79c-2.29,-3.07 -7.46,-2.59 -10.82,-2.42 -7.06,0.34 -14.15,1.42 -21.19,2.07 -2.05,0.19 -4.07,0.37 -6.11,-0.03 -1.45,-0.28 -2.88,-2.04 -4.13,-2.85 -2.22,-1.43 -5.53,-1.01 -7.98,-0.68 -5.78,0.78 -13.41,5.4 -19.08,2.49 11.41,-16.26 30.29,-26.92 51.62,-26.92zm62.57 55.46l-0.09 0c-1.21,-0.1 -2.42,-0.17 -3.64,-0.23 0.28,-0.19 0.57,-0.38 0.85,-0.58 0.65,-0.47 0.06,-1.4 -0.65,-1.05 -0.82,0.41 -1.55,0.98 -2.27,1.56 -1.37,-0.05 -2.74,-0.09 -4.11,-0.11 1.12,-0.56 2.22,-1.19 3.3,-1.76 0.62,-0.33 0.15,-1.39 -0.51,-1.13 -2.15,0.88 -4.15,2.06 -6.33,2.86 -5.58,-0.01 -11.17,0.12 -16.71,0.12 -0.33,0 -0.67,0 -1,0 0.54,-0.22 1.08,-0.44 1.61,-0.68 0.66,-0.3 0.15,-1.33 -0.51,-1.13 -1.55,0.47 -3.08,1.13 -4.55,1.83 -7.49,0.01 -14.99,0.05 -22.48,0.1 3.31,-1.2 6.56,-2.58 10.19,-2.86 2.36,-0.18 4.72,0.15 7.07,-0.28 2.76,-0.5 5.37,-1.47 8.03,-2.33 2.81,-0.92 5.54,0.1 8.22,0.91l0.1 0.03c-0.45,0.12 -0.88,0.25 -1.3,0.39 -0.68,0.24 -0.57,1.42 0.21,1.31 1.77,-0.25 3.55,-0.63 5.29,-1.01 1.19,0.07 2.39,0.05 3.57,-0.03 4.95,-0.32 9.79,-2.42 13.88,-5.14 0.83,2.98 1.43,6.05 1.81,9.2zm-7.66 -26.78c-0.28,-0.75 -0.7,-1.37 -1.22,-1.87 -11.66,-17.22 -31.37,-28.57 -53.69,-28.57 -35.45,0 -64.33,28.62 -64.77,63.96 -0.2,0.28 -0.2,0.66 -0.01,0.94 0.06,35.67 29.1,64.67 64.78,64.67 35.72,0 64.79,-29.06 64.79,-64.79 0,-12.6 -3.62,-24.38 -9.88,-34.34z"/>
  <path class="fil0" d="M20.04 99.87l-0.52 -0.67 1.26 -0.44 -0.74 1.11zm2.46 -2.36l-0.07 -0.09 -0.53 -0.16 -4.73 1.65 -0.27 0.25 -0.01 0.37 0.04 0.1c0.09,0.24 0.35,0.36 0.59,0.27l0.96 -0.33 0.94 1.22 -0.57 0.85 0.11 0.64 0.08 0.06 0.28 0.09 0.08 -0 0.31 -0.2 2.8 -4.16 -0.02 -0.55z"/>
  <polygon class="fil0" points="21.94,104.17 25.05,101.27 25.2,100.94 25.07,100.6 25,100.53 24.34,100.5 20.81,103.8 20.79,104.46 22.27,106.05 22.62,106.2 22.94,106.07 23.01,106 23.16,105.68 23.03,105.34 "/>
  <polygon class="fil0" points="28.57,104.15 28.23,104.04 27.9,104.19 24.7,107.8 24.59,108.14 24.74,108.46 26.37,109.9 26.68,110.02 26.71,110.02 27.03,109.86 27.1,109.79 27.06,109.12 25.87,108.07 28.68,104.88 28.65,104.22 "/>
  <path class="fil0" d="M38.7 112.02l0.05 -0.36 -0.21 -0.29 -1.87 -1.11 -0.35 -0.05 -0.29 0.21 -2.47 4.15 -0.05 0.36 0.22 0.29 0.09 0.05 0.24 0.06 0.4 -0.23 1.09 -1.83 1.37 0.82 0.36 0.05 0.29 -0.21 0.06 -0.09c0.13,-0.22 0.06,-0.51 -0.16,-0.65l-1.37 -0.82 0.55 -0.92 1.38 0.81c0.22,0.13 0.51,0.06 0.64,-0.16l0.06 -0.09z"/>
  <path class="fil0" d="M42.05 115.24l-0.91 1.91 -0.46 0.41 -0.61 -0.03 -0.42 -0.45 0.03 -0.62 0.91 -1.92 0.45 -0.41 0.28 -0.05 0.34 0.08c0.21,0.1 0.34,0.24 0.41,0.46l-0.03 0.61zm0.07 -2.02c-0.46,-0.21 -0.94,-0.24 -1.42,-0.07 -0.48,0.17 -0.83,0.49 -1.05,0.95l-0.91 1.92c-0.22,0.46 -0.24,0.93 -0.07,1.41 0.17,0.48 0.49,0.83 0.95,1.05 0.26,0.12 0.52,0.18 0.79,0.18l0.62 -0.12c0.48,-0.17 0.84,-0.49 1.05,-0.95l0.91 -1.92c0.22,-0.46 0.24,-0.93 0.07,-1.41 -0.17,-0.48 -0.49,-0.83 -0.95,-1.05z"/>
  <path class="fil0" d="M46.92 117.17c-0.14,0.39 -0.34,0.49 -0.47,0.52 -0.17,0.05 -0.38,0.03 -0.62,-0.06l-0.7 -0.25 0.54 -1.51 0.69 0.25c0.24,0.09 0.4,0.2 0.51,0.35 0.08,0.11 0.18,0.31 0.04,0.7zm-0.19 -2.04l-1.23 -0.44c-0.25,-0.09 -0.52,0.04 -0.6,0.28l-1.64 4.54 0.02 0.36 0.26 0.24 0.1 0.04c0.24,0.08 0.51,-0.04 0.6,-0.28l0.54 -1.5 0.69 0.25 0.02 0.01 0.23 2.02c0.02,0.24 0.23,0.42 0.47,0.42l0.04 0 0.1 -0.01 0.33 -0.17 0.1 -0.35 -0.2 -1.79c0.49,-0.07 1.04,-0.36 1.34,-1.22 0.28,-0.79 0.06,-1.34 -0.17,-1.66 -0.23,-0.32 -0.57,-0.57 -1.01,-0.72z"/>
  <path class="fil0" d="M56.79 121.71c-0.04,0.23 -0.14,0.39 -0.32,0.53l-0.6 0.14c-0.23,-0.04 -0.39,-0.14 -0.53,-0.32 -0.14,-0.18 -0.18,-0.38 -0.15,-0.6l0.33 -2.09c0.04,-0.23 0.14,-0.39 0.32,-0.53l0.46 -0.16 0.14 0.01c0.23,0.04 0.39,0.14 0.52,0.32 0.13,0.18 0.18,0.37 0.14,0.59l-0.32 2.09zm-0.18 -4.04c-0.51,-0.08 -0.97,0.04 -1.38,0.33 -0.41,0.3 -0.66,0.71 -0.74,1.21l-0.32 2.09c-0.08,0.51 0.03,0.97 0.33,1.38 0.3,0.41 0.71,0.65 1.21,0.73l0.3 0.03c0.39,0 0.75,-0.12 1.07,-0.36 0.41,-0.3 0.66,-0.7 0.74,-1.21l0.33 -2.09c0.08,-0.5 -0.03,-0.97 -0.33,-1.37 -0.3,-0.42 -0.71,-0.66 -1.21,-0.74z"/>
  <path class="fil0" d="M63.03 118.34l-0.11 -0c-0.25,-0 -0.48,0.18 -0.5,0.44l-0.21 3.44c-0.02,0.23 -0.1,0.41 -0.27,0.56l-0.52 0.2 -0.06 0c-0.23,-0.01 -0.4,-0.1 -0.56,-0.27 -0.15,-0.17 -0.21,-0.36 -0.2,-0.58l0.21 -3.44c0.02,-0.26 -0.18,-0.48 -0.44,-0.5l-0.1 -0.01 -0.34 0.11 -0.16 0.32 -0.2 3.44c-0.03,0.51 0.12,0.96 0.46,1.34 0.34,0.38 0.76,0.59 1.27,0.61l0.12 0c0.46,0 0.86,-0.15 1.21,-0.46 0.38,-0.34 0.59,-0.77 0.62,-1.27l0.2 -3.44 -0.12 -0.34 -0.32 -0.16z"/>
  <path class="fil0" d="M67.36 120.76c-0.15,0.1 -0.35,0.16 -0.6,0.17l-0.74 0.03 -0.05 -1.6 0.79 -0.02c0.22,0 0.4,0.04 0.54,0.13 0.12,0.08 0.28,0.23 0.3,0.64 0.01,0.42 -0.14,0.58 -0.25,0.66zm0.49 0.93c0.54,-0.32 0.82,-0.88 0.8,-1.63 -0.03,-0.84 -0.44,-1.27 -0.78,-1.49 -0.31,-0.2 -0.69,-0.3 -1.11,-0.3l-1.4 0.04c-0.26,0.01 -0.46,0.23 -0.45,0.49l0.16 4.82 0.15 0.33 0.32 0.13 0.02 0 0.1 -0 0.33 -0.15 0.12 -0.33 -0.05 -1.6 0.74 -0.02 0.02 -0 0.96 1.8c0.12,0.22 0.39,0.31 0.62,0.2l0.09 -0.05 0.24 -0.28 -0.03 -0.36 -0.85 -1.59z"/>
  <path class="fil0" d="M79.45 121.76c-0.06,-0.25 -0.31,-0.41 -0.56,-0.36l-0.77 0.18c-0.27,0.06 -0.48,0.04 -0.64,-0.06 -0.15,-0.1 -0.26,-0.28 -0.32,-0.55l-0.47 -2.07c-0.06,-0.27 -0.04,-0.47 0.06,-0.63 0.1,-0.16 0.28,-0.27 0.55,-0.33l0.77 -0.18c0.25,-0.06 0.41,-0.31 0.36,-0.56l-0.03 -0.11 -0.2 -0.29 -0.36 -0.06 -0.77 0.18c-0.55,0.12 -0.95,0.39 -1.21,0.79 -0.25,0.4 -0.31,0.87 -0.19,1.42l0.47 2.06c0.12,0.55 0.39,0.96 0.78,1.2 0.26,0.17 0.57,0.26 0.91,0.26l0.52 -0.06 0.77 -0.18 0.29 -0.21 0.06 -0.35 -0.02 -0.1z"/>
  <path class="fil0" d="M83.64 119.77l-0.46 0.4c-0.22,0.08 -0.41,0.06 -0.62,-0.04 -0.2,-0.1 -0.33,-0.25 -0.4,-0.47l-0.66 -2.01 0.05 -0.61 0.47 -0.4 0.26 -0.05 0.35 0.09c0.2,0.1 0.33,0.25 0.4,0.46l0.66 2.01c0.08,0.22 0.06,0.41 -0.05,0.62zm0.38 -2.96c-0.16,-0.48 -0.47,-0.84 -0.92,-1.07 -0.45,-0.23 -0.93,-0.26 -1.41,-0.11 -0.48,0.16 -0.84,0.47 -1.07,0.93 -0.23,0.45 -0.26,0.92 -0.1,1.41l0.66 2.02c0.16,0.48 0.47,0.84 0.92,1.07 0.27,0.13 0.54,0.2 0.82,0.2l0.59 -0.1c0.49,-0.16 0.85,-0.47 1.07,-0.92 0.23,-0.46 0.27,-0.93 0.11,-1.41l-0.66 -2.01z"/>
  <path class="fil0" d="M88.34 113.55c-0.11,-0.24 -0.38,-0.35 -0.62,-0.24l-0.1 0.04 -0.25 0.26 0.01 0.36 1.38 3.15 0.02 0.62 -0.43 0.44 -0.62 0.01 -0.45 -0.43 -1.38 -3.16 -0.26 -0.25 -0.36 0.01 -0.09 0.04c-0.24,0.11 -0.34,0.38 -0.24,0.62l1.39 3.15c0.21,0.47 0.55,0.8 1.02,0.98 0.22,0.09 0.44,0.13 0.67,0.13 0.25,0 0.5,-0.06 0.75,-0.16 0.46,-0.2 0.8,-0.55 0.98,-1.02 0.18,-0.47 0.17,-0.95 -0.03,-1.41l-1.38 -3.16z"/>
  <path class="fil0" d="M92.83 111.11l-0.28 -0.22 -0.36 0.04 -0.09 0.05c-0.22,0.12 -0.31,0.41 -0.18,0.64l1.34 2.4 -2.9 -1.79 -0.48 -0.01 -0.1 0.05c-0.23,0.13 -0.31,0.42 -0.18,0.65l2.33 4.17 0.41 0.24 0.23 -0.06 0.09 -0.05 0.22 -0.28 -0.04 -0.35 -1.34 -2.4 2.9 1.79 0.48 0.01 0.1 -0.06 0.22 -0.28 -0.04 -0.36 -2.33 -4.17z"/>
  <polygon class="fil0" points="96.3,109.44 96.96,108.99 97.08,108.33 97.02,108.25 96.72,108.05 96.37,108.12 94.19,109.63 93.99,109.93 94.07,110.28 94.13,110.37 94.78,110.49 95.44,110.04 97.85,113.53 98.24,113.73 98.51,113.65 98.6,113.59 98.79,113.29 98.72,112.94 "/>
  <path class="fil0" d="M101.33 107.37l-0.37 0.5 -0.56 0.48 -1.03 -1.23 0.56 -0.47 0.56 -0.27 0.06 -0c0.07,0 0.29,0 0.56,0.32 0.27,0.33 0.25,0.54 0.21,0.67zm2.62 1.16l-1.65 -0.73c0.23,-0.58 0.1,-1.19 -0.38,-1.77 -0.43,-0.51 -0.96,-0.74 -1.53,-0.69 -0.4,0.04 -0.78,0.21 -1.13,0.51l-1 0.84 -0.06 0.66 3.1 3.69 0.32 0.17 0.04 0 0.3 -0.11 0.08 -0.06 0.06 -0.66 -1.03 -1.22 0.56 -0.47 0.02 -0.02 1.87 0.82c0.23,0.1 0.5,0 0.61,-0.23l0.05 -0.09 0.02 -0.37 -0.25 -0.27z"/>
  <path class="fil0" d="M105.6 104.14l-0.51 -2.69c-0.05,-0.25 -0.29,-0.42 -0.55,-0.38l-0.11 0.02 -0.3 0.2 -0.08 0.35 0.4 2.1 -2.12 -0.37 -0.35 0.08 -0.19 0.31 -0.02 0.11c-0.05,0.26 0.13,0.5 0.38,0.54l2.7 0.47 1.58 1.56 0.34 0.13 0 0 0.33 -0.14 0.07 -0.08 -0 -0.66 -1.58 -1.56z"/>
  <path class="fil0" d="M41.24 23.04l0.52 0.32 0.26 -0.06 0.14 -0.07 0.3 -0.34 -0.03 -0.45 -1.97 -3.94 4.43 3.03 0.59 0.04 0.15 -0.07c0.29,-0.15 0.41,-0.5 0.26,-0.79l-3.11 -6.24 -0.34 -0.29 -0.45 0.03 -0.14 0.07c-0.29,0.14 -0.41,0.5 -0.26,0.79l1.96 3.94 -4.42 -3.03 -0.59 -0.04 -0.15 0.07 -0.3 0.34 0.03 0.45 3.11 6.24z"/>
  <path class="fil0" d="M50.4 19.12l0.27 0.36 0.29 0.08 0.15 -0.02 3.06 -0.82 0.36 -0.27 0.06 -0.44 -0.04 -0.14c-0.08,-0.31 -0.41,-0.5 -0.72,-0.42l-2.35 0.63 -0.65 -2.46 1.6 -0.43c0.32,-0.08 0.5,-0.41 0.42,-0.72l-0.04 -0.15 -0.27 -0.36 -0.45 -0.06 -1.61 0.43 -0.45 -1.7 2.35 -0.63c0.32,-0.08 0.5,-0.4 0.42,-0.72l-0.04 -0.15 -0.27 -0.36 -0.45 -0.06 -3.06 0.82 -0.36 0.27 -0.06 0.45 1.84 6.88z"/>
  <path class="fil0" d="M61.36 17.17c0.09,0.23 0.31,0.37 0.54,0.37l0.03 -0 0.17 -0.01c0.26,-0.01 0.47,-0.19 0.53,-0.43l1.89 -7.07c0.08,-0.31 -0.1,-0.63 -0.4,-0.72l-0.15 -0.04 -0.45 0.06 -0.28 0.36 -1.38 5.17 -1.99 -4.96 -0.32 -0.32 -0.46 0 -0.14 0.06c-0.29,0.13 -0.44,0.46 -0.32,0.76l2.73 6.79z"/>
  <path class="fil0" d="M72.22 12.5l0.44 2.35 -1.5 -0.2 1.06 -2.14zm-3.28 5l0.14 0.06c0.29,0.13 0.63,0.01 0.77,-0.27l0.69 -1.39 2.37 0.33 0.29 1.53c0.05,0.28 0.3,0.48 0.58,0.48l0.08 -0.01 0.15 -0.02 0.39 -0.24 0.1 -0.45 -1.34 -7.19c-0.05,-0.25 -0.25,-0.44 -0.5,-0.47l-0.16 -0.02c-0.25,-0.03 -0.49,0.09 -0.61,0.32l-3.24 6.56 -0.03 0.46 0.31 0.34z"/>
  <path class="fil0" d="M81.77 13.21l1.02 0.36c0.3,0.11 0.55,0.33 0.76,0.67 0.24,0.4 0.28,0.78 0.13,1.19l-0.9 2.55c-0.15,0.41 -0.42,0.68 -0.85,0.84 -0.22,0.08 -0.42,0.12 -0.62,0.12l-0.4 -0.06 -1.02 -0.36 1.87 -5.32zm-3.01 6.32l1.72 0.61c0.28,0.1 0.56,0.14 0.86,0.14 0.34,0 0.7,-0.07 1.06,-0.2 0.81,-0.3 1.37,-0.85 1.64,-1.65l0.9 -2.55c0.28,-0.8 0.2,-1.58 -0.25,-2.32 -0.37,-0.62 -0.86,-1.04 -1.46,-1.25l-1.71 -0.6c-0.31,-0.11 -0.64,0.05 -0.75,0.36l-2.37 6.71c-0.11,0.31 0.05,0.64 0.36,0.75z"/>
  <path class="fil0" d="M92.05 19.49l-0.52 2.33 -1.29 -0.78 1.81 -1.55zm-4.87 3.43c0.21,0.23 0.57,0.25 0.81,0.05l1.18 -1.01 2.05 1.23 -0.33 1.52c-0.07,0.31 0.12,0.61 0.42,0.69l0.15 0.04 0.15 0.02 0.31 -0.08 0.27 -0.38 1.58 -7.14c0.06,-0.25 -0.06,-0.5 -0.27,-0.63l-0.14 -0.08 -0.68 0.06 -5.55 4.76 -0.2 0.41 0.16 0.44 0.1 0.11z"/>
  <path class="fil0" d="M59.24 38.82c1.71,-0.76 4.47,-0.14 6.21,0.17 2.18,0.4 4.57,0.18 6.71,-0.32 2.57,-0.59 4.74,-1.89 7.4,-2.1l0.2 0.05c2,0.17 4.13,0.38 6.06,1.07 -2.71,0.68 -5.13,1.78 -7.65,3.29 -2.98,1.79 -5.14,0.37 -8.15,0.08 -2.51,-0.24 -4.98,-0.17 -7.46,-0.65 -0.66,-0.13 -4.89,-0.91 -3.31,-1.61zm-1.31 1.89c4.31,2.62 9.92,1.38 14.53,2.75 2.8,0.84 4.96,0.03 7.37,-1.45 2.81,-1.72 5.59,-2.53 8.79,-3.16 0.76,-0.15 0.73,-1.2 0.16,-1.54 -2.64,-1.59 -6.01,-2.36 -9.07,-2.07l-0.25 0.07c-2.74,-0.06 -5.12,1.32 -7.73,2 -3.34,0.88 -6.68,-0.03 -10.04,-0.19 -1.57,-0.07 -3.32,0.06 -4.34,1.37 -0.59,0.76 -0.18,1.76 0.58,2.22z"/>
  <path class="fil0" d="M50.65 25.83c6.04,0.39 11.79,-2.13 17.79,-2.47 0.85,-0.05 0.8,-1.26 -0.03,-1.3 -6.05,-0.3 -11.75,2.39 -17.79,2.53 -0.81,0.02 -0.75,1.19 0.03,1.24z"/>
  <path class="fil0" d="M20.24 22.87c3.69,-0.89 7.76,-1.88 9.91,-5.3 0.43,-0.69 -0.63,-1.22 -1.08,-0.6 -2.09,2.89 -5.97,3.72 -9.2,4.69 -0.78,0.24 -0.42,1.4 0.37,1.21z"/>
  <path class="fil0" d="M42.43 42.15c1.23,0.08 2.48,0.01 3.7,0.18 0.68,0.09 1.32,0.34 2.01,0.39 0.85,0.06 2.07,0 2.39,-0.98 0.36,-1.12 -0.78,-2.08 -1.73,-2.39 -0.71,-0.23 -1.03,0.68 -0.63,1.15l0.17 0.42c-0.22,-0.01 -0.45,-0.04 -0.66,-0.08 -0.83,-0.12 -1.61,-0.32 -2.45,-0.37 -0.63,-0.04 -6.29,-0 -5.73,-1.31 0.39,-0.9 2.51,-1.06 3.3,-1.13 1.01,-0.08 2.48,-0.11 3.37,0.48 0.62,0.41 1.29,-0.54 0.76,-1.03 -1.66,-1.53 -4.37,-1.11 -6.36,-0.54 -1.51,0.43 -3.44,1.82 -2.05,3.48 0.96,1.15 2.46,1.63 3.91,1.72z"/>
  <path class="fil0" d="M64.49 83.15c0.03,0.81 1.21,0.76 1.24,-0.03 0.13,-3.96 0.03,-7.94 -0.03,-11.91 -0.01,-0.77 -1.17,-0.74 -1.18,0.02 -0.06,3.96 -0.15,7.95 -0.03,11.91z"/>
  <path class="fil0" d="M65.8 116.19c0.1,-0.14 0.15,-0.32 0.13,-0.54l0 -0.01c0.47,-4.02 0.29,-8.09 0.26,-12.13 -0.04,-5.26 0.05,-10.6 -0.42,-15.84 -0.08,-0.93 -1.34,-0.87 -1.42,0.03 -0.44,4.87 -0.35,9.83 -0.41,14.72 -0.05,4.39 -0.29,8.89 0.25,13.26 0.05,0.39 0.29,0.64 0.59,0.74 0.37,0.17 0.82,0.12 1.02,-0.24z"/>
  <path class="fil0" d="M94.11 106.45c0.55,0.77 1.78,0.04 1.26,-0.78 -0.83,-1.32 -1.3,-2.01 -2.94,-2.21 -0.31,-0.03 -6.17,-3.89 -5.75,-4.45 0.25,-0.33 0.25,-0.81 -0.16,-1.03 -0.55,-0.29 -2.46,-1.23 -1.35,-2.07 0.21,-0.16 0.28,-0.33 0.33,-0.59l0.04 -0.21c0.88,-0.53 1.74,-1.06 2.75,-1.36 1.88,-0.53 4.21,-0.63 6.15,-0.82 1.42,-0.13 2.86,0.11 4.29,0.1 1.46,-0 2.88,-0.73 4.26,-1.11 0.66,-0.18 0.51,-1.3 -0.19,-1.2 -1.67,0.23 -3.23,0.86 -4.93,0.87 -1.82,0.02 -3.5,-0.12 -5.32,0.14 -2.96,0.42 -5.01,0.87 -7.4,2.14l-0.45 -0.44c-0.8,-0.56 -3.03,-0.99 -2.82,-1.82 0.13,-0.53 -0.09,-1.3 -0.34,-1.87l0.01 -0.04c0.39,-0.07 0.75,-0.31 0.84,-0.7 0.47,-1.9 -1.53,-1.72 -2.62,-2.35 0.47,-0.37 0.17,-1.24 -0.51,-1.03 -0.26,0.07 -0.51,0.15 -0.75,0.25 -0.3,0.12 -0.56,0.46 -0.43,0.8 0.69,1.75 2.03,0.89 3.36,1.85 -0.28,-0.2 -0.74,-0.04 -0.88,0.25 -0.12,0.26 -0.23,0.53 -0.38,0.78 -0.19,0.3 -0.07,0.6 0.14,0.78 0.06,0.32 0.19,0.87 0.39,0.69l-0.16 0.65c0.28,0.67 0.5,1.42 1.15,1.83 0.32,0.2 1.65,0.75 2.17,1.2l-0 0.56c-1.71,1.29 0.12,2.73 1.4,3.51 -0.61,1.13 -0.23,1.92 1.32,2.44 1.65,0.55 2.56,2.28 3.96,3.27 0.63,0.44 2.2,0.13 2.65,0.71 0.31,0.4 0.59,0.84 0.89,1.25z"/>
  <path class="fil0" d="M78.59 84.57c-0.15,-0.56 -1.71,-2.07 -1.6,-2.45 0.08,-0.26 -0.06,-0.62 -0.32,-0.73 -1.86,-0.8 -0.92,-3.16 -1.47,-4.65 -0.5,-1.35 -2.65,-2.42 -1.94,-4.02 0.21,-0.47 -0.07,-0.95 -0.59,-0.98l-0.26 -0.04c-0.75,-0.34 -1.31,0.66 -0.62,1.11l0.06 0.03c-0.16,0.78 0.03,1.44 0.53,2.24 0.39,0.61 0.94,1.15 1.36,1.74 0.67,0.91 0.43,2.15 0.45,3.21 0,0.45 1.3,2.55 1.38,2.25 -0.36,1.18 1.5,1.78 1.78,2.66 0.25,0.78 1.44,0.43 1.22,-0.37z"/>
  <path class="fil0" d="M70.49 67.59c-0.53,-0.36 -1.17,0.38 -0.84,0.88l0.11 0.17 0.08 0.13c0.17,0.73 1.35,0.54 1.29,-0.21 -0.03,-0.46 -0.29,-0.73 -0.65,-0.97z"/>
  <path class="fil0" d="M57.92 71.75c0,0.58 -0.97,1.05 -1.06,1.71l0.05 0.6c0.15,0.74 -0.6,1.31 -0.95,1.86 -0.41,0.64 0.51,1.2 1.02,0.74 0.5,-0.44 1.08,-0.91 1.24,-1.59 0.19,-0.8 -0.14,-1.35 0.47,-1.97 1.24,-1.24 -0.1,-3.15 1.08,-4.38 0.49,-0.52 -0.18,-1.34 -0.78,-0.97 -1.43,0.87 -1.08,2.56 -1.06,4z"/>
  <path class="fil0" d="M55.32 78.44c0.03,1.32 -1.05,2.73 -1.83,3.82 -0.44,-0.81 -1.76,-1.26 -2.89,-1.15 -0.49,0.05 -0.99,0.28 -1.43,0.5 -1.34,0.68 -2.36,0.72 -3.8,0.4 -1.65,-0.37 -2.92,-0.64 -4.47,0.16 -0.62,0.32 -0.14,1.38 0.5,1.11 2.01,-0.83 3.86,0.11 5.9,0.25 0.68,0.05 1.29,-0.21 1.89,-0.47 0.24,-0.1 3.96,-1.13 2.97,0.22l-0.08 0.32c-0.55,0.33 -1.14,0.61 -1.69,0.96 -0.8,0.52 -0.04,1.76 0.78,1.26 1.25,-0.77 2.49,-1.51 3.37,-2.71 0.93,-1.26 2.05,-3.07 1.99,-4.7 -0.03,-0.78 -1.24,-0.76 -1.22,0.03z"/>
  <path class="fil0" d="M39.75 105.74c0.82,-0.47 1.33,-1.49 1.81,-2.27 0.93,-1.52 1.76,-2.52 3.08,-3.74 0.82,-0.76 1.27,-1.57 1.7,-2.61 0.57,-1.34 1.67,-2.05 2.63,-3.05 0.58,-0.61 0.8,-1.69 1.04,-2.47 0.42,-1.36 0.88,-2.45 1.58,-3.66 0.14,-0.25 0.09,-0.59 -0.12,-0.79l-0.4 -0.36c-0.61,-0.56 -1.44,0.33 -0.88,0.92 -0.2,-0.21 -0.74,0.62 -0.8,0.85 -0.21,0.77 -0.37,1.73 -0.64,2.63 -0.94,-1.06 -3.69,-1.31 -4.59,-1.44 -1.63,-0.25 -3.06,-0.05 -4.69,0.2 -2.97,0.46 -5.73,0.51 -8.69,-0.05 -0.77,-0.14 -1.05,0.97 -0.3,1.18 3.37,0.9 6.61,0.64 10.02,0.13 1.63,-0.25 6.39,-0.51 7.37,1.24l0.25 0.24c-0.2,0.33 -0.44,0.63 -0.74,0.85 -1.99,1.5 -2.42,3.96 -4.32,5.47 -1.8,1.44 -3.03,5.75 -5.44,6.02 -1.96,0.21 -3.19,-0.63 -4.83,0.88 -0.64,0.58 0.34,1.5 0.98,0.93 1.47,-1.32 4.16,-0.04 5.97,-1.08z"/>
  <path class="fil0" d="M94.43 103.46c0.36,0.4 0.9,0.58 1.41,0.71 0.45,0.12 0.93,0.26 1.39,0.31 0.58,0.07 1.12,-0.61 0.59,-1.08 -0.71,-0.64 -1.84,-0.43 -2.62,-1 -0.65,-0.47 -1.24,0.54 -0.78,1.06z"/>
  <path class="fil0" d="M89.24 98.78c-0.26,-0.23 -0.3,-0.51 -0.37,-0.83 -0.14,-0.59 -1.11,-0.58 -1.21,0.03 -0.22,1.29 1.03,2.42 2.24,2.53 0.27,0.02 0.52,-0.23 0.59,-0.47 0.07,-0.28 -0.07,-0.54 -0.3,-0.69 -0.31,-0.2 -0.66,-0.33 -0.94,-0.58z"/>
  <path class="fil0" d="M38.53 100.49c-0.2,0.62 -0.56,0.92 -1.16,1.15 -0.64,0.25 -0.54,1.23 0.2,1.23 1.73,-0.02 2.3,-1.72 2.66,-3.12 0.14,-0.51 -0.48,-1.02 -0.95,-0.69 -0.48,0.34 -0.57,0.91 -0.75,1.44z"/>
  <path class="fil0" d="M104.73 95.22c0.81,0.21 1.08,-0.98 0.31,-1.24 -3.23,-1.12 -6.44,1.02 -9.73,0.75 -0.7,-0.06 -0.77,1.03 -0.13,1.2 3.26,0.85 6.27,-1.53 9.55,-0.7z"/>
  <path class="fil0" d="M101.36 97.07c-2.04,-0.39 -4.09,0.71 -6.18,0.47 -0.77,-0.09 -1.05,0.93 -0.29,1.18 2.02,0.67 4.29,-0.16 6.34,-0.4 0.67,-0.08 0.89,-1.11 0.14,-1.26z"/>
  <path class="fil0" d="M115.77 92.2c-2.33,-0.28 -4.89,-0.14 -7.23,0.02 -0.8,0.06 -0.75,1.17 0.03,1.23 2.27,0.16 4.79,0.32 7.06,0.04 0.68,-0.08 0.93,-1.19 0.14,-1.29z"/>
  <path class="fil0" d="M104.41 86.81c-2.29,0.71 -3.75,-0.85 -5.86,-1.23 -1.17,-0.21 -2.43,0.23 -3.52,0.58 -1.64,0.52 -3.21,0.53 -4.87,0.8 -1.74,0.27 -4.37,2.45 -6,2.07 -0.77,-0.18 -1.01,0.92 -0.29,1.16 1.26,0.44 2.1,0.14 3.23,-0.51 2.04,-1.18 3.49,-1.29 5.76,-1.66 2.78,-0.45 4.85,-1.77 7.69,-0.38 1.5,0.74 2.64,0.96 4.22,0.35 0.73,-0.29 0.41,-1.41 -0.36,-1.18z"/>
  <path class="fil0" d="M97.08 88.4c-1.97,0.2 -3.91,0.5 -5.88,0.6 -0.78,0.04 -0.75,1.18 0.03,1.21 2.03,0.06 4.06,-0.19 6.04,-0.6 0.68,-0.14 0.5,-1.27 -0.19,-1.2z"/>
  <path class="fil0" d="M109.72 86.34c-0.69,-0 -0.82,1.08 -0.13,1.21 1.67,0.31 3.33,0.56 5.04,0.52 1.87,-0.05 3.27,-1.45 5.12,-1.5 0.71,-0.02 0.87,-1.14 0.14,-1.26 -1.25,-0.21 -2.21,0.18 -3.34,0.69 -2.24,1.02 -4.48,0.38 -6.83,0.35z"/>
  <path class="fil0" d="M79.17 73.74c7.94,0.38 16.02,0.26 23.96,0.02 0.82,-0.02 0.78,-1.23 -0.03,-1.25 -7.95,-0.24 -16.02,-0.37 -23.96,0.02 -0.79,0.04 -0.75,1.18 0.03,1.21z"/>
  <path class="fil0" d="M111.34 65.31c-12.35,-0.19 -24.86,-0.65 -37.2,0.02 -0.79,0.04 -0.74,1.17 0.03,1.21 12.33,0.66 24.84,0.2 37.19,0.02 0.81,-0.01 0.77,-1.23 -0.03,-1.25z"/>
  <path class="fil0" d="M70.35 63.01c8.04,0.47 16.36,0.38 24.41,0.02 0.81,-0.03 0.77,-1.22 -0.03,-1.25 -8.05,-0.36 -16.36,-0.45 -24.4,0.02 -0.79,0.05 -0.74,1.16 0.03,1.21z"/>
  <path class="fil0" d="M101.81 77.86c0.79,-0.01 0.76,-1.21 -0.03,-1.22 -3.18,-0.08 -6.38,-0.1 -9.56,0.01 -0.78,0.03 -0.74,1.17 0.03,1.2 3.18,0.11 6.37,0.09 9.55,0.01z"/>
  <path class="fil0" d="M96.49 81.21c-0.79,0.02 -0.73,1.15 0.03,1.21 2.74,0.23 5.68,0.87 8.42,0.35 1.38,-0.26 2.93,-1.14 4.35,-0.93 1.03,0.15 1.73,0.65 2.81,0.6 0.83,-0.04 0.75,-1.17 -0.03,-1.25 -2.45,-0.24 -3.4,-1.05 -5.88,-0.18 -3.16,1.12 -6.47,0.13 -9.7,0.2z"/>
  <path class="fil0" d="M107.54 84.63c2.35,0.09 4.77,0.01 7.07,-0.46 0.7,-0.14 0.49,-1.24 -0.19,-1.22 -2.3,0.09 -4.6,0.34 -6.91,0.45 -0.8,0.04 -0.76,1.2 0.03,1.23z"/>
  <path class="fil0" d="M80.51 79.29c-0.66,1.57 0.25,2.52 1.78,2.81 0.93,0.17 3.79,-0.12 4.18,0.93 0.26,0.71 1.2,0.51 1.26,-0.2 0.12,-1.45 -1.88,-1.75 -2.91,-1.85 -0.79,-0.08 -1.59,-0.1 -2.37,-0.26 -0.66,-0.12 -1.02,-0.25 -0.78,-0.96 0.24,-0.67 -0.89,-1.12 -1.17,-0.46z"/>
  <path class="fil0" d="M91.42 82.72c0.38,0.54 1.38,0.18 1.11,-0.5 -0.33,-0.83 -1.04,-1.33 -1.85,-1.58 -0.09,-0.17 -0.26,-0.3 -0.51,-0.31 -0.3,-0.02 -0.62,0.03 -0.9,0.15 -0.66,0.26 -0.53,1.2 0.2,1.22 0.83,0.03 1.49,0.35 1.96,1.02z"/>
  <path class="fil0" d="M85.33 78.15c0.68,0.18 1.08,-0.82 0.45,-1.14 -0.81,-0.42 -1.76,-0.53 -2.67,-0.52 -0.8,0.02 -0.76,1.2 0.03,1.23 0.75,0.04 1.46,0.24 2.19,0.43z"/>
  <path class="fil0" d="M78.96 76.03c-0.33,0.14 -0.65,0.34 -0.95,0.52 -0.35,0.21 -0.7,0.47 -0.89,0.83 -0.35,0.65 0.53,1.31 1.03,0.76 0.41,-0.44 1.04,-0.6 1.48,-1.02 0.46,-0.44 -0.05,-1.34 -0.67,-1.09z"/>
  <path class="fil0" d="M109.01 73.45c4.17,0.3 8.46,0.15 12.64,0.03 0.82,-0.02 0.78,-1.24 -0.03,-1.26 -4.18,-0.12 -8.47,-0.28 -12.64,0.02 -0.79,0.06 -0.74,1.16 0.03,1.21z"/>
  <path class="fil0" d="M86.91 70.3c3.01,-0.66 6.57,-0.17 9.65,-0.17 2.93,-0 5.86,0.01 8.78,-0.05 0.81,-0.02 0.77,-1.23 -0.03,-1.25 -2.93,-0.06 -5.86,-0.04 -8.79,-0.04 -3.08,-0 -6.64,0.48 -9.65,-0.18 -1.39,-0.31 -1.41,2.01 0.04,1.69z"/>
  <path class="fil0" d="M116.79 66.52c2.38,0.28 5.14,0.32 7.51,0.04 0.65,-0.08 0.89,-1.14 0.14,-1.23 -2.38,-0.28 -5.14,-0.29 -7.52,-0 -0.63,0.07 -0.86,1.11 -0.13,1.19z"/>
  <path class="fil0" d="M82.08 68.95c-2.19,-0.03 -4.42,-0.08 -6.62,0.05 -0.79,0.04 -0.74,1.17 0.03,1.21 2.19,0.12 4.42,0.07 6.62,0.05 0.85,-0.01 0.81,-1.29 -0.03,-1.31z"/>
  <path class="fil0" d="M35.49 86.95c2.54,0.49 4.46,-0.69 6.91,-1.03 1.97,-0.27 3.72,1.36 5.74,1.22 0.83,-0.06 0.77,-1.19 -0.03,-1.26 -1.76,-0.16 -3.34,-1.33 -5.09,-1.33 -2.57,-0.01 -4.76,1.41 -7.4,1.21 -0.68,-0.05 -0.79,1.07 -0.13,1.19z"/>
  <path class="fil0" d="M37.11 94.36c-2.24,-0.91 -3.89,1.04 -6.15,0.61 -1.99,-0.37 -3.13,-1.13 -5.06,-0.02 -0.71,0.41 -0.05,1.41 0.66,1.07 1.96,-0.96 2.93,0.28 4.81,0.4 1.87,0.11 3.49,-1.47 5.29,-0.93 0.65,0.2 1.08,-0.86 0.44,-1.12z"/>
  <path class="fil0" d="M41.12 94.64c-0.54,0.42 -1.27,0.8 -1.61,1.43 -0.32,0.6 0.53,1.26 0.98,0.72 0.58,-0.71 1.52,-1.12 2.17,-1.78 0.82,-0.84 0.72,-1.93 -0.4,-2.41 -0.7,-0.29 -1.29,0.69 -0.58,1.06l0.27 0.15 -0.06 0.13c-0.17,0.28 -0.5,0.51 -0.76,0.71z"/>
  <path class="fil0" d="M34.03 99.9c0.49,0.49 1.37,-0.2 0.96,-0.78 -1.42,-1.97 -4,-1.03 -5.86,-0.29 -0.77,0.31 -0.44,1.37 0.37,1.22 1.59,-0.3 3.13,-1.59 4.53,-0.16z"/>
  <path class="fil0" d="M35.77 97.23c-0.27,0.02 -0.51,0.19 -0.57,0.46 -0.08,0.3 0.11,0.69 0.44,0.73 0.36,0.06 0.55,0.22 0.87,0.41 0.56,0.32 1.18,-0.35 0.85,-0.89 -0.34,-0.56 -0.96,-0.78 -1.58,-0.71z"/>
  <path class="fil0" d="M32.24 101.94l-0.15 0c-0.77,0 -0.74,1.2 0.03,1.2l0.15 0c0.78,0 0.74,-1.2 -0.03,-1.2z"/>
  <path class="fil0" d="M22.68 94.73c0.62,0.39 1.35,-0.58 0.77,-1.04 -3.3,-2.63 -6.28,2.29 -9.71,0.82 -0.72,-0.31 -1.24,0.62 -0.59,1.06 3.41,2.31 6.4,-2.83 9.53,-0.84z"/>
  <path class="fil0" d="M14.62 91.22c1.85,0.23 3.67,0.37 5.53,0.1 2.21,-0.31 3.58,-1.17 5.77,-0.13 0.75,0.35 1.36,-0.72 0.62,-1.12 -1.25,-0.69 -2.48,-1.03 -3.9,-0.71 -2.77,0.63 -5.08,0.73 -7.89,0.66 -0.68,-0.02 -0.82,1.12 -0.13,1.2z"/>
  <path class="fil0" d="M31.09 88.33c0.84,-0.09 0.78,-1.2 -0.03,-1.28 -1.15,-0.13 -2.38,-0.04 -3.53,0.03 -0.79,0.05 -0.74,1.17 0.03,1.22 1.14,0.08 2.38,0.16 3.53,0.03z"/>
  <path class="fil0" d="M32.25 82.65c0.75,0.34 1.26,-0.64 0.61,-1.1 -2.04,-1.43 -4.68,-0.32 -6.86,0.25 -2.16,0.56 -4.38,-0.18 -6.54,-0.51 -1.81,-0.28 -3.62,-0.42 -5.45,-0.38 -0.79,0.02 -0.74,1.17 0.03,1.22 2.05,0.13 4.07,0.33 6.1,0.68 1.25,0.21 2.67,0.72 3.95,0.67 2.69,-0.11 5.54,-2.02 8.16,-0.82z"/>
  <path class="fil0" d="M39.33 78.76c4.22,0.23 8.58,0.38 12.79,-0.01 0.81,-0.08 0.75,-1.16 -0.03,-1.23 -4.21,-0.39 -8.57,-0.24 -12.79,-0.01 -0.82,0.05 -0.77,1.21 0.03,1.25z"/>
  <path class="fil0" d="M26.39 78.78c2.28,0.08 3.98,-1.38 6.3,-0.39 0.72,0.3 1.3,-0.68 0.6,-1.08 -2.17,-1.25 -4.84,-0.3 -7.1,0.22 -0.74,0.17 -0.49,1.23 0.2,1.26z"/>
  <path class="fil0" d="M28.16 62.42c4.84,0.45 9.84,0.14 14.7,0.13 4.9,-0.02 9.81,0.1 14.7,-0.09 0.84,-0.03 0.79,-1.26 -0.04,-1.29 -4.89,-0.19 -9.81,-0.07 -14.7,-0.09 -4.86,-0.01 -9.86,-0.33 -14.7,0.12 -0.79,0.08 -0.74,1.14 0.03,1.22z"/>
  <path class="fil0" d="M54.15 66.19c-2.81,-0.09 -6,0.43 -8.74,-0.23 -1.38,-0.33 -1.41,2.05 0.04,1.7 2.73,-0.66 5.93,-0.13 8.73,-0.23 0.8,-0.03 0.77,-1.21 -0.03,-1.24z"/>
  <path class="fil0" d="M29.19 68.43c3.04,0 6.08,0.06 9.11,-0.1 0.83,-0.04 0.78,-1.23 -0.03,-1.28 -2.65,-0.14 -5.32,-0.1 -7.97,-0.1 -3.25,-0 -6.82,0.42 -10.03,-0.12 -1.39,-0.23 -1.4,1.93 0.05,1.69 2.84,-0.47 6,-0.1 8.88,-0.11z"/>
  <path class="fil0" d="M39.62 72.19c2.69,0 5.39,0 8.09,-0.04 0.82,-0.01 0.78,-1.25 -0.03,-1.26 -2.7,-0.05 -5.4,-0.05 -8.1,-0.05 -2.94,0 -6.12,0.33 -9.02,-0.18 -1.39,-0.24 -1.41,1.95 0.04,1.69 2.9,-0.5 6.09,-0.17 9.02,-0.17z"/>
  <path class="fil0" d="M55.18 71.33c-0.87,-0.07 -1.89,0.06 -2.71,-0.22 -0.55,-0.19 -1.11,0.34 -1.09,0.87 0.01,0.55 0.59,1.01 1.13,0.82 0.81,-0.28 1.84,-0.14 2.7,-0.21 0.82,-0.06 0.77,-1.2 -0.03,-1.26z"/>
  <path class="fil0" d="M40.33 74.42c-1.14,-0.01 -2.23,0.07 -3.37,-0.11 -0.78,-0.12 -1.02,0.91 -0.29,1.18 1.19,0.44 2.63,0.45 3.86,0.16 0.71,-0.17 0.49,-1.22 -0.19,-1.22z"/>
  <path class="fil0" d="M48.61 75.49c0.64,-0.21 0.52,-1.28 -0.2,-1.21 -1.23,0.13 -2.45,-0.08 -3.68,0 -0.81,0.05 -0.74,1.15 0.03,1.22 1.27,0.12 2.59,0.39 3.84,-0.02z"/>
  <path class="fil0" d="M35.35 81.16c0.27,0.11 0.51,0.26 0.81,0.32 0.32,0.08 0.64,0.12 0.97,0.07 0.28,-0.04 0.52,-0.18 0.59,-0.47 0.08,-0.32 -0.12,-0.7 -0.46,-0.76 -0.49,-0.09 -1,-0.15 -1.47,-0.27 -0.65,-0.17 -1.09,0.85 -0.44,1.12z"/>
  <path class="fil0" d="M25.94 73.41c-1.48,-0.42 -3.01,0.24 -4.14,1.2 -0.57,0.48 0.19,1.32 0.79,0.98 1.07,-0.61 1.94,-1.06 3.21,-0.95 0.73,0.07 0.79,-1.05 0.14,-1.23z"/>
  <path class="fil0" d="M68.42 63.87c0.12,-0.76 -1.02,-1.05 -1.16,-0.29 -0.12,0.63 -0.07,1.22 0.19,1.82 0.24,0.55 0.63,1.03 0.84,1.59 0.27,0.73 1.44,0.39 1.17,-0.35 -0.34,-0.92 -1.21,-1.73 -1.03,-2.77z"/>
 </g>
</svg>
