
<svg xmlns="http://www.w3.org/2000/svg" xml:space="preserve" width="0.747346in" height="0.747331in" version="1.1" style="shape-rendering:geometricPrecision; text-rendering:geometricPrecision; image-rendering:optimizeQuality; fill-rule:evenodd; clip-rule:evenodd"
viewBox="0 0 236.36 236.36"
 xmlns:xlink="http://www.w3.org/1999/xlink"
 xmlns:xodm="http://www.corel.com/coreldraw/odm/2003">
 <defs>
  <style type="text/css">
   <![CDATA[
    .fil0 {fill:black;fill-rule:nonzero}
   ]]>
  </style>
 </defs>
 <g id="Layer_x0020_1">
  <metadata id="CorelCorpID_0Corel-Layer"/>
  <path class="fil0" d="M48.62 186.46c-0.43,-0.42 -1.1,-0.41 -1.52,0.02l-6.14 6.29c-0.42,0.42 -0.41,1.1 0.01,1.52l2.83 2.77 0.75 0.3 0.77 -0.32 0.13 -0.13 0.31 -0.76 -0.32 -0.76 -1.93 -1.89 5.27 -5.39 0.31 -0.76 -0.32 -0.75 -0.14 -0.13z"/>
  <path class="fil0" d="M57.1 194.13l-0.79 -0.23 -0.72 0.39 -5.46 6.79c-0.37,0.46 -0.3,1.13 0.16,1.5l0.15 0.12 0.68 0.24 0.12 -0 0.72 -0.4 5.46 -6.79c0.37,-0.46 0.29,-1.13 -0.17,-1.51l-0.15 -0.12z"/>
  <path class="fil0" d="M67.64 201.71l-0.12 -0.15 -0.72 -0.41 -0.81 0.22 -4.44 3.51 1.45 -5.48 -0.11 -0.82 -0.66 -0.5 -0.19 -0.04c-0.56,-0.13 -1.14,0.21 -1.29,0.77l-2.34 8.83c-0.12,0.44 0.06,0.92 0.45,1.17l0.17 0.11 0.59 0.18 0.67 -0.24 7.17 -5.67c0.45,-0.36 0.54,-1.02 0.19,-1.49z"/>
  <path class="fil0" d="M74.86 205.43l-3.51 -1.84c-0.52,-0.27 -1.17,-0.07 -1.45,0.45l-4.13 7.88 -0.07 0.82 0.52 0.63 3.51 1.84 0.5 0.12 0.95 -0.57 0.09 -0.16 0.07 -0.82 -0.52 -0.63 -2.39 -1.26 1.15 -2.21 1.54 0.8 0.82 0.07 0.63 -0.53 0.09 -0.18c0.28,-0.52 0.07,-1.17 -0.45,-1.44l-1.55 -0.81 0.71 -1.35 2.39 1.25 0.82 0.07 0.63 -0.53 0.09 -0.18c0.27,-0.53 0.07,-1.16 -0.45,-1.44z"/>
  <path class="fil0" d="M92.6 212.2l-3.8 -1.12 -0.82 0.09 -0.51 0.64 -2.49 8.45 0.09 0.81 0.64 0.52 0.18 0.05 0.3 0.04c0.46,0 0.89,-0.3 1.03,-0.77l1.03 -3.52 2.6 0.76 0.82 -0.09 0.51 -0.64 0.06 -0.19c0.16,-0.57 -0.17,-1.16 -0.73,-1.33l-2.59 -0.76 0.43 -1.47 2.59 0.76 0.82 -0.09 0.51 -0.64 0.05 -0.18c0.17,-0.57 -0.16,-1.16 -0.72,-1.33z"/>
  <path class="fil0" d="M100.55 217.64c-0.14,0.72 -0.45,0.86 -0.58,0.91l-1 0.05 -1.11 -0.21 0.47 -2.45 1.11 0.21c0.4,0.07 0.71,0.21 0.91,0.42 0.16,0.16 0.32,0.43 0.21,1.06zm-0.68 -3.79l-2.35 -0.44 -0.81 0.17 -0.45 0.68 -1.64 8.65c-0.1,0.58 0.28,1.14 0.86,1.25l0.19 0.03 0.8 -0.17 0.45 -0.69 0.5 -2.65 1.02 0.19 0.95 3.45c0.14,0.47 0.56,0.79 1.04,0.79l0.25 -0.04 0.18 -0.04 0.68 -0.5 0.11 -0.83 -0.82 -2.98c1.06,-0.41 1.76,-1.32 2.01,-2.67 0.3,-1.59 -0.29,-2.59 -0.85,-3.15 -0.54,-0.55 -1.26,-0.91 -2.13,-1.07z"/>
  <path class="fil0" d="M111.33 215.36l-3.94 -0.35c-0.6,-0.06 -1.12,0.39 -1.17,0.97l-0.8 8.86 0.25 0.79 0.72 0.38 3.94 0.36 0.1 0c0.55,0 1.02,-0.42 1.07,-0.98l0.01 -0.18 -0.24 -0.79 -0.73 -0.38 -2.69 -0.24 0.23 -2.5 1.73 0.16 0.79 -0.25 0.38 -0.73 0.02 -0.19c0.05,-0.58 -0.39,-1.11 -0.97,-1.16l-1.73 -0.15 0.13 -1.52 2.69 0.24 0.79 -0.25 0.38 -0.72 0.02 -0.19c0.05,-0.59 -0.39,-1.11 -0.97,-1.16z"/>
  <path class="fil0" d="M120.94 224.27l-0.01 0 -2.7 0.03 -0.03 -2.5 1.74 -0.02 0.75 -0.32 0.31 -0.76 -0 -0.2c-0,-0.59 -0.49,-1.06 -1.08,-1.06l-0.01 0 -1.73 0.01 -0.02 -1.52 2.7 -0.03c0.59,-0.01 1.06,-0.49 1.06,-1.09l-0 -0.18c-0.01,-0.59 -0.48,-1.07 -1.07,-1.07l-0.01 0 -3.96 0.04 -0.76 0.32 -0.3 0.76 0.09 8.88c0.01,0.6 0.49,1.06 1.07,1.06l0.01 0 3.97 -0.04 0.75 -0.32 0.3 -0.76 0 -0.18c-0.01,-0.58 -0.49,-1.06 -1.08,-1.06z"/>
  <path class="fil0" d="M139.27 216.09l0.53 0.79 0.77 3.79 -0.19 0.94 -0.78 0.53 -0.95 -0.18 -0.54 -0.8 -0.77 -3.79 0.18 -0.94 0.8 -0.54 0.28 -0.03 0.66 0.21zm-1.41 -2.47c-0.97,0.2 -1.73,0.71 -2.28,1.54l-0.45 1.01 -0.24 -0.88 -0.04 -0.08c-0.64,-1.19 -2.44,-1.04 -3.06,0.07l-0.04 0.09c-0.66,1.21 0.25,2.73 1.64,2.7 0.8,-0.02 1.37,-0.52 1.61,-1.16l0.06 0.94 0.77 3.79c0.19,0.96 0.72,1.74 1.53,2.28 0.6,0.39 1.25,0.59 1.94,0.59l0.75 -0.08c0.96,-0.19 1.74,-0.72 2.28,-1.53 0.54,-0.82 0.72,-1.73 0.52,-2.7l-0.78 -3.79c-0.19,-0.96 -0.71,-1.73 -1.54,-2.28 -0.81,-0.54 -1.74,-0.72 -2.7,-0.52z"/>
  <path class="fil0" d="M149.31 214.32c0.22,0.71 0,0.97 -0.07,1.08 -0.18,0.22 -0.47,0.39 -0.87,0.52l-1.08 0.33 -0.74 -2.38 1.08 -0.33 0.99 -0.05c0.22,0.06 0.49,0.22 0.68,0.84zm-2.36 -3.03l-2.29 0.7c-0.57,0.18 -0.88,0.78 -0.71,1.34l2.6 8.41 0.53 0.63 0.49 0.13 0.32 -0.05 0.18 -0.06c0.56,-0.18 0.88,-0.77 0.71,-1.34l-0.8 -2.57 0.99 -0.31 2.46 2.6c0.39,0.42 1.05,0.46 1.48,0.07l0.14 -0.12 0.36 -0.76 -0.29 -0.79 -2.12 -2.25c0.74,-0.86 0.93,-2 0.53,-3.3 -0.48,-1.55 -1.47,-2.16 -2.21,-2.38 -0.73,-0.23 -1.54,-0.21 -2.38,0.05z"/>
  <path class="fil0" d="M165.47 206.07l1.03 -0.11c0.47,0.1 0.77,0.32 0.98,0.7l1.62 2.97c0.21,0.39 0.22,0.77 0.05,1.21 -0.16,0.4 -0.37,0.67 -0.65,0.82l-0.89 0.48 -2.89 -5.35 -0.07 -0.12 -0.07 -0.12 0.89 -0.48zm-3.11 -0.98l-0.52 0.64 0.09 0.81 0.12 0.24c-0.3,0.55 -0.1,1.37 0.47,1.68l0.02 0 0.26 0.19 0.32 0.11 3.04 5.6 0.64 0.51 0.3 0.05 0.51 -0.13 2 -1.08c0.76,-0.41 1.34,-1.08 1.71,-1.99 0.43,-1.08 0.38,-2.18 -0.17,-3.19l-1.61 -2.98c-0.54,-1 -1.44,-1.65 -2.58,-1.88 -0.96,-0.19 -1.84,-0.07 -2.61,0.34l-2 1.08z"/>
  <path class="fil0" d="M172.66 199.1c-0.48,0.33 -0.62,1 -0.28,1.49l4.87 7.21 0.68 0.46 0.21 0.02 0.6 -0.19 0.16 -0.11 0.46 -0.69 -0.17 -0.81 -4.87 -7.21 -0.69 -0.45 -0.81 0.17 -0.16 0.11z"/>
  <path class="fil0" d="M178.75 194.56c-0.46,0.37 -0.52,1.05 -0.14,1.51l5.67 6.85 0.73 0.38 0.1 0 0.68 -0.25 3.06 -2.52c0.45,-0.38 0.52,-1.05 0.14,-1.51l-0.11 -0.14 -0.72 -0.39 -0.79 0.25 -2.08 1.72 -1.6 -1.92 1.34 -1.11 0.39 -0.72 -0.25 -0.79 -0.12 -0.15c-0.38,-0.46 -1.06,-0.52 -1.51,-0.14l-1.34 1.11 -0.97 -1.17 2.08 -1.73 0.38 -0.72 -0.24 -0.79 -0.13 -0.14c-0.38,-0.47 -1.05,-0.52 -1.51,-0.15l-3.05 2.53z"/>
  <path class="fil0" d="M41.15 54.1l-0.79 -0.21 -0.71 0.42 -0.17 0.22c-0.36,0.47 -0.26,1.14 0.21,1.5l6.41 4.84 -9.68 -1.36 -1.01 0.42 -0.18 0.24c-0.35,0.47 -0.26,1.14 0.22,1.5l10.15 7.66 0.64 0.22 0.85 -0.42 0.17 -0.22 0.21 -0.8 -0.42 -0.71 -6.4 -4.83 9.69 1.35 1 -0.41 0.18 -0.24c0.36,-0.48 0.27,-1.15 -0.21,-1.51l-10.15 -7.66z"/>
  <path class="fil0" d="M60.9 53.27l-0.3 -0.76 -0.18 -0.19c-0.4,-0.43 -1.09,-0.44 -1.51,-0.03l-3.2 3.07 -3.21 -3.34 2.19 -2.1c0.42,-0.41 0.44,-1.09 0.03,-1.52l-0.19 -0.21 -0.75 -0.33 -0.77 0.3 -2.18 2.09 -2.23 -2.32 3.2 -3.07c0.42,-0.4 0.43,-1.09 0.03,-1.51l-0.2 -0.21 -0.75 -0.33 -0.76 0.29 -4.17 4.01c-0.43,0.41 -0.44,1.08 -0.03,1.51l8.99 9.36 0.75 0.33 0.02 0 0.74 -0.3 4.18 -4.01 0.32 -0.76z"/>
  <path class="fil0" d="M65.34 48.75l0.73 0.29 0.61 -0.19 0.25 -0.16c0.38,-0.27 0.54,-0.75 0.42,-1.19l-1.51 -5.09 4.23 3.19 1.26 0.03 0.25 -0.17c0.4,-0.28 0.56,-0.82 0.37,-1.28l-4.91 -12.03c-0.22,-0.55 -0.85,-0.81 -1.4,-0.59l-0.26 0.11c-0.55,0.23 -0.81,0.85 -0.58,1.41l3.25 7.95 -4.03 -3.03 -1.25 -0.03c-0.38,0.26 -0.55,0.74 -0.42,1.19l1.44 4.84 -6.32 -5.83c-0.43,-0.4 -1.11,-0.38 -1.51,0.05l-0.19 0.21 -0.29 0.76 0.34 0.76 9.54 8.81z"/>
  <path class="fil0" d="M89.08 35.6l0.52 0.64 0.51 0.13 0.31 -0.04 0.26 -0.08c0.57,-0.17 0.89,-0.76 0.72,-1.33l-1.65 -5.61 4.46 -1.3 1.64 5.61 0.52 0.64 0.82 0.09 0.28 -0.08c0.57,-0.16 0.89,-0.76 0.72,-1.32l-3.58 -12.21c-0.17,-0.57 -0.76,-0.89 -1.33,-0.72l-0.27 0.08 -0.64 0.51 -0.09 0.82 1.25 4.25 -4.46 1.31 -1.25 -4.26c-0.17,-0.56 -0.76,-0.89 -1.33,-0.72l-0.27 0.08 -0.64 0.51 -0.08 0.82 3.58 12.2z"/>
  <path class="fil0" d="M106.2 22.62l1.88 3.93 -2.74 0.35 0.86 -4.27zm-3.4 10.37l0.27 0.05 0.17 0.01c0.5,0 0.95,-0.35 1.05,-0.86l0.56 -2.78 4.34 -0.55 1.23 2.56c0.25,0.52 0.87,0.74 1.39,0.52l0.26 -0.1 0.58 -0.61 -0.03 -0.84 -5.76 -12.05c-0.2,-0.42 -0.64,-0.65 -1.1,-0.59l-0.3 0.03c-0.45,0.06 -0.83,0.4 -0.91,0.86l-2.61 13.08 0.17 0.83 0.71 0.45z"/>
  <path class="fil0" d="M116.84 31.72l0.29 0.01 0.03 0c0.59,0 1.06,-0.45 1.08,-1.03l0.28 -8.33 1.98 3.57 0.9 0.55 0.94 -0.49 2.22 -3.44 -0.28 8.33 0.29 0.76 0.75 0.34 0.28 0.01 0.04 0c0.57,0 1.05,-0.46 1.06,-1.04l0.43 -12.7c0.02,-0.59 -0.44,-1.09 -1.03,-1.11l-0.31 -0.01c-0.4,-0.05 -0.74,0.18 -0.94,0.49l-3.32 5.15 -2.98 -5.36 -0.9 -0.55 -0.3 -0.01c-0.61,0 -1.09,0.45 -1.11,1.04l-0.43 12.7 0.29 0.77 0.75 0.33z"/>
  <path class="fil0" d="M135.04 20.65l2.1 0.4c0.68,0.14 1.23,0.39 1.58,0.76 0.29,0.3 0.66,0.83 0.43,1.99 -0.23,1.19 -0.76,1.54 -1.14,1.69l-0.97 0.18 -0.79 -0.07 -2.1 -0.41 0.89 -4.54zm-3.73 12.07l0.27 0.05 0.2 0.02c0.51,0 0.96,-0.35 1.06,-0.87l0.85 -4.35 2.11 0.41c1.16,0.22 2.22,0.14 3.16,-0.25 0.95,-0.4 2.15,-1.32 2.57,-3.47 0.41,-2.12 -0.36,-3.43 -1.07,-4.16 -0.72,-0.73 -1.67,-1.22 -2.85,-1.44l-3.43 -0.67 -0.8 0.16 -0.46 0.68 -2.46 12.62 0.16 0.8 0.68 0.45z"/>
  <path class="fil0" d="M146.56 36.21c0.74,0.58 1.51,1.03 2.27,1.32 0.49,0.18 0.97,0.26 1.45,0.26 0.65,0 1.28,-0.17 1.88,-0.5 0.89,-0.5 1.51,-1.22 1.85,-2.12 0.38,-1.04 0.51,-2.64 -1.04,-4.41 -0.58,-0.62 -1.08,-1.16 -1.51,-1.61l-1.08 -1.13c-0.8,-0.86 -0.71,-1.49 -0.55,-1.95l0.74 -0.87c0.42,-0.24 0.89,-0.24 1.47,-0.03 0.27,0.1 0.97,0.46 2.52,1.73 0.37,0.3 0.91,0.32 1.3,0.03l0.23 -0.16 0.43 -0.73 -0.23 -0.82c-0.84,-1.01 -1.99,-1.8 -3.41,-2.33 -1.25,-0.46 -2.45,-0.39 -3.5,0.2 -0.87,0.5 -1.48,1.22 -1.82,2.14 -0.43,1.18 -0.34,2.37 0.28,3.45l0.08 0.12 0.59 0.72 0.58 0.64 1.62 1.73 0.66 0.77 0.33 0.52c0.18,0.37 0.19,0.73 0.04,1.15l-0.76 0.84c-0.42,0.23 -0.82,0.26 -1.3,0.08 -0.17,-0.06 -0.91,-0.43 -3.04,-2.5 -0.35,-0.36 -0.91,-0.4 -1.33,-0.13l-0.23 0.15 -0.47 0.69 0.16 0.8c0.46,0.69 1.07,1.34 1.81,1.94z"/>
  <path class="fil0" d="M157.53 41.16l0.24 0.14c0.52,0.29 1.17,0.11 1.46,-0.41l2.88 -5.09 4.04 2.28 -2.89 5.1c-0.29,0.51 -0.1,1.16 0.41,1.46l0.25 0.14 0.54 0.14 0.28 -0.04 0.64 -0.51 6.27 -11.06c0.29,-0.52 0.1,-1.18 -0.41,-1.47l-0.25 -0.14 -0.82 -0.11 -0.65 0.51 -2.19 3.86 -4.03 -2.28 2.18 -3.86 0.1 -0.82 -0.5 -0.64 -0.24 -0.13c-0.51,-0.29 -1.17,-0.11 -1.46,0.4l-6.26 11.07 -0.1 0.82 0.51 0.65z"/>
  <path class="fil0" d="M172.03 50.6l0.22 0.18 0.67 0.24 0.12 -0.01 0.72 -0.39 7.94 -9.93 0.22 -0.79 -0.39 -0.72 -0.23 -0.18c-0.46,-0.37 -1.13,-0.29 -1.5,0.17l-7.95 9.93c-0.36,0.46 -0.29,1.13 0.17,1.5z"/>
  <path class="fil0" d="M189.93 49.97l1.44 1.58c0.47,0.52 0.75,1.04 0.82,1.55 0.05,0.42 0.03,1.05 -0.85,1.86 -0.54,0.49 -1.05,0.72 -1.54,0.72l-0.38 -0.03c-0.51,-0.13 -1,-0.46 -1.47,-0.98l-1.45 -1.58 3.43 -3.11zm-10.49 6.68l0.28 0.77 0.19 0.2c0.39,0.43 1.07,0.47 1.51,0.07l3.29 -2.98 1.43 1.58 0.13 0.14 -2.03 5.14c-0.21,0.54 0.04,1.15 0.57,1.38l0.25 0.11 0.43 0.09 0.41 -0.07 0.59 -0.61 1.83 -4.63c1.57,0.62 3.19,0.25 4.65,-1.09 1.59,-1.45 1.77,-2.96 1.62,-3.97 -0.14,-1.01 -0.62,-1.97 -1.42,-2.86l-2.35 -2.58c-0.4,-0.44 -1.08,-0.47 -1.52,-0.07l-9.51 8.64 -0.35 0.75z"/>
  <path class="fil0" d="M188.74 67.83l0.15 0.81 3.17 4.84 0.68 0.46 0.22 0.03 0.59 -0.18 0.22 -0.14c0.49,-0.32 0.63,-0.99 0.31,-1.49l-2.42 -3.71 3.88 -2.54 1.66 2.54 0.68 0.47 0.81 -0.15 0.24 -0.15c0.5,-0.32 0.63,-0.99 0.32,-1.49l-1.66 -2.54 2.69 -1.75 2.42 3.71 0.68 0.47 0.81 -0.15 0.24 -0.16c0.49,-0.32 0.63,-0.99 0.31,-1.48l-3.16 -4.84 -0.68 -0.47 -0.8 0.15 -10.87 7.09 -0.47 0.68z"/>
  <path class="fil0" d="M98.62 122c0.14,-1.01 0.22,-2.02 0.2,-3.04 -0.01,-0.65 0.01,-1.3 -0.1,-1.94 -0.16,-0.85 -1.05,-1.37 -1.84,-0.94 -1.02,0.56 -0.75,2.21 -0.77,3.19 -0.02,0.83 0.07,1.66 0.17,2.48 0.08,0.53 0.35,0.98 0.9,1.12 0.58,0.14 1.34,-0.22 1.44,-0.86z"/>
  <path class="fil0" d="M130.19 123.05c-0.31,1.14 -0.27,2.41 -0.07,3.56 0.21,1.16 2.08,1.06 2.29,-0.05 0.21,-1.15 0.21,-2.42 -0.09,-3.56 -0.3,-1.08 -1.85,-0.97 -2.13,0.05z"/>
  <path class="fil0" d="M140.83 142.63c-0.31,1.14 -0.27,2.41 -0.07,3.57 0.21,1.16 2.09,1.05 2.28,-0.06 0.22,-1.15 0.22,-2.41 -0.1,-3.55 -0.29,-1.08 -1.84,-0.97 -2.12,0.05z"/>
  <path class="fil0" d="M146.37 142.63c-0.32,1.14 -0.28,2.41 -0.07,3.57 0.21,1.16 2.09,1.05 2.29,-0.06 0.21,-1.15 0.21,-2.41 -0.1,-3.55 -0.29,-1.08 -1.85,-0.97 -2.12,0.05z"/>
  <path class="fil0" d="M140.83 150.7c-0.31,1.14 -0.27,2.41 -0.07,3.56 0.21,1.16 2.09,1.06 2.28,-0.06 0.22,-1.16 0.22,-2.42 -0.1,-3.56 -0.29,-1.09 -1.84,-0.97 -2.12,0.05z"/>
  <path class="fil0" d="M146.37 150.7c-0.32,1.14 -0.28,2.41 -0.07,3.56 0.21,1.16 2.09,1.06 2.29,-0.06 0.21,-1.16 0.21,-2.42 -0.1,-3.56 -0.29,-1.09 -1.85,-0.97 -2.12,0.05z"/>
  <path class="fil0" d="M163.29 134.25c-0.31,1.14 -0.27,2.42 -0.07,3.56 0.21,1.16 2.08,1.05 2.28,-0.06 0.21,-1.16 0.22,-2.42 -0.09,-3.56 -0.3,-1.08 -1.85,-0.97 -2.13,0.06z"/>
  <path class="fil0" d="M158.68 142.63c-0.31,1.14 -0.27,2.41 -0.06,3.57 0.21,1.16 2.08,1.05 2.28,-0.06 0.21,-1.15 0.22,-2.41 -0.09,-3.55 -0.29,-1.08 -1.85,-0.97 -2.13,0.05z"/>
  <path class="fil0" d="M168.07 142.63c-0.31,1.14 -0.27,2.41 -0.06,3.57 0.21,1.16 2.08,1.05 2.28,-0.06 0.21,-1.15 0.22,-2.41 -0.09,-3.55 -0.29,-1.08 -1.85,-0.97 -2.13,0.05z"/>
  <path class="fil0" d="M124.62 135.81c-0.32,0.82 -0.26,1.84 -0.32,2.72 -0.05,0.86 0.23,1.56 0.63,2.29 0.46,0.85 1.75,0.75 2.2,-0.05 0.38,-0.69 0.59,-1.31 0.61,-2.11 0.02,-0.88 -0.03,-2.09 -0.35,-2.91 -0.55,-1.4 -2.25,-1.26 -2.76,0.07z"/>
  <path class="fil0" d="M77.54 140.77c0.38,-0.69 0.59,-1.31 0.61,-2.11 0.02,-0.88 -0.03,-2.09 -0.35,-2.91 -0.55,-1.4 -2.25,-1.26 -2.76,0.07 -0.33,0.82 -0.26,1.84 -0.32,2.72 -0.05,0.86 0.23,1.56 0.63,2.29 0.46,0.85 1.76,0.75 2.2,-0.05z"/>
  <path class="fil0" d="M91.75 140.77c0.38,-0.69 0.59,-1.31 0.61,-2.11 0.02,-0.88 -0.02,-2.09 -0.34,-2.91 -0.55,-1.4 -2.25,-1.26 -2.77,0.07 -0.32,0.82 -0.26,1.84 -0.32,2.72 -0.05,0.86 0.23,1.56 0.63,2.29 0.47,0.85 1.76,0.75 2.2,-0.05z"/>
  <path class="fil0" d="M105.97 140.77c0.37,-0.69 0.58,-1.31 0.6,-2.11 0.02,-0.88 -0.02,-2.09 -0.34,-2.91 -0.55,-1.4 -2.25,-1.26 -2.77,0.07 -0.32,0.82 -0.26,1.84 -0.32,2.72 -0.06,0.86 0.23,1.56 0.62,2.29 0.47,0.85 1.76,0.75 2.21,-0.05z"/>
  <path class="fil0" d="M77.54 153.06c0.38,-0.69 0.59,-1.31 0.61,-2.11 0.02,-0.88 -0.03,-2.09 -0.35,-2.91 -0.55,-1.4 -2.25,-1.25 -2.76,0.06 -0.33,0.82 -0.26,1.84 -0.32,2.72 -0.05,0.86 0.23,1.56 0.63,2.29 0.46,0.85 1.76,0.76 2.2,-0.05z"/>
  <path class="fil0" d="M91.75 153.06c0.38,-0.69 0.59,-1.31 0.61,-2.11 0.02,-0.88 -0.02,-2.09 -0.34,-2.91 -0.55,-1.4 -2.25,-1.25 -2.77,0.06 -0.32,0.82 -0.26,1.84 -0.32,2.72 -0.05,0.86 0.23,1.56 0.63,2.29 0.47,0.85 1.76,0.76 2.2,-0.05z"/>
  <path class="fil0" d="M105.97 153.06c0.37,-0.69 0.58,-1.31 0.6,-2.11 0.02,-0.88 -0.02,-2.09 -0.34,-2.91 -0.55,-1.4 -2.25,-1.25 -2.77,0.06 -0.32,0.82 -0.26,1.84 -0.32,2.72 -0.06,0.86 0.23,1.56 0.62,2.29 0.47,0.85 1.76,0.76 2.21,-0.05z"/>
  <path class="fil0" d="M124.62 148.1c-0.32,0.82 -0.26,1.84 -0.32,2.72 -0.05,0.86 0.23,1.56 0.63,2.29 0.46,0.85 1.75,0.76 2.2,-0.05 0.38,-0.69 0.59,-1.31 0.61,-2.11 0.02,-0.88 -0.03,-2.09 -0.35,-2.91 -0.55,-1.4 -2.25,-1.25 -2.76,0.06z"/>
  <path class="fil0" d="M138.11 104.12c-2.35,1 -4.78,1.54 -7.23,2.17 -1.27,0.32 -0.9,2.21 0.35,2.21 2.73,0 5.46,-1.01 7.82,-2.29 1.13,-0.62 0.27,-2.6 -0.94,-2.08z"/>
  <path class="fil0" d="M177.8 119.12c-2.25,0.89 -4.4,1.95 -6.69,2.72 -1.17,0.38 -0.95,2.42 0.36,2.22 2.61,-0.39 5.03,-1.44 7.29,-2.82 1.11,-0.68 0.3,-2.62 -0.95,-2.11z"/>
  <path class="fil0" d="M167.07 113.48c-1.23,0.55 -2.29,1.2 -3.18,2.21 -0.41,0.47 -0.43,1.18 0.04,1.63 0.5,0.47 1.14,0.35 1.63,-0.04 0.38,-0.32 0.84,-0.53 1.26,-0.78 0.51,-0.31 1.01,-0.68 1.44,-1.08 0.83,-0.76 -0.11,-2.41 -1.19,-1.94z"/>
  <path class="fil0" d="M201.38 118.96c-1.34,0.82 -2.79,1.54 -4.27,2.06 -1.2,0.42 -0.97,2.28 0.36,2.24 2.12,-0.07 3.88,-1.01 5.39,-2.48 0.97,-0.95 -0.34,-2.51 -1.48,-1.82z"/>
  <path class="fil0" d="M139.72 94.46c-0.86,0.14 -1.68,0.48 -2.46,0.85 -0.61,0.28 -0.72,1.19 -0.4,1.71 0.38,0.61 1.1,0.7 1.7,0.4 0.69,-0.33 1.42,-0.52 2.1,-0.87 0.45,-0.24 0.64,-0.85 0.5,-1.31 -0.2,-0.66 -0.82,-0.87 -1.44,-0.77z"/>
  <path class="fil0" d="M114.78 96.46c-0.6,0.39 -1.24,0.74 -1.87,1.08 -1.12,0.61 -0.27,2.57 0.93,2.06 0.87,-0.37 1.77,-0.55 2.39,-1.37 0.31,-0.42 0.44,-0.92 0.14,-1.4 -0.32,-0.52 -1.06,-0.72 -1.59,-0.37z"/>
  <path class="fil0" d="M41.34 108.1c-1.66,0.22 -3.25,0.72 -4.86,1.12 -1.23,0.31 -0.92,2.35 0.36,2.23 1.66,-0.18 3.27,-0.65 4.86,-1.12 1.2,-0.35 0.95,-2.39 -0.35,-2.23z"/>
  <path class="fil0" d="M39.16 102.51c-4.35,0.97 -8.69,1.84 -13.11,2.4 -1.74,0.23 -1.7,2.98 0.07,2.77 4.65,-0.55 9.32,-1.27 13.71,-2.96 1.38,-0.53 0.79,-2.53 -0.66,-2.21z"/>
  <path class="fil0" d="M31.48 100.97c1.29,-0.15 2.57,-0.3 3.79,-0.83 0.47,-0.21 0.82,-0.58 0.81,-1.12 -0.02,-0.6 -0.55,-1.16 -1.17,-1.11 -1.32,0.1 -2.56,0.4 -3.79,0.88 -1.1,0.43 -0.97,2.33 0.36,2.18z"/>
  <path class="fil0" d="M56.58 114.57c-2.34,0.46 -4.66,1 -6.98,1.6 -1.48,0.38 -0.77,2.51 0.68,2.23 2.34,-0.44 4.65,-1.04 6.97,-1.62 1.47,-0.37 0.76,-2.5 -0.67,-2.21z"/>
  <path class="fil0" d="M72.15 108.97c-3.01,1.25 -5.98,2.57 -9.11,3.49 -1.4,0.42 -0.75,2.48 0.65,2.15 3.29,-0.75 6.37,-2.1 9.38,-3.6 1.14,-0.57 0.26,-2.52 -0.92,-2.04z"/>
  <path class="fil0" d="M21.2 121.05c-1.24,0.22 -2.47,0.45 -3.73,0.5 -1.42,0.07 -1.36,2.17 0.06,2.19 1.46,0.03 2.89,-0.24 4.31,-0.56 0.59,-0.14 0.91,-0.84 0.75,-1.39 -0.2,-0.62 -0.8,-0.85 -1.39,-0.74z"/>
  <path class="fil0" d="M38.35 122.61c-2.24,0.64 -4.49,1.12 -6.69,1.92 -1.13,0.41 -0.97,2.38 0.35,2.19 2.45,-0.34 4.75,-0.87 7.02,-1.88 1.34,-0.59 0.81,-2.67 -0.68,-2.24z"/>
  <path class="fil0" d="M127.66 88.05c-1.34,0.43 -2.69,0.87 -4.02,1.33 -1.16,0.41 -0.97,2.33 0.36,2.21 1.61,-0.13 3.15,-0.81 4.59,-1.51 1.17,-0.57 0.27,-2.42 -0.92,-2.04z"/>
  <path class="fil0" d="M124.98 97.56l-1.05 0.65c-1.41,0.14 -1.38,2.22 0.06,2.22 0.94,0 1.78,-0.44 2.39,-1.14 0.33,-0.38 0.42,-0.92 0.14,-1.37 -0.29,-0.47 -1.06,-0.75 -1.54,-0.37z"/>
  <path class="fil0" d="M102.43 100.48c-3.65,1.86 -7.24,3.28 -11.24,4.21 -1.23,0.29 -0.9,2.27 0.35,2.18 4.3,-0.3 8.59,-1.97 12.12,-4.41 1.24,-0.87 0.11,-2.67 -1.23,-1.98z"/>
  <path class="fil0" d="M165.46 103.31c-2.57,0.45 -4.94,1.44 -6.97,3.09 -1.12,0.9 -0.11,2.71 1.2,1.95 2.02,-1.2 4.19,-2.14 6.44,-2.82 1.46,-0.44 0.76,-2.47 -0.67,-2.22z"/>
  <path class="fil0" d="M216.46 119.45l-0.87 0.68 -1.05 0.64c-1.31,0.53 -0.75,2.56 0.65,2.14 0.6,-0.18 1.16,-0.3 1.7,-0.65 0.58,-0.36 1.04,-0.89 1.38,-1.47 0.67,-1.11 -0.99,-2.35 -1.83,-1.34z"/>
  <path class="fil0" d="M152.07 110.43c-1.39,0.78 -2.81,1.46 -4.29,2.02 -1.34,0.52 -0.76,2.56 0.65,2.15 1.75,-0.5 3.36,-1.15 4.82,-2.25 1.15,-0.87 0.11,-2.65 -1.18,-1.92z"/>
  <path class="fil0" d="M107.01 205.27l-0.34 0.82c-0.32,0.86 0.27,1.92 1.01,2.33 1,0.56 2.26,0.16 2.82,-0.82 0.37,-0.63 0.44,-1.21 0.31,-1.93 0.07,0.47 0.07,0.39 -0.03,-0.22l-0.18 -0.39c-0.29,-0.75 -1.1,-1.22 -1.94,-0.97 -0.43,0.09 -0.78,0.28 -1.14,0.58l0.21 -0.18 -0.73 0.77z"/>
  <path class="fil0" d="M128.93 203.73c-0.01,-0.56 -0.33,-1.08 -0.82,-1.35 -0.47,-0.26 -0.92,-0.22 -1.38,-0.05l-0.42 0.11c-0.69,0.29 -1.23,0.73 -1.42,1.49 -0.18,0.72 0.05,1.51 0.58,2.02 1.13,1.08 3.11,0.53 3.47,-1 0.1,-0.44 0.09,-0.8 -0.01,-1.15l0 -0.07z"/>
  <path class="fil0" d="M143.59 202.24c1.09,0 1.96,-0.97 1.94,-2.05 -0.03,-1.1 -0.95,-1.94 -2.04,-1.94 -1.09,0 -1.97,0.97 -1.94,2.04 0.03,1.1 0.96,1.94 2.04,1.94z"/>
  <path class="fil0" d="M136.34 209.79c1.12,-0.03 1.66,-1.05 1.48,-2.05 -0.08,-0.44 -0.32,-0.72 -0.65,-1 -0.56,-0.49 -1.26,-0.43 -1.8,0.04 -0.33,0.29 -0.54,0.59 -0.62,1.03 -0.18,1.01 0.5,2.01 1.59,1.98z"/>
  <path class="fil0" d="M117.26 195.58c-0.02,-0.82 -0.67,-1.26 -1.41,-1.34l-0.19 0 -0.63 0.19c-0.4,0.17 -0.72,0.42 -0.83,0.86 -0.12,0.49 0.1,1.15 0.59,1.36l0.03 0.01 0.86 0.36 0.25 -0.03c0.74,-0.11 1.35,-0.58 1.34,-1.41z"/>
  <path class="fil0" d="M116.83 208.76c-0.06,1.57 2.53,1.54 2.46,-0.06 -0.03,-0.4 -0.11,-0.79 -0.43,-1.08 -0.49,-0.44 -1.16,-0.4 -1.64,0.04l-0.39 1.1z"/>
  <path class="fil0" d="M90.75 202.13l0.19 0.31c0.42,0.74 1.49,0.81 2.06,0.22 0.59,-0.61 0.41,-1.63 -0.32,-2.05l-0.31 -0.18c-1.05,-0.67 -2.26,0.71 -1.62,1.71z"/>
  <path class="fil0" d="M101.69 195.37c-1.44,-0.94 -3.44,0.72 -2.86,2.3 0.17,1.07 0.97,1.92 2.11,1.89 1.43,-0.03 2.25,-1.39 1.95,-2.7 -0.16,-0.7 -0.64,-1.12 -1.21,-1.5z"/>
  <path class="fil0" d="M80.21 197.34l-0.72 -0.91c-0.5,-0.23 -1.01,-0.17 -1.43,0.22l-0.05 0.06c-0.42,0.39 -0.45,1.08 -0.17,1.56l0.58 0.54c0.96,0.43 2.15,-0.34 1.8,-1.46z"/>
  <path class="fil0" d="M89.13 197.6c1.55,0 1.48,-2.4 -0.06,-2.4 -1.55,0 -1.48,2.4 0.06,2.4z"/>
  <path class="fil0" d="M86.06 200.35c-0.39,-0.54 -1.34,-0.83 -1.81,-0.19l-0.03 0.04c-0.83,0.43 -0.69,2.01 0.32,2.15 0.51,0.07 1,0.07 1.39,-0.34 0.43,-0.44 0.5,-1.16 0.14,-1.67z"/>
  <path class="fil0" d="M64.99 193.18c1.39,0 1.33,-2.15 -0.04,-2.15 -1.39,0 -1.33,2.15 0.04,2.15z"/>
  <path class="fil0" d="M82.7 188.69c1.46,0 1.4,-2.28 -0.06,-2.28 -1.47,0 -1.41,2.28 0.06,2.28z"/>
  <path class="fil0" d="M73.27 190.81l0.1 0.02c0.68,0.51 2,0.12 1.86,-0.9 -0.14,-1.04 -0.97,-1.64 -2.01,-1.35 -1.14,0.32 -1,1.91 0.05,2.23z"/>
  <path class="fil0" d="M104.09 186.96c-1.46,0 -1.4,2.25 0.05,2.25 1.45,0 1.4,-2.25 -0.05,-2.25z"/>
  <path class="fil0" d="M114.4 186.5c0.17,-0.7 -0.4,-1.59 -1.19,-1.49l-0.84 0.22c-0.77,0.36 -0.68,1.65 0.05,1.98l0.53 0.17c0.65,0.07 1.29,-0.19 1.46,-0.88z"/>
  <path class="fil0" d="M107.37 197.6l0.58 -0.06c1.16,-0.37 1.04,-1.95 -0.06,-2.29l-0.58 -0.05c-1.56,0.07 -1.48,2.34 0.06,2.4z"/>
  <path class="fil0" d="M90.97 187.84l0.25 0.07c0.76,0.2 1.51,-0.42 1.49,-1.2 -0.02,-0.8 -0.8,-1.3 -1.55,-1.12l-0.25 0.06c-1.11,0.29 -1,1.92 0.05,2.18z"/>
  <path class="fil0" d="M99.32 179.33c1.52,0 1.45,-2.34 -0.06,-2.34 -1.52,0 -1.45,2.34 0.06,2.34z"/>
  <path class="fil0" d="M73.84 183c1.39,0 1.34,-2.16 -0.05,-2.16 -1.4,0 -1.34,2.16 0.05,2.16z"/>
  <path class="fil0" d="M87.52 176.02c1.4,0 1.34,-2.16 -0.05,-2.16 -1.4,0 -1.34,2.16 0.05,2.16z"/>
  <path class="fil0" d="M55.61 182.77c1.01,0.06 1.49,-0.81 1.31,-1.72 -0.19,-0.98 -1.56,-0.99 -2.02,-0.26 -0.71,0.58 -0.45,1.91 0.71,1.98z"/>
  <polygon class="fil0" points="119.52,175.03 119.53,175.02 "/>
  <path class="fil0" d="M118.83 177.32l1.14 0.25c0.7,-0.04 1.28,-0.58 1.26,-1.31 -0.02,-0.76 -0.62,-1.21 -1.32,-1.26l-0.39 0.03 -0.73 0.26c-0.79,0.43 -0.7,1.63 0.05,2.04z"/>
  <path class="fil0" d="M126.94 187.3c1.41,0 1.35,-2.18 -0.06,-2.18 -1.4,0 -1.34,2.18 0.06,2.18z"/>
  <path class="fil0" d="M136.3 183.53l0.56 0.04c1.44,-0.03 1.37,-2.21 -0.05,-2.23l-0.56 0.05c-1.09,0.33 -0.97,1.82 0.05,2.14z"/>
  <path class="fil0" d="M143.57 182.76c1.43,0 1.37,-2.22 -0.06,-2.22 -1.43,0 -1.37,2.22 0.06,2.22z"/>
  <path class="fil0" d="M133.67 196.88c1.15,0 2.07,-1.02 2.04,-2.14 -0.03,-1.17 -1.01,-2.05 -2.14,-2.05 -1.14,0 -2.07,1.02 -2.04,2.14 0.03,1.17 1,2.05 2.14,2.05z"/>
  <path class="fil0" d="M145.43 191.7c0.25,1.04 1.65,1.27 2.33,0.56 0.71,-0.75 0.35,-2.07 -0.67,-2.31 -0.13,-0.03 -0.45,-0.15 -0.03,0.03 -0.4,-0.18 -0.82,-0.21 -1.21,0.03 -0.42,0.26 -0.73,0.89 -0.52,1.37l0.09 0.32z"/>
  <path class="fil0" d="M125.84 196.69c0.57,-0.57 0.36,-1.75 -0.52,-1.94 -1.03,-0.21 -1.67,0.42 -1.74,1.41 -0.09,1.29 1.77,1.46 2.27,0.53z"/>
  <path class="fil0" d="M119.7 186.01c1.48,0 1.43,-2.29 -0.05,-2.29 -1.49,0 -1.42,2.29 0.05,2.29z"/>
  <path class="fil0" d="M151.1 202.27c-0.24,0.42 -0.29,0.91 -0.09,1.33 0.25,1.17 1.84,1.15 2.19,0.06 0.26,-0.45 0.17,-1 -0.08,-1.44 -0.44,-0.78 -1.59,-0.69 -2.02,0.05z"/>
  <path class="fil0" d="M154.03 195.73c1.57,0 1.51,-2.43 -0.06,-2.43 -1.57,0 -1.51,2.43 0.06,2.43z"/>
  <path class="fil0" d="M160.3 197.44c-0.09,0.6 0,1.12 0.49,1.52l0.15 0.1 0.04 0.05c0.36,0.34 0.97,0.43 1.39,0.15 0.47,-0.32 0.82,-0.73 0.78,-1.34 -0.07,-1 -1.06,-1.65 -2.01,-1.35 -0.38,0.12 -0.77,0.46 -0.84,0.88z"/>
  <path class="fil0" d="M170.39 191.68c1.52,0 1.46,-2.36 -0.06,-2.36 -1.53,0 -1.46,2.36 0.06,2.36z"/>
  <path class="fil0" d="M160.44 187.1l-0.84 -0.14c-0.61,0.06 -1.11,0.51 -1.1,1.16 0.02,0.67 0.55,1.04 1.16,1.09l0.84 -0.17c0.74,-0.45 0.65,-1.5 -0.05,-1.94z"/>
  <path class="fil0" d="M151.08 185.17c1.42,0 1.38,-2.21 -0.05,-2.21 -1.43,0 -1.37,2.21 0.05,2.21z"/>
  <path class="fil0" d="M163.37 181.97l0.25 0.09c0.78,0.27 1.56,-0.49 1.55,-1.24 -0.02,-0.79 -0.84,-1.43 -1.6,-1.16l-0.25 0.08c-1.13,0.41 -1.01,1.84 0.06,2.24z"/>
  <path class="fil0" d="M139.01 190.53c1.42,0 1.37,-2.21 -0.05,-2.21 -1.42,0 -1.37,2.21 0.05,2.21z"/>
  <path class="fil0" d="M130.69 175.52c1.44,0 1.37,-2.21 -0.05,-2.21 -1.43,0 -1.37,2.21 0.05,2.21z"/>
  <path class="fil0" d="M136.96 172.83c0.03,0.87 0.81,1.27 1.58,1.14l0.52 -0.19c0.76,-0.42 0.67,-1.59 -0.05,-1.99l-0.53 -0.17c-0.78,-0.13 -1.54,0.37 -1.52,1.21z"/>
  <path class="fil0" d="M154.03 181.32l-0.01 -0.01 0.02 0.01 0.2 0.07 0.9 -0c1.12,-0.34 1,-1.87 -0.06,-2.2l-0.64 -0.03 -0.91 0.63 -0.07 0.19 -0.05 0.3 -0.01 0.05 0.29 0.69 0.34 0.3z"/>
  <path class="fil0" d="M151.35 170.02c0.42,-0.05 0.76,-0.14 1.08,-0.44 0.45,-0.45 0.39,-1.2 -0.04,-1.63l-0.76 -0.36c-0.67,-0.08 -1.33,0.18 -1.5,0.9 -0.18,0.73 0.42,1.63 1.23,1.54z"/>
  <path class="fil0" d="M176.96 186.38c1.29,1.34 3.57,0.2 3.53,-1.56 -0.04,-1.85 -2.32,-2.67 -3.6,-1.39l-0.07 0.07c-0.79,0.8 -0.67,2.05 0.07,2.82l0.07 0.07z"/>
  <path class="fil0" d="M170.66 181.95c1.09,-0.03 1.6,-1.19 1.13,-2.09 -0.54,-1.04 -1.84,-0.93 -2.37,0.06 -0.48,0.91 0.18,2.05 1.23,2.03z"/>
  <path class="fil0" d="M181.38 177.72c1.51,0 1.45,-2.34 -0.06,-2.34 -1.51,0 -1.45,2.34 0.06,2.34z"/>
  <path class="fil0" d="M163.95 173.46c1.55,0 1.49,-2.4 -0.06,-2.4 -1.55,0 -1.49,2.4 0.06,2.4z"/>
  <path class="fil0" d="M171.93 171.61c0.85,0.21 1.89,-0.67 1.51,-1.59l-0.1 -0.24c-0.16,-0.39 -0.4,-0.68 -0.82,-0.79 -0.46,-0.11 -1.09,0.09 -1.29,0.56l-0.1 0.22c-0.31,0.74 -0.05,1.62 0.8,1.83z"/>
  <path class="fil0" d="M187.55 180c0.99,-0.02 1.59,-1.15 1.08,-1.99l-0.01 0c-0.47,-1.07 -1.84,-0.94 -2.24,0.11l0 -0.06c-0.52,0.86 0.22,1.95 1.18,1.93z"/>
  <path class="fil0" d="M195.87 177.07c1.71,0 1.64,-2.64 -0.06,-2.64 -1.71,0 -1.64,2.64 0.06,2.64z"/>
  <path class="fil0" d="M202.84 184.78c0.72,-0.03 1.13,-0.38 1.51,-0.97 0.64,-0.98 -0.67,-2.13 -1.6,-1.53 -1.58,0.02 -1.5,2.55 0.09,2.5z"/>
  <path class="fil0" d="M209.54 179.58l0.56 -0.07c1.09,-0.41 0.97,-1.77 -0.06,-2.16l-0.57 -0.06c-1.48,-0.03 -1.43,2.33 0.06,2.3z"/>
  <path class="fil0" d="M63.6 186.66l0.91 -0.39c0.53,-0.42 0.61,-1.22 0.29,-1.78l-0.16 -0.26c-0.5,-0.8 -1.6,-0.71 -2.07,0.05l-0.17 0.26c-0.31,0.57 -0.16,1.3 0.32,1.72l0.87 0.4z"/>
  <path class="fil0" d="M34.58 182.92c-0.42,-0.77 -1.6,-0.68 -2,0.05l-0.19 0.53c-0.23,0.78 0.45,1.56 1.24,1.55 0.82,-0.02 1.38,-0.84 1.16,-1.61l-0.2 -0.52z"/>
  <path class="fil0" d="M38.12 185.82c-1.53,0 -1.48,2.38 0.06,2.38 1.54,0 1.48,-2.38 -0.06,-2.38z"/>
  <path class="fil0" d="M43.74 181.68l0.07 0 0.04 -0.01 0.51 -0.04c1.07,-0.21 0.98,-1.92 -0.05,-2.11l-0.56 -0.04 -0.07 0c-1.42,0 -1.37,2.21 0.06,2.21z"/>
  <path class="fil0" d="M60.17 177.83c1.65,0 1.57,-2.54 -0.06,-2.54 -1.65,0 -1.58,2.54 0.06,2.54z"/>
  <path class="fil0" d="M80.14 177.96l0.28 0.38 0.01 0.01 0.08 0.07 0.84 0.29 0.63 -0.2c0.38,-0.2 0.66,-0.58 0.64,-1.13l0 -0.05 -0 -0.07 -0 -0.26 -0.11 -0.52 -0.28 -0.37 -0.02 -0.01 -0.07 -0.06 -0.84 -0.3 -0.62 0.21c-0.38,0.2 -0.65,0.57 -0.64,1.12l-0 0.26 -0 0.06 0 0.06 0.12 0.52z"/>
  <path class="fil0" d="M68.98 173.39l-0.09 -0.05c0.67,0.35 1.65,0.02 1.79,-0.78l-0.01 -0.65c-0.15,-0.77 -1.02,-0.97 -1.66,-0.76 -0.42,0.11 -0.76,0.36 -0.88,0.83 -0.14,0.57 0.22,1.33 0.86,1.41z"/>
  <path class="fil0" d="M93.36 167.56c-1.58,0 -1.51,2.44 0.06,2.44 1.57,0 1.52,-2.44 -0.06,-2.44z"/>
  <path class="fil0" d="M109.79 176.85c1.34,-0.03 2.22,-1.89 1.09,-2.82l-0.75 -0.43 -0.34 -0.14c-0.69,-0.27 -1.41,0.33 -1.54,1.01 -0.55,0.99 0.39,2.4 1.55,2.37z"/>
  <path class="fil0" d="M104.4 167.9l-0.04 0.03 -0.8 -0.16c-1.65,0.04 -1.57,2.5 0.06,2.54l0.85 -0.15c1.15,-0.28 1.04,-1.99 -0.06,-2.26z"/>
  <path class="fil0" d="M115.11 168.02c0.53,0.14 1.2,-0.18 1.36,-0.72 0.48,-0.78 -0.06,-1.98 -1.12,-1.96 -1.08,0.03 -1.49,1.18 -1.04,1.95 0.13,0.36 0.37,0.63 0.79,0.73z"/>
  <path class="fil0" d="M127.75 169.72c1.57,0 1.5,-2.43 -0.07,-2.43 -1.57,0 -1.51,2.43 0.07,2.43z"/>
  <path class="fil0" d="M137.4 167.82c1.52,0 1.46,-2.36 -0.06,-2.36 -1.53,0 -1.47,2.36 0.06,2.36z"/>
  <path class="fil0" d="M147.93 173.2l0.24 -0.09c1.14,-0.43 1.02,-1.85 -0.06,-2.25l-0.24 -0.09c-0.78,-0.3 -1.59,0.51 -1.57,1.26 0.02,0.77 0.85,1.48 1.63,1.18z"/>
  <path class="fil0" d="M160.2 168.34c1.52,0 1.45,-2.35 -0.06,-2.35 -1.51,0 -1.46,2.35 0.06,2.35z"/>
  <path class="fil0" d="M157.78 175.05c1.52,0 1.45,-2.35 -0.06,-2.35 -1.52,0 -1.45,2.35 0.06,2.35z"/>
  <path class="fil0" d="M82.84 209.07c-1.19,-0.58 -2.67,-0.04 -2.99,1.31 -0.19,0.72 0.04,1.49 0.58,1.99l0.09 0.06 0.23 0.17 0.27 0.14 0.26 0.09 0.27 0.05 0.34 0.03 0.03 -0 0.5 -0.04 0.08 -0.02c1.07,-0.41 1.64,-1.4 1.35,-2.54 -0.13,-0.51 -0.54,-1 -1.01,-1.24z"/>
  <polygon class="fil0" points="98.67,205.91 98.73,205.91 "/>
  <path class="fil0" d="M98.2 208.36l-0.02 -0.04 0.02 0.04zm-0.24 -0.12c0.31,0.34 0.76,0.59 1.23,0.53 0.81,-0.1 1.31,-0.61 1.36,-1.43l-0.47 -1.03 -0.7 -0.39 -0.7 0c-0.81,0.09 -1.38,0.96 -1.01,1.71l0.3 0.61z"/>
  <path class="fil0" d="M133.68 52.68c1.01,-1.2 -0.58,-2.69 -1.74,-1.66 -3.87,3.44 -8.35,5.03 -12.79,2.54 0.37,-0.89 0.68,-1.84 0.9,-2.85 0.32,-1.56 -1.86,-2.06 -2.37,-0.59 -3.59,10.49 -14.57,11.24 -23.3,6.81 -1.11,-0.56 -2.35,0.97 -1.33,1.81 7.76,6.33 19.5,5.14 24.72,-2.6 4.77,3.9 12.22,0.95 15.91,-3.46z"/>
  <path class="fil0" d="M105.18 51.42c1.11,-0.68 0.3,-2.65 -0.96,-2.13 -3.25,1.35 -7.23,1.46 -9.36,-1.58l0.9 -0.76c1.01,-0.93 -0.36,-2.53 -1.48,-1.82 -4.44,2.8 -11.51,5.74 -14.21,-0.8 -0.63,-1.53 -3.07,-0.86 -2.51,0.76 2.54,7.29 9.85,7.26 15.43,3.92 2.49,4.18 7.97,5 12.19,2.42z"/>
  <path class="fil0" d="M72.84 58c-2.74,1.84 -7.45,4.39 -10.06,1.03 -1.02,-1.3 -3.23,-0.02 -2.23,1.38 3.58,5.04 9.81,2.74 13.77,-0.59 1.04,-0.88 -0.37,-2.57 -1.48,-1.83z"/>
  <path class="fil0" d="M231.9 101.3c-16.59,7.69 -38.86,-0.87 -54.42,-7.3 -18.47,-7.63 -36.7,-17.68 -57.28,-11.7 -11.14,3.24 -21.25,9.49 -31.92,13.92 -4.82,1.99 -10,3.87 -15.26,4.07 -5.67,0.2 -10.93,-2.46 -15.96,-4.67 -9.3,-4.09 -18.51,-7.14 -28.64,-4.07 -8.64,2.61 -15.02,10.16 -24.12,10.95 1.14,-8.29 3.17,-16.3 5.99,-23.94 4.75,6.54 16.6,7.31 24.35,3.96 5.64,3.49 12.87,3.11 17.74,-1.08 4.9,3.29 11.43,0.79 16.16,-2.19 6,-3.75 9.41,-10.16 15.97,-10.51 -0.14,11.13 14.13,12.51 21.88,7.37 4.11,5.53 13.65,0.14 14.69,-5.73 0.11,-0.64 -0.21,-1.08 -0.65,-1.29 -0.18,-0.26 -0.47,-0.46 -0.88,-0.45 -0.91,0.01 -1.42,0.58 -1.41,1.48l0.26 0.67c-1.78,3.52 -6.81,6.51 -10.01,3.7l0.64 -0.69c1.02,-1.21 -0.61,-2.75 -1.78,-1.69 -5.88,5.31 -18.68,6.24 -20.43,-3.26 0.77,0.12 1.58,0.3 2.44,0.58 1.25,0.42 2.06,-1.62 0.85,-2.15 -5.75,-2.54 -10.29,-1.41 -15.05,2.48 -5.53,4.53 -13.02,12.85 -20.81,9.73 0.33,-0.42 0.65,-0.86 0.93,-1.32 0.72,-1.15 -1,-2.38 -1.9,-1.39 -0.49,0.54 -0.99,1.01 -1.49,1.45 -0.59,-0.11 -1.08,0.38 -1.2,0.96 -3.95,2.86 -8.25,3.08 -12.99,1.68 0.61,-0.43 1.17,-0.89 1.67,-1.38 1.11,-1.12 -0.57,-2.57 -1.72,-1.64 -0.91,0.74 -2.04,1.38 -3.3,1.9l-0.88 0.33c-7.26,2.58 -18.4,1.7 -21.88,-4.67 1.27,-3.15 2.69,-6.24 4.23,-9.27 4.77,4.48 12.08,3.83 17.61,0.32 1.36,-0.86 0.11,-2.7 -1.28,-2.06 -5.53,2.54 -10.36,2.59 -15,-0.79 3.91,-7.21 8.57,-13.95 13.87,-20.13 2.38,1.45 5.3,1.74 7.75,0.07 1.3,-0.88 0.11,-2.63 -1.25,-2.02 -1.67,0.75 -3.16,0.41 -4.63,-0.18 2.93,-3.25 6.04,-6.33 9.32,-9.24 2.3,2.14 5.39,2.93 8.36,1.44 1.25,-0.62 0.29,-2.48 -0.97,-2.16 -1.71,0.45 -3.9,0.03 -5.53,-0.89 4.23,-3.59 8.72,-6.87 13.44,-9.83 2.5,3.49 6.47,4.83 10.51,4.69 1.77,4.52 7.59,5.07 11.5,2.42 1.22,-0.83 0.09,-2.61 -1.2,-1.94 -2.65,1.38 -6.25,1.78 -7.89,-0.74 1.69,-0.3 3.33,-0.82 4.84,-1.54 1.28,-0.62 0.3,-2.59 -1,-2.21 -5.5,1.61 -10.06,1.27 -14.6,-2 7.19,-4.3 14.9,-7.82 22.98,-10.47 4.61,6.73 15.19,5.1 20.29,-0.62 1.05,-1.17 -0.57,-2.59 -1.72,-1.64 -4.69,3.87 -11.03,4.84 -15.69,1.36 10.39,-3.11 21.37,-4.78 32.75,-4.78l0.64 0c7.49,0.04 14.81,0.81 21.9,2.23 -5.85,5.28 -18.34,5.17 -23.93,0.18 -1.1,-0.99 -2.48,0.55 -1.55,1.62 6.26,7.27 22.63,6.7 28.34,-1.21 12.44,2.82 24.11,7.65 34.66,14.13 -1.93,1.12 -3.8,1.86 -6.15,1.5 -2.31,-0.35 -4.3,-1.59 -6.46,-2.41 -1.07,-0.41 -1.97,1.27 -1.08,1.96 4.91,3.81 11.22,5.11 15.95,0.38 8.33,5.39 15.91,11.84 22.57,19.13 -3.04,0.98 -6.1,1.05 -8.57,-1.63 -1.16,-1.27 -2.86,0.62 -1.81,1.89 3.03,3.66 8.3,4.23 12.26,1.86 9.42,10.84 16.85,23.46 21.71,37.28 -5,3.74 -10.67,3.18 -16.35,0.84 1.22,-1.2 2.24,-2.6 2.97,-4.2 0.67,-1.46 -1.3,-2.55 -2.17,-1.2 -7.08,10.95 -29.25,10.35 -31.29,-4.05 0.64,-0.46 1.24,-1 1.78,-1.67 0.82,-1.02 -0.31,-2.67 -1.51,-1.86 -4.27,2.85 -8.43,2.11 -12.04,-0.92 0.85,-1.64 1.37,-3.51 1.43,-5.6 0.05,-1.52 -2.06,-1.55 -2.5,-0.28 -3.01,8.69 -10.37,10.45 -18.77,8.64 -7.98,-1.73 -13.57,-7.28 -22.16,-4.74 -1.17,0.35 -0.92,2.33 0.35,2.17 10.54,-1.34 18.7,7.37 29.44,6.95 4.34,-0.16 8.19,-1.92 10.69,-4.88 2.83,2.89 7.16,4.41 10.88,3.33 0.49,13.59 19.99,17.35 30.55,10.23 6.15,3.57 14.2,4.57 19.65,0.06 1.92,5.93 3.37,12.04 4.29,18.34zm0.58 4.61c-2.66,3.17 -5.55,5.88 -9.44,7.6 -1.65,0.72 -0.89,3.45 0.83,2.73 3.36,-1.39 6.6,-3.46 8.99,-6.24 0.15,2.06 0.23,4.14 0.27,6.22 -0.72,0.45 -1.4,1 -2.02,1.55 -0.4,0.34 -0.76,0.76 -1.12,1.14l-1.18 1.06c-0.72,0.8 0.04,2.3 1.16,1.88 0.97,-0.37 1.86,-1.05 2.71,-1.63l0.45 -0.35c-0.02,1.11 -0.05,2.21 -0.1,3.31 -8.26,-0.87 -16.81,2.25 -24.43,4.96 -4.42,1.59 -8.86,2.99 -13.52,3.63 -6.7,0.92 -12.93,-0.76 -19.49,-1.66 -1.27,-0.17 -2.27,1.67 -0.9,2.27 9.14,3.99 19.85,3.43 29.25,0.69 4.57,-1.32 8.99,-3.15 13.52,-4.58 5.11,-1.6 10.21,-1.91 15.42,-2.53 -0.08,1.27 -0.19,2.54 -0.32,3.81 -2.04,-0.5 -4.19,-0.13 -6.08,0.99 -1.6,0.95 -2.78,2.59 -2.89,4.4 -3.45,-0.51 -7.29,0.5 -9.6,2.83 -3.23,-2.2 -8.38,-1.05 -9.59,2.75 -3.59,-1.24 -7.89,-0.52 -10.54,2.28 -4.01,-2.58 -10.19,-2.01 -12.94,2.42 -0.73,1.16 0.89,2.07 1.79,1.31 4.27,-3.52 10.04,-3.91 12.4,1.99 0.57,1.42 2.59,0.81 2.27,-0.68 -0.26,-1.26 -0.81,-2.32 -1.53,-3.23 3.45,-1.88 7.04,-2.89 10.6,-0.14 1.16,0.9 2.67,-0.6 1.6,-1.68 -0.42,-0.42 -0.89,-0.79 -1.39,-1.12 1.33,-2.24 3.63,-3.15 5.92,-1.87 -0.6,1.3 -0.83,2.82 -0.52,4.57 0.22,1.21 1.88,0.89 2.2,-0.06 0.87,-2.6 1.33,-4.69 3.88,-6.19 2.44,-1.44 5.53,-0.91 8.01,0.06 1.24,0.48 1.95,-1.52 0.83,-2.13l-1.05 -0.48c0.1,-1.16 1,-2.1 1.95,-2.75 1.35,-0.92 2.89,-0.96 4.4,-0.65 -0.75,6.11 -2,12.08 -3.68,17.86 -1,-0.37 -2.11,-0.54 -3.25,-0.5l0.09 -0.39c0.31,-1.03 0.84,-2 1.34,-2.93 0.66,-1.21 -0.93,-2.31 -1.89,-1.39 -1.01,0.97 -1.85,2.18 -2.36,3.48 -0.22,0.54 -0.39,1.2 -0.4,1.84 -0.98,0.35 -1.89,0.85 -2.67,1.47 -1.04,-0.25 -2.23,-0.26 -3.41,-0.04 -0.29,-0.45 -0.59,-0.89 -0.83,-1.37 -0.29,-0.56 -0.35,-1.22 -0.58,-1.8 -0.39,-0.93 -1.98,-1.16 -2.19,0.05 -0.22,1.33 0.15,2.89 1.03,3.97 -1.88,0.91 -3.4,2.42 -3.75,4.38l-0.8 -0.04c-0.67,0.01 -1.48,0.2 -2.23,0.55l-0.01 -0.15c-0.19,-1.77 -0.16,-5.05 -2.16,-5.84 -3.51,-1.37 -6.54,5.2 -6.45,7.9 0.05,1.35 1.81,1.39 2.22,0.24 0.43,-1.19 0.83,-2.35 1.4,-3.48 0.36,-0.72 0.79,-1.37 1.31,-1.99 0.54,-0.63 0.65,2.01 0.67,2.29 0.25,3.31 0.08,6.88 0.57,10.22 -2.09,-0.54 -4.17,-1.05 -6.26,-1.54 1.21,-1.72 0.4,-4.24 -1.11,-5.86 -1.79,-1.92 -4.88,-3 -7.34,-1.89 0.01,-0.59 0.02,-1.17 0.02,-1.77 -0,-2.2 -0.19,-4.9 -1.92,-6.47 -2.03,-1.86 -4.77,-0.25 -6.31,1.85 -0.81,-3.64 -2.08,-6.6 -4.14,-6.33 0.05,-0.8 0.02,-1.61 0.02,-2.42 -0,-1.26 0.07,-2.54 -0.1,-3.79l-0.21 -0.59c-3.38,-4.19 -7.65,-8.25 -11.7,-11.8l-0.29 -0.2 -0.1 -0.04 -0.29 -0.07 -0.16 -0.04c-3.03,-0.23 -6.27,-0.31 -9.48,-0.26l-0.08 -0.88c-0.15,-0.85 -1.05,-1.37 -1.84,-0.94 -0.63,0.34 -0.76,1.11 -0.78,1.88 -1.33,0.05 -2.64,0.12 -3.91,0.22l-0.67 0.26 -0.16 0.11c-0.52,0.46 -1,0.94 -1.51,1.42 -3.88,-5.27 -8.33,-10.38 -12.75,-15.13l-0.3 -0.21 -0.03 -0.03 -0.27 -0.06 -0.24 -0.06c-8.48,-0.47 -17.12,0.01 -25.61,0 -1.13,0 -2.27,-0 -3.4,-0.02 -0.02,-0.94 -0.14,-1.88 -0.41,-2.82 0.04,-0.56 -0.3,-0.98 -0.78,-1.18 -0.87,-0.42 -2.12,0.12 -2.12,1.13 -0.29,0.94 -0.39,1.88 -0.42,2.83 -6.16,-0.1 -12.35,-0.22 -18.48,0.08 -0.4,0.02 -0.68,0.18 -0.87,0.42 -2.42,2.21 -4.84,4.48 -7.22,6.83l-0.53 0.52c-2.77,2.74 -5.46,5.56 -7.96,8.45 -1.01,0.47 -0.78,2.2 0.55,2.26l0.22 0c-0.28,7.2 -0.34,14.54 0.02,21.73 -0.62,-0.01 -1.23,0.06 -1.84,0.22 -0.24,-1.32 -1.16,-2.49 -2.52,-3.17 -0.59,-0.31 -1.37,-0.51 -2.16,-0.57 0.32,-2.44 -1.2,-4.72 -3.67,-5.58 -1,-0.34 -2.01,-0.41 -2.94,-0.23 -4,-5.53 -14.17,-4.49 -16.42,1.95 -1.76,-0.5 -3.79,-0.28 -5.44,0.58 -2.43,-3.52 -8.14,-4.68 -11.76,-2.29 -2.63,-3.98 -8.83,-5.77 -13.23,-2.97 -0.49,-2.57 -0.9,-5.17 -1.22,-7.78 7.03,3.75 17.02,4.85 24.43,3.39 5.21,-1.04 10.15,-2.94 15.14,-4.73 6.2,-2.21 12.36,-3.52 18.84,-4.58 1.18,-0.2 1.12,-2.24 -0.06,-2.38 -10.02,-1.14 -20.01,3.25 -29.4,6.21 -9.24,2.91 -20.55,2.25 -29.38,-1.9 -0.32,-3.6 -0.47,-7.24 -0.45,-10.9 0.03,-4.03 0.26,-8.02 0.69,-11.94 8.37,-0.03 14.85,-5.88 22.11,-9.48 6.93,-3.43 13.57,-2.88 20.06,-0.85 -1.98,0.35 -3.95,0.91 -5.89,1.5 -1.56,0.47 -0.83,2.89 0.74,2.43 3.44,-1.05 6.91,-1.88 10.52,-1.95 1.66,0.69 3.32,1.44 4.98,2.19 -3.85,0.07 -7.7,0.45 -11.36,1.52 -1.39,0.41 -0.72,2.33 0.64,2.1 5.39,-0.91 10.69,-1 16.13,-1.23 1.12,0.43 2.23,0.77 3.35,1.05 -3.05,0.34 -6.13,0.48 -9.14,1.26 -1.24,0.32 -0.94,2.37 0.35,2.23 5.44,-0.58 10.88,0.1 15.88,-2.53l0.01 -0.01c16.33,0.25 32.16,-11.79 47.26,-17.19 8.78,-3.14 17.29,-2.82 25.6,-0.83 -1.07,0.33 -2.1,0.77 -3.04,1.28 -0.97,0.52 -0.51,2.31 0.63,2.13 2.7,-0.41 5.21,-1.55 7.93,-1.85 1.66,0.53 3.32,1.12 4.98,1.74 -2.62,0.38 -5.19,1.13 -7.64,2.27 -1.19,0.54 -0.28,2.53 0.94,2.08 4.11,-1.54 8.32,-2.03 12.63,-1.94 1.75,0.74 3.51,1.52 5.25,2.3 -6.71,0.57 -13.42,2.89 -19.08,5.89 -1.12,0.6 -0.26,2.54 0.91,2.04 7.51,-3.25 15.91,-5.74 24.17,-5.26 2.35,1.05 4.69,2.05 7.02,2.99 -1.4,0.1 -2.79,0.28 -4.19,0.47 -1.57,0.22 -1.53,2.71 0.06,2.49 3.83,-0.53 7.54,-0.79 11.36,-0.23 1.24,0.44 2.5,0.89 3.77,1.31 -5.07,1.02 -9.95,2.92 -14.68,5.3 -1.31,0.66 -0.11,2.53 1.19,1.92 6.12,-2.86 12.45,-4.86 19.09,-5.49 1.86,0.54 3.74,1.01 5.63,1.43 -5.73,1.58 -11.17,4.54 -15.87,7.9 -1.21,0.87 -0.11,2.62 1.21,1.95 7.48,-3.77 14.81,-7.14 23.11,-8.47 2.65,0.27 5.28,0.35 7.87,0.22 -2.36,1.68 -4.92,3.02 -7.71,3.98 -1.63,0.57 -0.86,3.14 0.78,2.57 4.22,-1.47 8.35,-3.67 11.34,-7.05 3.3,-0.55 6.49,-1.56 9.5,-3.11 0.05,0.42 0.09,0.83 0.14,1.26zm-12.47 65.48c-4.24,-1.42 -8.52,-2.73 -12.84,-3.91 -0.14,-2.22 -0.18,-4.44 -0.27,-6.66 0.52,-0.53 0.95,-0.96 1.8,-1.09 0.82,-0.11 1.8,0 2.35,0.68 0.76,0.93 2.68,0.39 2.12,-0.95 -0.22,-0.51 -0.51,-0.93 -0.87,-1.28 0.46,-1.11 0.83,-2.12 1.94,-2.95 0.98,-0.74 2.12,-1.01 3.29,-1.1 -0.36,0.75 -0.59,1.58 -0.59,2.48 0.01,1.35 1.85,1.42 2.25,0.25 1.24,-3.68 5.09,-5.25 8.65,-4.21 -2.06,6.51 -4.7,12.79 -7.83,18.75zm-30.52 -11.14l0 -0.44 0.47 -0.15c2.5,-1.35 7.58,2.2 5.12,4.82l-0.03 0.03c-1.8,-0.39 -3.6,-0.76 -5.41,-1.11 0.03,-1.04 -0.14,-2.08 -0.16,-3.15zm-3.06 2.52c-1.21,-0.22 -2.42,-0.41 -3.63,-0.62 -0.18,-1.41 -0.4,-4.35 -0.85,-7.43l0.23 -0.28c0.65,-1.13 1.16,-2.22 2.24,-3.04 1.81,-1.36 1.91,1.67 1.98,2.8 0.14,2.47 -0.67,5.93 0.03,8.56zm-68.25 70.38l-0.65 0c-30.7,-0.17 -59.51,-12.29 -81.1,-34.12 -5.41,-5.47 -10.2,-11.38 -14.34,-17.65 11.85,-4.2 23.39,-8.57 35.68,-11.54 16.85,-4.06 34.09,-6.38 51.36,-7.59 36.86,-2.57 74.23,0.78 109.66,11.39 -19.63,35.42 -57.43,59.5 -100.61,59.5zm-105.07 -68.13c2.67,-1.44 5.32,-2.24 8.48,-1.47 3.33,0.8 5.81,3.11 7.35,6.07 0.57,1.09 2.4,0.53 2.3,-0.67 -0.06,-0.66 -0.18,-1.27 -0.36,-1.85 3.76,-1.17 7.72,0.07 9.69,3.46 -7.05,2.11 -13.94,4.76 -20.08,8.33 -2.78,-4.45 -5.24,-9.1 -7.38,-13.87zm128.62 -33.37c-1.86,1.9 -3.9,3.74 -5.6,5.78 -0.43,0.22 -0.62,0.64 -0.59,1.08 -0.29,6.41 -0.47,13.1 -0.12,19.55 -6,-0.06 -11.98,0.03 -17.95,0.27 0.39,-9.45 0.21,-19.08 -0.08,-28.53 5.2,-4.51 10.18,-9.62 14.86,-14.7 3.72,4.83 7.71,9.68 11.93,14.08 -0.82,0.81 -1.62,1.63 -2.44,2.46zm9.77 26.95c-4.52,-0.27 -9.04,-0.44 -13.56,-0.51 0.33,-6.05 0.2,-12.3 -0.06,-18.34 4.45,0.3 9.25,0.3 13.7,0.02 -0.26,6.2 -0.43,12.62 -0.07,18.84zm6.32 -26.95c-1.81,1.84 -3.76,3.62 -5.44,5.6 -3.97,-0.29 -8.29,-0.34 -12.41,-0.15 3.1,-2.77 6.08,-5.89 8.78,-8.93 1.13,0.08 2.28,0.16 3.47,0.21l0.11 0.95c0.08,0.52 0.34,0.98 0.89,1.12 0.58,0.14 1.35,-0.22 1.43,-0.86l0.13 -1.17c2.13,0.03 4.26,0.01 6.35,-0.08 -1.12,1.08 -2.21,2.19 -3.31,3.31zm17.78 17.91c0.39,-0.88 0.87,-1.97 1.67,-2.55 0.29,-0.21 1.54,4.26 1.63,4.66 0.78,3.25 0.45,6.7 0.95,9.97 -2.57,-0.4 -5.14,-0.77 -7.72,-1.11 0.31,-1.01 0.51,-2.09 0.76,-3 0.75,-2.7 1.56,-5.41 2.7,-7.97zm-0.79 -3.95l0.17 0.4c-1.68,1.81 -2.49,4.88 -3.24,7.02 -0.81,2.31 -1.76,4.75 -2.34,7.19 -5.1,-0.61 -10.23,-1.09 -15.37,-1.43 0.39,-6.55 0.19,-13.32 -0.1,-19.85 3.67,-3.04 7.25,-6.67 10.44,-10.24 1.52,1.64 3.09,3.21 4.7,4.76 1.87,1.81 3.68,3.78 5.67,5.46 -0.08,0.97 -0.06,1.95 -0.07,2.93 0,1.26 -0.08,2.52 0.14,3.76zm-78.9 -21.74c-7.73,-0.15 -15.54,-0.31 -23.28,-0.05 0.77,-0.77 1.55,-1.54 2.31,-2.31 5.8,0.25 11.65,0.07 17.45,-0.05 1.45,-0.03 1.38,-2.21 -0.06,-2.24 -4.99,-0.1 -10.02,-0.25 -15.03,-0.14 0.45,-0.46 0.89,-0.94 1.33,-1.4 5.17,0.25 10.38,0.27 15.54,0.04 1.48,-0.06 1.39,-2.2 -0.05,-2.27 -4.45,-0.19 -8.93,-0.19 -13.38,-0.04l0.86 -0.93c5.98,0.27 11.99,0.16 18,0.07 0.04,1.19 0.14,2.37 0.67,3.46 0.44,0.91 1.92,0.8 2.35,-0.06 0.52,-1.06 0.58,-2.26 0.62,-3.44 1.17,-0.02 2.34,-0.03 3.51,-0.03 7.42,-0 14.95,0.36 22.38,0.14l-1.07 1.01c-6.59,-0.19 -13.21,-0.25 -19.79,0.05 -1.41,0.05 -1.33,2.1 0.05,2.16 5.75,0.25 11.54,0.24 17.3,0.1 -0.63,0.61 -1.27,1.24 -1.9,1.86 -7.41,-0.14 -14.92,-0.39 -22.31,0 -1.46,0.08 -1.37,2.17 0.05,2.24 6.62,0.35 13.32,0.19 19.97,0.05 -0.51,0.54 -1.01,1.06 -1.52,1.59 -5.72,-0.08 -11.46,-0.22 -17.18,0.03 -1.41,0.06 -1.33,2.1 0.05,2.16 5.01,0.21 10.02,0.13 15.03,0.06 -0.66,0.72 -1.3,1.45 -1.95,2.19 -8.37,-0.43 -16.87,0.02 -25.26,0.02 -7.45,-0 -14.97,-0.3 -22.44,-0.09 0.72,-0.65 1.43,-1.31 2.14,-1.98 8.52,0.38 17.15,0.18 25.68,0.02 1.44,-0.03 1.37,-2.2 -0.05,-2.22zm-28.28 6.78c7.66,0.24 15.38,-0.07 23.02,-0.07 8.1,-0.01 16.31,0.41 24.41,0.05 -0.28,9.22 -0.45,18.6 -0.06,27.81 -1.99,0.09 -3.97,0.2 -5.95,0.32 -9.81,0.62 -19.6,1.7 -29.32,3.21 -1.58,-3.15 -4.92,-5.61 -8.26,-5.12 -0.64,-2.12 -2.15,-3.51 -3.93,-4.17l0.07 -0.27c0.36,-7.19 0.3,-14.55 0.03,-21.77zm-61.7 12.56c2.39,-1.68 5.15,-2.05 7.86,-0.62 2.95,1.54 3.38,4.65 3.06,7.63 -0.12,1.15 1.75,1.57 2.2,0.54 0.83,-1.89 0.93,-3.67 0.52,-5.26 2.83,-1.7 6.82,-1.11 8.84,1.46 -0.8,0.94 -1.27,2.16 -1.19,3.62 0.07,1.27 2.12,1.62 2.31,0.25 0.29,-2.01 1.35,-3.15 3.34,-3.59 1.84,-0.42 3.68,0.51 4.45,2.2 0.58,1.31 2.49,0.81 2.17,-0.65 -0.26,-1.13 -0.8,-2.02 -1.53,-2.67 1.81,-4.85 8.29,-5.3 11.89,-2.08 -0.84,0.69 -1.5,1.66 -1.82,2.84 -0.33,1.24 1.51,1.96 2.09,0.82 0.87,-1.73 2.12,-2.73 4.09,-2.15 1.65,0.49 2.36,2.08 2.09,3.66 -0.51,0.28 -0.93,0.67 -1.17,1.26 -0.48,1.16 0.82,2.19 1.78,1.3 0.75,-0.69 1.67,-0.76 2.62,-0.37 1.11,0.46 1.6,1.29 1.52,2.37 -0.93,0.79 -1.69,1.88 -2.1,3.31 -0.36,1.24 1.51,1.97 2.09,0.82 2.04,-4.02 6.35,-3.94 8.12,-0.18l-0.68 0.46c-0.91,0.72 -0.35,2.62 0.92,2.05 2.99,-1.33 5.67,-0.07 7.55,2.19 -5.58,0.92 -11.15,2 -16.68,3.22 -0.71,-2.63 -2.79,-4.76 -5.43,-5.66 -1.9,-0.66 -4.91,-0.76 -6.74,0.5l-0.52 -0.9c-1.56,-2.34 -4.48,-3.82 -7.28,-3.39 -1.18,0.19 -1.62,1.97 -0.25,2.26 1.99,0.42 3.77,0.98 5.06,2.64 1.11,1.45 1.18,2.95 1.24,4.68 0.04,1.18 1.64,1.57 2.22,0.54 0.48,-0.87 0.59,-1.89 0.48,-2.89 1.53,-0.87 2.57,-1.43 4.66,-0.81 1.84,0.54 3.16,1.92 3.94,3.58 -4.7,1.08 -9.58,2.23 -14.44,3.6 -1.85,-5.14 -8.82,-8.15 -13.59,-5.29 -3.65,-4.94 -12.42,-5.48 -17.65,-2.21 -2.56,-6.16 -4.57,-12.54 -6.02,-19.08zm223.74 -64.41c-5.72,-16.22 -15.01,-31.12 -27.46,-43.72 -22.2,-22.44 -51.81,-34.9 -83.38,-35.07l-0.66 -0c-44.96,0 -84.23,25.38 -104.2,62.56l-0.3 0.58c-6.54,12.35 -10.95,25.98 -12.76,40.42l-0.04 0.35c-0.54,4.47 -0.84,9.01 -0.87,13.62 -0.17,31.57 11.96,61.31 34.16,83.76 22.19,22.44 51.8,34.9 83.37,35.07l0.67 0c31.43,0 61.01,-12.21 83.31,-34.37 22.31,-22.17 34.68,-51.71 34.86,-83.16 0.07,-13.34 -2.06,-26.37 -6.22,-38.65 0.29,-0.56 0.01,-1.1 -0.47,-1.38z"/>
  <path class="fil0" d="M215.18 72.43c1.31,-1.84 1.89,-4.78 1.33,-6.97 -0.34,-1.27 -2.25,-0.91 -2.24,0.36 0.02,2.11 -0.6,3.79 -1.24,5.76 -0.43,1.37 1.44,1.83 2.15,0.84z"/>
  <path class="fil0" d="M139.91 50.45c-0.18,3.48 3.33,5.53 6.45,4.87 2.78,6.27 12.2,7.49 17.69,1.99 0.94,-0.94 -0.36,-2.58 -1.46,-1.8 -6.35,4.45 -13.68,2.84 -14.71,-5.47 -0.14,-1.16 -2.04,-1.6 -2.22,-0.25 -0.15,1.1 -0.14,2.13 0,3.07 -1.64,-0.03 -3.25,-0.53 -3.5,-2.46 -0.18,-1.44 -2.19,-1.42 -2.26,0.06z"/>
  <path class="fil0" d="M123.79 37.29c-0.67,-1.11 -2.61,-0.3 -2.11,0.96 3.21,8.08 12.96,9.27 19.61,4.58 1.24,-0.88 0.11,-2.68 -1.23,-1.99 -5.95,3.06 -12.59,2.48 -16.27,-3.55z"/>
  <path class="fil0" d="M105.7 38.87c-1.16,-0.88 -2.53,0.53 -1.56,1.64 2.83,3.23 8.47,3.98 11.28,0.34 0.93,-1.2 -0.54,-2.58 -1.7,-1.61 -2.38,1.99 -5.7,1.39 -8.03,-0.38z"/>
 </g>
</svg>
