
<svg xmlns="http://www.w3.org/2000/svg" xml:space="preserve" width="0.747331in" height="0.747303in" version="1.1" style="shape-rendering:geometricPrecision; text-rendering:geometricPrecision; image-rendering:optimizeQuality; fill-rule:evenodd; clip-rule:evenodd"
viewBox="0 0 429.65 429.63"
 xmlns:xlink="http://www.w3.org/1999/xlink"
 xmlns:xodm="http://www.corel.com/coreldraw/odm/2003">
 <defs>
  <style type="text/css">
   <![CDATA[
    .fil0 {fill:black;fill-rule:nonzero}
   ]]>
  </style>
 </defs>
 <g id="Layer_x0020_1">
  <metadata id="CorelCorpID_0Corel-Layer"/>
  <path class="fil0" d="M214.32 245.02l0.14 0.23c-1.6,-0.01 -3.21,0.02 -4.81,0.1 1.62,-7.58 -0.61,-16.7 -1.27,-24.33 -0.6,-6.92 -0.78,-14.13 -1.93,-21.06 3.11,0.14 6.23,0.26 9.35,0.33 -0.53,6.84 -0.64,13.75 -0.91,20.6 -0.22,5.64 -0.44,11.27 -0.65,16.9 -0.09,2.12 -0.77,5.18 0.09,7.22zm28.71 0.49c0.73,-6.81 0.46,-13.73 0.37,-20.6 2.56,0.02 5.12,0.02 7.67,0.02 0.36,5.57 0.72,11.14 1.07,16.72 0.11,1.72 -0.18,4.59 0.5,6.55 -3.63,-0.21 -7.25,-0.5 -10.88,-0.83 0.65,-0.3 1.17,-0.92 1.27,-1.85zm7.7 -25.21c-2.46,0.01 -4.91,0 -7.36,0.02l0 -0.62c0.05,-4.92 1.52,-12.97 0.54,-18.94 1.84,0.01 3.68,0.02 5.52,0.02 -0.2,6.4 0.77,13.18 1.31,19.52zm-31.67 -42.09c1.36,-0.97 2.71,-1.93 4.08,-2.85 2.68,-1.82 5.67,-3.6 8.32,-5.65 2.21,2.32 5.69,4.5 6.82,5.37 1.15,0.88 2.32,1.71 3.48,2.56 -7.59,0.02 -15.2,0.2 -22.7,0.58zm0.3 44.44c0.25,-7.38 0.69,-14.82 0.65,-22.22 2.12,0.05 4.24,0.12 6.36,0.16 -0.42,6.56 0.47,13.55 0.69,19.98 -1.09,0.02 -2.16,0.02 -3.26,0.05 -2.57,0.07 -2.45,3.91 0.1,3.97 1.05,0.03 2.13,0.03 3.19,0.06 -0.09,6.77 -0.67,14.22 0.99,20.44l0.69 1.04c-2.6,-0.25 -5.22,-0.47 -7.83,-0.66 -0.93,-0.07 -1.86,-0.09 -2.79,-0.13 2.81,-5.69 1,-16.55 1.21,-22.68zm-2.12 -28.48c-0.03,-3.73 -0.48,-7.42 -0.62,-11.15 9.99,0.57 20.17,0.77 30.33,0.73 -0.3,3.21 -0.21,6.5 0.12,9.68l0.09 0.3c-9.98,0.02 -19.96,0.14 -29.92,0.45zm15.33 50.82c1.22,-6.27 0.18,-13.56 -0.36,-20.24 2.08,0.03 4.15,0.08 6.24,0.11 -0.1,6.91 -0.39,13.89 0.34,20.74 0.08,0.74 0.39,1.25 0.81,1.57 -2.69,-0.26 -5.39,-0.53 -8.1,-0.79l1.07 -1.4zm5.89 -25.15l0 0.54c-2.18,0.02 -4.34,0.07 -6.52,0.12 -0.2,-6.37 0.22,-13.35 -0.61,-19.84 2.19,0.04 4.38,0.07 6.57,0.1 -0.98,5.98 0.5,14.19 0.56,19.08zm15.64 -26.13c-0.97,0 -1.93,0.01 -2.9,0.01l0.12 -0.4c0.32,-3.17 0.39,-6.42 0.1,-9.62 0.99,-0.01 1.97,-0.03 2.96,-0.05 -0.11,1.92 -0.19,3.83 -0.2,5.76 -0.02,1.34 -0.2,2.87 -0.08,4.3zm-3.87 -16.05c-2.75,-2.52 -5.53,-4.98 -8.42,-7.35 -0.43,-0.34 -1.12,-0.97 -1.95,-1.7 1.5,0.02 3.02,0.03 4.53,0.04 3.34,0.02 7.1,0.49 10.5,-0.02 1.99,2.7 6.45,5.44 7.77,6.45 1.33,1.01 2.68,1.99 4.04,2.97 -5.45,-0.19 -10.96,-0.33 -16.47,-0.39zm13.12 23.09c-0.53,6.47 -0.78,12.99 -0.89,19.53 -2.28,-0.01 -4.55,0 -6.83,0 -0.22,-6.4 -0.19,-13.2 -1.25,-19.5 2.98,0 5.97,-0.02 8.96,-0.03zm-2.41 -7.02l-2.04 -0.01c0.09,-1.23 -0.06,-2.52 -0.06,-3.67 -0.02,-2.16 -0.1,-4.31 -0.22,-6.47 0.9,-0.02 1.78,-0.05 2.67,-0.08 -0.1,2 -0.3,3.98 -0.33,5.98 -0.02,1.21 -0.28,2.89 -0.02,4.25zm4.75 -4.36c-0.02,-2.01 -0.22,-4 -0.33,-5.99 0.98,-0.04 1.94,-0.06 2.92,-0.1l0.04 0.2c0.74,1.73 0.32,4.09 0.31,5.92 -0.01,1.48 0.11,2.91 0.25,4.35 -1.05,-0.01 -2.12,-0.01 -3.18,-0.02 0.28,-1.39 -0.01,-3.16 -0.02,-4.38zm2.45 11.35c2.84,-0.02 5.69,-0.02 8.51,-0.04 -0.52,6.48 -0.7,13.06 -0.67,19.67 -2.44,-0.01 -4.89,-0.02 -7.34,-0.03 0.07,-6.56 -0.04,-13.11 -0.5,-19.6zm20.84 19.67c-2.37,-0.01 -4.75,-0.01 -7.12,-0.02 0.03,-6.56 -0.14,-13.09 -0.65,-19.52 2.54,0.15 5.11,0.2 7.67,0.21 -0.2,6.42 -0.06,12.89 0.1,19.33zm4.63 -19.33c2.99,-0.01 5.95,-0.01 8.77,0.14l0.54 0.02c0.1,6.38 0.42,12.75 0.76,19.14 -2.34,0.02 -4.68,0.04 -7.02,0.04 -0.8,0 -1.6,-0.01 -2.4,-0.01 0.05,-6.46 -0.02,-12.97 -0.65,-19.34zm0.59 32.21c-0.02,-2.79 0,-5.62 0.02,-8.45 0.86,0 1.69,-0.01 2.54,-0.01 2.38,0.01 4.77,0.03 7.15,0.05 0.16,3.06 0.29,6.12 0.38,9.17 0.16,5.95 -0.38,12.21 0.26,18.18 -3.22,-0.09 -6.45,-0.09 -9.68,0 0.89,-5.94 -0.64,-13.97 -0.68,-18.94zm23.77 -31.21c-0.33,6.02 -0.38,12.08 -0.4,18.14 -2.8,0.04 -5.62,0.06 -8.43,0.11 -0.07,-6.3 -0.28,-12.62 -0.99,-18.79 3.27,0.17 6.55,0.35 9.82,0.53zm4.76 0.26c2.25,0.14 4.5,0.27 6.75,0.4 -0.49,5.74 -0.77,11.53 -0.96,17.32 -1.93,0.03 -3.86,0.05 -5.8,0.08 0.17,-5.93 0.27,-11.89 0.01,-17.8zm16.98 0.98c-0.56,5.49 -0.39,11.24 -0.5,16.63 -1.76,0.01 -3.51,0.02 -5.28,0.04 0.23,-5.68 0.37,-11.35 0.29,-16.99 1.83,0.11 3.66,0.23 5.49,0.32zm11.17 16.67c-2.1,-0.03 -4.2,-0.03 -6.31,-0.03 0.37,-5.36 0.9,-10.95 0.78,-16.35 1.27,0.07 2.53,0.13 3.81,0.18 0.51,5.41 1.1,10.8 1.72,16.19zm12.43 5c0.33,7.92 1.06,15.79 2.17,23.49l0.17 1.39c-2.02,0.39 -4.05,0.79 -6.06,1.22 -0.02,-7.91 -2.33,-16.74 -3.22,-24.3l-0.19 -1.6c2.38,-0.04 4.76,-0.11 7.13,-0.2zm-0.15 -4.69c-2.52,-0.09 -5.05,-0.16 -7.58,-0.21 -0.63,-5.37 -1.28,-10.75 -2.02,-16.1 3.23,0.12 6.47,0.25 9.73,0.33 -0.22,5.29 -0.26,10.62 -0.13,15.97zm6.39 0.26l-0.82 -0.03c-0.16,-5.35 -0.32,-10.71 -0.57,-16.07 2.34,0.06 4.67,0.12 7.01,0.16 0.18,5.96 1.82,12.87 2.15,17.13 0.68,8.62 1.62,17 3.02,25.48 -3.33,0.54 -6.66,1.1 -9.98,1.72 -0.85,-8.06 -1.22,-16.13 -1.5,-24.19l0.8 -0.03c2.71,-0.14 2.56,-4.03 -0.1,-4.18zm14.1 0.45c-0.54,-5.42 -1.08,-10.84 -1.67,-16.27 3.55,0.06 7.1,0.1 10.66,0.13 -0.45,5.2 -0.61,10.5 -0.59,15.81 -2.81,0.07 -5.6,0.21 -8.4,0.33zm8.46 4.57c0.16,6.66 0.53,13.31 0.97,19.8 -2.61,0.34 -5.21,0.72 -7.82,1.11 -0.11,-7.11 -0.56,-14.14 -1.21,-21.22 2.68,0.11 5.37,0.23 8.06,0.31zm6.12 -20.66c2.04,0.02 4.09,0.04 6.14,0.05 0.24,5.18 0.49,10.36 0.76,15.55 -2.11,0 -4.2,0.02 -6.31,0.05 0.03,-5.26 -0.13,-10.51 -0.58,-15.65zm0.52 20.75c2.21,0.04 4.43,0.07 6.64,0.07 0.32,6.08 0.65,12.16 0.94,18.23 -2.84,0.26 -5.68,0.55 -8.53,0.87 0.42,-6.28 0.81,-12.7 0.95,-19.17zm10.69 -20.69c1.48,0.01 2.95,0.02 4.44,0.02 -0.1,5.2 0.06,10.41 0.15,15.61 -0.94,-0.03 -1.89,-0.02 -2.83,-0.04 -0.33,-5.27 -0.92,-10.52 -1.76,-15.59zm1.98 20.69c0.88,-0.01 1.76,-0.01 2.65,-0.02 -0.03,5.87 -0.26,11.92 0.43,17.7 -1.2,0.08 -2.4,0.19 -3.59,0.26 0.53,-5.76 0.69,-11.82 0.51,-17.93zm-199.34 33.7c-19.35,2.32 -38.54,4.06 -58.04,4.48 -16.86,0.37 -33.94,6.01 -50.44,9.1 -18.17,3.41 -37.92,6.99 -56.23,2.68 -10.91,-2.56 -22.85,-6 -32.41,0.66 -1.55,-5.08 -2.92,-10.23 -4.09,-15.43 1.96,-0.24 3.83,-0.69 5.96,-1.27 6.56,-1.81 12.72,-2.28 19.48,-2.14 10.97,0.22 21.92,2.45 32.88,3.11 2.48,0.14 2.87,-3.8 0.47,-4.3 -20.43,-4.27 -40.05,-7.82 -59.83,-0.35 -0.7,-3.52 -1.32,-7.08 -1.84,-10.66 10.34,-2.43 20.46,-4.93 31.15,-5.78 12.14,-0.97 23.65,2.19 35.63,3.36 22.3,2.18 44.9,0.91 67.21,-0.42 2.93,-0.17 2.68,-4.19 -0.1,-4.45 -24.57,-2.27 -49.17,1.39 -73.73,-1.95 -21.18,-2.87 -40.54,-2.83 -60.88,3.79 -0.5,-4.28 -0.87,-8.58 -1.12,-12.89 15.95,0.1 32.06,-1.37 48.07,-1.34 16.44,0.03 32.88,0.05 49.32,0.06 30.2,0.01 60.41,0.03 90.6,-0.45 2.66,-0.04 2.54,-4.06 -0.1,-4.11 -30.21,-0.48 -60.43,-0.45 -90.63,-0.45 -16.43,0 -32.87,0.03 -49.31,0.07 -16.07,0.03 -32.24,-1.46 -48.25,-1.34 -0.04,-1.89 -0.06,-3.77 -0.05,-5.66 0.03,-5.89 0.32,-11.73 0.84,-17.51 7.05,5.87 18.05,7.92 26.21,10.36 2.32,0.68 3.85,-3.07 1.57,-3.98 -9.4,-3.78 -19.11,-6.36 -27.12,-12.71 1.53,-12.78 4.22,-25.2 7.98,-37.17 17.77,13.44 37.44,24.38 59.17,29.81 2.71,0.67 3.71,-3.44 1.05,-4.18 -21.81,-6.12 -40.16,-17.66 -58.83,-29.91 3.59,-10.61 7.99,-20.83 13.13,-30.6 15.67,19.3 38.21,32.75 60.49,43.01 11.86,5.46 24.31,9.65 36.89,13.12 10.39,2.87 23.45,6.92 34.3,5.71 2.38,-0.27 3.3,-3.82 1.17,-4.71 -3.6,-7.24 -12.34,-15.79 -20.55,-13.38 -0.68,-10.74 -14.57,-18.21 -24.42,-13.64 -0.97,-2.4 -2.6,-4.51 -5.02,-5.98 -2.08,-1.27 -4.57,-1.78 -7.04,-1.71 2,-8.1 0.03,-16.98 -7.03,-22.32 -6.08,-4.6 -14.9,-5.64 -22.22,-3.18 2.73,-14.26 -7.77,-30.91 -22.12,-33.39 3.64,-4.38 7.46,-8.58 11.44,-12.63 7.62,10.67 16.28,20.58 26.04,29.36 2.01,1.8 4.81,-1.13 2.89,-3.03 -9.19,-9.09 -17.62,-18.74 -25.72,-28.8l-0.38 -0.37c10.55,-10.36 22.19,-19.63 34.72,-27.58 2.08,4.32 4.33,8.62 7,12.57 1.29,1.93 4.65,0.63 3.82,-1.72 -1.67,-4.68 -4.22,-9.07 -6.98,-13.21 5.96,-3.61 12.13,-6.93 18.46,-9.94 2.9,5.4 4.88,10.53 0.52,16.42 -1.65,2.24 1.02,4.92 3.16,3.01l1.33 -1.34 0.42 0.27c0.97,0.54 2.15,0.97 3.24,1.2 2.51,0.52 4.2,-3.15 1.71,-4.33 -0.85,-0.39 -1.77,-0.66 -2.65,-0.99l-0.27 -0.11c2.16,-5.28 0.72,-11.37 -2.76,-16.27 5.75,-2.56 11.63,-4.87 17.64,-6.91 -1.82,3.95 -2.48,8.57 -2.71,12.75 -0.14,2.49 3.59,2.7 4.21,0.46 1.53,-5.49 2.44,-10.55 5.34,-15.41 6.67,-2.01 13.49,-3.69 20.43,-5.03 -5.45,4.69 -9.22,11.29 -10.6,19.36 -0.51,2.93 3.9,4.09 4.52,1.13 2.34,-11.13 8.7,-18.97 18.53,-22.52 8.9,-1.17 17.96,-1.78 27.17,-1.78l1.19 0c4.29,0.03 8.54,0.19 12.77,0.48 10.21,3.03 16.47,10 20.65,20.31 1.05,2.6 4.85,1.52 4.19,-1.26 -1.65,-6.97 -5.51,-13.24 -10.82,-17.66 9.76,1.31 19.29,3.31 28.56,5.91 -0.22,0.96 -0.44,1.9 -0.76,2.83 -0.73,2.18 -1.99,4.22 -3.06,6.25 -1.1,2.07 1.84,4.44 3.4,2.5 2.3,-2.89 4.46,-6.48 5.03,-10.22 4.46,1.36 8.86,2.87 13.2,4.53 -7.03,4.71 -9.93,16.66 -1.96,21.74 1.86,1.18 4.06,-1.29 2.91,-3.06 -4.17,-6.4 -1.63,-13.01 4.92,-16.34 10.17,4.24 19.95,9.26 29.23,14.99 -0.42,2.11 -1.05,4.15 -1.94,6.16 -1.14,2.55 -2.82,4.84 -3.67,7.51 -0.66,2.08 2.26,3.58 3.67,2.01 2.98,-3.33 5.41,-8.27 6.14,-13.03 14.54,9.45 27.84,20.69 39.59,33.36 -11.51,3.67 -18.79,15.25 -17.81,26.15 -9.11,-0.48 -17.56,9.67 -16.35,18.37 -6.24,0.33 -11.58,5.29 -13.03,11.54 -0.55,2.37 -0.39,4.56 0.27,6.5 -6.32,1.59 -11.47,7.14 -11.92,13.17 -5.41,-0.1 -11.2,3.43 -12.53,8.65 -7.47,1.41 -12.39,10.8 -10.04,17.98 0.54,1.64 2.37,1.95 3.56,1.22 6.44,-0.64 12.92,-3.66 18.66,-6.34 11.04,-5.15 21.58,-11.27 31.88,-17.75 10.91,-6.87 21.42,-14.36 31.64,-22.23 7.51,-5.81 17.11,-12.14 23.4,-19.76 5.28,9.1 9.89,18.63 13.77,28.53 -9.64,10.67 -21.1,18.98 -34.09,25.26 -2.3,1.12 -0.53,5.04 1.85,4.1 12.47,-4.91 25.7,-13.31 34.15,-24.26 1.86,5.12 3.52,10.34 4.97,15.65 -3.95,3.59 -8.1,6.83 -13.11,8.88 -2.6,1.07 -1.53,4.88 1.28,4.21 4.99,-1.19 9.68,-3.79 13.3,-7.42 2.27,9.31 3.93,18.87 4.89,28.64 -4.29,-0.78 -8.94,-0.51 -13.16,-0.51 -9.14,0 -18.27,0 -27.41,0 -22.6,0 -45.19,0.14 -67.8,0.39 -13.61,0.16 -27.31,0.06 -41,-0.02 0.13,-1.29 0.26,-2.57 0.26,-3.86 -0.01,-1.61 -0.55,-4.4 0.06,-5.88l0.26 -1 0.3 -0.02 0.69 -0.02c1.21,-0.04 1.83,-1.01 1.85,-2.06l-0.1 -1.1 -1.08 -1.31c-3.07,-2.85 -6.14,-5.6 -9.39,-8.24 -1.48,-1.22 -6.06,-5.79 -9.31,-6.3l-0.29 -0.14c-3.81,-1.1 -8.41,-0.38 -12.34,-0.36 -3.82,0.02 -7.55,0.01 -11.31,0.53l-0.38 -0.01c-1.12,-0.2 -2.07,0.06 -2.71,1.08l-0.1 0.22c-3.17,1.77 -6.17,4.06 -9.11,6.07 -3.7,2.55 -7.62,4.92 -11.07,7.8 -1.8,1.49 0.2,3.92 2.12,3.54l0.85 0.04c-0.12,3.86 -0.61,7.69 -0.63,11.54 -5.58,0.22 -11.16,0.45 -16.73,0.81 -2.79,0.19 -2.63,4.11 0.1,4.28 2.14,0.13 4.29,0.22 6.44,0.32 -0.22,7.11 0.72,14.4 1.17,21.44 0.22,3.67 0.14,7.78 0.28,11.85 -11.97,-2.88 -25.29,2.51 -37.26,2.88 -2.67,0.1 -2.48,3.93 0.1,4.09 12.72,0.86 24.8,-4.32 37.5,-2.17 0.29,2.72 0.78,5.38 1.7,7.76l0.02 0.03c-7.13,0.57 -14.23,1.66 -21.25,2.87 -26.48,4.54 -52,8.86 -78.61,2.72 -2.63,-0.62 -3.38,3.04 -0.99,3.95 21.87,8.41 47,3.94 69.47,0.67 13.41,-1.95 26.35,-4.98 39.99,-5.25 14.48,-0.3 28.67,3.24 43.19,2.2 2.72,-0.21 2.69,-3.95 0.18,-4.32 0.53,-1.71 -0.01,-3.99 -0.13,-5.63 -0.4,-5.96 -0.81,-11.91 -1.22,-17.87 2.17,0 4.35,0.01 6.53,0 -0.06,8.09 0.02,16.19 -0.03,24.17 -0.74,3.55 5.82,4.54 5.81,0.26 -0.04,-8.08 0.26,-16.27 0.4,-24.45 2.48,-0.02 4.96,-0.02 7.44,-0.03 0.14,8.09 0.48,16.19 0.73,24.11 -0.05,1.43 1.05,2.1 2.15,2.04 1.12,0.02 2.25,-0.7 2.21,-2.15 0.24,-7.9 0.58,-15.96 0.72,-24.02 2.41,-0.02 4.85,-0.02 7.27,-0.02 0.06,2.16 0.1,4.31 0.13,6.45 0.07,5.57 -1.51,14.68 -0.29,21.18 -17.05,1.05 -34.07,4.51 -50.13,9.93 -12.3,4.15 -23.81,10.34 -36.16,14.48 -13.63,4.58 -27.64,6.28 -41.91,7.37 -2.67,0.21 -2.54,3.99 0.1,4.12 25.17,1.29 48.48,-7.44 71.05,-17.62 23.08,-10.4 48.84,-12.61 73.81,-14.03 1.12,0.94 3.36,0.54 3.66,-1.14 1.22,-6.99 0.1,-14.61 -0.05,-21.67 -0.06,-2.99 -0.08,-5.99 -0.1,-9 2.8,0.03 5.57,0.06 8.37,0.12 -0.01,2.2 -0.02,4.39 -0.06,6.59 -0.11,7.71 -0.85,15.67 -0.3,23.37 0.18,2.43 4.17,3.15 4.47,0.5 0.82,-7.13 0.5,-14.48 0.65,-21.65 0.06,-2.9 0.14,-5.81 0.25,-8.74 1.93,0.02 3.87,0.05 5.8,0.09 -0.23,9.48 -0.31,18.99 -0.74,28.36 -0.15,3.06 4.69,2.96 4.77,-0.11 0.25,-9.34 0.86,-18.76 1.32,-28.19 1.77,0.02 3.54,0.02 5.3,0.03 -0.45,8.77 -1.24,17.68 -0.67,26.38 0.16,2.43 4.04,3.11 4.43,0.49 1.29,-8.83 1.18,-17.92 1.51,-26.87 2.41,0 4.82,-0.01 7.23,-0.03l0.18 1.62c0.91,7.87 0.68,17.34 2.64,25.3 -12.37,2.7 -24.68,5.81 -36.93,9.13l-1.31 -0.5c-19.25,-0.3 -38,2.58 -56.45,7.94 -2.56,0.74 -1.37,4.62 1.2,3.94 13.06,-3.42 26.27,-5.54 39.63,-6.71 -13.78,3.87 -27.52,7.85 -41.19,11.61 -62.35,17.12 -124.13,29.48 -189.03,24.64 -2.31,-0.16 -2.72,3.68 -0.45,4.02 99.24,15.03 191.95,-29.2 287.45,-49.66l0.68 -0.14c20.93,-4.47 42.01,-7.76 63.31,-9.05 -1.89,11.9 -4.77,23.45 -8.58,34.6 -0.38,-1.58 -0.68,-3.21 -0.86,-4.85 -0.3,-2.63 -3.85,-2.5 -4.09,0.11 -0.31,3.56 -0.19,8.55 2.5,11.27l0.07 0.05c-29.95,78.89 -106.4,135.21 -195.44,135.21l-1.18 -0.01c-55.82,-0.31 -108.18,-22.34 -147.42,-62.03 -22.62,-22.87 -39.31,-50.03 -49.35,-79.62 11.67,-8.16 26.3,0.13 39.09,1.37 16.46,1.62 33.36,-1.53 49.49,-4.47 17.27,-3.18 34.55,-8.76 52.16,-9.17 18.37,-0.44 37.42,-0.97 55.18,-6.08 2.41,-0.7 1.87,-4.75 -0.71,-4.44zm-161.01 -174.13c13.9,1.68 26.69,19.69 19.24,32.89 -1.22,2.15 1.31,4.37 3.34,3.19 6.32,-3.66 14.09,-3.29 20.43,0.14 10.42,5.64 5.64,17.18 3.46,25.89 -0.66,2.6 2.71,3.54 4.09,1.6 0.86,-1.21 1.6,-2.48 2.25,-3.8 1.82,-0.14 3.66,-0.1 5.39,0.59 3.82,1.55 4.76,5.63 5.19,9.33 0.33,2.75 4.06,2.64 4.27,-0.1 0.07,-0.9 0.04,-1.77 -0.03,-2.66 9.66,-3.99 18.77,3.74 18.46,13.81 -0.08,2.59 3.59,2.72 4.31,0.48l0.05 -0.17c6.14,-1.72 11.95,2.43 15.68,7.54 -45.9,-6.99 -92.6,-26.55 -124.81,-60.25l-0.24 -0.21c5.55,-9.95 11.88,-19.4 18.93,-28.29zm341.67 20.16c-8.2,5.72 -15.46,14 -23.27,20.14 -9.38,7.37 -19.17,14.2 -29.15,20.7 -15.64,10.19 -31.72,18.64 -49.08,25.2 0.25,-4.12 1.45,-8.31 5.46,-9.69 0.89,1.59 3.5,1.91 3.98,-0.33 0.51,-2.34 1.01,-4.33 3,-5.87 1.8,-1.42 3.99,-1.78 6.2,-1.97 0.5,1.24 1.23,2.49 2.25,3.66 1.63,1.89 4.15,-0.31 3.74,-2.29 -0.86,-4.07 -2.3,-7.45 0.86,-10.88 2,-2.17 4.83,-3.03 7.6,-3.74 2.6,2.37 6.24,3.78 10.06,3.9 2.48,0.06 2.83,-3.74 0.47,-4.3 -5.48,-1.27 -10.49,-4.07 -9.11,-10.47 1.08,-4.99 5.3,-7.18 9.87,-7.39 0.64,0.96 1.44,1.84 2.44,2.68 2.17,1.74 4.67,-1 2.94,-3.1 -2.76,-3.35 -2.55,-7.8 -0.67,-11.5 2.45,-4.82 6.58,-5.31 11.05,-5.74 1.56,4.16 4.52,8.01 9.19,10.95 2.15,1.36 4.29,-1.79 2.56,-3.5 -3.27,-3.22 -5.84,-6.44 -7.15,-9.97l-0.3 -0.89c-1.01,-3.35 -0.9,-6.97 0.84,-11.17 2.82,-6.79 7.88,-11.39 14.65,-13.42 7.99,9.02 15.19,18.72 21.56,29.01zm31.02 110.59c-0.02,1.65 -0.05,3.28 -0.1,4.93 -1.56,-0.06 -3.14,-0.13 -4.71,-0.18 -0.05,-5.23 -0.07,-10.51 -0.35,-15.74 0.73,0 1.47,0 2.2,0l0.06 0.01c0.89,0 1.77,0 2.66,0 0.18,3.63 0.25,7.29 0.23,10.98zm-1.91 27.01c-0.88,0.03 -1.76,0.07 -2.63,0.11 0.46,-5.79 -0.02,-11.82 -0.19,-17.62 1.49,-0.05 2.97,-0.1 4.46,-0.17 -0.3,5.96 -0.86,11.86 -1.64,17.68zm-208.26 186.64l1.22 0c57.12,0 110.91,-22.18 151.43,-62.46 40.55,-40.32 63.03,-94 63.36,-151.16 0.11,-19.83 -2.49,-39.06 -7.44,-57.32l-0.14 -0.5c-24.79,-90.63 -107.6,-157.65 -206.05,-158.19l-1.22 0c-117.78,0 -214.15,95.83 -214.79,213.62 -0.32,57.39 21.73,111.45 62.07,152.26 40.35,40.8 94.17,63.44 151.55,63.75z"/>
  <path class="fil0" d="M44.1 304.46l12.09 -6.47c0.95,-0.51 1.3,-1.69 0.8,-2.63l-0.17 -0.3 -1.15 -0.94 -1.48 0.14 -14.09 7.54 -0.94 1.16 0.14 1.48 3.4 6.35 1.16 0.94 0.56 0.09 0.93 -0.23 0.3 -0.16c0.94,-0.51 1.3,-1.69 0.79,-2.63l-2.32 -4.33z"/>
  <path class="fil0" d="M67.84 314.75l-0.3 -1.48 -0.19 -0.29c-0.59,-0.89 -1.81,-1.13 -2.7,-0.53l-13.16 8.79 -0.83 1.24 0.3 1.47 0.18 0.3 1.63 0.85 1.08 -0.32 13.17 -8.78 0.82 -1.24z"/>
  <path class="fil0" d="M67.72 332.33l1.6 1.95c0.81,1.52 0.45,2.25 -0.47,3.01l-2 0.45 -1.2 -0.77 -1.44 -1.77 3.51 -2.87zm5.44 -4.46l1.44 1.77 0.49 0.97 -0.61 1.07 -1.17 0.27 -0.57 -0.22 -1.72 -2.08 2.15 -1.77zm-14.11 6.83l0.43 1.42 2.91 3.54c0.74,0.92 1.75,1.62 2.99,2.08l2.12 0.39c1.43,0 2.78,-0.53 4.05,-1.56 1.51,-1.23 2.35,-2.71 2.5,-4.3 1.11,-0.08 2.16,-0.53 3.14,-1.31 2.1,-1.74 2.31,-3.66 2.11,-4.99 -0.17,-1.08 -0.63,-2.11 -1.39,-3.03l-2.9 -3.54 -1.32 -0.7 -1.43 0.42 -12.51 10.25 -0.7 1.32z"/>
  <path class="fil0" d="M72.71 351.34l5.08 5.1 1.38 0.56 0.01 0 1.37 -0.56 0.23 -0.24c0.77,-0.76 0.77,-2 0,-2.76l-3.46 -3.47 3.22 -3.21 2.24 2.24 1.37 0.57 1.38 -0.58 0.26 -0.25c0.74,-0.76 0.74,-1.99 -0.02,-2.74l-2.22 -2.25 1.96 -1.95 3.47 3.47 1.38 0.57 1.38 -0.57 0.25 -0.26c0.77,-0.76 0.77,-2 0.01,-2.75l-5.09 -5.09c-0.75,-0.77 -1.99,-0.77 -2.75,0l-11.43 11.4c-0.77,0.76 -0.77,2 -0.01,2.76z"/>
  <path class="fil0" d="M97.83 353.26l1.59 1.29 1.08 1.47c0.11,0.41 0.15,0.97 -0.6,1.87 -0.81,0.97 -1.38,0.98 -1.72,0.97l-1.65 -0.8 -1.58 -1.3 2.88 -3.5zm-11.73 10.61l0.26 0.22c0.84,0.68 2.07,0.57 2.74,-0.26l3.13 -3.79 1.46 1.2 -1.49 6.34c-0.24,1.02 0.37,2.04 1.37,2.32l0.33 0.09 0.52 0.08 0.99 -0.27 0.91 -1.23 1.3 -5.47c2.07,0.28 3.98,-0.57 5.55,-2.47 1.88,-2.28 1.8,-4.39 1.41,-5.76 -0.38,-1.34 -1.21,-2.54 -2.47,-3.57l-3.35 -2.77 -1.42 -0.44 -1.32 0.7 -10.19 12.34c-0.69,0.83 -0.57,2.06 0.26,2.75z"/>
  <path class="fil0" d="M120.61 365.47l-0.82 -1.24 -7.28 -4.91c-0.9,-0.6 -2.11,-0.36 -2.71,0.53l-0.2 0.29 -0.29 1.46 0.81 1.25 1.89 1.26 -7.65 11.36c-0.6,0.88 -0.37,2.11 0.52,2.71l0.3 0.18 1.08 0.34 0.37 -0.03 1.24 -0.83 7.65 -11.34 1.88 1.25c0.89,0.61 2.1,0.37 2.7,-0.52l0.2 -0.29 0.3 -1.48z"/>
  <path class="fil0" d="M120.53 385.5l-0.16 1.48 0.95 1.16 0.31 0.17 0.91 0.23 1.72 -1.02 3.44 -6.38 7.98 -4.06c0.96,-0.49 1.34,-1.64 0.87,-2.61l-0.16 -0.31 -1.13 -0.99 -1.49 0.13 -5.84 2.96 -0.72 -6.51 -0.73 -1.31 -1.45 -0.41 -0.35 0.03c-1.05,0.14 -1.82,1.09 -1.7,2.16l0.98 8.9 -3.44 6.38z"/>
  <path class="fil0" d="M158.61 394.74l1.58 -2.2 0.07 2.71 -1.65 -0.51zm5.69 -8.61c-0.02,-0.85 -0.57,-1.58 -1.37,-1.82l-0.36 -0.11c-0.8,-0.25 -1.67,0.04 -2.15,0.73l-9.65 13.52 -0.33 1.48 0.84 1.27 0.3 0.2c0.88,0.57 2.05,0.36 2.65,-0.49l1.8 -2.52 4.35 1.35 0.08 3.08c0.02,1.05 0.86,1.88 1.9,1.9l0.35 0.01 0.08 0c1.09,0 1.95,-0.87 1.95,-1.94l-0.05 -0.45 -0.38 -16.21z"/>
  <path class="fil0" d="M183.95 389.41l-0.35 -0.07c-1.05,-0.19 -2.06,0.49 -2.28,1.53l-1.51 7.46 -2.96 -9.34 -1.48 -1.33 -0.36 -0.07c-1.08,-0.2 -2.08,0.47 -2.29,1.52l-3.15 15.51 0.28 1.48 1.24 0.81 0.33 0.07c1.08,0.23 2.08,-0.46 2.31,-1.52l1.51 -7.47 2.97 9.34 1.46 1.33 0.37 0.07 0.38 0.04 1.08 -0.32 0.84 -1.24 3.16 -15.52 -0.29 -1.46 -1.25 -0.84z"/>
  <path class="fil0" d="M193.94 394.94l1.83 0.19 1.66 0.9c0.6,0.61 0.83,1.25 0.76,2.06l-0.63 6.11c-0.08,0.81 -0.45,1.4 -1.16,1.86l-1.82 0.57 -1.83 -0.19 1.19 -11.52zm-3.27 -4.03l-0.71 1.31 -1.65 16.07 0.42 1.43 1.32 0.7 4.1 0.43 0.66 0.03c1.35,0 2.68,-0.42 3.95,-1.29 1.77,-1.16 2.8,-2.89 3.03,-4.95l0.62 -6.11c0.22,-2.08 -0.45,-3.96 -1.95,-5.48 -1.25,-1.28 -2.68,-2.01 -4.26,-2.17l-4.11 -0.41 -1.42 0.42z"/>
  <path class="fil0" d="M233.51 399.33c-0.39,0.32 -0.98,0.53 -1.73,0.6l-2.04 0.18 -0.41 -4.51 2.05 -0.19c0.73,-0.06 1.34,0.02 1.79,0.27 0.36,0.22 0.79,0.58 0.89,1.77 0.13,1.34 -0.35,1.73 -0.54,1.89zm1.74 -7.37c-1.22,-0.67 -2.63,-0.93 -4.27,-0.79l-4.33 0.39 -1.32 0.69 -0.44 1.43 1.44 15.92c0.1,1.02 0.95,1.78 1.95,1.78l0.17 -0.01 0.34 -0.03 1.32 -0.69 0.45 -1.42 -0.45 -4.89 2.04 -0.18c1.59,-0.15 2.94,-0.65 4.03,-1.53 1.1,-0.89 2.36,-2.59 2.09,-5.57 -0.26,-2.94 -1.8,-4.38 -3.04,-5.09z"/>
  <path class="fil0" d="M251.44 396.66c-0.36,0.35 -0.91,0.61 -1.65,0.76l-2.02 0.38 -0.85 -4.46 2 -0.39 1.81 0.11c0.38,0.16 0.85,0.5 1.07,1.65 0.22,1.18 -0.09,1.66 -0.37,1.94zm2.92 3.13c1.52,-1.4 2.08,-3.41 1.62,-5.86 -0.55,-2.9 -2.23,-4.19 -3.52,-4.76 -1.27,-0.56 -2.74,-0.68 -4.33,-0.39l-4.27 0.81 -1.25 0.82 -0.3 1.47 2.99 15.7 0.83 1.26 1.1 0.34 0.35 -0.04 0.33 -0.07c1.07,-0.2 1.75,-1.21 1.56,-2.28l-0.92 -4.82 1.85 -0.35 3.91 5.2c0.64,0.83 1.81,1.02 2.67,0.43l0.28 -0.2 0.82 -1.29 -0.37 -1.48 -3.37 -4.48z"/>
  <path class="fil0" d="M270.95 398.77l-1.34 1.08 -0.69 0.11 -1.04 -0.29 -1.1 -1.36 -2 -6.73 0.18 -1.73 1.36 -1.1 0.69 -0.1 1.05 0.29 1.09 1.34 1.99 6.75 -0.19 1.74zm2.27 -9.69c-0.5,-1.68 -1.58,-3.04 -3.14,-3.87 -1.56,-0.85 -3.25,-1.04 -4.96,-0.54 -1.72,0.52 -3.03,1.57 -3.89,3.15 -0.85,1.53 -1.02,3.26 -0.53,4.96l1.99 6.74c0.51,1.69 1.58,3.04 3.13,3.88 0.98,0.53 2.01,0.8 3.07,0.8l1.91 -0.28c1.72,-0.5 3.03,-1.57 3.88,-3.12 0.85,-1.57 1.04,-3.25 0.53,-4.98l-1.99 -6.74z"/>
  <path class="fil0" d="M287.74 386.38c-1.06,-0.09 -1.98,-0.16 -2.75,-0.21l-1.92 -0.14c-1.13,-0.09 -1.45,-0.52 -1.62,-0.96l-0.04 -1 0.97 -0.87c0.24,-0.09 1.09,-0.34 3.57,-0.49 0.89,-0.04 1.62,-0.68 1.81,-1.55l0.06 -0.33 -0.31 -1.52 -1.31 -0.8c-1.73,-0.24 -3.56,0 -5.41,0.76 -1.69,0.69 -2.87,1.89 -3.41,3.48 -0.43,1.33 -0.38,2.65 0.14,3.93 0.65,1.62 1.88,2.76 3.53,3.29l0.24 0.07 1.18 0.19 1.1 0.11 2.96 0.23 1.17 0.14 0.62 0.17 0.66 0.7 0 0.99 -0.77 0.78c-0.06,0.03 -0.65,0.24 -3,0.24l-1.66 -0.03c-0.88,0.06 -1.71,0.58 -1.95,1.46l-0.08 0.33 0.22 1.49 1.21 0.89c0.83,0.21 1.72,0.3 2.63,0.3l0.82 -0.02c1.23,-0.06 2.38,-0.32 3.41,-0.73 1.56,-0.66 2.68,-1.81 3.2,-3.37 0.46,-1.34 0.43,-2.68 -0.09,-3.94 -0.57,-1.43 -1.95,-3.22 -5.17,-3.56z"/>
  <path class="fil0" d="M302.4 378.36l-1.37 1.22 -1.81 0.95 -2.11 -4.02 1.81 -0.95 1.76 -0.43c0.42,0.05 0.96,0.24 1.5,1.29 0.56,1.05 0.41,1.6 0.22,1.94zm-1.21 -7.45c-1.36,-0.16 -2.81,0.14 -4.24,0.89l-3.85 2.02c-0.96,0.5 -1.33,1.68 -0.83,2.63l7.45 14.16 1.72 1.04 0.91 -0.22 0.31 -0.16 0.96 -1.15 -0.14 -1.49 -2.28 -4.33 1.82 -0.96c1.42,-0.74 2.48,-1.73 3.15,-2.96 0.67,-1.24 1.18,-3.3 -0.21,-5.94 -1.38,-2.62 -3.35,-3.37 -4.76,-3.53z"/>
  <path class="fil0" d="M326.35 374.78c-0.59,-0.89 -1.8,-1.14 -2.7,-0.55l-4.1 2.7 -2.49 -3.81 2.63 -1.73 0.85 -1.24 -0.29 -1.46 -0.2 -0.3c-0.59,-0.89 -1.8,-1.13 -2.69,-0.54l-2.63 1.73 -1.53 -2.32 4.1 -2.69c0.9,-0.59 1.16,-1.81 0.56,-2.7l-0.18 -0.3 -1.24 -0.86 -1.47 0.3 -6.01 3.95c-0.9,0.59 -1.16,1.8 -0.57,2.69l8.87 13.51 1.24 0.84 0.39 0.04 1.08 -0.33 6.01 -3.94 0.84 -1.25 -0.28 -1.46 -0.19 -0.28z"/>
  <path class="fil0" d="M332.46 358.27l-1.1 1.44 -1.6 1.29 -2.85 -3.53 1.59 -1.28 1.65 -0.77 0.14 0c0.34,0 0.88,0.09 1.57,0.96 0.76,0.94 0.72,1.5 0.6,1.89zm9.14 3.75l-5.09 -2.37c0.69,-1.96 0.25,-3.99 -1.32,-5.95 -1.91,-2.36 -3.95,-2.63 -5.35,-2.53 -1.39,0.12 -2.74,0.68 -4.01,1.69l-3.37 2.73c-0.84,0.68 -0.98,1.91 -0.3,2.74l10.05 12.46 1.53 0.73 1.21 -0.43 0.26 -0.22 0.73 -1.31 -0.43 -1.44 -3.07 -3.81 1.46 -1.18 5.91 2.73c0.96,0.44 2.07,0.06 2.56,-0.88l0.15 -0.31 0.11 -1.51 -1.02 -1.14z"/>
  <path class="fil0" d="M341.91 341.28l-1.38 -0.58 -1.39 0.55 -0.25 0.26c-0.77,0.74 -0.78,1.98 -0.02,2.75l11.09 11.3 1.39 0.59 1.35 -0.55 0.26 -0.26 0.6 -1.37 -0.56 -1.39 -11.08 -11.31z"/>
  <path class="fil0" d="M355.31 329.64l1.45 -1.74c0.69,-0.82 0.59,-2.05 -0.24,-2.75l-0.26 -0.22 -1.42 -0.45 -1.34 0.69 -5.65 6.73c-0.69,0.82 -0.58,2.06 0.23,2.75l0.28 0.22 1.42 0.45 1.32 -0.69 1.47 -1.74 10.49 8.8 1.25 0.46 1.48 -0.71 0.23 -0.26 0.45 -1.42 -0.69 -1.33 -10.48 -8.8z"/>
  <path class="fil0" d="M357.84 320.35l0.01 0.35c0.01,1.05 0.88,1.92 1.95,1.92l0.01 0 8.96 -0.04 5.97 4.1 1.11 0.34 0.36 -0.03 1.25 -0.82 0.21 -0.3c0.6,-0.89 0.37,-2.1 -0.51,-2.71l-5.98 -4.09 -3.19 -8.37c-0.38,-1.01 -1.52,-1.52 -2.51,-1.13l-0.33 0.13 -1.08 1.02 -0.05 1.49 2.35 6.12 -6.56 0.02 -1.37 0.57 -0.57 1.41z"/>
  <path class="fil0" d="M108.9 66.59l-1.31 -0.72 -1.43 0.4 -0.41 0.32c-0.85,0.67 -0.98,1.9 -0.32,2.74l9.06 11.46 -16.42 -6.85 -1.95 0.27 -0.42 0.34 -0.73 1.31 0.41 1.42 14.33 18.15 1.53 0.73 1.2 -0.41 0.4 -0.32 0.73 -1.3 -0.4 -1.44 -9.05 -11.45 16.42 6.83 1.95 -0.27 0.43 -0.34 0.73 -1.3 -0.41 -1.45 -14.33 -18.13z"/>
  <path class="fil0" d="M144.04 74.2l-0.18 -1.48 -0.24 -0.43c-0.53,-0.93 -1.72,-1.26 -2.65,-0.73l-7.03 3.92 -4.11 -7.34 4.82 -2.69 0.92 -1.17 -0.17 -1.48 -0.26 -0.46c-0.53,-0.94 -1.72,-1.26 -2.65,-0.74l-4.81 2.69 -2.84 -5.1 7.03 -3.94c0.94,-0.53 1.27,-1.71 0.76,-2.65l-0.26 -0.45 -1.17 -0.93 -1.49 0.16 -9.17 5.14 -0.93 1.16 0.18 1.5 11.51 20.59 1.7 1 0.95 -0.24 9.18 -5.13 0.93 -1.17z"/>
  <path class="fil0" d="M153.97 68.27l1.64 0.91 0.67 -0.12 0.5 -0.18c0.8,-0.29 1.32,-1.05 1.29,-1.9l-0.3 -9.63 5.96 7.57c0.52,0.66 1.41,0.93 2.2,0.63l0.5 -0.18c0.86,-0.32 1.38,-1.19 1.27,-2.09l-3.07 -23.42c-0.14,-1.06 -1.12,-1.82 -2.19,-1.67l-0.5 0.06c-1.07,0.14 -1.83,1.12 -1.68,2.19l2.01 15.49 -5.65 -7.2c-0.52,-0.66 -1.41,-0.92 -2.2,-0.62 -0.8,0.29 -1.32,1.05 -1.29,1.89l0.28 9.18 -8.41 -13.2c-0.58,-0.9 -1.78,-1.16 -2.69,-0.6l-0.43 0.28 -0.86 1.24 0.26 1.46 12.69 19.91z"/>
  <path class="fil0" d="M209.05 53.79l-2.56 0.06 -1.36 0.61 -0.54 1.41 0.02 0.48c0.03,1.06 0.9,1.89 1.95,1.89l0.06 0 2.56 -0.07c2.02,-0.05 3.75,-0.81 5.15,-2.27 1.37,-1.46 2.04,-3.24 1.99,-5.27l-0.5 -17.96 -0.62 -1.37 -1.39 -0.52 -0.52 0.01c-1.08,0.03 -1.92,0.93 -1.9,2.01l0.51 17.96c0.03,0.83 -0.23,1.51 -0.81,2.12 -0.56,0.58 -1.2,0.88 -2.04,0.91z"/>
  <path class="fil0" d="M230.14 58.69l10.43 1.37 0.25 0.02c0.95,0 1.8,-0.72 1.93,-1.69l0.07 -0.49 -0.39 -1.45 -1.29 -0.74 -7.99 -1.05 1.09 -8.35 5.45 0.7c1.06,0.15 2.04,-0.6 2.19,-1.67l0.06 -0.51 -0.37 -1.45 -1.29 -0.75 -5.47 -0.71 0.76 -5.8 7.99 1.04 1.44 -0.39 0.74 -1.3 0.06 -0.5c0.14,-1.06 -0.62,-2.04 -1.68,-2.18l-10.43 -1.37 -1.44 0.4 -0.75 1.29 -3.06 23.39c-0.14,1.08 0.62,2.06 1.68,2.19z"/>
  <path class="fil0" d="M262.49 41.28l3.74 1.11c1.22,0.38 2.13,0.93 2.71,1.66 0.48,0.59 1.04,1.61 0.42,3.68 -0.62,2.1 -1.65,2.64 -2.35,2.86l-1.25 0.18 -1.95 -0.3 -3.73 -1.12 2.41 -8.06zm-8.9 21.19l0.47 0.14 1.49 -0.14 0.95 -1.17 2.31 -7.72 3.73 1.12 0.3 0.09 1.68 9.92c0.16,0.95 0.98,1.63 1.93,1.63l0.26 -0.02 0.5 -0.07 1.3 -0.77 0.35 -1.48 -1.5 -8.92c2.39,-0.41 4.98,-1.88 6.23,-6.08 1.12,-3.75 -0.05,-6.26 -1.21,-7.71 -1.16,-1.45 -2.81,-2.49 -4.89,-3.11l-6.08 -1.82 -1.49 0.16 -0.93 1.16 -6.69 22.37c-0.31,1.04 0.29,2.12 1.31,2.44z"/>
  <path class="fil0" d="M280.55 71.47c1.24,1.2 2.54,2.13 3.87,2.79 1.06,0.52 2.14,0.78 3.23,0.78 0.95,0 1.9,-0.21 2.83,-0.6 1.7,-0.75 2.95,-1.92 3.71,-3.52 0.89,-1.82 1.4,-4.69 -1.09,-8.15 -0.93,-1.22 -1.76,-2.28 -2.47,-3.19l-1.75 -2.23c-1.29,-1.69 -1.01,-2.83 -0.63,-3.63l1.5 -1.44c0.8,-0.36 1.64,-0.29 2.65,0.22 0.48,0.22 1.68,1 4.26,3.55 0.63,0.62 1.6,0.74 2.36,0.3l0.45 -0.26 0.9 -1.25 -0.29 -1.52c-1.33,-2 -3.28,-3.61 -5.75,-4.81 -2.17,-1.05 -4.38,-1.13 -6.36,-0.25 -1.66,0.72 -2.88,1.93 -3.69,3.54 -0.99,2.07 -1.04,4.24 -0.1,6.29l0.11 0.22 0.94 1.44 0.93 1.27 2.63 3.41 1.05 1.51 0.5 1 -0.15 2.08 -1.5 1.4c-0.81,0.34 -1.53,0.31 -2.38,-0.1 -0.29,-0.14 -1.56,-0.95 -5.05,-5.08 -0.6,-0.68 -1.6,-0.88 -2.4,-0.45l-0.45 0.22 -0.94 1.17 0.14 1.48c0.71,1.33 1.7,2.59 2.93,3.81z"/>
  <path class="fil0" d="M300.44 83.3l8.61 6.04 1.12 0.37 0.34 -0.04 1.26 -0.8 0.28 -0.4c0.61,-0.89 0.4,-2.09 -0.49,-2.71l-6.59 -4.63 4.84 -6.91 4.51 3.17c0.87,0.62 2.1,0.4 2.71,-0.48l0.29 -0.42 0.33 -1.45 -0.81 -1.26 -4.5 -3.16 3.35 -4.78 6.6 4.63c0.88,0.62 2.1,0.4 2.71,-0.48l0.3 -0.42 0.33 -1.47 -0.81 -1.24 -8.61 -6.04c-0.88,-0.62 -2.09,-0.41 -2.72,0.47l-13.54 19.31c-0.62,0.89 -0.41,2.1 0.47,2.72z"/>
  <path class="fil0" d="M324.09 101.99l0.37 0.35 1.36 0.55 0.03 0 1.37 -0.58 7.56 -7.8 13.11 -2.57c1.05,-0.21 1.74,-1.24 1.53,-2.29l-0.1 -0.5 -0.83 -1.26 -1.46 -0.29 -10.64 2.11 1.78 -10.72 -0.34 -1.45 -1.27 -0.79 -0.51 -0.09c-1.06,-0.16 -2.05,0.55 -2.23,1.6l-2.2 13.18 -7.56 7.79c-0.75,0.77 -0.74,2 0.03,2.76z"/>
  <path class="fil0" d="M225.69 367.79l0.03 0.24c0.22,1.21 0.34,2.53 0.54,3.85 -2.63,0.62 -5.27,1.21 -7.92,1.77 -0.21,-1.28 -0.49,-2.57 -0.75,-3.85 2.71,-0.62 5.41,-1.29 8.1,-2.01zm-24.64 5.04c0.54,4.1 0.96,8.19 1.12,12.34 0.11,2.85 4.37,2.73 4.42,-0.12 0.08,-4.1 -0.53,-8.24 -1.11,-12.31 2.44,-0.65 4.9,-1.26 7.36,-1.83l0.1 0.77c0.15,1.04 0.26,2.09 0.35,3.13 -1.87,0.62 -1.32,3.18 0.37,3.74 0.1,0.89 0.22,1.77 0.38,2.64 0.33,1.75 3.23,2.06 3.9,0.42 0.5,-1.22 0.7,-2.49 0.74,-3.79 2.86,-0.56 5.72,-1.16 8.56,-1.81l0.54 1.21c0.88,1.6 3.94,1.36 4.16,-0.65l0.03 -1.66c2.41,-0.58 4.82,-1.17 7.22,-1.78 0.31,0.94 0.73,1.83 1.34,2.56 1.09,1.32 3.37,0.44 3.71,-1.07 0.21,-0.89 0.18,-1.85 0.03,-2.79 2.29,-0.61 4.58,-1.22 6.85,-1.84 0.42,1.42 0.93,2.8 1.8,3.7 1,1.05 2.7,0.63 3.39,-0.52 0.73,-1.19 0.38,-2.91 -0.13,-4.56 2.92,-0.81 5.86,-1.62 8.78,-2.43 0.62,2.17 1.78,4.91 4.38,4.13 1.7,-0.52 1.89,-2.45 0.88,-3.67 0.9,1.08 -0.01,-0.9 -0.18,-1.46l-0.1 -0.38c3.28,-0.9 6.57,-1.78 9.85,-2.65l0.16 0.93c0.45,3.05 5.3,2.94 4.83,-0.11l-0.33 -2.04c2.71,-0.7 5.42,-1.36 8.14,-2.03l0.1 0.29 0.43 0.89c0.22,1.31 2.08,2.13 3.39,1.53 1.47,-0.67 1.48,-2.35 1.12,-4 1.85,-0.83 0.92,-3.75 -1.16,-3.66 -1.32,-3.73 -2.99,-7.32 -4.25,-11.05 -0.87,-2.62 -4.77,-1.44 -4.1,1.24 0.76,2.97 1.56,5.94 2.52,8.86l0.69 2.03c-2.59,0.6 -5.17,1.17 -7.74,1.8 -0.73,-2.99 -1.75,-5.89 -3.3,-8.59 -1.2,-2.06 -4.74,-0.54 -3.85,1.74 1.01,2.62 1.84,5.3 2.5,8.02 -3.36,0.84 -6.72,1.72 -10.06,2.62 -0.79,-3.19 -1.69,-6.37 -3.35,-9.24 -1.55,-2.67 -5.34,-0.21 -4.02,2.48 1.22,2.47 1.86,5.31 2.46,8.08 -3.04,0.82 -6.08,1.66 -9.12,2.49 -0.77,-2.65 -1.66,-5.69 -3.19,-7.73 -1.12,-1.52 -4.16,-1.12 -3.91,1.17 0.27,2.62 1.29,5.35 2.14,7.91 -2.18,0.6 -4.36,1.19 -6.54,1.77l-0.06 -0.22c-0.68,-3.6 -1.17,-7.24 -1.58,-10.87 -0.33,-2.92 -4.26,-2.79 -4.5,0.1 -0.28,3.49 0.3,7 0.85,10.44l0.26 1.86c-2.32,0.61 -4.66,1.2 -6.99,1.78 -0.23,-1.04 -0.48,-2.07 -0.68,-3.06l-0.36 -1.86 -0.42 -2.07c-0.47,-2.36 -0.93,-4.74 -1.43,-7.09 -0.5,-2.29 -4.14,-1.63 -4.02,0.65 0.1,2.14 0.34,4.33 0.64,6.48 -2.71,0.67 -5.42,1.32 -8.15,1.96l-0.1 -2.04c0.04,-2.29 -3.59,-2.7 -4.01,-0.45 -0.22,1.2 -0.3,2.37 -0.29,3.53 -3.59,0.86 -7.15,1.76 -10.67,2.84 -1.65,0.5 -1.68,2.31 -0.8,3.29z"/>
  <path class="fil0" d="M321.38 337.59c0.32,0.97 0.62,1.94 0.92,2.88 -2.94,0.9 -5.88,1.74 -8.84,2.55 -0.2,-0.93 -0.34,-1.86 -0.46,-2.82 -0.3,-2.6 -3.87,-2.5 -4.05,0.11 -0.1,1.3 -0.02,2.59 0.17,3.86l-2.01 0.53c-2.38,0.62 -1.72,4.27 0.68,4.21 0.8,-0.02 1.6,-0.09 2.4,-0.18 0.35,1.09 0.75,2.19 1.17,3.25 1.08,2.76 5.53,1.45 4.43,-1.34 -0.37,-0.93 -0.71,-1.87 -1.03,-2.82 2.95,-0.78 5.84,-1.88 8.6,-3.05l0.29 2.04c0.29,2.93 4.41,2.83 4.54,-0.1 0.17,-3.59 -1.17,-7.78 -3.15,-10.75 -1.24,-1.9 -4.41,-0.6 -3.66,1.64z"/>
  <path class="fil0" d="M181.55 368.91c-0.21,4.59 -0.38,9.07 0.41,13.64 0.45,2.63 4.87,1.89 4.62,-0.74 -0.41,-4.33 -0.8,-8.66 -0.99,-13 -0.11,-2.62 -3.93,-2.48 -4.04,0.11z"/>
  <path class="fil0" d="M152.37 377.9c0.38,2 3.57,1.81 3.94,-0.09 0.14,-0.71 0.17,-1.43 0.18,-2.16 2.78,0.21 5.57,0.38 8.36,0.54 0.02,1.07 0.05,2.12 0.1,3.12 0.18,3.09 4.59,2.92 4.76,-0.11 0.05,-0.91 0.08,-1.88 0.09,-2.83 3.11,0.09 6.2,0.11 9.29,-0.06 2.95,-0.14 2.76,-4.34 -0.11,-4.52 -3.13,-0.2 -6.28,-0.36 -9.43,-0.49l-0.26 -1.74c-0.4,-1.99 -3.54,-1.81 -3.92,0.1l-0.22 1.52c-2.95,-0.06 -5.9,-0.03 -8.85,0.1 -0.26,-2.43 -3.83,-2.26 -3.94,0.24l-0.02 0.41c-0.74,0.7 -0.77,1.91 -0.14,2.72 -0.03,1.1 0,2.2 0.2,3.26z"/>
  <path class="fil0" d="M321.46 318.85c-0.66,-3.07 -1.46,-6.08 -1.89,-9.18 -0.37,-2.72 -3.91,-2.58 -4.2,0.1 -0.41,3.77 0.33,7.52 2.21,10.83 1.28,2.22 4.39,0.52 3.88,-1.75z"/>
  <path class="fil0" d="M330.62 315.51c0.25,-2.79 0.06,-5.66 -0.08,-8.45 -0.14,-2.63 -3.91,-2.48 -4.06,0.1 -0.14,2.8 -0.33,5.68 -0.07,8.46 0.25,2.76 3.97,2.57 4.21,-0.1z"/>
  <path class="fil0" d="M333.15 311.94c-0.98,2.07 -1.44,4.6 -0.81,6.84 0.56,2.1 3.56,1.88 4.1,-0.1 0.25,-0.89 0.23,-1.79 0.29,-2.68 0.04,-0.86 0.22,-1.68 0.37,-2.52 0.17,-0.96 -0.17,-1.9 -1.05,-2.39 -0.96,-0.53 -2.4,-0.22 -2.9,0.85z"/>
  <path class="fil0" d="M339.49 312.37c-0.1,1.72 -0.23,3.47 -0.04,5.19 0.1,0.93 0.62,1.72 1.57,1.96 0.98,0.24 2.39,-0.39 2.5,-1.5 0.22,-1.94 0.14,-3.82 0.03,-5.76 -0.15,-2.63 -3.91,-2.48 -4.06,0.11z"/>
  <path class="fil0" d="M350.05 310.21c0.92,-4.02 1.11,-8.14 1.35,-12.25 0.14,-2.41 -3.54,-2.68 -4.11,-0.45 -1.01,4 -1.01,8.16 -1.36,12.26 -0.2,2.38 3.6,2.7 4.12,0.45z"/>
  <path class="fil0" d="M315.68 327.2c-0.18,-3.5 -1.45,-6.98 -2.96,-10.12 -0.91,-1.87 -3.93,-0.82 -3.82,1.14 0.21,3.26 1.46,6.6 2.64,9.64 0.83,2.14 4.26,1.84 4.14,-0.66z"/>
  <path class="fil0" d="M305.14 323.42c-0.97,-2.39 -4.7,-1.37 -3.94,1.19 0.8,2.65 2.38,5.09 4.87,6.42 2.04,1.09 4.22,-1.72 2.43,-3.3 -1.38,-1.23 -2.67,-2.57 -3.36,-4.31z"/>
  <path class="fil0" d="M333.52 327.48l-0.35 -1.56c-0.14,-2.68 -3.97,-2.52 -4.1,0.1 -0.07,1.39 0.09,3.11 1.28,4.04 1.82,1.42 4.37,-0.45 3.18,-2.58z"/>
  <path class="fil0" d="M341.63 327.86l-0.02 -1.29c-0.1,-2.65 -3.98,-2.51 -4.09,0.1l-0.02 1.31c0.15,2.68 3.99,2.51 4.13,-0.11z"/>
  <path class="fil0" d="M355.08 301.96c-0.18,2.55 -0.49,5.17 0,7.71 0.41,2.08 3.71,1.88 4.11,-0.1 0.48,-2.51 0.15,-5.17 -0.04,-7.7 -0.18,-2.66 -3.87,-2.48 -4.07,0.1z"/>
  <path class="fil0" d="M297.2 330.03c-1.41,-2.79 -1.77,-5.57 -2.38,-8.59 -0.41,-2.06 -3.77,-1.92 -4.14,0.11 -0.67,3.94 0.41,8.25 3.19,11.16 1.8,1.89 4.38,-0.62 3.32,-2.68z"/>
  <path class="fil0" d="M287.63 330.55c-0.6,-3.06 -1.69,-6.11 -1.29,-9.29 0.32,-2.58 -3.46,-3.68 -4.04,-1 -0.87,3.99 -0.6,8.43 1.53,12.02 1.29,2.18 4.25,0.51 3.8,-1.72z"/>
  <path class="fil0" d="M275.71 328.68c-1.17,3.26 0.48,8.31 4.18,9.14 1.85,0.42 3.4,-1.6 2.38,-3.26 -0.52,-0.86 -1.28,-1.51 -1.77,-2.39 -0.53,-0.93 -0.59,-1.99 -0.5,-3.03 0.07,-0.95 -0.78,-1.84 -1.65,-2.06 -1.24,-0.3 -2.24,0.48 -2.63,1.59z"/>
  <path class="fil0" d="M267.62 333.54c1.13,1.96 1.28,3.87 1.65,6.04 0.35,2.05 3.83,1.93 4.11,-0.1 0.41,-2.91 -0.59,-5.77 -2.28,-8.11 -1.53,-2.11 -4.82,-0.17 -3.49,2.16z"/>
  <path class="fil0" d="M261.64 340.31c-1.2,-4.24 -0.93,-8.14 -1.27,-12.45 -0.22,-2.69 -3.85,-2.47 -4.1,0.11 -0.45,4.76 -0.69,9.69 1.56,14.06 1.11,2.19 4.46,0.52 3.82,-1.72z"/>
  <path class="fil0" d="M251.91 335.67c-0.28,-2.63 -3.9,-2.51 -4.07,0.09 -0.2,2.92 0.53,6.44 2.2,8.86 1.32,1.92 4.49,0.63 3.78,-1.71 -0.34,-1.15 -0.78,-2.28 -1.24,-3.37 -0.5,-1.21 -0.56,-2.59 -0.68,-3.87z"/>
  <path class="fil0" d="M241.36 339.01c-0.1,2.21 -0.36,4.93 0.89,6.9 1.09,1.72 3.93,0.94 3.84,-1.16 -0.03,-0.99 -0.35,-1.93 -0.5,-2.91 -0.14,-0.98 -0.18,-1.96 -0.22,-2.93 -0.11,-2.61 -3.92,-2.48 -4.02,0.1z"/>
  <path class="fil0" d="M234.36 339.56l-0.02 -1.96c-0.08,-2.62 -3.96,-2.48 -4.04,0.1l-0.02 1.96c0.06,2.64 4.01,2.51 4.08,-0.1z"/>
  <path class="fil0" d="M298.73 317.35c1.4,2.2 4.33,0.55 3.91,-1.77 -0.66,-3.58 -2.15,-7.82 -4.19,-10.85 -1.31,-1.95 -4.5,-0.62 -3.78,1.7 1.12,3.59 2.02,7.72 4.06,10.92z"/>
  <path class="fil0" d="M307.02 313.65c1.16,-0.36 1.58,-1.48 1.37,-2.58 -0.34,-1.77 -1.12,-3.51 -1.24,-5.3 -0.19,-2.62 -4,-2.52 -4.07,0.09 -0.07,2.47 0.5,4.69 1.57,6.89 0.4,0.81 1.53,1.14 2.36,0.9z"/>
  <path class="fil0" d="M309.42 306.24l0.22 2.12c0.42,2.03 3.6,1.84 4,-0.09 0.36,-1.81 0.07,-3.86 -1.25,-5.23 -1.6,-1.63 -4.53,0.68 -3.14,2.54l0.18 0.66z"/>
  <path class="fil0" d="M322.17 303.24c0.99,0.24 2.33,-0.38 2.48,-1.48 0.19,-1.48 0.14,-2.96 0.07,-4.45 -0.14,-2.67 -3.95,-2.51 -4.1,0.1 -0.07,1.29 -0.16,2.63 0.01,3.9 0.13,0.92 0.59,1.69 1.54,1.93z"/>
  <path class="fil0" d="M334.6 298.61c0.06,-1.01 -0.21,-2.08 -0.31,-3.09 -0.14,-1.35 -0.14,-2.71 -0.15,-4.07 -0.03,-3.07 -4.71,-2.93 -4.74,0.12 -0.03,2.5 -0.46,6.14 1.17,8.24 1.34,1.75 3.88,1.04 4.03,-1.2z"/>
  <path class="fil0" d="M342.53 302.48c0.5,-3.63 0.62,-7.36 1.01,-11.02 0.25,-2.36 -3.4,-2.54 -3.99,-0.45 -1,3.43 -2.11,7.36 -1.72,10.96 0.27,2.48 4.32,3.35 4.7,0.51z"/>
  <path class="fil0" d="M356.26 292.38l-0.1 -0.13 -0.14 -0.38 -0.07 -1.05c-0.02,-2.71 -4.17,-2.59 -4.19,0.1 0,1.47 0.21,2.99 1.33,4.04 1.68,1.57 4.5,-0.6 3.17,-2.57z"/>
  <path class="fil0" d="M364.37 294.63c0.39,-2.09 0.08,-4.3 -0.02,-6.42 -0.15,-2.63 -3.93,-2.48 -4.06,0.11 -0.13,2.12 -0.41,4.31 0,6.41 0.4,2.05 3.69,1.87 4.07,-0.1z"/>
  <path class="fil0" d="M374.62 286.71c1.61,-3.27 1.13,-7.31 1.02,-10.86 -0.12,-2.95 -4.43,-2.79 -4.54,0.11 -0.11,3.18 -0.84,6.58 -0.54,9.75 0.18,2.01 3.04,3.05 4.07,1z"/>
  <path class="fil0" d="M383.91 286.83c0.3,-0.93 0.42,-1.91 0.65,-2.86 0.23,-1 0.57,-1.97 0.89,-2.93 0.41,-1.23 -0.55,-2.6 -1.75,-2.9 -1.34,-0.33 -2.47,0.5 -2.9,1.74 -0.74,2.23 -1.7,4.7 -1.04,7.06 0.6,2.18 3.53,1.82 4.15,-0.11z"/>
  <path class="fil0" d="M388.46 290.96c1.07,0.26 2.33,-0.41 2.55,-1.54 0.3,-1.53 0.44,-3.28 1.06,-4.71 0.45,-1.03 0.24,-2.23 -0.81,-2.8 -0.97,-0.53 -2.28,-0.19 -2.81,0.81 -1.04,1.96 -1.94,3.97 -1.6,6.25 0.14,0.94 0.6,1.75 1.6,2z"/>
  <path class="fil0" d="M403.44 288.92c-0.47,-2.29 -1.02,-4.44 -1.13,-6.79 -0.11,-2.32 -0.01,-4.6 -0.22,-6.91 -0.26,-2.74 -3.88,-2.51 -4.16,0.1 -0.53,4.97 -1.21,10.94 1.49,15.42 1.37,2.27 4.5,0.55 4.01,-1.81z"/>
  <path class="fil0" d="M393.1 273.26c0.13,-1.3 -0.06,-2.62 0.02,-3.92 0.07,-1.53 0.34,-3.08 0.54,-4.61 0.33,-2.69 -3.4,-3.77 -4.18,-1.04 -0.97,3.45 -2.06,7.37 -0.41,10.77 1.05,2.2 3.83,0.66 4.03,-1.2z"/>
  <path class="fil0" d="M406.68 269.37c-0.21,-2.13 -0.36,-4.31 -0.76,-6.41 -0.41,-2.04 -3.64,-1.85 -4.03,0.09 -0.49,2.52 -0.38,5.19 0.88,7.47 0.99,1.82 4.13,0.94 3.91,-1.15z"/>
  <path class="fil0" d="M416.47 265.51c-0.33,-1.15 -0.61,-2.11 -0.68,-3.31 -0.17,-2.76 -4.09,-2.6 -4.25,0.1 -0.1,1.72 -0.12,3.54 0.86,5.03 1.4,2.12 4.78,0.65 4.07,-1.83z"/>
  <path class="fil0" d="M227.35 349.31c-0.2,-1.67 -0.69,-3.24 -1.08,-4.86 -0.45,-1.79 -0.58,-3.66 -1,-5.45 -0.48,-2.07 -3.7,-1.94 -4.11,0.09 -0.74,3.6 0.02,8.39 2.17,11.41 1.13,1.61 4.3,1.13 4.02,-1.19z"/>
  <path class="fil0" d="M214.24 355.69c1.12,1.76 4.14,1.01 3.99,-1.18 -0.18,-2.57 -1.54,-5.45 -3.02,-7.51 -1.52,-2.12 -4.78,-0.17 -3.48,2.14 1.14,2.03 1.27,4.61 2.51,6.55z"/>
  <path class="fil0" d="M206.27 352.66c-0.22,2.01 -0.69,4.47 -0.05,6.41 0.69,2.1 3.47,1.89 4.13,-0.09 0.64,-1.93 0.14,-4.46 -0.06,-6.41 -0.27,-2.64 -3.76,-2.46 -4.02,0.09z"/>
  <path class="fil0" d="M197.07 360.39c0.52,2.17 3.75,1.95 4.23,-0.09 0.48,-1.98 0.29,-3.98 0.18,-6 -0.14,-2.31 -0.3,-4.62 -0.96,-6.85 -0.68,-2.26 -4.1,-1.69 -4.07,0.65 0.03,2.11 0.24,4.21 0.3,6.31 0.04,2.03 -0.14,3.97 0.33,5.97z"/>
  <path class="fil0" d="M192.13 363.52c0.56,-1.85 0.17,-3.95 0.58,-5.86 0.49,-2.18 -2.87,-3.71 -3.78,-1.49 -0.9,2.19 -1.59,5.09 -0.89,7.45 0.63,2.08 3.5,1.87 4.09,-0.1z"/>
  <path class="fil0" d="M182.74 363.53c2.43,-1.91 3.28,-5.4 2.16,-8.26 -0.97,-2.52 -4.5,-1.41 -3.97,1.2 0.34,1.71 -1,3.17 -1.39,4.73 -0.42,1.68 1.65,3.56 3.19,2.34z"/>
  <path class="fil0" d="M174.99 362.71c1.92,-3.43 2.27,-7.56 1.6,-11.39 -0.5,-2.82 -4.71,-1.49 -4.25,1.29 0.52,3.04 -0.52,5.7 -1.19,8.6 -0.51,2.29 2.67,3.57 3.83,1.51z"/>
  <path class="fil0" d="M166.26 362.52c1.39,-1.86 1.9,-4.42 1.81,-6.72 -0.06,-1.12 -0.98,-2.03 -2.11,-2.01 -1.21,0.04 -1.89,0.99 -1.99,2.12 -0.17,1.8 -1.36,3.36 -1.38,5.19 -0.01,1.73 2.52,2.91 3.66,1.41z"/>
  <path class="fil0" d="M158.6 360.35c0.22,-4.32 0.73,-8.67 0.38,-12.99 -0.22,-2.68 -3.83,-2.47 -4.1,0.11 -0.44,4.3 -1.06,8.68 -0.93,13.01 0.1,3.02 4.51,2.85 4.65,-0.13z"/>
  <path class="fil0" d="M150.35 364.69c1.48,-3.13 1.53,-6.75 0.93,-10.14 -0.39,-2.2 -3.97,-2 -4.34,0.12 -0.53,2.94 -0.57,6.05 -0.62,9.04 -0.02,2.08 3.12,2.93 4.02,0.98z"/>
  <path class="fil0" d="M141.47 363.61c-0.02,-1.08 -0.37,-2.16 -0.46,-3.26 -0.09,-1.06 -0.09,-2.15 -0.09,-3.24 -0.02,-2.84 -4.38,-2.72 -4.39,0.11 0,2.32 -0.26,5.51 1.06,7.54 1.12,1.76 3.93,0.97 3.88,-1.15z"/>
  <path class="fil0" d="M132.37 361.59c0.54,-3.78 0.2,-7.83 0,-11.63 -0.14,-2.72 -4.06,-2.58 -4.21,0.11 -0.18,3.59 -0.57,7.48 -0.05,11.05 0.31,2.21 3.88,3.1 4.26,0.47z"/>
  <path class="fil0" d="M115.78 352.67c0.33,2.54 1.23,5.79 3.7,7.04 1.51,0.77 3.95,-0.67 3.12,-2.53 -0.44,-0.99 -1,-1.88 -1.48,-2.84 -0.46,-0.96 -0.85,-1.94 -1.37,-2.86 -1.01,-1.77 -4.25,-0.97 -3.97,1.19z"/>
  <path class="fil0" d="M185.49 348.47c1.37,-2.04 1.22,-4.57 0.85,-6.9 -0.35,-2.16 -3.92,-1.97 -4.26,0.11 -0.31,1.87 -0.66,3.89 -0.69,5.78 -0.05,2.35 2.96,2.67 4.1,1z"/>
  <path class="fil0" d="M192.74 345.97c0.43,-1.94 0.16,-3.82 0.02,-5.76 -0.19,-2.66 -3.88,-2.49 -4.07,0.11 -0.14,1.96 -0.38,3.78 0.04,5.75 0.44,2.05 3.6,1.86 4.02,-0.09z"/>
  <path class="fil0" d="M204.52 341c1,0.24 2.39,-0.4 2.54,-1.52 0.34,-2.78 0.13,-5.58 0.02,-8.37 -0.1,-2.67 -4,-2.52 -4.11,0.1 -0.11,2.59 -0.36,5.23 -0.04,7.82 0.12,0.93 0.61,1.73 1.59,1.98z"/>
  <path class="fil0" d="M213.57 339.86c1.09,0.27 2.59,-0.43 2.75,-1.65 0.34,-2.77 0.13,-5.64 -0.13,-8.41 -0.24,-2.71 -3.9,-2.51 -4.14,0.11 -0.22,2.54 -0.51,5.25 -0.19,7.79 0.13,1.01 0.66,1.88 1.72,2.15z"/>
  <path class="fil0" d="M236.95 325.73c0.38,1.08 0.77,2.36 1.63,3.15 1.17,1.07 3.39,0.64 3.7,-1.07 0.4,-2.25 -1.1,-4.41 -2.32,-6.2 -1.31,-1.92 -4.62,-0.62 -3.82,1.72 0.28,0.81 0.54,1.61 0.81,2.41z"/>
  <path class="fil0" d="M246.78 320.9c0.62,1.83 0.81,3.93 1.85,5.57 0.96,1.5 3.73,1.35 4.02,-0.63 0.3,-1.96 -0.36,-3.83 -0.96,-5.72 -0.62,-2 -1.46,-3.94 -2.56,-5.71 -1.29,-2.07 -4.82,-0.61 -3.96,1.79 0.55,1.56 1.09,3.14 1.6,4.7z"/>
  <path class="fil0" d="M257.51 319.52c-0.14,2.18 3,2.72 3.97,0.96 1.37,-2.44 0.54,-5.64 -0.77,-7.94 -1.12,-1.99 -4.52,-0.51 -3.68,1.67 0.67,1.75 0.58,3.49 0.49,5.31z"/>
  <path class="fil0" d="M270.78 325.17c0.76,-3.43 0.54,-7.5 0,-10.96 -0.33,-2.07 -3.65,-2.94 -4.04,-0.45 -0.57,3.66 -0.84,7.88 -0.05,11.51 0.46,2.08 3.65,1.88 4.09,-0.1z"/>
  <path class="fil0" d="M278.4 320.51c1.35,-3.34 1.13,-6.7 0.83,-10.2 -0.23,-2.7 -3.9,-2.51 -4.13,0.1 -0.26,3.01 -0.77,6.07 -0.73,9.11 0.02,2 3.2,3.04 4.03,0.99z"/>
  <path class="fil0" d="M112.92 350.06c1.79,1.13 3.79,-0.83 3.3,-2.68 -0.41,-1.58 -1.29,-3.14 -2.03,-4.6 -0.74,-1.44 -1.33,-2.96 -2.08,-4.42 -1.13,-2.24 -4.23,-0.82 -4.32,1.29 -0.18,3.89 1.77,8.3 5.13,10.4z"/>
  <path class="fil0" d="M149.72 282.81c-10.84,-0.5 -21.71,0.36 -31.74,4.78 -2.38,1.05 -1.45,4.66 1.2,3.96 10.12,-2.75 20.21,-3.74 30.65,-4.33 2.86,-0.16 2.7,-4.27 -0.11,-4.41z"/>
  <path class="fil0" d="M162.65 92.74c0.48,-7.02 -3.54,-15.12 -9.19,-17.93 -2.34,-1.17 -4.7,1.87 -2.72,3.73 6.38,6.03 6.85,12.78 3.95,20.67 -0.89,2.42 2.37,3.42 3.9,2.15 1.29,-1.08 2.22,-2.4 2.88,-3.86 1.7,0.08 2.72,1.17 3.56,2.72 0.99,1.86 0.2,3.55 0.05,5.45 -0.13,1.74 2.08,2.69 3.41,1.84 0.81,-0.51 1.37,-1.2 1.72,-1.99 5.84,-0.38 9.86,4.93 11.68,10.29 -16.52,-3.77 -30.99,-12.58 -41.43,-26.23 -1.58,-2.06 -4.89,-0.15 -3.5,2.16 9.34,15.72 28.73,28.04 47.17,28.97l0.72 0.05 0.06 0 1.57 -0.77 0.5 -0.84c2.28,-8.96 -7.46,-19.02 -16.48,-18.23 -0.25,-1.22 -0.65,-2.43 -1.1,-3.4 -1.27,-2.65 -3.9,-4.57 -6.76,-4.78z"/>
  <path class="fil0" d="M271.47 72.57c-7.07,4.9 -4.64,13.07 -4.18,20.3 -7.02,3.03 -10.94,11.15 -11.45,19.52 -1.6,0.66 -3.03,1.77 -4.14,3.19 -2.04,2.55 -3.08,5.59 -3.34,8.75l-0.08 0.75 -0.01 0.1c-0.02,1 0.55,1.64 1.29,1.93l1.6 0.18c19.17,-4.56 39.02,-18.58 49.31,-35.47 1.23,-2.03 -1.91,-4.39 -3.39,-2.49 -10.88,13.92 -25.4,26.45 -42.38,32.18l0.68 -1.4c1.25,-2.4 3.04,-3.18 5.52,-3.9 2.02,-0.57 2.04,-3.51 0.16,-4.2 0.84,-3.64 1.57,-7.19 3.51,-10.48 2.51,-4.25 6.65,-5.46 11.35,-5.46 2.37,0 2.87,-3.83 0.46,-4.21 -1.68,-0.26 -3.26,-0.28 -4.74,-0.11 0.27,-5.42 -1.21,-11.65 2.56,-15.82 1.61,-1.78 -0.64,-4.79 -2.72,-3.35z"/>
  <path class="fil0" d="M287.34 130.81c-9.78,8.11 -22.3,13.1 -34.92,14.35 -2.6,0.25 -2.57,4.25 0.1,4.11 13.93,-0.7 27.63,-5.94 37.87,-15.54 2.03,-1.91 -1.01,-4.61 -3.06,-2.92z"/>
  <path class="fil0" d="M210.35 141.77c2.32,-0.5 1.7,-4.47 -0.67,-4.14 -27.07,3.83 -51.46,-2.82 -71.49,-21.8 -1.93,-1.83 -4.65,1.07 -2.83,2.98 19.83,20.86 46.88,29.14 74.99,22.96z"/>
  <path class="fil0" d="M175.72 153.61c-9.81,-0.61 -17.94,-5.37 -26.25,-10.15 -1.98,-1.15 -4.32,1.88 -2.41,3.3 8.34,6.19 18.22,10.93 28.77,10.96 2.69,0.01 2.51,-3.95 -0.1,-4.11z"/>
  <path class="fil0" d="M208.95 103.77c-2.32,-0.08 -2.78,3.75 -0.45,4.09 17.77,2.58 40.76,-2.22 48.4,-20.68 1.05,-2.56 -2.44,-4.64 -3.83,-2.12 -8.63,15.68 -27.67,19.28 -44.12,18.72z"/>
  <path class="fil0" d="M207.48 95.72c2.76,-0.15 2.64,-4.21 -0.11,-4.26 -13.06,-0.3 -28.07,-5.88 -33.46,-18.87 -0.99,-2.37 -4.72,-1.37 -3.9,1.2 4.84,15.31 22.54,22.72 37.48,21.93z"/>
  <path class="fil0" d="M343.51 183.2c4.88,-0.69 9.12,-2.61 13.4,-4.97 2.04,-1.12 0.47,-4.7 -1.69,-3.75 -3.97,1.77 -8.13,3.47 -12.38,4.45 -2.37,0.54 -1.75,4.62 0.68,4.26z"/>
  <path class="fil0" d="M184.9 193.93c-14.33,4.54 -28.23,3.51 -42.98,3.89 -2.25,0.05 -2.8,3.77 -0.45,4.05 15.19,1.76 30.3,1.94 44.67,-3.87 2.51,-1 1.44,-4.93 -1.24,-4.07z"/>
  <path class="fil0" d="M217.43 155.01c-3.9,1.72 -7.76,2.58 -11.92,1.32 -2.53,-0.77 -3.3,2.98 -0.97,3.88 4.93,1.91 9.99,0.83 14.56,-1.51 2.05,-1.04 0.45,-4.62 -1.66,-3.69z"/>
  <path class="fil0" d="M106.5 201.16c-18.93,-1.82 -42.19,-4.81 -59.08,-14.14 -1.99,-1.1 -4.3,1.84 -2.4,3.3 7.48,5.78 16.96,8.15 25.97,10.57 11.67,3.1 23.55,5.04 35.63,4.85 3.03,-0.06 2.74,-4.3 -0.11,-4.57z"/>
  <path class="fil0" d="M227.32 66.11c1.84,-1.75 -0.6,-4.2 -2.6,-3.22 -10.52,5.15 -20.5,8.12 -30.56,0.17 -8.2,-6.49 -10.91,-18.08 -7.11,-27.63 6.15,-15.41 26.84,-17 38.69,-8.15 1.6,1.19 3.4,-0.69 2.13,-2.24 -13,-15.65 -40.41,-4.34 -45.95,12.38 -8.8,26.63 25.42,47.7 45.4,28.7z"/>
 </g>
</svg>
