
<svg xmlns="http://www.w3.org/2000/svg" xml:space="preserve" width="0.747343in" height="0.747327in" version="1.1" style="shape-rendering:geometricPrecision; text-rendering:geometricPrecision; image-rendering:optimizeQuality; fill-rule:evenodd; clip-rule:evenodd"
viewBox="0 0 119.02 119.02"
 xmlns:xlink="http://www.w3.org/1999/xlink"
 xmlns:xodm="http://www.corel.com/coreldraw/odm/2003">
 <defs>
  <style type="text/css">
   <![CDATA[
    .fil0 {fill:black;fill-rule:nonzero}
   ]]>
  </style>
 </defs>
 <g id="Layer_x0020_1">
  <metadata id="CorelCorpID_0Corel-Layer"/>
  <path class="fil0" d="M111.77 70.02c-0.5,-1.67 -3.23,-0.86 -4.35,-0.73 -0.55,0.06 -1.1,0.1 -1.65,0.12l-0.55 0c0.56,-0.45 1.23,-0.83 1.76,-1.29 0.82,-0.72 2.04,-2.13 0.73,-3.14 -1.35,-1.04 -3,-0.78 -4.58,-0.48 -1.99,0.38 -3.93,1.16 -5.87,1.72 -2.61,0.76 -6.97,2.17 -9.41,0.29 -0.61,-0.47 -1.43,0.33 -0.85,0.89 3.11,2.94 8.45,1.08 11.98,0.02 1.98,-0.59 3.94,-1.35 6,-1.54 2.63,-0.24 -0.06,1.9 -0.73,2.4 -0.35,0.27 -0.99,0.65 -1.07,1.13 -0.18,1.04 0.64,1.44 1.57,1.49 1.05,0.06 2.09,0 3.15,-0.09 1.04,-0.09 2.72,-0.66 1.42,0.67 -0.88,0.9 -0.51,2.02 0.54,2.57 1.66,0.87 3.78,-0.22 5.62,0.25 -0.51,1.91 -1.11,3.79 -1.8,5.62 -2.95,-0.32 -5.94,-0.26 -8.9,-0.32 -3.04,-0.06 -6.47,0.13 -9.43,-0.81l-0.25 -0.22c-0.55,-0.24 -0.91,-0.63 -1.41,-0.96 -0.71,-0.47 -1.61,-0.36 -2.42,-0.35 -0.46,0.01 -0.79,0.67 -0.38,0.99 0.68,0.52 1.5,0.35 2.22,0.75 0.21,0.12 0.38,0.35 0.57,0.49 0.34,0.25 0.67,0.37 1.1,0.4l0.18 -0.02c2.62,1.04 5.64,1.13 8.41,1.25 3.26,0.13 6.54,0.08 9.8,0.07 -0.93,2.29 -2,4.52 -3.21,6.66 -2.31,-0.18 -4.85,-0.35 -7.09,0.07 -0.56,0.1 -0.5,0.99 0.03,1.09 1.99,0.38 4.22,0.28 6.31,0.12 -0.65,1.08 -1.33,2.14 -2.04,3.18 -3.48,-0.16 -6.97,-0.22 -10.46,-0.19 -3.94,0.03 -8.01,-0.22 -11.92,0.24 -0.58,0.07 -0.8,1.03 -0.12,1.11 3.65,0.42 7.41,0.2 11.08,0.24 3.51,0.04 7.03,-0.01 10.54,-0.15 -0.5,0.69 -1.02,1.36 -1.55,2.03 -2.04,-0.06 -4.15,-0.1 -6.18,0.15 -0.58,0.07 -0.8,1.02 -0.12,1.11 1.68,0.21 3.4,0.23 5.1,0.19 -10.63,12.46 -26.43,20.37 -44.05,20.37 -20.41,0 -38.38,-10.61 -48.69,-26.61 3.81,0.46 8,-0.28 11.76,-0.43 0.72,-0.03 0.68,-1.08 -0.03,-1.11 -4.14,-0.16 -8.75,-1.03 -12.84,-0.26 -0.62,-1.05 -1.22,-2.11 -1.77,-3.2 7.23,0.92 14.97,0.03 22.2,-0.23 0.81,-0.03 0.77,-1.22 -0.03,-1.25 -7.48,-0.26 -15.54,-1.24 -22.96,-0.13l-0 0c-1.73,-3.66 -3.1,-7.54 -4.04,-11.57 2.56,3.01 6.72,4.22 10.62,4.85 5.86,0.95 11.38,6.59 17.68,4.39 0.77,-0.27 0.6,-1.4 -0.23,-1.41 -3.05,-0.05 -5.76,-0.73 -8.43,-1.62 2.74,-1.36 5.48,-2.72 8.23,-4.07 3.08,-1.51 5.73,-3.82 8.93,-5.06 0.51,-0.2 0.53,-0.79 0.26,-1.09 0.48,-1.37 0.6,-2.83 1.11,-4.23 0.73,-1.99 0.14,-4.02 1.1,-5.92 1.23,0.15 2.26,-0.96 2.46,-2.2 0.1,-0.67 -0.81,-1.12 -1.16,-0.45 -0.22,0.61 -0.65,1.04 -1.3,1.27 -0.35,-0.16 -0.71,-0.06 -0.92,0.27 -0.91,1.45 -1.04,2.84 -1.09,4.52 -0.06,2.16 -0.95,4.61 -1.41,6.76l0 0.04c-2.57,0.92 -4.84,2.74 -7.17,4.1 -3.45,2.02 -7.32,3.27 -10.64,5.52 -1.74,-0.62 -3.49,-1.3 -5.33,-1.92 -0.91,-0.31 -1.86,-0.5 -2.82,-0.68 1.26,-0.49 2.46,-1.27 3.87,-1.77 1.15,-0.41 3.09,1.32 4.22,1.65 1.02,0.3 2.38,-0.25 3.28,-0.61 0.68,-0.27 0.6,-1.38 -0.21,-1.33 -1.61,0.11 -3.02,0.51 -4.55,-0.44 -0.55,-0.34 -1.1,-0.79 -1.77,-0.83 -3.05,-0.21 -5.11,2.72 -8.26,2.48l-0.25 0.05 -0.25 -0.07c-2.72,-0.88 -4.92,-2.57 -6.43,-5l-0.16 -0.18c-0.55,-3.12 -0.85,-6.32 -0.88,-9.58 1.63,-1.45 3.47,-2.15 5.71,-2.07 2.69,0.09 3.65,1.87 4.8,3.95 1.13,2.03 4.2,4.99 6.58,3.02 2.18,-1.8 4.3,0.64 6.41,1.35 1.96,0.65 3.94,1.05 6,1.19 3.05,0.21 6.66,-2.23 7.73,-5.07 0.25,-0.66 -0.8,-1.02 -1.13,-0.44 -2.57,4.59 -7.97,4.31 -12.23,2.86 -1.89,-0.65 -3.17,-2.11 -5.24,-2.19 -2.39,-0.1 -2.53,2.45 -5.19,0.44 -1.6,-1.2 -2.05,-3.35 -3.27,-4.84 -0.87,-1.07 -2.41,-1.55 -3.7,-1.79 -2.27,-0.43 -4.71,0.16 -6.46,1.61 0.78,-31.24 26.44,-56.42 57.87,-56.42 23.21,0 43.27,13.73 52.49,33.5 -3.92,-1.64 -9.02,-2.68 -12.54,-0.11 -0.72,0.53 -1.56,1.54 -1.28,2.52 0.4,1.39 1.89,1.81 1.97,3.47 0.1,1.96 -2.06,1.81 -3.38,1.78 -1.89,-0.04 -3.39,-0.16 -4.87,1.11 -0.64,0.55 -0.59,1.51 -0.51,2.24 0.16,1.4 -5.41,-1.07 -6.12,-1.29 -2.45,-0.72 -5.55,0.12 -7.62,1.44 -0.85,0.54 -1.72,1.56 -2.03,2.51 -0.52,1.61 -0.44,2.79 -2.44,2.88l0.02 0.02c-0.3,0 -0.6,0.16 -0.71,0.53l-0 0.01c-0.11,0.38 0.15,0.82 0.54,0.9 1.4,0.28 3.28,0.04 3.67,-1.66 0.41,-1.79 0.61,-3.09 2.32,-4.19 1.66,-1.08 3.98,-1.29 5.89,-1 2.58,0.38 4.83,3.1 7.45,1.17 0.45,-0.33 0.52,-0.85 0.55,-1.35 0.13,-2.1 1.93,-1.84 3.42,-1.79 1.67,0.06 3.38,0.14 4.68,-1.06 1.11,-1.03 1.02,-3.38 0.12,-4.47 -0.6,-0.73 -1.81,-1.27 -1.06,-2.15 0.6,-0.7 1.59,-1.01 2.44,-1.23 3.36,-0.9 7.11,0.43 10.31,1.55 0.98,2.3 1.81,4.68 2.49,7.13 -0.16,0.44 -0.54,0.62 -1.23,0.73 -0.87,0.14 -1.75,0.22 -2.55,0.63 -0.59,0.3 -0.15,1.25 0.47,1.05 1.03,-0.33 2.16,-0.17 3.19,-0.52 0.2,-0.07 0.38,-0.16 0.54,-0.27 0.85,3.46 1.39,7.04 1.59,10.72 -0.94,1.84 -3.82,1.96 -4.88,0.06 -0.25,-0.45 -0.96,-0.53 -1.29,-0.13 -1.84,2.18 -4.07,3.09 -6.89,2.44 -2.02,-0.47 -2.91,-2.13 -4.56,-3.07 -3.5,-1.99 -7.83,4.25 -10.71,-0.54 -0.38,-0.63 -1.26,-0.05 -0.95,0.59 0.92,1.9 2.38,2.6 4.46,2.45 2.15,-0.15 5.57,-2.64 7.27,-0.8 3.43,3.74 8.44,4.35 11.96,0.75 1.44,1.3 4.07,1.74 5.67,0.85l0.01 0.51c0,4.53 -0.53,8.95 -1.52,13.19 -1.1,-0.53 -2.48,-0.29 -3.74,-0.16l-1.64 0.06c0.3,-0.37 0.66,-0.69 0.96,-1.08 0.34,-0.44 0.47,-0.96 0.31,-1.5zm-52.26 -70.02c-32.81,0 -59.51,26.7 -59.51,59.51 0,32.81 26.7,59.51 59.51,59.51 32.81,0 59.51,-26.69 59.51,-59.51 0,-32.82 -26.7,-59.51 -59.51,-59.51z"/>
  <path class="fil0" d="M28.16 98.09l0.06 -0.07 0.11 -0.31 -0.15 -0.29 -0.55 -0.48c-0.39,-0.34 -0.81,-0.49 -1.24,-0.46 -0.43,0.03 -0.82,0.25 -1.16,0.64l-1.27 1.48c-0.34,0.39 -0.49,0.81 -0.46,1.23 0.03,0.43 0.25,0.82 0.64,1.16l0.55 0.48 0.28 0.1 0.33 -0.15 0.06 -0.07 0.1 -0.32 -0.15 -0.3 -0.55 -0.47 -0.31 -0.5 0.23 -0.54 1.27 -1.48c0.17,-0.19 0.33,-0.29 0.54,-0.3l0.51 0.23 0.55 0.48 0.61 -0.05z"/>
  <path class="fil0" d="M31.45 101.94c-0.22,0.32 -0.41,0.35 -0.54,0.35l-0.53 -0.19 -0.56 -0.38 0.83 -1.22 0.56 0.38 0.37 0.42c0.05,0.12 0.08,0.32 -0.13,0.63zm0.3 -1.85l-1 -0.68 -0.6 0.11 -2.5 3.66 -0.07 0.32 0.18 0.27 0.08 0.06 0.6 -0.11 0.83 -1.21 0.55 0.38 0.02 0.02 -0.26 1.85c-0.03,0.23 0.12,0.44 0.35,0.49l0.09 0.02 0.08 0.01 0.25 -0.08 0.18 -0.29 0.24 -1.64 0.15 0.01c0.36,0 0.88,-0.13 1.32,-0.78 0.43,-0.64 0.36,-1.18 0.23,-1.52 -0.13,-0.34 -0.38,-0.63 -0.73,-0.88z"/>
  <path class="fil0" d="M37.35 103.42l-1.76 -0.94c-0.21,-0.11 -0.48,-0.03 -0.59,0.18l-2.1 3.95 -0.03 0.33 0.21 0.26 1.76 0.94 0.2 0.05 0.13 -0.02 0.26 -0.21 0.04 -0.08c0.11,-0.21 0.03,-0.47 -0.18,-0.58l-1.3 -0.69 0.69 -1.3 0.87 0.46 0.33 0.03 0.25 -0.21 0.05 -0.08c0.11,-0.21 0.03,-0.47 -0.18,-0.59l-0.87 -0.46 0.46 -0.87 1.3 0.69 0.33 0.04 0.25 -0.21 0.04 -0.09c0.12,-0.21 0.03,-0.47 -0.18,-0.59z"/>
  <path class="fil0" d="M41.3 105.19c-0.44,-0.17 -0.88,-0.16 -1.26,0.05 -0.32,0.17 -0.54,0.42 -0.67,0.75 -0.17,0.42 -0.14,0.85 0.07,1.24l0.03 0.05 0.2 0.26 0.19 0.23 0.55 0.61 0.22 0.27 0.1 0.17 0 0.35 -0.24 0.25 -0.4 0.01c-0.06,-0.02 -0.3,-0.15 -1.01,-0.87l-0.54 -0.06 -0.08 0.05 -0.19 0.27 0.06 0.33c0.16,0.25 0.37,0.48 0.62,0.69 0.26,0.21 0.52,0.38 0.79,0.48l0.55 0.11c0.23,0 0.44,-0.06 0.65,-0.16 0.32,-0.17 0.55,-0.42 0.68,-0.75 0.15,-0.37 0.21,-0.95 -0.34,-1.59 -0.19,-0.21 -0.36,-0.41 -0.51,-0.56l-0.36 -0.4c-0.24,-0.28 -0.22,-0.46 -0.16,-0.61l0.23 -0.27 0.45 0c0.09,0.04 0.32,0.16 0.84,0.6l0.53 0.03 0.08 -0.06 0.18 -0.29 -0.09 -0.33c-0.29,-0.36 -0.69,-0.65 -1.18,-0.85z"/>
  <path class="fil0" d="M47.63 107.24l-0.71 -0.19c-0.5,-0.13 -0.94,-0.09 -1.32,0.13 -0.37,0.21 -0.63,0.57 -0.77,1.07l-0.51 1.88c-0.14,0.5 -0.09,0.94 0.12,1.31 0.21,0.38 0.57,0.63 1.08,0.77l0.7 0.19 0.11 0.02 0.42 -0.32 0.02 -0.09 -0.04 -0.32 -0.26 -0.21 -0.7 -0.19c-0.25,-0.07 -0.41,-0.17 -0.5,-0.32 -0.09,-0.14 -0.09,-0.34 -0.03,-0.59l0.51 -1.88c0.06,-0.25 0.17,-0.41 0.32,-0.49 0.15,-0.09 0.34,-0.09 0.59,-0.03l0.7 0.19c0.23,0.06 0.47,-0.08 0.53,-0.31l0.02 -0.1 -0.04 -0.33 -0.26 -0.2z"/>
  <path class="fil0" d="M52.1 108.17l-0.1 -0.02 -0.32 0.08 -0.17 0.28 -0.66 4.33c-0.03,0.23 0.13,0.46 0.36,0.49l0.1 0.01 0.07 0 0.25 -0.08 0.17 -0.28 0.66 -4.34c0.04,-0.23 -0.12,-0.46 -0.36,-0.49z"/>
  <path class="fil0" d="M58.75 108.68l-2.43 -0.09 -0.31 0.11 -0.14 0.3 -0 0.09c-0.01,0.24 0.18,0.44 0.41,0.45l0.74 0.03 -0.15 3.9c-0.01,0.24 0.18,0.44 0.42,0.45l0.1 0 0.02 0 0.29 -0.11 0.14 -0.3 0.15 -3.9 0.74 0.03 0.31 -0.12 0.14 -0.3 0 -0.1c0.01,-0.24 -0.18,-0.44 -0.42,-0.45z"/>
  <path class="fil0" d="M70.56 112.06l-0.32 -0.07 -1.44 0.27 -0.27 -1.45 0.97 -0.18c0.23,-0.04 0.39,-0.27 0.35,-0.5l-0.02 -0.1 -0.18 -0.28 -0.32 -0.07 -0.97 0.18 -0.18 -0.97 1.44 -0.26 0.28 -0.18 0.07 -0.32 -0.02 -0.1c-0.04,-0.23 -0.27,-0.39 -0.5,-0.35l-1.96 0.36c-0.23,0.04 -0.39,0.27 -0.34,0.5l0.81 4.4c0.04,0.21 0.22,0.35 0.43,0.35l0.08 -0.01 1.96 -0.36c0.23,-0.04 0.39,-0.27 0.35,-0.5l-0.02 -0.09 -0.18 -0.28z"/>
  <path class="fil0" d="M75.57 106.53c-0.07,-0.23 -0.31,-0.36 -0.54,-0.29l-0.09 0.02 -0.26 0.21 -0.03 0.33 0.92 3.03c0.06,0.2 0.04,0.38 -0.05,0.57 -0.1,0.18 -0.23,0.29 -0.44,0.36 -0.2,0.06 -0.38,0.04 -0.56,-0.06 -0.18,-0.1 -0.3,-0.24 -0.36,-0.44l-0.92 -3.03 -0.21 -0.26 -0.33 -0.03 -0.09 0.03 -0.26 0.21 -0.03 0.33 0.92 3.03c0.13,0.45 0.41,0.78 0.82,1 0.25,0.14 0.52,0.21 0.79,0.21l0.51 -0.08c0.45,-0.14 0.79,-0.41 1.01,-0.82 0.22,-0.41 0.26,-0.85 0.13,-1.29l-0.92 -3.03z"/>
  <path class="fil0" d="M80.72 104.44l-0.24 -0.23 -0.33 0.01 -0.09 0.04c-0.22,0.09 -0.32,0.35 -0.23,0.57l1 2.32 -2.48 -1.91 -0.44 -0.06 -0.1 0.04 -0.23 0.23 0.01 0.33 1.74 4.02 0.4 0.26 0.17 -0.04 0.09 -0.04 0.23 -0.24 -0 -0.33 -1 -2.32 2.48 1.91 0.44 0.05 0.1 -0.05c0.22,-0.09 0.32,-0.35 0.23,-0.56l-1.74 -4.02z"/>
  <path class="fil0" d="M86.32 105.61c-0.08,0.23 -0.2,0.38 -0.36,0.47l-0.54 0.31 -1.7 -2.97 0.54 -0.31c0.16,-0.09 0.37,-0.12 0.59,-0.08 0.27,0.05 0.45,0.17 0.58,0.4l0.85 1.48c0.13,0.22 0.14,0.45 0.05,0.7zm-0.06 -2.66c-0.27,-0.47 -0.7,-0.77 -1.25,-0.86 -0.47,-0.08 -0.88,-0.02 -1.24,0.19l-0.99 0.57 -0.2 0.26 0.04 0.32 2.22 3.89 0.26 0.2 0.11 0.01 0.22 -0.06 0.99 -0.57c0.36,-0.2 0.62,-0.53 0.79,-0.97 0.19,-0.52 0.15,-1.04 -0.11,-1.51l-0.85 -1.48z"/>
  <path class="fil0" d="M89.06 100l0.42 -0.14 0.13 0.01c0.2,0.03 0.36,0.12 0.48,0.29l1.15 1.57c0.12,0.17 0.17,0.34 0.13,0.55 -0.03,0.2 -0.12,0.36 -0.29,0.48l-0.55 0.13c-0.21,-0.03 -0.36,-0.13 -0.49,-0.29l-1.15 -1.57c-0.12,-0.17 -0.17,-0.34 -0.13,-0.55 0.03,-0.21 0.13,-0.36 0.3,-0.48zm-1.25 0.34c-0.07,0.46 0.03,0.88 0.31,1.26l1.15 1.57c0.28,0.38 0.65,0.6 1.11,0.68l0.27 0.02c0.36,0 0.69,-0.11 0.99,-0.33 0.38,-0.28 0.61,-0.65 0.68,-1.11 0.07,-0.46 -0.03,-0.88 -0.31,-1.26l-1.15 -1.58c-0.28,-0.37 -0.65,-0.6 -1.11,-0.67 -0.46,-0.07 -0.89,0.03 -1.26,0.31 -0.38,0.28 -0.61,0.65 -0.68,1.11z"/>
  <path class="fil0" d="M24.35 32.91l0.35 0.13 0.04 -0 0.37 -0.19 0.09 -0.11c0.19,-0.23 0.17,-0.57 -0.06,-0.76l-3.09 -2.61 4.84 0.95 0.52 -0.18 0.1 -0.11 0.12 -0.39 -0.19 -0.37 -4.89 -4.13 -0.39 -0.13 -0.37 0.19 -0.09 0.11c-0.19,0.23 -0.16,0.57 0.06,0.76l3.09 2.61 -4.83 -0.96 -0.52 0.18 -0.1 0.12c-0.19,0.23 -0.16,0.57 0.06,0.76l4.89 4.14z"/>
  <path class="fil0" d="M33.72 23.7l-0.36 -0.2 -0.4 0.11 -1.75 1.39 -1.45 -1.83 1.19 -0.95c0.23,-0.18 0.27,-0.52 0.09,-0.76l-0.09 -0.11 -0.36 -0.2 -0.4 0.11 -1.2 0.95 -1 -1.27 1.75 -1.39 0.2 -0.36 -0.12 -0.4 -0.09 -0.11c-0.19,-0.23 -0.53,-0.27 -0.76,-0.09l-2.28 1.81c-0.23,0.19 -0.27,0.53 -0.09,0.76l4.06 5.13 0.42 0.21 0.33 -0.12 2.29 -1.81c0.23,-0.18 0.27,-0.52 0.09,-0.76l-0.08 -0.11z"/>
  <path class="fil0" d="M39.62 12.74l-0.41 -0.06 -0.14 0.04c-0.29,0.08 -0.46,0.37 -0.39,0.66l1.07 4.2 -1.8 -1.79c-0.17,-0.16 -0.42,-0.21 -0.63,-0.1 -0.21,0.11 -0.32,0.33 -0.29,0.56l0.38 2.51 -2.75 -3.35c-0.19,-0.23 -0.53,-0.26 -0.76,-0.08l-0.11 0.09 -0.2 0.37 0.12 0.39 4.15 5.05 0.42 0.2 0.24 -0.06 0.13 -0.06c0.21,-0.11 0.33,-0.33 0.29,-0.56l-0.4 -2.64 1.89 1.88c0.17,0.17 0.42,0.21 0.63,0.1l0.13 -0.07c0.23,-0.12 0.34,-0.37 0.28,-0.62l-1.62 -6.34 -0.25 -0.33z"/>
  <path class="fil0" d="M53.98 16.14l0.35 0.13 0.04 -0 0.14 -0.01c0.3,-0.02 0.52,-0.28 0.5,-0.57l-0.28 -4.18 1.17 1.69 0.48 0.23 0.44 -0.29 0.94 -1.83 0.28 4.19c0.02,0.3 0.28,0.53 0.57,0.5l0.14 -0.01 0.37 -0.18 0.13 -0.39 -0.43 -6.39 -0.18 -0.37 -0.39 -0.13 -0.16 0.01 -0.44 0.29 -1.4 2.75 -1.76 -2.54 -0.48 -0.23 -0.15 0.01 -0.37 0.18 -0.13 0.39 0.43 6.39 0.18 0.37z"/>
  <path class="fil0" d="M63.77 16.27l2.89 0.38 0.07 0c0.27,0 0.5,-0.19 0.53,-0.47l0.02 -0.13 -0.11 -0.4 -0.36 -0.21 -2.21 -0.29 0.31 -2.32 1.51 0.2c0.29,0.04 0.57,-0.17 0.61,-0.46l0.02 -0.14 -0.11 -0.4 -0.36 -0.21 -1.52 -0.2 0.21 -1.6 2.21 0.29 0.4 -0.11 0.21 -0.36 0.02 -0.14c0.04,-0.29 -0.17,-0.57 -0.46,-0.61l-2.89 -0.38 -0.4 0.11 -0.21 0.36 -0.85 6.48c-0.04,0.3 0.17,0.57 0.46,0.61z"/>
  <path class="fil0" d="M71.5 17.58c0.18,0.23 0.52,0.27 0.75,0.09l2.33 -1.77 0.74 2.83c0.06,0.24 0.28,0.4 0.52,0.4l0.12 -0.01 0.13 -0.03 0.34 -0.25 0.06 -0.42 -0.87 -3.33 2.74 -2.08c0.23,-0.18 0.28,-0.51 0.11,-0.75l-0.08 -0.12 -0.36 -0.22 -0.41 0.1 -2.33 1.77 -0.74 -2.84 -0.26 -0.33 -0.42 -0.05 -0.14 0.04c-0.28,0.08 -0.45,0.37 -0.37,0.65l0.87 3.32 -2.73 2.08 -0.21 0.36 0.11 0.4 0.09 0.11z"/>
  <path class="fil0" d="M81.55 22.02l0.12 0.07 0.27 0.08 0.47 -0.27 3.26 -5.51 0.06 -0.41 -0.25 -0.33 -0.12 -0.07c-0.26,-0.15 -0.59,-0.07 -0.74,0.19l-3.26 5.51 -0.06 0.41 0.25 0.33z"/>
  <path class="fil0" d="M89.63 28.2l0.36 0.14 0.03 -0 0.37 -0.18 0.09 -0.1c0.2,-0.22 0.18,-0.56 -0.04,-0.76l-0.79 -0.71c-0.3,-0.27 -0.45,-0.53 -0.46,-0.81 -0.01,-0.27 0.11,-0.55 0.38,-0.85l1.9 -2.11c0.27,-0.3 0.53,-0.44 0.85,-0.46 0.26,0 0.52,0.12 0.8,0.38l0.79 0.71c0.22,0.2 0.56,0.18 0.76,-0.04l0.1 -0.11 0.14 -0.39 -0.18 -0.37 -0.79 -0.71c-0.54,-0.48 -1.12,-0.71 -1.73,-0.69 -0.6,0.03 -1.16,0.32 -1.65,0.86l-1.9 2.11c-0.49,0.54 -0.72,1.12 -0.69,1.72 0.03,0.6 0.32,1.16 0.87,1.65l0.79 0.71z"/>
  <path class="fil0" d="M95.63 31.32l2.29 -1.69c0.21,-0.15 0.43,-0.23 0.67,-0.23l0.19 0.02c0.33,0.05 0.57,0.19 0.77,0.46 0.19,0.27 0.27,0.54 0.22,0.87 -0.05,0.32 -0.19,0.57 -0.46,0.76l-2.28 1.69c-0.21,0.16 -0.44,0.23 -0.68,0.23l-0.19 -0.02c-0.32,-0.05 -0.57,-0.19 -0.76,-0.46 -0.2,-0.27 -0.27,-0.54 -0.22,-0.87 0.05,-0.32 0.2,-0.57 0.46,-0.77zm-1.67 0.58c-0.1,0.65 0.06,1.24 0.45,1.78 0.39,0.53 0.92,0.85 1.56,0.94l0.38 0.03c0.5,0 0.97,-0.16 1.4,-0.47l2.28 -1.69c0.52,-0.39 0.84,-0.92 0.94,-1.57 0.09,-0.65 -0.05,-1.25 -0.44,-1.77 -0.39,-0.53 -0.92,-0.85 -1.57,-0.94 -0.65,-0.1 -1.25,0.06 -1.77,0.45l-2.28 1.69c-0.53,0.39 -0.85,0.92 -0.94,1.56z"/>
  <path class="fil0" d="M45.05 54.26c0.18,-1.4 0.39,-2.78 0.48,-4.19 0.13,-1.98 0.66,-3.7 1,-5.62l0.25 -0.27 0.02 0.07c-0.43,1.37 -0.42,3.13 -0.26,4.52 0.06,0.61 1.07,0.82 1.15,0.13 0.09,-0.76 0.12,-1.53 0.17,-2.29 0.05,-0.73 0.17,-1.47 0.16,-2.2l0.05 -0.08c0.12,-0.31 0.25,-0.61 0.37,-0.92 0.07,-0.18 0.12,-0.79 0.31,-0.55 0.27,0.33 0.93,0.22 1.09,-0.17 0.25,-0.58 0.46,-1.43 0.23,-2.06 -0.16,-0.44 -0.7,-0.6 -1.04,-0.25 -0.29,0.3 -0.29,0.65 -0.31,1 -0.32,-0.01 -0.63,0.08 -0.89,0.28 -0.39,0.3 -0.48,0.68 -0.59,1.14l-0.06 0.21c-0.67,-0.19 -1.49,0.17 -1.72,1.02l-0.03 0.06c-1.03,3.29 -1.09,6.48 -1.57,9.86 -0.11,0.79 1.1,1.09 1.2,0.3z"/>
  <path class="fil0" d="M49.66 69.13c1.46,-1.27 3.08,-3.07 2.9,-5.15 -0.05,-0.6 -1,-0.78 -1.11,-0.12 -0.31,1.89 -1.29,3.16 -2.61,4.5 -0.52,0.53 0.27,1.24 0.81,0.77z"/>
  <path class="fil0" d="M58.1 70.22c-2.24,-1.34 -0.79,-5.44 -3.19,-6.51 -0.67,-0.3 -1.12,0.56 -0.54,0.98 0.92,0.66 0.95,2.92 1.21,3.93 0.27,1.06 0.85,2.53 2.09,2.72 0.66,0.1 1.05,-0.75 0.44,-1.11z"/>
  <path class="fil0" d="M63.13 63.77c-0.01,-0.73 -1.12,-0.7 -1.13,0.02 -0.03,2.41 -0.07,4.81 -0.01,7.22 -0.09,0.53 -0.2,0.89 -0.71,1.15 -0.53,0.28 -1.04,0.44 -1.46,0.89 -0.44,0.46 0.16,1.23 0.71,0.87 0.52,-0.34 1.13,-0.48 1.66,-0.79 0.73,-0.43 1.04,-1.25 0.95,-2.07l-0 -0.01c0.07,-2.43 0.02,-4.85 -0.01,-7.28z"/>
  <path class="fil0" d="M58.18 35.97c0.33,0.73 1.05,0.71 1.11,1.46 0.07,0.94 0.27,1.6 1.15,1.92 1.04,0.38 1.32,3.57 1.58,4.55 0.46,1.71 2.3,2.7 2.42,4.47 0.02,0.21 0.13,0.47 0.34,0.56 1.02,0.42 1.12,0.96 1.46,1.94 0.29,0.83 1.61,0.43 1.3,-0.39 -0.31,-0.85 -0.36,-2.19 -1.44,-2.5 -0.8,-0.22 -0.25,-0.35 -0.47,-1.09 -0.21,-0.68 -0.98,-1.34 -1.45,-1.83 -1.67,-1.74 -1.07,-4.63 -2.25,-6.54 -0.16,-0.25 -0.47,-0.31 -0.73,-0.4 -0.85,-0.3 -0.72,-1.35 -0.9,-2.09 -0.06,-0.25 -0.35,-0.47 -0.61,-0.44l-0.56 -0.2c-0.45,-0.57 -1.25,-0.07 -0.95,0.59z"/>
  <path class="fil0" d="M68.06 51.64c0.37,0.66 0.39,0.69 1.04,1.05 1.43,0.81 1.65,1.77 2.3,2.92 0.69,1.24 1.89,2.58 3.35,2.95 0.97,0.24 1.84,0.38 2.64,1.3l0.36 0.21c0.09,3.74 -0.66,9.13 2.55,11.67 0.55,0.44 1.39,-0.15 0.99,-0.8 -0.9,-1.43 -1.38,-2.9 -1.82,-4.52 -0.7,-2.53 -0.29,-4.77 -0.34,-7.31 -0.01,-0.54 -0.63,-0.87 -1.08,-0.59 -0.01,0.01 -1.27,-0.97 -1.77,-1.5 -0.18,-0.19 -0.46,-0.23 -0.7,-0.17 -2.02,0.52 -2.75,-1.9 -3.57,-3.37 -0.76,-1.37 -2.05,-1.4 -2.88,-2.5 -0.47,-0.63 -1.45,-0.06 -1.05,0.65z"/>
  <path class="fil0" d="M85.86 67.88c-0.81,-0.22 -0.9,-1.4 -1.04,-2.07 -0.06,-0.29 -0.35,-0.43 -0.62,-0.45 -1.99,-0.15 -2.05,1.66 -3.37,2.65 -0.62,0.46 -0.06,1.4 0.64,1.03 0.69,-0.37 1.45,-1.96 2.21,-2.35 0.12,0.73 0.34,1.53 0.86,1.97 0.8,0.67 0.75,1.03 1.06,2.31 0.35,1.44 1,4.24 2.65,4.88 0.18,0.76 0.57,1.33 1.21,1.92 0.64,0.59 1.46,-0.32 0.91,-0.96 -0.52,-0.39 -0.79,-0.91 -0.81,-1.55 -0.02,-0.3 -0.22,-0.61 -0.53,-0.67 -1.76,-0.33 -2.4,-4.8 -2.7,-6.27 -0.05,-0.23 -0.27,-0.4 -0.48,-0.46z"/>
  <path class="fil0" d="M79.9 74.82c1.34,0.75 2.64,-1.46 3.46,0.53 0.31,0.75 0.83,0.94 1.42,0.84 0.5,1.73 1.71,3.37 3.57,3.56 0.66,0.07 0.82,-0.92 0.3,-1.21 -1.41,-0.75 -2.42,-1.84 -2.72,-3.44 -0.09,-0.46 -0.66,-0.57 -1.02,-0.38 -0.46,0.25 -1.06,-1.49 -1.55,-1.76 -1.11,-0.62 -2.13,0.92 -3.13,0.47 -0.72,-0.32 -1.52,-0.2 -2.21,0.26 -0.27,0.18 -1.29,-0.61 -1.54,-0.67l-0.08 -0.01 -0.06 -0.13 0.43 -0.01c0.62,-0.01 1.25,-0.06 1.86,-0.14 0.62,-0.08 0.86,-1.09 0.13,-1.19 -0.6,-0.08 -1.2,-0.11 -1.8,-0.14 -0.43,-0.02 -0.93,-0.08 -1.35,0.06 -0.11,-0.22 -0.22,-0.44 -0.32,-0.66l0.08 0c0.53,-0.02 1.05,-0.06 1.57,-0.11 0.76,-0.07 0.71,-1.09 -0.03,-1.16 -0.61,-0.06 -1.43,-0.22 -2.13,-0.13l-0.1 -0.39 -0.02 -0.12 0.57 -0.01c0.54,0.01 1.09,-0.03 1.63,-0.08 0.76,-0.08 0.71,-1.1 -0.03,-1.17 -0.7,-0.07 -1.57,-0.18 -2.34,-0.12l-0.02 -0.32 0.25 -0c0.34,0 0.67,-0.04 1,-0.08 0.26,-0.03 0.48,-0.17 0.55,-0.44 0.07,-0.28 -0.11,-0.67 -0.42,-0.7 -0.35,-0.04 -0.7,-0.08 -1.06,-0.09l-0.31 -0.01c0.01,-0.32 0.02,-0.63 0.02,-0.95l0.43 -0.01c0.45,0 0.89,-0 1.33,-0.07 0.27,-0.04 0.5,-0.17 0.56,-0.45 0.08,-0.29 -0.11,-0.68 -0.43,-0.72 -0.45,-0.07 -0.9,-0.09 -1.35,-0.09 -0.42,0 -0.91,-0.06 -1.29,0.14l-0.29 0.26 -0.02 0.06 -0.01 0.04c-0.67,1.63 -0.46,3.69 -0.14,5.37 0.21,1.07 0.52,2.63 1.23,3.73 -0.65,0.13 -1.31,0.22 -2.06,-0.15 -0.59,-0.3 -1.16,0.46 -0.68,0.93 1.54,1.5 3.3,0.24 5.12,1.07l0.48 0.13c0.62,1.45 2.58,2.24 3.79,3.05 0.49,0.33 1.14,-0.36 0.79,-0.84 -0.51,-0.69 -1.16,-1.21 -1.87,-1.68 -0.42,-0.28 -0.81,-0.57 -1.21,-0.87 0.35,-0.11 0.68,-0.16 1.03,0.03z"/>
  <path class="fil0" d="M57.81 74.48c0.58,-0.21 0.48,-1.15 -0.17,-1.11 -2.25,0.13 -4.08,-1.29 -6.24,-1.58 -0.59,-0.08 -1.03,0.75 -0.41,1.04 1,0.47 2.17,1.09 3.36,1.48 0.39,0.85 0.16,2.12 0.25,2.95 0.07,0.6 1.05,0.82 1.15,0.13 0.1,-0.71 0.28,-1.79 0.17,-2.73 0.65,0.07 1.29,0.03 1.89,-0.18z"/>
  <path class="fil0" d="M43.94 62.74c0.12,-0.39 0.53,-1.79 0.23,-1.76 0.31,-0.03 0.64,0.06 0.96,-0.06l0.15 -0.06c-0.04,0.52 -0.06,1.05 -0.03,1.54 0.03,0.73 1.06,0.67 1.11,-0.03 0.08,-0.97 0.35,-1.96 0.38,-2.94 0.11,-0.33 0.19,-0.66 0.27,-1 0.14,-0.6 0.9,-0.76 1.32,-1.06 0.97,-0.69 0.94,-2.63 2.5,-2.25 -0.42,1.06 -0.58,2.2 -0.77,3.47 -0.32,2.16 -1.49,3.83 -1.72,6.06 -0.07,0.68 0.85,0.71 1.15,0.28 0.41,-0.58 0.43,-1.08 0.46,-1.79 0.04,-0.98 0.81,-1.73 1.09,-2.62 0.33,-1.07 0.3,-2.39 0.42,-3.51 0.15,-1.38 0.98,-2.3 1.72,-3.4l0.03 -0.06 0.15 -0.16c1.55,-2.56 1.37,-5.86 1.5,-8.74 0.07,-1.54 0.11,-3.07 0.17,-4.61 0.03,-0.94 0.47,-1.66 0.97,-2.36 -0.2,2.86 0.04,6.58 1.92,7.11 0.21,0.82 0.7,1.53 1.33,2.19 0.04,3.21 -0.24,6.4 -0.3,9.62 -0.01,0.64 1.05,0.77 1.13,0.12 0.3,-2.63 0.75,-5.69 0.55,-8.49 1.53,1.25 3.24,2.43 3.9,4.04 0.3,3.71 0.3,7.41 0.27,11.13 -0.01,0.69 -0.05,1.41 -0.08,2.13l-0.02 0.35c-0.12,2.33 -0.17,4.74 0.93,6.78l0.13 0.15 0.1 0.18c0.38,0.46 0.54,1.09 0.8,1.62 0.27,0.54 0.81,1.03 1.24,1.44 0.97,0.92 2.03,1.72 2.84,2.79 0.38,0.5 1.37,0.18 1.08,-0.49 -0.53,-1.22 -1.35,-2.1 -2.34,-2.97 -0.53,-0.46 -1.03,-0.93 -1.51,-1.45 -0.23,-0.25 -0.4,-0.53 -0.56,-0.8 0.56,0 1.12,-0.04 1.69,-0.07 0.72,-0.04 0.68,-1.07 -0.03,-1.11 -0.8,-0.04 -1.58,-0.1 -2.36,-0.02 -0.05,-0.37 -0.1,-0.75 -0.14,-1.13 0.75,-0.09 1.6,0 2.33,0 0.84,-0 1.66,-0.01 2.49,-0.11 0.63,-0.09 0.88,-1.13 0.13,-1.23 -0.75,-0.09 -1.5,-0.13 -2.25,-0.13 -0.9,0 -1.93,0.13 -2.84,-0 -0.02,-0.26 -0.04,-0.52 -0.05,-0.78 0.69,0.03 1.4,-0.05 2.06,-0.05 1,0.01 1.96,-0 2.94,-0.12 0.63,-0.08 0.87,-1.11 0.13,-1.2 -0.92,-0.11 -1.81,-0.15 -2.74,-0.14 -0.78,0.01 -1.64,-0.1 -2.45,-0.05l-0.01 -0.49c1.47,0.09 3.03,-0.09 4.46,-0.18 0.38,0.02 0.55,-0.27 0.53,-0.56 0.01,-0.3 -0.17,-0.61 -0.56,-0.58 -1.43,-0.1 -2.99,-0.27 -4.45,-0.18 0,-0.25 0,-0.51 0,-0.77 0.5,0.04 1.01,0.01 1.51,0.01 1.11,0 2.2,0 3.3,-0.17 0.63,-0.09 0.89,-1.1 0.13,-1.22 -0.9,-0.14 -1.79,-0.19 -2.7,-0.19 -0.69,0.01 -1.5,-0.08 -2.24,-0.02 0,-0.25 0,-0.51 0,-0.76 3.03,0.22 6.17,-0.01 9.2,-0.1 0.73,-0.02 0.69,-1.1 -0.03,-1.12 -3.01,-0.09 -6.14,-0.31 -9.17,-0.1 0,-0.33 -0,-0.67 -0.01,-1 0.67,0.09 1.36,0.04 2.04,0.03 1.02,-0.02 2.04,-0.04 3.05,-0.14 0.77,-0.08 0.72,-1.1 -0.03,-1.18 -1.02,-0.1 -2.04,-0.12 -3.06,-0.14 -0.67,-0.01 -1.36,-0.06 -2.03,0.04 -0.01,-0.2 -0.02,-0.4 -0.02,-0.61 0.46,0.01 0.95,-0.04 1.32,-0.04 0.89,0 1.79,-0.03 2.67,-0.16 0.6,-0.09 0.85,-1.06 0.13,-1.16 -0.84,-0.12 -1.7,-0.18 -2.55,-0.18 -0.46,0 -1.09,-0.08 -1.66,-0.04l-0.05 -0.6c0.41,0.03 0.83,-0 1.21,0 0.7,0.01 1.37,-0.02 2.07,-0.13 0.59,-0.1 0.54,-1.07 -0.03,-1.16 -0.69,-0.11 -1.37,-0.13 -2.07,-0.13 -0.44,-0 -0.9,-0.03 -1.34,0.02 -0.03,-0.24 -0.06,-0.48 -0.1,-0.72l0.5 0.01c0.41,0.01 0.81,-0.03 1.21,-0.12 0.58,-0.13 0.52,-1.02 -0.03,-1.14 -0.4,-0.09 -0.81,-0.12 -1.21,-0.11 -0.24,0 -0.48,0 -0.71,0.04l-0.08 -0.17c-0.51,-1.19 -1.39,-2.12 -2.28,-3.05l-0.18 -0.18 0.35 -0.03c0.27,-0.04 0.49,-0.17 0.56,-0.45 0.07,-0.29 -0.11,-0.67 -0.43,-0.72 -0.27,-0.04 -0.55,-0.06 -0.83,-0.08l-0.44 -0 -0.45 0.1 -0.15 0.04c-0.22,-0.18 -0.45,-0.36 -0.67,-0.55 0.28,-0.03 0.55,-0.07 0.78,-0.1 0.26,-0.04 0.48,-0.17 0.55,-0.44 0.07,-0.29 -0.11,-0.67 -0.43,-0.71 -0.66,-0.09 -1.54,-0.26 -2.19,0 -0.2,-0.24 -0.36,-0.48 -0.48,-0.72l0.07 0c0.4,0 0.8,-0.04 1.19,-0.1 0.26,-0.03 0.48,-0.16 0.54,-0.43 0.07,-0.28 -0.11,-0.65 -0.42,-0.7 -0.4,-0.06 -0.8,-0.09 -1.2,-0.1 -0.32,-0.01 -0.69,-0.04 -1.01,0.05l-0.02 -0c-0.36,0.01 -0.61,-0.36 -0.79,-0.94l0.56 0c0.67,0.01 1.33,-0.06 1.99,-0.15 0.6,-0.09 0.84,-1.05 0.13,-1.16 -0.63,-0.09 -1.26,-0.17 -1.9,-0.17 -0.34,-0 -0.7,-0.02 -1.04,0.01 -0.02,-0.19 -0.04,-0.39 -0.05,-0.6l0.03 -0.01 0.4 0.03c0.2,0 0.41,-0.02 0.61,-0.03 0.4,-0.02 0.81,-0.06 1.21,-0.1 0.78,-0.07 0.72,-1.12 -0.03,-1.19 -0.4,-0.04 -0.81,-0.07 -1.22,-0.1 -0.24,-0.01 -0.83,0.07 -1.01,-0.02l-0.05 -0.02 -0 -0.41c0.4,0 0.81,-0.08 1.15,-0.12 0.26,-0.03 0.48,-0.17 0.54,-0.43 0.07,-0.27 -0.11,-0.66 -0.42,-0.69 -0.38,-0.04 -0.83,-0.13 -1.25,-0.13 0.04,-1.01 0.11,-1.86 0.16,-2.28l0.04 -0.14c0.14,-0.72 -0.89,-0.97 -1.1,-0.27 -0.29,0.99 -1.15,1.58 -1.73,2.35 -0.45,-0.73 -1.12,-1.42 -1.41,-1.71 -0.17,-0.18 -0.52,-0.29 -0.75,-0.18 -0.86,0.38 -1.22,1.02 -1.39,1.83 -0.44,-0 -0.84,0.19 -1.26,0.58 -0.39,0.37 -0.7,1.1 -0.61,1.65 0.07,0.48 0.79,0.82 1.04,0.25 0.21,-0.49 0.38,-1.44 1.05,-1.08 0.36,0.19 0.91,0.01 0.98,-0.43 0.05,-0.32 0.09,-0.77 0.27,-1.06 0.39,0.44 0.76,0.94 0.95,1.48 0.08,0.23 0.21,0.47 0.39,0.63 -0.11,0.62 -0.15,1.25 -0.18,1.88l-0.44 -0.02c-0.4,0 -0.86,-0.07 -1.21,0.15 -0.37,0.24 -0.33,0.75 0.02,0.98 0.32,0.2 0.74,0.14 1.1,0.14l0.49 -0.01 0 0.1c-0,0.21 -0.01,0.42 -0.01,0.64 -0.31,-0.02 -0.63,-0.04 -0.94,-0.06 -0.46,-0.02 -0.84,-0.06 -1.21,0.25 -0.22,0.19 -0.19,0.6 0.02,0.78 0.33,0.28 0.68,0.26 1.09,0.24 0.34,-0.02 0.69,-0.03 1.04,-0.06 -0.01,0.26 -0.01,0.52 -0.02,0.78 -0.35,-0.02 -0.71,-0.02 -1.06,-0.04 -0.52,-0.04 -1.12,-0.15 -1.59,0.12 -0.38,0.22 -0.34,0.79 0.02,1 0.42,0.24 0.98,0.15 1.45,0.12 0.38,-0.03 0.76,-0.03 1.14,-0.05 -0.01,0.2 -0.02,0.41 -0.03,0.61 -1.47,-0.12 -3.15,-0.23 -4.56,0.08 -0.55,0.12 -0.5,0.97 0.03,1.08 1.37,0.29 3.01,0.2 4.44,0.08 -0.03,0.33 -0.07,0.67 -0.11,1 -1.32,-0.1 -2.84,-0.23 -4.13,0.05 -0.54,0.12 -0.49,0.96 0.03,1.07 1.2,0.26 2.63,0.16 3.9,0.06 -0.06,0.31 -0.13,0.61 -0.21,0.91 -1.61,-0.11 -3.29,-0.19 -4.88,0.04 -0.57,0.09 -0.8,1 -0.12,1.1 1.51,0.23 3.08,0.18 4.61,0.09 -0.09,0.24 -0.18,0.47 -0.28,0.7l-0.02 0.1 -0.04 0.02c-0.33,0.33 -0.61,0.66 -0.84,1 -1.08,-0.6 -2.2,-0.6 -3,0.48 -0.44,0.6 -0.48,1.46 -1.13,1.92 -0.47,0.33 -1.01,0.49 -1.31,1.03 -0.23,0.42 -0.38,0.84 -0.5,1.3 -0.27,1.02 -1.01,0.7 -1.71,0.91 -1.2,0.36 -0.92,2.12 -1.01,3.01 -0.07,0.7 0.99,0.74 1.17,0.13z"/>
  <path class="fil0" d="M43.11 68.19c0.67,-0.92 0.82,-2.36 0.69,-3.47 -0.07,-0.54 -0.75,-0.76 -1.06,-0.26 -0.26,0.44 -0.3,0.93 -0.34,1.43 -0.05,0.6 -0.11,1.17 -0.26,1.77 -0.13,0.52 0.62,1.02 0.97,0.54z"/>
  <path class="fil0" d="M45.11 64.1c-0.08,0.42 -0.14,0.83 -0.19,1.26 -0.04,0.27 0.04,0.52 0.28,0.65 0.21,0.12 0.55,0.1 0.7,-0.11 0.2,-0.26 0.35,-0.52 0.38,-0.85 0.04,-0.35 -0.02,-0.64 -0.08,-0.98 -0.11,-0.56 -1,-0.5 -1.1,0.03z"/>
  <path class="fil0" d="M56.15 55.82c-0.34,1.41 -0.69,2.93 -0.49,4.38 0.15,1.11 1.12,1.82 1.32,2.94 0.09,0.52 0.87,0.54 1.09,0.12 0.51,-1.02 -0.08,-1.79 -0.71,-2.59 -1,-1.26 -0.12,-3.27 -0.1,-4.73 0.01,-0.63 -0.95,-0.73 -1.1,-0.12z"/>
  <path class="fil0" d="M37.72 75.98c2.01,-1.37 3.55,-3.11 5.11,-4.94 0.46,-0.09 0.91,-0.24 1.32,-0.36 0.78,-0.24 1.51,-0.41 2.24,0.04 0.55,0.33 1.04,0.63 1.67,0.81 0.63,0.19 1,-0.77 0.42,-1.07 -0.83,-0.42 -1.76,-1.24 -2.73,-1.27 -1.38,-0.05 -2.98,1.08 -4.28,0.59 -0.63,-0.24 -0.92,0.73 -0.41,1.05l0.18 0.09c-0.46,0.51 -0.87,1.07 -1.31,1.55 -0.9,0.96 -1.94,1.76 -2.92,2.63 -0.48,0.43 0.18,1.24 0.71,0.88z"/>
  <path class="fil0" d="M33.88 79.02c0.33,-0.14 0.59,-0.32 0.86,-0.55 0.23,-0.21 0.4,-0.46 0.6,-0.7 0.47,-0.57 -0.27,-1.25 -0.82,-0.78 -0.37,0.32 -0.73,0.67 -1.11,0.97 -0.21,0.16 -0.33,0.39 -0.25,0.66 0.08,0.28 0.43,0.51 0.72,0.39z"/>
  <path class="fil0" d="M49.74 79.14c0.79,-0.55 1.21,-1.49 1.54,-2.36 0.24,-0.64 -0.73,-0.93 -1.05,-0.41 -0.4,0.64 -0.71,1.33 -1.19,1.91 -0.38,0.47 0.15,1.25 0.7,0.86z"/>
  <path class="fil0" d="M84.66 79.39c-0.37,0.08 -0.51,0.56 -0.33,0.86 0.2,0.32 0.4,0.49 0.59,0.79l0.06 0.13c-3.31,-0.05 -6.62,-0.1 -9.93,-0.14 -0.18,-0.17 -0.4,-0.32 -0.6,-0.47 -0.37,-0.26 -0.73,-0.52 -1.1,-0.77 -0.5,-0.34 -1,0.33 -0.75,0.79l0.28 0.42c-2.24,-0.03 -4.49,-0.05 -6.74,-0.08 -0.23,-0.19 -0.44,-0.39 -0.63,-0.65 -0.41,-0.56 -0.78,-1.13 -1.22,-1.67 -0.41,-0.5 -1.2,0.17 -0.87,0.7 0.32,0.51 0.62,1.08 0.97,1.62 -2.91,-0.02 -5.82,-0.03 -8.73,-0.02 0,-0.35 -0.01,-0.7 -0.06,-1.03 -0.03,-0.25 -0.16,-0.46 -0.42,-0.52 -0.27,-0.07 -0.63,0.1 -0.67,0.4 -0.05,0.37 -0.08,0.77 -0.07,1.15 -4.01,0.02 -8.01,0.08 -12.01,0.2 0.99,-1.09 1.69,-2.69 2.5,-3.66 0.41,-0.49 -0.15,-1.26 -0.72,-0.89 -0.89,0.56 -1.55,1.41 -2.14,2.26 -0.3,0.44 -0.59,0.88 -0.93,1.29 -0.32,0.38 -0.7,0.69 -1,1.08 -0.63,0.02 -1.25,0.04 -1.88,0.07 -0.79,0.03 -0.74,1.17 0.03,1.21 18.25,0.73 36.67,0.14 54.93,-0.03 0.74,-0.01 0.71,-1.14 -0.03,-1.15 -2.19,-0.02 -4.39,-0.04 -6.58,-0.08 -0.04,-0.94 -1.02,-2 -1.95,-1.8z"/>
  <path class="fil0" d="M32.32 91.97c0.14,-0.64 0.11,-1.39 0.04,-2.05 -0.03,-0.27 -0.18,-0.5 -0.46,-0.57 -0.29,-0.07 -0.7,0.11 -0.74,0.44 -0.08,0.71 -0.12,1.5 0.03,2.2 0.12,0.57 1,0.52 1.12,-0.03z"/>
  <path class="fil0" d="M28.08 92.65c0.14,-0.65 0.12,-1.4 0.04,-2.05 -0.03,-0.27 -0.18,-0.5 -0.46,-0.57 -0.29,-0.07 -0.7,0.11 -0.73,0.44 -0.08,0.71 -0.12,1.5 0.03,2.21 0.12,0.57 1,0.52 1.12,-0.03z"/>
  <path class="fil0" d="M35.05 90.2c-0.08,0.71 -0.12,1.5 0.03,2.21 0.12,0.57 1,0.51 1.12,-0.03 0.14,-0.64 0.11,-1.39 0.04,-2.05 -0.03,-0.27 -0.18,-0.5 -0.46,-0.57 -0.29,-0.07 -0.7,0.11 -0.74,0.44z"/>
  <path class="fil0" d="M33.21 89.41c-0.03,0.77 -0.07,1.54 -0.01,2.3 0.06,0.75 1.08,0.7 1.14,-0.03 0.06,-0.77 0.03,-1.53 -0.01,-2.3 -0.03,-0.73 -1.09,-0.69 -1.13,0.02z"/>
  <path class="fil0" d="M38.82 89.75c-0.03,0.76 -0.07,1.53 -0.01,2.3 0.06,0.75 1.08,0.7 1.14,-0.03 0.06,-0.77 0.02,-1.53 -0.01,-2.3 -0.03,-0.73 -1.09,-0.69 -1.13,0.03z"/>
  <path class="fil0" d="M36.87 91.44l0 0.41c0.01,0.71 1.09,0.68 1.1,-0.03l0 -0.41c0.01,-0.72 -1.12,-0.69 -1.11,0.03z"/>
  <path class="fil0" d="M25.94 91.82l0 -0.41c0.01,-0.72 -1.12,-0.69 -1.11,0.03l0 0.41c0.01,0.71 1.09,0.68 1.1,-0.03z"/>
  <path class="fil0" d="M60.23 87.04c-4.59,-0.43 -9.73,-0.54 -14.31,0.04 -0.58,0.07 -0.8,1.02 -0.12,1.11 4.64,0.59 9.81,0.5 14.47,0.06 0.79,-0.08 0.73,-1.14 -0.03,-1.21z"/>
  <path class="fil0" d="M59.99 90.51c7.19,0.4 14.41,0.16 21.61,0.01 0.75,-0.02 0.71,-1.15 -0.03,-1.16 -7.2,-0.15 -14.41,-0.39 -21.61,0.01 -0.75,0.04 -0.7,1.11 0.03,1.14z"/>
  <path class="fil0" d="M79.89 86.19c-1.24,-0.14 -1.27,1.71 -0.17,1.59 5.86,-0.65 12.05,-0.13 17.95,-0.23 0.74,-0.02 0.71,-1.13 -0.03,-1.14 -5.83,-0.1 -11.96,0.43 -17.75,-0.21z"/>
  <path class="fil0" d="M99.83 85.1c2.39,0.11 4.76,0.11 7.16,0.03 0.77,-0.03 0.73,-1.16 -0.03,-1.18 -2.39,-0.09 -4.77,-0.09 -7.16,0.02 -0.74,0.04 -0.7,1.1 0.03,1.13z"/>
  <path class="fil0" d="M64.28 95.18c-0.74,0.04 -0.7,1.11 0.03,1.14 7.98,0.42 16.05,0.2 24.04,0.01 0.76,-0.02 0.72,-1.15 -0.03,-1.16 -7.98,-0.19 -16.06,-0.41 -24.04,0.01z"/>
  <path class="fil0" d="M76.17 99.89c-6.59,-0.23 -13.41,-0.61 -19.98,0.02 -0.74,0.07 -0.69,1.06 0.03,1.13 6.58,0.63 13.39,0.25 19.99,0.02 0.76,-0.03 0.72,-1.15 -0.03,-1.17z"/>
  <path class="fil0" d="M59.45 96.07c0.78,-0.03 0.74,-1.17 -0.03,-1.19 -4.42,-0.14 -9.11,-0.58 -13.5,0.04 -0.57,0.08 -0.8,1 -0.12,1.1 4.45,0.63 9.18,0.2 13.65,0.05z"/>
  <path class="fil0" d="M56.07 92.67c0.74,-0.02 0.71,-1.13 -0.03,-1.14 -4.31,-0.1 -8.82,-0.47 -13.1,-0 -0.75,0.08 -0.7,1.07 0.03,1.15 4.28,0.46 8.79,0.09 13.1,-0.01z"/>
  <path class="fil0" d="M66.15 86.12c1.51,-0.36 3.27,-0.15 4.82,-0.15 1.47,0 2.94,0 4.42,-0.06 0.75,-0.03 0.71,-1.12 -0.03,-1.15 -1.47,-0.06 -2.94,-0.06 -4.41,-0.06 -1.55,0 -3.31,0.21 -4.83,-0.15 -1.27,-0.31 -1.3,1.88 0.04,1.56z"/>
  <path class="fil0" d="M30.16 92.38c0.13,-0.46 0.07,-1.04 0.04,-1.51 -0.06,-0.79 -1.16,-0.74 -1.21,0.03 -0.03,0.48 -0.08,1.04 0.05,1.5 0.16,0.57 0.97,0.51 1.12,-0.03z"/>
  <path class="fil0" d="M39.98 103.7c0.3,0.07 0.69,-0.12 0.74,-0.44 0.12,-0.81 0.02,-1.65 -0.04,-2.46 -0.05,-0.73 -1.06,-0.68 -1.11,0.03 -0.06,0.75 -0.17,1.55 -0.06,2.3 0.04,0.27 0.18,0.51 0.46,0.58z"/>
  <path class="fil0" d="M41.6 99.21c-0.21,1.4 -0.21,2.93 -0.11,4.34 0.06,0.86 1.26,0.8 1.32,-0.03 0.1,-1.35 0.11,-2.84 -0.09,-4.18 -0.09,-0.57 -1.01,-0.81 -1.11,-0.12z"/>
  <path class="fil0" d="M44.78 103.77c0.03,-0.31 -0.03,-0.64 -0.03,-0.96 -0,-0.4 -0.01,-0.8 -0.01,-1.2 -0.01,-0.72 -1.11,-0.69 -1.11,0.03 -0,0.35 -0.01,0.71 -0.01,1.06 -0,0.36 -0.07,0.75 -0.03,1.1 0.07,0.79 1.13,0.73 1.2,-0.03z"/>
  <path class="fil0" d="M45.65 99.93c-0.17,1.39 -0.13,2.81 -0.04,4.2 0.05,0.76 1.12,0.72 1.17,-0.03 0.09,-1.34 0.14,-2.72 -0.02,-4.05 -0.07,-0.58 -1.03,-0.8 -1.11,-0.12z"/>
  <path class="fil0" d="M48.23 100.77c-0.28,0.01 -0.56,0.2 -0.56,0.56 -0,1.04 -0.01,2.08 -0.01,3.12l0 0.17c0,0.38 0.28,0.55 0.56,0.54 0.27,0 0.52,-0.17 0.56,-0.49l0 -0.02 0.02 -0.04c0,-1.1 -0.01,-2.2 -0.01,-3.29 0,-0.36 -0.28,-0.54 -0.56,-0.53z"/>
  <polygon class="fil0" points="48.8,104.59 48.78,104.66 "/>
  <path class="fil0" d="M51.08 103.3c-0.06,-0.74 -1.06,-0.69 -1.12,0.02 -0.06,0.67 -0.24,1.42 0.05,2.06 0.19,0.41 0.86,0.36 1.04,-0.03 0.29,-0.62 0.09,-1.4 0.03,-2.06z"/>
  <path class="fil0" d="M65.77 104.19c-3.97,-0.24 -8.52,-0.75 -12.44,0.06 -0.55,0.12 -0.5,0.98 0.03,1.09 3.91,0.81 8.47,0.29 12.44,0.05 0.78,-0.04 0.74,-1.16 -0.03,-1.2z"/>
  <path class="fil0" d="M72.25 103.69c-0.84,-0.08 -1.69,0.06 -2.49,-0.22 -0.5,-0.17 -1.02,0.31 -1,0.8 0.01,0.51 0.54,0.93 1.04,0.76 0.79,-0.27 1.65,-0.13 2.48,-0.21 0.73,-0.07 0.69,-1.06 -0.03,-1.13z"/>
  <path class="fil0" d="M31.34 96.16c3.19,0.45 6.66,0.15 9.87,0.03 0.75,-0.03 0.71,-1.13 -0.03,-1.16 -3.15,-0.12 -6.6,-0.42 -9.72,0.01 -0.58,0.08 -0.81,1.02 -0.12,1.12z"/>
  <path class="fil0" d="M39.71 98.15c-1.48,-0.08 -2.98,-0.18 -4.46,0 -0.58,0.07 -0.8,1.02 -0.12,1.11 1.53,0.19 3.07,0.09 4.61,0.02 0.73,-0.04 0.69,-1.09 -0.03,-1.13z"/>
  <path class="fil0" d="M91.83 89.11c-2.2,-0.07 -4.6,-0.38 -6.77,0.02 -0.55,0.1 -0.5,1 0.03,1.09 2.17,0.4 4.57,0.08 6.77,0.01 0.73,-0.02 0.69,-1.09 -0.02,-1.11z"/>
  <path class="fil0" d="M24.51 93.29c-2.07,-0.08 -4.3,-0.3 -6.35,0 -0.57,0.08 -0.8,1 -0.12,1.11 2.11,0.31 4.37,0.1 6.5,0.02 0.73,-0.03 0.7,-1.1 -0.03,-1.13z"/>
  <path class="fil0" d="M36.49 87.26c1.13,0.03 2.25,0.07 3.38,0.01 0.74,-0.04 0.69,-1.09 -0.03,-1.13 -1.13,-0.06 -2.25,-0.03 -3.38,0.01 -0.72,0.02 -0.68,1.09 0.03,1.11z"/>
  <path class="fil0" d="M83.5 100.62c0.57,-0.1 0.52,-1.03 -0.03,-1.12 -1.18,-0.2 -2.48,-0.08 -3.67,0.01 -0.72,0.06 -0.67,1.05 0.03,1.1 1.19,0.09 2.48,0.2 3.66,0z"/>
  <path class="fil0" d="M97.24 73.79c1.71,1.16 5.16,1.42 6.68,-0.24 0.37,-0.41 0.09,-1.11 -0.48,-1.09 -0.89,0.04 -1.7,0.46 -2.59,0.57 -1.08,0.13 -2.16,-0.03 -3.2,-0.3 -0.66,-0.17 -0.92,0.71 -0.41,1.06z"/>
  <path class="fil0" d="M22.86 53.57c-1.25,-0.15 -2.51,-0.26 -3.78,-0.36 -0.83,-0.07 -1.66,-0.16 -2.49,-0.3l-0.19 -0.04 0.5 -0.41c1.47,-1.03 3.86,-1.7 5.64,-1.19l0.19 0.1c0.93,0.33 1.92,0.78 2.48,1.63 0.59,0.9 -2.09,0.59 -2.36,0.56zm0.17 -3.36l-0.23 -0.02c-2.35,-0.73 -5.43,0.23 -7.22,1.78 -2.26,1.96 1.88,2.36 2.94,2.47 1.26,0.13 2.53,0.19 3.79,0.36 1.21,0.17 2.47,0.37 3.6,-0.25 0.86,-0.47 0.81,-1.48 0.42,-2.23 -0.61,-1.15 -2.13,-1.78 -3.3,-2.12z"/>
  <path class="fil0" d="M31.65 47.22c-0.85,-0.57 -1.94,-0.86 -2.88,-1.18 -0.64,-0.21 -1.29,-0.41 -1.9,-0.7l-0.07 -0.03c0.35,-0.2 0.85,-0.25 1.21,-0.3 0.98,0.13 1.95,0.27 2.88,0.59 0.41,0.14 0.9,0.36 1.16,0.72 0.22,0.29 -0.1,0.64 -0.4,0.9zm-3.61 -3.36l-0.05 0.01c-1.39,-0.01 -3.85,1.27 -1.87,2.51 1.53,0.95 3.72,0.9 5.08,2.13 0.2,0.18 0.56,0.26 0.79,0.08 1.17,-0.89 2.04,-2.25 0.72,-3.44 -1.13,-1.02 -3.21,-1.43 -4.68,-1.29z"/>
  <path class="fil0" d="M95.31 59.58c-1.04,0.59 -2.05,1.22 -3.18,1.62 -1.68,0.59 -2.95,-0.66 -4.37,-1.2 -1.99,-0.75 -3.55,-0.36 -5.26,0.83 -0.6,0.41 -0.05,1.3 0.59,0.96 1.84,-0.98 3.05,-1.18 4.92,-0.16 0.98,0.53 1.83,0.91 2.94,1.05 1.86,0.23 3.6,-1.02 4.99,-2.07 0.61,-0.46 0.06,-1.41 -0.63,-1.02z"/>
 </g>
</svg>
