
<svg xmlns="http://www.w3.org/2000/svg" xml:space="preserve" width="0.747335in" height="0.747327in" version="1.1" style="shape-rendering:geometricPrecision; text-rendering:geometricPrecision; image-rendering:optimizeQuality; fill-rule:evenodd; clip-rule:evenodd"
viewBox="0 0 74.97 74.97"
 xmlns:xlink="http://www.w3.org/1999/xlink"
 xmlns:xodm="http://www.corel.com/coreldraw/odm/2003">
 <defs>
  <style type="text/css">
   <![CDATA[
    .fil0 {fill:black;fill-rule:nonzero}
   ]]>
  </style>
 </defs>
 <g id="Layer_x0020_1">
  <metadata id="CorelCorpID_0Corel-Layer"/>
  <path class="fil0" d="M35.78 32.09c0,-0.15 0.01,-0.3 0.01,-0.44 0.37,0.03 0.76,-0 1.12,-0.01 0.15,-0 0.29,-0.01 0.44,-0.01 -0.01,0.16 -0.02,0.32 -0.04,0.48 -0.51,-0.03 -1.03,-0.05 -1.54,-0.01zm0.65 1.18c-0.22,0 -0.45,-0.01 -0.68,0.01 0,-0.15 0.01,-0.29 0.01,-0.44 0.5,0.04 1,0.03 1.5,-0 -0.01,0.16 -0.02,0.32 -0.03,0.49 -0.26,-0.05 -0.53,-0.06 -0.8,-0.06zm-0.03 1.33c-0.2,0 -0.45,-0.02 -0.68,-0.01 0,-0.16 0.01,-0.31 0.01,-0.47 0.24,0.03 0.49,0.01 0.72,0.02 0.24,0 0.48,-0 0.72,-0.05 -0.01,0.19 -0.03,0.37 -0.04,0.56 -0.24,-0.03 -0.48,-0.05 -0.73,-0.05zm-0.72 1.52c0.01,-0.22 0.01,-0.44 0.02,-0.66 0.22,0.01 0.45,-0.01 0.63,-0.01 0.25,0 0.5,-0.02 0.75,-0.04 -0.02,0.25 -0.04,0.5 -0.05,0.75 -0.44,-0.04 -0.9,-0.06 -1.34,-0.03zm-0.04 1.28c0,-0.17 0.01,-0.34 0.02,-0.5 0.44,0.03 0.88,0.01 1.31,-0.03 -0.01,0.18 -0.03,0.37 -0.04,0.55 -0.42,-0.04 -0.86,-0.05 -1.29,-0.02zm0.48 1.39c-0.17,-0 -0.34,-0.01 -0.52,-0.01 0.01,-0.2 0.01,-0.4 0.02,-0.61 0.42,0.03 0.85,0.03 1.26,-0.01 -0.02,0.22 -0.03,0.43 -0.05,0.65 -0.24,-0.01 -0.48,-0.02 -0.72,-0.02zm-0.55 1.3c0,-0.16 0.01,-0.32 0.01,-0.48 0.19,0.01 0.38,-0 0.56,-0.01 0.21,-0 0.43,-0.01 0.64,-0.02 -0.01,0.18 -0.02,0.36 -0.04,0.54 -0.38,-0.04 -0.79,-0.06 -1.18,-0.03zm0.58 1.29c-0.2,0.01 -0.41,-0.01 -0.62,0.02 0.01,-0.18 0.01,-0.36 0.02,-0.54 0.38,0.04 0.78,0.02 1.15,-0.02 -0.01,0.19 -0.02,0.37 -0.04,0.56 -0.17,-0.02 -0.34,-0.02 -0.51,-0.02zm-0.66 1.43c0,-0.18 0.01,-0.36 0.02,-0.54 0.19,0.03 0.39,0.02 0.57,0.02 0.17,0 0.35,0.01 0.52,0 -0.01,0.16 -0.02,0.33 -0.04,0.49 -0.35,-0.04 -0.72,-0.01 -1.07,0.02zm0.41 1.26c-0.14,-0.01 -0.3,-0.02 -0.45,-0.01 0,-0.16 0.01,-0.32 0.01,-0.48 0.34,0.04 0.7,0.07 1.04,0.04 -0.01,0.16 -0.02,0.33 -0.04,0.5 -0.19,-0.02 -0.38,-0.03 -0.57,-0.04zm-0.47 1.29l-0.02 0.01c0.01,-0.16 0.01,-0.32 0.01,-0.48 0.14,0.01 0.29,0 0.42,-0.01 0.19,-0.01 0.39,-0.02 0.58,-0.04 -0.01,0.17 -0.02,0.34 -0.04,0.51 -0.32,-0.01 -0.64,-0.01 -0.96,0.01zm0.83 1.86c-0.01,0.16 -0.02,0.33 -0.03,0.49 -0.2,-0.02 -0.39,-0.03 -0.59,-0.03l-0.29 -0c0.01,-0.15 0.01,-0.3 0.01,-0.45 0.29,0.04 0.61,0.02 0.9,-0zm-0.88 -0.74c0,-0.15 0.01,-0.3 0.01,-0.45l0.05 0.01c0.3,0.03 0.6,0.03 0.89,0.02 -0.01,0.14 -0.02,0.28 -0.03,0.43 -0.3,-0.02 -0.63,-0.04 -0.93,-0.01zm5.16 -0.05c-0.03,1.13 -0.05,2.27 -0.06,3.41 -0.19,-0.02 -0.38,-0.02 -0.57,-0.02 -0.16,0 -0.32,-0 -0.48,0.01 -0.03,-1.16 -0.06,-2.33 -0.09,-3.49 0.39,0.05 0.79,0.08 1.2,0.09zm29.48 -4.09c1.1,0.27 2.44,0.17 3.6,0.07 -0.02,0.17 -0.05,0.33 -0.07,0.5 -0.71,-0.05 -1.41,-0.05 -2.12,-0.04 -0.88,0 -1.81,-0.08 -2.68,0.11 -0.2,0.04 -0.27,0.23 -0.25,0.4 -0.13,1.14 -0.2,2.3 -0.23,3.46 -0.53,-0.04 -1.06,-0.03 -1.59,-0.02 -0.49,0 -1.01,-0.04 -1.51,0.03 0.01,-1.55 0.01,-3.1 -0.11,-4.62 0.1,-0.21 0.05,-0.48 -0.24,-0.52 -1.15,-0.16 -2.3,-0.12 -3.45,-0.1l-0.09 0.01c-0.49,0.02 -0.98,0.08 -1.48,0.11 -0.32,-0.16 -0.81,-0.01 -0.75,0.43 0.27,1.86 0.15,3.84 0.08,5.76 -0.38,-0.06 -0.81,-0.07 -1.18,0.01 -0,-0.24 -0,-0.48 -0,-0.72 0.01,-3.04 0.15,-6.16 -0.06,-9.2l0 -0.01 -0 -0 -0.03 -0.13 -0.02 -0.04 -0.06 -0.08 -0.01 -0.01 -0.15 -0.09c-0.52,-0.16 -1.09,-0.08 -1.63,-0.08 -0.67,0 -1.36,-0.03 -2.02,0.12 -0.15,0.03 -0.22,0.14 -0.23,0.27l-0.02 0.07c-0.14,2.24 -0.09,4.5 -0.08,6.74 -0.38,-0.1 -0.84,-0.15 -1.27,-0.1 -0.02,-1.37 -0.06,-2.73 -0.15,-4.08 0,-0.17 -0.09,-0.35 -0.28,-0.38 -0.54,-0.1 -1.19,-0.14 -1.72,0.03 -0.16,0.05 -0.23,0.18 -0.24,0.31l-0.01 0.03c-0.14,2.47 -0.15,5.03 -0.03,7.51l-0.24 0.23c-0.12,0.12 -0.23,0.25 -0.34,0.39l-0.08 0.23 -0.01 0.04c-0.02,0.39 -0.02,0.79 -0.03,1.19 -0.17,-0.02 -0.33,-0.03 -0.49,-0.03 -0.28,0 -0.57,-0.02 -0.83,0.12 -0.23,0.13 -0.21,0.48 0.01,0.6 0.22,0.13 0.49,0.11 0.74,0.11 0.18,0 0.36,-0.01 0.55,-0.02 -0.02,1.88 0.01,3.76 0.05,5.64 -0.2,0 -0.39,0 -0.59,0.01 0.01,-0.28 0,-0.57 -0.01,-0.86 -0.02,-0.48 0.03,-1 -0.04,-1.49 0.02,-0.18 -0.07,-0.38 -0.27,-0.42 -0.21,-0.05 -0.42,-0.05 -0.64,-0.07l-0.11 -0.01c0.03,-1.67 0.08,-3.35 -0.01,-5.02l-0.04 -0.16c-0.02,-0.14 -0.11,-0.28 -0.27,-0.31 -0.23,-0.04 -0.46,-0.08 -0.7,-0.08 -0.3,0.01 -0.66,-0 -0.89,0.2l-0.09 0.26c-0.08,0.78 -0.05,1.57 -0.02,2.35l-0.33 -0.01c-0.12,0 -0.25,-0 -0.37,-0.01 -0.02,-0.25 -0.04,-0.54 0.04,-0.7 0.3,-0.58 -0.32,-0.81 -0.7,-0.66l-0.2 -0.01 -0.17 0c0.02,-0.45 0.02,-0.9 0.01,-1.35 -0.01,-0.66 -0.15,-1.57 0.09,-2.19 0.2,-0.53 -0.46,-0.72 -0.81,-0.52 -1.25,-0.09 -2.57,-0.15 -3.81,0.01 -0.12,-4.79 -0.24,-9.57 -0.4,-14.36 -0.01,-0.19 -0.13,-0.29 -0.27,-0.32l-0.08 -0.03c-0.49,-0.07 -0.98,-0.05 -1.47,-0.08 -0.56,-0.03 -1.2,-0.1 -1.75,0.06 -0.21,0.06 -0.29,0.25 -0.26,0.43 -0.21,5.98 -0.34,11.96 -0.51,17.94 -0.01,0.46 0.7,0.44 0.72,-0.02 0.01,-0.23 0.01,-0.46 0.02,-0.69l0.23 0c0.21,0 0.41,-0.01 0.62,-0.02 -0.04,0.53 -0.07,1.06 -0.11,1.6 -0.03,0.46 0.69,0.44 0.72,-0.02 0.41,-5.86 0.9,-12.33 1.29,-18.44l0.16 -0.01c0.13,6.16 0.33,12.31 0.5,18.47l0.02 0.09c-0.04,0.15 0.03,0.34 0.17,0.41 0.32,0.15 0.67,0.13 1.02,0.13 0.19,0 0.37,-0.01 0.55,-0.02 0.01,0.64 0.02,1.28 0.05,1.92 0.02,0.48 0.71,0.45 0.73,-0.02 0.1,-2.03 0.05,-4.09 -0,-6.13 0.6,-0.01 1.19,-0.04 1.78,-0.08 0.1,0.51 0.01,1.14 0.01,1.63 0,0.68 -0.02,1.35 0.03,2.03l0.08 0.2 0.21 0.16 0.02 0 0.06 0.02 0.15 0.03c0.15,0.02 0.29,0.02 0.44,0.02l0.04 -0c0.02,0.21 -0.03,0.52 -0.03,0.67 0,0.3 0,0.6 0,0.9 -0.89,0.47 -1.75,1.16 -2.5,1.8l-0.1 0.27c-0.16,0.79 -0.05,1.71 -0,2.51l0.01 0.05c-1.17,0.01 -2.34,0.01 -3.51,0.01l-0.04 -0c0.06,-1.63 0.16,-3.36 0.01,-4.99 0.03,-0.13 -0.01,-0.29 -0.11,-0.38l-0.22 -0.11c-0.32,-0.09 -0.7,-0.03 -1.02,-0.02 -0.56,0.01 -1.13,-0 -1.69,0.07l-0.02 0.01c-0.18,-0.01 -0.36,0.11 -0.38,0.34 -0.1,1.61 -0.25,3.44 -0.07,5.08 -1.87,-0.01 -3.73,-0.02 -5.6,-0.03 0.24,-1.89 0.12,-3.87 -0.03,-5.76 0.19,0 0.38,-0.01 0.56,-0.02 0.42,-0.01 0.83,-0.03 1.25,-0.05 0.46,-0.03 0.44,-0.68 -0.02,-0.71 -0.42,-0.03 -0.83,-0.04 -1.25,-0.05 -0.39,-0.01 -0.8,-0.05 -1.16,0.07 -0.25,0.09 -0.3,0.35 -0.18,0.53 -0.16,1.96 -0.32,4.03 -0.06,5.99 -0.31,-0 -0.62,-0 -0.93,-0 0.08,-1.93 0.03,-3.88 0.04,-5.81 0.01,-2.25 0.22,-4.61 -0.03,-6.85 0.23,-0.17 0.46,-0.35 0.68,-0.54 0.17,-0.14 0.36,-0.28 0.53,-0.43 0.16,0.16 0.35,0.31 0.51,0.44 0.22,0.19 0.45,0.37 0.7,0.54 -0.17,1.81 -0.01,3.74 0.02,5.55 0.01,0.45 0.7,0.43 0.7,-0.02 0.02,-1.33 0.11,-2.74 0.09,-4.11 0.86,0.09 1.75,0.09 2.61,0.02 -0.16,1.43 -0.1,2.99 -0,4.43 -0.34,0.01 -0.67,0.04 -1,0.1 -0.35,0.06 -0.32,0.63 0.02,0.68 1.04,0.17 2.11,0.08 3.16,0.05l0.18 -0.03c0.46,-0.05 0.43,-0.67 -0.01,-0.73l-0.19 -0.03c-0.45,-0.01 -0.9,-0.04 -1.35,-0.05 0.1,-1.51 0.17,-3.17 -0.03,-4.65 0.12,-0.21 0.01,-0.54 -0.32,-0.57 -0.99,-0.1 -2.08,-0.12 -3.09,-0.01 -0.01,-0.28 -0.03,-0.56 -0.06,-0.84l-0.07 -0.19 -0.03 -0.06 -0.02 -0.03 -0.21 -0.23c-0.17,-0.18 -0.37,-0.33 -0.55,-0.49 -0.26,-0.22 -0.53,-0.47 -0.84,-0.61l-0.03 -0.01 -0.07 -0.03 -0.31 0.06c-0.3,0.18 -0.58,0.45 -0.85,0.68 -0.23,0.2 -0.47,0.4 -0.69,0.61 -0.12,0.03 -0.21,0.11 -0.23,0.27 -0.26,2.15 -0.08,4.38 -0.06,6.54 0.02,2.11 -0.04,4.24 0.04,6.35 -0.68,-0.01 -1.36,-0.01 -2.03,-0.01 0.11,-2.66 0.24,-5.45 -0.01,-8.1l0.06 -0.12c0.04,-0.18 -0.07,-0.42 -0.27,-0.45 -0.16,-0.02 -0.31,-0.04 -0.46,-0.04l-0 -0.3 0.07 -0.28c0.01,-0.16 -0.08,-0.32 -0.29,-0.37 -0.38,-0.08 -0.74,-0.1 -1.13,-0.1 0.02,-1.09 0.08,-2.2 0.01,-3.28 0.47,0.05 0.98,0 1.43,0 0.45,0 0.9,-0 1.35,-0.03 -0.01,0.46 -0.04,0.93 -0.05,1.39l-0.01 0.03c-0.03,1.77 -0.04,3.55 0.04,5.33 0.02,0.48 0.71,0.45 0.73,-0.02 0.08,-1.77 0.07,-3.56 0.04,-5.33l-0 -0.03c-0.01,-0.55 -0.05,-1.1 -0.06,-1.65 0.07,-0.21 -0.06,-0.47 -0.35,-0.5 -0.57,-0.06 -1.14,-0.06 -1.72,-0.06 -0.61,-0 -1.3,-0.08 -1.89,0.1 -0.18,0.05 -0.25,0.2 -0.24,0.35 -0.12,1.24 -0.05,2.51 -0.03,3.76 -0.36,0.03 -0.72,0.07 -0.94,0.03 -0.38,-0.06 -0.52,0.27 -0.47,0.52l-0.02 0.33c-0.2,-0.01 -0.41,-0.02 -0.6,0.02l-0.24 0.22 -0.01 0.03 -0.01 0.03 -0 0.03 -0.02 0.07c-0.02,1.1 -0.06,2.21 -0.08,3.32 -0.42,-0.04 -0.85,-0.07 -1.27,-0.07 -0.47,-0 -1.06,-0.07 -1.58,-0 -0.01,-0.37 -0.03,-0.74 -0.05,-1.1l-0.1 -0.23 -0.01 -0.01 -0.06 -0.04 -0.19 -0.07c-0.89,-0.02 -1.83,-0.12 -2.72,-0.01 0,-0.94 -0.02,-1.87 -0.1,-2.79 0.01,-0.18 -0.11,-0.38 -0.36,-0.39 -1.05,-0.07 -2.12,-0.1 -3.17,-0.01l-0.21 -0.12c-0.3,-0.07 -0.67,0.17 -0.63,0.51 0.03,0.23 0.1,0.45 0.1,0.68 0,0.19 0,0.4 0.01,0.59 -0.14,-0.01 -0.28,-0.02 -0.42,-0.02 -0.42,0 -0.93,0.08 -1.33,-0.07 -0.54,-0.2 -0.72,0.48 -0.51,0.83 -0.03,0.26 -0.05,0.53 -0.07,0.8 -0.98,-0.08 -1.98,-0.02 -2.95,0.03l-0.15 0.03c-1.43,-3.88 -2.21,-8.06 -2.23,-12.43 3.88,0.28 7.87,0.09 11.75,-0.01 0.48,-0.01 0.45,-0.72 -0.02,-0.74 -3.88,-0.11 -7.85,-0.3 -11.73,-0.02 0.02,-0.87 0.06,-1.73 0.14,-2.58 1,0.07 2.05,-0.01 3.02,-0.07 0.48,-0.03 0.45,-0.71 -0.02,-0.74 -0.94,-0.06 -1.95,-0.14 -2.91,-0.08 0.12,-1.11 0.3,-2.2 0.52,-3.27 3.96,0.21 7.98,0.1 11.94,0 0.48,-0.01 0.46,-0.73 -0.02,-0.74 -3.9,-0.09 -7.86,-0.21 -11.76,-0.01 0.22,-0.95 0.47,-1.88 0.76,-2.81 3.6,0.36 7.33,0.1 10.94,0.1 3.99,0 7.99,-0.03 11.98,-0.12 0.48,-0.01 0.45,-0.72 -0.02,-0.73 -3.77,-0.08 -7.55,-0.11 -11.32,-0.12 -3.72,-0.01 -7.6,-0.28 -11.32,0.07 0.89,-2.61 2.07,-5.09 3.5,-7.4 2.41,0.28 4.92,0.05 7.34,0 0.46,-0.01 0.44,-0.7 -0.02,-0.71 -2.25,-0.04 -4.6,-0.25 -6.85,-0.04 2.53,-3.88 5.78,-7.25 9.55,-9.92l0 0c0.92,-0.35 2.35,-0.08 3.33,-0.09 1.03,0 2.05,0 3.08,-0.04 0.47,-0.02 0.45,-0.71 -0.02,-0.73 -0.9,-0.03 -1.79,-0.04 -2.69,-0.04 -0.73,-0 -1.68,0.13 -2.54,0.1 5.71,-3.72 12.53,-5.88 19.84,-5.88 11.93,0 22.53,5.75 29.19,14.63 -1.49,-0.04 -3,0 -4.49,0.05 -0.46,0.01 -0.43,0.69 0.02,0.7 1.67,0.05 3.37,0.1 5.05,0.03 1.79,2.52 3.26,5.28 4.37,8.22 -3.86,-0.21 -7.76,-0.08 -11.63,-0.08 -4.42,-0 -8.88,-0.14 -13.29,0.14 -0.47,0.03 -0.44,0.69 0.02,0.72 4.19,0.26 8.44,0.13 12.64,0.14 4.17,0.01 8.39,0.16 12.56,-0.09 0.21,0.61 0.41,1.23 0.59,1.85 -3.98,-0.13 -8.06,-0.25 -12.03,0.03 -0.46,0.04 -0.43,0.68 0.02,0.71 4.03,0.29 8.18,0.16 12.22,0.03 0.76,2.85 1.18,5.84 1.22,8.91 -1.48,-0.11 -3.09,-0.16 -4.53,0.05 -0.36,0.05 -0.51,0.64 -0.08,0.7 1.47,0.22 3.1,0.17 4.61,0.06 -0.01,1.28 -0.09,2.54 -0.23,3.79 -1.2,-0.11 -2.59,-0.22 -3.72,0.06 -0.35,0.08 -0.31,0.6 0.02,0.68zm-0.72 12.96c0.02,-1.65 0.03,-3.29 0.02,-4.94 -0,-2.18 0.13,-4.43 -0.07,-6.6 0.72,0.08 1.48,0.03 2.2,0.03 0.65,0 1.31,0 1.96,-0.03 -0.72,4.13 -2.13,8.02 -4.12,11.54zm-0.88 1.47l-0.22 -0.06c-1.05,-0.04 -2.1,-0.07 -3.15,-0.1l0 -0.03c0.16,-2.41 0.1,-4.83 0.1,-7.24 -0,-0.53 0,-1.06 0.01,-1.6 0.14,0.02 0.28,0.02 0.42,0.03 -0.18,2.24 -0.12,4.61 0.02,6.84 0.03,0.47 0.7,0.44 0.73,-0.02 0.13,-2.22 0.2,-4.59 0.02,-6.83l0.08 0c0.61,0.01 1.22,0.04 1.82,-0.01 -0.04,2.97 0.12,6 0.18,8.9l0.02 0.07 -0.03 0.04zm-7 -3.12c0,0.45 0.69,0.43 0.7,-0.02 0.04,-3.68 0.13,-7.38 0.01,-11.07 0.27,0.01 0.54,0.01 0.81,0.01 -0.14,4.06 -0.09,8.15 0,12.21 0.01,0.47 0.71,0.44 0.72,-0.02 0.1,-4.05 0.14,-8.15 0,-12.21 0.19,-0.01 0.39,-0.02 0.58,-0.04 -0.16,2.26 -0.07,4.58 -0.08,6.85 -0.01,2.4 -0.06,4.82 0.1,7.22 -1.44,-0.04 -2.87,-0.05 -4.31,-0.06 0.11,-2.17 0.05,-4.35 0.05,-6.52 0,-2.46 -0.3,-5.1 0.02,-7.55 0.42,0.03 0.84,0.08 1.27,0.1l0.09 0.01 0.03 0c-0.12,3.69 -0.03,7.41 0.01,11.09zm-2.93 -0.03c0.2,-0.01 0.4,-0.02 0.6,-0.03 0,0.98 0.02,1.96 0.07,2.93 -1.05,-0.01 -2.09,-0.01 -3.14,-0.01 0.01,-0.39 -0.03,-0.79 -0.03,-1.13 0,-0.95 0.06,-1.93 -0.06,-2.87l-0.08 -0.3c0.12,-2.46 0.02,-4.95 -0.01,-7.41 0.16,0.01 0.33,0.01 0.49,0.01 0.25,0 0.49,0.01 0.74,-0.01 0.01,0.81 0.02,1.62 0.02,2.42 0,2.58 -0.09,5.18 0.07,7.75 0.03,0.48 0.7,0.45 0.73,-0.02 0.03,-0.45 0.04,-0.9 0.06,-1.35 0.18,0.02 0.36,0.04 0.55,0.04zm0.1 -4.32c-0.2,0 -0.42,-0 -0.63,0.03 -0,-0.17 -0,-0.33 -0,-0.5 0.36,0.08 0.78,0.07 1.15,0.02 -0,0.16 -0.01,0.32 -0.01,0.48 -0.17,-0.02 -0.34,-0.02 -0.52,-0.02zm-0.62 1.12l-0 -0.29c0.17,0.02 0.35,0.02 0.52,0.02 0.21,0 0.41,0 0.61,-0.02l-0 0.29c-0.38,-0.02 -0.76,-0.03 -1.13,-0.01zm1.12 2.1l-0 0.32c-0.17,-0.01 -0.34,-0.02 -0.51,-0.02 -0.21,-0.01 -0.41,0.01 -0.61,0.03l0 -0.27 0.08 -0.03c0.2,-0.1 0.6,-0.02 0.82,-0.02l0.23 0zm-0.11 -0.82c-0.26,0 -0.72,0.09 -0.95,-0.03l-0.05 -0.02c0,-0.13 0,-0.27 0,-0.4 0.37,0.02 0.75,0.01 1.12,-0.01 -0,0.15 -0,0.3 -0,0.46l-0.12 0zm-4.48 -6.52c0,-2.25 0.06,-4.53 -0.06,-6.78 0.44,0.05 0.89,0.03 1.33,0.04 0.44,0 0.91,0.05 1.36,0.01 -0.11,1.84 -0.1,3.7 -0.07,5.56 -0.2,-0.01 -0.4,-0.01 -0.61,-0.01 -0.36,0 -0.72,-0.01 -1.07,0.07l-0.22 0.19 -0 0.01 -0.02 0.09 -0.01 0.05c-0.02,2.53 -0.13,5.07 -0.03,7.6 -0.22,-0.02 -0.45,-0.03 -0.67,-0.04 0.18,-2.25 0.06,-4.54 0.06,-6.79zm-0.8 6.78c-0.43,-0.01 -0.94,-0.06 -1.39,0.01 0.05,-2.11 0.09,-4.22 0.08,-6.33 0.42,0.05 0.88,-0 1.25,-0.1 -0.01,2.13 -0.11,4.3 0.06,6.42zm-3.68 -2.86l0.24 -0.25 0.22 -0.26 0.08 -0.12 0 0 0.01 -0 0.13 -0.27c0.12,-2.37 0.11,-4.83 -0,-7.21 0.26,0.03 0.52,0.02 0.78,-0 -0.27,4.72 -0.1,9.55 0.03,14.27 -0.01,0.23 0.18,0.34 0.36,0.34l0.1 -0.01c0.73,0.17 1.62,0.03 2.35,-0.02 0.47,-0.04 0.44,-0.7 -0.02,-0.73 -0.64,-0.05 -1.39,-0.15 -2.06,-0.07 0.02,-0.6 0.03,-1.2 0.05,-1.8 0.52,0.09 1.15,0 1.6,0 0.43,0 0.86,-0 1.29,-0.05 -0.05,0.67 -0.03,1.36 -0.03,2.03 -0,0.45 -0.08,1.05 -0.05,1.59 -1.69,0.01 -3.39,0.02 -5.08,0.03 0.05,-2.48 0.1,-4.98 0,-7.45zm-3.7 2.15c0.03,-0.74 0.06,-1.48 0.02,-2.22l0.21 0.01 0.36 -0.02c-0.07,1.61 -0.03,3.22 0,4.83 -0.67,-0.07 -1.36,-0.06 -2.03,-0.01 0.03,-0.48 0.02,-0.97 0.03,-1.45 0,-0.2 0,-0.4 0,-0.61l0.28 -0c0.27,0 0.53,0 0.79,-0.03 0.17,-0.02 0.31,-0.11 0.35,-0.28l-0.01 -0.21zm-4.1 2.97c0.62,-0.35 1.28,-0.75 1.86,-1.2 0,0.41 0.01,0.82 0.05,1.22 0.02,0.16 0.1,0.26 0.21,0.31l0.01 0.01 0.05 0.01 0.1 0.03c0.86,0.08 1.84,0.12 2.7,-0.01l0.2 -0.02 0.29 0.01 0.2 -0.01c-0.01,0.33 0.01,0.66 -0,0.98 -0.01,0.34 -0.03,0.68 -0.02,1.02 -1.9,0.02 -3.8,0.04 -5.7,0.06l0.01 -0.07c0.04,-0.74 0.14,-1.58 0.03,-2.33zm-5 2.41c-0.65,0 -1.3,-0 -1.95,-0 0.04,-0.67 -0.01,-1.36 -0.01,-2.02 -0,-0.9 0,-1.8 -0.03,-2.7 0.41,0.03 0.83,0.03 1.24,0.04 0.22,0.01 0.48,0.03 0.73,0.03 -0.12,1.53 -0.02,3.13 0.03,4.65zm-17.36 -8.1c0.19,-0.01 0.37,-0.02 0.55,-0.03 0.21,-0.01 0.32,-0.15 0.33,-0.31l0.01 -0.02c0.03,-0.17 0.04,-0.34 0.03,-0.5 0.37,0.01 0.83,0.07 1.18,0.09 0.29,0.01 0.57,0 0.84,-0.02 -0,0.2 0.01,0.39 0.02,0.58 0,0.28 0.27,0.38 0.47,0.31l0.19 0.02c-0.22,2.6 -0.1,5.32 0.01,7.92 -1.21,-0.01 -2.43,-0.01 -3.64,-0.02l0.01 -0.02c0.16,-2.66 0.07,-5.33 0,-7.99zm-0.8 6.44c0.01,0.52 0.03,1.04 0.06,1.56l0 0c-0.99,-0 -1.97,0 -2.96,0 0.02,-0.52 0.03,-1.04 0.04,-1.57 0.93,0.1 1.92,0.06 2.85,-0.01zm-2.83 -2.6c0.46,0.05 0.97,-0 1.38,-0 0.48,0 0.96,-0.03 1.44,-0.07 -0,0.18 -0,0.36 -0,0.54 -0.94,-0.02 -1.87,-0.01 -2.81,0.02 -0,-0.16 -0,-0.32 -0,-0.48zm0 1.2c0.94,0.03 1.87,0.04 2.81,0.02 0,0.2 0,0.39 0.01,0.59 -0.92,-0.07 -1.9,-0.1 -2.82,-0.01 0,-0.2 0.01,-0.4 0.01,-0.6zm-3.96 0.36c0.01,0.46 0.7,0.44 0.71,-0.02 0.02,-1.07 0.07,-2.17 0.09,-3.26 0.77,0.1 1.58,0.03 2.37,0 -0.11,1.95 -0.05,3.94 0,5.89 -0.83,0 -1.66,0.01 -2.5,0.02 0.01,-0.4 -0.01,-0.79 -0.05,-1.19 -0.05,-0.46 -0.65,-0.42 -0.7,0.02 -0.04,0.39 -0.07,0.79 -0.06,1.18 -0.85,0.01 -1.7,0.02 -2.55,0.03 0.27,-2.5 0.28,-5.36 -0.06,-7.78l-0.04 -0.16 0.02 -0.09c0.01,-0.23 0.01,-0.46 0.01,-0.69 0,-0.14 0.02,-0.27 0.05,-0.4 0.89,0.07 1.79,0.06 2.69,0.01 -0.15,2.12 -0.02,4.31 0.02,6.42zm52.3 7.96l-0.24 -0.09c-3.06,-0.24 -6.16,-0.09 -9.23,-0.09 -3.27,0.01 -6.56,-0.08 -9.82,0.09 -0.52,0.03 -0.49,0.77 0.02,0.79 3.26,0.18 6.56,0.09 9.83,0.09 2.91,0 5.85,0.14 8.76,-0.06 -6.65,6.96 -16.01,11.31 -26.37,11.31 -9.74,0 -18.6,-3.84 -25.15,-10.08 1.07,0.04 2.15,0.02 3.22,0.01 0.54,-0 0.52,-0.84 -0.02,-0.84 -1.32,-0.01 -2.66,-0.03 -3.98,0.06 -0.6,-0.61 -1.19,-1.24 -1.75,-1.9 2,0.17 4.17,0.15 6.09,-0.08 0.39,-0.05 0.53,-0.69 0.08,-0.74 -2.18,-0.26 -4.67,-0.28 -6.88,-0.03 -0.26,-0.32 -0.51,-0.64 -0.76,-0.97 2.26,-0.2 4.61,-0.01 6.86,0 2.71,0.01 5.42,0.01 8.13,0.01 5.17,0.01 10.44,0.27 15.59,-0.08 0.5,-0.03 0.46,-0.73 -0.02,-0.76 -4.94,-0.33 -9.97,-0.09 -14.92,-0.08 -2.48,0 -4.96,0.01 -7.45,0.01 -2.85,0 -5.86,0.3 -8.69,-0.04l-0.19 0.01c-0.21,-0.29 -0.41,-0.59 -0.61,-0.89 10.07,0.24 20.17,0.02 30.24,0.02 10.2,0 20.47,0.34 30.66,-0.06 -1.02,1.55 -2.16,3.02 -3.4,4.39zm-60.99 -11.07c0.92,0.05 1.86,0.11 2.78,0.03 0,0.85 0.05,1.71 0.11,2.51 0.04,0.48 0.7,0.45 0.73,-0.02 0.1,-1.31 0.18,-2.77 0.03,-4.1 0.31,-0.04 0.65,0 0.94,0 0.2,0 0.39,-0.01 0.58,-0.02 -0.15,1.48 -0.06,3 -0.05,4.48 0,0.95 -0.03,1.95 0.05,2.92 -0.75,0.01 -1.49,0.03 -2.24,0.04 -1.15,-1.84 -2.13,-3.8 -2.94,-5.84zm33.93 -50.83c-7.94,0 -15.31,2.48 -21.38,6.71l-0.04 0.03c-8.69,6.07 -14.7,15.73 -15.86,26.82 -0.14,0.11 -0.15,0.34 -0.05,0.49 -0.1,1.13 -0.16,2.28 -0.16,3.44 0,20.67 16.82,37.48 37.49,37.48 20.67,0 37.49,-16.81 37.49,-37.48 0,-20.67 -16.82,-37.49 -37.49,-37.49z"/>
  <path class="fil0" d="M19.94 63.01c-0.13,-0.08 -0.3,-0.05 -0.38,0.08l-1.55 2.35c-0.08,0.13 -0.05,0.3 0.08,0.38l1.05 0.69 0.15 0.04 0.05 -0.01 0.17 -0.12 0.03 -0.05c0.08,-0.13 0.05,-0.29 -0.08,-0.38l-0.77 -0.51 0.51 -0.77 0.52 0.34 0.2 0.04 0.17 -0.12 0.03 -0.05 -0.08 -0.38 -0.52 -0.34 0.34 -0.52 0.77 0.51 0.38 -0.07 0.03 -0.05 0.04 -0.21 -0.12 -0.17 -1.05 -0.69z"/>
  <path class="fil0" d="M25.15 65.99l-0.17 -0.13 -0.21 0.03 -1.03 0.62 -0.17 -1.2 -0.11 -0.18 -0.21 -0.05 -0.06 0.01c-0.15,0.03 -0.25,0.16 -0.22,0.31l0.21 1.44 -1.25 0.75 -0.12 0.17 0.04 0.21 0.03 0.05c0.08,0.12 0.24,0.16 0.37,0.09l1.04 -0.62 0.17 1.19c0.02,0.13 0.14,0.23 0.27,0.23l0.03 -0 0.06 -0.01 0.18 -0.11 0.05 -0.2 -0.21 -1.44 1.25 -0.75c0.13,-0.08 0.17,-0.24 0.1,-0.37l-0.03 -0.05z"/>
  <path class="fil0" d="M28.82 67.23l-0.44 -0.14c-0.31,-0.1 -0.59,-0.08 -0.83,0.05 -0.24,0.13 -0.41,0.35 -0.51,0.66l-0.36 1.17c-0.1,0.31 -0.08,0.59 0.04,0.83 0.13,0.24 0.35,0.41 0.66,0.51l0.44 0.14 0.08 0.01 0.26 -0.19 0.02 -0.06 -0.02 -0.21 -0.16 -0.14 -0.44 -0.14c-0.15,-0.05 -0.25,-0.12 -0.3,-0.21 -0.05,-0.09 -0.05,-0.22 -0,-0.37l0.37 -1.17c0.05,-0.15 0.12,-0.25 0.21,-0.3 0.1,-0.05 0.22,-0.05 0.37,-0l0.44 0.13 0.21 -0.02 0.13 -0.16 0.02 -0.06c0.04,-0.14 -0.04,-0.3 -0.18,-0.34z"/>
  <path class="fil0" d="M33.03 68.14l-1.24 -0.2 -0.2 0.05 -0.11 0.18 -0.46 2.78c-0.03,0.15 0.08,0.29 0.22,0.31l1.24 0.2 0.04 0 0.16 -0.05 0.11 -0.18 0.01 -0.06c0.02,-0.15 -0.08,-0.29 -0.22,-0.31l-0.91 -0.15 0.15 -0.92 0.61 0.1 0.2 -0.05 0.11 -0.18 0.01 -0.06c0.02,-0.15 -0.08,-0.29 -0.22,-0.31l-0.61 -0.1 0.1 -0.61 0.91 0.15 0.2 -0.05 0.11 -0.18 0.01 -0.06c0.02,-0.15 -0.08,-0.29 -0.22,-0.31z"/>
  <path class="fil0" d="M37.27 71.22l-0.92 -0.02 0.06 -2.46c0,-0.15 -0.11,-0.27 -0.26,-0.28l-0.06 0 -0.19 0.08 -0.08 0.19 -0.07 2.79c-0,0.15 0.12,0.27 0.27,0.28l1.26 0.03 0.01 0c0.15,0 0.27,-0.12 0.27,-0.26l0 -0.06 -0.08 -0.19 -0.19 -0.08z"/>
  <path class="fil0" d="M41.71 69.79c-0.17,-0.06 -0.32,-0.12 -0.45,-0.16l-0.32 -0.11c-0.22,-0.08 -0.26,-0.19 -0.27,-0.29l0.05 -0.21c0.03,-0.05 0.09,-0.11 0.25,-0.13 0.08,-0.01 0.24,-0 0.64,0.09l0.3 -0.14 0.03 -0.05 0.01 -0.21 -0.15 -0.16c-0.27,-0.12 -0.57,-0.16 -0.91,-0.12 -0.3,0.03 -0.53,0.17 -0.69,0.4 -0.13,0.19 -0.18,0.4 -0.15,0.62 0.03,0.28 0.17,0.52 0.41,0.67l0.03 0.02 0.19 0.09 0.18 0.07 0.48 0.18 0.2 0.08 0.11 0.06 0.1 0.19 -0.06 0.21 -0.23 0.13c-0.08,0 -0.28,-0.03 -0.8,-0.19l-0.32 0.12 -0.03 0.05 -0.02 0.21 0.13 0.16c0.16,0.09 0.34,0.16 0.55,0.2 0.14,0.03 0.28,0.04 0.4,0.04l0.18 -0.01c0.28,-0.03 0.5,-0.16 0.65,-0.39 0.13,-0.19 0.18,-0.4 0.16,-0.62 -0.03,-0.25 -0.16,-0.59 -0.66,-0.79z"/>
  <path class="fil0" d="M45.63 67.69c-0.04,-0.15 -0.19,-0.23 -0.33,-0.2l-0.06 0.02 -0.17 0.12 -0.03 0.21 0.69 2.67 0.26 0.2 0.07 -0.01 0.06 -0.02 0.17 -0.12 0.03 -0.21 -0.69 -2.67z"/>
  <path class="fil0" d="M49.33 66.91l0.25 -0.25 0.18 -0.04 0.18 0.04 0.25 0.25 0.47 1.13 0 0.36 -0.25 0.25 -0.18 0.04 -0.18 -0.04 -0.25 -0.26 -0.47 -1.13 -0 -0.36zm-0.56 0.59l0.47 1.13c0.11,0.27 0.31,0.47 0.58,0.58 0.13,0.06 0.27,0.08 0.41,0.08 0.14,0 0.28,-0.03 0.41,-0.08 0.27,-0.11 0.47,-0.31 0.58,-0.58 0.11,-0.27 0.11,-0.54 0,-0.82l-0.47 -1.13c-0.11,-0.27 -0.31,-0.47 -0.58,-0.58 -0.27,-0.11 -0.55,-0.11 -0.82,-0 -0.27,0.11 -0.47,0.31 -0.58,0.58 -0.11,0.27 -0.11,0.54 0,0.82z"/>
  <path class="fil0" d="M53.48 64.72l0.32 -0.1 0.03 0c0.08,0.01 0.2,0.04 0.33,0.24 0.12,0.21 0.09,0.33 0.06,0.4l-0.26 0.25 -0.37 0.21 -0.47 -0.8 0.37 -0.22zm0.36 2.64l0.17 0.13 0.07 0.01 0.14 -0.04 0.05 -0.03c0.13,-0.07 0.17,-0.24 0.1,-0.37l-0.47 -0.8 0.37 -0.21 0.01 -0.01 0.99 0.64 0.37 -0.07 0.03 -0.05 0.05 -0.21 -0.12 -0.18 -0.87 -0.57c0.19,-0.31 0.17,-0.67 -0.05,-1.05 -0.25,-0.42 -0.57,-0.52 -0.81,-0.54 -0.23,-0.01 -0.46,0.04 -0.69,0.18l-0.65 0.39c-0.13,0.08 -0.17,0.24 -0.1,0.37l1.42 2.4z"/>
  <path class="fil0" d="M18.92 11.67l-0.23 -0.13 -0.25 0.07 -0.07 0.06c-0.15,0.12 -0.17,0.33 -0.05,0.48l1.58 1.99 -2.87 -1.19 -0.34 0.05 -0.08 0.06c-0.15,0.12 -0.17,0.33 -0.05,0.48l2.51 3.16 0.23 0.13 0.04 0 0.21 -0.08 0.07 -0.05c0.15,-0.12 0.17,-0.33 0.05,-0.48l-1.58 -1.99 2.87 1.18 0.34 -0.05 0.08 -0.06c0.15,-0.12 0.17,-0.33 0.05,-0.48l-2.51 -3.16z"/>
  <path class="fil0" d="M26.05 12.5l-0.02 -0.26 -0.04 -0.08c-0.09,-0.17 -0.29,-0.23 -0.46,-0.15l-1.25 0.64 -0.67 -1.31 0.86 -0.44 0.17 -0.2 -0.02 -0.26 -0.04 -0.08c-0.09,-0.17 -0.29,-0.23 -0.46,-0.15l-0.86 0.44 -0.46 -0.91 1.25 -0.64 0.17 -0.2 -0.02 -0.26 -0.04 -0.08c-0.08,-0.17 -0.29,-0.23 -0.46,-0.15l-1.63 0.83 -0.17 0.2 0.02 0.26 1.87 3.67 0.3 0.19 0.15 -0.04 1.63 -0.83 0.17 -0.2z"/>
  <path class="fil0" d="M28.87 11.17l0.3 0.18 0.09 -0.01 0.09 -0.02c0.14,-0.04 0.24,-0.17 0.25,-0.31l0.08 -1.68 0.93 1.4c0.08,0.12 0.23,0.18 0.37,0.14l0.09 -0.02c0.15,-0.04 0.26,-0.19 0.25,-0.34l-0.21 -4.11 -0.11 -0.24 -0.25 -0.09 -0.09 0.01c-0.19,0.01 -0.33,0.17 -0.32,0.36l0.14 2.72 -0.89 -1.33c-0.08,-0.12 -0.23,-0.18 -0.37,-0.14 -0.14,0.04 -0.24,0.16 -0.25,0.31l-0.08 1.6 -1.28 -2.41c-0.09,-0.17 -0.29,-0.23 -0.46,-0.14l-0.08 0.04 -0.17 0.2 0.02 0.26 1.93 3.64z"/>
  <path class="fil0" d="M40.99 10.32l0.09 0.01 0.04 0 0.21 -0.07 0.13 -0.23 0.24 -1.88 1.56 -1.73c0.13,-0.14 0.11,-0.35 -0.02,-0.48l-0.07 -0.06 -0.25 -0.09 -0.24 0.11 -1.27 1.41 -0.87 -1.68 -0.2 -0.17 -0.26 0.02 -0.08 0.04c-0.17,0.09 -0.23,0.29 -0.14,0.46l1.07 2.07 -0.24 1.88c-0.02,0.19 0.11,0.36 0.29,0.38z"/>
  <path class="fil0" d="M46.16 9.95l0.58 -1.69c0.07,-0.2 0.19,-0.33 0.37,-0.42l0.32 -0.08 0.25 0.04c0.2,0.07 0.33,0.19 0.42,0.37 0.09,0.18 0.1,0.36 0.03,0.56l-0.58 1.69c-0.07,0.2 -0.19,0.33 -0.37,0.42l-0.31 0.08 -0.25 -0.04c-0.2,-0.07 -0.33,-0.19 -0.42,-0.37 -0.09,-0.19 -0.1,-0.36 -0.03,-0.56zm-0.66 0.9c0.18,0.37 0.47,0.63 0.87,0.76 0.17,0.06 0.33,0.08 0.5,0.08 0.22,0 0.44,-0.05 0.65,-0.15 0.37,-0.18 0.63,-0.47 0.76,-0.86l0.58 -1.69c0.13,-0.39 0.11,-0.78 -0.07,-1.15 -0.18,-0.37 -0.47,-0.63 -0.86,-0.76 -0.39,-0.13 -0.78,-0.11 -1.15,0.07 -0.37,0.18 -0.63,0.47 -0.76,0.86l-0.58 1.69c-0.13,0.39 -0.11,0.78 0.07,1.15z"/>
  <path class="fil0" d="M52.74 10.05l0.59 0.34c0.19,0.11 0.32,0.24 0.39,0.39 0.06,0.12 0.11,0.32 -0.08,0.64 -0.19,0.33 -0.39,0.38 -0.52,0.39l-0.04 0c-0.15,0 -0.32,-0.05 -0.5,-0.16l-0.59 -0.35 0.74 -1.27zm-2.39 3.22l0.08 0.05 0.26 0.03 0.21 -0.16 0.71 -1.21 0.59 0.34 0.05 0.03 -0.13 1.75c-0.01,0.18 0.12,0.34 0.3,0.36l0.09 0.01 0.04 0 0.22 -0.08 0.12 -0.24 0.12 -1.57 0.1 0c0.34,0 0.83,-0.13 1.21,-0.77 0.35,-0.59 0.25,-1.06 0.12,-1.36 -0.14,-0.29 -0.37,-0.54 -0.7,-0.73l-0.95 -0.56 -0.26 -0.04 -0.21 0.16 -2.07 3.51 -0.04 0.26 0.16 0.21z"/>
  <path class="fil0" d="M54.97 16.38l0.24 0.09 0.24 -0.11 0.95 -1.06 0.6 -0.06 -0.54 2.27c-0.04,0.18 0.07,0.36 0.25,0.41l0.09 0.02 0.09 0.01 0.17 -0.05 0.15 -0.21 0.6 -2.53 1.76 -0.18c0.19,-0.02 0.32,-0.19 0.3,-0.37l-0.01 -0.09 -0.12 -0.23 -0.25 -0.08 -2.32 0.24 0.98 -1.09 0.09 -0.25 -0.11 -0.23 -0.07 -0.06c-0.14,-0.13 -0.35,-0.11 -0.48,0.03l-2.69 3c-0.12,0.14 -0.11,0.35 0.03,0.48l0.06 0.06z"/>
  <path class="fil0" d="M51.38 60.13c-5.21,-0.45 -10.58,-0.14 -15.81,-0.12 -5.34,0.02 -10.73,-0.13 -16.06,0.13 -0.49,0.02 -0.46,0.73 0.02,0.75 5.34,0.26 10.72,0.1 16.07,0.12 5.23,0.02 10.59,0.32 15.8,-0.12 0.49,-0.04 0.46,-0.72 -0.02,-0.76z"/>
  <path class="fil0" d="M33.55 63.26c2.69,0 5.42,0.15 8.09,-0.1 0.51,-0.05 0.47,-0.73 -0.02,-0.77 -2.47,-0.23 -4.98,-0.1 -7.46,-0.1 -2.5,0 -5.15,-0.23 -7.62,0.13 -0.37,0.05 -0.51,0.65 -0.08,0.71 2.31,0.33 4.76,0.14 7.09,0.14z"/>
  <path class="fil0" d="M39.42 64.43c-2.99,0 -6.18,-0.3 -9.14,0.14 -0.37,0.06 -0.52,0.65 -0.08,0.71 2.8,0.42 5.8,0.15 8.63,0.15 3.16,0 6.34,0.08 9.5,-0.11 0.52,-0.03 0.49,-0.76 -0.02,-0.79 -2.96,-0.18 -5.93,-0.11 -8.89,-0.11z"/>
  <path class="fil0" d="M40.38 66.37c-1.23,-0.07 -2.52,-0.12 -3.74,0.02 -0.48,0.05 -0.44,0.68 0.02,0.73 1.22,0.13 2.51,0.09 3.74,0.02 0.5,-0.03 0.47,-0.73 -0.02,-0.76z"/>
  <path class="fil0" d="M55.38 60.74c2.66,0.37 5.59,0.24 8.26,0.05 0.51,-0.03 0.48,-0.75 -0.02,-0.78 -2.63,-0.18 -5.55,-0.33 -8.16,0.04 -0.36,0.05 -0.5,0.63 -0.08,0.69z"/>
  <polygon class="fil0" points="30.01,43.46 30.03,43.48 "/>
  <path class="fil0" d="M38.42 29.83c-0.25,-0.03 -0.51,-0.04 -0.76,-0.05 0.1,-0.85 0.04,-1.7 0.02,-2.55 -0.02,-1.08 0.08,-2.18 -0.1,-3.24 -0.06,-0.35 -0.63,-0.32 -0.68,0.02 -0.15,0.92 -0.08,1.87 -0.09,2.8 -0.01,0.98 -0.11,1.99 0.02,2.96 -0.29,-0 -0.57,0 -0.85,0.07 -0.35,0.08 -0.32,0.61 0.02,0.69 0.37,0.09 0.76,0.06 1.14,0.06 0.4,-0 0.81,0.01 1.21,-0.04 0.37,-0.05 0.52,-0.66 0.08,-0.71z"/>
  <path class="fil0" d="M42.59 44.38c-0.43,-0.04 -0.86,-0.05 -1.28,-0.07 -0.44,-0.02 -0.87,-0.05 -1.27,0.13 -0.24,0.11 -0.21,0.51 0.01,0.61 0.35,0.16 0.71,0.13 1.1,0.13 0.49,-0 0.98,-0.03 1.46,-0.07 0.48,-0.05 0.45,-0.69 -0.02,-0.73z"/>
  <path class="fil0" d="M67.2 44.26c-0.15,0.57 -0.15,1.21 -0.02,1.78 0.08,0.38 0.66,0.34 0.74,-0.02 0.13,-0.58 0.12,-1.22 -0.03,-1.79 -0.09,-0.35 -0.6,-0.31 -0.69,0.02z"/>
  <path class="fil0" d="M63.92 40.17c-0.61,-0.1 -1.2,-0.07 -1.82,-0.07 -0.41,0.01 -0.82,0.01 -1.23,0.03 -0.13,0.01 -0.25,0.02 -0.38,0.04 -0.19,0.03 -0.19,0.04 -0.11,0.03 -0.37,0.04 -0.5,0.65 -0.08,0.7 1.04,0.12 2.43,0.22 3.52,0.05 0.4,-0.06 0.56,-0.7 0.09,-0.77z"/>
  <path class="fil0" d="M63.29 32.01c-3.08,-0.04 -6.16,-0.08 -9.24,-0.08 -3.26,0 -6.65,0.27 -9.9,-0.06 -0.65,-0.06 -0.64,1.09 0.03,1.02 3.03,-0.31 6.19,-0.06 9.24,-0.06 3.3,0 6.6,-0.03 9.9,-0.08 0.48,-0.01 0.46,-0.74 -0.02,-0.74z"/>
  <path class="fil0" d="M51.89 20.27c-6.53,-0.07 -13.12,-0.3 -19.65,0.02 -0.47,0.02 -0.44,0.69 0.02,0.72 6.53,0.31 13.12,0.09 19.65,0.02 0.49,-0.01 0.47,-0.75 -0.02,-0.75z"/>
  <path class="fil0" d="M29.26 33.29c-7.46,-0.11 -15,-0.4 -22.46,0.02 -0.46,0.03 -0.43,0.68 0.02,0.7 7.45,0.42 15,0.13 22.46,0.02 0.48,-0.01 0.46,-0.73 -0.02,-0.74z"/>
  <path class="fil0" d="M36.68 17.76c2.97,0.23 6.04,0.12 9.02,0.01 0.47,-0.02 0.45,-0.71 -0.02,-0.73 -2.98,-0.11 -6.05,-0.22 -9.02,0.01 -0.46,0.03 -0.43,0.67 0.02,0.71z"/>
  <path class="fil0" d="M31.81 14.75c-1.78,-0.12 -3.58,-0.05 -5.36,0.01 -0.46,0.02 -0.44,0.69 0.02,0.71 1.78,0.06 3.58,0.13 5.36,0.01 0.48,-0.03 0.45,-0.7 -0.02,-0.73z"/>
  <path class="fil0" d="M36.2 12.24c-0.78,-0.09 -0.8,1.08 -0.11,1 2.64,-0.3 5.42,-0.08 8.08,-0.14 0.48,-0.01 0.45,-0.72 -0.02,-0.74 -2.61,-0.06 -5.36,0.16 -7.95,-0.13z"/>
  <path class="fil0" d="M32.09 3.47c4.33,0.22 8.68,0.07 13.01,0.01 0.47,-0.01 0.45,-0.72 -0.02,-0.73 -4.33,-0.06 -8.69,-0.21 -13.01,0.01 -0.46,0.02 -0.44,0.69 0.02,0.71z"/>
 </g>
</svg>
