
<svg xmlns="http://www.w3.org/2000/svg" xml:space="preserve" width="0.747335in" height="0.747346in" version="1.1" style="shape-rendering:geometricPrecision; text-rendering:geometricPrecision; image-rendering:optimizeQuality; fill-rule:evenodd; clip-rule:evenodd"
viewBox="0 0 168.83 168.84"
 xmlns:xlink="http://www.w3.org/1999/xlink"
 xmlns:xodm="http://www.corel.com/coreldraw/odm/2003">
 <defs>
  <style type="text/css">
   <![CDATA[
    .fil0 {fill:black;fill-rule:nonzero}
   ]]>
  </style>
 </defs>
 <g id="Layer_x0020_1">
  <metadata id="CorelCorpID_0Corel-Layer"/>
  <path class="fil0" d="M106.86 19.1c-0.26,0.82 -0.67,1.03 -0.94,1.11 -0.35,0.1 -0.77,0.08 -1.25,-0.07l-1.46 -0.46 1 -3.16 1.46 0.46c0.48,0.15 0.83,0.38 1.06,0.66 0.18,0.24 0.39,0.65 0.14,1.45zm-79.82 108.21c1.78,-1.23 3.32,-2.23 5.53,-2.45 0.88,-0.09 1.17,-1.52 0.18,-1.65 -1.17,-0.16 -2.32,-0.01 -3.37,0.36l-0.07 -0.09c-1.56,-1.83 -3.74,-2.96 -6.12,-3.48 -0.05,-1.48 -0.08,-2.97 -0.11,-4.45 0.88,0.74 1.95,1.31 2.91,1.43 0.97,0.13 1.38,-0.98 0.61,-1.54 -0.6,-0.44 -1.31,-0.72 -1.94,-1.12 -0.63,-0.39 -1.15,-0.93 -1.63,-1.48 -0.01,-0.62 -0.02,-1.24 -0.03,-1.87 1.95,1.96 4.7,3.24 7.3,3.86 1.16,0.28 1.51,-1.37 0.44,-1.76 -3.21,-1.2 -5.68,-2.54 -7.78,-5.13 -0.01,-0.59 -0.02,-1.17 -0.02,-1.75l0.25 0.29c1.78,1.95 4.43,3.11 7.06,3 1.1,-0.05 0.99,-1.54 -0.04,-1.65 -3.31,-0.34 -6.01,-2.34 -7.3,-5.27 -0,-0.59 -0.01,-1.19 -0.02,-1.78 2.1,2.48 5.54,4.24 8.24,4.46 1.12,0.09 1.13,-1.53 0.2,-1.84 -3.78,-1.29 -7.19,-3.22 -8.49,-7.1 -0.01,-1.21 -0.02,-2.41 -0.03,-3.62 0.43,0.47 0.89,0.91 1.35,1.31 1.43,1.22 4.07,3.3 6.08,3.13 0.69,-0.06 1.19,-0.97 0.58,-1.48 -1.25,-1.04 -3.05,-1.52 -4.42,-2.45 -1.65,-1.12 -2.98,-2.58 -3.64,-4.41 -0.01,-0.83 -0.02,-1.66 -0.03,-2.5 0.3,0.33 0.61,0.65 0.93,0.94 1.47,1.42 3.52,3.12 5.6,3.42 0.93,0.14 1.56,-1.11 0.63,-1.6 -2.66,-1.4 -5.8,-3.26 -7.23,-6.08 -0.01,-0.41 -0.02,-0.83 -0.03,-1.24l0.23 0.18c1.2,0.85 3.24,2.11 4.79,1.9 0.79,-0.11 1.14,-1.1 0.38,-1.56 -1.05,-0.63 -2.34,-0.83 -3.43,-1.45 -0.8,-0.46 -1.56,-1.06 -2.04,-1.84 -0.02,-0.57 -0.04,-1.14 -0.06,-1.7 1.16,1 2.63,1.71 3.86,1.97 0.86,0.19 1.47,-1.14 0.59,-1.5 -1.68,-0.68 -3.68,-1.78 -4.56,-3.46 -0.03,-0.66 -0.05,-1.31 -0.08,-1.96 0.76,0.66 1.76,1.35 2.74,1.34 0.7,-0.01 1.14,-0.97 0.56,-1.45 -0.64,-0.52 -1.43,-0.82 -2.08,-1.34 -0.53,-0.43 -0.98,-0.93 -1.4,-1.46l-0.05 -0.82 0.01 -0.04 -0.01 -0.07c-0.05,-0.93 -0.09,-1.87 -0.16,-2.81 -0.07,-1.04 -1.53,-0.98 -1.6,0.04 -0.07,1.05 -0.1,2.09 -0.14,3.14 -0.66,1.59 -2.11,2.24 -3.39,3.4 -0.6,0.55 0.08,1.71 0.85,1.38 0.84,-0.36 1.71,-0.87 2.47,-1.51 -0,0.37 -0.02,0.74 -0.02,1.11 -0.61,0.58 -1.14,1.22 -1.83,1.73 -0.95,0.71 -2.05,1.2 -3.06,1.81 -0.85,0.51 -0.2,1.66 0.67,1.48 1.37,-0.26 2.6,-1.02 3.7,-1.85l0.54 -0.43c0.01,0.69 0.01,1.39 0.02,2.08 -0.57,0.53 -1.12,1.08 -1.68,1.62 -1,0.94 -2.14,1.38 -3.4,1.86 -0.85,0.32 -0.7,1.62 0.26,1.6 1.94,-0.05 3.54,-1.18 4.89,-2.54 0.02,0.62 0.03,1.24 0.05,1.86 -0.7,0.81 -1.45,1.52 -2.38,2.13 -1.5,0.98 -3.26,1.45 -4.82,2.31 -0.68,0.38 -0.37,1.65 0.45,1.52 2.49,-0.37 4.97,-1.46 6.83,-3.19l0.02 0.82c-1.78,2.88 -4.95,4.17 -7.74,6.05 -0.9,0.61 -0.08,1.83 0.86,1.4 1.76,-0.81 4.93,-2.16 6.98,-4.03 0.01,0.37 0.02,0.74 0.02,1.11 -1.9,3.52 -5.98,4.96 -8.94,7.46 -0.73,0.61 0.25,1.73 1.03,1.26 2.05,-1.24 4.15,-2.39 6.1,-3.8 0.57,-0.41 1.25,-0.92 1.87,-1.51 0.01,0.67 0,1.34 -0,2.01 -1.26,1.23 -2.5,2.46 -3.88,3.57 -1.72,1.38 -3.79,2.25 -5.46,3.66 -0.7,0.59 0.11,1.61 0.88,1.42 3.05,-0.77 6.13,-3.25 8.45,-5.87 -0.02,0.93 -0.06,1.87 -0.1,2.82 -2.21,2.84 -5.37,4.94 -8.84,5.94 -0.89,0.26 -0.69,1.74 0.27,1.65 2.21,-0.2 4.2,-1.19 6.04,-2.38 0.76,-0.49 1.61,-1.09 2.36,-1.8 -0.08,1.51 -0.15,3.03 -0.19,4.56 -0.79,1.24 -1.53,2.6 -2.9,3.2 -0.88,0.39 -0.73,1.61 0.27,1.67 1.09,0.07 1.96,-0.74 2.63,-1.54 0.05,2.32 0.24,4.59 0.67,6.76 -3.31,-0.15 -6.7,0.79 -9.18,2.64 -0.99,-1.91 -1.91,-3.85 -2.75,-5.83 0.4,-0.33 0.8,-0.65 1.26,-0.92 0.74,-0.43 1.55,-0.72 2.29,-1.13 1,-0.54 0.19,-1.82 -0.75,-1.67 -1.12,0.18 -2.62,0.75 -3.65,1.65 -1.21,-3.08 -2.23,-6.23 -3.05,-9.45 0.92,-1.06 2.2,-1.81 3.64,-1.86 1.05,-0.04 1.07,-1.38 0.19,-1.72 -1.29,-0.5 -3.18,-0.01 -4.45,1 -0.91,-4.1 -1.51,-8.29 -1.79,-12.55 1.26,-0.7 2.51,-1.43 3.81,-2.07 1.44,-0.72 2.97,-1.23 4.41,-1.95 0.87,-0.44 0.2,-1.71 -0.68,-1.49 -2.54,0.64 -5.34,1.9 -7.65,3.42 -0.05,-1.26 -0.08,-2.53 -0.07,-3.8 0.03,-6.07 0.74,-12 2.04,-17.7 3.34,0.56 7.07,0.21 10.41,-0.01 1.1,-0.08 1.04,-1.63 -0.04,-1.7 -3.19,-0.21 -6.72,-0.52 -9.95,-0.07 1.26,-5.03 2.99,-9.89 5.14,-14.5 2.1,-1.99 5.66,-2.81 8.25,-1.71 0.99,0.42 1.79,-0.94 0.82,-1.49 -2.09,-1.17 -4.99,-1.17 -7.39,-0.2 3.06,-5.86 6.8,-11.3 11.13,-16.23 1.93,0.25 3.94,0.1 5.86,0.11 2.43,0 4.83,-0.02 7.25,-0.21 1.13,-0.09 1.05,-1.64 -0.04,-1.72 -0.57,-0.05 -1.15,-0.09 -1.75,-0.14 0.11,-1.59 -0.74,-3.28 -2.05,-4.11 -0.79,-0.5 -1.6,0.67 -0.95,1.29 0.84,0.8 0.99,1.69 1.04,2.68 -2.44,-0.17 -4.98,-0.26 -7.38,-0.07 6.95,-7.37 15.23,-13.46 24.46,-17.88 0.88,0.45 1.71,0.97 2.45,1.67 1.04,0.99 1.3,2.15 1.57,3.51 0.19,0.94 1.41,0.66 1.68,-0.04 0.21,-0.55 0.26,-1.08 0.22,-1.61 2.07,-3.27 5.44,-3.35 8.9,-3.25 -0.03,0.95 0.08,1.89 0.35,2.78 0.27,0.89 1.75,0.7 1.65,-0.26 -0.36,-3.42 0.5,-6.73 2.99,-9.2l0.09 -0.13c4.07,-0.77 8.24,-1.25 12.49,-1.4 1.25,0.6 2.39,0.99 3.23,2.24 0.88,1.31 1.03,3.04 1.38,4.55 0.19,0.78 1.55,0.81 1.64,-0.04 0.05,-0.45 0.06,-0.91 0.04,-1.38 1.62,-0.86 3.33,-1.16 5.17,-0.62 1.84,0.53 2.28,1.74 2.55,3.15l0.06 0.29c0.09,0.48 0.16,0.98 0.28,1.48 0.17,0.75 1.27,0.81 1.61,0.16 0.22,-0.41 0.34,-0.84 0.39,-1.27 0.31,0.02 0.62,0.05 0.93,0.13 0.98,0.26 1.37,-1.04 0.61,-1.56 -0.5,-0.34 -1.14,-0.51 -1.79,-0.51 -0.55,-1.48 -1.84,-2.79 -3.18,-3.46 -2.18,-1.07 -4.82,-0.88 -6.92,0.27 -0.32,-1.3 -0.91,-2.54 -1.77,-3.48 10.64,0.17 20.79,2.38 30.08,6.24 -0.35,0.26 -0.66,0.53 -0.89,0.77 -0.81,0.79 -1.32,1.85 -1.44,2.96 -2.63,-0.26 -5.35,1.1 -5.69,4.02 -0.43,-0.43 -0.98,-0.76 -1.65,-0.98l-2.38 -0.75c-0.4,-0.12 -0.83,0.1 -0.96,0.5l-2.77 8.75c-0.13,0.4 0.1,0.83 0.5,0.96l0.19 0.06 0.58 -0.05 0.38 -0.45 0.95 -3.02 1.46 0.46 0.12 0.03 0.6 3.91c0.06,0.38 0.39,0.65 0.76,0.65l0.09 -0.01 0.19 -0.02 0.52 -0.3 0.15 -0.58 -0.54 -3.52c0.93,-0.14 1.96,-0.7 2.49,-2.35 0.31,-0.97 0.21,-1.72 -0.01,-2.29 0.37,0.02 0.76,-0.17 0.87,-0.58 1.06,-3.76 4.46,-2.8 7.06,-1.2 0.86,0.53 1.52,-0.65 0.96,-1.31 -0.59,-0.71 -1.36,-1.21 -2.19,-1.54 0.13,-0.9 0.48,-1.65 1.19,-2.35 0.51,-0.5 1.12,-0.64 1.73,-0.81 9.46,4.27 17.96,10.29 25.11,17.64 -3.53,-0.19 -7.26,-0.45 -10.72,0.07 -0.82,0.12 -1.15,1.43 -0.17,1.59 3.86,0.58 8.02,0.23 11.9,0.04l0.45 -0.16c2.06,2.24 4.01,4.58 5.82,7.03 -1.55,0.43 -2.82,1.6 -3.44,3.23 -0.34,0.89 1.04,1.34 1.49,0.59 0.45,-0.75 0.99,-1.39 1.76,-1.81 0.42,-0.23 0.89,-0.32 1.36,-0.36 3.6,5.13 6.62,10.68 8.98,16.58 -2.73,-0.23 -5.85,-0.47 -8.44,0.14 -0.79,0.19 -0.71,1.37 0.04,1.55 2.79,0.66 6.23,0.32 9.1,0.08 0.85,2.27 1.6,4.59 2.25,6.96 -1.65,-0.11 -3.15,0.66 -4.24,1.87 -2.79,-0.7 -5.98,0.19 -7.75,2.35 -3.74,-1.09 -7.11,0.1 -8.57,3.85 -0.33,0.85 1.11,1.42 1.48,0.59 1.26,-2.77 3.46,-3.44 6.2,-2.97 -0.24,0.56 -0.39,1.17 -0.44,1.84 -0.06,0.79 1.24,1.13 1.53,0.38 1.19,-3.01 3.45,-4.67 6.46,-4.43 -0.36,0.73 -0.61,1.52 -0.7,2.33 -0.1,0.95 1.33,0.98 1.59,0.17 0.29,-0.9 0.66,-1.7 1.13,-2.35l0.39 -0.48c0.84,-0.89 1.94,-1.37 3.42,-1.21 0.76,3.05 1.34,6.17 1.75,9.34 -8.55,-0.25 -17.49,0.67 -25.97,-0.29 -1.76,-0.2 -1.8,2.43 -0.25,2.26 8.63,-1 17.7,-0.06 26.41,-0.33 0.15,1.4 0.26,2.81 0.34,4.23 -3.82,0.33 -7.53,1.8 -11.11,3.03 -5.04,1.73 -9.44,2.82 -14.81,2.57 -12.33,-0.58 -23.53,-6.76 -36.04,-4.42 -6.46,1.21 -12.4,3.69 -18.61,5.74 -6.58,2.17 -13.51,3.04 -20.41,2.63 -5.2,-0.31 -10.32,-1.99 -15.37,-3.13 -6.21,-1.4 -12.48,-2.58 -18.82,-3.18 -0.94,-0.09 -1.12,1.54 -0.18,1.66 6.24,0.81 12.41,1.93 18.55,3.31 4.73,1.07 9.39,2.46 14.22,3.05 5.74,0.71 11.56,0.1 17.19,-1.09 6.82,-1.43 13.15,-4.52 19.88,-6.3 7.41,-1.96 14.19,-1.52 21.51,0.48 5.56,1.51 11.1,2.87 16.84,3.42 4.91,0.47 9.03,-0.04 13.7,-1.51 4.41,-1.38 8.9,-3.5 13.56,-3.95 0.02,0.9 0.04,1.81 0.04,2.72 -0.02,4.06 -0.35,8.06 -0.95,11.97 -3.82,0.05 -7.86,-1.39 -11.53,-2.18 -4.54,-0.97 -9.12,-1.64 -13.75,-1.03 -4.87,0.65 -9.46,2.76 -13.99,4.52 -5.5,2.13 -10.7,3.14 -16.61,2.82 -9.91,-0.54 -19.37,-5.16 -29.36,-4.4 -10.63,0.8 -20.7,5.04 -31.47,4.9 -1.01,-0.01 -0.96,1.52 0.04,1.57 10.34,0.41 20.25,-3.25 30.43,-4.38 9.76,-1.08 19.51,3.46 29.17,4.48 5.22,0.55 10.06,0.05 15.04,-1.53 5,-1.58 9.72,-3.9 14.82,-5.21 5.41,-1.39 10.88,-0.29 16.21,0.91 3.41,0.77 7.03,2.01 10.59,2.07 -1.08,5.8 -2.77,11.38 -5,16.68 -3.16,-0.31 -6.26,-0.49 -9.36,-1.35 -2.86,-0.78 -5.59,-2.04 -8.36,-3.1 -6.6,-2.52 -13.47,-3.02 -20.43,-1.82 -4.58,0.79 -8.64,3.18 -12.8,5.13 -7.78,3.65 -15.77,4.59 -24.21,5.52 -1.07,0.12 -1.03,1.59 0.04,1.67 7.61,0.49 15.41,-1.04 22.44,-3.94 4.7,-1.94 8.99,-4.9 13.98,-6.09 7.54,-1.8 15.18,-0.41 22.2,2.5 4.98,2.06 10.16,4.07 15.57,3.58 -0.96,2.12 -2.01,4.18 -3.14,6.2 -0.01,-0.6 -0.05,-1.2 -0.19,-1.8 -0.18,-0.79 -1.4,-0.72 -1.56,0.04 -0.2,0.91 -0.19,1.84 -0.19,2.77 0,0.72 -0.04,1.46 0.05,2.19 -14.52,23.36 -40.4,38.96 -69.79,38.96l-0.46 0c-21.94,-0.12 -42.51,-8.78 -57.93,-24.38 -5.48,-5.54 -10.07,-11.72 -13.71,-18.38 2.79,-1.59 6.26,-2.22 9.52,-1.75l0.16 0.02c2.07,0.33 4.05,1.11 5.71,2.38 -0.69,0.48 -1.31,1.06 -1.83,1.77 -0.5,0.68 0.51,1.55 1.16,1.1zm39.17 -122.97c-0.97,1.23 -1.67,2.71 -2.01,4.26 -3.4,-0.94 -7.83,0.17 -9.99,3.03 -0.68,-0.97 -1.68,-1.8 -2.74,-2.4 4.7,-2.07 9.63,-3.72 14.74,-4.89zm17.74 164.49l0.48 0c22.45,0 43.58,-8.72 59.51,-24.55 15.93,-15.84 24.77,-36.93 24.9,-59.4 0.13,-22.55 -8.54,-43.8 -24.39,-59.83 -15.86,-16.03 -37.01,-24.93 -59.56,-25.06l-0.47 -0c-46.29,0 -84.15,37.67 -84.41,83.95 -0.13,22.55 8.54,43.8 24.4,59.83 15.85,16.03 37.01,24.93 59.55,25.05z"/>
  <path class="fil0" d="M23.56 132.31l1.79 2.19 0.52 0.28 0.08 0 0.49 -0.18 0.1 -0.08c0.33,-0.27 0.38,-0.75 0.11,-1.08l-1.22 -1.49 1.38 -1.13 0.78 0.96 0.52 0.28 0.56 -0.17 0.11 -0.09c0.33,-0.27 0.38,-0.75 0.11,-1.08l-0.78 -0.96 0.84 -0.69 1.22 1.49c0.27,0.33 0.75,0.38 1.08,0.11l0.11 -0.09 0.28 -0.51 -0.17 -0.56 -1.79 -2.19 -0.52 -0.28 -0.56 0.17 -4.91 4.02c-0.33,0.27 -0.38,0.75 -0.11,1.08z"/>
  <path class="fil0" d="M32.08 139.02l-0.35 -0.16c-0.02,-0.02 -0.26,-0.28 -0.8,-1.64 -0.14,-0.33 -0.49,-0.52 -0.84,-0.47l-0.14 0.02 -0.5 0.32 -0.13 0.57c0.07,0.42 0.22,0.86 0.45,1.29 0.22,0.43 0.49,0.81 0.8,1.1 0.42,0.42 0.95,0.64 1.52,0.64l0.2 -0.01c0.56,-0.05 1.03,-0.27 1.4,-0.65 0.42,-0.44 0.85,-1.21 0.47,-2.43 -0.14,-0.39 -0.25,-0.73 -0.35,-1.03l-0.25 -0.72c-0.14,-0.42 -0.04,-0.6 0.09,-0.73l0.4 -0.17 0.42 0.22c0.07,0.07 0.29,0.33 0.73,1.2 0.16,0.31 0.5,0.48 0.84,0.41l0.14 -0.03 0.5 -0.35 0.08 -0.6c-0.18,-0.66 -0.56,-1.28 -1.12,-1.83 -0.51,-0.5 -1.11,-0.74 -1.79,-0.68 -0.55,0.06 -1.01,0.28 -1.39,0.67 -0.49,0.49 -0.7,1.11 -0.63,1.79l0.02 0.09 0.12 0.46 0.13 0.41 0.38 1.1 0.13 0.45 0.04 0.25 -0.15 0.34 -0.41 0.16z"/>
  <path class="fil0" d="M42.77 141.43l0.02 -0.61c-0.25,-0.64 -0.7,-1.21 -1.32,-1.69 -0.57,-0.45 -1.21,-0.61 -1.86,-0.47 -0.53,0.11 -0.97,0.39 -1.3,0.81 -0.42,0.55 -0.57,1.19 -0.43,1.85l0.02 0.09 0.17 0.44 0.17 0.4 0.5 1.04 0.19 0.43 0.07 0.24 -0.11 0.36 -0.34 0.19 -0.42 -0.11c-0.03,-0.02 -0.29,-0.25 -0.98,-1.54 -0.17,-0.32 -0.54,-0.48 -0.89,-0.38l-0.13 0.04c-0.41,0.12 -0.64,0.54 -0.52,0.95 0.12,0.41 0.32,0.83 0.58,1.24 0.27,0.4 0.58,0.74 0.92,1.01 0.41,0.32 0.86,0.47 1.34,0.47l0.45 -0.04c0.54,-0.11 0.98,-0.39 1.31,-0.81 0.38,-0.48 0.72,-1.29 0.2,-2.46 -0.18,-0.37 -0.33,-0.7 -0.47,-0.98l-0.33 -0.68c-0.2,-0.42 -0.1,-0.6 0.01,-0.74l0.33 -0.2 0.1 -0.01 0.39 0.17c0.08,0.07 0.33,0.31 0.87,1.12 0.19,0.29 0.55,0.42 0.88,0.31l0.13 -0.04 0.46 -0.4z"/>
  <path class="fil0" d="M49.24 144.46l-2.41 -1.49c-0.36,-0.22 -0.83,-0.11 -1.05,0.25l-3.32 5.41c-0.23,0.36 -0.11,0.83 0.25,1.06l2.41 1.48 0.4 0.11 0.65 -0.36 0.07 -0.11 0.09 -0.58 -0.34 -0.48 -1.64 -1.01 0.94 -1.52 1.05 0.65 0.58 0.09 0.48 -0.35 0.07 -0.12c0.22,-0.36 0.11,-0.83 -0.25,-1.05l-1.06 -0.65 0.57 -0.93 1.64 1.01 0.58 0.09 0.48 -0.35 0.07 -0.12c0.22,-0.36 0.11,-0.84 -0.25,-1.05z"/>
  <path class="fil0" d="M62.14 153.04l-0.74 2.19 -0.79 0 -0.12 0.07 -0.35 0.48 0.03 0.45 -0.06 -0.02 -0.52 -0.45 -0.05 -0.69 0.89 -2.62 0.45 -0.51 0.39 -0.1 0.3 0.06 0.51 0.44 0.04 0.68zm-0.02 -2.71c-0.66,-0.22 -1.34,-0.18 -1.96,0.13 -0.63,0.31 -1.06,0.81 -1.29,1.47l-0.89 2.62c-0.22,0.67 -0.18,1.33 0.13,1.96 0.31,0.63 0.81,1.06 1.48,1.29 0.54,0.18 1.09,0.19 1.59,0.03l0.26 0.41 0.48 0.34 0.16 0.01 0.41 -0.12 0.11 -0.07c0.36,-0.23 0.46,-0.7 0.23,-1.06l-0.33 -0.51 0.32 -0.63 0.88 -2.62c0.22,-0.66 0.18,-1.33 -0.13,-1.95 -0.31,-0.62 -0.82,-1.08 -1.47,-1.3z"/>
  <path class="fil0" d="M71.33 152.85l-0.14 -0.02 -0.57 0.1 -0.34 0.48 -0.95 4.39 -0.39 0.56 -0.67 0.12 -0.56 -0.39 -0.12 -0.67 0.96 -4.39c0.09,-0.41 -0.17,-0.82 -0.58,-0.91l-0.13 -0.03 -0.58 0.1 -0.34 0.48 -0.96 4.39c-0.15,0.69 -0.03,1.34 0.35,1.93 0.38,0.59 0.93,0.97 1.62,1.12l0.57 0.06c0.48,0 0.94,-0.14 1.36,-0.41 0.59,-0.38 0.97,-0.92 1.12,-1.61l0.95 -4.39c0.09,-0.41 -0.17,-0.82 -0.58,-0.92z"/>
  <path class="fil0" d="M76.47 158.07l0.44 -0.98 0.23 1.05 -0.68 -0.07zm1.53 -3.76c-0.07,-0.32 -0.34,-0.56 -0.67,-0.59l-0.15 -0.02c-0.34,-0.03 -0.64,0.15 -0.77,0.45l-2.68 5.95 -0.01 0.6 0.42 0.42 0.12 0.05c0.38,0.15 0.82,-0.02 0.99,-0.39l0.5 -1.11 1.78 0.19 0.27 1.18c0.08,0.36 0.39,0.6 0.75,0.6l0.14 -0.01 0.13 -0.02 0.5 -0.33 0.11 -0.59 -1.42 -6.38z"/>
  <path class="fil0" d="M87.18 154.04l-0.16 0 -0.66 0.38 -1.31 2.24 -1.36 -2.22 -0.65 -0.36 -0.01 0 -0.15 0 -0.54 0.23 -0.22 0.55 0.07 6.22c0,0.42 0.35,0.76 0.77,0.76l0.01 0 0.14 -0 0.54 -0.23 0.22 -0.54 -0.04 -3.2 0.59 0.96 0.66 0.36 0.65 -0.38 0.57 -0.97 0.03 3.2 0.23 0.54 0.55 0.22 0.14 -0c0.42,-0 0.77,-0.35 0.76,-0.77l-0.07 -6.22c-0,-0.42 -0.35,-0.76 -0.77,-0.76z"/>
  <path class="fil0" d="M102.82 151.74l-0.14 -0.01 -0.56 0.17 -0.28 0.52 -0.37 4.04 -2.12 -3.45 -0.48 -0.35 -0.58 0.1 -0.12 0.07c-0.35,0.22 -0.46,0.69 -0.24,1.05l3.43 5.56 0.65 0.36 0.18 -0.02 0.14 -0.03c0.32,-0.08 0.56,-0.35 0.59,-0.68l0.59 -6.5c0.04,-0.42 -0.26,-0.78 -0.68,-0.83z"/>
  <path class="fil0" d="M108.98 150.46c-0.14,-0.4 -0.58,-0.6 -0.97,-0.46l-0.14 0.04 -0.44 0.39 -0.03 0.59 2.09 5.86c0.11,0.31 0.41,0.51 0.72,0.51l0.25 -0.04 0.13 -0.05 0.44 -0.39 0.03 -0.58 -2.09 -5.86z"/>
  <path class="fil0" d="M118.15 152.02c-0.13,0.29 -0.29,0.47 -0.49,0.57l-0.65 0.31 -2 -4.09 0.65 -0.32c0.21,-0.1 0.45,-0.11 0.74,-0.05 0.33,0.08 0.54,0.24 0.68,0.54l1.06 2.16c0.14,0.29 0.14,0.56 0,0.87zm0.43 -3.77c-0.36,-0.73 -0.98,-1.22 -1.79,-1.42 -0.68,-0.17 -1.31,-0.11 -1.87,0.16l-1.46 0.72c-0.38,0.19 -0.54,0.64 -0.35,1.03l2.8 5.7 0.44 0.39 0.25 0.04 0.34 -0.08 1.46 -0.72c0.56,-0.27 0.98,-0.73 1.28,-1.37 0.34,-0.77 0.33,-1.56 -0.03,-2.29l-1.06 -2.17z"/>
  <path class="fil0" d="M123.77 147.15l1.05 -0.67 0.34 -0.48 -0.1 -0.58 -0.08 -0.12c-0.23,-0.35 -0.7,-0.46 -1.05,-0.23l-1.05 0.67 -0.59 -0.92 1.62 -1.04c0.35,-0.23 0.46,-0.7 0.24,-1.05l-0.08 -0.12 -0.48 -0.34 -0.58 0.1 -2.38 1.52c-0.36,0.23 -0.46,0.7 -0.23,1.06l3.41 5.36 0.48 0.33 0.17 0.02 0.41 -0.12 2.39 -1.52 0.33 -0.48 -0.1 -0.57 -0.07 -0.11c-0.23,-0.36 -0.7,-0.46 -1.05,-0.23l-1.63 1.04 -0.96 -1.5z"/>
  <path class="fil0" d="M129.13 139.94l0.65 -0.29 0.05 -0c0.14,0 0.35,0.03 0.62,0.38 0.29,0.36 0.28,0.58 0.23,0.74l-0.44 0.57 -0.63 0.51 -1.12 -1.39 0.63 -0.51zm1.46 5.74l0.52 0.29 0.08 0 0.49 -0.18 0.1 -0.08c0.33,-0.26 0.38,-0.75 0.11,-1.08l-1.21 -1.49 0.58 -0.47 2.32 1.08c0.38,0.17 0.82,0.02 1.01,-0.35l0.06 -0.12 0.03 -0.6 -0.4 -0.44 -2 -0.93c0.27,-0.77 0.09,-1.57 -0.52,-2.33 -0.67,-0.83 -1.42,-1.01 -1.92,-1.01l-0.19 0.01c-0.54,0.05 -1.07,0.27 -1.57,0.67l-1.33 1.07c-0.33,0.27 -0.38,0.74 -0.11,1.07l3.95 4.89z"/>
  <path class="fil0" d="M133.92 133.46c-0.29,0.3 -0.29,0.78 0.01,1.08l4.42 4.38 0.54 0.22 0 0 0.54 -0.23 0.1 -0.1c0.3,-0.3 0.3,-0.79 -0.01,-1.09l-4.42 -4.38 -0.54 -0.22 -0.01 0 -0.54 0.24 -0.1 0.1z"/>
  <path class="fil0" d="M29.3 54.93l-8.23 -3.84 -0.59 -0.03 -0.43 0.4 -0.09 0.19c-0.18,0.38 -0.01,0.83 0.37,1.01l5.2 2.43 -6.97 0.49 -0.64 0.44 -0.09 0.2 -0.03 0.59 0.39 0.44 8.23 3.84 0.32 0.07c0.29,0 0.56,-0.16 0.69,-0.44l0.09 -0.18 0.03 -0.59 -0.4 -0.43 -5.2 -2.43 6.97 -0.5 0.64 -0.43 0.09 -0.19 0.03 -0.59 -0.4 -0.44z"/>
  <path class="fil0" d="M26.82 43.55c0.28,-0.39 0.61,-0.6 1.07,-0.68l0.31 -0.02c0.33,0 0.63,0.1 0.93,0.31l3.29 2.33c0.39,0.27 0.6,0.62 0.68,1.08 0.08,0.45 -0.01,0.84 -0.28,1.23 -0.27,0.39 -0.62,0.6 -1.08,0.68 -0.45,0.07 -0.85,-0.02 -1.24,-0.29l-3.29 -2.33c-0.38,-0.27 -0.6,-0.61 -0.68,-1.07 -0.08,-0.46 0.02,-0.86 0.29,-1.24zm-0.61 3.72l3.29 2.33c0.59,0.42 1.24,0.63 1.93,0.63l0.59 -0.05c0.92,-0.15 1.65,-0.62 2.2,-1.39 0.54,-0.76 0.73,-1.61 0.58,-2.52 -0.16,-0.92 -0.62,-1.66 -1.38,-2.2l-3.29 -2.33c-0.75,-0.54 -1.6,-0.73 -2.53,-0.57 -0.92,0.16 -1.66,0.62 -2.19,1.37 -0.54,0.76 -0.74,1.62 -0.58,2.54 0.16,0.91 0.62,1.65 1.38,2.19z"/>
  <path class="fil0" d="M34.98 33.99c0.36,-0.36 0.72,-0.56 1.09,-0.63 0.46,-0.07 0.89,0.1 1.34,0.56 0.61,0.62 0.6,1.07 0.54,1.36 -0.08,0.36 -0.3,0.72 -0.66,1.07l-1.09 1.07 -2.31 -2.36 1.09 -1.07zm3.41 8.14l0.54 0.24 0.01 0 0.53 -0.22 0.14 -0.14c0.3,-0.3 0.31,-0.78 0.02,-1.08l-2.21 -2.27 1.09 -1.08 0.09 -0.08 3.73 1.31c0.39,0.14 0.81,-0.06 0.96,-0.45l0.08 -0.18 -0.02 -0.6 -0.44 -0.4 -3.36 -1.18c0.4,-1.14 0.09,-2.28 -0.9,-3.29 -0.86,-0.88 -1.85,-1.23 -2.88,-1.05 -0.72,0.13 -1.39,0.49 -2,1.09l-1.78 1.75c-0.3,0.3 -0.31,0.78 -0.01,1.08l6.42 6.56z"/>
  <path class="fil0" d="M41.76 27.07c0.24,0.35 0.71,0.44 1.06,0.2l1.37 -0.93 4.6 6.8 0.63 0.34 0.43 -0.13 0.17 -0.12 0.32 -0.49 -0.12 -0.57 -4.6 -6.8 1.37 -0.93 0.32 -0.49 -0.12 -0.58 -0.12 -0.17c-0.24,-0.35 -0.71,-0.44 -1.06,-0.2l-4.18 2.83 -0.32 0.49 0.12 0.57 0.12 0.17z"/>
  <path class="fil0" d="M56.25 28.59c0.13,0.28 0.4,0.46 0.7,0.46l0.31 -0.06 0.18 -0.08 0.4 -0.43 -0.01 -0.59 -1.68 -3.82 3.03 -1.33 1.68 3.82c0.17,0.39 0.63,0.57 1.01,0.39l0.19 -0.08 0.4 -0.43 -0.01 -0.58 -3.66 -8.32 -0.43 -0.4 -0.59 0.02 -0.19 0.08c-0.39,0.17 -0.56,0.63 -0.39,1.01l1.28 2.9 -3.03 1.33 -1.28 -2.9c-0.17,-0.39 -0.62,-0.56 -1.01,-0.39l-0.18 0.08 -0.4 0.42 0.01 0.59 3.66 8.31z"/>
  <path class="fil0" d="M79.14 22.11c0.58,0.52 1.34,0.79 2.26,0.79l0.26 -0.01 1.51 -0.08c0.42,-0.03 0.75,-0.38 0.72,-0.8l-0.01 -0.19 -0.25 -0.54 -0.56 -0.19 -1.51 0.08c-0.56,0.04 -0.99,-0.08 -1.27,-0.34 -0.29,-0.26 -0.44,-0.66 -0.47,-1.23l-0.22 -4.03c-0.03,-0.56 0.08,-0.98 0.35,-1.27 0.26,-0.29 0.66,-0.44 1.23,-0.47l1.51 -0.08c0.42,-0.03 0.75,-0.38 0.72,-0.8l-0.01 -0.21 -0.25 -0.53 -0.55 -0.19 -1.51 0.08c-1.03,0.06 -1.84,0.41 -2.42,1.05 -0.57,0.63 -0.84,1.48 -0.78,2.52l0.21 4.03c0.06,1.03 0.41,1.84 1.04,2.42z"/>
  <path class="fil0" d="M93.12 16.16l0.61 3.05 -1.95 -0.25 1.35 -2.81zm-4.19 6.58l0.18 0.08c0.38,0.17 0.82,0 0.99,-0.37l0.88 -1.83 3.1 0.39 0.4 1.99c0.07,0.36 0.39,0.61 0.75,0.61l0.12 -0.01 0.19 -0.04 0.51 -0.32 0.13 -0.59 -1.87 -9.35c-0.06,-0.32 -0.33,-0.56 -0.66,-0.61l-0.21 -0.02c-0.33,-0.04 -0.65,0.13 -0.79,0.43l-4.12 8.6 -0.02 0.6 0.41 0.43z"/>
  <path class="fil0" d="M113.39 26.19l1.89 -3.56c0.22,-0.41 0.53,-0.67 0.97,-0.81l0.5 -0.08 0.77 0.2c0.42,0.22 0.67,0.53 0.81,0.98 0.14,0.45 0.1,0.84 -0.12,1.26l-1.89 3.56c-0.22,0.42 -0.53,0.68 -0.98,0.81 -0.44,0.14 -0.84,0.1 -1.26,-0.12 -0.42,-0.23 -0.68,-0.53 -0.81,-0.98 -0.14,-0.45 -0.1,-0.85 0.12,-1.27zm-0.12 3.77c0.51,0.26 1.04,0.4 1.57,0.4 0.33,0 0.67,-0.05 1.01,-0.15 0.89,-0.28 1.57,-0.83 2,-1.65l1.89 -3.56c0.44,-0.81 0.52,-1.68 0.24,-2.58 -0.27,-0.89 -0.83,-1.57 -1.65,-2 -0.82,-0.43 -1.7,-0.52 -2.59,-0.25 -0.88,0.27 -1.56,0.83 -2,1.66l-1.89 3.56c-0.44,0.82 -0.52,1.7 -0.25,2.58 0.27,0.89 0.83,1.56 1.66,2z"/>
  <path class="fil0" d="M124.13 37.25l0.47 0.16 0.09 -0 0.51 -0.29 0.12 -0.15c0.26,-0.34 0.21,-0.81 -0.13,-1.07l-2.49 -1.97 5.08 -6.45c0.26,-0.33 0.21,-0.81 -0.12,-1.07l-0.15 -0.12 -0.57 -0.16 -0.51 0.29 -5.68 7.21 -0.16 0.57 0.29 0.51 3.24 2.56z"/>
  <path class="fil0" d="M130.75 43.63l0.57 0.26 0.51 -0.19 6.8 -6.02 0.26 -0.53 -0.19 -0.55 -0.14 -0.15c-0.28,-0.32 -0.76,-0.35 -1.08,-0.07l-6.8 6.02 -0.26 0.53 0.19 0.56 0.14 0.15z"/>
  <path class="fil0" d="M135.8 49.67l0.09 0.58 0.1 0.17c0.22,0.36 0.69,0.47 1.05,0.26l4.91 -2.97 -3.46 6.07 0.01 0.78 0.12 0.19 0.66 0.37 0.4 -0.11 7.77 -4.71 0.35 -0.47 -0.09 -0.58 -0.1 -0.18c-0.22,-0.35 -0.69,-0.47 -1.05,-0.25l-4.9 2.97 3.46 -6.06 -0.01 -0.78 -0.12 -0.18c-0.22,-0.36 -0.69,-0.47 -1.05,-0.26l-7.77 4.71 -0.35 0.48z"/>
  <path class="fil0" d="M148.76 59.91l-2.41 1.97 -0.7 -1.84 3.11 -0.13zm-7.58 -1.17l-0.19 0.57 0.02 0.19c0.03,0.41 0.42,0.73 0.79,0.7l2.03 -0.08 1.11 2.91 -1.57 1.29c-0.32,0.26 -0.37,0.72 -0.13,1.05l0.12 0.16 0.52 0.3 0.09 0.01 0.49 -0.18 7.38 -6.04c0.25,-0.21 0.35,-0.56 0.23,-0.87l-0.08 -0.2c-0.12,-0.31 -0.4,-0.51 -0.75,-0.49l-9.52 0.41 -0.55 0.26z"/>
  <path class="fil0" d="M40.73 114.4c-0.02,0.66 -0.05,1.32 -0.07,1.99 -0.94,2.02 -2.87,3.27 -5.19,2.58 -0.93,-0.28 -1.46,1.12 -0.61,1.56 1.82,0.95 4.09,0.52 5.68,-0.72 -0.02,0.73 -0.03,1.45 -0.04,2.18 -0.77,0.98 -2,1.63 -3.27,1.55 -0.82,-0.05 -1.17,1.28 -0.39,1.59 1.05,0.42 2.49,0.22 3.68,-0.4 0.04,1.6 0.15,3.19 0.35,4.74 -1.45,0.3 -2.8,0.88 -3.92,1.8 -0.61,0.51 0.09,1.65 0.82,1.33 4.19,-1.86 9.14,-1.58 12.87,1.23 0.87,0.66 2,-0.44 1.19,-1.25 -2.12,-2.14 -5.49,-3.37 -8.73,-3.34 0.15,-1.32 0.24,-2.65 0.28,-3.99 1.07,0.41 2.32,0.47 3.34,0.09 0.85,-0.31 0.71,-1.64 -0.26,-1.61 -1.2,0.04 -2.24,-0.16 -3.05,-0.79 -0,-1.12 -0.02,-2.24 -0.06,-3.36 2.25,2.1 6,2.86 8.95,2.34 1.02,-0.18 0.58,-1.55 -0.26,-1.64 -3.71,-0.39 -7.41,-0.91 -8.82,-4.6 -0.01,-0.42 -0.03,-0.85 -0.04,-1.27 1.72,1.72 4.26,2.67 6.56,1.95 0.88,-0.28 0.71,-1.76 -0.27,-1.66 -3.1,0.31 -5.06,-1.67 -6.34,-4.17 -0,-0.36 -0,-0.73 -0,-1.09 1.37,1.03 3.25,1.58 4.88,1.58 0.94,0 1.1,-1.44 0.18,-1.63 -2,-0.44 -4.2,-1.16 -5.05,-3.02 0.01,-0.67 0.01,-1.34 0.01,-2.02 1.08,0.9 2.46,1.53 3.78,1.92 0.91,0.26 1.39,-1.07 0.6,-1.52 -1.69,-0.94 -3.58,-1.72 -4.38,-3.42 -0.01,-0.85 -0.02,-1.7 -0.03,-2.54 0.56,0.56 1.25,1 2.1,1.26 0.91,0.28 1.4,-1.07 0.6,-1.53 -1.62,-0.93 -2.49,-2.24 -2.85,-3.91 -0.04,-0.82 -0.1,-1.64 -0.17,-2.46l-0.14 -0.41 -0.56 -0.34c-0.42,-0.05 -0.89,0.22 -0.94,0.79 -0.03,0.3 -0.04,0.6 -0.06,0.9 -0.29,1.98 -1.15,3.44 -2.66,4.93 -0.71,0.69 0.23,1.67 1.03,1.26 0.53,-0.26 1,-0.65 1.42,-1.09 -0.01,0.72 -0.02,1.45 -0.02,2.16 -0.75,1.88 -2.1,3.01 -4.04,3.97 -0.92,0.45 -0.19,1.73 0.69,1.54 1.36,-0.31 2.49,-0.98 3.34,-1.9l0 0.8c-0.52,2.28 -1.87,3.81 -4.27,4.24 -1,0.18 -0.68,1.71 0.27,1.71 1.45,0 2.92,-0.73 4.01,-1.83 0,0.56 -0.01,1.12 -0.01,1.67 -1.45,2.97 -4.08,5.45 -7.68,4.48 -0.89,-0.25 -1.46,1.13 -0.6,1.53 2.76,1.28 6.1,0.08 8.17,-2.16z"/>
  <path class="fil0" d="M64.58 141.44c-2.06,-0.21 -3.82,-1.19 -4.67,-2.94 -0.02,-0.44 -0.04,-0.88 -0.05,-1.31l0 -0.07c0.64,0.67 1.43,1.18 2.42,1.39 0.93,0.2 1.49,-1.1 0.62,-1.57 -1.46,-0.78 -2.34,-1.92 -3.08,-3.3 -0,-0.33 -0.01,-0.66 -0.02,-0.99 0.27,0.23 0.56,0.43 0.87,0.57 0.85,0.39 1.62,-0.63 0.97,-1.32 -0.56,-0.6 -1.09,-1.13 -1.5,-1.86 -0.32,-0.58 -0.46,-1.21 -0.55,-1.86 -0.03,-0.29 -0.04,-0.58 -0.07,-0.86 -0.06,-0.6 -0.53,-0.82 -0.95,-0.75l-0.57 0.41 -0.04 0.11 -0.02 0.05 -0.01 0.06 -0.05 0.15c-0.07,0.67 -0.11,1.34 -0.15,2.01 -0.31,1.26 -1,2.21 -2.22,2.95 -0.81,0.5 -0.22,1.74 0.67,1.5 0.56,-0.16 1.03,-0.42 1.44,-0.75 -0.01,0.5 -0.02,0.99 -0.03,1.48 -0.66,1.36 -2.07,1.94 -3.46,2.77 -0.82,0.49 -0.22,1.72 0.67,1.48 0.93,-0.24 1.88,-0.66 2.69,-1.23 -0.04,0.63 -0.07,1.26 -0.1,1.9 -0.79,1.28 -2.13,2.15 -3.78,1.99 -0.99,-0.1 -1.01,1.36 -0.18,1.63 1.38,0.46 2.82,0.1 3.97,-0.72 0.05,0.85 0.16,1.7 0.37,2.5 0.25,0.95 1.63,0.86 1.87,-0.04 0.27,-1.04 0.36,-2.12 0.37,-3.21 1.32,1.03 3.06,1.62 4.62,1.54 1.15,-0.05 1.05,-1.63 -0.04,-1.74z"/>
  <path class="fil0" d="M51.14 111.75c4,-3.4 9.83,-1.35 9.67,4.25 -0.03,1.01 1.42,1.08 1.69,0.19 0.18,-0.61 0.26,-1.2 0.28,-1.77 2.95,-0.21 5.21,1.57 6.12,4.32 -1.45,0.34 -2.87,0.94 -4.21,1.81 -0.88,0.58 -0.05,1.94 0.86,1.39 6.39,-3.82 13.41,-1.02 15.46,5.72 -1.65,0.59 -3.09,1.72 -3.87,3.44 -0.36,0.8 0.66,1.69 1.3,0.96 2.58,-2.95 7.2,-4.05 9.99,-0.94 -0.35,0.39 -0.67,0.82 -0.94,1.3 -0.47,0.84 0.64,1.55 1.3,0.95 1.88,-1.68 3.64,-3.2 6.34,-2.86 2.2,0.28 3.55,1.95 4.15,3.92 -0.76,0.66 -1.38,1.49 -1.76,2.51 -0.34,0.94 1.1,1.42 1.58,0.62 1.82,-3.06 5.56,-3.56 8.27,-1.64 -0.88,0.93 -1.43,2.14 -1.46,3.59 -0.01,0.83 1.2,1.11 1.57,0.38 1.22,-2.39 2.16,-4.08 5.14,-3.97 1.43,0.06 3.67,0.83 4.28,2.29 -0.19,0.38 -0.35,0.78 -0.47,1.22 -0.24,0.91 1.06,1.4 1.51,0.6 0.79,-1.42 1.53,-2.4 3.26,-2.51 1.27,-0.09 2.01,0.78 2.67,1.72 0.52,0.74 1.8,0.24 1.49,-0.67 -0.54,-1.63 -2.03,-2.98 -3.81,-3.02 -1.38,-0.04 -2.52,0.34 -3.39,1.05 -1.03,-1.65 -3.46,-2.54 -5.22,-2.69 -1.42,-0.13 -2.87,0.19 -4.08,0.87 -2.02,-2.16 -5.36,-2.54 -7.96,-1.37 -1.24,-4.88 -7.25,-6.11 -11.14,-3.45 -1.6,-2.09 -4.4,-3.01 -7.01,-2.7 -1.12,-6.04 -6.46,-9.26 -11.98,-8.81 -0.43,-3.88 -4.45,-6.75 -8.24,-5.81 -1.51,-4.92 -9.45,-6.93 -12.68,-1.84 -0.53,0.84 0.64,1.51 1.3,0.95z"/>
  <path class="fil0" d="M98.23 151.3c-0.24,-1.61 -0.92,-2.94 -1.87,-3.99 0.35,-0.78 0.62,-1.51 1.42,-2.08 0.97,-0.69 2.2,-0.75 3.27,-0.29 0.86,0.38 1.86,-0.73 1.04,-1.41 -1.42,-1.18 -3.35,-1.36 -4.98,-0.51 -1.07,0.56 -2.12,1.58 -2.61,2.77 -4.48,-2.66 -11.54,-1.41 -13.4,4.18 -0.3,0.9 1.03,1.33 1.49,0.58 1.64,-2.72 3.81,-4.16 7.05,-4.1 3.48,0.07 5.5,2.54 7.04,5.31 0.39,0.69 1.68,0.38 1.56,-0.46z"/>
  <path class="fil0" d="M113.76 144.25c-2.04,-1.43 -4.3,-1.59 -6.54,-0.53 -1.59,0.76 -3.44,3.13 -2.34,4.91 0.35,0.56 1.11,0.48 1.44,-0.04 0.64,-1 0.73,-1.96 1.79,-2.7 1.42,-1 3.33,-0.85 4.83,-0.15 1.02,0.47 1.72,-0.88 0.83,-1.5z"/>
  <path class="fil0" d="M73.17 142.4c-0.33,-2.19 -2.71,-4.37 -4.82,-4.24 -0.9,0.06 -1.07,1.36 -0.18,1.59 1.44,0.38 2.49,1.62 3.02,3 -2.69,0.8 -5.12,2.86 -6.02,5.6 -0.32,0.96 1.04,1.33 1.54,0.6 1.41,-2.05 2.76,-3.71 5.25,-4.38 2.5,-0.68 4.37,1.03 6.25,2.34 0.75,0.52 1.57,-0.52 1.16,-1.21 -1.46,-2.46 -3.8,-3.42 -6.18,-3.3z"/>
  <path class="fil0" d="M83.54 139.94c2.98,-1.72 5.54,-0.38 7.13,2.41 0.48,0.84 1.8,0.22 1.53,-0.69 -1.26,-4.11 -6.34,-5.92 -9.65,-2.95 -0.7,0.62 0.23,1.67 1,1.23z"/>
  <path class="fil0" d="M72.09 134.62c0.17,0.99 1.67,0.66 1.69,-0.28 0.07,-4.48 -4.13,-7.75 -8.43,-6.31 -0.83,0.28 -0.68,1.73 0.26,1.59 3.62,-0.57 5.9,1.5 6.48,5z"/>
  <path class="fil0" d="M36.21 102.2c0.83,0.49 1.68,-0.69 0.99,-1.34 -1.78,-1.68 -5.8,-2.22 -7.8,-0.7 -0.7,0.53 -0.27,1.71 0.65,1.45 1.89,-0.53 4.43,-0.41 6.16,0.59z"/>
  <path class="fil0" d="M56.23 67.72c8.46,0 16.92,0.13 25.37,-0.28 1.14,-0.06 1.08,-1.71 -0.04,-1.76 -8.46,-0.41 -16.92,-0.28 -25.39,-0.28 -8.43,0 -16.96,-0.32 -25.38,0.18 -1.28,0.08 -1.21,1.89 0.05,1.97 8.42,0.49 16.96,0.18 25.39,0.18z"/>
  <path class="fil0" d="M39.04 44.61c-1.09,0.18 -1.1,1.68 0.04,1.75 3.7,0.24 6.78,0.97 9.45,3.7 2.14,2.2 2.51,4.82 2.7,7.71 0.06,1.01 1.38,1.09 1.7,0.19 0.64,-1.81 0.28,-3.93 -0.55,-5.81 5,-1.21 9.62,1.74 10.14,7.16 0.09,0.92 1.57,1.22 1.72,0.19 0.17,-1.26 0.04,-2.46 -0.33,-3.56 1.43,-0.22 2.79,-0.3 4.26,0.12 2.34,0.66 3.34,2.75 4.13,4.84 0.33,0.88 1.83,0.78 1.77,-0.24 1.69,0.16 3.45,0.99 3.82,2.72 0.21,0.98 1.72,0.69 1.7,-0.27 -0.07,-3.02 -3.22,-4.24 -5.9,-4.13 -1.44,-4.27 -6.36,-6.3 -10.68,-4.89 -2.34,-3.65 -7.4,-5.62 -11.53,-3.62 -0.34,-0.54 -0.72,-1.04 -1.1,-1.48 -2.78,-3.18 -7.11,-5.02 -11.34,-4.35z"/>
  <path class="fil0" d="M36.16 53c-1.04,0.08 -1.02,1.65 0.04,1.63 3.75,-0.07 6.67,2.16 6.92,6.01 0.07,1.06 1.63,1.03 1.65,-0.04 0.07,-4.84 -3.92,-7.97 -8.6,-7.59z"/>
  <path class="fil0" d="M54.55 70.31c-7.55,-0.12 -15.27,-0.7 -22.8,0.04 -1.04,0.11 -0.97,1.5 0.04,1.59 7.53,0.74 15.25,0.17 22.8,0.05 1.09,-0.02 1.04,-1.67 -0.04,-1.68z"/>
  <path class="fil0" d="M134.43 53.61c-12.64,-0.59 -25.9,-1.1 -38.5,0.06 -1.07,0.1 -1,1.55 0.04,1.64 12.61,1.16 25.87,0.66 38.51,0.06 1.15,-0.05 1.08,-1.71 -0.04,-1.76z"/>
  <path class="fil0" d="M124.32 39.98c1.05,-0.11 1.02,-1.59 -0.04,-1.64 -1.45,-0.06 -3.1,0.53 -4.3,1.55 -4.14,-1.99 -9.37,0.1 -11.19,4.07 -4.94,-1.34 -10.97,2.12 -10.77,7.67 0.03,0.88 1.47,1.1 1.59,0.18 0.54,-4.51 4.42,-7.01 8.65,-6.2 -0.13,0.7 -0.17,1.43 -0.09,2.19 0.12,1.04 1.54,0.99 1.61,-0.04 0.34,-4.79 4.58,-7.78 9.01,-6.47 -0.46,0.8 -0.65,1.72 -0.43,2.7 0.19,0.88 1.67,0.65 1.57,-0.25 -0.26,-2.22 2.56,-3.57 4.39,-3.76z"/>
  <path class="fil0" d="M133.09 58.61c-3.9,-0.21 -8,-0.46 -11.88,0.04 -0.83,0.11 -1.16,1.47 -0.18,1.61 3.96,0.52 8.12,0.28 12.1,0.06 1.11,-0.06 1.05,-1.65 -0.04,-1.71z"/>
  <path class="fil0" d="M65.32 30.58c12.4,0.97 25.31,0.51 37.74,0.02 1.07,-0.04 1.01,-1.61 -0.04,-1.65 -12.42,-0.49 -25.34,-0.96 -37.73,0.02 -1.05,0.08 -0.98,1.52 0.04,1.6z"/>
  <path class="fil0" d="M96.9 34.97c4.6,1.08 10.49,0.63 15.16,0.07 0.88,-0.11 1.22,-1.57 0.19,-1.69 -4.78,-0.58 -10.69,-1.05 -15.39,0.05 -0.8,0.19 -0.72,1.39 0.04,1.57z"/>
  <path class="fil0" d="M109.72 132.59c0.09,-0.4 0.14,-0.79 0.17,-1.21l-0.02 -0.62 -0.09 -0.47 -0.19 -0.36c-0.24,-0.53 -1.13,-0.47 -1.36,0.03l-0.1 0.15 -0.13 0.44 -0.05 0.86c-0.01,0.41 0.09,0.82 0.18,1.21 0.19,0.81 1.42,0.74 1.61,-0.04z"/>
  <path class="fil0" d="M111 128.66l-0.01 0.51c-0,0.34 -0.01,0.68 -0.01,1.03 -0.01,0.58 0.08,1.13 0.14,1.7 0.12,1.11 1.59,1.03 1.7,-0.04 0.05,-0.49 0.15,-0.97 0.14,-1.47 -0,-0.34 -0.01,-0.68 -0.01,-1.02l0.02 -0.9c0.47,-0.75 -0.19,-1.72 -1.03,-1.7 -0.85,0.02 -1.38,0.98 -0.96,1.71l0.02 0.17z"/>
  <path class="fil0" d="M115.66 132.41c0.41,-0.87 0.31,-1.79 0.29,-2.73 -0.02,-0.97 -0.08,-1.94 -0.26,-2.89 -0.15,-0.78 -1.4,-0.72 -1.55,0.04 -0.19,0.95 -0.23,1.93 -0.25,2.9 -0.02,0.96 -0.1,1.83 0.31,2.72 0.27,0.56 1.21,0.5 1.46,-0.04z"/>
  <path class="fil0" d="M118.98 133.37c0.19,-0.83 0.25,-1.55 0.24,-2.4 -0.01,-0.89 0.08,-2.06 -0.45,-2.83 -0.35,-0.51 -1.02,-0.46 -1.36,0.03 -0.48,0.71 -0.39,1.74 -0.43,2.57 -0.04,0.94 0.04,1.75 0.25,2.67 0.2,0.89 1.55,0.8 1.74,-0.04z"/>
  <path class="fil0" d="M122.27 133.13c0.2,-2.2 0.35,-4.67 -0.08,-6.85 -0.16,-0.78 -1.38,-0.71 -1.54,0.04 -0.43,2.17 -0.28,4.66 -0.07,6.86 0.1,1.1 1.59,1.03 1.69,-0.05z"/>
  <path class="fil0" d="M123.82 134.68c0.19,0.82 1.43,0.74 1.62,-0.04 0.26,-1.13 0.22,-2.35 0.22,-3.5 0,-1.19 0.2,-2.55 -0.36,-3.64 -0.27,-0.53 -1.12,-0.47 -1.38,0.04 -0.55,1.07 -0.34,2.48 -0.34,3.65 0,1.15 -0.02,2.36 0.24,3.49z"/>
  <path class="fil0" d="M126.92 132.14c-0.01,1.1 0.05,2.17 0.16,3.26 -0.06,0.58 0.39,0.83 0.84,0.79 0.47,0.04 0.95,-0.23 0.88,-0.83 0.1,-0.98 0.17,-1.95 0.16,-2.95 -0.01,-2.34 -0.5,-5.13 0.09,-7.4 0.47,-1.8 -2.7,-1.84 -2.21,0.05 0.56,2.17 0.09,4.85 0.07,7.08z"/>
  <path class="fil0" d="M131.73 132.88c0.19,-1.8 0.31,-3.93 -0.09,-5.7 -0.17,-0.78 -1.37,-0.71 -1.54,0.04 -0.4,1.76 -0.28,3.91 -0.08,5.7 0.12,1.11 1.59,1.03 1.71,-0.04z"/>
  <path class="fil0" d="M134.53 130.33c-0.01,-0.87 -0.06,-1.69 -0.16,-2.55 -0.04,-0.36 -0.24,-0.67 -0.61,-0.77 -0.39,-0.09 -0.93,0.16 -0.98,0.59 -0.11,0.93 -0.18,1.83 -0.19,2.77 -0.01,1.25 1.95,1.2 1.94,-0.04z"/>
  <path class="fil0" d="M137.29 128.4c-0.01,-0.44 -0.08,-0.85 -0.13,-1.27 -0.04,-0.35 -0.23,-0.66 -0.6,-0.74 -0.38,-0.1 -0.9,0.15 -0.96,0.57 -0.06,0.5 -0.14,0.98 -0.15,1.49 -0.02,1.18 1.85,1.13 1.83,-0.05z"/>
  <path class="fil0" d="M144.19 127.99c0.18,-0.6 0.03,-1.27 -0.02,-1.88 -0.08,-1.02 -1.49,-0.96 -1.56,0.04 -0.05,0.62 -0.19,1.28 -0.01,1.88 0.24,0.81 1.36,0.72 1.58,-0.04z"/>
  <path class="fil0" d="M145.59 129.66c0.38,0.26 0.91,0.27 1.2,-0.07 0.16,-0.14 0.25,-0.37 0.2,-0.67l0 -0.01c0.12,-1 0.2,-1.99 0.19,-3 -0,-1.21 0.17,-2.6 -0.33,-3.72 -0.25,-0.56 -1.17,-0.88 -1.49,-0.16 -0.42,0.94 -0.38,1.9 -0.4,2.92 -0.02,1.35 0.02,2.67 0.19,4.01 0.04,0.33 0.22,0.55 0.44,0.69z"/>
  <path class="fil0" d="M148.65 129.48l0.08 0.07 0.01 0.01c0.37,0.29 0.91,0.32 1.21,0 0.17,-0.15 0.27,-0.38 0.23,-0.69l0 -0.01c0.08,-0.69 0.13,-1.39 0.14,-2.08 0,-0.94 0.09,-2.03 -0.29,-2.91 -0.24,-0.55 -1.15,-0.86 -1.46,-0.15 -0.64,1.48 -0.44,3.64 -0.21,5.2l0.3 0.57z"/>
  <path class="fil0" d="M151.46 126.5c0.06,0.42 0.34,0.68 0.67,0.77 0.3,0.11 0.61,0.08 0.82,-0.13l0.11 -0.1 0.01 -0.01 0.14 -0.55c0.21,-1.63 0.45,-3.66 -0.1,-5.18 -0.29,-0.79 -1.28,-0.71 -1.55,0.04 -0.36,1 -0.28,2.25 -0.25,3.3 0.02,0.63 0.08,1.24 0.16,1.86z"/>
  <path class="fil0" d="M107.01 131.18l0.01 -0.72c-0.06,-1.02 -1.52,-0.96 -1.58,0.04l0.02 0.72c0.18,0.78 1.38,0.71 1.54,-0.04z"/>
 </g>
</svg>
