
<svg xmlns="http://www.w3.org/2000/svg" xml:space="preserve" width="0.747327in" height="0.747346in" version="1.1" style="shape-rendering:geometricPrecision; text-rendering:geometricPrecision; image-rendering:optimizeQuality; fill-rule:evenodd; clip-rule:evenodd"
viewBox="0 0 370.47 370.48"
 xmlns:xlink="http://www.w3.org/1999/xlink"
 xmlns:xodm="http://www.corel.com/coreldraw/odm/2003">
 <defs>
  <style type="text/css">
   <![CDATA[
    .fil0 {fill:black;fill-rule:nonzero}
   ]]>
  </style>
 </defs>
 <g id="Layer_x0020_1">
  <metadata id="CorelCorpID_0Corel-Layer"/>
  <path class="fil0" d="M311.54 80.96c2.22,10.01 17.29,11.15 23.5,4.26 7.23,10.79 13.32,22.41 18.11,34.67 -1.18,1.47 -2.67,2.24 -4.94,2.3 -1.69,0.04 -3.92,-0.36 -5.17,-1.65 -0.1,-2.01 -0.47,-4.04 -1.12,-6.05 -0.78,-2.44 -4.12,-1.27 -3.7,1.13 1.27,7.44 -0.61,14.93 -8.26,17.8 -6.72,2.53 -12.91,-0.92 -18.3,-4.66 -1.48,-1.02 -3.38,1.09 -2.38,2.5 0.76,1.11 1.67,2.11 2.67,2.99 -8.04,5.02 -20.34,0.31 -17.76,-10.8 0.53,-2.24 -2.67,-2.93 -3.4,-0.85 -5.24,14.82 14.89,24.19 24.61,14.11 5.34,2.96 12.06,3.47 17.67,0.91 5.55,-2.53 8.69,-7.08 9.67,-12.31 1.75,0.87 3.83,1.27 5.57,1.33 2.38,0.09 4.81,-0.67 6.59,-2.1 2.28,6.36 4.19,12.87 5.76,19.51 -9.19,-2.22 -18.8,5.19 -20.14,14.1 -6.21,-0.62 -12.29,3.77 -14.11,9.48 -8.28,-3.33 -18.91,3.57 -21.31,11.72 -0.56,1.89 2.44,3.11 3.23,1.28 2.93,-6.75 10.36,-12.2 17.54,-9.24 0.06,1.76 0.52,3.54 1.52,5.28 1.02,1.79 3.97,0.47 3.28,-1.49 -1.16,-3.35 -0.95,-6.64 1.25,-9.54 2.2,-2.91 5.27,-3.7 8.57,-3.51 0.25,1.88 0.88,3.76 2,5.59 1.07,1.78 4.11,0.49 3.36,-1.51 -1.82,-4.92 -1.21,-9.91 2.25,-13.97 3.74,-4.39 8.68,-4.24 13.66,-3.26 2.03,9.9 3.24,20.11 3.57,30.53 -5.82,3.15 -9.66,9.15 -15.97,11.46 -6.59,2.42 -14.44,-3.92 -21.65,-2.37 -7.16,1.54 -12.19,3.8 -18.81,-0.27 -6.68,-4.12 -11.72,-7.89 -19.79,-8.36 -2.17,-0.12 -2.47,3.3 -0.42,3.74 5.16,1.14 9.61,2.67 13.97,5.69 2.09,1.46 4.22,3.18 6.53,4.42 3.94,4.49 7.23,9.71 13.71,10.52 2.22,0.27 3.16,-2.91 0.86,-3.47 -3.47,-0.87 -5.86,-2.96 -8.09,-5.34 3.61,0.05 7.2,-1.12 10.77,-1.93 0.68,-0.15 1.36,-0.24 2.02,-0.31 1.07,2.73 2.63,5.3 4.84,7.25 1.79,1.58 3.91,-0.85 2.48,-2.61 -1.16,-1.41 -2.08,-2.98 -2.95,-4.6 5.97,0.66 11.54,3.35 17.91,2.27 5.78,-0.98 9.98,-6.67 14.67,-10.31l0.01 0.94c-0.04,7.44 -0.55,14.75 -1.47,21.94 -6.62,-2.74 -15.94,0.28 -20.6,5.28 -1.32,1.42 0.61,3.99 2.2,2.71 4.7,-3.78 11.97,-6.98 17.87,-4.09 -0.21,1.41 -0.45,2.83 -0.7,4.23l-0.06 -0.02c-8.75,-0.95 -19.44,3.38 -20.56,13.09 -0.25,2.16 2.86,3.09 3.37,0.85 1.98,-8.42 9.04,-10.03 16.61,-10.41 -1.99,10.19 -4.85,20.06 -8.49,29.56 -11.09,-0.5 -22.82,-1.14 -33.8,0.17 -1.76,0.2 -2.42,3.12 -0.37,3.36 10.63,1.27 21.89,0.77 32.66,0.29 -26.94,65.74 -91.68,112.26 -166.82,112.26l-1.01 0c-48.13,-0.27 -93.28,-19.26 -127.12,-53.49 -17.85,-18.04 -31.41,-39.17 -40.22,-62.17 6.76,-8.92 13.23,1.49 20.46,1.03 2.17,-0.13 3.71,-0.6 5.63,-1.59 5.81,-3 8.51,1.35 12.41,4.22l0.3 0.18c0.21,0.61 0.66,1.13 1.36,1.25 5.7,0.93 11.91,-0.92 17.53,0.5 3.95,0.98 4.03,-5.9 -0.12,-4.86 -5.21,1.31 -10.95,-0.17 -16.32,0.37l-0.14 -0.16c-3.36,-3.13 -5.52,-6.35 -10.16,-7.39 -5.31,-1.18 -7.28,5.06 -13.52,2.22 -4.52,-2.05 -6.66,-4.2 -11.97,-3.42 -2.7,0.39 -5.1,1.52 -7.08,3.21 -2.92,-8.29 -5.24,-16.8 -6.92,-25.48 3.52,-2.84 9.13,-4.52 12.34,-0.45 1.43,1.82 4.16,0.21 3.09,-1.9 -3.18,-6.22 -11.07,-5.16 -16.16,-1.73 -0.86,-5.06 -1.5,-10.16 -1.93,-15.33 6.24,5.03 13.52,8.77 21.68,9.36 10.39,0.76 23.76,-0.5 33.16,-5.37 9.74,-5.03 19.89,-10.88 27.11,-19.28 2.66,-3.11 6.05,-7.77 6.23,-12 0.28,-6.18 6.91,-5.02 11.76,-4.69 -0.38,4.18 -1.3,8.08 -2.98,11.99 -0.88,2.06 2,3.76 3.11,1.72 2.48,-4.61 3.82,-9.67 3.63,-14.92l-0.1 -0.45c-0.04,-0.87 -0.65,-1.75 -1.77,-1.84 -5.78,-0.53 -12.67,-1.84 -16.74,3.29 -2.11,2.64 -1.89,7.38 -3.68,10.5 -3.34,5.79 -8.95,9.92 -14.4,13.53 -21.17,14.07 -47.45,19.84 -67.45,1.27 -0.14,-3.09 -0.2,-6.19 -0.19,-9.3 0.09,-16.19 2.35,-31.88 6.47,-46.81 5.62,7.47 14.7,11.42 24.15,9.76 5.92,-1.05 10.05,-4.78 12.57,-9.58 8.94,7.77 26.56,5.92 28.64,-7.42 0.36,-2.35 -2.95,-3.24 -3.64,-0.9 -3.11,10.41 -16.03,9.76 -23.38,4.41 1.17,-3.64 1.56,-7.57 1.23,-11.29 -0.21,-2.31 -3.58,-2.26 -3.62,0.1 -0.16,9.26 -3.38,17.82 -13.1,20.38 -8.72,2.3 -16.24,-3.88 -21.53,-10 3.1,-10.14 7.07,-19.92 11.82,-29.23 4.15,6.99 16.61,7.02 22.02,0.45 1.54,-1.86 -0.86,-4.06 -2.66,-2.54 -5.63,4.74 -14.09,3.86 -16.64,-3.03 16.85,-30.5 42.27,-55.65 72.97,-72.15 1.18,-0.21 2.39,-0.27 3.6,-0.01 3.31,0.67 4.63,4.21 5.8,6.93 0.92,2.13 3.96,1.27 3.48,-1.06l-0.43 -1.58c3.38,-2.41 7.74,-2.1 10.91,0.82 1.7,1.57 3.97,-0.89 2.45,-2.57 -3.79,-4.19 -10.46,-4.87 -14.98,-1.71 -1.12,-1.76 -2.62,-3.2 -4.52,-4.05 20.97,-10.23 44.19,-16.52 68.69,-17.85 -2.42,2.69 -3.85,6.28 -3.67,10.02 -5.56,1.19 -10.54,4.6 -10.38,10.78 0.05,2 2.95,2.3 3.46,0.37 1.78,-6.71 8.89,-8.9 15.25,-7.68 2.21,0.43 3.06,-2.85 0.85,-3.41 -1.5,-0.38 -3.19,-0.57 -4.94,-0.54 0.39,-2.49 0.83,-4.88 2.55,-6.96 1.93,-2.33 4.53,-2.67 7.23,-2.86l0.55 0c21.42,0.13 41.95,4 60.98,11 -4.41,1.79 -8.05,5.34 -9.17,10.14 -0.45,1.96 2.58,3.3 3.38,1.33 2.31,-5.78 7.31,-8.94 12.81,-8.73 31.6,13.16 58.67,35.04 78.18,62.63 -4.73,4.86 -14.49,4.9 -17.65,-1.91 -0.9,-1.96 -3.64,-0.41 -3.22,1.45zm-125.28 -80.95l-1.04 -0.01c-101.57,0 -184.66,82.65 -185.21,184.22 -0.01,3.21 0.05,6.42 0.19,9.6l0.08 1.47c2.39,45.33 21.07,87.67 53.25,120.22 34.8,35.18 81.2,54.71 130.68,54.97l1.05 0.01c49.26,0 95.63,-19.13 130.58,-53.88 34.96,-34.75 54.35,-81.04 54.63,-130.33 0.56,-102.14 -82.08,-185.7 -184.21,-186.26z"/>
  <path class="fil0" d="M50.17 270.68l-1.13 -1.11 -0.94 -1.5 3.32 -2.06 0.93 1.51 0.48 1.49c-0.02,0.36 -0.14,0.83 -1.01,1.37 -0.67,0.42 -1.2,0.52 -1.66,0.31zm3.6 2.8c2.16,-1.34 2.67,-3.08 2.73,-4.32 0.06,-1.19 -0.29,-2.41 -1.03,-3.59l-1.98 -3.18c-0.49,-0.79 -1.53,-1.03 -2.31,-0.54l-11.71 7.28 -0.76 1.06 0.21 1.27 0.15 0.26c0.5,0.77 1.54,1.01 2.32,0.53l3.59 -2.24 0.94 1.51c0.72,1.17 1.64,2.02 2.73,2.51 0.64,0.29 1.31,0.44 1.98,0.44 1.04,0 2.08,-0.33 3.13,-0.98z"/>
  <path class="fil0" d="M61.31 287.04c0.73,-0.57 0.85,-1.63 0.28,-2.36l-1.69 -2.14 1.87 -1.48 2.63 3.32 1.12 0.63 1.24 -0.36 0.23 -0.18c0.73,-0.58 0.85,-1.63 0.28,-2.36l-3.84 -4.88 -1.13 -0.63 -1.24 0.35 -10.93 8.64c-0.73,0.57 -0.85,1.63 -0.28,2.36l3.85 4.87 1.32 0.64 1.03 -0.36 0.23 -0.17 0.63 -1.13 -0.35 -1.24 -2.62 -3.33 3.07 -2.42 1.69 2.14 1.11 0.63 1.24 -0.36 0.24 -0.19z"/>
  <path class="fil0" d="M70.22 299.97l-1.04 -1.05 2.11 -1.04 -1.07 2.09zm6.49 -7.23l-0.22 -0.22c-0.5,-0.52 -1.29,-0.66 -1.94,-0.33l-12.85 6.33 -0.86 1.01 0.12 1.31 0.14 0.26c0.43,0.78 1.41,1.11 2.22,0.71l2.39 -1.17 2.77 2.79 -1.2 2.38c-0.41,0.81 -0.11,1.8 0.68,2.24l0.26 0.15 0.82 0.21 0.49 -0.08 1.01 -0.84 6.49 -12.78c0.32,-0.65 0.21,-1.43 -0.31,-1.95z"/>
  <path class="fil0" d="M91.77 308.47l0.19 -0.23c0.59,-0.72 0.47,-1.78 -0.25,-2.36l-1.76 -1.43c-1.32,-1.06 -2.74,-1.53 -4.15,-1.37 -1.42,0.14 -2.69,0.89 -3.76,2.21l-3.81 4.71c-1.06,1.32 -1.53,2.71 -1.38,4.14 0.16,1.42 0.91,2.69 2.22,3.76l1.76 1.43 1.07 0.37 0.17 -0.01 1.13 -0.62 0.19 -0.22c0.58,-0.72 0.47,-1.78 -0.26,-2.38l-1.76 -1.42c-0.83,-0.65 -0.87,-1.14 -0.89,-1.29 -0.01,-0.17 -0.06,-0.65 0.61,-1.47l3.81 -4.71c0.65,-0.8 1.14,-0.86 1.43,-0.88l1.33 0.6 1.76 1.42 1.23 0.37 1.14 -0.63z"/>
  <path class="fil0" d="M105.73 315.58l-5.24 -3.35c-0.78,-0.5 -1.82,-0.27 -2.33,0.52l-7.51 11.74c-0.5,0.78 -0.27,1.82 0.51,2.31l5.23 3.35 0.91 0.27 0.36 -0.05 1.06 -0.73 0.15 -0.24c0.5,-0.79 0.27,-1.82 -0.51,-2.31l-3.57 -2.29 2.11 -3.3 2.29 1.47 1.27 0.23 1.05 -0.74 0.16 -0.26c0.5,-0.78 0.28,-1.82 -0.51,-2.32l-2.29 -1.47 1.29 -2.01 3.57 2.28 1.27 0.22 1.05 -0.74 0.16 -0.26c0.5,-0.78 0.27,-1.81 -0.5,-2.32z"/>
  <path class="fil0" d="M137.3 330.27l-3.56 -1.28c-1.33,-0.47 -2.72,-0.45 -4.03,0.08 -1.51,0.59 -2.6,1.73 -3.17,3.31l-2.05 5.71c-0.52,1.47 -0.47,2.96 0.17,4.31 0.65,1.37 1.73,2.34 3.22,2.87l3.71 1.33 0.57 0.1c0.69,0 1.33,-0.42 1.58,-1.11l2.67 -7.41c0.32,-0.87 -0.15,-1.84 -1.02,-2.15l-2.28 -0.82c-0.87,-0.31 -1.83,0.15 -2.15,1.02l-0.1 0.29 0.06 1.28 0.95 0.87 0.41 0.16 -1.33 3.68 -1.84 -0.67 -1.15 -0.98 -0.03 -1.52 2.04 -5.7 1.07 -1.14 1.44 -0.04 3.57 1.27c0.87,0.32 1.84,-0.14 2.15,-1l0.11 -0.29 -0.07 -1.28 -0.94 -0.87z"/>
  <path class="fil0" d="M147.09 343.25l1.25 -1.99 0.2 2.33 -1.45 -0.34zm3.12 -9.23l-0.32 -0.07c-0.7,-0.17 -1.44,0.13 -1.81,0.74l-7.53 12.18 -0.21 1.31 0.8 1.05 0.27 0.14c0.79,0.45 1.78,0.19 2.26,-0.57l1.4 -2.27 3.82 0.91 0.24 2.65c0.08,0.86 0.81,1.53 1.67,1.53l0.09 -0 0.3 -0.02 1.18 -0.57 0.41 -1.26 -1.29 -14.26c-0.07,-0.72 -0.59,-1.32 -1.29,-1.49z"/>
  <path class="fil0" d="M168.12 342.63c-0.13,1.02 -0.5,1.35 -0.81,1.5 -0.41,0.2 -0.94,0.26 -1.57,0.19l-1.76 -0.22 0.46 -3.87 1.76 0.21c0.63,0.07 1.13,0.26 1.46,0.55 0.27,0.23 0.56,0.63 0.45,1.64zm1.98 -4.38c-0.9,-0.81 -2.06,-1.29 -3.44,-1.45l-3.72 -0.45 -1.24 0.34 -0.63 1.12 -1.65 13.69c-0.12,0.92 0.54,1.76 1.47,1.87l0.29 0.04 1.25 -0.34 0.63 -1.12 0.52 -4.2 1.6 0.2 1.87 5.29c0.25,0.69 0.89,1.12 1.59,1.12l0.5 -0.08 0.28 -0.09 1.01 -0.85 0.08 -1.31 -1.6 -4.57c1.63,-0.75 2.62,-2.25 2.88,-4.39 0.29,-2.53 -0.73,-4.02 -1.65,-4.83z"/>
  <path class="fil0" d="M185.8 349.26c-0.01,0.7 -0.28,1.22 -0.86,1.67l-1.53 0.61 -1.58 -0.03 0.21 -9.98 1.58 0.04 1.49 0.66c0.56,0.49 0.81,1.02 0.79,1.72l-0.12 5.3zm-2.09 -11.36l-3.57 -0.07c-0.96,-0.04 -1.7,0.71 -1.72,1.65l-0.3 13.93 0.47 1.2 1.18 0.51 3.56 0.08 0.12 0c1.32,0 2.58,-0.46 3.75,-1.4 1.45,-1.12 2.21,-2.67 2.26,-4.47l0.12 -5.3c0.04,-1.79 -0.68,-3.37 -2.05,-4.57 -1.16,-1 -2.45,-1.52 -3.82,-1.57z"/>
  <path class="fil0" d="M205.38 350.41l-4.21 0.43 -0.39 -3.9 2.7 -0.28c0.92,-0.08 1.6,-0.91 1.51,-1.83l-0.04 -0.3 -0.6 -1.14 -1.24 -0.37 -2.71 0.28 -0.24 -2.39 4.21 -0.42c0.92,-0.09 1.6,-0.92 1.51,-1.85l-0.03 -0.3 -0.61 -1.14 -1.23 -0.36 -6.18 0.61 -1.13 0.61 -0.38 1.24 1.41 13.86 0.61 1.14 1.06 0.36 0.16 -0.01 6.18 -0.62 1.14 -0.61 0.36 -1.24 -0.04 -0.28c-0.1,-0.93 -0.9,-1.58 -1.84,-1.5z"/>
  <path class="fil0" d="M223.7 335.07l-0.74 -1.07 -1.27 -0.22 -0.3 0.06c-0.9,0.2 -1.48,1.09 -1.29,2l1.4 6.42 -5.58 -6.35 -1.62 -0.53 -0.32 0.05c-0.91,0.21 -1.48,1.1 -1.29,2l2.88 13.34c0.17,0.79 0.87,1.33 1.64,1.33l0.36 -0.05 0.29 -0.05 1.07 -0.74 0.23 -1.27 -1.39 -6.42 5.58 6.36 1.63 0.52 0.32 -0.07c0.91,-0.2 1.47,-1.09 1.29,-2l-2.89 -13.33z"/>
  <path class="fil0" d="M255.82 329.65c-0.91,-0.02 -1.7,-0.04 -2.38,-0.06l-1.67 -0.03c-0.96,-0.02 -1.26,-0.38 -1.43,-0.76l-0.08 -0.86 0.79 -0.8c0.21,-0.09 0.92,-0.34 3.05,-0.58 0.76,-0.07 1.37,-0.67 1.49,-1.43l0.05 -0.29 -0.35 -1.28 -1.18 -0.63c-1.5,-0.15 -3.06,0.16 -4.62,0.89 -1.42,0.68 -2.4,1.77 -2.76,3.16 -0.32,1.16 -0.22,2.3 0.29,3.37 0.64,1.37 1.75,2.3 3.19,2.68l0.21 0.05 1.03 0.1 0.95 0.05 2.54 0.07 1.02 0.07 0.54 0.1 0.6 0.56 0.04 0.86 -0.63 0.72c-0.07,0.03 -0.79,0.31 -4,0.37 -0.79,0.01 -1.46,0.58 -1.61,1.36l-0.06 0.3 0.26 1.25 1.08 0.71 1.72 0.16 1.28 -0.08c1.07,-0.12 2.04,-0.39 2.88,-0.79 1.32,-0.62 2.23,-1.67 2.62,-3.06 0.32,-1.18 0.23,-2.31 -0.25,-3.36 -0.57,-1.2 -1.83,-2.69 -4.63,-2.84z"/>
  <path class="fil0" d="M268.55 317.65l1.66 -1.02 0.75 -1.04 -0.21 -1.27 -0.16 -0.26c-0.49,-0.78 -1.51,-1.02 -2.31,-0.54l-6.45 3.96 -0.75 1.04 0.19 1.28 0.16 0.27c0.49,0.78 1.53,1.02 2.32,0.55l1.66 -1.03 6.18 10.07 1.44 0.8 0.87 -0.25 0.26 -0.17 0.75 -1.04 -0.2 -1.28 -6.17 -10.06z"/>
  <path class="fil0" d="M284.55 314l-0.78 -2.21 1.96 1.3 -1.17 0.91zm-3.28 -8.28l-1.97 0.07 -0.26 0.2c-0.57,0.44 -0.79,1.2 -0.55,1.89l4.79 13.5 0.89 0.97 0.69 0.15 0.63 -0.12 0.28 -0.12c0.83,-0.34 1.25,-1.26 0.96,-2.11l-0.89 -2.52 3.11 -2.4 2.22 1.47c0.75,0.5 1.77,0.32 2.29,-0.41l0.17 -0.26 0.29 -1.28 -0.72 -1.09 -11.93 -7.94z"/>
  <path class="fil0" d="M295.83 295.89l1.4 -1.35c0.65,-0.65 0.67,-1.71 0.03,-2.38l-0.21 -0.21 -1.18 -0.51 -1.2 0.47 -5.42 5.3 -0.5 1.18 0.48 1.2 0.21 0.22c0.65,0.66 1.72,0.67 2.38,0.02l1.4 -1.36 8.23 8.46 1.2 0.5 0.01 0 1.18 -0.48 0.21 -0.22c0.67,-0.65 0.68,-1.71 0.04,-2.36l-8.24 -8.47z"/>
  <path class="fil0" d="M315.95 288.3l-2.67 3.26 -3.04 -2.48 1.73 -2.11c0.59,-0.72 0.5,-1.77 -0.23,-2.36l-0.23 -0.19 -1.24 -0.37 -1.13 0.6 -1.73 2.11 -1.85 -1.53 2.68 -3.27 0.37 -1.24 -0.61 -1.14 -0.23 -0.19c-0.72,-0.58 -1.78,-0.47 -2.36,0.24l-3.94 4.79 -0.37 1.23 0.61 1.14 10.78 8.84 1.07 0.38 0.17 -0.01 1.13 -0.61 3.95 -4.81 0.36 -1.23 -0.61 -1.14 -0.23 -0.18c-0.72,-0.58 -1.77,-0.48 -2.36,0.24z"/>
  <path class="fil0" d="M77.64 103.1l0.27 -0.39c0.53,-0.76 0.35,-1.8 -0.41,-2.34l-16.3 -11.45c-0.76,-0.55 -1.81,-0.36 -2.34,0.4l-0.26 0.37 -0.28 1.26 0.7 1.08 10.29 7.24 -15.24 -1.63 -1.56 0.7 -0.27 0.39 -0.28 1.25 0.69 1.09 16.29 11.45 0.98 0.32 1.37 -0.72 0.25 -0.35 0.28 -1.27 -0.68 -1.08 -10.29 -7.23 15.25 1.62 1.56 -0.71z"/>
  <path class="fil0" d="M76.5 74.81c0.72,-0.72 1.53,-1.05 2.51,-1.05l0 -0.44 0.05 0 0.01 0.44c1.02,0 1.83,0.35 2.56,1.09l6.21 6.29c0.72,0.75 1.06,1.57 1.05,2.6 -0.01,1.01 -0.34,1.82 -1.08,2.55 -0.74,0.72 -1.54,1.05 -2.59,1.05 -1.02,-0.01 -1.84,-0.36 -2.56,-1.09l-6.22 -6.3c-0.72,-0.74 -1.06,-1.56 -1.05,-2.58 0.01,-1.02 0.36,-1.85 1.09,-2.57zm3.47 14.11c1.43,1.45 3.19,2.21 5.22,2.22l0.06 0c2.01,0 3.77,-0.74 5.22,-2.16 1.45,-1.45 2.2,-3.2 2.22,-5.23 0.01,-2.04 -0.69,-3.81 -2.13,-5.27l-6.22 -6.3c-1.43,-1.45 -3.19,-2.2 -5.29,-2.21 -2.02,0 -3.79,0.71 -5.22,2.14 -1.46,1.44 -2.2,3.21 -2.22,5.26 -0.01,2.03 0.71,3.81 2.15,5.26l6.22 6.31z"/>
  <path class="fil0" d="M97.78 57.26c0.91,-0.62 1.76,-0.92 2.57,-0.92l0 -0.45 0.01 0 0.01 0.45c0.65,0 1.65,0.19 2.7,1.72 1.06,1.56 0.87,2.53 0.64,3.13 -0.3,0.75 -0.91,1.44 -1.82,2.06l-2.77 1.9 -4.09 -6.01 2.77 -1.89zm4.26 18.92l1.07 0.7 0.31 0.03 0.95 -0.29 0.36 -0.26c0.76,-0.53 0.96,-1.56 0.43,-2.33l-3.92 -5.74 2.78 -1.9 0.21 -0.15 7.56 4.26c0.78,0.44 1.78,0.19 2.26,-0.58l0.22 -0.37 0.2 -1.3 -0.81 -1.05 -6.79 -3.84c1.29,-2.31 1.07,-4.9 -0.69,-7.47 -1.91,-2.79 -4.21,-3.37 -5.84,-3.37 -1.59,0 -3.18,0.53 -4.73,1.58l-4.51 3.09c-0.77,0.52 -0.97,1.56 -0.44,2.34l11.36 16.63z"/>
  <path class="fil0" d="M115.1 44.91c0.38,0.85 1.38,1.23 2.22,0.85l3.31 -1.48 7.33 16.46 0.94 0.89 0.59 0.11 0.69 -0.14 0.4 -0.18c0.85,-0.39 1.23,-1.38 0.85,-2.22l-7.32 -16.45 3.31 -1.48 0.89 -0.94 -0.04 -1.28 -0.18 -0.42c-0.39,-0.85 -1.38,-1.23 -2.23,-0.85l-10.11 4.51 -0.88 0.94 0.04 1.29 0.18 0.4z"/>
  <path class="fil0" d="M145.8 53.78l0.76 1.03 0.88 0.25 0.39 -0.04 0.43 -0.1c0.9,-0.22 1.45,-1.13 1.23,-2.03l-2.15 -8.92 7.06 -1.71 2.15 8.92 0.77 1.03 1.27 0.21 0.44 -0.11c0.9,-0.22 1.45,-1.12 1.23,-2.02l-4.69 -19.38c-0.21,-0.9 -1.12,-1.44 -2.02,-1.25l-0.43 0.11 -1.04 0.75 -0.2 1.28 1.62 6.76 -7.06 1.71 -1.63 -6.76 -0.76 -1.05 -1.27 -0.2 -0.43 0.11c-0.89,0.22 -1.44,1.13 -1.23,2.03l4.68 19.37z"/>
  <path class="fil0" d="M200.62 30.88l3.07 0.38c0.92,0.1 1.75,0.56 2.54,1.41 0.91,0.95 1.26,1.99 1.11,3.24l-0.93 7.68c-0.15,1.24 -0.74,2.16 -1.84,2.88 -1,0.63 -1.91,0.9 -2.82,0.77l-3.07 -0.38 1.95 -15.99zm-4.5 19.5l5.16 0.63 0.88 0.05c1.49,0 2.99,-0.46 4.44,-1.38 2.08,-1.34 3.28,-3.22 3.57,-5.62l0.93 -7.68c0.3,-2.4 -0.42,-4.53 -2.11,-6.32 -1.42,-1.5 -3.04,-2.38 -4.85,-2.59l-5.17 -0.63c-0.92,-0.12 -1.75,0.54 -1.87,1.47l-2.46 20.21 0.34 1.22 1.13 0.64z"/>
  <path class="fil0" d="M230.31 41.09l0.13 6.84 -4.12 -1.29 3.99 -5.55zm-11.58 12.59l0.36 0.24c0.76,0.49 1.77,0.32 2.3,-0.43l2.6 -3.6 6.53 2.04 0.1 4.44c0.02,0.9 0.74,1.63 1.63,1.64l0.44 0.02 0.07 0c0.94,0 1.68,-0.76 1.68,-1.68l-0.04 -0.37 -0.41 -20.59c-0.01,-0.71 -0.48,-1.35 -1.18,-1.56l-0.45 -0.15c-0.69,-0.21 -1.45,0.04 -1.87,0.63l-12.21 16.99 -0.29 1.28 0.72 1.1z"/>
  <path class="fil0" d="M243.04 62.62l0.39 0.21c0.81,0.41 1.83,0.1 2.26,-0.72l3.26 -6.2 2.78 -1.01 0.19 11.5c0.01,0.93 0.76,1.65 1.68,1.65l0.48 0c0.93,0 1.67,-0.75 1.67,-1.67l-0.04 -0.36 -0.19 -12.51 8.2 -2.99c0.87,-0.32 1.32,-1.27 1.01,-2.15l-0.15 -0.41 -0.87 -0.95 -1.28 -0.06 -10.84 3.95 3.37 -6.43 0.12 -1.28 -0.83 -0.98 -0.38 -0.21c-0.83,-0.44 -1.85,-0.11 -2.27,0.7l-9.26 17.65 -0.12 1.29 0.83 0.99z"/>
  <path class="fil0" d="M270.2 70.6l5.45 -6.98c0.64,-0.82 1.41,-1.25 2.41,-1.36l0.51 -0.04c0.79,0 1.5,0.26 2.19,0.78 0.81,0.63 1.25,1.4 1.36,2.42 0.13,1.01 -0.1,1.86 -0.74,2.67l-5.45 6.97c-0.64,0.82 -1.41,1.27 -2.44,1.38 -0.98,0.12 -1.86,-0.11 -2.66,-0.74 -0.81,-0.64 -1.26,-1.41 -1.39,-2.42 -0.12,-1.02 0.12,-1.87 0.77,-2.68zm-1.7 8.07c1.34,1.06 2.87,1.59 4.51,1.59l0.97 -0.06c2.03,-0.25 3.7,-1.19 4.94,-2.79l5.45 -6.98c1.26,-1.6 1.76,-3.45 1.52,-5.49 -0.24,-2.03 -1.19,-3.7 -2.8,-4.95 -1.6,-1.26 -3.43,-1.78 -5.49,-1.53 -2.02,0.25 -3.68,1.2 -4.94,2.81l-5.45 6.97c-1.25,1.61 -1.78,3.46 -1.53,5.48 0.25,2.02 1.2,3.68 2.82,4.94z"/>
  <path class="fil0" d="M304.75 86.18c0.63,0.69 1.69,0.76 2.38,0.14l0.33 -0.3 0.56 -1.16 -0.43 -1.22 -7.36 -8.26 -1.16 -0.56 -1.22 0.43 -0.33 0.29c-0.69,0.63 -0.75,1.69 -0.13,2.38l2.42 2.71 -13.45 11.98c-0.69,0.63 -0.76,1.69 -0.14,2.38l0.3 0.33 1.16 0.56 0.1 0 1.12 -0.42 13.45 -12 2.41 2.71z"/>
  <path class="fil0" d="M314.18 106.55l-4.39 5.23 -2.26 -3.69 6.65 -1.54zm-16.83 0.53l-0.18 1.31 0.11 0.42c0.24,0.88 1.12,1.41 2,1.2l4.34 -1 3.57 5.84 -2.86 3.4c-0.58,0.69 -0.51,1.71 0.16,2.33l0.32 0.29 1.14 0.44 0.11 0 1.18 -0.61 13.47 -15.99c0.46,-0.57 0.53,-1.35 0.14,-1.97l-0.25 -0.4c-0.39,-0.61 -1.1,-0.92 -1.81,-0.76l-20.37 4.72 -1.07 0.78z"/>
  <path class="fil0" d="M194.94 252.24c0.21,0.82 1.02,1.3 1.82,1.32 5.45,0.1 10.9,0.16 16.34,0.13 1.61,-0.02 2.16,-1.55 1.74,-2.71 -0.69,-4.75 -5.71,-5.21 -7.44,-9.57 -2.53,-6.33 -3.9,-11.96 -0.06,-18.36 1.38,-2.29 1.85,-4.77 2.34,-7.38 1.01,-5.3 4.99,-8.68 8.6,-12.31 4.97,-5.03 4.66,-10.64 4.16,-17.33 -0.17,-2.34 -3.59,-2.26 -3.64,0.09 -0.1,5.34 0.59,10.38 -3.3,14.59l-0.93 0.96c0,-0.89 -0.07,-1.78 -0.28,-2.64 -0.45,-1.89 -3.59,-1.4 -3.39,0.54 0.23,2.19 -0.27,4.15 -0.82,6.26l-0.03 0.54 -1.07 1.37c-2.2,3.26 -2.87,5.96 -3.62,9.82 -0.63,3.24 -2.93,3.6 -3.56,6.28 -1.18,5.06 -2.17,13.25 0.75,17.96 1.75,2.82 5.2,5.16 7.3,7.91 -3.87,0 -7.74,0.03 -11.61,0.12 -0.1,-1.25 0.01,-2.51 -0.35,-3.73l-0.08 -0.15c0.56,-0.37 0.94,-1.03 0.81,-1.84 -1.17,-7.12 -3.75,-13.38 -6.55,-19.98 -3.91,-9.26 -3.55,-17.88 -1.85,-27.66 1.27,-7.39 3.09,-21.77 -9.22,-18 -2.26,0.68 -1.2,3.9 1.05,3.46 4.74,-0.96 5.81,2.62 5.61,6.97 -1.23,0.21 -2.22,0.96 -3.28,1.55 -1.81,1.03 -0.45,3.69 1.45,3.22l1.28 -0.35c-0.11,0.64 -0.23,1.27 -0.36,1.88 -0.95,-0.01 -1.84,0.4 -2.69,0.78 -1.01,0.45 -2.11,0.82 -3.06,1.39 -1.58,0.96 -0.77,3.31 0.99,3.33 1.02,0.02 1.96,-0.37 2.88,-0.76l0.88 -0.35 -0.26 1.28c-0.12,0.77 -0.23,1.54 -0.34,2.3 -2.46,-1.26 -5.38,-1.5 -8.15,-1.56 -2.69,-0.07 -5.3,0.64 -7.93,0.87 -0.38,-0.96 -1.32,-1.54 -2.43,-1.25 -0.78,0.21 -1.21,0.41 -1.89,0.85 -0.65,0.43 -0.87,1.19 -0.74,1.88 -0.96,0.29 -1.89,0.63 -2.79,1.15 -0.94,0.55 -1.79,1.41 -2.21,2.4 -0.41,0.96 -0.43,2 -1.11,2.8 -0.96,1.09 -0.27,3.01 1.29,2.92 1.09,-0.05 2.13,-0.47 2.68,-1.48 0.43,-0.8 0.43,-2.16 0.94,-2.85 0.61,-0.83 2.02,-1.07 2.93,-1.34 0.9,-0.28 1.77,-0.63 2.62,-1.02 2.3,-0.14 4.54,-0.82 6.89,-0.82 3.35,-0.01 6.29,0.83 9.52,1.54l0.04 0c-0.12,2.46 -0.03,4.93 0.45,7.31 2.11,10.62 8.1,19.82 10.09,30.51l0.04 0.11c-0.61,0.36 -1.01,1.02 -0.77,1.9 0.46,1.65 -0.1,3.45 0.34,5.13z"/>
  <path class="fil0" d="M229.51 201.16c-1.38,3.43 -3.53,6.24 -6.23,8.68l-0.19 0.04c-2.93,0.74 -4.91,4.16 -7.48,1.36 -1.24,-1.34 -3.72,0.16 -3.05,1.88 0.94,2.45 2.75,4.27 5.56,3.9 1.8,-0.23 5.4,-3.5 6.15,-2.04 0.46,0.93 1.56,1.09 2.46,0.93 2.56,-0.44 5.21,-1.57 7.62,-3.16 1.8,1.59 3.62,2.1 5.41,1.91 -0.31,1.08 -0.5,2.24 -0.62,3.56 -0.23,2.71 0.1,4.9 -0.4,7.72 -0.55,3.1 -4.08,5.29 -6.26,7.21 -5.83,5.16 -4.14,12.96 -0.7,18.86 1.44,2.48 5.24,0.14 3.79,-2.34 -6.22,-10.65 2.03,-12.98 6.48,-20.31 3.11,-5.1 0.46,-11.27 2.65,-16.73 1.31,-0.9 2.56,-1.97 3.7,-3.02 1.57,-1.46 -0.52,-3.56 -2.2,-2.73 -1.7,0.83 -3.22,1.99 -4.85,2.94 -1.3,0.76 -2.51,0.73 -3.77,0.4 1.89,-1.78 3.44,-3.85 4.37,-6.02 0.89,-2.07 -1.84,-3.64 -3.09,-1.71 -2.31,3.57 -6.15,7.07 -10.36,8.57 2.42,-2.16 4.04,-5.19 4.47,-8.51 0.23,-1.91 -2.59,-3.48 -3.43,-1.36z"/>
  <path class="fil0" d="M264.09 210.08c-6.46,-1.04 -9.5,-3.81 -12.22,-9.75 -0.32,-0.69 -1.01,-1.48 -1.68,-1.86 -1.34,-0.74 -0.84,-4.37 -1,-6.06 -0.4,-3.94 -4.71,-4.78 -4.47,-9.65 0.21,-4.12 -1.96,-8.12 -3.06,-12.08l-0.23 -0.5 -0.96 -1.33c-1.23,-0.59 -2.44,-0.61 -3.77,-0.77 -0.83,-0.1 -2.3,-0.1 -2.55,-0.83l0.01 -0.34 1.11 -0.69c0.94,-0.33 2.05,-0.34 2.91,0.16 2.26,1.33 3.9,-2.01 1.91,-3.46 -0.63,-0.47 -1.39,-0.77 -2.19,-0.94 -1.6,-1.93 -3.24,-3.46 -4.17,-6.03 -1.2,-3.29 -0.96,-6.68 1.08,-9.53 1.14,-1.61 -1.42,-3.36 -2.72,-2 -4.25,4.49 -3.6,13.49 0.58,18.46 -1.45,0.85 -2.53,2.19 -2.63,3.96 -0.25,4.15 4.49,5.97 8.12,5.83 0.35,2.27 0.63,5.1 1.92,6.91 1.59,2.24 -0.42,5.85 1.16,8.24 1.25,1.9 3.74,4.19 4.08,6.42 0.36,2.26 -0.75,4.12 0.6,6.29 0.81,1.31 2.12,1.05 2.89,2.8 0.91,2.1 1.69,4.24 3.34,5.89 3.16,3.16 7.06,4.61 11.55,4.47 2.02,-0.06 2.51,-3.29 0.4,-3.62z"/>
  <path class="fil0" d="M267.69 208.9c-0.93,1.73 1.55,3.71 2.85,2.09 1.51,-1.89 4.3,-4.12 4.67,-6.7 0.68,-4.43 1.52,-8.44 2.87,-12.71 0.5,-1.55 0.67,-3.24 0.85,-4.85 0.5,-4.52 1.8,-2.46 2.87,-5.09 1.05,-2.58 0.74,-4.3 0.22,-7.04 -0.42,-2.15 -3.79,-1.49 -3.75,0.6 0.08,3.02 -1.34,4.25 -2.31,6.64 -1.2,2.94 -1.21,5.62 -1.77,8.77 -1.2,6.62 -3.36,12.49 -6.49,18.29z"/>
  <path class="fil0" d="M285.51 146.09c1.25,3.67 0.1,7.26 -3.09,8.95 -0.62,-1.37 -1.39,-2.63 -1.62,-4.32 -0.2,-1.43 -1.23,-2.12 -2.62,-1.89l-1.78 -3.06c-1.49,-1.25 -2.99,-1.7 -4.76,-2.42 -1.09,-0.44 -1.94,-1.23 -3.07,-1.6l-0.83 -0.17 -0.04 -0.09 -0.55 -1.46c-0.76,-1.9 -3.3,-1.46 -3.45,0.55l0.07 1.39 -0.32 0.02c-1.72,-0.07 -2.45,2.64 -0.81,3.35 1.93,0.83 2.87,0.47 4.91,0.17 0.5,-0.08 2.77,1.81 3.46,2.04 2.43,0.86 2.84,1.96 4.24,3.78 0.5,0.65 1.09,1.05 1.76,1.29l0.25 1.59c0.29,1.57 1.59,2.34 2.21,3.7 0.42,0.95 1.26,1.3 2.03,1.2 6.29,0.55 11.2,-10.38 6.87,-14.77 -1.2,-1.24 -3.42,0.12 -2.86,1.75z"/>
  <path class="fil0" d="M288.86 157.51c-0.54,2.33 -1.61,4.2 -3.26,5.85 -1.45,-0.26 -3.06,0.21 -4.31,1.34 -1.32,1.22 0.16,3.39 1.78,2.89l1.64 -0.32 0.41 0.21c0.48,1.32 -1.04,2.24 -1.86,2.97 -1.02,0.92 -0.34,2.57 0.85,2.91 1.87,0.53 3.44,-0.67 4.42,-2.16 0.89,-1.36 0.84,-3.37 0.36,-4.86l-0.36 -0.8c2.15,-1.91 3.9,-4.85 3.76,-7.66 -0.1,-1.93 -2.97,-2.33 -3.42,-0.37z"/>
  <path class="fil0" d="M242.76 159.07c1.6,0.19 3.1,-1.69 1.65,-2.98 -2.48,-2.22 -4.52,-3.43 -4.78,-7.08 -0.25,-3.77 2.76,-6.15 5.49,-8.04 1.66,-1.14 0.55,-3.85 -1.46,-3.26 -4.7,1.4 -7.66,6.2 -8.25,10.84 -0.56,4.49 2.58,9.96 7.35,10.52z"/>
  <path class="fil0" d="M249.81 150.36c-1.48,-2.04 -3.9,-3.95 -6.53,-4.01 -0.78,-0.02 -1.49,0.59 -1.67,1.34 -0.2,0.83 0.21,1.49 0.86,1.96 0.75,0.53 1.56,0.96 2.29,1.52 0.81,0.63 1.66,1.27 2.57,1.78 1.55,0.9 3.6,-1.05 2.48,-2.59z"/>
  <path class="fil0" d="M246.48 144.38c-0.29,1.17 0.43,2.18 1.52,2.54 0.77,0.25 1.51,0.65 1.98,1.06 0.81,0.69 1.39,1.55 2.28,2.14l1.82 -0.05c0.74,-0.47 0.93,-1.25 0.78,-2.07 -0.49,-2.72 -3.48,-4.39 -5.85,-5.14 -1.09,-0.36 -2.28,0.47 -2.54,1.52z"/>
  <path class="fil0" d="M255.14 144.35c0.88,0.71 1.32,1.62 2.07,2.41 0.87,0.92 2.84,0.49 3.02,-0.87 0.27,-2.15 -1.36,-4.08 -3.43,-4.54 -1.62,-0.36 -3.12,1.84 -1.65,3z"/>
  <path class="fil0" d="M248.39 179.01c1.1,0.55 2.8,0.07 3.02,-1.32 0.19,-1.14 -0.22,-1.87 -0.76,-2.81 -0.39,-0.71 -0.83,-1.47 -1.48,-1.98 -0.56,-0.44 -1.21,-0.68 -1.92,-0.45 -0.76,0.23 -1.52,1.07 -1.4,1.92 0.12,0.95 0.47,1.74 0.92,2.58 0.42,0.82 0.75,1.63 1.63,2.07z"/>
  <path class="fil0" d="M256.24 202.7c0.36,1.54 1.55,3.47 2.9,4.27 1.62,0.95 3.15,-0.98 2.36,-2.48l-1.13 -1.61c-0.43,-0.65 -0.76,-1.33 -1.27,-1.93l-2.11 -0.22c-0.69,0.43 -0.93,1.22 -0.74,1.98z"/>
  <path class="fil0" d="M258.67 214.86c-2.11,1.39 -2.85,3.27 -3.37,5.65 -0.33,1.5 -0.7,2.68 -1.57,3.96 -0.78,1.16 -1.57,2.1 -1.9,3.49 -0.41,1.7 1.81,3.02 3.02,1.66 1.36,-1.5 3.08,-3.43 3.7,-5.39 0.72,-2.25 0.52,-4.93 2.3,-6.68 1.43,-1.4 -0.52,-3.79 -2.17,-2.69z"/>
  <path class="fil0" d="M250.38 227.2c-0.66,-0.36 -1.74,-0.31 -2.22,0.34 -1.49,2 -2.78,6.01 -0.51,7.95 1.13,0.95 2.62,0.44 3.09,-0.9 0.32,-0.91 0.08,-1.89 0.13,-2.83 0.05,-0.84 0.31,-1.66 0.41,-2.49 0.1,-0.84 -0.11,-1.64 -0.9,-2.06z"/>
  <path class="fil0" d="M242.91 236.03c-2.44,2.92 -6.17,5.67 -7.23,9.44 -0.48,1.67 1.93,3.14 3.06,1.69 1.14,-1.44 2.11,-2.97 3.31,-4.35 1.31,-1.51 2.68,-2.97 3.62,-4.75 0.9,-1.69 -1.48,-3.57 -2.77,-2.03z"/>
  <path class="fil0" d="M156.2 189.24c-2.19,-0.7 -4.77,0.74 -6.18,2.38 -1.35,1.54 0.42,3.51 2.16,2.66 0.64,-0.3 1.22,-0.71 1.87,-0.98 0.72,-0.3 1.47,-0.42 2.22,-0.58 1.87,-0.4 1.49,-3 -0.08,-3.48z"/>
  <path class="fil0" d="M155.98 194.36c-1.25,1.2 -0.1,2.96 1.36,3.06 1.65,0.11 2.98,-0.17 4.45,-0.91 1.22,-0.62 1.15,-2.68 -0.07,-3.25 -1.03,-0.47 -1.91,-0.6 -3.03,-0.41 -1.12,0.18 -1.89,0.74 -2.7,1.51z"/>
  <path class="fil0" d="M158.91 199.7c-1.02,1.52 0.77,3.3 2.32,2.87l1.25 -0.53 1.25 -0.56c1.89,-1.17 0.84,-3.76 -1.16,-3.89 -1.45,-0.1 -2.89,0.98 -3.66,2.12z"/>
  <path class="fil0" d="M94.75 225.1c-0.89,2.04 1.88,3.64 3.06,1.69 5.15,-8.53 14.9,-11.76 21.99,-18.37 5.25,-4.89 9.82,-6.22 16.64,-7.53 5.63,-1.07 6.55,-3.74 11.02,-6.85 1.58,-1.1 0.5,-4.07 -1.47,-3.24 -4.98,2.09 -6.42,6.05 -12.54,6.73 -5.73,0.65 -9.68,2.66 -14.14,6.28 -4.92,3.98 -9.65,7.8 -15.02,11.16 -4.12,2.6 -7.57,5.61 -9.53,10.12z"/>
  <path class="fil0" d="M87.78 222.93c-1.87,4.39 -4.7,8.19 -6.84,12.43 -0.98,1.94 0.39,5.3 -0.91,7.05 -3,4.01 0.03,6.93 2.13,10.32 0.61,0.98 1.52,1.1 2.27,0.76 0.89,0.08 1.82,0.1 2.66,-0.01 0.79,-0.1 1.47,-0.52 1.67,-1.33l0.04 -0.46 0 -0.02c0.28,-4.51 -0.49,-7.97 3,-11.57 2.81,-2.91 1.75,-5.62 3.13,-9.09 0.83,-2.08 -1.78,-3.59 -3.06,-1.69 -0.87,1.31 -1.24,2.52 -1.32,4.11 -0.16,3.19 -1.65,4.21 -3.53,6.47 -2.41,2.91 -2.13,6.51 -1.85,10l-0.03 0c-4.21,-10.68 4.72,-20.81 7.97,-31 1.05,-3.34 1.58,-6.79 2.31,-10.21 0.87,-4.1 5.64,-5.32 8.67,-7.15 3.97,-2.38 7.46,-7.85 8.63,-12.23 0.5,-1.85 -2.36,-3.04 -3.15,-1.25 -1.54,3.46 -4.06,6.29 -6.43,9.22 -2.14,2.63 -5.91,2.93 -8.33,5.18 -5.1,4.76 -4.36,14.23 -7.03,20.47z"/>
  <path class="fil0" d="M118.33 173.86c1.76,-4.83 1.02,-9.49 4.45,-13.89 1.36,-1.73 3.08,-3.57 3.71,-5.71 1.6,-5.38 7.69,-5.14 12,-6.89 2.2,-0.91 1.27,-4.02 -1.05,-3.53 -4.34,0.91 -8.17,1.18 -11.97,3.55 -3.09,1.91 -3.72,6.88 -5.83,9.59 -2.14,2.72 -4.16,5.49 -4.48,9.06 -0.49,5.61 -2.93,10.51 -3.48,16.04 -0.17,1.73 2.7,2.44 3.33,0.83 1.19,-2.98 2.23,-6.01 3.33,-9.03z"/>
  <path class="fil0" d="M143.71 141.63c-1.92,1.39 -0.04,4.52 1.94,3.15 4.99,-3.43 12.03,-3.1 16.23,-7.77 5.81,-6.47 15.77,-7.6 23.24,-11.62 1.75,-0.96 0.42,-3.96 -1.45,-3.2 -7.42,3.02 -15.05,5.39 -21.92,9.61 -3.25,2 -5.49,4.7 -9.36,6.08 -3,1.08 -6.08,1.88 -8.69,3.76z"/>
  <path class="fil0" d="M191.72 121.52c0.74,-0.32 1.29,-0.88 1.27,-1.76 -0.01,-0.74 -0.58,-1.56 -1.36,-1.69 -1.65,-0.28 -3.39,-0.1 -4.66,1.07 -1.1,1.04 -0.18,3.11 1.32,2.99 1.09,-0.09 2.42,-0.16 3.42,-0.61z"/>
  <path class="fil0" d="M197.86 115.04c-1.36,-0.25 -2.81,0.09 -3.79,1.12 -1.09,1.16 -0.23,3.17 1.39,3.12 0.81,-0.04 1.71,-0.14 2.5,-0.34 1.91,-0.47 1.86,-3.54 -0.1,-3.9z"/>
  <path class="fil0" d="M201.24 112.1c-1.14,0.17 -2.09,0.9 -2.06,2.15 0.02,1.07 1.02,2.2 2.16,2.07 2.53,-0.32 5.01,0.07 7.49,0.51 2.02,0.34 3.18,-2.3 1.33,-3.39 -2.75,-1.62 -5.81,-1.82 -8.92,-1.34z"/>
  <path class="fil0" d="M217.72 110.65c-1.83,-1.24 -4.08,-1.71 -6.25,-1.88 -2.31,-0.16 -2.75,3.79 -0.45,4.07 2,0.25 3.85,1.1 5.87,1.22 1.96,0.12 2.18,-2.5 0.83,-3.41z"/>
  <path class="fil0" d="M223.88 108.87c-1.17,-0.23 -2.51,-0.85 -3.72,-0.69 -1.38,0.16 -2.65,2.08 -1.21,3.17 0.9,0.67 1.98,0.87 3.03,1.22 1.05,0.35 2.06,0.97 3.11,1.36 1.63,0.59 2.78,-1.51 2.04,-2.8 -0.67,-1.13 -1.94,-2.02 -3.24,-2.25z"/>
  <path class="fil0" d="M265.31 135.38c-0.82,-3.18 -3.42,-4.93 -5.76,-7.07 -3.15,-2.88 -4.94,-7.9 -7.95,-11.25 -1.39,-1.53 -2.92,-2.71 -4.61,-3.85 -2.4,-1.62 -3.68,0.19 -6.26,-2.22 -2.75,-2.55 -7.16,-2.54 -10.64,-2.19 -1.98,0.22 -2.66,3.42 -0.41,3.73 3.94,0.55 6.16,0.9 9.76,3.04 3.62,2.15 7.62,2.56 10.85,5.58 2.39,2.24 2.24,5.25 4.27,7.48 2.58,2.87 5.53,4.69 7.32,8.27 1,1.98 3.92,0.45 3.42,-1.53z"/>
  <path class="fil0" d="M154.94 253.4l0.01 0.01c1.6,0.24 3.21,0.11 4.83,0.11 1.69,-0.01 3.39,0 5.1,-0.06l0.6 -0.13c0.91,0.2 1.97,-0.15 2.09,-1.21 0.48,-4.22 0.84,-6.98 -2.23,-10.09 -4.48,-4.58 -8.04,-8.13 -10.04,-14.45 -0.61,-1.89 -3.6,-1.48 -3.49,0.56 0.19,4.27 2.35,7.62 5.1,10.8 1.6,1.83 3.27,3.5 5.1,5.1 2.05,1.79 2.35,3.61 2.25,5.88 -1.28,-0.03 -2.56,-0.03 -3.84,-0.04 -1.06,-0 -2.15,-0.07 -3.24,-0.06 0.56,-5.15 -3.69,-11.85 -6.58,-15.25 -2.09,-2.47 -4.08,-4.92 -5.94,-7.64 -3.94,-5.76 -1.84,-6.81 0.14,-11.45 2.07,-4.87 3.4,-10.14 1.41,-15.11 -0.83,-2.09 -3.83,-1.2 -3.35,1.02 1.55,7.09 -2.13,12.94 -4.91,19.11 -1.4,3.1 1.66,6.43 3.35,8.51 2.24,2.77 5.99,7.33 7.19,10.58 1.54,4.19 5.75,6.56 4.58,11.68 -0.3,1.31 0.79,2.18 1.85,2.11z"/>
  <path class="fil0" d="M154.77 223.78c0.11,-2.44 2.07,-4.24 3.28,-6.17 1.09,-1.76 -1.4,-3.33 -2.78,-2.04 -2.14,1.99 -4.05,5.31 -3.92,8.28 0.1,2.24 3.33,2.11 3.43,-0.07z"/>
  <path class="fil0" d="M188.2 249.08c-4.83,-0.07 -9.89,-0.18 -14.7,0.45 -1.75,0.23 -2.43,3.09 -0.37,3.36 4.98,0.65 10.17,0.58 15.17,0.49 2.79,-0.04 2.66,-4.24 -0.1,-4.3z"/>
  <path class="fil0" d="M220.67 252.94c1.54,0.16 3.1,0.25 4.63,0.09 2.34,-0.25 2.17,-3.35 -0.09,-3.59 -1.54,-0.16 -3.09,-0.08 -4.62,0.09 -2.24,0.23 -2.07,3.19 0.08,3.41z"/>
  <path class="fil0" d="M241.98 249.15c-1.7,0.29 -1.55,3.06 0.08,3.34 5.76,0.99 11.76,0.54 17.58,0.54 6.17,0.01 12.48,0.39 18.62,-0.34l1.29 -0.78 0.6 -0.68c1.58,-3.35 5.26,-3.82 8.63,-3.83 3.54,-0.02 6.08,-3.26 9.76,-3.49 6.96,-0.44 8.74,9.18 15.46,9.39 2.66,0.07 2.51,-4 -0.1,-4.12 -2.74,-0.13 -6.4,-5.58 -8.77,-7.08 -3.55,-2.24 -6.69,-2.43 -10.7,-1.7 -0.46,-1.56 -1.41,-2.98 -2.74,-3.75 -1.76,-1.01 -3.59,1.48 -2.09,2.84 0.82,0.76 1.11,1.74 1.32,2.75 -0.87,0.79 -1.93,1.38 -5.27,0.85 -1.93,-0.29 -2.9,0.01 -4.67,0.72 -2.13,0.83 -3.74,2.83 -4.06,5.04 -4.95,-0.42 -9.96,-0.26 -14.93,-0.25 -6.61,0.01 -13.48,-0.56 -20.01,0.56z"/>
  <path class="fil0" d="M96 254.32c2.51,-2.45 6.34,-2.84 9.01,-5.32 1.63,-1.52 2.97,-2.89 5.38,-1.76 1.74,0.8 2,3.39 2.43,4.99 0.34,1.29 1.58,1.58 2.56,1.18l0.63 0.18c10.14,0.86 21.43,1.03 31.52,-0.19 1.79,-0.21 2.46,-3.17 0.38,-3.41 -10.09,-1.22 -21.24,-1.12 -31.39,-0.28 -0.74,-4.3 -4.04,-7.39 -8.73,-7.11 -2.52,0.16 -4.12,1.87 -5.82,3.51 -2.62,2.52 -6.31,2.81 -8.92,5.42 -1.86,1.86 1.07,4.62 2.95,2.8z"/>
  <path class="fil0" d="M284.21 225.14c-11.35,-7.05 -22.62,9.08 -33.85,13 -1.85,0.63 -1.56,3.87 0.57,3.57 5.81,-0.83 10.27,-4.46 14.72,-8.05 7.31,-5.92 12.58,-8.62 20.5,-1.65 1.89,1.64 4.11,-0.9 2.6,-2.73l-1.49 -1.65c8.32,-7.85 18.38,-6.79 25.12,3.13 1.33,1.99 4.15,0.17 3.11,-1.91 -0.57,-1.16 -1.27,-2.18 -2,-3.17 3.41,-2.92 6.72,-3.57 11.09,-1.84 4.22,1.68 7.66,5.64 8.11,10.21 0.23,2.38 3.48,2.25 3.67,-0.09 0.99,-11.79 -18.6,-22.27 -25.49,-11.13 -7.7,-6.73 -19.9,-6.5 -26.67,2.32z"/>
  <path class="fil0" d="M333.2 243.9l-0.08 -0.14 0.16 0.15 -0.08 -0.01zm1.74 -3c-0.81,-0.47 -1.89,-0.13 -2.34,0.69l0.1 1.72 -0.01 0.03 -0.58 1.14c-0.35,0.74 -0.28,1.6 0.33,2.19 0.69,0.64 1.91,0.68 2.56,-0.08 1.42,-1.65 2.17,-4.39 -0.06,-5.69z"/>
  <path class="fil0" d="M324.08 213.88c2.58,-0.18 4.86,0.91 6.42,3 1.36,1.82 4.34,0.07 3.04,-1.89 -2.13,-3.22 -5.66,-5.04 -9.55,-4.59 -2.19,0.27 -2.18,3.65 0.09,3.48z"/>
  <path class="fil0" d="M286.68 218.65c5.93,-4.81 13.35,-6.4 20.52,-3.91 1.66,0.59 3.14,-2 1.69,-3.07 -7.25,-5.34 -18.38,-1.07 -24.35,4.34 -1.43,1.3 0.63,3.86 2.14,2.64z"/>
  <path class="fil0" d="M265.26 244.32c2.59,-1.17 5.22,-2.72 7.12,-4.87 1.58,-1.78 -0.87,-3.95 -2.62,-2.49 -1.98,1.65 -4.08,3.1 -6.34,4.37 -2.01,1.15 -0.14,3.88 1.84,2.98z"/>
  <path class="fil0" d="M224.93 242.86c2.09,-0.92 1.24,-3.84 -1.04,-3.41 -3.48,0.68 -7.02,1.12 -10.4,-0.26 -2.05,-0.84 -3.78,2.03 -1.71,3.1 3.97,2.03 9.02,2.36 13.15,0.57z"/>
  <path class="fil0" d="M191.45 238.12c-3.05,-5.01 -9.03,-5.5 -14.09,-3.66 -0.95,-2.33 -2.95,-4.12 -5.32,-5.16 -3.79,-1.63 -7.77,-0.65 -10.84,1.93 -1.6,1.34 0.58,3.91 2.28,2.8 3.85,-2.52 8.23,-1.55 10.3,2.22l-1.53 1.14c-1.62,1.37 0.54,3.76 2.25,2.78 4.78,-2.75 9.83,-3.77 14.23,0.16 1.49,1.33 3.78,-0.46 2.72,-2.2z"/>
  <path class="fil0" d="M73.93 237.44c-6.76,5.83 -12.91,-3.64 -17.13,-6.95 -2.3,-1.8 -4.85,-3.07 -7.63,-3.94 -2.55,-0.8 -4.8,-0.46 -6.67,0.61 -4,-8.59 -17.58,-8.26 -22.65,-0.73 -1.12,1.66 1.57,3.62 2.81,2.06 2.39,-3 5.58,-4.29 9.38,-3.7 3.41,0.52 5.46,2.64 7.41,5.16 -0.7,0.96 -1.29,2.04 -1.74,3.19 -0.76,1.96 2.37,3.06 3.33,1.31 5.69,-10.34 15.27,1.05 20.49,5.57 4.97,4.33 10.28,4.56 14.91,-0.19 1.59,-1.65 -0.85,-3.84 -2.52,-2.4z"/>
  <path class="fil0" d="M45.82 222.73c5.59,-0.81 9.11,1.25 13.36,4.64 1.92,1.53 4.15,-0.87 2.6,-2.71 -4.06,-4.84 -10.36,-7.62 -16.52,-5.37 -1.76,0.64 -1.51,3.75 0.56,3.44z"/>
  <path class="fil0" d="M94.15 244.98c3.5,-0.24 6.24,-2.24 8.94,-4.32 3.18,-2.43 8.04,-7.46 12.08,-4.12l0.11 0.06c-0.22,0.68 -0.34,1.37 -0.29,2.08 0.12,1.93 2.39,2.26 3.41,0.83 4.76,-6.67 11.81,-9.62 17.29,-2.7 -2.01,1.8 -3.45,4.48 -3.46,6.9 0,1.85 2.52,2.36 3.39,0.84 0.7,-1.23 1.06,-2.58 1.82,-3.78 0.69,-1.12 1.8,-1.97 3.01,-2.5 2.13,-0.93 1.27,-3.96 -1.05,-3.48l-0.43 0.14c-3.03,-4.97 -7.82,-7.73 -13.89,-6.29 -2.49,0.59 -5.84,2.46 -7.99,4.92 -8.08,-6.75 -15.87,6.66 -23.48,8.05 -1.93,0.34 -1.37,3.5 0.54,3.38z"/>
  <path class="fil0" d="M168.91 184.02c-0.49,0.64 -0.68,1.42 -0.22,2.16 0.48,0.78 1.64,1.13 2.43,0.57 1.49,-1.05 3.21,-1.77 4.65,-2.88 1.6,-1.23 0.61,-3.91 -1.49,-3.32 -2.04,0.57 -4.08,1.78 -5.38,3.48z"/>
  <path class="fil0" d="M174.86 191.54c1.28,-1.61 -0.4,-3.79 -2.27,-2.79 -1.51,0.8 -2.93,1.74 -4.61,2.15 -1.97,0.5 -1.4,3.49 0.56,3.46 2.39,-0.03 4.79,-0.9 6.31,-2.82z"/>
  <path class="fil0" d="M153.75 201.09c-1.38,0.11 -2.16,0.98 -3.12,1.86 -0.57,0.51 -0.61,1.49 -0.22,2.13 0.53,0.85 1.58,1.02 2.42,0.58 0.81,-0.45 1.58,-0.92 2.27,-1.52 1.2,-1.03 0.14,-3.15 -1.34,-3.04z"/>
  <path class="fil0" d="M149.63 201.5c1.64,-0.15 2.81,-1.17 4.06,-2.1 1.71,-1.27 0.54,-3.65 -1.47,-3.28 -1.64,0.29 -3.28,1.36 -4.17,2.77 -0.69,1.09 0.28,2.74 1.58,2.61z"/>
  <path class="fil0" d="M182.33 184.88c-0.64,0.05 -1.21,0.18 -1.78,0.44l-1.42 0.75c-0.91,0.33 -1.47,1.25 -1.18,2.2 0.3,1.01 1.25,1.36 2.2,1.19 1.37,-0.26 2.54,-0.38 3.54,-1.49 1.03,-1.11 0.28,-3.23 -1.37,-3.09z"/>
  <path class="fil0" d="M175.75 197.68c0.86,-0.35 1.74,-0.57 2.6,-0.98 0.84,-0.4 1.59,-1.11 2.19,-1.81 1.18,-1.32 -0.04,-3.59 -1.85,-2.98 -0.79,0.25 -1.59,0.59 -2.33,0.99 -0.76,0.41 -1.35,1.08 -2.06,1.53 -1.69,1.03 -0.47,4.02 1.46,3.24z"/>
  <path class="fil0" d="M167.25 199.55c1.39,0.55 3.3,-0.22 4.25,-1.28 1,-1.11 0.29,-3.2 -1.35,-3.06 -1.15,0.1 -2.38,0.63 -3.4,1.17l-0.83 1.53c0.02,0.85 0.59,1.36 1.33,1.65z"/>
  <path class="fil0" d="M166.41 188.09c-0.26,-0.85 -1.3,-1.51 -2.2,-1.17l-1.05 0.45c-1.98,0.41 -1.33,3.39 0.55,3.4 0.72,0.01 1.34,-0.25 1.93,-0.66 0.66,-0.46 1,-1.22 0.76,-2.02z"/>
  <path class="fil0" d="M152.11 208.2l-0.22 2.13c0.54,0.87 1.54,0.98 2.4,0.57 1.07,-0.51 2.06,-1.1 2.73,-2.11 1.02,-1.56 -1.03,-3.17 -2.47,-2.35 -0.85,0.49 -1.69,1.14 -2.44,1.76z"/>
  <path class="fil0" d="M205.59 120.14c-2,-0.06 -2.34,3.11 -0.38,3.49 2.66,0.5 5.34,0.91 8.03,0.93 2.05,0.02 2.4,-3.15 0.4,-3.56 -2.64,-0.57 -5.34,-0.77 -8.05,-0.86z"/>
  <path class="fil0" d="M223.62 118.9c-1.92,-1.21 -4.19,-2.32 -6.54,-2.12 -1.59,0.12 -2.55,2.57 -0.8,3.32 1.96,0.83 4.02,1.45 6.02,2.18 2.05,0.77 2.98,-2.33 1.33,-3.39z"/>
  <path class="fil0" d="M229.07 116.17c-2.1,-0.29 -3.19,2.26 -1.36,3.46 2.07,1.34 4.81,2.34 7.19,2.94 1.69,0.43 3.22,-1.93 1.72,-3.11 -2.08,-1.63 -4.92,-2.91 -7.54,-3.28z"/>
  <path class="fil0" d="M243.05 120.46c-1.99,-0.55 -3.04,2.32 -1.29,3.3 1.47,0.83 2.74,1.96 4.21,2.8 1.58,0.88 3.28,-0.99 2.38,-2.49 -1.11,-1.84 -3.28,-3.05 -5.29,-3.6z"/>
  <path class="fil0" d="M236.6 127.87c-1.99,-1.88 -4.4,-3.22 -6.99,-4.05 -0.76,-0.25 -1.63,0.2 -2,0.88 -0.51,0.92 -0.08,1.86 0.7,2.42 1.93,1.39 4.03,2.59 6.13,3.68 1.84,0.94 3.71,-1.48 2.15,-2.93z"/>
  <path class="fil0" d="M219.04 125.76c-0.78,0.12 -1.44,0.5 -1.65,1.33 -0.22,0.89 0.33,1.94 1.27,2.11 1.6,0.3 2.86,0.87 4.31,1.58 1.92,0.94 3.48,-1.37 2.14,-2.91 -1.42,-1.62 -3.95,-2.42 -6.06,-2.12z"/>
  <path class="fil0" d="M240.91 131.05c1.27,0.89 2.62,1.72 3.92,2.55 1.54,0.97 3.42,-1.08 2.42,-2.55 -1.1,-1.63 -3.06,-2.99 -5.03,-3.32 -2.08,-0.34 -2.97,2.15 -1.31,3.32z"/>
  <path class="fil0" d="M195.9 125.91c0.53,-0.34 1.02,-0.52 1.65,-0.6 2.2,-0.23 2.15,-3.35 -0.08,-3.43 -1.2,-0.06 -2.39,0.44 -3.39,1.08 -1.87,1.2 -0.08,4.14 1.83,2.95z"/>
  <path class="fil0" d="M233.01 138.52c1.41,1.77 3.93,0.22 2.97,-1.84 -0.78,-1.69 -2.22,-2.95 -3.73,-3.97 -1.65,-1.11 -3.54,1.52 -2.05,2.8 1.05,0.91 1.94,1.93 2.8,3.02z"/>
  <path class="fil0" d="M237.79 134.87c0.47,0.69 0.98,1.35 1.75,1.73 2.04,1.05 3.52,-1.8 1.69,-3.05l-0.78 -0.84c-1.44,-1.21 -3.82,0.46 -2.66,2.16z"/>
  <path class="fil0" d="M251.73 128.62c-1.59,-0.58 -2.99,1.94 -1.61,2.96 1.03,0.76 1.69,1.76 2.48,2.75 0.5,0.63 1.21,1.03 2.03,0.77 0.84,-0.25 1.59,-1.33 1.19,-2.22 -0.85,-1.9 -2.08,-3.52 -4.09,-4.27z"/>
  <path class="fil0" d="M249.01 138.78l0.56 0.84c0.59,0.71 1.49,1.09 2.36,0.56 0.71,-0.45 1.13,-1.62 0.56,-2.36l-0.56 -0.85c-0.57,-0.73 -1.51,-1.09 -2.37,-0.55 -0.72,0.44 -1.14,1.62 -0.55,2.35z"/>
  <path class="fil0" d="M257.64 139.75c0.51,0.61 1.56,0.62 2.2,0.24 0.72,-0.45 0.96,-1.27 0.77,-2.07 -0.23,-0.99 -0.87,-1.81 -1.65,-2.42 -0.62,-0.49 -1.4,-0.66 -2.12,-0.22 -0.77,0.49 -1.1,1.61 -0.56,2.4 0.48,0.68 0.81,1.43 1.36,2.06z"/>
  <path class="fil0" d="M168.42 137.08c-2.77,2.12 -4.98,4.98 -8.42,6.07 -2.27,0.72 -1.2,3.9 1.05,3.48 4.01,-0.78 7.18,-3.68 9.58,-6.83 1.12,-1.47 -0.49,-4.07 -2.21,-2.72z"/>
  <path class="fil0" d="M181.44 129.75c-2.36,0.73 -4.95,1.99 -6.67,3.82 -1.61,1.71 0.87,3.91 2.6,2.46 1.61,-1.37 3.65,-2.14 5.51,-3.1 1.8,-0.93 0.43,-3.75 -1.43,-3.18z"/>
  <path class="fil0" d="M152.42 145.25c-1.31,0.2 -2.59,0.45 -3.77,1.09 -1.77,0.95 -0.44,3.86 1.44,3.19l1.36 -0.26c0.89,-0.14 1.64,-0.33 2.46,-0.72 0.74,-0.33 1.01,-1.36 0.78,-2.08 -0.31,-1.05 -1.29,-1.38 -2.27,-1.22z"/>
  <path class="fil0" d="M234.13 193.6c0.04,-0.83 0.01,-1.67 0.01,-2.51 -0.02,-2.26 -3.47,-2.16 -3.48,0.07 -0.01,0.85 -0.04,1.7 0.01,2.54 0.13,2.26 3.33,2.11 3.47,-0.09z"/>
  <path class="fil0" d="M261.41 159.33c-2.02,-0.97 -3.6,1.88 -1.69,3.07 2.22,1.37 2.54,4.55 3.95,6.55 1.15,1.6 3.81,0.55 3.22,-1.45 -0.9,-3.06 -2.46,-6.68 -5.48,-8.17z"/>
  <path class="fil0" d="M266.17 160.56c0.93,1.25 1.36,2.75 1.93,4.18 0.3,0.75 0.9,1.29 1.75,1.27 0.89,-0.04 1.87,-0.85 1.74,-1.83 -0.26,-2.03 -1.03,-4.5 -2.63,-5.89 -1.49,-1.3 -4.08,0.54 -2.79,2.27z"/>
  <path class="fil0" d="M271.89 160.11l0.08 0.07 0.12 0.17 0.19 0.62c0.58,1.63 3.08,1.73 3.5,-0.1 0.3,-1.35 -0.31,-2.57 -1.32,-3.46 -1.82,-1.61 -4.12,0.91 -2.56,2.7z"/>
  <path class="fil0" d="M102.14 307.22c27.59,1.29 55.6,0.39 83.23,-0.04 2.24,-0.03 2.13,-3.42 -0.09,-3.46 -10.25,-0.16 -20.55,-0.38 -30.86,-0.54 0.69,-0.69 1.29,-1.47 1.8,-2.31 1.08,-1.8 -1.48,-3.57 -2.9,-2.13 -1.2,1.22 -2.7,2.51 -4.28,3.19l-1.23 1.17 -1.1 -0.01c1.93,-2.36 3,-5.76 3.42,-8.54 0.34,-2.32 -2.84,-3.17 -3.57,-0.89 -1.14,3.58 -2.56,7.34 -6.29,8.84l-0.68 0.55 -0.93 0c0.95,-1.7 1.43,-3.71 1.45,-5.62 0.03,-2.15 -3.09,-2.38 -3.64,-0.41 -0.69,2.48 -1.91,4.42 -3.86,6l-0.59 0.01 -0.23 -1.45c-4.41,-5.93 -10.06,-10.71 -17.22,-8.46 -7.15,-9.42 -15.57,-9.01 -25.56,-2.59 -1.91,1.22 -0.14,4.03 1.83,2.97 8.73,-4.7 15.07,-6.33 21.43,2.88 0.63,0.93 1.65,1.09 2.62,0.62 6.55,-3.12 9.66,2.48 13.35,6.07 -8.74,0.06 -17.47,0.23 -26.15,0.65 -2.29,0.11 -2.16,3.41 0.08,3.52z"/>
  <path class="fil0" d="M282.79 270.8c0.92,0.11 1.68,-0.15 2.19,-0.97 3.99,-6.43 13.72,-3.84 19.76,-3.32 2.07,0.17 2.39,-3.18 0.4,-3.6 -6.4,-1.32 -18.43,-3.25 -22.67,3.54 -0.36,0.59 -10.27,-0.27 -11.89,0.11 -3.88,0.93 -6.26,4.69 -7.8,8.1 -1.48,-4 -3.26,-7.63 -3.41,-12.13 -0.08,-1.9 -3.19,-2.37 -3.45,-0.37 -0.61,4.91 1.1,9.59 3.29,13.95 -0.7,0 -1.42,-0.01 -2.13,-0.01 -1.28,-2.02 -2.4,-3.96 -2.76,-6.42 -0.32,-2.25 -3.28,-2.17 -3.49,0.08 -0.21,2.25 0.44,4.46 1.59,6.38 -1.05,0.01 -2.12,0.02 -3.18,0.03 -1.36,-3.23 -1.97,-6.37 -2.45,-9.86 -0.31,-2.32 -3.33,-2.19 -3.57,0.09 -0.34,3.19 0.3,6.83 1.77,9.84 -1.05,0.04 -2.11,0.05 -3.15,0.06 -0.24,-0.64 -0.55,-1.27 -0.81,-1.89 -0.35,-0.89 -0.69,-1.8 -1.05,-2.69 -0.29,-0.74 -0.9,-1.29 -1.75,-1.27 -0.89,0.03 -1.86,0.86 -1.74,1.82 0.19,1.34 0.57,2.78 1.12,4.12 -4.15,0.12 -8.29,0.23 -12.41,0.38 -2.28,0.08 -2.17,3.44 0.09,3.53 21.12,0.76 42.78,1.05 63.89,0.04 2.34,-0.1 2.22,-3.5 -0.09,-3.61 -7.59,-0.37 -15.24,-0.55 -22.91,-0.61 4.28,-6.75 8.86,-6.43 16.6,-5.34z"/>
  <path class="fil0" d="M260.94 287.28c-22.26,-0.33 -45.06,-1.79 -67.26,0 -2.33,0.19 -2.18,3.4 0.09,3.58 22.2,1.8 44.99,0.32 67.25,0 2.33,-0.04 2.21,-3.55 -0.08,-3.58z"/>
  <path class="fil0" d="M282.44 286.89c-2.78,-0.47 -5.67,-0.14 -8.46,0 -2.3,0.11 -2.17,3.4 0.08,3.52 2.82,0.14 5.69,0.45 8.48,-0.03 1.77,-0.3 1.61,-3.21 -0.1,-3.49z"/>
  <path class="fil0" d="M205.03 315.44c-16.5,-0.35 -33.58,-1.48 -50.02,0.05 -2.28,0.22 -2.12,3.28 0.08,3.49 16.45,1.52 33.52,0.39 50.03,0.05 2.32,-0.04 2.21,-3.54 -0.09,-3.59z"/>
  <path class="fil0" d="M216.8 315.04c-2.3,0.1 -2.17,3.44 0.1,3.54 1.99,0.08 3.88,0.18 5.87,0.01 2.33,-0.2 2.18,-3.35 -0.08,-3.56 -2,-0.18 -3.89,-0.08 -5.89,0.01z"/>
  <path class="fil0" d="M203.35 326.8c-6.74,-0.3 -13.45,-0.03 -20.18,0.01 -2.28,0.01 -2.18,3.52 0.09,3.53 6.73,0.04 13.45,0.32 20.18,0.02 2.31,-0.1 2.19,-3.47 -0.09,-3.57z"/>
  <path class="fil0" d="M209.23 270.41c-9.87,-0.41 -19.84,-0.72 -29.83,-0.89 4.46,-3.46 8.9,-6.45 14.35,-1.43 1.45,1.33 4.01,-0.56 2.76,-2.24 -6.59,-8.9 -18.59,-3.88 -24.48,3.59 -15.55,-0.14 -31.1,0.11 -46.44,1.03 -2.33,0.14 -2.2,3.46 0.09,3.59 27.64,1.68 55.98,1.2 83.65,0.05 2.39,-0.09 2.25,-3.57 -0.09,-3.68z"/>
  <path class="fil0" d="M73.15 275.18c11.26,-1.26 23.08,-0.03 34.45,-0.61 2.46,-0.13 2.32,-3.67 -0.1,-3.79 -11.14,-0.57 -22.76,0.68 -33.81,-0.54 -3.86,-0.44 -3.95,5.34 -0.54,4.95z"/>
  <path class="fil0" d="M264.38 305.59c2.38,-0.14 2.23,-3.48 -0.09,-3.63 -11.9,-0.78 -24.23,-0.46 -36.15,0.07 -2.27,0.1 -2.14,3.39 0.09,3.49 11.92,0.54 24.26,0.85 36.15,0.06z"/>
  <path class="fil0" d="M81.75 202.72c10.39,-3.11 18.23,-16.16 19.16,-26.49 0.18,-2.02 -3.02,-2.26 -3.46,-0.38 -2.22,9.2 -8.42,19.35 -17.21,23.49 -1.96,0.93 -0.45,3.97 1.52,3.37z"/>
  <path class="fil0" d="M62.2 214.49c1.96,-0.07 3.87,-1.17 5.62,-1.96 1.85,-0.83 3.63,-1.74 5.19,-3.06 1.4,-1.17 -0.2,-3.63 -1.86,-3.01 -1.73,0.65 -3.36,1.52 -5.04,2.29 -1.76,0.8 -3.81,1.42 -5.25,2.71 -1.19,1.07 -0.13,3.07 1.34,3.02z"/>
  <path class="fil0" d="M78.43 217.57c1.47,-2.22 3.31,-4.02 5.22,-5.86 1.53,-1.45 -0.54,-3.84 -2.28,-2.8 -2.57,1.54 -5.21,3.95 -6.35,6.77 -0.92,2.31 2,4.02 3.4,1.88z"/>
  <path class="fil0" d="M282.48 191.29c3.05,4.62 7.25,9.38 11.97,12.33 1.74,1.09 3.55,-1.49 2.09,-2.86 -1.93,-1.81 -3.79,-3.65 -5.57,-5.6 -1.88,-2.05 -3.51,-4.36 -5.56,-6.26 -1.57,-1.44 -4.16,0.54 -2.94,2.38z"/>
  <path class="fil0" d="M155.62 113.84c1.8,-1.06 0.49,-4.16 -1.53,-3.39 -8.98,3.39 -16.68,-1.21 -24.58,-5.25 -6.51,-3.33 -12.97,-5.87 -20.33,-6.28 -14.44,-0.8 -28.97,8.28 -32.46,22.57 -0.54,2.22 2.64,2.92 3.39,0.84 7.14,-19.83 28.03,-22.22 45.1,-13.93 9.6,4.67 19.92,11.66 30.42,5.44z"/>
  <path class="fil0" d="M159.6 107.12c-1.39,1.11 -0.55,4 1.42,3.14 5.62,-2.45 9.64,-7.2 11.28,-12.76 9.42,8.5 24.99,4.67 28.43,-7.66 3.37,2.81 8.45,3.51 12.98,2.58 7.55,-1.56 12.4,-8.3 11.02,-15.87 -0.37,-2.04 -3.66,-1.45 -3.54,0.56 0.62,10.84 -16.06,16.14 -20.58,5.61 -0.9,-2.12 -3.85,-1.25 -3.42,1.03 0.14,0.73 0.36,1.41 0.61,2.04l-0.16 0.35c-2.69,12.19 -15.97,14.34 -24.56,6.71 0.1,-1.87 -0.05,-3.77 -0.5,-5.65 -0.54,-2.29 -3.76,-1.16 -3.41,1.03 1.35,8.25 -3.57,14.05 -9.58,18.88z"/>
  <path class="fil0" d="M230.95 84.61c-1.13,2.06 1.95,3.73 3.17,1.75 8.8,-14.04 23.09,3.71 28.81,10.56 3.52,4.22 7.5,6.32 11.93,6.21 -0.26,6.84 5.21,12.82 12.09,13.32 2.07,0.15 2.4,-3.22 0.4,-3.6 -5.29,-0.95 -8.02,-5.39 -8.61,-10.35 1.16,-0.33 2.34,-0.8 3.55,-1.41 1.9,-0.96 0.46,-4.12 -1.53,-3.4 -13.47,4.94 -18.09,-11.11 -27.84,-17.16 -7.37,-4.57 -17.61,-3.87 -21.96,4.08z"/>
  <path class="fil0" d="M129.72 70.45c-1.81,-1.3 -3.28,1.46 -2.11,2.89 2.25,2.73 4.78,4.88 7.48,6.51 -5.22,7.92 -15.7,7.37 -22.95,1.55 -1.81,-1.46 -3.89,0.82 -2.44,2.57 7.76,9.38 23.51,8.31 28.94,-2.31 13.47,5.61 29.54,-0.63 35.04,-14.6 5.28,6.78 17.13,7.38 22.34,-0.3 1,-1.46 -1.14,-3.58 -2.56,-2.44 -6.35,5.12 -14.24,4.79 -18.3,-2.58 0.19,-1.04 0.33,-2.1 0.41,-3.19 0.14,-2.14 -3.33,-2.48 -3.71,-0.42 -1.74,9.39 -6.67,16.97 -16.07,19.88 -9.58,2.97 -18.59,-2.15 -26.07,-7.55z"/>
 </g>
</svg>
