<?xml version="1.0" encoding="UTF-8"?>
<svg xmlns="http://www.w3.org/2000/svg" xml:space="preserve" width="0.747335in" height="0.747335in" version="1.1" style="shape-rendering:geometricPrecision; text-rendering:geometricPrecision; image-rendering:optimizeQuality; fill-rule:evenodd; clip-rule:evenodd"
viewBox="0 0 80.85 80.85"
 xmlns:xlink="http://www.w3.org/1999/xlink"
 xmlns:xodm="http://www.corel.com/coreldraw/odm/2003">
 <defs>
  <style type="text/css">
   <![CDATA[
    .fil0 {fill:black;fill-rule:nonzero}
   ]]>
  </style>
 </defs>
 <g id="Layer_x0020_1">
  <metadata id="CorelCorpID_0Corel-Layer"/>
  <path class="fil0" d="M6.61 41.2l0.09 0.01 0.19 -0.05 0.17 -0.23 0.02 -0.07c0.05,-0.2 -0.07,-0.39 -0.27,-0.44l-1.55 -0.39 0.73 -0.22c0.15,-0.05 0.26,-0.18 0.26,-0.34 0,-0.16 -0.09,-0.3 -0.24,-0.36l-0.72 -0.26 1.57 -0.3c0.2,-0.04 0.33,-0.23 0.29,-0.43l-0.01 -0.06 -0.16 -0.24 -0.28 -0.05 -2.99 0.58c-0.17,0.03 -0.29,0.18 -0.3,0.35l-0 0.07c-0,0.16 0.09,0.3 0.24,0.36l0.84 0.3 -0.85 0.25c-0.15,0.05 -0.26,0.18 -0.26,0.34l-0 0.07c-0,0.17 0.11,0.32 0.28,0.37l2.95 0.74z"/>
  <path class="fil0" d="M7.09 43.07l0.09 -0.26 -0 -0.07c-0.01,-0.2 -0.19,-0.35 -0.39,-0.34l-2.97 0.21 -0.25 0.13 -0.09 0.27 0.01 0.06c0.01,0.19 0.17,0.34 0.37,0.34l0.02 0 2.97 -0.21 0.25 -0.13z"/>
  <path class="fil0" d="M6.94 46.94l0.15 0.23 0.21 0.07 0.06 -0 0.07 -0.01c0.2,-0.03 0.33,-0.22 0.3,-0.42l-0.28 -1.63c-0.03,-0.2 -0.22,-0.34 -0.42,-0.3l-0.07 0.01 -0.24 0.15 -0.06 0.28 0.07 0.42 -2.54 0.43 -0.24 0.15 -0.06 0.27 0.01 0.06c0.04,0.2 0.22,0.33 0.42,0.3l2.54 -0.43 0.07 0.42z"/>
  <path class="fil0" d="M8.45 50.29l0.04 -0.28 -0.02 -0.06c-0.05,-0.2 -0.25,-0.31 -0.45,-0.26l-0.89 0.24 -0.22 -0.82 0.89 -0.24 0.22 -0.17 0.03 -0.28 -0.02 -0.06c-0.05,-0.2 -0.25,-0.31 -0.45,-0.26l-2.88 0.78c-0.19,0.05 -0.31,0.25 -0.26,0.45l0.02 0.06 0.17 0.22 0.28 0.04 1.21 -0.33 0.22 0.83 -1.21 0.33 -0.22 0.17 -0.04 0.28 0.02 0.06c0.04,0.16 0.19,0.27 0.35,0.27l0.1 -0.01 2.88 -0.78 0.22 -0.17z"/>
  <path class="fil0" d="M66 57.21c-0.36,0 -0.72,0 -1.08,0.01 -0.54,-0.62 -1.18,-1.14 -1.87,-1.59 1.03,0.42 2.02,0.95 2.95,1.58zm-56.2 -0.6l-0.24 -0.47 -0.21 -0.18 -0.28 0.02 -0.06 0.03c-0.18,0.09 -0.26,0.31 -0.17,0.49l0.04 0.08 -0.77 0.38 -0.19 -0.38 -0.03 -0.33 0.22 -0.24 1.18 -0.59 0.34 -0.02 0.23 0.21 0.37 0.74 0.21 0.18 0.28 -0.02 0.06 -0.03c0.18,-0.09 0.25,-0.31 0.16,-0.49l-0.36 -0.72c2.63,0.1 5.34,0.87 7.33,2.59 -0.25,0.01 -0.51,0.01 -0.76,0.03 -0.52,0.02 -0.49,0.78 0.02,0.8 1.31,0.06 2.63,0.07 3.94,-0.02l0.05 -0.01 0.09 -0.03 0.02 -0.01 0.11 -0.07c5.56,-4.68 14.72,-5.08 20.73,-0.99l-0.29 0.02c-0.49,0.03 -0.46,0.72 0.02,0.75 1.03,0.07 2.14,0.11 3.16,0.01l0.08 -0.02 0.07 -0.02 0.01 -0.01 0.11 -0.06c2.97,-2.48 6.75,-3.79 10.55,-3.9 2.86,0.19 5.71,1.18 7.94,2.97 -0.31,0.15 -0.24,0.67 0.18,0.7 1.35,0.1 2.73,0.07 4.08,0.02 0.5,-0.02 0.47,-0.75 -0.02,-0.77 -0.22,-0.01 -0.43,-0.02 -0.65,-0.02 -6.3,-5.42 -16.29,-4.86 -22.5,0.33 -0.48,-0.04 -0.98,-0.06 -1.47,-0.05 -6.09,-5.23 -16.43,-4.67 -22.43,0.38 -0.63,-0.04 -1.27,-0.05 -1.9,-0.05 -2.1,-2.68 -6.03,-3.5 -9.28,-3.38l-0.25 0.1c-0.2,-0.01 -0.41,0.03 -0.61,0.13l-1.18 0.59c-0.3,0.15 -0.52,0.39 -0.62,0.7 -0.1,0.31 -0.08,0.63 0.07,0.94l0.38 0.77 0.21 0.18 0.12 0.02 0.16 -0.04 1.54 -0.77c0.18,-0.09 0.25,-0.31 0.17,-0.49z"/>
  <path class="fil0" d="M9.92 59.85l-0.26 -0.19 -0.06 -0.32 0.19 -0.27 1.12 -0.7 0.22 -0.07 0.1 0.01 0.27 0.19 0.05 0.32 -0.19 0.26 -1.12 0.7 -0.33 0.05zm1.87 -0.08c0.28,-0.18 0.47,-0.44 0.55,-0.77 0.07,-0.33 0.02,-0.65 -0.16,-0.93 -0.18,-0.28 -0.44,-0.47 -0.77,-0.55 -0.33,-0.07 -0.64,-0.02 -0.93,0.16l-1.12 0.7c-0.28,0.18 -0.47,0.44 -0.55,0.76 -0.07,0.32 -0.02,0.64 0.16,0.93 0.18,0.28 0.44,0.47 0.76,0.54l0.28 0.03c0.23,0 0.44,-0.06 0.64,-0.19l1.12 -0.7z"/>
  <path class="fil0" d="M13.27 61.89l-0.92 0.71c-0.12,0.09 -0.25,0.12 -0.41,0.08 -0.14,-0.03 -0.25,-0.09 -0.31,-0.17l-0.21 -0.27 1.72 -1.33 0.21 0.27c0.07,0.09 0.1,0.2 0.09,0.34 -0,0.16 -0.06,0.28 -0.18,0.37zm0.25 -1.82l-0.24 -0.14 -0.27 0.07 -2.41 1.86c-0.16,0.12 -0.19,0.35 -0.07,0.51l0.47 0.62c0.18,0.24 0.44,0.39 0.77,0.47l0.31 0.04c0.28,0 0.53,-0.09 0.76,-0.27l0.92 -0.7c0.31,-0.24 0.48,-0.58 0.49,-0.97 0.01,-0.33 -0.07,-0.62 -0.26,-0.86l-0.48 -0.62z"/>
  <path class="fil0" d="M14.06 65.39c-0.1,-0.17 -0.32,-0.23 -0.49,-0.13l-0.6 0.33 -0.17 0.22 0.03 0.28 0.03 0.06 0.32 0.19 0.18 -0.05 0.6 -0.33 0.18 -0.22 -0.04 -0.28 -0.03 -0.06z"/>
  <path class="fil0" d="M17.2 67.22l-0.24 -0.22 0.44 -0.26 -0.2 0.47zm1.3 -1.68l-0.05 -0.05 -0.43 -0.04 -2.7 1.58 -0.17 0.23 0.05 0.28 0.03 0.06c0.11,0.17 0.32,0.22 0.49,0.12l0.5 -0.29 0.64 0.56 -0.22 0.54c-0.08,0.18 0.01,0.39 0.18,0.47l0.06 0.03 0.15 0.03 0.13 -0.02 0.2 -0.2 1.21 -2.88c0.06,-0.15 0.02,-0.31 -0.1,-0.42z"/>
  <path class="fil0" d="M20.46 67.14l-0.27 -0.06 -0.24 0.15 -1.75 2.44 -0.06 0.28 0.15 0.24 1.1 0.79 0.21 0.07 0.06 -0.01 0.24 -0.15 0.04 -0.05c0.12,-0.16 0.08,-0.39 -0.09,-0.51l-0.75 -0.54 1.5 -2.09c0.12,-0.17 0.08,-0.39 -0.08,-0.51l-0.05 -0.04z"/>
  <path class="fil0" d="M23.22 69l-0.06 -0.03 -0.28 -0.03 -0.22 0.17 -1.51 2.6c-0.1,0.18 -0.04,0.4 0.13,0.5l1.17 0.68 0.18 0.05 0.32 -0.18 0.03 -0.06 0.04 -0.28 -0.17 -0.22 -0.8 -0.46 1.29 -2.23c0.1,-0.17 0.04,-0.4 -0.13,-0.5z"/>
  <path class="fil0" d="M30.48 72.24l-1.57 -0.53c-0.19,-0.07 -0.4,0.04 -0.46,0.23l-0.02 0.06 0.02 0.28 0.21 0.18 0.4 0.14 -0.83 2.44 0.02 0.28 0.21 0.18 0.06 0.02 0.12 0.02c0.15,0 0.3,-0.1 0.35,-0.25l0.83 -2.44 0.4 0.14c0.19,0.06 0.4,-0.04 0.47,-0.23l0.02 -0.06 -0.02 -0.28 -0.21 -0.19z"/>
  <path class="fil0" d="M33.65 73.1l-0.07 -0.02c-0.2,-0.05 -0.39,0.08 -0.44,0.27l-0.21 0.9 -0.83 -0.2 0.21 -0.9c0.05,-0.2 -0.08,-0.39 -0.27,-0.44l-0.06 -0.01 -0.28 0.05 -0.16 0.23 -0.68 2.9 0.05 0.28 0.23 0.16 0.06 0.01c0.2,0.05 0.39,-0.07 0.44,-0.27l0.28 -1.22 0.83 0.2 -0.29 1.22 0.05 0.28 0.23 0.17 0.07 0.01 0.08 0.01c0.17,0 0.32,-0.11 0.36,-0.28l0.68 -2.9 -0.05 -0.28 -0.23 -0.16z"/>
  <path class="fil0" d="M36.05 73.49l-0.07 -0.01 -0.27 0.07 -0.14 0.25 -0.39 2.95 0.07 0.27 0.24 0.14 0.07 0.01 0.05 0c0.18,0 0.34,-0.13 0.36,-0.32l0.39 -2.95c0.03,-0.2 -0.11,-0.38 -0.31,-0.41z"/>
  <path class="fil0" d="M40.13 73.79l-0.07 -0 -0.27 0.1 -0.12 0.26 -0.05 1.43 -0.84 -1.64 -0.32 -0.2 -0.07 -0c-0.19,0 -0.37,0.15 -0.38,0.35l-0.1 2.98 0.1 0.26 0.26 0.11 0.06 0c0.2,0.01 0.37,-0.15 0.38,-0.35l0.05 -1.43 0.84 1.64 0.31 0.2 0.07 0 0.02 0 0.25 -0.1 0.12 -0.26 0.1 -2.98c0.01,-0.2 -0.15,-0.37 -0.35,-0.38z"/>
  <path class="fil0" d="M43.73 75.04l-0.27 -0.09 -0.53 0.03c-0.2,0.01 -0.36,0.18 -0.34,0.39l0 0.07 0.12 0.25 0.27 0.09 0.1 -0.01 0.05 0.85 -0.47 0.03 -0.28 -0.1 -0.14 -0.3 -0.08 -1.32 0.12 -0.32 0.29 -0.13 0.83 -0.05 0.25 -0.12 0.09 -0.26 -0 -0.07c-0.01,-0.2 -0.19,-0.35 -0.39,-0.34l-0.83 0.05c-0.31,0.02 -0.58,0.14 -0.8,0.36 -0.25,0.25 -0.37,0.57 -0.35,0.94l0.08 1.32c0.02,0.34 0.16,0.63 0.41,0.85 0.23,0.2 0.5,0.3 0.8,0.3l0.09 -0 0.86 -0.05 0.25 -0.12 0.09 -0.26 -0.1 -1.71 -0.12 -0.26z"/>
  <path class="fil0" d="M46.61 74.95c-0.19,-0.06 -0.35,-0.11 -0.49,-0.16l-0.35 -0.11c-0.2,-0.06 -0.24,-0.16 -0.26,-0.24l0.03 -0.19c0.03,-0.05 0.08,-0.1 0.21,-0.12 0.09,-0.01 0.24,-0.01 0.68,0.06 0.16,0.03 0.33,-0.06 0.4,-0.21l0.03 -0.06 0 -0.29 -0.21 -0.2c-0.31,-0.12 -0.65,-0.15 -1.02,-0.09 -0.34,0.05 -0.61,0.23 -0.77,0.5 -0.14,0.22 -0.18,0.47 -0.14,0.73 0.05,0.32 0.23,0.58 0.51,0.75l0.04 0.02 0.21 0.08 0.2 0.07 0.53 0.16 0.21 0.08 0.11 0.05 0.09 0.15 -0.04 0.18 -0.21 0.11c-0.08,0 -0.3,-0.02 -0.83,-0.16 -0.17,-0.04 -0.34,0.03 -0.42,0.19l-0.03 0.06c-0.09,0.18 -0.02,0.4 0.16,0.49 0.18,0.09 0.39,0.16 0.62,0.2l0.36 0.03 0.29 -0.02c0.32,-0.05 0.57,-0.22 0.73,-0.48 0.14,-0.23 0.19,-0.47 0.15,-0.72 -0.05,-0.29 -0.22,-0.67 -0.8,-0.87z"/>
  <path class="fil0" d="M52.64 73.75l-0.02 -0.51 0.32 0.4 -0.3 0.11zm-0.14 -1.94c-0.1,-0.12 -0.27,-0.17 -0.41,-0.11l-0.07 0.02c-0.15,0.06 -0.24,0.2 -0.24,0.36l0.11 3.12 0.12 0.26 0.24 0.09 0.03 0 0.06 -0.01c0.19,-0.01 0.34,-0.18 0.34,-0.38l-0.02 -0.58 0.8 -0.3 0.36 0.45c0.12,0.15 0.35,0.18 0.51,0.06l0.05 -0.04 0.14 -0.25 -0.08 -0.27 -1.96 -2.44z"/>
  <path class="fil0" d="M55.98 71.68l-0.27 0.22 -0.35 0.17 -0.37 -0.77 0.35 -0.17 0.33 -0.07c0.08,0.01 0.18,0.05 0.27,0.25 0.1,0.2 0.07,0.3 0.03,0.37zm0.68 0.42c0.21,-0.33 0.21,-0.72 0.01,-1.15 -0.24,-0.5 -0.61,-0.65 -0.87,-0.69 -0.26,-0.04 -0.53,0.01 -0.8,0.14l-0.73 0.36c-0.18,0.09 -0.26,0.31 -0.17,0.49l1.32 2.71c0.06,0.13 0.19,0.21 0.33,0.21l0.16 -0.04 0.06 -0.03 0.19 -0.21 -0.02 -0.28 -0.41 -0.83 0.32 -0.16 0.97 0.75c0.16,0.12 0.38,0.09 0.51,-0.06l0.04 -0.05 0.08 -0.27 -0.14 -0.25 -0.83 -0.65z"/>
  <path class="fil0" d="M60.51 71.14l-0.23 -0.17 -0.28 0.04 -0.79 0.48 -0.45 -0.73 0.51 -0.31 0.17 -0.23 -0.05 -0.28 -0.04 -0.06c-0.11,-0.17 -0.33,-0.23 -0.5,-0.12l-0.51 0.31 -0.27 -0.44 0.79 -0.48 0.16 -0.23 -0.04 -0.28 -0.04 -0.06c-0.11,-0.17 -0.33,-0.23 -0.5,-0.12l-1.15 0.71 -0.16 0.23 0.04 0.28 1.59 2.59 0.31 0.17 0.19 -0.05 1.15 -0.71c0.17,-0.11 0.23,-0.33 0.12,-0.5l-0.03 -0.05z"/>
  <path class="fil0" d="M64.34 65.86l-0.19 0.29 -0.28 0.26 -0.58 -0.63 0.28 -0.26 0.3 -0.16 0.04 -0c0.03,0 0.14,0 0.29,0.16 0.17,0.19 0.15,0.3 0.14,0.35zm0.78 0.18c0.06,-0.26 0.06,-0.66 -0.33,-1.07 -0.3,-0.32 -0.66,-0.46 -1.04,-0.41 -0.26,0.04 -0.5,0.16 -0.73,0.37l-0.6 0.55c-0.15,0.14 -0.16,0.37 -0.02,0.52l2.04 2.21 0.26 0.12 0.01 0 0.25 -0.1 0.05 -0.04 0.12 -0.26 -0.1 -0.26 -0.63 -0.68 0.28 -0.26c0.22,-0.2 0.36,-0.44 0.43,-0.69z"/>
  <path class="fil0" d="M67.57 64.55c-0.08,0.09 -0.17,0.14 -0.33,0.14l-0.28 -0.11 -0.99 -0.88 -0.14 -0.29 0.11 -0.31 0.3 -0.14 0.03 0 0.27 0.11 0.99 0.88 0.14 0.3 -0.11 0.31zm-0.49 -2.08c-0.25,-0.23 -0.54,-0.33 -0.89,-0.31 -0.34,0.02 -0.62,0.16 -0.85,0.41 -0.23,0.25 -0.33,0.55 -0.31,0.89 0.02,0.33 0.16,0.62 0.41,0.84l0.99 0.88c0.23,0.21 0.51,0.31 0.81,0.31l0.08 -0c0.33,-0.02 0.62,-0.16 0.84,-0.41 0.22,-0.25 0.33,-0.56 0.31,-0.89 -0.02,-0.33 -0.16,-0.63 -0.41,-0.84l-0.99 -0.88z"/>
  <path class="fil0" d="M70.31 60.66c-0.33,-0.24 -0.73,-0.27 -1.18,-0.06 -0.18,0.09 -0.33,0.17 -0.46,0.24l-0.32 0.17c-0.15,0.08 -0.24,0.09 -0.36,0.01l-0.1 -0.15 0.07 -0.24c0.03,-0.04 0.14,-0.16 0.52,-0.43 0.14,-0.09 0.19,-0.27 0.13,-0.42l-0.02 -0.06 -0.2 -0.21 -0.29 0c-0.3,0.13 -0.57,0.35 -0.79,0.66 -0.2,0.28 -0.27,0.59 -0.2,0.89 0.06,0.25 0.2,0.46 0.41,0.62 0.27,0.2 0.58,0.26 0.89,0.17l0.05 -0.01 0.21 -0.09 0.19 -0.09 0.49 -0.26 0.2 -0.09 0.12 -0.04 0.17 0.05 0.1 0.16 -0.05 0.2c-0.01,0.01 -0.12,0.14 -0.72,0.49 -0.15,0.09 -0.22,0.27 -0.17,0.43l0.02 0.06c0.05,0.15 0.2,0.25 0.35,0.25l0.11 -0.02c0.2,-0.06 0.39,-0.16 0.58,-0.3 0.19,-0.14 0.35,-0.29 0.47,-0.45 0.19,-0.26 0.25,-0.56 0.18,-0.86 -0.06,-0.26 -0.2,-0.47 -0.4,-0.62z"/>
  <path class="fil0" d="M72.15 57.64c-0.36,-0.21 -0.76,-0.2 -1.18,0.06 -0.17,0.11 -0.31,0.2 -0.44,0.28l-0.3 0.2 -0.22 0.08 -0.13 -0.04 -0.12 -0.15 0.04 -0.24c0.03,-0.04 0.12,-0.18 0.48,-0.48 0.13,-0.11 0.16,-0.29 0.09,-0.44l-0.03 -0.06 -0.22 -0.19 -0.29 0.03c-0.29,0.16 -0.53,0.41 -0.72,0.73 -0.18,0.3 -0.21,0.61 -0.11,0.91 0.09,0.25 0.24,0.44 0.47,0.57 0.28,0.17 0.6,0.2 0.9,0.09l0.05 -0.02 0.2 -0.11 0.18 -0.11 0.47 -0.3 0.19 -0.11 0.11 -0.05 0.18 0.03 0.11 0.15 -0.02 0.2c-0.01,0.01 -0.1,0.15 -0.67,0.56 -0.14,0.1 -0.19,0.29 -0.12,0.44l0.03 0.06 0.2 0.2 0.14 0.03 0.15 -0.03c0.19,-0.08 0.37,-0.2 0.55,-0.35 0.18,-0.16 0.32,-0.32 0.42,-0.5 0.16,-0.28 0.2,-0.58 0.09,-0.88 -0.09,-0.25 -0.24,-0.45 -0.46,-0.57z"/>
  <path class="fil0" d="M73.92 55.5l-2.7 -1.25 -0.28 -0.01 -0.21 0.19 -0.03 0.06c-0.08,0.18 -0,0.4 0.18,0.49l2.7 1.25 0.16 0.03c0.14,0 0.27,-0.08 0.33,-0.21l0.03 -0.06 0.01 -0.28 -0.19 -0.21z"/>
  <path class="fil0" d="M72.67 51.69l0.11 -0.17 0.23 -0.01 0.16 0.16 0.02 0.11 0 0 -0.17 0.48 -0.49 -0.17 0.14 -0.41zm1.26 0.4c0.15,-0.26 0.28,-0.26 0.34,-0.26l0.19 0.04c0.2,0.07 0.25,0.17 0.27,0.28l-0.01 0.27 -0.14 0.4 -0.81 -0.28 0.16 -0.45zm-2.02 -0.66l-0.28 0.81c-0.07,0.19 0.04,0.4 0.23,0.47l2.87 1.01 0.12 0.02 0.16 -0.03 0.19 -0.21 0.29 -0.81c0.07,-0.21 0.09,-0.44 0.04,-0.69 -0.08,-0.42 -0.36,-0.72 -0.79,-0.87 -0.31,-0.11 -0.58,-0.15 -0.94,0.02 -0.12,-0.17 -0.29,-0.3 -0.52,-0.37 -0.38,-0.14 -0.74,-0.08 -1.01,0.15 -0.16,0.13 -0.27,0.31 -0.35,0.52z"/>
  <path class="fil0" d="M72.98 49.43l2.92 0.71 0.09 0.01c0.17,0 0.32,-0.11 0.36,-0.28l0.32 -1.32 -0.04 -0.28 -0.23 -0.17 -0.06 -0.01c-0.2,-0.05 -0.39,0.07 -0.44,0.27l-0.22 0.9 -2.51 -0.61 -0.28 0.04 -0.17 0.23 -0.01 0.06c-0.05,0.2 0.07,0.39 0.27,0.44z"/>
  <path class="fil0" d="M73.66 46.21l3.01 0.42 0.05 0 0.22 -0.07 0.14 -0.24 0.19 -1.34 -0.07 -0.27 -0.24 -0.14 -0.06 -0.01c-0.21,-0.03 -0.39,0.11 -0.41,0.31l-0.13 0.91 -0.85 -0.12 0.08 -0.59c0.03,-0.2 -0.11,-0.39 -0.31,-0.42l-0.07 -0.01 -0.27 0.07 -0.14 0.24 -0.08 0.59 -0.52 -0.07 0.13 -0.91 -0.07 -0.27 -0.24 -0.14 -0.07 -0.01c-0.2,-0.03 -0.39,0.11 -0.41,0.31l-0.19 1.34c-0.03,0.2 0.11,0.39 0.31,0.41z"/>
  <path class="fil0" d="M30.97 11.37c-0.09,0.2 -0.24,0.33 -0.45,0.4l-0.27 0.05 -0.34 -0.08c-0.2,-0.1 -0.33,-0.24 -0.4,-0.46l-0.63 -1.82c-0.07,-0.21 -0.06,-0.41 0.04,-0.61 0.1,-0.2 0.24,-0.33 0.46,-0.4l0.27 -0.05 0.34 0.08c0.2,0.1 0.33,0.24 0.4,0.45l0.63 1.83c0.07,0.21 0.06,0.41 -0.04,0.61zm-0.64 -3.63c-0.4,-0.19 -0.82,-0.22 -1.24,-0.07 -0.42,0.15 -0.73,0.42 -0.93,0.83 -0.19,0.4 -0.22,0.82 -0.07,1.24l0.63 1.82c0.15,0.42 0.42,0.74 0.82,0.93 0.23,0.11 0.46,0.16 0.7,0.16 0.18,0 0.36,-0.03 0.54,-0.09 0.42,-0.15 0.73,-0.42 0.93,-0.82 0.19,-0.4 0.22,-0.82 0.07,-1.24l-0.63 -1.82c-0.15,-0.42 -0.42,-0.73 -0.83,-0.93z"/>
  <path class="fil0" d="M38.46 10.57l0.13 0.25 0.27 0.08 0.1 -0.01c0.2,-0.02 0.35,-0.2 0.33,-0.4l-0.4 -4.33 -0.13 -0.25 -0.27 -0.08 -0.1 0.01c-0.2,0.02 -0.35,0.2 -0.33,0.4l0.14 1.51 -1.58 0.15 -0.14 -1.51c-0.02,-0.2 -0.19,-0.36 -0.4,-0.33l-0.09 0.01 -0.25 0.13 -0.08 0.26 0.4 4.33c0.02,0.19 0.18,0.34 0.37,0.34l0.03 -0 0.09 -0.01 0.25 -0.13 0.08 -0.27 -0.18 -1.99 1.58 -0.14 0.18 1.99z"/>
  <path class="fil0" d="M44.74 11.19l0.1 0.02 0.05 0 0.22 -0.07 0.14 -0.24 0.63 -4.3 -0.07 -0.27 -0.24 -0.14 -0.09 -0.01c-0.2,-0.03 -0.39,0.11 -0.42,0.31l-0.63 4.3c-0.03,0.2 0.11,0.39 0.31,0.42z"/>
  <path class="fil0" d="M51.49 11.32l0.73 -1.79c0.09,-0.21 0.22,-0.34 0.43,-0.43l0.3 -0.07 0.3 0.07c0.21,0.09 0.35,0.22 0.43,0.43 0.09,0.2 0.09,0.4 0,0.6l-0.73 1.79c-0.09,0.21 -0.22,0.35 -0.43,0.43 -0.21,0.09 -0.39,0.09 -0.6,0 -0.21,-0.08 -0.35,-0.22 -0.43,-0.43 -0.09,-0.21 -0.09,-0.4 -0,-0.61zm0.12 1.8c0.2,0.08 0.41,0.13 0.62,0.13 0.21,0 0.42,-0.04 0.62,-0.13 0.41,-0.17 0.71,-0.47 0.88,-0.88l0.73 -1.79c0.17,-0.41 0.17,-0.83 -0.01,-1.24 -0.17,-0.41 -0.47,-0.71 -0.88,-0.87 -0.41,-0.17 -0.84,-0.17 -1.24,0 -0.41,0.17 -0.7,0.47 -0.87,0.88l-0.73 1.79c-0.17,0.41 -0.17,0.83 0,1.24 0.17,0.41 0.47,0.7 0.89,0.87z"/>
  <path class="fil0" d="M44.25 56.1c-1.31,-1.43 -3.06,-2.36 -4.94,-2.92 3.42,-0.06 6.84,-0.13 10.27,-0.19 -2.03,0.66 -3.94,1.69 -5.33,3.1zm-24.03 0.21c-1.16,-1.25 -2.7,-2.09 -4.37,-2.63 2.98,-0.03 5.96,-0.11 8.93,-0.19 -1.75,0.65 -3.38,1.59 -4.57,2.83zm50.95 -3.75c0.52,-0.01 0.5,-0.81 -0.02,-0.8 -13.55,0.24 -27.11,0.44 -40.66,0.67l-0.03 -0.01c-0.14,0 -0.28,0.01 -0.43,0.01 -4.53,0.08 -9.06,0.15 -13.59,0.24 -2.26,0.04 -4.52,0.05 -6.77,0.17 -0.53,0.03 -0.5,0.81 0.02,0.81 0.46,0.01 0.91,0.01 1.37,0.02 3.29,0.23 6.39,1.26 8.88,3.5l0.36 0.08 0.2 -0.09c2.34,-1.92 5.18,-3.29 8.17,-3.78 0.79,-0.02 1.59,-0.04 2.38,-0.05 1.2,-0.02 2.41,-0.05 3.61,-0.07 3.52,0.24 6.52,1.37 9.3,3.69l0.04 0.02c0.12,0.11 0.28,0.16 0.44,0.03 2.75,-2.23 6.1,-3.73 9.63,-4.1 1.31,-0.02 2.61,-0.05 3.92,-0.07 3.62,0.21 6.68,1.34 9.52,3.71 0.15,0.13 0.32,0.13 0.44,0.06l0.11 -0.08c0.76,-0.87 1.45,-1.74 2.46,-2.34 0.44,-0.26 0.03,-0.87 -0.41,-0.66 -0.89,0.43 -1.85,1.18 -2.41,2.06 -1.31,-1.39 -3.04,-2.29 -4.9,-2.84 0.53,-0.01 1.06,-0.02 1.59,-0.03 2.26,-0.04 4.52,-0.13 6.77,-0.17z"/>
  <path class="fil0" d="M24.14 39.12c-0.12,2.08 -0.12,4.24 -0,6.31 0.03,0.5 0.74,0.47 0.76,-0.02 0.06,-1.1 0.09,-2.22 0.08,-3.35 0.15,0 0.3,-0 0.44,0 0.37,0.01 0.73,-0.01 1.1,-0.08 0.24,-0.05 0.33,-0.29 0.27,-0.51 0.06,-0.82 0.09,-1.7 0.01,-2.53l0.24 -0.01c0.19,-0.02 0.3,-0.12 0.34,-0.25l0.06 -0.19 -0 -0.28 0.37 -0.02 0.02 0 0.28 -0.15 0.05 -0.08 0.01 -0.02 0.02 -0.04 0 -0.04 0.01 -0.07 0.01 -0.24c1.01,0.05 2.03,0.08 3.03,0.04 0,0.17 0.01,0.33 0.03,0.49 0.02,0.18 0.11,0.33 0.3,0.37l0.09 0.01 0.31 0.04 0 0.27 0.14 0.28 0.1 0.09c0.26,0.12 0.54,0.1 0.83,0.11l0.19 -0.01c-0.08,0.95 -0.04,1.96 0.02,2.9 0.03,0.51 0.75,0.48 0.78,-0.02 0.06,-1.05 0.12,-2.19 -0.01,-3.24 0.02,-0.19 -0.07,-0.4 -0.28,-0.45 -0.24,-0.05 -0.47,-0.06 -0.71,-0.06l-0.28 0 -0.01 -0.2c0.04,-0.2 -0.06,-0.44 -0.28,-0.48l-0.35 -0.04c0.01,-0.15 -0,-0.3 -0.03,-0.44 0.02,-0.22 -0.12,-0.47 -0.41,-0.48 -1.27,-0.07 -2.58,-0.02 -3.85,0.05l-0.03 0.01 -0.1 0.02 -0.05 0.02 -0.18 0.23 -0.03 0.33 -0.39 0.03c-0.17,0.03 -0.31,0.11 -0.36,0.29l-0 0.08 -0.01 0.02 -0.03 0.33 -0.31 0.03c-0.14,0 -0.27,0.08 -0.29,0.27 -0.11,0.85 -0.1,1.77 -0.05,2.65 -0.15,-0.01 -0.31,-0.01 -0.46,-0.01 -0.17,0 -0.36,-0.01 -0.55,-0 -0.01,-0.67 -0.03,-1.34 -0.07,-2 -0.03,-0.49 -0.73,-0.46 -0.76,0.02z"/>
  <path class="fil0" d="M27.86 43.62c-0.11,2.25 -0.08,4.54 0,6.79 0.02,0.49 0.73,0.46 0.75,-0.02 0.08,-2.25 0.11,-4.54 0,-6.79 -0.02,-0.49 -0.72,-0.46 -0.75,0.02z"/>
  <path class="fil0" d="M16.45 51.59l-0.15 0c-0.01,-0.14 -0.09,-0.27 -0.28,-0.3 0.06,-1.48 0.03,-2.97 -0.01,-4.45 1.29,-0.1 2.63,-0.15 3.91,-0.35 -0.05,1.68 -0.02,3.36 0,5.04 -1.16,0.02 -2.32,0.04 -3.47,0.06zm51.13 -1.17c-0.26,-0.15 -0.52,-0.14 -0.81,-0.13 -0.3,0.01 -0.62,0.02 -0.88,0.19l-0.17 0.28c-0.16,0 -0.33,0.01 -0.49,0.01l-0.23 -0.15c-0.52,-0.11 -1.02,-0.14 -1.55,-0.14 -0.58,-0 -1.29,-0.11 -1.77,0.29l-0.04 0.06c-1.64,0.03 -3.29,0.06 -4.93,0.08 -0.01,-0.14 -0.09,-0.27 -0.22,-0.36 -0.35,-0.23 -0.76,-0.16 -1.17,-0.16 -0.43,0.01 -0.93,0.09 -1.35,0.01 -0.45,-0.08 -0.67,0.24 -0.65,0.56 -0.94,0.02 -1.88,0.03 -2.82,0.05 -0.06,-0.11 -0.16,-0.2 -0.3,-0.25 -0.49,-0.16 -1.1,-0.06 -1.61,-0.05 -0.55,0 -1.1,-0.02 -1.6,0.23l-0.13 0.13c-2.11,0.03 -4.22,0.07 -6.33,0.1 -0.03,-0.15 -0.14,-0.28 -0.33,-0.32l-0.02 -0 -0.05 -0.01 -0.18 -0.02c0.04,-0.17 -0.03,-0.37 -0.2,-0.47 -0.23,-0.14 -0.47,-0.14 -0.74,-0.13 -0.32,0.01 -0.65,0 -0.9,0.22l-0.1 0.33c-0.46,-0.01 -0.93,0 -1.32,0.21l-0.17 0.26c-1.1,0.02 -2.2,0.04 -3.31,0.05 -0.01,-0.17 -0.11,-0.32 -0.32,-0.37 -0.38,-0.08 -0.75,-0.1 -1.14,-0.1 -0.39,0 -0.88,-0.08 -1.15,0.26l-0.1 0.25c-0.47,0.01 -0.94,0.02 -1.41,0.02 -0.03,-0.15 -0.13,-0.29 -0.3,-0.34 -0.4,-0.12 -0.84,-0.15 -1.27,-0.16l-0.14 -0.2c-0.18,-0.16 -0.43,-0.14 -0.61,0.02l-0.14 0.2 -0.36 0.01c-0.34,0 -0.51,0.26 -0.51,0.52 -0.59,0.01 -1.19,0.02 -1.78,0.03l-0.24 -0.18c-0.43,-0.11 -0.85,-0.13 -1.29,-0.14 -0.45,-0.01 -0.89,-0.02 -1.25,0.28l-0.06 0.1c-0.14,0 -0.28,0 -0.42,0.01 0.02,-1.68 0.05,-3.36 0,-5.04 1.75,0.26 3.52,0.51 5.28,0.68 -0.05,0.97 -0.05,1.96 0.01,2.93 0.03,0.49 0.72,0.46 0.75,-0.02 0.07,-1.08 0.06,-2.18 -0,-3.26l-0.01 -0.03c-0.01,-0.15 -0.1,-0.3 -0.27,-0.33 -2,-0.34 -4.04,-0.55 -6.05,-0.78l-0 0 -0.1 -0.02c-1.04,0.01 -2.1,0.14 -3.15,0.28 0,-0.38 -0,-0.76 -0.01,-1.14 -0,-0.48 -0.73,-0.45 -0.74,0.02 -0.01,0.41 -0.01,0.81 -0.01,1.22 -0.26,0.03 -0.52,0.06 -0.78,0.09l-0.04 0.01c-0.21,0.02 -0.31,0.2 -0.31,0.37l-0 0.03 -0.02 0.1c-0.01,0.16 -0.01,0.32 -0.01,0.49 -1.3,0.04 -2.62,0.26 -3.91,0.42 0,-0.19 -0,-0.38 -0,-0.57l-0.03 -0.24 -0.11 -0.16 -0.24 -0.1c-0.41,-0.03 -0.88,0.09 -1.29,0.13 -0.43,0.04 -0.86,0.09 -1.29,0.14 -0.47,0.06 -0.47,0.78 0.02,0.75 0.43,-0.03 0.86,-0.07 1.29,-0.11 0.29,-0.03 0.6,-0.03 0.91,-0.06 -0,0.2 -0,0.4 0,0.6l0.02 0.08c0,0.18 0.13,0.36 0.37,0.34 1.4,-0.12 2.86,-0.16 4.26,-0.37 -0.02,1.08 -0.02,2.17 0.02,3.24l-0.32 -0.02c-0.38,-0 -0.91,-0.09 -1.21,0.18l-0.19 -0.04c-0.45,0 -0.88,0.03 -1.33,0.06 -0.2,0.02 -0.31,0.14 -0.35,0.29 -0.72,0.02 -1.44,0.05 -2.15,0.09 -0.53,0.03 -0.5,0.8 0.02,0.81 7.11,0.14 14.25,-0.2 21.36,-0.33 11.12,-0.21 22.23,-0.42 33.35,-0.6 2.26,-0.04 4.52,-0.13 6.77,-0.17 0.52,-0.01 0.5,-0.81 -0.02,-0.8 -1.13,0.02 -2.25,0.04 -3.37,0.06l-0.21 -0.31z"/>
  <path class="fil0" d="M21.67 38.85c-0.04,2.05 -0,4.11 0,6.16 0,0.49 0.75,0.46 0.75,-0.02 0.01,-2.05 0.04,-4.11 0,-6.16 -0.01,-0.49 -0.75,-0.47 -0.76,0.02z"/>
  <path class="fil0" d="M22.46 34.54c-0,-0.47 -0.74,-0.46 -0.74,0.02 -0,0.89 -0,1.79 -0.01,2.68 -0,0.49 0.75,0.46 0.75,-0.02 -0,-0.89 -0,-1.79 -0,-2.68z"/>
  <path class="fil0" d="M22.76 29.8c-0.11,1.01 -0.07,2.11 0.01,3.13 -0.41,-0.02 -0.83,-0.02 -1.24,-0 0.03,-1.04 0.02,-2.09 -0.01,-3.13 0.41,0.03 0.83,0.03 1.25,0zm-4.92 14.21c0.04,-0.48 0.05,-0.98 0.02,-1.46 0.72,-0.1 1.45,-0.21 2.17,-0.31l0.05 -0.02c0.17,-0.03 0.32,-0.15 0.33,-0.37 0.07,-2.49 0.12,-5.01 0.04,-7.5l0.21 -0.23 0.33 -0.39c0.74,0.06 1.51,0.05 2.25,0.01l0.23 0.37 0.22 0.32c-0.04,1.23 -0.04,2.46 -0,3.68 0.01,0.49 0.74,0.47 0.76,-0.02 0.04,-1.23 0.03,-2.47 -0,-3.71 0.08,-0.22 -0.1,-0.5 -0.23,-0.69 -0.12,-0.18 -0.24,-0.36 -0.36,-0.54l-0.24 -0.17c0.09,-1.21 0.13,-2.54 -0.06,-3.71 -0.03,-0.16 -0.16,-0.24 -0.31,-0.26l-0.06 -0.02c-0.2,-0.02 -0.4,-0.03 -0.6,-0.04 0.01,-0.73 -0,-1.47 -0.01,-2.2 -0.01,-0.49 -0.75,-0.47 -0.76,0.02 -0.01,0.73 -0.02,1.45 -0.01,2.18 -0.23,0.01 -0.45,0.02 -0.67,0.05l-0.1 0.04c-0.14,0.04 -0.25,0.16 -0.26,0.35 -0.04,1.17 -0.06,2.37 -0.03,3.55l-0.25 0.12c-0.15,0.16 -0.29,0.32 -0.43,0.48 -0.17,0.2 -0.44,0.48 -0.35,0.74 -0.09,2.41 -0.12,4.85 -0.06,7.26 -0.73,0.1 -1.46,0.21 -2.19,0.32l-0.02 0.01c-0.16,-0.01 -0.31,0.06 -0.34,0.28 -0.08,0.62 -0.06,1.27 -0.02,1.89 0.04,0.5 0.73,0.47 0.77,-0.02z"/>
  <polygon class="fil0" points="51.81,26.01 51.81,26.02 51.81,26.01 "/>
  <path class="fil0" d="M58.88 44.42l0.08 -0.22c0.07,-1.16 0.07,-2.33 0.06,-3.5 0.74,0.11 1.49,0.17 2.23,0.21 -0.1,1.05 -0.04,2.18 0.03,3.22l0.04 0.15c-0.81,0.05 -1.63,0.1 -2.44,0.15zm-14.55 -3.76l-0.05 0.01c-0.88,0.07 -1.75,0.15 -2.63,0.22 0.11,-3.98 0.29,-8.1 0.03,-12.07 0.16,0.06 0.32,0.11 0.48,0.16 -0.06,1.99 0,3.99 0.01,5.97 0,0.48 0.75,0.46 0.75,-0.02 0.01,-1.91 0.07,-3.83 0.02,-5.74 0.14,0.04 0.29,0.07 0.43,0.11l0.25 -0.02 0.28 -0.05c-0.12,3.56 -0.07,7.17 0.01,10.73 0.01,0.49 0.75,0.47 0.76,-0.02 0.09,-3.72 0.15,-7.51 0,-11.23 0.17,-0.31 0.35,-0.62 0.5,-0.94l0.36 -0.07c-0.19,4.32 -0.11,8.73 0.01,13.05 -0.41,-0.05 -0.82,-0.09 -1.22,-0.08zm0.75 2.03c-0.02,0.29 -0.04,0.59 -0.05,0.88 -3.92,0.32 -7.83,0.65 -11.75,0.98 -0.01,-0.29 -0.02,-0.59 -0.04,-0.88 3.67,-0.3 7.34,-0.61 11.01,-0.91l0 0 0.25 -0.02c0.2,-0.02 0.39,-0.03 0.59,-0.05zm-11.78 2.61c3.9,-0.32 7.8,-0.65 11.7,-0.97 -0.01,0.37 -0.02,0.73 -0.02,1.1 -3.89,0.25 -7.78,0.51 -11.68,0.76 0,-0.3 0,-0.59 -0,-0.89zm11.68 0.88c0,0.32 0.01,0.64 0.01,0.96 -3.91,0.22 -7.81,0.45 -11.72,0.68 0.01,-0.29 0.01,-0.59 0.02,-0.89 3.89,-0.25 7.79,-0.5 11.68,-0.76zm-11.75 3.28c0.01,-0.3 0.02,-0.59 0.03,-0.89 3.92,-0.22 7.84,-0.45 11.76,-0.68 0.01,0.33 0.02,0.66 0.03,0.99 -3.94,0.19 -7.88,0.39 -11.82,0.58zm10.7 -8c-0.02,0.19 -0.02,0.39 -0.02,0.58 -2.85,0.24 -5.7,0.48 -8.55,0.72l0 -0.35 -0.01 -0.24c2.86,-0.23 5.72,-0.47 8.58,-0.71zm-4.42 -9.31c-0.03,2.97 0.01,5.95 0.04,8.92 -0.26,0.02 -0.53,0.04 -0.79,0.06 0.04,-2.95 0.05,-5.9 -0.01,-8.84 0.25,-0.02 0.51,-0.07 0.75,-0.14zm0.82 -3.26l0.38 -0.07 0.15 -0.04c-0.27,4 -0.08,8.17 0.02,12.18 -0.19,0.01 -0.37,0.03 -0.56,0.05 0.04,-4.03 0.12,-8.09 0.01,-12.12zm24.27 15.18c-0.85,0.05 -1.71,0.11 -2.57,0.16l0.03 -0.12c0.08,-1.15 0.16,-2.43 -0.01,-3.58l-0 -0c0,-0.17 -0.08,-0.34 -0.28,-0.37 -0.91,-0.13 -1.84,-0.25 -2.76,-0.28 -0.01,-0.69 -0.02,-1.37 -0.02,-2.06 0,-2.61 0.16,-5.29 -0.06,-7.9l-0.06 -0.27c-0.83,-1.12 -1.67,-2.24 -2.51,-3.36l-0.19 -0.22c-0.53,-0.27 -1.12,-0.47 -1.69,-0.62l-0.2 -0.04 -0.03 0 -0.04 0c-0.72,0.11 -1.46,0.25 -2.15,0.46l-0.17 0.06 -0.03 0.03 -0.03 0.03 -0.02 0.02 -0.02 0.03 -0.03 0.03 -0 -0c-0.01,0.02 -0.16,0.21 0.04,-0.06 -0.15,0.14 -0.28,0.33 -0.4,0.48 -0.4,0.49 -0.83,0.99 -1.24,1.5 -1.3,-0.45 -2.66,-0.82 -4,-1.14l-0.24 -0.07c-0.2,0.01 -0.4,0.05 -0.6,0.08l-0.36 0.06 -0.13 0.05 -0.02 0.02 -0.08 0.05 -0.04 0.02 -0.04 0.04 -0.06 0.07c-0.22,0.34 -0.39,0.71 -0.56,1.07l-0.29 0.09 -0.28 0.12 -0.04 0.02c-0.66,-0.25 -1.36,-0.49 -2.05,-0.61l-0 -0 -0.02 -0 -0 0 -0.1 -0.02c-0.48,-0 -1.08,0.12 -1.51,0.36 -0.14,0.08 -0.19,0.2 -0.17,0.32l0 0c-0.03,0.92 -0.04,1.84 -0.06,2.77 -0.37,0.08 -0.73,0.18 -1.11,0.24l-0.27 0.14 -0.14 0.29c-0.06,3.07 -0.05,6.15 -0.01,9.22 -1.02,0.08 -2.04,0.17 -3.07,0.26l-0.04 0.01 -0.12 0.03 -0 0 -0.2 0.24c-0.04,0.2 -0.06,0.4 -0.06,0.61 -0,0.15 -0.02,0.32 0,0.48 -0.57,0.05 -1.13,0.09 -1.7,0.14l-0.03 0.01 -0.12 0.04 -0.01 0.01c-0.11,0.06 -0.2,0.17 -0.21,0.33 -0.19,2.32 -0.03,4.73 0.01,7.06 0.01,0.49 0.74,0.46 0.75,-0.02l0 -0.19c3.95,-0.19 7.91,-0.38 11.86,-0.58 0.01,0.2 0.02,0.4 0.03,0.6 0.02,0.51 0.76,0.48 0.78,-0.02 0.11,-2.45 0.2,-5.01 0.02,-7.47 0.6,0.1 1.21,0.15 1.81,0.19 -0.12,2.4 -0.07,4.86 0.02,7.25 0.02,0.49 0.73,0.46 0.75,-0.02 0.09,-2.52 0.15,-5.1 0,-7.62 0,-0.17 -0.09,-0.34 -0.28,-0.37 -0.89,-0.15 -1.82,-0.28 -2.72,-0.28l-0.05 0.01c-0.22,0.02 -0.44,0.04 -0.66,0.06 0,-0.15 -0,-0.3 -0.01,-0.44 0.59,0.1 1.2,0.14 1.79,0.17 0.44,0.02 0.52,-0.69 0.09,-0.77l-0.29 -0.05c0.12,-4.35 0.21,-8.8 0.02,-13.14 1.08,0.36 2.19,0.69 3.29,0.97 -0.16,0.22 -0.31,0.45 -0.45,0.68 -0.08,0.07 -0.14,0.17 -0.14,0.31 0.06,6.41 -0.3,12.86 0.01,19.26 0.03,0.53 0.78,0.5 0.81,-0.02 0.31,-6.36 -0.05,-12.76 0,-19.12 0.76,-0.8 1.39,-1.79 2.04,-2.67 0.11,0.58 0.22,1.16 0.34,1.74 -0.13,7.03 0.02,14.06 -0.04,21.09 -0,0.54 0.84,0.52 0.83,-0.02 -0.06,-7.04 0.09,-14.1 -0.04,-21.14l-0.01 -0.04 0 -0.06c-0.13,-0.7 -0.28,-1.4 -0.43,-2.09 0.48,-0.07 0.95,-0.17 1.42,-0.29 0.13,0.78 0.26,1.56 0.4,2.33l-0.03 0.12c-0.21,4.79 -0.09,9.69 0.04,14.49 0.01,0.51 0.76,0.48 0.78,-0.02 0.13,-4.8 0.24,-9.7 0.04,-14.5l-0.07 -0.21c-0.11,-0.7 -0.24,-1.4 -0.37,-2.09l0.19 0.07c0.2,0.07 0.4,0.14 0.6,0.21l0.22 0.05c0.79,1.06 1.59,2.13 2.38,3.19 -0.19,2.36 -0.05,4.79 -0.05,7.16 0,2.36 -0.11,4.74 0.03,7.1l0.1 0.25c-1.05,0.06 -2.1,0.13 -3.14,0.2 -0.15,0.01 -0.24,0.09 -0.3,0.2l-0.03 0.06 -0 0.01 -0.03 0.12c-0.17,1.6 -0.09,3.31 -0.01,4.91 0.02,0.51 0.76,0.48 0.78,-0.02 0.07,-1.48 0.15,-3.06 0.02,-4.55 2.91,-0.18 5.82,-0.36 8.73,-0.54 -0.08,1.63 -0.05,3.31 0.02,4.93 0.02,0.5 0.75,0.47 0.77,-0.02 0.07,-1.6 0.1,-3.27 0.02,-4.87 1.07,0.15 2.16,0.24 3.25,0.3 -0.06,1.66 -0.07,3.35 -0,5.01 0.02,0.5 0.76,0.48 0.78,-0.02 0.07,-1.76 0.06,-3.55 -0.01,-5.31 0.03,-0.19 -0.06,-0.4 -0.28,-0.43 -1.37,-0.18 -2.76,-0.34 -4.14,-0.37l-0.05 0.01z"/>
  <path class="fil0" d="M28.82 38.99c-0.12,1.38 -0.02,2.79 0,4.17 0.01,0.49 0.75,0.47 0.75,-0.02 0.03,-1.38 0.12,-2.8 0,-4.17 -0.04,-0.5 -0.72,-0.46 -0.76,0.02z"/>
  <polygon class="fil0" points="44.85,26.98 44.79,27.02 "/>
  <path class="fil0" d="M66.03 39.05c-0.1,0.78 -0.07,1.58 -0.07,2.36 -0,0.78 -0.08,1.59 0.07,2.36 0.07,0.38 0.68,0.35 0.75,-0.02 0.13,-0.66 0.07,-1.36 0.06,-2.04 -0,-0.86 0.05,-1.74 -0.06,-2.59 -0.05,-0.39 -0.69,-0.54 -0.75,-0.08z"/>
  <path class="fil0" d="M72.32 46.3c0.27,-2.55 0.18,-5.38 -0.01,-7.93 -0.04,-0.49 -0.72,-0.46 -0.76,0.02 -0.19,2.56 -0.29,5.39 -0.01,7.94 0.05,0.51 0.73,0.47 0.78,-0.02z"/>
  <path class="fil0" d="M57.17 46.45l-0.01 -0.32c-0.11,-0.37 -0.63,-0.33 -0.73,0.02l-0 0.32c0.06,0.38 0.69,0.35 0.75,-0.02z"/>
  <path class="fil0" d="M58.55 46.57c0.17,-0.17 0.2,-0.42 0.06,-0.62 -0.1,-0.15 -0.29,-0.24 -0.46,-0.18 -0.14,0.05 -0.23,0.14 -0.27,0.28 -0.03,0.11 -0.04,0.21 0.01,0.37 0.09,0.29 0.46,0.37 0.67,0.16z"/>
  <path class="fil0" d="M60.21 46.15l0 -0.07c0,-0.48 -0.74,-0.46 -0.74,0.02l0 0.07c0,0.48 0.74,0.46 0.74,-0.02z"/>
  <path class="fil0" d="M61.71 46.29l-0.02 -0.34c-0.05,-0.12 -0.13,-0.22 -0.27,-0.26 -0.15,-0.04 -0.36,0.03 -0.42,0.18 -0.06,0.16 -0.08,0.26 -0.04,0.43 0.09,0.38 0.66,0.34 0.74,-0.02z"/>
  <path class="fil0" d="M62.47 45.98l0 0.11c0.01,0.48 0.74,0.46 0.74,-0.02l0 -0.11c0,-0.48 -0.75,-0.46 -0.75,0.02z"/>
  <path class="fil0" d="M56.36 47.74c0.04,0.51 0.73,0.47 0.77,-0.02l0.01 -0.07c0.04,-0.5 -0.83,-0.49 -0.78,0.02l0.01 0.07z"/>
  <path class="fil0" d="M57.88 47.9c0.15,0.26 0.54,0.23 0.68,-0.02 0.1,-0.19 0.1,-0.39 -0.02,-0.58 -0.16,-0.25 -0.51,-0.22 -0.66,0.02 -0.12,0.18 -0.1,0.39 0,0.57z"/>
  <path class="fil0" d="M59.36 47.56c0.03,0.31 0.32,0.46 0.59,0.32 0.2,-0.1 0.27,-0.36 0.19,-0.56 -0.12,-0.28 -0.56,-0.41 -0.71,-0.08l-0.07 0.31z"/>
  <path class="fil0" d="M60.94 47.66c0.11,0.38 0.64,0.34 0.74,-0.02l-0.01 -0.34c-0.15,-0.37 -0.6,-0.33 -0.73,0.02l0 0.34z"/>
  <path class="fil0" d="M62.5 47.49l0 0.05c0,0.48 0.75,0.46 0.75,-0.02l0 -0.05c0,-0.48 -0.75,-0.46 -0.75,0.02z"/>
  <path class="fil0" d="M62.78 49.33c0.3,0.07 0.5,-0.15 0.53,-0.43l-0.02 -0.21c-0.08,-0.41 -0.71,-0.36 -0.8,0.02l-0.02 0.1c-0.03,0.23 0.07,0.46 0.31,0.52z"/>
  <path class="fil0" d="M60.98 48.69c-0.08,0.18 -0.08,0.32 0.01,0.49 0.15,0.26 0.54,0.23 0.68,-0.02 0.1,-0.18 0.07,-0.32 -0.01,-0.49 -0.12,-0.27 -0.57,-0.24 -0.68,0.02z"/>
  <path class="fil0" d="M59.23 48.98c0.03,0.31 0.43,0.53 0.66,0.26 0.17,-0.2 0.17,-0.39 0.06,-0.62 -0.12,-0.26 -0.53,-0.21 -0.65,0.02l-0.08 0.35z"/>
  <path class="fil0" d="M57.86 48.86l0 0.32c0.13,0.38 0.63,0.34 0.75,-0.02l-0.01 -0.32c-0.15,-0.38 -0.6,-0.34 -0.74,0.02z"/>
  <path class="fil0" d="M56.36 49.23c0.1,0.39 0.68,0.35 0.77,-0.02l-0.01 -0.3c-0.14,-0.38 -0.63,-0.34 -0.76,0.02l0 0.3z"/>
  <path class="fil0" d="M19.35 60.68c0.89,0 1.79,0 2.67,-0.08 0.18,-0.01 0.3,-0.11 0.38,-0.23l0.07 -0.23c0.03,-0.27 -0.13,-0.55 -0.47,-0.51 -0.89,-0.08 -1.78,-0.07 -2.68,-0.08 -0.75,-0 -1.53,-0.08 -2.22,0.24 -0.25,0.12 -0.22,0.53 0.01,0.65 0.69,0.33 1.48,0.23 2.23,0.23z"/>
  <path class="fil0" d="M44.04 60.66c0.53,0 1.58,0.22 1.97,-0.23 0.17,-0.2 0.15,-0.44 -0.01,-0.64 -0.38,-0.44 -1.46,-0.22 -1.98,-0.22 -0.84,0.01 -1.72,-0.06 -2.54,0.15 -0.4,0.11 -0.36,0.68 0.02,0.78 0.82,0.22 1.71,0.14 2.55,0.15z"/>
  <path class="fil0" d="M16.09 62.46c2.39,0.26 5.07,0.28 7.46,0.03 0.53,-0.06 0.49,-0.76 -0.02,-0.82 -2.39,-0.25 -5.07,-0.23 -7.46,0.03 -0.5,0.05 -0.46,0.71 0.02,0.76z"/>
  <path class="fil0" d="M40.33 62.23c2.45,0.32 5.1,0.13 7.57,0 0.26,0.01 0.38,-0.19 0.37,-0.39 0.01,-0.21 -0.12,-0.42 -0.39,-0.41 -2.43,-0.12 -5.05,-0.33 -7.46,-0.01 -0.41,0.05 -0.58,0.73 -0.09,0.8z"/>
  <path class="fil0" d="M27.24 64.04c0,-0.2 -0.13,-0.41 -0.39,-0.4 -3.22,-0.13 -6.6,-0.3 -9.8,0.01 -0.5,0.05 -0.47,0.72 0.02,0.77 3.2,0.31 6.58,0.14 9.8,0.01 0.26,0.01 0.38,-0.19 0.37,-0.39z"/>
  <path class="fil0" d="M37.25 63.98c3.69,0.25 7.5,0.17 11.19,0.01 0.51,-0.02 0.48,-0.76 -0.02,-0.78 -3.69,-0.16 -7.5,-0.24 -11.19,0.01 -0.49,0.03 -0.46,0.72 0.02,0.75z"/>
  <path class="fil0" d="M40.59 66.3c6.1,0 12.29,0.34 18.38,-0.03 0.52,-0.03 0.49,-0.77 -0.02,-0.8 -6.09,-0.37 -12.28,-0.04 -18.38,-0.03 -6.43,0 -12.86,-0.04 -19.29,0.02 -0.53,0 -0.51,0.82 0.02,0.83 6.43,0.06 12.86,0.02 19.29,0.02z"/>
  <path class="fil0" d="M35.36 67.92c0.51,-0.02 0.49,-0.77 -0.02,-0.79 -3.78,-0.15 -7.66,-0.16 -11.44,0.02 -0.49,0.02 -0.46,0.73 0.02,0.75 3.77,0.18 7.66,0.17 11.44,0.02z"/>
  <path class="fil0" d="M52.77 67.13c-4.77,-0.3 -9.78,-0.23 -14.55,0.02 -0.49,0.03 -0.46,0.73 0.02,0.75 4.77,0.25 9.78,0.32 14.56,0.02 0.51,-0.03 0.48,-0.75 -0.02,-0.78z"/>
  <path class="fil0" d="M38.82 69.2c-2.64,-0.07 -5.32,-0.18 -7.95,0.02 -0.5,0.03 -0.46,0.72 0.02,0.76 2.63,0.19 5.31,0.09 7.95,0.02 0.51,-0.02 0.49,-0.78 -0.02,-0.79z"/>
  <path class="fil0" d="M33.63 70.86c-0.51,0.01 -0.49,0.78 0.02,0.79 1.67,0.03 3.34,0.07 5.02,0.01 0.52,-0.02 0.49,-0.78 -0.02,-0.8 -1.67,-0.06 -3.34,-0.02 -5.01,0.01z"/>
  <path class="fil0" d="M45.67 69.4c-0.5,0.05 -0.46,0.72 0.02,0.76 2.07,0.2 4.22,0.09 6.3,0 0.5,-0.02 0.47,-0.75 -0.02,-0.77 -2.08,-0.09 -4.23,-0.2 -6.3,0z"/>
  <path class="fil0" d="M50.2 70.73c-1.33,-0.1 -2.71,-0.09 -4.04,0 -0.52,0.03 -0.49,0.77 0.02,0.8 1.33,0.09 2.71,0.1 4.04,0 0.52,-0.04 0.49,-0.76 -0.02,-0.8z"/>
  <path class="fil0" d="M66.82 59.01c-0.96,-0.11 -2.02,-0.11 -2.98,-0.01 -0.51,0.05 -0.48,0.73 0.02,0.79 0.92,0.09 1.96,0.11 2.87,-0 0.4,-0.05 0.55,-0.71 0.09,-0.77z"/>
  <path class="fil0" d="M63.56 60.6c-0.35,-0.25 -0.88,-0.02 -0.87,0.45 0.01,0.47 0.51,0.64 0.86,0.42 0.57,-0.05 1.14,-0.01 1.72,-0.05 0.51,-0.04 0.48,-0.75 -0.02,-0.78 -0.56,-0.04 -1.12,-0 -1.68,-0.05z"/>
  <path class="fil0" d="M63.55 63.5c0.49,-0.03 0.47,-0.73 -0.02,-0.76 -0.67,-0.04 -1.35,-0.04 -2.02,-0 -0.5,0.03 -0.47,0.73 0.02,0.76 0.67,0.04 1.35,0.03 2.02,-0z"/>
  <path class="fil0" d="M49.98 63.31c-0.37,0.09 -0.33,0.64 0.02,0.72 0.73,0.17 1.51,0.05 2.24,0.03 0.51,-0.01 0.49,-0.78 -0.02,-0.79 -0.74,-0.02 -1.51,-0.14 -2.24,0.03z"/>
  <path class="fil0" d="M38.66 58.12c0.5,-0.02 0.48,-0.75 -0.02,-0.78 -1.44,-0.06 -2.97,-0.18 -4.4,0 -0.39,0.05 -0.54,0.7 -0.08,0.76 1.47,0.19 3.02,0.08 4.51,0.02z"/>
  <path class="fil0" d="M35.22 58.63c-1.17,-0.09 -2.37,-0.05 -3.55,0 -0.5,0.02 -0.47,0.74 0.02,0.76 1.17,0.05 2.38,0.09 3.55,0 0.5,-0.04 0.47,-0.73 -0.02,-0.77z"/>
  <path class="fil0" d="M57.74 58.61c0.51,-0.01 0.48,-0.77 -0.02,-0.78 -1.81,-0.04 -3.63,-0.09 -5.44,0.01 -0.5,0.03 -0.47,0.74 0.02,0.77 1.81,0.1 3.63,0.04 5.44,0z"/>
  <path class="fil0" d="M57.07 59.89c0.81,0.07 1.63,0.02 2.45,0 0.5,-0.01 0.47,-0.75 -0.02,-0.77 -0.82,-0.02 -1.63,-0.07 -2.45,0 -0.5,0.04 -0.47,0.72 0.02,0.77z"/>
  <path class="fil0" d="M26.04 57.6c-0.5,0.02 -0.47,0.75 0.02,0.77 0.8,0.03 1.59,0.04 2.39,-0 0.5,-0.02 0.47,-0.74 -0.02,-0.76 -0.8,-0.04 -1.59,-0.04 -2.38,-0z"/>
  <path class="fil0" d="M30.45 63.66c-0.49,0.02 -0.46,0.74 0.02,0.75 1.05,0.03 2.12,0.08 3.18,0.01 0.51,-0.03 0.47,-0.74 -0.02,-0.78 -1.06,-0.06 -2.12,-0.02 -3.18,0.01z"/>
  <path class="fil0" d="M24.17 6.61c5.18,-0.15 11.1,-1.06 15.81,-3.29 0.43,-0.2 0.1,-0.91 -0.34,-0.76 -2.53,0.87 -5.14,1.49 -7.77,1.97 -2.59,0.47 -5.27,0.64 -7.82,1.31 -0.43,0.11 -0.31,0.77 0.12,0.76z"/>
  <path class="fil0" d="M34.24 14.38c-3.49,0.54 -7.02,0.64 -10.53,0.21 -0.51,-0.06 -0.71,0.71 -0.19,0.78 3.63,0.47 7.26,0.54 10.86,-0.17 0.46,-0.09 0.34,-0.89 -0.13,-0.82z"/>
  <path class="fil0" d="M73.18 36.02l-0.01 0.31c-0.14,-0.04 -0.28,-0.07 -0.41,-0.11 -0.34,-0.1 -0.69,-0.21 -1.04,-0.27l-0.04 0 -0.06 -0.01c-1.44,0.04 -2.95,0.28 -4.37,0.53l-0.22 0.16 -0.09 0.16c-0.04,0.24 -0.05,0.47 -0.04,0.71l-0.12 0.06 -0.37 0.19c-0.35,0.27 -0.13,0.8 0.32,0.7 0.14,-0.03 0.28,-0.11 0.41,-0.18l0.36 -0.18 0.19 -0.25c0.03,-0.23 0.03,-0.44 0.02,-0.66 1.29,-0.08 2.62,-0.21 3.88,-0.46 0.29,0.11 0.6,0.18 0.9,0.28 0.31,0.09 0.75,0.3 1.07,0.28l0.13 -0.04 0.04 -0.02 0.04 -0.02 0.14 -0.17 0.03 -0.23c0,-0.17 -0,-0.33 -0.01,-0.5 0.32,-0.11 0.63,-0.25 0.95,-0.38 0.35,-0.14 0.75,-0.27 1.09,-0.46 0.6,0.1 1.24,0.06 1.84,0.08 0.54,0.01 1.09,0.03 1.63,0.03 0.21,1.67 0.31,3.38 0.3,5.11 -0.12,21.57 -17.76,39.11 -39.32,39.11l-0.22 -0c-10.5,-0.06 -20.36,-4.2 -27.74,-11.67 -7.39,-7.47 -11.42,-17.37 -11.36,-27.87 0.02,-3.16 0.41,-6.23 1.14,-9.17 4.12,-2.93 9.79,-3.96 14.63,-4.9 5.8,-1.13 11.67,-1.78 17.51,-2.67 4.89,-0.75 9.38,-2.53 14.13,-3.85 4,-1.12 8.01,-0.96 12.09,-1.39 3.52,-0.37 7.06,-1.28 10.38,-2.52 1.29,1.59 2.47,3.3 3.5,5.08 -5.95,-1.6 -12.68,-1.34 -18.61,-0.08 -0.49,0.1 -0.26,0.83 0.22,0.74 6.25,-1.09 12.98,-1.27 19.09,0.62 2.04,3.85 3.46,8.08 4.13,12.54 -0.45,-0.01 -0.91,-0.01 -1.37,-0.01 -0.69,-0 -1.44,-0.07 -2.12,0.06l-0.05 0c-0.42,0.09 -0.83,0.31 -1.22,0.48 -0.4,0.17 -0.82,0.33 -1.21,0.53 -0.15,0.08 -0.2,0.21 -0.18,0.35zm-68.7 -11.52c4.04,-2.08 8.06,-2.89 12.62,-3.14 0.53,-0.03 0.51,-0.8 -0.02,-0.82 -3.71,-0.14 -8.5,0.43 -11.9,2.47 0.44,-0.88 0.91,-1.74 1.41,-2.58 4.82,-2.65 9.84,-2.78 15.3,-2.47 5.3,0.3 10.39,0.23 15.6,-0.92 0.47,-0.1 0.34,-0.9 -0.13,-0.83 -5.56,0.82 -11.07,0.84 -16.67,0.6 -4.38,-0.19 -9.14,-0.09 -13.07,1.99 7.05,-10.65 19.14,-17.7 32.8,-17.7l0.22 0c5.88,0.03 11.45,1.36 16.45,3.71 -3.3,-0.1 -6.68,0.43 -9.79,1.39 -0.48,0.15 -0.25,0.81 0.22,0.73 3.96,-0.67 7.65,-1.21 11.66,-1.06 1.54,0.84 3.02,1.78 4.43,2.81 -2.47,1.97 -5.8,2.78 -8.83,3.38 -0.42,0.08 -0.3,0.77 0.12,0.74 3.09,-0.18 7.18,-1.24 9.41,-3.6 0.6,0.45 1.18,0.93 1.74,1.42 -4.55,3.51 -10.78,3.6 -16.24,4.53 -3.51,0.6 -6.96,1.75 -10.32,2.92 -3.94,1.37 -8.06,1.59 -12.14,2.3 -0.45,0.08 -0.33,0.87 0.13,0.8 3.9,-0.53 7.82,-0.78 11.59,-2 3.92,-1.28 7.78,-2.66 11.86,-3.31 5.2,-0.82 11.69,-0.89 15.78,-4.68 1.26,1.14 2.45,2.35 3.56,3.64 -3.28,1.18 -6.73,2 -10.19,2.37 -4.03,0.42 -7.93,0.3 -11.87,1.37 -2.97,0.81 -5.87,1.84 -8.81,2.74 -1.96,0.6 -4.06,0.85 -6.09,1.15 -5.89,0.86 -11.8,1.56 -17.64,2.73 -4.4,0.88 -9.29,1.91 -13.06,4.55 0.51,-1.8 1.15,-3.55 1.9,-5.23zm71.61 -3.14c-1.25,-2.33 -2.74,-4.55 -4.46,-6.63l-0.11 -0.13c-0.75,-0.9 -1.53,-1.76 -2.36,-2.6 -7.59,-7.68 -17.72,-11.94 -28.52,-12l-0.23 -0c-22.17,0 -40.3,18.04 -40.42,40.2 -0.06,10.8 4.09,20.97 11.68,28.65 7.59,7.68 17.72,11.94 28.52,12l0.23 0c10.75,0 20.87,-4.17 28.5,-11.76 7.63,-7.58 11.86,-17.69 11.92,-28.45 0.04,-6.79 -1.59,-13.33 -4.69,-19.16l-0.07 -0.13z"/>
 </g>
</svg>
