<?xml version="1.0" encoding="UTF-8"?>
<svg xmlns="http://www.w3.org/2000/svg" xml:space="preserve" width="0.747346in" height="0.747335in" version="1.1" style="shape-rendering:geometricPrecision; text-rendering:geometricPrecision; image-rendering:optimizeQuality; fill-rule:evenodd; clip-rule:evenodd"
viewBox="0 0 109.33 109.33"
 xmlns:xlink="http://www.w3.org/1999/xlink"
 xmlns:xodm="http://www.corel.com/coreldraw/odm/2003">
 <defs>
  <style type="text/css">
   <![CDATA[
    .fil0 {fill:black;fill-rule:nonzero}
   ]]>
  </style>
 </defs>
 <g id="Layer_x0020_1">
  <metadata id="CorelCorpID_0Corel-Layer"/>
  <path class="fil0" d="M26.65 75.26c-6.53,-1.85 -14.18,-0.62 -20.75,0.7 -1.94,-4.43 -3.26,-9.14 -3.92,-13.99 4.43,-2.02 9.31,-2.25 14.11,-2.3 0.7,-0.01 0.65,-1.02 -0.03,-1.07 -4.23,-0.3 -10.44,-0.33 -14.24,2.18 -0.13,-1.19 -0.23,-2.4 -0.29,-3.61 4.36,-0.98 8.55,-2.22 13.07,-2.11 4.44,0.1 8.63,2.19 13.06,2.17 0.65,-0 0.73,-0.95 0.12,-1.12 -4.25,-1.16 -8.81,-2.26 -13.22,-2.49 -4.38,-0.22 -8.9,1.09 -13.07,2.34 -0.01,-0.53 -0.02,-1.05 -0.02,-1.58 0.16,-29.16 24.01,-52.88 53.17,-52.88l0.3 0c29.32,0.16 53.04,24.15 52.88,53.47 -2.45,-0.64 -8.69,1.04 -9.59,1.23 -7.32,1.54 -14.78,4.43 -22.32,3.42 -0.67,-0.09 -0.94,0.86 -0.26,1.04 6.28,1.71 12.97,-0.76 19.1,-2.19 2.49,-0.58 4.99,-1.13 7.5,-1.59 1.24,-0.23 2.5,-0.42 3.76,-0.52 0.41,-0.03 0.82,-0.04 1.23,-0.03 0.26,0.01 0.65,0.28 0.43,0l0.12 0.12c-0.05,1.67 -0.19,3.33 -0.4,4.97 -7.24,-0.04 -13.67,4.28 -20.88,4.1 -0.68,-0.02 -0.63,0.98 0.02,1.04 3.09,0.28 6,-0.51 8.93,-1.42 3.93,-1.22 7.68,-2.16 11.76,-2.55 -0.26,1.7 -0.59,3.38 -1.01,5.02 -4.21,-0.75 -8.65,0.65 -12.67,1.73 -2.64,0.71 -5.02,1.11 -7.77,0.79 -2.8,-0.33 -5.54,-1.23 -8.37,-0.91 -0.68,0.07 -0.64,0.99 0.03,1.05 4.94,0.45 9.73,2.05 14.67,0.88 4.65,-1.1 9.01,-2.48 13.8,-2.36 -0.59,2.11 -1.3,4.18 -2.13,6.18 -1.41,-0.68 -3.24,-0.03 -4.69,0.38 -3.9,1.1 -7.85,1.91 -11.91,1.37 -3.48,-0.46 -6.54,-1.6 -10.11,-1.33 -1.19,0.09 -2.36,0.31 -3.52,0.57 0.63,-0.89 0.94,-2.1 1.18,-3.08 0.38,-1.58 0.37,-3.16 0.35,-4.77 -0.02,-1.86 0.09,-1.84 -1.05,-3.31 -0.41,-0.53 -1.29,-0.03 -0.91,0.56 1.5,2.31 1.43,8.17 -0.96,10.34 -0.01,-0.31 -0.04,-0.62 -0.06,-0.92 -0.01,-0.21 0.41,-0.58 0.54,-0.76 0.4,-0.6 0.44,-1.4 0.64,-2.07 0.19,-0.64 -0.8,-0.87 -1,-0.25 -0.22,0.68 -0.25,1.49 -0.74,2.04 -0.22,0.25 -0.54,0.38 -0.55,0.75 -0,0.63 0.02,1.27 0.1,1.9l0.05 0.17c-1.62,0.41 -3.24,0.8 -4.91,0.95 -0.67,0.06 -0.66,1.04 0.02,1.05 3.14,0.02 6.02,-1.16 9.1,-1.59 3.79,-0.54 6.97,0.21 10.65,0.97 2.6,0.53 5.29,0.48 7.9,0.04 1.74,-0.29 3.43,-0.69 5.11,-1.2 1.09,-0.33 3.06,-1.19 4.22,-0.58 -8.29,18.64 -26.99,31.69 -48.61,31.69l-0.3 -0c-14.2,-0.08 -27.53,-5.69 -37.51,-15.78 -4.36,-4.41 -7.86,-9.45 -10.41,-14.91 3.22,0.02 6.49,-0.86 9.68,-1.16 3.48,-0.33 6.93,0.26 10.4,0.45 0.7,0.04 0.76,-1 0.13,-1.17zm27.71 34.07l0.31 0c14.54,0 28.22,-5.65 38.53,-15.9 10.32,-10.26 16.04,-23.91 16.13,-38.46 0.16,-30.14 -24.22,-54.8 -54.36,-54.97l-0.31 0c-29.97,0 -54.49,24.39 -54.66,54.37 -0.08,14.6 5.53,28.36 15.8,38.74 10.27,10.38 23.96,16.14 38.56,16.22z"/>
  <path class="fil0" d="M16.72 85.76l2.68 -2.23 0.18 -0.33 -0.11 -0.37 -0.06 -0.07c-0.18,-0.21 -0.49,-0.23 -0.7,-0.06l-3.13 2.6c-0.21,0.17 -0.24,0.49 -0.06,0.7l1.17 1.41 0.34 0.17 0.05 0 0.32 -0.11 0.07 -0.06c0.21,-0.17 0.24,-0.49 0.06,-0.7l-0.8 -0.96z"/>
  <path class="fil0" d="M21.12 88.92l-0.31 -0.31 0.62 -0.31 -0.3 0.62zm1.89 -2.15l-0.07 -0.07c-0.15,-0.15 -0.38,-0.19 -0.57,-0.09l-3.77 1.91 -0.25 0.3 0.04 0.39 0.04 0.08c0.13,0.23 0.42,0.32 0.66,0.21l0.7 -0.36 0.82 0.81 -0.35 0.71c-0.12,0.24 -0.03,0.53 0.21,0.65l0.08 0.05 0.24 0.06 0.15 -0.02 0.29 -0.25 1.87 -3.79c0.09,-0.19 0.05,-0.42 -0.1,-0.57z"/>
  <path class="fil0" d="M25.68 91l-0.27 0.13 -0 0 -0.16 -0.02 -0.53 -0.44 0.45 -0.55 0.45 0.37 0.17 0.21 -0.1 0.3zm-1.12 1.69c-0.16,0.2 -0.3,0.22 -0.4,0.22l-0.08 -0.01 -0.34 -0.13 -0.45 -0.37 0.73 -0.9 0.5 0.4c0.28,0.34 0.23,0.54 0.04,0.78zm1.96 -1c0.44,-0.54 0.39,-1.03 0.27,-1.35 -0.1,-0.26 -0.26,-0.49 -0.5,-0.68l-0.9 -0.73c-0.21,-0.17 -0.53,-0.14 -0.7,0.08l-2.59 3.19 -0.11 0.36 0.18 0.33 0.9 0.73c0.23,0.19 0.52,0.31 0.86,0.37l0.25 0.02c0.33,0 0.81,-0.11 1.23,-0.62 0.32,-0.39 0.45,-0.79 0.41,-1.2 0.27,-0.08 0.51,-0.24 0.71,-0.49z"/>
  <path class="fil0" d="M29.4 93.95l-0.99 1.49 -0.37 0.25 -0.43 -0.09 -0.25 -0.36 0.09 -0.44 0.99 -1.49 0.36 -0.24 0.13 -0.01 0.31 0.1 0.25 0.36 -0.08 0.43zm1.14 -0.65c-0.09,-0.45 -0.33,-0.8 -0.71,-1.05 -0.38,-0.25 -0.8,-0.34 -1.25,-0.24 -0.44,0.09 -0.8,0.33 -1.05,0.71l-0.99 1.49c-0.25,0.38 -0.34,0.8 -0.24,1.24 0.09,0.44 0.33,0.81 0.71,1.06 0.28,0.19 0.59,0.28 0.9,0.28l0.34 -0.03c0.45,-0.09 0.8,-0.33 1.05,-0.71l0.99 -1.49c0.25,-0.37 0.33,-0.8 0.24,-1.25z"/>
  <path class="fil0" d="M33.35 96.24c-0.14,0.27 -0.28,0.32 -0.38,0.33l-0.45 -0.12 -0.46 -0.24 0.54 -1.02 0.46 0.25 0.34 0.31c0.05,0.09 0.09,0.24 -0.05,0.5zm0.22 -1.76l-0.98 -0.52 -0.38 -0.03 -0.29 0.24 -1.91 3.6c-0.13,0.24 -0.04,0.54 0.21,0.67l0.08 0.04 0.38 0.04 0.29 -0.24 0.59 -1.1 0.42 0.23 -0.05 1.66c-0.01,0.27 0.2,0.49 0.47,0.51l0.09 0.01 0.03 0 0.34 -0.13 0.16 -0.35 0.04 -1.43c0.39,-0.03 0.89,-0.22 1.26,-0.9 0.35,-0.66 0.23,-1.18 0.06,-1.51 -0.17,-0.32 -0.43,-0.57 -0.8,-0.76z"/>
  <path class="fil0" d="M41.82 99.59l-0.51 1.72 -0.28 0.35 -0.26 0.07 -0.17 -0.03 -0.35 -0.28 -0.04 -0.44 0.51 -1.72 0.28 -0.34 0.27 -0.07 0.18 0.03 0.34 0.28 0.04 0.44zm-0.08 -1.75c-0.43,-0.13 -0.87,-0.09 -1.27,0.13 -0.4,0.22 -0.67,0.55 -0.8,0.99l-0.52 1.71c-0.13,0.43 -0.08,0.87 0.13,1.26 0.22,0.4 0.55,0.67 0.99,0.8l0.49 0.07c0.27,0 0.53,-0.07 0.77,-0.2 0.4,-0.22 0.67,-0.55 0.8,-0.99l0.51 -1.71c0.13,-0.44 0.09,-0.86 -0.13,-1.26 -0.21,-0.4 -0.55,-0.68 -0.98,-0.8z"/>
  <path class="fil0" d="M47.36 99.19l-0.1 -0.02 -0.46 0.15 -1.12 1.25 -0.57 -1.59 -0.37 -0.32 -0.09 -0.02 -0.37 0.07 -0.21 0.32 -0.77 3.95c-0.05,0.27 0.12,0.53 0.39,0.58l0.09 0.02 0.37 -0.07 0.21 -0.32 0.4 -2.03 0.25 0.68 0.37 0.32 0.47 -0.15 0.49 -0.54 -0.4 2.03c-0.05,0.27 0.12,0.53 0.39,0.58l0.09 0.02 0.1 0.01 0.28 -0.08 0.21 -0.32 0.77 -3.95 -0.08 -0.37 -0.32 -0.21z"/>
  <path class="fil0" d="M51.53 99.67l-0.09 -0.01 -0.36 0.11 -0.18 0.34 -0.18 1.93 -1 -2.29 -0.41 -0.3 -0.1 -0.01c-0.28,-0.03 -0.51,0.18 -0.54,0.45l-0.38 4.01 0.11 0.36 0.34 0.18 0.09 0.01c0.27,0.04 0.51,-0.17 0.54,-0.45l0.18 -1.93 1 2.29 0.41 0.29 0.1 0.01 0.05 0 0.32 -0.11 0.18 -0.33 0.38 -4.01c0.03,-0.27 -0.17,-0.52 -0.45,-0.54z"/>
  <path class="fil0" d="M55.12 99.91l-0.35 -0.14 -0.09 0c-0.27,0.01 -0.5,0.23 -0.49,0.5l0.04 4.03 0.15 0.35 0.35 0.14 0.1 0c0.27,-0 0.5,-0.23 0.49,-0.5l-0.04 -4.03 -0.15 -0.35z"/>
  <path class="fil0" d="M59.24 102.42l0.15 -0.68 0.28 0.63 -0.43 0.04zm0.49 -2.58c-0.09,-0.19 -0.29,-0.31 -0.5,-0.29l-0.09 0.01c-0.21,0.02 -0.39,0.18 -0.43,0.38l-0.93 4.12 0.07 0.38 0.32 0.21 0.09 0.02 0.09 0.01c0.23,0 0.43,-0.16 0.49,-0.38l0.17 -0.77 1.15 -0.12 0.32 0.72c0.11,0.24 0.39,0.35 0.64,0.26l0.08 -0.03 0.28 -0.28 -0.01 -0.39 -1.73 -3.86z"/>
  <path class="fil0" d="M69.29 97.43l-0.09 -0 -0.36 0.13 -0.16 0.35 -0.07 2.62 -1.51 -2.14 -0.33 -0.2 -0.37 0.09 -0.07 0.05c-0.22,0.16 -0.26,0.46 -0.11,0.69l2.44 3.45 0.4 0.21 0.14 -0.02 0.09 -0.03c0.21,-0.06 0.35,-0.25 0.35,-0.46l0.12 -4.23c0.01,-0.27 -0.2,-0.5 -0.47,-0.51z"/>
  <path class="fil0" d="M72.64 96.6c-0.1,-0.25 -0.39,-0.37 -0.65,-0.27l-0.08 0.03 -0.27 0.27 0 0.38 1.54 3.72c0.08,0.19 0.26,0.31 0.46,0.31l0.19 -0.04 0.08 -0.03 0.27 -0.27 0 -0.38 -1.54 -3.72z"/>
  <path class="fil0" d="M77.62 94.13l-0.29 -0.24 -0.38 0.04 -0.08 0.04c-0.24,0.13 -0.33,0.43 -0.2,0.67l0.91 1.71 -2.1 -1.35 -0.5 -0.02 -0.09 0.04c-0.24,0.13 -0.33,0.43 -0.2,0.67l1.9 3.55 0.44 0.26 0.23 -0.06 0.08 -0.04 0.25 -0.29 -0.04 -0.38 -0.92 -1.71 2.1 1.35 0.5 0.02 0.09 -0.04c0.24,-0.13 0.33,-0.43 0.2,-0.67l-1.9 -3.55z"/>
  <path class="fil0" d="M83.34 95.16c-0.15,-0.23 -0.46,-0.28 -0.69,-0.14l-0.56 0.37 -0.44 0.13c-0.05,-0.01 -0.19,-0.03 -0.36,-0.29l-1 -1.49c-0.17,-0.26 -0.14,-0.4 -0.13,-0.45 0.01,-0.05 0.04,-0.19 0.29,-0.36l0.56 -0.37c0.23,-0.15 0.29,-0.46 0.14,-0.69l-0.05 -0.08 -0.32 -0.21 -0.37 0.07 -0.56 0.37c-0.42,0.28 -0.67,0.63 -0.75,1.05 -0.08,0.41 0.02,0.84 0.29,1.25l0.99 1.49c0.28,0.42 0.63,0.67 1.04,0.75l0.28 0.03c0.32,0 0.65,-0.11 0.97,-0.32l0.56 -0.37 0.21 -0.32 -0.07 -0.37 -0.05 -0.07z"/>
  <path class="fil0" d="M83.98 89.62l-0.33 -0.18 -0.36 0.11 -0.07 0.05c-0.21,0.18 -0.24,0.49 -0.07,0.7l2.55 3.12 0.34 0.18 0.05 0.01 0.31 -0.11 0.07 -0.06c0.21,-0.18 0.24,-0.48 0.07,-0.7l-2.55 -3.12z"/>
  <path class="fil0" d="M85.69 88.09l0.06 0.07 0.35 0.15 0.35 -0.14 0.41 -0.41 2.46 2.47 0.35 0.14 0.35 -0.14 0.07 -0.06 0.15 -0.36 -0.14 -0.35 -2.46 -2.47 0.41 -0.41c0.19,-0.19 0.2,-0.51 0.01,-0.7l-0.06 -0.06 -0.36 -0.15 -0.35 0.14 -1.59 1.58c-0.19,0.19 -0.2,0.51 -0,0.7z"/>
  <path class="fil0" d="M27.39 22.63l-1.64 -2.03c-0.19,-0.24 -0.27,-0.49 -0.23,-0.78 0.03,-0.3 0.16,-0.53 0.39,-0.72 0.2,-0.16 0.41,-0.24 0.65,-0.24l0.14 0.01c0.3,0.03 0.52,0.15 0.72,0.39l1.65 2.03c0.19,0.23 0.27,0.49 0.24,0.79 -0.03,0.29 -0.15,0.53 -0.39,0.72 -0.24,0.19 -0.49,0.27 -0.79,0.24 -0.3,-0.03 -0.53,-0.16 -0.72,-0.4zm2.21 1.03c0.47,-0.38 0.74,-0.87 0.8,-1.47 0.06,-0.6 -0.1,-1.14 -0.48,-1.61l-1.64 -2.03c-0.38,-0.47 -0.88,-0.74 -1.48,-0.8 -0.6,-0.07 -1.14,0.1 -1.61,0.48 -0.47,0.38 -0.74,0.88 -0.8,1.48 -0.07,0.6 0.1,1.14 0.48,1.61l1.65 2.03c0.38,0.47 0.87,0.74 1.47,0.8l0.24 0.01c0.5,0 0.96,-0.17 1.37,-0.5z"/>
  <path class="fil0" d="M34.07 19.81l0.44 0.27 0.23 -0.06 0.11 -0.06 0.24 -0.29 -0.03 -0.38 -0.96 -1.84 0.22 -0.85 2.82 1.89c0.22,0.15 0.53,0.09 0.68,-0.13l0.08 -0.11 0.08 -0.38 -0.21 -0.32 -3.15 -2.11 0.65 -2.49c0.07,-0.26 -0.09,-0.53 -0.35,-0.6l-0.12 -0.04 -0.38 0.05 -0.23 0.3 -0.87 3.29 -0.99 -1.9 -0.29 -0.24 -0.38 0.04 -0.11 0.06c-0.24,0.13 -0.34,0.43 -0.21,0.67l2.72 5.21z"/>
  <path class="fil0" d="M41.76 16.36c0.06,0.22 0.26,0.36 0.48,0.36l0.14 -0.02 2.57 -0.73c0.26,-0.08 0.42,-0.35 0.34,-0.61l-0.03 -0.12 -0.24 -0.3 -0.38 -0.04 -1.97 0.57 -1.47 -5.11 -0.24 -0.3 -0.38 -0.04 -0.12 0.04c-0.26,0.08 -0.42,0.35 -0.34,0.61l1.64 5.71z"/>
  <path class="fil0" d="M51.17 10.26l0.78 1.86 -1.27 0.1 0.49 -1.95zm-1.8 4.72l0.13 0.02 0.1 0.01c0.22,0 0.43,-0.15 0.48,-0.37l0.32 -1.27 2.01 -0.16 0.51 1.21c0.1,0.25 0.38,0.36 0.63,0.27l0.12 -0.04 0.28 -0.27 0 -0.39 -2.41 -5.69c-0.08,-0.2 -0.28,-0.32 -0.49,-0.3l-0.14 0.01c-0.21,0.02 -0.39,0.17 -0.44,0.38l-1.48 5.99 0.06 0.38 0.32 0.22z"/>
  <path class="fil0" d="M57.82 14.8l0.13 0.01c0.27,0.03 0.52,-0.16 0.55,-0.43l0.32 -2.69 2.13 0.25 -0.32 2.69c-0.03,0.27 0.16,0.52 0.43,0.55l0.13 0.01 0.06 0.01 0.3 -0.11 0.19 -0.33 0.7 -5.84 -0.1 -0.37 -0.33 -0.18 -0.13 -0.02c-0.27,-0.03 -0.52,0.16 -0.55,0.44l-0.25 2.04 -2.13 -0.26 0.25 -2.04 -0.1 -0.37 -0.33 -0.19 -0.13 -0.02c-0.27,-0.03 -0.52,0.17 -0.55,0.44l-0.7 5.84 0.1 0.37 0.33 0.18z"/>
  <path class="fil0" d="M66.97 14.39l0.82 -2.48c0.1,-0.29 0.27,-0.48 0.54,-0.62l0.47 -0.11 0.35 0.06c0.29,0.1 0.49,0.27 0.62,0.54 0.14,0.26 0.15,0.52 0.06,0.81l-0.82 2.48c-0.1,0.29 -0.27,0.49 -0.54,0.62 -0.27,0.14 -0.53,0.15 -0.82,0.06 -0.29,-0.1 -0.49,-0.27 -0.62,-0.54 -0.14,-0.27 -0.15,-0.54 -0.06,-0.82zm0.33 2.42c0.24,0.08 0.47,0.12 0.71,0.12 0.33,0 0.66,-0.08 0.97,-0.24 0.54,-0.27 0.91,-0.69 1.1,-1.27l0.82 -2.48c0.19,-0.58 0.15,-1.14 -0.12,-1.68 -0.27,-0.54 -0.7,-0.91 -1.27,-1.1 -0.57,-0.19 -1.14,-0.15 -1.68,0.12 -0.54,0.27 -0.91,0.7 -1.1,1.27l-0.83 2.48c-0.19,0.58 -0.15,1.14 0.12,1.67 0.27,0.54 0.69,0.91 1.27,1.1z"/>
  <path class="fil0" d="M72.84 19.01l0.11 0.06 0.38 0.05 0.3 -0.23 1.92 -3.34 0.03 1.89 0.25 0.42 0.49 0 1.65 -0.92 -1.92 3.34c-0.14,0.24 -0.05,0.54 0.18,0.68l0.11 0.07 0.25 0.07 0.13 -0.02 0.3 -0.23 2.93 -5.1c0.14,-0.24 0.05,-0.54 -0.18,-0.68l-0.12 -0.07 -0.49 -0 -2.47 1.38 -0.05 -2.84 -0.25 -0.42 -0.12 -0.07 -0.38 -0.05 -0.3 0.23 -2.93 5.1c-0.14,0.24 -0.05,0.54 0.18,0.68z"/>
  <path class="fil0" d="M84.12 21.22l-0.78 1.85 -0.96 -0.84 1.74 -1.01zm-4.7 1.61l0.07 0.38 0.07 0.11c0.14,0.22 0.44,0.3 0.67,0.16l1.14 -0.66 1.52 1.34 -0.51 1.21c-0.1,0.25 0.01,0.53 0.25,0.64l0.12 0.05 0.21 0.04 0.18 -0.03 0.28 -0.27 2.4 -5.69c0.08,-0.2 0.03,-0.43 -0.13,-0.57l-0.11 -0.09c-0.16,-0.14 -0.39,-0.16 -0.58,-0.06l-5.33 3.11 -0.23 0.31z"/>
  <path class="fil0" d="M30.27 73.24c-1.26,0.67 -0.96,2.06 -0.47,3.24l0.28 0.29c0.09,0.19 0.28,0.31 0.54,0.2 0.72,-0.3 1.21,-0.89 1.68,-1.49 0.35,-0.46 1.01,-1.04 1.03,-1.67 0.95,-1.35 1.12,-3.54 1.21,-5.11 0.03,-0.58 -0.89,-0.67 -1,-0.11 -0.33,1.66 -0.6,3.22 -1.2,4.8l-0.02 0.02c-0.12,0.2 -0.12,0.31 -0.21,0.44 -0.21,0.28 -0.4,0.58 -0.6,0.86 -0.26,0.36 -0.55,0.68 -0.86,0.98 -0.3,-0.81 -0.28,-1.27 0.57,-1.78 0.55,-0.32 0.87,-0.91 1.17,-1.44 0.9,-1.64 0.55,-4.05 0.59,-5.84 0.01,-0.65 -0.98,-0.62 -1.01,0.03 -0.1,2.04 0.48,5.43 -1.69,6.57z"/>
  <path class="fil0" d="M44.26 58.44c-2.06,1.68 -3.82,3.72 -6.15,5.07 -1.54,0.89 -3.28,1.56 -4.15,3.22 -0.33,0.63 0.6,1.13 0.96,0.53 1.01,-1.68 3.06,-2.31 4.64,-3.31 1.93,-1.22 3.81,-3.02 5.34,-4.7 0.38,-0.42 -0.18,-1.18 -0.65,-0.8z"/>
  <path class="fil0" d="M57.69 61.74c-1.92,0.01 -3.41,-0.66 -4.96,-1.7 -2.01,-1.35 -3.76,-2.18 -6.22,-2.01 -0.55,0.04 -0.71,0.93 -0.11,1.01 2.85,0.35 4.6,1.44 6.93,3.04 2.06,1.42 4.91,1.5 7.35,1.2 0.09,0.75 0.15,1.5 0.14,2.26 -0.07,3.79 -1.67,7.25 -0.64,10.96 0.2,0.73 1.21,0.37 1.1,-0.33 -0.09,-0.55 -0.24,-0.94 -0.45,-1.45 -0.37,-0.88 0.3,-3.2 0.45,-4.2 0.24,-1.68 0.57,-3.31 0.66,-5.01 0.13,-2.53 -0.77,-4.94 -0.59,-7.47 0.05,-0.67 -0.96,-0.62 -1.02,0.03 -0.13,1.27 0.01,2.52 0.17,3.77 -0.92,-0.15 -1.83,-0.11 -2.8,-0.1z"/>
  <path class="fil0" d="M84.51 51.8c-0.18,0.41 -0.21,0.53 -0.58,0.41 -0.76,-0.25 -1.28,-0.61 -1.77,-1.11 0.81,-0.33 1.75,-0.46 2.59,-0.35 0.12,0.36 -0.08,0.69 -0.24,1.05zm-24.73 -6.84l-0.02 -0.47c0.02,-0.41 0.06,-0.81 0.1,-1.22 0.22,0 0.43,0 0.64,0.01l0.04 -0c0.39,0.04 0.79,-0.05 1.11,-0.27 0.79,0.48 1.58,1.01 2.38,1.56 -1.37,0.31 -2.78,0.46 -4.25,0.39zm0.32 -4.02c0.32,0.14 0.6,0.36 0.85,0.68l0.1 0.1 0.08 0.32c-0.11,0.14 -0.31,0.22 -0.49,0.21l-0.03 -0.02c-0.23,-0.06 -0.46,-0.11 -0.7,-0.15 0.04,-0.38 0.1,-0.76 0.18,-1.14zm22.53 -1.71l-0.01 0.05 0.01 -0.05zm2.77 10.56l-0.36 -0.06c-0.41,-0.07 -0.85,-0.09 -1.3,-0.06 -0.27,-0.87 -0.64,-1.77 -1.07,-2.56 -0.27,-0.51 -1.11,-0.13 -0.92,0.41 0.27,0.78 0.55,1.58 0.88,2.34 -0.46,0.12 -0.91,0.3 -1.31,0.51l-0.01 0c-1.76,0.04 -3.49,-0.17 -5.18,-0.59 0.43,-0.57 0.85,-1.15 1.24,-1.75 0.7,0.76 1.75,1.32 2.62,1.88 0.39,0.25 0.93,-0.19 0.77,-0.62 -0.3,-0.79 -1.06,-1.25 -1.75,-1.65 -0.88,-0.52 -1.16,-1.02 -1.3,-2.03 -0.07,-0.56 -0.88,-0.72 -1.03,-0.11 -0.15,0.61 -0.1,1.14 0.08,1.6 -0.59,0.78 -1.13,1.61 -1.7,2.4 -1.25,-0.37 -2.47,-0.84 -3.66,-1.39 -1.67,-0.77 -3.16,-1.84 -4.63,-2.94 0.7,-0.26 1.39,-0.55 2.08,-0.85 1.84,-0.82 3.61,-1.8 5.47,-2.6 1.9,-0.82 3.57,-0.87 5.52,-0.94 0.31,1.04 0.39,2.14 0.69,3.18 0.16,0.55 1.02,0.42 0.99,-0.16 -0.06,-1.06 -0.34,-2.23 -0.68,-3.25l0.04 -0.06c0.4,-0.11 0.77,-0.3 1.14,-0.49l0.48 -0.22c-0.2,0.51 -0.49,0.99 -0.6,1.53l0.02 0.25c-0.11,1.18 0.3,1.99 0.89,3.05 0.39,0.72 0.47,1.6 0.67,2.39 0.19,0.77 0.58,1.52 0.92,2.24 0.25,0.53 1.11,0.13 0.93,-0.42 -0.43,-1.3 -0.82,-2.57 -1.2,-3.9 -0.34,-1.2 -1.21,-1.98 -1.19,-3.26 0.25,-0.36 0.39,-0.81 0.54,-1.21 0.15,-0.41 0.35,-0.89 0.32,-1.34 -0.06,-0.95 -1.05,-0.69 -1.95,-0.29 0.07,-0.47 -0.49,-0.91 -0.87,-0.48 -0.42,0.47 -0.84,0.9 -1.37,1.23 -3.07,-0.12 -5.6,0.89 -8.43,2.27 -1.94,0.94 -3.8,1.78 -5.69,2.35 -1.05,-0.77 -2.11,-1.5 -3.26,-2.11 0.03,-0.34 -0.08,-0.68 -0.32,-0.96 -0.4,-1.29 -1.97,-1.5 -3.13,-1.62 -0.26,-0.03 -0.51,-0.04 -0.75,-0.06l-0.04 -0.08c-0.52,-0.96 -0.74,-1.89 -0.96,-2.95 -0.13,-0.61 -1.02,-0.4 -1.04,0.17 -0.03,0.81 0.13,1.7 0.44,2.49l-0.39 -0.26c-0.81,-0.67 -1.15,-1.87 -1.79,-2.7 -0.4,-0.52 -1.19,-0.05 -0.88,0.54 0.78,1.49 1.3,3.05 2.97,3.72 0.85,0.34 1.84,0.22 2.75,0.31 -0.12,0.42 -0.21,0.86 -0.25,1.3 -0.66,-0.02 -1.33,0.02 -1.98,0.04 -0.71,0.03 -1.43,0.09 -2.13,-0.02 -0.74,-0.1 -1.21,-0.81 -1.63,-1.35 -0.4,-0.51 -1.24,-0.03 -0.88,0.54 0.68,1.06 1.27,1.86 2.58,2.03 1.3,0.18 2.68,0.09 4.04,0.05 -0.06,0.41 -0.12,0.82 -0.16,1.24l-0.03 0.35c-0.46,-0.06 -0.92,-0.12 -1.4,-0.22l-0.03 0 -0.09 -0c-0.26,-0 -0.44,0.17 -0.49,0.38l-0.02 0.27c0.43,2.17 1.16,4.23 1.81,6.33 0.37,1.19 -0.1,1.55 -0.76,2.79 -0.97,1.81 -2.65,4.85 -1.16,6.8 0.41,0.54 1.2,0.06 0.89,-0.55 -1.19,-2.39 1.3,-5.54 2.38,-7.6 0.34,-0.64 0.05,-1.13 -0.15,-1.8 -0.54,-1.78 -1.13,-3.55 -1.7,-5.32 0.27,0.08 0.55,0.14 0.82,0.2l0.15 0.28c0.29,0.38 0.83,0.29 0.97,-0.12 1.91,0.17 3.81,-0.14 5.66,-0.7 2.73,1.92 5.55,3.94 8.59,5.11l-0.18 0.21c-0.86,0.9 -2,1.53 -2.36,2.79l-0.01 0.14c-0.3,1 -0.47,2.03 -0.79,3.03 -0.34,1.06 -0.84,2.05 -1.33,3.05l-0.04 0.43c-0.01,0.62 0.56,1.31 0.9,1.73 0.58,0.75 1.22,1.49 1.93,2.13 0.43,0.39 1.18,-0.16 0.81,-0.65 -0.43,-0.58 -0.93,-1.09 -1.41,-1.63 -0.28,-0.31 -0.54,-0.63 -0.79,-0.95l-0.37 -0.54c1.04,-1.94 2.02,-4.22 2.13,-6.44l0.02 -0.04c0.41,-1.21 1.71,-1.89 2.5,-2.84l0.04 -0.06c1.89,0.59 3.87,0.83 5.97,0.48 0.71,1.1 2.17,2.15 3.47,1.94 0.66,-0.11 1.05,-1.08 1.25,-1.61 0.28,-0.74 0.39,-1.64 -0.4,-2.08z"/>
  <path class="fil0" d="M56.21 29.68c0.01,0.48 0,0.96 -0.13,1.43 -0.14,0.51 -0.52,0.91 -0.91,1.28 -0.87,-0.75 -1.58,-1.22 -1.49,-2.54 0.83,-0.17 1.69,-0.23 2.53,-0.17zm-6.61 16.29c0.41,1.5 2.41,1.79 3.46,2.6 0.46,0.98 0.96,1.94 1.42,2.92 0.54,1.16 0.6,0.74 0.32,1.59 -0.59,1.82 -1.57,4.15 -1.32,6.09 0.07,0.58 0.94,0.76 1.08,0.12 0.47,-2.17 0.88,-4.29 1.58,-6.41 0.41,-1.25 -1.49,-3.93 -2.19,-4.91l-0.02 -0.04c-0.53,-0.71 -1.4,-0.99 -2.15,-1.4 -1.84,-1.02 -0.3,-3.17 -1.23,-4.63 -0.89,-1.42 0.29,-3.59 0.69,-5.12 0.39,-1.49 0.73,-3.49 2.11,-4.39l0.1 0.12c0.35,0.38 0.78,0.68 1.16,1.03 0.53,0.49 0.69,1.02 0.89,1.68 0.15,0.5 0.99,0.54 1.07,-0.03 0.11,-0.8 -0.18,-1.49 -0.66,-2.07 1,-0.88 1.39,-2 1.34,-3.32 0.49,0.09 0.97,0.21 1.43,0.39 0.76,0.29 1.07,-0.96 0.31,-1.23 -0.51,-0.18 -1.05,-0.31 -1.6,-0.38 -0.07,-0.6 -0.34,-1.27 -0.75,-1.6 -0.45,-0.37 -1.19,0.14 -0.82,0.67 0.18,0.27 0.28,0.55 0.35,0.83 -0.73,-0.01 -1.46,0.05 -2.18,0.19 0.04,-0.25 0.06,-0.5 0.07,-0.74 0.36,-0.18 0.72,-0.37 1.09,-0.55 0.52,-0.26 0.12,-1.09 -0.41,-0.92 -0.5,0.17 -1.01,0.42 -1.44,0.72l-0.08 0.08 -0.1 0.14 -0.02 0.04 -0.03 0.13 -0.01 0.06c-0.01,0.46 -0.04,0.97 -0.33,1.35 -0.59,0.19 -1.15,0.42 -1.67,0.69 -0.58,0.31 -0.04,1.13 0.53,0.85 0.31,-0.15 0.64,-0.27 0.97,-0.38 -0.03,0.43 0.03,0.83 0.16,1.2 -1.11,0.61 -1.6,1.73 -2.03,2.94 -0.37,1.04 -0.56,2.14 -0.83,3.21 -0.23,0.93 -0.84,1.82 -0.92,2.77 -0.07,0.73 0.03,1.12 0.4,1.75 0.78,1.34 -0.1,2.62 0.26,3.95z"/>
  <path class="fil0" d="M38.43 45.49c-0.54,0.17 -1.04,0.49 -1.46,0.89 -0.36,0.26 -0.72,0.54 -1.05,0.83l-0.24 0.2c-4.29,3.91 -6.2,10.35 -6.35,15.95 -0.02,0.74 1.09,0.69 1.13,-0.03 0.02,-0.31 0.04,-0.63 0.07,-0.94 0.37,0.21 0.93,-0.07 0.79,-0.6 -0.12,-0.44 -0.15,-0.87 -0.14,-1.3 0.34,0.52 1.14,0.06 1,-0.53 -0.1,-0.45 -0.15,-0.9 -0.17,-1.35l0.06 0.28c0.16,0.64 1.13,0.46 1.13,-0.18 -0,-0.62 0.01,-1.23 0.02,-1.85 0.34,0.22 0.89,0.03 0.88,-0.46 -0.02,-0.7 -0.07,-1.38 -0.11,-2.07l0.07 0.14c0.18,0.32 0.54,0.32 0.79,0.15 0.01,0.9 0.1,1.81 0.27,2.74 0.37,2.01 0.13,3.03 -1.2,4.55 -0.85,0.96 -1.64,1.68 -1.84,2.97 -0.12,0.72 0.99,1 1.11,0.28 0.37,-2.31 3.43,-3.12 3.56,-5.58 0.07,-1.38 -0.38,-2.66 -0.59,-4.02 -0.36,-2.3 0.13,-4.55 1.22,-6.58l0.06 -0.25c0.2,-0.37 0.33,-0.75 0.59,-1.1 0.32,-0.42 0.72,-0.77 1.12,-1.11 0.28,-0.24 0.13,-0.63 -0.14,-0.78 -0.11,-0.18 -0.32,-0.3 -0.56,-0.22z"/>
  <path class="fil0" d="M40.25 45.15c-0.56,0.11 -0.41,1.07 0.16,0.99 2.73,-0.39 5.25,0.45 7.94,0.54 0.63,0.02 0.67,-0.88 0.12,-1.05 -2.53,-0.78 -5.62,-0.99 -8.21,-0.49z"/>
  <path class="fil0" d="M81.49 45c0.01,0.22 0.09,0.37 0.24,0.52 0.43,0.44 1.06,-0.18 0.75,-0.65 -0.12,-0.54 -1.01,-0.49 -0.99,0.13z"/>
  <path class="fil0" d="M71.82 65.41c-0.73,-0.55 -1.68,-0.72 -2.5,-1.07 -1.05,-0.46 -1.83,-1.49 -2.78,-2.14 0.58,-1.6 0.9,-3.24 0.64,-4.94 -0.1,-0.63 -1.09,-0.65 -1.03,0.03 0.36,4.08 -1.87,7.61 -3.52,11.18 -1.07,2.3 -1.94,5.1 -0.85,7.53l0.16 0.21c0.15,0.26 0.31,0.51 0.48,0.75 -0.35,-0.01 -0.7,-0.02 -0.98,0.16l-0.29 0.02c-0.67,0.04 -0.63,0.99 0.02,1.03l0.25 0.01c0.31,0.2 0.71,0.16 1.08,0.16 0.35,0 0.7,-0.02 1.04,-0.08 0.4,0.05 0.84,-0.35 0.68,-0.78 -0.25,-0.69 -0.86,-1.26 -1.37,-1.81 -1.56,-4.3 1.52,-8.29 3.29,-12.47 1.09,0.91 2.08,1.9 3.43,2.44 2.11,0.84 3.1,2.1 3.07,4.43 -0.01,0.56 0.93,0.68 1,0.11 0.2,-1.8 -0.36,-3.63 -1.82,-4.76z"/>
  <path class="fil0" d="M44.79 78.11c2.53,-0.54 4.82,-1 7.43,-0.94 2.16,0.05 4.19,0.9 6.31,0.87 0.64,-0.01 0.68,-0.88 0.12,-1.07 -3.53,-1.2 -7.57,-1.59 -11.24,-0.86 -1.12,0.22 -2.17,0.48 -3.22,0.67 -0.08,-0.31 -0.27,-0.61 -0.51,-0.8 -0.2,-0.16 -0.4,-0.26 -0.64,-0.34l-0.09 -0.02c-0.28,-1.47 -0.87,-2.82 -1.38,-4.23 -1.06,-2.88 -0.28,-5.21 1.03,-7.87 0.3,-0.61 -0.54,-1.06 -0.91,-0.5 -1.2,1.83 -1.9,3.86 -1.87,6.06 0.04,2.44 1.61,4.63 1.93,7.03 0.05,0.39 0.38,0.59 0.69,0.6l0.04 0.02 0.22 0.2 0.05 0.07c-0.38,0.04 -0.76,0.05 -1.15,0.05 -0.54,-1.88 -0.95,-3.73 -1.7,-5.59 -0.27,-0.66 -1.62,-2.28 -1.52,-2.95 0.12,-0.82 0.22,-1.63 0.27,-2.46 0.03,-0.59 -0.95,-0.7 -1.04,-0.12 -0.25,1.71 -0.52,2.58 0.24,4.12 1.13,2.3 1.8,4.52 2.46,6.92l-0.43 -0.05c-2.06,-0.32 -3.99,-0.97 -6.1,-0.79 -0.57,0.05 -0.75,0.99 -0.12,1.06 3.8,0.45 7.3,1.73 11.14,0.92z"/>
  <path class="fil0" d="M42.32 69.58c2.09,1.19 4.34,1.3 6.67,0.92 3.1,-0.51 5.93,-1.43 9.12,-1.53 0.73,-0.02 0.66,-1.03 -0.03,-1.09 -2.45,-0.24 -4.78,0.24 -7.14,0.85 -2.99,0.77 -5.27,0.78 -8.23,-0.13 -0.59,-0.18 -0.9,0.69 -0.39,0.98z"/>
  <path class="fil0" d="M28.95 65.53c-6.49,-2.15 -13.37,-1.93 -19.79,0.26 -0.63,0.21 -0.34,1.17 0.3,0.99 6.55,-1.91 12.6,-1.79 19.24,-0.21 0.68,0.16 0.9,-0.82 0.26,-1.03z"/>
  <path class="fil0" d="M72.16 92.23l-0.15 -0.14c0.18,-0.59 0.32,-1.3 0.75,-1.57 0.5,-0.31 1.31,-0.35 1.76,0.05 1.03,0.95 -1.82,2.35 -2.36,1.66zm0.76 -3.05c-1.39,0.3 -1.95,1.78 -2.11,3.07 -0.04,0.3 0.15,0.54 0.37,0.63 0.72,0.84 1.97,0.64 2.91,0.29 1.13,-0.43 2.04,-1.37 1.73,-2.63 -0.32,-1.3 -1.78,-1.59 -2.9,-1.35z"/>
  <path class="fil0" d="M77.79 90.18c0.28,0.03 0.54,-0.02 0.81,-0.09 0.54,-0.13 0.49,-0.94 -0.03,-1.06 -0.27,-0.06 -0.53,-0.11 -0.81,-0.09 -0.33,0.04 -0.61,0.28 -0.6,0.63 0.01,0.37 0.29,0.57 0.63,0.6z"/>
  <path class="fil0" d="M76.8 87.01c0.76,0 0.73,-1.17 -0.03,-1.17 -0.76,0 -0.73,1.17 0.03,1.17z"/>
  <path class="fil0" d="M66.84 93.55c0.03,0.23 0.16,0.43 0.4,0.49 0.2,0.05 0.46,-0.04 0.57,-0.23 0.35,-0.17 0.31,-0.76 -0.03,-0.91 -0.48,-0.22 -1.01,0.08 -0.94,0.64z"/>
  <path class="fil0" d="M69.52 91.92c0.7,0 0.67,-1.08 -0.03,-1.08 -0.7,0 -0.67,1.08 0.03,1.08z"/>
  <path class="fil0" d="M69.48 93.57l0 0.28 0 0.03c0.02,0.67 1,0.64 1.04,-0.01l-0 -0.32c-0.19,-0.53 -0.85,-0.47 -1.04,0.02z"/>
  <path class="fil0" d="M50.81 95.94c-0.73,0 -0.7,1.13 0.03,1.13 0.73,0 0.7,-1.13 -0.03,-1.13z"/>
  <path class="fil0" d="M53.32 95.39c0.69,0 0.66,-1.07 -0.03,-1.07 -0.69,0 -0.66,1.07 0.03,1.07z"/>
  <path class="fil0" d="M53.29 95.95c-0.72,0 -0.69,1.11 0.03,1.11 0.72,0 0.69,-1.11 -0.03,-1.11z"/>
  <path class="fil0" d="M57.23 95.99l-0.47 -0.03c-0.3,0.03 -0.54,0.25 -0.54,0.57 0.01,0.33 0.27,0.51 0.57,0.54l0.47 -0.04c0.52,-0.14 0.47,-0.9 -0.02,-1.03z"/>
  <path class="fil0" d="M42.23 95.58c0.72,0 0.68,-1.11 -0.03,-1.11 -0.72,0 -0.69,1.11 0.03,1.11z"/>
  <path class="fil0" d="M45.05 95.95c0.77,0 0.74,-1.19 -0.03,-1.19 -0.77,0 -0.74,1.19 0.03,1.19z"/>
  <path class="fil0" d="M44.71 93.42c0.7,0 0.67,-1.09 -0.02,-1.09 -0.7,0 -0.67,1.09 0.02,1.09z"/>
  <path class="fil0" d="M39.39 94.47c-0.72,0 -0.69,1.12 0.03,1.12 0.72,0 0.69,-1.12 -0.03,-1.12z"/>
  <path class="fil0" d="M56.38 93.04c-0.29,-0.38 -0.64,-0.48 -1.09,-0.47l-0.36 0.01c-0.53,0.01 -0.95,0.47 -0.94,0.99 0.01,0.54 0.46,0.93 0.99,0.94 0.43,0.01 0.98,0.08 1.29,-0.31 0.24,-0.31 0.4,-0.8 0.12,-1.15z"/>
  <path class="fil0" d="M60.1 96.04l0.42 -0.08c0.34,-0.21 0.3,-0.69 -0.02,-0.89l-0.43 -0.06c-0.67,0.03 -0.64,1.01 0.03,1.03z"/>
  <path class="fil0" d="M62.74 96.69c-0.15,-0.52 -0.89,-0.47 -1.03,0.02l-0.04 0.15c-0.1,0.36 0.21,0.73 0.58,0.72 0.38,-0.01 0.64,-0.38 0.54,-0.74l-0.04 -0.15z"/>
  <path class="fil0" d="M59.57 92.01c-0.68,0 -0.65,1.06 0.03,1.06 0.68,0 0.65,-1.06 -0.03,-1.06z"/>
  <path class="fil0" d="M28.11 87.91c0.01,0.5 0.47,1 0.99,0.95 0.21,-0.02 0.41,-0.05 0.62,-0.07l0.5 -0.09 0.28 -0.12 -0.13 0.05 0.25 -0.12c0.26,-0.18 0.43,-0.46 0.42,-0.78 -0.01,-0.38 -0.23,-0.62 -0.54,-0.77l0 0 -0 0 -0.13 -0.07 -0.2 -0.04c-0.37,-0.07 -0.74,0.01 -1.12,0.06 -0.53,0.06 -0.96,0.43 -0.95,0.99z"/>
  <path class="fil0" d="M30.1 90.2c0.37,-0.19 0.33,-0.77 -0.02,-0.95l-0.47 -0.04c-0.22,0.03 -0.41,0.16 -0.47,0.39 -0.06,0.25 0.1,0.61 0.38,0.64l0.05 0.01 0.09 0.02 0.44 -0.08z"/>
  <path class="fil0" d="M35.45 88.11c0.69,0 0.66,-1.06 -0.02,-1.06 -0.69,0 -0.66,1.06 0.02,1.06z"/>
  <path class="fil0" d="M33.11 86.91c-0.65,0 -0.63,1.01 0.02,1.01 0.65,0 0.63,-1.01 -0.02,-1.01z"/>
  <path class="fil0" d="M32.94 87.97c-0.77,0 -0.74,1.2 0.03,1.2 0.77,0 0.74,-1.2 -0.03,-1.2z"/>
  <path class="fil0" d="M25.86 87.16c0.74,0 0.71,-1.14 -0.03,-1.14 -0.74,0 -0.71,1.14 0.03,1.14z"/>
  <path class="fil0" d="M28.31 84.34c-0.76,0 -0.73,1.18 0.03,1.18 0.76,0 0.73,-1.18 -0.03,-1.18z"/>
  <path class="fil0" d="M58.24 93.37c-1.07,0 -1.02,1.65 0.04,1.65 1.07,0 1.02,-1.65 -0.04,-1.65z"/>
  <path class="fil0" d="M64.04 92.36c-0.67,0 -0.64,1.04 0.03,1.04 0.67,0 0.64,-1.04 -0.03,-1.04z"/>
  <path class="fil0" d="M64.7 94.49c-0.69,0 -0.66,1.07 0.03,1.07 0.69,0 0.66,-1.07 -0.03,-1.07z"/>
  <path class="fil0" d="M61.89 92.2c-0.65,0 -0.62,1.01 0.02,1.01 0.65,0 0.62,-1.01 -0.02,-1.01z"/>
  <path class="fil0" d="M69.17 88.02c-0.72,0 -0.69,1.11 0.03,1.11 0.71,0 0.69,-1.11 -0.03,-1.11z"/>
  <path class="fil0" d="M74.32 86.96c0.69,0 0.67,-1.08 -0.02,-1.08 -0.69,0 -0.67,1.08 0.02,1.08z"/>
  <path class="fil0" d="M71.34 89.46c0.7,0.06 0.69,-1.16 -0.03,-1.11l-0.31 0.04c-0.52,0.1 -0.48,0.93 0.03,1.03l0.31 0.03z"/>
  <path class="fil0" d="M65.53 89.4c-0.64,0 -0.62,0.99 0.02,0.99 0.64,0 0.61,-0.99 -0.02,-0.99z"/>
  <path class="fil0" d="M82.81 82.97c0.01,0.3 0.29,0.61 0.61,0.58l0.44 -0.12c0.36,-0.26 0.32,-0.71 -0.02,-0.96l-0.45 -0.11c-0.32,-0.03 -0.59,0.31 -0.58,0.61z"/>
  <path class="fil0" d="M84.08 85.62c0.68,0 0.65,-1.05 -0.02,-1.05 -0.68,0 -0.65,1.05 0.02,1.05z"/>
  <path class="fil0" d="M87.26 83.43l-0.02 0.02 -0.04 0.01 0.06 -0.04zm0.15 -0.16l0 0.01 -0 0 0 -0.01zm-0.04 0.16l0.03 -0.04 0.03 -0.08c0.28,-0.31 0.09,-0.86 -0.4,-0.89 -0.28,-0.02 -0.53,0.16 -0.66,0.41l-0.01 0.53c0.09,0.56 0.84,0.57 1.01,0.08z"/>
  <path class="fil0" d="M90.03 81.5c0.69,0 0.66,-1.07 -0.03,-1.07 -0.69,0 -0.66,1.07 0.03,1.07z"/>
  <path class="fil0" d="M24.69 83.09c-0.54,0.15 -0.48,0.91 0.03,1.05l0.04 0.01 0.03 0.01 0.01 0c0.3,0.29 0.96,0.09 0.93,-0.4 -0.02,-0.28 -0.09,-0.52 -0.35,-0.67l-0.36 -0.07 -0.11 0.03 -0.21 0.04z"/>
  <path class="fil0" d="M43.18 89.99c0.15,-0.23 0.25,-0.48 0.48,-0.64 0.19,-0.14 0.3,-0.36 0.23,-0.6 -0.08,-0.26 -0.39,-0.46 -0.66,-0.35 -0.26,0.1 -0.46,0.26 -0.62,0.46l-0.44 -0.39c0.55,-0.63 0.97,-1.39 1.35,-2.11 0.33,-0.62 -0.55,-1.08 -0.94,-0.52 -0.5,0.73 -1.04,1.41 -1.59,2.11l-0.19 -0.05c0.82,-1.36 1.64,-2.8 2.1,-4.32 0.18,-0.57 -0.76,-0.95 -0.99,-0.39 -0.62,1.53 -1.71,2.85 -2.23,4.42l-0.02 0.17 -0.32 0.01c0.5,-0.81 0.93,-1.66 1.24,-2.56 0.19,-0.56 -0.73,-0.93 -0.97,-0.38 -0.49,1.11 -1.2,2.1 -1.75,3.18l-0.35 0.1c0.09,-0.86 0.52,-1.78 0.76,-2.56 0.19,-0.59 -0.73,-0.94 -1,-0.39 -0.46,0.95 -1.17,2.26 -0.94,3.37 -1.13,0.47 -2.21,1.11 -3.09,1.83 -0.48,0.4 0.16,1.05 0.64,0.8 0.98,-0.51 2.51,-1.46 4.03,-1.96 0.18,0.07 0.4,0.03 0.57,-0.16 1.28,-0.31 2.51,-0.21 3.31,0.89 1.39,1.9 -4.14,3.25 -5.22,3.21 -0.73,-0.02 -0.69,1.1 0.03,1.13 2.13,0.07 7.03,-1.38 6.54,-4.24l0.03 -0.03z"/>
  <path class="fil0" d="M49.87 93.89c-0.77,0.29 -1.72,0.19 -2.32,-0.41 -0.5,-0.5 0.02,-0.94 0.52,-1.23 0.89,-0.1 1.8,-0.08 2.6,0.38 0.18,0.1 0.41,0.27 0.36,0.46 -0.1,0.38 -0.87,0.68 -1.17,0.79zm3.31 -2.81c0.47,-0.39 -0.16,-1.07 -0.65,-0.8 -0.54,0.3 -0.94,0.76 -1.43,1.12 -0.17,-0.1 -0.35,-0.17 -0.54,-0.23 0.49,-0.61 0.88,-1.29 1.22,-2.01 0.31,-0.63 -0.54,-1.06 -0.93,-0.51 -0.49,0.68 -0.87,1.44 -1.31,2.16l-0.06 0.16 -0.01 -0c0.26,-1.16 0.35,-2.32 0.83,-3.45 0.28,-0.65 -0.57,-1.13 -0.96,-0.54 -0.77,1.17 -1.1,2.69 -1.12,4.08l-0.04 0 -0.33 0.11c-0.06,-0.6 -0.14,-1.2 0,-1.81 0.14,-0.58 -0.72,-0.95 -0.99,-0.39 -0.43,0.86 -0.44,1.84 -0.06,2.73l0.05 0.07c-0.59,0.55 -0.86,1.35 -0.37,2.2 0.72,1.24 2.48,1.45 3.72,1.07 1.31,-0.39 2.72,-1.67 1.7,-2.98 0.43,-0.31 0.84,-0.65 1.25,-0.99z"/>
  <path class="fil0" d="M79.87 86.4c0.14,0.08 0.32,0.1 0.51,-0.03 0.32,-0.21 0.69,-0.37 1.07,-0.21 0.51,0.21 0.31,0.85 0.02,1.17 -0.46,0.51 -1.36,-0.25 -1.79,-0.84l0.19 -0.09zm-1.79 -0.48l0.33 0.28 0.02 0.21c0.47,1.46 3,3.23 4.11,1.38 0.49,-0.82 0.53,-1.93 -0.34,-2.51l-0.18 -0.1 0.08 -0.26c0.04,-0.39 0.02,-0.69 0.14,-1.02 0.21,-0.57 -0.67,-0.86 -0.95,-0.38 -0.26,0.45 -0.29,0.91 -0.24,1.42l0 0.01 -0.28 0.02c0.03,-0.35 0.01,-0.7 -0.01,-1.05 -0.03,-0.67 -0.99,-0.63 -1.02,0.03 -0.02,0.38 -0.04,0.78 -0,1.15l0.04 0.16c-0.19,0.1 -0.39,0.2 -0.58,0.29l0 -0.15c-0.18,-1 -0.07,-1.87 0.24,-2.83 0.17,-0.55 -0.53,-0.78 -0.88,-0.49 -0.93,0.76 -1.03,2.84 -0.48,3.83z"/>
  <path class="fil0" d="M12.55 81.8l-0.34 -0.24 -0.23 -0.02c-0.32,-0.04 -0.58,0.31 -0.57,0.6l0.06 0.25c0.08,0.2 0.26,0.36 0.54,0.33l0.07 -0.01 0.02 -0.01 0.03 -0 0.05 -0.01 0.04 -0.01 0.27 -0.16c0.19,-0.19 0.2,-0.45 0.07,-0.66l-0.02 -0.04z"/>
  <path class="fil0" d="M14.29 83.45c-0.2,-0.52 -0.86,-0.47 -1.04,0.03l-0.05 0.15c-0.12,0.37 0.23,0.74 0.59,0.73 0.38,-0.01 0.67,-0.4 0.55,-0.77l-0.05 -0.15z"/>
  <path class="fil0" d="M17.57 81.4c0.31,-0.51 -0.32,-0.97 -0.78,-0.74 -0.43,0.22 -0.96,0.25 -1.39,0.33 -0.65,0.12 -0.61,1.2 0.03,1.3 0.81,0.12 1.7,-0.15 2.14,-0.88z"/>
  <path class="fil0" d="M19.74 81.24c0.22,-0.03 0.37,-0.08 0.54,-0.23 0.22,-0.18 0.19,-0.59 -0.02,-0.77l-0.39 -0.19c-0.33,-0.04 -0.64,0.09 -0.73,0.44 -0.09,0.35 0.2,0.79 0.6,0.75z"/>
  <path class="fil0" d="M22.05 83.68c0.74,0 0.71,-1.14 -0.03,-1.14 -0.74,0 -0.71,1.14 0.03,1.14z"/>
  <path class="fil0" d="M19.98 84.58c-0.51,0.23 -0.41,1.05 0.25,1.11 0.55,0.04 0.95,-0.57 0.62,-1.04 -0.23,-0.33 -0.62,-0.32 -0.87,-0.07z"/>
  <path class="fil0" d="M24.21 81.23c0.76,0 0.73,-1.19 -0.03,-1.19 -0.77,0 -0.74,1.19 0.03,1.19z"/>
  <path class="fil0" d="M62.68 80.86c0.45,-0.07 0.93,-0.05 1.37,-0.18 0.55,-0.16 0.51,-0.96 -0.03,-1.1 -0.79,-0.21 -1.86,0.07 -2.61,0.35 -0.55,0.21 -0.48,1.16 0.17,1.09 0.37,-0.04 0.73,-0.11 1.1,-0.16z"/>
  <path class="fil0" d="M60.92 83.64c0.88,-0.11 1.77,-0.03 2.65,-0.15 0.54,-0.08 0.76,-0.96 0.12,-1.05 -1,-0.14 -1.95,-0.07 -2.93,0.18 -0.56,0.14 -0.42,1.09 0.16,1.02z"/>
  <path class="fil0" d="M71.25 79.84c0.2,-0 0.39,-0.01 0.59,-0.02 0.21,-0.01 0.33,-0.11 0.41,-0.24 0.29,-0.09 0.58,-0.17 0.85,-0.32 0.44,-0.24 0.23,-1.05 -0.29,-0.97 -0.31,0.05 -0.59,0.15 -0.89,0.26 -0.2,0.07 -0.49,0.23 -0.69,0.24 -0.34,-0.01 -0.51,0.26 -0.5,0.52 0,0.27 0.18,0.54 0.52,0.53z"/>
  <path class="fil0" d="M70.68 81.64c0.44,0.02 0.88,0.04 1.32,0 0.67,-0.04 0.63,-1 -0.03,-1.04 -0.44,-0.03 -0.88,-0.01 -1.32,0 -0.67,0.03 -0.63,1.01 0.03,1.03z"/>
  <path class="fil0" d="M68.2 84.8c0.61,0.01 1.23,-0.13 1.8,-0.35 0.52,-0.2 0.46,-1.12 -0.17,-1.04 -0.56,0.07 -1.09,0.3 -1.65,0.34 -0.67,0.04 -0.65,1.03 0.02,1.05z"/>
  <path class="fil0" d="M65.73 85.89c0.07,-0.27 -0.1,-0.61 -0.39,-0.66 -0.78,-0.12 -1.52,-0.04 -2.27,0.2 -0.54,0.17 -0.43,1.11 0.16,1.02 0.66,-0.1 1.33,-0.04 1.98,-0.15 0.24,-0.04 0.45,-0.15 0.51,-0.41z"/>
  <path class="fil0" d="M61.07 85.81c0.72,-0.16 0.37,-1.21 -0.33,-1.08 -2.3,0.41 -4.65,0.21 -6.93,0.71 -0.67,0.14 -0.34,1.1 0.3,0.99 2.31,-0.38 4.68,-0.1 6.96,-0.62z"/>
  <path class="fil0" d="M55.3 83.81c0.68,-0.07 0.67,-1.06 -0.03,-1.07 -3.01,-0.03 -5.96,-0.3 -8.95,-0.64 -0.65,-0.07 -0.94,0.88 -0.26,1.03 3.01,0.64 6.17,0.98 9.24,0.68z"/>
  <path class="fil0" d="M46.04 85.63c0.33,0.04 0.64,0.04 0.97,-0.02 0.52,-0.1 0.47,-0.93 -0.02,-1.02 -0.33,-0.07 -0.64,-0.05 -0.97,-0.02 -0.29,0.03 -0.52,0.24 -0.52,0.54 0.01,0.32 0.26,0.49 0.54,0.52z"/>
  <path class="fil0" d="M41.6 80.65c1.24,0.23 2.95,-0.13 4.09,-0.64 0.52,-0.23 0.51,-1.18 -0.17,-1.09 -0.59,0.08 -1.15,0.25 -1.73,0.38 -0.73,0.16 -1.49,0.18 -2.21,0.34 -0.5,0.11 -0.47,0.91 0.02,1.01z"/>
  <path class="fil0" d="M43.96 82.44l0.12 0.04c0.23,0.07 0.48,-0.05 0.59,-0.26 0.15,-0.27 0.03,-0.57 -0.21,-0.73 -0.27,-0.18 -0.59,-0.21 -0.9,-0.15l-0.44 0.32 -0.09 0.31 -0 0.16c-0.01,0.49 0.68,0.64 0.92,0.3z"/>
  <path class="fil0" d="M29.24 79.1c0.91,0.39 2.09,0.52 3.05,0.23 0.59,-0.18 0.44,-1.05 -0.17,-1.06 -0.43,-0 -0.87,0.02 -1.3,-0.01 -0.45,-0.03 -0.89,-0.14 -1.35,-0.13 -0.48,0 -0.72,0.76 -0.23,0.96z"/>
  <path class="fil0" d="M32.95 81.65c0.57,-0.23 0.46,-1.04 -0.17,-1.06 -0.84,-0.03 -1.67,-0.03 -2.5,-0.13 -0.67,-0.08 -0.9,0.79 -0.26,1.02 0.86,0.32 2.06,0.53 2.93,0.17z"/>
  <path class="fil0" d="M33.82 83.4c-0.6,-0.48 -1.29,-0.54 -2.03,-0.48 -0.68,0.06 -0.64,0.99 0.03,1.05 0.46,0.04 0.96,0.07 1.39,0.27 0.51,0.24 1.11,-0.45 0.62,-0.84z"/>
  <path class="fil0" d="M39.25 81.94c-1.14,0.36 -2.32,0.38 -3.48,0.65 -0.6,0.14 -0.43,1.08 0.17,1.06 1.27,-0.04 2.59,-0.18 3.74,-0.75 0.55,-0.27 0.13,-1.15 -0.44,-0.97z"/>
  <path class="fil0" d="M61.89 86.88c-2.21,0.34 -4.4,0.47 -6.62,0.67 -0.69,0.07 -0.64,1 0.03,1.06 2.23,0.2 4.66,0.22 6.76,-0.68 0.51,-0.22 0.48,-1.15 -0.17,-1.05z"/>
  <path class="fil0" d="M60.4 89.36c-1.59,-0.01 -3.23,0.5 -4.77,0.87 -0.58,0.14 -0.41,1.03 0.16,1.02 1.58,-0.03 3.25,-0.47 4.78,-0.83 0.61,-0.15 0.42,-1.05 -0.17,-1.05z"/>
  <path class="fil0" d="M69.19 85.58c-1.73,0.67 -3.31,1.51 -5.12,1.99 -0.6,0.16 -0.42,1.04 0.17,1.04 1.83,0.01 3.95,-0.99 5.4,-2.06 0.46,-0.34 0.17,-1.2 -0.44,-0.97z"/>
  <path class="fil0" d="M71.67 86.66c0.36,-0.1 0.69,-0.27 1.03,-0.43 0.36,-0.17 0.73,-0.31 1.07,-0.5 0.49,-0.27 0.23,-1.03 -0.3,-1.02 -0.76,0.02 -1.47,0.5 -2.14,0.81 -0.68,0.3 -0.42,1.34 0.34,1.14z"/>
  <path class="fil0" d="M48.99 84.59c-0.59,-0.06 -0.65,0.87 -0.11,1.01 0.55,0.13 1.09,0.3 1.63,0.44 0.59,0.15 1.21,0.45 1.81,0.44 0.45,-0 0.77,-0.65 0.37,-0.95 -0.49,-0.36 -1.09,-0.47 -1.67,-0.61 -0.67,-0.17 -1.34,-0.26 -2.03,-0.32z"/>
  <path class="fil0" d="M31.32 37.02l0.08 0 0.36 -0.01c0.35,-0.08 0.49,-0.37 0.46,-0.68 0.04,-0.32 -0.09,-0.63 -0.47,-0.72l-0.31 -0.02 -0.16 0c-0.93,0.01 -0.88,1.42 0.03,1.43z"/>
  <path class="fil0" d="M39.92 30.39c0.9,0 0.86,-1.39 -0.03,-1.39 -0.9,0 -0.86,1.39 0.03,1.39z"/>
  <path class="fil0" d="M40.58 40.15c0.69,0 0.66,-1.06 -0.03,-1.06 -0.69,0 -0.66,1.06 0.03,1.06z"/>
  <path class="fil0" d="M46.53 25.02c0.79,0 0.76,-1.23 -0.03,-1.23 -0.79,0 -0.76,1.23 0.03,1.23z"/>
  <path class="fil0" d="M69.04 34.27l0.01 0.01 0.07 0.14c0.18,0.32 0.47,0.54 0.86,0.53 0.29,-0.01 0.55,-0.15 0.72,-0.38l0.28 -0.48c0.04,-0.22 -0.02,-0.45 -0.21,-0.63l-0.05 -0.03c-0.13,-0.18 -0.32,-0.31 -0.54,-0.37 -0.38,-0.1 -0.91,0.07 -1.07,0.47l0.06 -0.05c-0.2,0.24 -0.24,0.51 -0.15,0.76l-0.01 -0.02 0.02 0.05z"/>
  <path class="fil0" d="M93.71 34.97c0.02,-0.26 0.02,-0.52 -0.18,-0.71 -0.21,-0.21 -0.58,-0.24 -0.85,-0.13 -0.18,0.08 -0.32,0.19 -0.37,0.39 -0.06,0.22 0.04,0.51 0.27,0.61l0.09 0.03c0.19,0.52 1,0.44 1.05,-0.19z"/>
  <path class="fil0" d="M99.8 42.3c0.9,0 0.86,-1.39 -0.03,-1.39 -0.9,0 -0.86,1.39 0.03,1.39z"/>
  <path class="fil0" d="M93.24 52.74l-0 -0.02 0.03 0.03 -0.03 -0.01zm0.79 -1.05c-0.1,-0.23 -0.27,-0.4 -0.54,-0.39 -0.26,0.01 -0.45,0.18 -0.52,0.42 -0.11,0.36 -0,0.79 0.28,1.02l-0.01 0 0.01 0.01 0 -0 0.13 0.08 0.14 0.07c0.22,0.07 0.43,-0.03 0.58,-0.19l-0.01 0.02 0.02 -0.03 0.12 -0.23 0 -0.01 -0.01 0.03 0.01 -0.41 -0.05 -0.15 -0.13 -0.23z"/>
  <path class="fil0" d="M85.36 31.03c0.34,0.32 0.91,0.35 1.25,0.03 0.34,-0.31 0.43,-0.8 0.18,-1.2 -0.32,-0.51 -1.05,-0.59 -1.47,-0.15 -0.35,0.37 -0.34,0.97 0.03,1.32z"/>
  <path class="fil0" d="M88.73 42.81l0.24 0.03c0.89,0.22 0.95,-1.27 0.13,-1.17l-0.25 0.03 -0.24 0.1 -0.26 0.34c-0.1,0.29 -0.01,0.62 0.37,0.67z"/>
  <path class="fil0" d="M102.77 50.07l0.33 0.04c0.31,0.03 0.56,-0.3 0.55,-0.58 -0.01,-0.29 -0.27,-0.58 -0.58,-0.55l-0.33 0.04c-0.29,0.03 -0.52,0.24 -0.52,0.54 0.01,0.32 0.25,0.48 0.54,0.52z"/>
  <path class="fil0" d="M98.07 32.24c0.13,-0.51 -0.19,-1.05 -0.7,-1.17 -0.48,-0.12 -1.04,0.17 -1.16,0.66 -0.11,0.23 -0.12,0.5 0.06,0.7 0.35,0.76 1.59,0.68 1.81,-0.2z"/>
  <path class="fil0" d="M65.06 25.11c0.92,0 0.89,-1.43 -0.03,-1.43 -0.92,0 -0.89,1.43 0.03,1.43z"/>
  <path class="fil0" d="M74.89 27.6l-0.05 -0.38c-0.1,-0.5 -0.8,-0.5 -1.02,-0.12 -0.66,0.13 -0.59,1.24 0.17,1.23 0.31,-0 0.63,-0.06 0.8,-0.36l0.02 -0.05 0.08 -0.33z"/>
  <path class="fil0" d="M61.72 35.44c-0.7,0 -0.67,1.08 0.03,1.08 0.7,0 0.67,-1.08 -0.03,-1.08z"/>
  <path class="fil0" d="M56.65 20.94l0.32 0.04c0.31,0.04 0.61,-0.09 0.69,-0.41 0.08,-0.33 -0.19,-0.75 -0.56,-0.7l-0.33 0.04c-0.24,0.03 -0.44,0.16 -0.5,0.4 -0.06,0.25 0.1,0.6 0.38,0.64z"/>
  <path class="fil0" d="M34.53 28.18c0.09,-0.35 -0.2,-0.79 -0.59,-0.74l-0.48 0.07c-0.53,0.16 -0.48,0.9 0.03,1.05l0.32 0.05c0.32,0.03 0.64,-0.09 0.72,-0.44z"/>
  <path class="fil0" d="M36.28 34.29c0.34,0.03 0.62,-0.33 0.61,-0.65 -0.01,-0.32 -0.3,-0.64 -0.65,-0.61 -0.2,0.02 -0.44,0.02 -0.61,0.15 -0.37,0.27 -0.33,0.72 0.02,0.97 0.18,0.13 0.42,0.12 0.62,0.14z"/>
  <path class="fil0" d="M19.71 29.42c-0.78,0 -0.75,1.21 0.03,1.21 0.78,0 0.75,-1.21 -0.03,-1.21z"/>
  <path class="fil0" d="M14.48 41.67l-0.42 0.2 -0.44 0.27c-0.25,0.3 -0.22,0.65 0.02,0.94l0.38 0.23 0.1 0.07 0.15 0.06 0.02 0.01 0.01 0 0.03 0.01 -0.02 -0.01c0.24,0.1 0.46,0.15 0.73,0.07 0.32,-0.1 0.58,-0.37 0.66,-0.69 0.16,-0.66 -0.52,-1.45 -1.22,-1.16z"/>
  <path class="fil0" d="M26.83 42.07l-0.01 -0.05 -0.01 -0.05 0.03 0.11 -0.01 -0.01zm1.01 -0.37l-0.02 -0.15c-0.11,-0.35 -0.48,-0.54 -0.82,-0.49 -0.24,0.04 -0.45,0.15 -0.51,0.41 -0.07,0.27 0.09,0.51 0.32,0.62l0.06 0.04c0.22,0.48 0.96,0.4 1.01,-0.21l-0 -0.09 -0.02 -0.14z"/>
  <path class="fil0" d="M23.68 35.78c-0.67,0 -0.65,1.05 0.03,1.05 0.68,0 0.65,-1.05 -0.03,-1.05z"/>
  <path class="fil0" d="M23.35 46.97c-0.76,0 -0.73,1.17 0.03,1.17 0.76,0 0.72,-1.17 -0.03,-1.17z"/>
  <path class="fil0" d="M7.29 47.98l-0.18 -0.03 -0.15 0.02 -0.16 0.01c-0.3,0.03 -0.55,0.25 -0.54,0.57 0.01,0.33 0.27,0.52 0.57,0.54l0.14 0.01c-0.19,-0.02 0.07,0.01 0.13,0.02l0.2 -0.03c0.57,-0.22 0.51,-0.92 -0.03,-1.12z"/>
  <polygon class="fil0" points="7.11,49.13 7.11,49.13 "/>
  <path class="fil0" d="M14.75 47.27c-0.79,0 -0.76,1.22 0.03,1.22 0.79,0 0.76,-1.22 -0.03,-1.22z"/>
  <path class="fil0" d="M12.89 35.38l-0 0.01 0 -0 0 -0.01 -0 0zm-0 0.02l0 -0.01 -0 0.01zm0 -0.02l-0 0 0 -0zm1.07 -0.23c-0.16,-0.52 -0.85,-0.47 -1.02,0 -0.5,0.17 -0.42,1 0.19,1.01 0.25,0 0.51,0.01 0.7,-0.18 0.2,-0.21 0.22,-0.56 0.14,-0.83z"/>
  <path class="fil0" d="M19.38 35.72c-0.76,0 -0.73,1.17 0.03,1.17 0.76,0 0.73,-1.17 -0.03,-1.17z"/>
  <path class="fil0" d="M20.9 25.35l0.03 0 -0.03 -0zm0.13 -1.24c-0.26,0.01 -0.54,0.04 -0.71,0.26 -0.21,0.27 -0.19,0.53 -0.14,0.85 0.08,0.48 0.8,0.5 1.01,0.12 0.66,-0.11 0.59,-1.28 -0.16,-1.23z"/>
  <path class="fil0" d="M27.64 30.66l-0.01 -0.35c-0.04,-0.44 -0.29,-0.79 -0.73,-0.91l0.09 0.04c-0.21,-0.13 -0.48,-0.11 -0.68,0.02l0.08 -0.04c-0.45,0.12 -0.65,0.52 -0.68,0.95l-0.01 0.35c-0.01,0.53 0.48,0.96 1,0.95 0.53,-0.02 0.95,-0.47 0.94,-1z"/>
  <path class="fil0" d="M16.07 26.83c-0.71,0 -0.68,1.1 0.03,1.1 0.71,0 0.68,-1.1 -0.03,-1.1z"/>
  <path class="fil0" d="M8.13 38.69c-0.77,0 -0.74,1.19 0.03,1.19 0.77,0 0.74,-1.19 -0.03,-1.19z"/>
  <path class="fil0" d="M33.63 42.45c0.67,0 0.65,-1.04 -0.03,-1.04 -0.67,0 -0.65,1.04 0.03,1.04z"/>
  <path class="fil0" d="M46.29 33.66l0.41 -0.06c0.61,-0.1 0.55,-1.1 -0.03,-1.2l-0.42 -0.05c-0.21,-0.01 -0.48,0.14 -0.56,0.34 -0.07,0.17 -0.12,0.32 -0.05,0.51 0.1,0.26 0.34,0.49 0.65,0.46z"/>
  <path class="fil0" d="M44.85 36.75c-0.25,0.03 -0.46,0.16 -0.52,0.42 -0.07,0.27 0.1,0.62 0.4,0.67l0.27 0.03 0.54 0.06c0.81,0 0.78,-1.26 -0.03,-1.26l-0.5 0.06 -0.16 0.02z"/>
  <path class="fil0" d="M44.71 29.36l0 -0.01 -0.03 -0.12 -0.01 -0.06 -0.06 -0.11 -0.03 -0.05 -0.29 -0.16 -0.11 -0.04 -0.45 0.03c-0.53,0.16 -0.48,0.89 0.02,1.04l0.46 0.02 -0 -0.01 0.22 -0.05c0.21,-0.09 0.31,-0.28 0.3,-0.48z"/>
  <path class="fil0" d="M38.14 21.66l0 0zm-0.82 -0.55c0.01,0.43 0.4,0.62 0.77,0.56l0.03 -0 0.14 -0.02c0.25,-0.04 0.46,-0.16 0.52,-0.42 0.07,-0.27 -0.1,-0.63 -0.4,-0.67l-0.32 -0.05c-0.38,-0.06 -0.75,0.18 -0.74,0.59z"/>
  <path class="fil0" d="M49.81 16.92c-0.43,0.02 -0.72,0.33 -0.64,0.77 0.04,0.22 0.23,0.43 0.41,0.54 0.42,0.26 0.86,-0.21 0.73,-0.62 0.1,-0.32 -0.06,-0.72 -0.49,-0.69z"/>
  <path class="fil0" d="M52.79 20.12c-0.83,0 -0.79,1.28 0.03,1.28 0.83,0 0.79,-1.28 -0.03,-1.28z"/>
  <path class="fil0" d="M54.47 6.74l0.01 0 -0 0 0.04 0 0.14 0.02c0.31,0.03 0.61,-0.09 0.7,-0.42 0.08,-0.34 -0.19,-0.75 -0.57,-0.71l-0.33 0.04c-0.29,0.03 -0.53,0.24 -0.52,0.55 0.01,0.31 0.25,0.49 0.54,0.52z"/>
  <path class="fil0" d="M43.96 7.25c0.57,-0.37 0.35,-1.41 -0.44,-1.39 -0.74,0.02 -0.93,0.93 -0.47,1.34 0.19,0.3 0.66,0.3 0.9,0.05z"/>
  <path class="fil0" d="M36.28 10.06c0.71,0 0.68,-1.09 -0.03,-1.09 -0.7,0 -0.68,1.09 0.03,1.09z"/>
  <path class="fil0" d="M29.85 12.69l0.48 0.05c0.74,0.05 0.72,-1.21 -0.03,-1.15l-0.47 0.06c-0.53,0.12 -0.48,0.92 0.02,1.04z"/>
  <path class="fil0" d="M67.49 7.36c0.08,0.18 0.19,0.33 0.4,0.38 0.23,0.06 0.52,-0.04 0.62,-0.27l0.13 -0.44c0.12,-0.41 -0.24,-0.81 -0.64,-0.8 -0.42,0.01 -0.72,0.43 -0.6,0.83l0.08 0.31z"/>
  <path class="fil0" d="M73.33 8.77c0.74,0 0.71,-1.15 -0.03,-1.15 -0.74,0 -0.71,1.15 0.03,1.15z"/>
  <path class="fil0" d="M86.89 17.71c0.43,-0.01 0.61,-0.39 0.67,-0.75 0.08,-0.45 -0.22,-0.89 -0.71,-0.88 -0.5,0.01 -0.74,0.47 -0.66,0.91 0.07,0.36 0.27,0.73 0.69,0.71z"/>
  <path class="fil0" d="M89.21 26.26l0.04 0 0.13 0.05c0.38,0.13 0.76,-0.23 0.75,-0.6 -0.01,-0.38 -0.4,-0.69 -0.78,-0.56l-0.07 0.04 -0.1 0.01c-0.69,0.02 -0.66,1.05 0.03,1.07z"/>
  <path class="fil0" d="M92.44 25.75l0.25 0.16c0.63,0.4 1.45,-0.17 1.44,-0.87 -0.02,-0.73 -0.86,-1.19 -1.48,-0.8l-0.06 0.04c0.18,-0.07 0.14,-0.05 -0.1,0.05l-0.09 0.07 -0.38 0.23c-0.26,0.24 -0.22,0.68 0.02,0.91l0.39 0.22z"/>
  <path class="fil0" d="M96.48 41.81c0.7,0 0.67,-1.08 -0.02,-1.08 -0.7,0 -0.67,1.08 0.02,1.08z"/>
  <path class="fil0" d="M79.26 55.32c-0.66,0 -0.63,1.01 0.02,1.01 0.66,0 0.63,-1.01 -0.02,-1.01z"/>
  <path class="fil0" d="M86.53 55.93c-0.72,0 -0.69,1.11 0.03,1.11 0.72,0 0.69,-1.11 -0.03,-1.11z"/>
  <path class="fil0" d="M77.27 34.42c-0.73,0 -0.7,1.14 0.03,1.14 0.73,0 0.7,-1.14 -0.03,-1.14z"/>
  <path class="fil0" d="M79.8 32.19l0.47 0.05c0.71,0.05 0.7,-1.18 -0.03,-1.12l-0.33 0.04c-0.24,0.04 -0.43,0.15 -0.5,0.4 -0.07,0.26 0.1,0.59 0.38,0.64z"/>
  <path class="fil0" d="M70.87 21.62l0.48 0.05c0.74,0.05 0.73,-1.22 -0.03,-1.16l-0.47 0.06c-0.53,0.11 -0.48,0.94 0.03,1.05z"/>
  <path class="fil0" d="M69.51 27.83l-0.36 -0.32c-0.26,-0.06 -0.63,0.11 -0.67,0.4 -0.03,0.3 -0.05,0.6 0.17,0.83 0.19,0.2 0.45,0.21 0.71,0.21 0.68,0.01 0.71,-0.94 0.15,-1.12z"/>
  <path class="fil0" d="M62.41 19.64l0.19 0.01 0.12 0.01 0.29 -0.09c0.36,-0.23 0.32,-0.72 -0.02,-0.94l-0.3 -0.08 -0.15 0.01 -0.15 0.01c-0.69,0.04 -0.65,1.02 0.02,1.06z"/>
  <path class="fil0" d="M95.24 46.84c0.61,0.16 1.22,-0.34 1.2,-0.96 -0.01,-0.58 -0.51,-0.97 -1.05,-0.93l-0.07 -0.03c-0.36,-0.12 -0.71,0.13 -0.88,0.44 -0.17,0.32 -0.12,0.68 0.02,1 0.14,0.29 0.48,0.42 0.77,0.5z"/>
  <path class="fil0" d="M74.54 83.76l0.13 0.06c0.42,0.19 0.93,-0.06 0.92,-0.56 -0.01,-0.52 -0.53,-0.7 -0.95,-0.51l0 -0 -0.01 0 0.01 -0 -0.01 0c-0.18,0.08 -0.32,0.19 -0.37,0.39 -0.05,0.22 0.04,0.52 0.27,0.62z"/>
  <polygon class="fil0" points="74.63,82.76 74.63,82.75 "/>
  <path class="fil0" d="M76.8 81.85c0.4,-0.01 0.59,-0.38 0.51,-0.7l-0 -0.03c-0.04,-0.64 -0.89,-0.63 -1.02,-0.07 -0.17,0.35 0.08,0.82 0.51,0.81z"/>
  <path class="fil0" d="M74.81 81.14c0.66,0 0.63,-1.02 -0.02,-1.02 -0.66,0 -0.63,1.02 0.02,1.02z"/>
  <path class="fil0" d="M81.27 79.72c0.75,0 0.72,-1.16 -0.03,-1.16 -0.75,0 -0.72,1.16 0.03,1.16z"/>
  <path class="fil0" d="M82.59 81.35c0.71,0 0.68,-1.1 -0.03,-1.1 -0.71,0 -0.68,1.1 0.03,1.1z"/>
  <path class="fil0" d="M85.1 80.15c0.25,0.06 0.61,-0.1 0.64,-0.38l0 -0c0.23,-0.36 -0.1,-0.89 -0.53,-0.87 -0.44,0.01 -0.72,0.54 -0.48,0.89 0.05,0.18 0.17,0.32 0.37,0.37z"/>
  <path class="fil0" d="M94.16 81.52l0.15 -0.04c0.53,-0.18 0.47,-0.87 -0.03,-1.04l-0.15 -0.04c-0.37,-0.09 -0.73,0.2 -0.72,0.58 0.01,0.39 0.39,0.63 0.75,0.54z"/>
  <path class="fil0" d="M95.65 83.84l0.15 -0.04c0.53,-0.14 0.48,-0.91 -0.02,-1.04l-0.16 -0.04c-0.37,-0.11 -0.74,0.21 -0.73,0.59 0.01,0.38 0.39,0.66 0.76,0.55z"/>
  <path class="fil0" d="M97.48 80.27c0.8,0 0.77,-1.25 -0.03,-1.25 -0.8,0 -0.77,1.25 0.03,1.25z"/>
  <polygon class="fil0" points="98.59,80.53 98.62,80.53 "/>
  <path class="fil0" d="M98.04 80.98c-0.07,0.29 0.11,0.69 0.43,0.73l0.14 0.02c0.2,0.06 0.46,-0.02 0.6,-0.17l0.01 -0.01c0.24,-0.26 0.21,-0.61 -0.02,-0.86l-0.01 -0.01c-0.14,-0.15 -0.38,-0.2 -0.58,-0.15l-0.02 0c-0.27,0.03 -0.5,0.18 -0.57,0.46z"/>
  <polygon class="fil0" points="101.62,78.38 101.56,78.39 "/>
  <path class="fil0" d="M101.56 78.39l0.05 -0.02c0.24,-0.04 0.45,-0.15 0.52,-0.41 0.07,-0.27 -0.1,-0.63 -0.4,-0.67l-0.14 -0.03c-0.36,-0.14 -0.73,0.24 -0.72,0.58 0.01,0.34 0.35,0.64 0.69,0.55z"/>
  <path class="fil0" d="M78.12 79.69c0.7,0 0.68,-1.09 -0.03,-1.09 -0.7,0 -0.68,1.09 0.03,1.09z"/>
  <path class="fil0" d="M10.22 79.12l-0.01 -0.04 -0.03 -0.07c-0.3,-0.57 -1.18,-0.32 -1.16,0.31 0.01,0.49 0.51,0.7 0.89,0.53l0.14 -0.09 0.15 -0.18 0.04 -0.4 -0.02 -0.07z"/>
  <path class="fil0" d="M13.1 78.9c-0.74,0 -0.71,1.14 0.03,1.14 0.74,0 0.71,-1.14 -0.03,-1.14z"/>
  <path class="fil0" d="M15.44 79.08c0.76,0 0.73,-1.19 -0.03,-1.19 -0.77,0 -0.73,1.19 0.03,1.19z"/>
  <path class="fil0" d="M18.58 77.74c0.75,0 0.71,-1.15 -0.03,-1.15 -0.74,0 -0.71,1.15 0.03,1.15z"/>
  <path class="fil0" d="M17.26 79.38c0.35,-0.01 0.7,-0.18 0.69,-0.57 -0.01,-0.4 -0.37,-0.54 -0.71,-0.55 -0.72,-0.02 -0.7,1.15 0.03,1.12z"/>
  <path class="fil0" d="M22.05 78.86c0.71,0 0.68,-1.1 -0.02,-1.1 -0.71,0 -0.68,1.1 0.02,1.1z"/>
  <path class="fil0" d="M22.22 80.42c0.79,0 0.76,-1.23 -0.03,-1.23 -0.79,0 -0.76,1.23 0.03,1.23z"/>
  <path class="fil0" d="M26.19 79.08c0.77,0 0.74,-1.19 -0.03,-1.19 -0.77,0 -0.74,1.19 0.03,1.19z"/>
  <path class="fil0" d="M27.02 81.44c0.82,0 0.79,-1.28 -0.03,-1.28 -0.83,0 -0.79,1.28 0.03,1.28z"/>
  <path class="fil0" d="M27.65 82.52c-0.76,0 -0.73,1.18 0.03,1.18 0.76,0 0.73,-1.18 -0.03,-1.18z"/>
  <path class="fil0" d="M35.61 80.88l0.39 -0.2c0.22,-0.21 0.19,-0.57 -0.02,-0.78l-0.4 -0.19c-0.38,-0.11 -0.76,0.22 -0.75,0.6 0.01,0.4 0.4,0.68 0.78,0.56z"/>
  <path class="fil0" d="M38.28 81.2c0.31,0.04 0.62,-0.09 0.7,-0.42 0.08,-0.33 -0.2,-0.77 -0.57,-0.72l-0.44 0.12c-0.36,0.18 -0.32,0.76 0.02,0.93l0.29 0.09z"/>
  <path class="fil0" d="M48.38 79.17l-0.18 0.14c-0.25,0.2 -0.37,0.51 -0.19,0.81 0.18,0.3 0.68,0.4 0.92,0.09l0.22 -0.3c0.32,-0.45 -0.34,-1.04 -0.77,-0.74z"/>
  <path class="fil0" d="M50.47 78.04c-0.33,0.02 -0.61,0.29 -0.6,0.62 0.01,0.36 0.29,0.58 0.63,0.6 0.23,0.01 0.4,-0.03 0.61,-0.14 0.37,-0.2 0.33,-0.77 -0.02,-0.96 -0.2,-0.11 -0.39,-0.14 -0.61,-0.13z"/>
  <path class="fil0" d="M53.32 81.55c0.75,0 0.72,-1.17 -0.03,-1.17 -0.75,0 -0.72,1.17 0.03,1.17z"/>
  <path class="fil0" d="M54.77 79.13c-0.02,-0.59 -0.65,-0.75 -1.03,-0.47 -0.35,0.15 -0.38,0.62 -0.13,0.86 0.34,0.45 1.17,0.27 1.16,-0.39z"/>
  <path class="fil0" d="M56.93 80.7c-0.77,0 -0.74,1.2 0.03,1.2 0.77,0 0.74,-1.2 -0.03,-1.2z"/>
  <path class="fil0" d="M58.11 80.09l0.43 -0.12c0.38,-0.21 0.34,-0.79 -0.02,-0.99l-0.28 -0.09c-0.33,-0.05 -0.65,0.09 -0.74,0.44 -0.09,0.35 0.21,0.81 0.61,0.76z"/>
  <path class="fil0" d="M66.38 83.29c0.43,-0.01 0.76,-0.45 0.63,-0.87l-0.22 -0.39c-0.19,-0.15 -0.51,-0.25 -0.74,-0.08 -0.18,0.14 -0.26,0.28 -0.33,0.5 -0.13,0.42 0.25,0.84 0.66,0.83z"/>
  <path class="fil0" d="M68.24 81.43c0.56,0.6 1.5,-0.36 0.89,-0.93l-0.28 -0.22c-0.6,-0.27 -1.09,0.31 -0.83,0.88l0.23 0.28z"/>
  <path class="fil0" d="M66.71 80.54c0.73,0 0.7,-1.13 -0.03,-1.13 -0.73,0 -0.7,1.13 0.03,1.13z"/>
  <path class="fil0" d="M71.13 68.43c-0.83,-0.55 -2.06,-0.64 -3.03,-0.73 -1.06,-0.1 -2.23,-0.2 -3.24,0.2 -0.53,0.21 -0.45,1.02 0.16,1.01 0.99,-0.02 1.95,-0.01 2.94,0.12 0.96,0.14 1.93,0.54 2.9,0.55 0.66,0.01 0.76,-0.84 0.28,-1.16z"/>
 </g>
</svg>
