<?xml version="1.0" encoding="UTF-8"?>
<svg xmlns="http://www.w3.org/2000/svg" xml:space="preserve" width="0.747323in" height="0.747331in" version="1.1" style="shape-rendering:geometricPrecision; text-rendering:geometricPrecision; image-rendering:optimizeQuality; fill-rule:evenodd; clip-rule:evenodd"
viewBox="0 0 134.12 134.12"
 xmlns:xlink="http://www.w3.org/1999/xlink"
 xmlns:xodm="http://www.corel.com/coreldraw/odm/2003">
 <defs>
  <style type="text/css">
   <![CDATA[
    .fil0 {fill:black;fill-rule:nonzero}
   ]]>
  </style>
 </defs>
 <g id="Layer_x0020_1">
  <metadata id="CorelCorpID_0Corel-Layer"/>
  <path class="fil0" d="M19.39 101.5l-0.31 -0.44 0.81 -0.25 -0.5 0.69zm2.73 -2.22l-0.07 -0.1c-0.15,-0.21 -0.42,-0.3 -0.67,-0.22l-4.95 1.54 -0.36 0.31 -0.03 0.48 0.04 0.1c0.11,0.31 0.44,0.47 0.75,0.38l0.92 -0.28 0.83 1.16 -0.56 0.78c-0.19,0.26 -0.14,0.64 0.12,0.84l0.08 0.06 0.37 0.13 0.08 -0 0.41 -0.25 3.04 -4.2 0 -0.71z"/>
  <path class="fil0" d="M24.76 102.69l-0.07 -0.08 -0.42 -0.21 -0.44 0.15 -3.76 3.28c-0.25,0.22 -0.28,0.61 -0.06,0.86l1.48 1.69 0.42 0.21 0.04 0 0.4 -0.15 0.08 -0.07c0.25,-0.22 0.28,-0.61 0.06,-0.86l-1.01 -1.15 3.22 -2.81c0.25,-0.22 0.28,-0.61 0.06,-0.86z"/>
  <path class="fil0" d="M29.24 107.41l-0.08 -0.08c-0.24,-0.23 -0.63,-0.22 -0.86,0.03l-3.39 3.6c-0.23,0.24 -0.22,0.63 0.03,0.86l0.08 0.07 0.42 0.17 0.02 0 0.42 -0.19 3.39 -3.6c0.23,-0.25 0.21,-0.63 -0.03,-0.86z"/>
  <path class="fil0" d="M33.17 110.7c-0.45,-0.35 -0.95,-0.48 -1.48,-0.37 -0.42,0.09 -0.77,0.31 -1.04,0.65 -0.33,0.43 -0.45,0.94 -0.33,1.47l0.02 0.07 0.13 0.35 0.14 0.32 0.4 0.83 0.15 0.34 0.05 0.19 -0.08 0.28 -0.27 0.15 -0.33 -0.08c-0.03,-0.02 -0.23,-0.2 -0.79,-1.22 -0.14,-0.25 -0.43,-0.37 -0.71,-0.29l-0.1 0.03 -0.36 0.29 -0.05 0.47c0.1,0.33 0.26,0.66 0.47,0.98 0.22,0.32 0.47,0.59 0.73,0.8 0.32,0.25 0.68,0.37 1.06,0.37l0.36 -0.03c0.44,-0.09 0.79,-0.31 1.04,-0.64 0.3,-0.38 0.57,-1.03 0.15,-1.95 -0.14,-0.3 -0.27,-0.56 -0.38,-0.78l-0.26 -0.54c-0.15,-0.31 -0.09,-0.47 0,-0.59l0.27 -0.16 0.39 0.12c0.06,0.05 0.26,0.23 0.69,0.89 0.15,0.23 0.44,0.33 0.7,0.24l0.1 -0.04 0.36 -0.32 0.01 -0.48c-0.21,-0.5 -0.56,-0.95 -1.06,-1.34z"/>
  <path class="fil0" d="M44.12 117.5l-0.08 -0.08 -0.43 -0.18 -0.43 0.18 -2.27 2.28 0.45 -3.18 -0.12 -0.46 -0.41 -0.24 -0.11 -0.01c-0.33,-0.03 -0.63,0.19 -0.68,0.52l-0.73 5.13c-0.04,0.26 0.1,0.51 0.33,0.63l0.1 0.05 0.27 0.07 0.43 -0.18 3.66 -3.67c0.24,-0.23 0.24,-0.62 0,-0.85z"/>
  <path class="fil0" d="M47.35 120.88l-0.78 2.05 -0.38 0.4 -0.53 0.01 -0.4 -0.37 -0.01 -0.54 0.78 -2.05 0.37 -0.39 0.28 -0.07 0.26 0.05 0.4 0.38 0.01 0.54zm0.07 -2.15c-0.52,-0.2 -1.06,-0.18 -1.56,0.04 -0.51,0.23 -0.87,0.61 -1.07,1.13l-0.78 2.05c-0.2,0.52 -0.18,1.05 0.04,1.55 0.22,0.5 0.61,0.87 1.14,1.07 0.24,0.09 0.48,0.14 0.73,0.14 0.27,0 0.56,-0.06 0.82,-0.18 0.51,-0.23 0.87,-0.61 1.07,-1.13l0.78 -2.05c0.2,-0.52 0.19,-1.04 -0.04,-1.56 -0.23,-0.5 -0.62,-0.88 -1.13,-1.07z"/>
  <path class="fil0" d="M52.31 125.46l-1.48 -0.4 1.12 -4.13 -0.06 -0.47 -0.37 -0.28 -0.1 -0.03c-0.32,-0.09 -0.66,0.11 -0.75,0.43l-1.31 4.82c-0.09,0.32 0.1,0.66 0.43,0.75l2.17 0.59 0.16 0.02c0.27,0 0.51,-0.18 0.59,-0.45l0.02 -0.1 -0.06 -0.46 -0.37 -0.28z"/>
  <path class="fil0" d="M56.96 125.03l0.4 -0.75 0.13 0.84 -0.53 -0.09zm0.91 -3.4l-0.12 -0.02c-0.26,-0.04 -0.52,0.08 -0.64,0.31l-2.43 4.58 -0.04 0.48 0.31 0.36 0.09 0.05c0.3,0.14 0.65,0.03 0.8,-0.26l0.46 -0.85 1.4 0.24 0.15 0.95c0.05,0.3 0.31,0.51 0.6,0.51l0.07 -0 0.11 -0.01 0.41 -0.23 0.12 -0.47 -0.8 -5.12c-0.04,-0.26 -0.24,-0.47 -0.5,-0.51z"/>
  <path class="fil0" d="M64.55 122.29l-2.74 -0.19 -0.44 0.15 -0.21 0.42 -0 0.11c-0.02,0.33 0.23,0.62 0.57,0.65l0.71 0.05 -0.3 4.26 0.15 0.44 0.42 0.21 0.11 0.01 0.04 0c0.32,0 0.59,-0.24 0.61,-0.57l0.3 -4.26 0.71 0.05c0.34,0.02 0.62,-0.23 0.65,-0.56l0.01 -0.11 -0.14 -0.45 -0.42 -0.21z"/>
  <path class="fil0" d="M74.78 124.44c-0.12,0.1 -0.3,0.17 -0.53,0.2l-0.64 0.08 -0.17 -1.41 0.64 -0.08c0.23,-0.03 0.42,-0 0.56,0.07 0.11,0.06 0.25,0.18 0.3,0.54 0.04,0.37 -0.06,0.52 -0.15,0.6zm0.47 -2.31c-0.39,-0.2 -0.83,-0.27 -1.34,-0.21l-1.35 0.17 -0.41 0.23 -0.12 0.45 0.61 4.96c0.04,0.31 0.3,0.54 0.61,0.54l0.07 -0 0.1 -0.01 0.4 -0.23 0.12 -0.45 -0.18 -1.52 0.64 -0.08c0.49,-0.06 0.91,-0.23 1.24,-0.52 0.34,-0.29 0.71,-0.83 0.6,-1.76 -0.11,-0.91 -0.61,-1.35 -1,-1.55z"/>
  <path class="fil0" d="M80.34 123.42c-0.11,0.12 -0.28,0.2 -0.51,0.25l-0.63 0.14 -0.31 -1.38 0.63 -0.14c0.22,-0.06 0.41,-0.05 0.57,0.01 0.12,0.05 0.27,0.15 0.35,0.51 0.09,0.41 -0.04,0.55 -0.09,0.61zm0.94 0.95c0.46,-0.45 0.62,-1.09 0.45,-1.85 -0.2,-0.9 -0.74,-1.29 -1.15,-1.45 -0.4,-0.16 -0.86,-0.19 -1.35,-0.08l-1.32 0.3 -0.38 0.26 -0.08 0.46 1.1 4.87 0.27 0.38 0.33 0.1 0.13 -0.02 0.1 -0.02c0.33,-0.07 0.53,-0.4 0.46,-0.73l-0.34 -1.49 0.57 -0.13 1.28 1.58c0.2,0.25 0.58,0.3 0.84,0.1l0.08 -0.07 0.24 -0.41 -0.13 -0.46 -1.1 -1.36z"/>
  <path class="fil0" d="M86.44 123.88l-0.41 0.35 -0.23 0.04 -0.31 -0.08 -0.36 -0.41 -0.69 -2.08 0.04 -0.54 0.41 -0.36 0.23 -0.04 0.31 0.08 0.35 0.41 0.69 2.08 -0.04 0.55zm0.61 -3.05c-0.17,-0.52 -0.52,-0.93 -1.02,-1.18 -0.5,-0.25 -1.03,-0.29 -1.55,-0.12 -0.53,0.18 -0.93,0.52 -1.18,1.02 -0.24,0.49 -0.28,1.02 -0.11,1.55l0.69 2.08c0.18,0.53 0.52,0.93 1.02,1.18 0.29,0.14 0.59,0.21 0.9,0.21l0.66 -0.1c0.53,-0.18 0.92,-0.52 1.17,-1.02 0.25,-0.49 0.29,-1.02 0.12,-1.55l-0.69 -2.08z"/>
  <path class="fil0" d="M91.02 119.78l-0.46 0.35 -0.58 0.26 -0.58 -1.29 0.59 -0.26 0.56 -0.09c0.13,0.02 0.29,0.09 0.44,0.43 0.15,0.34 0.09,0.51 0.03,0.61zm-0.23 -2.35c-0.42,-0.08 -0.88,-0.02 -1.34,0.19l-1.24 0.55 -0.32 0.33 0.01 0.47 2.02 4.56 0.34 0.32 0.22 0.04 0.25 -0.05 0.09 -0.04c0.31,-0.14 0.44,-0.5 0.31,-0.8l-0.62 -1.4 0.59 -0.26c0.46,-0.2 0.81,-0.49 1.04,-0.85 0.24,-0.38 0.44,-1 0.06,-1.86 -0.37,-0.84 -0.97,-1.11 -1.41,-1.19z"/>
  <path class="fil0" d="M96.04 117.2l-0.41 0.39 -0.56 0.32 -0.7 -1.23 0.56 -0.32 0.49 -0.15 0.05 0c0.13,0.01 0.3,0.06 0.48,0.38 0.19,0.32 0.14,0.5 0.09,0.6zm1.18 0.64c0.31,-0.57 0.28,-1.22 -0.11,-1.89 -0.45,-0.8 -1.08,-1.01 -1.52,-1.05 -0.44,-0.04 -0.88,0.07 -1.32,0.32l-1.18 0.67c-0.29,0.16 -0.39,0.54 -0.23,0.83l2.47 4.34 0.37 0.29 0.16 0.02 0.3 -0.08 0.09 -0.05c0.29,-0.16 0.4,-0.54 0.23,-0.83l-0.76 -1.33 0.51 -0.29 1.68 1.14c0.27,0.19 0.64,0.12 0.83,-0.14l0.07 -0.08 0.11 -0.46 -0.26 -0.4 -1.45 -0.99z"/>
  <path class="fil0" d="M99.82 112.43c-0.2,-0.28 -0.57,-0.34 -0.85,-0.15l-0.09 0.06 -0.25 0.39 0.1 0.45 2.85 4.04 0.5 0.26 0.35 -0.11 0.09 -0.06 0.25 -0.39 -0.1 -0.46 -2.84 -4.04z"/>
  <path class="fil0" d="M104.09 109.02c-0.22,-0.26 -0.6,-0.28 -0.86,-0.07l-0.08 0.07 -0.21 0.42 0.14 0.44 3.23 3.74 0.46 0.21 0.39 -0.14 0.09 -0.07 0.21 -0.42 -0.15 -0.45 -3.22 -3.74z"/>
  <path class="fil0" d="M109.81 106.54c-0.31,0.11 -0.58,0.21 -0.81,0.29l-0.57 0.21c-0.26,0.09 -0.43,0.08 -0.59,-0.06l-0.14 -0.28 0.16 -0.37c0.06,-0.06 0.26,-0.24 0.95,-0.59 0.25,-0.13 0.38,-0.41 0.31,-0.67l-0.02 -0.11 -0.29 -0.39 -0.48 -0.06c-0.52,0.15 -1.01,0.46 -1.44,0.91 -0.39,0.41 -0.57,0.9 -0.52,1.43 0.04,0.43 0.23,0.8 0.54,1.1 0.39,0.38 0.88,0.55 1.43,0.49l0.07 -0.01 0.36 -0.1 0.33 -0.11 0.87 -0.31 0.36 -0.11 0.2 -0.03 0.26 0.11 0.13 0.28 -0.12 0.33c-0.02,0.02 -0.22,0.21 -1.3,0.65 -0.27,0.11 -0.42,0.39 -0.37,0.67l0.02 0.1 0.25 0.39 0.35 0.11 0.11 -0.01c0.34,-0.06 0.68,-0.18 1.02,-0.36 0.35,-0.18 0.64,-0.4 0.87,-0.64 0.37,-0.38 0.54,-0.86 0.49,-1.38 -0.04,-0.44 -0.22,-0.82 -0.53,-1.1 -0.49,-0.47 -1.14,-0.61 -1.93,-0.35z"/>
  <path class="fil0" d="M39.66 24.43c-0.07,0.36 -0.24,0.63 -0.55,0.83 -0.31,0.21 -0.64,0.27 -0.99,0.2 -0.36,-0.07 -0.63,-0.24 -0.84,-0.56l-1.78 -2.66c-0.21,-0.31 -0.27,-0.62 -0.2,-0.98 0.07,-0.36 0.25,-0.63 0.56,-0.84 0.23,-0.15 0.46,-0.23 0.71,-0.23l0.28 0.03c0.36,0.07 0.63,0.25 0.84,0.56l1.78 2.66c0.21,0.31 0.28,0.63 0.2,0.99zm-0.84 -4.42c-0.41,-0.61 -0.99,-1 -1.71,-1.14 -0.72,-0.14 -1.41,-0 -2.02,0.4 -0.61,0.41 -1,0.99 -1.14,1.72 -0.14,0.72 -0,1.4 0.41,2.02l1.78 2.66c0.41,0.62 0.99,1 1.71,1.14l0.54 0.05c0.52,0 1.02,-0.16 1.48,-0.47 0.61,-0.41 1,-0.99 1.14,-1.71 0.14,-0.72 0.01,-1.4 -0.41,-2.02l-1.78 -2.66z"/>
  <path class="fil0" d="M49.51 16.25c-0.17,0.24 -0.45,0.42 -0.83,0.56l-1.14 0.42 -0.9 -2.47 1.14 -0.42c0.38,-0.13 0.7,-0.17 0.99,-0.09 0.22,0.06 0.56,0.21 0.79,0.84 0.24,0.64 0.08,0.98 -0.05,1.16zm0.92 1.05c0.66,-0.7 0.81,-1.62 0.43,-2.68 -0.42,-1.15 -1.18,-1.56 -1.75,-1.71 -0.56,-0.14 -1.17,-0.1 -1.8,0.13l-1.86 0.68c-0.32,0.11 -0.48,0.47 -0.37,0.78l2.5 6.85 0.32 0.35 0.26 0.05 0.21 -0.04 0.15 -0.05c0.32,-0.11 0.48,-0.47 0.37,-0.78l-0.86 -2.36 1.14 -0.42 0.09 -0.03 2.27 2.17c0.24,0.23 0.61,0.22 0.85,-0l0.11 -0.11 0.18 -0.44 -0.18 -0.44 -2.04 -1.95z"/>
  <path class="fil0" d="M63.22 16.88l-2.5 0.27 -0.29 -2.61 1.71 -0.19 0.41 -0.22 0.13 -0.45 -0.02 -0.16c-0.03,-0.33 -0.34,-0.57 -0.67,-0.53l-1.71 0.18 -0.19 -1.81 2.5 -0.27 0.41 -0.23 0.13 -0.45 -0.01 -0.16c-0.04,-0.34 -0.34,-0.57 -0.68,-0.54l-3.26 0.35 -0.41 0.22 -0.13 0.44 0.79 7.33c0.03,0.31 0.3,0.54 0.6,0.54l0.07 -0 3.26 -0.35 0.41 -0.22 0.13 -0.45 -0.02 -0.15c-0.04,-0.33 -0.34,-0.57 -0.67,-0.54z"/>
  <path class="fil0" d="M73.53 18.55l2.07 0.27 0.08 0 0.37 -0.13 0.23 -0.4 0.54 -4.13 -0.12 -0.45 -0.4 -0.23 -1.27 -0.17c-0.34,-0.05 -0.64,0.19 -0.69,0.52l-0.02 0.16 0.12 0.45 0.41 0.24 0.51 0.07 -0.34 2.61 -1.3 -0.17c-0.4,-0.05 -0.68,-0.2 -0.9,-0.49 -0.22,-0.28 -0.29,-0.6 -0.24,-0.99l0.41 -3.17c0.06,-0.41 0.23,-0.7 0.55,-0.91 0.29,-0.2 0.6,-0.27 0.93,-0.22l1.98 0.26c0.34,0.05 0.64,-0.19 0.68,-0.52l0.02 -0.16 -0.12 -0.45 -0.4 -0.23 -1.98 -0.26c-0.68,-0.09 -1.31,0.07 -1.87,0.45 -0.65,0.43 -1.04,1.06 -1.14,1.87l-0.42 3.18c-0.1,0.75 0.08,1.42 0.52,2 0.44,0.57 1.04,0.91 1.8,1.01z"/>
  <path class="fil0" d="M84.64 18.48l1.17 -2.98c0.13,-0.34 0.35,-0.58 0.69,-0.73l0.52 -0.11 0.49 0.1c0.35,0.14 0.58,0.36 0.73,0.7 0.15,0.34 0.15,0.66 0.02,1.01l-1.16 2.98c-0.14,0.35 -0.36,0.59 -0.7,0.73l-0.52 0.12 -0.48 -0.1c-0.35,-0.14 -0.58,-0.36 -0.73,-0.7 -0.15,-0.34 -0.15,-0.66 -0.02,-1.01zm0.25 2.98c0.33,0.13 0.66,0.19 0.98,0.19 0.36,0 0.73,-0.07 1.07,-0.23 0.68,-0.3 1.16,-0.79 1.43,-1.48l1.16 -2.99c0.27,-0.69 0.25,-1.38 -0.05,-2.06 -0.3,-0.68 -0.79,-1.16 -1.48,-1.43 -0.69,-0.27 -1.39,-0.25 -2.07,0.04 -0.68,0.3 -1.15,0.8 -1.42,1.49l-1.16 2.99c-0.27,0.69 -0.26,1.38 0.04,2.06 0.29,0.68 0.8,1.15 1.49,1.43z"/>
  <path class="fil0" d="M93.72 25.87c0.27,0.2 0.65,0.12 0.85,-0.15l2.62 -3.72 -0.59 5.52 0.26 0.56 0.14 0.1 0.35 0.11 0.5 -0.26 4.16 -5.9 0.1 -0.45 -0.25 -0.39 -0.13 -0.09c-0.28,-0.19 -0.66,-0.12 -0.85,0.15l-2.62 3.73 0.59 -5.52 -0.25 -0.56 -0.14 -0.1 -0.45 -0.1 -0.4 0.24 -4.16 5.9 -0.1 0.45 0.25 0.4 0.13 0.09z"/>
  <path class="fil0" d="M113.77 58.22c1.26,-0.97 1.81,0.38 2.39,1.47 -1.2,-0.08 -2.44,-0.11 -3.64,-0.05 0.43,-0.53 0.83,-1.09 1.26,-1.42zm-3.4 2.86c2.26,0.4 4.9,0.27 7.17,0.07 0.69,-0.06 0.8,-0.79 0.41,-1.15l-0 -0.02c-0.64,-1.43 -1.36,-3.43 -3.15,-3.54 -0.96,-0.06 -1.87,0.57 -2.53,1.19 -0.58,0.54 -1.62,1.88 -2,2.08l-0.31 0.5c-0.13,0.34 0.02,0.81 0.41,0.88z"/>
  <path class="fil0" d="M93.63 57.49c1.32,0.18 1.43,1.05 1.7,1.86 -1.81,-0.15 -3.73,-0.2 -5.54,-0.05 1.02,-1.08 1.89,-2.08 3.85,-1.81zm-6.16 1.93c-0.27,0.28 -0.24,0.66 -0.05,0.93 0.06,0.2 0.21,0.38 0.43,0.43 2.76,0.51 6.06,0.38 8.85,0.07 0.55,-0.06 0.82,-0.77 0.55,-1.14l-0.15 -0.29c-0.5,-0.62 -0.31,-1.71 -0.9,-2.41 -0.68,-0.81 -1.57,-1 -2.59,-1.12 -2.94,-0.34 -4.29,1.65 -6.14,3.53z"/>
  <path class="fil0" d="M32.84 65.1c0.4,-0.17 0.66,-0.54 0.53,-0.98 -0.14,-0.49 2.43,-0.99 2.79,-1.1 0.71,-0.24 0.57,-1.35 -0.21,-1.32 -1.42,0.05 -3.92,0.54 -4.15,2.11 -2.21,0.76 -5.02,0.72 -7.28,1.14 -3.72,0.69 -7.55,0.49 -11.19,1.6 -0.8,0.25 -0.42,1.37 0.37,1.23 3.38,-0.62 6.81,-0.74 10.19,-1.31 2.83,-0.49 6.29,-0.22 8.95,-1.36z"/>
  <path class="fil0" d="M31.21 46.93c0.81,0.45 1.38,-0.71 0.67,-1.23 -0.75,-0.54 -1.37,-0.64 -2.22,-0.26 -1.13,0.5 -3.24,-0.23 -3.57,-1.47 -0.09,-0.34 -0.4,-0.5 -0.73,-0.53 -0.54,-0.04 -0.79,-1.4 -1.62,-1.47 -1.09,-0.08 -2.07,1.82 -2.54,0.05 -0.21,-0.79 -1.42,-0.43 -1.21,0.37 0.34,1.33 1.02,2.67 2.54,1.89 0.84,-0.43 0.81,-1.21 1.43,-0.15 0.22,0.36 0.5,0.56 0.83,0.68 0.31,0.97 0.82,1.86 1.95,1.98 0.65,0.07 1.1,0.33 1.73,0.48 0.98,0.25 1.67,-0.93 2.73,-0.34z"/>
  <path class="fil0" d="M33.51 48.34c1.75,1.03 2.77,1.01 4.77,1.54 0.85,0.22 1.83,0.81 2.72,0.79 0.33,0.02 0.65,0.01 0.97,-0.05 1.83,-0.45 1.29,0.57 2.55,0.72 2.2,0.28 4.84,-0.85 6.68,0.87 1.27,1.19 4.03,1.21 5.6,1.44l0.29 -0.01c0.89,0.11 1.62,0.04 2.53,-0.17 0.68,-0.16 1.34,-0.51 1.99,-0.77 0.59,-0.23 2.36,0.52 3.17,0.84 1.92,0.74 4.81,0.87 6.81,0.28 1.7,0.5 3.29,1.56 5.12,1.61 2.87,0.07 5.35,1.01 6.62,3.54 -1.7,0.19 -3.39,0.28 -5.09,0.36l-0.53 -0.04c-0.13,-0.35 -0.36,-0.68 -0.58,-0.94 -0.58,-0.7 -1.09,-1.15 -1.13,-2.08 -0.03,-0.66 -0.85,-0.81 -1.19,-0.29 -0.53,0.81 -0.05,1.8 0.48,2.47 0.2,0.25 0.42,0.48 0.63,0.72 -0.55,-0.03 -1.1,-0.07 -1.64,-0.11 -0.86,-0.07 -1.72,-0.16 -2.57,-0.23 -0.32,-0.96 -1.12,-1.79 -1.16,-2.86 -0.04,-0.89 -1.4,-0.86 -1.39,0.03 0.02,0.8 0.21,1.54 0.61,2.23l0.35 0.52c-0.74,-0.02 -1.48,0 -2.22,0.09 -0.66,0.08 -0.91,1.14 -0.14,1.26 0.34,0.05 0.69,0.09 1.04,0.12 -6.02,1.26 -11.77,2.49 -17.95,2.72 -1.15,0.05 -1.04,1.63 0.04,1.73 5.48,0.51 11,-0.91 16.31,-2.12 3.06,-0.69 5.99,-1.14 9.12,-1.16 2.75,-0.01 5.69,0.18 8.29,-0.86 0.69,-0.28 0.76,-1.35 0.18,-1.64 -0.84,-2.02 -2.17,-3.4 -4.23,-4.37 -0.94,-0.44 -2.05,-0.52 -3.08,-0.61 -1.93,-0.16 -3.78,-1 -5.68,-1.39l-0.36 0.03c-2.73,0.59 -5.3,-0.18 -7.85,-1.03 -2.24,-0.75 -4.11,0.87 -6.4,0.85l-0.07 -0.03c-3.66,-1.06 -7.29,-3.31 -11.26,-2.6 -1.27,0.23 -1.61,-0.79 -2.61,-0.74 -1.3,0.07 -2.52,0.22 -3.78,-0.2 -1.13,-0.38 -2.15,-0.68 -3.33,-0.83 -0.76,-0.09 -1.38,-0.73 -2.15,-0.88 -0.74,-0.13 -1.15,0.84 -0.48,1.23z"/>
  <path class="fil0" d="M30.79 49.69c0.25,0.94 0.76,1.48 1.51,2.1 1.37,1.14 2.17,3.02 3.21,4.46 0.9,1.24 2.05,2.11 3.27,3.01 0.53,0.39 0.96,0.86 1.41,1.28 -0.73,0.16 -1.46,0.39 -2.2,0.75 -0.66,0.31 -0.15,1.35 0.52,1.15 4.28,-1.3 8.77,-1.08 13.13,-2.08 4.38,-1 8.94,-0.04 13.36,-0.62l0.31 -0.04 0.12 -0.02c0.49,-0.07 0.69,-0.53 0.6,-0.88 0.15,-0.39 0.19,-0.82 0.14,-1.26 -0.07,-0.66 -0.36,-1.17 -0.11,-1.81 0.22,-0.57 -0.53,-0.98 -0.98,-0.72 -0.57,0.34 -0.66,0.99 -0.57,1.6 0.1,0.66 0.29,1.18 0.09,1.75 -0.62,0 -1.24,-0 -1.88,-0.01 -0.72,-0.4 -1.55,-0.59 -2.25,-1.04 -0.66,-0.44 -0.93,-1.19 -1.13,-1.92 -0.19,-0.74 -1.21,-0.49 -1.25,0.2 -0.06,1.07 0.37,1.99 1.15,2.7 -2.38,-0.02 -4.75,0.05 -7,0.49 -2.66,0.53 -5.21,1.1 -7.93,1.29 -0.71,0.05 -1.39,0.09 -2.06,0.16l-0.01 -0c-0.98,-0.43 -1.62,-1.38 -2.4,-2.08 -1.26,-1.11 -2.42,-1.95 -3.43,-3.34 -0.74,-1.03 -1.37,-2.15 -2.05,-3.21 -0.64,-0.98 -1.83,-1.37 -2.41,-2.43 -0.36,-0.65 -1.34,-0.16 -1.15,0.52z"/>
  <path class="fil0" d="M85.22 57.18c1.29,-0.23 2.61,-0.28 3.9,-0.53 0.9,-0.17 0.47,-1.5 -0.41,-1.35 -1.29,0.21 -2.58,0.35 -3.86,0.69 -0.79,0.21 -0.41,1.33 0.36,1.2z"/>
  <path class="fil0" d="M67.06 132.29l-0.37 0c-17.42,-0.09 -33.77,-6.97 -46.02,-19.36 -10.74,-10.86 -17.21,-24.81 -18.58,-39.83 1.37,0.54 2.82,0.68 4.29,0.83 -0.11,1.89 -0.08,3.83 -0.04,5.72 0.02,0.97 1.48,0.92 1.5,-0.04 0.03,-1.83 0.07,-3.7 -0.03,-5.54l0.38 0.05c1.46,0.21 2.49,0.85 3.33,1.69 -0,1.93 -0.02,3.85 -0.12,5.77l-0.02 0.2c-0.01,0.75 0,1.48 0.09,2.23 0.09,0.7 1.24,0.97 1.35,0.14 0.11,-0.81 0.13,-1.6 0.12,-2.41l-0.02 -0.2c-0.07,-1.38 -0.1,-2.76 -0.11,-4.15 0.69,0.99 1.33,2.07 2.14,3.04 0.19,0.23 0.4,0.44 0.6,0.64 -0.32,2.91 -0.16,6 -0.07,8.92 0.03,0.96 1.44,0.91 1.47,-0.03 0.08,-2.52 0.23,-5.2 0.04,-7.76 1.11,0.72 2.31,1.25 3.48,1.9 -0.31,4.14 -0.1,8.45 0.06,12.58 0.03,0.85 1.28,0.81 1.32,-0.03 0.15,-3.81 0.34,-7.77 0.13,-11.61l0.21 0.15c0.9,0.68 1.94,1 3.03,1.15 -0.3,3.41 -0.25,7.05 0.06,10.43 0.08,0.91 1.3,0.84 1.38,-0.03 0.3,-3.33 0.35,-6.91 0.07,-10.28 0.65,0.02 1.3,0.02 1.93,0.04 0.41,0.01 0.81,0.05 1.21,0.1 -0.24,3.25 -0.22,6.63 -0.02,9.87 0.06,0.89 1.31,0.84 1.36,-0.03 0.2,-3.15 0.22,-6.42 0,-9.59 1,0.24 1.98,0.58 2.95,0.98 -0.29,6.43 -0.13,12.97 0.07,19.39 0.02,0.85 1.28,0.8 1.3,-0.03 0.19,-6.21 0.35,-12.52 0.1,-18.74 0.95,0.42 1.89,0.85 2.83,1.25 -0.49,4.26 -0.08,8.78 0.03,13.05 0.02,0.84 1.27,0.8 1.29,-0.03 0.11,-4.04 0.49,-8.33 0.1,-12.38 0.99,0.53 2.05,1.32 3.03,2.23 -0.22,5.67 -0.31,11.52 0.06,17.18 -0.04,0.48 0.32,0.7 0.7,0.68 0.4,0.03 0.81,-0.21 0.76,-0.72 0.33,-5.06 0.29,-10.26 0.13,-15.36 0.73,0.92 1.32,1.87 1.63,2.73 0.43,1.19 1.35,3.37 2.52,4.41 -0.18,3.32 -0.22,6.66 0,9.97 0.06,0.87 1.28,0.82 1.34,-0.03 0.2,-3.09 0.18,-6.2 0.03,-9.28 0.91,0.17 1.87,0.06 2.71,0.48l0.54 0.32 0 0.21c0.63,4.79 -0.1,9.78 0.21,14.6 -0.03,0.46 0.33,0.67 0.69,0.65 0.37,0.01 0.74,-0.21 0.71,-0.68 0.28,-4.41 -0.31,-8.96 0.09,-13.36 0.38,0.35 0.77,0.68 1.18,0.96 0.75,0.51 1.49,-0.63 0.9,-1.23 -1.31,-1.35 -3.36,-3.68 -5.48,-3.52 -3.04,0.23 -3.7,-4.5 -4.95,-6.47 -1.09,-1.71 -3.56,-3.59 -5.21,-4.74 -2.61,-1.82 -6.02,-3 -9.01,-4.05 -3.23,-1.14 -6.9,0.26 -9.76,-1.96 -0.85,-0.66 -1.57,-1.25 -2.61,-1.65 -2.25,-0.88 -3.41,-1.91 -4.72,-3.91 -1.39,-2.12 -2.54,-4.05 -4.95,-5.09 -2.69,-1.17 -5.78,-0.48 -8.5,-1.63 -0.01,-0.32 -0.03,-0.63 -0.05,-0.95l0.37 -0.02c5.39,-1.06 9.19,1.3 13.22,4.61 0.97,0.8 2.01,1.51 3.08,2.15 -0.03,0.76 -0.04,1.53 -0.04,2.29 0.02,0.89 1.38,0.85 1.38,-0.04 0.01,-0.5 0,-1.01 -0,-1.51 0.9,0.48 1.83,0.91 2.77,1.32 -0.04,0.69 -0.1,1.39 0.03,2.07 0.13,0.63 1.12,0.58 1.24,-0.03 0.1,-0.48 0.09,-0.99 0.06,-1.49 0.97,0.38 1.94,0.74 2.93,1.08l-0.03 0.5c0,0.28 0.02,0.56 0.04,0.84 0.05,0.84 1.24,0.78 1.29,-0.03 0.02,-0.28 0.03,-0.56 0.03,-0.84l0 -0.01c0.29,0.1 0.59,0.2 0.88,0.29 1.67,0.55 3.4,0.96 5.13,1.37 -0,0.25 -0.01,0.5 -0,0.74 0.01,0.81 1.23,0.77 1.25,-0.03l-0 -0.42c0.9,0.22 1.78,0.44 2.66,0.7 -0.02,0.68 0.01,1.36 0.04,2.03 0.04,0.82 1.23,0.78 1.27,-0.03 0.02,-0.53 0.04,-1.06 0.04,-1.58 0.81,0.27 1.6,0.58 2.38,0.93 -0.03,0.74 0.06,1.52 0.1,2.2 0.04,0.85 1.26,0.8 1.3,-0.03 0.02,-0.45 0.07,-0.93 0.09,-1.41 0.29,0.17 0.56,0.34 0.84,0.52 0.44,0.29 0.86,0.6 1.28,0.91 -0.02,0.81 -0.02,1.63 -0,2.44 0.02,0.83 1.26,0.79 1.28,-0.04 0.01,-0.48 0.01,-0.95 0.01,-1.44 0.97,0.74 1.95,1.46 3.01,2.08 -0.08,0.82 0,1.68 0,2.47 0,1.01 0.01,2.01 0.08,3.01 0.05,0.87 1.29,0.82 1.34,-0.03 0.06,-1 0.08,-2.01 0.08,-3.01 0,-0.54 0.04,-1.11 0.04,-1.66 0.83,0.35 1.69,0.62 2.57,0.88 -0.18,2 -0.01,4.14 0.1,6.11 0.06,0.85 1.26,0.8 1.31,-0.03 0.11,-1.8 0.27,-3.77 0.14,-5.62 0.83,0.25 1.66,0.52 2.45,0.86 0.53,0.23 0.99,0.56 1.41,0.93 -0.41,2.39 -0.09,5.12 0.02,7.51 0.03,0.85 1.27,0.81 1.31,-0.03 0.08,-1.8 0.28,-3.8 0.2,-5.69 1.19,1.66 2.23,3.49 4.17,4.17 -0.2,1.59 -0.08,3.38 0.06,4.9 0.09,0.91 1.31,0.85 1.39,-0.04 0.14,-1.38 0.24,-2.98 0.1,-4.45 0.89,0.3 1.67,0.86 2.47,1.39 -0.11,1.48 -0.05,2.99 -0.04,4.47 0,0.95 1.46,0.9 1.46,-0.04 0,-1.18 0.05,-2.39 0.01,-3.59l0.33 0.16c1.82,0.76 1.12,3.16 2.38,4.36 0.76,0.73 2.17,0.95 3.1,0.4 0.33,-0.2 1.54,-0.91 1.13,-1.49 0.27,0.39 0.72,0.7 1.16,0.86 0.38,0.14 0.76,0.26 1.15,0.37 -0.05,0.39 -0.11,0.86 -0.13,1.27 -0.03,0.59 -0.03,1.2 0.62,1.44 0.42,0.16 0.81,-0.23 0.93,-0.59 0.07,-0.21 0.05,-0.46 0.04,-0.69 -0,-0.36 -0.05,-0.75 -0.09,-1.09 1.03,0.22 2.09,0.39 3.15,0.53 -0.12,0.56 -0.1,1.12 -0.1,1.71 -0,1.03 0.02,2.07 0.13,3.09 0.08,0.7 1.25,0.96 1.34,0.15 0.09,-0.83 0.13,-1.67 0.15,-2.51 0.02,-0.71 0.09,-1.52 -0.04,-2.25 1.19,0.15 2.38,0.32 3.53,0.56 -0.14,0.62 -0.1,1.27 -0.11,1.89 -0.01,0.82 0.02,1.64 0.12,2.45 0.09,0.72 1.27,0.99 1.37,0.15 0.1,-0.77 0.13,-1.52 0.14,-2.29 0.01,-0.6 0.05,-1.23 -0.03,-1.83 1.47,0.42 2.87,1.02 4.14,1.97 1.27,0.95 3,-0.85 1.71,-1.8 -4.26,-3.18 -8.45,-2.81 -13.45,-3.73 -0.83,-0.16 -3.43,-0.43 -3.95,-1.15 -0.22,-0.31 -0.59,-0.59 -0.96,-0.68 -1.3,-0.33 -3.37,1.88 -3.7,0.61 -0.33,-1.29 -0.87,-2.84 -2.14,-3.5 -0.88,-0.46 -1.78,-0.73 -2.57,-1.36 -0.64,-0.52 -1.21,-1.54 -2.1,-1.69 -1.28,-0.22 -2.24,-0.24 -3.26,-1.17 -0.86,-0.79 -1.52,-1.81 -2.22,-2.74 -1.2,-1.59 -2.58,-2.79 -4.46,-3.47 -2.75,-1 -5.56,-1.54 -8.06,-3.12 -2.05,-1.3 -3.85,-2.97 -5.93,-4.24 -2.09,-1.27 -4.49,-1.68 -6.84,-2.24 -3.15,-0.74 -6.27,-1.62 -9.34,-2.64 -3.1,-1.04 -6.32,-2.31 -8.86,-4.42 -2.07,-1.72 -3.91,-3.68 -6.1,-5.25 -2.79,-1.99 -7.56,-2.88 -10.84,-1.49l-0 -0.64c0.02,-4.41 0.49,-8.72 1.36,-12.88 0.96,1.99 2.89,3.45 5,4.59 0.92,0.5 1.93,0.82 2.88,1.26 1.21,0.57 1.93,1.8 3.1,2.39 1.76,0.9 3.53,1.16 5.14,2.46 0.63,0.51 1.71,-0.21 1.17,-0.95 -0.71,-0.98 -1.75,-1.62 -2.81,-2.18 -0.44,-0.23 -1.03,-0.23 -1.49,-0.3 -1.34,-0.2 -2.37,-1.5 -3.37,-2.29 -1.33,-1.03 -3.04,-1.46 -4.51,-2.25 -2.53,-1.36 -3.93,-3.26 -4.33,-6.05 0.58,-2.17 1.26,-4.29 2.04,-6.37 1.81,3.01 5.36,4.63 7.31,7.53 1.41,2.1 2.95,4.08 5.19,5.3 1.59,0.87 3.08,1 4.69,2.12 1.29,0.89 2.65,1.78 4.08,2.44 0.79,0.36 1.37,-0.7 0.65,-1.18 -1.86,-1.25 -3.83,-3.01 -5.94,-3.84 -3.34,-1.31 -5.07,-2.91 -7.11,-5.8 -2.27,-3.19 -6.4,-5.06 -8.02,-8.68 0.43,-1.01 0.87,-2.02 1.35,-3.01 0.98,0.09 1.47,1.14 2.32,1.69 0.59,0.39 1.29,0.17 1.89,-0.13 1.43,1.36 4.06,-0.02 5.67,1.12 0.62,0.44 1.24,-0.53 0.76,-1.03 -0.62,-0.65 -1.14,-0.88 -2.06,-0.92 -0.92,-0.04 -3,0.47 -3.53,-0.53 -0.2,-0.38 -0.69,-0.43 -1.03,-0.24 -1.42,0.77 -1.94,-1.07 -3.09,-1.56l-0.12 -0.03c2.25,-4.38 4.99,-8.48 8.14,-12.23 4.48,-2.41 9.08,1.27 8.98,6.51 -0.01,0.75 1.18,0.89 1.32,0.14 0.09,-0.51 0.12,-1.01 0.11,-1.5 3.19,-1.79 6.59,-0.13 7.93,3.15 0.33,0.81 1.45,0.47 1.28,-0.39 -0.05,-0.26 -0.12,-0.52 -0.21,-0.78l0.02 -0.02c1.52,-1.92 4.02,-1.68 5.21,0.28 -0.5,1.14 -0.72,2.47 -0.55,3.97 0.11,1.01 1.45,0.94 1.55,-0.04 0.38,-3.89 2.27,-6.67 6.36,-7.15 3.48,-0.41 6.74,1.53 7.76,4.87 -0.19,0.47 -0.31,0.98 -0.32,1.51 -0.01,0.61 0.96,0.9 1.2,0.3 0.5,-1.27 1.14,-2.74 2.77,-2.55 1.63,0.19 2.57,1.8 2.93,3.24 0.18,0.73 1.37,0.54 1.31,-0.21 -0.06,-0.67 -0.23,-1.33 -0.5,-1.92 0.95,-1.09 2.42,-2.26 3.53,-0.76 0.51,0.68 1.54,0.06 1.12,-0.7 -1.35,-2.5 -4,-1.59 -5.45,0.21 -0.68,-0.78 -1.62,-1.33 -2.76,-1.45 -1.1,-0.11 -2.07,0.24 -2.8,0.89 -2.23,-6.5 -11.7,-6.48 -15.32,-1.62 -1.52,-2.09 -4.89,-2.08 -6.65,-0.09 -1.75,-2.76 -5.64,-3.86 -8.58,-2.24 -0.87,-3.79 -4.62,-6.38 -8.27,-5.89 11.94,-12.97 29.04,-21.11 47.96,-21.11l0.37 0c23.41,0.13 43.91,12.64 55.31,31.28 -1.15,0.12 -2.27,0.61 -3.12,1.35 -2.97,-2.21 -7.94,0.02 -7.82,3.69 -0.88,-0.33 -1.85,-0.4 -2.86,-0.16 -0.94,0.22 -1.73,0.79 -2.27,1.54 -2,-1.89 -5.88,-0.11 -6.44,2.54 -0.17,0.8 0.99,1.08 1.23,0.3 0.56,-1.85 3.15,-3.1 4.57,-1.53 -0.12,0.45 -0.18,0.92 -0.14,1.39 0.05,0.69 1.15,0.88 1.26,0.14 0.53,-3.36 3.87,-3.82 6.03,-1.52 0.5,0.54 1.41,-0.21 1,-0.81 -0.28,-0.41 -0.61,-0.77 -0.97,-1.06 -0.39,-1.52 0.46,-2.77 1.73,-3.52 1.21,-0.72 2.61,-0.61 3.78,0.05 -0.56,0.91 -0.78,2.01 -0.43,3.23 0.2,0.67 1.34,0.52 1.24,-0.2 -0.33,-2.47 1.82,-4.22 4.1,-3.92 1.34,2.33 2.54,4.75 3.59,7.24 -0.95,0.14 -1.92,0.5 -2.62,0.84 -0.46,0.22 -0.91,0.5 -1.32,0.81 -1.36,-1.32 -3.93,-0.79 -5.07,0.67 -0.54,0.68 0.34,1.54 0.98,0.93 0.89,-0.84 2,-1 2.95,-0.48 -0.42,0.55 -0.74,1.17 -0.87,1.88 -0.14,0.74 0.95,1.26 1.28,0.5 0.63,-1.44 1.53,-2.41 2.98,-3.05 0.78,-0.35 1.55,-0.42 2.34,-0.51 0.6,1.53 1.13,3.08 1.62,4.66 -1.46,0.33 -2.82,0.82 -4.4,0.93 -2.73,0.19 -4.96,0.01 -7.47,-1.2 -3.93,-1.89 -7.21,-2.65 -11.6,-2.64 -2.56,0 -5.08,0.13 -7.62,-0.28 -2.41,-0.39 -4.66,-1.57 -7.03,-2.16 -1.73,-0.43 -3.46,-0.15 -5.14,0.31 -2.92,0.79 -5.13,-0.51 -7.92,-1.07 -1.59,-0.32 -3.2,0.03 -4.74,0.42 -2.37,0.59 -4.76,0.6 -7.19,0.54 -3.87,-0.09 -7.05,-2.11 -10.86,-1.23 -5,1.15 -9.74,3.21 -14.83,1.59 -4.05,-1.28 -7.7,-0.84 -11.9,-0.64 -0.97,0.05 -0.94,1.52 0.04,1.51 2.09,-0.03 4.17,-0.19 6.27,-0.27 2.17,-0.08 4.08,0.57 6.11,1.21l0.35 0.09c3.32,1.42 7.06,1.68 10.22,3.5 0.64,0.36 1.32,-0.55 0.76,-1.04 -1.19,-1.03 -2.71,-1.5 -4.2,-1.94 -0.5,-0.15 -1,-0.28 -1.51,-0.43 2.16,-0.4 4.29,-1.18 6.53,-1.66 2.64,-0.56 4.74,-1.19 7.37,-0.13 0.6,0.24 1.24,0.39 1.9,0.49 2.32,0.74 4.63,1.52 6.84,2.58 1.08,0.51 2.08,1.4 3.26,1.7 1.75,0.43 3.5,-0.07 5.23,0.47 0.68,0.21 1.13,-0.91 0.46,-1.17 -1.19,-0.47 -1.82,-0.53 -3.15,-0.42 -2.19,0.19 -4.04,-1.32 -5.92,-2.2 -0.45,-0.21 -0.91,-0.41 -1.38,-0.6 1.34,0.01 2.69,-0.06 4.01,-0.22 2.75,-0.35 4.97,-1.03 7.76,-0.18 1.82,0.56 3.32,1.19 5.26,1.03 2.52,-0.21 4.3,-1.11 6.97,-0.41 0.58,0.15 1.14,0.33 1.69,0.52 1.62,0.93 3.25,1.84 4.83,2.85 1.74,1.11 3.46,2.27 5.47,2.83 0.74,0.21 1.17,-0.9 0.49,-1.26 -1.55,-0.8 -3.06,-1.81 -4.6,-2.8 2.05,0.17 4.15,0.05 6.2,0.03 2.86,-0.03 5.66,0.23 8.31,1.37 1.68,0.73 3.25,1.59 5,2.18 1.88,0.63 3.82,0.4 5.75,0.35 1.8,-0.05 3.2,-0.59 4.84,-0.91 0.3,1.09 0.58,2.2 0.82,3.32 -1.2,-0 -2.41,0.33 -3.61,0.36 -2.66,0.09 -5.23,0.16 -7.85,0.38 -1.37,-0.65 -2.41,-1.82 -3.76,-2.51 -1.4,-0.72 -3.08,-0.51 -4.58,-0.45 -0.7,0.03 -0.86,1.1 -0.14,1.25 1.5,0.32 2.99,-0.04 4.4,0.69 0.63,0.32 1.16,0.77 1.71,1.21 -2.63,0.14 -5.28,-0.47 -7.92,-0.01 -2.77,0.48 -5.55,0.44 -8.32,0.62 -1.12,-1.34 -2.54,-2.46 -4.22,-3.04 -2.75,-0.96 -5.68,-0.47 -8.49,-1.31 -0.67,-0.2 -1.12,0.89 -0.46,1.16 1.66,0.68 3.28,1.03 5.07,1.13 2.35,0.14 4.24,0.82 5.89,2.26 -0.27,0.03 -0.53,0.06 -0.8,0.1 -0.82,0.13 -1.17,1.45 -0.18,1.62 2.85,0.46 5.8,0.25 8.65,-0.16 3.27,-0.47 6.09,-0.64 9.39,-0.44 3.15,0.18 6.35,-0.5 9.51,-0.55 1.84,-0.03 4.28,-0.54 6.13,-0.1 0.06,0.34 0.12,0.67 0.18,1.01 -2.2,-0.7 -4.23,0.09 -6.74,-0.01 -2.78,-0.11 -4.94,2.31 -5.89,4.72 -0.19,0.47 0.07,0.9 0.43,1.05l0.32 0.11c4.08,0.27 8.53,0.56 12.6,0.08 0.02,0.3 0.04,0.62 0.06,0.93l-0.21 -0.04c-3.82,-0.14 -7.77,-0.32 -11.57,0.04 -0.82,0.07 -0.77,1.19 0.03,1.26 3.8,0.36 7.75,0.18 11.57,0.04l0.24 -0.05c0.02,0.57 0.04,1.15 0.05,1.72 -2.74,-0.28 -5.65,-0.06 -8.38,0.08 -0.81,0.04 -0.77,1.21 0.03,1.25 2.71,0.14 5.64,0.38 8.36,0.08 -0.28,35.71 -29.5,64.73 -65.22,64.73zm64.93 -71.5c-3.69,-0.4 -7.66,-0.22 -11.39,0.01 0.35,-0.61 0.72,-1.2 1.16,-1.76 1.24,-1.58 2.69,-1.21 4.33,-1.06l0.08 0.13 0.21 0.32 0.1 0.15 0.06 0.08c0.26,0.66 1.33,0.57 1.29,-0.21 -0.01,-0.22 -0.07,-0.44 -0.14,-0.66 0.75,-0.19 1.49,-0.43 2.38,-0.26 0.57,0.11 1.09,0.44 1.62,0.73 0.11,0.83 0.21,1.67 0.3,2.51zm0.89 -6.55l-0.07 -0.34c-0.77,-3.89 -1.89,-7.66 -3.31,-11.28l-0.17 -0.42c-9.84,-24.58 -33.84,-42.05 -61.91,-42.2l-0.38 -0c-27.72,0 -51.62,17 -61.81,41.12l-0.18 0.44c-3.21,7.76 -5.01,16.25 -5.06,25.13 -0.1,17.91 6.78,34.79 19.38,47.53 12.59,12.73 29.4,19.8 47.31,19.9l0.37 0c17.84,0 34.62,-6.93 47.27,-19.5 12.65,-12.58 19.68,-29.34 19.78,-47.19 0.03,-4.51 -0.4,-8.92 -1.23,-13.18z"/>
  <path class="fil0" d="M45.37 75.07c0.27,-0.65 0.7,-0.91 1.72,-0.76 0.4,0.06 0.66,0.38 0.89,0.73 -0.87,-0.06 -1.76,-0.07 -2.61,0.02zm3.36 -1.43c-0.62,-0.68 -1.37,-0.79 -2.25,-0.84 -1.73,-0.1 -2.65,1.33 -2.66,2.9l0.08 0.31c0.06,0.2 0.2,0.37 0.43,0.42 1.57,0.37 3.44,0.24 5.04,0.07 0.56,-0.07 0.82,-0.83 0.48,-1.16l-0.07 -0.17c-0.34,-0.5 -0.64,-1.08 -1.05,-1.53z"/>
  <path class="fil0" d="M86.75 88.32c0.52,0.09 0.94,0.27 1.34,0.51 -1.27,-0.06 -2.57,-0.04 -3.81,0.09 0.64,-0.62 1.42,-0.79 2.48,-0.61zm-3.77 1.97c2.21,0.35 4.8,0.39 7.02,0.09 0.4,-0.06 0.65,-0.44 0.65,-0.8l-0.06 -0.58c-0.74,-1.41 -2.8,-2.03 -4.26,-2.18 -1.66,-0.18 -3.31,0.82 -3.82,2.41l0.02 0.4c-0.07,0.29 0.05,0.6 0.44,0.66z"/>
  <path class="fil0" d="M95.92 90.69c-1.01,-0.01 -2.03,-0.07 -3.03,-0 0.96,-1.07 2.42,-1.17 3.92,-0.93 0.87,0.14 1.52,0.53 2.15,0.97 -1.01,-0.03 -2.02,-0.03 -3.03,-0.04zm0.27 -2.44c-2.09,-0.18 -4.33,0.45 -5.04,2.64l-0.03 0.24c-0.22,0.34 -0.07,0.9 0.38,1.01 1.45,0.35 2.98,0.2 4.46,0.19 1.67,-0.01 3.33,0 5,-0.12 0.51,-0.04 0.71,-0.45 0.64,-0.81l0.01 -0.39c-0.48,-1.9 -3.78,-2.62 -5.41,-2.75z"/>
  <path class="fil0" d="M123.69 76.63c0.49,-0.43 1.06,-0.69 1.9,-0.69 0.67,0 1.22,0.28 1.69,0.67 -1.19,-0.03 -2.4,-0.07 -3.58,0.01zm-2.06 0.24l-0.03 0.09c-0.45,0.25 -0.36,1.04 0.18,1.16 2.28,0.53 4.85,0.24 7.18,0.25 0.27,0.01 0.47,-0.08 0.61,-0.24 0.26,-0.16 0.43,-0.47 0.29,-0.86 -1.23,-3.39 -6.76,-3.96 -8.22,-0.41z"/>
  <path class="fil0" d="M93.04 64.3c0.81,-0.07 0.79,-1.27 -0.03,-1.27 -3.13,0.02 -5.99,1.21 -8.97,2.03 -2.75,0.75 -5.47,0.85 -7.76,2.73 -0.58,0.47 0.2,1.38 0.81,0.99 2.3,-1.47 4.75,-1.8 7.37,-2.37 0.56,-0.13 1.11,-0.27 1.65,-0.42 4.29,0.38 8.73,0.12 13.02,0 0.85,-0.02 0.8,-1.29 -0.03,-1.31 -2.45,-0.07 -4.94,-0.18 -7.43,-0.19 0.45,-0.08 0.91,-0.15 1.37,-0.19z"/>
  <path class="fil0" d="M81.32 94.21c-4.38,-0.91 -9.8,-2.12 -13.53,-4.61 -1.44,-0.96 -2.77,-1.95 -4.48,-2.33 -1.46,-0.33 -5.83,0.41 -5.92,-1.92 -0.04,-1.22 -0.23,-1.54 -1.2,-2.25 -4.67,-3.43 0.46,-5.57 2.71,-6.71 4.22,-2.12 8.31,-3.66 12.84,-4.98 0.77,-0.22 0.41,-1.41 -0.36,-1.19 -3.52,0.98 -6.78,2.07 -9.97,3.47l-0.06 -0.02c-2.95,-0.13 -6.03,-0.24 -8.98,0.02 -0.82,0.06 -0.77,1.18 0.03,1.25 2,0.17 4.06,0.17 6.11,0.12 -0.87,0.44 -1.74,0.9 -2.61,1.39 -1.09,0.62 -2,1.45 -2.59,2.36 -2.94,-0.19 -6.1,-0.32 -9.01,0.03 -0.66,0.08 -0.91,1.17 -0.14,1.26 2.76,0.34 5.73,0.26 8.54,0.09 -0.06,0.27 -0.08,0.55 -0.08,0.82 -1.05,-0.04 -2.13,0 -3.14,0.11 -0.66,0.08 -0.89,1.16 -0.14,1.24 1.2,0.14 2.49,0.2 3.72,0.12 0.35,0.59 0.91,1.15 1.75,1.64 0.32,0.19 0.54,0.42 0.7,0.67 -0.44,0 -0.89,0.04 -1.29,0.04 -0.98,0 -1.94,0.02 -2.92,0.1 -0.82,0.07 -0.77,1.19 0.03,1.26 0.98,0.08 1.94,0.1 2.92,0.1 0.57,0 1.21,0.07 1.8,0.01 0.17,0.54 0.4,1.04 1,1.39 2.17,1.25 4.68,0.58 6.94,1.49 2.45,0.98 4.27,2.99 6.86,3.83 3.19,1.03 6.8,2.01 10.12,2.48 0.84,0.12 1.18,-1.11 0.32,-1.29z"/>
  <path class="fil0" d="M56.78 65.5c-1.05,0.38 -2.08,0.81 -3.11,1.23l-0.23 -0.06c-2.73,-0.09 -5.49,-0.02 -8.22,0.02 -0.8,0.01 -0.76,1.22 0.03,1.24 1.71,0.02 3.43,0.06 5.15,0.06 -0.61,0.2 -1.22,0.39 -1.84,0.55 -0.68,0.16 -0.51,1.33 0.19,1.22 2.96,-0.46 5.64,-1.95 8.38,-3.07 0.73,-0.3 0.41,-1.47 -0.36,-1.19z"/>
  <path class="fil0" d="M70.98 79.99c-0.7,0.92 -1.24,1.52 -1.45,2.68 -0.3,1.72 1.45,4.65 2.67,5.7 1.97,1.69 4.54,1.22 6.65,2.66 0.65,0.44 1.3,-0.55 0.78,-1.07 -1.05,-1.05 -2.09,-1.4 -3.55,-1.61 -2.15,-0.31 -6.23,-3.67 -4.89,-6.52 0.65,-1.38 1.81,-2 2.03,-3.63 0.22,-1.67 0.92,-2.57 2.01,-3.31l0.01 0c0.32,0 0.52,-0.17 0.62,-0.38 0.33,-0.19 0.69,-0.37 1.07,-0.56 0.67,-0.32 0.16,-1.39 -0.53,-1.16 -0.56,0.18 -1.13,0.39 -1.67,0.65 -1.52,0 -3.04,-0.01 -4.56,0.1 -0.82,0.06 -0.77,1.19 0.03,1.26 0.85,0.07 1.71,0.09 2.56,0.09 -0.28,0.36 -0.49,0.77 -0.63,1.25 -0.39,1.44 -0.17,2.55 -1.17,3.86z"/>
  <path class="fil0" d="M84.21 93.82c1.86,0.15 3.46,1.26 5.33,1.45 2.75,0.29 5.32,1.32 8.05,1.73 0.82,0.13 1.12,-1.02 0.31,-1.26 -2.69,-0.8 -5.43,-1.44 -8.2,-1.9 -1.96,-0.33 -3.65,-1.71 -5.69,-1.28 -0.76,0.16 -0.46,1.2 0.2,1.25z"/>
  <path class="fil0" d="M101.86 103.48c-1.41,-0.29 -2.7,-1.28 -4.14,-1.41 -2.25,-0.2 -4.4,0.51 -6.65,0.13 -1.95,-0.33 -3.7,-1.72 -5.57,-2.31 -2.25,-0.71 -4.61,-1.12 -6.76,-2.12 -0.78,-0.36 -1.38,0.71 -0.65,1.17 1.62,1.02 3.42,1.41 5.26,1.9 2.23,0.59 4.25,1.7 6.4,2.52 2.02,0.78 4.02,0.32 6.08,0.04 2.16,-0.3 3.79,1.3 5.88,1.42 0.77,0.05 0.9,-1.19 0.15,-1.34z"/>
  <path class="fil0" d="M114.49 94.05c-2.67,-0.66 -5.66,-0.62 -8.4,-0.63 -0.8,-0.01 -0.85,1.11 -0.15,1.33 2.63,0.82 5.67,0.49 8.4,0.62 0.77,0.04 0.86,-1.14 0.15,-1.32z"/>
  <path class="fil0" d="M59.96 85.28c1.34,0.68 2.64,1.06 4.11,1.36 1.53,0.3 2.83,1.08 4.29,1.57 0.77,0.26 1.11,-0.86 0.49,-1.25 -0.98,-0.61 -1.97,-1.11 -3.04,-1.51 -1.47,-0.55 -3.01,-0.59 -4.47,-1.12 0.31,-0.65 0.43,-1.35 0.25,-2.13l-0 -0.02 0.32 0.02c0.39,0 0.77,-0.02 1.16,-0.07 0.3,-0.04 0.55,-0.19 0.62,-0.5 0.08,-0.32 -0.12,-0.75 -0.48,-0.8 -0.34,-0.05 -0.69,-0.08 -1.03,-0.09 -0.33,-0.01 -0.64,0.02 -0.95,0.06 -0.07,-0.24 -0.11,-0.47 -0.16,-0.68 0.82,0.07 1.63,0.07 2.45,0.02 0.84,-0.05 0.79,-1.24 -0.03,-1.29 -0.8,-0.05 -1.59,-0.05 -2.39,0.02 0.18,-0.56 0.64,-1.08 1.59,-1.67l0.06 0.02c1.47,0.04 2.95,0.15 4.41,0.04 0.85,-0.07 0.8,-1.23 -0.03,-1.3 -1.46,-0.12 -2.95,0 -4.41,0.04l-0.15 0.04 -0.48 0.03c-1.22,0.56 -2.61,1.5 -2.65,3 -0.05,1.69 1.5,3.6 0.34,5.11 -0.27,0.35 -0.27,0.89 0.17,1.11z"/>
  <path class="fil0" d="M81.93 84.71c0.86,-0.08 0.8,-1.24 -0.03,-1.32 -1.93,-0.18 -4.01,-0.16 -5.93,0.04l-0.07 0.02c-0.25,-0.2 -0.52,-0.38 -0.8,-0.55 -0.76,-0.44 -1.4,-0.58 -1.07,-1.59 0.23,-0.71 -0.85,-1.11 -1.19,-0.47 -0.91,1.76 0.44,2.64 1.81,3.46 1.02,0.61 1.41,1.76 2.15,2.62 0.78,0.89 1.91,1.34 2.98,1.8 0.65,0.28 1.33,-0.5 0.76,-1.03 -0.6,-0.57 -1.38,-0.81 -2.1,-1.19 -0.61,-0.33 -1.02,-1.1 -1.43,-1.76 1.63,0.11 3.32,0.11 4.92,-0.04z"/>
  <path class="fil0" d="M61.24 68.1c4.59,0.23 9.25,0.16 13.85,0.03 0.86,-0.03 0.81,-1.29 -0.03,-1.32 -3.2,-0.09 -6.42,-0.14 -9.64,-0.1 0.54,-0.09 1.07,-0.16 1.57,-0.24 6.49,-0.99 12.83,-2.61 19.35,-3.51 0.84,-0.12 0.85,-1.43 -0.03,-1.35 -6.88,0.65 -13.46,2.58 -20.26,3.62 -2.22,0.34 -4.3,0.83 -6.28,1.91 -1.21,0.66 -1.86,1.74 -3.36,2.15 -1.39,0.38 -2.74,0.77 -4.05,1.36 -0.73,0.33 -0.43,1.5 0.37,1.23 2.01,-0.7 4.26,-0.97 6.15,-1.97 0.22,0.18 0.54,0.22 0.99,0 0.59,-0.29 1.65,-0.09 2.3,-0.09 0.96,-0 1.91,-0.02 2.87,-0.04 0.82,-0.03 0.78,-1.24 -0.03,-1.26 -0.82,-0.03 -1.65,-0.04 -2.47,-0.04 -0.54,-0 -1.32,0.11 -1.97,0.05l0.56 -0.45 0.11 0.03z"/>
  <path class="fil0" d="M41.3 72.91c-1.29,-0.14 -2.6,-0.32 -3.91,-0.45 3.54,-1.34 7.78,-2.15 9.42,-2.52 0.84,-0.2 0.45,-1.48 -0.39,-1.29 -3.45,0.79 -21.09,4.27 -15.05,10.89 0.54,0.59 1.48,-0.21 1.07,-0.87 -0.49,-0.79 -0.6,-1.51 -0.43,-2.18 2.51,0.24 5.1,0.08 7.62,0 0.84,-0.02 0.8,-1.27 -0.04,-1.29 -2.23,-0.07 -4.54,-0.22 -6.79,-0.07 0.51,-0.55 1.23,-1.06 2.07,-1.52 2.02,0.33 4.24,0.78 6.28,0.62 0.7,-0.06 0.92,-1.22 0.14,-1.3z"/>
  <path class="fil0" d="M30.62 71.66c-1.87,-0.12 -3.91,-0.28 -5.88,-0.21 1.31,-0.56 3.07,-1.13 5.03,-1.7 2.47,0.32 5.1,0.15 7.58,0.04 0.85,-0.04 0.8,-1.27 -0.03,-1.31 -0.81,-0.03 -1.64,-0.08 -2.47,-0.11 5.63,-1.46 11.3,-2.79 12.5,-3.72 0.81,-0.63 -0,-2 -0.85,-1.38 -3.03,2.24 -29.02,4.66 -25.75,10.9 0.48,0.9 1.93,0.22 1.62,-0.73l0.04 -0.43c2.64,0.42 5.62,0.17 8.26,-0 0.88,-0.06 0.82,-1.29 -0.03,-1.35z"/>
  <path class="fil0" d="M100.19 62.16c2.63,0.06 5.28,0.07 7.91,0 0.82,-0.02 0.78,-1.24 -0.03,-1.26 -2.64,-0.06 -5.28,-0.06 -7.91,0 -0.82,0.02 -0.78,1.24 0.03,1.26z"/>
  <path class="fil0" d="M105.37 59.72c0.86,0.02 1.72,0.02 2.59,0 0.81,-0.01 0.77,-1.24 -0.03,-1.25 -0.86,-0.01 -1.73,-0.01 -2.59,0 -0.81,0.01 -0.78,1.24 0.03,1.25z"/>
  <path class="fil0" d="M90.73 74.27c-3.73,-0.1 -7.54,-0.26 -11.26,0.01 -0.83,0.07 -0.77,1.21 0.03,1.27 3.73,0.27 7.53,0.12 11.26,0.01 0.84,-0.02 0.8,-1.28 -0.03,-1.3z"/>
  <path class="fil0" d="M98.49 80.2c-2.83,-0.28 -5.69,-0.34 -8.52,-0.59 -0.71,-0.07 -0.85,1.16 -0.14,1.25 2.84,0.38 5.82,0.88 8.69,0.65 0.85,-0.07 0.79,-1.22 -0.03,-1.3z"/>
  <path class="fil0" d="M96.21 82.64c-0.85,0.03 -0.81,1.28 0.03,1.31 0.96,0.03 1.93,0.06 2.89,-0.01 0.84,-0.06 0.78,-1.22 -0.03,-1.28 -0.96,-0.07 -1.93,-0.05 -2.89,-0.01z"/>
  <path class="fil0" d="M112.03 78.85c-0.83,0.07 -0.78,1.21 0.03,1.27 3.77,0.3 7.63,0.14 11.41,0.02 0.85,-0.03 0.81,-1.28 -0.03,-1.31 -3.78,-0.12 -7.64,-0.28 -11.41,0.02z"/>
  <path class="fil0" d="M125.57 82.64c-1.98,-0.08 -3.96,-0.04 -5.93,0.02 -0.82,0.02 -0.78,1.23 0.03,1.25 1.98,0.06 3.96,0.1 5.93,0.02 0.84,-0.03 0.79,-1.25 -0.03,-1.29z"/>
  <path class="fil0" d="M120.7 96.93c-1.96,-0.14 -3.98,-0.13 -5.93,0.03 -0.82,0.07 -0.77,1.19 0.03,1.25 1.96,0.16 3.98,0.18 5.93,0.04 0.86,-0.07 0.81,-1.26 -0.03,-1.33z"/>
  <path class="fil0" d="M113.4 70.03c-0.82,0.02 -0.78,1.24 0.03,1.26 2.18,0.05 4.36,0.07 6.54,0 0.83,-0.02 0.78,-1.25 -0.03,-1.27 -2.18,-0.06 -4.36,-0.05 -6.54,0.01z"/>
  <path class="fil0" d="M101.99 67.89c-2.59,-0.07 -5.17,-0.09 -7.76,0.01 -0.82,0.03 -0.78,1.24 0.03,1.27 2.59,0.1 5.18,0.07 7.76,0 0.83,-0.02 0.79,-1.26 -0.03,-1.28z"/>
  <path class="fil0" d="M86.14 117.76c0.78,0.05 0.91,-1.21 0.15,-1.36 -2.07,-0.4 -3.21,-2.22 -5.56,-2.37 -2.88,-0.18 -5.77,0.48 -8.63,0.01 -3.12,-0.51 -4.11,-4.04 -6.07,-6.04 -1.6,-1.65 -3.89,-1.07 -5.86,-0.71 -0.79,0.14 -0.5,1.28 0.21,1.31 1.01,0.04 1.98,-0.01 2.88,0.15 -0.31,3.37 -0.13,7.01 0.08,10.36 0.06,0.87 1.3,0.83 1.35,-0.04 0.2,-3.15 0.37,-6.54 0.13,-9.73 0.34,0.22 0.67,0.52 0.97,0.91 0.68,0.88 1.21,1.9 1.84,2.82l0.21 0.27c-0.11,0.83 -0.03,1.7 -0.02,2.53 0.01,1.15 0.03,2.3 0.09,3.44 0.04,0.86 1.28,0.81 1.32,-0.03 0.06,-1.15 0.08,-2.3 0.09,-3.45 0.01,-0.35 0.02,-0.72 0.03,-1.08 0.93,0.61 2,0.98 3.15,1.18l0.39 0.05c-0.1,0.61 -0.02,1.26 -0.02,1.86 0,0.86 0.02,1.72 0.09,2.59 0.07,0.88 1.28,0.82 1.36,-0.04 0.07,-0.86 0.08,-1.72 0.09,-2.59 0,-0.57 0.06,-1.18 -0.02,-1.75 1.08,-0.03 2.18,-0.19 3.27,-0.33 -0.06,1.27 -0.14,2.51 -0,3.79 0.09,0.87 1.23,0.81 1.33,-0.03 0.14,-1.31 0.05,-2.59 -0.02,-3.89 0.31,-0.02 0.62,-0.04 0.91,-0.04 0.58,-0.01 1.1,0.09 1.58,0.25 -0.14,0.8 0.09,1.72 0.16,2.49 0.07,0.86 1.25,0.8 1.32,-0.03 0.03,-0.45 0.16,-1.07 0.18,-1.68 0.95,0.53 1.86,1.09 3.03,1.16z"/>
  <path class="fil0" d="M50.12 117.31c0.32,-0.79 0.13,-1.86 0,-2.69 -0.04,-0.28 -0.18,-0.51 -0.47,-0.59 -0.31,-0.07 -0.7,0.12 -0.76,0.45 -0.07,0.45 -0.12,0.88 -0.14,1.33 -0.02,0.43 -0.09,0.94 0.07,1.35 0.2,0.49 1.03,0.77 1.29,0.14z"/>
  <path class="fil0" d="M30.89 103.17c0.21,-0.45 0.12,-1.02 0.12,-1.51 -0,-0.69 -0.02,-1.37 -0.04,-2.06 -0.02,-0.84 -1.25,-0.79 -1.28,0.03 -0.02,0.63 -0.03,1.25 -0.03,1.87 -0,0.55 -0.11,1.19 0.13,1.69 0.2,0.43 0.91,0.38 1.1,-0.03z"/>
  <path class="fil0" d="M16.65 98.35c0.34,-0.51 0.15,-1.4 0.14,-1.98 -0.03,-0.95 -0.05,-1.9 -0.13,-2.85 -0.07,-0.82 -1.2,-0.77 -1.27,0.03 -0.07,0.86 -0.1,1.72 -0.12,2.59 -0.02,0.65 -0.23,1.66 0.15,2.23 0.32,0.47 0.92,0.41 1.22,-0.02z"/>
  <path class="fil0" d="M6.39 83.44c-0.07,0.46 -0.12,0.92 -0.14,1.39 -0.01,0.27 -0.01,0.55 -0.02,0.82 -0,0.28 0.08,0.52 0.12,0.8 0.08,0.67 1.18,0.92 1.28,0.14 0.05,-0.48 0.13,-0.9 0.13,-1.39 -0.01,-0.55 -0.06,-1.08 -0.14,-1.63 -0.09,-0.63 -1.12,-0.89 -1.23,-0.13z"/>
  <path class="fil0" d="M71.22 38.1c1.28,-4.81 6.84,-5.79 10.16,-2.62 -0.66,0.56 -1.19,1.32 -1.48,2.3 -0.22,0.73 0.89,1.15 1.23,0.48 1.73,-3.44 6.69,-3.14 7.8,0.5 -0.17,0.2 -0.33,0.41 -0.46,0.67 -0.33,0.68 0.55,1.38 1.09,0.8 0.66,-0.7 1.24,-1.25 2.26,-1.04 0.97,0.21 1.39,1.09 1.48,1.98 0.06,0.68 1.13,0.89 1.26,0.14l0.04 -0.65c0.43,-0.59 1.48,-0.7 1.83,0.03 0.32,0.69 1.37,0.16 1.17,-0.52 -0.44,-1.57 -2.31,-1.8 -3.5,-1.02 -0.83,-1.22 -2.55,-1.76 -3.96,-1.25 -0.95,-3.14 -4.82,-4.39 -7.58,-3.17 -3.6,-4.3 -11.82,-3.13 -12.58,3.05 -0.1,0.79 1.02,1.12 1.24,0.31z"/>
  <path class="fil0" d="M51.17 41.15c0.23,-1.21 0.72,-2.18 1.97,-2.55 1.17,-0.35 2.16,0.31 2.75,1.26 0.39,0.62 1.41,0.18 1.18,-0.53 -0.52,-1.67 -2.29,-2.51 -3.95,-2.24 -1.92,0.32 -3.3,1.97 -3.26,3.92 0.01,0.74 1.17,0.89 1.31,0.14z"/>
  <path class="fil0" d="M21.19 38.02c1.45,-1.43 2.99,-2.57 5.08,-1.71 1.79,0.73 2.81,2.57 3.59,4.22 0.33,0.7 1.41,0.16 1.21,-0.55 -0.16,-0.54 -0.37,-1.06 -0.63,-1.55 0.81,-1.04 2.11,-1.18 3.32,-0.53 0.66,0.35 1.31,-0.53 0.77,-1.04 -1.39,-1.34 -3.73,-1.05 -4.9,0.32 -2.44,-3.11 -6.82,-4.02 -9.55,0.02 -0.46,0.68 0.56,1.34 1.1,0.82z"/>
 </g>
</svg>
