<?xml version="1.0" encoding="UTF-8"?>
<svg xmlns="http://www.w3.org/2000/svg" xml:space="preserve" width="0.747323in" height="0.747331in" version="1.1" style="shape-rendering:geometricPrecision; text-rendering:geometricPrecision; image-rendering:optimizeQuality; fill-rule:evenodd; clip-rule:evenodd"
viewBox="0 0 1115.68 1115.69"
 xmlns:xlink="http://www.w3.org/1999/xlink"
 xmlns:xodm="http://www.corel.com/coreldraw/odm/2003">
 <defs>
  <style type="text/css">
   <![CDATA[
    .fil0 {fill:black;fill-rule:nonzero}
   ]]>
  </style>
 </defs>
 <g id="Layer_x0020_1">
  <metadata id="CorelCorpID_0Corel-Layer"/>
  <path class="fil0" d="M557.78 15.18l3.05 0c299.22,1.66 541.3,246.45 539.64,545.67 -1.64,297.55 -245.04,539.67 -542.59,539.67l-3.07 0c-144.92,-0.83 -280.9,-58.02 -382.82,-161.09 -101.91,-103.05 -157.63,-239.63 -156.8,-384.59 1.63,-297.56 245.04,-539.66 542.58,-539.66zm-3.04 1100.5l3.15 0.02c148.38,0 288.03,-57.61 393.26,-162.23 105.27,-104.71 163.72,-244.09 164.53,-392.53 1.72,-307.63 -247.14,-559.26 -554.74,-560.92l-3.16 -0.02c-305.88,0 -556.11,248.86 -557.76,554.74 -0.85,149.02 56.4,289.41 161.19,395.38 104.77,105.94 244.53,164.74 393.53,165.55z"/>
  <path class="fil0" d="M91.24 577.11l1.56 0.23c2.07,0 4.04,-1.3 4.77,-3.38l0.31 -0.87 -0.25 -3.92 -2.97 -2.59 -25.48 -8.19 25.3 -8.73 2.9 -2.61 0.18 -3.9 -0.31 -0.85c-0.93,-2.59 -3.79,-3.96 -6.41,-3.07l-40.78 14.06c-2.05,0.71 -3.42,2.67 -3.42,4.87l0.02 0.95c0.02,2.17 1.43,4.11 3.5,4.77l41.07 13.23z"/>
  <path class="fil0" d="M54.71 613.46l40.89 -4c2.78,-0.29 4.83,-2.74 4.54,-5.52l-0.08 -0.93 -1.83 -3.4 -3.69 -1.14 -40.91 4c-2.8,0.31 -4.81,2.77 -4.56,5.54l0.11 0.93 1.82 3.42 3.22 1.16 0.49 -0.06z"/>
  <path class="fil0" d="M95.16 644.21l1.02 5.25c0.38,1.89 0.31,3.46 -0.23,4.68 -0.41,0.98 -1.29,2.2 -4.29,2.78 -2.62,0.53 -4.33,-0.19 -5,-0.88 -0.98,-0.95 -1.64,-2.38 -2.03,-4.33l-1.03 -5.23 11.57 -2.28zm-1.35 23.56c7.52,-1.49 10.84,-5.85 12.27,-9.27 1.43,-3.34 1.76,-7.07 0.92,-11.2l-2.18 -11.07 -2.16 -3.23 -3.79 -0.73 -40.74 8.05c-2.74,0.56 -4.54,3.22 -4,5.97l0.16 0.87 2.17 3.23 3.8 0.75 12.5 -2.46 0.93 4.78 -13.4 10.29c-2.16,1.68 -2.63,4.75 -1.03,6.97l0.49 0.71 3.4 2.07 0.75 0.06 3.07 -1.04 11.61 -8.87c3.65,3.91 8.94,5.37 15.22,4.13z"/>
  <path class="fil0" d="M110.74 705.4l2.45 3 3.87 0.38 0.88 -0.25c2.65,-0.83 4.17,-3.65 3.38,-6.32l-6.64 -21.85 -2.47 -2.96 -3.86 -0.4 -0.87 0.29c-2.67,0.81 -4.17,3.61 -3.36,6.28l1.72 5.62 -34.05 10.33c-2.69,0.81 -4.21,3.63 -3.4,6.3l0.29 0.89 2.45 2.99 2.39 0.6 1.45 -0.21 34.07 -10.33 1.7 5.64z"/>
  <path class="fil0" d="M134.52 751.41c2.57,-1.1 3.81,-4.04 2.74,-6.64l-0.35 -0.85 -2.74 -2.74 -3.88 0 -27.41 11.37 -4.56 0 -3.13 -3.17 -0.02 -4.54 3.17 -3.19 27.43 -11.38c2.59,-1.03 3.81,-4 2.76,-6.59l-0.33 -0.81 -2.74 -2.76 -3.9 0 -27.43 11.36c-4.25,1.76 -7.41,4.94 -9.15,9.12 -1.74,4.23 -1.74,8.73 0.02,12.98 1.76,4.27 4.93,7.42 9.14,9.18 2.14,0.88 4.34,1.31 6.51,1.31 2.16,0 4.33,-0.43 6.47,-1.31l27.39 -11.34z"/>
  <path class="fil0" d="M156.93 786.01l-0.35 -3.86 -8.81 -16.5 -2.99 -2.45 -3.88 0.37 -36.99 19.78 -2.47 2.96 0.38 3.88 8.81 16.5 2.99 2.47 1.49 0.21 2.36 -0.6 0.77 -0.39c2.46,-1.33 3.38,-4.4 2.07,-6.87l-5.99 -11.24 10.41 -5.58 3.86 7.26 3 2.47 3.86 -0.42 0.79 -0.41c2.49,-1.33 3.42,-4.38 2.12,-6.87l-3.88 -7.24 6.34 -3.38 6 11.21c1.33,2.47 4.37,3.4 6.84,2.12l0.81 -0.45 2.46 -2.99z"/>
  <path class="fil0" d="M141.82 837.25c-1,-2.57 -3.84,-3.86 -6.43,-2.93l-8.81 3.13c-2.63,0.98 -4.03,3.84 -3.09,6.47l0.31 0.87 2.62 2.88 2.15 0.5 1.7 -0.31 8.88 -3.15 2.9 -2.67 0.11 -3.96 -0.33 -0.83z"/>
  <path class="fil0" d="M175.37 889.03c2.15,-1.79 2.46,-5 0.71,-7.16l-8.07 -9.84 27.54 -22.56 1.85 -3.43 -1.12 -3.67 -0.56 -0.71c-1.78,-2.17 -4.97,-2.49 -7.13,-0.75l-32.12 26.33c-2.17,1.79 -2.49,4.94 -0.71,7.11l11.8 14.45 3.44 1.87 0.5 0.02 3.22 -1.14 0.66 -0.53z"/>
  <path class="fil0" d="M232.24 882.78l-0.64 -0.65 -3.61 -1.53 -0.02 0 -3.55 1.52 -29.15 28.96c-1.99,1.99 -1.99,5.18 -0.02,7.18l0.64 0.64 3.57 1.49 0.02 0 3.59 -1.46 29.15 -28.99c1.97,-1.97 1.99,-5.18 0.02,-7.15z"/>
  <path class="fil0" d="M259.07 926.2l-2.76 1.26 -0.06 0 -1.59 -0.29 -0.02 0.02 -5.39 -4.48 4.56 -5.55 4.58 3.8 1.72 2.19 -1.04 3.04zm-11.53 17.09c-2.14,2.57 -3.63,2.38 -4.94,2.2l-3.38 -1.37 -4.56 -3.79 7.53 -9.09 5.04 4.14c2.84,3.49 2.26,5.55 0.31,7.91zm20.05 -10.08c4.52,-5.43 4.07,-10.47 2.89,-13.72 -0.93,-2.72 -2.66,-5.06 -5.04,-7.07l-9.16 -7.55c-2.17,-1.78 -5.33,-1.48 -7.14,0.68l-26.73 32.34c-1.8,2.15 -1.49,5.34 0.66,7.12l9.16 7.58c2.36,1.94 5.27,3.23 8.69,3.81l2.66 0.2c3.31,0 8.19,-1.05 12.46,-6.26 3.24,-3.92 4.63,-8.06 4.23,-12.21 2.78,-0.75 5.28,-2.42 7.32,-4.91z"/>
  <path class="fil0" d="M288.18 952.41l4.03 -5.95 10.55 7.14c2.32,1.53 5.45,0.93 7.03,-1.37l0.52 -0.77 0.77 -3.79 -2.13 -3.26 -15.49 -10.43c-2.34,-1.59 -5.47,-0.95 -7.03,1.35l-23.47 34.81 -0.77 3.78 2.14 3.23 15.49 10.45 2.84 0.88 1 -0.08 3.23 -2.18 0.46 -0.73c1.55,-2.3 0.91,-5.41 -1.39,-6.98l-10.55 -7.12 6.59 -9.79 6.82 4.58c2.3,1.53 5.45,0.93 7.03,-1.36l0.5 -0.75 0.76 -3.81 -2.12 -3.24 -6.8 -4.6z"/>
  <path class="fil0" d="M336.91 980.28c-1.48,2.73 -2.89,3.23 -4.4,3.33l-4.11 -1.25 -4.68 -2.55 5.62 -10.34 4.68 2.56 3.46 3.16c0.52,0.98 0.85,2.4 -0.58,5.09zm2.34 -17.96l-9.89 -5.37 -3.86 -0.42 -3.03 2.46 -19.74 36.53 -0.42 3.88 2.45 2.99 0.79 0.46c2.46,1.3 5.53,0.37 6.84,-2.07l6.07 -11.22 4.3 2.34 -0.61 16.9c-0.1,2.72 1.95,5 4.67,5.24l0.87 0.06 0.39 0.02 3.36 -1.31 1.68 -3.59 0.61 -14.55c3.96,-0.24 9.12,-2.18 12.9,-9.12 3.65,-6.74 2.39,-12.09 0.71,-15.34 -1.66,-3.24 -4.37,-5.91 -8.09,-7.88z"/>
  <path class="fil0" d="M390.78 986.37l-21.05 -8.81c-2.57,-1.12 -5.54,0.1 -6.64,2.69l-0.33 0.84 -0.02 3.87 2.72 2.76 5.44 2.3 -13.77 32.81 -0.02 3.85 2.72 2.76 0.87 0.36 1.95 0.39c1.97,0 3.84,-1.18 4.67,-3.11l13.75 -32.79 5.43 2.28c2.57,1.05 5.54,-0.15 6.64,-2.74l0.38 -0.82 0.02 -3.88 -2.73 -2.76z"/>
  <path class="fil0" d="M438.03 1003.27l-3.38 -1.93 -3.79 1.01 -13.35 10.54 -5.14 -16.22 -2.49 -3.01 -3.9 -0.29 -0.89 0.27c-2.63,0.86 -4.08,3.71 -3.23,6.34l7.01 22.16 -5.56 18.03 0.35 3.83 2.99 2.45 0.88 0.31 1.51 0.21 2.36 -0.6 2.47 -2.97 5.56 -17.96 18.24 -14.41c2.22,-1.7 2.59,-4.84 0.91,-7.03l-0.54 -0.75z"/>
  <path class="fil0" d="M460.26 1049.82l-0.85 -0.35c-2.49,-1.12 -5.4,-0.02 -6.59,2.47l-4.04 8.44 -0.21 3.9 2.59 2.84 0.83 0.41 2.16 0.48c1.9,0 3.71,-1.03 4.58,-2.86l4.07 -8.48 0.16 -3.96 -2.7 -2.89z"/>
  <path class="fil0" d="M505.05 1044.45l2.9 -6.43 1.52 6.88 -4.42 -0.45zm10.14 -24.84c-0.49,-2.1 -2.28,-3.69 -4.44,-3.92l-0.97 -0.11c-2.18,-0.18 -4.23,0.96 -5.13,2.97l-17.77 39.32 -0.08 3.94 2.76 2.82 0.85 0.33c2.51,1.05 5.39,-0.11 6.51,-2.57l3.34 -7.32 11.76 1.22 1.76 7.83c0.54,2.33 2.62,3.94 4.94,3.94l0.89 -0.09 0.89 -0.14 3.34 -2.2 0.71 -3.9 -9.35 -42.14z"/>
  <path class="fil0" d="M567.77 1018.32l-0.95 -0.01c-2.89,-0.11 -5.08,2.15 -5.14,4.97l-0.43 19.76 -11.88 -22.5 -4.33 -2.72 -1 -0.04 -3.6 1.41 -1.6 3.59 -0.87 41.1c-0.06,2.77 2.16,5.08 4.93,5.13l0.93 0.03 3.57 -1.39 1.6 -3.57 0.41 -19.78 11.88 22.54 4.39 2.69 0.98 0.02 0.11 0c2.78,0 5,-2.2 5.06,-4.96l0.89 -41.1 -1.39 -3.63 -3.54 -1.56z"/>
  <path class="fil0" d="M607.11 1054.42l-4.36 2.37 -4.75 0.43 -2.69 -29.95 5.27 -0.45 4.17 1.48c1.86,1.3 2.78,2.82 2.96,4.91l1.43 15.89c0.18,2.16 -0.43,3.8 -2.03,5.33zm3.92 -35.14c-3.8,-2.63 -7.9,-3.79 -11.94,-3.42l-10.7 0.98 -3.42 1.8 -1.16 3.67 3.77 41.82 1.8 3.4 3.23 1.2 0.48 -0.02 10.68 -0.97c4.08,-0.38 7.82,-2.2 11.13,-5.48 3.92,-3.88 5.72,-8.77 5.25,-14.14l-1.45 -15.88c-0.48,-5.4 -3.13,-9.89 -7.67,-12.96z"/>
  <path class="fil0" d="M695.07 1002.76c-0.81,-2.67 -3.59,-4.24 -6.27,-3.44l-0.91 0.24 -3.03 2.46 -0.39 3.83 11.59 39.44 2.45 3 2.43 0.62 1.43 -0.21 0.87 -0.29c2.69,-0.77 4.23,-3.59 3.42,-6.26l-11.59 -39.4z"/>
  <path class="fil0" d="M748.37 982.97l-2.72 -2.75 -3.88 -0.03 -0.85 0.34c-2.59,1.03 -3.83,4.01 -2.77,6.6l7.42 18.35 -19.8 -16.01 -5.05 -0.73 -0.92 0.34 -2.77 2.74 -0.04 3.86 15.42 38.12 2.74 2.75 1.97 0.4 1.93 -0.36 0.83 -0.37c2.57,-1.06 3.8,-3.99 2.76,-6.58l-7.42 -18.37 19.82 16.03 5.1 0.77 0.89 -0.39c2.59,-1.05 3.83,-4 2.77,-6.59l-15.42 -38.09z"/>
  <path class="fil0" d="M792.47 998.5l-3.15 3.81 -4.23 2.22 -13.93 -26.63 4.25 -2.22c1.33,-0.71 2.96,-0.83 4.87,-0.42 2.2,0.46 3.63,1.52 4.6,3.36l7.41 14.16c0.97,1.86 1.03,3.63 0.18,5.7zm2.18 -24.94c-2.51,-4.81 -6.68,-7.96 -12.05,-9.08 -4.54,-0.97 -8.73,-0.48 -12.31,1.43l-9.52 5c-2.49,1.28 -3.44,4.35 -2.13,6.82l19.47 37.18 2.96 2.47 1.52 0.24 2.36 -0.59 9.47 -4.96c3.63,-1.9 6.38,-5.01 8.23,-9.29 2.14,-5.11 1.93,-10.33 -0.58,-15.12l-7.42 -14.1z"/>
  <path class="fil0" d="M847.18 973.52l-3.22 -2.26 -3.84 0.73 -10.66 6.98 -6.49 -9.86 6.88 -4.5c2.32,-1.52 2.96,-4.64 1.47,-6.96l-0.52 -0.77 -3.19 -2.21 -3.8 0.72 -6.88 4.5 -3.96 -6.03 10.66 -6.96 2.2 -3.22 -0.73 -3.82 -0.5 -0.74c-1.55,-2.37 -4.68,-2.99 -7.03,-1.48l-15.61 10.24c-2.35,1.55 -3.03,4.69 -1.45,7.01l22.98 35.08 3.22 2.2 1.03 0.12 2.78 -0.83 15.63 -10.29c2.32,-1.5 2.99,-4.63 1.47,-6.96l-0.45 -0.69z"/>
  <path class="fil0" d="M863.06 930.56l-2.93 3.79 -4.14 3.32 -7.36 -9.17 4.14 -3.34 4.27 -1.99 0.33 0c0.89,0 2.32,0.29 4.11,2.51 1.97,2.43 1.86,3.92 1.58,4.88zm-6.84 -18.37c-3.59,0.23 -7.09,1.75 -10.37,4.38l-8.79 7.07c-2.17,1.74 -2.51,4.95 -0.79,7.09l26.06 32.41 3.42 1.86 0.5 0.03 3.22 -1.13 0.68 -0.58c2.18,-1.74 2.51,-4.94 0.77,-7.09l-8.01 -9.96 4.15 -3.34c3.26,-2.56 5.43,-5.66 6.53,-9.07 1.12,-3.55 1.39,-9.02 -3.49,-15.1 -4.93,-6.14 -10.2,-6.86 -13.89,-6.57z"/>
  <path class="fil0" d="M922.38 909.34l-3.59 -1.52 -0.05 0 -3.54 1.43 -9.1 8.96 -8.26 -8.46 5.85 -5.74c2.02,-1.97 2.03,-5.16 0.08,-7.15l-0.62 -0.66 -3.57 -1.51 -3.63 1.43 -5.84 5.75 -5.02 -5.15 9.06 -8.92 1.53 -3.56 -1.45 -3.63 -0.62 -0.64c-1.97,-1.99 -5.17,-2.01 -7.18,-0.04l-13.35 13.08 -1.53 3.57 1.48 3.6 29.36 29.96 3.57 1.51 0.04 0 3.54 -1.45 13.38 -13.08c1.99,-1.95 2.01,-5.16 0.08,-7.15l-0.62 -0.62z"/>
  <path class="fil0" d="M925.51 843.97c-2.14,-1.8 -5.31,-1.52 -7.09,0.62l-0.6 0.68 -1.2 3.73 1.8 3.44 15.16 12.71 -24.99 -4.83 -4.83 1.7 -0.62 0.73 -1.2 3.71 1.8 3.44 31.48 26.44 3.25 1.2 3.88 -1.82 0.58 -0.66 1.14 -3.71 -1.78 -3.44 -15.14 -12.73 25.01 4.83 4.83 -1.72 0.64 -0.75c1.78,-2.13 1.52,-5.35 -0.64,-7.11l-31.47 -26.45z"/>
  <path class="fil0" d="M970.84 841.83l-2.69 3.94 -24.78 -17.03 2.7 -3.91c0.85,-1.25 2.22,-2.12 4.14,-2.68 2.13,-0.6 3.86,-0.33 5.64,0.88l13.14 9.02c1.75,1.22 2.63,2.72 2.82,4.98 0.19,2.01 -0.12,3.61 -0.98,4.81zm4.42 -18.88l-13.17 -9.05c-4.44,-3.07 -9.62,-3.83 -14.87,-2.36 -4.48,1.26 -7.92,3.63 -10.24,7.05l-6.07 8.83 -0.83 3.79 2.13 3.27 34.61 23.7 2.86 0.91 4.17 -2.17 6.07 -8.88c2.33,-3.38 3.28,-7.41 2.9,-12.05 -0.49,-5.5 -3.11,-10.02 -7.56,-13.06z"/>
  <path class="fil0" d="M1009.22 789.66l-0.75 -0.41 -3.86 -0.43 -3.01 2.43 -6.15 11.17 -10.35 -5.72 3.96 -7.17 0.46 -3.86 -2.43 -3.01 -0.83 -0.48c-2.47,-1.3 -5.54,-0.42 -6.88,1.99l-3.94 7.21 -6.32 -3.48 6.16 -11.18 0.43 -3.86 -2.42 -3.03 -0.83 -0.46c-2.46,-1.33 -5.51,-0.43 -6.86,2.01l-9.02 16.38c-1.35,2.45 -0.45,5.52 2.01,6.89l36.72 20.24 2.45 0.64 4.44 -2.63 9.04 -16.34c1.35,-2.49 0.46,-5.54 -2.01,-6.91z"/>
  <path class="fil0" d="M988.27 735.83l18.21 7.8 -25.34 2.59 -4.13 3.03 -0.38 0.87 -0.06 3.9 2.72 2.78 37.73 16.23 2.01 0.38c1.95,0 3.81,-1.12 4.65,-3.05l0.35 -0.79 0.08 -3.9 -2.72 -2.78 -18.21 -7.82 25.34 -2.57 4.17 -3.12 0.35 -0.89c1.1,-2.55 -0.11,-5.5 -2.65,-6.59l-37.78 -16.22c-2.53,-1.1 -5.5,0.06 -6.64,2.63l-0.35 0.85 -0.06 3.86 2.69 2.8z"/>
  <path class="fil0" d="M999.32 688.25l-2.05 6.51c-1.53,4.87 -1.33,9.31 0.69,13.14 1.99,3.84 5.49,6.55 10.34,8.13l17.4 5.48c2.07,0.71 4.14,1.03 6.07,1.03 2.53,0 4.9,-0.58 7.05,-1.68 3.83,-2.01 6.55,-5.47 8.09,-10.39l2.09 -6.47 -0.35 -3.9 -2.99 -2.49 -0.81 -0.25c-2.67,-0.81 -5.49,0.66 -6.34,3.34l-2.07 6.45c-0.93,3.05 -2.24,3.71 -2.65,3.92 -1.18,0.62 -2.76,0.6 -4.77,-0.04l-17.4 -5.51c-2.96,-0.93 -3.64,-2.22 -3.86,-2.67 -0.23,-0.42 -0.89,-1.79 0.04,-4.73l2.06 -6.53c0.85,-2.66 -0.65,-5.5 -3.3,-6.34l-0.88 -0.29 -3.87 0.34 -2.49 2.96z"/>
  <path class="fil0" d="M1020.71 647.03c0.56,-2.72 -1.16,-5.39 -3.9,-5.97l-0.89 -0.21 -3.8 0.71 -2.24 3.19 -3.88 18.27 0.73 3.83 3.17 2.18 41.07 8.7 1.04 0.11 2.76 -0.81 2.22 -3.2 3.86 -18.29 -0.71 -3.84 -3.19 -2.17 -0.85 -0.17c-2.72,-0.58 -5.41,1.19 -5.99,3.88l-2.63 12.48 -11.57 -2.43 1.7 -8.06c0.58,-2.72 -1.16,-5.39 -3.88,-5.95l-0.87 -0.22 -3.84 0.71 -2.2 3.21 -1.72 7.98 -7.02 -1.47 2.63 -12.46z"/>
  <path class="fil0" d="M175.62 290.06c1.9,-2.72 4.02,-4.52 6.3,-5.37 3.01,-1.12 5.97,-0.42 9.42,1.99 4.64,3.3 5.16,6.24 5.14,8.17 -0.06,2.45 -1.08,5.01 -2.99,7.73l-5.82 8.3 -17.86 -12.57 5.81 -8.25zm31.99 48.78l2.89 0.92 4.14 -2.1 0.75 -1.06 0.87 -3.81 -2.09 -3.25 -17.1 -12.05 5.82 -8.28c3.22,-4.58 4.94,-9.37 5.04,-14.14 0.11,-4.81 -1.53,-11.81 -9.99,-17.74 -6.59,-4.71 -13.5,-5.81 -19.99,-3.4 -4.52,1.68 -8.46,4.9 -11.71,9.5l-9.47 13.48 -0.85 3.77 2.07 3.3 49.64 34.87z"/>
  <path class="fil0" d="M255.34 277.72l3.59 1.49 3.56 -1.43 19.43 -19.18 1.53 -3.57 -1.48 -3.59 -0.89 -0.91c-1.97,-1.99 -5.18,-1.99 -7.18,-0.04l-14.89 14.7 -15.38 -15.58 10.18 -10.03 1.53 -3.61 -1.49 -3.59 -0.93 -0.93c-1.95,-1.97 -5.18,-2.01 -7.14,-0.02l-10.2 10.01 -10.66 -10.82 14.91 -14.68c1.99,-1.97 2.01,-5.16 0.04,-7.15l-0.93 -0.95 -3.56 -1.49 -3.59 1.41 -19.45 19.18 -1.49 3.59 1.43 3.59 43.04 43.61z"/>
  <path class="fil0" d="M307.26 229.34l4.23 2.24 2.82 -0.89 1.08 -0.73 2.13 -3.23 -0.79 -3.8 -21.38 -31.29 41.3 20.65 5.1 -0.37 1.2 -0.79c2.28,-1.58 2.88,-4.71 1.32,-7.05l-33.85 -49.53 -3.26 -2.14 -3.8 0.83 -1.12 0.73c-2.28,1.59 -2.86,4.73 -1.29,7.05l21.35 31.29 -41.26 -20.68 -5.12 0.34 -1.16 0.79 -2.13 3.26 0.81 3.79 33.8 49.54z"/>
  <path class="fil0" d="M370.17 189.66c0.83,1.91 2.67,3.01 4.63,3.01l2.03 -0.42 1.2 -0.52 2.66 -2.8 -0.06 -3.9 -15.45 -34.65 36.93 27.75 5.12 0.58 1.3 -0.58c2.51,-1.12 3.69,-4.13 2.53,-6.7l-24.36 -54.8c-1.16,-2.55 -4.13,-3.73 -6.7,-2.55l-1.22 0.52 -2.67 2.8 0.11 3.87 15.41 34.65 -36.89 -27.78 -5.1 -0.58 -1.3 0.58 -2.67 2.82 0.1 3.86 24.43 54.84z"/>
  <path class="fil0" d="M438.26 129.32l0.62 0.27 4.25 1.29 3.92 1.03 10.91 2.51 4.64 1.33 2.65 1.12c1.64,1.02 2.63,2.43 3.13,4.42l-0.75 5.28c-1.02,2.03 -2.51,3.17 -4.87,3.77l-2.32 0.15c-3.44,0 -8.89,-0.66 -16.19,-1.99 -2.35,-0.43 -4.68,0.83 -5.6,3.03l-0.49 1.22 0 3.86 2.76 2.78c3.63,1.49 7.71,2.42 12.15,2.82l3.84 0.17c3.03,0 5.89,-0.35 8.52,-1 5.62,-1.35 9.89,-4.67 12.44,-9.64 2.18,-4.31 2.76,-8.73 1.66,-13.17 -1.25,-5.1 -4.92,-11.74 -15.68,-14.56 -3.9,-0.87 -7.28,-1.66 -10.19,-2.3 -2.88,-0.66 -5.31,-1.2 -7.17,-1.58 -5.41,-1.3 -6.72,-4.04 -7.26,-6.24 -0.48,-1.91 -0.29,-3.63 0.6,-5.37 0.62,-1.29 1.93,-3.07 5.64,-3.96 0.76,-0.16 2.22,-0.41 5.06,-0.41 2.49,0 5.66,0.18 9.39,0.52 2.22,0.21 4.41,-1.12 5.23,-3.3l0.41 -1.25 -0.22 -4.02 -3.09 -2.59c-5.93,-1.75 -12.48,-1.79 -19.47,-0.12 -6.05,1.47 -10.61,4.95 -13.14,9.97 -2.12,4.19 -2.63,8.67 -1.52,13.23 1.39,5.77 4.9,10.14 10.14,12.73z"/>
  <path class="fil0" d="M526.86 117.96l1.62 28.14c0.14,2.72 2.38,4.81 5.05,4.81l0.27 0 1.37 -0.11 3.49 -1.66 1.29 -3.67 -1.62 -28.15 18.09 -29.59c1.43,-2.39 0.71,-5.54 -1.68,-6.97l-1.14 -0.72 -3.84 -0.61 -3.15 2.33 -14.66 24.05 -17.36 -22.27 -3.38 -1.93 -3.76 1.1 -1.05 0.83c-2.2,1.72 -2.55,4.89 -0.85,7.09l21.31 27.33z"/>
  <path class="fil0" d="M593.94 152.11l27.1 3.28 0.62 0.04c2.51,0 4.69,-1.85 5.02,-4.42l0.16 -1.26 -1.03 -3.73 -3.4 -1.9 -20.77 -2.53 6.55 -53.91c0.34,-2.8 -1.66,-5.29 -4.41,-5.62l-1.29 -0.16 -3.75 1.03 -1.91 3.38 -7.3 60.17c-0.33,2.77 1.64,5.31 4.42,5.64z"/>
  <path class="fil0" d="M678.91 168.36l1.37 0.39 1.51 0.25 4.08 -2.09 36.85 -51.11c1.6,-2.28 1.12,-5.35 -1.06,-7.03l-1.08 -0.79 -3.82 -0.95 -3.34 2.03 -26.93 37.38 -0.89 -46.05 -1.59 -3.59 -3.67 -1.37 -1.35 0.04c-2.74,0.11 -4.87,2.43 -4.83,5.16l1.2 62.97c0.06,2.18 1.48,4.08 3.55,4.75z"/>
  <path class="fil0" d="M769.06 155.01l-3.31 20.28 -11.51 -6.03 14.82 -14.25zm-40.2 31.91c1.95,1.87 5.08,1.87 7.03,0l9.66 -9.26 18.24 9.6 -2.13 13.21c-0.42,2.67 1.37,5.23 4.02,5.78l1.29 0.23 0.99 0.11 2.89 -0.89 2.12 -3.36 10.12 -62.21c0.35,-2.12 -0.71,-4.29 -2.63,-5.27l-1.26 -0.71c-1.95,-0.99 -4.31,-0.66 -5.87,0.85l-45.37 43.71 -1.6 3.63 1.58 3.65 0.93 0.93z"/>
  <path class="fil0" d="M796.29 226.55l3.76 1.08 3.38 -1.9 23.33 -29.86 -7.15 45.62 1.89 4.79 1.12 0.87 3.13 1.06 0.6 -0.04 3.4 -1.89 36.93 -47.27 1.06 -3.76 -1.91 -3.4 -1.08 -0.81c-2.2,-1.74 -5.4,-1.33 -7.11,0.85l-23.33 29.88 7.19 -45.59 -1.89 -4.79 -1.1 -0.88c-2.24,-1.72 -5.39,-1.3 -7.14,0.88l-36.95 47.27c-1.7,2.24 -1.35,5.39 0.89,7.13l0.97 0.77z"/>
  <path class="fil0" d="M861.96 286.03l0.89 1 3.5 1.72 0.29 0 3.38 -1.28 44.77 -39.98c2.12,-1.85 2.3,-5.04 0.43,-7.11l-0.89 -1.02 -3.5 -1.7 -3.67 1.29 -44.76 39.96c-2.12,1.86 -2.28,5.05 -0.43,7.13z"/>
  <path class="fil0" d="M946.16 320.85l-13.25 15.74 -6.8 -11.11 20.05 -4.63zm-50.68 1.56l-0.53 3.94 0.35 1.29c0.71,2.61 3.36,4.19 6.01,3.61l13.06 -3.01 10.76 17.56 -8.6 10.29c-1.76,2.07 -1.53,5.16 0.46,6.96l0.97 0.92 3.4 1.35 0.33 -0.02 3.55 -1.8 40.58 -48.18 0.43 -5.95 -0.73 -1.2c-1.16,-1.85 -3.38,-2.76 -5.47,-2.26l-61.37 14.21 -3.2 2.32z"/>
  <path class="fil0" d="M662.22 261.15l4.77 4.94c-1.8,1.4 -3.38,3.07 -4.73,4.95 -1.35,-1.89 -2.97,-3.51 -4.77,-4.91l4.73 -4.98zm-20.53 -0.08l-1.18 0.52c-2.01,1.02 -2.73,3.23 -2.3,5.33l2.84 3.9 0.62 0.27 0.29 0.12c7.73,1.55 13.81,5.66 15.05,13.98 -0.21,2.28 1.14,3.81 2.93,4.52l2.43 0.62 0.89 -0.22 0.65 -0.15 0.6 -0.25 2.45 -2.43 0.27 -0.64 0.08 -0.29c1.33,-9 6.82,-13.45 15.45,-15.2l0.02 -0.02 1.2 -0.52c2.02,-1.02 2.72,-3.2 2.3,-5.33l-2.86 -3.88 -0.62 -0.29 -0.29 -0.15c-7.71,-1.53 -13.79,-5.64 -15.03,-13.98 0.19,-2.26 -1.14,-3.79 -2.94,-4.48l-2.4 -0.62 -0.93 0.21 -0.62 0.16 -0.61 0.21 -2.45 2.45 -0.27 0.68 -0.08 0.25c-1.33,9.04 -6.82,13.44 -15.45,15.2l-0.02 0.02z"/>
  <path class="fil0" d="M306.22 426.49c1.85,2.7 4.08,4.98 6.68,6.87 -2.59,1.93 -4.81,4.25 -6.61,6.92 -1.82,-2.67 -4.08,-4.93 -6.68,-6.86 2.59,-1.89 4.81,-4.21 6.61,-6.93zm-24.44 2.39c-2.01,1.02 -2.72,3.19 -2.28,5.33l2.78 3.87 0.72 0.34 0.23 0.1c9.27,1.76 16.38,6.87 17.81,16.73 -0.39,3.94 4,5.64 7.18,4.63l0.83 -0.31 0.42 -0.25 1.14 -1.08 0.76 -1.99c1.56,-10.41 8.03,-15.84 18.1,-17.79l1.26 -0.52c2.01,-1.06 2.72,-3.26 2.3,-5.35l-2.82 -3.92 -0.71 -0.25 -0.27 -0.12c-9.23,-1.76 -16.34,-6.88 -17.75,-16.77 0.35,-3.91 -4.02,-5.62 -7.21,-4.58l-0.83 0.29 -0.42 0.25 -1.14 1.08 -0.72 1.97c-1.58,10.43 -8.05,15.88 -18.14,17.85l-1.25 0.5z"/>
  <path class="fil0" d="M835.23 555.11c1.99,3.05 4.48,5.62 7.4,7.69 -2.9,2.09 -5.41,4.73 -7.4,7.73 -1.97,-2.99 -4.48,-5.6 -7.38,-7.69 2.9,-2.09 5.41,-4.68 7.38,-7.73zm-25.05 12.44l0.73 0.29 0.26 0.08c9.83,1.87 17.34,7.36 18.83,17.83 -0.39,3.94 4.02,5.66 7.21,4.58l0.83 -0.25 0.42 -0.29 1.12 -1.03 0 -0.02 0.73 -1.99c1.66,-11.01 8.52,-16.82 19.14,-18.87l1.33 -0.52c1.97,-1.03 2.72,-3.22 2.3,-5.35l-2.82 -3.86 -0.75 -0.34 -0.23 -0.1c-9.81,-1.87 -17.32,-7.34 -18.83,-17.79 0.39,-3.96 -4.03,-5.66 -7.2,-4.64l-0.83 0.33 -0.41 0.23 -1.16 1.08 -0.72 1.99c-1.62,11.01 -8.5,16.82 -19.14,18.87l-1.31 0.52c-1.99,1.02 -2.72,3.24 -2.28,5.33l2.78 3.92z"/>
  <path class="fil0" d="M415.47 588.78c33.86,-14.76 65.38,-21.17 102.39,-16.28 26.79,3.57 51.92,7.46 78.47,0.25 16.69,-4.52 35.6,-9.14 45.8,-24.07 10.89,-15.9 7.73,-42.94 7.09,-61.38l-0.23 -3 -0.23 -0.43 -0.45 -0.87c-3.94,-7.46 -10.45,-10.35 -18.39,-13.02 -11.06,-3.75 -13.21,-14.72 -16.73,-24.53 -2.35,-6.51 -12.63,-3.49 -10.33,3.11 3.07,8.93 5.33,17.46 11.65,24.72 6.66,7.59 17.81,6.91 24.18,14.54 0.06,19.51 3.77,50.43 -14.12,62.12 -21.81,14.26 -53.76,16.26 -78.44,13.42 -47.05,-5.41 -92.67,-11.55 -135.03,15.76 -4.91,3.17 -1.37,12.17 4.37,9.68z"/>
  <path class="fil0" d="M439.88 718.15c-6.88,2.72 -13.29,7.26 -19.14,12.4 8.29,-13.15 13.12,-26.91 12.73,-41.27 4.79,9.52 6.32,19.01 6.41,28.86zm27.44 121.52c-6.05,-0.6 -12.13,-1.16 -18.19,-1.78l0.19 -0.76 -0.02 -0.46c1.06,-4.23 -1.12,-8.59 -2.61,-12.96 -1.75,-5.1 -3.84,-10.12 -5.97,-15.08 -2.26,-5.23 -11.45,-4.97 -10.8,1.75 0.52,5.41 2.03,10.76 3.54,15.99 0.83,2.77 1.66,7.03 3.31,10.3 -3.42,-0.31 -6.84,-0.64 -10.26,-0.98 -0.95,-5.2 -2.26,-10.39 -4.41,-15.22 -2.84,-6.37 -11.9,-3.86 -10.45,3.17 0.72,3.65 1.43,7.34 2.4,10.89 -7.73,-0.73 -15.47,-1.37 -23.2,-1.97l-3.87 -0.21c1.18,-13.35 4.7,-26.52 6.94,-39.83 8.48,-25.27 23.95,-44.72 45.29,-59.34 -0.33,4.02 -0.71,8.13 -1.08,12.3 -2.93,35.58 16.52,62.87 29.19,94.19zm5.24 -115.47c6.84,-12 15.62,-22.08 21.56,-34.35 3.09,2.28 6.88,4.33 11.84,6.07 13.3,4.67 25.9,6.32 39.91,5.66 17.27,-0.81 30.44,-5.93 45.16,6.91 19.01,16.55 19.47,49.95 22.23,72.68 2.63,21.61 3.79,43.38 7.4,64.84 -5.93,0.11 -11.84,0.23 -17.77,0.29 2.47,-7.42 2.47,-16.07 0.27,-22.58 -2.24,-6.55 -11.3,-4.77 -11.67,1.87 -0.34,6.42 -1.58,12.38 -4.4,18.18l-1.31 2.57c-2.99,-0.02 -5.93,-0.06 -8.92,-0.11 4.17,-11.53 5.48,-24.47 7.59,-36.28 1.3,-7.28 -8.86,-9.83 -11.16,-2.78 -4.03,12.5 -9.5,25.69 -10.74,38.87 -3.17,-0.04 -6.34,-0.18 -9.52,-0.26 -0.12,-2.03 -0.64,-4.17 -1.1,-6.2 -1.06,-4.73 -3.17,-9.46 -6.3,-13.15 -3.61,-4.17 -11.47,0.58 -9.27,5.68 1.43,3.36 2.13,6.84 2.77,10.39l0.46 2.78c-11.28,-0.52 -22.54,-1.29 -33.75,-2.16 3.71,-6.76 5.02,-15.18 2.84,-21.88 -1.97,-6.07 -11.32,-4.73 -11.16,1.8 0.15,4.4 -1.08,8.28 -2.92,12.25 -0.81,1.68 -2.05,4.5 -3.5,6.59 -3.01,-0.27 -6,-0.54 -8.98,-0.81 -4.68,-15.3 -11.98,-29.4 -19.01,-43.81 -1.85,-3.81 -3.3,-7.57 -4.5,-11.38 -1.7,-21.39 3.19,-42.88 13.93,-61.69zm165.97 18.23c0.52,-3.07 1.03,-6.1 1.66,-8.98 -0.58,6.57 -0.65,13.22 -0.16,19.88 2.38,30.65 6.41,61.02 7.79,91.77 -5.16,0.25 -10.29,0.48 -15.45,0.66 -0.06,-11.11 0.04,-23.14 -0.12,-35.5 0.64,-22.72 2.55,-45.35 6.28,-67.84zm-238.08 -152.59c-13.12,10.43 -17.81,28.24 -11.82,43.96 3.09,8.06 9.75,12.21 16.3,12.05l0.66 1.89c2.73,4.71 5.82,9.2 8.98,13.67l0.08 0.64c6.27,19.14 9.83,35.52 1.22,54.56 -7.42,16.36 -22.45,29.63 -34.52,42.55 -1.41,1.47 -2.26,4.02 -1.45,6.03 8.25,20.57 -3.82,44.58 -5.81,66.43 -4.98,-0.27 -9.97,-0.39 -15.01,-0.45 2.09,-6.35 3,-13.02 4,-19.62 1.05,-6.84 -8.88,-9.56 -10.6,-2.63 -1.85,7.45 -4.21,14.68 -6.16,22.11 -3.27,0 -6.59,0.04 -9.89,0.1 0.23,-1.82 0.15,-3.79 -0.14,-5.8 -0.38,-2.49 -1.58,-4.56 -4.17,-5.21 -2.7,-0.68 -6.24,1.04 -6.68,4l-0.56 3.98 -0.48 2.14 -0.39 0.87 -0.14 0.33c-12.82,0.48 -25.61,1.25 -38.36,2.43 -5.08,-6.16 -8.02,-14.06 -8.02,-22.04 0,-6.61 -9.81,-7.55 -11.38,-1.26 -1.97,7.83 0.21,17.21 4.83,24.84 -2.16,0.23 -4.33,0.48 -6.51,0.73 -2.28,-3.09 -2.57,-5.04 -2.73,-9.13 -0.29,-6.72 -10.04,-6.32 -10.35,0.27 -0.14,3.65 -0.12,7.28 1.16,10.45 -8.88,1.25 -17.73,2.53 -26.41,4.04 -5.95,1.06 -4.19,10.66 1.63,10.35 54.72,-2.78 108.55,-9.62 163.46,-5.37 57.87,4.48 114.72,13.81 172.95,15.78 54.34,1.82 109.92,1.45 163.7,-7.14 61.6,-9.83 121.98,-22.27 184.14,-28.57 8.33,-0.85 7.9,-12.24 -0.29,-12.88 -38.45,-2.82 -77.88,3.81 -116.45,11.32 0.99,-2.65 1.68,-5.47 1.97,-8.4 0.22,-2.42 -2.06,-4.77 -4.3,-5.33 -3.19,-0.79 -5.82,1.22 -6.82,4.1 -1.06,2.97 -2.32,5.81 -4.27,8.29 -1.72,2.16 -3.9,3.51 -6.04,5.14l-0.08 0.06c-8.98,1.76 -17.91,3.53 -26.74,5.16 -1.97,0.34 -3.94,0.61 -5.91,0.95l1.39 -5.12c1.16,-6.92 -8,-9.04 -10.43,-2.61 -1.35,3.67 -3.17,7.34 -5.95,10.18 -5.97,0.89 -11.97,1.63 -17.96,2.34 3.96,-7.05 5.62,-16.15 5.97,-23.18 0.31,-6.32 -9.39,-7.09 -10.89,-1.2 -1.2,4.89 -2.17,9.84 -4.17,14.49 -2.26,5.23 -5.64,7.86 -10.16,11.03l-1.08 1.04 -5.01 0.48c4.33,-7.3 4.46,-17.42 2.49,-25.61 -1.52,-6.24 -11.4,-4.56 -11.05,1.74 0.56,8.75 -0.69,16.53 -6.81,23.06l-1.12 2.07c-3.32,0.23 -6.61,0.48 -9.93,0.69 0,-23.75 -4.25,-47.38 -2.8,-71.06 1.51,-24.07 1.22,-56.19 11.16,-78.11l0.39 -1.29c4.25,-3.46 8.46,-6.91 12.27,-10.7 16.42,-16.32 17.86,-41.55 21.17,-63.12 4.77,-30.58 -2.24,-59.88 -5.31,-90.26 4.27,-2.32 7.78,-6.47 9.93,-13.12 4.6,-14.35 1.29,-31.81 14.49,-41.97 9.31,-7.19 15.82,-9.47 19.06,-21.81 1.9,-7.3 -9.5,-10.12 -11.32,-2.84 -2.43,9.54 -9.6,11.59 -16.61,17.06 -5.43,4.27 -8.44,9.42 -10.8,15.7 -1.25,3.34 -1.89,6.76 -2.36,10.22 -4.03,1.06 -8.82,2.26 -11.76,0.79 -5.53,-2.84 -11.84,4.9 -6.65,9.04 4.13,3.32 10.49,4.46 16.4,3.59 -0.44,1.97 -0.93,3.9 -1.72,5.79 -5.74,14.43 -19.84,6.41 -29.15,1.62 -6.05,-3.07 -10.29,5.27 -5,9 7.09,5 16.09,9.02 24.41,9.33 -0.02,29.14 6.9,57.08 3.79,86.49 -2.16,20.11 -3.52,40.31 -17.13,56.38 -3.5,4.14 -7.56,7.78 -11.76,11.34l-2.03 1.66 -0.08 0.12c-5.01,4.17 -10.16,8.25 -14.7,12.81 -11.78,11.8 -13.54,28.57 -16,44.19l0 0.08c-2.55,-11.51 -6.1,-22.39 -11.18,-32.14 -10.12,-19.51 -27.51,-30.25 -49.18,-30.77 -16.87,-0.42 -31.43,4.66 -48.85,0.83 -22.12,-4.81 -22.65,-24.55 -35.87,-37.99 -4.79,-4.81 -12.96,1.8 -9.21,7.46 6.91,10.49 9.1,19.95 13.92,27.76 -9.09,17.59 -24.24,32.51 -30.83,51.16l-0.21 0.7c0.19,-4.31 0.42,-8.65 0.54,-13.06 0.85,-29.59 -22.16,-56.69 -40.85,-77.44 2.24,-1.95 4.15,-4.67 5.41,-8.23 2.28,-6.47 -6.3,-9.23 -10.43,-5.72 -1.58,1.35 -4,5.55 -6.31,5 -2.42,-0.65 -3.9,-5.91 -4.44,-7.84 -2.88,-9.97 0.52,-20.75 8.11,-27.55 4.31,-3.84 -1.85,-11.49 -6.41,-7.88z"/>
  <path class="fil0" d="M589.03 362.55c-1.26,9.1 -1.43,18.49 -1.18,27.76 -5.62,-7.52 -10.14,-14.93 -13.44,-23.28 4.87,-0.66 10.06,-2.35 14.62,-4.48zm-34.3 -15.22c6.64,19.41 4.95,32.68 18.72,49.54 17.65,21.63 42.28,54.39 72.39,62.16l-1.7 1.02c-5.62,3.67 -0.29,12.38 5.43,8.83 13.68,-8.42 29.83,-11.34 43.88,-2.34 4.29,2.76 9.18,-2.7 7.51,-6.68 21.81,-6.95 43.19,-28.27 54.1,-44.77 5.24,-7.92 5.5,-19.22 6.49,-28.26 1.35,-12.21 7.01,-22.98 9.68,-34.81 3.67,-16.18 -5.97,-36.33 -13.83,-49.81 -2.94,-5.06 -11.51,-1.37 -9.43,4.25 5.68,15.31 13.64,31.69 10.47,48.56 -0.39,2.26 -0.92,4.48 -1.43,6.7 -5.99,-13.5 -16.55,-25.69 -23.55,-38.05 -2.94,-5.23 -12.01,-1.3 -9.69,4.33 5.13,12.28 12.05,23.66 17.75,35.54 -7.88,-4.67 -16.82,-7.38 -24.12,-6.96 -6.3,0.31 -6.72,8.58 -1.18,10.51 13.19,4.63 27.43,11.38 32.79,25.05 -0.58,2.63 -1.16,5.28 -1.58,7.96 -0.68,4.27 -2.49,8.52 -5.04,12.67 -0.75,-7.53 -3.54,-14.76 -9.16,-19.28 -3.9,-3.13 -10.61,-0.02 -8.79,5.41 1.74,5.14 4.33,9.72 5.56,15.08 0.97,4.31 0.56,8.81 0.08,13.18 -9.33,8.44 -21.05,15.58 -31.81,19.88 7.82,-17.6 12.58,-35.7 11.24,-55.53 -0.48,-6.91 -10.06,-6.45 -10.57,0.29 -1.52,20.2 -3.26,41.18 -15.8,58.12l-0.46 0.79c-4.1,-0.66 -8.31,-0.66 -12.54,-0.16l-2.05 -1.49c-3.2,-1.35 -6.28,-2.66 -9.29,-4 -5.37,-17.79 -1.63,-36.7 -5.37,-54.93 -1.23,-5.87 -11.03,-4.3 -10.41,1.68 1.49,14.41 -1.45,31.19 0.91,46.26 -4.6,-2.35 -9,-4.79 -13.3,-7.42 -2.38,-3.34 -4.35,-7.07 -5.8,-11.61 -3.5,-10.76 -2.53,-22.1 -3.32,-33.2 -0.41,-5.62 -9.62,-7.28 -10.34,-1.14 -1.2,9.97 -1.25,21.51 0.89,32.41 -4.19,-3.65 -8.28,-7.65 -12.3,-12.13 0.58,-20.37 0.75,-39.36 4.52,-59.49 1.02,-5.58 -7.24,-9.56 -9.73,-3.83 -1.03,2.42 -1.97,4.93 -2.72,7.46l-0.56 0.04c-4.17,1.14 -8.23,2.59 -12.46,3.65 1.66,-3.49 3.5,-6.84 5.91,-10.1 4.67,-6.27 9.62,-12.3 13.89,-18.79 3.23,-4.93 -4.58,-10.63 -8.28,-6.1 -6.99,8.63 -16.13,17.69 -21.75,27.97 -1.95,-6.57 -4.89,-10.72 -3.91,-19.72 0.97,-8.5 3.36,-15.15 3.11,-23.78 -0.19,-5.87 -9.65,-7.26 -10.51,-1.18 -2.32,16.67 -8.15,29.78 -2.53,46.22z"/>
  <path class="fil0" d="M148.08 664.78c38.5,-29.84 87.33,-6.45 92.85,40.95 0.79,6.88 11.03,6.91 10.93,-0.25 -0.21,-11.33 -2.97,-21.61 -7.53,-30.59 9.35,-5.85 17.37,-10.47 29.55,-11.11 13.79,-0.76 25.98,5.4 34.34,15.74 -3.53,5.14 -5.37,11.4 -4.91,17.77 0.46,5.93 9.87,7.63 10.89,1.2 2.94,-18.68 21.75,-25.03 34.84,-10.97 4.13,4.48 11.86,-1.79 8.29,-6.68 -1.85,-2.53 -3.92,-4.65 -6.18,-6.47 2.26,-6.04 4.97,-11.38 10.24,-15.61 6.2,-5 14.02,-7.01 21.63,-8.73 6.2,-1.39 4.23,-10.59 -1.7,-10.63 -18.6,-0.13 -36.92,11.16 -41.97,28.96 -5.04,-1.26 -10.47,-1.3 -16.03,0.29 -2.28,0.61 -4.36,1.62 -6.32,2.76 -16.92,-23.66 -58.97,-28.99 -79.45,-7.26 -22.15,-28.45 -65.28,-36.78 -96.46,-8.01 -4.65,4.27 1.97,12.57 7.01,8.63z"/>
  <path class="fil0" d="M332.06 799.62c2.8,5.74 11.43,1.3 9.87,-4.46 -5.08,-18.84 -26.18,-25.59 -42.96,-19.26 -2.78,-7.84 -7.09,-15.16 -13.04,-21.25 -13,-13.33 -32.43,-14.54 -49.54,-10.29 -5.77,1.45 -4.31,11.43 1.7,10.47 14.21,-2.24 27.91,-0.83 38.82,9.31 10.68,10.02 13.07,25.73 14.64,39.48 0.79,7.09 10.43,6.8 10.97,-0.25 0.43,-5.55 0.12,-11.09 -0.77,-16.55 11.34,-4.04 25.16,2.12 30.32,12.8z"/>
  <path class="fil0" d="M482.56 791.77c24.44,-10.41 45.67,-7.25 65.54,10.64 5.33,4.79 12.15,-2.7 7.57,-7.94 -4.42,-5.1 -9.42,-9.31 -14.83,-12.67 5.6,-13.29 18.47,-21.35 33.14,-21.71 6.11,-0.16 7.44,-9.81 1.18,-10.93 -18.54,-3.42 -40.93,8.11 -46.84,26.56 -16.19,-5.6 -34.19,-3.99 -50.14,6.28 -4.95,3.23 -1.41,12.19 4.38,9.76z"/>
  <path class="fil0" d="M712.11 663.06c-7.03,0.83 -6.62,10.07 0.27,10.8 33.15,3.44 45.8,34.08 46.54,63.97 0.13,6.2 9.96,7.59 11.11,1.2 1.7,-9.56 0.81,-20.26 -2.2,-30.59 10.97,-7.42 26.71,-9.31 36.99,-0.27 -2.24,4.91 -3.57,10.37 -3.54,16.11 0,6.2 9.45,7.24 10.78,1.18 3.81,-17.1 14.49,-29.19 31.06,-31.16 -1.31,5.97 -1.95,12.21 -1.72,18.6 0.27,7.15 10.22,6.53 10.84,-0.25 2.43,-27.37 15.26,-48.54 44.21,-51.52 15.78,-1.62 40.73,3.83 46.84,20.71 2.39,6.64 12.17,3.71 10.45,-3.13 -2.76,-11.03 -10.57,-18.58 -20.3,-23.37 7.9,-15.84 27.04,-21.95 43.89,-21.83 7.36,0.06 6.61,-10.39 -0.27,-11.11 -21.05,-2.2 -45.2,9.27 -53.62,29.11 -10.2,-2.99 -21.29,-3.71 -30.56,-2.78 -22.43,2.26 -38.34,15.82 -46.09,34.17 -13.68,-0.71 -27.14,5.41 -35.83,15.57 -12.61,-11.98 -33.07,-10.55 -47.13,-0.79 -9.57,-20.88 -28.15,-37.45 -51.73,-34.62z"/>
  <path class="fil0" d="M853.91 799.99c2.3,6.64 11.78,3.63 10.33,-3.13 -5.82,-27.52 -43.67,-33.55 -62.81,-16.12 -6.03,-4.87 -13.22,-8.31 -21.69,-9.53 -12.25,-1.79 -25.38,2.61 -33.77,11.61 -14.14,-21.19 -39.11,-35.62 -63.95,-24.92 -6.16,2.63 -3.59,12.44 3.04,10.18 29.03,-9.91 51.92,17.48 60.63,42.09 2.42,6.87 12.19,3.73 10.7,-3.23 -0.98,-4.56 -2.55,-9.12 -4.58,-13.56 18.46,-19.3 44.27,-6.1 55.7,14.72 3.03,5.49 12.34,1.36 10.06,-4.54 -2.01,-5.1 -4.63,-9.77 -7.71,-13.98 14.58,-9.97 37.5,-8.19 44.06,10.41z"/>
  <path class="fil0" d="M908.72 772.1c11.48,-8.6 25.92,-6.68 38.5,-1.97 5.77,2.16 9.5,-7.51 3.94,-10.03 -16.92,-7.73 -35.48,-8.42 -50.86,3.09 -11.16,8.34 -16.84,21.44 -14.21,35.11 1.35,6.84 11.3,3.54 10.26,-3.11 -1.47,-8.9 5.81,-18.1 12.36,-23.08z"/>
  <path class="fil0" d="M814.85 924.11c6.18,2.12 9.87,-7.65 4.13,-10.51 -5.08,-2.57 -10.26,-4.85 -15.49,-7.01l1.18 -4.91c-0.25,-4.26 -4.73,-6.62 -8.42,-4.57l-4.1 3.54 -1.37 1.17c-2.84,-0.96 -5.74,-1.81 -8.63,-2.69l1 -1.59c2.39,-4.66 -3.05,-10.89 -7.8,-7.44 -1.86,1.35 -3.75,2.66 -5.64,4l-2.05 1.18c-3.09,-0.68 -6.2,-1.35 -9.33,-1.95 1.91,-3.91 2.9,-8.11 3.32,-12.57 0.52,-5.53 -8.05,-7.21 -10.37,-2.5 -1.62,3.21 -3.2,6.8 -5.41,9.64l-2.84 2.9c-2.03,-0.25 -4.04,-0.54 -6.08,-0.79 3.57,-5.89 5.68,-12.9 5.89,-18.12 0.21,-5.45 -8.52,-7.9 -10.7,-2.63 -1.89,4.5 -3.75,9.1 -6.65,13.02 -1.78,2.39 -3.92,4.27 -6.04,6.24 -2.15,-0.15 -4.35,-0.16 -6.53,-0.25l1.2 -4.11c0.89,-6.2 -6.99,-9.81 -10.41,-4.08 -1.48,2.49 -3.17,4.63 -5.45,6.59l-1.9 1.41c-3.65,0.04 -7.28,0.1 -10.93,0.25l0.09 -0.39c0.33,-2.47 -0.38,-4.87 -2.68,-6.16 -2.57,-1.41 -6.07,-0.49 -7.48,2.16l-3.15 3.42 -3.63 1.95c-2.12,0.21 -4.25,0.33 -6.37,0.54 1.26,-3.84 1.43,-8.03 0.02,-11.86 -1.97,-5.23 -9.43,-5.35 -11.01,0.29 -0.93,3.42 -1.66,6.53 -3.53,9.6l-3.84 4c-2.86,0.39 -5.72,0.77 -8.56,1.2l-1.08 -5.55c-1.99,-4.81 -9.29,-5.44 -10.7,0.26 -0.7,2.99 -0.97,3.94 -2.72,6.74l-0.62 0.56 -0.26 0.23 -0.29 0.25c-6.8,1.16 -13.58,2.43 -20.32,3.81 1.2,-3.98 1.39,-8.15 0.25,-11.92 -1.74,-5.72 -9.2,-4.81 -10.99,0.31 -1,2.84 -1.72,5.7 -3.17,8.42 -1.68,3.11 -3.94,4.41 -6.72,6.45l-1.53 1.56c-28.74,6.71 -57.39,15.28 -86.15,22.54l0.23 -0.83c1.03,-5.95 -7.07,-9.68 -10.16,-4 -1.16,2.22 -2.32,4.32 -3.79,6.06l-2.43 2.34 -0.75 0.54c-2.43,0.53 -4.79,1.08 -7.22,1.58 4.77,-7.88 7.86,-17.19 7.57,-26.33 -0.23,-6.43 -9.54,-7.43 -11.14,-1.22 -1.89,7.09 -4.36,13.74 -8.09,20.1 -3.67,6.15 -8,9.09 -13.33,12.29 -2.65,0.43 -5.31,0.85 -7.94,1.2 1.26,-2.56 2.24,-5.3 2.84,-8.08 1.29,-5.98 -7.29,-9.77 -10.18,-4.03 -2.76,5.56 -6.61,10.33 -11.26,14.29 -11.01,1 -22.02,1.35 -33.11,1.04 -2.06,-2.03 -3.88,-4.23 -4.95,-7.3 -2.18,-6.12 -10.51,-4.5 -10.93,1.76l0.46 4.5c-2.57,-0.25 -5.16,-0.54 -7.75,-0.89 -3.99,-5.84 -3.46,-13.46 -4.34,-20.38 -0.76,-5.68 -9.99,-7.83 -10.94,-1.16 -0.75,5.37 -1.53,12.48 -0.46,18.83 -4.17,-0.85 -8.36,-1.83 -12.5,-2.99 -6.64,-1.78 -8.79,7.98 -2.55,10.2 28.03,9.87 56.46,12.1 84.89,10.02l0.81 0 0.38 -0.11c46.9,-3.6 93.8,-18.68 139.07,-30.15 39.83,-10.06 79.89,-18.41 120.98,-21.38 48.81,-3.52 94.59,5.61 140.48,21.49z"/>
  <path class="fil0" d="M358.85 743.92c6.05,-20.44 28.01,-26.56 46.76,-29.01 5.81,-0.73 7.79,-9.6 1.2,-10.89 -25.09,-4.98 -54.47,11.63 -61.04,36.63 -2.22,8.46 10.61,11.53 13.08,3.26z"/>
  <path class="fil0" d="M172.15 513.93c-2.28,4.85 -1.06,10.68 3.87,13.4 5.67,3.15 12.74,-0.11 14.37,-6.26 0.81,-3.07 0.29,-5.66 -1.2,-8.42 -1.89,-3.46 -7.01,-5.5 -10.72,-4.04 -2.76,1.08 -5.02,2.55 -6.32,5.33z"/>
  <path class="fil0" d="M471.25 499.46l0.06 -0.08 0.25 2.4 -0.31 -2.32zm3.03 -8.67c-3.65,2.72 -4.83,6.16 -4,10.57 1.16,6.08 8.33,8.69 13.73,7.34 3.91,-0.98 7.56,-5.55 7.05,-9.72l0 -0.11c-0.58,-4.4 -2.92,-8.28 -7.55,-9.39l-0.19 -0.04 -3.46 -0.15c-1.93,-0.08 -3.77,0.16 -5.58,1.49z"/>
  <path class="fil0" d="M920.06 427.8c11.82,0 11.34,-18.29 -0.43,-18.29 -11.84,0 -11.34,18.29 0.43,18.29z"/>
  <path class="fil0" d="M931.36 561.1l-0.64 3.61 1.14 4.39c1.26,2.02 3.65,3.05 6,3.22 8.46,0.65 9.37,-12.48 1.53,-14.43 -2.84,-0.73 -6.78,0.27 -8.03,3.22z"/>
  <path class="fil0" d="M823.78 428.13c7.86,0 7.55,-12.19 -0.31,-12.19 -7.86,0 -7.52,12.19 0.31,12.19z"/>
  <path class="fil0" d="M752.6 509.08c-7.48,0 -7.17,11.59 0.29,11.59 7.46,0 7.17,-11.59 -0.29,-11.59z"/>
  <path class="fil0" d="M811.43 522.53c1.39,-2.26 0.68,-5.2 -1.1,-7.03l-2.63 -2.07c-3.55,-2.49 -7.78,0.98 -8.05,4.67 -0.89,3.46 0.98,7.84 5.55,7.69 2.66,-0.08 4.77,-0.87 6.22,-3.26z"/>
  <path class="fil0" d="M769.05 638.69l-0.02 -0.48 0.17 0.64 -0.15 -0.16zm4.27 4.89c2.69,0.66 6.51,-1.08 6.84,-4.14l0.12 -0.48 0.48 -1.06c0.95,-3.96 -2.13,-7.88 -6.22,-7.78 -4.25,0.1 -6.84,4.14 -5.85,8.09l0.72 1.59c0.61,1.8 1.85,3.24 3.9,3.77z"/>
  <path class="fil0" d="M476.27 325.47l0.53 -1.51c1.45,-3.84 -2.45,-7.72 -6.1,-7.65 -3.75,0.1 -7.15,4.14 -5.72,7.92l0.53 1.53c1.49,5.45 9.33,4.92 10.74,-0.29z"/>
  <path class="fil0" d="M452.47 416.21c7.65,0.39 7.48,-12.38 -0.31,-11.98 -3.54,0.16 -7.26,1.99 -7.15,6.14 0.12,4.23 3.9,5.66 7.46,5.85z"/>
  <path class="fil0" d="M377.92 275.13c-2.38,2.65 -2.94,5.31 -3,8.73 -0.12,5.39 4.89,9.79 10.1,9.66 5.41,-0.12 9.79,-4.73 9.66,-10.12 -0.08,-3.5 -1.02,-5.93 -3.32,-8.6 -3.31,-3.79 -10.26,-3.3 -13.44,0.34z"/>
  <path class="fil0" d="M506.79 238.03l4.27 0.48 0.43 -0.02c3.01,-0.23 5.48,-2.51 5.37,-5.62 -0.06,-2.59 -1.7,-4.23 -3.86,-4.95l-2.32 -1.49c-5.23,-2.55 -9.89,2.86 -7.41,7.82l3.51 3.79z"/>
  <path class="fil0" d="M524.73 354.89l-0.12 0 -0.39 -0.21c-4.79,-3.11 -10.47,3.27 -7.49,7.86 1.6,2.4 3.65,4.46 6.62,4.93 3.42,0.54 6.84,-1.06 7.73,-4.64 0.91,-3.67 -2.16,-8.56 -6.35,-7.94z"/>
  <path class="fil0" d="M359.33 511.98c-8.06,0 -7.78,12.53 0.31,12.53 8.09,0 7.78,-12.53 -0.31,-12.53z"/>
  <path class="fil0" d="M392.92 420.19l-1.16 -4.6c-2.42,-4.13 -8.39,-3.65 -10.7,0.27l-1.02 4.66c-0.29,8.25 13.21,8.05 12.88,-0.33z"/>
  <path class="fil0" d="M170.31 374.3c-7.15,0 -6.87,11.07 0.29,11.07 7.14,0 6.84,-11.07 -0.29,-11.07z"/>
  <path class="fil0" d="M223.05 432.73c3.65,0.83 7.28,-1.95 7.22,-5.81 -0.1,-3.94 -3.86,-6.19 -7.51,-5.37l-1.58 0.35c-5.31,1.22 -4.79,9.29 0.25,10.47l1.62 0.35z"/>
  <path class="fil0" d="M276.36 568.71l-0.22 -0.43c0.66,1.97 0.56,1.56 0.22,0.43z"/>
  <path class="fil0" d="M275.35 564.71l1.01 4c1.48,3.76 4.98,6.37 9.1,6.27 4.33,-0.11 7.51,-3.05 8.85,-7.01l-0.48 1.27 1.25 -5.02c-0.15,-3.05 -1.12,-6.01 -3.5,-8.05 -4.15,-3.53 -9.06,-3.11 -13.04,0.29 -2.45,2.09 -3.05,5.23 -3.19,8.25z"/>
  <polygon class="fil0" points="276.14,568.26 276.14,568.27 276.03,567.9 "/>
  <path class="fil0" d="M215.47 579.95c2.74,-2.86 2.1,-7.96 -1.51,-9.79l-2.01 -1.08c-4.85,-2.99 -10.23,3.17 -7.41,7.78l1.1 2.05c1.89,3.61 7.24,3.77 9.83,1.03z"/>
  <path class="fil0" d="M256.77 512.27c3.77,0.71 7.55,-1.89 7.44,-6 -0.11,-4.25 -3.96,-6.28 -7.75,-5.6l-2.84 1.03c-3.67,2.55 -3.27,7.14 0.21,9.58l2.94 0.98z"/>
  <path class="fil0" d="M74.39 461.06c3.65,-0.08 7.09,-3.34 6.78,-7.13l-0.79 -3.49 -1.1 -2.84c-1.85,-3.99 -8.5,-3.51 -10.26,0.25l-0.69 1.97 -1.03 4.46c-0.31,3.77 3.61,6.86 7.09,6.78z"/>
  <path class="fil0" d="M137.07 428.92l4.81 0.16c2.39,-0.26 4.46,-1.59 5.06,-4.06 0.62,-2.53 -0.98,-6.16 -3.88,-6.49l-4.83 -0.17c-2.38,0.38 -4.41,1.54 -5.05,4.08 -0.65,2.63 1.01,6.06 3.9,6.47z"/>
  <path class="fil0" d="M288.45 319.04c-6.55,0 -6.28,10.19 0.27,10.19 6.53,0 6.3,-10.19 -0.27,-10.19z"/>
  <path class="fil0" d="M340.65 337.02c-2.33,-0.56 -5.58,0.48 -6.54,2.88l-0.48 1.33 -1.29 3.13c-0.56,3.84 1.18,7.59 5.17,8.58 4.02,1 9.45,-2.38 8.77,-7.01l-1.08 -3.73 -0.39 -1.18c-0.77,-1.95 -2.07,-3.46 -4.17,-4z"/>
  <path class="fil0" d="M433.82 226.42l1.22 4.71c2.2,2.94 7.45,4.62 10.1,1.03 1.45,-1.99 1.97,-3.63 2.03,-6.05 0.31,-8.59 -13.68,-8.36 -13.35,0.31z"/>
  <path class="fil0" d="M585.69 202.2l0.23 -3.09c0.29,-6.84 -10.93,-6.68 -10.68,0.25l0.33 3.09c1.18,5.14 8.96,4.64 10.12,-0.25z"/>
  <path class="fil0" d="M594.23 245.14c6.95,0.09 6.72,-10.86 -0.27,-10.78 -1.93,0 -4.08,0.04 -5.39,1.76 -1.37,1.7 -2.22,4.41 -0.66,6.42 1.75,2.22 3.67,2.59 6.32,2.59z"/>
  <path class="fil0" d="M676.46 335.03l-1.39 0.29c-5.85,1.08 -5.31,10.43 0.27,11.48l1.45 0.31c3.92,1.22 7.9,-2.36 7.79,-6.24 -0.1,-4.04 -4.18,-7.11 -8.13,-5.85z"/>
  <path class="fil0" d="M755.96 241.95c-8.05,0 -7.71,12.46 0.31,12.46 8.02,0 7.73,-12.46 -0.31,-12.46z"/>
  <path class="fil0" d="M828.84 319.81l2.99 -0.38c5.51,-2.11 4.95,-8.93 -0.25,-10.9l-3.03 -0.31c-7.46,0 -7.19,11.59 0.29,11.59z"/>
  <path class="fil0" d="M854 347.93c2.22,-0.04 4.42,-1.48 5.1,-4.03 1.29,-2.55 0.98,-5.28 -1.06,-7.51 -1.8,-1.97 -5.16,-2.13 -7.32,-0.76l-2.3 2.45 -0.64 1.6 -0.25 0.39c-2.47,4.23 2.2,9.39 6.47,7.86z"/>
  <path class="fil0" d="M900.07 475.74l-0.68 -1.02c-2.41,-3.8 -7.55,-3.36 -9.87,0.27l0.27 -0.34c-1.95,2.55 -2.49,6.04 -0.35,8.59l3.73 3.3c2.57,0.68 6.16,-0.91 6.72,-3.76 1.39,-2.03 1.64,-5.14 0.19,-7.05z"/>
  <polygon class="fil0" points="1003.16,373.87 1003.56,373.08 1003.99,371.69 "/>
  <path class="fil0" d="M1012.93 386.33c7.56,-0.15 11.96,-8.67 8.15,-15.05l-0.12 -0.23c-1.99,-2.84 -4.98,-4.71 -8.56,-4.63 -4.44,0.13 -7.19,2.93 -8.83,6.66 -2.03,6.32 2.05,13.45 9.37,13.25z"/>
  <path class="fil0" d="M987.96 483.49l0 0zm-0.48 -1.14l-0.06 0.62c-0.35,3.61 3.55,6.57 6.85,6.51 3.4,-0.08 6.92,-3.19 6.53,-6.84 -0.42,-3.63 -2.07,-6.76 -5.62,-8.25 -1.95,-0.79 -3.9,-1.02 -5.77,0.16 -2.05,1.26 -3.46,4.17 -2.49,6.55l0.56 1.24z"/>
  <path class="fil0" d="M1031.22 457.86c1.2,1.62 2.97,2.76 5.23,2.72 4.58,-0.11 6.78,-4.27 6.04,-8.38 -0.91,-5.08 -6.8,-6.99 -11.24,-5.31 -5.52,2.16 -4.95,8.73 -0.02,10.97z"/>
  <path class="fil0" d="M894.39 603.5c-7.63,0 -7.32,11.78 0.29,11.78 7.61,0 7.28,-11.78 -0.29,-11.78z"/>
  <path class="fil0" d="M732.24 577.69c-0.68,2.72 1.04,6.18 3.98,6.64l0.13 0.02c1.1,1.45 2.67,2.41 4.73,2.35 4.29,-0.08 6.26,-3.94 5.62,-7.75 -0.75,-4.48 -5.31,-6.01 -9.27,-5.4 -2.47,0.35 -4.54,1.56 -5.18,4.15z"/>
  <path class="fil0" d="M580.34 520.77l0.18 -0.02 1.49 -0.34 0.92 -0.33 0.43 -0.16 0.79 -0.66 0.39 -0.27 0.14 -0.25 0.62 -0.81 0.61 -1.43 0.1 -0.64 0.06 -1.93 -0.02 -0.08 -0.72 -2.03 -0.02 -0.06 -0.02 -0.02 -1.91 -1.86 -0.08 -0.06 -0.19 -0.12c-2.55,-1.3 -4.89,-0.87 -7.51,-0.15 -5.47,1.56 -4.91,9.27 0.27,10.74l4.46 0.49z"/>
  <path class="fil0" d="M528.65 489.73l3.13 0.31c7.13,0.38 6.96,-11.47 -0.29,-11.13l-3.09 0.43c-5.25,1.76 -4.73,8.73 0.25,10.39z"/>
  <path class="fil0" d="M540.65 434.25l0.11 -0.08c3.03,-1.48 3.54,-5.35 2.2,-8.23l-0.08 -0.12c-0.83,-1.76 -3.26,-2.9 -5.12,-2.8l-2.63 0.52c-2.84,0.91 -4,3.31 -3.73,5.66 -1.2,4.63 4.91,9.1 9.26,5.06z"/>
  <path class="fil0" d="M415.54 542.11l1.55 0.46c3.76,0.98 7.46,-2.09 7.38,-5.91 -0.12,-3.94 -3.94,-6.51 -7.63,-5.49l-1.55 0.41c-5.37,1.45 -4.85,9.19 0.25,10.53z"/>
  <path class="fil0" d="M328.89 614.35c0.85,2.86 4,4.54 6.84,3.69 3.73,-1.14 7.95,-3.13 8.83,-7.32 1.29,-5.89 -3.98,-9.42 -9.06,-10 -2.49,-0.27 -4.81,0.31 -6.12,2.63 -1.03,1.89 -0.81,4.48 0.52,6.16 -1.06,1.3 -1.58,2.97 -1.02,4.83z"/>
  <polygon class="fil0" points="410.15,67.72 410.17,67.76 "/>
  <path class="fil0" d="M399.92 68.71l0.62 -0.75 -0.71 1.14 0.08 -0.39zm5.71 10.74c6.38,-0.15 8.21,-7.38 4.54,-11.7l-0.43 -0.53 -2.92 -1.68c-2.12,-0.52 -3.77,-0.02 -5.62,0.93 -2.62,1.32 -3.22,4.41 -2.3,6.92 0.33,3.27 2.74,6.16 6.74,6.05z"/>
  <path class="fil0" d="M111.73 350.17l4 0.64c7.69,0 7.4,-11.98 -0.31,-11.98l-3.99 0.72c-5.41,1.39 -4.85,9.29 0.29,10.62z"/>
  <path class="fil0" d="M172.38 244.65c1.74,0.85 3.44,1.18 5.37,1.14 7.84,-0.23 7.45,-11.88 -0.29,-12.07 -1.95,-0.06 -3.59,0.43 -5.33,1.26 -3.77,1.78 -3.34,7.98 0.25,9.66z"/>
  <path class="fil0" d="M642.87 60.94c3.96,-0.17 7.11,-3.32 6.51,-7.42 -0.39,-2.63 -1.7,-4.9 -4.5,-5.6 -2.63,-0.66 -5.85,0.75 -6.89,3.34l-0.71 0.95c-1.03,1.95 -0.79,4.04 0.29,5.89 1.03,1.79 3.22,2.97 5.28,2.84z"/>
  <path class="fil0" d="M702.9 76.74l3.71 0 0.08 -0.02 1.26 -0.53 0.38 -0.17 0.39 -0.27 0.21 -0.14 -0.02 -0.04 1.14 -0.87c4.31,-4.21 -0.56,-10.27 -5.68,-9.23l-3.05 1.24c-4.08,2.84 -2.99,8.5 1.58,10.04z"/>
  <path class="fil0" d="M880.33 178.57l1.05 0c3.22,-0.29 5.87,-2.63 5.79,-6.05 -0.08,-3.51 -2.84,-5.48 -6.08,-5.77l-1.08 0c-3.22,0.29 -5.85,2.65 -5.77,6.05 0.11,3.5 2.86,5.47 6.08,5.77z"/>
  <path class="fil0" d="M935.79 250.23l1.18 0.39c3.71,1.2 7.51,-2.26 7.42,-5.97 -0.08,-3.8 -4,-6.78 -7.73,-5.56l-1.14 0.38c-5.45,2.05 -4.87,8.85 0.27,10.76z"/>
  <path class="fil0" d="M994.45 303.32l0.56 -0.26 4.02 -3.17 0.04 -0.04 0.52 -1.31 0.02 -0.1 -0.02 0c0.61,-2.43 -0.43,-5.54 -2.82,-6.55l-0.15 -0.04c-3.15,-1.3 -6.31,-0.66 -8.19,2.39l-1.02 2.42c-1.47,3.99 3.26,8.01 7.03,6.68z"/>
  <path class="fil0" d="M967.67 368.64c7.88,0 7.52,-12.19 -0.31,-12.19 -7.86,0 -7.53,12.19 0.31,12.19z"/>
  <path class="fil0" d="M308.13 131.12l2.63 -0.31c1.72,-0.75 3.09,-1.8 3.54,-3.71 0.56,-2.12 -0.39,-4.95 -2.53,-5.87l-3.92 -0.72c-6.84,0 -6.57,10.61 0.27,10.61z"/>
 </g>
</svg>
