
<svg xmlns="http://www.w3.org/2000/svg" xml:space="preserve" width="0.747331in" height="0.747346in" version="1.1" style="shape-rendering:geometricPrecision; text-rendering:geometricPrecision; image-rendering:optimizeQuality; fill-rule:evenodd; clip-rule:evenodd"
viewBox="0 0 86.14 86.14"
 xmlns:xlink="http://www.w3.org/1999/xlink"
 xmlns:xodm="http://www.corel.com/coreldraw/odm/2003">
 <defs>
  <style type="text/css">
   <![CDATA[
    .fil0 {fill:black;fill-rule:nonzero}
   ]]>
  </style>
 </defs>
 <g id="Layer_x0020_1">
  <metadata id="CorelCorpID_0Corel-Layer"/>
  <g id="_2805361149792">
   <path class="fil0" d="M55.62 62.88l0 -0 0.01 0.02 -0.01 -0.02zm-17.74 -26.68c-0.3,0 -0.6,0 -0.9,0.01 0.01,-0.83 0.01,-1.66 0.01,-2.49 0.29,0 0.58,0.01 0.88,0.01 0,0.83 0,1.65 0.01,2.48zm-0.01 -3.32c-0.29,0 -0.59,0 -0.88,0.01 0,-0.66 -0,-1.32 -0.01,-1.97 0.3,0 0.6,0.01 0.9,0.01 -0.01,0.65 -0.01,1.31 -0.01,1.96zm1.74 3.33c-0.3,-0 -0.6,-0.01 -0.9,-0.01 0.01,-0.83 0.01,-1.65 0.01,-2.48 0.29,-0 0.58,-0 0.88,-0.01 0,0.83 0,1.66 0.01,2.5zm-0.01 -3.32c-0.3,-0 -0.59,-0.01 -0.88,-0.01 -0,-0.65 -0,-1.3 -0.01,-1.96 0.3,-0 0.6,-0 0.9,-0.01 -0,0.66 -0.01,1.32 -0.01,1.98zm-9 -9.25c0.53,0.01 1.06,0.01 1.59,0 -0.02,1.27 -0.02,2.53 0,3.8 -0.53,0.66 -1.06,1.32 -1.59,1.98 0.01,-1.93 0.01,-3.85 -0,-5.78zm8.74 0.77c-0.67,-0.04 -1.37,-0.08 -2.04,-0.05 0.33,-0.42 0.67,-0.83 1,-1.25 0.34,0.43 0.69,0.87 1.04,1.3zm-0.69 -2.17l-0.1 -0.09c-0.15,-0.15 -0.38,-0.19 -0.55,0.02l-0.04 0.05 -0.04 0.05c-3.85,4.78 -7.7,9.56 -11.52,14.36 -0.17,-0 -0.34,-0.01 -0.51,-0.01 4.15,-5.14 8.29,-10.3 12.41,-15.47 4.14,5.18 8.31,10.33 12.48,15.48 -0.19,0 -0.38,0 -0.57,0 -2.43,-3.05 -4.87,-6.09 -7.32,-9.13l-0.08 -0.11c-1.38,-1.72 -2.76,-3.44 -4.15,-5.15zm45.62 28.46c-1.07,-0.21 -2.32,0.51 -2.95,1.5 -1.66,-1.33 -3.9,-0.34 -5.05,1.21 -0.51,-0.55 -1.21,-0.9 -1.97,-0.79 -0.51,0.07 -0.5,0.77 0.02,0.8 0.49,0.03 0.88,0.21 1.22,0.56 0.36,0.38 0.49,0.89 0.76,1.31 0.21,0.32 0.84,0.2 0.78,-0.23 -0.05,-0.31 -0.15,-0.63 -0.3,-0.92 1.04,-1.25 2.5,-2.12 4.08,-1.24l0.14 0.04c-0.07,0.25 -0.09,0.51 -0.07,0.77 0.05,0.48 0.69,0.56 0.85,0.09 0.36,-1.1 1.17,-2.18 2.3,-2.08 -0.99,4.7 -2.77,9.12 -5.2,13.1 -1.32,0 -2.64,0 -3.96,-0 0.12,-0.19 0.22,-0.4 0.28,-0.6 0.12,-0.43 -0.56,-0.71 -0.74,-0.29 -0.07,0.17 -0.17,0.33 -0.28,0.47 -0.13,0.16 -0.29,0.28 -0.44,0.42 -1.7,-0 -3.41,-0 -5.11,-0 0.12,-0.13 0.21,-0.27 0.28,-0.43 0.2,-0.48 -0.41,-0.83 -0.71,-0.39 -0.22,0.33 -0.55,0.56 -0.84,0.82 -1.27,-0 -2.53,-0 -3.8,-0 0.02,-9.12 0.02,-18.23 -0,-27.35 0.46,-0 0.92,0 1.38,-0l0.3 -0.14c0.13,-0.12 0.18,-0.3 0.04,-0.48 -2.93,-3.69 -5.91,-7.35 -8.88,-11.01l-0.09 -0.09 -0.26 -0.11c-0.47,-0.02 -0.93,-0.02 -1.4,-0 -0.53,0.02 -0.5,0.8 0.02,0.82 0.4,0.02 0.8,0.01 1.21,0 2.72,3.41 5.46,6.8 8.21,10.19 -4.08,-0.01 -8.15,-0.02 -12.23,-0 -2.72,-3.41 -5.45,-6.8 -8.19,-10.18 2.29,0.01 4.57,0.01 6.86,-0 0.53,-0 0.51,-0.81 -0.02,-0.82 -2.5,-0.02 -5,-0.02 -7.5,-0 -1.44,-1.78 -2.88,-3.56 -4.31,-5.34l-0.1 -0.09c-0.15,-0.15 -0.38,-0.19 -0.55,0.02l-0.04 0.05 -0.04 0.05c-1.64,2.03 -3.27,4.05 -4.9,6.08 0.01,-1.06 0.01,-2.13 -0.01,-3.19 -0,-0.18 -0.1,-0.29 -0.23,-0.35l-0.03 -0.02 -0.02 -0 -0.15 -0.03c-0.81,-0.02 -1.61,-0.02 -2.41,-0 -0.18,0 -0.29,0.1 -0.35,0.22l-0.02 0.04 -0 0.01 -0.03 0.15c-0.02,2.41 -0.02,4.81 -0,7.22 -1.68,2.1 -3.37,4.2 -5.04,6.31l-0.11 0.23 -0 0.03 0 0.07 0.01 0.06 0.03 0.09 0.04 0.06 0.03 0.04c0.11,0.12 0.26,0.18 0.41,0.13 0.34,0.01 0.68,0.01 1.02,0 -0.02,6.13 -0.02,12.26 0,18.39 0,0.53 0.82,0.51 0.82,-0.02l0 -0.31c0.54,0.06 1.1,0.03 1.63,0 0.54,-0.03 0.51,-0.81 -0.02,-0.84 -0.53,-0.03 -1.08,-0.06 -1.61,0 0,-0.2 0,-0.4 0,-0.6 0.81,0.01 1.61,0.08 2.42,0.07l0.15 -0.02c0.17,-0.01 0.34,-0.01 0.52,-0.02 0.29,0.01 0.42,-0.2 0.4,-0.43 0.01,-0.23 -0.13,-0.45 -0.42,-0.44 -0.18,-0.01 -0.35,-0.02 -0.52,-0.02l-0.15 -0.02c-0.8,-0.01 -1.59,0.06 -2.39,0.07 0,-0.22 0,-0.44 0,-0.65 0.72,0.11 1.5,0.07 2.22,0 0.54,-0.05 0.5,-0.78 -0.02,-0.83 -0.71,-0.07 -1.48,-0.1 -2.19,0.01 0,-0.18 0,-0.37 0,-0.55 0.9,0.06 1.9,0.16 2.8,0.03 0.44,-0.06 0.62,-0.78 0.09,-0.85 -0.93,-0.13 -1.95,-0.05 -2.89,0.01 0,-0.23 0,-0.46 0,-0.69 0.41,0.05 0.82,0.05 1.24,0.06 0.54,0 1.3,0.16 1.77,-0.17 0.26,-0.19 0.23,-0.52 -0.02,-0.7 -0.42,-0.3 -1.09,-0.17 -1.58,-0.16 -0.47,0 -0.94,0.01 -1.41,0.06 0,-0.7 0,-1.4 0,-2.1 0.45,0.08 0.93,0.04 1.39,0.04 0.57,0 1.14,-0 1.72,-0.06 0.55,-0.06 0.51,-0.79 -0.02,-0.85 -0.57,-0.06 -1.14,-0.06 -1.72,-0.06 -0.45,0 -0.92,-0.03 -1.36,0.04 -0,-0.58 -0,-1.16 -0,-1.74 0.7,0.1 1.46,0.02 2.16,-0.02 0.53,-0.03 0.5,-0.78 -0.02,-0.82 -0.7,-0.04 -1.44,-0.12 -2.14,-0.02 0,-0.17 0,-0.34 0,-0.51 0.39,0.06 0.81,0.03 1.21,0.03 0.53,0 1.05,-0.03 1.58,-0.08 0.54,-0.04 0.51,-0.79 -0.02,-0.83 -0.85,-0.07 -1.89,-0.22 -2.76,-0.05 -0,-0.16 -0,-0.32 -0,-0.47 0.89,0.09 1.84,0.04 2.72,-0.02 0.53,-0.04 0.5,-0.78 -0.02,-0.82 -0.87,-0.05 -1.82,-0.12 -2.7,-0.02 0,-0.25 0,-0.51 -0,-0.76l0.02 0c5.8,0.29 11.74,0.2 17.54,0 0.53,-0.02 0.51,-0.8 -0.02,-0.82 -5.81,-0.2 -11.74,-0.29 -17.54,0l-0 0c-0,-0.26 -0,-0.51 -0,-0.77l0.06 0.01c2.56,0.18 5.19,0.13 7.75,0.01 0.53,-0.02 0.51,-0.8 -0.02,-0.82 -2.56,-0.11 -5.2,-0.17 -7.75,0.01l-0.04 0.01 0 -0.17c0.12,-0.15 0.23,-0.29 0.35,-0.44l0.1 0.03c2.38,0.19 4.82,0.06 7.2,-0.02 0.53,-0.02 0.5,-0.8 -0.02,-0.82 -2.17,-0.07 -4.4,-0.18 -6.57,-0.06 0.15,-0.19 0.3,-0.38 0.45,-0.56l0.1 0.03c2.07,0.24 4.28,0.15 6.36,0.01 0.54,-0.03 0.5,-0.79 -0.02,-0.82 -1.88,-0.12 -3.88,-0.21 -5.78,-0.04 0.19,-0.24 0.38,-0.47 0.57,-0.71 1.55,0.17 3.2,0.1 4.74,0.02 0.54,-0.03 0.51,-0.8 -0.02,-0.83 -1.31,-0.07 -2.69,-0.14 -4.02,-0.05 0.56,-0.7 1.13,-1.4 1.7,-2.11 0.93,0.12 1.91,0.02 2.84,-0.02 0.52,-0.02 0.5,-0.78 -0.02,-0.8 -0.69,-0.03 -1.4,-0.09 -2.09,-0.07 0.13,-0.17 0.27,-0.34 0.4,-0.51l0.21 0.08c0.94,0.09 1.92,0.05 2.87,0 0.53,-0.03 0.5,-0.78 -0.02,-0.81 -0.81,-0.04 -1.64,-0.07 -2.46,-0.02 0.16,-0.19 0.31,-0.38 0.46,-0.58 0.85,0.12 1.79,0.09 2.64,0.01 0.54,-0.05 0.5,-0.78 -0.02,-0.82 -0.62,-0.05 -1.29,-0.09 -1.93,-0.05 0.12,-0.16 0.25,-0.32 0.38,-0.48l0.09 0.03c1.27,0.15 2.78,0.21 4.05,0.02 0.42,-0.06 0.6,-0.74 0.09,-0.81 -1.12,-0.17 -2.42,-0.15 -3.58,-0.04 0.18,-0.22 0.35,-0.44 0.53,-0.66 1.11,0.19 2.35,0.05 3.48,-0.01 0.52,0.65 1.04,1.31 1.57,1.96 -1.03,-0.05 -2.09,-0.08 -3.07,0.03 -0.45,0.05 -0.61,0.78 -0.09,0.84 1.25,0.15 2.6,0.07 3.87,0.01 0.14,0.17 0.28,0.35 0.42,0.53 -1.72,-0.08 -3.51,-0.07 -5.21,0.05 -0.52,0.04 -0.49,0.77 0.02,0.8 1.92,0.13 3.94,0.15 5.87,0.02l0.02 -0c0.13,0.16 0.26,0.32 0.38,0.48 -0.3,-0.01 -0.61,-0.02 -0.91,-0.02 -0.46,-0 -0.93,-0.05 -1.37,0.08 -0.4,0.12 -0.36,0.67 0.02,0.78 0.44,0.13 0.92,0.08 1.37,0.07 0.5,-0.01 1,-0.01 1.5,-0.05l0.07 -0.02c0.53,0.66 1.06,1.32 1.59,1.98 -1.85,-0.1 -3.75,-0.06 -5.59,0.03l-0.04 0.01c-0,-0.78 -0,-1.57 -0.01,-2.36 -0,-0.18 -0.1,-0.29 -0.22,-0.35l-0.03 -0.02 -0.01 0 -0.16 -0.03c-1.15,-0.02 -2.3,-0.02 -3.45,-0 -0.18,0 -0.29,0.1 -0.35,0.23l-0.02 0.03 -0 0.01 -0.03 0.15c-0,0.28 -0,0.55 -0,0.82 -1.15,-0.09 -2.43,-0.1 -3.56,0.04 -0.41,0.05 -0.57,0.73 -0.09,0.8 1.16,0.14 2.46,0.15 3.64,0.05 -0,0.21 -0,0.42 -0,0.62l-0.4 0.05c-0.13,0.05 -0.24,0.14 -0.27,0.29 -0.04,0.16 0.03,0.38 0.2,0.45 0.17,0.07 0.32,0.09 0.48,0.08 0,0.98 0,1.96 0.01,2.94 0,0.18 0.1,0.29 0.23,0.35l0.03 0.02 0.01 0 0.15 0.03c1.15,0.02 2.3,0.02 3.45,-0 0.17,-0 0.28,-0.09 0.34,-0.21l0.06 -0.21c0.01,-0.48 0,-0.95 0.01,-1.42 1.04,0.15 2.19,0.04 3.22,-0.04 0.55,-0.04 0.51,-0.8 -0.02,-0.84 -1.02,-0.07 -2.16,-0.18 -3.2,-0.04 0,-0.22 0,-0.44 0,-0.66l0.05 0.01c1.96,0.09 4,0.14 5.96,0.01l0.22 -0.08c0.17,0.21 0.34,0.43 0.51,0.64 -0.22,-0.01 -0.44,-0.01 -0.65,-0.01 -0.5,-0 -1.03,-0.06 -1.51,0.08 -0.4,0.12 -0.35,0.67 0.02,0.78 0.42,0.12 0.88,0.08 1.31,0.08 0.47,0 0.94,0.01 1.4,-0.05l0.12 -0.04c0.17,0.22 0.35,0.43 0.52,0.65 -1.9,-0.09 -3.95,-0.26 -5.8,0.02 -0.41,0.06 -0.59,0.73 -0.09,0.8 2,0.31 4.21,0.11 6.23,0.02l0.25 -0.1c0.22,0.27 0.44,0.55 0.66,0.82l0.05 0.05 0.31 0.14c4.24,0.02 8.47,0.02 12.71,0 -0,0.44 -0,0.88 -0,1.32l-0.19 -0.04c-5.22,-0.44 -10.57,-0.03 -15.8,0.02 -0.55,0 -0.52,0.84 0.02,0.85 5.23,0.04 10.58,0.45 15.8,0.02l0.17 -0.03c0,0.25 0,0.49 -0,0.74 -0.71,-0.1 -1.43,-0.06 -2.14,-0.06 -0.86,0 -1.75,-0.05 -2.6,0.07 -0.41,0.06 -0.58,0.73 -0.09,0.8 0.79,0.11 1.6,0.08 2.39,0.08 0.81,0.01 1.64,0.05 2.44,-0.06 0,0.32 0,0.64 0,0.96 -1.57,-0.07 -3.18,-0.11 -4.74,0.03 -0.53,0.05 -0.49,0.76 0.02,0.8 1.56,0.14 3.16,0.1 4.72,0.03 0,0.25 0,0.5 0,0.75 -0.34,-0.03 -0.69,-0.02 -1.03,-0.02 -0.47,0.01 -0.96,-0.02 -1.42,0.12 -0.39,0.12 -0.35,0.65 0.02,0.77 0.4,0.12 0.83,0.11 1.24,0.11 0.4,0 0.8,0.02 1.19,-0.02 -0,0.29 -0,0.59 -0,0.88 -0.7,-0.07 -1.41,-0.04 -2.11,-0.04 -0.95,0 -1.94,-0.09 -2.88,0.1 -0.39,0.08 -0.35,0.69 0.02,0.77 0.82,0.17 1.69,0.09 2.53,0.1 0.8,0 1.64,0.06 2.44,-0.03 0,0.79 -0,1.59 -0,2.38l-0.04 -0.01c-3.26,-0.21 -6.56,-0.08 -9.83,-0.08 -3.75,0 -7.75,0.42 -11.47,-0.04 -0.9,-0.11 -0.91,1.25 -0.13,1.15 3.52,-0.44 7.3,-0.08 10.85,-0.06 3.52,0.02 7.09,0.16 10.6,-0.08l0.02 -0c0,0.25 -0,0.5 -0,0.75 -1.64,-0.05 -3.34,-0.16 -4.98,0 -0.54,0.05 -0.5,0.77 0.02,0.82 1.63,0.16 3.32,0.05 4.95,0 0,0.15 0,0.3 0,0.46 -0.57,-0.08 -1.2,-0.12 -1.7,0.03 -0.16,0.05 -0.29,0.18 -0.33,0.35l0 0.24c0.12,0.52 0.89,0.42 1.29,0.41 0.25,-0 0.5,-0.02 0.75,-0.05 0,0.2 0,0.4 0,0.6 -0.81,-0.05 -1.62,-0.04 -2.43,-0.06 -0.81,-0.01 -1.67,-0.12 -2.46,0.1 -0.4,0.11 -0.36,0.68 0.02,0.78 0.78,0.22 1.66,0.11 2.46,0.09 0.8,-0.01 1.61,-0.01 2.41,-0.05 0,0.23 0,0.46 0,0.7 -1.48,-0.07 -3.09,0.13 -4.54,-0.13 -0.92,-0.17 -0.93,1.3 0.03,1.13 0.78,-0.14 1.68,-0.04 2.48,-0.04 0.68,-0 1.35,-0.04 2.03,-0.08 0,0.25 0,0.51 0,0.76 -0.66,-0.06 -1.34,-0.03 -2,0.02 -0.52,0.04 -0.48,0.75 0.02,0.79 0.64,0.05 1.33,0.09 1.98,0.03 0,0.17 0,0.34 0,0.51 -1.61,-0.12 -3.4,-0.19 -4.98,0.04 -0.4,0.06 -0.57,0.71 -0.09,0.78 1.61,0.24 3.42,0.18 5.07,0.06 0,0.19 0,0.38 0,0.57 -5.67,-0.06 -11.39,-0.27 -17.05,0 -0.52,0.03 -0.49,0.78 0.02,0.8 5.66,0.27 11.37,0.06 17.03,0 0,0.42 0,0.84 0,1.26 -4.18,-0.23 -8.59,-0.32 -12.76,0.02 -0.54,0.04 -0.51,0.79 0.02,0.83 0.57,0.05 1.15,0.08 1.73,0.11 -0.19,0.39 -0.21,0.86 0.06,1.2 0.27,0.34 0.9,0.14 0.74,-0.33 -0.06,-0.18 -0.08,-0.34 0.01,-0.52 0.08,-0.16 0.21,-0.23 0.35,-0.29 0.61,0.02 1.22,0.04 1.84,0.05l-0.04 0.35c-0.03,0.53 0.4,0.97 0.94,0.84 0.36,-0.09 0.39,-0.6 0.08,-0.77l-0.08 -0.05 0 -0.08 0 -0.03 0.04 -0.14 0.04 -0.11c2.36,0.01 4.73,-0.07 7.02,-0.2 0,0.16 0,0.31 0,0.47 -0.47,-0.12 -1.13,0.17 -1.33,0.6 -0.14,0.29 0.12,0.76 0.49,0.6 0.16,-0.07 0.31,-0.17 0.47,-0.25l0.38 -0.12c0,0.41 0,0.81 0,1.22 -0.58,0 -1.17,0 -1.75,0 0.05,-0.2 0.04,-0.43 -0.01,-0.63 -0.1,-0.45 -0.82,-0.33 -0.8,0.13l-0.01 0.29 -0.13 0.21c-1.93,-0 -3.87,-0 -5.8,-0 0.07,-0.19 0.04,-0.4 -0.05,-0.58 -0.08,-0.17 -0.31,-0.23 -0.47,-0.18 -0.19,0.06 -0.28,0.22 -0.29,0.41l-0.02 0.03 -0.21 0.21 -0.06 0.11c-1.42,0 -2.85,0 -4.27,0 0.05,-0.14 0.09,-0.28 0.1,-0.43l0.24 -0.03c0.24,-0.02 0.4,0.06 0.63,0.12 0.36,0.1 0.65,-0.32 0.46,-0.63 -0.29,-0.49 -0.96,-0.48 -1.5,-0.33 -0.07,-0.15 -0.16,-0.29 -0.27,-0.42 -0.52,-0.6 -1.45,-0.71 -2.13,-0.36 -0.07,-0.24 -0.19,-0.46 -0.36,-0.66 -0.47,-0.53 -1.28,-0.63 -1.85,-0.25 -0.3,-0.95 -0.91,-1.82 -1.83,-2.13 -1.32,-0.45 -2.82,-0.08 -3.73,0.95 -0.34,-0.39 -0.82,-0.67 -1.36,-0.8 -0.62,-0.15 -1.6,-0.08 -2.21,0.34 -0.82,-1.2 -2.64,-1.66 -3.85,-0.72 -0.26,-0.6 -0.69,-1.14 -1.26,-1.53 -1.41,-0.97 -3.33,-0.13 -4.5,0.9 -0.83,-0.22 -1.82,-0.18 -2.48,-0.05 -1.44,0.27 -2.68,1.7 -2.79,3.19 -0.57,-0 -1.17,0.17 -1.66,0.45 -0.78,0.44 -1.46,1.5 -1.2,2.41 -1.05,0 -2.1,0 -3.16,0 -0.05,-0.13 -0.15,-0.24 -0.34,-0.27 -0.23,-0.05 -0.46,-0.08 -0.68,-0.11 0.78,-1.99 1.09,-4.21 0.94,-6.32 -0.08,-1.17 -0.46,-2.33 -0.79,-3.44 -0.34,-1.16 -0.19,-2.71 -0.76,-3.76 -0.48,-0.89 -1.27,-1.43 -1.64,-2.4 -0.64,-1.69 -0.94,-3.2 0.73,-4.36 0.35,0.37 0.65,0.83 0.69,1.34 0.04,0.53 0.83,0.52 0.83,-0.02 0.01,-0.64 -0.28,-1.24 -0.72,-1.69 0.73,-0.18 1.48,-0.03 2.08,-0.23l0.01 0.01c0.99,0.38 1.51,1.8 2.55,2.03 0.7,1.09 0.53,2.34 -0.14,3.48 -0.24,0.4 0.36,0.85 0.66,0.49 0.25,-0.3 0.46,-0.66 0.61,-1.05 0.64,0.39 1.14,0.91 1.54,1.57 0.24,0.4 0.92,0.11 0.76,-0.34 -0.32,-0.88 -1.13,-1.79 -2.06,-2.05 0.13,-0.77 0.05,-1.57 -0.32,-2.21 1.29,-0.44 2.1,-1.58 3.13,-2.33 0.18,0.79 0.73,1.48 1.55,1.64 0.44,0.09 0.75,-0.58 0.3,-0.77 -0.57,-0.24 -0.97,-0.71 -1.1,-1.31 0.42,-0.18 0.88,-0.28 1.43,-0.25 0.48,0.03 0.56,-0.75 0.09,-0.84 -1.87,-0.34 -3.01,0.74 -4.27,1.97 -0.97,0.95 -1.94,1.4 -2.89,0.25 -0.33,-0.4 -0.67,-0.73 -1.1,-0.93 0.08,-0.14 0.16,-0.3 0.22,-0.51 0.17,-0.52 -0.63,-0.7 -0.81,-0.2 -0.35,0.99 -2.07,0.69 -2.86,0.9 -0.71,0.19 -1.3,0.75 -1.8,1.26 -0.33,0.34 -0.53,0.72 -0.64,1.12 -0.17,-0.11 -0.34,-0.21 -0.48,-0.31 -1.13,-0.73 -0.28,-0.81 -0.38,-1.65 -0.04,-0.37 -0.11,-0.7 -0.22,-1l0.07 -0.08c0.25,-0.46 0.78,-0.81 1.28,-1.19 0.44,0.67 1.3,1.05 2.02,0.49 0.34,-0.27 0.14,-0.95 -0.34,-0.76 -0.23,0.09 -0.42,0.16 -0.65,0.03l-0.35 -0.35c0.33,-0.38 0.5,-0.82 0.28,-1.42 -0.19,-0.5 -0.89,-0.28 -0.79,0.24 0.12,0.61 -0.55,0.95 -0.98,1.24 -0.38,0.26 -0.8,0.55 -1.06,0.94 -0.11,-0.12 -0.23,-0.24 -0.38,-0.35 -0.36,-0.28 -0.8,-0.47 -1.22,-0.67 -0.53,-0.26 -0.94,-0.58 -1.23,-0.95 0.11,-0.82 1.26,-1.17 1.85,-1.6 0.19,-0.14 0.36,-0.3 0.49,-0.47 1.05,0.45 2.49,-0.15 2.8,-1.28 0.13,-0.48 -0.53,-0.69 -0.78,-0.31 -0.39,0.61 -0.99,0.85 -1.65,0.75 0.06,-0.33 0.04,-0.69 -0.06,-1.06 -0.14,-0.5 -0.89,-0.27 -0.77,0.23 0.06,0.26 0.06,0.48 0.01,0.67 -0.62,-0.06 -1.16,-0.26 -1.57,-0.78 -0.46,-0.58 -0.62,-1.34 -0.47,-2.06 0.11,-0.51 -0.64,-0.69 -0.78,-0.19 -0.46,1.65 0.55,3.58 2.17,3.92 -0.55,0.42 -1.28,0.75 -1.7,1.28 -0.13,-0.43 -0.18,-0.92 -0.12,-1.46 0.04,-0.46 -0.72,-0.53 -0.8,-0.09 -0.19,1.06 -0.14,1.9 0.37,2.85 0.14,0.26 0.33,0.47 0.55,0.66l-0.2 0.15c-0.22,0.11 -0.48,0.17 -0.71,0.21 -0.46,0.09 -0.33,0.84 0.13,0.81 0.48,-0.03 1.21,-0.21 1.57,-0.64 0.6,0.33 1.24,0.6 1.73,1.01 0.62,0.53 0.47,1.13 0.32,1.71 -1.17,1.22 -2.57,-0.81 -3.53,-1.4 -0.9,-0.55 -1.74,-0.59 -2.56,-0.21 0.36,-22.79 19.01,-41.21 41.88,-41.21 19.15,0 35.34,12.91 40.32,30.49 -0.38,0.7 -0.93,1.28 -1.67,1.6 -0.47,0.2 -0.28,0.94 0.24,0.79 0.71,-0.21 1.29,-0.69 1.73,-1.29 0.84,3.3 1.28,6.75 1.28,10.3 0,2.61 -0.24,5.15 -0.7,7.63zm-8.63 18.7c-0.8,-0.04 -1.61,-0.01 -2.41,0.02 -0.52,0.02 -0.49,0.78 0.02,0.8 0.55,0.02 1.11,0.04 1.67,0.04 -0.6,0.7 -1.22,1.38 -1.86,2.03 -0.3,-1.55 -3.35,-1.81 -3.07,-3.09 0.13,-0.62 0.99,-0.88 1.17,-1.43 0.49,0.05 0.99,0.01 1.48,0.02 0.86,0 1.72,-0.01 2.57,-0.08 0.56,-0.04 0.53,-0.81 -0.02,-0.86 -0.75,-0.06 -1.5,-0.07 -2.25,-0.08 -0.65,-0.01 -1.35,-0.07 -2,0.04 -0.28,-0.46 -0.75,-0.85 -1.23,-1.18 2.89,-0 5.77,0 8.66,-0 -0.84,1.3 -1.75,2.56 -2.72,3.76zm-54.1 -6.97l-0.42 -0.26c0.24,-1.08 0.69,-2.12 1.89,-2.42 0.96,-0.24 2.6,-0.14 3.19,0.77 0.27,0.43 0.9,0.12 0.79,-0.36 -0.09,-0.4 -0.32,-0.7 -0.62,-0.92 0.95,-0.56 2,-1 3.06,-0.42 0.96,0.52 1.09,1.8 1,2.75 -0.05,0.52 0.71,0.53 0.85,0.09 0.14,-0.42 0.18,-0.85 0.15,-1.26 1.29,-1.09 3.11,-0.36 3.17,1.46 0.01,0.46 0.75,0.57 0.82,0.09 0.04,-0.29 0.04,-0.57 -0.01,-0.83 0.46,-0.23 0.83,-0.44 1.45,-0.34 0.85,0.13 1.25,0.75 1.41,1.54 0.1,0.51 0.81,0.31 0.84,-0.14 0.02,-0.25 -0,-0.48 -0.06,-0.7 0.76,-0.96 2.03,-1.41 3.18,-0.82 0.97,0.49 1.24,1.9 1.31,2.87 0.04,0.54 0.78,0.5 0.82,-0.02 0.02,-0.28 0.01,-0.58 -0.03,-0.89l0.12 -0.03c0.31,-0.15 0.6,-0.12 0.85,0.12 0.28,0.26 0.21,0.6 0.04,0.91 -0.23,0.43 0.32,0.78 0.66,0.48 0.17,-0.15 0.28,-0.32 0.35,-0.51l0.16 -0.02c0.44,-0.16 0.89,-0.17 1.25,0.17 0.33,0.31 0.18,0.71 0.04,1.07 -9.84,-0 -19.67,0 -29.51,0.01 -0.01,-0.29 -0.06,-0.55 0.06,-0.84 0.13,-0.31 0.39,-0.53 0.67,-0.71 0.43,-0.27 0.89,-0.33 1.35,-0.28l0.3 0.05c0.15,0.03 0.31,0.07 0.46,0.12 0.4,0.13 0.72,-0.45 0.4,-0.72zm21.53 22.54c-8.51,0 -16.44,-2.55 -23.06,-6.93 1.75,0.13 3.62,-0.1 4.86,-0.21 2.13,-0.19 4.15,-0.96 6.2,-1.53 2.83,-0.79 5.53,-0.51 8.34,0.21 0.57,0.15 0.73,-0.66 0.21,-0.86 -4.06,-1.58 -7.51,-0.87 -11.53,0.32 -1.78,0.53 -3.58,0.77 -5.43,0.88 -1.25,0.08 -3.32,0.25 -4.77,-0.31 -1.05,-0.79 -2.06,-1.63 -3.03,-2.51 0.99,-0.39 1.7,0.99 2.69,0.55 0.58,-0.26 1.05,-0.72 1.66,-0.89 2.09,-0.58 5.01,0.67 7.06,0.98 0.54,0.08 0.74,-0.67 0.21,-0.83 -2.22,-0.67 -5.19,-1.6 -7.56,-1.11 -1,0.21 -1.36,1.26 -2.54,0.49 -0.79,-0.52 -1.56,-0.35 -2.23,0.16 -0.88,-0.84 -1.72,-1.71 -2.52,-2.63 0.8,0.04 1.65,-0.03 2.38,-0.11 0.56,-0.06 0.51,-0.79 -0.02,-0.85 -0.99,-0.1 -2.19,-0.2 -3.19,-0.01 -0.41,-0.49 -0.8,-0.99 -1.19,-1.5 6.48,0.31 13.05,0.09 19.54,0 0.53,-0.01 0.51,-0.82 -0.02,-0.82 -6.59,-0.09 -13.26,-0.32 -19.84,0.01l-0.22 0.08c-0.45,-0.62 -0.89,-1.26 -1.3,-1.91 18.44,0.01 36.88,0.01 55.32,0l-0.03 0.29c0.06,0.25 0.09,0.46 0.1,0.64 -1.5,-0.04 -3.01,-0.02 -4.5,0.01 -0.52,0.01 -0.49,0.79 0.02,0.8 1.45,0.03 2.9,0.05 4.34,0.01 -0.38,0.7 -1.42,0.67 -2.18,1.39 -0.6,0.57 -0.75,1.2 -0.58,2 0.06,0.27 0.3,0.51 0.47,0.71 0.68,0.8 -1.51,1.42 -2.01,1.58 -1.46,0.44 -2.91,0.68 -4.29,1.38 -0.42,0.21 -0.09,0.96 0.34,0.77 1.19,-0.52 7.94,-1.31 7.23,-3.64 -0.09,-0.31 -0.41,-0.54 -0.64,-0.75 -1.29,-1.19 1.31,-1.94 1.86,-2.21 1.23,-0.6 0.98,-1.87 0.61,-2.92l-0.03 -0.05c1.5,0 3,0 4.5,-0l0.12 0.19c0.63,0.53 1.26,0.95 1.74,1.63l-0.58 0.53c-0.5,0.48 -0.68,1.21 -0.58,1.87 0.25,1.54 2.76,1.41 3.19,2.84l0.2 0.25c-7.57,7.44 -17.93,12.03 -29.35,12.03zm-40.14 -29.9c1.4,-1.17 2.66,-0.28 3.32,1.22 0.22,0.51 0.89,0.29 0.81,-0.25 -0.07,-0.42 -0.22,-0.8 -0.43,-1.13 0.51,-0.95 1.15,-1.77 2.25,-1.94 -0.01,0.26 0.03,0.52 0.12,0.77 0.15,0.41 0.87,0.36 0.8,-0.13 -0.08,-0.63 -0.04,-1.18 0.4,-1.67 0.29,-0.33 -0.13,-0.92 -0.5,-0.62 -0.26,0.21 -0.47,0.47 -0.61,0.77 -1.32,-0.08 -2.64,0.85 -3.13,2.09 -0.94,-0.73 -2.27,-0.84 -3.29,-0.01 -0.95,-3.46 -1.47,-7.09 -1.49,-10.85 2.1,-1 2.76,1.55 4.71,1.94 0.43,0.08 0.93,0.06 1.38,-0.1l0.24 0.31c0.76,0.68 1.58,0.97 1.76,2.26l0.01 0.05c-0.19,-0.05 -0.4,-0.09 -0.61,-0.11 -0.68,-0.06 -1.38,0.32 -1.98,0.55 -0.18,0.07 -0.34,0.11 -0.49,0.13 0.24,-0.68 0.27,-1.46 -0.29,-1.94 -0.34,-0.29 -0.89,0.11 -0.63,0.51 0.26,0.4 0.19,0.86 0.03,1.3 -0.26,-0.13 -0.51,-0.33 -0.81,-0.59 -0.4,-0.34 -0.89,0.11 -0.68,0.55 0.44,0.92 1.25,1.46 2.29,1.37 1.24,-0.11 2.55,-1.27 3.55,-0.28l0.12 0.24 0.25 0.2 0.07 0.04c0.16,0.3 0.37,0.57 0.64,0.83 0.99,0.96 0.97,3.15 1.32,4.46 0.89,3.32 0.88,6.4 -0.41,9.62l-0.04 0.14c-1.44,0 -2.87,0 -4.31,0 -1.84,-3.02 -3.31,-6.29 -4.34,-9.75zm83.21 -11.99c0,-23.75 -19.32,-43.07 -43.07,-43.07 -23.75,0 -43.07,19.32 -43.07,43.07 0,23.75 19.32,43.07 43.07,43.07 20.75,0 38.11,-14.75 42.17,-34.31 0.12,-0.12 0.17,-0.3 0.09,-0.47 0.52,-2.68 0.8,-5.46 0.8,-8.29z"/>
   <path class="fil0" d="M35.52 77.81l-0.07 -0.02 -0.3 0.04 -0.18 0.24 -0.23 0.95 -0.88 -0.21 0.23 -0.96 -0.04 -0.29 -0.24 -0.18 -0.07 -0.02c-0.21,-0.05 -0.42,0.08 -0.47,0.29l-0.75 3.08 0.04 0.3 0.24 0.18 0.07 0.01c0.21,0.05 0.42,-0.08 0.47,-0.29l0.32 -1.3 0.89 0.22 -0.32 1.3 0.05 0.29 0.24 0.18 0.07 0.02 0.09 0.01c0.17,0 0.33,-0.12 0.38,-0.3l0.75 -3.08c0.05,-0.21 -0.08,-0.42 -0.29,-0.47z"/>
   <path class="fil0" d="M40.16 81.18l-0.16 0.31 -0.33 0.1 -0.31 -0.16 -0.1 -0.33 0.12 -1.4 0.16 -0.31 0.28 -0.11 0.05 0 0.31 0.16 0.1 0.33 -0.12 1.4zm-0.22 -2.75c-0.36,-0.03 -0.68,0.07 -0.96,0.3 -0.27,0.23 -0.43,0.53 -0.46,0.89l-0.12 1.41c-0.03,0.35 0.07,0.68 0.3,0.95 0.23,0.27 0.53,0.43 0.89,0.46l0.12 0.01c0.31,0 0.59,-0.1 0.83,-0.3 0.27,-0.23 0.43,-0.53 0.46,-0.89l0.12 -1.4c0.03,-0.36 -0.07,-0.68 -0.3,-0.95 -0.23,-0.27 -0.53,-0.43 -0.89,-0.46z"/>
   <path class="fil0" d="M45.76 80.15c-0.08,0.06 -0.2,0.1 -0.35,0.11l-0.41 0.02 -0.06 -0.91 0.41 -0.03c0.15,-0.01 0.27,0.01 0.36,0.07 0.07,0.04 0.16,0.12 0.17,0.36 0.01,0.24 -0.06,0.33 -0.12,0.37zm0.39 -1.46c-0.24,-0.14 -0.52,-0.21 -0.85,-0.19l-0.87 0.06c-0.21,0.01 -0.38,0.2 -0.37,0.41l0.2 3.2 0.13 0.27 0.26 0.1 0.03 0 0.07 -0c0.21,-0.01 0.38,-0.2 0.36,-0.41l-0.06 -0.98 0.41 -0.03c0.32,-0.02 0.6,-0.12 0.82,-0.28 0.22,-0.17 0.49,-0.51 0.45,-1.11 -0.04,-0.59 -0.34,-0.89 -0.58,-1.03z"/>
   <path class="fil0" d="M52.5 81l-0.17 -0.25 -0.3 -0.05 -0.96 0.21 -0.19 -0.89 0.62 -0.13 0.25 -0.17 0.05 -0.29 -0.01 -0.07c-0.05,-0.21 -0.25,-0.34 -0.47,-0.3l-0.62 0.14 -0.12 -0.54 0.96 -0.21 0.24 -0.17 0.05 -0.29 -0.02 -0.07c-0.05,-0.21 -0.26,-0.34 -0.47,-0.3l-1.41 0.31 -0.25 0.17 -0.05 0.29 0.69 3.17c0.04,0.18 0.2,0.31 0.38,0.31l0.08 -0.01 1.41 -0.31c0.21,-0.05 0.35,-0.25 0.3,-0.47l-0.01 -0.07z"/>
   <path class="fil0" d="M13.25 25.98l-0.39 0.68 -1.46 -0.84 0.39 -0.68c0.13,-0.22 0.28,-0.37 0.45,-0.45 0.22,-0.11 0.46,-0.07 0.74,0.09 0.38,0.22 0.44,0.45 0.45,0.59 0.01,0.19 -0.04,0.39 -0.17,0.62zm1.53 2.74l0.34 -0.2 0.05 -0.09 0.04 -0.3 -0.18 -0.24 -1.4 -0.81 0.39 -0.68 0.03 -0.06 2.01 0.13c0.2,0.02 0.39,-0.14 0.41,-0.35l0.01 -0.1 -0.09 -0.29 -0.27 -0.14 -1.81 -0.12c0.04,-0.61 -0.27,-1.13 -0.9,-1.49 -0.54,-0.31 -1.08,-0.35 -1.56,-0.12 -0.34,0.16 -0.62,0.43 -0.84,0.81l-0.63 1.1c-0.11,0.19 -0.04,0.43 0.14,0.53l4.06 2.34 0.2 0.05z"/>
   <path class="fil0" d="M18.02 23.3l0.26 0.1 0.02 -0 0.27 -0.13 0.07 -0.08c0.14,-0.16 0.13,-0.41 -0.04,-0.55l-1.6 -1.41 1.12 -1.27 1.6 1.41 0.28 0.1 0.27 -0.13 0.07 -0.08c0.14,-0.16 0.13,-0.41 -0.03,-0.55l-3.47 -3.07 -0.28 -0.1 -0.27 0.13 -0.07 0.08c-0.14,0.16 -0.13,0.41 0.03,0.55l1.21 1.07 -1.12 1.27 -1.21 -1.07 -0.28 -0.1 -0.27 0.13 -0.07 0.08c-0.14,0.16 -0.13,0.41 0.03,0.55l3.47 3.07z"/>
   <path class="fil0" d="M21.31 14.33c0.16,-0.12 0.31,-0.17 0.49,-0.17l0.13 0.01c0.23,0.03 0.41,0.13 0.55,0.33l1.24 1.64c0.15,0.19 0.2,0.39 0.16,0.63 -0.03,0.23 -0.13,0.41 -0.32,0.56 -0.19,0.15 -0.4,0.2 -0.63,0.17 -0.24,-0.03 -0.41,-0.14 -0.56,-0.33l-1.24 -1.64c-0.14,-0.19 -0.2,-0.39 -0.16,-0.62 0.03,-0.24 0.14,-0.41 0.33,-0.56zm0.38 3.36c0.29,0.38 0.67,0.61 1.14,0.67l0.25 0.02c0.37,0 0.72,-0.12 1.03,-0.36 0.38,-0.29 0.61,-0.67 0.67,-1.14 0.06,-0.47 -0.05,-0.9 -0.33,-1.28l-1.24 -1.64c-0.29,-0.38 -0.67,-0.6 -1.14,-0.67 -0.48,-0.07 -0.91,0.05 -1.28,0.33 -0.38,0.29 -0.6,0.67 -0.67,1.14 -0.06,0.47 0.05,0.9 0.34,1.28l1.24 1.64z"/>
   <path class="fil0" d="M29.43 13.49c-0.11,0.25 -0.26,0.41 -0.45,0.5l-0.65 0.31 -1.62 -3.38 0.65 -0.31c0.19,-0.09 0.42,-0.11 0.68,-0.04 0.3,0.07 0.5,0.23 0.62,0.49l0.78 1.62c0.13,0.26 0.13,0.52 0,0.8zm0.02 -2.8c-0.24,-0.51 -0.65,-0.83 -1.21,-0.97 -0.46,-0.12 -0.9,-0.08 -1.28,0.1l-1.09 0.52 -0.2 0.22 0.02 0.3 2.05 4.26c0.07,0.14 0.21,0.22 0.35,0.22l0.17 -0.04 1.09 -0.52c0.38,-0.18 0.67,-0.49 0.88,-0.93 0.24,-0.52 0.24,-1.04 -0.01,-1.55l-0.78 -1.62z"/>
   <path class="fil0" d="M36.63 11.78l-0.18 -0.24 -0.3 -0.04 -1.57 0.4 -0.41 -1.64 1.07 -0.27 0.24 -0.18 0.04 -0.3 -0.03 -0.1c-0.05,-0.21 -0.27,-0.33 -0.48,-0.28l-1.07 0.27 -0.29 -1.14 1.57 -0.39 0.24 -0.18 0.04 -0.3 -0.03 -0.1c-0.05,-0.21 -0.27,-0.33 -0.48,-0.28l-2.04 0.52 -0.24 0.18 -0.05 0.29 1.16 4.59c0.05,0.18 0.2,0.29 0.38,0.29l0.1 -0.01 2.04 -0.52c0.21,-0.05 0.34,-0.26 0.28,-0.47l-0.03 -0.09z"/>
   <path class="fil0" d="M48.75 6.62l-0.1 -0.02c-0.21,-0.03 -0.41,0.11 -0.44,0.33l-0.7 4.58c-0.03,0.21 0.12,0.41 0.33,0.45l0.1 0.02 0.06 0 0.23 -0.08 0.16 -0.26 0.7 -4.58 -0.07 -0.29 -0.26 -0.15z"/>
   <path class="fil0" d="M55.67 8.34c-0.45,-0.17 -0.89,-0.14 -1.27,0.07 -0.32,0.18 -0.54,0.44 -0.66,0.78 -0.16,0.43 -0.12,0.86 0.1,1.26l0.03 0.04 0.22 0.27 0.21 0.23 0.59 0.63 0.24 0.28 0.12 0.19c0.06,0.14 0.07,0.27 0.01,0.41l-0.27 0.31c-0.15,0.08 -0.3,0.09 -0.48,0.03 -0.06,-0.02 -0.33,-0.16 -1.11,-0.91 -0.13,-0.13 -0.33,-0.15 -0.49,-0.04l-0.08 0.06 -0.17 0.25 0.06 0.29c0.17,0.25 0.39,0.49 0.66,0.7 0.27,0.22 0.55,0.38 0.83,0.48 0.18,0.07 0.36,0.1 0.53,0.1 0.24,0 0.46,-0.06 0.69,-0.18 0.32,-0.18 0.55,-0.44 0.67,-0.77 0.14,-0.38 0.19,-0.97 -0.38,-1.61 -0.21,-0.22 -0.4,-0.42 -0.55,-0.59l-0.39 -0.41c-0.29,-0.31 -0.26,-0.54 -0.2,-0.71l0.27 -0.32c0.16,-0.09 0.32,-0.09 0.53,-0.01 0.1,0.04 0.35,0.17 0.92,0.63l0.47 0.01 0.08 -0.06 0.16 -0.27 -0.09 -0.3c-0.31,-0.37 -0.73,-0.65 -1.24,-0.85z"/>
   <path class="fil0" d="M61.64 11.18l-0.08 -0.05 -0.3 -0.05 -0.24 0.17 -2.46 3.98 -0.05 0.29 0.18 0.24 1.79 1.11 0.21 0.06 0.09 -0.01 0.24 -0.17 0.05 -0.08c0.11,-0.18 0.06,-0.42 -0.13,-0.54l-1.37 -0.85 2.21 -3.56c0.12,-0.18 0.06,-0.42 -0.13,-0.54z"/>
   <path class="fil0" d="M67.09 17.49l-0.66 1.44 -0.73 -0.69 1.4 -0.75zm-1.06 2.29l-0.43 0.94c-0.09,0.19 -0.01,0.42 0.18,0.51l0.09 0.05 0.18 0.04 0.13 -0.02 0.23 -0.21 2.03 -4.42c0.07,-0.15 0.04,-0.33 -0.09,-0.45l-0.08 -0.08c-0.12,-0.12 -0.31,-0.14 -0.45,-0.06l-4.28 2.31 -0.19 0.24 0.04 0.3 0.05 0.09c0.11,0.18 0.34,0.24 0.52,0.14l0.91 -0.49 1.16 1.09z"/>
   <path class="fil0" d="M67.97 23.78l0.06 0.08 0.26 0.16 0.29 -0.07 2.39 -1.69 -1.54 3.22 0.03 0.39 0.06 0.09 0.32 0.16 0.23 -0.07 3.78 -2.68 0.16 -0.25 -0.07 -0.29 -0.06 -0.08c-0.12,-0.18 -0.37,-0.22 -0.54,-0.09l-2.39 1.69 1.54 -3.21 -0.03 -0.39 -0.06 -0.09c-0.12,-0.17 -0.37,-0.22 -0.55,-0.09l-3.78 2.68c-0.17,0.13 -0.22,0.37 -0.09,0.55z"/>
   <path class="fil0" d="M76.02 29.05c-0.08,0.3 -0.25,0.49 -0.52,0.61l-1.65 0.73 -0.37 0.08c-0.14,0 -0.28,-0.04 -0.43,-0.11 -0.24,-0.12 -0.4,-0.28 -0.49,-0.47l-0.29 -0.66 3.43 -1.52 0.29 0.66c0.09,0.2 0.09,0.42 0.02,0.67zm-0.22 -2.34l-4.33 1.91 -0.21 0.22 0.01 0.3 0.49 1.11c0.17,0.38 0.47,0.69 0.9,0.9 0.27,0.13 0.55,0.2 0.82,0.2 0.24,0 0.49,-0.05 0.73,-0.16l1.65 -0.73c0.51,-0.23 0.85,-0.62 1.01,-1.17 0.13,-0.46 0.11,-0.89 -0.06,-1.28l-0.49 -1.11c-0.09,-0.2 -0.32,-0.29 -0.52,-0.2z"/>
   <path class="fil0" d="M52.62 25.36l-0.38 0.12c-0.99,1.2 -1.96,2.41 -2.92,3.64 -0.32,0.41 0.25,0.98 0.6,0.57l0.03 -0.04c-0,0.46 0,0.92 0.01,1.38 0.01,0.53 0.81,0.51 0.82,-0.02 0.02,-0.8 0.02,-1.59 0,-2.39 0.59,-0.73 1.17,-1.46 1.75,-2.2 0.57,0.72 1.14,1.44 1.72,2.15 -0.02,0.82 -0.02,1.64 -0,2.46 0.02,0.53 0.81,0.51 0.82,-0.02 0.01,-0.47 0.01,-0.94 0.01,-1.42l0.09 0.11c0.3,0.36 0.92,-0.15 0.63,-0.51 -0.98,-1.26 -1.99,-2.49 -3,-3.72l-0.2 -0.11z"/>
   <path class="fil0" d="M52.84 31.23c-0.2,-0.01 -0.4,-0.01 -0.59,-0 0.01,-0.56 0.01,-1.12 0,-1.69 0.2,0 0.4,0 0.59,0 -0.01,0.56 -0.01,1.13 0,1.69zm0.58 -2.47l-0.01 -0.01 -0.04 -0.01 -0.12 -0.03c-0.48,-0.02 -0.95,-0.02 -1.42,-0 -0.18,0.01 -0.3,0.11 -0.35,0.23l-0.01 0.03 -0.01 0.03 -0.03 0.13c-0.02,0.84 -0.02,1.68 0,2.52 0,0.19 0.11,0.3 0.24,0.36l0.01 0 0.05 0.01 0.12 0.03c0.48,0.02 0.95,0.02 1.42,-0 0.17,-0.01 0.28,-0.1 0.34,-0.21l0.06 -0.21c0.02,-0.84 0.02,-1.68 0,-2.53 -0.01,-0.19 -0.11,-0.3 -0.24,-0.35z"/>
   <path class="fil0" d="M32.61 41.67c-0,0.65 -0.01,1.31 -0.01,1.96 -0.3,0 -0.59,0 -0.88,0.01 -0,-0.66 -0,-1.31 -0.01,-1.97 0.3,0 0.6,0.01 0.9,0.01zm1.73 -0.01c-0,0.66 -0.01,1.32 -0.01,1.98 -0.29,-0 -0.59,-0.01 -0.88,-0.01 -0,-0.65 -0.01,-1.3 -0.01,-1.96 0.3,0 0.6,-0 0.9,-0.01zm-0.9 5.29c0.01,-0.83 0.01,-1.65 0.01,-2.48 0.29,-0 0.58,-0 0.88,-0.01 0,0.83 0,1.66 0.01,2.5 -0.3,-0 -0.6,-0.01 -0.9,-0.01zm-1.73 0.01c0.01,-0.83 0.01,-1.66 0.01,-2.49 0.29,0 0.58,0.01 0.88,0.01 0,0.83 0,1.65 0.01,2.48 -0.3,0 -0.6,0 -0.9,0.01zm-0.82 0.42c0,0.18 0.1,0.29 0.23,0.35l0.03 0.02 0.01 0 0.15 0.03c1.15,0.02 2.3,0.02 3.45,-0 0.17,-0 0.28,-0.09 0.34,-0.21l0.06 -0.21c0.02,-2.04 0.02,-4.08 -0,-6.12 -0,-0.18 -0.1,-0.29 -0.22,-0.34l-0.03 -0.02 -0.01 0 -0.15 -0.03c-1.15,-0.02 -2.3,-0.02 -3.45,-0 -0.18,0 -0.29,0.1 -0.35,0.23l-0.02 0.03 -0 0.01 -0.03 0.15c-0.01,1.07 -0.02,2.14 -0.02,3.22 -0.37,-0.05 -0.77,-0.02 -1.14,-0.02 -0.53,0 -1.04,0.04 -1.56,0.09 -0.55,0.05 -0.51,0.79 0.02,0.84 0.52,0.05 1.04,0.08 1.56,0.09 0.37,0 0.76,0.03 1.12,-0.02 0,0.64 0,1.29 0.01,1.93z"/>
   <path class="fil0" d="M43.17 41.67c-0.01,0.65 -0.01,1.31 -0.01,1.96 -0.29,0 -0.59,0 -0.88,0.01 0,-0.66 -0,-1.31 -0.01,-1.97 0.3,0 0.6,0.01 0.9,0.01zm1.73 -0.01c-0.01,0.66 -0.01,1.32 -0.01,1.98 -0.29,-0 -0.59,-0.01 -0.88,-0.01 -0,-0.65 -0,-1.3 -0.01,-1.96 0.3,0 0.6,-0 0.9,-0.01zm-0.9 5.29c0.01,-0.83 0.01,-1.65 0.01,-2.48 0.29,-0 0.58,-0 0.88,-0.01 0,0.83 0,1.66 0.01,2.5 -0.3,-0 -0.6,-0.01 -0.9,-0.01zm-1.73 0.01c0.01,-0.83 0.01,-1.66 0.01,-2.49 0.29,0 0.58,0.01 0.88,0.01 0,0.83 0,1.65 0.01,2.48 -0.3,0 -0.6,0 -0.9,0.01zm-0.6 0.77l0.03 0.02 0.01 0 0.15 0.03c1.15,0.02 2.3,0.02 3.45,-0 0.17,-0 0.28,-0.09 0.34,-0.21l0.06 -0.21c0.02,-2.04 0.02,-4.08 -0,-6.12 0,-0.18 -0.1,-0.29 -0.22,-0.34l-0.03 -0.02 -0.01 0 -0.16 -0.03c-1.15,-0.02 -2.3,-0.02 -3.45,-0 -0.18,0 -0.29,0.1 -0.35,0.23l-0.02 0.03 -0 0.01 -0.03 0.15c-0.02,2.04 -0.02,4.08 0,6.12 0,0.18 0.1,0.29 0.23,0.35z"/>
   <path class="fil0" d="M54.12 41.67c-0,0.65 -0.01,1.31 -0.01,1.96 -0.29,0 -0.59,0 -0.88,0.01 -0,-0.66 -0,-1.31 -0.01,-1.97 0.3,0 0.6,0.01 0.9,0.01zm1.73 -0.01c-0.01,0.66 -0.01,1.32 -0.01,1.98 -0.29,-0 -0.59,-0.01 -0.88,-0.01 -0,-0.65 -0,-1.3 -0.01,-1.96 0.3,0 0.6,-0 0.9,-0.01zm-0.9 5.29c0,-0.83 0.01,-1.65 0.01,-2.48 0.29,-0 0.59,-0 0.88,-0.01 0,0.83 0.01,1.66 0.01,2.5 -0.3,-0 -0.6,-0.01 -0.9,-0.01zm-1.73 0.01c0.01,-0.83 0.01,-1.66 0.01,-2.49 0.29,0 0.59,0.01 0.88,0.01 0,0.83 0,1.65 0.01,2.48 -0.3,0 -0.6,0 -0.9,0.01zm-0.6 0.77l0.04 0.02 0.01 0 0.15 0.03c1.15,0.02 2.3,0.02 3.45,-0 0.17,-0 0.28,-0.09 0.34,-0.21l0.06 -0.21c0.02,-2.04 0.02,-4.08 0,-6.12 -0,-0.18 -0.1,-0.29 -0.23,-0.34l-0.03 -0.02 -0 0 -0.16 -0.03c-1.15,-0.02 -2.3,-0.02 -3.45,-0 -0.18,0 -0.29,0.1 -0.35,0.23l-0.02 0.03 -0 0.01 -0.03 0.15c-0.02,2.04 -0.02,4.08 -0,6.12 0,0.18 0.1,0.29 0.22,0.35z"/>
   <path class="fil0" d="M34.33 53.93c-0.29,-0 -0.59,-0.01 -0.88,-0.01 -0,-0.65 -0.01,-1.31 -0.01,-1.96 0.3,-0 0.6,-0.01 0.9,-0.01 -0,0.66 -0.01,1.32 -0.01,1.98zm-0.89 3.31c0.01,-0.83 0.01,-1.65 0.01,-2.48 0.29,-0 0.58,-0 0.88,-0.01 0,0.83 0,1.66 0.01,2.5 -0.3,-0 -0.6,-0.01 -0.9,-0.01zm-0.83 -3.32c-0.3,0 -0.59,0 -0.88,0.01 -0,-0.66 -0,-1.31 -0.01,-1.97 0.3,0 0.6,0.01 0.9,0.01 -0,0.65 -0.01,1.3 -0.01,1.96zm-0.89 3.33c0.01,-0.83 0.01,-1.66 0.01,-2.49 0.29,0 0.58,0.01 0.88,0.01 0,0.83 0,1.65 0.01,2.48 -0.3,0 -0.6,0 -0.9,0.01zm3.23 -6.06l-0.03 -0.02 -0.01 -0 -0.15 -0.03c-1.15,-0.02 -2.3,-0.02 -3.45,-0 -0.18,0 -0.29,0.1 -0.35,0.23l-0.02 0.03 -0 0.01 -0.03 0.15c-0.02,2.04 -0.02,4.08 -0,6.12 0,0.18 0.1,0.29 0.23,0.35l0.03 0.02 0.01 0 0.15 0.03c1.15,0.02 2.3,0.02 3.45,-0 0.17,-0 0.28,-0.09 0.34,-0.21l0.06 -0.21c0.02,-2.04 0.02,-4.08 -0,-6.12 -0,-0.18 -0.1,-0.29 -0.22,-0.34z"/>
   <path class="fil0" d="M43.17 51.96c-0.01,0.65 -0.01,1.3 -0.01,1.96 -0.29,0 -0.59,0 -0.88,0.01 0,-0.66 -0,-1.31 -0.01,-1.97 0.3,0 0.6,0.01 0.9,0.01zm1.73 -0.01c-0.01,0.66 -0.01,1.32 -0.01,1.98 -0.29,-0 -0.59,-0.01 -0.88,-0.01 -0,-0.65 -0,-1.31 -0.01,-1.96 0.3,-0 0.6,-0.01 0.9,-0.01zm-0.9 5.29c0.01,-0.83 0.01,-1.65 0.01,-2.48 0.29,-0 0.58,-0 0.88,-0.01 0,0.83 0,1.66 0.01,2.5 -0.3,-0 -0.6,-0.01 -0.9,-0.01zm-1.73 0.01c0.01,-0.83 0.01,-1.66 0.01,-2.49 0.29,0 0.58,0.01 0.88,0.01 0,0.83 0,1.65 0.01,2.48 -0.3,0 -0.6,0 -0.9,0.01zm-0.6 0.77l0.03 0.02 0.01 0 0.15 0.03c1.15,0.02 2.3,0.02 3.45,-0 0.17,-0 0.28,-0.09 0.34,-0.21l0.06 -0.21c0.02,-2.04 0.02,-4.08 -0,-6.12 0,-0.18 -0.1,-0.29 -0.22,-0.34l-0.03 -0.02 -0.01 -0 -0.16 -0.03c-1.15,-0.02 -2.3,-0.02 -3.45,-0 -0.18,0 -0.29,0.1 -0.35,0.23l-0.02 0.03 -0 0.01 -0.03 0.15c-0.02,2.04 -0.02,4.08 0,6.12 0,0.18 0.1,0.29 0.23,0.35z"/>
   <path class="fil0" d="M54.12 51.96c-0,0.65 -0.01,1.3 -0.01,1.96 -0.29,0 -0.59,0 -0.88,0.01 -0,-0.66 -0,-1.31 -0.01,-1.97 0.3,0 0.6,0.01 0.9,0.01zm1.73 -0.01c-0.01,0.66 -0.01,1.32 -0.01,1.98 -0.29,-0 -0.59,-0.01 -0.88,-0.01 -0,-0.65 -0,-1.31 -0.01,-1.96 0.3,-0 0.6,-0.01 0.9,-0.01zm-0.9 5.29c0,-0.83 0.01,-1.65 0.01,-2.48 0.29,-0 0.59,-0 0.88,-0.01 0,0.83 0.01,1.66 0.01,2.5 -0.3,-0 -0.6,-0.01 -0.9,-0.01zm-1.73 0.01c0.01,-0.83 0.01,-1.66 0.01,-2.49 0.29,0 0.59,0.01 0.88,0.01 0,0.83 0,1.65 0.01,2.48 -0.3,0 -0.6,0 -0.9,0.01zm-0.6 0.77l0.03 0.02 0.01 0 0.15 0.03c1.15,0.02 2.3,0.02 3.45,-0 0.17,-0 0.28,-0.09 0.34,-0.21l0.06 -0.21c0.02,-2.04 0.02,-4.08 0,-6.12 -0,-0.18 -0.1,-0.29 -0.23,-0.34l-0.03 -0.02 -0 -0 -0.16 -0.03c-1.15,-0.02 -2.3,-0.02 -3.45,-0 -0.18,0 -0.29,0.1 -0.35,0.23l-0.02 0.03 -0 0.01 -0.03 0.15c-0.02,2.04 -0.02,4.08 -0,6.12 0,0.18 0.1,0.29 0.23,0.35z"/>
   <path class="fil0" d="M27.49 62.31c0.16,0.39 0.66,0.37 0.8,-0.02 0.16,-0.44 -0.14,-0.97 -0.55,-1.14 -0.17,-0.07 -0.35,-0.07 -0.49,0.07 -0.15,0.16 -0.15,0.42 0.01,0.57 0.17,0.16 0.14,0.3 0.22,0.51z"/>
   <path class="fil0" d="M22.4 63.77l0.06 0.13 0.23 0.23c0.15,0.1 0.41,0.06 0.52,-0.08 0.26,-0.33 0.15,-0.71 -0.11,-1 -0.12,-0.14 -0.3,-0.17 -0.47,-0.18 -0.15,-0.01 -0.28,0.08 -0.39,0.15 -0.31,0.18 -0.2,0.74 0.16,0.76z"/>
   <path class="fil0" d="M57.75 44.5c0.41,0.12 0.91,0.05 1.33,0.03 0.53,-0.04 0.5,-0.78 -0.02,-0.82 -0.42,-0.03 -0.91,-0.09 -1.33,0.03 -0.39,0.12 -0.35,0.65 0.02,0.76z"/>
   <path class="fil0" d="M57.6 48.02c1.4,0.18 2.9,0.09 4.31,0.03 0.54,-0.03 0.51,-0.8 -0.02,-0.83 -1.37,-0.06 -2.84,-0.16 -4.2,0.02 -0.41,0.05 -0.57,0.73 -0.08,0.78z"/>
   <path class="fil0" d="M39.52 48.85c-2.6,-0.33 -5.36,-0.17 -7.98,-0.03 -0.56,0.03 -0.53,0.83 0.02,0.86 2.57,0.14 5.31,0.31 7.87,-0.02 0.42,-0.05 0.58,-0.74 0.09,-0.81z"/>
   <path class="fil0" d="M57.79 52.76c0.5,0.15 1.16,0.09 1.67,0.03 0.55,-0.06 0.51,-0.78 -0.02,-0.84 -0.52,-0.05 -1.17,-0.12 -1.67,0.04 -0.39,0.12 -0.35,0.66 0.02,0.77z"/>
   <path class="fil0" d="M57.94 57.35c0.53,0.12 1.13,0.04 1.67,0.02 0.53,-0.02 0.5,-0.79 -0.02,-0.81 -0.54,-0.02 -1.13,-0.1 -1.67,0.02 -0.39,0.09 -0.35,0.69 0.02,0.77z"/>
   <path class="fil0" d="M46.84 51.51c0.69,0.19 1.5,0.08 2.21,0.08 0.7,-0 1.4,-0.01 2.11,-0.07 0.56,-0.04 0.52,-0.81 -0.02,-0.85 -0.7,-0.05 -1.4,-0.06 -2.11,-0.06 -0.71,0 -1.51,-0.1 -2.21,0.09 -0.41,0.11 -0.37,0.7 0.02,0.81z"/>
   <path class="fil0" d="M46.75 53.26c0.74,0.19 1.55,0.1 2.3,0.1 0.8,0 1.6,-0.03 2.4,-0.08 0.55,-0.03 0.52,-0.81 -0.02,-0.85 -1.48,-0.09 -3.26,-0.33 -4.7,0.03 -0.4,0.1 -0.36,0.69 0.02,0.79z"/>
   <path class="fil0" d="M46.73 53.99c-0.4,0.12 -0.36,0.67 0.02,0.78 0.69,0.2 1.55,0.12 2.26,0.04 0.56,-0.06 0.53,-0.8 -0.02,-0.86 -0.71,-0.08 -1.56,-0.16 -2.26,0.04z"/>
   <path class="fil0" d="M51.43 54.02c-0.39,-0.03 -0.8,-0.04 -1.18,0.03 -0.39,0.07 -0.36,0.71 0.02,0.77 0.38,0.06 0.8,0.05 1.18,0.02 0.53,-0.04 0.5,-0.78 -0.02,-0.81z"/>
   <path class="fil0" d="M46.69 56.45c1.5,0.28 3.24,0.11 4.76,0.02 0.29,0.02 0.42,-0.2 0.4,-0.43 0.01,-0.23 -0.13,-0.46 -0.42,-0.44 -1.52,-0.09 -3.25,-0.25 -4.75,0.02 -0.42,0.08 -0.38,0.75 0.02,0.82z"/>
   <path class="fil0" d="M46.71 58.24c1.14,0.07 2.33,0.1 3.47,0.01 0.53,-0.04 0.5,-0.78 -0.02,-0.82 -1.13,-0.09 -2.33,-0.06 -3.47,0.01 -0.52,0.03 -0.49,0.77 0.02,0.8z"/>
   <path class="fil0" d="M51.38 57.34c-0.53,0 -0.5,0.82 0.02,0.82 0.53,0 0.5,-0.82 -0.02,-0.82z"/>
   <path class="fil0" d="M59.03 64.2l0.1 -0.24 0.04 -0.08 0.06 -0.06c0.11,-0.08 0.22,-0.08 0.37,-0.1 0.44,-0.05 0.54,-0.66 0.09,-0.79 -0.7,-0.21 -1.4,0.4 -1.44,1.08 -0.02,0.4 0.62,0.57 0.78,0.19z"/>
   <path class="fil0" d="M47.2 62.2c0.46,0.02 0.91,0.03 1.37,0.01 0.53,-0.03 0.5,-0.78 -0.02,-0.81 -0.46,-0.03 -0.91,-0.01 -1.37,0 -0.52,0.02 -0.49,0.78 0.02,0.8z"/>
   <path class="fil0" d="M40.53 57.53c-1.48,-0.05 -2.98,-0.14 -4.45,-0 -0.53,0.05 -0.5,0.77 0.02,0.82 1.47,0.14 2.97,0.05 4.45,-0 0.53,-0.02 0.5,-0.8 -0.02,-0.82z"/>
   <path class="fil0" d="M38.88 58.91c-0.27,-0.05 -0.53,-0.03 -0.79,-0.01 -0.22,0.03 -0.4,0.18 -0.4,0.42 0.01,0.25 0.2,0.37 0.42,0.4 0.27,0.03 0.52,0.04 0.79,-0.01 0.41,-0.08 0.37,-0.72 -0.02,-0.8z"/>
   <path class="fil0" d="M40.63 55.8c-1.44,-0.11 -3.07,-0.2 -4.49,0.02 -0.41,0.06 -0.58,0.72 -0.09,0.79 1.47,0.23 3.12,0.16 4.6,0.04 0.56,-0.04 0.52,-0.81 -0.02,-0.85z"/>
   <path class="fil0" d="M35.98 53.99c-0.39,0.08 -0.36,0.7 0.02,0.78 1.09,0.21 2.32,0.07 3.43,0.02 0.53,-0.03 0.5,-0.79 -0.02,-0.82 -1.11,-0.06 -2.33,-0.19 -3.43,0.02z"/>
   <path class="fil0" d="M40.36 53.04c0.55,-0.03 0.52,-0.81 -0.02,-0.84 -1.42,-0.08 -2.93,-0.16 -4.35,0.02 -0.42,0.05 -0.58,0.74 -0.09,0.8 1.45,0.19 2.99,0.11 4.46,0.03z"/>
   <path class="fil0" d="M39.02 50.68c-0.92,-0.09 -1.98,-0.16 -2.89,0.04 -0.39,0.09 -0.36,0.69 0.02,0.77 0.9,0.2 1.98,0.13 2.89,0.03 0.56,-0.06 0.51,-0.79 -0.02,-0.85z"/>
   <path class="fil0" d="M39.99 50.75c-0.19,0.14 -0.3,0.47 -0.07,0.64 0.22,0.17 0.48,0.2 0.75,0.12 0.42,-0.14 0.37,-0.7 -0.02,-0.83 -0.21,-0.07 -0.48,-0.07 -0.66,0.07z"/>
   <path class="fil0" d="M28.34 56.83c0.37,0.03 0.75,0.02 1.12,0.01 0.53,-0.02 0.5,-0.8 -0.02,-0.82 -0.37,-0.01 -0.75,-0.02 -1.13,0.01 -0.52,0.04 -0.49,0.76 0.02,0.8z"/>
   <path class="fil0" d="M51.04 47.16c-1.36,-0.11 -2.92,-0.21 -4.26,0.03 -0.39,0.07 -0.36,0.71 0.02,0.78 1.34,0.25 2.91,0.14 4.26,0.03 0.55,-0.04 0.51,-0.79 -0.02,-0.84z"/>
   <path class="fil0" d="M46.8 46.36c1.15,0.26 2.55,0.11 3.72,0.03 0.55,-0.04 0.51,-0.81 -0.02,-0.84 -1.18,-0.08 -2.56,-0.22 -3.72,0.03 -0.39,0.09 -0.35,0.69 0.02,0.77z"/>
   <path class="fil0" d="M46.85 44.75c0.8,0.17 1.7,0.05 2.5,0.01 0.52,-0.02 0.5,-0.78 -0.02,-0.8 -0.81,-0.04 -1.7,-0.15 -2.5,0.02 -0.39,0.08 -0.35,0.69 0.02,0.77z"/>
   <path class="fil0" d="M51.23 43.9c-0.29,-0.02 -0.6,-0.05 -0.89,0.02 -0.39,0.1 -0.35,0.68 0.02,0.77 0.29,0.07 0.6,0.04 0.89,0.02 0.53,-0.04 0.5,-0.78 -0.02,-0.81z"/>
   <path class="fil0" d="M47.03 42.2c-0.41,0.06 -0.58,0.72 -0.09,0.79 1.38,0.22 2.92,0.1 4.31,0.02 0.54,-0.03 0.5,-0.79 -0.02,-0.82 -1.35,-0.08 -2.86,-0.2 -4.2,0.01z"/>
   <path class="fil0" d="M46.76 41.53c1.18,0.12 2.39,0.03 3.57,0 0.52,-0.01 0.49,-0.78 -0.02,-0.8 -1.18,-0.02 -2.39,-0.11 -3.57,0.01 -0.52,0.05 -0.48,0.74 0.02,0.79z"/>
   <path class="fil0" d="M36.1 41.57c1.3,0.17 2.71,0.1 4.01,0.03 0.54,-0.03 0.51,-0.81 -0.02,-0.83 -1.27,-0.07 -2.64,-0.14 -3.91,0.02 -0.41,0.05 -0.57,0.72 -0.09,0.79z"/>
   <path class="fil0" d="M36.2 43.15c1.37,0.05 2.78,0.11 4.15,0.01 0.54,-0.04 0.51,-0.79 -0.02,-0.83 -1.37,-0.1 -2.78,-0.04 -4.15,0.01 -0.52,0.02 -0.5,0.79 0.02,0.81z"/>
   <path class="fil0" d="M35.95 44.55c0.83,0.12 1.72,0.07 2.55,0.02 0.53,-0.03 0.5,-0.79 -0.02,-0.82 -0.79,-0.04 -1.66,-0.11 -2.44,0.01 -0.41,0.06 -0.58,0.72 -0.09,0.79z"/>
   <path class="fil0" d="M40.29 43.8c-0.19,-0.02 -0.39,0 -0.59,0.01 -0.52,0.02 -0.49,0.77 0.02,0.79 0.19,0.01 0.39,0.03 0.59,0.01 0.22,-0.02 0.4,-0.18 0.4,-0.42 -0.01,-0.25 -0.2,-0.38 -0.42,-0.4z"/>
   <path class="fil0" d="M35.86 46.02c1.52,0.14 3.07,0.07 4.59,0.01 0.53,-0.02 0.5,-0.8 -0.02,-0.82 -1.52,-0.05 -3.07,-0.13 -4.59,0.01 -0.52,0.05 -0.48,0.75 0.02,0.79z"/>
   <path class="fil0" d="M35.81 47.72c0.47,0.05 0.95,0.08 1.42,0.03 0.54,-0.06 0.5,-0.77 -0.02,-0.82 -0.43,-0.04 -0.89,-0.03 -1.32,0.02 -0.17,0.02 -0.32,0.12 -0.37,0.3 -0.04,0.19 0.07,0.45 0.29,0.48z"/>
   <path class="fil0" d="M40.38 46.98c-0.7,-0.05 -1.47,-0.13 -2.16,0.02 -0.4,0.09 -0.36,0.7 0.02,0.78 0.69,0.15 1.47,0.06 2.16,0.02 0.53,-0.04 0.5,-0.78 -0.02,-0.82z"/>
   <path class="fil0" d="M29.67 47.31c-0.3,-0.01 -0.6,-0.03 -0.9,-0.03 -0.3,-0 -0.61,-0.03 -0.9,0.07 -0.4,0.14 -0.36,0.65 0.02,0.78 0.28,0.1 0.6,0.06 0.9,0.06 0.3,-0 0.6,-0.01 0.9,-0.03 0.55,-0.03 0.52,-0.81 -0.02,-0.84z"/>
   <path class="fil0" d="M47.58 37.35c-1.99,-0.12 -4.14,-0.21 -6.12,0.01 -0.41,0.05 -0.56,0.73 -0.09,0.79 2.02,0.22 4.2,0.15 6.23,0.02 0.53,-0.03 0.5,-0.79 -0.02,-0.82z"/>
   <path class="fil0" d="M41.27 32.19c0.83,0.16 1.81,0.07 2.65,0.02 0.53,-0.03 0.5,-0.79 -0.02,-0.82 -0.85,-0.05 -1.82,-0.14 -2.65,0.02 -0.39,0.08 -0.36,0.7 0.02,0.78z"/>
   <path class="fil0" d="M39.54 37.36c-1.03,-0.04 -2.06,-0.02 -3.1,0 -0.51,0.01 -0.49,0.78 0.02,0.79 1.03,0.03 2.07,0.04 3.09,0.01 0.52,-0.02 0.49,-0.78 -0.02,-0.8z"/>
   <path class="fil0" d="M71.35 61.49l0.12 0.38c0.03,0.15 0.03,0.31 0.07,0.47 0.08,0.39 0.72,0.37 0.79,-0.02 0.07,-0.38 -0.01,-0.97 -0.32,-1.24 -0.3,-0.27 -0.77,0.01 -0.66,0.41z"/>
   <path class="fil0" d="M79.91 60.18c-0.21,-0.05 -0.48,0.08 -0.52,0.31 -0.04,0.31 -0.14,0.56 -0.25,0.85 -0.07,0.17 0.06,0.38 0.2,0.46 0.17,0.1 0.36,0.05 0.5,-0.08 0.3,-0.26 0.43,-0.76 0.38,-1.14 -0.02,-0.19 -0.13,-0.35 -0.32,-0.4z"/>
   <path class="fil0" d="M24.08 34.35c0.28,-0.43 -0.33,-0.78 -0.67,-0.49 -0.54,0.47 -1.13,0.76 -1.81,0.55 0.13,-0.28 0.29,-0.54 0.53,-0.75 0.39,-0.37 -0.21,-0.93 -0.6,-0.57 -0.71,0.65 -0.92,1.67 -1.32,2.47l-0.1 -0.12c-0.14,-0.21 -0.13,-0.47 -0.21,-0.69 -0.15,-0.41 -0.7,-0.39 -0.83,0.02 -0.12,0.38 0.03,0.85 0.22,1.18 0.09,0.15 0.21,0.28 0.34,0.39 -0.27,0.23 -0.61,0.4 -1.08,0.45 -1.28,0.14 -2.62,-0.11 -3.38,0.92 -0.21,-0.76 -0.44,-1.52 -0.34,-2.35 0.09,-0.71 0.46,-1.18 0.87,-1.61 1.44,0.81 2.54,-0.07 3.46,-1.2 0.42,0.05 0.84,0.14 1.26,0.2 0.19,0.02 0.37,-0.03 0.47,-0.2 0.1,-0.19 0.04,-0.48 -0.16,-0.57 -0.3,-0.13 -0.62,-0.21 -0.95,-0.24 0.22,-0.31 0.44,-0.61 0.65,-0.88 0.31,-0.4 -0.22,-0.95 -0.59,-0.56 -1.01,1.09 -1.83,3.1 -3.44,2.71 0.27,-0.31 0.49,-0.65 0.6,-1.09 0.12,-0.5 -0.64,-0.69 -0.78,-0.19 -0.09,0.33 -0.29,0.59 -0.53,0.83l-0.08 -0.22c-0.06,-0.27 0.01,-0.55 -0.05,-0.82 -0.07,-0.33 -0.6,-0.39 -0.74,-0.08 -0.23,0.49 -0.19,1.27 0.16,1.76 -0.14,0.13 -0.28,0.27 -0.39,0.41 -0.34,0.45 -0.5,1.01 -0.63,1.54 -0.13,0.51 -0.11,1 -0.02,1.49 -0.26,-0.07 -0.54,-0.13 -0.76,-0.29 -0.32,-0.24 -0.35,-0.58 -0.39,-0.94 -0.05,-0.42 -0.7,-0.56 -0.79,-0.09 -0.25,1.27 0.88,2.25 2.09,2.21l0.07 -0.01c0.21,0.73 0.47,1.45 0.5,2.22 0.01,0.44 0.74,0.55 0.79,0.09 0.05,-0.36 0.02,-0.71 -0.03,-1.06l0.18 -0.15c0.58,-0.97 1.71,-0.92 2.81,-0.99 -0.02,1.29 0.87,2.5 2.15,2.76 0.53,0.11 0.69,-0.61 0.2,-0.8l-0.19 -0.08c0.3,-0.16 0.59,-0.31 0.93,-0.42 0.53,-0.17 0.27,-0.89 -0.24,-0.8 -0.52,0.09 -1.01,0.35 -1.44,0.67 -0.31,-0.37 -0.47,-0.84 -0.54,-1.43 0.33,-0.07 0.64,-0.17 0.92,-0.36 0.68,-0.45 0.89,-1.2 1.12,-1.93 0.98,0.43 2.16,0.07 2.77,-0.85z"/>
   <path class="fil0" d="M8.09 32.96c-0.05,-0.52 -0.78,-0.5 -0.81,0.02 -0.04,0.63 0.17,1.28 0.64,1.72 0.35,0.32 0.88,-0.11 0.64,-0.52 -0.23,-0.38 -0.43,-0.78 -0.47,-1.22z"/>
   <path class="fil0" d="M10.45 32.88c-0.21,0.21 -0.39,0.42 -0.66,0.54 -0.17,0.08 -0.3,0.2 -0.29,0.4 0.01,0.22 0.2,0.41 0.42,0.4 0.56,-0.02 1.05,-0.45 1.24,-0.96 0.15,-0.41 -0.44,-0.67 -0.7,-0.39z"/>
   <path class="fil0" d="M18.15 40.12c-0.63,-0.17 -1.38,0.06 -1.9,0.42 -0.39,0.27 -0.12,1.01 0.36,0.8 0.22,-0.09 0.42,-0.19 0.64,-0.27 0.26,-0.09 0.53,-0.1 0.81,-0.12 0.47,-0.05 0.57,-0.7 0.09,-0.83z"/>
   <path class="fil0" d="M23.2 39.35c-0.46,0.16 -0.33,0.78 0.13,0.81 0.23,0.02 0.45,-0.01 0.68,0 0.21,0.01 0.42,0.05 0.63,0.07 0.43,0.03 0.52,-0.58 0.19,-0.78 -0.45,-0.26 -1.14,-0.27 -1.62,-0.1z"/>
   <path class="fil0" d="M24.83 47.69c-0.94,0.4 -1.57,1.36 -1.75,2.35 -0.98,0.22 -1.91,1.03 -2.47,1.86 -1.17,-0.52 -2.7,-0.11 -3.71,0.81 -0.61,-0.81 -1.61,-1.33 -2.62,-1.04 -0.43,0.12 -0.33,0.84 0.13,0.8 0.86,-0.08 1.54,0.39 1.92,1.08l0.09 0.19c0.12,0.25 0.19,0.53 0.23,0.81 0.07,0.53 0.8,0.52 0.83,-0.02 0.02,-0.34 -0.04,-0.69 -0.16,-1.02 1.17,-0.99 2.77,-1.38 3.81,0.08 0.32,0.45 0.95,0.04 0.72,-0.44 -0.13,-0.27 -0.29,-0.49 -0.46,-0.68 0.71,-0.83 1.47,-1.73 2.67,-1.56 0.43,0.06 0.77,-0.57 0.3,-0.77l-0.3 -0.1c0.29,-0.59 0.48,-1.19 1.09,-1.6 0.37,-0.25 0.11,-0.93 -0.34,-0.74z"/>
   <path class="fil0" d="M16.93 58.1c-0.01,0.55 -0.22,1.02 -0.54,1.46 -0.27,0.37 0.36,0.83 0.65,0.47 0.45,-0.56 0.68,-1.23 0.69,-1.95 0,-0.51 -0.78,-0.49 -0.8,0.02z"/>
   <path class="fil0" d="M23.33 56.12c-0.02,-0.55 -0.85,-0.53 -0.85,0.02 0,0.41 0.09,0.82 0.27,1.18 0.08,0.16 0.31,0.23 0.47,0.18 0.24,-0.07 0.32,-0.29 0.27,-0.51 -0.05,-0.29 -0.15,-0.57 -0.16,-0.87z"/>
   <path class="fil0" d="M25.15 53.33c-0.36,-0.21 -0.71,-0.48 -0.93,-0.83 -0.24,-0.37 -0.91,-0.11 -0.73,0.33 0.25,0.61 0.71,1.08 1.36,1.26 0.46,0.13 0.7,-0.53 0.3,-0.76z"/>
   <path class="fil0" d="M8.44 58.8c-0.32,-0.13 -0.67,-0.22 -0.98,-0.39 -0.4,-0.21 -0.86,0.36 -0.48,0.66 0.34,0.27 0.72,0.45 1.16,0.5 0.19,0.02 0.37,-0.03 0.46,-0.2 0.1,-0.18 0.05,-0.48 -0.16,-0.56z"/>
   <path class="fil0" d="M10.16 55.58c-0.2,-0.08 -0.36,-0.08 -0.56,-0.06 -0.19,0.01 -0.35,0.13 -0.39,0.31 -0.05,0.2 0.08,0.47 0.3,0.5l0.37 0.2c0.12,0.12 0.17,0.23 0.25,0.4 0.18,0.38 0.82,0.17 0.79,-0.23 -0.03,-0.32 -0.16,-0.61 -0.37,-0.85l-0.39 -0.27z"/>
   <path class="fil0" d="M10.09 61.8l-0.39 0c-0.51,0 -0.49,0.79 0.02,0.79l0.39 0c0.51,0 0.49,-0.79 -0.02,-0.79z"/>
   <path class="fil0" d="M19.8 55.62l-0.04 -0c-0.29,-0.04 -0.57,0.08 -0.64,0.39 -0.08,0.32 0.18,0.68 0.53,0.66l0.04 -0 -0.02 -0.01c0.24,-0 0.45,-0.14 0.52,-0.39 0.06,-0.25 -0.1,-0.6 -0.38,-0.64z"/>
   <path class="fil0" d="M15.66 62.06c-0.55,0 -0.53,0.85 0.02,0.85 0.55,0 0.53,-0.85 -0.02,-0.85z"/>
   <path class="fil0" d="M6.96 60.71c-0.53,0 -0.51,0.82 0.02,0.82 0.53,0 0.51,-0.82 -0.02,-0.82z"/>
   <path class="fil0" d="M4.79 56.44c-0.14,0.07 -0.21,0.25 -0.21,0.4l0.03 0.2c0.08,0.37 0.58,0.38 0.77,0.11l0.05 -0.04c0.17,-0.14 0.15,-0.46 -0.02,-0.6 -0.2,-0.16 -0.39,-0.17 -0.61,-0.07z"/>
   <path class="fil0" d="M71.61 31.02c-0.37,0.69 -0.35,1.45 -0.05,2.17 0.16,0.4 0.89,0.37 0.81,-0.13 -0.09,-0.59 -0.25,-1.17 -0.02,-1.75 0.17,-0.43 -0.53,-0.68 -0.74,-0.29z"/>
   <path class="fil0" d="M83.37 39.16c-0.75,0.53 -1.59,0.71 -2.35,0.15 0.18,-0.6 0.47,-1.16 1.02,-1.6 0.39,-0.31 0,-0.99 -0.42,-0.68 -0.27,0.2 -0.49,0.42 -0.67,0.65 -0.05,-0.23 -0.06,-0.46 0.06,-0.7 0.22,-0.47 -0.43,-0.83 -0.7,-0.39 -0.37,0.61 -0.31,1.4 0.1,1.98l0.04 0.03c-0.23,0.61 -0.32,1.25 -0.43,1.9l-0.05 -0.01c-1.22,-0.09 -2.54,-0.97 -2.14,-2.34 0.13,-0.43 -0.57,-0.72 -0.74,-0.29 -0.74,1.82 1.05,3.38 2.78,3.43 -0.14,0.57 -0.34,1.14 -0.74,1.65 -0.63,0.82 -1.82,1.33 -2.69,1.92 0.07,-0.6 -0.03,-1.19 -0.39,-1.71 -0.53,-0.77 -1.17,-0.98 -2.02,-1.33 -0.28,-0.11 -0.51,-0.25 -0.7,-0.41 0.36,-0.63 0.98,-0.97 1.6,-1.34 0.39,-0.24 0.1,-0.93 -0.34,-0.74 -0.72,0.3 -1.41,0.74 -1.85,1.38 -0.32,-0.58 -0.43,-1.29 -0.46,-2.01l0.18 -0.25c0.17,-1.3 1.02,-2.06 1.86,-2.86 0.96,1.84 4.4,1.02 5.36,-0.45 0.26,-0.4 -0.36,-0.85 -0.67,-0.49 -0.19,0.22 -0.47,0.42 -0.81,0.6 0.12,-1.03 0.33,-2.01 1.33,-2.58 0.41,-0.23 0.11,-0.93 -0.34,-0.76 -0.56,0.21 -1.02,0.63 -1.35,1.13 -0.08,-0.35 -0.07,-0.69 0.02,-1.09 0.1,-0.45 -0.6,-0.76 -0.78,-0.3 -0.29,0.73 -0.29,1.64 0.21,2.28l0.1 0.09c-0.15,0.52 -0.2,1.06 -0.12,1.57 -0.91,0.23 -1.88,0.14 -2.29,-0.59l-0.03 -0.04c0.25,-0.27 0.48,-0.56 0.67,-0.88l0.04 -0.07 0.18 -0.36c0.16,-0.36 -0.23,-0.68 -0.5,-0.57 -0.16,-0.42 -0.16,-0.84 0.11,-1.29 0.27,-0.44 -0.41,-0.79 -0.69,-0.38 -0.53,0.77 -0.47,1.72 0.04,2.45 -0.7,1.02 -1.81,1.71 -2.5,2.68l-0 -0.13c-0.07,-2.18 -2.63,-3.16 -4.43,-3.18 -0.56,-0.01 -0.51,0.8 0.02,0.85 0.81,0.07 1.44,0.24 2.16,0.6 -0.47,0.45 -1.21,0.9 -1.74,0.41 -0.4,-0.37 -0.92,0.2 -0.57,0.6 0.84,0.98 2.32,0.39 3.06,-0.47 0.71,0.79 0.54,1.92 0.49,3 -0.06,1.11 0.21,1.95 0.71,2.93 0.26,0.51 0.65,0.94 1.1,1.27 -1.35,0.06 -2.84,0.32 -3.94,0.01 1.17,-0.76 1.14,-2.6 0.68,-3.8 -0.18,-0.48 -0.93,-0.27 -0.77,0.23 0.32,1.06 0.42,2.47 -0.71,3.05l-0.07 0.05c-0.34,-0.3 -0.58,-0.74 -0.69,-1.38 -0.08,-0.45 -0.84,-0.32 -0.79,0.13 0.16,1.7 1.29,2.59 2.95,2.74 1.25,0.11 4.54,-0.6 5.42,0.64 0.34,1.13 -0.68,2.55 -1.38,3.49 -0.27,0.36 -0.54,0.71 -0.8,1.06 -0.07,-0.46 -0.22,-0.9 -0.45,-1.28l0.12 -0.11c0.47,-0.66 0.39,-1.5 -0.01,-2.18 -0.24,-0.4 -0.91,-0.11 -0.75,0.34 0.18,0.48 0.28,0.86 0.09,1.32 -0.17,-0.14 -0.35,-0.25 -0.56,-0.35 -0.5,-0.22 -0.88,0.45 -0.41,0.74 1.3,0.83 1.14,2.16 0.77,3.42 -0.53,1.14 -0.75,2.44 -1.31,3.58 -0.61,1.25 -0.83,2.84 -0.11,4.01 -1.12,-0.29 -2.52,0.23 -3.12,1.3 -1.12,-0.45 -2.73,-0.08 -3.03,1.19 -0.11,0.46 0.52,0.7 0.75,0.3 0.3,-0.51 0.71,-0.76 1.3,-0.76 0.68,0 0.98,0.47 1.3,0.98 0.22,0.36 0.81,0.2 0.79,-0.23 -0.01,-0.37 -0.14,-0.68 -0.34,-0.93 0.36,-0.42 0.72,-0.77 1.29,-0.95 0.91,-0.29 1.42,0.33 1.78,1.07 0.23,0.47 0.85,0.09 0.77,-0.35l-0.09 -0.31c1.31,-0.61 2.38,0.42 2.46,1.81 0.03,0.45 0.76,0.57 0.82,0.09 0.08,-0.63 -0.06,-1.21 -0.33,-1.68 0.44,-0.86 1,-1.69 2.07,-1.81 1.05,-0.12 1.49,0.58 2.18,1.17 0.3,0.26 0.93,-0.01 0.73,-0.45 -0.09,-0.2 -0.21,-0.39 -0.34,-0.56 0.22,-0.25 0.46,-0.46 0.77,-0.63 0.55,-0.3 0.79,-0.01 1.08,0.42 0.21,0.31 0.82,0.21 0.76,-0.23 -0.24,-1.85 -2.42,-1.34 -3.28,-0.21 -0.55,-0.37 -1.22,-0.56 -1.92,-0.52 -1.15,0.07 -2.17,1.01 -2.68,2.06 -0.52,-0.41 -1.19,-0.62 -1.87,-0.51 0.01,-0.18 -0.05,-0.37 -0.21,-0.54 -1.27,-1.34 -0.2,-2.81 0.31,-4.2 0.58,-1.59 0.95,-3.14 1.96,-4.54 0.38,-0.52 0.89,-1.22 1.34,-1.98 0.4,-0.48 0.8,-0.96 1.26,-1.39 0.43,-0.42 0.94,-0.75 1.44,-1.08 0.17,1.83 1.75,3.53 3.7,2.87 0.44,-0.15 0.36,-0.89 -0.13,-0.84 -0.4,0.04 -0.75,0 -1.06,-0.1 0.63,-0.93 1.52,-1.46 2.65,-1.72 0.45,-0.11 0.33,-0.85 -0.13,-0.8 -1.32,0.13 -2.65,0.87 -3.3,2.04 -0.48,-0.48 -0.73,-1.21 -0.82,-2.03l-0.01 -0.02 0.37 -0.28c1.07,-0.9 1.09,-2.25 1.29,-3.53 0.96,0.69 2.19,0.45 3.08,-0.45 0.33,-0.34 -0.13,-0.93 -0.53,-0.65z"/>
   <path class="fil0" d="M65.61 43.79c0.48,0.21 0.84,-0.42 0.39,-0.72 -0.56,-0.37 -0.64,-0.89 -0.48,-1.5 0.12,-0.46 -0.55,-0.72 -0.77,-0.3 -0.48,0.9 -0.09,2.1 0.85,2.51z"/>
   <path class="fil0" d="M77.85 47.72c0.04,-0.47 -0.74,-0.55 -0.82,-0.09 -0.13,0.74 0.11,1.41 0.61,1.96 0.32,0.35 0.89,-0.13 0.64,-0.52 -0.29,-0.44 -0.48,-0.82 -0.42,-1.36z"/>
   <path class="fil0" d="M82.42 35.67l0.03 0.03 0.04 0.21c0.08,0.52 0.77,0.51 0.82,-0.02 0.04,-0.38 -0.17,-0.76 -0.51,-0.93 -0.47,-0.23 -0.83,0.43 -0.39,0.7z"/>
   <path class="fil0" d="M78.7 29.06c-0.13,0.44 0.57,0.73 0.76,0.3 0.31,-0.69 0.21,-1.49 -0.46,-1.92 -0.4,-0.26 -0.78,0.33 -0.48,0.65 0.26,0.26 0.27,0.64 0.17,0.97z"/>
   <path class="fil0" d="M65.51 32.66c-0.09,-0.22 -0.26,-0.53 -0.13,-0.77 0.25,-0.46 -0.43,-0.82 -0.7,-0.39 -0.3,0.47 -0.14,1.03 0.1,1.48 0.22,0.4 0.92,0.09 0.74,-0.33z"/>
   <path class="fil0" d="M64.72 51.62c1.28,0.53 1.78,1.4 2.07,2.71 0.13,0.57 0.97,0.38 0.98,-0.16 0,-0.24 -0.03,-0.5 -0.1,-0.76 0.76,-0.72 1.61,-0.92 2.64,-0.87 0.4,0.02 0.57,-0.62 0.19,-0.78 -1.03,-0.43 -2.37,-0.02 -3.19,0.76 -0.52,-0.93 -1.41,-1.7 -2.39,-1.7 -0.4,0 -0.6,0.63 -0.19,0.8z"/>
   <path class="fil0" d="M66.97 55.85c-0.03,0.37 -0.05,0.71 -0.01,1.08 0.02,0.18 0.12,0.34 0.31,0.39 0.2,0.05 0.48,-0.07 0.5,-0.3 0.05,-0.41 0.03,-0.78 0,-1.18 -0.04,-0.52 -0.76,-0.49 -0.8,0.02z"/>
   <path class="fil0" d="M65.62 55.93c0.18,-0.19 0.23,-0.43 0.24,-0.68 0.02,-0.57 -0.89,-0.55 -0.89,0.02l0 0.12 0 0.04 -0.02 0.02c-0.26,0.4 0.34,0.8 0.66,0.48z"/>
   <path class="fil0" d="M74.12 55.24c0.61,0 0.59,-0.95 -0.02,-0.95 -0.61,0 -0.59,0.95 0.02,0.95z"/>
   <path class="fil0" d="M79.6 54.64l0.2 -0.03c0.44,-0.12 0.4,-0.76 -0.02,-0.87l-0.2 -0.03c-0.59,-0.04 -0.58,0.96 0.02,0.92z"/>
   <path class="fil0" d="M44.55 16.83c-0.14,-0.2 -0.31,-0.37 -0.5,-0.52 0.2,-0.14 0.36,-0.32 0.5,-0.52 0.14,0.2 0.31,0.37 0.5,0.52 -0.2,0.14 -0.36,0.32 -0.5,0.52zm1.83 -0.88l-0.05 -0.02 -0.02 -0.01c-0.7,-0.14 -1.25,-0.52 -1.36,-1.28 0.03,-0.3 -0.31,-0.44 -0.55,-0.36l-0.07 0.02 -0.03 0.02 -0.09 0.08 -0.06 0.15c-0.12,0.8 -0.61,1.21 -1.39,1.36l-0.09 0.04c-0.16,0.08 -0.21,0.25 -0.18,0.41l0.22 0.3 0.05 0.02 0.02 0.01c0.71,0.14 1.25,0.52 1.36,1.28 -0.03,0.3 0.31,0.44 0.56,0.36l0.07 -0.02 0.03 -0.02 0.09 -0.08 0.06 -0.15c0.12,-0.8 0.61,-1.21 1.38,-1.36l0.09 -0.04c0.16,-0.08 0.21,-0.25 0.18,-0.41l-0.22 -0.3z"/>
   <path class="fil0" d="M59.81 23.45l-0.23 -0.23 0.22 -0.24 0.22 0.23 -0.22 0.24zm1.42 -0.6l-0.04 -0.02 -0.03 -0.01c-0.48,-0.11 -0.87,-0.35 -0.95,-0.88 0.01,-0.17 -0.09,-0.29 -0.23,-0.35l-0.19 -0.05 -0.07 0.02 -0.05 0.01 -0.05 0.02 -0.18 0.19 -0.02 0.05 -0.01 0.02c-0.09,0.58 -0.43,0.85 -0.99,0.97l-0 0 -0.08 0.04c-0.16,0.08 -0.21,0.25 -0.18,0.41l0.22 0.3 0.04 0.02 0.03 0.01c0.49,0.11 0.88,0.35 0.96,0.88 -0.01,0.17 0.09,0.29 0.23,0.35l0.19 0.05 0.07 -0.02 0.05 -0.01 0.05 -0.02 0.19 -0.19 0.02 -0.05 0.01 -0.02c0.09,-0.58 0.43,-0.85 0.98,-0.97l0.01 -0 0.08 -0.04c0.16,-0.08 0.21,-0.25 0.18,-0.41l-0.22 -0.3z"/>
   <path class="fil0" d="M24.64 23.83c-0.95,0 -0.92,1.48 0.04,1.48 0.96,0 0.92,-1.48 -0.04,-1.48z"/>
   <path class="fil0" d="M34.81 16.4c-0.58,0 -0.55,0.9 0.02,0.9 0.57,0 0.55,-0.9 -0.02,-0.9z"/>
   <path class="fil0" d="M47.03 21.91c-0.53,0 -0.51,0.82 0.02,0.82 0.53,0 0.51,-0.82 -0.02,-0.82z"/>
   <path class="fil0" d="M53.51 19.54c0.95,0 0.91,-1.47 -0.04,-1.47 -0.95,0 -0.91,1.47 0.04,1.47z"/>
   <path class="fil0" d="M64.99 25.59l-0.27 0.15c-0.17,0.14 -0.15,0.47 0.01,0.6l0.28 0.15c0.29,0.1 0.59,-0.18 0.58,-0.47 -0.01,-0.29 -0.32,-0.54 -0.6,-0.44z"/>
   <path class="fil0" d="M75.99 22.37l0 -0 0.28 -0.16c0.15,-0.16 0.16,-0.45 -0.01,-0.59l-0.36 -0.12c-0.19,0 -0.3,0.12 -0.42,0.24 -0.32,0.33 0.13,0.9 0.51,0.63z"/>
   <path class="fil0" d="M65.13 12.07c0.52,0 0.5,-0.8 -0.02,-0.8 -0.52,0 -0.5,0.8 0.02,0.8z"/>
   <path class="fil0" d="M39.59 8.72c-0.39,0 -0.71,0.35 -0.7,0.73 0.01,0.4 0.34,0.7 0.73,0.7 0.39,0 0.71,-0.35 0.7,-0.73 -0.01,-0.4 -0.34,-0.7 -0.73,-0.7z"/>
   <path class="fil0" d="M43.44 5.17c0.57,0 0.55,-0.89 -0.02,-0.89 -0.57,0 -0.55,0.89 0.02,0.89z"/>
   <path class="fil0" d="M28.68 17.48c-0.29,-0.05 -0.57,0.14 -0.57,0.45 0.01,0.32 0.3,0.47 0.59,0.43l0.19 -0.07c0.2,-0.15 0.31,-0.5 0.07,-0.68l-0.28 -0.13z"/>
   <path class="fil0" d="M21.99 10.17l0.18 0.09 0.29 -0c0.49,-0.07 0.76,-0.67 0.37,-1.05 -0.2,-0.19 -0.51,-0.22 -0.74,-0.08l-0.16 0.15c-0.32,0.22 -0.27,0.7 0.07,0.89z"/>
   <polygon class="fil0" points="22.46,10.26 22.42,10.27 "/>
   <path class="fil0" d="M11.38 20.28l0.2 -0.02c0.4,-0.12 0.35,-0.66 -0.02,-0.77l-0.2 -0.01c-0.52,0.03 -0.49,0.77 0.02,0.8z"/>
   <path class="fil0" d="M8.06 28.7c0.54,0 0.52,-0.84 -0.02,-0.84 -0.54,0 -0.52,0.84 0.02,0.84z"/>
   <path class="fil0" d="M51.9 74.78c-2.23,0.64 -4.52,1.14 -6.82,0.5 -0.43,-0.12 -0.72,0.58 -0.29,0.75 2.35,0.93 5.21,0.59 7.46,-0.48 0.45,-0.21 0.1,-0.89 -0.35,-0.77z"/>
   <path class="fil0" d="M39.72 68.27c4.55,0.13 9.14,0.17 13.68,0.01 0.54,-0.02 0.51,-0.82 -0.02,-0.84 -4.55,-0.16 -9.13,-0.12 -13.68,0.01 -0.53,0.01 -0.5,0.8 0.02,0.82z"/>
   <path class="fil0" d="M47.13 70.26c-7.92,-0.28 -16.03,-0.31 -23.94,0.03 -0.53,0.02 -0.5,0.79 0.02,0.81 7.92,0.33 16.03,0.31 23.94,0.03 0.56,-0.02 0.53,-0.84 -0.02,-0.86z"/>
   <path class="fil0" d="M57.31 71.01c0.54,-0.01 0.51,-0.81 -0.02,-0.83 -1.6,-0.04 -3.47,0.23 -5.03,-0.15 -0.92,-0.23 -0.94,1.36 0.03,1.13 1.56,-0.38 3.42,-0.1 5.02,-0.15z"/>
   <path class="fil0" d="M59.92 75.78c-0.25,0.07 -0.51,0.08 -0.77,0.09 -0.52,0.01 -0.49,0.79 0.02,0.8 0.34,0.01 0.66,-0 0.99,-0.11 0.49,-0.16 0.27,-0.92 -0.23,-0.78z"/>
   <path class="fil0" d="M66.97 74.5c-0.23,-0.01 -0.46,-0 -0.68,-0 -0.52,0 -0.5,0.81 0.02,0.81 0.23,0 0.46,0 0.69,-0 0.52,-0.02 0.49,-0.78 -0.02,-0.8z"/>
   <path class="fil0" d="M66.5 69.64c0.19,-0.02 0.34,-0.12 0.39,-0.31 0.05,-0.2 -0.08,-0.47 -0.3,-0.5l-0.4 -0.02c-0.55,0.04 -0.51,0.8 0.02,0.84l0.29 -0.01z"/>
   <path class="fil0" d="M68.25 66.52l-0.27 -0.08 -0.16 0.02 -0.09 0.03c-0.4,0.07 -0.36,0.72 0.02,0.79 0.09,0.02 0.26,0.07 0.41,0 0.14,-0.06 0.25,-0.15 0.29,-0.3 0.04,-0.17 -0.03,-0.4 -0.21,-0.47z"/>
   <path class="fil0" d="M64.52 71.37c-0.51,0 -0.49,0.79 0.02,0.79 0.51,0 0.49,-0.79 -0.02,-0.79z"/>
   <path class="fil0" d="M65.89 67.76c-0.51,0 -0.49,0.8 0.02,0.8 0.51,0 0.49,-0.8 -0.02,-0.8z"/>
   <path class="fil0" d="M68.87 72.55l-0.06 0.3c-0.03,0.54 0.87,0.53 0.84,-0.02l-0.07 -0.3c-0.16,-0.27 -0.55,-0.24 -0.7,0.02z"/>
   <path class="fil0" d="M63.35 74.45c-0.57,0 -0.55,0.89 0.02,0.89 0.57,0 0.55,-0.89 -0.02,-0.89z"/>
   <path class="fil0" d="M59.35 79.1l-0.21 -0.01c-0.52,0 -0.5,0.81 0.02,0.81l0.21 -0.02c0.39,-0.08 0.35,-0.69 -0.02,-0.77z"/>
   <path class="fil0" d="M63.35 77.41c-0.31,-0.02 -0.52,0.23 -0.5,0.53 0.02,0.22 0.19,0.4 0.42,0.4l0.29 -0.15c0.32,-0.19 0.24,-0.75 -0.22,-0.77z"/>
   <path class="fil0" d="M56.2 77.28c-0.29,0.16 -0.23,0.72 0.13,0.77 0.18,0.03 0.36,0.03 0.5,-0.12 0.17,-0.17 0.16,-0.4 0.06,-0.6 -0.13,-0.26 -0.51,-0.25 -0.68,-0.04z"/>
   <path class="fil0" d="M27 79.28c-0.53,0 -0.5,0.81 0.02,0.81 0.52,0 0.5,-0.81 -0.02,-0.81z"/>
   <path class="fil0" d="M29.24 80.36c-0.51,0 -0.49,0.8 0.02,0.8 0.51,0 0.49,-0.8 -0.02,-0.8z"/>
   <path class="fil0" d="M31.47 78.38l-0.08 0c-0.23,0.02 -0.42,0.19 -0.41,0.43 0,0.25 0.2,0.39 0.43,0.41l0.08 0c0.2,-0 0.34,-0.14 0.4,-0.32l-0 -0.23c-0.06,-0.19 -0.22,-0.3 -0.42,-0.3z"/>
   <path class="fil0" d="M27.58 43.81c-0.12,0.74 -0.59,1.18 -0.37,2.21 1.13,0.46 1.9,0.05 1.86,-1.26 -1.46,0.5 -0.77,-0.82 -1.49,-0.94z"/>
  </g>
 </g>
</svg>
