
<svg xmlns="http://www.w3.org/2000/svg" xml:space="preserve" width="0.747327in" height="0.747331in" version="1.1" style="shape-rendering:geometricPrecision; text-rendering:geometricPrecision; image-rendering:optimizeQuality; fill-rule:evenodd; clip-rule:evenodd"
viewBox="0 0 128.53 128.53"
 xmlns:xlink="http://www.w3.org/1999/xlink"
 xmlns:xodm="http://www.corel.com/coreldraw/odm/2003">
 <defs>
  <style type="text/css">
   <![CDATA[
    .fil0 {fill:black;fill-rule:nonzero}
   ]]>
  </style>
 </defs>
 <g id="Layer_x0020_1">
  <metadata id="CorelCorpID_0Corel-Layer"/>
  <path class="fil0" d="M125.79 74.36c-11.43,-0.07 -23,-0.63 -34.42,-0.03 -0.81,0.05 -0.76,1.2 0.03,1.25 11.39,0.6 22.94,0.05 34.35,-0.03 -0.2,1.09 -0.43,2.17 -0.69,3.23 -0.28,0 -0.57,0.02 -0.87,0.04 -1.93,0.12 -3.67,0.05 -5.61,-0.2 -4.26,-0.56 -8.45,-0.78 -12.74,-0.3 -0.78,0.09 -0.78,1.25 0.03,1.24 4.15,-0.06 8.23,-0.14 12.35,0.48 1.59,0.24 3.16,0.45 4.76,0.43 0.4,-0.01 0.83,-0.1 1.23,-0.14l0.45 -0.02c-0.39,1.47 -0.84,2.92 -1.33,4.35 -0.63,-0.08 -1.33,0.03 -1.89,0.08 -1.41,0.11 -2.81,0.27 -4.2,0.52 -0.59,0.11 -0.56,1.1 0.03,1.19 1.83,0.27 3.67,-0.27 5.5,-0.26 -1.24,3.28 -2.74,6.44 -4.49,9.43l-0.01 -0c-1.72,-0.1 -3.16,0.73 -4.93,0.41 -1.65,-0.29 -3.21,-0.51 -4.85,-0.07 -0.66,0.18 -0.5,1.24 0.19,1.19 1.9,-0.12 3.67,0.19 5.55,0.45 1.07,0.15 2.14,-0.28 3.19,-0.55 -3.74,6.04 -8.48,11.39 -13.98,15.84 -0.43,-0.12 -0.89,-0.1 -1.34,-0.1 -0.51,0 -1.04,-0.05 -1.55,-0.12 -0.4,-0.05 -0.94,0.29 -0.73,0.77 0.29,0.68 0.85,0.97 1.53,1.08 -5.54,4.1 -11.76,7.31 -18.48,9.42 0.57,-0.3 1.19,-0.55 1.77,-0.83 0.46,-0.22 0.44,-1.03 -0.03,-1.23 -1.25,-0.54 -2.46,-0.29 -3.5,0.56l-0.34 0.32c-0.05,-0.22 -0.1,-0.44 -0.15,-0.65 -0.11,-0.44 -0.23,-0.9 -0.36,-1.36l0.33 0.03 0.11 0c0.33,0 0.63,-0.04 0.92,-0.13 0.49,-0.15 0.85,-0.46 1.05,-0.92 0.17,-0.39 0.2,-0.79 0.08,-1.17 -0.13,-0.44 -0.49,-1.01 -1.44,-1.21 -0.31,-0.05 -0.58,-0.1 -0.81,-0.14l-0.57 -0.1 -0.07 -0.02 0.06 -0.36 -0.07 -0.49c0.09,-0.02 0.27,-0.04 0.64,-0.04l0.39 0.01 0.02 0c0.26,0 0.49,-0.17 0.56,-0.42l0.03 -0.1 -0.05 -0.46 -0.37 -0.28c-0.51,-0.12 -1.06,-0.1 -1.63,0.08l-0.06 0.02c0.8,-1.87 1.56,-3.72 0.51,-5.55 -0.31,-0.54 -1.3,-0.3 -1.22,0.36 0.24,1.93 -0.18,3.33 -1.06,5.04l-0.16 0.33c0.03,-1.15 -0.09,-2.32 -0.54,-3.29 -0.72,-1.54 -1.84,-2.52 -2.94,-3.76 -0.48,-0.55 -1.3,0.08 -1.14,0.7 0.36,1.35 0.96,2.32 1.71,3.48 0.35,0.55 0.56,1.15 0.71,1.76 -0.95,-0.71 -2.11,-1.13 -3.43,-1.27 -0.82,-0.08 -0.82,1.11 -0.15,1.35 1.97,0.69 3.01,1.81 3.81,3.39l-0.25 -0.03c-0.58,-0.03 -0.81,0.74 -0.43,1.11 0.25,0.25 0.64,0.45 0.87,0.63 0.34,0.26 0.41,0.42 0.67,0.75l0.22 0.14c0.24,0.62 0.48,1.26 0.71,1.9 -0.69,-0.52 -1.55,-0.82 -2.22,-0.16 -0.47,0.45 -0.03,1.09 0.51,1.14 -0.33,-0.03 -0.03,0.03 0.11,0.12l0.35 0.26 0.45 0.43c-0.39,0.43 -0.85,0.75 -1.35,1.05 -1.27,0.75 -2.82,1.08 -4.26,1.28l-0.42 0.26c-2.03,0.2 -4.08,0.31 -6.16,0.31l-0.35 -0c-9.16,-0.05 -18.01,-2.06 -26.08,-5.83l0.1 -0.07 0.3 -0.09c0.85,-0.57 1.85,-0.18 2.72,0.12 0.87,0.29 1.73,0.57 2.62,0.8 0.66,0.17 1.16,-0.7 0.64,-1.17 -1.01,-0.91 -2.69,-1.93 -4.2,-2.05 0.34,-0.58 0.6,-1.22 0.85,-1.84l0.24 -0.64c0.44,-0.34 0.8,-0.79 1.15,-1.21 -0.04,0.35 0.02,0.69 0.19,1.01l0.04 0.06 0.22 0.29 0.21 0.25 0.59 0.66 0.23 0.28 0.1 0.16 0 0.28 -0.2 0.22 -0.33 0.01c-0.03,-0.01 -0.26,-0.12 -1.05,-0.92 -0.19,-0.19 -0.49,-0.23 -0.73,-0.09l-0.09 0.05 -0.26 0.37 0.08 0.44c0.18,0.27 0.41,0.54 0.69,0.77 0.28,0.24 0.58,0.42 0.89,0.54l0.64 0.13c0.26,0 0.52,-0.06 0.76,-0.19 0.38,-0.2 0.64,-0.49 0.79,-0.86 0.17,-0.43 0.25,-1.1 -0.38,-1.84 -0.21,-0.23 -0.39,-0.44 -0.55,-0.62l-0.39 -0.43c-0.22,-0.25 -0.2,-0.41 -0.15,-0.54l0.2 -0.22 0.39 0.01c0.07,0.03 0.3,0.15 0.87,0.63 0.2,0.17 0.49,0.19 0.71,0.04l0.09 -0.06 0.25 -0.39 -0.12 -0.45c-0.32,-0.41 -0.77,-0.73 -1.33,-0.95 -0.43,-0.17 -0.86,-0.17 -1.24,-0.03l0.37 -0.48 0.04 -0.07c1.35,-0.41 2.7,-0.88 3.93,-1.51 0.73,-0.37 1.34,-0.99 1.94,-1.53 0.81,-0.74 1.79,-1.17 2.23,-2.18 0.28,-0.64 -0.22,-1.47 -0.99,-1.22 -1.63,0.53 -2.63,2.55 -4.01,3.59 -0.82,0.62 -1.84,0.86 -2.81,1.18 0.47,-0.41 0.95,-0.81 1.46,-1.23 1.18,-0.99 2.77,-2.26 3.36,-3.71 0.25,-0.6 -0.2,-1.31 -0.9,-1.11 -1.68,0.48 -2.94,2.04 -4.13,3.24 -0.65,0.65 -1.12,1.59 -1.59,2.37l-0.08 0.13 0.01 -0.16c0.02,-0.27 -0.12,-0.47 -0.31,-0.57 0.17,-1.6 0.05,-3.21 -0.58,-4.68 -0.31,-0.71 -1.39,-0.63 -1.39,0.23 -0.02,2.54 -0.63,5.14 -0.33,7.68l-0.1 0.28c-0.18,-0.74 -0.58,-1.39 -1.31,-1.83 -0.62,-0.37 -1.2,0.28 -1.09,0.88 0.24,1.28 0.23,2.51 -0.11,3.77 -0.07,0.26 -0.16,0.51 -0.26,0.76 0.02,-0.87 0.14,-1.69 0.37,-2.55 0.2,-0.75 -0.82,-1.07 -1.21,-0.47 -0.78,1.18 -1.01,2.92 -0.86,4.46 -0.75,-0.06 -1.5,-0.42 -2.15,-0.72 -1.31,-0.6 -2.5,-1.61 -3.86,-2.07l-0.04 -0.01c-3.25,-2.23 -6.32,-4.79 -9.16,-7.66 -3.76,-3.8 -6.98,-8.01 -9.61,-12.51l-0.03 -0.51c-0.25,-1.56 2.94,-0.04 3.29,0.12 0.47,0.22 1,0.49 1.54,0.62 0.69,0.38 1.34,0.74 1.97,1.26 0.74,0.6 1.44,1.23 2.26,1.73 0.62,0.38 1.29,-0.54 0.75,-1.02 -0.92,-0.82 -1.93,-2.04 -3.1,-2.78 0.08,-0.23 0.1,-0.47 0.03,-0.7 -0.39,-1.28 4.95,0.86 5.72,1.2 0.76,0.34 1.33,-0.67 0.63,-1.13 -1.89,-1.23 -3.86,-2.4 -6.21,-2.02 -0.9,0.14 -1.28,0.38 -1.78,1.12 -0.19,0.28 -0.18,0.48 -0.12,0.62l-0.37 -0.18c-1.42,-0.6 -3.23,-1.82 -4.81,-1.05 -0.41,0.2 -0.7,0.41 -0.91,0.62 -1.27,-2.38 -2.38,-4.84 -3.33,-7.37 0.91,0.29 1.92,0.36 2.96,0.43 2.51,0.16 4.69,-0.14 7.09,0.9 1.43,0.62 2.92,1.08 4.43,1.46 1.57,0.39 1.31,1.62 2.31,2.36 0.84,0.62 1.77,0.77 2.8,0.98 3.71,0.74 7.47,1.41 11.1,2.51 0.67,0.2 1.11,-0.88 0.45,-1.14 -2.7,-1.07 -5.48,-1.95 -8.37,-2.32 -1.56,-0.2 -3.35,-0.38 -4.82,-0.96 -0.7,-0.28 -1.18,-1.77 -1.79,-2.32 -0.49,-0.45 -1.34,-0.55 -1.96,-0.69 -1.94,-0.44 -3.54,-1.46 -5.39,-2.08 -2.95,-0.99 -7.05,0.65 -9.6,-1.38 -0.45,-1.35 -0.85,-2.72 -1.2,-4.1 0.31,0.16 0.64,0.31 0.99,0.43 0.82,0.3 1.7,0.32 2.55,0.35 1.39,0.05 2.17,0.89 3.24,1.6 0.59,0.39 1.23,-0.52 0.72,-0.98 -1.04,-0.94 -2.02,-1.78 -3.48,-1.9 -1.85,-0.15 -3.44,-0.3 -4.56,-1.76 -0.34,-1.55 -0.61,-3.11 -0.83,-4.69 1.37,-0.29 2.67,-1.01 4.09,-1.14 2.86,-0.25 5.69,0.85 8.6,0.58 1.72,-0.16 3.33,-0.63 4.98,0.25 0.77,0.41 1.51,1 2.38,1.23 2.47,0.64 4.69,-0.75 7.11,-0.25 2.13,0.44 3.53,1.33 5.81,1.17 1.16,-0.08 2.36,0.15 3.57,0.48 0.11,0.13 0.28,0.22 0.5,0.23l0.32 0.01c1.54,0.47 3.08,1.04 4.55,1.3 2.89,0.51 6.62,1.07 9.24,2.36 1.81,0.89 3.06,1.06 5.01,0.51 0.76,-0.21 0.39,-1.27 -0.34,-1.14 -2.7,0.47 -4.85,-1.06 -7.45,-1.56 -2.01,-0.38 -4.03,-0.88 -6.03,-1.39 5.92,0.03 11.85,-0.14 17.75,-0.16 0.77,-0 0.74,-1.19 -0.03,-1.19 -7.64,-0.03 -15.32,-0.31 -22.96,-0.07 -1.61,-0.57 -2.97,-1.13 -5.05,-1 -2.48,0.15 -4.44,-1.81 -6.96,-1.79 -1.01,0.01 -2.12,0.35 -3.1,0.46 -1.37,0.16 -2.76,-0.99 -3.89,-1.59 -2.4,-1.28 -4.96,-0.07 -7.47,-0.05 -3.62,0.03 -7.59,-1.46 -10.89,0.41 -0.22,-2.21 -0.34,-4.45 -0.32,-6.71 0.19,-34.28 28.23,-62.17 62.51,-62.17l0.35 0c34.47,0.19 62.36,28.39 62.17,62.86 -0.02,3.33 -0.3,6.6 -0.83,9.79l-0.16 -0.04zm-45.97 44.02l0.15 0.03 0.87 0.15 0.35 0.08 0.18 0.06 0.18 0.23 -0.03 0.29 -0.25 0.21 -0.28 0.02c-0.25,0 -0.6,-0.03 -1.03,-0.08 -0.06,-0.33 -0.11,-0.66 -0.13,-0.99zm-2.43 7l0.08 -0.07 0.03 0.05 -0.11 0.02zm-12.77 -125.39l-0.36 0c-35.24,0 -64.07,28.67 -64.26,63.91 -0.1,17.17 6.5,33.34 18.57,45.55 12.07,12.21 28.17,18.98 45.34,19.07l0.36 0c17.09,0 33.18,-6.64 45.3,-18.69 12.13,-12.06 18.86,-28.12 18.95,-45.22 0.2,-35.44 -28.47,-64.42 -63.91,-64.62z"/>
  <path class="fil0" d="M24.37 102.17l-1.35 1.25c-0.18,0.16 -0.39,0.22 -0.63,0.19 -0.23,-0.03 -0.4,-0.11 -0.52,-0.23l-0.37 -0.4 2.54 -2.35 0.38 0.4c0.12,0.13 0.18,0.3 0.19,0.53 0.01,0.26 -0.06,0.45 -0.24,0.62zm1.51 -0.68c-0.03,-0.53 -0.2,-0.98 -0.53,-1.33l-0.84 -0.91 -0.4 -0.19 -0.42 0.16 -3.55 3.29 -0.19 0.41 0.16 0.42 0.84 0.91c0.32,0.35 0.75,0.56 1.28,0.63l0.3 0.02c0.52,0 0.97,-0.18 1.36,-0.54l1.35 -1.25c0.46,-0.43 0.68,-0.98 0.64,-1.61z"/>
  <path class="fil0" d="M30.69 105.3l-0.08 -0.07 -0.42 -0.14 -0.4 0.2 -2.23 2.59 -0.47 0.24 -0.06 0 -0.43 -0.16 -0.24 -0.47 0.17 -0.49 2.23 -2.59c0.21,-0.24 0.18,-0.61 -0.06,-0.82l-0.08 -0.07 -0.42 -0.14 -0.4 0.2 -2.23 2.59c-0.35,0.4 -0.51,0.89 -0.47,1.42 0.04,0.53 0.26,0.98 0.67,1.33 0.37,0.32 0.79,0.48 1.26,0.48l0.15 -0.01c0.53,-0.04 0.99,-0.27 1.33,-0.67l2.23 -2.59c0.21,-0.24 0.19,-0.61 -0.06,-0.82z"/>
  <path class="fil0" d="M35.6 108.88l-0.57 -0.05 -1.79 0.82 0.12 -1.97 -0.25 -0.52 -0.09 -0.06 -0.44 -0.09 -0.37 0.24 -2.68 3.91c-0.18,0.27 -0.11,0.63 0.15,0.81l0.09 0.06 0.44 0.09 0.37 -0.24 1.38 -2.01 -0.05 0.86 0.25 0.51 0.57 0.05 0.78 -0.36 -1.38 2.01 -0.09 0.44 0.25 0.38 0.09 0.06 0.33 0.1 0.48 -0.25 2.68 -3.91 0.09 -0.43 -0.25 -0.38 -0.09 -0.06z"/>
  <path class="fil0" d="M50.57 117.46c-0.1,0.39 -0.28,0.45 -0.35,0.48 -0.15,0.05 -0.33,0.04 -0.55,-0.01l-0.59 -0.16 0.35 -1.31 0.59 0.16c0.22,0.06 0.38,0.15 0.48,0.27 0.08,0.1 0.16,0.25 0.07,0.59zm-0.21 -2.08l-1.26 -0.34c-0.31,-0.09 -0.63,0.1 -0.71,0.41l-1.25 4.62 0.06 0.44 0.35 0.27 0.1 0.03 0.15 0.02c0.26,0 0.49,-0.17 0.56,-0.43l0.38 -1.42 0.59 0.16c0.46,0.13 0.89,0.12 1.29,-0.01 0.4,-0.14 0.93,-0.48 1.17,-1.35 0.23,-0.85 -0.05,-1.42 -0.33,-1.74 -0.27,-0.32 -0.64,-0.54 -1.11,-0.67z"/>
  <path class="fil0" d="M56.25 116.68l-0.1 -0.01c-0.32,-0.05 -0.62,0.17 -0.66,0.49l-0.72 4.68 0.11 0.44 0.38 0.23 0.11 0.01 0.09 0.01c0.28,0 0.53,-0.21 0.58,-0.49l0.72 -4.68 -0.11 -0.43 -0.38 -0.23z"/>
  <path class="fil0" d="M62.47 119.71l-0.47 0.11 -0.68 -0.03 0.05 -1.35 0.61 0.02c0.23,0.01 0.4,0.06 0.52,0.15 0.1,0.07 0.21,0.21 0.2,0.56 -0.02,0.36 -0.14,0.48 -0.23,0.54zm0.8 -2.11c-0.34,-0.25 -0.75,-0.39 -1.23,-0.41l-1.3 -0.05 -0.42 0.15 -0.19 0.4 -0.19 4.78 0.15 0.42 0.4 0.19 0.1 0c0.32,0.01 0.59,-0.24 0.61,-0.56l0.06 -1.47 0.56 0.03 0.79 1.77c0.1,0.22 0.31,0.35 0.53,0.35l0.22 -0.04 0.1 -0.04 0.32 -0.32 -0.01 -0.46 -0.68 -1.53c0.54,-0.31 0.84,-0.85 0.87,-1.6 0.03,-0.88 -0.36,-1.37 -0.71,-1.62z"/>
  <path class="fil0" d="M68.83 121.6l-0.46 0.23 -0.06 0 -0.44 -0.17 -0.23 -0.47 -0.14 -2.1 0.16 -0.49 0.47 -0.23 0.06 -0 0.43 0.17 0.23 0.46 0.14 2.1 -0.16 0.5zm0.62 -4.02c-0.4,-0.35 -0.88,-0.51 -1.41,-0.48 -0.54,0.04 -0.99,0.26 -1.34,0.67 -0.35,0.4 -0.51,0.88 -0.47,1.41l0.15 2.1c0.04,0.53 0.27,0.99 0.66,1.34 0.36,0.32 0.79,0.48 1.27,0.48l0.15 -0.01c0.53,-0.04 0.99,-0.27 1.33,-0.66 0.35,-0.4 0.52,-0.88 0.48,-1.42l-0.15 -2.1c-0.03,-0.53 -0.27,-0.99 -0.67,-1.34z"/>
  <path class="fil0" d="M86.63 115.06l-0.44 0.33 -0.56 0.24 -0.54 -1.25 0.56 -0.24 0.54 -0.09c0.12,0.02 0.28,0.09 0.42,0.41 0.14,0.33 0.08,0.49 0.02,0.59zm-0.19 -2.25c-0.4,-0.08 -0.84,-0.03 -1.29,0.16l-1.19 0.51c-0.3,0.13 -0.43,0.47 -0.31,0.77l1.89 4.4c0.09,0.22 0.31,0.35 0.54,0.35l0.23 -0.05 0.1 -0.04 0.31 -0.32 -0 -0.45 -0.58 -1.35 0.57 -0.24c0.44,-0.19 0.78,-0.46 1,-0.81 0.23,-0.36 0.43,-0.96 0.08,-1.78 -0.35,-0.81 -0.92,-1.08 -1.34,-1.16z"/>
  <path class="fil0" d="M94.56 114.12l-0.35 -0.27 -0.44 0.06 -1.28 0.73 -0.67 -1.18 0.82 -0.47 0.27 -0.35 -0.06 -0.44 -0.05 -0.09c-0.16,-0.28 -0.52,-0.38 -0.8,-0.22l-0.82 0.47 -0.41 -0.72 1.28 -0.73 0.27 -0.35 -0.06 -0.45 -0.05 -0.09c-0.16,-0.28 -0.51,-0.38 -0.79,-0.21l-1.87 1.07c-0.28,0.16 -0.38,0.52 -0.22,0.8l2.39 4.2 0.35 0.27 0.15 0.02 0.29 -0.08 1.87 -1.07c0.28,-0.16 0.38,-0.51 0.22,-0.79l-0.05 -0.09z"/>
  <path class="fil0" d="M97.32 108.84l-0.35 0.42 -0.5 0.36 -0.8 -1.1 0.5 -0.36 0.5 -0.2 0 -0.11 0.01 0 0 0.11c0.12,0 0.28,0.04 0.48,0.31 0.21,0.29 0.19,0.46 0.15,0.57zm2.67 1.26l-1.49 -0.78c0.23,-0.57 0.13,-1.19 -0.31,-1.8 -0.5,-0.69 -1.1,-0.83 -1.56,-0.83l-0 0c-0.42,0.01 -0.82,0.16 -1.22,0.45l-1.05 0.77c-0.26,0.19 -0.32,0.55 -0.13,0.81l2.82 3.87 0.38 0.23 0.09 0.01 0.35 -0.11 0.08 -0.06c0.26,-0.19 0.31,-0.55 0.13,-0.81l-0.86 -1.19 0.46 -0.33 1.73 0.9c0.28,0.15 0.62,0.04 0.78,-0.23l0.05 -0.09 0.05 -0.45 -0.29 -0.35z"/>
  <path class="fil0" d="M103.25 106.85l-0.49 0.18 -0 0 -0.47 -0.22 -1.42 -1.55 -0.18 -0.49 0.22 -0.47 0.44 -0.18 0.05 0 0.47 0.22 1.42 1.55 0.18 0.5 -0.22 0.47zm-0.44 -3.37c-0.36,-0.4 -0.82,-0.61 -1.35,-0.63l-0.1 -0c-0.5,0 -0.94,0.17 -1.31,0.51 -0.39,0.36 -0.61,0.83 -0.63,1.36 -0.03,0.53 0.15,1.01 0.51,1.4l1.42 1.55c0.36,0.39 0.82,0.61 1.35,0.63l0.1 0c0.49,0 0.93,-0.17 1.31,-0.51 0.39,-0.36 0.61,-0.83 0.63,-1.35 0.02,-0.53 -0.15,-1.02 -0.51,-1.4l-1.42 -1.55z"/>
  <path class="fil0" d="M23.34 39.86c-0.2,-0.52 -0.53,-0.91 -1,-1.16 -0.76,-0.41 -1.6,-0.34 -2.45,0.22 -0.38,0.26 -0.71,0.49 -0.98,0.69l-0.69 0.49c-0.41,0.29 -0.74,0.33 -1.09,0.15l-0.41 -0.47c-0.06,-0.15 -0.12,-0.4 0.09,-0.79 0.08,-0.14 0.32,-0.49 1.12,-1.23 0.19,-0.18 0.24,-0.47 0.12,-0.7l-0.07 -0.13 -0.36 -0.29 -0.46 0.06c-0.61,0.37 -1.12,0.93 -1.52,1.66 -0.35,0.64 -0.4,1.28 -0.16,1.9 0.2,0.5 0.54,0.89 1.01,1.14 0.6,0.33 1.25,0.37 1.88,0.11l0.07 -0.03 0.44 -0.26 0.39 -0.26 1.06 -0.74 0.47 -0.3 0.3 -0.14c0.22,-0.07 0.41,-0.04 0.62,0.07 0.18,0.1 0.31,0.25 0.4,0.47 0.09,0.24 0.08,0.46 -0.06,0.7 -0.05,0.09 -0.3,0.46 -1.58,1.45 -0.22,0.17 -0.29,0.47 -0.17,0.71l0.07 0.14c0.1,0.21 0.31,0.33 0.53,0.33l0.25 -0.06c0.41,-0.19 0.8,-0.47 1.17,-0.82 0.38,-0.35 0.68,-0.73 0.89,-1.12 0.32,-0.58 0.36,-1.21 0.13,-1.81z"/>
  <path class="fil0" d="M21.95 31.1c0.22,-0.28 0.49,-0.43 0.84,-0.48l0.17 -0.01c0.27,0 0.52,0.09 0.75,0.27l2.42 1.89c0.28,0.22 0.44,0.49 0.48,0.84 0.04,0.35 -0.04,0.64 -0.26,0.93 -0.22,0.28 -0.49,0.43 -0.84,0.48 -0.34,0.04 -0.65,-0.04 -0.93,-0.26l-2.42 -1.89c-0.28,-0.22 -0.43,-0.49 -0.47,-0.84 -0.04,-0.35 0.04,-0.65 0.26,-0.93zm-0.6 2.8l2.42 1.9c0.47,0.37 1,0.55 1.57,0.55l0.33 -0.02c0.7,-0.09 1.28,-0.41 1.72,-0.98 0.44,-0.56 0.62,-1.2 0.53,-1.9 -0.08,-0.7 -0.41,-1.29 -0.97,-1.72l-2.41 -1.89c-0.55,-0.43 -1.19,-0.62 -1.9,-0.53 -0.7,0.09 -1.28,0.41 -1.72,0.97 -0.44,0.56 -0.62,1.2 -0.53,1.91 0.09,0.7 0.41,1.28 0.97,1.72z"/>
  <path class="fil0" d="M33.66 27.74c0.04,-0.71 -0.19,-1.34 -0.66,-1.86l-3.36 -3.7 -0.4 -0.19 -0.42 0.15 -0.11 0.1c-0.24,0.22 -0.26,0.59 -0.04,0.82l3.35 3.7c0.24,0.27 0.35,0.55 0.33,0.91 -0.01,0.35 -0.15,0.63 -0.41,0.87 -0.24,0.22 -0.52,0.33 -0.84,0.33l-0.07 0c-0.35,-0.02 -0.63,-0.15 -0.87,-0.42l-3.35 -3.7c-0.22,-0.24 -0.59,-0.26 -0.82,-0.04l-0.11 0.1 -0.19 0.4 0.15 0.42 3.35 3.7c0.48,0.52 1.07,0.81 1.78,0.85l0.14 0c0.65,0 1.23,-0.23 1.72,-0.68 0.53,-0.48 0.81,-1.08 0.84,-1.78z"/>
  <path class="fil0" d="M33 19.73l0.36 0.26 0.44 -0.08 1.06 -0.68 3.36 5.27 0.37 0.26 0.12 0.01 0.31 -0.09 0.13 -0.09c0.27,-0.17 0.35,-0.53 0.18,-0.8l-3.36 -5.27 1.06 -0.68 0.26 -0.37 -0.08 -0.44 -0.08 -0.13c-0.17,-0.27 -0.54,-0.35 -0.81,-0.18l-3.24 2.06c-0.27,0.17 -0.35,0.53 -0.18,0.81l0.08 0.13z"/>
  <path class="fil0" d="M43.57 21.39c0.09,0.22 0.31,0.36 0.54,0.36l0.22 -0.04 0.14 -0.06 0.32 -0.31 -0 -0.45 -1.23 -2.93 2.33 -0.97 1.23 2.93 0.32 0.32 0.45 -0 0.14 -0.06c0.3,-0.12 0.43,-0.47 0.31,-0.76l-2.67 -6.38c-0.12,-0.3 -0.47,-0.44 -0.76,-0.31l-0.14 0.06 -0.31 0.31 0 0.45 0.93 2.23 -2.33 0.97 -0.93 -2.23c-0.13,-0.3 -0.47,-0.43 -0.76,-0.31l-0.14 0.06 -0.31 0.32 0 0.45 2.67 6.38z"/>
  <path class="fil0" d="M63.75 16.74l-0.01 -0.15 -0.19 -0.4 -0.42 -0.15 -1.15 0.06c-0.43,0.02 -0.75,-0.06 -0.97,-0.26 -0.22,-0.2 -0.34,-0.5 -0.36,-0.94l-0.17 -3.07c-0.02,-0.43 0.06,-0.74 0.26,-0.96 0.2,-0.22 0.5,-0.34 0.93,-0.36l1.15 -0.07 0.4 -0.19 0.15 -0.42 -0.01 -0.15c-0.02,-0.32 -0.3,-0.58 -0.61,-0.55l-1.15 0.06c-0.78,0.05 -1.41,0.32 -1.84,0.81 -0.44,0.49 -0.64,1.13 -0.59,1.91l0.17 3.06c0.04,0.79 0.31,1.4 0.8,1.84 0.44,0.39 1.02,0.59 1.71,0.59l0.21 -0 1.15 -0.07c0.32,-0.02 0.57,-0.29 0.55,-0.62z"/>
  <path class="fil0" d="M70.23 12.23l0.49 2.31 -1.49 -0.17 1 -2.15zm-3.12 5.04l0.14 0.06c0.29,0.12 0.62,-0.01 0.75,-0.29l0.65 -1.4 2.36 0.27 0.32 1.51c0.06,0.27 0.3,0.46 0.57,0.46l0.1 -0.01 0.15 -0.03 0.39 -0.25 0.09 -0.45 -1.51 -7.1c-0.05,-0.24 -0.26,-0.43 -0.51,-0.46l-0.16 -0.02c-0.26,-0.03 -0.49,0.11 -0.6,0.33l-3.05 6.59 -0.01 0.46 0.32 0.33z"/>
  <path class="fil0" d="M78.14 12.25l1.12 0.32c0.37,0.11 0.64,0.27 0.82,0.48 0.14,0.18 0.31,0.49 0.14,1.1 -0.19,0.63 -0.49,0.8 -0.7,0.87l-0.39 0.06 -0.57 -0.09 -1.12 -0.32 0.7 -2.42zm-2.61 6.36l0.14 0.04 0.44 -0.05 0.28 -0.35 0.67 -2.31 1.12 0.33 0.09 0.03 0.53 2.96c0.05,0.28 0.29,0.48 0.57,0.48l0.08 -0 0.15 -0.02 0.39 -0.23 0.1 -0.44 -0.47 -2.67c0.71,-0.12 1.48,-0.58 1.85,-1.83 0.33,-1.13 -0.03,-1.88 -0.38,-2.31 -0.35,-0.43 -0.85,-0.74 -1.47,-0.92l-1.82 -0.53c-0.31,-0.09 -0.64,0.09 -0.72,0.4l-1.95 6.71c-0.09,0.31 0.09,0.63 0.4,0.72z"/>
  <path class="fil0" d="M84.85 19.23l1.35 -2.76c0.16,-0.32 0.38,-0.52 0.72,-0.64l0.42 -0.07 0.55 0.13c0.32,0.16 0.53,0.39 0.64,0.73 0.12,0.33 0.1,0.64 -0.06,0.96l-1.35 2.76c-0.16,0.32 -0.39,0.53 -0.72,0.64l-0.41 0.07 -0.55 -0.13c-0.32,-0.16 -0.53,-0.39 -0.64,-0.72 -0.11,-0.34 -0.1,-0.64 0.06,-0.97zm0.01 2.87c0.36,0.18 0.74,0.27 1.13,0.27 0.28,0 0.56,-0.05 0.84,-0.15 0.67,-0.23 1.17,-0.67 1.48,-1.3l1.35 -2.76c0.31,-0.64 0.35,-1.3 0.12,-1.97 -0.23,-0.67 -0.67,-1.17 -1.31,-1.48 -0.63,-0.31 -1.31,-0.35 -1.97,-0.12 -0.67,0.23 -1.16,0.67 -1.48,1.31l-1.35 2.76c-0.31,0.64 -0.35,1.3 -0.13,1.97 0.23,0.67 0.67,1.17 1.31,1.48z"/>
  <path class="fil0" d="M92.93 27.09l0.34 0.11 0.47 -0.24 0.09 -0.12 0.1 -0.43 -0.23 -0.38 -1.96 -1.41 3.66 -5.07c0.19,-0.26 0.13,-0.63 -0.13,-0.81l-0.12 -0.09 -0.43 -0.1 -0.38 0.23 -4.08 5.67c-0.19,0.26 -0.13,0.63 0.13,0.81l2.55 1.84z"/>
  <path class="fil0" d="M97.83 31.39l0.42 0.17 0.41 -0.17 4.93 -4.85 0.17 -0.41 -0.17 -0.41 -0.11 -0.11c-0.23,-0.23 -0.6,-0.23 -0.82,-0.01l-4.93 4.85 -0.17 0.41 0.17 0.42 0.11 0.11z"/>
  <path class="fil0" d="M101.73 35.83l0.08 0.12 0.38 0.24 0.44 -0.1 3.58 -2.49 -2.34 4.78 0.04 0.59 0.09 0.13 0.38 0.24 0.1 0.01 0.33 -0.1 5.67 -3.95 0.24 -0.38 -0.1 -0.43 -0.09 -0.13c-0.18,-0.27 -0.55,-0.33 -0.81,-0.15l-3.58 2.5 2.34 -4.78 -0.05 -0.59 -0.09 -0.14 -0.38 -0.24 -0.44 0.1 -5.67 3.95c-0.26,0.18 -0.33,0.55 -0.15,0.81z"/>
  <path class="fil0" d="M110.04 43.72l-0.64 -1.36 2.35 -0.27 -1.72 1.63zm4.1 -2.83c-0.1,-0.23 -0.34,-0.37 -0.6,-0.34l-7.21 0.84 -0.4 0.23 -0.11 0.44 0.02 0.15c0.05,0.31 0.33,0.53 0.64,0.49l1.53 -0.18 1.01 2.15 -1.12 1.06c-0.23,0.22 -0.24,0.57 -0.04,0.81l0.1 0.11 0.41 0.2 0.03 0 0.4 -0.16 5.26 -5c0.18,-0.17 0.23,-0.44 0.13,-0.67l-0.07 -0.15z"/>
  <path class="fil0" d="M26.45 59.38c-0.21,-0.31 -0.47,-0.57 -0.77,-0.79 0.3,-0.22 0.55,-0.49 0.76,-0.8 0.21,0.31 0.47,0.57 0.77,0.79 -0.3,0.22 -0.56,0.49 -0.76,0.8zm2.76 -1.34l-0.08 -0.03 -0.03 -0.01c-1.06,-0.21 -1.88,-0.79 -2.05,-1.93 0.04,-0.46 -0.47,-0.65 -0.83,-0.53l-0.09 0.04 -0.05 0.03 -0.13 0.12 -0.09 0.23c-0.18,1.2 -0.93,1.83 -2.09,2.05l-0.15 0.06c-0.23,0.12 -0.31,0.37 -0.26,0.62l0.32 0.45 0.08 0.03 0.03 0.01c1.07,0.21 1.88,0.79 2.05,1.93 -0.05,0.46 0.46,0.65 0.83,0.53l0.1 -0.04 0.04 -0.03 0.22 -0.35c0.18,-1.2 0.93,-1.83 2.09,-2.05l0.15 -0.06c0.23,-0.12 0.31,-0.37 0.26,-0.62l-0.32 -0.45z"/>
  <path class="fil0" d="M71.26 28.13l-0.33 -0.34 0.33 -0.35 0.33 0.34 -0.33 0.35zm0.6 -2.23c0.02,-0.26 -0.13,-0.43 -0.34,-0.52l-0.28 -0.07 -0.11 0.03 -0.07 0.01 -0.08 0.03 -0.28 0.28 -0.03 0.08 -0.01 0.03c-0.13,0.86 -0.64,1.26 -1.46,1.44l-0.01 0 -0.13 0.05c-0.23,0.12 -0.32,0.37 -0.27,0.61l0.34 0.45 0.06 0.03 0.04 0.02c0.71,0.16 1.3,0.51 1.41,1.3 -0.02,0.26 0.13,0.43 0.34,0.52l0.28 0.07 0.1 -0.03 0.07 -0.01 0.08 -0.03 0.28 -0.28 0.03 -0.08 0.01 -0.03c0.13,-0.86 0.64,-1.26 1.46,-1.44l0.01 -0 0.13 -0.05c0.24,-0.12 0.32,-0.38 0.27,-0.62l-0.34 -0.45 -0.06 -0.03 -0.04 -0.02c-0.72,-0.16 -1.3,-0.51 -1.42,-1.3z"/>
  <path class="fil0" d="M117.44 63.74l-0.33 -0.34 0.33 -0.35 0.33 0.34 -0.33 0.35zm2.12 -0.89l-0.06 -0.03 -0.04 -0.02c-0.72,-0.16 -1.3,-0.52 -1.42,-1.3 0.02,-0.26 -0.13,-0.44 -0.34,-0.52l-0.28 -0.07 -0.11 0.02 -0.07 0.02 -0.07 0.03 -0.28 0.28 -0.03 0.08 -0.01 0.03c-0.13,0.86 -0.64,1.26 -1.46,1.44l-0.01 0 -0.13 0.06c-0.24,0.12 -0.32,0.37 -0.27,0.61l0.33 0.45 0.06 0.03 0.04 0.02c0.72,0.16 1.3,0.52 1.42,1.3 -0.02,0.26 0.13,0.44 0.34,0.52l0.28 0.07 0.1 -0.02 0.07 -0.02 0.08 -0.03 0.28 -0.28 0.03 -0.08 0.01 -0.03c0.13,-0.86 0.64,-1.26 1.46,-1.44l0.01 -0 0.13 -0.06c0.23,-0.12 0.32,-0.37 0.27,-0.61l-0.33 -0.45z"/>
  <path class="fil0" d="M86.34 110.82c0.09,-4.82 0.78,-10.09 -0.62,-14.76 -0.21,-0.71 -1.44,-0.56 -1.32,0.21 0.71,4.89 0.18,9.7 0.57,14.58 0.07,0.88 1.35,0.85 1.37,-0.03z"/>
  <path class="fil0" d="M108.8 66.32l0.08 -0c0.3,-0.03 0.56,-0.2 0.63,-0.51 0.07,-0.27 -0.05,-0.63 -0.32,-0.75 -0.49,-0.21 -0.95,-0.27 -1.43,-0.19 -0.35,-0.43 -0.72,-0.84 -1.11,-1.24 0.3,0.04 0.61,0.11 0.88,0.24 0.63,0.3 1.37,-0.56 0.76,-1.03 -0.84,-0.65 -1.99,-0.8 -2.99,-0.46 -0.31,-0.26 -0.62,-0.51 -0.94,-0.74l0.18 -0.02c0.51,-0.05 1.02,-0.09 1.52,-0.17 0.68,-0.11 0.52,-1.08 -0.03,-1.25 -1.02,-0.31 -2.32,-0.21 -3.22,0.41l-0.5 -0.29c0.23,-0.16 0.47,-0.31 0.77,-0.48 0.55,-0.31 0.28,-1.22 -0.35,-1.18 -0.59,0.04 -1.47,0.4 -1.84,0.98l-0.34 -0.12 0.12 -0.13c0.29,-0.34 0.21,-1.01 -0.32,-1.09 -0.54,-0.08 -1.27,0.17 -1.37,0.79 -3.69,-0.72 -7.42,0.54 -10.52,2.76 1.22,-1.58 2.71,-3.01 4.35,-4.09l0.52 0.44c0.51,0.37 1.18,-0.38 0.83,-0.87l-0.22 -0.25 0.37 -0.19c0.33,0.58 0.81,1.06 1.5,1.2 0.62,0.13 1.09,-0.63 0.6,-1.09 -0.24,-0.23 -0.52,-0.44 -0.78,-0.67 0.3,-0.11 0.61,-0.2 0.92,-0.28 0.37,0.7 0.69,1.46 1.32,1.98 0.56,0.46 1.34,-0.14 0.98,-0.8 -0.26,-0.49 -0.55,-0.98 -0.86,-1.45l0.63 -0.05c0.23,0.69 0.66,1.31 1.2,1.8 0.52,0.47 1.33,-0.17 0.96,-0.78 -0.19,-0.32 -0.42,-0.63 -0.63,-0.94 0.35,0.05 0.71,0.13 1.06,0.23 0.15,0.38 0.3,0.76 0.46,1.13 0.12,0.27 0.32,0.46 0.63,0.46 0.32,-0.01 0.66,-0.31 0.62,-0.66l-0.05 -0.27c0.72,0.38 1.43,0.87 2.12,1.49 0.54,0.49 1.5,-0.21 1.02,-0.83 -0.74,-0.96 -1.59,-1.7 -2.51,-2.24l0.24 -0.24c0.34,-0.43 0.12,-1.12 -0.49,-1.1 -0.48,0.01 -1.08,0.21 -1.47,0.57 -0.28,-0.09 -0.57,-0.17 -0.86,-0.23l0.41 -0.49c0.4,-0.49 -0,-1.23 -0.65,-1.06 -0.58,0.16 -1.07,0.6 -1.53,1.03l-0.31 0.29c-4.12,-0.02 -8.56,2.28 -11.33,5.59 0.44,-2.4 0.76,-4.81 1.38,-7.12 0.69,-0.32 1.35,-0.74 1.98,-1.15 0.63,-0.41 0.18,-1.36 -0.53,-1.18 -0.26,0.07 -0.54,0.17 -0.81,0.28l0.03 -0.08 0.03 -0.01c0.35,-0.22 0.69,-0.46 1.08,-0.62 0.43,-0.18 0.88,-0.28 1.31,-0.45 0.53,-0.22 0.68,-1.17 -0.03,-1.27 -0.38,-0.05 -0.81,-0.02 -1.24,0.07l-0.01 -0.17 0.25 -0.43 0.14 -0c0.25,-0.05 0.51,-0.06 0.76,-0.1 0.29,-0.05 0.54,-0.15 0.81,-0.26 0.65,-0.27 0.55,-1.25 -0.2,-1.25l-0.39 0.01 0.43 -0.52c0.54,-0.62 -0.34,-1.47 -0.92,-0.88 -0.54,0.54 -1.03,1.13 -1.49,1.74l-0.36 -0.5c-0.39,-0.48 -1.15,-0.03 -1.14,0.51 0.01,0.47 0.15,0.94 0.23,1.4l0.07 0.38 -0.15 0.26 -0.2 -0.36c-0.39,-0.63 -1.33,-0.17 -1.16,0.52 0.14,0.56 0.27,1.13 0.4,1.69 -0.43,0.94 -0.8,1.93 -1.12,2.93 -0.05,-1.06 -0.2,-2.15 -0.43,-3.22l0.11 -0.33c0.15,-0.43 0.33,-0.85 0.44,-1.29 0.15,-0.61 -0.69,-1.14 -1.11,-0.61l-0.05 0.06c-0.11,-0.33 -0.23,-0.65 -0.36,-0.97 0.38,-0.62 0.55,-1.41 0.75,-2.07 0.18,-0.62 -0.69,-1.11 -1.11,-0.61 -0.2,0.24 -0.36,0.52 -0.5,0.81 -0.18,-0.34 -0.37,-0.67 -0.57,-0.99 0.13,-0.2 0.25,-0.4 0.35,-0.62 0.12,-0.27 0.1,-0.57 -0.12,-0.78 -0.26,-0.24 -0.67,-0.23 -0.91,0.02l-0.14 0.17c-0.21,-0.28 -0.43,-0.56 -0.66,-0.81 -0.51,-0.57 -1.45,0.21 -1.03,0.84 0.17,0.25 0.33,0.51 0.48,0.76l-0.63 -0.08c-0.66,-0.07 -0.84,0.94 -0.3,1.22 0.63,0.32 1.3,0.51 1.92,0.82 0.1,0.24 0.2,0.47 0.29,0.71 -0.73,-0.3 -1.53,-0.55 -2.3,-0.53 -0.72,0.02 -0.81,0.88 -0.3,1.25 0.79,0.57 1.84,0.82 2.72,1.22 0.15,0.07 0.36,0.19 0.6,0.3l0.1 0.38c-0.34,-0.15 -0.69,-0.26 -0.99,-0.31 -0.77,-0.12 -1.09,0.78 -0.48,1.22 0.45,0.33 0.91,0.63 1.32,1.01 0.25,0.22 0.45,0.49 0.68,0.74 0.15,0.93 0.28,1.87 0.4,2.82 -1.07,-1.77 -2.45,-3.42 -3.95,-4.83 0.08,-0.6 -0.11,-1.17 -0.4,-1.71 -0.26,-0.49 -1.08,-0.36 -1.18,0.18l-0.01 0.14 -0.35 -0.27c-0.14,-0.56 -0.55,-1.07 -0.81,-1.58 -0.27,-0.53 -1.06,-0.29 -1.16,0.22 -0.24,-0.15 -0.48,-0.29 -0.72,-0.43 -0.67,-0.37 -1.46,0.63 -0.81,1.11l0.35 0.27 -0.14 0.04c-0.55,0.21 -0.66,1.14 0.03,1.25 0.71,0.12 1.46,0.17 2.15,0.41 -0.39,0.02 -0.77,0.09 -1.12,0.23 -0.75,0.29 -0.59,1.35 0.22,1.38 0.59,0.03 1.17,0.02 1.76,0.06 0.39,0.03 0.77,0.16 1.16,0.24 0.9,0.97 1.74,2.01 2.5,3.15 0.38,0.57 0.7,1.15 0.98,1.73 -0.89,-1.13 -1.94,-2.12 -3.06,-2.85 -1.11,-0.73 -2.35,-1.22 -3.65,-1.52l-0.31 -0.42c-0.19,-0.21 -0.44,-0.31 -0.67,-0.43 -0.47,-0.25 -0.89,0.13 -0.9,0.55l-0.23 -0.02c-0.13,-0.26 -0.26,-0.51 -0.4,-0.75 -0.36,-0.63 -1.25,-0.15 -1.1,0.5l0.06 0.2 -0.41 0.01c-0.23,-0.32 -0.53,-0.62 -0.84,-0.84 -0.44,-0.3 -1.03,0.14 -1.02,0.62l0.08 0.38 -0.34 0.04 -0.58 -0.53c-0.26,-0.22 -0.62,-0.53 -0.99,-0.43l-0.44 0.33 0 -0.01 -0.02 0.04 -0 0c-0.19,0.33 0.01,0.7 0.26,0.96l-0.53 0.14c-0.2,-0.23 -0.47,-0.39 -0.76,-0.45 -0.55,-0.1 -0.94,0.47 -0.68,0.91l-0.54 0.21c-0.8,0.32 -0.47,1.54 0.39,1.3l0.62 -0.16 0.19 0.47c0.26,0.25 0.63,0.2 0.88,-0.02 0.24,-0.21 0.37,-0.5 0.46,-0.8l0.3 -0.05c-0.11,0.22 -0.2,0.43 -0.27,0.66 -0.2,0.63 0.66,1.05 1.09,0.6 0.4,-0.42 0.66,-0.96 0.87,-1.5l0.56 -0.05c-0.07,0.2 -0.11,0.41 -0.1,0.64 0.04,0.66 0.84,0.81 1.19,0.29 0.2,-0.3 0.32,-0.65 0.43,-1l0.47 0.01 -0.25 0.47c-0.1,0.27 -0.1,0.55 0.12,0.76 0.19,0.18 0.54,0.25 0.76,0.08 0.39,-0.31 0.71,-0.72 0.92,-1.18l0.63 0.1c-0.09,0.21 -0.16,0.42 -0.19,0.65 -0.02,0.22 0.15,0.45 0.33,0.55 0.27,0.15 0.56,0.07 0.78,-0.12 0.23,-0.2 0.41,-0.45 0.57,-0.71l0.49 0.16 -0.2 0.54c-0.1,0.55 0.46,1.02 0.97,0.7 0.27,-0.16 0.5,-0.37 0.67,-0.61l0.51 0.31 -0.13 0.23c-0.3,0.55 0.34,1.16 0.87,0.84l0.32 -0.27c2.17,1.92 3.14,4.8 3.48,7.74 -2.81,-3.55 -7.19,-5.26 -11.63,-5.26 -0.3,-0.34 -0.69,-0.59 -1.15,-0.7 -0.53,-0.12 -0.83,0.39 -0.68,0.8l-0.25 0.03c-0.22,-0.34 -0.55,-0.61 -0.82,-0.91 -0.41,-0.46 -1.26,0.06 -1.03,0.63l0.28 0.55c-0.23,0.05 -0.45,0.11 -0.68,0.17 -0.46,-0.42 -1.05,-0.77 -1.63,-0.91 -0.58,-0.14 -1.06,0.63 -0.57,1.05l0.49 0.4 -0.64 0.26c-0.37,-0.32 -0.86,-0.53 -1.35,-0.49 -0.58,0.05 -0.86,0.87 -0.28,1.16l0.13 0.06c-0.53,0.3 -1.05,0.62 -1.55,0.98 -0.65,0.47 -0.03,1.51 0.66,1.07 0.38,-0.24 0.77,-0.46 1.17,-0.67 -0.06,0.53 0.68,0.79 1.06,0.44 0.32,-0.3 0.51,-0.75 0.61,-1.18 0.26,-0.1 0.52,-0.18 0.79,-0.27l-0.15 0.23c-0.3,0.6 0.51,1.26 0.98,0.72 0.21,-0.25 0.37,-0.54 0.58,-0.78l0.12 -0.57 0.45 -0.09 -0.18 0.57c-0.12,0.59 0.65,1.12 1.09,0.6 0.33,-0.39 0.44,-0.88 0.58,-1.35l0.51 -0.03 0.06 0.48c0.19,0.31 0.54,0.34 0.84,0.2 0.32,-0.15 0.54,-0.4 0.71,-0.69l0.53 0.02 -0.12 0.39c-0.2,0.67 0.78,1.02 1.11,0.44 0.12,-0.21 0.16,-0.44 0.24,-0.67 0.26,0.04 0.52,0.09 0.78,0.14l-0.02 0.01c-0.62,0.36 -0.16,1.26 0.5,1.1 0.4,-0.1 0.69,-0.42 0.88,-0.77 0.31,0.09 0.62,0.18 0.92,0.29 -0.32,0.5 0.39,1.19 0.87,0.82l0.31 -0.32c2.26,1.05 4.24,2.66 5.65,4.83l0.02 0.03c-0.08,0.3 0.01,0.65 0.33,0.85l0.02 0.01 0.31 0.08 -0.18 0.27 -0.04 0.28c-1.13,-0.27 -2.28,0.09 -3.23,0.8l-0.02 -0 -0.61 0.1c-0.38,0.07 -0.74,0.31 -1.03,0.55l-0.17 0.6 -0.18 0.1c-0.29,0.17 -0.57,0.34 -0.81,0.57 -0.42,0.39 -0.06,1.12 0.49,1.1l0.25 -0.03c-0.18,0.66 -0.23,1.33 -0.07,1.97 0.17,0.69 1.29,0.51 1.23,-0.2 -0.03,-0.35 0,-0.68 0.07,-1.01l0.2 0.5c0.11,0.25 0.47,0.34 0.71,0.27 0.35,-0.1 0.49,-0.45 0.42,-0.78 -0.12,-0.59 -0.28,-1.16 -0.45,-1.74l0.11 -0.14 0.13 -0.13 0.01 0.03c0.08,0.42 0.57,0.51 0.89,0.34 0.08,0.74 0.3,1.46 0.24,2.44 -0.03,0.52 -0.03,1.05 -0.02,1.58 -2.68,-0.13 -5.46,-0.15 -8.13,0.03 -0.78,0.05 -0.73,1.14 0.03,1.19 2.68,0.18 5.47,0.16 8.16,0.03 0.1,1.45 0.31,2.91 0.51,4.32 0.38,2.61 0.59,5.1 0.49,7.75 -0.09,2.19 1.12,4.66 0.13,6.75 -0.33,0.7 0.63,1.23 1.05,0.58 0.88,-1.4 0.6,-3.12 0.4,-4.68 -0.3,-2.33 -0.17,-4.59 -0.31,-6.93 -0.15,-2.48 -0.57,-4.91 -0.64,-7.4 -0.04,-1.41 -0.17,-2.71 -0.03,-4.12 0.08,-0.75 -0.28,-1.31 -0.45,-1.95l0.29 -0.09c0.39,-0.27 0.55,-0.72 0.44,-1.14l0 0c0.33,-0.04 0.52,-0.26 0.57,-0.51l0.35 -0.08c0.3,0.36 0.91,0.46 1.23,0.09l0 0.36c-0.21,0.02 -0.42,0.06 -0.64,0.07 -0.81,0.05 -0.77,1.2 0.03,1.25l0.17 0.01c0.27,0.07 0.54,0.07 0.81,0.05 0,0.3 0.01,0.6 0.02,0.9l-0.4 0.12 -0.05 0.01c-0.27,0.03 -0.51,0.18 -0.58,0.46 -0.07,0.29 0.11,0.7 0.44,0.74l0.21 0.06 0.47 0.1c0.02,0.23 0.04,0.46 0.06,0.69l-0.58 0.12c-0.2,0.09 -0.36,0.21 -0.41,0.44 -0.06,0.24 0.05,0.58 0.3,0.68 0.29,0.12 0.56,0.17 0.84,0.17l0.06 0.55 -0.01 0c-0.48,0.02 -1.01,0.06 -1.45,0.25 -0.43,0.17 -0.67,0.91 -0.12,1.13 0.48,0.19 1,0.26 1.51,0.29l0.23 0 0.02 0.3c-0.35,-0.02 -0.71,0.03 -1.03,0.15 -0.77,0.29 -0.69,1.25 0.04,1.53 0.31,0.12 0.69,0.17 1.07,0.14 0,0.25 0.01,0.5 0.01,0.76l-0.55 -0.01c-0.62,0 -1.61,0.42 -1.2,1.2 0.27,0.52 0.94,0.54 1.45,0.54l0.25 -0.01c-0.01,0.28 -0.02,0.56 -0.04,0.85 -0.34,-0.02 -0.67,0 -1.02,0.09 -0.59,0.15 -0.53,1.02 0.03,1.16 0.31,0.08 0.61,0.1 0.91,0.09l-0.04 0.56 -0.17 -0.03c-0.34,-0.02 -0.62,0.07 -0.92,0.22 -0.41,0.21 -0.36,0.85 0.03,1.05l0.08 0.05 0.29 0.11 0.49 0.05 0.13 -0.01c-0.01,0.3 -0.03,0.61 -0.04,0.91l-0.56 0.1 -0.06 0c-0.83,0.06 -0.77,1.21 0.03,1.27l0.05 0 0.51 0.1 0.01 0.62c-0.4,-0.04 -0.82,0.06 -1.08,0.31 -0.3,0.28 -0.26,0.8 0.03,1.06 0.26,0.25 0.69,0.33 1.09,0.28l0.02 0.64c-0.33,-0.01 -0.66,0.02 -0.93,0.19 -0.42,0.25 -0.37,0.86 0.03,1.09 0.27,0.16 0.6,0.19 0.94,0.17l0.01 0.49c-0.32,-0.03 -0.66,-0.06 -0.96,0.05 -0.59,0.22 -0.53,0.96 0.03,1.16 0.29,0.11 0.63,0.08 0.95,0.05l0.01 0.55 -0.36 -0.05c-0.35,-0.04 -0.6,0.04 -0.87,0.26 -0.26,0.22 -0.23,0.71 0.02,0.92 0.36,0.31 0.79,0.27 1.23,0.21l0 0.35c-0.28,-0.01 -0.56,0.01 -0.76,0.17 -0.28,0.21 -0.44,0.7 -0.1,0.96 0.27,0.2 0.56,0.25 0.87,0.24l0 0.41 -0.49 0.1c-0.21,0.09 -0.37,0.22 -0.43,0.45 -0.06,0.26 0.05,0.59 0.31,0.71l0.63 0.14 0 0.58 0 0 -0.46 0.18c-0.29,0.22 -0.45,0.72 -0.1,0.99l0.55 0.25c-0.01,0.28 -0.01,0.57 -0.02,0.85 -0.27,0.05 -0.52,0.28 -0.58,0.54 -0.1,0.41 0.17,0.76 0.54,0.85 -0.05,1.91 -0.06,3.82 0.28,5.7 0.14,0.74 1.42,0.53 1.3,-0.21 -0.47,-3.01 -0.12,-6.16 -0.1,-9.19 0.02,-3.62 -0.23,-7.24 -0.3,-10.86 -0.06,-3.4 0.38,-6.8 0.5,-10.2 0.13,-3.59 -0.62,-7.18 -0.65,-10.78l-0.04 -0.21 0.11 -0.42 0.12 0.02c0.08,1.08 0.65,2.15 1.27,3 0.4,0.55 1.43,0.2 1.15,-0.52 -0.26,-0.67 -0.47,-1.4 -0.76,-2.08l0.47 0.15c0.21,0.93 0.72,1.83 1.19,2.63 0.37,0.63 1.29,0.16 1.12,-0.51 -0.11,-0.43 -0.27,-0.88 -0.45,-1.32 0.24,0.13 0.48,0.27 0.72,0.43 -0.08,0.55 0,0.98 0.37,1.42 0.32,0.39 0.97,0.08 1.04,-0.36 0.48,0.42 0.94,0.89 1.38,1.42 0.46,0.54 1.38,-0.21 0.97,-0.78 -2.01,-2.82 -4.89,-4.62 -8.26,-4.86l0.02 -0.21c2.61,-0.03 5.16,0.79 7.35,2.21 0.1,0.32 0.15,0.65 0.25,0.97 0.18,0.56 0.93,0.56 1.16,0.07l0.2 0.17c0.04,0.86 0.16,1.72 0.31,2.57 0.12,0.69 1.21,0.48 1.19,-0.19 -0.01,-0.29 -0.01,-0.59 -0.01,-0.89 0.56,0.65 1.07,1.34 1.51,2.08 0.38,0.63 1.51,0.16 1.2,-0.54 -0.4,-0.91 -0.91,-1.74 -1.49,-2.51 0.32,-0.2 0.42,-0.74 0.13,-1.04 -0.38,-0.39 -0.97,-0.58 -1.55,-0.58 -2.87,-2.77 -6.89,-4.23 -10.89,-3.72 2.16,-0.96 4.56,-1.16 6.82,-0.66 0.16,0.39 0.39,0.77 0.71,1.05 0.22,0.18 0.51,0.23 0.77,0.08 0.18,-0.11 0.31,-0.35 0.3,-0.58l0.57 0.25c0.18,0.57 0.47,1.07 0.78,1.59 0.38,0.61 1.2,0.21 1.15,-0.42 0.57,0.43 1.11,0.92 1.6,1.47 0.51,0.57 1.46,-0.22 1.03,-0.84 -2.43,-3.47 -6.34,-4.89 -10.15,-4.46 2.12,-0.94 4.34,-1.33 6.68,-0.86 -0.01,0.27 -0.02,0.53 0,0.81 0.06,0.8 1.16,0.75 1.22,-0.03l0.02 -0.45 0.34 0.12 0 0.53c-0,0.46 0.03,0.93 0.06,1.39 0.06,0.81 1.18,0.76 1.25,-0.03 0.03,-0.4 0.05,-0.81 0.06,-1.22l0 -0.08 0.44 0.23c-0.05,1.01 0,2.04 0.01,3.05 0.01,0.8 1.23,0.76 1.24,-0.03 0.01,-0.73 0.04,-1.48 0.04,-2.22 0.25,0.17 0.5,0.35 0.74,0.54 -0.25,1.26 -0.04,2.68 0.03,3.94 0.05,0.8 1.19,0.76 1.24,-0.03 0.05,-0.85 0.16,-1.77 0.15,-2.66 0.33,0.32 0.65,0.66 0.95,1.02 -0.13,0.31 -0.12,0.68 -0.13,1.01 -0.02,0.48 0.03,0.95 0.14,1.42 0.15,0.62 1.08,0.56 1.23,-0.03l0.1 -0.63c0.4,0.6 0.76,1.22 1.06,1.85 0.3,0.64 1.35,0.15 1.12,-0.5 -0.3,-0.86 -0.73,-1.7 -1.24,-2.51z"/>
  <path class="fil0" d="M63.6 65.86l0.33 -0.25 0.24 0.25c0.31,0.17 0.65,0.04 0.83,-0.24 0.2,-0.31 0.34,-0.65 0.37,-1.01l0.57 -0.34c-0.26,0.57 -0.39,1.2 -0.38,1.84 0.02,0.75 1.11,0.86 1.3,0.14 0.23,-0.88 0.44,-1.73 0.96,-2.49l0.08 -0.35 0.22 -0.08c-0.28,0.55 -0.46,1.13 -0.5,1.81 -0.04,0.63 0.96,0.88 1.21,0.3 0.36,-0.85 0.73,-1.66 0.99,-2.54l0.42 -0.08c-0.08,0.25 -0.15,0.51 -0.17,0.77 -0.05,0.53 0.77,0.84 1.08,0.42 0.31,-0.4 0.39,-0.88 0.53,-1.34l0.3 -0.02 -0.14 0.56c0.06,0.67 1.01,0.82 1.2,0.13l0.13 -0.34 0.05 -0.34c1.05,0.05 2.09,0.23 3.12,0.51 -1.86,0.18 -3.68,0.71 -5.05,1.36 -1.64,0.78 -3.02,1.8 -4.14,3.02 -0.49,0 -1,0.17 -1.43,0.31 -0.62,0.21 -1.25,0.51 -1.68,1.02 -0.43,0.5 0.03,1.12 0.63,1.02 0.33,-0.05 0.64,-0.16 0.95,-0.26l-0.2 0.33 -0.17 0.03c-0.45,0.17 -0.81,0.47 -1.16,0.8 -0.34,0.33 -0.73,0.69 -0.97,1.11 -0.26,0.45 0.22,1.17 0.75,0.93l0.49 -0.3c-0.33,1.13 -0.52,2.32 -0.56,3.56 -0.03,0.79 1.16,0.74 1.22,-0.03 0.07,-1.11 0.27,-2.16 0.57,-3.16 0.16,0.23 0.46,0.35 0.74,0.26 0.38,-0.11 0.51,-0.47 0.45,-0.83 -0.09,-0.51 -0.13,-1.07 -0.3,-1.57l0.26 -0.46c0.16,0.86 0.47,1.71 0.92,2.36 0.4,0.57 1.32,0.19 1.12,-0.51 -0.17,-0.59 -0.36,-1.16 -0.48,-1.77 -0.11,-0.55 -0.15,-1.12 -0.27,-1.67l0.16 -0.33 0.19 -0.2c0.03,0.65 0.21,1.3 0.53,1.86 0.38,0.67 1.3,0.16 1.15,-0.52 -0.19,-0.92 -0.25,-1.71 -0.19,-2.63l0.03 -0.02c-0.05,0.55 0.04,1.12 0.27,1.62 0.27,0.59 1.23,0.25 1.19,-0.36 -0.05,-0.7 0.04,-1.37 0.16,-2.07l0 -0.19 0.32 -0.16c-0.06,0.32 -0.07,0.55 -0.1,0.89 -0.05,0.61 0.93,0.85 1.17,0.29 0.17,-0.38 0.29,-0.63 0.39,-1.06 0.05,-0.22 0.12,-0.48 0.12,-0.73l0.4 -0.12c0.05,0.45 0.6,0.78 1.02,0.37 0.21,-0.21 0.33,-0.45 0.44,-0.7 1.74,-0.3 3.55,-0.26 5.09,0.28 -1.68,-0.01 -3.44,0.41 -4.74,0.96 -3.2,1.34 -4.89,5.01 -4.28,8.31 0.12,0.67 1.27,0.49 1.18,-0.19 -0.05,-0.45 -0.06,-0.89 -0.03,-1.31l0.13 0.16c0.48,0.53 1.26,-0.18 0.93,-0.75 -0.19,-0.33 -0.4,-0.65 -0.52,-1.02l-0.13 -0.23 0.2 -0.46c0.12,0.31 0.27,0.59 0.44,0.82 0.45,0.58 1.35,0.21 1.17,-0.53 -0.14,-0.58 -0.28,-1.25 -0.57,-1.81l0.24 -0.25c0.1,0.62 0.33,1.23 0.6,1.72 0.31,0.55 1.3,0.29 1.22,-0.36 -0.06,-0.45 -0.16,-0.89 -0.24,-1.34 -0.07,-0.37 -0.11,-0.73 -0.19,-1.09l0.6 -0.32c-0.01,0.28 -0.01,0.56 0.02,0.84 0.07,0.8 1.15,0.74 1.22,-0.03 0.04,-0.44 0.04,-0.87 0.06,-1.31l0.59 -0.15c-0.07,0.23 -0.11,0.47 -0.13,0.71 -0.05,0.61 0.92,0.84 1.16,0.29 0.17,-0.39 0.27,-0.79 0.4,-1.19l0.25 -0.01 -0.01 0.01c-0.33,0.54 0.37,1.22 0.89,0.85 0.28,-0.19 0.46,-0.45 0.53,-0.76 0.67,0.11 1.34,0.3 1.97,0.58 0.59,0.27 1.27,-0.5 0.71,-0.97l-0.25 -0.19 -0.2 -0.42c-5.1,-5.25 -12.83,-6.05 -18.71,-2.21 -0.44,-0.4 -1.13,-0.48 -1.54,0.06 -0.28,0.37 -0.14,0.78 0.16,0.95 -0.28,0.23 -0.56,0.47 -0.82,0.72 -0.6,0.57 0.3,1.36 0.9,0.86z"/>
  <path class="fil0" d="M83.05 104.23c-0.94,-0.25 -1.7,-0.55 -2.62,-0.9 -1.35,-0.5 -2.76,-0.35 -4.01,-1.18 -1.24,-0.82 -5.74,-1.62 -5.9,-3.2 -0.06,-0.51 -0.39,-0.81 -0.9,-0.85 -2.76,-0.2 -5.37,-0.67 -7.82,-1.98 -1.24,-0.67 -2.34,-1.57 -3.63,-2.16 -1.87,-0.86 -3.46,-0.79 -4.94,-2.44 -1.33,-1.48 -3.64,-1.67 -5.11,-2.8 2.23,-1.04 4.42,-2.3 6.85,-2.67 2.14,-0.33 3.92,-0.28 5.67,-1.69 0.55,-0.44 0.49,-1.26 -0.23,-1.48 -1.01,-0.31 -1.96,-0.57 -2.94,-0.72 1.55,-0.32 3.6,0.11 4.86,-0.11 2.43,-0.41 4.87,-0.54 7.28,-1.07 0.79,-0.17 0.54,-1.25 -0.15,-1.34 -2.86,-0.91 -6.15,-1.49 -9.13,-0.96 -0.63,0.11 -0.57,1.13 0.03,1.24 1.51,0.27 3.05,0.21 4.56,0.43 -1.88,0.22 -3.78,0.33 -5.6,0.25 -1.68,-0.07 -3.29,0.02 -4.4,1.17 -2.24,0.53 -4.33,-1.52 -6.57,-1.13 -0.91,-1.37 -3.27,-1.38 -4.79,-1.45 -2.08,-0.09 -3.77,0.09 -5.76,-0.74 -1.83,-0.76 -3.38,-1.56 -5.34,-0.81 -0.82,0.31 -0.44,1.4 0.38,1.27 2.78,-0.45 5.25,1.83 8.06,1.86 0.93,0.01 6.1,-0.42 6.23,0.83 0.07,0.63 0.64,0.91 1.2,0.65 1.07,-0.51 3.81,0.84 4.98,1.07 0.48,0.09 0.9,0.11 1.3,0.06l0.52 0.2c1.02,0.01 1.98,0.17 2.93,0.39 -1.56,0.53 -3.34,0.43 -4.94,0.82 -2.29,0.56 -4.42,2.01 -6.55,2.95 -0.42,0.18 -0.76,0.7 -0.43,1.15 1.51,2.03 4.24,2.07 6.07,3.7 0.74,0.66 1.17,1.37 2.07,1.84 0.96,0.51 2.14,0.47 3.15,0.87 1.61,0.65 2.95,1.92 4.49,2.73 2.15,1.14 4.6,1.54 7,1.76 0.54,1.93 2.23,2.3 4.27,2.75 1.78,0.39 2.91,1.94 4.72,2.29 1.57,0.31 3.13,0.74 4.71,1.13 1.12,0.28 1.54,-1.44 0.43,-1.73z"/>
  <path class="fil0" d="M89.97 108.13c0.22,0.13 0.4,0.29 0.62,0.42 0.28,0.17 0.54,0.25 0.87,0.27 0.28,0.02 0.55,-0.23 0.61,-0.49 0.08,-0.31 -0.08,-0.55 -0.32,-0.72 -0.39,-0.28 -0.85,-0.54 -1.33,-0.62 -0.69,-0.11 -1.08,0.78 -0.45,1.15z"/>
  <path class="fil0" d="M57.02 89.13c2.75,3.07 7.83,1.28 11.38,2.17 2.15,0.54 3.76,2.79 5.94,3.57 1.9,0.68 4.5,-0.29 6.2,0.84 0.58,0.39 1.14,-0.28 1.03,-0.83 -0.24,-1.21 -1.66,-1.39 -2.72,-1.44 -1.37,-0.07 -2.73,-0 -4.08,-0.28 -1.6,-0.33 -2.61,-1.51 -3.89,-2.39 -3.99,-2.75 -9.1,-0.07 -13.12,-2.65 -0.64,-0.41 -1.19,0.5 -0.74,1.01z"/>
  <path class="fil0" d="M94.5 101.68c1.1,0.75 2.98,0.56 4.23,0.72 0.73,0.09 1.05,-0.74 0.46,-1.17 -1.35,-0.97 -3.14,-0.16 -4.45,-1.17 -1.02,-0.79 -1.74,-1.81 -3.1,-1.98 -0.77,-0.1 -1.05,0.93 -0.3,1.18 1.26,0.41 2.09,1.68 3.16,2.41z"/>
  <path class="fil0" d="M82.5 88.82c-1.34,-0.39 -2.65,0.12 -4.01,-0.16 -1.39,-0.28 -2.72,-0.95 -4.07,-1.37 -0.77,-0.24 -1.04,0.94 -0.3,1.2 1.35,0.48 2.66,1.1 4.04,1.51 1.37,0.41 2.8,0.07 4.2,0.09 0.75,0.01 0.82,-1.07 0.14,-1.28z"/>
  <path class="fil0" d="M91.21 92.68c3,-0.3 5.86,1.26 8.83,1.59 2.85,0.31 5.84,0.2 8.68,-0.2 0.81,-0.11 0.79,-1.21 -0.03,-1.27 -3.44,-0.25 -6.86,0.17 -10.29,-0.31 -2.54,-0.36 -4.78,-1.76 -7.36,-0.99 -0.64,0.19 -0.5,1.26 0.19,1.18z"/>
  <path class="fil0" d="M69.98 74.17c-1.1,-0.09 -2.2,-0.03 -3.31,0 -0.77,0.03 -0.73,1.17 0.03,1.19 1.1,0.04 2.2,0.09 3.31,0 0.78,-0.06 0.73,-1.14 -0.03,-1.2z"/>
  <path class="fil0" d="M95 83.95c2.93,-0.31 5.82,-0.23 8.75,-0.03 2.77,0.19 5.59,-0.34 8.36,-0.45 0.84,-0.03 0.76,-1.19 -0.03,-1.27 -2.79,-0.27 -5.56,0.4 -8.36,0.33 -3.03,-0.07 -5.91,-0.3 -8.91,0.19 -0.69,0.11 -0.5,1.3 0.2,1.22z"/>
  <path class="fil0" d="M33.11 87.12l0.05 -0.23c0.28,-0.19 0.47,-0.47 0.52,-0.84 1.34,0.07 2.65,0.41 3.98,0.56 1.37,0.16 2.57,-0.64 3.9,-0.45 0.64,0.09 1.13,-0.84 0.44,-1.13 -1.38,-0.59 -2.16,0.03 -3.6,0.13 -1.85,0.14 -3.68,-0.72 -5.56,-0.65 -0.51,0.02 -0.84,0.5 -0.71,0.98l-0.55 0.4 -0.12 0.02c-0.9,-0.35 -1.73,-0.8 -2.75,-0.74 -1.68,0.1 -2.89,-0.88 -4.19,-1.8 -1.71,-1.2 -3.6,-2.26 -5.43,-0.77 -0.52,0.42 0.09,1.17 0.64,1.03 2.78,-0.71 4.24,2.34 6.64,3.07 1,0.31 1.73,-0.1 2.7,0.03 1.21,0.16 1.81,1.02 2.83,1.02 0.71,0.69 1.47,1.31 2.32,1.84 0.59,0.37 1.28,-0.56 0.72,-0.98 -0.64,-0.47 -1.25,-0.97 -1.83,-1.5z"/>
  <path class="fil0" d="M47.07 96.25c0.5,-0.01 0.74,-0.15 1.01,-0.56 0.28,-0.42 0.02,-0.89 -0.33,-1.14 -0.68,-0.49 -1.38,-0.76 -2.19,-0.96 -1,-0.24 -2.1,-0.09 -3.05,-0.51 -0.6,-0.26 -0.35,-1.13 -0.78,-1.54 -0.65,-0.62 -1.53,-0.69 -2.38,-0.66 -0.71,0.02 -0.79,1.02 -0.13,1.21 0.79,0.24 1.32,0.35 1.72,1.11 0.3,0.58 0.71,0.88 1.29,1.18 1.32,0.7 2.87,0.66 4.18,1.32 0.05,0.31 0.29,0.56 0.66,0.55z"/>
  <path class="fil0" d="M41.59 97.01c-2.23,-0.23 -3.97,1.6 -6.06,0.94 -1.22,-0.38 -2.53,-0.33 -3.79,-0.23 -1.12,0.09 -1.82,1.14 -2.86,1.45 -0.64,0.19 -0.5,1.29 0.19,1.19 0.81,-0.11 1.23,-0.29 1.91,-0.8 1.26,-0.93 3.51,-0.43 4.85,-0.03 2.14,0.63 3.6,-1.32 5.79,-1.31 0.8,0 0.72,-1.13 -0.03,-1.21z"/>
  <path class="fil0" d="M47.8 97.25c-0.44,-0.07 -0.89,-0.09 -1.34,-0.09 -0.41,-0 -0.89,-0.01 -1.23,0.25 -0.49,0.38 -0.39,1.05 0.2,1.26 0.37,0.13 0.81,0.13 1.2,0.15 0.47,0.03 0.97,-0.06 1.36,-0.34 0.42,-0.31 0.44,-1.13 -0.19,-1.22z"/>
  <path class="fil0" d="M50.7 95.11c0.26,0.07 0.56,0.08 0.82,-0 0.62,-0.21 0.55,-1.02 -0.03,-1.21 -0.26,-0.09 -0.56,-0.06 -0.82,0.01 -0.61,0.17 -0.55,1.04 0.03,1.2z"/>
  <path class="fil0" d="M37.22 87.53c-0.29,0 -0.55,0.22 -0.62,0.5 -0.07,0.28 0.09,0.67 0.38,0.77l0.07 0.06 0.36 0.29c0.38,0.23 0.83,-0.02 0.95,-0.41 0.22,-0.73 -0.45,-1.29 -1.11,-1.2l0.03 -0.01 -0.06 0z"/>
  <path class="fil0" d="M46.2 83.83c-0.53,-0.28 -1.18,-0.37 -1.77,-0.18 -0.66,0.21 -0.59,1.09 0.03,1.29 0.45,0.14 0.98,0.14 1.44,0.08 0.6,-0.07 0.89,-0.88 0.29,-1.2z"/>
  <path class="fil0" d="M45.1 85.32c-0.28,0.04 -0.52,0.18 -0.59,0.47 -0.07,0.3 0.12,0.71 0.45,0.76 0.67,0.08 1.24,0.12 1.78,-0.36 0.4,-0.35 0.07,-1.15 -0.47,-1.07 -0.39,0.05 -0.78,0.16 -1.17,0.21z"/>
  <path class="fil0" d="M49.62 84.82c0.53,-0.31 0.28,-1.19 -0.34,-1.15 -0.32,0.02 -0.63,0.08 -0.94,0.13 -0.6,0.11 -0.55,1.08 0.03,1.18 0.45,0.08 0.85,0.08 1.25,-0.16z"/>
  <path class="fil0" d="M40.89 88.21c-0.48,-0.16 -0.91,-0.01 -1.26,0.22 -0.42,0.27 -0.38,1.04 0.18,1.13 0.35,0.06 0.86,0.36 1.33,0.36 0.34,0 0.69,-0.33 0.65,-0.69 -0.06,-0.52 -0.42,-0.86 -0.9,-1.02z"/>
  <path class="fil0" d="M43.62 89.8l-0.51 0.4c-0.42,0.53 0.14,1.31 0.76,0.94 0.25,-0.15 0.44,-0.26 0.61,-0.51 0.15,-0.23 0.07,-0.57 -0.11,-0.75 -0.22,-0.21 -0.5,-0.2 -0.75,-0.08z"/>
  <path class="fil0" d="M33.17 100.42c-0.61,0.26 -1.21,0.62 -1.72,1.05 -0.47,0.39 0.07,1.23 0.62,1.01 0.56,-0.23 1.13,-0.55 1.61,-0.93 0.22,-0.18 0.36,-0.42 0.27,-0.71 -0.09,-0.3 -0.47,-0.55 -0.78,-0.42z"/>
  <path class="fil0" d="M34.37 101.87c-0.35,-0.05 -0.61,0 -0.93,0.15 -0.34,0.15 -0.57,0.46 -0.45,0.85 0.13,0.44 0.62,0.59 1.01,0.38l0.41 -0.18c0.55,-0.18 0.61,-1.1 -0.03,-1.19z"/>
  <path class="fil0" d="M50.5 96.67c0.33,0.11 0.7,0.16 1.04,0.12 0.5,-0.05 0.9,-0.72 0.43,-1.1 -0.44,-0.35 -0.97,-0.42 -1.5,-0.24 -0.62,0.21 -0.55,1.01 0.03,1.22z"/>
  <path class="fil0" d="M37.93 101.04l0.45 -0.03c0.59,-0.1 0.54,-1.07 -0.03,-1.17l-0.45 -0.02c-0.33,0.04 -0.6,0.27 -0.6,0.62 0.01,0.37 0.29,0.56 0.62,0.59z"/>
  <path class="fil0" d="M41.4 99.64l-0.29 -0c-0.78,-0.02 -0.75,1.22 0.03,1.21l0.29 -0.01c0.77,-0.02 0.74,-1.18 -0.03,-1.19z"/>
  <path class="fil0" d="M48.17 113.48c2.81,0.59 5.1,-1.52 7.33,-2.83 0.61,-0.36 0.29,-1.3 -0.39,-1.29 -1.27,0 -2.34,0.34 -3.42,1.01 -0.51,0.32 -0.98,0.65 -1.45,1.02 -0.65,0.52 -1.33,0.66 -2.1,0.89 -0.58,0.17 -0.58,1.08 0.03,1.2z"/>
  <path class="fil0" d="M58.34 110.13c-0.82,0.16 -1.6,0.6 -2.2,1.16 -0.44,0.4 0.05,1.25 0.62,1.01 0.71,-0.3 1.47,-0.56 2.1,-1.01 0.61,-0.44 0.19,-1.29 -0.52,-1.15z"/>
  <path class="fil0" d="M60.49 113.5c0.31,-0.56 -0.23,-1.09 -0.79,-0.98 -0.93,0.19 -1.71,0.7 -2.61,1 -1.02,0.33 -2.08,0.35 -3.11,0.62 -0.63,0.17 -0.51,1.01 0.03,1.19 1.12,0.38 2.46,0.1 3.58,-0.16 1.15,-0.26 2.31,-0.58 2.9,-1.67z"/>
  <path class="fil0" d="M60.85 116.19c0.6,-0.17 1.2,-0.35 1.64,-0.84 0.44,-0.49 -0.03,-1.19 -0.64,-1.05 -0.56,0.13 -1.05,0.42 -1.5,0.76 -0.55,0.41 -0.2,1.33 0.51,1.12z"/>
  <path class="fil0" d="M46.71 101.33c-1.97,1.01 -3.14,2.74 -3.84,4.78 -0.23,0.67 0.78,1 1.12,0.44 0.97,-1.63 2.57,-2.79 3.64,-4.35 0.41,-0.59 -0.39,-1.14 -0.92,-0.87z"/>
  <path class="fil0" d="M51.41 103.59c-0.56,-0.01 -0.86,0.32 -1.21,0.7 -0.23,0.24 -0.22,0.63 0.02,0.86 0.26,0.25 0.61,0.19 0.87,-0.02l0.36 -0.15 0.43 -0.32c0.44,-0.39 0.03,-1.06 -0.47,-1.07z"/>
  <path class="fil0" d="M54.06 106.94c-0.4,0.24 -0.82,0.48 -1.19,0.76 -0.51,0.38 -0.18,1.39 0.49,1.1 0.43,-0.19 0.83,-0.43 1.23,-0.67 0.44,-0.25 0.95,-0.45 1.34,-0.75 0.57,-0.43 0.2,-1.27 -0.5,-1.12 -0.49,0.1 -0.95,0.43 -1.38,0.68z"/>
  <path class="fil0" d="M38.52 103.17c-0.18,-0.44 -0.94,-0.69 -1.16,-0.12 -0.15,0.39 -0.31,0.76 -0.35,1.18 -0.05,0.53 -0.26,1.19 -0.21,1.71 0.1,1.05 0.42,2.1 0.62,3.14 0.14,0.75 1.17,0.44 1.22,-0.2 0.09,-1.02 0.35,-1.98 0.42,-3 0.03,-0.4 -0.16,-0.86 -0.19,-1.27 -0.04,-0.52 -0.15,-0.96 -0.34,-1.44z"/>
  <path class="fil0" d="M33.82 105.57c0.22,0.6 0.55,1.14 0.85,1.7 0.34,0.63 1.3,0.16 1.11,-0.5 -0.2,-0.68 -0.47,-1.29 -0.94,-1.83 -0.41,-0.47 -1.24,0.06 -1.03,0.63z"/>
  <path class="fil0" d="M67.66 113.77l-0.16 0.67c0.18,0.42 0.48,0.63 0.89,0.79 0.38,0.15 0.73,0.35 1.15,0.38 0.48,0.03 0.91,-0.56 0.73,-1.01 -0.36,-0.89 -1.81,-1.58 -2.61,-0.83z"/>
  <path class="fil0" d="M71.03 110.42c-0.49,-0.19 -0.94,-0.44 -1.34,-0.78 -0.62,-0.52 -1.03,-0.96 -1.91,-0.74 -0.77,0.2 -0.81,1.1 -0.39,1.62 0.48,0.58 1.18,0.47 1.82,0.69 0.56,0.2 1.07,0.42 1.68,0.45 0.78,0.04 0.74,-1.01 0.14,-1.24z"/>
  <path class="fil0" d="M77.04 107.3c-0.18,-0.22 -0.42,-0.36 -0.71,-0.27 -0.33,0.1 -0.51,0.45 -0.42,0.78 0.1,0.39 0.35,0.7 0.5,1.07 0.1,0.26 0.31,0.44 0.6,0.44 0.3,-0.01 0.65,-0.3 0.6,-0.63 -0.08,-0.52 -0.24,-0.97 -0.57,-1.38z"/>
  <path class="fil0" d="M82.01 109.14c-0.39,0.25 -0.48,0.7 -0.48,1.13 -0,0.27 -0.01,0.52 -0.07,0.78l-0.16 0.71c-0.47,0.58 0.14,1.28 0.79,0.97 0.23,-0.11 0.53,-0.19 0.69,-0.4 0.24,-0.31 0.41,-0.59 0.55,-0.95 0.25,-0.65 0.29,-1.64 -0.27,-2.14 -0.29,-0.26 -0.72,-0.33 -1.06,-0.11z"/>
  <path class="fil0" d="M26.3 95.49c0.92,0.15 1.71,0.71 2.62,0.91 0.7,0.15 1.14,-0.86 0.47,-1.19 -0.95,-0.48 -1.84,-1.03 -2.95,-0.92 -0.65,0.06 -0.86,1.09 -0.13,1.21z"/>
  <path class="fil0" d="M22.12 80.21c0.27,0.1 0.5,0.29 0.78,0.39 0.64,0.22 1.06,-0.85 0.43,-1.1 -0.32,-0.13 -0.6,-0.33 -0.92,-0.45 -0.31,-0.11 -0.65,0.15 -0.73,0.44 -0.09,0.35 0.13,0.61 0.44,0.73z"/>
  <path class="fil0" d="M27.9 80.55c1.2,0.52 2.39,1.03 3.71,1.17 0.73,0.07 0.79,-1.06 0.14,-1.24 -1.15,-0.31 -2.27,-0.7 -3.41,-1.05 -0.65,-0.2 -1.08,0.85 -0.44,1.13z"/>
  <path class="fil0" d="M50.41 99.05c-0.5,-0.11 -0.93,-0.07 -1.43,-0.01 -0.27,0.03 -0.51,0.18 -0.58,0.46 -0.07,0.29 0.11,0.7 0.45,0.74 0.55,0.07 1.04,0.13 1.59,0 0.61,-0.14 0.55,-1.07 -0.03,-1.2z"/>
  <path class="fil0" d="M52.58 97.99c-0.77,0 -0.74,1.19 0.03,1.19 0.77,0 0.74,-1.19 -0.03,-1.19z"/>
  <path class="fil0" d="M56.35 97.74l-0.07 0c-0.84,0.02 -0.8,1.28 0.03,1.3l0.07 0c0.84,0.02 0.81,-1.33 -0.03,-1.3z"/>
  <path class="fil0" d="M47.49 92.08c0.78,0.1 1.06,-0.93 0.3,-1.19 -0.4,-0.14 -0.82,-0.14 -1.23,-0.11 -0.8,0.05 -0.75,1.18 0.03,1.22 0.3,0.02 0.6,0.04 0.91,0.08z"/>
  <path class="fil0" d="M40.27 95.63l0.07 -0.01c0.64,-0.11 0.58,-1.15 -0.03,-1.26l-0.07 -0.01 -0.52 0.08c-0.5,0.15 -0.47,0.95 -0.01,1.13l0.55 0.08z"/>
  <path class="fil0" d="M30.63 89.21l-0.25 -0.14 -0.11 -0.03c-0.47,-0.62 -1.39,-0.06 -1.03,0.64 0.19,0.37 0.57,0.54 0.95,0.66 0.26,0.08 0.55,-0.07 0.68,-0.29 0.17,-0.31 0.04,-0.64 -0.24,-0.83z"/>
  <path class="fil0" d="M32.16 89.23c-0.67,0 -0.82,1.1 -0.13,1.2l0.05 0 0.04 0.03 0.13 0.11c0.22,0.17 0.49,0.23 0.74,0.08 0.26,-0.16 0.4,-0.58 0.2,-0.84 -0.27,-0.34 -0.56,-0.59 -1.02,-0.58z"/>
  <path class="fil0" d="M37.42 91.51c-0.11,-0.37 -0.42,-0.51 -0.78,-0.52 -0.69,-0.01 -0.73,0.95 -0.17,1.15 0.39,0.31 1.12,-0.02 0.94,-0.63z"/>
  <path class="fil0" d="M24.94 87.77c-0.5,-0.18 -1,0.51 -0.68,0.93 0.41,0.55 1.18,1.17 1.91,1.09 0.42,-0.05 0.86,-0.56 0.53,-0.98 -0.42,-0.53 -1.14,-0.83 -1.76,-1.05z"/>
  <path class="fil0" d="M27.23 87.86c-0.64,0.15 -0.55,1.07 0.03,1.23l0.29 0.09c0.52,0.18 0.98,-0.51 0.69,-0.94 -0.24,-0.36 -0.59,-0.47 -1.01,-0.38z"/>
  <path class="fil0" d="M24.93 97.54c0.27,0.04 0.51,0.16 0.78,0.19 0.28,0.04 0.55,-0.04 0.7,-0.3 0.17,-0.3 0.05,-0.68 -0.24,-0.85 -0.34,-0.19 -0.7,-0.3 -1.09,-0.27 -0.28,0.02 -0.52,0.19 -0.59,0.47 -0.08,0.3 0.12,0.7 0.45,0.75z"/>
  <path class="fil0" d="M42.45 87.94c0.5,0.38 0.99,0.51 1.6,0.58 0.61,0.06 0.85,-0.94 0.29,-1.17 -0.44,-0.18 -0.87,-0.32 -1.32,-0.43 -0.56,-0.14 -1.08,0.65 -0.57,1.03z"/>
  <path class="fil0" d="M41.01 84.08c0.56,0.31 1.19,-0.35 0.85,-0.9 -0.25,-0.42 -0.71,-0.65 -1.17,-0.75 -0.67,-0.14 -1.08,0.8 -0.45,1.13 0.27,0.15 0.5,0.36 0.77,0.51z"/>
  <path class="fil0" d="M43.8 81.75l-0.52 0.01c-0.61,0.12 -0.55,1.08 0.03,1.2l0.52 -0.01c0.61,-0.13 0.55,-1.07 -0.03,-1.19z"/>
  <path class="fil0" d="M36.68 83.28l0.05 0.22c0.17,0.61 1.05,0.56 1.21,-0.03 0.1,-0.36 0.05,-0.76 -0.26,-1.01 -0.58,-0.45 -1.35,0.14 -1,0.81l-0.01 0.01z"/>
  <path class="fil0" d="M50.48 80.22l-0.02 -0 -0.02 -0.01 0.03 0.01zm-0.37 -0.07l0.35 0.07 0 0 -0 0 0.02 0c0.59,0.2 1.14,-0.34 0.83,-0.94l-0.11 -0.16 -0.06 -0.1 -0.16 -0.21c-0.26,-0.21 -0.54,-0.43 -0.9,-0.39 -0.62,0.07 -0.95,0.65 -0.66,1.22 0.13,0.25 0.42,0.43 0.69,0.49z"/>
  <path class="fil0" d="M53.29 81.12c0.92,0 0.88,-1.43 -0.03,-1.43 -0.92,0 -0.89,1.43 0.03,1.43z"/>
  <path class="fil0" d="M57.76 102.61c-0.33,-0.17 -0.7,-0.21 -0.99,-0.17 -0.27,0.04 -0.51,0.18 -0.58,0.47 -0.07,0.3 0.12,0.7 0.45,0.74 0.23,0.03 0.45,0.07 0.68,0.1 0.28,0.03 0.54,-0.04 0.69,-0.3 0.16,-0.29 0.06,-0.69 -0.24,-0.84z"/>
  <path class="fil0" d="M59.33 103.04l0.38 0.07c0.34,-0.04 0.63,-0.28 0.62,-0.65 -0.01,-0.38 -0.3,-0.58 -0.65,-0.62l-0.28 0.04c-0.64,0.13 -0.63,0.95 -0.07,1.15z"/>
  <path class="fil0" d="M78.1 57.89l0.33 -0.29 0.15 -0.2 0.01 -0.01c0.89,0.53 1.72,1.18 2.47,1.94 0.58,0.59 1.4,-0.31 0.87,-0.91 -2.76,-3.14 -6.75,-4.55 -10.85,-3.76 -0.69,0.13 -0.5,1.32 0.19,1.22l-0.08 0.12c-0.34,0.65 0.48,1.21 1,0.74 0.3,-0.28 0.54,-0.64 0.85,-0.9l0.05 -0.06 0.48 0.02c-0.36,0.57 0.4,1.22 0.95,0.73l0.53 -0.53c0.23,0.05 0.45,0.1 0.68,0.16l-0.18 0.17c-0.51,0.47 0.07,1.24 0.67,1.08 0.42,-0.1 0.75,-0.39 0.97,-0.75l0.26 0.12 -0.21 0.28c-0.34,0.5 0.38,1.19 0.86,0.82z"/>
  <path class="fil0" d="M94.64 48.12c-0.23,0.38 -0.31,0.86 -0.41,1.28 -0.07,0.29 -0.13,0.53 -0.19,0.76 -0.31,0.17 -0.6,0.36 -0.89,0.55l-0.08 -0.34c-0.15,-0.63 -1.1,-0.57 -1.24,0.03 -0.1,0.45 -0.22,0.96 -0.09,1.41 -1.12,1.02 -2.02,2.2 -2.52,3.48 -0.28,0.72 0.63,1.27 1.07,0.59 0.65,-1.02 1.45,-1.94 2.35,-2.73 0.57,0.42 1.34,0.65 1.97,0.57 0.67,-0.08 0.89,-1.12 0.14,-1.26 -0.3,-0.05 -0.55,-0.18 -0.8,-0.33l0.38 -0.25 0.11 0.06c0.73,0.26 1.4,0.55 2.08,0.91 0.68,0.37 1.19,-0.49 0.75,-1.02 -0.34,-0.4 -0.78,-0.66 -1.27,-0.83l0.43 -0.17 0.2 0.15c0.68,0.31 1.14,0.92 1.7,1.39 0.56,0.47 1.36,-0.15 0.99,-0.81 -0.25,-0.45 -0.6,-0.93 -1.03,-1.27 0.36,-0.07 0.72,-0.12 1.08,-0.15 0.17,0.31 0.34,0.62 0.52,0.92 0.38,0.62 1.29,0.16 1.13,-0.51l-0.15 -0.45c0.23,0.01 0.45,0.02 0.68,0.05 0.82,0.1 1.15,-1.03 0.32,-1.28 -0.4,-0.12 -0.81,-0.2 -1.22,-0.25l0.09 -0.27c0.13,-0.54 -0.48,-1.02 -0.97,-0.71 -0.37,0.24 -0.68,0.51 -0.74,0.91l-0 0.01c-0.34,0.02 -0.68,0.06 -1.01,0.12l-0.05 -0.54c-0.04,-0.22 -0.26,-0.39 -0.47,-0.44 -0.31,-0.08 -0.56,0.08 -0.73,0.32 -0.23,0.33 -0.39,0.69 -0.42,1.07l-0.36 0.13c-0.02,-0.31 -0.05,-0.59 -0.09,-0.83 -0.09,-0.64 -0.89,-0.92 -1.26,-0.31z"/>
  <path class="fil0" d="M49.63 43.65c-1.61,2.94 -5.03,4.57 -8.3,4.16 -2.5,-0.32 -4.45,-1.89 -5.77,-3.91 3.45,2.61 8.73,2.85 11.5,-1.16 1.81,-2.61 1.92,-5.94 0.52,-8.43 2.83,2.12 4.23,5.35 2.05,9.34zm-6.46 -12.62l-0.02 -0.01 -0.04 -0 -0.11 -0.01c-0.32,-0.04 -0.5,0.2 -0.52,0.46 -0.05,0.22 0.01,0.45 0.26,0.57 3.82,1.82 5.48,5.37 3.26,9.24 -0.96,1.68 -3.02,2.54 -4.86,2.82 -2.98,0.45 -5.38,-1.13 -7.1,-3.44l-0.02 -0.02 -0.5 -0.2 -0.01 0 -0.06 0.03c-0.22,0.08 -0.38,0.29 -0.32,0.56l0 0.04c1.64,8.17 12.24,11.86 17.36,4.31 4.39,-6.46 -0.15,-13.47 -7.32,-14.35z"/>
  <path class="fil0" d="M44.89 61.91c-0.02,-0.64 -0.55,-1.12 -1.17,-1.12 -0.62,0 -1.13,0.56 -1.12,1.17 0.01,0.64 0.55,1.12 1.17,1.12 0.62,0 1.13,-0.56 1.12,-1.17z"/>
  <path class="fil0" d="M57.28 55.79c-0.05,-0.31 -0.2,-0.57 -0.53,-0.65 -0.26,-0.06 -0.57,0.04 -0.73,0.26 -0.26,0.14 -0.44,0.45 -0.43,0.72 0.01,0.38 0.38,0.82 0.79,0.76 0.26,-0.04 0.54,-0.08 0.72,-0.31l0.21 -0.56 -0.04 -0.22z"/>
  <path class="fil0" d="M63.33 41.47c0.42,-0.26 0.37,-0.85 -0.03,-1.1l-0.62 -0.12c-0.87,-0.03 -0.84,1.38 0.03,1.35l0.61 -0.14z"/>
  <path class="fil0" d="M70.74 36.83c-0.37,-0.09 -0.83,0.21 -0.78,0.63l0.02 0.19 0 0.09c0.02,0.79 1.2,0.75 1.22,-0.03l0 -0.09 0 -0.01 0 -0.01c0.04,-0.34 -0.09,-0.68 -0.46,-0.77z"/>
  <path class="fil0" d="M57.5 28.78c-0.63,0.67 -0.18,1.94 0.86,1.92 1.01,-0.03 1.37,-1.18 0.84,-1.86 -0.3,-0.7 -1.34,-0.68 -1.71,-0.06z"/>
  <path class="fil0" d="M82.27 34.68c0.96,0 0.92,-1.49 -0.04,-1.49 -0.96,0 -0.92,1.49 0.04,1.49z"/>
  <path class="fil0" d="M89.23 35.92l-0.29 0.03c-0.27,0.05 -0.51,0.17 -0.58,0.47 -0.08,0.3 0.12,0.69 0.45,0.74l0.46 0.05c0.82,0.07 0.81,-1.36 -0.03,-1.28z"/>
  <polygon class="fil0" points="90.11,30.31 90.13,30.35 "/>
  <path class="fil0" d="M88.93 30.12l0.03 -0.04 0.02 -0.01 -0.04 0.05zm0.18 -0.17l-0.18 0.16 -0.12 0.17 -0.01 0.01 -0.16 0.53 -0.01 0.04c-0.14,0.59 0.66,1.11 1.08,0.6l0.37 -0.5 0.06 -0.56 -0.04 -0.09 -0.06 -0.13c-0.21,-0.31 -0.62,-0.42 -0.94,-0.22z"/>
  <path class="fil0" d="M97.74 42.08c0.62,0 1.13,-0.56 1.12,-1.17 -0.01,-0.64 -0.55,-1.12 -1.17,-1.12 -0.62,0 -1.13,0.56 -1.12,1.17 0.02,0.64 0.55,1.12 1.17,1.12z"/>
  <path class="fil0" d="M111.11 52.11c-1.01,0 -0.97,1.56 0.04,1.56 1.01,0 0.97,-1.56 -0.04,-1.56z"/>
  <path class="fil0" d="M116.69 46.72c1.07,0 1.03,-1.65 -0.04,-1.65 -1.07,0 -1.02,1.65 0.04,1.65z"/>
  <path class="fil0" d="M122.4 55l0.03 -0.08c0.14,-0.33 0.22,-0.75 -0.03,-1.07l-0.17 -0.21c-0.32,-0.38 -0.82,-0.4 -1.26,-0.16l-0.22 0.23 -0.22 0.27c-0.34,0.47 -0.04,1.19 0.42,1.45 0.47,0.26 1.22,0.11 1.45,-0.42z"/>
  <path class="fil0" d="M122.13 66.92l0.01 0.2 0 0.08c0.02,0.84 1.28,0.8 1.3,-0.03l0 -0.09 -0.01 0.02 0.02 -0.21c-0.07,-0.86 -1.25,-0.81 -1.32,0.03z"/>
  <path class="fil0" d="M54.98 68.32c-0.62,0.14 -0.62,1.01 -0.05,1.21 0.47,0.37 1.28,0.09 1.27,-0.61 -0.02,-0.69 -0.75,-0.91 -1.22,-0.59z"/>
  <path class="fil0" d="M52.65 62.46l-0.46 0c-0.35,0.04 -0.63,0.28 -0.62,0.65 0.01,0.39 0.31,0.59 0.66,0.63l0.09 0.01 -0.02 0 0.03 0 0.19 0.01c0.29,-0.04 0.55,-0.19 0.63,-0.5 0.08,-0.33 -0.12,-0.75 -0.48,-0.81z"/>
  <path class="fil0" d="M33.31 64.65l-0.01 0.01c-0.21,-0.65 -1.1,-0.59 -1.29,0.03l-0.06 0.06c-0.32,0.53 0.13,1.21 0.73,1.2 0.62,-0.01 0.98,-0.71 0.67,-1.24l-0.04 -0.07z"/>
  <path class="fil0" d="M35.86 52.46l-0.25 0.01c-0.34,0.04 -0.57,0.22 -0.68,0.54l0.01 0.38c0.11,0.33 0.38,0.47 0.7,0.51l0.25 0.01c0.93,0.02 0.9,-1.47 -0.04,-1.45z"/>
  <path class="fil0" d="M9.11 60.22c-0.36,-0.15 -0.77,-0.07 -1.09,0.23l-0.25 0.31c-0.54,0.87 0.41,1.91 1.33,1.64 0.48,-0.15 0.82,-0.61 0.81,-1.12 -0.01,-0.44 -0.34,-0.96 -0.8,-1.06z"/>
  <path class="fil0" d="M15.73 55.46c-0.83,0 -0.8,1.29 0.03,1.29 0.83,0 0.8,-1.29 -0.03,-1.29z"/>
  <path class="fil0" d="M20.4 49.62l-0.46 0.05c-0.61,0.13 -0.55,1.07 0.03,1.19l0.46 0.04c0.83,0.04 0.8,-1.33 -0.03,-1.29z"/>
  <path class="fil0" d="M19.45 63.92l-0.22 0.01c-0.81,0.05 -0.76,1.2 0.03,1.25l0.22 0.01c0.36,0.04 0.56,-0.22 0.59,-0.52l0 -0.06 0 -0.06c-0,-0.34 -0.21,-0.68 -0.63,-0.64z"/>
  <path class="fil0" d="M10.66 45.86l0 -0.02 0 0.04 -0 -0.03zm0.98 -1.32c-0.73,0.02 -1.11,0.69 -0.99,1.34l-0 0.03 0 -0.02 0 0.01 0.02 0.09 0.29 0.55c0.45,0.5 1.26,0.27 1.57,-0.24l0.16 -0.45c0.14,-0.67 -0.34,-1.34 -1.06,-1.32z"/>
  <path class="fil0" d="M35.52 34.24l0.01 0.22c-0.04,0.42 0.29,0.61 0.62,0.59 0.34,0.02 0.69,-0.18 0.65,-0.62l0.01 -0.22c0.06,-0.83 -1.35,-0.81 -1.3,0.03z"/>
  <path class="fil0" d="M28.3 45.91c0.77,0 0.74,-1.2 -0.03,-1.2 -0.77,0 -0.74,1.2 0.03,1.2z"/>
  <path class="fil0" d="M50.5 24.88l-0.01 -0.29c-0.04,-0.27 -0.17,-0.51 -0.46,-0.58 -0.3,-0.07 -0.69,0.12 -0.74,0.44l-0.03 0.46c-0.04,0.8 1.28,0.78 1.25,-0.03z"/>
  <path class="fil0" d="M54.81 45.99c-1,0 -0.97,1.56 0.04,1.56 1,0 0.97,-1.56 -0.04,-1.56z"/>
  <path class="fil0" d="M65.03 47.34l0.61 0.1c0.87,-0.05 0.82,-1.3 -0.03,-1.34 -0.22,-0.01 -0.42,-0 -0.61,0.11 -0.44,0.26 -0.39,0.89 0.03,1.13z"/>
  <path class="fil0" d="M51.34 7.49l0.12 -0.05 -0.14 0.06 0.02 -0.02zm-0.03 1.55c0.61,0.46 1.61,0.08 1.59,-0.8 -0.01,-0.44 -0.32,-0.83 -0.75,-0.93 -0.34,-0.09 -0.65,0.02 -0.88,0.22l-0.18 0.14c-0.16,0.16 -0.25,0.39 -0.24,0.61 0.01,0.22 0.11,0.45 0.27,0.6l0.19 0.15z"/>
  <path class="fil0" d="M51.06 15.62c0.83,0 0.8,-1.29 -0.03,-1.29 -0.83,0 -0.8,1.29 0.03,1.29z"/>
  <path class="fil0" d="M57.35 21.84c0.21,-0.2 0.22,-0.48 0.21,-0.75 -0.02,-0.37 -0.32,-0.68 -0.7,-0.67 -0.4,0.01 -0.65,0.33 -0.67,0.7 -0.02,0.28 0.02,0.54 0.23,0.74 0.26,0.26 0.68,0.23 0.94,-0.02z"/>
  <path class="fil0" d="M100.06 18.02c0.91,0 0.87,-1.41 -0.03,-1.41 -0.91,0 -0.88,1.41 0.03,1.41z"/>
  <path class="fil0" d="M84.89 8.58c0.78,0 0.75,-1.21 -0.03,-1.21 -0.79,0 -0.75,1.21 0.03,1.21z"/>
  <path class="fil0" d="M22.89 24.64c0.58,0.11 1.05,-0.13 1.14,-0.75 0.06,-0.38 -0.12,-0.76 -0.52,-0.86 -0.33,-0.08 -0.74,0.12 -0.86,0.45 -0.4,0.28 -0.29,1.06 0.24,1.16z"/>
  <path class="fil0" d="M13.88 32.67c-0.33,-0.08 -0.76,0.14 -0.86,0.48l-0.22 0.34c-0.08,0.3 0.12,0.73 0.46,0.77 0.23,0.03 0.54,0.08 0.75,-0.08 0.23,-0.18 0.33,-0.38 0.38,-0.66 0.06,-0.37 -0.12,-0.75 -0.51,-0.85z"/>
  <polygon class="fil0" points="8.12,49.99 8.13,49.96 "/>
  <path class="fil0" d="M8.41 50.01l-0 -0 -0 -0.01 0 0.02zm-0.29 0.27c0.04,0.28 0.18,0.53 0.48,0.6 0.29,0.07 0.59,-0.09 0.72,-0.35 0.2,-0.09 0.36,-0.27 0.37,-0.57l0 -0.05 -0.09 -0.55c-0.1,-0.21 -0.4,-0.36 -0.62,-0.34 -0.33,0.03 -0.59,0.2 -0.73,0.5l-0.11 0.44 -0.01 0.32z"/>
  <path class="fil0" d="M6.59 64.17c-0.58,-0.15 -1.1,0.57 -0.77,1.04 0.08,0.73 1.2,0.68 1.22,-0.09l0 -0.01c0.16,-0.37 0.03,-0.82 -0.45,-0.94z"/>
  <path class="fil0" d="M44.1 67.89l-0.26 0.1c-0.67,0.21 -0.6,1.12 0.03,1.32l0.06 0.02 0.02 0.01c0.46,0.2 1.01,0.03 1.15,-0.5 0.13,-0.53 -0.42,-1.19 -0.99,-0.95z"/>
  <path class="fil0" d="M17.36 74.89c-1.37,-0.18 -2.73,-0.21 -4.1,-0.3 -0.69,-0.04 -0.81,1.09 -0.13,1.21 1.36,0.25 2.72,0.48 4.1,0.33 0.65,-0.08 0.89,-1.14 0.14,-1.24z"/>
  <path class="fil0" d="M22.91 77.27c0.36,0.03 0.68,0.21 1,0.37 0.6,0.29 1.27,-0.52 0.72,-0.98 -0.5,-0.41 -1.1,-0.63 -1.75,-0.6 -0.33,0.01 -0.6,0.28 -0.59,0.62 0.01,0.36 0.29,0.56 0.62,0.59z"/>
 </g>
</svg>
