
<svg xmlns="http://www.w3.org/2000/svg" xml:space="preserve" width="0.747346in" height="0.747319in" version="1.1" style="shape-rendering:geometricPrecision; text-rendering:geometricPrecision; image-rendering:optimizeQuality; fill-rule:evenodd; clip-rule:evenodd"
viewBox="0 0 234.79 234.78"
 xmlns:xlink="http://www.w3.org/1999/xlink"
 xmlns:xodm="http://www.corel.com/coreldraw/odm/2003">
 <defs>
  <style type="text/css">
   <![CDATA[
    .fil0 {fill:black;fill-rule:nonzero}
   ]]>
  </style>
 </defs>
 <g id="Layer_x0020_1">
  <metadata id="CorelCorpID_0Corel-Layer"/>
  <path class="fil0" d="M227.82 123.3c-0.45,1.46 -1.59,4.95 -0.38,6.27 1.42,1.55 1.95,3.63 2.77,5.54 -0.46,2.99 -1.05,5.95 -1.75,8.86 -2.44,-7.68 -8.07,-14.32 -8.56,-22.72 -0.08,-1.4 -2.14,-1.34 -2.16,0.05 -0.21,10.26 8.27,17.79 9.4,27.69 -13.74,47.64 -57.74,82.6 -109.74,82.6 -50.74,0 -93.85,-33.27 -108.67,-79.12 2.99,-3.86 7.48,-7.1 6.39,-12.51 -0.25,-1.23 -2.26,-0.89 -2.15,0.35 0.34,4.09 -2.91,6.28 -5.18,9.1 -2.98,-10.16 -4.58,-20.9 -4.58,-32 0,-11.8 1.8,-23.19 5.14,-33.91 1.49,0.82 3.1,1.33 4.24,2.75 1.16,1.44 2.02,2.97 3.45,4.16 1.65,1.38 2.99,2.47 4.35,4.11l0.37 0.41c-1.95,0.53 -4.26,0.56 -6.07,1.29 -2.47,1 -4.49,2.69 -6.4,4.5 -0.9,0.86 0.39,2.5 1.39,1.71 2.3,-1.77 4.69,-3.29 7.46,-4.2 2.77,-0.91 4.87,-0.39 7.04,-2.41l0.12 -0.11 0.01 -0.01 0.27 -0.93c-0.02,-0.39 -0.23,-0.74 -0.63,-0.89l-0.34 -0.13c-1.51,-0.35 -2.35,-2.47 -3.28,-3.56 -1.3,-1.53 -3.12,-2.32 -4.32,-4.06 -0.9,-1.29 -1.74,-2.47 -3,-3.43 -1.1,-0.85 -2.56,-1.13 -3.86,-1.62 15.21,-45.22 57.99,-77.87 108.27,-77.87 57.65,0 105.45,42.94 113.11,98.52 -3.25,-0.63 -5.93,1.62 -9.26,1.13 -3.98,-0.59 -6.24,-1.81 -10.01,0.11 -4.08,2.09 -8.37,0.51 -12.62,1.61 -2.99,0.77 -4.96,3.67 -6.59,6.05 -0.8,1.18 1.1,2.17 1.91,1.06 2.73,-3.76 4.83,-5.03 9,-5.17 -1.3,1.53 -2.4,3.27 -3.95,4.56 -1.01,0.85 0.37,2.48 1.44,1.77 2.38,-1.57 4.26,-4.01 5.93,-6.31 1.38,0 2.69,-0.05 4.03,-0.31 0.46,2.12 2,3.91 3.52,5.65 -1.57,-0.15 -3.2,0.19 -4.77,0.93 -1.23,0.57 -0.28,2.65 0.98,2.16 2.49,-0.97 4.49,-0.45 6.82,0.66l0.02 0c0.71,0.36 1.71,-0.17 1.69,-1l-0.14 -0.55c-0.62,-1.6 -1.58,-2.9 -2.73,-4.18 -1.27,-1.43 -2.16,-2.72 -2.88,-4.34 3.39,-0.98 5.64,0.97 8.9,0.71 3.1,-0.26 5.91,-1.58 9.06,-1.81 0.14,1.28 0.27,2.56 0.37,3.85 -0.95,0.26 -1.76,0.69 -2.81,0.65 -1.1,-0.03 -2.14,-0.49 -3.24,-0.56 -1.04,-0.06 -1.51,1.39 -0.79,2.04 1.77,1.6 4.9,2.28 7.04,1.12 0.11,1.95 0.15,3.9 0.15,5.87 0,4.17 -0.23,8.28 -0.67,12.33 -0.39,-0.65 -1.1,-1.37 -1.07,-2.02 0.07,-1.39 0.32,-2.75 0.24,-4.16 -0.07,-1.32 -1.88,-1.47 -2.26,-0.25zm-110.43 -123.3c-64.73,0 -117.39,52.67 -117.39,117.4 0,64.73 52.66,117.38 117.39,117.38 64.73,0 117.39,-52.66 117.39,-117.38 0,-64.73 -52.66,-117.4 -117.39,-117.4z"/>
  <path class="fil0" d="M30.26 162.26l0.44 -0.48 -0.03 -0.65 -0.08 -0.17c-0.21,-0.42 -0.71,-0.6 -1.13,-0.41l-5.64 2.68c-0.37,0.18 -0.72,0.2 -1.12,0.06l-0.82 -0.75 -0.05 -1.12 0.75 -0.82 5.65 -2.67c0.43,-0.2 0.61,-0.71 0.41,-1.13l-0.08 -0.17 -0.48 -0.44 -0.65 0.03 -5.65 2.68c-0.83,0.39 -1.41,1.03 -1.73,1.89 -0.31,0.86 -0.26,1.73 0.13,2.57 0.4,0.84 1.04,1.41 1.9,1.73l1.14 0.2c0.48,0 0.96,-0.11 1.42,-0.33l5.65 -2.67z"/>
  <path class="fil0" d="M34.91 168.66l-0.1 -0.17 -0.52 -0.4 -0.64 0.09 -4.3 2.53 3.14 -5.32 0 -0.86 -0.1 -0.18 -0.52 -0.39 -0.65 0.08 -7.46 4.39c-0.41,0.24 -0.54,0.75 -0.3,1.16l0.09 0.17 0.52 0.4 0.65 -0.1 4.3 -2.53 -3.14 5.33 0 0.86 0.11 0.18 0.74 0.42 0.42 -0.13 7.46 -4.38c0.41,-0.24 0.55,-0.76 0.31,-1.17z"/>
  <path class="fil0" d="M32.26 179.16c-0.46,-0.12 -0.79,-0.33 -1,-0.62l-0.72 -0.99 5.5 -3.93 0.71 0.99c0.21,0.3 0.3,0.68 0.27,1.15 -0.04,0.54 -0.25,0.92 -0.66,1.21l-2.74 1.95c-0.41,0.3 -0.85,0.37 -1.36,0.23zm5.19 -0.64c0.88,-0.62 1.38,-1.53 1.45,-2.62 0.07,-0.92 -0.14,-1.73 -0.61,-2.39l-1.32 -1.84 -0.55 -0.35 -0.63 0.15 -7.19 5.14 -0.2 1.2 1.32 1.84c0.47,0.66 1.16,1.12 2.05,1.36l0.96 0.13c0.71,0 1.38,-0.22 1.99,-0.65l2.73 -1.96z"/>
  <polygon class="fil0" points="41.26,185.08 41.4,184.96 41.49,183.76 40.23,182.29 41.7,181.03 43.59,183.22 44.79,183.32 44.93,183.19 45.23,182.61 45.03,181.98 42.47,179 41.88,178.7 41.26,178.9 34.56,184.66 34.47,185.86 37.03,188.84 37.68,189.15 38.23,188.94 38.37,188.82 38.67,188.24 38.47,187.62 36.58,185.42 38.79,183.53 40.05,185 40.64,185.29 "/>
  <path class="fil0" d="M48.4 190.25c-0.41,0.43 -0.81,0.58 -1.17,0.51l-0.97 -0.56 -0.96 -0.94 2.02 -2.07 0.96 0.93 0.58 0.96c0.05,0.25 0.06,0.65 -0.47,1.18zm1.22 -3.49l-1.71 -1.66 -1.2 0.02 -6.11 6.26 0.01 1.2 0.13 0.13 0.61 0.24 0.6 -0.25 2.02 -2.08 0.95 0.93 0.03 0.03 -1.14 3.51c-0.14,0.44 0.09,0.9 0.52,1.06l0.17 0.06 0.29 0.06 0.37 -0.09 0.44 -0.51 1.01 -3.1c1.1,0.31 2.18,-0.03 3.13,-1 1.06,-1.09 1.11,-2.16 0.96,-2.88 -0.13,-0.7 -0.51,-1.36 -1.11,-1.95z"/>
  <path class="fil0" d="M61.77 201.49l-0.64 -0.13 -0.55 0.36 -0.1 0.17 0.23 1.18 0.4 0.27 -1.63 2.41 -1.2 -0.82 -0.64 -0.92 0.26 -1.1 2.15 -3.18c0.25,-0.37 0.56,-0.57 0.98,-0.62l1.04 0.24 1.99 1.35 0.64 0.13 0.55 -0.36 0.11 -0.16 -0.23 -1.19 -1.99 -1.34c-0.69,-0.47 -1.5,-0.66 -2.34,-0.55 -0.95,0.11 -1.75,0.61 -2.31,1.45l-2.15 3.17c-0.52,0.79 -0.71,1.64 -0.53,2.52 0.17,0.89 0.65,1.61 1.44,2.14l2.06 1.4 0.48 0.15 0.71 -0.38 2.79 -4.13 0.13 -0.64 -0.36 -0.55 -1.27 -0.86z"/>
  <path class="fil0" d="M70.12 205.92l-1.86 3.36c-0.21,0.36 -0.48,0.59 -0.88,0.7l-1.1 -0.12c-0.37,-0.21 -0.59,-0.48 -0.7,-0.88l0.13 -1.11 1.86 -3.36c0.2,-0.36 0.47,-0.58 0.87,-0.69l0.41 -0.05 0.69 0.18c0.36,0.21 0.59,0.47 0.69,0.88l-0.13 1.09zm1.95 -1.63c-0.25,-0.89 -0.79,-1.56 -1.59,-2 -0.8,-0.45 -1.67,-0.54 -2.55,-0.3 -0.88,0.25 -1.56,0.79 -2,1.6l-1.86 3.36c-0.44,0.81 -0.54,1.67 -0.29,2.55 0.25,0.88 0.79,1.56 1.6,2 0.51,0.29 1.06,0.43 1.61,0.43l0.93 -0.14c0.89,-0.25 1.56,-0.79 2.01,-1.59l1.86 -3.36c0.45,-0.81 0.54,-1.66 0.28,-2.55z"/>
  <path class="fil0" d="M78.11 210.02l-1.36 3.07c-0.2,0.47 -0.53,0.75 -1.05,0.89l-0.61 0.1 -0.58 -0.12 -1.11 -0.5 2.73 -6.17 1.11 0.5c0.34,0.15 0.6,0.43 0.82,0.85 0.24,0.48 0.25,0.92 0.04,1.39zm-0.1 -3.98l-2.06 -0.91 -0.66 -0.01 -0.47 0.45 -3.57 8.08c-0.19,0.43 0.01,0.93 0.43,1.12l2.07 0.92c0.42,0.18 0.88,0.27 1.36,0.27l1.11 -0.16c1.05,-0.29 1.84,-0.96 2.27,-1.95l1.36 -3.07c0.44,-0.99 0.41,-2.02 -0.08,-2.98 -0.41,-0.83 -1,-1.42 -1.75,-1.75z"/>
  <path class="fil0" d="M96.92 212.25l-4.67 -1.13 -0.64 0.1 -0.38 0.54 -0.05 0.18c-0.1,0.46 0.18,0.92 0.63,1.03l1.41 0.34 -1.81 7.48c-0.11,0.46 0.17,0.91 0.63,1.02l0.19 0.05 0.2 0.02 0.45 -0.13 0.37 -0.52 1.81 -7.49 1.41 0.35c0.46,0.11 0.92,-0.17 1.03,-0.63l0.04 -0.19 -0.11 -0.65 -0.53 -0.38z"/>
  <path class="fil0" d="M105.54 213.79l-0.19 -0.03 -0.63 0.16 -0.34 0.56 -0.42 2.87 -2.88 -0.43 0.42 -2.87 -0.16 -0.63 -0.56 -0.34 -0.18 -0.03c-0.47,-0.06 -0.9,0.25 -0.96,0.72l-1.27 8.56c-0.07,0.46 0.25,0.89 0.72,0.96l0.18 0.03 0.63 -0.15 0.34 -0.56 0.57 -3.82 2.88 0.43 -0.56 3.82c-0.07,0.46 0.25,0.9 0.72,0.96l0.19 0.04 0.14 0.01 0.51 -0.17 0.33 -0.56 1.27 -8.56c0.07,-0.46 -0.26,-0.9 -0.72,-0.96z"/>
  <path class="fil0" d="M113.62 214.32l-3.93 -0.22c-0.47,-0.03 -0.87,0.33 -0.9,0.8l-0.51 8.81c-0.03,0.47 0.33,0.88 0.8,0.9l3.93 0.23 0.05 0 0.57 -0.22 0.28 -0.59 0.01 -0.19c0.02,-0.46 -0.33,-0.87 -0.81,-0.9l-2.89 -0.17 0.17 -2.91 1.94 0.11c0.48,0.03 0.87,-0.33 0.9,-0.8l0.01 -0.19 -0.21 -0.62 -0.59 -0.29 -1.93 -0.11 0.11 -1.93 2.89 0.17c0.47,0.02 0.87,-0.33 0.9,-0.8l0.01 -0.2 -0.21 -0.62 -0.59 -0.29z"/>
  <path class="fil0" d="M130.51 218.07c-0.25,0.21 -0.6,0.35 -1.06,0.4l-1.32 0.16 -0.35 -2.87 1.32 -0.17c0.44,-0.05 0.82,-0 1.11,0.15 0.23,0.12 0.54,0.37 0.63,1.11 0.08,0.76 -0.15,1.06 -0.34,1.23zm0.59 -4.02c-0.63,-0.33 -1.37,-0.45 -2.21,-0.35l-2.36 0.28 -0.57 0.32 -0.17 0.63 1.03 8.69c0.05,0.42 0.42,0.74 0.84,0.74l0.1 -0 0.19 -0.01 0.57 -0.32 0.17 -0.63 -0.34 -2.87 1.33 -0.17c0.82,-0.09 1.52,-0.37 2.06,-0.84 0.55,-0.47 1.17,-1.35 0.98,-2.88 -0.18,-1.52 -0.98,-2.23 -1.62,-2.57z"/>
  <path class="fil0" d="M142.2 221.01c-0.1,-0.46 -0.55,-0.76 -1,-0.66l-2.84 0.6 -0.59 -2.85 1.89 -0.39c0.46,-0.1 0.75,-0.55 0.66,-1.01l-0.04 -0.19 -0.37 -0.54 -0.64 -0.12 -1.9 0.4 -0.4 -1.9 2.84 -0.6c0.45,-0.1 0.75,-0.55 0.65,-1.01l-0.04 -0.19 -0.37 -0.54 -0.64 -0.12 -3.85 0.82c-0.46,0.1 -0.76,0.55 -0.66,1.01l1.82 8.64 0.37 0.54 0.47 0.14 0.17 -0.03 3.85 -0.81 0.54 -0.37 0.11 -0.64 -0.04 -0.17z"/>
  <path class="fil0" d="M149.27 217.69c-0.18,0.36 -0.45,0.59 -0.85,0.7 -0.4,0.12 -0.75,0.09 -1.11,-0.1l-0.71 -0.86 -1.13 -3.68 0.11 -1.11c0.19,-0.36 0.46,-0.59 0.86,-0.71l0.45 -0.07 0.66 0.17 0.71 0.85 1.13 3.67c0.12,0.4 0.09,0.75 -0.11,1.12zm0.8 -5.35c-0.27,-0.88 -0.82,-1.54 -1.64,-1.97 -0.8,-0.43 -1.68,-0.51 -2.55,-0.24 -0.88,0.26 -1.54,0.82 -1.98,1.64 -0.43,0.81 -0.51,1.66 -0.24,2.55l1.13 3.67c0.27,0.88 0.82,1.54 1.63,1.98 0.49,0.26 1.01,0.38 1.54,0.38l1.01 -0.15c0.88,-0.27 1.55,-0.81 1.98,-1.63 0.44,-0.81 0.52,-1.68 0.25,-2.56l-1.13 -3.67z"/>
  <path class="fil0" d="M156.65 211.04c-0.18,0.27 -0.48,0.5 -0.9,0.67l-1.24 0.5 -1.09 -2.68 1.23 -0.5c0.42,-0.17 0.78,-0.23 1.11,-0.15 0.24,0.05 0.61,0.2 0.9,0.9 0.28,0.71 0.13,1.07 -0,1.27zm-0.49 -4.03c-0.7,-0.16 -1.45,-0.07 -2.23,0.24l-2.2 0.9 -0.47 0.47 0 0.65 3.3 8.09 0.79 0.54 0.32 -0.07 0.17 -0.07 0.47 -0.46 0 -0.65 -1.09 -2.68 1.24 -0.51c0.77,-0.31 1.36,-0.76 1.76,-1.37 0.41,-0.6 0.77,-1.61 0.18,-3.04 -0.58,-1.41 -1.54,-1.89 -2.25,-2.04z"/>
  <path class="fil0" d="M168.71 210.76c-0.22,-0.42 -0.73,-0.59 -1.15,-0.37l-2.57 1.33 -3.55 -6.84 -0.49 -0.42 -0.65 0.06 -0.17 0.09c-0.41,0.22 -0.58,0.73 -0.36,1.14l4.01 7.76 0.75 0.46 0.39 -0.09 3.5 -1.81 0.42 -0.5 -0.06 -0.65 -0.08 -0.16z"/>
  <path class="fil0" d="M176.82 205.8l-0.54 -0.37 -0.64 0.11 -2.44 1.55 -1.57 -2.45 1.64 -1.03c0.4,-0.26 0.51,-0.78 0.27,-1.18l-0.11 -0.16 -0.54 -0.37 -0.65 0.11 -1.63 1.05 -1.04 -1.65 2.44 -1.55 0.37 -0.54 -0.11 -0.64 -0.11 -0.17 -1.17 -0.26 -3.32 2.11c-0.4,0.25 -0.51,0.78 -0.26,1.18l4.74 7.45 0.54 0.38 0.18 0.02 0.45 -0.13 3.32 -2.12c0.4,-0.25 0.51,-0.78 0.26,-1.17l-0.1 -0.16z"/>
  <path class="fil0" d="M186.87 191.41l-0.62 0.94 -0.98 0.9 -1.97 -2.13 0.98 -0.91 0.98 -0.53c0.4,-0.06 0.77,0.11 1.16,0.53 0.51,0.55 0.5,0.96 0.45,1.2zm4.82 1.87l-3.04 -1.18c0.37,-1.08 0.08,-2.18 -0.83,-3.18 -0.82,-0.89 -1.79,-1.27 -2.82,-1.12 -0.71,0.1 -1.38,0.44 -2,1.01l-1.74 1.61 -0.05 1.2 5.92 6.43 0.59 0.27 0.03 0 0.58 -0.22 0.13 -0.13 0.05 -1.21 -1.96 -2.12 0.98 -0.91 0.03 -0.03 3.44 1.33c0.43,0.16 0.91,-0.04 1.09,-0.46l0.07 -0.17 0 -0.66 -0.48 -0.47z"/>
  <path class="fil0" d="M192.14 180.75l-0.61 -0.22 -0.59 0.28 -0.13 0.14 0.06 1.21 4.62 4.2c0.31,0.28 0.47,0.6 0.48,1.01 0.02,0.41 -0.1,0.74 -0.38,1.04 -0.28,0.31 -0.6,0.47 -1.09,0.48l-0.97 -0.38 -4.62 -4.2 -1.2 0.06 -0.13 0.13 -0.22 0.62 0.28 0.59 4.62 4.2c0.64,0.58 1.39,0.87 2.24,0.87l0.17 -0c0.92,-0.04 1.7,-0.41 2.32,-1.1 0.62,-0.68 0.91,-1.49 0.87,-2.41 -0.04,-0.92 -0.41,-1.7 -1.09,-2.32l-4.62 -4.2z"/>
  <polygon class="fil0" points="203.96,179.47 202.76,179.63 201.02,181.94 194.88,177.28 194.25,177.12 193.68,177.44 193.58,177.6 193.74,178.79 200.7,184.06 201.22,184.24 201.33,184.23 201.89,183.91 204.27,180.77 204.44,180.14 204.11,179.57 "/>
  <path class="fil0" d="M209.15 171.51c-0.4,-0.24 -0.93,-0.12 -1.17,0.27l-1.54 2.45 -2.47 -1.54 1.03 -1.64 0.11 -0.64 -0.38 -0.53 -0.16 -0.1c-0.4,-0.25 -0.92,-0.13 -1.17,0.27l-1.03 1.65 -1.65 -1.03 1.54 -2.46 0.11 -0.64 -0.38 -0.52 -0.16 -0.11c-0.4,-0.25 -0.93,-0.13 -1.18,0.27l-2.09 3.33c-0.24,0.39 -0.13,0.92 0.27,1.17l7.49 4.7 0.45 0.13 0.19 -0.02 0.53 -0.37 2.09 -3.34 0.11 -0.64 -0.38 -0.53 -0.15 -0.1z"/>
  <path class="fil0" d="M41.16 57.77c0.95,0.82 2.07,1.14 3.3,0.94l0.13 -0.03 0.89 -0.29 0.8 -0.31 2.17 -0.91 0.96 -0.34 0.59 -0.13 0.13 -0 0.96 0.37c0.29,0.25 0.45,0.57 0.52,1 0.07,0.47 -0.04,0.85 -0.38,1.23 -0.13,0.14 -0.72,0.7 -3.39,1.95 -0.45,0.22 -0.69,0.73 -0.58,1.21l0.06 0.27 0.48 0.67 0.56 0.16 0.24 -0.03c0.81,-0.19 1.62,-0.53 2.43,-1 0.8,-0.48 1.49,-1.04 2.02,-1.65 0.79,-0.92 1.12,-2.02 0.95,-3.18 -0.16,-1 -0.6,-1.83 -1.33,-2.45 -1.19,-1.04 -2.68,-1.26 -4.47,-0.57 -0.77,0.32 -1.45,0.6 -2.02,0.84l-1.43 0.61 -0.98 0.22 -1.03 -0.4c-0.31,-0.27 -0.48,-0.59 -0.55,-0.99 -0.05,-0.3 -0.05,-0.75 0.48,-1.37 0.19,-0.22 0.77,-0.75 2.48,-1.75 0.42,-0.24 0.62,-0.74 0.49,-1.21l-0.07 -0.26 -0.53 -0.66 -0.85 -0.07c-1.23,0.42 -2.36,1.22 -3.35,2.36 -0.86,1 -1.21,2.15 -1.03,3.32 0.15,0.98 0.61,1.8 1.35,2.44z"/>
  <path class="fil0" d="M54.22 42.14c0.44,-0.37 0.9,-0.55 1.43,-0.55l0.25 0.01c0.64,0.05 1.13,0.31 1.56,0.81l3.6 4.3c0.42,0.5 0.59,1.04 0.54,1.69 -0.05,0.63 -0.31,1.13 -0.82,1.56 -0.5,0.41 -1.05,0.58 -1.68,0.53 -0.65,-0.06 -1.14,-0.31 -1.57,-0.82l-3.61 -4.29c-0.42,-0.5 -0.59,-1.03 -0.53,-1.68 0.05,-0.65 0.31,-1.14 0.82,-1.56zm1.48 9.08c0.84,0.99 1.91,1.55 3.2,1.67l0.43 0.01c1.12,0 2.12,-0.37 3,-1.11 1,-0.83 1.56,-1.91 1.67,-3.19 0.11,-1.29 -0.24,-2.45 -1.08,-3.44l-3.61 -4.29c-0.83,-0.99 -1.91,-1.55 -3.2,-1.66 -1.29,-0.12 -2.46,0.26 -3.44,1.09 -0.99,0.83 -1.56,1.91 -1.66,3.2 -0.11,1.29 0.25,2.44 1.09,3.43l3.61 4.3z"/>
  <path class="fil0" d="M67.01 42.24c0.66,1.13 1.64,1.85 2.88,2.16l1.17 0.14c0.83,0 1.65,-0.23 2.4,-0.69 1.11,-0.66 1.84,-1.64 2.15,-2.89 0.32,-1.25 0.14,-2.45 -0.52,-3.56l-4.69 -7.82 -0.66 -0.49 -0.81 0.13 -0.24 0.15c-0.51,0.3 -0.67,0.95 -0.37,1.46l4.69 7.82c0.33,0.56 0.42,1.12 0.26,1.75 -0.16,0.63 -0.49,1.07 -1.05,1.41 -0.56,0.34 -1.13,0.41 -1.75,0.26 -0.63,-0.15 -1.08,-0.49 -1.42,-1.06l-4.69 -7.82 -0.66 -0.48 -0.81 0.12 -0.23 0.14c-0.51,0.3 -0.67,0.96 -0.37,1.46l4.69 7.81z"/>
  <path class="fil0" d="M76.42 26.77l0.57 0.59 0.82 0.01 2.13 -0.85 4.22 10.61c0.17,0.42 0.56,0.67 0.99,0.67l0.39 -0.07 0.27 -0.1 0.58 -0.58 0.01 -0.81 -4.22 -10.61 2.13 -0.85c0.55,-0.22 0.81,-0.83 0.6,-1.38l-0.1 -0.27 -0.57 -0.59 -0.82 -0.01 -6.51 2.59c-0.55,0.22 -0.81,0.84 -0.6,1.38l0.11 0.26z"/>
  <path class="fil0" d="M93.95 33.62c0.11,0.5 0.55,0.83 1.04,0.83l0.23 -0.02 0.27 -0.06 0.67 -0.46 0.14 -0.81 -1.26 -5.67 4.49 -0.99 1.26 5.67 0.47 0.67 0.8 0.14 0.28 -0.06c0.57,-0.13 0.94,-0.7 0.81,-1.27l-2.74 -12.34 -0.46 -0.66 -0.81 -0.14 -0.27 0.06c-0.58,0.13 -0.93,0.7 -0.81,1.27l0.95 4.31 -4.5 0.99 -0.95 -4.31c-0.13,-0.57 -0.69,-0.93 -1.27,-0.81l-0.26 0.06 -0.67 0.47 -0.14 0.8 2.73 12.34z"/>
  <path class="fil0" d="M124.99 19.4l1.95 0.2c0.58,0.06 1.12,0.34 1.63,0.86 0.59,0.6 0.82,1.24 0.75,2.04l-0.49 4.88c-0.08,0.8 -0.44,1.38 -1.13,1.85 -0.62,0.41 -1.2,0.59 -1.77,0.53l-1.95 -0.2 1.01 -10.17zm-2.59 12.41l3.29 0.33 0.46 0.03c0.98,0 1.96,-0.32 2.9,-0.94 1.3,-0.87 2.03,-2.09 2.18,-3.61l0.49 -4.89c0.15,-1.52 -0.33,-2.86 -1.43,-3.97 -0.92,-0.93 -1.96,-1.46 -3.11,-1.57l-3.29 -0.33c-0.58,-0.04 -1.11,0.37 -1.17,0.96l-1.28 12.83c-0.06,0.59 0.37,1.11 0.95,1.17z"/>
  <path class="fil0" d="M142.09 24.95l0.27 4.32 -2.64 -0.7 2.38 -3.61zm-7 8.28l0.24 0.14c0.48,0.29 1.13,0.15 1.44,-0.33l1.55 -2.35 4.19 1.11 0.17 2.81c0.04,0.56 0.5,1 1.06,1l0.03 0 0.28 -0.01 0.76 -0.34 0.28 -0.79 -0.81 -13.23c-0.03,-0.46 -0.35,-0.85 -0.79,-0.96l-0.29 -0.08c-0.44,-0.12 -0.91,0.06 -1.17,0.45l-7.28 11.07 -0.15 0.82 0.48 0.69z"/>
  <path class="fil0" d="M149.1 37.59l0.25 0.11c0.54,0.24 1.17,0 1.41,-0.54l1.82 -4.05 1.72 -0.75 0.57 7.27c0.04,0.55 0.51,0.98 1.06,0.98l0.06 0 0.28 -0.02 0.75 -0.37 0.25 -0.78 -0.63 -8.11 5.07 -2.22c0.54,-0.23 0.79,-0.85 0.55,-1.4l-0.11 -0.26 -0.59 -0.57 -0.82 0.01 -6.7 2.93 1.88 -4.2 0.02 -0.82 -0.56 -0.59 -0.25 -0.1c-0.54,-0.25 -1.17,0 -1.41,0.54l-5.17 11.52 -0.02 0.82 0.56 0.59z"/>
  <path class="fil0" d="M165.03 40.57l3.08 -4.69c0.35,-0.55 0.82,-0.86 1.45,-0.99l0.5 -0.05c0.44,0 0.83,0.13 1.24,0.38 0.55,0.36 0.86,0.82 0.99,1.46 0.13,0.63 0.02,1.17 -0.34,1.72l-3.08 4.7c-0.36,0.55 -0.83,0.86 -1.46,0.99l-0.51 0.06c-0.42,0 -0.82,-0.13 -1.22,-0.39 -0.55,-0.36 -0.87,-0.82 -1,-1.46 -0.13,-0.64 -0.03,-1.19 0.34,-1.74zm-2.69 2.21c0.25,1.26 0.94,2.27 2.03,2.98 0.79,0.52 1.65,0.78 2.55,0.78l0.99 -0.1c1.27,-0.26 2.27,-0.94 2.98,-2.02l3.08 -4.69c0.71,-1.08 0.93,-2.28 0.67,-3.55 -0.27,-1.27 -0.94,-2.27 -2.02,-2.98 -1.08,-0.71 -2.3,-0.94 -3.55,-0.68 -1.26,0.26 -2.26,0.94 -2.97,2.02l-3.08 4.69c-0.72,1.09 -0.95,2.27 -0.68,3.54z"/>
  <path class="fil0" d="M175.37 54.17l0.71 0.28 0.79 -0.35 7.71 -8.42 1.7 1.55c0.43,0.4 1.1,0.37 1.5,-0.07l0.19 -0.21 0.28 -0.77 -0.35 -0.74 -5.18 -4.73 -0.76 -0.27 -0.75 0.34 -0.19 0.21c-0.4,0.43 -0.37,1.11 0.07,1.5l1.7 1.55 -7.71 8.43 -0.27 0.76 0.34 0.74 0.21 0.19z"/>
  <path class="fil0" d="M192.35 57.97l-2.36 3.62 -1.7 -2.15 4.06 -1.48zm-10.54 1.62l-0.01 0.83 0.11 0.26c0.22,0.53 0.81,0.79 1.35,0.6l2.65 -0.96 2.7 3.4 -1.53 2.36c-0.31,0.47 -0.19,1.12 0.27,1.45l0.23 0.15 0.62 0.2 0.2 -0.02 0.69 -0.47 7.25 -11.1 -0.06 -1.25 -0.19 -0.24c-0.28,-0.36 -0.77,-0.49 -1.2,-0.33l-12.46 4.53 -0.61 0.57z"/>
  <path class="fil0" d="M145.96 59.62c0.37,0.55 0.84,1.02 1.37,1.41 -0.52,0.4 -0.99,0.87 -1.35,1.42 -0.37,-0.55 -0.85,-1.02 -1.38,-1.41 0.53,-0.39 0.99,-0.88 1.37,-1.43zm-1.07 -3.35c-0.33,2.17 -1.67,3.3 -3.77,3.71l-0.26 0.11c-0.42,0.22 -0.57,0.68 -0.48,1.13l0.6 0.82 0.14 0.06 0.06 0.03c1.92,0.37 3.4,1.43 3.7,3.48 -0.08,0.83 0.84,1.19 1.51,0.97l0.17 -0.07 0.08 -0.05 0.24 -0.22 0.15 -0.42c0.33,-2.18 1.68,-3.3 3.77,-3.71l0.27 -0.1c0.42,-0.21 0.57,-0.68 0.48,-1.11l-0.6 -0.83 -0.14 -0.06 -0.05 -0.02c-1.92,-0.37 -3.4,-1.43 -3.7,-3.48 0.07,-0.84 -0.85,-1.19 -1.51,-0.98l-0.18 0.07 -0.08 0.04 -0.24 0.23 -0.16 0.41z"/>
  <path class="fil0" d="M95.75 69.64l-0.61 -0.63 0.61 -0.65 0.61 0.64 -0.61 0.64zm3.88 -1.63l-0.11 -0.05 -0.07 -0.03c-1.31,-0.29 -2.38,-0.95 -2.6,-2.39 0.04,-0.47 -0.24,-0.79 -0.62,-0.95l-0.51 -0.13 -0.19 0.05 -0.12 0.03 -0.14 0.05 -0.51 0.51 -0.05 0.15 -0.03 0.05c-0.24,1.59 -1.18,2.32 -2.69,2.64l-0.01 0.01 -0.24 0.1c-0.43,0.22 -0.58,0.69 -0.49,1.13l0.61 0.82 0.11 0.05 0.07 0.03c1.31,0.28 2.38,0.95 2.6,2.38 -0.04,0.48 0.24,0.8 0.62,0.95l0.51 0.12 0.2 -0.04 0.12 -0.03 0.13 -0.05 0.51 -0.51 0.06 -0.14 0.02 -0.04c0.24,-1.59 1.18,-2.32 2.68,-2.65l0.02 0 0.24 -0.11c0.43,-0.22 0.59,-0.68 0.49,-1.13l-0.61 -0.82z"/>
  <path class="fil0" d="M140.46 99.21l0.61 0.63 -0.61 0.64 -0.61 -0.64 0.6 -0.64zm-3.76 -0.42l-0.23 0.11c-0.43,0.22 -0.59,0.69 -0.5,1.12l0.61 0.82 0.12 0.05 0.07 0.03c1.31,0.29 2.38,0.94 2.6,2.39 -0.05,0.47 0.24,0.79 0.61,0.95l0.51 0.12 0.19 -0.04 0.12 -0.03 0.14 -0.06 0.51 -0.51 0.06 -0.14 0.02 -0.06c0.24,-1.58 1.18,-2.31 2.69,-2.64l0.01 -0 0.24 -0.1c0.43,-0.23 0.58,-0.69 0.49,-1.13l-0.61 -0.82 -0.11 -0.05 -0.07 -0.03c-1.31,-0.28 -2.38,-0.95 -2.6,-2.38 0.04,-0.47 -0.24,-0.8 -0.62,-0.95l-0.51 -0.12 -0.19 0.04 -0.13 0.03 -0.14 0.05 -0.51 0.51 -0.05 0.14 -0.02 0.06c-0.24,1.59 -1.18,2.31 -2.69,2.64l-0.01 0z"/>
  <path class="fil0" d="M198.1 81.21l0.61 0.63 -0.6 0.65 -0.61 -0.64 0.61 -0.64zm-3.76 -0.42l-0.01 0.01 -0.23 0.1c-0.43,0.22 -0.59,0.68 -0.49,1.13l0.6 0.82 0.11 0.06 0.07 0.02c1.31,0.29 2.38,0.95 2.6,2.38 -0.04,0.48 0.24,0.8 0.61,0.95l0.51 0.12 0.2 -0.04 0.12 -0.03 0.14 -0.05 0.51 -0.51 0.06 -0.14 0.03 -0.05c0.24,-1.59 1.17,-2.32 2.68,-2.65l0.01 0 0.24 -0.11c0.42,-0.22 0.58,-0.68 0.48,-1.12l-0.61 -0.82 -0.11 -0.05 -0.08 -0.03c-1.31,-0.29 -2.38,-0.95 -2.6,-2.39 0.04,-0.48 -0.24,-0.79 -0.62,-0.94l-0.51 -0.13 -0.2 0.05 -0.12 0.03 -0.14 0.05 -0.51 0.5 -0.05 0.15 -0.03 0.06c-0.24,1.58 -1.18,2.31 -2.69,2.64z"/>
  <path class="fil0" d="M155.42 134.69c-1.06,1.48 -1.81,4.5 0.21,5.54 0.4,0.21 0.97,0.25 1.35,-0.04 1.15,-0.85 1,-2 1.55,-3.16 0.47,-0.97 1.38,-1.36 2.25,-1.89 1.17,-0.72 0.87,-2.54 -0.45,-2.88 -2.09,-0.53 -3.78,0.83 -4.91,2.43z"/>
  <path class="fil0" d="M184.11 138.96c-1.17,-3.69 -7.41,-3.31 -10.35,-2.75 -0.61,0.11 -1,0.42 -1.23,0.82l-0.05 0.05c-1.17,1.46 -0.74,3.8 0.17,5.32l0.67 0.66 0.34 0.28c1.89,1.06 4.4,1.18 6.34,0.21 1.02,-0.51 0.5,-2.3 -0.64,-2.17 -0.96,0.11 -1.93,0.17 -2.89,0.13 0.05,-0.44 -0.04,-0.89 -0.28,-1.29l-0.06 -0.11 -0.05 -0.13c2.05,-0.32 3.91,-0.24 5.89,0.73 1.14,0.55 2.56,-0.44 2.15,-1.75z"/>
  <path class="fil0" d="M167.77 159.79l0.77 -0.35 0.41 -0.17c2.3,-0.92 4.73,-1.33 7.24,-0.97 1.38,0.21 1.93,-1.75 0.53,-2.14 -2.1,-0.58 -4.3,-0.37 -6.4,0.23 0.21,-0.46 0.43,-0.91 0.6,-1.4 0.15,-0.42 0.43,-0.91 0.73,-1.24 0.19,-0.2 0.73,-0.49 0.22,-0.32 1.41,-0.46 1.09,-2.62 -0.41,-2.58 -1.17,0.03 -2.53,0.28 -3.53,-0.44 -1.04,-0.74 -2.1,0.89 -1.28,1.74 0.53,0.55 1.11,0.87 1.74,1.06 -1.1,1.14 -1.81,2.58 -2.12,4.15l0 0.77c-0.71,0.78 0.34,2.21 1.5,1.66z"/>
  <path class="fil0" d="M176.8 162.18c0.96,-0.42 1.23,-2.04 -0.05,-2.28 -3.06,-0.57 -7.81,0.98 -9.78,3.42 -0.97,1.2 0.29,2.74 1.67,2.06 1.3,-0.65 2.6,-1.29 3.97,-1.79 1.37,-0.51 2.86,-0.82 4.19,-1.41z"/>
  <path class="fil0" d="M186.13 167.45c0.6,-1.38 -1.19,-2.35 -2.03,-1.12 -1.39,2.02 -2.6,3.32 -5.01,3.98 -2.08,0.57 -6.23,2.32 -7.82,0.18 -0.71,-0.95 -2.46,-0.35 -2,0.91 1.32,3.6 5.41,2.69 8.4,2.09 4.14,-0.84 6.69,-2.02 8.47,-6.05z"/>
  <path class="fil0" d="M162.15 175.41c1.45,-0.65 2.44,-1.82 2.05,-3.5 -0.32,-1.4 -1.55,-2.45 -2.93,-2.71 -1.09,-0.2 -1.83,1.07 -1.03,1.88 0.76,0.78 1.44,1.46 0.71,2.38 -0.65,0.81 0,2.47 1.19,1.95z"/>
  <path class="fil0" d="M165.36 141.87l-0.18 0.77c-0.26,0.57 -0.88,0.88 -1.4,1.15l-0.9 0.39c0.41,-1.2 1.36,-1.85 2.48,-2.31zm-4.51 22.44c2.33,-0.55 2.56,-3.61 2.48,-5.56 -0.08,-2.16 -0.85,-4.44 -2.3,-6.08 -0.51,-1.65 -0.92,-3.4 -0.83,-4.71l0.08 -0.02c0.97,-0.36 1.84,-0.87 2.85,-1.15 0.99,-0.27 2.01,-0.64 2.89,-1.17 2.08,-1.25 2.58,-4.27 1.46,-6.32l-0.02 -0.03c-0.22,-0.52 -0.71,-0.93 -1.44,-0.93 -3.27,-0 -6.05,1.64 -6.67,4.74 -4.35,2.81 -1.84,9.05 0.24,13.26 0.15,0.66 0.27,1.3 0.35,1.96 0.18,1.78 -0.55,3.14 -0.73,4.82 -0.09,0.86 0.92,1.35 1.63,1.18z"/>
  <path class="fil0" d="M187.91 138.7c-1.14,-0.51 -2.14,0.8 -1.28,1.75 1.41,1.54 4.46,2.38 6.12,0.81 0.73,-0.69 0.13,-2.03 -0.87,-1.96 -0.68,0.05 -1.29,0.26 -1.98,0.15 -0.72,-0.13 -1.34,-0.46 -1.99,-0.74z"/>
  <path class="fil0" d="M184.77 155.91c0.39,-1.2 0.56,-2.44 0.86,-3.67 0.32,-1.26 0.99,-2.01 1.85,-2.94 1.04,-1.12 -0.34,-2.51 -1.57,-1.93 -2.94,1.37 -3.33,5.45 -3.42,8.29 -0.05,1.37 1.89,1.43 2.27,0.24z"/>
  <path class="fil0" d="M179.77 153.47c0.9,0.98 2.33,-0.33 1.73,-1.4 -0.91,-1.63 -2.78,-2.61 -4.52,-3.09 -1.23,-0.34 -1.83,1.39 -0.79,2.01 0.67,0.42 1.4,0.74 2.06,1.15 0.58,0.35 1.06,0.83 1.51,1.32z"/>
  <path class="fil0" d="M189.66 158.31c-0.79,1.45 -1.48,3 -1.11,4.67 0.24,1.07 2.06,1.07 2.21,-0.06 0.47,-3.48 3.53,-5.98 4.08,-9.42 0.2,-1.22 -1.35,-1.88 -2.02,-0.79 -1.12,1.81 -2.13,3.73 -3.15,5.6z"/>
  <path class="fil0" d="M167.62 116.23c-1.2,0.24 -0.87,2.32 0.34,2.13 2.42,-0.37 4.83,-0.84 7.28,-1.11 3.46,-0.38 5.76,0.99 8.9,1.78 2.5,0.61 6.29,-2.26 7.14,-4.42 0.53,-1.34 -1.12,-2.26 -1.95,-1.08 -3.01,4.26 -6.17,1.72 -10.08,1.47 -3.93,-0.26 -7.79,0.45 -11.63,1.23z"/>
  <path class="fil0" d="M196.89 134.62c0.03,1.27 1.99,1.52 2.25,0.24 0.52,-2.49 0.12,-7.29 -2.97,-8.01 -1.04,-0.24 -1.9,1.13 -1.04,1.87 1.73,1.47 1.72,3.78 1.75,5.89z"/>
  <path class="fil0" d="M113.86 149.74c-0.02,-2.32 -0.1,-4.64 -0.2,-6.95l0.58 -0.71c0.4,-1.1 0.47,-2.54 0.44,-3.81 1.66,-1.03 3.08,-2.49 3.46,-4.47 0.21,-1.19 -1.44,-1.97 -2.03,-0.8 -0.4,0.79 -0.79,1.52 -1.38,2.18 -0.41,0.45 -0.95,0.64 -1.46,0.86 -0.03,-0.49 -0.07,-0.99 -0.11,-1.47 -0.08,-1.25 -2.07,-1.61 -2.28,-0.25 -0.45,2.92 -0.46,5.86 -0.39,8.79 -0.47,-0.3 -0.99,-0.5 -1.55,-0.58 1.11,-1.37 1.37,-3.36 1.31,-5.04 -0.07,-2.14 -0.17,-3.69 1,-5.61 0.62,-1.04 0.8,-1.99 0.77,-3.18 -0.03,-1.47 -2.08,-1.62 -2.49,-0.28 -0.53,1.74 -2.26,3.2 -2.51,5 -0.26,1.85 -0.11,3.61 -0.56,5.44 -1.27,5.15 -11.84,1.06 -14.94,0.18 -1.29,-0.37 -2.12,1.66 -0.87,2.2 4.12,1.8 10.26,4.46 15.09,3.14l0.67 0.61c2.68,1.02 3.92,1.66 4.27,4.83 0.22,2.02 3.22,2.01 3.19,-0.08z"/>
  <path class="fil0" d="M124.17 138.55c-0.49,0.11 -0.84,0.3 -1.08,0.55l-1.05 -0.3c-1.74,-0.13 -3.91,1.45 -5.33,2.25 -1.17,0.66 -0.31,2.52 0.95,2.12 1.1,-0.35 2.14,-0.84 3.21,-1.27l0.78 -0.26 0.06 0.06c1.24,1.12 1.7,3.27 3.64,3.29 0.82,0 1.37,-0.61 1.51,-1.33l0.56 -0.73c0.33,-0.76 0.68,-1.23 1.3,-1.78 1.5,-1.33 -0.6,-3.91 -2.2,-2.72l-0.18 0.14c-0.67,-0.24 -1.47,-0.16 -2.18,-0.01z"/>
  <path class="fil0" d="M136.85 141.28c-0.75,-0.38 -1.3,-0.83 -2.16,-0.79 -0.84,-0.74 -2.5,-0.17 -1.99,1.11 0.79,2 2.02,3.8 2.98,5.72 0.68,1.37 2.65,0.53 2.67,-0.79 0.01,-1.26 0.07,-2.46 -0.11,-3.7 -0.14,-0.93 -0.63,-1.15 -1.39,-1.54z"/>
  <path class="fil0" d="M129.06 151.57c-1.26,-0.21 -2.08,1.51 -0.85,2.16 1.33,0.7 2.77,0.65 4.11,0.2l0.19 0.67c0.18,1.39 2.32,1.87 2.62,0.29 0.22,-1.11 0.87,-1.95 1.34,-2.95 0.62,-1.37 -1.25,-2.43 -2.06,-1.13l-0.36 0.57c-0.39,-0.5 -1.05,-0.7 -1.71,-0.33 -1.06,0.59 -2.1,0.73 -3.28,0.53z"/>
  <path class="fil0" d="M137.57 170.12c0.98,-0.94 0.77,-2.47 0.56,-3.66 -0.42,-2.34 -0.93,-4.34 -0.55,-6.76 0.23,-1.48 -1.81,-2.48 -2.57,-1 -0.35,0.69 -0.98,0.31 -1.6,0.04 -2.08,-1.52 -4.35,-2.07 -6.86,-1.31 -0.67,0.2 -1.2,0.65 -1.69,1.13 -0.9,0.89 -1.21,1.8 -2.5,0.92 -1.08,-0.75 -2.07,0.89 -1.29,1.76 1.22,1.34 2.8,1.6 4.25,0.44 0.7,-0.57 1.24,-1.3 1.89,-1.91 1.22,-1.17 3.9,0.42 5.18,0.93 0.63,0.41 1.36,0.69 2.09,0.75 -0.07,2.17 0.56,4.17 0.71,6.48l0.04 0.11 -0.25 0.05c-0.9,0.27 -1.98,0.07 -2.87,-0.11 -2.26,-0.42 -4.11,-0.75 -6.37,-0.18 -1.23,0.31 -1.03,2 0.06,2.34 3.1,0.96 9,2.6 11.76,-0.02z"/>
  <path class="fil0" d="M132.5 163.8c1.1,0.64 2.25,-0.92 1.31,-1.79 -1.28,-1.18 -2.84,-1.71 -4.56,-1.32 -1.22,0.27 -0.9,2.32 0.35,2.19 1.13,-0.13 1.94,0.37 2.89,0.92z"/>
  <path class="fil0" d="M153.02 143.23c-0.82,1.08 -1.52,1.85 -2.87,2.16 -1.28,0.29 -2.59,0.27 -3.85,0.65 -1.23,0.37 -0.91,2.21 0.35,2.19 3.34,-0.05 6.98,-0.36 8.23,-3.98 0.35,-1.02 -1.2,-1.89 -1.86,-1.02z"/>
  <path class="fil0" d="M145.26 142.53c-1.61,0.14 -3.16,1 -4.54,1.79 -1.05,0.61 -0.26,2.47 0.9,1.97 1.32,-0.56 2.64,-1.08 4,-1.57 1.14,-0.41 0.96,-2.31 -0.35,-2.19z"/>
  <path class="fil0" d="M123.05 176.19c0.76,1.21 2.58,0.08 1.87,-1.15 -3.66,-6.42 -6.66,-13.05 -9.86,-19.71 -0.55,-1.13 -2.37,-0.27 -1.98,0.89 2.36,7.01 6.02,13.76 9.97,19.97z"/>
  <path class="fil0" d="M127.97 191.6c0.31,-1.75 -0,-3.44 -0.55,-5.1 -0.44,-1.33 -2.5,-0.71 -2.08,0.62 0.47,1.44 0.65,2.74 0.48,4.24 -0.13,1.22 1.94,1.44 2.15,0.24z"/>
  <path class="fil0" d="M80.35 96.48c-0.47,-1.26 -1.25,-2.27 -2.05,-3.34 -4.39,-5.88 -7.97,-11.68 -14.79,-14.92 -1.27,-0.6 -2.32,1.25 -1.06,1.93 0.7,0.38 1.37,0.79 2.03,1.23l0.02 0.03c1.78,2.02 1.93,3.99 1.94,6.53 0.01,2.05 1.12,4.15 2.52,5.56 0.91,0.92 2.41,-0.33 1.74,-1.41 -0.74,-1.19 -1.65,-2.45 -1.84,-3.89 -0.11,-0.82 0.07,-1.72 0.05,-2.55l-0.05 -0.59c3.13,3.21 5.68,7.07 8.18,10.79 2.36,3.5 2.15,4.56 7.14,3.95 4.05,-0.49 5.91,-2.5 10.34,-0.62 2.49,1.06 5.87,0.96 7.49,3.24 1.52,2.1 3.36,3.9 5.01,5.88l-0.93 0.49c-1.08,-1.63 -3.2,-2.8 -4.5,-4.05 -0.88,-0.85 -2.5,0.38 -1.71,1.39 0.73,0.92 1.69,1.57 2.59,2.32 0.89,0.75 2.02,1.63 2.06,2.89l0.01 0.06 0.06 0.29 0.05 0.1c0.31,0.64 1.12,0.95 1.8,0.31 0.45,-0.41 0.87,-1.54 1.61,-1.37 0.51,0.12 0.88,0.59 1.22,1.09 0.27,0.71 0.48,1.46 0.64,2.24 -0.19,0.7 -0.16,1.48 -0.38,2.19 -0.21,0.69 -0.96,1.07 -1.54,1.45 -0.9,0.58 -0.56,2.26 0.63,2.12 0.69,-0.08 1.33,-0.29 1.89,-0.62 0.09,1.36 0.19,2.7 0.37,3.93 0.18,1.17 1.72,1.34 2.14,0.55 5.28,0.49 9.95,-1.79 15.36,-0.75 2.2,0.43 4.37,0.85 6.42,1.78 1.74,0.79 1.61,3.47 1.77,5.55l-0.34 0.13c-1.51,-1.82 -3.6,-3.73 -5.87,-3.91 -1.25,-0.09 -1.39,1.6 -0.53,2.16 1.11,0.73 2.21,1.22 3.19,2.15 0.79,0.73 1.45,1.58 2.4,2.11l0.41 0.13c0.08,1.05 0.11,2.09 0.14,3.16 0.04,1.39 2.1,1.32 2.15,-0.06 0.04,-1.24 0.02,-2.47 -0.1,-3.7l0.45 -0.16c4.55,0.46 9.8,0.55 13.87,-1.68 5.11,-2.81 6.82,-8.33 11.65,-11.41 1.03,-0.65 0.28,-2.5 -0.9,-1.99 -3.2,1.36 -5.13,3.59 -6.94,6.5 -3.95,6.38 -10.62,6.66 -17.32,6.35 -0.34,-4.26 -0.44,-6.81 -5.2,-8.48 -2.85,-1.01 -6.16,-1.57 -9.16,-1.78 -3.83,-0.25 -7.69,1.52 -11.52,1.68 -0.16,-1.99 -0.16,-4.05 -0.36,-6.05 0.01,-0.48 -0.04,-0.96 -0.17,-1.38 -0.07,-0.48 -0.17,-0.98 -0.29,-1.45 -0.88,-3.45 -2.69,-5.85 -5.05,-8.44 -1.37,-1.51 -2.83,-4.72 -4.84,-5.63 -2.47,-1.13 -5.33,-1.63 -7.9,-2.55 -2.86,-1.02 -4.89,-1.07 -7.74,0.03 -1.23,0.47 -5.43,2.68 -6.25,0.47z"/>
  <path class="fil0" d="M93.96 123.92c-0.57,1.19 0.84,2.19 1.81,1.33 0.56,-0.5 1.11,-0.96 1.71,-1.37l0.59 1.03 0.49 0.48c-0.06,1.51 0.96,2.51 2.26,3.22 1.23,0.66 2.21,-1.16 1.04,-1.88 -1.14,-0.7 -1.17,-1.11 -0.54,-2.18l0.64 -1.12c0.32,-0.42 0.55,-0.91 0.65,-1.57 0.23,-1.63 -2.11,-2.29 -2.53,-0.62l-0.14 0.3 -0.23 -0.05 -0.91 -0.32 -1.11 -0.08 -0.44 0.04c-1.25,0.38 -2.74,1.63 -3.29,2.8z"/>
  <path class="fil0" d="M105.77 114.82c-0.71,-1.05 -1.76,-2.12 -3.05,-2.34 -0.37,-0.18 -0.82,-0.21 -1.24,-0.01 -0.89,0.44 -1.34,0.89 -1.99,-0.13 -0.75,-1.16 -2.88,-0.32 -2.28,1.03 0.51,1.15 1.31,2.14 2.63,2.34 1.01,0.16 2.06,-0.15 2.81,-0.83 0.46,0.27 0.86,0.61 1.2,1.11 0.83,1.2 2.75,0.03 1.93,-1.18z"/>
  <path class="fil0" d="M90.72 109.97c-0.48,0.27 -0.73,0.85 -0.86,1.51 -0.98,-0.14 -2,0.09 -2.94,0.62 -1.12,0.63 -0.26,2.21 0.89,1.95l1.06 -0.23 0.29 -0.01 0.32 0.09c0.27,0.38 0.44,0.82 0.99,0.89l0.79 0.07c0.87,0.02 1.38,-0.74 1.44,-1.51 0.08,-1 0.54,-2.27 -0.29,-3.2 -0.42,-0.48 -1.18,-0.47 -1.7,-0.17z"/>
  <path class="fil0" d="M83.75 116.7c0.44,-0.44 0.73,-0.99 0.96,-1.56 0.23,-0.55 0.13,-1.17 -0.43,-1.49 -0.53,-0.29 -1.18,-0.08 -1.48,0.43l-0.64 1.1c-0.88,1.09 0.57,2.51 1.59,1.51z"/>
  <path class="fil0" d="M86.13 105.63c0.2,-0.44 0.36,-0.89 0.57,-1.32 0.24,-0.48 0.57,-0.89 0.87,-1.33 0.27,-0.41 0.13,-1.01 -0.21,-1.33 -0.46,-0.43 -1.12,-0.37 -1.56,0.04 -0.96,0.87 -1.6,2.17 -1.71,3.45 -0.1,1.07 1.6,1.45 2.03,0.49z"/>
  <path class="fil0" d="M83.38 109.63c0.65,-1.33 -1.14,-2.23 -1.97,-1.09 -1.36,1.89 -3.61,1.85 -5.24,3.34 -1,0.92 -0.17,2.32 0.95,2.53l-0.27 0.72c-0.39,-0.74 -1.26,-1.11 -2.19,-0.62 -0.76,0.38 -1.88,-1.1 -2.32,-1.48 -1,-0.81 -2.63,0 -2.2,1.36 0.5,1.62 1.61,2.79 2.96,3.22 -0.45,0.65 -0.75,1.36 -1.09,2.16 -0.75,1.78 -1.78,3.03 -3.12,4.4 -1.21,1.25 -2.25,2.79 -3.63,3.87 -1.43,1.13 -3.7,1.15 -5.39,1.66 -1.33,0.41 -0.96,2.32 0.38,2.36 4.51,0.11 7.34,-1.76 10.35,-4.9 1.44,-1.5 2.85,-2.39 3.86,-4.29l0.22 -0.44 0.03 0.08c0.75,1.28 1.75,3.4 3.4,3.53 1.33,0.11 1.76,-1.46 1.32,-2.42 -0.79,-1.67 0.02,-3.85 0.25,-5.67 0.24,-1.95 0.92,-3.69 1.82,-5.43l0.14 -1c0.69,-0.46 1.3,-1.03 1.74,-1.9z"/>
  <path class="fil0" d="M52.05 122.8c1.25,0.64 2.4,1.21 3.61,1.54 -2.5,1.23 -4.9,-0.17 -7.35,-1.55 0.83,-0.61 1.76,-1 3.74,0.01zm2.4 5.98c1.78,0.06 3.77,-1.08 5.14,-2.15 1.71,-1.34 2.98,-1.94 5,-2.85 0.62,-0.12 1.23,-0.26 1.83,-0.45 1.19,-0.38 0.95,-2.34 -0.36,-2.22 -1.9,0.17 -3.78,-0.79 -5.66,-0.25 -1.56,0.45 -2.53,0.95 -4.26,0.72 -1.75,-0.22 -2.9,-1.62 -4.57,-1.95 -1.62,-0.31 -2.6,-0.18 -4.11,0.52 -2.27,1.04 -3.74,0.25 -5.79,-0.09 -1.48,-2.06 -2.49,-4.13 -3.3,-6.58 -0.37,-1.14 -2.37,-0.93 -2.17,0.35 0.46,2.95 1.96,5.62 3.92,7.85l0.38 0.39c0.92,0.47 1.72,0.93 2.56,1.27 3.59,2.35 6.9,5.26 11.38,5.42z"/>
  <path class="fil0" d="M91.36 115.41c-0.63,-0.33 -1.34,-0.38 -2.03,-0.41 -0.71,-0.05 -1.38,-0.09 -2.07,0.07 -1.09,0.24 -0.98,1.9 0.05,2.14 1.11,0.26 2.4,0.28 3.54,0.31 1.12,0.02 1.48,-1.59 0.52,-2.1z"/>
  <path class="fil0" d="M103.32 119.37l0.53 0.54c0.65,0.84 2.1,0.57 2.07,-0.62 -0.02,-0.93 -0.61,-1.67 -1.39,-2.11 -0.47,-0.27 -0.97,-0.35 -1.47,-0.29l-0.04 -0.04c-0.74,-0.59 -1.84,-0.19 -1.85,0.82 -0,0.41 0.15,0.86 0.38,1.21 0.28,0.43 0.85,0.7 1.36,0.51l0.39 -0z"/>
  <path class="fil0" d="M98.54 129.3c-0.99,0.47 -0.44,2.14 0.61,2.04 0.85,-0.08 1.4,0.47 2.04,0.96 0.41,0.31 0.9,0.43 1.37,0.14 0.51,-0.33 0.69,-1.03 0.36,-1.55 -0.93,-1.48 -2.72,-2.37 -4.38,-1.59z"/>
  <path class="fil0" d="M93.23 131.58c1.06,-0.27 2.18,0.04 3.25,-0.12 0.51,-0.08 0.93,-0.33 1.06,-0.85 0.14,-0.58 -0.22,-1.26 -0.82,-1.37 -1.51,-0.27 -3,-0.37 -4.41,0.32 -1.19,0.58 -0.27,2.33 0.91,2.02z"/>
  <path class="fil0" d="M66.47 94.31c-1.41,-1.51 -3.63,-3.15 -5.51,-4.04 -2.08,-0.99 -4.3,-0.65 -6.2,0.59 -0.52,0.34 -0.79,0.79 -0.89,1.27l-0.05 0.12c-0.5,1.78 -0.28,3.94 0.08,5.75 0.26,1.3 2.26,0.9 2.25,-0.36 -0.01,-0.96 0.07,-1.99 0.06,-2.98l0.72 -0.28c1.11,-0.68 3.07,-0.78 4.3,-0.29 1.4,0.56 2.47,1.56 3.85,2.13 1.23,0.52 2.35,-0.87 1.39,-1.89z"/>
  <path class="fil0" d="M59.97 97.59l0.9 0.24c0.61,0.21 1.08,0.58 1.76,0.61 0.94,0.03 1.3,-1.04 0.94,-1.75 -0.42,-0.86 -1.59,-1.26 -2.44,-1.5 -1.04,-0.3 -2.2,-0.11 -2.84,0.79 -0.55,0.76 0.27,1.61 1.01,1.66l0.67 -0.05z"/>
  <path class="fil0" d="M48.24 91.17c-1.27,-0.64 -2.57,-0.61 -3.92,-0.24 -1.07,0.29 -1.89,1.21 -2.85,1.75 -1.92,1.09 -3.49,3.8 -1.74,5.72 0.63,0.69 2.05,0.13 1.92,-0.85 -0.12,-0.82 -0.26,-0.86 0.24,-1.5 0.31,-0.41 1.07,-1.08 1.63,-1 0.83,0.1 1.54,-0.02 2.35,-0.22 0.63,-0.16 1.26,0.26 2.17,0.09 0.76,-0.14 1.32,-1.03 1.28,-1.76l-0.01 -0.22c-0.03,-0.71 -0.41,-1.42 -1.06,-1.76z"/>
  <path class="fil0" d="M46.56 96.17c-0.97,-0.55 -2.34,-0.42 -3.26,0.18 -1.03,0.66 -0.31,2.51 0.91,2.01l0.16 -0.05 0.09 -0.01 0.56 -0.02 1.03 0.01c1.17,0.05 1.44,-1.6 0.51,-2.12z"/>
  <path class="fil0" d="M48.75 105.1l-0.54 0.52 -0.1 0.89 0.11 0.28c1.73,3.05 5.73,1.32 8.15,0.18 1.36,-0.64 0.55,-2.74 -0.8,-2.69 -1.27,0.04 -2.44,-0.61 -3.73,-0.67 -1.15,-0.05 -2.22,0.75 -3.1,1.48z"/>
  <path class="fil0" d="M47.14 113.55c1.81,-0.55 3.5,-1.21 5.43,-0.89 1.85,0.32 3.46,1.2 5.38,1.1 1.47,-0.07 1.32,-2.06 -0.05,-2.21 -2.23,-0.24 -4.2,-1.32 -6.43,-1.54 -1.75,-0.18 -3.76,0.64 -5.22,1.53 -1.08,0.65 -0.31,2.36 0.9,2.01z"/>
  <path class="fil0" d="M69.12 106.74c0.17,1.17 2.04,1.63 2.26,0.25 0.3,-1.95 0.63,-4.72 -0.49,-6.47 -0.64,-0.99 -2.08,-0.49 -2.12,0.63 -0.04,0.92 0.19,1.85 0.21,2.77 0.03,0.95 0.01,1.88 0.14,2.83z"/>
  <path class="fil0" d="M35.86 93.55c3.36,-1.31 5.54,-5.92 7.64,-8.63 2.35,-3.02 4.14,-5.1 7.9,-6.36 2.77,-0.93 5.93,-0.08 8.77,-0.05 1.06,0.02 1.53,-1.63 0.51,-2.07 -4.45,-1.91 -9.7,-1.02 -13.74,1.53 -2.61,1.65 -4.26,4.27 -6.07,6.69 -1.27,1.7 -3.76,5.95 -5.65,6.81 -1.25,0.56 -0.71,2.61 0.62,2.09z"/>
  <path class="fil0" d="M29.99 97.47c0.46,-0.48 0.66,-1.1 1.13,-1.56 0.46,-0.46 0.9,-0.89 1.44,-1.25 1.16,-0.76 0.07,-2.51 -1.13,-1.82 -0.76,0.43 -1.52,0.72 -2.17,1.3 -0.69,0.61 -1.4,1.62 -1.27,2.57 0.13,0.95 1.24,1.56 2,0.76z"/>
  <path class="fil0" d="M34.12 111.16c0.54,0.13 1.27,-0.21 1.35,-0.81l0.02 -0.27c0.65,0.42 1.81,0 1.75,-0.95 -0.06,-1.03 -0.31,-2.04 -0.52,-3.05 -0.17,-0.82 -1.18,-1.05 -1.82,-0.69 -1.64,0.91 -1.85,3.03 -1.62,4.71 0.07,0.5 0.32,0.92 0.84,1.05z"/>
  <path class="fil0" d="M38.78 126.21c-1.11,1.85 -2.23,3.43 -3.84,4.89 -1.61,1.45 -3.42,2.66 -5.01,4.13 -0.96,0.88 0.35,2.46 1.42,1.75 3.71,-2.44 8.22,-5.46 9.6,-9.92 0.41,-1.31 -1.5,-1.96 -2.17,-0.85z"/>
  <path class="fil0" d="M21.74 147.78l0.39 0.13c3.95,0.44 7.85,0.2 11.78,1.02 4.05,0.87 7.88,2.23 12,2.85 4.2,0.64 7.58,4.56 10.86,6.95 3.17,2.33 6.2,4.14 10.06,4.76 0.33,0.21 0.76,0.26 1.22,-0.01 7.44,-4.24 13.91,-12.51 16.88,-20.45l0.01 -0.11 0.01 -0.09 -0.01 -0.33 -0.01 -0.05 -0.13 -0.27 -0.18 -0.2 -0.03 -0.03 -0.2 -0.18c-2.86,-1.71 -4.81,-4.09 -4.73,-7.56 0.03,-1.51 -2.15,-1.37 -2.29,0.06 -0.37,3.77 1.7,7.27 4.96,9.02 -3.45,7.1 -8.93,13.13 -15.2,17.86 -8.04,-2.25 -12.55,-9.8 -20.44,-12.5 -7.05,-2.4 -14.35,-3.35 -21.71,-3.05 2.9,-1.41 6.3,-1.86 9.23,-3.24 3.77,-1.79 7.04,-6.21 8.08,-10.17 0.32,-1.22 -1.43,-1.89 -2.04,-0.8 -2.5,4.52 -5.34,8.6 -10.47,10.19 -3.23,0.99 -7.06,1.48 -9.31,4.26 -0.83,1.04 0.23,2.32 1.27,1.94z"/>
  <path class="fil0" d="M73.29 129.26c-0.8,1.69 -1.79,3.35 -2.11,5.23 -0.36,2.12 0.63,4.41 0.75,6.52 0.08,1.39 2.22,1.34 2.16,-0.06 -0.07,-1.85 -0.56,-3.63 -0.66,-5.48 -0.11,-1.86 1.29,-3.7 1.9,-5.42 0.42,-1.18 -1.51,-1.92 -2.04,-0.8z"/>
  <path class="fil0" d="M54.82 144.58c3.39,4 8.14,7.96 10.65,12.67 0.11,0.9 1.44,1.59 2.16,0.74 2.93,-3.49 6.9,-7.86 6.76,-12.72 -0.03,-1.27 -1.96,-1.51 -2.23,-0.25 -0.78,3.7 -3.09,6.8 -5.3,9.83 -0.43,-0.65 -0.93,-1.24 -1.52,-1.89 -2.05,-2.24 -3.62,-4.75 -5.77,-6.9 -4.27,-4.25 -6.11,-9.56 -9.79,-14.18 -0.86,-1.07 -2.67,-0.07 -1.87,1.16 2.42,3.71 4.02,8.15 6.89,11.54z"/>
  <path class="fil0" d="M62 136.73c-0.64,-1.3 -1.85,-2.34 -3.27,-2.52 -1.21,-0.14 -2,1.4 -0.82,2.08 1.38,0.79 1.62,2.12 2.3,3.42 0.07,1.66 0.12,3.39 0.33,5.04 0.15,1.14 2.02,1.58 2.19,0.24 0.23,-1.82 0.25,-3.91 -0.27,-5.71 1.5,-1.42 3.83,-0.24 4.47,1.51l0.09 0.16c0.27,1.88 0.61,3.77 1.38,5.52 0.56,1.29 2.52,0.78 2.14,-0.65 -0.47,-1.75 -0.89,-3.51 -1.34,-5.27l0.02 -0.12c-0.23,-3.59 -4.42,-5.25 -7.21,-3.7z"/>
  <path class="fil0" d="M101.93 185.33c-1.45,0.05 -1.36,2.17 0.06,2.23 1.3,0.06 2.61,0.24 3.91,0.16l0.37 -0.1c0.42,2.06 0.98,4.09 1.74,6.07 0.51,1.32 2.48,0.75 2.12,-0.64 -2.77,-10.72 -1.79,-21.75 -4.07,-32.52 -0.26,-1.22 -2.39,-0.89 -2.2,0.36 1.25,8.03 0.74,16.55 2.04,24.64l-0.05 -0.01c-1.3,-0.11 -2.6,-0.24 -3.91,-0.21z"/>
  <path class="fil0" d="M95.16 151.59c-2.32,1.19 -4.48,2.61 -6.75,3.9 -1.25,0.72 -0.09,2.55 1.17,1.89 2.31,-1.21 4.49,-2.61 6.75,-3.91 1.24,-0.72 0.09,-2.51 -1.17,-1.88z"/>
  <path class="fil0" d="M71.63 187.73c1.12,-0.83 0.11,-2.52 -1.14,-1.85 -1.08,0.58 -1.94,1.32 -3.12,1.75 -1.2,0.44 -2.3,0.87 -3.34,1.63 -1.73,1.28 -2.1,3.18 -4.55,3.19 -1.46,0 -1.32,2.09 0.06,2.22 2.28,0.22 3.58,-0.65 4.97,-2.35 0.36,-0.44 0.76,-0.78 1.18,-1.09 0.96,2.29 2.91,4.3 4.4,6.22 0.87,1.12 2.69,0.09 1.92,-1.19 -1.27,-2.14 -2.99,-3.97 -4.29,-6.07l0.37 -0.14c1.43,-0.48 2.35,-1.42 3.53,-2.3z"/>
  <path class="fil0" d="M117.21 206.41c-1.58,-0.17 -3.18,0.32 -4.76,0.39 -1.46,0.07 -2.67,-0.93 -4.12,-1.03 -1.24,-0.08 -1.47,2.01 -0.24,2.17 1.4,0.18 2.4,1.23 3.86,1.3 1.85,0.1 3.8,-0.22 5.62,-0.54 1.43,-0.26 0.81,-2.16 -0.37,-2.29z"/>
  <path class="fil0" d="M85.25 197.54l1.07 -0.54 0.95 -0.72c1.63,2.57 3.18,5.24 5.21,7.5 0.85,0.95 2.51,-0.39 1.74,-1.41 -1.82,-2.4 -3.06,-5.3 -5.07,-7.55 0.74,-0.43 1.44,-0.55 1.9,0.22 0.69,1.13 2.4,0.3 2.06,-0.93 -0.49,-1.81 -2.08,-2.89 -3.87,-1.95 -2.94,1.54 -5.85,5.26 -8.79,1.73 -0.3,-0.36 -0.82,-0.37 -1.23,-0.3 -1.04,0.2 -1.96,-0.28 -2.76,-1.04l-0.16 -0.15c-1.05,-1.06 -1.89,-2.55 -2.52,-3.52 -0.78,-1.2 -2.63,-0.07 -1.89,1.17 0.86,1.45 1.75,2.79 2.87,3.95 1.64,3.8 4.42,7.01 7.05,10.15 0.84,0.99 2.5,-0.38 1.76,-1.43 -1.57,-2.23 -3.22,-4.39 -4.77,-6.63l0.47 0.29c0.53,0.65 1.44,1.27 2.24,1.5l0.41 0.09 0.13 0.13c2.94,1.77 4.03,5.71 6.51,8.01 1.1,1.02 2.5,-0.55 1.58,-1.65 -1.81,-2.16 -2.89,-5.01 -4.9,-6.91z"/>
  <path class="fil0" d="M102.52 204.84c-0.38,-0.53 -0.72,-1.1 -1.03,-1.67 0.36,-0.34 0.52,-0.84 0.16,-1.31 -0.99,-1.27 -2.21,-2.29 -3.36,-3.41 -1.02,-0.99 -2.5,0.58 -1.51,1.58l0.91 0.9c0.65,3.97 3.69,7.68 7.11,9.62 1.13,0.65 2.37,-0.99 1.35,-1.85 -1.36,-1.15 -2.57,-2.42 -3.62,-3.86z"/>
  <path class="fil0" d="M155.32 176.45c0.69,-0.13 1.39,-0.18 2.02,-0.44 1.1,-0.44 1.04,-1.84 -0.05,-2.23 -1.09,-0.39 -2.45,0.02 -3.5,0.43 -0.55,0.22 -0.9,0.65 -0.91,1.25 -0.01,1.13 -0.46,1.71 -1.45,2.19 -1.03,0.51 -0.47,2.2 0.63,2.12 1.95,-0.15 2.94,-1.62 3.25,-3.33z"/>
  <path class="fil0" d="M135.44 183.65c0.71,-0.84 1.29,-1.77 1.96,-2.65 0.37,-0.48 0.43,-1.12 -0.04,-1.57 -0.41,-0.39 -1.18,-0.43 -1.56,0.04 -0.76,0.93 -1.41,1.93 -2.11,2.89 -0.74,1.01 0.96,2.24 1.76,1.29z"/>
  <path class="fil0" d="M138.81 180.53c-2.06,2.42 -4.03,4.98 -5.73,7.66 -0.72,1.13 1.04,2.43 1.88,1.38 1.99,-2.47 3.99,-5.01 5.62,-7.74 0.65,-1.07 -0.95,-2.26 -1.78,-1.3z"/>
  <path class="fil0" d="M134.65 196.71c1.47,-1.44 2.6,-3.31 3.8,-4.98 1.28,-1.78 2.66,-3.54 3.77,-5.43 0.68,-1.17 -0.94,-2.28 -1.86,-1.37 -1.56,1.55 -2.88,3.36 -4.22,5.1 -1.25,1.64 -2.66,3.34 -3.48,5.23 -0.55,1.27 0.93,2.48 1.99,1.45z"/>
  <path class="fil0" d="M139.11 198.69c1.22,-1.01 2.01,-2.64 2.8,-3.98 0.89,-1.53 1.85,-3.02 2.77,-4.53 0.7,-1.13 -0.89,-2.11 -1.78,-1.3 -1.28,1.14 -2.24,2.58 -3.17,4.01 -0.9,1.38 -2,2.8 -2.65,4.31 -0.59,1.37 0.92,2.42 2.03,1.49z"/>
  <path class="fil0" d="M148.75 187.88c0.63,-0.87 1.25,-1.74 1.77,-2.67 0.7,-1.27 -1.15,-2.23 -1.93,-1.06 -0.6,0.88 -1.3,1.69 -1.78,2.65 -0.27,0.54 -0.11,1.21 0.44,1.51 0.58,0.32 1.15,0.05 1.51,-0.44z"/>
  <path class="fil0" d="M147.25 195.81c0.95,-0.98 1.64,-2.24 2.48,-3.32 0.93,-1.2 2.01,-2.3 2.95,-3.51 0.71,-0.91 -0.32,-2.55 -1.39,-1.71 -1.28,0.99 -2.4,2.17 -3.48,3.39 -1.04,1.17 -2.18,2.49 -2.63,4.01 -0.37,1.21 1.25,1.99 2.08,1.14z"/>
  <path class="fil0" d="M148.99 200.7c1.81,-2.77 3.05,-5.6 5.64,-7.8 0.98,-0.82 -0.35,-2.4 -1.39,-1.72 -2.88,1.89 -5.64,5.25 -6.42,8.65 -0.31,1.36 1.46,1.97 2.18,0.86z"/>
  <path class="fil0" d="M156.28 197.39c0.48,-0.41 0.74,-1.08 1.08,-1.61 0.35,-0.54 0.65,-1.13 1,-1.68 0.72,-1.11 -0.94,-2.24 -1.82,-1.34 -0.93,0.98 -2.4,2.36 -2.32,3.84 0.06,1.1 1.29,1.48 2.06,0.79z"/>
  <path class="fil0" d="M161.39 197.58c0.32,-0.82 0.74,-1.63 0.88,-2.5 0.17,-1.06 -1.23,-2.16 -2.04,-1.12 -1.06,1.37 -2.13,3.5 -1.85,5.26 0.14,0.85 1.45,1.1 1.96,0.46 0.51,-0.63 0.74,-1.36 1.04,-2.1z"/>
  <path class="fil0" d="M164.61 198.98c0.76,-0.76 1.06,-1.99 1.55,-2.93 0.6,-1.14 -0.89,-2.23 -1.8,-1.32 -0.87,0.86 -1.93,2.16 -1.78,3.46 0.12,1 1.27,1.56 2.03,0.79z"/>
  <path class="fil0" d="M171.87 183.53c-1.61,1.27 -3.17,2.94 -3.76,4.94 -0.35,1.17 1.23,1.96 2.02,1.12 1.23,-1.31 2.62,-2.88 3.32,-4.55 0.38,-0.91 -0.58,-2.3 -1.58,-1.51z"/>
  <path class="fil0" d="M168.12 196.11c-0.37,1.33 1.5,1.98 2.19,0.85 0.99,-1.65 2.12,-3.11 3.38,-4.56 1.1,-1.28 2.26,-2.72 2.67,-4.39 0.26,-1.05 -1.17,-1.95 -1.91,-1.05 -1.17,1.41 -2.21,2.88 -3.41,4.27 -1.25,1.45 -2.4,3.01 -2.91,4.88z"/>
  <path class="fil0" d="M125.12 198.98c1.4,-0.86 2.83,-2.32 3.33,-3.91 0.14,-0.49 -0.13,-1.02 -0.55,-1.26 -0.49,-0.27 -0.96,-0.11 -1.36,0.21 -0.54,0.45 -0.96,1.03 -1.41,1.54 -0.48,0.55 -0.97,1.08 -1.45,1.64 -0.85,0.97 0.3,2.49 1.44,1.78z"/>
  <path class="fil0" d="M131.57 199.32c0.92,-1 -0.3,-2.36 -1.44,-1.78 -3.91,2.01 -6.79,6.55 -9.3,10.01 -0.82,1.12 0.96,2.25 1.88,1.37 1.52,-1.45 2.84,-3.06 4.18,-4.68 1.46,-1.74 3.14,-3.25 4.68,-4.93z"/>
  <path class="fil0" d="M127.15 211.06c1.51,-1.33 2.79,-2.97 4.04,-4.53 1.02,-1.28 2.1,-2.6 2.59,-4.18 0.33,-1.07 -1.19,-1.89 -1.92,-1.05 -1.05,1.22 -1.95,2.57 -2.97,3.81 -1.24,1.5 -2.59,2.92 -3.64,4.56 -0.78,1.21 0.95,2.23 1.89,1.39z"/>
  <path class="fil0" d="M136.5 201.53c-1.28,2.16 -2.45,4.38 -3.76,6.52 -0.75,1.21 0.92,2.15 1.85,1.36 2.12,-1.78 3.17,-4.51 3.98,-7.07 0.41,-1.25 -1.44,-1.87 -2.07,-0.81z"/>
  <path class="fil0" d="M141.23 207.47c1.27,-2.68 3.29,-5.21 3.93,-8.13 0.29,-1.31 -1.41,-1.9 -2.12,-0.83 -1.61,2.46 -3.39,5.2 -4.11,8.07 -0.34,1.35 1.68,2.2 2.3,0.9z"/>
  <path class="fil0" d="M145.72 207.14c0.82,-0.62 1.48,-1.66 1.75,-2.66 0.29,-1.06 -1.2,-1.98 -1.93,-1.06 -0.59,0.72 -1.2,1.59 -1.54,2.46 -0.36,0.93 0.95,1.85 1.72,1.26z"/>
  <path class="fil0" d="M21.86 116.03c1.13,0.51 2.22,1.13 3.15,1.95 1.07,0.96 2.51,-0.56 1.53,-1.6 -1.01,-1.05 -2.27,-1.75 -3.6,-2.3 -0.56,-0.23 -1.19,-0.13 -1.51,0.44 -0.28,0.5 -0.11,1.26 0.43,1.51z"/>
  <path class="fil0" d="M92.82 170.46c1.21,0.47 1.79,-1.4 0.8,-2.02 -1.09,-0.68 -2.22,-1.31 -3.29,-2.02 -1.14,-0.75 -2.01,-1.75 -3.05,-2.62 -0.76,-0.65 -2.32,0.02 -1.83,1.13 1.3,2.97 4.52,4.42 7.37,5.53z"/>
  <path class="fil0" d="M98.44 185.18c-0.26,-2.79 -0.52,-5.57 -0.89,-8.35 -0.17,-1.38 -2.35,-1.36 -2.19,0.05 0.32,2.78 0.48,5.58 0.89,8.35 0.2,1.36 2.32,1.38 2.19,-0.05z"/>
  <path class="fil0" d="M124.45 125.29c-1.67,0.99 -3.57,1.06 -5.47,1.09 -1.24,0.03 -1.48,1.93 -0.24,2.19 2.1,0.44 5.71,0.36 7.13,-1.54 0.73,-0.98 -0.23,-2.43 -1.41,-1.73z"/>
  <path class="fil0" d="M128.46 125.45c-0.41,-0.39 -1.15,-0.41 -1.54,0.04l-0.52 0.93c-0.24,0.55 -0.13,1.18 0.43,1.49 0.5,0.28 1.23,0.11 1.5,-0.43l0.18 -0.42 0 -0.06c0.38,-0.47 0.41,-1.12 -0.04,-1.55z"/>
  <path class="fil0" d="M173.67 119.8l-0.02 0.02 -0.04 -0.06 0.05 0.04zm-13.09 8.26l0.37 0.8c0.28,0.57 0.65,1.08 1.06,1.55 1.05,1.19 2.57,1.41 3.95,0.71l0.39 -0.34c1.31,-0.77 1.93,-1.9 2.07,-3.33 2.74,0.44 5.92,-0.41 7.01,-2.8 3.32,2 6.69,2.39 10.42,-0.01 1.05,-0.68 0.31,-2.55 -0.93,-2.06 -3.29,1.31 -6.65,1.76 -9.47,-0.87l-0.26 -0.17 -0.79 -0.85 -0.83 -1.03c-0.61,-1.07 -2.22,-0.56 -2.06,0.7l0.03 0.57 0.23 0.62 0.66 0.98 0.69 0.65c-0.93,1.74 -3.62,2.23 -5.36,1.54 -0.87,-0.35 -1.87,0.1 -1.87,1.13 0.05,1.34 -0.38,2.41 -1.24,3.24 -0.44,-0.06 -0.76,-0.34 -1.05,-0.75l-0.65 -1.03 -0.28 -0.42 -0.27 -0.32 0 0.01c-0.85,-1.18 -2.46,-0.12 -1.88,1.16 -0.32,-0.69 0.01,0.17 0.07,0.35z"/>
  <path class="fil0" d="M122.33 84.95l-0.49 0.39c-0.54,0.58 -0.61,1.36 -0.37,2.02l0.07 0.41c0.13,0.47 0.55,0.86 1.03,0.98l0.86 0c0.56,-0.02 1.11,-0.21 1.5,-0.67 0.88,-1.05 0.67,-2.48 -0.49,-3.21 -0.65,-0.41 -1.44,-0.32 -2.06,0.05l0 -0.01 -0.05 0.04z"/>
  <path class="fil0" d="M168.87 76.07l-0.11 0.01c-1.11,0.09 -2.02,0.93 -2,2.09 0.03,1.2 0.99,1.91 2.1,1.99l0.11 0.01c1.12,0.08 2.02,-1.07 2,-2.1 -0.03,-1.07 -0.98,-2.09 -2.1,-2z"/>
  <path class="fil0" d="M121.16 49.56l0.9 -0.28 0.1 -0.08 0.04 -0.02 0.5 -0.51 0.02 -0.05 0.11 -0.24 0.04 -0.2 0.02 -0.11 0 -0.19 -0.01 -0.14 -0.02 -0.09 -0.41 -0.78 -0.28 -0.21 -0.02 -0.02 -0.02 0 -0.62 -0.29c-0.44,-0.16 -1.06,0.01 -1.43,0.28 -0.7,0.52 -1.1,1.76 -0.25,2.4 0.41,0.3 0.8,0.54 1.33,0.53z"/>
  <path class="fil0" d="M100.92 84.6c1.5,0 1.43,-2.31 -0.05,-2.31 -1.5,0 -1.44,2.31 0.05,2.31z"/>
  <path class="fil0" d="M116.9 66.33c0.82,0.2 1.84,-0.48 1.72,-1.39l-0.1 -0.61c-0.11,-0.44 -0.53,-0.83 -0.96,-0.92l-0.71 0.02c-0.45,0.09 -0.82,0.54 -0.92,0.96l-0.04 0.25c-0.09,0.75 0.21,1.49 1.01,1.69z"/>
  <path class="fil0" d="M91.34 49.7c1.82,0 1.75,-2.83 -0.07,-2.83 -1.82,0 -1.75,2.83 0.07,2.83z"/>
  <path class="fil0" d="M73.87 61.53c-1.7,0 -1.63,2.64 0.07,2.64 1.69,0 1.63,-2.64 -0.07,-2.64z"/>
  <path class="fil0" d="M66.06 67.43c-0.02,-0.89 -0.93,-1.6 -1.8,-1.3l-0.82 0.46c-0.49,0.49 -0.43,1.32 0.04,1.78l0.85 0.45c0.87,0.29 1.75,-0.54 1.73,-1.38z"/>
  <path class="fil0" d="M82.92 80.22c0.52,0.29 1.07,0.15 1.54,-0.15l0.65 -0.71 0.14 -0.34c0.17,-0.48 -0.14,-1.12 -0.59,-1.33l-0 -0.01 -1.06 -0.03 0.07 0 -0.12 0.04 0.04 -0.03 -0.07 0.04 -0.84 0.52c-0.61,0.55 -0.47,1.61 0.23,2z"/>
  <polygon class="fil0" points="83.6,77.65 83.6,77.66 83.61,77.65 "/>
  <polygon class="fil0" points="28.47,74.01 28.47,73.99 28.47,74.06 "/>
  <polygon class="fil0" points="28.47,73.95 28.47,73.99 28.47,73.98 "/>
  <path class="fil0" d="M28.48 74.06l-0.01 0c-0.09,1.54 1.76,2.64 3.12,1.8 1.42,-0.88 1.22,-3.41 -0.58,-3.72 -0.76,-0.14 -1.6,0.01 -2.09,0.66l0.13 -0.08c-0.39,0.34 -0.61,0.79 -0.58,1.26l-0 0.03 0.01 0.05z"/>
  <path class="fil0" d="M29.44 61.06c0.33,0.82 1.74,1.28 2.16,0.23l0.09 -0.21c1.02,-2.51 -3.15,-2.22 -2.35,-0.26l0.1 0.24z"/>
  <path class="fil0" d="M169.42 101.15c-1.44,0 -1.39,2.24 0.06,2.24 1.44,0 1.39,-2.24 -0.06,-2.24z"/>
  <path class="fil0" d="M183.6 102.94c-0.02,-0.88 -0.91,-1.55 -1.77,-1.28l-0.84 0.47c-0.48,0.5 -0.42,1.26 0.04,1.74l0.87 0.45c0.86,0.27 1.73,-0.52 1.71,-1.37z"/>
  <path class="fil0" d="M153.86 83.38c0.48,0.85 1.99,0.68 2.2,-0.35 0.12,-0.55 0.11,-1.12 -0.33,-1.54l-0.96 -0.38 -0.35 0.06 -0.25 0.05c-1.06,0.28 -1.08,1.63 -0.32,2.17z"/>
  <polygon class="fil0" points="154.42,81.16 154.62,81.12 "/>
  <path class="fil0" d="M167.64 61.38l-0.35 0.01c-1.43,0.05 -1.35,2.15 0.05,2.2l0.36 0.01c1.42,0.04 1.38,-2.27 -0.06,-2.22z"/>
  <path class="fil0" d="M203.93 66.2c1.57,0 1.5,-2.43 -0.07,-2.43 -1.57,0 -1.5,2.43 0.07,2.43z"/>
  <path class="fil0" d="M216.01 77.26c1.65,0 1.58,-2.55 -0.06,-2.55 -1.64,0 -1.58,2.55 0.06,2.55z"/>
  <path class="fil0" d="M208.07 92.32c0.24,1.18 2.1,1.07 2.33,-0.05l-0.03 0.01c0.51,-0.85 -0.21,-1.94 -1.17,-1.92 -0.99,0.02 -1.57,1.14 -1.07,1.99l-0.05 -0.02z"/>
  <path class="fil0" d="M149.28 115.37l-0.26 0.26c-1.13,1.13 0.65,2.82 1.78,1.7l0.23 -0.22 0.22 -0.27c0.36,-0.54 0.15,-1.13 -0.27,-1.48 -0.44,-0.42 -1.12,-0.57 -1.7,0.02z"/>
  <path class="fil0" d="M133.6 110.04l0.46 0.28c0.46,0.24 1.06,0.17 1.42,-0.24 1.06,-0.84 0.05,-2.94 -1.33,-2.37l-0.75 0.46c-0.49,0.48 -0.42,1.27 0.04,1.74l0.15 0.13z"/>
  <path class="fil0" d="M138.88 74.13c-1.48,0 -1.42,2.29 0.05,2.29 1.48,0 1.43,-2.29 -0.05,-2.29z"/>
  <path class="fil0" d="M149.94 46.83c-1.13,0.23 -1.03,2 0.05,2.21l0.35 0.06c0.65,0.1 1.29,-0.2 1.46,-0.88 0.18,-0.69 -0.41,-1.62 -1.2,-1.5l-0.66 0.1z"/>
  <path class="fil0" d="M109.1 45.7c1.72,0 1.65,-2.65 -0.06,-2.65 -1.71,0 -1.65,2.65 0.06,2.65z"/>
  <path class="fil0" d="M107.67 27.37l0.71 -0c1.44,-0.12 1.35,-2.09 -0.05,-2.2l-0.71 -0.01c-1.44,0.08 -1.36,2.15 0.05,2.22z"/>
  <path class="fil0" d="M117.32 91.04c-0.67,0.17 -1.13,0.98 -0.9,1.64l0.18 0.37c0.36,1.45 2.73,1.27 2.75,-0.41 0.01,-1.13 -0.92,-1.9 -2.03,-1.6z"/>
  <path class="fil0" d="M124.36 75.01c1.49,0 1.44,-2.31 -0.05,-2.31 -1.49,0 -1.43,2.31 0.05,2.31z"/>
 </g>
</svg>
