<?xml version="1.0" encoding="UTF-8"?>
<svg xmlns="http://www.w3.org/2000/svg" xml:space="preserve" width="0.747335in" height="0.747346in" version="1.1" style="shape-rendering:geometricPrecision; text-rendering:geometricPrecision; image-rendering:optimizeQuality; fill-rule:evenodd; clip-rule:evenodd"
viewBox="0 0 143.43 143.43"
 xmlns:xlink="http://www.w3.org/1999/xlink"
 xmlns:xodm="http://www.corel.com/coreldraw/odm/2003">
 <defs>
  <style type="text/css">
   <![CDATA[
    .fil0 {fill:black;fill-rule:nonzero}
   ]]>
  </style>
 </defs>
 <g id="Layer_x0020_1">
  <metadata id="CorelCorpID_0Corel-Layer"/>
  <path class="fil0" d="M49.14 79.58c-0.02,-0.47 -0.05,-0.98 -0.13,-1.48l0.49 -0.33 0.1 -0.14c0.18,1.47 0.4,2.97 0.82,4.39 -0.4,-0.04 -0.79,-0.1 -1.19,-0.15 0.09,-0.74 -0.05,-1.57 -0.09,-2.29zm-1.35 -4.63c-0.09,-0.42 -0.1,-0.83 -0.06,-1.23 0.06,0.48 0.12,0.95 0.2,1.42l-0.01 -0.02 -0.13 -0.14 0 -0.03zm-7.33 5.21l0.17 -0.29c0.27,-1.28 0.77,-2.78 0.93,-4.21 0.15,0.61 0.22,1.24 0.29,1.75 0.15,1.09 0.22,2.19 0.23,3.28 -0.53,-0.11 -1.05,-0.22 -1.57,-0.35l-0.06 -0.18zm84.27 -53.74c3.2,3.74 6.01,7.81 8.37,12.17l-0.17 0.03c-2.72,0.55 -3.81,-0.84 -5.62,-2.24 -2.53,-1.96 -5.39,-3.57 -8.34,-4.78 -0.78,-0.32 -1.42,0.75 -0.65,1.17 3.51,1.92 7,3.68 9.76,6.64 1.9,2.04 3.64,1.01 5.98,1.01 0.52,1.04 1.02,2.1 1.5,3.17 -1.4,0.04 -2.77,0.35 -4.19,0.57 -2.95,0.46 -5.15,-0.97 -7.44,-2.57 -3.18,-2.21 -6.05,-4.03 -10.07,-3.54 -0.56,0.07 -0.96,0.53 -0.81,1.11 0.35,1.3 1.03,2.39 1.7,3.53 2.12,3.63 -3.41,1.67 -4.78,0.88 -3.4,-1.95 -6.8,-4.03 -10.68,-4.88 -0.85,-0.19 -1.15,1.06 -0.33,1.3 3.19,0.92 6.11,2.59 8.94,4.3 1.93,1.16 3.74,2.38 6.03,2.55 1.22,0.09 2.95,-0.99 3.09,-2.27 0.19,-1.8 -1.12,-3.27 -1.9,-4.86 3.93,0.03 6.69,2.65 9.98,4.71 1.22,0.76 2.83,1.57 4.31,1.56 2.31,-0 4.62,-0.8 6.91,-0.62 3.38,8.25 5.22,17.28 5.17,26.73 -0.21,38.26 -31.5,69.38 -69.75,69.38l-0.39 0c-18.64,-0.1 -36.11,-7.46 -49.22,-20.71 -13.1,-13.25 -20.26,-30.81 -20.16,-49.44 0.01,-1.75 0.09,-3.49 0.22,-5.21 1.43,0.25 2.82,0.1 4.32,-0.12 3.08,-0.46 5.41,-0.44 8.21,1.2 1.81,1.07 3.49,1.81 5.51,2.36 2.29,0.63 4.21,2.01 6.56,2.57 1.64,0.39 2.55,1.07 3.29,2.57 0.37,0.75 1.74,1.85 1.48,2.75 -0.27,0.91 0.66,1.7 1.27,2.15 2.37,1.75 6.66,2.61 9.5,3.19 1.63,0.33 3.36,0.28 5.02,0.35 0.52,0.02 7.14,0.61 7.25,1.23 0.47,2.5 4.27,3.14 6.17,3.83 1.77,0.64 1.11,1.94 0.31,3.09 -1.3,1.87 -1.86,2.62 -4.17,2.82 -1.46,0.13 -2.61,1.92 -3.91,2.53 -1.18,0.55 -1.72,1.11 -1.88,2.41 -0.12,0.94 1.25,1.34 1.47,0.37 0.5,-2.28 5.26,-3.19 6.86,-3.67 1.59,-0.48 3.1,-3.5 4.32,-4.56 0.25,-0.21 0.29,-0.6 0.22,-0.89 -0.24,-0.9 -0.58,-3.58 -1.91,-3.81 -0.92,-0.16 -2.08,-0.33 -3.13,-0.69 2.5,0.08 5.04,-0.05 7.5,-0.17 0.13,0.55 0.24,1.1 0.2,1.61 -0.24,0.47 0,1.19 0.7,1.21 3.15,0.08 6.31,0.17 9.45,0.34 1.67,0.1 3.25,0.18 4.92,0.08 0.95,-0.06 2.08,0.64 3.14,1.06 -1.52,1.76 -6.02,1.78 -6.05,4.42 -0.01,0.78 0.51,1.96 1.36,2.17 0.9,0.23 1.76,0.16 2.64,0.61 1.13,0.58 2.11,1.16 3.36,1.42 3.52,0.76 7.75,-0.71 10.44,2.63 0.84,1.05 0.15,2.05 0.5,3.11 0.33,1.02 0.83,1.56 1.64,2.25 1.48,1.27 9.54,0.87 8.85,3.53 -0.22,0.83 1.1,1.39 1.42,0.56 1.22,-3.02 -1.73,-4.01 -4.19,-4.51 -1.65,-0.33 -5.75,-0.2 -5.93,-2.71 -0.13,-1.87 -0.39,-3.64 -2.2,-4.69 -2.27,-1.32 -4.55,-1.81 -7.16,-1.84 -2.26,-0.03 -3.92,-0.09 -5.98,-1.11 -0.78,-0.39 -1.68,-0.88 -2.59,-0.86 -1.33,0.03 0.1,-1.13 0.44,-1.34 0.82,-0.48 1.74,-0.84 2.6,-1.25 1.12,-0.54 2.15,-1.2 2.66,-2.33 1.15,-0.75 1.86,-1.32 3.34,-0.98 1.05,0.24 2,0.63 3.1,0.61 1.79,-0.03 4.24,0.3 5.96,-0.06 2.25,-0.47 4.03,-2.45 5.94,-3.65 2.15,-1.34 2.51,-3.91 5.07,-5.03 2.14,-0.93 4.39,-1.25 6.37,-2.56 0.76,-0.51 1.36,-1.28 1.95,-1.96 1.39,-1.61 2.67,-1.52 4.61,-1.76 1.54,-0.19 2.2,-1.75 3.23,-2.68 2.19,-1.96 4.75,-3.41 7.45,-4.52 -0.06,0.93 -0.09,1.86 -0.11,2.79 -0.07,3.13 -0.48,6.66 0.24,9.73 0.16,0.69 1.2,0.62 1.35,-0.03 0.72,-3.06 0.3,-6.61 0.23,-9.74 -0.03,-1.08 -0.04,-2.16 -0.14,-3.24l0 -0.11 0.45 -0.16c0.82,-0.28 0.45,-1.55 -0.39,-1.29 -2.71,0.85 -5.22,2.08 -7.63,3.57 -1.7,1.06 -4.14,4.39 -6.26,4.1 -1.83,-0.24 -3.1,0.91 -4.25,2.18 -2.41,2.66 -5.22,3.02 -8.34,4.38 -1.7,0.74 -2.76,2.1 -3.68,3.65 -1.63,2.73 -5.89,4.9 -8.91,4.62 -2.31,-0.23 -4.23,-0.12 -6.54,-0.63 -1.5,-0.33 -2.68,0.42 -3.7,1.39 -1.16,-0.24 -2.03,-1.05 -3.18,-1.28 -1.38,-0.28 -2.73,-0.26 -4.13,-0.33 -3.48,-0.19 -6.91,-0.23 -10.39,-0.17 0.06,-0.45 0.02,-0.89 -0.12,-1.47l-0.07 -0.39c0.34,-0.18 0.69,-0.34 1.03,-0.49 0.4,-0.16 0.9,-0.23 1.2,-0.57 0.29,-0.32 0.27,-0.94 -0.18,-1.13 -0.55,-0.25 -1.08,-0.02 -1.6,0.2l-0.14 0.06c0.52,-0.76 1.52,-1.16 2.57,-1.87 2.3,-1.58 4.75,-2.11 7.38,-2.94 1.85,-0.57 3.44,-2.01 5,-3.09 0.85,-0.59 0.01,-1.96 -0.85,-1.37 -2.15,1.47 -4.05,2.71 -6.57,3.46 -2.64,0.79 -4.34,1.43 -6.63,3 -1.2,0.82 -2.1,1.14 -2.89,2.38 -0.3,0.45 -0.35,0.96 -0.3,1.49 -3.18,-0.17 -6.5,-0.33 -9.64,-0.01 -0.17,-0.28 -0.3,-0.59 -0.36,-0.94 -0.08,-0.4 -0.5,-0.58 -0.86,-0.61 -1.06,-0.09 -2.13,-0.2 -3.21,-0.32l-0.04 -0.23c-0.55,-1.5 -0.59,-3.11 -0.98,-4.63l0.13 -0.55c-0.12,-0.58 -0.18,-1.15 -0.23,-1.73 0.37,0.6 1.37,0.23 1.2,-0.55 -0.29,-1.35 -0.91,-2.62 -1.42,-3.9l-0.38 -0.39c-0.19,-0.21 -0.51,-0.28 -0.79,-0.24l-0.46 0.11 0.07 -0.14 0 -0.61c-0.04,-0.28 -0.06,-0.56 -0.13,-0.83 -0.19,-0.79 -1.43,-0.75 -1.58,0.04 -0.1,0.48 -0.08,1.23 0.19,1.64l0.34 0.3 -0.66 0.39 -0.09 0.11 -0.22 0.24c-0.55,1.24 -0.91,2.76 -0.49,4.09l0.22 0.32 0.08 0.16c0.29,0.41 0.38,0.89 0.47,1.37l0.15 0.26c0.23,0.8 0.3,1.6 0.31,2.44 0.01,0.57 -0.09,1.19 -0.07,1.78 -1.39,-0.2 -2.77,-0.43 -4.14,-0.69 -0.01,-1.51 0.05,-3.77 -0.5,-5.58l0.03 -0.15c0.04,-0.73 0.1,-1.47 0.14,-2.2 0.59,-0.23 1.07,-0.77 1.16,-1.4 0.04,-0.3 -0.07,-0.54 -0.25,-0.7l-0.09 -0.37c-0.42,-0.69 -0.88,-1.59 -1.53,-2.08l-0.25 -0.15 0.41 -0.2 0.09 -0.08 0.15 -0.22 0.14 -0.44c0.06,-0.27 0.1,-0.56 0.08,-0.83 -0.02,-0.4 -0.35,-0.73 -0.76,-0.72 -0.44,0.01 -0.69,0.36 -0.72,0.76l-0.02 0.14 -0.05 0.29 -0.07 0.64 0.22 0.5c-0.62,-0.07 -1.25,0.23 -1.77,0.67l-0.16 0.21c-0.55,0.77 -0.59,1.79 -0.5,2.71 0.09,0.89 0.27,2.09 0.8,2.84l0.05 0.04c-0.2,1.71 -0.71,3.37 -0.8,5.09l0.07 0.3 -0.03 0.05c-0.46,-0.11 -0.92,-0.22 -1.38,-0.35 -2.17,-0.58 -4.49,-0.77 -4.63,-3.35 -0.02,-0.44 -0.37,-0.87 -0.67,-1.15 -0.89,-0.84 -1.19,-1.98 -1.97,-2.85 -1.65,-1.85 -4.24,-1.86 -6.42,-2.74 -2.59,-1.04 -5.38,-2.27 -7.8,-3.68 -1.86,-1.08 -3.71,-2.48 -5.96,-2.52 -2.75,-0.04 -5.41,0.61 -8.15,0.66 0.62,-5.62 1.9,-11.04 3.78,-16.18 3.6,-0.06 5.92,-2.46 8.04,-5.28 1.74,-2.31 3.3,-4.3 6.14,-5.33 2.4,-0.87 4.87,-1.07 7.15,-2.29 0.9,-0.48 0.07,-1.78 -0.82,-1.33 -3.83,1.94 -8.03,1.52 -11.31,4.6 -3.13,2.94 -4.35,6.76 -8.54,7.86 8.44,-21.31 27.11,-37.53 49.87,-42.56 -2,1.48 -3.77,3.2 -5.69,4.92 -2.92,2.63 -6.44,3.49 -10.11,4.59 -3.5,1.05 -6.35,3.7 -9.16,5.9 -3.14,2.46 -5.48,6.11 -9.15,7.83 -0.71,0.33 -0.17,1.5 0.56,1.24 3.14,-1.12 5.16,-3.78 7.46,-6.06 3.09,-3.05 7.48,-6.46 11.65,-7.78 3.05,-0.96 5.89,-1.52 8.52,-3.44 1.29,-0.94 2.43,-2.1 3.57,-3.22 1.89,-1.87 3.97,-3.19 6.1,-4.69 3.66,-0.6 7.43,-0.92 11.26,-0.92l0.39 0c19.55,0.11 37.2,8.29 49.8,21.37l-0.2 -0.03c-3.1,-0.36 -4.54,-1.51 -6.45,-3.97 -2.99,-3.87 -8.43,-4.96 -12.87,-6.22 -5.04,-1.43 -10.19,-2.99 -14.91,-5.24 -4.44,-2.12 -10.35,-3.8 -15.29,-3.26 -0.87,0.09 -0.86,1.41 0.03,1.38 5.08,-0.19 10.83,1.51 15.39,3.69 3.99,1.91 8.13,2.84 12.26,4.39 2.44,0.92 5,1.5 7.46,2.33 3.33,1.13 5.25,2.86 7.43,5.5 0.91,1.11 2.06,2.39 3.5,2.81 1.75,0.52 4.68,0.09 6.01,1.45l0.46 0.27zm-52.62 -26.42l-0.4 -0c-39.32,0 -71.49,32 -71.71,71.32 -0.11,19.15 7.26,37.21 20.72,50.83 13.47,13.62 31.44,21.18 50.6,21.28l0.4 0c19.07,0 37.02,-7.41 50.55,-20.86 13.54,-13.45 21.05,-31.37 21.15,-50.46 0.11,-19.16 -7.25,-37.21 -20.72,-50.83 -13.47,-13.62 -31.44,-21.18 -50.59,-21.29z"/>
  <path class="fil0" d="M10.05 84.12l-0.11 -0.56 0.9 0.11 -0.79 0.45zm3.64 -0.94l-0.02 -0.12c-0.06,-0.28 -0.28,-0.49 -0.56,-0.52l-5.5 -0.71 -0.49 0.14 -0.24 0.45 -0.01 0.12c-0.03,0.35 0.22,0.66 0.57,0.7l1.02 0.14 0.29 1.49 -0.9 0.51c-0.3,0.17 -0.41,0.55 -0.26,0.86l0.05 0.1 0.39 0.33 0.19 0.03 0.32 -0.09 4.83 -2.73c0.24,-0.14 0.37,-0.42 0.32,-0.69z"/>
  <path class="fil0" d="M13.54 92.16l0.05 -0.5 -0.28 -0.9c-0.11,-0.34 -0.47,-0.53 -0.82,-0.42l-0.11 0.04 -0.38 0.31 -0.04 0.5 0.05 0.16 -1.45 0.45 -0.23 -0.72 0.03 -0.59 0.46 -0.37 2.24 -0.7 0.6 0.06 0.35 0.43 0.44 1.4c0.11,0.34 0.47,0.54 0.81,0.43l0.11 -0.04 0.39 -0.32 0.05 -0.5 -0.44 -1.4c-0.17,-0.52 -0.49,-0.94 -0.97,-1.22 -0.53,-0.33 -1.14,-0.4 -1.76,-0.2l-2.24 0.7c-0.58,0.18 -1.02,0.55 -1.29,1.06 -0.27,0.52 -0.32,1.08 -0.13,1.67l0.46 1.46c0.09,0.28 0.34,0.45 0.62,0.45l0.2 -0.03 2.91 -0.92 0.38 -0.32z"/>
  <path class="fil0" d="M14.99 96.8l-0.28 -0.63 1.39 -0.62 0.28 0.63 0.1 0.59c-0.02,0.13 -0.1,0.31 -0.46,0.47 -0.28,0.12 -0.48,0.14 -0.65,0.03l-0.38 -0.49zm1.6 1.75c0.9,-0.4 1.19,-1.04 1.28,-1.5 0.09,-0.46 0.02,-0.94 -0.2,-1.44l-0.59 -1.33 -0.36 -0.34 -0.5 0.02 -4.88 2.16c-0.33,0.15 -0.47,0.53 -0.33,0.86l0.05 0.1 0.36 0.35 0.5 -0.01 1.5 -0.67 0.26 0.58 -1.39 1.67c-0.23,0.27 -0.2,0.67 0.06,0.9l0.09 0.08 0.43 0.16 0.05 0 0.45 -0.23 1.2 -1.44c0.37,0.25 0.75,0.32 1.03,0.32 0.32,0 0.66,-0.08 1,-0.23z"/>
  <path class="fil0" d="M20.77 102.13l-0.07 -0.49 -0.06 -0.1c-0.18,-0.31 -0.58,-0.42 -0.89,-0.23l-4.56 2.67 -0.3 0.39 0.07 0.49 0.06 0.1 0.56 0.32 0.33 -0.09 4.56 -2.67 0.3 -0.4z"/>
  <path class="fil0" d="M23.41 108.14l0.52 0.71c0.21,0.28 0.62,0.34 0.91,0.13l0.1 -0.07 0.26 -0.43 -0.13 -0.49 -0.53 -0.7c-0.39,-0.53 -0.87,-0.83 -1.43,-0.91 -0.54,-0.08 -1.09,0.08 -1.62,0.47l-1.88 1.4c-0.52,0.39 -0.83,0.87 -0.91,1.42 -0.08,0.55 0.08,1.1 0.47,1.62l0.53 0.7 0.43 0.25 0.1 0.01 0.39 -0.13 0.09 -0.06c0.29,-0.22 0.35,-0.62 0.13,-0.91l-0.53 -0.71c-0.24,-0.32 -0.21,-0.51 -0.2,-0.57 0.01,-0.06 0.04,-0.25 0.36,-0.49l1.88 -1.41 0.57 -0.2c0.06,0.01 0.25,0.04 0.49,0.36z"/>
  <path class="fil0" d="M29.78 113.74l-0.18 -0.47 -0.08 -0.08c-0.25,-0.26 -0.65,-0.28 -0.92,-0.03l-2.78 2.61 -0.54 0.21 -0.01 0 -0.52 -0.24 -0.21 -0.54 0.25 -0.53 2.78 -2.61 0.21 -0.45 -0.18 -0.47 -0.08 -0.09c-0.24,-0.26 -0.66,-0.27 -0.92,-0.03l-2.79 2.6c-0.43,0.41 -0.67,0.93 -0.68,1.52 -0.02,0.6 0.18,1.12 0.59,1.56 0.41,0.43 0.93,0.67 1.52,0.69l0.08 0c0.57,0 1.06,-0.2 1.48,-0.59l2.79 -2.6 0.2 -0.46z"/>
  <path class="fil0" d="M32.42 115.93c-0.27,-0.23 -0.68,-0.2 -0.92,0.07l-3.47 4.06 -0.15 0.47 0.23 0.44 1.82 1.56 0.43 0.15 0.49 -0.23 0.07 -0.08 0.15 -0.48 -0.22 -0.44 -1.25 -1.06 2.97 -3.48 0.15 -0.48 -0.23 -0.44 -0.09 -0.07z"/>
  <path class="fil0" d="M39.86 121.52l-2.43 -1.65 -0.49 -0.1 -0.42 0.28 -0.06 0.1c-0.21,0.29 -0.12,0.7 0.17,0.9l0.63 0.42 -2.56 3.79 -0.1 0.49 0.28 0.42 0.1 0.07 0.36 0.11 0.54 -0.28 2.56 -3.79 0.63 0.42 0.49 0.1 0.42 -0.28 0.06 -0.1c0.2,-0.3 0.13,-0.7 -0.17,-0.9z"/>
  <path class="fil0" d="M45.63 124.85l-0.1 -0.06c-0.32,-0.16 -0.71,-0.04 -0.88,0.28l-1.78 3.37 -0.45 0.38 -0.58 -0.06 -0.37 -0.45 0.05 -0.58 1.77 -3.37 0.05 -0.5 -0.32 -0.38 -0.1 -0.06c-0.32,-0.16 -0.71,-0.04 -0.88,0.28l-1.77 3.38c-0.28,0.53 -0.33,1.09 -0.15,1.66 0.17,0.56 0.54,1 1.07,1.28 0.32,0.17 0.66,0.25 1,0.25l0.65 -0.1c0.57,-0.18 1,-0.54 1.28,-1.07l1.78 -3.38 0.04 -0.5 -0.32 -0.37z"/>
  <path class="fil0" d="M50.23 129.13c-0.16,0.42 -0.36,0.46 -0.45,0.49l-0.6 -0.09 -0.64 -0.24 0.55 -1.41 0.63 0.25 0.5 0.35c0.08,0.11 0.15,0.29 0.01,0.66zm0.01 -2.33l-1.35 -0.52c-0.33,-0.13 -0.71,0.04 -0.84,0.37l-1.94 4.98c-0.13,0.33 0.03,0.71 0.36,0.84l0.11 0.04 0.5 -0.01 0.35 -0.36 0.59 -1.53 0.59 0.23 0.19 2.16c0.03,0.34 0.31,0.59 0.65,0.59l0.03 0 0.12 -0.01 0.46 -0.22 0.16 -0.49 -0.16 -1.87c0.68,-0.13 1.2,-0.6 1.5,-1.37 0.36,-0.91 0.11,-1.58 -0.16,-1.97 -0.26,-0.39 -0.65,-0.68 -1.16,-0.88z"/>
  <path class="fil0" d="M57.73 129.17l-2.32 -0.61c-0.35,-0.09 -0.7,0.11 -0.8,0.46l-1.38 5.22 0.07 0.49 0.39 0.3 2.32 0.61 0.17 0.02 0.33 -0.09 0.3 -0.4 0.03 -0.11c0.09,-0.35 -0.12,-0.7 -0.47,-0.79l-1.59 -0.42 0.39 -1.47 1.02 0.27c0.35,0.09 0.7,-0.11 0.79,-0.46l0.03 -0.11 -0.06 -0.49 -0.4 -0.3 -1.02 -0.27 0.24 -0.9 1.58 0.42c0.35,0.09 0.7,-0.11 0.8,-0.46l0.03 -0.11 -0.07 -0.49 -0.4 -0.3z"/>
  <path class="fil0" d="M69.23 134.59l0.32 -0.85 0.26 0.88 -0.57 -0.02zm1.09 -3.27c-0.08,-0.27 -0.33,-0.46 -0.61,-0.47l-0.13 0c-0.27,0 -0.53,0.16 -0.63,0.42l-1.94 5.19 0.02 0.5 0.38 0.34 0.11 0.04c0.33,0.12 0.69,-0.06 0.82,-0.39l0.36 -0.97 1.52 0.06 0.29 0.98c0.09,0.28 0.34,0.47 0.63,0.47l0.15 -0.02 0.11 -0.03 0.41 -0.31 0.06 -0.51 -1.57 -5.32z"/>
  <path class="fil0" d="M78.25 130.76l-0.47 -0.15 -0.12 0.01c-0.36,0.02 -0.63,0.34 -0.6,0.69l0.19 2.54 -1.8 -2.74 -0.6 -0.29 -0.13 0.02c-0.36,0.02 -0.62,0.34 -0.6,0.69l0.39 5.27 0.23 0.45 0.42 0.16 0.05 -0 0.12 -0.01c0.35,-0.03 0.62,-0.34 0.59,-0.7l-0.19 -2.54 1.8 2.74c0.13,0.2 0.34,0.3 0.59,0.29l0.12 -0.01c0.36,-0.03 0.63,-0.34 0.6,-0.7l-0.4 -5.27 -0.22 -0.44z"/>
  <path class="fil0" d="M84.16 134.67l-0.53 0.35 -0.61 0.12 -0.71 -3.8 0.6 -0.11 0.62 0.13c0.25,0.14 0.39,0.32 0.44,0.59l0.38 2.02c0.05,0.27 -0.01,0.49 -0.19,0.71zm1.21 -2.99c-0.13,-0.68 -0.53,-1.22 -1.14,-1.56 -0.52,-0.28 -1.05,-0.38 -1.58,-0.28l-1.36 0.25 -0.41 0.28 -0.1 0.49 1 5.3c0.06,0.31 0.33,0.53 0.64,0.53l0.12 -0.01 1.35 -0.26c0.52,-0.1 0.98,-0.38 1.36,-0.83 0.45,-0.55 0.62,-1.19 0.49,-1.87l-0.38 -2.02z"/>
  <path class="fil0" d="M99.44 130.62c-0.14,-0.33 -0.53,-0.49 -0.86,-0.34l-0.81 0.35c-0.24,0.11 -0.44,0.14 -0.61,0.07 -0.06,-0.02 -0.23,-0.09 -0.4,-0.46l-0.94 -2.15c-0.16,-0.37 -0.09,-0.54 -0.07,-0.6 0.02,-0.06 0.09,-0.24 0.46,-0.4l0.8 -0.35 0.35 -0.36 -0.01 -0.5 -0.05 -0.11c-0.15,-0.32 -0.53,-0.47 -0.86,-0.33l-0.8 0.35c-0.6,0.26 -1.01,0.66 -1.22,1.18 -0.2,0.52 -0.17,1.08 0.09,1.68l0.94 2.15c0.26,0.6 0.66,1.01 1.18,1.22 0.22,0.08 0.45,0.13 0.7,0.13 0.32,0 0.65,-0.08 0.99,-0.22l0.81 -0.35 0.34 -0.36 -0.01 -0.5 -0.05 -0.1z"/>
  <path class="fil0" d="M104.28 127.06l-0.35 0.46 -0.58 0.08 -0.46 -0.36 -1.17 -2.03 -0.07 -0.57 0.35 -0.46 0.37 -0.11 0.21 0.03 0.46 0.35 1.18 2.03 0.07 0.58zm-0.02 -3.32c-0.3,-0.51 -0.75,-0.86 -1.32,-1.01 -0.57,-0.15 -1.14,-0.08 -1.65,0.22 -0.52,0.3 -0.86,0.75 -1.02,1.32 -0.15,0.57 -0.07,1.14 0.22,1.65l1.18 2.03c0.3,0.52 0.74,0.86 1.32,1.01l0.57 0.07c0.38,0 0.74,-0.1 1.08,-0.3 0.52,-0.3 0.86,-0.74 1.02,-1.32 0.15,-0.57 0.07,-1.14 -0.22,-1.66l-1.18 -2.03z"/>
  <path class="fil0" d="M109.22 118.42c-0.22,-0.29 -0.62,-0.35 -0.91,-0.13l-0.1 0.07 -0.26 0.59 0.21 2.19 -2.04 -0.84 -0.63 0.07 -0.1 0.07 -0.26 0.43 0.12 0.49 3.14 4.25 0.43 0.26 0.09 0.01 0.39 -0.13 0.09 -0.07c0.28,-0.21 0.35,-0.62 0.13,-0.91l-1.62 -2.19 0.88 0.37 0.64 -0.08 0.26 -0.58 -0.09 -0.95 1.62 2.19c0.22,0.29 0.62,0.35 0.91,0.13l0.1 -0.07 0.26 -0.42 -0.12 -0.49 -3.13 -4.25z"/>
  <path class="fil0" d="M114.2 113.95l-0.45 -0.21 -0.47 0.17 -0.1 0.09 -0.19 0.61 0.45 2.16 -2.12 -0.62 -0.62 0.15 -0.09 0.09 -0.21 0.45 0.17 0.47 3.59 3.88 0.45 0.21 0.02 0 0.44 -0.18 0.09 -0.08c0.27,-0.24 0.28,-0.66 0.04,-0.92l-1.85 -2 0.92 0.27 0.62 -0.15 0.2 -0.61 -0.2 -0.94 1.85 2c0.24,0.26 0.65,0.28 0.91,0.04l0.09 -0.08 0.22 -0.45 -0.18 -0.47 -3.59 -3.88z"/>
  <path class="fil0" d="M122.18 112.86l-0.47 -0.16 -0.45 0.22 -1.07 1.24 -1.15 -0.99 0.69 -0.8 0.15 -0.47 -0.22 -0.44 -0.09 -0.08c-0.27,-0.23 -0.68,-0.2 -0.92,0.07l-0.69 0.8 -0.7 -0.6 1.07 -1.24c0.23,-0.27 0.21,-0.68 -0.06,-0.92l-0.09 -0.07 -0.47 -0.16 -0.45 0.22 -1.57 1.82c-0.23,0.27 -0.2,0.68 0.07,0.91l4.08 3.53 0.43 0.16 0.05 -0 0.45 -0.22 1.57 -1.82c0.23,-0.27 0.21,-0.68 -0.06,-0.92l-0.08 -0.07z"/>
  <path class="fil0" d="M122.91 106.84l-0.39 0.56 -1.24 -0.86 0.38 -0.57 0.45 -0.4c0.2,-0.07 0.39,-0.03 0.64,0.15 0.33,0.23 0.37,0.41 0.37,0.54l-0.22 0.57zm3.5 -0.24l-1.86 -0.27c0.03,-0.69 -0.31,-1.3 -0.99,-1.77 -0.64,-0.44 -1.33,-0.54 -1.95,-0.3 -0.43,0.16 -0.81,0.48 -1.11,0.93l-0.82 1.19 -0.1 0.49 0.27 0.42 4.4 3.03 0.37 0.11 0.12 -0.01 0.42 -0.28 0.06 -0.1c0.2,-0.3 0.12,-0.7 -0.17,-0.9l-1.35 -0.93 0.36 -0.52 2.15 0.31c0.35,0.05 0.67,-0.18 0.73,-0.53l0.02 -0.11 -0.11 -0.5 -0.43 -0.26z"/>
  <path class="fil0" d="M130.15 100.72l-0.1 -0.05 -0.5 -0.05 -0.39 0.32 -0.41 0.78c-0.19,0.36 -0.37,0.41 -0.43,0.43l-0.6 -0.12 -2.07 -1.1c-0.35,-0.19 -0.41,-0.37 -0.43,-0.43 -0.02,-0.06 -0.07,-0.24 0.11,-0.6l0.42 -0.77c0.17,-0.32 0.05,-0.71 -0.27,-0.88l-0.1 -0.06 -0.5 -0.05 -0.38 0.32 -0.41 0.77c-0.31,0.58 -0.39,1.15 -0.22,1.68 0.16,0.53 0.53,0.96 1.11,1.27l2.07 1.1c0.38,0.2 0.75,0.3 1.12,0.3l0.55 -0.08c0.53,-0.17 0.96,-0.54 1.27,-1.12l0.42 -0.78c0.17,-0.32 0.05,-0.71 -0.27,-0.88z"/>
  <path class="fil0" d="M133.03 94.02l-0.1 -0.04c-0.33,-0.14 -0.71,0.03 -0.84,0.36l-0.6 1.53 -1.41 -0.56 0.39 -0.98 -0.01 -0.5 -0.35 -0.35 -0.11 -0.05 -0.5 0.01 -0.35 0.36 -0.39 0.98 -0.86 -0.34 0.61 -1.52c0.14,-0.33 -0.03,-0.71 -0.36,-0.84l-0.11 -0.05 -0.5 0 -0.35 0.36 -0.89 2.23 0.01 0.5 0.36 0.35 5.01 1.99 0.24 0.04 0.26 -0.06 0.35 -0.36 0.88 -2.23 -0.01 -0.5 -0.36 -0.35z"/>
  <path class="fil0" d="M33.67 34.78l0.46 0.19 0 0 0.46 -0.19 0.12 -0.13c0.25,-0.26 0.25,-0.67 -0,-0.91l-4.94 -4.93 0.99 -0.99c0.25,-0.26 0.25,-0.67 0,-0.92l-0.13 -0.12 -0.46 -0.19 -0 0 -0.46 0.19 -3.02 3.03c-0.26,0.26 -0.26,0.66 0,0.92l0.12 0.12 0.46 0.19 0.46 -0.19 0.99 -1 4.94 4.93z"/>
  <path class="fil0" d="M40.4 28.95l0.41 0.28 0.13 0.01 0.36 -0.11 2.92 -1.94 0.28 -0.42 -0.1 -0.49 -0.09 -0.13c-0.2,-0.3 -0.6,-0.38 -0.9,-0.18l-2.24 1.49 -1.56 -2.34 1.53 -1.02c0.3,-0.2 0.38,-0.6 0.18,-0.9l-0.09 -0.14 -0.42 -0.28 -0.49 0.1 -1.53 1.02 -1.08 -1.63 2.24 -1.49 0.28 -0.42 -0.1 -0.49 -0.1 -0.14c-0.2,-0.3 -0.6,-0.38 -0.9,-0.18l-2.92 1.94c-0.3,0.2 -0.38,0.61 -0.18,0.9l4.37 6.56z"/>
  <path class="fil0" d="M49.11 23.64l0.35 0.36 0.25 0.05 0.25 -0.05 0.15 -0.07c0.33,-0.14 0.49,-0.52 0.35,-0.85l-1.83 -4.51 4.63 3.72 0.65 0.1 0.17 -0.07c0.33,-0.14 0.49,-0.52 0.36,-0.85l-2.91 -7.14c-0.14,-0.33 -0.51,-0.5 -0.85,-0.36l-0.16 0.06 -0.36 0.35 -0 0.5 1.84 4.51 -4.63 -3.72 -0.66 -0.1 -0.17 0.07 -0.35 0.35 -0 0.5 2.91 7.14z"/>
  <path class="fil0" d="M59.76 20.63l0.12 -0.01 0.16 -0.03 0.42 -0.27 0.1 -0.49 -0.89 -4.79 3.79 4.57 0.62 0.22 0.18 -0.03c0.35,-0.06 0.59,-0.41 0.52,-0.76l-1.42 -7.58c-0.06,-0.35 -0.4,-0.59 -0.76,-0.52l-0.17 0.03 -0.42 0.27 -0.11 0.49 0.9 4.79 -3.78 -4.57 -0.62 -0.23 -0.18 0.03 -0.42 0.27 -0.1 0.49 1.42 7.58c0.06,0.31 0.33,0.53 0.64,0.53z"/>
  <path class="fil0" d="M70.72 19.35l3.51 0.08 0.01 0c0.35,0 0.64,-0.28 0.65,-0.63l0.01 -0.16 -0.18 -0.46 -0.46 -0.2 -2.69 -0.06 0.06 -2.81 1.84 0.04c0.38,0.01 0.66,-0.28 0.67,-0.64l0.01 -0.17 -0.18 -0.47 -0.46 -0.2 -1.84 -0.04 0.04 -1.95 2.69 0.06c0.37,-0.01 0.65,-0.28 0.66,-0.64l0.01 -0.17 -0.18 -0.46 -0.46 -0.2 -3.51 -0.07 -0.46 0.18 -0.2 0.46 -0.17 7.88 0.18 0.46 0.46 0.2z"/>
  <path class="fil0" d="M81.85 20.07c0.49,0.29 0.99,0.49 1.48,0.6l0.56 0.06c0.51,0 0.99,-0.16 1.42,-0.48 0.49,-0.37 0.81,-0.86 0.93,-1.43 0.15,-0.66 0.09,-1.63 -1,-2.56 -0.39,-0.32 -0.75,-0.6 -1.04,-0.84l-0.74 -0.59c-0.55,-0.45 -0.55,-0.84 -0.49,-1.13 0.05,-0.24 0.17,-0.43 0.37,-0.58 0.23,-0.18 0.51,-0.22 0.87,-0.15 0.17,0.04 0.63,0.2 1.66,0.82 0.25,0.15 0.58,0.12 0.79,-0.09l0.12 -0.12 0.2 -0.48 -0.22 -0.47c-0.59,-0.54 -1.34,-0.91 -2.24,-1.11 -0.79,-0.18 -1.5,-0.03 -2.08,0.41 -0.48,0.37 -0.79,0.85 -0.91,1.44 -0.16,0.75 -0,1.46 0.46,2.05l0.06 0.06 0.42 0.39 0.4 0.34 1.12 0.9 0.46 0.42 0.24 0.28c0.13,0.2 0.17,0.42 0.11,0.68l-0.38 0.57c-0.23,0.18 -0.47,0.23 -0.77,0.16 -0.11,-0.02 -0.59,-0.18 -2.04,-1.24 -0.25,-0.19 -0.59,-0.17 -0.82,0.03l-0.13 0.11 -0.22 0.45 0.16 0.47c0.33,0.37 0.75,0.71 1.25,1.01z"/>
  <path class="fil0" d="M91.91 23.1c0.43,0.39 0.87,0.68 1.33,0.89 0.33,0.14 0.67,0.22 1.01,0.22 0.34,0 0.69,-0.08 1.02,-0.24 0.56,-0.27 0.96,-0.68 1.2,-1.21 0.27,-0.62 0.41,-1.59 -0.47,-2.71 -0.33,-0.4 -0.61,-0.74 -0.86,-1.03l-0.61 -0.72c-0.45,-0.55 -0.38,-0.94 -0.26,-1.21l0.48 -0.5c0.26,-0.13 0.54,-0.11 0.89,0.04 0.16,0.07 0.57,0.32 1.46,1.14 0.22,0.2 0.54,0.23 0.79,0.07l0.14 -0.09 0.29 -0.43 -0.11 -0.51c-0.47,-0.65 -1.14,-1.16 -1.98,-1.53 -0.74,-0.33 -1.47,-0.33 -2.12,-0.01 -0.54,0.26 -0.94,0.68 -1.19,1.23 -0.3,0.7 -0.29,1.42 0.04,2.09l0.04 0.08 0.33 0.47 0.33 0.41 0.92 1.11 0.37 0.49 0.18 0.33c0.09,0.23 0.08,0.45 -0.02,0.7 -0.09,0.22 -0.25,0.37 -0.49,0.49 -0.26,0.13 -0.5,0.13 -0.79,0 -0.13,-0.06 -0.57,-0.33 -1.75,-1.63 -0.2,-0.23 -0.54,-0.28 -0.81,-0.12l-0.15 0.09c-0.31,0.18 -0.41,0.58 -0.23,0.89 0.25,0.44 0.6,0.85 1.02,1.23z"/>
  <path class="fil0" d="M108.8 23.37c0.21,-0.29 0.14,-0.7 -0.15,-0.91l-2.87 -2.03c-0.29,-0.21 -0.7,-0.14 -0.9,0.15l-4.55 6.43c-0.21,0.29 -0.14,0.7 0.15,0.91l2.86 2.03 0.38 0.12 0.53 -0.27 0.09 -0.13 0.11 -0.49 -0.26 -0.42 -2.2 -1.56 1.62 -2.3 1.5 1.07c0.3,0.21 0.7,0.14 0.91,-0.15l0.1 -0.14 0.11 -0.49 -0.27 -0.42 -1.5 -1.06 1.13 -1.59 2.2 1.56 0.49 0.11 0.42 -0.27 0.1 -0.14z"/>
  <path class="fil0" d="M115.3 28.23l-0.45 -0.2 -0.47 0.18 -5.73 5.4c-0.26,0.25 -0.27,0.66 -0.03,0.92l2.4 2.55 0.47 0.2 0.45 -0.18 0.12 -0.11 0.2 -0.45 -0.18 -0.47 -1.84 -1.96 2.05 -1.92 1.26 1.34c0.24,0.26 0.65,0.27 0.91,0.03l0.13 -0.11 0.2 -0.46 -0.17 -0.47 -1.26 -1.34 1.42 -1.34 1.85 1.96c0.25,0.26 0.66,0.28 0.92,0.03l0.13 -0.12 0.21 -0.45 -0.18 -0.47 -2.4 -2.56z"/>
  <path class="fil0" d="M37.75 51.36c3.08,-1.28 6.11,-1.64 9.39,-2.04 2.97,-0.37 5.1,-1.96 7.87,-2.82 0.75,-0.23 0.59,-1.53 -0.23,-1.41 -1.22,0.18 -2.11,0.56 -3.19,1.14 -2.12,1.13 -4.21,1.47 -6.58,1.7 -2.72,0.26 -5.49,0.69 -7.83,2.17 -0.66,0.41 -0.18,1.58 0.57,1.27z"/>
  <path class="fil0" d="M94.01 42.32c-1.72,0.11 -3.42,-0.03 -5.12,-0.18l0.28 -0.14c0.61,-0.34 0.31,-1.35 -0.38,-1.3 -1.59,0.12 -3.09,0.84 -4.66,1.18 -0.54,0.01 -1.08,0.03 -1.63,0.1 -4.06,0.43 -7.94,1.31 -12.06,1.51 -3.48,0.17 -7.37,-0.27 -10.73,0.7 -1.06,0.3 -0.82,2.13 0.31,1.96 3.06,-0.45 6.15,-0.06 9.23,-0.25 3.87,-0.24 7.67,-0.28 11.47,-1.18 3.81,-0.9 7.51,-0.23 11.32,0.14 1.6,0.15 3.24,-0.12 4.84,-0.11 2.13,0.02 3.9,1.51 5.67,2.53 1.03,0.59 2.2,1.01 3.35,1.28 1.91,0.44 1.87,0.84 2.12,2.71 0.16,1.2 0.88,1.94 1.81,2.45 0.35,1.83 -4.37,5.01 -5.03,5.38 -2.63,1.52 -5.69,2.5 -8.56,3.48 -1.98,0.67 -4.19,1.15 -5.3,3.14 -1.61,2.88 -2.59,5.19 -5.7,6.82 -0.92,0.49 -0.22,1.86 0.73,1.61 3.07,-0.82 5.03,-3.41 6.35,-6.17 1.12,-2.34 3.36,-2.71 5.61,-3.48 2.07,-0.71 4.12,-1.51 6.12,-2.4 1.76,-0.78 7.07,-4.48 7.99,-7.55l0.25 0.07c0.51,0.14 1,0.33 1.47,0.55l-0.02 0.03c-0.51,0.53 0.03,1.55 0.78,1.27 0.29,-0.11 0.55,-0.27 0.8,-0.44 1.76,1.08 3.41,2.37 5.52,2.87l0.25 0.06c0.12,0.26 0.28,0.5 0.46,0.74 -1.72,2.41 -3.37,5.35 -6.38,6.13 -2.41,0.62 -4.32,0.27 -5.66,2.76 -0.42,0.79 0.71,1.38 1.19,0.66 1.6,-2.39 5.05,-1.51 7.34,-3.06 2.12,-1.43 3.47,-4.04 4.96,-6.04l0.15 -0.71c2.69,0.6 5.33,1.19 8.01,2.06 1,0.33 1.81,-1.14 0.99,-1.81 -2.49,-2.05 -5.4,-2.65 -8.52,-3.17 -2,-0.34 -3.69,-0.68 -5.49,-1.67 -1.4,-0.77 -2.64,-1.74 -4.11,-2.38 -1.55,-0.67 -3.55,-0.68 -3.63,-2.91l-0 -0.09c3.09,1.48 6.55,2.89 9.83,2.03 0.86,-0.22 0.45,-1.47 -0.39,-1.3 -2.08,0.42 -5.26,-0.76 -7.21,-1.54 -1.13,-0.45 -2.07,-1.12 -3.16,-1.5 -0.68,-0.49 -1.31,-0.73 -2.18,-0.94 -1.92,-0.46 -3.51,-1.13 -5.2,-2.17 -2.68,-1.64 -5,-1.93 -8.1,-1.73z"/>
  <path class="fil0" d="M55.35 58.35c1.31,-1.75 0.81,-4.13 2.51,-5.61 1.47,-1.27 0.23,-3.28 1.28,-4.71 0.63,-0.85 -0.72,-1.67 -1.41,-1.03 -1,0.92 -1.09,1.82 -1.03,3.16 0.05,1.06 -0.79,1.78 -1.46,2.6 -1.45,0.27 -3,-0.02 -4.45,-0.12 -2.58,-0.18 -4.87,0.96 -7.41,1.14 -0.84,0.06 -0.82,1.38 0.03,1.32 2.75,-0.18 5.24,-1.26 8.04,-1.06 0.99,0.07 2.02,0.22 3.03,0.19l-0.03 0.34c0,1.92 -0.9,2.67 -2.09,3.3 -2.44,-0.53 -5.03,-1.79 -7.54,-1.33 -3.42,0.63 -6.37,2.54 -9.91,2.61 -0.86,0.02 -0.82,1.34 0.03,1.33 2.4,-0.01 4.44,-0.7 6.65,-1.56 1.82,-0.71 3.43,-1.17 5.46,-0.93 1.15,0.13 2.27,0.51 3.39,0.86l-0.26 0.15c-1.25,0.76 -1.44,2.8 -2.8,3.24 -1.08,0.35 -0.58,1.88 0.5,1.66 1.3,-0.27 1.83,-0.81 2.33,-2.03 0.98,-2.39 3.79,-1.71 5.13,-3.5z"/>
  <path class="fil0" d="M45.53 62.55c-0.88,-0.1 -1.97,-0.15 -2.81,0.17 -0.71,0.28 -0.59,1.34 0.22,1.35 0.38,0 0.75,-0.07 1.13,-0.09 0.44,-0.03 0.87,-0.02 1.31,-0.07 0.31,-0.03 0.58,-0.21 0.65,-0.52 0.09,-0.33 -0.12,-0.79 -0.5,-0.84z"/>
  <path class="fil0" d="M78.95 70.43c-1.44,-0.48 -2.79,-1.58 -4.33,-1.46 -2.64,0.2 -3.61,-1.05 -5.66,-2.25 -1.86,-1.09 -4.17,-1.64 -6.19,-2.31 -2.92,-0.96 -4.68,-2.91 -7.22,-4.41 -0.86,-0.51 -1.78,0.75 -1.03,1.41 1.74,1.53 3.42,3.09 5.5,4.15 2.92,1.47 6.51,1.6 9.12,3.73 1.18,0.96 2.55,2.33 4.24,2.21 1.96,-0.14 3.41,0.98 5.37,0.8 1.08,-0.1 1.23,-1.53 0.2,-1.87z"/>
  <path class="fil0" d="M111.56 114.73c0.88,-0.54 0.22,-1.75 -0.7,-1.56 -0.88,0.18 -1.38,0.1 -1.83,-0.74 -0.36,-0.67 -1.59,-0.35 -1.48,0.44 0.25,1.8 2.46,2.8 4.02,1.86z"/>
  <path class="fil0" d="M94.5 113.9c0.69,0.18 1.34,0.36 2.05,0.41 0.81,0.07 1.64,-0.4 2.3,-0.82 0.89,-0.57 1.42,0.32 1.81,1.15 -2.63,-0.18 -5.33,-0.1 -7.96,0.05 0.22,-0.9 0.71,-1.07 1.79,-0.79zm-3.29 0.98c-0.51,0.32 -0.36,1.22 0.38,1.27 3.36,0.22 6.89,0.35 10.25,0.02 0.39,-0.04 0.6,-0.29 0.65,-0.56 0.19,-0.25 0.26,-0.58 0.06,-0.93 -0.77,-1.36 -1.13,-2.53 -2.72,-3.01 -1.43,-0.43 -2.48,1.24 -3.99,0.93 -2.36,-0.48 -4.48,-0.45 -4.63,2.28z"/>
  <path class="fil0" d="M74.61 108.69c0.18,-0.42 0.39,-0.84 0.74,-1.12 0.5,-0.38 1.4,0.01 1.92,0.14 0.43,0.11 1.03,0.39 1.48,0.22 0.8,-0.3 1.15,0.1 1.54,0.63 -1.87,-0.1 -3.84,-0.01 -5.68,0.13zm7.38 1.47c0.39,-0.06 0.65,-0.41 0.69,-0.76 0.19,-0.28 0.21,-0.68 -0.1,-1.02 -0.21,-0.24 -0.51,-0.35 -0.81,-0.46 -0.59,-0.73 -1.11,-1.87 -2.2,-1.86 -0.36,0 -0.65,0.04 -0.99,0.22 -0.44,0.23 -1.45,-0.23 -1.93,-0.3 -2.02,-0.31 -3.32,1.02 -3.65,2.97l0.03 0.34c-0.06,0.35 0.15,0.77 0.64,0.81 2.65,0.23 5.66,0.42 8.3,0.06z"/>
  <path class="fil0" d="M105.87 72.25c-3.31,1.54 -5.1,4.99 -8.63,6.28 -0.8,0.29 -0.43,1.55 0.39,1.27 3.66,-1.23 5.75,-4.46 8.95,-6.41 0.76,-0.46 0.06,-1.5 -0.71,-1.14z"/>
  <path class="fil0" d="M123.81 51.35c2.25,-0.2 4.36,-0.22 6.59,0.15 1.78,0.3 3.25,1.47 5.12,1.35 0.92,-0.06 0.86,-1.35 -0.03,-1.41 -2.1,-0.14 -3.99,-1.29 -6.08,-1.58 -1.93,-0.26 -3.91,-0.19 -5.81,0.18 -0.74,0.15 -0.54,1.38 0.21,1.31z"/>
  <path class="fil0" d="M42.29 43.35c7.85,-3.09 16.28,-4.24 24.65,-4.78 3.92,-0.25 7.79,-0.15 11.71,0.06 2.35,0.12 4.68,0.11 7.03,0.01 2.39,-0.1 4.66,-1.09 6.98,-0.51 -0.27,0.25 -0.53,0.5 -0.79,0.75 -0.65,0.37 -0.16,1.54 0.55,1.22 1.06,-0.47 1.62,-0.9 2.24,-1.91 0.2,-0.33 0.06,-0.84 -0.29,-1.01 -1.46,-0.68 -2.62,-0.88 -4.24,-0.7 -2.77,0.3 -5.32,0.75 -8.12,0.77 -4.71,0.03 -9.36,-0.48 -14.08,-0.25 -8.79,0.43 -17.85,1.66 -26.02,5.07 -0.78,0.32 -0.42,1.6 0.38,1.28z"/>
  <path class="fil0" d="M39.84 46.79c1.5,-0.18 2.96,-0.58 4.41,-1 0.84,-0.24 0.45,-1.46 -0.38,-1.28 -1.36,0.3 -2.67,0.76 -4.06,0.95 -0.83,0.11 -0.82,1.42 0.04,1.33z"/>
  <path class="fil0" d="M117.31 92.91c0.34,-0.17 0.66,-0.37 0.95,-0.58 -0.19,2.79 -0.01,5.7 0.13,8.45 0.05,0.89 1.33,0.84 1.37,-0.04 0.16,-3.17 0.39,-6.58 0.01,-9.75 0.42,-0.45 0.8,-0.95 1.16,-1.46 -0.05,1.94 -0.03,3.89 0.06,5.82 0.04,0.9 1.34,0.85 1.38,-0.03 0.11,-2.59 0.1,-5.22 -0.01,-7.81l-0.03 -0.15c0.53,-0.86 1.06,-1.71 1.63,-2.5 -0.09,2.12 -0.06,4.26 0.05,6.37 0.05,0.91 1.36,0.86 1.41,-0.03 0.13,-2.59 0.17,-5.23 -0.03,-7.81l-0.03 -0.13c0.42,-0.39 0.87,-0.74 1.37,-1.04 0.04,0.48 0.07,0.95 0.13,1.43 0.1,0.89 1.27,0.83 1.36,-0.04 0.04,-0.35 0.06,-0.69 0.06,-1.03 0.01,-0.39 0.13,-0.72 0.2,-1.1l0 -0.03c0.63,-0.3 0.45,-1.46 -0.31,-1.35 -6.22,0.91 -6.51,9.04 -11.56,11.7 -0.75,0.4 -0.06,1.5 0.69,1.12z"/>
  <path class="fil0" d="M19.8 91.98c1,-0.93 4.96,-0.28 6.29,-0.33 2.73,-0.1 5.01,-1.13 7.54,0.41 1.49,0.91 2.81,2.02 4.17,3.11l0.28 0.23c1.06,0.84 2.15,1.67 3.36,2.35 2.77,1.56 6.71,2.13 8.96,4.39 -0.77,3.6 5.95,4.22 8.13,4.47 1.74,0.21 3.48,0.27 5.23,0.33 2.35,0.08 4.3,1.78 3.14,4.02 -1.13,2.18 -4.31,2.82 -6.47,3.12 -0.85,0.12 -0.87,1.39 0.03,1.36 3.16,-0.13 6.01,-0.99 7.87,-3.69 1.39,-2.02 0.6,-4.26 -1.23,-5.61 -2.26,-1.66 -15.56,-0.45 -15.13,-3.83l-0.05 -0.39 -0.1 -0.33c-0.55,-0.76 -1.22,-1.35 -1.96,-1.84 0.1,-0.47 0.05,-0.97 0.03,-1.52 -0.04,-1.15 -0.11,-2.3 -0.19,-3.44 -0.06,-0.92 -1.35,-0.86 -1.42,0.03 -0.07,1.03 -0.14,2.06 -0.18,3.08 -0.01,0.29 -0.04,0.58 -0.05,0.88 -0.27,-0.12 -0.56,-0.24 -0.84,-0.35 0.15,-1.77 0.16,-3.64 -0.02,-5.38 -0.09,-0.92 -1.31,-0.85 -1.4,0.04 -0.15,1.53 -0.18,3.19 -0.07,4.77 -0.38,-0.15 -0.77,-0.3 -1.15,-0.45 0.14,-0.88 0.04,-1.82 0.02,-2.7 -0.03,-1.21 -0.07,-2.41 -0.13,-3.62 -0.04,-0.89 -1.34,-0.85 -1.37,0.03 -0.06,1.2 -0.1,2.42 -0.13,3.62 -0.01,0.62 -0.06,1.26 -0.05,1.89 -0.45,-0.24 -0.9,-0.5 -1.32,-0.78 0.14,-0.65 0.04,-1.32 0.01,-2.02 -0.05,-1.24 -0.1,-2.49 -0.17,-3.73 -0.06,-0.91 -1.34,-0.86 -1.4,0.04 -0.06,1.09 -0.1,2.18 -0.15,3.28 -0.02,0.39 -0.06,0.78 -0.08,1.16l-0.64 -0.49c0.36,-2.31 0.06,-4.99 -0.11,-7.23 -0.07,-0.93 -1.35,-0.87 -1.42,0.03 -0.14,1.79 -0.35,3.84 -0.25,5.76 -0.35,-0.28 -0.71,-0.56 -1.07,-0.84 0.25,-1.91 0.12,-4.09 -0.09,-5.94 -0.08,-0.71 -1.26,-0.97 -1.36,-0.15 -0.18,1.54 -0.3,3.28 -0.21,4.92 -0.25,-0.15 -0.5,-0.29 -0.76,-0.43l-0.04 -0.27c-0.26,-1.1 -0.03,-2.47 -0.03,-3.6 -0.01,-1.11 -0.05,-2.2 -0.19,-3.3 -0.09,-0.72 -1.28,-1 -1.39,-0.15 -0.12,0.99 -0.2,1.95 -0.21,2.95 -0.01,1.13 0.19,2.47 0.04,3.62 -0.39,-0.08 -0.79,-0.12 -1.19,-0.13 0.09,-1.01 -0.09,-2.14 -0.19,-3.03 -0.08,-0.72 -1.28,-0.99 -1.38,-0.15 -0.08,0.66 -0.13,1.32 -0.15,1.99 -0.01,0.4 -0.05,0.85 -0.04,1.29l-0.66 0.09c0.04,-0.43 0.02,-0.86 0.02,-1.32 -0.01,-1.07 -0.08,-2.14 -0.16,-3.2 -0.08,-0.94 -1.36,-0.88 -1.43,0.03 -0.11,1.41 -0.44,3.24 -0.12,4.72 -0.43,0.05 -0.85,0.09 -1.26,0.1l-0.25 0c-0.16,-0.49 -0.1,-1.08 -0.11,-1.58 -0.01,-0.55 -0.02,-1.11 -0.09,-1.65 -0.09,-0.73 -1.28,-1.01 -1.39,-0.16 -0.07,0.52 -0.09,1.04 -0.11,1.57 -0.02,0.49 0.13,1.27 -0.06,1.71l-0.01 0.03c-0.3,-0.02 -0.61,-0.03 -0.92,-0.04 0.19,-1.57 -0.13,-3.38 -0.21,-4.85 -0.05,-0.94 -1.4,-0.89 -1.44,0.03 -0.07,1.48 -0.4,3.3 -0.19,4.88l-0.67 0.12c0.1,-1.11 -0.01,-2.26 -0.03,-3.36 -0.03,-1.72 -0.14,-3.44 -0.24,-5.15 -0.06,-0.97 -1.43,-0.92 -1.49,0.03 -0.1,1.73 -0.2,3.44 -0.24,5.17 -0.03,1.53 -0.23,3.14 0.22,4.63 -0.08,0.72 0.85,1.36 1.53,0.72z"/>
  <path class="fil0" d="M57.69 101.17c1.11,0.68 2.53,0.78 3.78,0.89 3.99,0.35 8.22,-1.06 11.72,1.52 0.57,0.42 1.59,-0.18 1.06,-0.86 -1.43,-1.86 -3.49,-2.31 -5.74,-2.49 -1.31,-0.1 -8.8,0.8 -10.38,-0.51 3.23,-1.67 9.68,-1.96 8.92,-6.74 -0.14,-0.9 -1.32,-0.88 -1.41,0.03 -0.42,4.07 -6.34,3.99 -9.17,5.79 -0.48,0.3 -0.49,1.04 -0.07,1.36 0.3,0.44 0.85,0.74 1.29,1.01z"/>
  <path class="fil0" d="M67.18 90.91c2.89,0.1 5.83,0.02 8.7,0.41 0.46,0.06 -1.13,1.6 -1.38,2 -1.12,1.83 -0.82,3.88 1.02,5.1 0.38,0.25 0.97,0.33 1.4,0.43 1.72,0.39 2.6,1.15 3.55,2.69 0.59,0.95 1.5,1.48 2.5,1.87 2.48,0.95 11.5,1.95 5.47,6.23 -0.77,0.55 -0.08,1.59 0.75,1.22 2.68,-1.22 4.02,-4.9 1.14,-6.83 -1.43,-0.95 -3.08,-1.28 -4.74,-1.61 -1.43,-0.27 -2.79,-0.44 -3.8,-1.7 -0.56,-0.71 -0.84,-1.62 -1.62,-2.17 -1.76,-1.26 -6.49,-1.56 -4.13,-4.71 0.61,-0.82 1.62,-1.42 1.87,-2.45 0.73,-2.91 -9.71,-1.86 -10.76,-1.82 -0.88,0.03 -0.83,1.32 0.03,1.35z"/>
  <path class="fil0" d="M71.67 113.44c-1.08,0.42 -2.07,0.93 -3.1,1.44 -0.41,0.21 -0.59,0.78 -0.45,1.2 0.75,2.26 -3.69,4.44 -5.23,5.31 -2.35,1.33 -4.84,2.13 -7.35,3.07 -0.67,0.25 -0.8,1.4 0.04,1.54 3.52,0.55 15.91,-4.92 14.81,-9.84 0.63,-0.46 1.26,-0.92 1.89,-1.37 0.64,-0.46 0.23,-1.67 -0.6,-1.34z"/>
  <path class="fil0" d="M91.61 121.46c-1.18,-0.81 -2.42,-1.52 -3.51,-2.45 -1.31,-1.11 -1.39,-2.28 -1.32,-3.9 0.03,-0.8 -1.02,-0.9 -1.39,-0.34 -1.53,2.32 -0.17,4.79 1.7,6.4 1.06,0.91 2.27,1.62 3.31,2.55 1.24,1.1 0.93,1.69 1.16,3.15 0.14,0.9 1,1.23 1.71,0.66 2.21,-1.8 0.06,-4.89 -1.66,-6.07z"/>
  <path class="fil0" d="M80.01 120.1c-0.45,-0.63 -1.36,-0.34 -1.4,0.42 -0.12,2.21 2.36,4.14 1.37,6.27 -0.26,0.56 0.22,1.43 0.92,1.14 3.39,-1.41 0.43,-5.97 -0.89,-7.83z"/>
  <path class="fil0" d="M97.93 72.33c0.18,-0.32 0.17,-0.84 -0.15,-1.08l-0.6 -0.18 -0.25 0.04 -0.37 0.2 -0.66 0.3c-0.53,0.23 -1.01,0.49 -1.48,0.8 -0.63,0.42 -0.2,1.47 0.55,1.23 0.66,-0.22 1.3,-0.36 1.94,-0.63 0.35,-0.15 0.81,-0.31 1.01,-0.67z"/>
  <path class="fil0" d="M99.28 70.01c0.26,-0.06 0.47,-0.19 0.6,-0.44 0.16,-0.31 0.12,-0.71 -0.15,-0.96 -0.39,-0.36 -0.84,-0.24 -1.26,-0.06 -0.38,0.16 -0.72,0.32 -1.03,0.6 -0.5,0.45 0.06,1.37 0.69,1.12 0.26,-0.1 0.53,-0.16 0.8,-0.21l0.01 -0 0.34 -0.05z"/>
  <path class="fil0" d="M100.7 70.45c0.48,0.43 1.02,0.71 1.67,0.76 0.72,0.05 1.53,-0.36 1.51,-1.17 -0.01,-0.39 -0.36,-0.75 -0.77,-0.73l-0.57 0.15 -0.06 0.01 -0.16 -0c-0.24,-0.01 -0.67,-0.14 -0.97,-0.2 -0.65,-0.12 -1.2,0.69 -0.65,1.18z"/>
  <path class="fil0" d="M103.78 68.38c0.46,-0.22 0.84,-0.64 0.84,-1.17 0,-0.49 -0.49,-0.78 -0.94,-0.67 -0.47,0.11 -0.68,0.6 -1.11,0.66 -0.88,0.1 -0.85,1.31 0.03,1.38 0.39,0.03 0.79,-0.01 1.18,-0.19z"/>
  <path class="fil0" d="M106.88 66.84c-0.28,0.15 -0.46,0.35 -0.7,0.52 -0.23,0.17 -0.49,0.3 -0.74,0.41 -0.7,0.31 -0.58,1.29 0.21,1.33 0.98,0.06 1.99,-0.54 2.31,-1.48 0.21,-0.63 -0.57,-1.07 -1.07,-0.78z"/>
  <path class="fil0" d="M107.95 63.12c-0.26,0.12 -0.39,0.33 -0.57,0.54 -0.19,0.24 -0.43,0.46 -0.65,0.68 -0.4,0.4 -0.84,0.75 -1.27,1.12 -0.49,0.44 0.07,1.38 0.69,1.12 0.66,-0.28 1.23,-0.63 1.78,-1.09 0.53,-0.45 1.13,-1.02 1.16,-1.75 0.02,-0.62 -0.67,-0.85 -1.14,-0.62z"/>
  <path class="fil0" d="M109.84 66.05c1.11,-0.41 2.43,-1.84 2.13,-3.11 -0.17,-0.74 -1.21,-0.78 -1.56,-0.17 -0.21,0.39 -0.28,0.69 -0.52,1.07 -0.23,0.36 -0.48,0.73 -0.76,1.06 -0.42,0.5 0.01,1.41 0.71,1.15z"/>
  <path class="fil0" d="M113.33 60.79c-0.3,0.04 -0.58,0.1 -0.86,0.21 -0.24,0.1 -0.42,0.25 -0.49,0.52 -0.07,0.29 0.05,0.68 0.35,0.8 0.59,0.24 1.73,0.34 1.84,-0.56 0.05,-0.47 -0.27,-1.05 -0.84,-0.98z"/>
  <path class="fil0" d="M109.31 62.4c0.34,0.19 0.72,0.04 0.92,-0.27 0.35,-0.54 0.87,-1.07 0.88,-1.75 0.01,-0.56 -0.65,-0.85 -1.09,-0.59 -0.64,0.37 -0.8,1.22 -1.04,1.86 -0.11,0.28 0.09,0.62 0.33,0.76z"/>
  <path class="fil0" d="M116.31 59.16c0.46,-0.26 0.45,-1.01 -0.03,-1.25 -0.47,-0.23 -0.92,-0.19 -1.41,-0.08l-0.63 0.2 -0.57 0.3c-0.71,0.28 -0.58,1.33 0.21,1.34 0.43,0 0.8,-0 1.22,-0.11 0.41,-0.1 0.83,-0.18 1.2,-0.39z"/>
  <path class="fil0" d="M112.2 56.65c-0.42,0.24 -0.77,0.82 -0.86,1.3 -0.12,0.69 0.67,1.16 1.19,0.65 0.3,-0.3 0.66,-0.75 0.72,-1.18 0.08,-0.6 -0.49,-1.11 -1.06,-0.77z"/>
  <path class="fil0" d="M89.45 76.19c-0.53,-0.01 -1.02,0.26 -1.49,0.47 -0.29,0.12 -0.51,0.34 -0.5,0.68 0.01,0.36 0.34,0.73 0.72,0.68 0.56,-0.06 1.16,-0.24 1.65,-0.54 0.62,-0.37 0.29,-1.28 -0.38,-1.3z"/>
  <path class="fil0" d="M91.69 75.51c0.19,-0.24 0.26,-0.55 0.09,-0.83 -0.15,-0.24 -0.49,-0.4 -0.78,-0.29l-0.54 0.13c-0.65,0.15 -0.59,1.14 0.03,1.27 0.41,0.1 0.91,0.09 1.19,-0.28z"/>
  <path class="fil0" d="M73.25 82.81c-0.39,-0.07 -0.68,0.07 -1.06,0.12 -0.31,0.04 -0.57,0.19 -0.65,0.52 -0.09,0.33 0.13,0.78 0.5,0.83 0.58,0.08 1.1,0.17 1.55,-0.28 0.37,-0.36 0.18,-1.09 -0.34,-1.19z"/>
  <path class="fil0" d="M73.57 80.54c-0.79,-0.17 -1.64,0.34 -2.18,0.87 -0.58,0.56 0.19,1.4 0.84,1.04l0.58 -0.27c0.32,-0.12 0.67,-0.17 0.95,-0.35 0.5,-0.32 0.41,-1.16 -0.2,-1.29z"/>
  <path class="fil0" d="M110.67 73.23c-0.46,0.3 -1.03,0.64 -1.36,1.07 -0.38,0.49 -0.15,1.34 0.57,1.3 0.83,-0.06 1.39,-0.74 1.81,-1.39 0.4,-0.63 -0.43,-1.35 -1.02,-0.98z"/>
  <path class="fil0" d="M115.5 70.66l-0.53 0.24 -0.32 0.27c-0.06,0.07 -0.35,0.36 -0.08,0.14 -0.25,0.2 -0.4,0.47 -0.3,0.8 0.11,0.37 0.51,0.58 0.88,0.47l0.24 -0.04 0.45 -0.21c0.29,-0.2 0.46,-0.46 0.57,-0.79 0.17,-0.55 -0.41,-1 -0.92,-0.87z"/>
  <path class="fil0" d="M98.27 82.96c-0.52,0.14 -0.94,0.51 -1.36,0.83 -0.3,0.23 -0.43,0.6 -0.22,0.95 0.21,0.32 0.63,0.41 0.95,0.22 0.46,-0.27 0.92,-0.53 1.33,-0.87 0.56,-0.46 -0.09,-1.29 -0.7,-1.13z"/>
  <path class="fil0" d="M101.2 81.22c-0.41,0.09 -0.76,0.39 -0.94,0.76 -0.4,0.8 0.7,1.36 1.19,0.65l0.09 -0.02 0.36 -0.27c0.23,-0.2 0.24,-0.59 0.09,-0.83 -0.17,-0.28 -0.48,-0.36 -0.78,-0.3z"/>
  <path class="fil0" d="M100.65 83.69c-0.54,0.16 -0.99,0.56 -1.47,0.84 -0.68,0.4 -0.18,1.59 0.58,1.28 0.64,-0.27 1.31,-0.49 1.72,-1.09 0.37,-0.54 -0.27,-1.19 -0.83,-1.03z"/>
  <path class="fil0" d="M94 85.2c-0.3,0.01 -0.62,0.09 -0.91,0.04 -0.3,-0.05 -0.6,0.05 -0.76,0.33 -0.17,0.3 -0.07,0.76 0.27,0.92 0.59,0.27 1.18,0.27 1.77,-0.01 0.65,-0.3 0.26,-1.29 -0.38,-1.28z"/>
  <path class="fil0" d="M92.02 82.59c-0.44,-0.16 -0.93,-0.12 -1.38,-0.15 -0.75,-0.06 -0.95,1.05 -0.34,1.38 0.52,0.28 1.19,0.35 1.75,0.15 0.7,-0.25 0.63,-1.15 -0.03,-1.38z"/>
  <path class="fil0" d="M95.48 82.19c-0.45,-0.1 -0.87,-0 -1.28,0.2 -0.68,0.34 -0.16,1.49 0.55,1.22 0.2,-0.08 0.51,-0.05 0.76,-0.1 0.67,-0.15 0.61,-1.18 -0.03,-1.32z"/>
  <path class="fil0" d="M88.61 84.81c-0.26,0.05 -0.53,0.06 -0.8,0.08 -0.88,0.08 -0.82,1.27 0.03,1.34 0.39,0.04 0.78,0.01 1.15,-0.14 0.81,-0.33 0.46,-1.45 -0.39,-1.29z"/>
  <path class="fil0" d="M83.88 84.04c-0.36,-0.05 -0.69,-0.04 -1.05,-0.02 -0.88,0.06 -0.82,1.3 0.03,1.35 0.29,0.02 0.58,0.05 0.87,0 0.3,-0.04 0.56,-0.19 0.64,-0.51 0.08,-0.33 -0.13,-0.77 -0.49,-0.82z"/>
  <path class="fil0" d="M87.23 82.6c-0.18,-0.29 -0.48,-0.35 -0.79,-0.3 -0.29,0.05 -0.55,0.18 -0.74,0.4 -0.5,0.6 0.17,1.49 0.87,1.07l0.2 -0.07 0.38 -0.25c0.23,-0.2 0.23,-0.6 0.09,-0.84z"/>
  <path class="fil0" d="M45.88 111.41c0.88,0.51 1.51,1.48 2.07,2.41 -1,0.14 -2.01,0.34 -2.99,0.59 -0.07,-0.88 -1.15,-1.77 -2.31,-2.5 0.98,-0.71 1.83,-1.32 3.23,-0.49zm-6.22 0.81c0.61,0.35 3.65,1.82 3.61,2.55l0.01 0.12c-1.64,0.53 -3.23,1.2 -4.7,1.98 -0.74,0.4 -0.33,1.52 0.45,1.51 1.05,-0.01 1.21,-0.09 2.16,-0.55 2.05,-1 3.83,-1.39 6.1,-1.59 3.28,-0.3 6.32,-0.62 9.63,-0.45 0.8,0.04 0.83,-1.11 0.15,-1.33 -2.31,-0.75 -4.78,-0.99 -7.25,-0.84 -0.25,-0.39 -0.5,-0.78 -0.78,-1.19 0.58,-0.05 1.15,-0.15 1.69,-0.24 0.72,-0.11 1.03,-1.3 0.15,-1.41 -0.97,-0.12 -2.02,-0.05 -3,0.15 -0.6,-0.65 -1.29,-1.19 -2.13,-1.47 -1.51,-0.5 -3.74,0.13 -4.68,1.54 -0.38,-0.2 -0.71,-0.37 -0.92,-0.49 -3.18,-1.79 -5.7,-0.5 -7.79,2.18 -0.59,0.75 0.41,1.76 1.09,1.04 1.93,-2.04 3.59,-2.99 6.18,-1.53z"/>
  <path class="fil0" d="M72.84 73.55c-1.9,0.19 -3.71,0.62 -5.49,1.31 -1.14,0.44 -3.25,2.28 -4.25,1.76 -2.33,-1.22 -5.64,-1.91 -8.27,-1.71 -0.86,0.07 -0.84,1.38 0.03,1.35 2.55,-0.09 6.18,0.7 8.3,2.16l0.76 -0.02c2.98,-1.83 5.79,-2.62 9.14,-3.42 0.8,-0.19 0.59,-1.51 -0.23,-1.43z"/>
  <path class="fil0" d="M37.91 72.26c-4.49,-0.1 -4.98,-4.16 -7.67,-6.89 -1.09,-1.09 -2.54,-1.44 -4.01,-1.58 -1.88,-0.18 -3.06,0.39 -4.9,-0.16 0.59,-0.79 0.44,-1.6 -0.11,-2.65 -2.29,-4.36 3.6,-5.75 6.81,-6.53 1.44,-0.35 2.4,-1.06 3.08,-2.35 0.46,-0.86 0.79,-1.81 1.11,-2.73 0.61,-1.74 3,-1.98 4.57,-2.56 0.87,-0.32 0.49,-1.6 -0.42,-1.38 -1.52,0.37 -4.83,0.87 -5.45,2.69 -0.37,1.08 -0.72,2.16 -1.19,3.21 -0.68,1.53 -2.33,1.71 -3.79,2.04 -2.18,0.5 -4.77,1.6 -6.11,3.49 -0.51,0.72 -1.18,1.63 -0.98,2.58 0.18,0.87 1.67,2.67 1.11,3.59 -0.96,-0.52 -1.84,-1.18 -2.91,-1.57 -0.73,-0.26 -1.16,0.91 -0.49,1.25 2.36,1.22 4.1,2.69 6.85,2.79 1.83,0.06 3.12,-0.48 4.95,0.39 1.16,0.55 1.88,1.81 2.52,2.86 1.73,2.85 3.46,5.71 7.26,4.91 0.84,-0.18 0.55,-1.4 -0.23,-1.42z"/>
  <path class="fil0" d="M107.5 38.71c-1.33,-0.92 -2.96,-1.27 -4.22,-2.28 -1.04,-0.83 -0.32,-1.92 -0.91,-2.88 -1.34,-2.16 -4.26,-1.37 -6.22,-2.56 -6.03,-3.67 -13.87,-4.01 -20.81,-3.96 -7.4,0.05 -15.07,1.37 -21.89,4.22 -6.62,2.77 -12.76,6.1 -19.63,8.27 -0.75,0.24 -0.6,1.53 0.23,1.42 5.82,-0.8 11.19,-3.9 16.4,-6.43 7.24,-3.52 14.61,-5.09 22.63,-5.67 3.93,-0.28 7.76,0.15 11.67,0.55 4.45,0.45 7.6,1.25 11.42,3.53 0.84,0.5 1.5,0.58 2.44,0.63 1.76,0.11 1.98,1.38 2.57,2.57 1.16,2.34 3.48,2.71 5.62,3.86 0.84,0.45 1.46,-0.75 0.7,-1.27z"/>
  <path class="fil0" d="M89.84 34.36c0.72,0.23 1.2,-0.96 0.49,-1.25 -7.25,-2.91 -15,-1.49 -22.44,-0.06 -0.76,0.14 -0.55,1.43 0.21,1.34 7.39,-0.88 14.43,-2.36 21.74,-0.03z"/>
  <path class="fil0" d="M32.22 37.78c0.74,-0.35 0.17,-1.49 -0.57,-1.27 -4.22,1.24 -5.81,5.39 -8.67,8.31 -1.99,2.03 -5.14,2.41 -7.57,3.74 -0.89,0.49 -1.65,1.24 -2.37,1.94 -1.04,1.01 -0.96,2.58 -2.7,3 -1.07,0.26 -0.57,1.91 0.5,1.63 1.76,-0.45 2.29,-1.57 3.1,-3.09 1.5,-2.8 5.42,-3.37 8.03,-4.61 4.41,-2.1 5.69,-7.53 10.25,-9.66z"/>
  <path class="fil0" d="M60.05 23.19c-4.25,1.38 -8.26,3.73 -12.34,5.52 -0.79,0.35 -0.46,1.6 0.4,1.31 3.89,-1.3 7.49,-3.32 11.27,-4.89 3.64,-1.52 7.31,-1.06 11.11,-1.59 0.86,-0.11 0.87,-1.42 -0.03,-1.37 -3.52,0.17 -7.02,-0.09 -10.41,1.02z"/>
  <path class="fil0" d="M78.52 24.19c4.61,-0.61 8.7,1.63 13.24,1.73 0.76,0.02 0.91,-1.23 0.15,-1.34 -4.55,-0.67 -8.96,-2.85 -13.6,-1.73 -0.74,0.18 -0.55,1.43 0.22,1.33z"/>
  <path class="fil0" d="M113.86 106.87c-0.2,0.58 0.1,1.36 0.9,1.36 0.3,0 0.53,-0.12 0.68,-0.29 0.32,-0.03 0.64,-0.27 0.66,-0.7 0.19,-3.81 0.49,-7.93 -0.04,-11.72 -0.09,-0.69 -1.22,-0.97 -1.33,-0.15 -0.42,3.03 -0.34,6.25 -0.19,9.37 -0.46,-0.58 -1.02,-1.07 -1.66,-1.48 0.28,-2.77 0.54,-6.09 -0.07,-8.81 -0.15,-0.7 -1.22,-0.63 -1.37,0.03 -0.55,2.44 -0.38,5.39 -0.14,7.97l-0.2 -0.09c-0.5,-0.19 -1.02,-0.34 -1.54,-0.45l0.03 -0.12c0.15,-2.59 0.37,-5.42 -0.05,-7.99 -0.11,-0.67 -1.23,-0.62 -1.34,0.03 -0.41,2.5 -0.2,5.27 -0.06,7.81l-0.69 -0.11c-0.3,-0.04 -0.7,-0.06 -1.12,-0.09 -0,-1.83 -0.01,-3.67 -0.04,-5.5 -0.02,-0.86 -1.32,-0.82 -1.33,0.03 -0.03,1.76 -0.04,3.5 -0.05,5.26 -0.55,-0.16 -0.96,-0.43 -0.99,-0.95l-0.21 -0.44c-0.01,-1.09 -0.01,-2.17 -0.03,-3.24 -0.02,-0.86 -1.3,-0.82 -1.32,0.03 -0.03,1.16 -0.03,2.32 -0.03,3.48l0.23 0.51c0.01,0.46 0.05,0.62 0.22,1.2l0.5 0.48c3.5,0.83 9.02,0.65 10.58,4.57z"/>
  <path class="fil0" d="M132.09 79.43c0.42,-1.2 0.21,-2.88 0.21,-4.14 0,-1.07 -0.04,-2.13 -0.14,-3.2 -0.09,-0.94 -1.36,-0.87 -1.44,0.03 -0.1,1.07 -0.14,2.13 -0.13,3.2 0,1.27 -0.21,2.92 0.22,4.13 0.23,0.65 1.07,0.58 1.28,-0.03z"/>
  <path class="fil0" d="M138.92 77.72c0.63,-4.14 -0.02,-8.42 -0.08,-12.57 -0.01,-0.86 -1.32,-0.82 -1.34,0.03 -0.06,4.08 -0.72,8.31 -0.1,12.37 0.12,0.78 1.37,1.1 1.52,0.17z"/>
  <path class="fil0" d="M3.77 70.18l-0.07 0.4c-0.35,2.65 -0.2,5.9 0.15,8.49 0.09,0.67 1.19,0.93 1.3,0.14 0.34,-2.6 0.53,-6.08 0.17,-8.63 0.11,-0.83 -1.27,-1.16 -1.55,-0.39z"/>
  <path class="fil0" d="M8.21 79.65c0.46,-2.11 0.14,-4.54 0.03,-6.69 -0.04,-0.91 -1.35,-0.86 -1.39,0.03 -0.1,2.16 -0.42,4.57 0.05,6.69 0.14,0.66 1.17,0.6 1.31,-0.03z"/>
  <path class="fil0" d="M11.46 80.09c0.59,-2.69 0.22,-5.91 0.05,-8.65 -0.06,-0.92 -1.36,-0.87 -1.42,0.04 -0.17,2.74 -0.53,5.94 0.06,8.64 0.14,0.66 1.16,0.6 1.3,-0.03z"/>
  <path class="fil0" d="M14.22 80.47c0.47,-0.78 0.3,-1.79 0.27,-2.67 -0.03,-1.03 -0.06,-2.07 -0.14,-3.1 -0.07,-0.94 -1.37,-0.88 -1.44,0.03 -0.08,1.04 -0.12,2.07 -0.15,3.11 -0.02,0.9 -0.18,1.86 0.29,2.65 0.27,0.45 0.92,0.4 1.17,-0.03z"/>
  <path class="fil0" d="M17.09 81.39c0.36,-1.5 0.18,-3.17 0.16,-4.7 -0.03,-1.68 -0.04,-3.36 -0.12,-5.03 -0.05,-0.88 -1.32,-0.83 -1.36,0.03 -0.07,1.49 -0.08,2.97 -0.11,4.45 -0.03,1.71 -0.24,3.6 0.16,5.27 0.15,0.64 1.13,0.58 1.27,-0.03z"/>
  <path class="fil0" d="M19.96 77.71c0.17,-0.97 0.25,-2.25 -0.05,-3.19 -0.21,-0.65 -1.09,-0.59 -1.29,0.03 -0.15,0.46 -0.14,1 -0.14,1.5 -0.01,0.57 0.01,1.13 0.11,1.69 0.12,0.69 1.26,0.64 1.38,-0.03z"/>
 </g>
</svg>
