<?xml version="1.0" encoding="UTF-8"?>
<svg xmlns="http://www.w3.org/2000/svg" xml:space="preserve" width="0.747335in" height="0.747346in" version="1.1" style="shape-rendering:geometricPrecision; text-rendering:geometricPrecision; image-rendering:optimizeQuality; fill-rule:evenodd; clip-rule:evenodd"
viewBox="0 0 1904.84 1904.87"
 xmlns:xlink="http://www.w3.org/1999/xlink"
 xmlns:xodm="http://www.corel.com/coreldraw/odm/2003">
 <defs>
  <style type="text/css">
   <![CDATA[
    .fil0 {fill:black;fill-rule:nonzero}
   ]]>
  </style>
 </defs>
 <g id="Layer_x0020_1">
  <metadata id="CorelCorpID_0Corel-Layer"/>
  <path class="fil0" d="M575.64 1641.18l-27.69 -15.89c-4.1,-2.35 -9.42,-1 -11.79,3.18l-35.4 61.49 -0.81 6.51 4.03 5.24 1.31 0.8 4.31 1.13 7.48 -4.31 14.72 -25.62 18.91 10.83 6.55 0.84 5.27 -4.06 0.78 -1.34c2.3,-4.14 0.88,-9.39 -3.26,-11.75l-18.83 -10.88 6.15 -10.69 18.84 10.87 6.62 0.84 5.2 -4.06 0.75 -1.35c2.37,-4.13 0.95,-9.41 -3.15,-11.78z"/>
  <path class="fil0" d="M638.19 1703.38c-2.12,4.85 -4.46,5.87 -6.19,6.19l-7.97 -1.38 -8.35 -3.65 8 -18.47 8.35 3.61 6.41 4.97c0.95,1.55 1.81,3.92 -0.25,8.74zm1.34 -30.98l-17.66 -7.62c-4.4,-1.99 -9.45,0.08 -11.37,4.43l-28.28 65.08c-1.88,4.38 0.14,9.44 4.46,11.35l1.46 0.61 6.58 0.11 4.78 -4.59 8.68 -19.95 7.65 3.36 1.41 28.82c0.21,4.56 4.06,8.21 8.67,8.21l0.04 0 1.52 -0.04 6.23 -2.7 2.34 -6.33 -1.2 -24.92c9.1,-1.38 16.29,-7.4 20.64,-17.34 5.2,-12 2.3,-20.89 -1.06,-26.2 -3.29,-5.34 -8.25,-9.38 -14.87,-12.28z"/>
  <path class="fil0" d="M723.29 1704.13l-1.53 -0.43c-4.6,-1.4 -9.41,1.16 -10.8,5.74l-20.53 67.08c-1.41,4.53 1.13,9.37 5.7,10.76l1.49 0.5 2.55 0.34 4.03 -0.98 4.21 -5.1 20.57 -67.12 -0.64 -6.61 -5.06 -4.17z"/>
  <path class="fil0" d="M823.23 1726.92l-31.4 -5.84c-4.79,-0.85 -9.24,2.2 -10.1,6.9l-13.17 70.41 1.38 6.51 5.55 3.61 31.37 5.88 1.6 0.11 4.85 -1.5 3.64 -5.56 0.25 -1.46c0.88,-4.71 -2.23,-9.19 -6.86,-10.09l-21.45 -4 3.75 -19.79 13.74 2.56 6.47 -1.35 3.65 -5.56 0.24 -1.56c0.92,-4.67 -2.19,-9.16 -6.9,-10.05l-13.73 -2.54 2.26 -12.11 21.35 3.99 6.51 -1.41 3.54 -5.51 0.31 -1.57c0.88,-4.68 -2.19,-9.17 -6.86,-10.1z"/>
  <path class="fil0" d="M914.92 1737.6l-1.56 -0.14c-4.82,-0.2 -8.89,3.27 -9.24,8.01l-2.45 33.67 -18.26 -39.4 -7.26 -5 -1.67 -0.11c-4.68,-0.39 -8.85,3.22 -9.2,7.94l-5.14 70.01 2.06 6.3 5.91 2.98 1.49 0.07c4.82,0.42 8.92,-3.18 9.31,-7.97l2.44 -33.7 18.34 39.44 7.14 4.99 1.71 0.11 0.6 0 5.66 -2.06 3.01 -5.95 5.1 -69.98 -2.09 -6.26 -5.91 -2.95z"/>
  <path class="fil0" d="M991.03 1803.52l-7.62 3.58 -8.18 0.28 -1.88 -51.23 8.11 -0.35 0.07 -1.56 0.28 0 0 1.56 7.51 2.97c3.05,2.34 4.47,5.04 4.61,8.6l0.99 27.23c0.14,3.64 -1.06,6.37 -3.89,8.91zm9.83 -59.68c-5.94,-4.57 -12.35,-6.87 -19.05,-6.87l-1.06 0 -18.29 0.74c-4.72,0.11 -8.47,4.11 -8.29,8.92l2.62 71.59 2.8 6.02 5.87 2.29 0.32 -0.04 18.3 -0.66c6.97,-0.2 13.53,-3.01 19.47,-8.28 7.01,-6.17 10.56,-14.41 10.24,-23.65l-1.02 -27.18c-0.36,-9.28 -4.5,-17.13 -11.9,-22.87z"/>
  <path class="fil0" d="M1089.54 1767.29c-4.43,-1.5 -8.28,-2.81 -11.57,-3.86l-8.18 -2.56c-4.75,-1.55 -5.7,-3.74 -6.02,-5.83l0.88 -4.31c0.67,-1.06 1.85,-2.31 5.14,-2.77 2.02,-0.36 5.63,-0.25 15.9,1.64 3.78,0.7 7.68,-1.31 9.34,-4.86l0.64 -1.38 0.24 -6.87 -4.88 -4.84c-7.19,-2.84 -15.26,-3.65 -24.04,-2.41 -8.07,1.23 -14.41,5.25 -18.3,11.54 -3.22,5.28 -4.39,11 -3.53,17.03 1.16,7.72 5.24,13.91 11.78,17.87l1.03 0.54 4.92 1.97 4.61 1.67 12.42 4.03 4.99 1.93 2.52 1.33 2.05 3.65 -0.98 4.24 -4.72 2.59c-1.95,0 -7.04,-0.5 -19.72,-3.94 -3.96,-1.13 -8.07,0.72 -9.94,4.34l-0.71 1.37 -0.56 6.58 4.21 5.03c4.31,2.23 9.24,3.89 14.65,4.9l9.06 0.73 6.34 -0.46c7.4,-1.09 13.45,-4.93 17.38,-11.19 3.33,-5.34 4.57,-11.12 3.68,-17.02 -1.02,-6.76 -5.03,-15.87 -18.62,-20.67z"/>
  <path class="fil0" d="M1186.33 1712.66c-1.27,-4.6 -5.94,-7.37 -10.59,-6.12l-1.52 0.34 -5.28 4.04 -0.85 6.58 5.6 20.98 -19.47 5.22 -5.6 -20.96c-1.23,-4.68 -5.94,-7.4 -10.55,-6.19l-1.53 0.38 -5.24 4.01 -0.88 6.58 18.09 67.79c1.05,3.85 4.53,6.44 8.35,6.44l2.2 -0.28 1.46 -0.38 5.27 -4.04 0.92 -6.55 -7.65 -28.59 19.47 -5.18 7.65 28.57 4.03 5.27 6.55 0.85 1.49 -0.42c4.61,-1.2 7.37,-6.02 6.12,-10.6l-18.05 -67.75z"/>
  <path class="fil0" d="M1251.39 1689.01l-4.57 -4.79 -6.61 -0.11 -1.5 0.57c-4.43,1.74 -6.61,6.75 -4.88,11.18l25.63 65.32c1.3,3.4 4.57,5.53 8.07,5.53l3.08 -0.61 1.49 -0.56 4.78 -4.61 0.11 -6.65 -25.6 -65.27z"/>
  <path class="fil0" d="M1342.27 1676.72l-6.05 5.35 -8.07 4.27 -9.35 -17.8 8.04 -4.28 7.83 -1.88c1.81,0.22 4.17,1.03 6.65,5.63 2.48,4.67 1.77,7.16 0.95,8.71zm-5.38 -33.09c-6.12,-0.72 -12.49,0.59 -18.87,3.99l-17.03 8.99 -4.25 5.11 0.64 6.58 33.09 62.72 5.14 4.22 2.55 0.38 4 -0.99 1.37 -0.73c4.17,-2.2 5.84,-7.44 3.61,-11.66l-10.2 -19.25 8.07 -4.28c6.23,-3.29 10.91,-7.65 13.88,-13.07 3.05,-5.59 5.28,-14.69 -0.95,-26.4 -6.12,-11.59 -14.87,-14.88 -21.06,-15.61z"/>
  <path class="fil0" d="M612.53 231.3l16.74 -8.21c4.28,-2.09 6.05,-7.3 4,-11.54l-1.06 -2.02 -4.92 -4.38 -6.62 0.38 -51.12 24.92c-4.28,2.14 -6.05,7.27 -3.96,11.62l1.02 2.02 4.92 4.39 6.62 -0.39 16.78 -8.21 40.61 83.3c1.52,3 4.57,4.82 7.79,4.82l3.75 -0.89 2.09 -0.99 4.39 -4.95 -0.42 -6.62 -40.6 -83.24z"/>
  <path class="fil0" d="M763.33 273.94l3.85 5.38 4.57 1.29 1.92 -0.16 45.49 -10.46c4.61,-1.05 7.51,-5.7 6.48,-10.33l-0.5 -2.09 -3.82 -5.43 -6.54 -1.12 -34.84 8.03 -8.35 -36.43 23.82 -5.52 5.35 -3.82 1.09 -6.54 -0.49 -2.23c-1.1,-4.65 -5.7,-7.51 -10.38,-6.44l-23.79 5.45 -5.8 -25.28 34.83 -8.01c4.68,-1.02 7.55,-5.66 6.51,-10.34l-0.53 -2.22 -3.78 -5.43 -6.58 -1.08 -45.42 10.44c-4.65,1.06 -7.58,5.65 -6.52,10.4l23.44 101.93z"/>
  <path class="fil0" d="M964.69 196.44l30.08 -45.99c2.59,-4.03 1.5,-9.26 -2.4,-11.89l-1.88 -1.31 -6.55 -1.34 -5.56 3.76 -25.59 39.29 -26.45 -38.71 -5.63 -3.69 -6.54 1.52 -1.88 1.35c-3.79,2.69 -4.71,8.04 -2.09,11.85l31.01 45.46 -30.02 46.13 -1.16 6.62 3.86 5.48 1.95 1.17 4.5 1.24 7.22 -3.94 25.63 -39.26 26.41 38.69c2.62,3.85 7.86,4.92 11.86,2.42l1.81 -1.21 3.85 -5.55 -1.37 -6.55 -31.05 -45.53z"/>
  <path class="fil0" d="M1128.31 196.19l3.33 34.95 -21.67 -5.04 18.33 -29.91zm5.28 55.51l2.23 22.72c0.42,4.47 4.14,7.83 8.57,7.83l0.46 0 2.23 -0.18 6.09 -2.93 2.09 -6.48 -10.2 -107.12c-0.39,-3.64 -3.08,-6.71 -6.69,-7.54l-2.34 -0.56c-3.68,-0.88 -7.44,0.66 -9.34,3.85l-56.11 91.82 -0.95 6.69 4.14 5.39 1.99 1.06c4.03,2.31 9.13,0.92 11.57,-3.05l12 -19.47 34.27 7.97z"/>
  <path class="fil0" d="M1307.97 216.58c-9.59,-4.71 -19.33,-5.16 -28.15,-1.23 -7.37,3.18 -12.88,8.42 -16.39,15.68 -4.5,9.12 -4.68,18.73 -0.53,27.83l0.46 0.99 4.17 6.33 4.03 5.63 11.58 15.22 4.64 6.72 2.23 4.43 -0.63 9.16c-1.38,2.8 -3.54,4.79 -6.8,6.17 -3.5,1.55 -6.72,1.4 -10.44,-0.39 -1.34,-0.67 -6.94,-4.28 -22.34,-22.56 -2.66,-3.15 -7.08,-3.98 -10.7,-2.13l-1.98 1.07c-4.21,2.23 -5.81,7.44 -3.58,11.64 3.08,5.94 7.48,11.66 12.88,16.97 5.46,5.38 11.23,9.55 17.1,12.45 4.75,2.34 9.66,3.47 14.45,3.47 4.17,0 8.35,-0.85 12.42,-2.59 7.54,-3.28 13.1,-8.5 16.53,-15.51 3.93,-7.99 6.37,-20.74 -4.71,-36.2 -4.1,-5.4 -7.75,-10.1 -10.83,-14.14l-7.69 -9.94c-5.73,-7.55 -4.46,-12.56 -2.76,-16.11l6.65 -6.33c3.58,-1.57 7.3,-1.28 11.75,0.91 2.17,1.02 7.37,4.5 18.81,15.93 2.76,2.73 7.04,3.29 10.44,1.31l1.99 -1.08 4.07 -5.54 -1.24 -6.76c-5.91,-8.85 -14.44,-16 -25.45,-21.41z"/>
  <path class="fil0" d="M1153.12 1050.24c1.85,-32.08 19.55,-86.38 -19.51,-104.22 -31.11,-14.16 -62.83,31.9 -60.74,58.52 0.95,12.03 17.45,11.21 18.37,-0.43 0.49,-5.52 3.57,-13.91 8.14,-21.63 -2.06,8.17 -3.18,16.54 -3.08,24.96 0.14,11.5 17.14,10.8 17.67,-0.43 0.7,-13.91 3.39,-27.44 8.84,-40.28l0.71 -3.89 1.53 0.21c-0.67,20.46 -3.05,40.63 -6.83,60.75 -2.16,11.11 14.87,15.43 17.06,4.27 2.66,-13.3 4.71,-26.68 6.02,-40.17 2.09,20.04 -6.44,45.39 -6.34,62.73 0.04,11.86 17.53,11.12 18.16,-0.39z"/>
  <path class="fil0" d="M841.25 979.37c-10.52,0.7 -11.76,14.82 -1.99,17.94l4.85 2.19 -0.99 2.7c-3.04,21.95 -4.35,43.72 -1.77,65.74 1.34,11.12 18.84,10.76 17.52,-0.43 -2.02,-16.63 -1.77,-33.13 -0.14,-49.69 8.89,22.4 6.16,56.44 8.46,74.66 1.13,9.05 16.15,12.56 17.46,1.88 3.22,-27.55 -0.18,-117.82 -43.4,-114.98z"/>
  <path class="fil0" d="M1282.55 1595.97l-8.92 0.21 -8.32 1.1 -5.1 2.16 -5.7 5.97c-1.95,5.11 -2.06,5.29 -0.28,0.64 -3.65,5.04 -2.17,14.84 2.83,18.51l-2.13 -2.68 5.98 5.7 5.17 1.73 8.43 0.72 8.88 0c9.28,-0.32 16.79,-8.12 16.61,-17.43 -0.21,-9.05 -8.18,-17.09 -17.45,-16.64z"/>
  <path class="fil0" d="M1212.74 1625.67c-8.78,-2.9 -18.91,2.8 -20.18,11.89l-0.21 2.21 0 0.09 0 -0.02 1.31 4.88 3.67 3.18 -0.1 0c8.5,4.5 17.17,-0.07 21.84,-7.65 3.65,-5.84 -0.52,-12.66 -6.33,-14.58z"/>
  <path class="fil0" d="M1088.49 1690.53l9.27 -0.04c9.13,-3.33 8.21,-14.97 -0.46,-18.08l-9.27 0.21c-9.06,3.5 -8.11,14.63 0.46,17.91z"/>
  <path class="fil0" d="M1442.99 1559.72l-0.71 -0.45c-1.74,-0.89 -2.55,-1.31 0.71,0.45z"/>
  <path class="fil0" d="M1473.68 1529.8c-5.49,-1.8 -12.81,-0.63 -18.44,0.11 -4.85,0.64 -11.61,1.92 -14.86,6.16 -4.36,5.78 -6.73,11.41 -2.87,18.37l4.78 4.82 5.6 2.69c3.36,0.96 6.89,1.02 10.37,1.09 5.21,0.11 11.3,0.75 16.22,-0.88 7.11,-2.41 12.1,-8.88 11.93,-16.46 -0.18,-7.9 -5.56,-13.57 -12.71,-15.91z"/>
  <path class="fil0" d="M1537.61 1576.89c-0.91,-4.24 -5.73,-7.59 -9.97,-7.27 -4.79,0.36 -7.55,2.56 -9.81,6.58 -3.75,6.62 1.24,12.54 7.27,13.14l1.3 0.61c7.44,1.23 13.21,-4.68 11.51,-12.07l-0.29 -0.99z"/>
  <path class="fil0" d="M1599.45 1511.02c-5.02,1.95 -10.8,3.6 -15.14,6.9 -7.27,5.48 -4.68,17.38 5.17,17.42 7.4,0 14.4,-3.62 19.61,-8.65 6.62,-6.48 -0.67,-19.01 -9.63,-15.67z"/>
  <path class="fil0" d="M1393.39 1561.28c-6.12,0.46 -10.97,3.15 -15.53,7.19 -2.98,2.65 -3.79,7.47 -2.66,11.14 1.6,5.25 5.98,7.47 11.01,8.04l3.96 0.36 3.89 -0.43c5.17,-0.52 8.85,-1.06 12.81,-4.71 4.28,-3.93 3.79,-9.95 1.57,-14.63 -2.7,-5.58 -9.35,-7.42 -15.05,-6.96z"/>
  <polygon class="fil0" points="1386.34,1587.69 1386.2,1587.65 "/>
  <path class="fil0" d="M1444.4 1573.73c-2.9,1.71 -5,4.61 -4.89,8.61 0.18,6.89 6.58,10.55 12.85,9.27 6.01,-1.2 9.87,-7.89 7.47,-13.66 -2.48,-6.02 -10.84,-8.99 -15.43,-4.22z"/>
  <path class="fil0" d="M1547.84 1502.94c-7.15,-3.08 -17.73,-1.46 -24.03,3.47 -7.44,5.83 -4.47,16.61 5.17,17.31 7,0.53 16.39,0.28 21.2,-5.49 3.75,-4.43 3.78,-12.66 -2.34,-15.29z"/>
  <polygon class="fil0" points="1582.67,1571.05 1582.64,1571.05 "/>
  <path class="fil0" d="M1589.58 1551.51l-7.37 1.45c-9.16,3.2 -8.25,15.05 0.43,18.1l2.97 1.09 4.54 0.25c5.66,-0.57 10.34,-4.72 10.2,-10.74 -0.22,-6.22 -5.07,-9.66 -10.77,-10.16z"/>
  <path class="fil0" d="M825.85 1674.13l-0.92 0.29 -2.2 0.34 -3.11 1.27c-7.54,2.88 -7.37,13.57 0,16.58 6.26,3.64 13.14,0.03 16.96,-5.21 4.92,-6.78 -3.68,-15.61 -10.73,-13.28z"/>
  <path class="fil0" d="M883.9 1700.51c5.74,0.56 11.12,1.02 16.86,0.17 4.03,-0.59 7.51,-2.59 8.56,-6.9 1.13,-4.47 -1.66,-10.26 -6.61,-11.01 -5.7,-0.85 -11.08,-0.99 -16.82,-0.31 -4.1,0.42 -7.61,2.72 -8.64,6.89 -1.09,4.36 1.71,10.56 6.65,11.16z"/>
  <path class="fil0" d="M698.26 1631.4c1.09,-4.27 -0.07,-10.13 -3.75,-12.88 -7.83,-6.02 -18.91,-6.02 -27.41,-1.09 -7.51,4.36 -6.19,14.69 0.46,18.97 5.49,3.47 15.19,7.15 21.67,4.55 4.4,-1.89 7.79,-4.75 9.03,-9.53z"/>
  <path class="fil0" d="M737.03 1641.07l-5.28 -0.21c-4.03,0.57 -7.44,2.59 -8.46,6.79 -1.09,4.36 1.63,10.14 6.48,10.85l7.68 -0.07c8.81,-1.57 8,-15.87 -0.42,-17.36z"/>
  <path class="fil0" d="M766.3 1633.85c-11.29,0 -10.8,17.52 0.46,17.52 11.26,0 10.84,-17.52 -0.46,-17.52z"/>
  <path class="fil0" d="M603.53 1600.34c3.9,-3.33 3.37,-10.56 -0.35,-13.71 -7.11,-6.24 -14.19,-3.43 -22.3,-1.77 -8.92,1.91 -8.04,15.78 0.49,17.58 8.22,1.75 14.94,4.08 22.16,-2.11z"/>
  <path class="fil0" d="M641.41 1586.67l4.28 -0.08c11.4,-0.17 10.94,-17.48 -0.42,-17.62l-4.33 -0.08c-11.43,-0.17 -11.01,17.94 0.46,17.78z"/>
  <path class="fil0" d="M503.45 1580.15c-1.98,-3.19 -6.72,-5.52 -10.41,-3.93l-3.36 1.13c-11.75,1.38 -11.12,16.93 0.42,18.09 4.54,0.49 9.14,-0.6 12.18,-4.13 2.69,-3.15 3.4,-7.52 1.16,-11.16z"/>
  <path class="fil0" d="M368.36 1584.04c-7.54,-0.92 -15.53,-1.02 -23.04,0.25 -7.33,1.17 -11.97,4.28 -16.57,9.87 -4.68,5.7 -2.59,13.82 4.64,15.97 4.99,1.53 9.06,2.87 14.48,3.11l8.32 0.82c3.96,2.38 8.53,1.27 12.95,0.43 14.94,-2.7 14.51,-28.62 -0.78,-30.46z"/>
  <path class="fil0" d="M434.49 1610.48c-4.06,-1.59 -8.78,-0.39 -12.52,0.04 -4.93,0.46 -8.96,4.03 -8.82,9.24 0.14,5.42 4.36,8.35 9.24,8.85 3.89,0.35 8.39,1.49 12.6,-0.07 9.13,-3.61 8.14,-14.73 -0.5,-18.06z"/>
  <path class="fil0" d="M420.3 1644.97l-6.2 4.31c-7.58,7.22 2.8,19.76 11.47,14.06l6.02 -4.43c7.23,-7.51 -2.44,-19.06 -11.29,-13.95z"/>
  <path class="fil0" d="M427.27 1562.34c7.47,-7.72 -2.45,-18.24 -11.3,-13.88l-1.2 0.11c-11.75,1.06 -11.15,17.17 0.39,18.08 4.54,0.29 8.89,-0.95 12.11,-4.31z"/>
  <path class="fil0" d="M713.88 1573.71c5.41,0.91 10.9,0.66 14.65,-4.04 2.59,-3.22 3.47,-7.4 1.13,-11.16 -2.02,-3.25 -6.65,-5.41 -10.48,-3.92l-5.74 1.46c-8.92,1.63 -8.25,16.18 0.43,17.67z"/>
  <path class="fil0" d="M550.68 1559.39c3.82,0.32 7.57,0.39 11.5,0.05 11.82,-1.07 10.98,-17.07 -0.49,-18.09 -3.82,-0.36 -7.62,-0.25 -11.51,0.03 -11.75,0.99 -10.97,17.06 0.5,18.01z"/>
  <path class="fil0" d="M904.05 1661.75l7.22 1.19c4.04,0.97 8.22,-0.77 10.2,-4.43 2.63,-4.77 0.43,-9.41 -3.53,-12.34 -3.54,-2.63 -7.51,-3.47 -11.86,-2.8 -4.17,0.64 -7.69,2.69 -8.78,7.08 -1.2,4.64 1.7,10.47 6.76,11.29z"/>
  <path class="fil0" d="M967.77 1688.9c4.43,-7.05 -3.33,-15.79 -10.87,-13.42l-1.1 0.32 -3.39 0.56c-9.45,1.69 -9.03,17.73 0.49,19.05 6.41,0.91 11.37,-0.86 14.87,-6.51z"/>
  <path class="fil0" d="M1106.43 1050.7c3.79,6.33 6.51,13.03 8.07,20.28 3.12,10.8 2.73,22.63 0.71,34.56 -1.06,-18.77 -4.03,-37.35 -8.78,-54.84zm-11.43 124.75c-1.67,6.36 -3.33,12.71 -5.24,18.98 1.56,-14.45 2.19,-29 3,-43.41 1.64,-28.18 -9.62,-62.16 -2.3,-90.4 7.47,35.53 6.97,72.75 3.04,108.65l1.5 6.19zm-23.79 -105.29c-1.46,15.25 0.07,31.05 1.23,45.95 3.15,40.39 2.84,82.27 -10.51,120.89l-0.29 1.77 -7.36 4.76c18.12,-55.34 -9.95,-122.74 16.92,-173.36zm-31.61 71.89l3.36 -8.85c0.67,36.94 6.23,75.27 -7.86,109.72l-2.55 -1.91c5.06,-30.42 5.63,-61.32 9.09,-91.87l-2.05 -7.09zm410.86 -758.3c2.16,4.24 4.54,8.31 7.01,12.39 -33.53,3.22 -62.07,-10.92 -62,-49.07 0,-10.55 -16.46,-12.5 -18.51,-2.02 -9.69,49.83 45.14,85 89.74,69.06l2.2 -1.34c27.72,35.86 67.68,59.3 115.72,55.87 27.19,-1.96 52.85,-15.34 73.96,-31.73 10.52,-8.17 28.14,-21.12 38.58,-34.97 39.55,53.36 73.46,111.16 101,172.36 -16.85,1.93 -35.54,8.51 -47.73,14.07 -11.78,5.33 -21.95,12.39 -30.8,21.72 -36.46,38.56 -60.81,25.85 -93.78,0.5 4,-7.79 7.01,-16.89 8.71,-27.58 1.92,-12.25 -14.55,-16.32 -18.65,-4.61 -26.41,76.04 -107.93,43.8 -144.05,-6.46 12.32,-6.44 24.43,-15.65 36.47,-27.8 8.88,-9.03 -4.75,-21.17 -13.95,-13.31 -45.21,38.58 -95.3,39.04 -130.7,-13.07 -12.35,-18.2 -20.91,-37.95 -35.25,-54.92 -37.91,-45.06 -90.27,15.27 -129.53,-20.6 -19.51,-17.83 -43.55,-27.18 -64.71,-43.12 -19.97,-15.11 -38.55,-32.06 -59.2,-46.33 -48.92,-33.77 -103.12,-46.79 -161.7,-52.38 -10.66,-1 -12.43,16.59 -2.1,18.54 38.09,7.18 76.08,13.41 111.7,29.31 31.86,14.19 58.54,38.33 85.31,60.1 22.94,18.6 53.21,31.7 74.14,51.35 15.71,14.79 29.84,20.2 51.33,20.63 12.03,0.2 23.57,-4.17 34.52,-8.6 28.49,-11.44 47.15,8.56 60.14,30.02 11.86,19.54 21.64,42.62 40.68,56.57 30.27,22.16 58.33,28.39 85.32,20.67 27.14,57.74 118.23,90.78 160.29,47.43 25.78,26.27 75.55,58.09 106.31,24.14 16.71,-18.44 28.08,-37.88 53.81,-44.46 10.66,-2.76 23.54,-2.49 34.91,-5.06 18.3,44.41 33.17,90.59 44.39,138.13 -52.61,36.82 -91.41,91.82 -159.91,100.29 -30.95,3.78 -62.1,-12.17 -93.07,-4.75 -26.05,6.24 -49.35,19.47 -73.1,31.61 -9.87,5 -2.41,21.46 7.97,17.61 36.68,-13.46 62.45,-31.48 103.72,-25.39 32.68,4.78 61.28,6.96 93.32,-2.66 48.74,-14.62 89.24,-57.24 126.41,-92.88 6.16,29.68 10.94,59.89 14.24,90.51 -23.61,-8.12 -45.95,2.01 -66.98,17.23 -17.03,12.3 -32.11,27.25 -49.14,39.74 -32.81,24.05 -71.75,16.56 -108.96,9.61 -16.29,-3.04 -44.39,-12.67 -61.17,-7.6 -21.31,6.4 -40.85,17.72 -63.01,23.42 -40.47,10.44 -80.65,21.63 -108.72,54.42 -7.3,8.56 4.99,20.49 12.74,12.14 31.72,-34.38 79.15,-41.42 122.42,-52.47 12.99,-3.24 26.83,-6.26 38.72,-12.66 17.38,-9.35 62.13,8.31 80.71,11.57 36.54,6.41 69.18,3.18 100.58,-16.88 32.95,-21.14 61.31,-67.7 105.21,-51.8l0.04 0c1.99,25.53 2.97,51.26 2.83,77.29 -0.07,10.76 -0.39,21.44 -0.77,32.06 -33.5,-14.23 -85.75,-7.68 -102.56,25.71 -19.26,0.21 -41.14,0.18 -58.87,5.56 -15.43,4.64 -26.55,35.24 -36.4,47.07 -14.3,17.1 -30.73,32.92 -43.15,51.62 -18.47,27.8 -24.03,59.73 -54.09,78.7 -8.57,5.42 -2.52,19.99 7.43,16.42 41.7,-14.87 48.82,-59.48 74.07,-91.65 15.74,-20.11 34.69,-37.31 50.37,-57.57 17.34,-22.31 32.49,-24.74 57.06,-25.62 -5.03,14.41 -10.09,28.81 -15,43.23 -3.4,9.93 -8.5,56.66 -17.84,60.7 -32.96,13.98 -60.29,37.35 -82.81,64.74 -7.15,8.74 5.1,20.85 12.81,12.25 14.97,-16.64 30.56,-31.09 49.07,-43.79 10.27,-7.01 36.25,-13.6 42.06,-24.08 7.33,-13.17 6.58,-37.37 11.01,-52.91 6.23,-21.84 14.76,-42.87 21.34,-64.54l2.97 -5.16c9.24,-34.87 56.82,-18.44 81.35,-18.48 -2.8,43.58 -8.6,86.39 -17.24,128.23 -15.9,17.84 -35.5,28.17 -55.5,42.62 -21.28,15.3 -39.55,33.67 -60.12,49.84 -14.65,11.51 -43.54,11.68 -54.73,23.51 -13.31,14.06 -28.85,29 -38.19,46.06l-1.02 5.13c-21.96,2.52 -43.93,4.61 -65.99,6.22 6.44,-8.94 12.39,-18.15 17.56,-28 5.63,-10.83 -9.56,-18.5 -16.26,-8.95 -8.21,11.76 -16.81,23.22 -25.34,34.77l-2.06 3.85c-12.95,0.66 -25.95,1.13 -38.95,1.41 6.44,-21.91 7.04,-45.03 5.95,-68.36 19.16,-2.34 32.99,-22.94 29.73,-42.73 -1.27,-7.94 -13.45,-5.29 -13.49,2.2 -0.14,12.39 -7.07,20.95 -17.27,23.85 -1.53,-21.35 -3.68,-42.59 -3.19,-63.04 0.18,-8.36 -12.17,-9.32 -14.23,-1.6 -9.06,34.41 -7.97,70.72 -7.79,106.69 -16.75,-23.02 -3.78,-66.76 -4.54,-92.14 -0.24,-8.71 -12.74,-8.12 -13.2,0.32 -1.85,28.32 -17.53,93.37 16.32,109.45l1.34 0.35c-0.11,8.39 -0.42,16.89 -0.99,25.22 -24.64,-0.04 -49.45,-0.93 -74.52,-2.97l-5.06 -0.5c-7.83,-112.08 -15.72,-224.27 -23.75,-336.46l1.77 -0.14 3.47 -0.46c4.78,-0.81 6.47,-4.63 6.01,-8.46 0.53,-3.92 -1.27,-7.86 -6.44,-8.78l-0.28 -0.03 -1.91 -0.22c-8.64,-1.22 -17.46,-0.77 -26.2,-0.66 -10.34,0.1 -22.62,-1.67 -32.25,2.44 -5.17,2.27 -8.07,10.84 -1.45,13.75l8.35 2.33c-2.87,43.96 -5.73,87.94 -8.6,131.94l-0.14 2.09c-4.25,64.11 -8.5,128.33 -12.67,192.4 -14.44,-1.71 -28.96,-3.29 -43.4,-4.68l1.81 -5.94c0.67,-4.6 -1.31,-9.63 -2.48,-14.34 -0.88,-3.75 -1.46,-7.5 -1.78,-11.36 -0.31,-3.82 0.04,-8.15 -2.4,-11.29 -2.45,-3.19 -6.73,-4.93 -10.42,-2.48 -8.6,5.7 -5.45,18.6 -3.78,27.07 1.06,5.53 2.76,13.25 7.23,17.24 -18.77,-1.59 -37.39,-2.79 -55.93,-3.22 -8.68,-0.21 -17.28,0.04 -25.92,0.57 1.57,-11.47 -0.38,-24.9 -0.28,-34.91l0.35 -9.2c14.09,3.29 29.28,-6.47 32.78,-21.84 1.63,-7.33 -9.52,-12.36 -12.63,-5 -3.29,7.75 -10.84,14.06 -18.95,12.07 1.46,-15.33 3.33,-30.66 2.31,-45.67 -0.57,-7.68 -10.34,-10.13 -14.34,-3.57 -10.45,17.38 -9.52,40.67 -10.24,60.32 -0.1,3.22 -0.35,7.04 -0.63,10.98l-4.47 -4.28c-4.6,-6.08 -15.71,-2.38 -12.88,5.81 2.8,8.04 8.85,13.94 16.33,16.6 -0.15,7.23 0.21,14.27 1.56,20.6 -22.77,2.63 -45.53,6.98 -68.12,11.89 2.38,-6.76 1.06,-14.12 -5.27,-19.32 -5.7,-4.72 -14.91,1.7 -10.45,8.42 2.3,3.5 0.07,8.56 -1.23,12l-0.36 2.69c-18.58,4.17 -37.13,8.39 -55.54,12 0.95,-20.32 2.55,-40.71 3.47,-61.07 20.46,9.24 44.28,-3.43 60.71,-25.87 17.7,-24.25 22.45,-50.24 30.7,-78.8 7.65,-26.87 20.24,-55.96 15,-84.49 -5.77,-31.45 -31.26,-70.74 -65.67,-41.78 -23.54,19.74 -33.14,42.8 -39.72,72.39 -2.12,9.41 -5.13,18.58 -8.49,27.64 -5.28,-127.46 3.71,-255.63 -1.99,-383.1 -0.56,-11.57 -17.31,-10.98 -17.84,0.43 -5.98,137.77 -2.37,278.71 2.3,416.38l2.31 5.7c-4.43,12.71 -7.94,25.52 -8.85,38.98 -0.71,11.4 16.81,10.8 17.66,-0.43 0.71,-8.53 2.8,-16.59 5.7,-24.45 -1.27,14.56 -2.66,29.06 -4.5,43.54 -6.44,1.2 -11.96,8.15 -7.33,15.43l2.72 3.72c-1.3,44.63 -6.37,88.96 -4.64,133.7 1.31,33.81 -2.3,66.06 5.91,98.41 -4.43,0.05 -8.85,0.14 -13.28,0.36 -13.95,-129.75 -2.23,-262.92 -6.15,-393.17 -0.36,-11.51 -17.39,-10.87 -17.74,0.43 -2.05,68.67 1.1,137.47 1.13,206.14 0.07,62.73 -4.1,125.06 4.64,187.24 -6.58,0.34 -13.17,0.74 -19.75,1.13 1.16,-97.96 7.82,-198.04 1.34,-295.54 -0.71,-11.29 -18.23,-10.87 -17.53,0.43 6.27,97.95 -1.41,197.89 -1.3,296.31 -5.45,0.38 -10.98,0.77 -16.43,1.12 -0.28,-46.9 7.65,-94.42 2.48,-141.18 -8.71,-79.3 6.05,-158.99 5.91,-238.71 -0.14,-79.97 -5.84,-159.71 -1.3,-239.62 2.3,-40.99 7.82,-81.59 12.28,-122.34 3.39,-31.01 -3.01,-73.24 7.93,-103.76 12.32,19.16 1.02,70.23 -0.71,86.55 -2.65,24.54 -8.46,49.31 -8.28,74.07 0.81,115.4 -6.12,231.97 -0.78,347.25 0.57,11.68 17.38,11.01 17.95,-0.43 3.36,-65.67 1.84,-131.69 1.98,-197.43 0.15,-55.75 -4.78,-114.31 1.5,-169.72 3.5,-30.91 23.25,-96.68 11.47,-137.07 21.74,41.07 2.3,107.54 -1.78,150.21 -8,84.11 -5.45,167.83 -4.43,252.16l2.24 5.81c-2.34,5.06 0.28,12.66 7.65,12.66 7.4,0 9.59,-7.65 7,-12.77l2.41 -6.16c1.02,-90.99 -4.43,-181.53 6.44,-272.2 1.84,-15.74 4.99,-34.02 6.97,-52.78 4.28,6.26 16,4.46 16,-4.99 0.11,-48.25 -20.53,-117.43 -82.8,-98.21 -56.86,17.49 -38.51,136.12 -41.1,177.64 -3.61,58.03 -10.66,114.46 -9.45,172.83 1.1,56.96 2.84,114.14 2.73,171.12 -69.7,-46.93 -60.78,-140.54 -74.13,-212.89 -7.72,-41.59 -45.81,-97.75 -89.95,-52.28 -37.39,38.47 -3.33,135.16 2.83,180.3 5.56,40.62 14.69,79.36 37.74,113.85 9.06,13.51 21.63,24.42 35.36,32.95 15.04,9.3 35.25,7.68 50.77,14.69 4.5,4.24 9.2,8.07 14.16,11.43 1.98,2.88 3.78,6.13 5.17,10.17l4.64 5.31c-5.17,23.19 -10.13,46.48 -11.44,70.09l-0.17 6.61 -0.71 -0.41c-21.13,-9.57 -34.94,-27.8 -46.37,-47.3 -5.28,-8.85 -19.69,-2.41 -16.47,7.44 5.56,17.1 17.67,33.49 32.36,45.56 -24.86,0.28 -49.63,-2.08 -74.49,-4.96 1.2,-3.07 2.13,-6.47 2.73,-10.05 8.14,-3.39 15.64,-10.58 17.38,-19.25 1.49,-7.65 -8.78,-11.98 -12.84,-5.07l-3.65 5.56c-0.42,-4.65 -1.27,-9.09 -2.69,-12.95 -2.97,-7.94 -13.74,-5.88 -14.3,2.3 -0.39,6.12 -0.32,12.27 -0.57,18.4 -0.31,6.62 -0.98,13.25 1.2,19.54 -19.22,-2.27 -38.47,-4.52 -57.77,-5.62 -7.97,-0.5 -16,-0.71 -24.1,-0.74l-0.04 -1.95c-4.46,-21.63 -6.09,-41.21 -4.99,-62.63 17.63,-4.57 27.54,-26.12 29.06,-43.01 0.71,-7.8 -11.75,-8.82 -13.46,-1.45 -2.3,9.76 -6.96,18.53 -14.19,24.85 1.91,-20.22 3.5,-41.07 -4.43,-59.93 -3.4,-8.04 -13.77,-6.1 -14.59,2.33 -2.62,25.74 -4.2,51.65 -6.44,77.42 -0.67,8.07 -1.09,16.54 -0.84,24.93 -7.44,-0.36 -14.41,-1.24 -17.14,-9.7 -3.08,-9.94 -0.56,-22.27 -0.31,-32.5 0.14,-7.47 -12.25,-8.98 -13.25,-1.45 -1.91,13.95 -4.6,29.7 0.53,43.27 4.96,13.19 18.8,17.72 31.83,16.35 1.49,8.35 4.13,16.47 8.53,23.75 -37.35,1.02 -75.23,5.13 -112.68,7.85 0.07,-6.5 0.07,-13.52 -0.21,-20.6 8.99,-2.05 15.6,-9.19 16.43,-19.43 0.63,-7.18 -10.35,-9.37 -13.32,-3.29l-4.5 6.4c-1.23,-9.34 -3.33,-18.36 -6.93,-26.19 -3.29,-7 -12.97,-2.38 -13.25,3.97 -0.84,18.47 -1.88,42.26 4.96,60.28 -8.64,0.49 -17.31,0.88 -25.88,1.1 -24.31,0.56 -48.64,0.45 -72.92,0.16 0.39,-10.4 -0.18,-20.87 -1.09,-31.36 17.94,-3.22 26.4,-28.91 22.34,-47.55 -1.74,-7.99 -13.67,-5.42 -13.71,2.23 -0.03,8.76 -1.95,24.05 -10.16,28.72l-0.67 -7.76c-1.6,-19.68 -1.27,-39.76 -9.98,-57.77 -3.32,-6.76 -12.46,-3.47 -14.48,2.27 -6.26,18.08 -2.76,37.42 -1.16,56.1 0.46,5.42 0.85,10.84 1.13,16.36 -8.36,-14.05 -8.89,-37.74 -9.42,-51.23 -0.38,-8.6 -12.95,-8.14 -13.24,0.28 -0.6,18.99 3.4,64.26 24.61,75.16 0.49,4.78 1.13,9.52 1.91,14.23 -30.45,-0.53 -60.92,-1.3 -91.37,-1.78 -8.46,-0.09 -16.92,-0.06 -25.31,0.07 1.49,-13.12 0.07,-28.14 -2.2,-40.17 -1.31,-7.12 -12.7,-6.51 -13.98,0.32 -2.27,12.18 -3.44,27.14 -1.85,40.39 -18.58,0.59 -37.21,1.46 -55.72,2.2 -3.57,0.1 -7.29,0.27 -11.04,0.56 4.99,-13.36 -0.67,-31.26 -0.74,-45.56l-0.07 -4.54c4.53,-0.5 8.77,-1.8 12.67,-4.93 6.54,-5.24 10.2,-12.77 10.3,-21.12 0.14,-8.47 -11.26,-8.47 -13.84,-1.53 -1.99,5.56 -5.1,9.73 -9.73,12.18 -0.96,-11.75 -3.37,-23.12 -9.63,-33.81 -3.5,-6.02 -14.37,-3.33 -13.56,4.03 2.2,18.65 1.56,37.34 1.67,56.07 0.03,12.55 -0.81,31.12 9.31,40.15 -27.15,1.87 -56.23,3.07 -78.66,-10.14 -40.71,-96.25 -64.9,-199.43 -71.05,-306 3.25,0.11 6.51,0.18 9.73,0.18 2.02,39.93 9.09,80.39 23.15,117.71 4.07,10.9 20.95,6.15 17.45,-5.28 -11.4,-37.27 -16.53,-74.69 -21.1,-113.13l8.4 -0.5c19.86,62.03 23.75,128.82 53.91,187.34 5.46,10.55 20.08,0.85 15.4,-9.51 -26.02,-57.46 -25.91,-121.99 -48.5,-180.21 31.15,-4.13 61.38,-10.96 94.73,-15.43l2.09 -0.1 2.38 2.06c43.22,27.69 34.02,74.34 46.87,117.91 12.31,41.73 49.94,74.77 68.39,114.21 4.43,9.45 20.39,2.19 16.75,-7.55 -20.89,-55.19 -65.74,-90.83 -72.71,-152.14 -2.87,-25.19 -6.73,-45.88 -18.3,-63.02 14.69,7.33 29.34,14.87 47.4,13.06 48.74,70.14 97.28,151.13 183.09,178.32 37.77,11.93 81.84,3.96 112.22,-21.35 23.3,-19.43 79.15,-118.34 111.66,-112.6 12.53,2.2 17.38,-16.93 4.78,-19.18 -28.11,-5.18 -56.43,31.07 -72.64,49.58 -33.17,38.05 -56.43,76.93 -111.58,82.35 -94.56,9.06 -162.56,-114.8 -210.53,-178.18 -3.61,-4.74 -8.78,-7.29 -14.8,-5.58 -25.98,7.36 -39.01,-9.39 -59.86,-17.46 -17.07,-6.68 -30.91,-6.86 -49.07,-4.46 -23.43,3.15 -45.7,12.2 -69.17,15.64 -23.43,3.47 -47.5,3.14 -71.19,4.17 -0.39,-12.17 -0.64,-24.42 -0.53,-36.71 0.32,-63.13 7.04,-124.74 19.54,-184.33 59.37,-3.16 70.27,67.39 111.97,98.8 17.6,13.21 36.15,12.2 56,5.35 27.62,-9.57 42.17,-20.12 73.17,-14.27 29.63,5.58 54.27,29.34 71.34,52.64 7.04,9.62 22.51,0.52 15.97,-9.88 -19.97,-31.93 -46.02,-52.18 -82.17,-63.44 -44,-13.7 -96.11,34.63 -130.13,3.5 -40.15,-36.78 -51.34,-98.96 -111.38,-94.27 17.98,-76.57 45.46,-149.46 81.18,-217.43 23.82,5.46 44.6,25.1 65.38,36.96 23.47,13.39 51.3,21.88 76.76,30.73 27.93,9.74 52.81,15.79 82.24,12.07 20.07,-2.58 48.46,-9.66 58.76,14.45 3.64,8.5 4.24,18.85 5.8,27.83 12.32,70.16 99.12,74.66 151.45,40.6 11.05,35.53 58.55,38.26 92.54,25.32 1.37,2.37 3.71,4.24 7.26,4.24l0.25 -0.04 3.39 5.17c26.73,22.77 49.84,29.35 83.55,19.27 28.96,-8.78 46.8,-1.95 72.6,11.57 12.43,6.47 24.82,14.12 39.13,14.35 13.24,0.09 14.58,-19.09 2.47,-22.56 -28.74,-8.15 -52.6,-27.94 -82.38,-33.39 -10.58,-1.95 -20.6,2.02 -30.52,5.14 -28.14,8.92 -45.1,10.04 -69.49,-10.49l-8.03 -2.66 7.18 -5.83c7.65,-7.45 -3.01,-20.82 -11.79,-14.55 -20.11,14.23 -79.01,26.71 -89.88,-6.19l-0.85 -1.5c6.13,-5.87 11.4,-12.43 15.4,-19.58 5.63,-10.09 -9.17,-21.66 -16.57,-12.21 -32.96,42.24 -128.15,69 -143.8,-3.32 -5.17,-24.07 -8.53,-53.35 -37.95,-59.52 -20.88,-4.39 -40.28,-0.99 -61.2,1.67 -29.88,3.82 -63.9,-12.14 -91.45,-22.05 -36.85,-13.21 -72.35,-45.5 -110.72,-53.25 34.23,-61.83 75.29,-119.36 122.19,-171.58 15.01,1.12 30.06,2.44 45.07,1.56 19.69,-1.2 37.42,-9.46 55.9,4.68 22.51,17.13 31.36,48.81 49.84,69.66 37.35,42.17 83.65,78.62 132.89,105.89 23.43,12.95 45.42,16.78 72.01,13.63 26.12,-3.12 40.03,-8.72 66.12,2.47 17.91,7.62 33.14,22.56 48.29,34.56 33.88,26.93 84.4,77.25 128.65,84.53 13.6,2.24 18.37,-16.57 5.17,-20.81 -52,-16.64 -104,-71.48 -147.12,-104.29 -20.04,-15.29 -39.48,-22.9 -64.11,-25.31 -15.18,-1.5 -35.61,4.5 -50.45,6.22 -24.64,2.91 -46.2,-11.44 -65.99,-23.71 -60.78,-37.7 -100.47,-87.19 -140.86,-144.15 -28.46,-40.08 -70.91,-34.09 -113.59,-28.43 74.41,-77.5 162.2,-141.99 259.38,-189.99 21.77,6.92 43.08,14.09 65.52,18.86 17.42,3.68 38.62,7.79 55.12,-0.52 8.85,-4.47 3.96,-18.51 -5.31,-18.06 -30.73,1.57 -60.18,-5.13 -89.67,-12.49 116.64,-53.27 246.17,-82.98 382.26,-82.98l5.28 0c294,1.64 555.72,140.86 724.36,356.1 -24.96,24.32 -47.04,45.46 -81.73,57.49 -58.1,20.08 -102.06,-23.72 -134.39,-65.32 -7.07,-9.12 -20.81,-0.95 -15.36,9.53zm366.61 900.81c-47.19,6.67 -93.71,13.69 -140.19,19.5 10.8,-12.91 19.47,-28.91 36.46,-32.56 19.19,-4.11 37.77,-16.19 52.22,-28.93 22.27,-19.61 43.79,-39.02 68.96,-54.97 5.95,-3.83 11.54,-7.37 16.82,-11.19 -9.28,36.95 -20.71,73.07 -34.27,108.16zm-450.08 -93.35c9.13,0.1 18.36,0.56 27.44,-0.39 2.86,41.06 5.66,81.56 8.42,121.03 -21.16,-2.02 -42.38,-4.57 -63.61,-7.08 2.37,-37.24 4.85,-75.43 7.29,-114.1 6.69,0.97 13.64,0.47 20.47,0.54zm0.42 -71.35c7.33,0.12 14.79,0.54 22.13,-0.02 1.2,17.52 2.41,34.97 3.57,52.42 -7.37,-0.67 -14.87,-0.32 -22.27,-0.21 -7.3,0.07 -15.5,-0.74 -23.15,0.18 1.13,-17.45 2.27,-34.98 3.36,-52.53 5.38,0.48 10.94,0.07 16.36,0.16zm-10.62 -90.43c1.09,-17.49 2.23,-34.87 3.32,-52.19l6.87 -0.02c4.24,0.07 8.53,0.16 12.77,0.25 1.2,17.16 2.37,34.43 3.57,51.81 -5.48,-0.34 -11.08,0.07 -16.5,0.18 -3.25,0.04 -6.65,-0.14 -10.04,-0.03zm10.51 19.16c5.7,0.09 11.61,0.48 17.35,0.02 1.16,17.28 2.37,34.66 3.57,52.04 -7.04,-0.41 -14.3,0 -21.31,0.11 -4.92,0.07 -9.83,-0.18 -14.65,0.18 1.09,-17.45 2.27,-34.94 3.33,-52.35 3.96,0.23 8,-0.09 11.71,0zm428.81 285.99c-29.94,4.64 -60.07,8.31 -90.37,9.24 -11.86,0.32 -11.37,18.15 0.46,18.37 26.44,0.46 52.78,-0.29 78.87,-4.33 -8.92,18.26 -18.48,36.15 -28.54,53.67 -35.22,13.5 -78.23,-4.7 -112.82,-12.39 -24.85,-5.52 -51.47,-4.03 -76.36,0.05 -24.65,3.92 -56.22,9.16 -74.95,27.71 -4.35,4.33 -12.84,20.36 -17.45,21.79 -21.52,6.35 -42.2,8.84 -63.19,17.72 -39.9,16.86 -76.32,37.88 -118.59,48.86 -50.94,13.21 -93.85,2.4 -141.35,-14.98 -38.8,-14.27 -79.01,-19.15 -119.51,-19.79 -7.93,-24.09 -8.14,-49.51 -7.79,-75.04 70.44,-6.38 141.92,-4.57 211.55,-17.59 10.27,-1.95 7.44,-19.34 -2.94,-18.19 -69.24,7.65 -139.87,3.46 -208.36,16.88 0.03,-6.98 0,-13.89 -0.25,-20.71 -0.28,-6.54 -0.32,-13.1 -0.21,-19.65 63.68,4.43 125.27,-25.77 189.22,-26.4 69.8,-0.75 140.82,11.21 210.28,17.2 129.74,11.22 254.63,-7.9 382.47,-25.7 -3.26,7.78 -6.69,15.57 -10.17,23.29zm-907.85 -157.64c-20.28,-20.15 -41.91,-38.48 -58.19,-62.39 -19.69,-28.8 -24.89,-65.7 -26.48,-100.17 5.35,52.45 35.08,122.29 85.18,145.16l0.7 0.14c-0.17,5.78 -0.63,11.51 -1.2,17.25zm19.02 -194.92c-1.92,-84.14 10.3,-166.77 9.98,-250.68 -0.07,-27 0.77,-59.04 15.39,-82.97 -2.44,13.6 -1.98,27.78 -1.6,42.12 0.99,36.9 -6.01,74.28 -9.97,111 -9.88,91.11 -5.42,180.96 -4.21,272.27 1.13,83.22 -12.67,166.23 -9.66,249 1.98,55.01 -6.73,109.25 -5.74,164.05 -3.78,0.25 -7.54,0.41 -11.4,0.7 5.63,-88.64 -13.13,-171.83 8.5,-260.08 19.72,-80.72 10.55,-163.1 8.71,-245.4zm-125.21 102.09c-10.9,-34.73 -5.31,-77.13 -5.63,-113.1 -0.14,-23.54 -1.56,-46.87 -4.82,-70.06 20.43,44.47 7.23,100.23 16.22,147.86 13,68.94 49.74,102.5 95.4,150.47l1.38 2.36c-0.85,4.64 -1.77,9.24 -2.73,13.8 -3.53,-5.26 -7.86,-9.41 -13.17,-12.77 -11.86,-11.71 -22.66,-27.32 -33.49,-38.44 -23.86,-24.34 -42.8,-47.11 -53.17,-80.11zm-33.56 -202.91l2.48 -1.27 -0.04 3c14.16,74.35 -8.14,157.79 21.41,228.24 9.24,21.97 25.88,40.71 41.28,58.5 5.31,6.13 10.55,12.75 15.93,19.38 -11.78,-2.88 -22.8,-6.2 -34.3,-15.94 -19.58,-16.65 -29.28,-42 -36.85,-65.74 -11.05,-34.62 -11.93,-71.37 -18.09,-106.87 -0.78,-4.4 -1.6,-8.75 -2.41,-13.11l0.46 -0.95c9.62,-32.64 15.82,-71.12 10.13,-105.25zm960.92 604.18l-0.18 -0.07c-14.05,-3.67 -29.8,-5.34 -42.8,2.34 -7.51,4.36 -4.71,14.7 2.66,17.13 7.29,2.41 14.9,3.65 22.55,4.93 -169.47,224.02 -438.08,369.26 -739.14,369.26l-5.2 0c-247.52,-1.37 -479.62,-99.01 -653.64,-275.02 -4.47,-4.5 -8.82,-9.07 -13.17,-13.64 6.37,-0.38 12.66,-1.37 18.43,-4.45 7.55,-3.97 4.86,-15.36 -2.69,-17.36 -6.26,-1.63 -12.77,-1.09 -19.15,-0.91 -5.52,0.18 -11.05,0.03 -16.25,1.41 -16.47,-18.4 -32.04,-37.35 -46.87,-56.78 6.83,-4 13.28,-8.99 18.91,-12.82 27.61,-18.86 55.68,-35.11 87.43,-46.34 38.83,-13.77 62.24,21.03 93.39,38.17 29.23,15.96 54.69,20.38 85.56,6.61 37.28,-16.57 59.97,6.66 96.76,3.82 14.4,-1.17 40.14,-11.12 49.41,2.27 5.24,7.54 15.36,17.27 23.65,21.55 24.14,12.35 53.03,12.32 79.55,10.52 18.26,-1.23 35.78,-8.85 52.81,-14.91 24.96,-8.91 58.55,-9.23 85,-11.08 46.06,-3.11 93.18,-11.07 139.23,-9.37 50.34,1.91 98.98,13.35 145.89,30.83 14.76,5.56 29.35,9.07 43.72,10.91 -9.87,3.36 -19.79,6.69 -29.52,10.05 -49.95,17.06 -96.29,43.75 -149.96,44.89 -21.99,0.45 -44.17,-0.99 -66.2,-1.09 -30.38,-0.07 -59.97,13.49 -89.95,8.11 -34.83,-6.38 -55.5,-18.06 -89.31,-0.11 -9.52,5.1 -2.34,20.89 7.75,17.24 41.06,-14.77 73.67,11.37 114.74,6.83 24.1,-2.66 46.34,-8.46 70.87,-8.53 25.35,-0.1 50.81,1.38 76.15,0.04 41.02,-2.09 80.5,-26.03 118.73,-39.02 50.91,-17.35 104.57,-32.08 153.63,-54.16l1.95 -1.38c20.82,-7.61 41.45,-16.86 62.06,-26.76 20.39,-9.77 39.62,-18.9 61.6,-24.36 10.27,-2.61 24.85,-1.4 33.49,-8.74 10.05,-8.64 8.85,-16.77 22.87,-26.62 18.69,-13.02 46.2,-15.9 67.97,-18.15 51.27,-5.46 105.96,24.03 156.68,20.45 -9.41,15.02 -19.19,29.77 -29.41,44.32zm-1564.78 -78.41c61.45,0.95 122.13,-15.54 184.54,-7.47 11.9,1.53 15.94,-14.02 4.54,-18.08 -60.82,-21.68 -137.43,-5.07 -200.97,3.81 -7.34,-13.87 -14.31,-27.87 -20.92,-42.03 33.21,11.44 72.67,5.11 107.26,3.9 74.69,-2.59 149.04,0.25 223.77,0.27 72.43,0.09 143.48,-6.96 215.56,-12.84 65.49,-5.34 130.09,13.32 195.94,11.33 4.28,0.68 7.22,1.1 10.09,0.96 0.57,24.7 2.59,49.45 4.33,74.24 -4.5,-2.16 -9.07,-4.31 -13.42,-5.38 -12.11,-2.98 -32.08,3.95 -44.5,5.34 -32.95,3.75 -66.27,1.84 -99.26,3.64 -11.75,0.64 -11.04,17.34 0.46,18.02 29.42,1.57 58.94,0.43 88.29,-1.38 24.14,-1.59 45.5,-8.42 68.15,0.88l1.6 0.43c0.78,15.36 1.2,30.77 0.74,46.13 -34.9,2.73 -68.47,8.45 -101.74,20.42 -34.37,12.28 -93.1,12.1 -112.01,-25.21 -8,-15.9 -37.98,-5.9 -49.24,-4.24 -23.04,3.47 -35.39,0.25 -55.33,-10.37 -7.82,-4.18 -20.91,-5.31 -29.59,-3.27 -13.98,3.27 -26.69,9.03 -40.04,14.3 -27.4,10.99 -59.9,-7.54 -81.31,-24.3 -21.95,-17.11 -35.89,-33.61 -65.32,-30.6 -26.48,2.66 -52.85,16.93 -76.03,29.17 -12.46,6.62 -40.22,33.63 -58.1,41.52 -20.95,-28.67 -40.1,-58.47 -57.45,-89.21zm813.08 -1406.92l-5.42 -0.04c-522.19,0 -949.41,424.96 -952.28,947.19 -1.41,254.38 96.36,494.12 275.21,675.02 178.88,180.86 417.51,281.3 671.94,282.63l5.34 0.03c253.26,0 491.72,-98.37 671.38,-277.01 59.93,-59.57 110.91,-125.77 152.36,-196.86l1.41 -0.63c5.49,-2.9 7.08,-7.86 6.09,-12.45 20.67,-36.79 38.8,-74.87 54.31,-113.93 2.51,-2.7 3.78,-6.33 3.78,-9.8 40.71,-106.02 62.31,-219.55 62.98,-336.45 2.9,-525.17 -421.98,-954.79 -947.11,-957.69z"/>
  <path class="fil0" d="M1356.68 1430.3c-18.73,-6.65 -36.18,-0.04 -54.38,5.84 -30.38,9.8 -58.62,-5.52 -89.28,-2.89 -11.71,0.95 -11.43,18.26 0.39,18.22 22.59,-0.11 43.86,8.24 66.31,9.84 25.17,1.84 46.72,-16.15 72.39,-12.7 12.03,1.59 16.11,-14.21 4.57,-18.31z"/>
  <path class="fil0" d="M1377.21 1375.72c-14.62,-0.71 -29.24,-0.22 -43.68,-2.56 -11.3,-1.91 -15.75,15.02 -4.33,17.35 15.87,3.29 32.29,3.89 48.5,3.19 11.65,-0.57 10.98,-17.41 -0.49,-17.98z"/>
  <path class="fil0" d="M499.24 1399.25c68.64,12.71 157.67,12.82 223.84,-11.54 11.26,-4.13 6.16,-19.68 -5.31,-17.52 -73.03,13.59 -142.49,16.5 -216.58,11.23 -10.2,-0.75 -11.9,15.96 -1.95,17.83z"/>
  <path class="fil0" d="M358.99 1524.31c3.67,-4.99 4.06,-12.86 -2.45,-16 -12.42,-5.97 -31.08,2.06 -42.13,8.67 -8.6,5.22 -4.82,20.26 5.74,19.34 6.4,-0.6 12.88,-1.74 19.22,-3.09 6.94,-1.52 15.15,-2.93 19.62,-8.92z"/>
  <path class="fil0" d="M278.84 1502.76c-3.75,-0.63 -7.26,-0.59 -11.05,-0.34 -11.86,0.45 -11.19,17.65 0.46,18.22l8.64 -0.11c4.03,-0.66 7.47,-2.61 8.49,-6.9 1.13,-4.39 -1.66,-10.17 -6.54,-10.87z"/>
  <path class="fil0" d="M827.26 1566.84c12.53,-0.25 25.03,0.88 37.49,0.38 8.99,-0.38 13.6,-14.02 4.43,-18.08 -15.26,-6.69 -31.83,-6.44 -46.97,0.56 -8.75,4.07 -3.47,17.32 5.06,17.14z"/>
  <path class="fil0" d="M764.49 1594.55c2.69,-7.6 -5.8,-13.12 -12.28,-11.67l-8.81 2.44c-9.88,1.81 -9.13,17.95 0.53,19.65 3.75,0.63 7.29,1.13 10.94,-0.28 5.03,-1.99 7.79,-5.17 9.62,-10.14z"/>
  <path class="fil0" d="M928.15 1572.43c3.79,0.18 7.3,0.63 11.05,-0.35 8.92,-2.31 8.07,-15.36 -0.46,-17.56 -3.64,-0.99 -7.33,-0.43 -11.08,-0.21 -11.75,0.66 -11.05,17.46 0.49,18.12z"/>
  <path class="fil0" d="M784.53 1557.74c4.14,0.52 8.6,1.24 11.68,-2.48 3.43,-4.21 3.01,-8.89 -0.35,-12.92 -2.37,-2.86 -6.09,-2.86 -9.34,-2.41 -4.07,0.47 -7.51,2.66 -8.61,6.83 -1.06,4.36 1.67,10.39 6.62,10.98z"/>
  <path class="fil0" d="M606.33 1545.46l2.83 -0.15c3.68,-0.52 5.88,-0.84 9.7,-2.57 6.44,-2.95 5.7,-13.82 -0.39,-16.57 -4.21,-1.92 -9.09,-2.9 -13.7,-1.74l-6.09 3.6 -1.27 0.95 -1.49 2.07 -0.21 0.11c-6.2,7.31 2.02,19.32 10.62,14.29z"/>
  <path class="fil0" d="M1378.2 840.81c0.46,-8.92 0.07,-18.22 -1.92,-26.94 -1.45,-6.62 -11.5,-5.98 -12.88,0.32 -2.02,8.63 -2.34,18.11 -1.84,27.04 0.53,10.84 16.14,10.23 16.64,-0.42z"/>
  <path class="fil0" d="M1363.4 909.27c-2.02,8.67 -2.34,18.2 -1.84,27.05 0.53,10.87 16.14,10.2 16.64,-0.39 0.46,-8.96 0.07,-18.26 -1.92,-27.02 -1.45,-6.57 -11.5,-5.9 -12.88,0.36z"/>
  <path class="fil0" d="M1345.35 850.04c6.02,9.1 18.91,0.77 14.16,-8.74 -3.75,-7.58 -8.74,-14.47 -13.98,-20.99l-7.65 -2.9c-3.33,1.02 -5.81,5 -4.47,8.38 3.15,8.4 6.9,16.75 11.93,24.25z"/>
  <path class="fil0" d="M1391.97 901.38c-4.28,-5.28 -13.35,0.7 -11.05,6.79 3.19,8.36 6.94,16.71 11.97,24.28 5.98,9.06 18.91,0.78 14.16,-8.78 -4,-8.1 -9.41,-15.36 -15.08,-22.3z"/>
  <path class="fil0" d="M1313.17 850.75c6.94,5.63 14.31,11 22.45,15.04 9.73,4.86 16.89,-8.67 8.04,-14.62 -7.55,-4.99 -15.82,-8.6 -24.28,-11.82 -6.23,-2.41 -11.26,7.27 -6.2,11.4z"/>
  <path class="fil0" d="M1426.03 898.72c-7.58,-5.02 -15.87,-8.6 -24.21,-11.82 -6.34,-2.37 -11.37,7.26 -6.3,11.39 6.93,5.67 14.34,11.03 22.48,15.02 9.73,4.86 16.89,-8.71 8.04,-14.59z"/>
  <path class="fil0" d="M1335.16 884.31c10.84,-0.56 10.24,-16.14 -0.39,-16.71 -8.92,-0.45 -18.26,-0.06 -27,1.96 -6.55,1.45 -5.95,11.46 0.31,12.87 8.71,2.02 18.2,2.31 27.08,1.88z"/>
  <path class="fil0" d="M1402.91 869.56c-6.61,1.45 -5.94,11.46 0.28,12.87 8.71,2.02 18.16,2.31 27.05,1.88 10.83,-0.56 10.23,-16.14 -0.39,-16.71 -8.92,-0.45 -18.26,-0.06 -26.94,1.96z"/>
  <path class="fil0" d="M1335.27 886.33c-7.55,3.75 -14.59,8.74 -20.99,13.99l-2.91 7.65c0.96,3.33 4.93,5.78 8.36,4.49 8.39,-3.18 16.75,-6.92 24.28,-11.92 9.1,-6.02 0.74,-18.9 -8.74,-14.2z"/>
  <path class="fil0" d="M1402.07 864.88c8.39,-3.15 16.74,-6.94 24.31,-11.93 9.06,-6.02 0.74,-18.91 -8.74,-14.12 -8.15,3.95 -15.4,9.37 -22.38,15.04 -5.24,4.24 0.74,13.38 6.8,11.01z"/>
  <path class="fil0" d="M1345.14 902.19c-5.07,7.54 -8.64,15.81 -11.82,24.25 -2.41,6.26 7.26,11.33 11.36,6.22 5.63,-6.94 11.01,-14.3 15.04,-22.4 4.86,-9.74 -8.7,-16.97 -14.58,-8.08z"/>
  <path class="fil0" d="M1392.18 850.33c5.67,-6.93 11.05,-14.34 15.08,-22.46 4.89,-9.76 -8.67,-16.91 -14.58,-8.06 -5.07,7.54 -8.64,15.89 -11.86,24.24 -2.41,6.3 7.3,11.3 11.36,6.27z"/>
  <path class="fil0" d="M1458.24 883.15c4.68,3.93 12.07,5.41 17.59,3.07 4.11,-1.66 7.23,-4.27 8.36,-8.7 1.2,-4.96 -0.99,-11.68 -5.98,-13.77 -6.44,-2.66 -14.2,-2.48 -19.51,1.84 -3.54,0.95 -7.15,1.16 -9.73,4.28l0.21 9.49c2.69,3.22 5.77,2.61 9.06,3.78z"/>
  <path class="fil0" d="M1364.22 865.66l-0.31 0.21c-5.28,4.21 -7.9,10.91 -4.04,17.13 3.93,6.42 14.62,8.5 19.69,2.09l0.14 -0.23c3.54,-4.47 4.78,-10.05 1.63,-15.16 -3.25,-5.24 -11.82,-8.25 -17.1,-4.03z"/>
  <path class="fil0" d="M1275.15 1125.18c-0.98,-3.5 -3.96,-6.44 -7.54,-7.23 -32.88,-7.1 -61.7,-27.78 -81.03,-55.18 -6.9,-9.87 -22.27,-0.6 -16.01,9.86 18.77,31.38 50.81,54.56 85.99,64.19 6.94,23.08 17.95,46.93 38.27,60.64 8.67,5.84 18.09,-5.88 13.28,-13.98 -11.93,-20.18 -26.16,-34.99 -32.96,-58.31z"/>
  <path class="fil0" d="M1424.72 1225.9c9.03,5.14 23.12,8.81 33.39,6.93 10.01,-1.78 8.64,-17.16 -0.42,-19.23 -4.82,-0.98 -7.72,-0.81 -12.95,-1.87 -4.43,-0.85 -8.92,-1.81 -13.14,-3.4 -10.34,-3.85 -15.9,12.39 -6.87,17.56z"/>
  <path class="fil0" d="M220.07 1184.78c10.44,18.24 18.54,35.47 24.71,55.62 3.04,9.91 18.44,7.62 18.02,-2.9 -0.82,-22.41 -14.38,-44.76 -27.55,-62.1 -6.83,-9.1 -20.99,-0.81 -15.18,9.37z"/>
  <path class="fil0" d="M1171.54 1134.59c-5.74,-2.75 -10.98,-5.97 -14.13,-11.07 -5.17,-8.36 -20.35,-2.23 -16.22,7.29 4.5,10.27 12.53,18.09 23.68,20.71 9.91,2.3 16.19,-12.21 6.66,-16.93z"/>
  <path class="fil0" d="M692.42 1153.21c11.26,19.43 15.36,47.94 38.02,57.92 8.92,3.92 19.12,-7.43 10.65,-14.59 -17.66,-15 -19.15,-38.62 -34.51,-54.79 -7.4,-7.8 -19.23,2.68 -14.16,11.46z"/>
  <path class="fil0" d="M1052.91 713.08c21.03,11.19 43.58,7.44 64.36,22.8 14.69,10.8 30.8,24.68 50.66,20.61 15.04,-3.09 33.49,-13.22 47.93,-5.45 13,7 24.54,17.13 36.12,26.18 14.94,11.69 32.07,33.43 51.05,37.85 9.13,2.12 14.3,-7.22 10.76,-14.76 -8.78,-18.85 -37.91,-34.23 -54.09,-46.37 -11.86,-8.89 -33.28,-29.11 -49.63,-28.54 -13.28,0.46 -23.75,3.54 -36.54,7.71 -24.42,7.91 -42.62,-16.1 -61.66,-26.5 -13.88,-7.61 -41.35,-15.54 -57.07,-11.26 -8.11,2.23 -9.17,13.87 -1.88,17.73z"/>
  <path class="fil0" d="M1050.33 837.79c26.69,-8.42 53.88,-9.83 81.52,-11.89 54.73,15.79 98.41,21.99 134.49,72.71 7.54,10.59 22.34,1.06 16.89,-10.44 -28.15,-59.31 -84.36,-68.86 -141.36,-83.54l-6.75 -2.02 -2.87 0 -2.94 0.49c-29.77,2.51 -59.76,3.46 -86.98,16.99 -10.13,4.96 -2.41,20.92 8.01,17.69z"/>
  <path class="fil0" d="M618.97 891.53c-24.25,-6.22 -47.05,-0.31 -69.28,10.17 -29.63,14.02 -65.21,42.87 -98.66,25.6 -10.52,-5.42 -18.02,9.23 -8.71,15.72 23.65,16.53 48.18,10.72 72.96,-0.36 33.95,-15.15 62.73,-35.85 101.67,-32.74 10.69,0.81 11.89,-15.87 2.02,-18.38z"/>
  <path class="fil0" d="M694.76 330.11c-10.77,4.01 -6.02,19.66 5.17,17.07 57.31,-13.13 101.1,-5.88 155.72,12.88 19.69,6.76 39.16,13.67 59.37,18.88 24.07,6.09 47.22,1.67 70.67,13.17 13.45,6.69 24.82,-13.66 11.33,-20.46 -18.44,-9.31 -33.03,-11.69 -53.6,-11.96 -27.9,-0.5 -56.29,-12.5 -82.35,-21.42 -57.42,-19.54 -107.79,-29.86 -166.31,-8.15z"/>
  <path class="fil0" d="M1206.83 349.76c-40.29,-5.66 -64.64,-49.52 -108.61,-34.09 -11.05,3.81 -6.09,19.54 5.2,17.17 38.8,-8.21 62.42,36.89 101.32,35.29 10.16,-0.39 12.77,-16.86 2.09,-18.37z"/>
 </g>
</svg>
