<?xml version="1.0" encoding="UTF-8"?>
<svg xmlns="http://www.w3.org/2000/svg" xml:space="preserve" width="0.747331in" height="0.747331in" version="1.1" style="shape-rendering:geometricPrecision; text-rendering:geometricPrecision; image-rendering:optimizeQuality; fill-rule:evenodd; clip-rule:evenodd"
viewBox="0 0 965.6 965.6"
 xmlns:xlink="http://www.w3.org/1999/xlink"
 xmlns:xodm="http://www.corel.com/coreldraw/odm/2003">
 <defs>
  <style type="text/css">
   <![CDATA[
    .fil0 {fill:black;fill-rule:nonzero}
   ]]>
  </style>
 </defs>
 <g id="Layer_x0020_1">
  <metadata id="CorelCorpID_0Corel-Layer"/>
  <path class="fil0" d="M911.87 670.94c-20.13,1.02 -37.04,6.28 -54.5,16.24 -18.7,10.66 -44.9,31.4 -66.97,20.23 -0.99,-1.15 -1.76,-2.55 -2.19,-4.25l0.38 -1.96c0.4,-11.54 4.07,-27.55 0.13,-38.62 -5.92,-16.62 -18.5,-28.48 -24.15,-45.58 -5.32,-16.01 -8.13,-31.98 -16.22,-46.98 -7.43,-13.77 -19.64,-24.39 -31.14,-34.62 -12.27,-10.91 -22.43,-21.55 -29.99,-36.3 -6.46,-12.67 -10.68,-27.15 -20.55,-37.79 -19.19,-20.66 -52.29,-23.85 -67.26,-47.31 -2.56,-7.43 -4.91,-14.87 -7.52,-21.85 -2.89,-7.83 -6.73,-19.33 -14.95,-23.29 -9.6,-4.63 -18.86,-2.73 -27.96,-9.8 -9.53,-7.41 -13.62,-22.73 -21.44,-32.08 -7.74,-9.23 -23.02,-12.2 -33.92,-14.88 -23.61,-5.79 -51.7,-20.35 -76.54,-15.68 -25.25,4.76 -41.92,24.05 -58.45,42.24 -19.2,21.16 -34.78,44.85 -42.28,72.59 -3.98,14.65 -4.92,30.17 -7.7,45.04 -3.28,17.53 -12.72,31.42 -20.82,46.89 -8.06,15.43 -13.31,31.07 -24.53,44.72 -9.58,11.7 -26.72,17.61 -39.29,25.36l-2.04 1.76c-28.51,-6.5 -58.02,-6.01 -89.51,-4.93 -36.25,1.22 -83.59,4.14 -114.28,-18.41 -3.32,-22.47 -5.04,-45.46 -5.04,-68.84 0,-258.97 210.68,-469.66 469.62,-469.66 258.99,0 469.65,210.7 469.65,469.66 0,66.88 -14.07,130.54 -39.39,188.21l-1.16 -0.09zm-69.56 113.7l-2.58 -0.25c-8.61,-0.16 -17.01,-0.13 -25.54,-1.8 -18.79,-3.61 -15.9,-21.5 -11.88,-35.94 2.49,-8.92 2.83,-15.45 0.31,-24.05 9.55,0.46 19.65,-2.53 29.14,-6.3 11.54,-4.59 22.09,-11.36 32.81,-17.53 13.3,-7.7 26.81,-10.97 41.58,-12.69 -17.16,35.53 -38.66,68.62 -63.83,98.55zm-140.76 -228.8l-0.27 -1.96c-0.4,-4.13 -0.81,-8.2 -1.36,-12.2 5.15,5.08 10.44,10 15.68,15 -4.68,0.34 -9.26,-0.09 -14.05,-0.84zm33.18 25.7c1.98,3.88 3.72,7.87 5.21,11.97 -9.39,2.73 -18.43,0.28 -27.76,-0.94 -1.29,-2.94 -2.51,-5.87 -3.64,-8.79 8.95,1.43 18.27,1.56 26.2,-2.24zm-29.93 -8.96c-0.5,-1.92 -0.97,-3.8 -1.42,-5.74 6.84,1.4 14.07,0.82 20.67,-1.55 1.9,2.24 3.7,4.52 5.3,6.89 -8.26,1.87 -16.12,0.79 -24.55,0.39zm-222.09 -135.31c11.61,2.21 23.56,1.47 35.21,3.59 12.78,2.33 22.93,12.23 28.08,23.81 2.67,6.1 -0.4,16.04 0.5,22.79 1.31,9.96 6.87,15.74 15.2,20.46 15.7,8.97 2.04,41.7 6.87,57.37 6.03,19.51 20.15,29.82 17.21,52.36 -2.03,15.33 -7,30.15 -9.49,45.44 -26.2,-0.13 -50.48,-0.86 -76.76,-6.28 -26.61,-5.54 -52.41,-9.42 -79.62,-9.75 -5.53,-0.09 -11.04,-0.09 -16.51,-0.2 0.95,-2.74 1.15,-5.72 -0.02,-8.97 -5.64,-15.29 -11.32,-24.55 -3.91,-40.68 9.83,-21.43 10.07,-33.45 -4.15,-51.16 -11.47,-14.32 -8.55,-33.61 -12.67,-50.6 -0.79,-3.32 -7.61,-12.67 -5.65,-16.44 3.12,-5.93 7.84,-11.45 11.37,-17.17 8.99,-14.52 18.81,-26.88 31.34,-38.39 14,-12.85 27.15,-9.01 41.81,-11.02 -2.33,13.6 5.6,21.92 21.17,24.83zm300.4 406.33c-9.88,1.03 -17.82,-2.58 -27.69,-4.97 -5.37,-1.31 -8,6 -3.46,8.8 5.26,3.19 11.15,6.03 17.1,7.45 -79.32,61.14 -178.61,97.59 -286.28,97.59 -131.57,0 -250.62,-54.39 -335.97,-141.88 5.4,-0.61 10.9,-2.1 16.04,-2.58 11.83,-1.06 22.07,2.09 32.37,7.65 5.35,2.89 9.98,-4.04 6.07,-8.29 -8.65,-9.33 -19.02,-13.23 -31.55,-14.09 -9.83,-0.68 -24.26,0.75 -33.38,6.33 -29.43,-32.15 -54.41,-68.42 -74.06,-107.8 17.71,8.92 41.06,11.12 58.23,13.13 6.32,0.77 8.72,-7.68 2.44,-9.71 -24.46,-7.84 -55.9,-6.12 -72.2,-28.23 -5.79,-13.59 -10.96,-27.47 -15.5,-41.65 21.86,14.59 54.25,17.19 78.17,17.49 62.85,0.79 122.84,-1.15 179.69,31.01 4.9,2.78 10.57,-4.5 5.96,-8.13 -39.76,-31.01 -93.71,-39.61 -143.06,-40.43 -39.82,-0.63 -97.73,9.49 -127.86,-24.46 -2.51,-9.65 -4.7,-19.45 -6.6,-29.34 22.52,15.4 58.38,15.4 82.69,15.83 24.32,0.43 48.58,-1.34 72.87,-1.45 34.17,-0.14 63.03,10.05 91.86,27.64 22,13.37 42.26,29.81 65.99,40.15 24.15,10.57 52,10.34 77.81,10.46 30.99,0.14 60.08,4.59 90.32,10.86 25.25,5.26 53.64,10.61 78.57,1.8 4.04,1.36 8.68,0 9.42,-5.44l0.45 -2.78c4.24,1.78 8.36,4.02 12.53,5.76 4.56,1.92 10.23,-4.09 5.58,-7.6 -5.22,-3.93 -10.29,-7.14 -15.97,-8.82 0.41,-1.79 0.86,-3.64 1.31,-5.47 7.91,3.48 16.73,5.01 24.83,2.68 5.3,-1.53 3.95,-9.67 -1.53,-9.53 -7.55,0.21 -13.77,-2.42 -20.28,-4.81 1.11,-4.23 2.14,-8.51 3,-12.76 9.28,2.95 19.02,4.25 28.59,6.66 16.53,4.18 32.71,9.87 48.81,15.4 6.35,2.17 9.12,-7.13 4.07,-10.37 -20.49,-13.26 -52.8,-29.11 -79.43,-26.32 0.2,-3.56 0.16,-7.13 -0.14,-10.72 8,-0.25 15.79,-0.32 23.94,3.04 6.23,2.56 10.46,-5.19 5.03,-9.1 -8.36,-5.98 -20.67,-8.65 -31.62,-6.94l-0.23 -0.84c-1.01,-2.83 -2.12,-5.44 -3.25,-7.93 3.59,-1.4 7.2,-2.84 10.93,-3.77 5.13,-1.26 3.73,-9.39 -1.47,-9.1 -4.86,0.27 -9.55,1.76 -14.13,3.61 -2.89,-5.51 -5.58,-10.69 -7.25,-16.53 4.05,-1.07 8.33,-0.92 12.67,0.31 5.2,1.48 8.31,-6.35 3.46,-8.83 -5.89,-2.96 -12.02,-3.54 -17.73,-1.97 -0.09,-2.98 0.11,-6.16 0.72,-9.65 1.16,-6.62 2.19,-14 1.13,-20.73 17.75,2.62 38.1,-1.33 53.87,-3.5 6.24,-0.88 5.99,-9.12 -0.23,-9.73 -20.73,-2.07 -41.08,3.41 -61.27,-0.82 -6.73,-5.64 -15.24,-5.47 -16.92,-17.68 -0.66,-5.06 0.9,-10.59 0.72,-15.72 -0.34,-11.13 -10.19,-23.55 -19.06,-29.43 -6.35,-4.24 -12.89,-6.8 -19.78,-8.49 -6.65,-9.24 -7.28,-19.97 -8.77,-31.2 -0.68,-4.92 -8.77,-6.88 -9.49,-1.04 -1.08,8.76 -1.02,20.37 2.71,29.68 -12.4,-1.2 -38.44,3.88 -35.05,-15.77 10.93,-3.23 19.51,-12.38 25.1,-22.14 2.7,-4.67 -3.96,-9.62 -7.6,-5.6 -5.78,6.4 -11.25,13.57 -18.97,17.41l-0.92 0.25c-12.74,4.42 -25.45,0.5 -38.48,3l-4.02 1.18c2.83,-11 4.83,-20.83 9.82,-31.62 6.66,-14.33 0.32,-32.57 -10.9,-42.89 -3.78,-3.55 -10.32,1.38 -7.19,5.85 10.55,15.07 11.05,24.96 1.63,39.84 -8.94,14.14 -9.53,29.61 -14.07,45.04 -3,3.29 -5.74,6.5 -8.04,9.21 -9.16,10.59 -16.41,22.7 -23.92,34.49 -2.75,-7.54 -8.13,-13.91 -16.28,-15.65 -4.83,-1.06 -8.06,6.1 -3.25,8.35 8.11,3.8 11.22,11.72 11.95,20.03 -0.59,1.94 -0.7,4.11 -0.12,6.87 1.29,6.32 3.54,11.52 5.36,17.21l-0.32 0c-2.39,0.55 -5.17,0.52 -7.68,1.02 -4.7,0.95 -4.27,8.33 0.21,9.24 3.36,0.68 6.91,0.5 9.98,-1.04l0.34 2.44c0.34,3.36 0.63,6.59 0.95,9.76 -2.84,-1.24 -5.92,-1.92 -9.12,-1.74 -4.92,0.31 -6.26,8.33 -1.01,8.97 4.74,0.57 8.31,2.92 11.99,5.67l0.5 2.49c0.84,3.63 2.53,6.75 4.52,9.73 -2.58,0.82 -5.06,1.9 -7.36,3.32 -4.38,2.75 -1.27,10.12 3.75,8.36 3.02,-1.08 6.16,-1.82 8.8,-3.72l0.38 -0.41c2.46,3.18 4.76,6.46 6.26,10.14 1.02,2.51 1.28,5.15 1.04,7.86 -5.96,-5.22 -14.45,-7.27 -22.33,-6.39 -4.7,0.54 -6.35,8.16 -0.97,8.92 7.45,1.04 13.82,3.02 19.63,7.92l0.63 0.36c-1.97,4.61 -4.47,9.24 -6.66,13.71 -4.09,-1.56 -8.58,-1.89 -12.72,-0.11 -4.61,1.92 -4.11,9.17 1.41,9.03 2.44,-0.06 5.03,0.14 7.48,0.72l-0.36 1.49c-0.88,4.36 0.13,8.9 1.65,13.46 -3.07,0.25 -6.11,0.73 -8.99,1.07 -6.39,0.86 -6.03,9.21 0.23,9.85 3.97,0.41 8.34,0.18 12.58,-0.41 1.56,4.58 2.6,9.06 1.92,13.4 -17.89,-0.9 -35.46,-3.35 -52.51,-10.76 -23.09,-10.09 -43.53,-27.74 -65.02,-40.83 -9.15,-5.54 -18.36,-9.9 -27.64,-13.37 10.17,-5.53 20.06,-11.17 28.34,-18.85 10.42,16.41 49.17,17.32 56.92,35.19 2.55,5.94 10.59,3.46 9.49,-2.85 -2.44,-14.29 -13.5,-22.38 -26.2,-27.46 -10.61,-4.25 -25.16,-6.93 -29.11,-18.27l0.86 -1.42c6.87,-11.83 11.55,-24.95 17.21,-37.33 5.17,-11.3 12.52,-21.35 16.46,-33.23 8.65,-26.13 8,-54.22 18.48,-79.82 10.78,-26.45 31.62,-49.1 51.67,-68.93 24.14,-24.01 45.73,-18.32 74.72,-8.58 13.44,4.56 27.3,7.27 40.81,11.45 17.08,5.28 20.58,20.42 29.64,33.37 12.73,18.23 35.8,11.05 44.58,31.75 5.8,13.65 9.87,27.98 15.7,41.65 2.41,5.65 5.39,10.93 8.33,16.33l8.13 10.63c1.38,9.29 14.14,9.26 14.72,-0.38 0.48,-8.11 -4.76,-12.33 -9.41,-18.59l-1.72 -2.57c5.03,3.18 10.48,6.1 16.17,8.96 2.12,1.06 4.09,2.17 6,3.28l-1.69 1.85c-1.36,1.65 -1.78,3.82 -0.61,5.7 1.22,1.97 4.45,3.11 6.46,1.53l4.34 -3.37c2.41,1.81 4.63,3.77 6.71,5.83l-0.36 0.26c-3.27,3.95 -7.79,7.81 -12.35,10.12 -4.76,2.41 -1.15,10.16 3.82,8.45 3.54,-1.22 6.57,-2.92 9.4,-5.35 2.28,-1.92 3.92,-4.34 5.59,-6.77 1.56,1.97 3.05,4.07 4.45,6.27 -1.6,3.16 -3.97,6.23 -6.82,8.33 -1.72,1.27 -2.68,3.23 -2.03,5.35 0.7,2.35 3.43,3.98 5.85,3.16 3.75,-1.33 6.62,-3.57 8.63,-6.48l1.78 3.66c4.99,11.25 10,22.52 17.55,32.28 3.23,12.98 3.39,26.02 5.54,39.36 0.57,3.75 1.38,7.38 2.35,10.89l0.93 3c2.91,9.33 7.16,17.95 12.87,26.34 2.9,4.34 8.24,1.92 8.72,-2.15 8.88,2.22 18,2.69 26.47,-1.38 0.59,1.9 1.16,3.84 1.72,5.78l-4.49 0.95c-3.42,0.41 -6.94,0.57 -10.26,1.58 -4.45,1.4 -4,7.48 0.21,8.8 5.62,1.74 11.91,1.27 17.48,-0.84 1.02,3.37 2.15,6.6 3.41,9.71 -5.17,2.02 -9.87,2.89 -15.52,3 -5.3,0.13 -5.69,7.39 -0.97,8.92 6.87,2.21 14.55,1.01 20.4,-3.19 1.08,2.12 2.21,4.2 3.41,6.25 -3.7,1.34 -7.3,3.41 -10.93,4.57 -5.74,1.89 -3.05,9.94 2.69,8.85 4.44,-0.86 10.05,-1.58 14.25,-4.04 1.19,1.7 2.43,3.43 3.7,5.17 1.28,1.69 2.21,3.43 2.92,5.2 -5.24,-0.21 -10.39,1.95 -14.57,5.78 -4.04,3.7 1.34,9.44 5.74,7.09 3.48,-1.88 7.09,-2.6 10.84,-2.15 0.16,5.03 -0.34,10.16 -0.28,15.18 -19.08,-2.5 -35.08,-7.74 -53.93,-15.01 -16.46,-6.3 -36.99,-10.3 -53.17,-1.53 -4.04,2.17 -2.01,9.04 2.56,8.67 24.16,-2.19 44.63,9.03 66.65,17.37 12.11,4.59 29.18,11.7 42.01,6.53l0.06 0.07c0.21,5.24 1.83,10.19 5.76,13.44 17,14.07 0.27,36.41 3.75,54.34 4.09,21.11 22.56,26.83 41.35,27.99 -13.92,15.09 -28.84,29.25 -44.65,42.44zm-300.33 -843.6c-266.22,0 -482.78,216.56 -482.78,482.81 0,266.21 216.56,482.78 482.78,482.78 266.24,0 482.82,-216.58 482.82,-482.78 0,-266.25 -216.58,-482.81 -482.82,-482.81z"/>
  <polygon class="fil0" points="265.86,818.02 265.16,817.59 262.54,817.08 260.33,818.61 240.93,848.43 240.45,851.07 241.96,853.28 242.65,853.73 244.54,854.3 247.47,852.68 266.86,822.86 "/>
  <path class="fil0" d="M327.91 851.04l-0.72 -0.31 -2.7 -0.11 -1.95 1.87 -8.47 18.66 -2.08 -25.32 -2.05 -2.91 -0.75 -0.36c-1.8,-0.79 -3.84,0 -4.66,1.78l-14.65 32.39c-0.79,1.78 -0.02,3.82 1.72,4.63l0.7 0.32 2.71 0.11 1.96 -1.85 8.47 -18.68 2.12 25.32 2.03 2.91 0.79 0.38 1.42 0.28 3.21 -2.08 14.65 -32.39c0.79,-1.76 0.02,-3.83 -1.74,-4.65z"/>
  <path class="fil0" d="M377.33 882.89l-3.73 13.33c-0.55,2.03 -1.74,3.36 -3.73,4.27l-3.32 0.79 -0.02 0 -1.48 -0.18 -4.84 -1.34 7.45 -26.78 4.81 1.38 3.84 2.96c1.26,1.8 1.6,3.59 1.02,5.57zm-2.75 -16.04l-8.93 -2.51 -2.66 0.34 -1.67 2.08 -9.74 34.99 0.32 2.66 2.12 1.65 8.95 2.49 3.63 0.5c2.1,0 4.25,-0.48 6.44,-1.45 4.13,-1.81 6.91,-5.01 8.08,-9.27l3.73 -13.32c1.19,-4.25 0.45,-8.45 -2.13,-12.13 -2.16,-3.1 -4.88,-5.15 -8.13,-6.03z"/>
  <path class="fil0" d="M444.93 880.43l-0.79 -0.11c-1.87,-0.2 -3.66,1.15 -3.89,3.07l-3.05 25.5c-0.21,1.69 -0.92,2.98 -2.26,4 -1.31,1.04 -2.71,1.4 -4.4,1.24 -1.69,-0.2 -2.96,-0.92 -4,-2.26 -1.06,-1.29 -1.41,-2.71 -1.24,-4.43l3.05 -25.49c0.25,-1.94 -1.13,-3.68 -3.05,-3.88l-0.75 -0.11 -2.58 0.72 -1.31 2.33 -3.05 25.54c-0.47,3.75 0.5,7.16 2.81,10.12 2.33,2.96 5.42,4.68 9.21,5.13l1.8 0.11c3.07,0 5.89,-0.97 8.34,-2.92 2.98,-2.36 4.74,-5.42 5.19,-9.19l3.07 -25.5 -0.73 -2.58 -2.36 -1.29z"/>
  <path class="fil0" d="M502.52 901.89c-2.15,-1.01 -4.04,-1.89 -5.62,-2.6l-3.97 -1.78c-2.75,-1.29 -3.14,-2.78 -3.17,-4.07l0.9 -2.69c0.45,-0.55 1.31,-1.35 3.5,-1.42 0.82,0 2.98,0.23 8.06,1.8l4.02 -1.49 0.4 -0.65 0.43 -2.78 -1.74 -2.19c-3.07,-1.69 -6.64,-2.51 -10.61,-2.51l-0.91 0c-3.86,0.13 -7.04,1.65 -9.23,4.38 -1.81,2.28 -2.69,4.9 -2.6,7.8 0.11,3.7 1.68,6.8 4.52,9.04l0.41 0.23 2.29 1.31 2.19 1.04 6.01 2.8 2.51 1.31 1.29 0.92 1.13 2.58 -0.97 2.66 -2.94 1.4c-0.54,0 -2.82,-0.25 -10.29,-3.29l-4.2 1.24 -0.45 0.67 -0.56 2.63 1.49 2.26c1.97,1.31 4.27,2.41 6.84,3.16 2.37,0.7 4.66,1.06 6.84,1.06l0.6 0c3.55,-0.11 6.57,-1.6 8.77,-4.27 1.85,-2.35 2.76,-4.95 2.66,-7.79 -0.11,-3.23 -1.47,-7.72 -7.61,-10.76z"/>
  <path class="fil0" d="M565.17 873.27l-19.43 3.57 -2.26 1.45 -0.55 2.66 0.18 0.77c0.33,1.9 2.14,3.16 4.06,2.82l5.87 -1.07 5.74 31.12c0.29,1.7 1.76,2.87 3.43,2.87l0.63 -0.05 0.77 -0.15 2.26 -1.43 0.59 -2.63 -5.74 -31.14 5.87 -1.08 2.24 -1.45 0.59 -2.66 -0.16 -0.77c-0.38,-1.9 -2.17,-3.12 -4.07,-2.82z"/>
  <path class="fil0" d="M623.83 875.91c-0.82,1.08 -2.12,1.92 -3.9,2.53l-5.17 1.81 -3.95 -11.29 5.19 -1.81c1.75,-0.6 3.28,-0.75 4.59,-0.4 1.02,0.29 2.49,1.01 3.48,3.91 1.04,2.96 0.34,4.42 -0.25,5.24zm5.56 5.51c3.16,-3.44 3.9,-8.06 2.09,-13.31 -2.07,-5.89 -5.94,-8.06 -8.82,-8.87 -2.83,-0.75 -5.97,-0.59 -9.2,0.54l-9.23 3.23 -2.01 1.76 -0.16 2.69 11.82 33.95 3.31 2.37 1.13 -0.2 0.75 -0.27 1.99 -1.78 0.16 -2.68 -3.91 -11.23 5.22 -1.81 0.12 -0.09 10.84 10.68 4.85 0.04 0.57 -0.54 1.07 -2.49 -1.02 -2.53 -9.58 -9.46z"/>
  <path class="fil0" d="M683.44 853.89l2.39 -20.24c0.25,-1.9 -1.13,-3.65 -3.05,-3.92l-0.77 -0.09 -2.62 0.72 -1.31 2.33 -1.85 15.88 -14.21 -7.34 -2.69 -0.23 -2.04 1.76 -0.36 0.72c-0.86,1.7 -0.2,3.82 1.51,4.68l18.11 9.39 7.77 14.64 2.05 1.69 1.04 0.14 1.65 -0.4 0.7 -0.36c1.7,-0.92 2.35,-3.05 1.48,-4.74l-7.77 -14.65z"/>
  <path class="fil0" d="M356.45 153.9c4.99,-1.89 8.61,-5.33 10.77,-10.16 2.17,-4.88 2.28,-9.87 0.38,-14.84l-13.46 -35.03c-0.86,-2.22 -3.39,-3.34 -5.65,-2.51l-1.1 0.43 -2.42 2.31 -0.09 3.34 13.46 35.01c0.99,2.53 0.92,4.85 -0.16,7.3 -1.06,2.42 -2.73,3.98 -5.26,4.95 -2.53,0.97 -4.81,0.93 -7.27,-0.18 -2.44,-1.07 -4.04,-2.74 -4.99,-5.28l-13.45 -34.99 -2.3 -2.42 -3.37 -0.09 -1.06 0.4c-2.26,0.88 -3.39,3.41 -2.51,5.67l13.46 35c1.9,5.01 5.35,8.61 10.19,10.76 2.53,1.11 5.15,1.69 7.79,1.69 2.33,0 4.72,-0.45 7.06,-1.36z"/>
  <path class="fil0" d="M445.9 127.52l-5.46 -46.64 9.41 -1.11c2.41,-0.29 4.13,-2.43 3.84,-4.86l-0.13 -1.17 -1.63 -2.92 -3.23 -0.88 -28.66 3.32 -2.92 1.63 -0.92 3.25 0.16 1.14c0.27,2.41 2.48,4.11 4.85,3.84l9.39 -1.11 5.45 46.66 1.65 2.92 2.69 0.95 0.5 -0.06 1.16 -0.14c2.41,-0.28 4.11,-2.44 3.84,-4.83z"/>
  <path class="fil0" d="M534.73 92.81l3.36 17.46 -11.15 -1.47 7.79 -15.99zm5.35 27.74l2.22 11.36c0.4,2.1 2.23,3.56 4.29,3.56l0.68 -0.04 1.13 -0.2 2.9 -1.8 0.72 -3.37 -10.34 -53.53c-0.36,-1.85 -1.87,-3.25 -3.73,-3.52l-1.22 -0.16c-1.88,-0.23 -3.69,0.76 -4.52,2.43l-23.85 49.04 -0.16 3.43 2.35 2.53 1.06 0.41c2.15,0.97 4.66,0.02 5.69,-2.06l5.08 -10.41 17.7 2.33z"/>
  <path class="fil0" d="M628.25 160.97l1.61 0.28c1.72,0 3.37,-1 4.05,-2.73l19.38 -48.2c0.92,-2.24 -0.16,-4.77 -2.4,-5.69l-1.1 -0.45 -3.34 0.05 -2.37 2.39 -6.77 16.83 -17.57 -7.07 6.77 -16.83 -0.06 -3.38 -2.4 -2.31 -1.04 -0.41c-2.22,-0.92 -4.79,0.18 -5.69,2.43l-19.38 48.18 0.04 3.35 2.41 2.35 1.06 0.43c2.24,0.9 4.77,-0.2 5.69,-2.44l8.9 -22.18 17.6 7.09 -8.92 22.16 0.04 3.34 2.39 2.36 1.1 0.45z"/>
  <path class="fil0" d="M656.79 319.17c-1.56,-2.24 -3.48,-4.2 -5.65,-5.78 2.17,-1.62 4.05,-3.63 5.6,-5.87 1.54,2.24 3.46,4.2 5.63,5.81 -2.17,1.6 -4.03,3.59 -5.58,5.83zm20.52 -9.92l-0.6 -0.23 -0.23 -0.07c-7.87,-1.53 -13.98,-5.87 -15.2,-14.32 0.33,-3.43 -3.48,-4.92 -6.24,-4l-0.7 0.28 -0.36 0.2 -1 0.9 -0.61 1.72c-1.35,8.96 -6.89,13.59 -15.53,15.26l-1.06 0.47c-1.74,0.86 -2.35,2.76 -2.01,4.61l2.44 3.37 0.59 0.25 0.23 0.09c7.89,1.53 13.98,5.87 15.2,14.32 -0.32,3.41 3.48,4.9 6.23,4l0.72 -0.28 0.36 -0.21 1.01 -0.92 0.63 -1.69c1.33,-8.94 6.89,-13.6 15.5,-15.27l1.09 -0.43c1.7,-0.9 2.35,-2.8 1.97,-4.63l-2.44 -3.41z"/>
  <path class="fil0" d="M373.03 265.77c-1.53,-2.26 -3.45,-4.2 -5.64,-5.81 2.17,-1.62 4.07,-3.59 5.58,-5.87 1.54,2.26 3.46,4.2 5.67,5.8 -2.19,1.61 -4.07,3.61 -5.62,5.89zm20.53 -9.92l-0.57 -0.25 -0.23 -0.09c-7.92,-1.53 -14,-5.89 -15.22,-14.32 0.34,-3.41 -3.48,-4.88 -6.23,-4l-0.74 0.27 -0.32 0.23 -1.01 0.92 -0.65 1.7c-1.33,8.94 -6.87,13.57 -15.48,15.26l-1.09 0.45c-1.72,0.86 -2.36,2.8 -1.99,4.59l2.46 3.41 0.6 0.23 0.21 0.09c7.89,1.51 13.98,5.9 15.2,14.3 -0.32,3.43 3.5,4.92 6.25,4.02l0.72 -0.27 0.34 -0.2 0.99 -0.94 0.63 -1.7c1.35,-8.95 6.89,-13.6 15.53,-15.27l1.08 -0.43c1.74,-0.9 2.37,-2.8 1.99,-4.61l-2.44 -3.39z"/>
  <path class="fil0" d="M798.1 521.33l-2.49 -2.62 2.48 -2.62 2.51 2.58 -2.49 2.66zm15.95 -6.73l-0.45 -0.2 -0.31 -0.14c-5.4,-1.15 -9.78,-3.86 -10.68,-9.8 0.16,-1.94 -0.99,-3.27 -2.55,-3.88l-2.1 -0.54 -0.77 0.2 -0.52 0.13 -0.57 0.21 -2.1 2.08 -0.22 0.57 -0.07 0.25c-1,6.52 -4.86,9.51 -11.05,10.86l-0.07 0.02 -0.93 0.41c-1.8,0.9 -2.41,2.82 -2.07,4.61l2.53 3.41 0.47 0.2 0.28 0.13c5.4,1.16 9.8,3.86 10.72,9.8 -0.2,1.96 0.97,3.27 2.51,3.91l2.12 0.48 0.79 -0.16 0.5 -0.13 0.55 -0.2 2.08 -2.12 0.25 -0.6 0.07 -0.21c1,-6.52 4.83,-9.51 11.05,-10.86l0.06 0 0.97 -0.45c1.78,-0.9 2.41,-2.8 2.03,-4.61l-2.53 -3.39z"/>
  <path class="fil0" d="M812.22 269.61l-2.49 -2.62 2.49 -2.64 2.5 2.62 -2.5 2.64zm15.49 1.7l0.99 -0.4c1.74,-0.93 2.39,-2.83 1.99,-4.63l-2.51 -3.41 -0.43 -0.16 -0.33 -0.16c-5.38,-1.17 -9.78,-3.88 -10.68,-9.8 0.16,-1.94 -1,-3.28 -2.56,-3.89l-2.07 -0.5 -0.81 0.18 -0.52 0.11 -0.55 0.22 -2.08 2.08 -0.23 0.59 -0.09 0.23c-0.99,6.53 -4.84,9.51 -11.05,10.86l-0.06 0 -0.97 0.43c-1.76,0.92 -2.39,2.82 -1.99,4.63l2.48 3.39 0.47 0.18 0.31 0.15c5.4,1.16 9.8,3.88 10.69,9.81 -0.18,1.92 1.01,3.25 2.53,3.91l2.1 0.49 0.8 -0.2 0.49 -0.11 0.57 -0.18 2.09 -2.13 0.23 -0.6 0.09 -0.21c1.01,-6.53 4.85,-9.51 11.05,-10.84l0.06 -0.04z"/>
  <path class="fil0" d="M146.59 461.3l-2.49 -2.58 2.48 -2.66 2.51 2.62 -2.49 2.62zm15.97 -6.71l-0.45 -0.2 -0.29 -0.12c-5.44,-1.17 -9.8,-3.88 -10.73,-9.8 0.18,-1.96 -0.99,-3.27 -2.53,-3.91l-2.08 -0.5 -0.81 0.18 -0.5 0.13 -0.55 0.2 -2.1 2.12 -0.23 0.59 -0.07 0.2c-1,6.53 -4.86,9.53 -11.07,10.86l-0.06 0.04 -0.93 0.43c-1.78,0.9 -2.43,2.8 -2.05,4.61l2.5 3.39 0.47 0.2 0.31 0.14c5.4,1.15 9.8,3.88 10.69,9.8 -0.18,1.94 1.01,3.27 2.55,3.88l2.08 0.53 0.81 -0.19 0.5 -0.13 0.57 -0.21 2.08 -2.09 0.23 -0.57 0.07 -0.25c1.02,-6.51 4.84,-9.51 11.05,-10.84l0.06 -0.04 0.99 -0.41c1.75,-0.9 2.39,-2.78 1.99,-4.61l-2.49 -3.41z"/>
  <path class="fil0" d="M203.57 276.68l-2.51 -2.62 2.49 -2.64 2.51 2.62 -2.49 2.64zm15.95 -6.73l-0.43 -0.2 -0.31 -0.13c-5.42,-1.16 -9.78,-3.88 -10.71,-9.8 0.18,-1.97 -1,-3.3 -2.53,-3.89l-2.08 -0.54 -0.79 0.18 -0.52 0.14 -0.57 0.22 -2.08 2.06 -0.21 0.6 -0.11 0.25c-0.99,6.52 -4.84,9.49 -11.05,10.84l-0.05 0.04 -0.95 0.4c-1.78,0.93 -2.41,2.82 -2.03,4.64l2.5 3.38 0.46 0.23 0.31 0.11c5.4,1.16 9.8,3.88 10.7,9.8 -0.18,1.94 1,3.28 2.53,3.89l2.1 0.52 0.81 -0.2 0.5 -0.11 0.57 -0.22 2.07 -2.1 0.23 -0.6 0.11 -0.2c0.97,-6.55 4.83,-9.53 11.04,-10.87l0.05 0 0.99 -0.45c1.74,-0.9 2.37,-2.8 1.99,-4.63l-2.51 -3.37z"/>
  <path class="fil0" d="M286.87 717.68c30.85,10.02 64.24,6.77 95.12,18.03 5.55,2.01 8.67,-6.72 3.7,-9.4 -23.4,-12.67 -49.45,-13.8 -75.33,-17.19 -31.46,-4.09 -58.5,-19.77 -83.63,-38.26 -6.21,-4.58 -14.68,4.09 -8.38,8.8 21.44,16 42.92,29.7 68.51,38.02z"/>
  <path class="fil0" d="M333.89 678.38c7.04,2.37 14.09,3.29 20.87,6.59 6.77,3.23 11.88,8.34 17.68,12.94 4.63,3.66 10.27,-1.09 7.81,-6.31 -6.82,-14.32 -31.12,-26.54 -46.57,-22.31 -4.83,1.33 -3.98,7.7 0.21,9.1z"/>
  <path class="fil0" d="M433.81 714.92c20.87,11.79 40.9,23.76 59.9,38.51 4.15,3.21 11.57,-1.49 7.75,-6.31 -3.41,-4.34 -7.18,-8.43 -11.18,-12.31 43.34,-4.6 86.78,-17.5 130.43,-9.5 19.29,3.54 31.96,11.7 52.06,7.11 16.14,-3.64 29.06,-2.96 44.92,1.17 10.16,2.6 18.91,5.6 29.43,4.91 5.92,-0.43 8.67,-8.83 2.87,-11.75 -17.8,-8.92 -38.9,-13.68 -58.73,-14.7 -11.36,-0.57 -22.45,4.74 -33.58,5.94 -12.52,1.31 -27.83,-7.57 -40.22,-9.63 -43.77,-7.36 -95.36,7.36 -138.48,16.61 -24.91,-19.69 -56.37,-33.41 -83.05,-48.33 -5.22,-2.92 -9.85,4.02 -5.98,8.15 12.2,13.04 28.46,21.41 43.86,30.13z"/>
  <path class="fil0" d="M254.21 774.54c-17.61,-10.34 -37.7,-14.89 -55.08,-25.54 -18.75,-11.5 -22.05,-35.73 -39.84,-47.57 -5.03,-3.34 -9.96,4.22 -6.03,8.24 14.2,14.54 18.52,35.32 35.71,47.76 18.09,13.06 40,17.6 60.35,26.02 5.9,2.42 10.64,-5.51 4.88,-8.9z"/>
  <path class="fil0" d="M427.38 810.21c-12.49,-14.84 -33.11,-29.38 -51.21,-35.85 -24.78,-8.89 -51.41,-10.88 -77.09,-16.22 -28.68,-6.01 -53.68,-21.28 -78.69,-35.79 -4.45,-2.58 -9.51,4.06 -5.38,7.38 27.94,22.65 59.65,37.45 95.04,44.04 32.44,6.03 63.33,10.71 90.27,30.96 3.59,2.67 22.93,20.94 22.34,21.41 -5.99,4.52 -21.39,0.18 -27.65,-0.87 -19.33,-3.18 -37.89,-9.77 -57.14,-13.3 -5.99,-1.09 -10.39,7.92 -4.11,10.56 19.78,8.34 41.19,13.38 62.31,17.03 9.85,1.7 21.46,3.52 31.08,-0.07 14.89,-5.53 7.39,-20.78 0.25,-29.25z"/>
  <path class="fil0" d="M593.45 807.55c-35.35,5.35 -66.38,2.01 -99.29,-12.56 -25.59,-11.36 -46.64,-32.57 -73.32,-40.88 -5.03,-1.54 -7.59,5.85 -3.27,8.38 28.78,16.94 53.17,37.38 84.48,50.12 29.68,12.08 62.56,15.79 92.99,4.81 5.06,-1.85 4.31,-10.8 -1.6,-9.87z"/>
  <path class="fil0" d="M659.81 800.86c-14.93,-40.9 -69.74,-40.81 -105.77,-41.25 -5.54,-0.09 -6.12,7.95 -1.04,9.42 15.38,4.34 31.33,5.15 47.09,7.65 22.25,3.55 35.24,14.82 51.34,29.36 3.59,3.27 10.17,-0.16 8.38,-5.17z"/>
  <path class="fil0" d="M754.06 807.59c-15.27,-4.95 -27.01,-7.92 -40.05,-18.16 -10.16,-7.99 -19.45,-16.01 -31.66,-20.8 -4.29,-1.68 -7.86,5.08 -4.32,7.88 19.63,15.27 47.59,50.64 76.27,41.01 5.01,-1.69 4.54,-8.38 -0.23,-9.92z"/>
  <path class="fil0" d="M402.12 330.28c-8.34,1.29 -15.48,5.32 -20.04,12.6 -2.89,4.59 3.86,9.22 7.46,5.47 4.05,-4.2 8.58,-7 14.01,-9.01 4.58,-1.72 3.98,-9.92 -1.43,-9.06z"/>
  <path class="fil0" d="M410.05 354.4c-2.47,1.38 -4.66,2.48 -6.85,4.34 -1.72,1.45 -3.03,3.25 -4.45,4.97 -4.02,4.9 2.24,10.55 6.96,6.65l4.68 -3.8 4.47 -4.42c1.94,-1.55 2.9,-3.97 1.49,-6.28 -1.36,-2.17 -4.13,-2.71 -6.3,-1.47z"/>
  <path class="fil0" d="M304.06 591.69c-8.27,-1 -15.43,-5.11 -23.44,-7.03 -5.1,-1.22 -7.72,5.78 -3.32,8.41 7.41,4.42 16.94,8.6 25.72,8.16 5.24,-0.28 6.64,-8.86 1.04,-9.55z"/>
  <path class="fil0" d="M280.66 336.15c-0.09,-3.75 -2.76,-7.05 -6.4,-7.99 -3.61,-0.9 -6.84,0.68 -8.97,3.5l-0.47 0.63 0.33 -0.36c-2.17,3.16 -1.74,6.62 0.63,9.67 4.88,5.76 15.07,2.71 14.89,-5.45z"/>
  <polygon class="fil0" points="265.05,340.8 265.46,341.26 "/>
  <polygon class="fil0" points="265.97,341.93 265.77,341.6 265.46,341.26 "/>
  <path class="fil0" d="M320.61 220.96c4.34,-0.11 8.65,-4.05 8.2,-8.61l-0.07 -0.45c-0.43,-4.51 -3.73,-8.26 -8.51,-8.15 -4.99,0.13 -7.7,4.04 -8.13,8.54l-0.06 0.48c-0.47,4.56 4.44,8.28 8.56,8.18z"/>
  <path class="fil0" d="M464.57 217.37c-2.44,1.63 -3.98,4.25 -3.88,7.21l1.06 3.82 1.95 2.96c3.56,3.39 8.24,2.6 11.72,-0.28 3.23,-2.66 3.88,-7.65 1.7,-11.15 -2.63,-4.24 -8.48,-5.24 -12.56,-2.56z"/>
  <path class="fil0" d="M398.55 167.52c-1.76,1.92 -2.22,5.13 -1.51,7.52 1.16,3.84 4.38,5.45 8.07,5.81 8.33,0.87 12.22,-10.61 6.42,-15.81 -3.78,-3.39 -11.09,-2.55 -12.99,2.47z"/>
  <path class="fil0" d="M210.1 161.52l0.14 -0.31 0.13 1.19 -0.27 -0.88zm3.12 -6.64c-3.9,2.24 -4.85,7.79 -2.58,11.49 3.03,4.84 9.33,4.99 13.28,1.36 5.44,-4.99 1.99,-15.33 -5.9,-14.74 -1.96,0.16 -3.56,0.86 -4.79,1.89z"/>
  <path class="fil0" d="M263.6 249.9c7.18,0 6.87,-11.12 -0.27,-11.12 -7.19,0 -6.89,11.12 0.27,11.12z"/>
  <path class="fil0" d="M282.56 168.32c7.48,0 7.2,-11.57 -0.25,-11.57 -7.48,0 -7.2,11.57 0.25,11.57z"/>
  <path class="fil0" d="M318.47 290.73c-2.58,0.9 -3.48,3.63 -2.87,5.99 0,3.21 2.63,6.35 6.3,5.01l0.45 -0.2 1.49 -0.25c2.37,-0.7 4.54,-3.27 4.23,-5.87l-0.02 -0.04c-0.54,-4.72 -5.74,-7.59 -9.58,-4.65z"/>
  <path class="fil0" d="M323.32 336.53l-0.42 -0.31c-3.82,-2.82 -6.08,-0.54 -6.76,2.58l-0.15 3.23c0.45,3.48 2.8,6.3 7.14,3.12l0.11 -0.06 1.52 -1.51 0.25 -0.52 0.31 -0.63c0.73,-1.94 0.11,-4.07 -1.45,-5.37l-0.55 -0.55z"/>
  <path class="fil0" d="M349.5 307.35c-7.3,0 -7,11.3 0.28,11.3 7.3,0 6.98,-11.3 -0.28,-11.3z"/>
  <path class="fil0" d="M270.83 280.65l-0.13 -0.57 -0.02 -0.81c-0.18,-3.14 -2.7,-5.72 -5.93,-5.62 -4.02,0.09 -6.08,3.78 -5.38,7.41l1.87 3.25 2.53 1.38c-2.04,-0.61 -0.18,0.04 0.52,0.23l-0.14 -0.18 4.18 -0.46c1.41,-0.88 2.76,-2.87 2.49,-4.63z"/>
  <path class="fil0" d="M305.81 242.55l0.07 0.07c-1.63,0.68 -2.87,1.67 -3.34,3.46 -0.48,1.94 0.4,4.61 2.37,5.45l1.13 0.61c3.68,2.14 8.4,-0.86 8.28,-5.01 -0.11,-4.34 -4.88,-6.73 -8.51,-4.59z"/>
  <path class="fil0" d="M232.1 228.01c-1.26,-1.96 -2.8,-3.52 -5.3,-3.48 -2.55,0.09 -3.93,1.76 -5.18,3.73 -2.5,3.95 1.07,9.12 5.45,8.99 4.56,-0.12 7.48,-5.35 5.03,-9.24z"/>
  <path class="fil0" d="M242.87 176.25c-6.79,0 -6.52,10.53 0.27,10.53 6.78,0 6.5,-10.53 -0.27,-10.53z"/>
  <path class="fil0" d="M163.89 212.42c-2.68,0.88 -4.95,2.71 -4.92,5.74 0.07,3.14 2.5,4.74 5.2,5.58 3.66,1.15 7.38,-2.19 7.25,-5.83 -0.09,-3.78 -3.9,-6.62 -7.54,-5.49z"/>
  <path class="fil0" d="M182.98 188.41c-6.19,0 -5.96,9.62 0.23,9.62 6.23,0 5.96,-9.62 -0.23,-9.62z"/>
  <path class="fil0" d="M118.62 227.01l-0.66 0.32 -0.02 0.02 -0.04 0c-2.33,1.26 -4.09,3.57 -3.82,6.5 0.25,-2.19 0.23,-1.9 -0.06,0.77 0.06,2.21 0.97,4.3 2.57,5.83 3.28,3.11 8.63,2.98 11.74,-0.31 6.39,-6.64 -1.83,-17.15 -9.71,-13.13z"/>
  <path class="fil0" d="M145.36 193.81c2.76,0.32 5.47,-0.76 6.23,-3.73 0.61,-2.48 -0.92,-5.28 -3.29,-6.12 -2.37,-2.15 -6.71,-1.28 -7.73,2.28 -1.04,3.59 0.92,7.14 4.79,7.57z"/>
  <path class="fil0" d="M181.41 158.26c-0.31,4.93 7.32,5.98 8.85,1.7l0.34 -0.47 -0.14 0.25c1.94,-2.19 1.92,-5.31 -0.16,-7.41l-0.02 -0.04c-2.09,-2.04 -5.42,-1.76 -7.4,0.18l-1.58 3.03 0.11 2.07 0 0.68z"/>
  <polygon class="fil0" points="238.54,134.45 238.96,134.34 "/>
  <path class="fil0" d="M237.47 143.74l0.11 -0.23c2.9,1.21 6.35,0.23 7.21,-3.14 0.79,-3.25 -2.41,-7.07 -5.83,-6.03l-0.45 0.12c-2.12,0.23 -3.93,1.38 -4.45,3.56 -0.57,2.24 0.88,5.38 3.41,5.72z"/>
  <path class="fil0" d="M243.14 120.81c6.44,0 6.21,-10.03 -0.27,-10.03 -6.46,0 -6.19,10.03 0.27,10.03z"/>
  <path class="fil0" d="M269.41 126.35c6.1,0 5.85,-9.44 -0.23,-9.44 -6.1,0 -5.85,9.44 0.23,9.44z"/>
  <path class="fil0" d="M263.58 92.92c6.26,0 6.03,-9.74 -0.25,-9.74 -6.28,0 -6.03,9.74 0.25,9.74z"/>
  <path class="fil0" d="M219.81 194.56l-0.04 0.23 -0.04 0.05 0.07 -0.28zm-9.15 0.25c0.29,4.78 5.73,5.38 8.08,2.46 3.62,-1.49 3.1,-7.71 -0.92,-8.47 -4.2,-0.77 -7.38,1.6 -7.16,6.01z"/>
  <path class="fil0" d="M147.92 263.16l-1.45 -0.11c-5.92,-0.5 -5.83,9.8 0.23,9.3l1.48 -0.11c5.92,-0.49 5.54,-8.62 -0.25,-9.09z"/>
  <path class="fil0" d="M241.6 313.68l0 -0.02 0.02 0 -0.02 0.02zm1.81 -7.55l-1.06 -1.31c-1.45,-1.45 -3.69,-1.88 -5.63,-1.34 -2.28,0.65 -4.2,2.17 -5.4,4.18 -1.55,2.55 -0.02,6.85 3.16,7.28 2.13,0.27 4.43,0.07 6.33,-0.9l0.77 -0.34 -0.02 0 0.06 -0.02 0.04 -0.04 0.5 -0.48 1.21 -1.33 0.02 -0.02c0.99,-1.68 0.97,-3.78 0.04,-5.69z"/>
  <polygon class="fil0" points="243.48,311.69 243.37,311.81 "/>
  <path class="fil0" d="M210.75 359.16c-6.45,0 -6.18,9.94 0.25,9.94 6.41,0 6.18,-9.94 -0.25,-9.94z"/>
  <path class="fil0" d="M276.48 374.27c-5.76,0 -5.52,8.94 0.23,8.94 5.76,0 5.54,-8.94 -0.23,-8.94z"/>
  <path class="fil0" d="M114.47 385.64l-2.98 1.45c-3.16,1.82 -3.45,6.45 -0.9,8.85 2.62,2.51 7.02,1.82 8.77,-1.36l1.38 -2.98c1.2,-3.59 -2.87,-7.11 -6.28,-5.96z"/>
  <path class="fil0" d="M216.58 439.73c-6.1,0 -5.85,9.46 0.25,9.46 6.12,0 5.85,-9.46 -0.25,-9.46z"/>
  <path class="fil0" d="M213.48 507.97c-1.87,-0.09 -3.25,0.63 -4.63,1.83 -1.96,1.69 -1.65,5.15 0.18,6.79l0.34 0.25c1.74,3.91 8.35,3.32 9.26,-1.06l0.09 -4.02c-0.65,-2.41 -2.92,-3.66 -5.24,-3.79z"/>
  <path class="fil0" d="M84.82 495.39l0.09 -0.07 0.2 -0.04 -0.29 0.11zm-0.14 -0.18l-0.31 0.23 -0.04 0.04c-4.86,0.95 -4.64,7.97 0.13,8.95l1.11 0.43 1.78 0.14 4.09 -1.78c1.83,-2.03 2.46,-4.86 0.81,-7.25 -1.88,-2.76 -5.15,-2.84 -7.57,-0.77z"/>
  <path class="fil0" d="M88.92 312.05l-0.06 -0.07 0.13 0.11 -0.07 -0.04zm-0.14 -6.69l0.09 -0.05 -0.2 0.23 0.11 -0.18zm3.64 -1.8l-2.09 0.56c-5.09,0.82 -4.81,8.26 0.33,9.01 3.03,1.16 7.04,-0.56 6.96,-4.63 -0.07,-2.78 -2.42,-5.03 -5.2,-4.94z"/>
  <path class="fil0" d="M131.9 321.92c1.76,4.42 7.65,3.9 9.13,-0.46l0.09 0c1.8,-3.64 -0.63,-8.15 -4.88,-8.02 -4.4,0.11 -6.27,4.66 -4.49,8.26l0.14 0.23z"/>
  <path class="fil0" d="M264.31 421.3c-4.34,-2.46 -8.63,2.64 -6.37,6.69l0.47 0.88 0.28 0.97c0.94,4.85 8.72,4.47 9.56,-0.25 0.72,-3.77 -0.63,-6.39 -3.95,-8.29z"/>
  <path class="fil0" d="M289.58 297.73c-8.4,0 -8.06,12.99 0.33,12.99 8.41,0 8.07,-12.99 -0.33,-12.99z"/>
  <polygon class="fil0" points="301.77,268.94 301.8,269.36 "/>
  <path class="fil0" d="M301.75 269.07l-0.07 -0.32 -0.36 -0.74 0.32 0.63c-0.36,-1.92 -1.42,-3.52 -3.46,-4.02 -2.22,-0.54 -5.38,0.86 -5.67,3.43l0.16 0.14c-2.12,3.29 0.92,7.52 4.52,7.45 3.19,-0.07 5.4,-3.32 4.61,-6.28l-0.06 -0.29z"/>
  <polygon class="fil0" points="301.77,268.94 301.64,268.64 301.68,268.75 "/>
  <path class="fil0" d="M276.74 266.93c3.88,-0.09 6.5,-4.63 4.3,-7.97l0.2 0.04c-0.88,-4.72 -8.51,-4.32 -9.33,0.23l-0.09 0.32 0.2 -0.38c-2.21,3.41 1,7.86 4.72,7.75z"/>
  <path class="fil0" d="M282.67 232.34c0.7,-2.78 -1.61,-6.28 -4.74,-5.89l-1.45 0.16c-2.04,0.23 -3.8,1.35 -4.34,3.48 -0.53,2.17 0.88,5.24 3.36,5.56l1.4 0.16c2.58,0.27 5.1,-0.72 5.78,-3.48z"/>
  <path class="fil0" d="M241.42 208.43l-1.29 0.52c-4.83,1.58 -4.32,7.99 0.23,9.48l0.2 0.07c3.14,1.29 6.84,0.04 7.73,-3.5 0.9,-3.68 -2.92,-8.33 -6.87,-6.57z"/>
  <path class="fil0" d="M243.75 253.1l0.04 -0.19 0.14 -0.18 -0.18 0.38zm6.52 -2.31c-3.07,-1.22 -5.51,-0.34 -7.66,2.07 -2.98,3.34 0.28,8.68 4.16,7.79l4.07 -1.33c1.15,-1.22 2.1,-2.66 1.94,-4.43l-2.51 -4.09z"/>
  <path class="fil0" d="M203.68 236.3c6.6,0 6.32,-10.19 -0.23,-10.19 -6.6,0 -6.33,10.19 0.23,10.19z"/>
  <path class="fil0" d="M203.86 216.87c1.87,0.5 3.36,0.27 5.1,-0.54 2.15,-1.06 2.6,-3.61 2.71,-5.72 0.34,-5.87 -8.28,-6.41 -10.05,-1.76 -2.29,2.39 -1.45,7.05 2.24,8.02z"/>
  <polygon class="fil0" points="417.12,458.57 417.14,458.55 "/>
  <path class="fil0" d="M425.34 463.29c-0.09,-4.15 -4.65,-6.62 -8.22,-4.72l-0.02 0 -0.29 0.15 0.25 -0.13 -2.33 1.49c-1.26,1.22 -1.78,3.39 -1.19,5.06l0.06 0c0.32,2.08 1.34,3.8 3.55,4.36l3.63 -0.6c2.51,-0.53 4.63,-2.78 4.56,-5.62z"/>
  <path class="fil0" d="M446.12 455.03l0.04 0.02 0.23 0.02 1.09 0.07c2.85,0.16 4.25,-2.12 4.27,-4.51 0.27,-2.69 -1.29,-5.52 -4.74,-5.2l-1.08 0.11 -1.08 0.34 -0.16 0.04 -0.04 0 -1.09 0.49 -0.73 0.59 -0.43 0.43 -0.41 0.73 -0.23 3.56 0.04 0.09 0.23 0.5 0.66 1.06 0.11 0.11 1.22 0.87 0.47 0.23 0.45 0.18 1.04 0.25 0.14 0.02z"/>
  <path class="fil0" d="M449.82 490.26l-0.04 -0.02 -0.02 -0.04 0.06 0.05zm0.72 -7.45l0.14 -0.04 -0.34 0.29 0.2 -0.25zm0.88 8.51c3.03,1.16 7.07,-0.54 6.98,-4.63 -0.12,-3.8 -3.46,-5.33 -6.33,-4.5l-0.29 0.02c-5.76,0.21 -5.65,8.31 -0.36,9.12z"/>
  <path class="fil0" d="M431.56 436.26c6.37,0 6.14,-9.88 -0.25,-9.88 -6.39,0 -6.12,9.88 0.25,9.88z"/>
  <path class="fil0" d="M501.68 498.84c6.07,0 5.81,-9.44 -0.25,-9.44 -6.05,0 -5.81,9.44 0.25,9.44z"/>
  <path class="fil0" d="M491.86 542.29l0.9 0.36c2.55,1.7 4.5,1.24 5.78,-0.18l1.63 -3.86c0.41,-3.21 -0.97,-6.58 -4.47,-6.24l-2.62 0.75 -0.27 0.09 -1.95 1.51 -0.13 0.12 -0.41 0.6 -0.31 0.48c-1.2,2.31 -1.04,5.2 1.85,6.37z"/>
  <path class="fil0" d="M450.32 544.87c-6.18,0 -5.92,9.56 0.23,9.56 6.17,0 5.9,-9.56 -0.23,-9.56z"/>
  <path class="fil0" d="M472.64 481.13c1.9,1.22 4.17,1.26 6.19,0.57l3.93 -2.24c3.36,-3.52 2.75,-8.43 -0.29,-11.85l-0.57 -0.65c-3.29,-3.3 -8.72,-2.81 -11.88,0.34l-0.02 0c-1.96,1.9 -3.11,5.66 -1.97,8.24 1.13,2.6 2.26,4.07 4.61,5.58z"/>
  <path class="fil0" d="M458.66 510.47l0.14 1.31c0.33,2.14 1.4,3.93 3.63,4.51 2.33,0.55 5.38,-0.9 5.76,-3.48l0.31 -2.58c0.54,-6.24 -10.39,-6.16 -9.83,0.25z"/>
  <path class="fil0" d="M525.8 575.77l0.05 -0.19c1.43,-2.77 -0.25,-6.05 -2.62,-7.61 -2.17,-1.48 -4.52,-0.79 -6.64,0.23 -3.68,1.74 -3.16,6.55 -0.68,9.01l0.14 0.28 0.02 0.04c2.36,3.57 8.56,2.78 9.73,-1.76z"/>
  <path class="fil0" d="M482.1 597.83l0.33 1.4c1.78,4.58 7.45,4.11 9.12,-0.21l0.33 -1.4c0.63,-3.19 -1.62,-6.39 -5.05,-6.3 -3.52,0.09 -5.33,3.36 -4.72,6.52z"/>
  <path class="fil0" d="M498.88 562.46l0.25 -3.98 -0.32 -0.65 -0.13 -0.38 0.14 0.27 -0.09 -0.45 -0.47 -1 -0.04 -0.07 -0.95 -1.08 -0.47 -0.36 -0.82 -0.39 -0.6 -0.31 -0.46 0 -0.75 -0.04 -0.9 0.09 -0.36 0.04 -0.61 0.31 -0.74 0.41 -0.63 0.52 -0.74 0.95 -0.07 0.21 -0.43 0.94 -0.04 0.19 -0.05 0.25 -0.29 0.81 0.38 3.95c1.21,4.68 8.01,4.22 9.17,-0.23z"/>
  <path class="fil0" d="M514.89 607.28c3.03,0.75 6.96,-1.76 6.51,-5.17 -0.38,-2.66 -1.13,-5.28 -4.07,-6.03 -3.3,-0.81 -5.81,1.83 -6.23,4.86 -0.39,2.83 0.83,5.62 3.79,6.33z"/>
  <path class="fil0" d="M543.81 635.69c-5.81,0 -5.6,9.04 0.22,9.04 5.83,0 5.6,-9.04 -0.22,-9.04z"/>
  <path class="fil0" d="M538.29 604.29l2.69 0.31c6.8,0.07 6.55,-10.64 -0.25,-10.57l-1.31 0.13c-2.29,0.38 -4.25,1.49 -4.86,3.91 -0.63,2.53 0.99,5.81 3.73,6.23z"/>
  <path class="fil0" d="M523.41 622.07c-5.08,0.82 -4.66,9.26 0.27,10.05l2.75 0.31c2.92,-0.23 5.31,-2.44 5.24,-5.51 -0.07,-3.14 -2.58,-5.03 -5.52,-5.24l-2.73 0.4z"/>
  <path class="fil0" d="M557.15 631.14c3.61,0.61 7.19,-1.74 7.09,-5.67 -0.09,-4.09 -3.75,-5.94 -7.36,-5.35l-3.48 1.83c-2.1,1.9 -1.85,5.66 0.18,7.47l3.57 1.72z"/>
  <path class="fil0" d="M512.55 538.95c1.47,4.52 5.89,6.19 10.27,5.37 3.73,-0.7 7.11,-4.77 6.73,-8.6 -0.43,-4.43 -3.12,-7.55 -7.4,-8.59 -2.74,-0.65 -5.04,0.04 -6.89,1.47l-2.35 1.95c-1.82,2.09 -2.57,5.47 -0.83,7.9l0.47 0.5z"/>
  <path class="fil0" d="M456.01 585.86l-0.06 -0.04 0.11 0.04 -0.06 0zm11.54 -3.12c3.38,-6.1 -2.67,-14.75 -9.74,-12.08 -2.21,0.84 -3.93,2.04 -5.12,4.09l-1.13 4.27c-0.05,-1.89 -0.07,0.72 -0.14,1.43 -0.21,3.3 3.16,6.26 6.32,6.18l2.69 0.45c2.94,-0.07 5.71,-1.76 7.12,-4.34z"/>
  <path class="fil0" d="M431.29 502.72c-2.1,0.23 -3.68,0.59 -5.24,2.15 -2.19,2.17 -1.92,5.81 0.21,7.93 1.58,1.56 3.27,1.72 5.32,1.94 3.28,0.36 5.94,-3.21 5.87,-6.13 -0.09,-3.09 -2.9,-6.23 -6.16,-5.89z"/>
  <path class="fil0" d="M424.01 525.83c-6.19,0 -5.92,9.6 0.25,9.6 6.18,0 5.94,-9.6 -0.25,-9.6z"/>
  <path class="fil0" d="M396.34 477.47l-2.48 0.9c-3.17,1.67 -2.82,6.69 0.22,8.24l2.51 0.88c3.27,0.77 6.53,-1.78 6.42,-5.17 -0.07,-3.52 -3.42,-5.62 -6.67,-4.85z"/>
  <path class="fil0" d="M415.41 452.87c0.72,-4.15 -1.67,-7.27 -5.98,-7.11 -4.75,0.19 -5.4,5.63 -2.53,7.98 1.42,3.66 7.81,3.18 8.51,-0.87z"/>
  <path class="fil0" d="M307.15 382.72c-6.16,0 -5.91,9.54 0.23,9.54 6.19,0 5.92,-9.54 -0.23,-9.54z"/>
  <path class="fil0" d="M320.32 360.95c-2.47,0.07 -3.89,1.85 -4.34,4.04l-0.02 0.04 -0.31 0.31c-3.96,4.52 2.23,10.23 6.62,6.35 1.92,-1.72 3,-3.56 2.76,-6.21 -0.21,-2.51 -2.1,-4.59 -4.72,-4.52z"/>
  <path class="fil0" d="M398.81 282.47l0.02 -0.05 0.21 0.32 -0.23 -0.27zm8.33 -4.03l-0.57 -1.17 -0.11 -0.12 -2.73 -2.16 -0.06 0 -3.05 -0.32c-5.38,0.81 -6.1,7.36 -0.99,9.33l0.95 0.5 2.12 0.36 4.23 -2.57 0.41 -2.46 0.16 0.07 -0.21 -0.97 -0.16 -0.5z"/>
  <path class="fil0" d="M326.46 257.87l-1.87 2.48 0.09 -0.16 -1.35 2.17c-2.22,4.83 2.48,8.79 7.02,6.71 1.67,-0.81 3.08,-2.07 4.47,-3.23 2.44,-1.99 1.9,-6.17 -0.18,-8.16 -2.17,-2.07 -6.18,-2.24 -8.18,0.2z"/>
  <path class="fil0" d="M395.07 211.14c6.13,0 5.9,-9.56 -0.27,-9.56 -6.18,0 -5.91,9.56 0.27,9.56z"/>
  <path class="fil0" d="M448.84 237.78c-1.74,0.11 -3.55,0.39 -4.79,1.79 -1.82,2.17 -1.62,4.72 0.16,6.77 1.21,1.42 3.18,1.53 4.86,1.65 6.53,0.45 6.42,-10.66 -0.23,-10.21z"/>
  <path class="fil0" d="M559.87 297.55l-2.42 1.09c-3.18,2.28 -2.84,6.21 0.19,8.38l1.17 0.52c3.16,1.4 6.99,0.16 7.91,-3.46 0.92,-3.64 -2.9,-8.28 -6.85,-6.53z"/>
  <path class="fil0" d="M597.85 223.06c-6.75,0 -6.48,10.44 0.23,10.44 6.77,0 6.5,-10.44 -0.23,-10.44z"/>
  <path class="fil0" d="M523.19 273.88l0.13 -0.38 0.09 -0.11 -0.21 0.49zm1.8 -2.62l-2.64 1.03c-3.17,2.31 -2.9,6.3 0.2,8.51 4.49,3.14 9.94,-1.11 10.09,-5.91 0.14,-4.25 -4.81,-5.6 -7.65,-3.63z"/>
  <path class="fil0" d="M549.65 173.71c-6.33,0 -6.08,9.8 0.23,9.8 6.32,0 6.08,-9.8 -0.23,-9.8z"/>
  <path class="fil0" d="M731.81 268.46l0.15 -0.2c1.87,-2.82 1.72,-5.94 0.23,-9.12l-1.82 -2.19c-2.66,-2.03 -6.33,-3.14 -9.36,-0.99l-3.32 3.55c-1.24,2.24 -1.29,4.99 -0.31,7.34 0.82,2.64 2.73,4.74 5.57,5.46 3.68,0.93 6.87,-0.88 8.86,-3.86z"/>
  <path class="fil0" d="M679.55 194.06c-4,-1.43 -6.93,3.03 -6.18,6.5l0.02 0.04c-0.31,3.98 1.95,7.79 6.46,7.68 5.13,-0.11 7.66,-5.65 5.35,-9.87 -1.17,-2.17 -3.41,-3.56 -5.65,-4.34z"/>
  <path class="fil0" d="M705.39 147.01l-0.02 -0.05 0.18 0.21 -0.16 -0.16zm0.97 -7.72c-2.22,1.21 -2.82,4 -1.92,6.19 0.28,1.87 1.51,3.57 3.44,4.04 2.41,1.28 5.54,-0.27 6.84,-2.39 1.29,-2.12 1.15,-5.46 -0.9,-7.16 -2.33,-1.92 -4.83,-2.06 -7.47,-0.68z"/>
  <polygon class="fil0" points="763.93,198.13 764.02,198.31 763.93,198.03 "/>
  <path class="fil0" d="M773.42 193.32c-1.9,-2.44 -6.13,-3.82 -8.4,-0.84l-0.07 0.09c-1.27,1.67 -1.65,3.63 -1.02,5.46l0.04 -0.31 0.22 0.79 -0.16 -0.2 0.27 0.63c0.48,1.63 1.53,2.96 3.41,3.42 2.39,0.6 5.54,-0.93 5.94,-3.57 0.84,-1.68 0.99,-3.89 -0.15,-5.36l-0.07 -0.11z"/>
  <path class="fil0" d="M692.81 400.02c-6.5,0 -6.21,10.03 0.23,10.03 6.48,0 6.21,-10.03 -0.23,-10.03z"/>
  <path class="fil0" d="M631.46 356.59c-5.96,0 -5.74,9.26 0.2,9.26 5.99,0 5.74,-9.26 -0.2,-9.26z"/>
  <path class="fil0" d="M725.19 345.82c4.23,-0.11 6.01,-4.52 4.29,-7.97l0.27 0.02c-0.81,-4.78 -8.67,-4.4 -9.44,0.25l0.2 -0.06c-1.76,3.48 0.63,7.84 4.68,7.75z"/>
  <path class="fil0" d="M788.61 325.42l1.04 0.43 0.18 0.04 0.18 0.07c2.87,1.28 7.25,-0.52 6.96,-4.31l0.04 -1.31c-0.14,-3.05 -2.68,-5.62 -5.81,-5.51l-3.3 0.68c-1.65,0.65 -2.96,1.78 -3.41,3.57 -0.48,2.01 0.38,4.76 2.44,5.58l1.69 0.68 0 0.07z"/>
  <path class="fil0" d="M823.19 429.18l0.11 0.23 0.28 0.34c1.89,2.42 4.95,3.61 7.81,1.85 2.8,-1.74 3.27,-5.08 1.85,-7.84 -0.97,-1.92 -2.81,-2.55 -4.72,-3.14 -3.7,-1.13 -7.06,2.82 -6,6.3l0.09 0.38 0.55 1.85 0.02 0.04z"/>
  <path class="fil0" d="M887.09 432.08c-6.57,0 -6.31,10.16 0.22,10.16 6.6,0 6.31,-10.16 -0.22,-10.16z"/>
  <path class="fil0" d="M873.99 539.51l-0.02 1.49c-0.14,5.74 9.06,5.54 8.92,-0.23l-0.02 -1.45c-0.12,-5.76 -8.74,-5.49 -8.88,0.2z"/>
  <path class="fil0" d="M832.71 631.78l-1.33 -0.04c-4.61,0.09 -8.34,4.13 -8.22,8.69 0.11,4.72 4.04,8.16 8.65,8.24l1.31 -0.04c2.58,0.25 4.9,-1.22 6.39,-3.32 1.16,-1.41 1.89,-3.23 1.83,-5.31 -0.06,-2.1 -0.81,-3.78 -1.96,-5.1 -1.63,-2.02 -4.03,-3.41 -6.67,-3.12z"/>
  <path class="fil0" d="M869.52 599.59c-1.89,0.25 -3.73,0.57 -5.62,0.97 -4.7,0.9 -4.3,8.42 0.22,9.24l4.2 0.75c3.02,0.38 5.98,-0.86 6.75,-4.05 0.8,-3.23 -1.89,-7.38 -5.54,-6.91z"/>
  <path class="fil0" d="M806.75 554.71l-1.29 0.5c-1.63,0.7 -2.87,1.68 -3.32,3.49 -0.47,1.94 0.39,4.58 2.39,5.42l2.49 0.97c3.34,1.29 6.79,-2.17 6.71,-5.36 -0.11,-3.31 -3.66,-6.32 -6.98,-5.03z"/>
  <path class="fil0" d="M871.3 493.57c3.36,1.29 6.82,-2.19 6.75,-5.4 -0.09,-3.36 -3.68,-6.35 -7.01,-5.1l-3.43 1.85c-1.92,1.9 -1.68,5.1 0.16,6.89l3.54 1.76z"/>
  <path class="fil0" d="M730.55 483.79l-2.31 -0.28 -1.27 0.14 -0.55 0c-6,0.27 -5.69,9.04 0.21,9.26l4.16 -0.18c4.52,-1.19 4.07,-7.81 -0.23,-8.94z"/>
  <path class="fil0" d="M923.9 488.92l-0.77 -0.45c-3.78,-2.17 -8.34,2.02 -6.77,5.87 0.09,1.76 1.16,3.43 3.09,4.09l0.41 0.28c2.53,1.78 5.72,0.11 7.2,-2.08l0.04 -0.06c1.34,-1.94 0.61,-4.86 -0.97,-6.39l-2.22 -1.27z"/>
  <path class="fil0" d="M896.8 335.38c-2.04,-1.75 -4.4,-1.78 -6.5,-0.57l-1.11 0.54c-1.56,0.94 -2.69,2.48 -3.14,4.25 -0.75,3.05 0.66,6.32 3.42,7.84 2.77,1.51 6.3,0.97 8.47,-1.31 2.4,-2.53 2.81,-7.6 -0.25,-9.92l-0.9 -0.83z"/>
  <path class="fil0" d="M929.42 399.96c-3.23,0.07 -6.03,3.5 -4.84,6.73l0.28 1.22c0.9,4.81 8.63,4.37 9.48,-0.25l0.27 -1.24c1.2,-3.25 -2.04,-6.53 -5.19,-6.46z"/>
  <path class="fil0" d="M846.24 353.29l-1.35 0.36c-4.72,1.63 -4.23,7.79 0.23,9.31l1.35 0.38c3.3,0.9 6.59,-1.83 6.5,-5.19 -0.09,-3.48 -3.46,-5.76 -6.73,-4.86z"/>
  <path class="fil0" d="M688.26 131.66l-2.05 -3.5c-1.75,-1.29 -4.2,-2.12 -6.19,-0.65l-2.06 2.1 -0.34 0.92c-1.38,3.41 -0.27,7.45 3.68,8.43 3.98,0.97 8.68,-3.12 6.96,-7.3z"/>
  <path class="fil0" d="M713.7 113.06l1.38 0.25c3.15,0.61 6.24,-1.56 6.16,-4.92 -0.08,-3.5 -3.27,-5.24 -6.39,-4.66l-1.36 0.27c-4.6,0.94 -4.2,8.15 0.21,9.06z"/>
  <path class="fil0" d="M787.85 176.08l0.61 -0.16c2.81,1.28 6.73,0.23 7.45,-3.34l0.25 -1.92c-0.16,1.88 0.13,-0.25 0.13,-0.99 0,-2.16 -1.35,-4.06 -3.18,-5.12 -2.55,-1.38 -5.13,-0.79 -7.14,0.83l0.31 -0.33 -1.09 0.88 -2.37 1.92c-1.67,1.48 -1.74,4.26 -0.65,6.05 1.24,2.03 3.48,2.66 5.69,2.17z"/>
  <path class="fil0" d="M581.68 59.11c-1.88,-3.34 -8.2,-2.68 -8.88,1.45 -0.34,2.04 -0.6,4.77 1.34,6.21 2.19,1.6 5.01,2.46 7.45,0.63 2.28,-1.67 3.57,-5.69 0.81,-7.79l-0.72 -0.5z"/>
  <path class="fil0" d="M493.92 155.06l-1.47 1.47c-4.04,4.11 2.41,10.23 6.52,6.18l1.47 -1.47c4.13,-4.07 -2.46,-10.36 -6.52,-6.18z"/>
  <path class="fil0" d="M494.16 272.89c-2.48,-0.63 -5.49,0.68 -6.57,3.08l-1.26 2.17c-0.63,2.46 0.95,5.92 3.77,6.25 3.84,1.8 7.93,-0.75 8.34,-5.31l0.02 -0.79c-0.14,-2.55 -1.76,-4.79 -4.31,-5.4z"/>
  <path class="fil0" d="M539.42 232.25c-6.16,0 -5.91,9.56 0.23,9.56 6.16,0 5.92,-9.56 -0.23,-9.56z"/>
  <path class="fil0" d="M480.24 526.15c-0.13,-4.61 -4,-8.11 -8.55,-8.11 -4.54,0 -8.25,4.07 -8.13,8.56 0.13,4.59 3.98,8.09 8.53,8.09 4.56,0 8.26,-4.07 8.15,-8.54z"/>
  <path class="fil0" d="M477.86 545.07c-2.75,-0.68 -6.21,1.6 -5.85,4.68l0.2 1.47c0.21,2.01 1.33,3.77 3.42,4.27 2.16,0.55 5.2,-0.82 5.49,-3.3l0.14 -1.42c0.33,-2.55 -0.7,-5.03 -3.41,-5.71z"/>
  <path class="fil0" d="M499.38 619.88c0.09,3.37 3.41,5.65 6.57,4.75l1.38 -0.38c4.6,-1.29 4.13,-7.82 -0.25,-9.06l-1.36 -0.4c-3.21,-0.9 -6.42,1.83 -6.33,5.08z"/>
  <path class="fil0" d="M556.32 644.83l0.38 2.68c0.84,4.84 8.74,4.38 9.58,-0.25l0.29 -2.66c-0.45,-6.73 -9.82,-6.3 -10.25,0.23z"/>
  <path class="fil0" d="M475.91 629.55l-0.31 -1c-1.83,-4.83 -7.8,-4.33 -9.51,0.23l-0.06 0.38 -0.68 3.86c0.21,3.03 2.53,5.49 5.64,5.42 3.27,-0.09 5.2,-2.67 5.42,-5.67l-0.21 -2.55 -0.29 -0.67z"/>
  <path class="fil0" d="M544.03 551.56c6.26,0 6.01,-9.71 -0.23,-9.71 -6.25,0 -5.99,9.71 0.23,9.71z"/>
  <path class="fil0" d="M523.36 467.9l0.39 -0.13 -0.39 0 1.61 -0.23 3.27 -1.75c3,-2.8 0.99,-7.52 -2.51,-8.6l-3.64 0.25 -2.53 2.24c-3.95,2.78 -1.53,9.85 3.8,8.22z"/>
  <path class="fil0" d="M282.33 453.98c-3.5,0.09 -5.52,3.38 -4.76,6.57l0.29 1.35c1.27,4.7 8,4.22 9.19,-0.21l0.36 -1.36c0.75,-3.23 -1.74,-6.41 -5.08,-6.34z"/>
  <path class="fil0" d="M276.77 180.51l-1.48 1.29 -0.04 -0.04 1.51 -1.25zm-5.57 8.45c-0.82,3.21 1.24,5.64 4.05,6.71l1.19 0.33c1.87,0.88 4.04,1.27 5.89,0.48l1.35 -0.66 1.99 -0.94 0.13 -0.07 0.02 -0.02 1.68 -1.4c2.78,-2.51 2.96,-7.19 1.08,-10.26 -2.55,-4.09 -7.57,-4.88 -11.66,-2.73l-1.4 0.92c-2.28,1.76 -3.52,3.8 -3.79,6.28l-0.52 1.36z"/>
  <path class="fil0" d="M210.1 118.06l0.13 0.05 0.38 0.22 3.3 1.16c2.98,-0.07 4.63,-2.33 4.99,-5.03l-0.04 0.16 0.06 -0.25 0.04 -0.18 0.02 -0.18c0.45,-2.75 -1.51,-5.96 -4.33,-6.44 -2.15,-0.34 -4.56,-0.29 -6.42,1.02 -3.34,2.31 -2.9,6.46 0.22,8.67l1.67 0.79z"/>
  <path class="fil0" d="M288 208.13c-0.57,2.35 0.9,5.4 3.5,5.81l1.29 0.25c3.16,1.15 6.35,-2.01 6.3,-5.03 -0.09,-3.01 -3.09,-5.56 -6.08,-4.84l-0.45 0.14c-2.15,0.33 -4,1.38 -4.56,3.66z"/>
  <polygon class="fil0" points="292.56,204.43 293.01,204.32 "/>
  <path class="fil0" d="M264.8 207.75c-5.73,0 -5.49,8.9 0.23,8.9 5.73,0 5.47,-8.9 -0.23,-8.9z"/>
  <path class="fil0" d="M242.67 273.46c-2.24,-0.55 -5.24,0.88 -5.6,3.38l-0.2 1.4c-0.38,2.58 0.75,5.13 3.52,5.83 2.75,0.68 6.4,-1.65 5.96,-4.79l-0.2 -1.45c-0.28,-2.09 -1.33,-3.83 -3.48,-4.36z"/>
  <path class="fil0" d="M264.8 301.17c-5.81,0 -5.57,9.03 0.23,9.03 5.81,0 5.59,-9.03 -0.23,-9.03z"/>
  <path class="fil0" d="M357.99 180.96l-0.99 0.31c-2.55,0.73 -3.57,2.96 -3.3,5.1l1.8 3.3 1.72 0.97 1.04 0.29c5.2,1.52 6.87,-3.45 5.73,-7.02l0 -0.04c-0.79,-2.44 -2.84,-4.23 -6,-2.9z"/>
  <path class="fil0" d="M303.02 88.66c6.5,0 6.23,-10.03 -0.27,-10.03 -6.48,0 -6.21,10.03 0.27,10.03z"/>
  <path class="fil0" d="M354.02 62.84l0.21 -2.66c0.28,-5.92 -9.51,-5.78 -9.21,0.18l0.27 2.69c0.75,4.42 8.01,4.02 8.72,-0.21z"/>
  <path class="fil0" d="M41.27 463.99l-1.13 0.36 -1.56 0.33c-4.75,1.02 -4.3,8.34 0.22,9.29l1.19 0.25 1.56 0.48c3.5,0.99 6.98,-2.04 6.89,-5.54 -0.09,-3.66 -3.71,-6.19 -7.16,-5.17z"/>
  <path class="fil0" d="M133.37 529.92c-3.95,0.9 -5.49,4.23 -4.54,7.95 0.95,3.71 5.29,4.2 7.73,2.15 2.12,-0.72 3.73,-2.66 3.7,-5.11 -0.11,-3.65 -3.56,-5.76 -6.89,-4.99z"/>
 </g>
</svg>
