<?xml version="1.0" encoding="UTF-8"?>
<svg xmlns="http://www.w3.org/2000/svg" xml:space="preserve" width="0.747335in" height="0.747331in" version="1.1" style="shape-rendering:geometricPrecision; text-rendering:geometricPrecision; image-rendering:optimizeQuality; fill-rule:evenodd; clip-rule:evenodd"
viewBox="0 0 136.19 136.19"
 xmlns:xlink="http://www.w3.org/1999/xlink"
 xmlns:xodm="http://www.corel.com/coreldraw/odm/2003">
 <defs>
  <style type="text/css">
   <![CDATA[
    .fil0 {fill:black;fill-rule:nonzero}
   ]]>
  </style>
 </defs>
 <g id="Layer_x0020_1">
  <metadata id="CorelCorpID_0Corel-Layer"/>
  <path class="fil0" d="M128.41 69.97c2.12,-0.18 3.86,1.2 5.84,1.6 -0.15,2.91 -0.49,5.77 -1.01,8.57 -0.63,0.01 -1.15,0.15 -1.75,0.51 -0.12,0.07 -1.06,0.85 -0.78,1.02 -0.52,-0.31 -1.06,-0.58 -1.6,-0.84 -1.55,-0.74 -2.68,-0.16 -3.73,1.1 -0.72,0.87 -0.2,0.8 -1.43,0.93 -0.77,0.08 -1.32,-0.08 -2.06,-0.05 -0.68,0.03 -1.34,-0.04 -1.96,0.34 -1.01,0.63 -0.99,0.34 -1.79,-0.5 -0.98,-1.02 -2,-0.9 -3.15,-0.2 -0.8,0.49 -1.37,1.87 -2.38,1.94 -0.91,0.06 -1.64,-1.06 -2.54,-0.79 -0.9,0.27 -1.36,0.9 -2.4,0.5 -0.81,-0.31 -1.02,1.06 -2.03,0.45 -1.78,-1.08 -2.65,-0.46 -3.91,0.99 -0.49,0.57 0.22,1.59 0.88,1.08 0.85,-0.66 1.79,-0.99 2.79,-0.36 0.21,0.13 0.53,0.23 0.82,0.25l0.23 0.47c0.22,0.45 0.29,0.92 0.41,1.4 0.14,0.62 1.17,0.61 1.28,-0.03 0.13,-0.85 -0.25,-1.74 -0.72,-2.48l0 -0.01c0.13,-0.2 1.63,-0.03 2.08,-0.22 0.85,-0.35 1.71,0 2.62,0.2 -0.57,1.28 -0.76,2.77 -1.71,3.9 -0.46,0.55 0.18,1.46 0.83,1.02 1.71,-1.16 1.49,-3.44 2.54,-5.01 1.16,-0.72 2.35,-2.95 3.28,-1.73 0.57,0.75 1.22,1.53 2.26,1.5 0.33,-0.01 0.84,-0.06 1.07,-0.35 0.82,-1.05 1.59,-0.42 2.69,-0.45 0.46,-0.01 0.99,-0.05 1.5,-0.15 0.47,0.34 0.82,0.73 1.01,1.33 0.21,0.68 1.33,0.54 1.26,-0.2 -0.06,-0.68 -0.4,-1.29 -0.9,-1.75 0.42,-0.37 0.75,-0.89 1.09,-1.31 0.81,-1 2.41,0.34 3.11,0.77 0.26,0.16 0.66,0.15 0.91,-0.02 0.6,-0.43 1.14,-1.05 1.83,-1.34 -0.49,2.29 -1.1,4.54 -1.83,6.73 -1.6,-0.96 -3.89,-0.57 -5.01,1.01 -1.12,-0.51 -2.34,-0.69 -3.52,-0.57 0.09,-0.63 -0.04,-1.29 -0.42,-1.83 -0.47,-0.67 -1.46,-0.06 -1.07,0.66 0.25,0.46 0.2,0.98 0.08,1.47 -2.31,0.74 -4.16,2.68 -4.21,5.47 -1.82,-0.77 -4.02,-0.77 -5.89,-0.08 -0.03,-0.29 -0.05,-0.58 -0.08,-0.87 -0.03,-0.28 -0.19,-0.53 -0.48,-0.6 -0.3,-0.08 -0.74,0.12 -0.77,0.46 -0.06,0.55 -0.1,1.11 0.03,1.64 -0.66,0.41 -1.24,0.92 -1.69,1.53 -2.01,-0.98 -4.95,-0.21 -5.79,1.83 -2.55,-1.77 -7.03,-1.3 -8.32,1.74 -2.8,-1.54 -6.81,-0.42 -7.53,2.8l-0.25 -0.15c-0.75,-0.37 -1.82,-0.5 -2.71,-0.25 -0.2,-4.33 -5.88,-6.94 -9.87,-4.27 -0.58,-0.54 -1.31,-0.89 -2.17,-0.94 -1.2,-0.07 -2.4,0.44 -3.09,1.38 -2.5,-1.78 -6.72,-1.13 -8.13,1.72 -1.47,-1.04 -3.68,-1.08 -5.15,0.11 -0.7,-1.22 -1.8,-2.23 -3.29,-2.88 -1.28,-0.56 -2.7,-0.75 -4.09,-0.61 0.19,-0.44 0.3,-0.91 0.3,-1.35 0.02,-0.78 -1.09,-0.83 -1.31,-0.15 -0.25,0.79 -0.53,1.45 -1.25,1.91l-0.23 0.25c-0.74,0.33 -1.41,0.77 -2.01,1.33 -0.28,-0.52 -0.69,-0.99 -1.22,-1.37 -0.9,-0.65 -2.31,-0.81 -3.39,-0.35 -0.69,-2.97 -4.34,-4.53 -7.26,-3.61 -0.24,-0.46 -0.26,-0.87 0.02,-1.39 0.39,-0.71 -0.69,-1.3 -1.1,-0.6 -0.49,0.85 -0.52,1.74 -0.1,2.53 -0.29,0.18 -0.57,0.39 -0.84,0.64 -1.1,-1.32 -3.13,-1.83 -4.73,-0.91 -1.11,-2.91 -4.71,-4.44 -7.8,-2.97 -1.53,-4.79 -7.8,-7.43 -12.2,-4.96 -0.67,-2.3 -1.21,-4.66 -1.63,-7.05 1.56,-0.36 3.04,-0.81 4.65,-0.26 0.69,0.24 1.14,-0.91 0.47,-1.19 -1.81,-0.77 -3.55,-0.32 -5.34,0.18 -0.21,-1.38 -0.37,-2.77 -0.5,-4.18 1.47,-0.32 2.92,-0.83 4.39,-0.23 0.75,0.31 1.39,-0.77 0.62,-1.13 -1.71,-0.81 -3.4,-0.43 -5.12,0.08 -0.11,-1.54 -0.17,-3.1 -0.17,-4.67 0,-1.48 0.06,-2.94 0.15,-4.39 1.6,1.08 3.57,1.7 5.36,2.29 3.4,1.12 6.89,2.15 10.35,3.03 7.26,1.86 15.03,1.53 22.27,-0.23 8.09,-1.96 15.57,-5.35 23.87,-6.56 7.26,-1.07 14.74,-1.78 21.65,-4.44 0.92,-0.35 0.51,-1.78 -0.45,-1.48 -6.86,2.16 -14.14,3.08 -21.24,4.06 -7.07,0.98 -13.56,3.37 -20.33,5.49 -7.68,2.41 -15.13,3.11 -23.04,1.51 -2.6,-0.53 -5.24,-1.21 -7.84,-2.04 3.33,-0.3 6.95,-1.97 9.7,-2.83 7.7,-2.4 15.24,-1.27 22.68,1.31 0.77,0.27 1.2,-0.93 0.51,-1.3 -5.71,-3.09 -12.21,-3.59 -18.55,-2.72 -5.97,0.81 -11.79,4.4 -17.88,3.69 -0.3,-0.04 -0.57,0.12 -0.73,0.34 -2.11,-0.83 -4.16,-1.76 -6.1,-2.78 0.05,-0.47 0.11,-0.95 0.16,-1.42l0.31 -0.13c2.5,-1.46 5.79,-1.98 8.49,-3.07 3.78,-1.53 7.54,-3.12 11.44,-4.32 4.68,-1.44 9.5,-1.13 14.15,0.24 3.54,1.05 6.93,2.38 10.66,2.49 3.4,0.1 6.81,-1.29 9.96,-2.37 3.53,-1.2 6.92,-0.88 10.52,-0.19 5.78,1.11 12.45,3.85 18.35,2.07 0.81,-0.25 0.63,-1.53 -0.24,-1.48 -7.07,0.38 -13.42,-1.81 -20.32,-2.84 -2.62,-0.4 -5.24,-0.39 -7.8,0.32 -4.63,1.27 -8.57,3.19 -13.52,2.27 -3.99,-0.74 -7.66,-2.58 -11.68,-3.26 -3.61,-0.61 -7.2,-0.18 -10.75,0.53 -3.93,0.79 -7.77,2.76 -11.46,4.26 -2.41,0.98 -5.27,1.52 -7.68,2.64 2.15,-12.47 7.8,-23.76 15.9,-32.82 2.5,-0.58 5.1,-0.22 6.77,2.03 0.8,1.08 1.37,2.24 2.27,3.26 1.93,2.17 5.09,3.24 7.84,3.76 3.22,0.61 6.53,0.13 9.76,-0.05 3.8,-0.21 7.54,0.13 11.19,1.23 10.95,3.32 16.79,16.68 29.6,14.97 0.82,-0.11 0.82,-1.39 -0.04,-1.31 -6.9,0.66 -12.19,-3.06 -17.19,-7.34 -4.61,-3.94 -8.73,-7.13 -14.8,-8.49 -6.92,-1.54 -14.04,0.98 -20.84,-1.11 -3.96,-1.21 -5.06,-4.27 -7.62,-6.93 -1.38,-1.44 -3.43,-1.83 -5.41,-1.68 5.39,-5.63 11.76,-10.32 18.84,-13.78 -0.01,1.39 1.07,2.91 2.24,3.67 0.63,0.41 1.34,-0.57 0.78,-1.06 -1.03,-0.9 -2.13,-2.36 -0.97,-3.56l0.01 -0.01c8.24,-3.69 17.36,-5.74 26.95,-5.74 19.4,0 36.88,8.38 49.01,21.72 -4.53,1.64 -6.88,5.99 -8.95,10.21 -1.43,2.93 -2.74,5.93 -5.42,7.92 -2.92,2.16 -6.55,3.29 -10.12,3.61 -0.85,0.08 -0.78,1.2 0.03,1.29 5.03,0.53 11.27,-2.71 14.04,-6.84 3.59,-5.35 4.78,-12.7 11.41,-15.08 2.62,3.02 4.98,6.27 7.03,9.73 -4.89,-0.21 -8.8,4.73 -12.36,7.5 -5.59,4.36 -13.05,6.96 -20.14,6.39 -0.71,-0.06 -0.84,1.14 -0.14,1.25 6.26,0.98 12.61,-1.19 18.01,-4.25 5.03,-2.85 9.23,-9.98 15.51,-9.36 3.74,6.7 6.35,14.11 7.56,21.97 -4.13,0.54 -8.8,-1.76 -12.36,-3.53 -3.18,-1.58 -6.24,-3.29 -9.8,-3.78 -3.1,-0.43 -6.4,0.42 -9.34,1.32 -2.94,0.9 -5.69,2.62 -8.8,2.88 -0.82,0.07 -0.78,1.21 0.03,1.27 2.62,0.17 5.23,-1.23 7.61,-2.15 4.15,-1.62 8.66,-2.36 12.97,-1 3.67,1.16 6.79,3.67 10.37,5.06 3.09,1.2 6.33,2.8 9.59,1.76 0.14,1.09 0.25,2.19 0.33,3.3 -1.08,-0.2 -2.23,-0.19 -3.3,-0.09 -0.82,0.08 -0.77,1.19 0.03,1.26 1.11,0.1 2.24,0.15 3.36,0.21 0.07,1.22 0.11,2.45 0.11,3.69 0,0.65 -0.01,1.31 -0.04,1.96 -1.98,-0.55 -3.8,-1.64 -5.93,-1.35 -0.79,0.11 -0.79,1.33 0.03,1.27zm-2.31 30.11c-1.09,-1.07 -2.59,-1.62 -4.18,-1.37 -1.54,0.24 -2.82,1.3 -3.3,2.74 -1.23,-0.32 -2.64,-0.07 -3.71,0.83 -0.55,0.46 0.23,1.42 0.79,0.97 1.56,-1.23 3.85,-0.69 4.31,1.35 0.16,0.7 1.35,0.52 1.26,-0.2 -0.14,-1.06 -0.68,-1.85 -1.41,-2.37 0.46,-1 1.14,-1.65 2.29,-1.93 1.28,-0.31 2.38,0.37 3.25,1.23 -11.49,19.73 -32.86,33.02 -57.29,33.02 -23.63,0 -44.4,-12.44 -56.13,-31.11 3.01,-1.63 5.88,-1.28 7.8,1.98 0.37,0.62 1.48,0.16 1.19,-0.53 -0.22,-0.52 -0.49,-0.99 -0.79,-1.4 1.03,-0.94 2.5,-1.16 3.73,-0.25 0.66,0.49 1.52,-0.34 0.9,-0.95 -1.46,-1.43 -4.22,-1.39 -5.6,0.13 -0.71,-0.64 -1.54,-1.07 -2.42,-1.31 0.52,-0.96 0.77,-2.06 0.62,-3.15 -0.11,-0.79 -1.32,-0.8 -1.26,0.03 0.06,1.09 -0.24,2.01 -0.78,2.91 -1.4,-0.04 -2.84,0.4 -4.12,1.34 -2.62,-4.37 -4.75,-9.06 -6.31,-14 2.17,-1.16 4.29,-1.26 6.6,0.04 2.36,1.32 3.2,3.67 4.1,6.03 0.28,0.74 1.37,0.59 1.38,-0.22 0.01,-0.35 -0.02,-0.69 -0.05,-1.02 3.14,-1.28 6.9,0.63 6.43,4.42 -0.1,0.83 1.11,1.18 1.29,0.32 0.13,-0.6 0.16,-1.18 0.11,-1.73 0.67,-0.52 1.52,-0.59 2.35,-0.35 1.15,0.34 1.58,1.45 1.49,2.55 -0.06,0.74 1.15,0.86 1.28,0.14 0.11,-0.57 0.07,-1.09 -0.06,-1.58 2.73,-2.32 7.76,-1.06 7.29,3.12 -0.09,0.82 1.07,1.17 1.28,0.32 0.06,-0.23 0.09,-0.46 0.12,-0.67 0.83,-0.41 1.52,-0.6 2.44,-0.08 0.96,0.54 1.28,1.74 1.11,2.76 -0.13,0.82 1.04,1.14 1.27,0.31 0.13,-0.51 0.17,-1 0.12,-1.47 1.9,-1.98 4.67,-2.38 7.25,-1.56 3.43,1.09 4.02,4.41 3.24,7.5 -0.22,0.87 1.01,1.12 1.31,0.33 0.62,-1.62 0.69,-3.26 0.28,-4.72 0.77,-0.69 1.54,-1.07 2.66,-0.79 1.12,0.28 1.76,1.28 2.11,2.29 0.24,0.7 1.32,0.56 1.3,-0.21 -0.03,-0.66 -0.21,-1.24 -0.5,-1.73 1.42,-3.32 6.02,-2.95 7.62,0.08 0.36,0.67 1.4,0.16 1.19,-0.54 -0.16,-0.52 -0.4,-0.98 -0.69,-1.37 1.34,-1.62 3.47,-0.84 4.21,1.14 0.3,0.8 1.46,0.45 1.27,-0.39 -0.09,-0.37 -0.22,-0.73 -0.39,-1.06 1.83,-0.78 3.53,-1.21 5.48,-0.17 2.05,1.1 2.54,3.56 1.74,5.59 -0.3,0.76 0.76,1.41 1.15,0.63 0.21,-0.43 0.36,-0.84 0.47,-1.25 0.67,-0.3 1.19,-0.5 2.03,-0.24 1.08,0.33 1.5,1.39 1.52,2.43 0.02,0.73 1.16,0.89 1.29,0.14 0.15,-0.86 -0.02,-1.66 -0.42,-2.34 0.34,-1.47 0.93,-2.61 2.48,-3.17 1.55,-0.56 3.12,0.16 4.27,1.19 0.53,0.48 1.5,-0.22 1.01,-0.82l-0.31 -0.34c1.34,-3.4 7.32,-2.88 7.58,1.02 0.06,0.87 1.3,0.82 1.34,-0.03 0.05,-0.98 -0.21,-1.8 -0.66,-2.48 0.6,-1.63 2.42,-2.4 4.01,-1.78 -0.19,0.51 -0.31,1.06 -0.34,1.67 -0.03,0.74 1.09,0.83 1.27,0.14 1.15,-4.45 7.24,-5.74 10.2,-2.14 0.49,0.59 1.44,-0.21 1.03,-0.84 -0.3,-0.46 -0.67,-0.85 -1.08,-1.19 0.07,-5.06 5.4,-7 9.01,-3.39 0.52,0.52 1.5,-0.23 1.02,-0.83 -0.39,-0.49 -0.82,-0.9 -1.29,-1.24 0.87,-0.98 2.35,-1 3.41,-0.3 -1.22,3.45 -2.72,6.76 -4.46,9.91zm-58 -100.07c-37.55,0 -68.09,30.55 -68.09,68.1 0,37.55 30.55,68.1 68.09,68.1 37.55,0 68.1,-30.55 68.1,-68.1 0,-37.55 -30.55,-68.1 -68.1,-68.1z"/>
  <polygon class="fil0" points="25.89,109.48 25.97,109.4 26.13,109.06 25.99,108.71 24.85,107.48 25.68,106.71 26.82,107.94 27.16,108.1 27.52,107.96 27.6,107.89 27.63,107.19 26.08,105.52 25.73,105.36 25.37,105.49 21.66,108.94 21.63,109.64 21.7,109.72 22.05,109.88 22.07,109.88 22.41,109.75 24.05,108.22 25.19,109.45 "/>
  <path class="fil0" d="M30.14 112.23c-0.29,0.33 -0.51,0.33 -0.58,0.33l-0.08 -0.01 -0.58 -0.3 -0.58 -0.51 1.12 -1.26 0.58 0.51 0.36 0.54c0.03,0.14 0.05,0.37 -0.24,0.7zm1.31 -0.96c-0.1,-0.4 -0.34,-0.77 -0.7,-1.1l-1.03 -0.91 -0.7 0.04 -3.36 3.8 -0.13 0.35 0.16 0.34 0.08 0.07 0.7 -0.04 1.11 -1.26 0.58 0.51 0.02 0.02 -0.56 2.06c-0.07,0.26 0.07,0.52 0.33,0.6l0.1 0.03 0.15 0.02 0.24 -0.06 0.24 -0.3 0.5 -1.83c0.65,0.15 1.27,-0.08 1.78,-0.67 0.58,-0.66 0.58,-1.29 0.49,-1.69z"/>
  <polygon class="fil0" points="33.32,115.13 33.99,114.22 35.34,115.2 36.03,115.09 36.1,115 36.19,114.64 35.99,114.31 34.14,112.97 33.45,113.08 30.44,117.22 30.36,117.59 30.55,117.92 32.4,119.26 32.69,119.35 33.09,119.15 33.15,119.06 33.24,118.7 33.04,118.37 31.68,117.38 32.68,116.02 33.59,116.68 33.95,116.77 34.28,116.57 34.34,116.48 34.23,115.79 "/>
  <path class="fil0" d="M40.76 117.99l0.06 -0.1c0.14,-0.24 0.06,-0.54 -0.18,-0.68l-1.97 -1.15 -0.38 -0.05 -0.3 0.23 -2.59 4.42c-0.14,0.24 -0.06,0.54 0.18,0.68l1.97 1.15 0.25 0.07 0.43 -0.24 0.05 -0.09 0.05 -0.38 -0.23 -0.3 -1.45 -0.85 0.86 -1.46 0.97 0.57 0.37 0.05 0.3 -0.23 0.06 -0.1c0.14,-0.24 0.06,-0.54 -0.17,-0.67l-0.97 -0.57 0.57 -0.97 1.45 0.85 0.37 0.05 0.3 -0.23z"/>
  <path class="fil0" d="M44.44 121.45l-0.82 1.77c-0.12,0.27 -0.32,0.43 -0.61,0.51 -0.27,0.07 -0.49,0.06 -0.69,-0.03l-0.64 -0.29 1.64 -3.56 0.64 0.3c0.19,0.09 0.35,0.26 0.47,0.5 0.13,0.28 0.14,0.53 0.01,0.8zm-0.02 -2.3l-1.19 -0.55c-0.25,-0.12 -0.54,-0.01 -0.66,0.24l-2.15 4.65 -0.01 0.38 0.26 0.28 1.19 0.55c0.26,0.12 0.53,0.18 0.82,0.18l0.6 -0.08c0.62,-0.16 1.08,-0.55 1.34,-1.11l0.82 -1.77c0.26,-0.56 0.26,-1.16 -0.02,-1.73 -0.23,-0.48 -0.56,-0.83 -1,-1.03z"/>
  <path class="fil0" d="M49.81 123.37l-0.73 2.1 -0.43 0.49 -0.36 0.09 -0.29 -0.05 -0.49 -0.43 -0.04 -0.65 0.73 -2.11 0.43 -0.48 0.36 -0.09 0.29 0.05c0.23,0.08 0.38,0.21 0.48,0.43l0.04 0.64zm-0.16 -2.11c-0.5,-0.17 -1.01,-0.14 -1.49,0.09 -0.48,0.23 -0.81,0.6 -0.99,1.11l-0.73 2.11c-0.17,0.5 -0.14,1 0.09,1.48 0.23,0.48 0.6,0.81 1.11,0.99l0.65 0.11c0.28,0 0.57,-0.07 0.84,-0.2 0.48,-0.23 0.81,-0.61 0.99,-1.11l0.73 -2.1c0.17,-0.5 0.14,-1.01 -0.09,-1.49 -0.24,-0.48 -0.61,-0.82 -1.11,-0.99z"/>
  <path class="fil0" d="M56.58 123.26l-0.12 -0.03 -0.47 0.13 -1.61 1.64 -0.69 -2.19 -0.36 -0.33 -0.12 -0.03c-0.26,-0.06 -0.53,0.1 -0.59,0.36l-1.17 4.88c-0.06,0.27 0.1,0.53 0.37,0.6l0.11 0.03 0.38 -0.06 0.22 -0.31 0.7 -2.94 0.41 1.29 0.36 0.33 0.46 -0.13 0.95 -0.97 -0.71 2.94c-0.06,0.27 0.1,0.53 0.37,0.6l0.11 0.03 0.12 0.01 0.26 -0.07 0.22 -0.3 1.17 -4.88c0.06,-0.27 -0.1,-0.53 -0.37,-0.6z"/>
  <path class="fil0" d="M65.2 127.91l0.5 -1.32 0.39 1.35 -0.89 -0.04zm1.1 -3.18l-0.45 -0.36 -0.12 -0.01 -0.48 0.32 -1.86 4.93 0.02 0.39 0.29 0.26 0.1 0.04c0.25,0.08 0.53,-0.05 0.62,-0.29l0.38 -1 1.62 0.06 0.3 1.03 0.48 0.36 0.12 -0.02 0.11 -0.03 0.31 -0.23 0.05 -0.38 -1.46 -5.06z"/>
  <path class="fil0" d="M72.74 124.24l-0.11 0.01 -0.34 0.16 -0.12 0.36 0.16 2.89 -1.91 -3.03 -0.45 -0.23 -0.12 0.01 -0.34 0.16 -0.13 0.35 0.28 5.01c0.02,0.26 0.23,0.47 0.49,0.47l0.03 0 0.11 -0.01 0.34 -0.16 0.12 -0.35 -0.17 -2.89 1.92 3.03 0.45 0.23 0.12 -0.01c0.27,-0.02 0.48,-0.25 0.47,-0.52l-0.28 -5.01c-0.02,-0.27 -0.25,-0.48 -0.52,-0.47z"/>
  <path class="fil0" d="M77.97 128.31l-0.59 0.36 -0.7 0.11 -0.6 -3.87 0.7 -0.11c0.22,-0.03 0.43,0.02 0.67,0.16 0.27,0.16 0.41,0.37 0.45,0.66l0.3 1.93c0.04,0.29 -0.03,0.53 -0.23,0.76zm1.02 -2.86c-0.09,-0.62 -0.43,-1.11 -0.98,-1.44 -0.46,-0.28 -0.93,-0.38 -1.4,-0.31l-1.29 0.2c-0.27,0.04 -0.45,0.29 -0.41,0.56l0.78 5.06c0.04,0.24 0.25,0.42 0.49,0.42l0.08 -0.01 1.29 -0.2c0.46,-0.07 0.88,-0.31 1.24,-0.71 0.42,-0.47 0.59,-1.05 0.5,-1.67l-0.3 -1.92z"/>
  <path class="fil0" d="M89.39 120.82c-0.09,-0.26 -0.38,-0.39 -0.63,-0.3l-0.11 0.04 -0.28 0.26 -0.02 0.38 1.24 3.4 -0.02 0.65 -0.48 0.43c-0.23,0.08 -0.43,0.08 -0.65,-0.03l-0.44 -0.48 -1.24 -3.4c-0.09,-0.26 -0.37,-0.39 -0.63,-0.3l-0.1 0.04 -0.28 0.26 -0.02 0.38 1.24 3.4c0.18,0.5 0.52,0.87 1,1.1 0.26,0.12 0.54,0.18 0.81,0.18l0.68 -0.12c0.5,-0.19 0.87,-0.52 1.1,-1.01 0.23,-0.49 0.25,-0.98 0.07,-1.49l-1.24 -3.4z"/>
  <path class="fil0" d="M94.42 118.49l-0.28 -0.25 -0.38 0.02 -0.1 0.05c-0.25,0.12 -0.35,0.41 -0.23,0.66l1.26 2.61 -2.93 -2.07 -0.5 -0.05 -0.11 0.05 -0.25 0.28 0.02 0.38 2.17 4.52 0.28 0.25 0.16 0.03 0.21 -0.05 0.1 -0.05c0.25,-0.12 0.35,-0.41 0.23,-0.66l-1.25 -2.61 2.93 2.07 0.5 0.04 0.11 -0.05 0.25 -0.28 -0.02 -0.38 -2.17 -4.52z"/>
  <path class="fil0" d="M98.02 116.39c-0.14,-0.23 -0.44,-0.31 -0.68,-0.16l-0.1 0.06 -0.22 0.31 0.06 0.37 2.61 4.29 0.42 0.24 0.26 -0.07 0.1 -0.06 0.23 -0.3 -0.06 -0.38 -2.61 -4.29z"/>
  <polygon class="fil0" points="102.9,113.69 103.58,113.19 103.68,112.49 103.61,112.41 103.29,112.21 102.92,112.3 100.69,113.98 100.59,114.67 100.65,114.76 100.98,114.95 101.35,114.86 102.02,114.35 104.7,117.92 105.1,118.12 105.4,118.02 105.49,117.96 105.68,117.63 105.58,117.26 "/>
  <path class="fil0" d="M108.63 111.64l-0.38 -2.85c-0.04,-0.27 -0.28,-0.46 -0.55,-0.43l-0.11 0.02 -0.33 0.19 -0.1 0.37 0.31 2.23 -2.2 -0.5 -0.38 0.06 -0.22 0.31 -0.03 0.11c-0.06,0.26 0.11,0.53 0.37,0.59l2.8 0.64 1.58 1.72 0.34 0.16 0.02 0 0.34 -0.13 0.08 -0.07 0.03 -0.7 -1.58 -1.72z"/>
  <path class="fil0" d="M38.56 17.81l-0.16 0.04 -0.39 0.28 -0.07 0.48 1.43 5.44 -4.41 -3.49 -0.46 -0.13 -0.41 0.24 -0.1 0.13c-0.21,0.27 -0.16,0.65 0.11,0.86l6.02 4.78 0.39 0.13 0.34 -0.1 0.14 -0.1c0.22,-0.14 0.33,-0.42 0.26,-0.67l-1.95 -7.44c-0.09,-0.33 -0.42,-0.52 -0.74,-0.44z"/>
  <path class="fil0" d="M51.58 20.35l-0.33 -0.34 -0.48 -0.01 -2.37 0.94 -0.98 -2.49 1.62 -0.64c0.32,-0.13 0.47,-0.49 0.35,-0.8l-0.06 -0.15 -0.33 -0.34 -0.47 -0.01 -1.62 0.64 -0.68 -1.72 2.37 -0.94c0.32,-0.13 0.47,-0.49 0.35,-0.8l-0.06 -0.15 -0.33 -0.34 -0.47 -0.01 -3.1 1.23 -0.34 0.33 -0.01 0.47 2.76 6.95 0.33 0.34 0.25 0.05 0.23 -0.04 3.1 -1.23c0.32,-0.13 0.47,-0.49 0.35,-0.8l-0.06 -0.14z"/>
  <path class="fil0" d="M57.94 12c0.4,-0.07 0.73,-0.05 1.01,0.08 0.22,0.1 0.52,0.31 0.65,0.98 0.12,0.68 -0.09,0.98 -0.26,1.15 -0.22,0.21 -0.53,0.35 -0.93,0.42l-1.21 0.22 -0.47 -2.62 1.21 -0.22zm-0.82 7.49l0.11 -0.01 0.16 -0.03 0.39 -0.26 0.1 -0.46 -0.45 -2.52 1.21 -0.22 0.1 -0.02 1.89 2.57c0.2,0.27 0.57,0.33 0.85,0.14l0.13 -0.09 0.26 -0.41 -0.11 -0.47 -1.7 -2.31c0.78,-0.58 1.1,-1.48 0.9,-2.61 -0.22,-1.22 -0.91,-1.77 -1.44,-2.01 -0.53,-0.24 -1.15,-0.3 -1.83,-0.18l-1.98 0.35 -0.4 0.25 -0.1 0.46 1.3 7.29c0.05,0.3 0.32,0.51 0.61,0.51z"/>
  <path class="fil0" d="M66.72 18.3l0.17 0 0.01 0c0.34,0 0.61,-0.27 0.62,-0.6l0.11 -4.8 1.17 2.05 0.52 0.31 0.53 -0.29 1.26 -1.99 -0.11 4.8 0.17 0.44 0.43 0.19 0.16 0 0.02 0c0.34,0 0.61,-0.27 0.62,-0.6l0.17 -7.33c0.01,-0.34 -0.26,-0.62 -0.6,-0.63l-0.18 -0.01 -0.54 0.29 -1.88 2.99 -1.75 -3.07 -0.52 -0.31 -0.18 -0 -0.01 -0c-0.33,0 -0.61,0.27 -0.62,0.61l-0.16 7.32 0.17 0.44 0.43 0.19z"/>
  <path class="fil0" d="M78.39 16.68l0.72 -3.17c0.08,-0.37 0.27,-0.63 0.59,-0.83 0.23,-0.14 0.45,-0.21 0.69,-0.21l0.32 0.04c0.37,0.08 0.63,0.27 0.84,0.59 0.2,0.31 0.25,0.64 0.17,1.01l-0.72 3.17c-0.08,0.37 -0.27,0.64 -0.59,0.84 -0.32,0.2 -0.64,0.25 -1,0.17 -0.38,-0.08 -0.64,-0.27 -0.84,-0.59 -0.2,-0.32 -0.26,-0.64 -0.17,-1.01zm0.71 2.96l0.63 0.07c0.5,0 0.98,-0.14 1.43,-0.42 0.63,-0.4 1.04,-0.98 1.21,-1.71l0.72 -3.17c0.17,-0.73 0.05,-1.42 -0.36,-2.06 -0.4,-0.63 -0.97,-1.04 -1.71,-1.21 -0.73,-0.17 -1.43,-0.04 -2.07,0.36 -0.63,0.4 -1.04,0.97 -1.2,1.71l-0.72 3.17c-0.16,0.73 -0.04,1.43 0.35,2.06 0.4,0.63 0.98,1.04 1.72,1.2z"/>
  <path class="fil0" d="M87.25 21.94l0.34 -0.32 1.91 -4.21 0.47 5.62 0.36 0.51 0.16 0.07 0.25 0.06 0.22 -0.04 0.34 -0.32 3.01 -6.67 0.02 -0.47 -0.32 -0.35 -0.15 -0.07c-0.31,-0.14 -0.68,-0 -0.82,0.31l-1.9 4.22 -0.47 -5.62 -0.36 -0.51 -0.16 -0.07 -0.47 -0.02 -0.34 0.32 -3.01 6.68c-0.14,0.31 -0.01,0.68 0.31,0.82l0.15 0.07 0.47 0.02z"/>
  <path class="fil0" d="M97.23 27.75l0.36 0.12 0.1 -0.01 0.4 -0.25 3.87 -5.37 1.08 0.78c0.28,0.2 0.66,0.14 0.86,-0.14l0.09 -0.13 0.11 -0.46 -0.25 -0.4 -3.3 -2.38c-0.28,-0.2 -0.66,-0.14 -0.86,0.14l-0.1 0.13 -0.11 0.46 0.25 0.4 1.08 0.78 -3.87 5.37c-0.2,0.28 -0.14,0.66 0.13,0.86l0.14 0.1z"/>
  <path class="fil0" d="M78.82 86.24c-2.11,-1.96 -4.19,-3.98 -6.38,-5.87 3.92,0.13 7.88,0.11 11.79,-0.02l0.09 -0c0.53,-0.02 1.05,-0.03 1.57,-0.05 0.53,0.39 1.07,0.78 1.59,1.19 0.65,0.5 1.3,1.15 2.08,1.44l0.41 -0.03c1.41,0.13 2.83,0.09 4.24,0.01l0.06 -0.01c0.24,0.02 0.45,-0.08 0.55,-0.31 1.29,1.25 2.65,2.45 4,3.63 -6.67,-0.05 -13.35,-0.11 -20.01,0.02zm10.09 -8.19c0.03,-0.64 0.03,-1.28 0.01,-1.93 0.3,-0 0.61,-0.01 0.91,-0.01 -0.03,0.65 -0.03,1.3 0.01,1.95 -0.31,-0 -0.62,-0.01 -0.93,-0.01zm-2.11 0.02c0.03,-0.67 0.05,-1.34 0.06,-2.01 0.24,0.02 0.49,0.04 0.73,0.05 -0.03,0.65 -0.03,1.31 0.01,1.95 -0.27,0.01 -0.53,0.01 -0.8,0.01zm2.22 1.54c-0.02,0.44 -0.02,0.88 -0.01,1.33l-0.63 -0.41c-0.44,-0.3 -0.88,-0.62 -1.31,-0.93 0.65,0.01 1.3,0.02 1.96,0.01zm-0.77 -10.72c0.34,0.04 0.69,0.01 1.03,-0 0.4,-0.01 0.79,-0 1.19,-0.03 0.47,0.55 0.98,1.08 1.52,1.58 -0.06,1.39 -0.1,2.81 -0.11,4.23 -1.64,-0.08 -3.37,-0.16 -5.01,-0.03 -0.01,-1.41 -0.05,-2.81 -0.11,-4.2 0.53,-0.49 1.03,-1 1.49,-1.55zm1.12 -12.41c0.23,3.68 0.46,7.36 0.68,11.04 -0.26,-0 -0.53,0 -0.79,-0.01l-0.55 -0.02c0.22,-3.67 0.45,-7.35 0.67,-11.02zm1.77 21.6c0.04,-0.67 0.04,-1.34 0.01,-2.02 0.24,-0.01 0.49,-0.02 0.73,-0.03 0.01,0.7 0.03,1.38 0.06,2.07 -0.27,-0.01 -0.54,-0.02 -0.8,-0.02zm2.39 1.43c-0.06,0.68 -0.05,1.4 -0,2.08 -1.05,-0.05 -2.1,-0.07 -3.15,0 0,-0.3 -0,-0.6 -0.01,-0.9 -0.01,-0.36 0.01,-0.73 0.02,-1.1 1.05,-0.02 2.1,-0.05 3.14,-0.08zm1.43 1.38c0.01,-0.49 0,-0.98 -0.04,-1.46 0.64,-0.18 0.56,-1.23 -0.21,-1.26 -0.48,-0.01 -0.96,-0.03 -1.44,-0.04 0.13,-2.63 0.07,-5.36 -0.04,-7.98l-0.15 -0.38 -0.04 -0.07c-0.53,-0.62 -1.1,-1.24 -1.71,-1.79 -0.45,-7.59 -0.82,-15.18 -1.35,-22.76 0.02,-0.42 -0.3,-0.6 -0.61,-0.58 -0.33,-0.01 -0.66,0.19 -0.63,0.61 -0.53,7.57 -0.9,15.15 -1.35,22.73 -0.62,0.55 -1.2,1.18 -1.73,1.81l-0.16 0.42 -0.01 0.04c-0.11,2.6 -0.17,5.32 -0.05,7.93 -0.43,0.02 -0.85,0.05 -1.28,0.08 -0.45,0.04 -0.62,0.38 -0.58,0.71 -4.33,-0.13 -8.71,-0.14 -13.02,0.06 -0.27,0.01 -0.44,0.14 -0.53,0.31 -2.73,2.23 -5.29,4.74 -7.86,7.15 -0.44,0.41 -0.09,0.97 0.37,1.06 -0.08,3.08 -0.09,6.17 -0.01,9.25 0.02,0.84 1.28,0.8 1.3,-0.03 0.09,-3.27 0.07,-6.57 -0.02,-9.84l-0.03 -0.13c2.3,-2.03 4.64,-4.05 6.8,-6.21 2.33,2.32 4.86,4.48 7.31,6.66 -0.08,3.01 -0.1,6.05 -0.02,9.07 0.02,0.84 1.28,0.8 1.3,-0.03 0.08,-2.9 0.06,-5.81 -0.01,-8.71 6.36,0.12 12.73,0.07 19.09,0.03 -0.15,2.94 -0.06,5.94 0.02,8.88 0.03,0.84 1.26,0.79 1.28,-0.03 0.09,-2.93 0.16,-5.93 0.02,-8.86 0.32,-0 0.65,-0.01 0.97,-0.01 0.32,0 0.51,-0.19 0.58,-0.42l-0.14 -0.7c-1.97,-1.86 -3.94,-3.8 -6.04,-5.51z"/>
  <path class="fil0" d="M91.3 72.56c0.05,-0.48 0.03,-1 -0.05,-1.48 -0.1,-0.62 -1.12,-0.56 -1.22,0.03 -0.08,0.47 -0.08,1 -0.04,1.48 0.08,0.85 1.23,0.79 1.3,-0.03z"/>
  <path class="fil0" d="M88.75 72.56c0.05,-0.48 0.03,-1 -0.05,-1.48 -0.1,-0.62 -1.12,-0.56 -1.22,0.03 -0.08,0.47 -0.08,1 -0.03,1.48 0.08,0.85 1.23,0.79 1.3,-0.03z"/>
  <path class="fil0" d="M69.98 84.06c-0.05,0.62 -0.03,1.24 -0.01,1.85 0.03,0.83 1.24,0.78 1.27,-0.03 0.02,-0.61 0.04,-1.24 -0.01,-1.85 -0.06,-0.82 -1.19,-0.77 -1.26,0.03z"/>
  <path class="fil0" d="M81.41 90.21c-0.51,1.15 -0.3,2.59 -0.32,3.83 -0.01,0.82 0.02,1.56 0.18,2.35l0.02 0.08 0.01 0.04c0.1,0.41 0.43,0.56 0.76,0.5 0.3,-0 0.58,-0.17 0.67,-0.54 0.16,-0.71 0.21,-1.36 0.2,-2.09 -0.02,-1.26 0.24,-2.89 -0.28,-4.05 -0.21,-0.47 -0.96,-0.73 -1.23,-0.13z"/>
  <path class="fil0" d="M85.45 90.21c-0.51,1.15 -0.3,2.59 -0.32,3.83 -0.01,0.82 0.02,1.56 0.18,2.35l0.02 0.08 0.01 0.04c0.09,0.41 0.43,0.56 0.75,0.5 0.29,-0 0.58,-0.17 0.66,-0.54 0.16,-0.71 0.22,-1.36 0.2,-2.09 -0.02,-1.26 0.24,-2.89 -0.27,-4.05 -0.21,-0.47 -0.96,-0.73 -1.23,-0.13z"/>
  <path class="fil0" d="M89.48 90.21c-0.51,1.15 -0.3,2.59 -0.32,3.83 -0.01,0.82 0.02,1.56 0.18,2.35l0.02 0.08 0 0.04c0.1,0.41 0.44,0.56 0.76,0.5 0.29,-0 0.58,-0.17 0.67,-0.54 0.16,-0.71 0.21,-1.36 0.2,-2.09 -0.02,-1.26 0.24,-2.89 -0.27,-4.05 -0.21,-0.47 -0.97,-0.73 -1.23,-0.13z"/>
  <path class="fil0" d="M93.52 90.21c-0.51,1.15 -0.3,2.59 -0.32,3.83 -0.02,0.82 0.02,1.56 0.18,2.35l0.02 0.08 0.01 0.04c0.09,0.41 0.43,0.56 0.75,0.5 0.3,-0 0.58,-0.17 0.67,-0.54 0.16,-0.71 0.22,-1.36 0.2,-2.09 -0.02,-1.26 0.24,-2.89 -0.28,-4.05 -0.21,-0.47 -0.96,-0.73 -1.23,-0.13z"/>
  <path class="fil0" d="M45.4 110.03c0.94,-0.76 2.06,-0.87 3.2,-0.26 0.76,0.4 1.31,-0.68 0.63,-1.14 -1.49,-1.01 -3.24,-0.84 -4.5,0.23 -1.81,-2.58 -5.04,-3.79 -8.05,-1.59 -0.66,0.48 -0.05,1.49 0.67,1.08 3.51,-2.03 6.31,0.4 7.38,3.82 0.26,0.83 1.44,0.44 1.27,-0.38 -0.13,-0.62 -0.33,-1.2 -0.59,-1.76z"/>
  <path class="fil0" d="M64.05 110.56c2.54,-3.37 7.44,-3.63 9.81,0.06 0.45,0.71 1.5,0.05 1.1,-0.68 -0.3,-0.55 -0.66,-1.02 -1.05,-1.44 0.94,-1.22 2.58,-1.21 3.66,-0.08 0.51,0.53 1.42,-0.2 1.01,-0.82 -1.3,-1.91 -4.45,-1.85 -5.7,0.04 -3.06,-2.06 -7.55,-1.09 -9.84,2.18 -0.41,0.59 0.58,1.31 1.02,0.74z"/>
  <path class="fil0" d="M91.65 109.82c0.82,-1.54 1.93,-2.82 3.83,-2.52 1.61,0.25 2.68,1.69 3.4,3.02 0.35,0.65 1.46,0.16 1.19,-0.54 -0.13,-0.34 -0.3,-0.66 -0.47,-0.96 0.64,-0.84 1.54,-1.01 2.57,-0.5 0.75,0.37 1.31,-0.68 0.62,-1.13 -1.36,-0.88 -3.05,-0.63 -4.01,0.51 -2.46,-2.62 -6.74,-2.44 -8.29,1.65 -0.26,0.68 0.84,1.08 1.17,0.46z"/>
  <path class="fil0" d="M61.1 114.31c-0.37,0.38 -0.8,0.74 -1.26,1.03 -0.04,-0.3 -0.08,-0.6 -0.1,-0.9 -0.05,-0.83 -1.23,-0.78 -1.28,0.03 -0.03,0.49 -0.01,0.98 0.14,1.44 -0.74,0.21 -1.52,0.16 -2.29,-0.32l-0.33 -0.08c0.28,-1.25 1.08,-2.44 1.81,-3.7 0.41,-0.7 -0.66,-1.27 -1.1,-0.6 -0.24,0.37 -0.48,0.74 -0.7,1.11 -0.21,-0.6 -0.24,-1.23 -0.15,-1.89 0.11,-0.79 -1.08,-1.11 -1.22,-0.31 -0.2,1.18 -0.17,2.41 0.53,3.42l0.1 0.1c-0.49,1.01 -0.83,2.08 -0.84,3.29 -0,2.08 2.42,3.47 2.5,5.56 0.03,0.82 1.3,0.79 1.28,-0.03 -0.05,-1.47 -0.88,-2.62 -1.64,-3.83 -0.38,-0.61 -0.58,-1.18 -0.65,-1.74 1.95,1.49 5.09,0.1 6.24,-1.82 0.4,-0.66 -0.53,-1.29 -1.06,-0.77z"/>
  <path class="fil0" d="M74.07 114.67c-0.87,0.59 -1.71,0.67 -2.62,0.44 0.27,-0.55 0.36,-1.18 0.17,-1.92 -0.21,-0.8 -1.35,-0.42 -1.21,0.36 0.34,1.84 -2.45,2.69 -3.89,2.88 -0.08,-1.15 0.01,-2.28 0.57,-3.38 0.37,-0.73 -0.7,-1.32 -1.11,-0.61 -2.04,3.52 0.79,7.2 -0.64,10.81 -0.3,0.76 0.77,1.41 1.15,0.63 0.99,-2.03 0.47,-4.14 0.17,-6.21 0.56,-0.07 1.19,-0.2 1.8,-0.4 0.37,1.67 1.51,3.28 3,4.09 0.65,0.35 1.34,-0.55 0.77,-1.05 -1.19,-1.03 -2.04,-2.07 -2.56,-3.55 0.32,-0.17 0.62,-0.36 0.89,-0.58 1.34,0.83 3.19,0.55 4.32,-0.51 0.55,-0.51 -0.21,-1.42 -0.82,-1.01z"/>
  <path class="fil0" d="M88.07 112.67c0.58,0.22 1.23,0.26 1.82,0.08 0.67,-0.21 0.53,-1.36 -0.21,-1.26 -0.47,0.06 -0.94,0.03 -1.36,-0.17 0.05,-0.51 0.04,-1.03 0.01,-1.52 -0.06,-0.83 -1.21,-0.78 -1.28,0.03 -0.06,0.85 -0.02,1.67 -0.24,2.49 -0.21,0.8 -0.77,1.13 -1.45,1.39 -0.27,-1.79 -1.02,-3.47 -2.31,-4.54 -0.67,-0.55 -1.48,0.32 -0.92,0.96 0.33,0.38 0.61,0.79 0.85,1.23 -0.93,0.35 -1.62,-0.84 -2.01,-1.58 -0.34,-0.64 -1.39,-0.16 -1.15,0.52 0.57,1.57 2.09,3.12 3.69,2.28 0.31,0.91 0.45,1.89 0.44,2.87 -1.39,0.39 -2.35,-0.3 -3.51,-1.12 -0.54,-0.38 -1.29,0.41 -0.89,0.93 0.98,1.26 2.72,2.14 4.27,1.74 -0.14,0.83 -0.38,1.64 -0.71,2.39 -0.34,0.75 0.68,1.33 1.13,0.62 0.85,-1.34 1.28,-3.15 1.24,-4.97 1.45,-0.21 2.23,-1.17 2.59,-2.38z"/>
  <path class="fil0" d="M95.9 115.69c0.69,-1.97 0.33,-4.28 -0.34,-6.21 -0.22,-0.64 -1.35,-0.53 -1.23,0.2 0.11,0.72 0.23,1.41 0.33,2.09l-0.23 -0.08c-0.3,-0.14 -0.56,-0.41 -0.76,-0.68 -0.51,-0.67 -1.52,-0.07 -1.12,0.69 0.44,0.83 1.32,1.47 2.25,1.5 0.03,0.7 -0.01,1.41 -0.15,2.17 -0.16,0.83 0.98,1.09 1.26,0.31z"/>
  <path class="fil0" d="M49.27 114.52c-0.31,-0.57 -0.42,-1.3 -0.47,-1.94 -0.08,-0.85 -1.27,-0.81 -1.32,0.03 -0.09,1.52 0.72,4.07 2.52,4.21 -0.23,0.93 -0.62,1.82 -1.24,2.6 -0.5,0.64 0.37,1.5 0.93,0.88 2.21,-2.45 2.37,-6.21 1.53,-9.27 -0.22,-0.81 -1.34,-0.41 -1.21,0.36 0.21,1.3 0.34,2.67 0.23,4 -0.42,-0.16 -0.71,-0.41 -0.96,-0.87z"/>
  <path class="fil0" d="M39.94 113.99c0.09,-0.33 0.17,-0.66 0.21,-1.01 0.53,-0.27 1.06,-0.57 1.53,-0.91 0.57,-0.42 0.21,-1.43 -0.53,-1.18 -0.33,0.11 -0.64,0.29 -0.94,0.48 -0.03,-0.44 -0.11,-0.87 -0.25,-1.28 -0.23,-0.68 -1.38,-0.56 -1.3,0.21 0.14,1.2 0.04,2.35 0.03,3.55 -0,0.73 1.05,0.81 1.24,0.14z"/>
  <path class="fil0" d="M31.06 105.65c-0.01,0.46 -0.03,0.93 -0.09,1.39 -0.09,0.82 0.97,1.11 1.25,0.31 0.3,-0.87 0.31,-1.72 0.3,-2.63l0.01 -0.44c1.86,0.77 3.98,0.65 5.42,-0.95 0.48,-0.53 -0.21,-1.48 -0.82,-1.01 -0.5,0.38 -0.97,0.62 -1.44,0.75 0.02,-0.33 0.02,-0.66 -0.02,-0.98 -0.04,-0.3 -0.2,-0.55 -0.51,-0.63 -0.32,-0.08 -0.76,0.12 -0.81,0.49 -0.05,0.42 -0.05,0.84 -0.03,1.26 -0.51,-0.04 -1.03,-0.16 -1.59,-0.33 0.17,-0.58 0.45,-1.13 0.89,-1.71 0.51,-0.67 -0.32,-1.48 -0.95,-0.91 -1.25,1.13 -1.5,2.48 -1.57,3.92 -1.24,-0.51 -1.88,-1.73 -1.96,-3.17 -0.05,-0.81 -1.24,-0.78 -1.26,0.03 -0.03,2 1.1,4.31 3.18,4.62z"/>
  <path class="fil0" d="M58.89 107.42c0.58,0.29 0.41,0.98 0.19,1.47 -0.34,0.75 0.66,1.29 1.11,0.61 0.69,-1.01 0.47,-2.63 -0.7,-3.18 -0.73,-0.34 -1.33,0.73 -0.6,1.1z"/>
  <path class="fil0" d="M60.62 86.29c-2.55,-0.52 -3.43,-2.7 -5.8,-0.27 -1.47,1.51 -3.08,-1.99 -5.52,-1.31 -0.26,0.07 -0.49,0.33 -0.68,0.52l-0.04 -0.03c-0.29,-0.26 -0.59,-0.51 -0.91,-0.74 -0.74,-0.57 -1.86,-1 -2.75,-0.5 -1.15,0.65 -2.47,-0.51 -3.74,-0.41 -0.92,0.07 -1.99,2.16 -2.85,1.65 -1.21,-0.73 -2.96,-0.12 -4.34,-0.68 -0.58,-0.24 -1.26,-0.65 -1.89,-0.69 -1.26,-0.08 -2.19,0.49 -3.5,-0.48 -0.55,-0.4 -1.59,-0.64 -2.19,-0.16 -0.5,0.4 -0.71,0.6 -1.08,1.11 -0.53,0.73 -1.46,-0.2 -1.94,-0.41 -0.71,-0.31 -1.34,0.27 -1.83,0.71 0.38,-0.35 -1.44,-0.86 -1.69,-0.87 -0.32,-0 -0.7,0.14 -0.96,0.31 -0.6,0.37 -1.45,-0.18 -2.04,-0.39 -1.92,-0.67 -3.96,-0.4 -5.87,0.12 -0.93,0.25 -0.5,1.68 0.43,1.42 2.45,-0.67 4.43,-0.31 6.71,0.42 -0.25,0.28 -0.48,0.57 -0.69,0.87 -0.42,0.59 0.56,1.3 1.02,0.75 0.4,-0.48 0.82,-0.92 1.24,-1.38 0.32,-0 0.63,0.05 1.02,0.41 0.2,0.18 0.49,0.27 0.75,0.18 0.98,-0.34 1.13,-1.15 1.94,-0.38 0.3,0.28 0.65,0.41 1.02,0.45 -0.24,0.49 -0.45,1 -0.56,1.52 -0.17,0.7 0.89,1.16 1.2,0.47 0.41,-0.88 0.77,-1.77 1.25,-2.62l0.09 -0.3 0.3 -0.52c0.42,-0.7 2.27,0.33 2.89,0.47 -0.27,0.32 -0.5,0.69 -0.64,1.1 -0.24,0.72 0.84,1.09 1.2,0.47 0.45,-0.77 1.01,-1.27 1.92,-1.37l0.38 -0.17c0.86,0.27 1.85,0.77 2.49,0.98 0.79,0.26 1.78,0.43 2.73,0.52 -0.37,0.65 -0.56,1.37 -0.81,2.15 -0.38,1.19 -1.75,1.4 -2.27,2.53 -0.34,0.74 0.7,1.34 1.12,0.62 0.54,-0.92 1.65,-1.14 2.2,-2.1 0.65,-1.12 0.54,-2.34 1.55,-3.26 0.85,-0.49 1.86,-2.21 2.62,-1.54 0.72,0.64 1.9,0.95 2.78,0.43 1.5,-0.88 2.19,0.67 3.22,1.28 0.19,0.49 0.35,0.98 0.48,1.52 0.16,0.63 1.17,0.62 1.3,-0.03 0.11,-0.59 0.03,-1.23 -0.19,-1.83 0.83,-1.42 3,1.28 3.77,1.47l0.01 0c0.56,1.11 1.06,2.19 1.11,3.46 0.03,0.74 1.2,0.91 1.32,0.15 0.24,-1.42 -0.21,-2.72 -0.93,-3.89l0.26 -0.09c0.88,-0.27 1.02,-2.4 2.48,-0.94 0.75,0.75 1.53,0.55 2.55,0.74 0.93,0.17 1.29,-1.24 0.35,-1.43z"/>
  <path class="fil0" d="M95.35 62.05c0.5,-0.23 0.91,-0.51 1.46,-0.64 0.61,-0.14 1.3,-0.12 1.92,-0.08 0.75,0.05 0.85,-1.12 0.14,-1.29 -1.34,-0.32 -3.65,-0.22 -4.43,1.15 -0.35,0.62 0.36,1.11 0.91,0.86z"/>
  <path class="fil0" d="M116.87 65.03c1.02,0.06 2.06,0.1 3.09,0.01 0.85,-0.07 0.8,-1.23 -0.03,-1.3 -1.03,-0.09 -2.07,-0.04 -3.09,0.02 -0.83,0.05 -0.78,1.23 0.03,1.28z"/>
  <path class="fil0" d="M109.45 56.99c1.11,-0.13 2.25,-0.12 3.33,0.2 0.71,0.21 1.16,-0.91 0.48,-1.21 -1.32,-0.58 -2.61,-0.52 -4,-0.25 -0.71,0.14 -0.51,1.34 0.2,1.26z"/>
  <path class="fil0" d="M117.31 59.25c0.75,0.1 1.41,0.28 2.11,0.56 0.76,0.3 1.37,-0.7 0.63,-1.14 -0.78,-0.46 -1.68,-0.79 -2.6,-0.7 -0.68,0.07 -0.91,1.18 -0.14,1.28z"/>
  <path class="fil0" d="M103.86 74.04c-0.75,-0.04 -1.53,-0.05 -2.24,0.23 -0.79,0.31 -0.45,1.46 0.39,1.27 0.61,-0.14 1.25,-0.16 1.88,-0.19 0.85,-0.04 0.8,-1.27 -0.03,-1.3z"/>
  <path class="fil0" d="M118.69 76.11c-1.23,-0.05 -2.51,0 -3.67,0.45 -0.75,0.29 -0.41,1.48 0.37,1.21 1.08,-0.37 2.21,-0.32 3.34,-0.37 0.83,-0.04 0.79,-1.25 -0.03,-1.29z"/>
  <path class="fil0" d="M124.76 75.8c-0.62,0.49 -0.05,1.52 0.67,1.08 0.78,-0.48 1.7,-0.64 2.6,-0.53 0.81,0.1 1.15,-1.08 0.31,-1.26 -1.22,-0.27 -2.58,-0.08 -3.58,0.71z"/>
  <path class="fil0" d="M114.07 69.8c-1.48,-0.77 -3.06,-0.29 -4.27,0.74 -0.55,0.47 0.2,1.38 0.79,0.98 0.99,-0.68 1.86,-0.98 3.02,-0.54 0.69,0.26 1.09,-0.85 0.46,-1.18z"/>
  <path class="fil0" d="M108.39 77.55c-0.7,-0.03 -1.37,0.21 -2.02,0.45 -0.76,0.28 -0.42,1.45 0.36,1.21 0.56,-0.17 1.11,-0.32 1.69,-0.37 0.83,-0.08 0.8,-1.25 -0.03,-1.29z"/>
  <path class="fil0" d="M98.7 67.05c-0.98,-0.05 -1.93,0.28 -2.79,0.71 -0.74,0.37 -0.06,1.44 0.68,1.09 0.69,-0.33 1.39,-0.46 2.15,-0.52 0.83,-0.07 0.79,-1.24 -0.03,-1.28z"/>
  <path class="fil0" d="M105.92 65.81c-0.68,-0.04 -1.37,0.02 -2.02,0.24 -0.77,0.26 -0.42,1.43 0.36,1.21 0.55,-0.16 1.12,-0.14 1.69,-0.17 0.83,-0.05 0.78,-1.23 -0.03,-1.28z"/>
  <path class="fil0" d="M107.56 62.94c0.77,-0.13 1.53,-0.29 2.31,-0.37 0.84,-0.09 0.81,-1.25 -0.04,-1.3 -0.9,-0.06 -1.79,0.17 -2.64,0.45 -0.8,0.27 -0.42,1.35 0.37,1.22z"/>
  <path class="fil0" d="M123.81 69.94c-1.27,-0.3 -2.81,-0.53 -4.07,-0.02 -0.8,0.33 -0.46,1.57 0.4,1.31 1.16,-0.35 2.34,-0.12 3.52,-0.01 0.74,0.07 0.84,-1.12 0.14,-1.28z"/>
  <path class="fil0" d="M125.11 65.03c0.37,0.03 0.71,0.09 1.06,0.19 0.28,0.08 0.59,-0.07 0.73,-0.32 0.18,-0.33 0.04,-0.7 -0.26,-0.89 -0.47,-0.3 -1.02,-0.32 -1.57,-0.28 -0.85,0.06 -0.79,1.23 0.03,1.29z"/>
  <path class="fil0" d="M65.56 70.18c0.82,-0.11 1.65,-0.12 2.48,-0.19 0.86,-0.07 0.81,-1.25 -0.04,-1.32 -0.89,-0.08 -1.79,-0.04 -2.64,0.25 -0.66,0.22 -0.54,1.35 0.2,1.26z"/>
  <path class="fil0" d="M74.63 72.03c0.75,0.01 1.51,0.03 2.27,0 0.83,-0.03 0.78,-1.25 -0.03,-1.28 -0.76,-0.03 -1.51,-0.01 -2.27,0 -0.83,0.02 -0.79,1.27 0.03,1.28z"/>
  <path class="fil0" d="M79.95 64.39c0.83,-0.14 1.68,-0.09 2.51,-0.16 0.86,-0.08 0.8,-1.24 -0.03,-1.31 -0.95,-0.09 -1.92,-0.03 -2.85,0.25 -0.81,0.24 -0.42,1.37 0.37,1.23z"/>
  <path class="fil0" d="M73.36 66.86c0.53,-0.15 0.99,-0.11 1.51,0.01 0.34,0.08 0.69,-0.13 0.78,-0.47 0.09,-0.37 -0.14,-0.65 -0.47,-0.78 -0.7,-0.27 -1.49,-0.22 -2.2,0.01 -0.79,0.26 -0.43,1.47 0.37,1.23z"/>
  <path class="fil0" d="M80.25 75.38c-0.68,0.47 -0.04,1.52 0.68,1.1 0.47,-0.28 1.02,-0.4 1.56,-0.32 0.83,0.11 1.13,-1.01 0.31,-1.27 -0.94,-0.3 -1.77,-0.06 -2.56,0.5z"/>
  <path class="fil0" d="M63.19 76.58c-1.39,-0.56 -2.83,-0.44 -4.17,0.23 -0.69,0.34 -0.16,1.38 0.54,1.19 1.07,-0.29 2.05,-0.41 3.15,-0.19 0.71,0.14 1.21,-0.94 0.48,-1.23z"/>
  <path class="fil0" d="M68.66 76.82c0.75,0.02 1.54,-0.19 2.23,-0.48 0.76,-0.32 0.45,-1.45 -0.38,-1.25 -0.63,0.15 -1.24,0.31 -1.89,0.35 -0.89,0.06 -0.86,1.35 0.04,1.38z"/>
  <path class="fil0" d="M51.76 71.41c1.49,0.16 3.04,-0.05 4.54,0.02 0.74,0.03 0.86,-1.14 0.14,-1.29 -1.5,-0.3 -3.2,-0.2 -4.71,0 -0.82,0.11 -0.77,1.18 0.03,1.26z"/>
  <path class="fil0" d="M59.71 68.03c0.41,-0.2 0.87,-0.29 1.32,-0.32 0.83,-0.06 0.79,-1.26 -0.03,-1.28 -0.69,-0.02 -1.36,0.2 -1.97,0.5 -0.32,0.15 -0.38,0.62 -0.21,0.89 0.2,0.33 0.58,0.36 0.9,0.21z"/>
  <path class="fil0" d="M43.72 78.21c1.26,-0.1 2.44,-0.32 3.71,-0.19 0.73,0.07 0.85,-1.14 0.14,-1.27 -1.3,-0.25 -2.79,-0.17 -4.05,0.23 -0.67,0.21 -0.53,1.3 0.2,1.24z"/>
  <path class="fil0" d="M51.66 82.02c0.28,-0.13 0.62,-0.11 0.92,-0.11 0.82,0 0.78,-1.27 -0.03,-1.26 -0.55,0 -1.05,0.07 -1.55,0.3 -0.31,0.14 -0.36,0.6 -0.2,0.86 0.19,0.32 0.55,0.34 0.86,0.21z"/>
  <path class="fil0" d="M53.61 75.95c0.84,-0.08 0.78,-1.21 -0.03,-1.28 -0.42,-0.04 -0.77,0.12 -1.06,0.4 -0.26,0.24 -0.22,0.67 0.02,0.9 0.27,0.26 0.63,0.2 0.9,-0.02l0.04 0 0.13 -0.01z"/>
  <path class="fil0" d="M40.4 73.47c1.25,-0.49 2.5,-1.05 3.82,-0.48 0.76,0.32 1.36,-0.7 0.63,-1.14 -1.59,-0.94 -3.48,-0.48 -4.99,0.41 -0.63,0.38 -0.17,1.48 0.54,1.2z"/>
  <path class="fil0" d="M26.94 78.12c1.18,-0.67 2.55,-0.75 3.83,-0.32 0.7,0.24 1.15,-0.91 0.48,-1.21 -1.69,-0.75 -3.45,-0.61 -4.98,0.44 -0.68,0.47 -0.05,1.5 0.67,1.09z"/>
  <path class="fil0" d="M35.45 81.29c0.79,-0.33 1.5,-0.46 2.33,-0.2 0.73,0.23 1.09,-0.84 0.47,-1.21 -1.04,-0.62 -2.34,-0.32 -3.34,0.22 -0.65,0.35 -0.16,1.47 0.53,1.19z"/>
  <path class="fil0" d="M12.78 80.45c0.78,-0.21 1.5,-0.56 2.27,-0.82 0.81,-0.26 0.43,-1.4 -0.37,-1.24 -0.81,0.16 -1.52,0.51 -2.27,0.83 -0.74,0.32 -0.45,1.45 0.37,1.23z"/>
  <path class="fil0" d="M20.65 80.28c0.48,0.02 0.97,0.08 1.44,0.02 0.3,-0.04 0.55,-0.2 0.63,-0.5 0.08,-0.32 -0.12,-0.76 -0.48,-0.81 -0.54,-0.07 -1.08,-0.03 -1.62,0 -0.84,0.04 -0.79,1.25 0.03,1.29z"/>
  <path class="fil0" d="M16.7 74.07c0.67,-0.26 1.32,-0.08 1.96,0.18 0.78,0.32 1.42,-0.74 0.65,-1.18 -1.04,-0.58 -2.06,-0.7 -3.14,-0.16 -0.65,0.33 -0.15,1.43 0.53,1.16z"/>
  <path class="fil0" d="M32.19 73.49c1.18,-0.17 2.32,-0.46 3.5,-0.6 0.87,-0.1 0.84,-1.29 -0.03,-1.35 -1.21,-0.09 -2.52,0.35 -3.68,0.66 -0.7,0.19 -0.53,1.39 0.2,1.29z"/>
  <path class="fil0" d="M12.37 73.84c-0.81,-0.06 -1.66,-0.04 -2.44,0.21 -0.82,0.26 -0.44,1.52 0.38,1.28 0.68,-0.2 1.39,-0.15 2.09,-0.2 0.84,-0.06 0.78,-1.23 -0.03,-1.28z"/>
  <path class="fil0" d="M10.16 69.69c-0.74,-0.56 -1.62,-0.65 -2.53,-0.58 -0.84,0.06 -0.78,1.23 0.03,1.28 0.6,0.04 1.19,0.07 1.73,0.34 0.63,0.31 1.37,-0.57 0.76,-1.04z"/>
  <path class="fil0" d="M24.32 73.87c0.45,-0.13 1.04,-0.29 1.51,-0.19 0.85,0.18 1.1,-0.99 0.32,-1.28 -0.36,-0.13 -0.73,-0.17 -1.11,-0.13 -0.4,0.05 -0.72,0.21 -1.09,0.35 -0.77,0.3 -0.44,1.47 0.37,1.24z"/>
  <path class="fil0" d="M82.02 69.99c0.68,-0.22 1.38,-0.36 2.08,-0.42 0.84,-0.08 0.8,-1.25 -0.03,-1.3 -0.84,-0.05 -1.66,0.14 -2.45,0.4 -0.84,0.28 -0.45,1.58 0.4,1.31z"/>
  <path class="fil0" d="M103.34 95.85c0.76,-0.37 1.21,-1.14 1.36,-1.95 0.15,-0.82 -0.98,-1.08 -1.24,-0.31 -0.16,0.46 -0.38,0.89 -0.81,1.14 -0.31,0.18 -0.4,0.6 -0.21,0.9 0.2,0.33 0.58,0.37 0.9,0.21z"/>
  <path class="fil0" d="M115.35 92.68c0.31,0.08 0.75,-0.12 0.79,-0.48l0.06 -0.63 0.05 -0.43c0.15,-0.34 0.08,-0.74 -0.27,-0.93 -0.31,-0.17 -0.77,-0.07 -0.93,0.27 -0.23,0.5 -0.27,1.04 -0.21,1.58 0.03,0.29 0.19,0.54 0.5,0.62z"/>
  <path class="fil0" d="M59.74 95.12c-0.09,-0.81 -1.21,-0.78 -1.26,0.03 -0.06,0.92 0.35,1.89 0.86,2.64 0.47,0.7 1.47,0.06 1.1,-0.68 -0.33,-0.65 -0.6,-1.26 -0.69,-1.99z"/>
  <path class="fil0" d="M41.5 90.81c-0.25,0.74 -0.38,1.54 -0.48,2.31 -0.11,0.82 1.05,1.15 1.27,0.32 0.22,-0.82 0.4,-1.65 0.46,-2.49 0.05,-0.76 -1.03,-0.77 -1.25,-0.14z"/>
  <path class="fil0" d="M51.39 93.31c0.21,0.66 -0.01,1.34 -0.17,1.98 -0.19,0.71 0.86,1.13 1.2,0.47 0.47,-0.91 0.65,-2.05 0.13,-2.97 -0.36,-0.63 -1.38,-0.17 -1.16,0.52z"/>
  <path class="fil0" d="M86.22 45.28c-7.75,-0.93 -12.38,-5.67 -17.03,-11.49 -3.82,-4.77 -7.83,-9.61 -13.89,-11.44 -0.82,-0.25 -1.07,0.97 -0.31,1.25 12.56,4.76 16.26,22.89 31.09,23.04 0.76,0.01 0.93,-1.27 0.15,-1.36z"/>
  <path class="fil0" d="M9.19 71.21c-1.77,0.82 -5.19,4.02 0,3.99 -0.07,-1.52 2.45,-3.4 0,-3.99z"/>
 </g>
</svg>
