<?xml version="1.0" encoding="UTF-8"?>
<svg xmlns="http://www.w3.org/2000/svg" xml:space="preserve" width="0.747335in" height="0.747343in" version="1.1" style="shape-rendering:geometricPrecision; text-rendering:geometricPrecision; image-rendering:optimizeQuality; fill-rule:evenodd; clip-rule:evenodd"
viewBox="0 0 193.12 193.12"
 xmlns:xlink="http://www.w3.org/1999/xlink"
 xmlns:xodm="http://www.corel.com/coreldraw/odm/2003">
 <defs>
  <style type="text/css">
   <![CDATA[
    .fil0 {fill:black;fill-rule:nonzero}
   ]]>
  </style>
 </defs>
 <g id="Layer_x0020_1">
  <metadata id="CorelCorpID_0Corel-Layer"/>
  <path class="fil0" d="M30.35 144.52l0.69 0.51 0.16 0 0.51 -0.23 0.18 -0.53c-0.06,-0.75 -0.35,-1.5 -0.85,-2.21 -0.44,-0.63 -1.04,-1 -1.74,-1.06 -0.58,-0.05 -1.12,0.08 -1.59,0.42 -0.6,0.42 -0.95,1.03 -1.01,1.75l0 0.09 0.04 0.53 0.06 0.48 0.19 1.31 0.06 0.55 -0.01 0.33 -0.31 0.47 -0.55 0.13 -0.55 -0.34c-0.06,-0.08 -0.27,-0.47 -0.58,-2.08 -0.07,-0.33 -0.34,-0.56 -0.67,-0.57l-0.15 -0 -0.51 0.2 -0.21 0.49c-0.01,0.48 0.07,0.98 0.22,1.49 0.15,0.52 0.37,0.98 0.64,1.36 0.41,0.58 0.99,0.93 1.68,1l0.25 0.01c0.49,0 0.94,-0.14 1.34,-0.42 0.53,-0.37 1.13,-1.1 0.97,-2.46 -0.07,-0.47 -0.13,-0.88 -0.19,-1.22l-0.14 -0.85c-0.08,-0.6 0.12,-0.83 0.33,-0.98l0.55 -0.15c0.15,0.02 0.37,0.08 0.61,0.41 0.09,0.13 0.29,0.5 0.6,1.56z"/>
  <polygon class="fil0" points="36.12,148.73 36.02,148.62 35.53,148.37 35.03,148.54 29.64,153.18 29.57,154.17 29.67,154.3 30.14,154.54 30.2,154.54 30.66,154.37 36.04,149.72 "/>
  <path class="fil0" d="M41.94 154.7c-0.58,-0.56 -1.23,-0.85 -1.97,-0.85l-0 0c-0.7,0.02 -1.35,0.34 -1.92,0.94l-2.18 2.3c-0.57,0.61 -0.86,1.26 -0.84,1.97 0.01,0.7 0.33,1.35 0.94,1.92l0.86 0.81 0.48 0.19 0.02 0 0.49 -0.21 0.1 -0.11 -0.03 -0.99 -0.86 -0.82 -0.46 -0.83 0.42 -0.85 2.17 -2.29 0.86 -0.46 0.84 0.41 0.85 0.82 0.99 -0.03 0.11 -0.11 0.19 -0.5 -0.22 -0.49 -0.86 -0.81z"/>
  <path class="fil0" d="M55.69 165.77c-0.36,-0.67 -0.9,-1.24 -1.64,-1.7 -0.65,-0.41 -1.35,-0.51 -2.02,-0.3 -0.55,0.18 -0.99,0.52 -1.3,1.01 -0.39,0.62 -0.48,1.32 -0.25,2.01l0.03 0.09 0.24 0.47 0.24 0.43 0.69 1.13 0.27 0.5 0.12 0.3 -0.1 0.55 -0.46 0.34 -0.63 -0.09c-0.08,-0.05 -0.43,-0.33 -1.35,-1.69l-0.84 -0.26 -0.14 0.06 -0.38 0.37 -0 0.54c0.18,0.44 0.44,0.87 0.78,1.28 0.34,0.42 0.72,0.76 1.12,1.01 0.39,0.24 0.81,0.37 1.24,0.37l0.69 -0.11c0.57,-0.18 1.01,-0.51 1.31,-0.99 0.34,-0.55 0.62,-1.45 -0.06,-2.65 -0.25,-0.4 -0.46,-0.75 -0.65,-1.05l-0.46 -0.74c-0.31,-0.51 -0.21,-0.81 -0.08,-1.03l0.45 -0.35 0.72 0.14c0.14,0.09 0.46,0.36 1.16,1.22l0.83 0.19 0.14 -0.06 0.37 -0.41 -0.04 -0.56z"/>
  <path class="fil0" d="M63.07 169.79c0.17,-0.35 0.03,-0.77 -0.32,-0.94l-2.9 -1.43 -0.54 -0.04 -0.4 0.36 -3.21 6.51c-0.17,0.35 -0.03,0.77 0.32,0.94l2.9 1.43 0.31 0.07 0.23 -0.04 0.41 -0.35 0.06 -0.14c0.17,-0.34 0.03,-0.77 -0.32,-0.93l-2.13 -1.05 1.05 -2.15 1.43 0.71 0.54 0.03 0.41 -0.35 0.07 -0.14c0.17,-0.34 0.03,-0.76 -0.32,-0.94l-1.43 -0.71 0.71 -1.43 2.13 1.06 0.54 0.03 0.4 -0.36 0.07 -0.14z"/>
  <path class="fil0" d="M70.95 172.25l-0.16 -0.06 -0.68 0.11 -2.55 2.04 -0.59 -3.21 -0.45 -0.53 -0.16 -0.06c-0.36,-0.13 -0.77,0.05 -0.9,0.41l-2.49 6.67c-0.14,0.36 0.05,0.77 0.41,0.9l0.15 0.05 0.54 -0.02 0.36 -0.4 1.5 -4.02 0.35 1.89 0.45 0.53 0.68 -0.11 1.5 -1.2 -1.5 4.02c-0.13,0.36 0.05,0.76 0.41,0.9l0.15 0.05 0.25 0.05 0.29 -0.07 0.36 -0.39 2.49 -6.67c0.14,-0.36 -0.05,-0.77 -0.41,-0.9z"/>
  <path class="fil0" d="M76.76 176.7c-0.15,0.61 -0.43,0.77 -0.63,0.84 -0.25,0.09 -0.56,0.09 -0.93,-0.01l-1.06 -0.28 0.6 -2.31 1.07 0.28c0.36,0.09 0.63,0.24 0.8,0.45 0.14,0.16 0.3,0.44 0.14,1.03zm-0.55 -2.99l-1.89 -0.5c-0.38,-0.09 -0.76,0.13 -0.85,0.51l-1.82 6.96 0.08 0.54 0.42 0.32 0.15 0.04 0.18 0.02 0.68 -0.52 0.6 -2.3 1.07 0.28c0.66,0.17 1.27,0.16 1.83,-0.03 0.57,-0.19 1.31,-0.69 1.63,-1.92 0.32,-1.22 -0.09,-2 -0.48,-2.45 -0.38,-0.45 -0.92,-0.76 -1.59,-0.94z"/>
  <path class="fil0" d="M85.72 175.61l-3.2 -0.5 -0.52 0.13 -0.28 0.45 -1.12 7.18c-0.06,0.39 0.2,0.75 0.59,0.8l3.2 0.5 0.11 0.01c0.34,0 0.64,-0.25 0.7,-0.6l0.02 -0.15 -0.13 -0.52 -0.46 -0.28 -2.35 -0.37 0.37 -2.36 1.58 0.25 0.52 -0.13 0.28 -0.46 0.02 -0.16c0.06,-0.38 -0.2,-0.74 -0.58,-0.8l-1.58 -0.24 0.25 -1.58 2.35 0.37c0.39,0.05 0.74,-0.2 0.8,-0.59l0.02 -0.16 -0.12 -0.52 -0.46 -0.28z"/>
  <path class="fil0" d="M92.73 179.97l-0.77 0.17 -1.24 -0.06 0.13 -2.39 1.09 0.06c0.37,0.02 0.67,0.11 0.88,0.28 0.16,0.13 0.38,0.37 0.35,0.99 -0.03,0.63 -0.27,0.85 -0.45,0.95zm2.01 -0.86c0.07,-1.25 -0.48,-1.94 -0.95,-2.31 -0.47,-0.36 -1.05,-0.56 -1.75,-0.6l-1.95 -0.11 -0.51 0.17 -0.23 0.49 -0.39 7.18c-0.02,0.39 0.28,0.72 0.66,0.74l0.15 0.01 0.51 -0.18 0.23 -0.49 0.13 -2.37 1.09 0.06 0.04 0 1.2 2.79 0.64 0.43 0.25 -0.05 0.14 -0.05 0.39 -0.38 0 -0.55 -1.05 -2.48c0.85,-0.39 1.33,-1.2 1.4,-2.3z"/>
  <path class="fil0" d="M110.09 175.22l-3.91 0.56c-0.38,0.06 -0.65,0.41 -0.6,0.79l0.03 0.15 0.27 0.46 0.52 0.14 1.18 -0.18 0.91 6.27 0.27 0.46 0.42 0.14 0.1 -0.01 0.16 -0.02c0.38,-0.06 0.65,-0.41 0.59,-0.79l-0.91 -6.27 1.18 -0.17 0.46 -0.27 0.13 -0.53 -0.03 -0.15c-0.05,-0.39 -0.41,-0.65 -0.79,-0.59z"/>
  <path class="fil0" d="M118.89 173.48l-0.15 -0.05 -0.54 0.01 -0.37 0.39 -1.12 2.99 -2.4 -2.11 -0.51 -0.17 -0.48 0.24 -0.11 0.12 0.07 0.98 3.07 2.7 0.8 3.21 0.68 0.53 0.18 -0.02 0.15 -0.04 0.43 -0.32 0.08 -0.54 -0.8 -3.21 1.44 -3.82c0.13,-0.36 -0.05,-0.76 -0.4,-0.9z"/>
  <path class="fil0" d="M125.66 174.85c-0.16,0.22 -0.42,0.39 -0.77,0.52l-1.03 0.37 -0.81 -2.24 1.03 -0.37c0.35,-0.13 0.65,-0.15 0.91,-0.09 0.21,0.05 0.5,0.19 0.71,0.77 0.21,0.59 0.08,0.88 -0.04,1.05zm1.13 1.1c0.62,-0.7 0.76,-1.63 0.38,-2.67 -0.42,-1.17 -1.2,-1.61 -1.78,-1.75 -0.57,-0.15 -1.2,-0.11 -1.84,0.13l-1.84 0.66 -0.39 0.37 -0.03 0.53 2.44 6.77 0.66 0.47 0.23 -0.04 0.15 -0.06 0.4 -0.36 0.03 -0.54 -0.81 -2.24 1.03 -0.37 0.03 -0.01 2.19 2.1 0.97 0 0.11 -0.11 0.21 -0.51 -0.21 -0.51 -1.93 -1.86z"/>
  <path class="fil0" d="M132.68 173.42l-0.25 -1.98 1.39 1.43 -1.14 0.55zm-0.74 -4.73l-0.81 -0.14 -0.15 0.07 -0.39 0.72 0.94 7.41 0.27 0.47 0.42 0.14 0.11 -0.01 0.15 -0.02c0.37,-0.06 0.63,-0.41 0.58,-0.78l-0.19 -1.5 2.07 -1 1.05 1.08 0.97 0.04 0.11 -0.1 0.23 -0.5 -0.19 -0.51 -5.2 -5.37z"/>
  <path class="fil0" d="M140.83 163.92l-0.44 -0.32 -0.53 0.09 -0.14 0.08c-0.33,0.21 -0.43,0.64 -0.23,0.97l2.14 3.5 -4.42 -2.51 -0.71 0.01 -0.15 0.09c-0.33,0.2 -0.43,0.63 -0.23,0.96l3.71 6.07 0.6 0.34 0.37 -0.1 0.13 -0.09 0.31 -0.43 -0.08 -0.53 -2.14 -3.5 4.42 2.51 0.71 -0.01 0.14 -0.09 0.32 -0.43 -0.08 -0.54 -3.71 -6.07z"/>
  <polygon class="fil0" points="147.36,159.13 146.38,159 146.25,159.09 145.98,159.55 146.11,160.07 148.59,163.34 143.94,161.29 143.24,161.37 143.1,161.48 142.83,161.94 142.97,162.46 147.26,168.13 147.73,168.4 147.82,168.41 148.25,168.26 148.37,168.17 148.5,167.19 146.02,163.92 150.68,165.97 151.38,165.88 151.52,165.78 151.66,164.8 "/>
  <polygon class="fil0" points="151.93,155.06 151.44,154.83 150.94,155.02 150.83,155.13 150.79,156.12 155.63,161.33 156.15,161.56 156.62,161.37 156.74,161.26 156.96,160.77 156.78,160.27 "/>
  <path class="fil0" d="M158.16 148.17c-0.72,0.24 -1.37,0.69 -1.94,1.34 -0.51,0.58 -0.73,1.25 -0.63,1.94 0.09,0.58 0.35,1.06 0.79,1.45 0.55,0.48 1.21,0.69 1.93,0.57l0.09 -0.02 0.51 -0.16 0.46 -0.17 1.23 -0.5 0.53 -0.19 0.37 -0.07 0.47 0.19 0.26 0.51 -0.2 0.61c-0.07,0.07 -0.39,0.37 -1.89,1.05 -0.3,0.14 -0.46,0.47 -0.39,0.79l0.03 0.15 0.31 0.44 0.38 0.11 0.15 -0.02c0.46,-0.1 0.93,-0.29 1.4,-0.56 0.47,-0.28 0.86,-0.59 1.17,-0.94 0.47,-0.54 0.67,-1.18 0.57,-1.87 -0.09,-0.59 -0.34,-1.07 -0.77,-1.45 -0.69,-0.62 -1.56,-0.76 -2.62,-0.37 -0.44,0.18 -0.82,0.33 -1.15,0.47l-0.8 0.33c-0.43,0.17 -0.74,0.16 -1.03,-0.09l-0.27 -0.5 0.26 -0.69c0.1,-0.12 0.42,-0.4 1.38,-0.95l0.33 -0.79 -0.04 -0.15 -0.34 -0.43 -0.55 -0.04z"/>
  <g id="_2805167348016">
   <path class="fil0" d="M178.18 106.55c-1,-0.7 -2.32,-1.07 -3.83,-1.02 -3.63,0.1 -6.16,2.84 -7.88,5.84l-0.62 -0.42c-2.19,-1.13 -4.11,-0.86 -6.35,0.04 -3.33,1.33 -6.49,3.83 -9.19,6.65l-0.51 -0.15c-11.46,-0.75 -23.09,-0.39 -34.61,-0.3 0,-2.34 0.03,-4.68 -0.08,-7.01 8.61,-0.05 17.22,-0.23 25.82,-0.23 0.39,0 0.64,-0.2 0.78,-0.45l0.31 -0.19c1.18,-1.08 1.85,-2.67 2.87,-3.9 1.94,-2.35 3.04,-0.1 4.78,0.63 3.25,1.36 6.49,-3.34 8.69,-4.87 0.85,-0.59 0.27,-2.23 -0.79,-1.76 -2.31,1.02 -3.91,3.12 -6.24,4.06 -0.96,0.39 -3.3,-1.73 -4.6,-1.82 -0.66,-0.05 -1.33,0.18 -1.98,0.59 0.16,-1.95 0.21,-3.91 0.21,-5.87 0.54,-0.06 1.09,-0.11 1.63,-0.19 0.99,-0.15 1.41,-1.75 0.22,-1.94 -0.62,-0.09 -1.24,-0.15 -1.87,-0.22 -0.02,-1.67 -0.06,-3.33 -0.06,-4.98 -0,-1.6 0.02,-3.2 0.04,-4.81 2.2,0.1 3.84,0.35 5.47,2.1 1.53,1.64 1.73,3.92 2.28,5.98 0.26,0.98 1.67,0.88 1.93,-0.05 0.41,-1.49 0.23,-3.09 -0.37,-4.59 2.29,-0.81 4.83,-0.44 6.17,1.93l0.76 0.44c0.01,0.4 0.03,0.81 0.06,1.22 -1.55,1.67 -2.2,4.31 -1.73,6.46 0.19,0.86 1.54,0.99 1.91,0.2 0.92,-1.93 0.34,-4.52 2.67,-5.55 2.47,-1.09 4.84,0.64 6.38,2.42 0.65,0.75 2.05,-0.1 1.67,-1.02 -0.48,-1.18 -1.22,-2.09 -2.11,-2.77 0.96,-1.4 1.76,-2.67 3.34,-3.66 2.06,-1.3 4.17,-0.83 5.59,1.11 0.61,0.83 2.25,0.28 1.77,-0.8 -0.7,-1.56 -1.74,-2.61 -3.03,-3.11 0.34,-1.28 0.98,-2.26 2.39,-2.85 1.56,-0.65 3.17,-0.27 4.31,0.93 0.75,0.79 2.01,-0.28 1.45,-1.18 -0.68,-1.1 -1.7,-1.75 -2.83,-2.02 0.57,-2.58 2.69,-3.48 5.19,-3.55 1.24,5.47 1.99,11.11 2.22,16.9 -1.49,-0.12 -3.1,0.58 -4.2,1.68 -2.53,-2.07 -7.27,-2.09 -9.01,1.22 -0.49,0.93 0.77,1.89 1.49,1.09 2.42,-2.66 6.64,-1.18 6.95,2.3 0.1,1.13 1.61,1.29 1.96,0.22 0.36,-1.12 0.31,-2.13 -0.02,-2.99 0.88,-0.65 1.87,-1.3 2.89,-1.3 0.01,0.52 0.02,1.04 0.02,1.57 0,2.57 -0.11,5.11 -0.31,7.62 -3.33,-2.77 -10.1,-1.76 -12,2.37zm5.36 25.44c-2.49,-3.44 -7.44,-1.4 -10.75,1.59 -1.63,1.47 -1.21,2.44 -3.33,1.55 -1.56,-0.65 -2.98,-0.9 -4.67,-0.87 -3.05,0.07 -5.3,2.19 -6.07,4.99 -0.3,1.1 1.28,1.69 1.83,0.72 1.82,-3.24 5.7,-4.08 8.7,-1.82 0.69,0.52 1.44,0.79 2.29,0.52 1.38,-0.41 2.34,-2.2 3.22,-3.21 2.57,-2.92 5.31,-3.43 7.48,-0.47 -14.72,32.67 -47.59,55.47 -85.69,55.47 -39.66,0 -73.65,-24.7 -87.41,-59.53 2.33,-0.18 4.3,-0.15 6.56,1.09 2.4,1.33 4.01,3.78 5.6,5.93 0.63,0.85 2.21,0.31 1.79,-0.81 -0.41,-1.11 -1.01,-2.2 -1.75,-3.22 2.2,-0.09 4.63,-1.18 5.53,1.75 0.5,1.63 1.3,3.26 3.28,2.8 0.97,-0.22 0.79,-1.56 -0.04,-1.82l-0.49 -0.55c6.92,0.03 13.83,0.21 20.73,-0.3 1.32,-0.09 1.24,-1.93 -0.05,-2.02 -7.15,-0.52 -14.31,-0.31 -21.48,-0.29l-0.03 0c-0.46,-0.78 -1.16,-1.37 -1.91,-1.88 -1.83,-1.22 -5.4,-0.75 -7.1,0.48 -3.04,-3.04 -7.4,-4.82 -11.43,-3.22 -0.39,-1.05 -0.75,-2.12 -1.1,-3.18 2.67,0.19 5.36,0.08 8.04,0.06 3.81,-0.03 7.77,0.29 11.52,-0.35 1,-0.17 0.91,-1.8 -0.05,-1.97 -3.31,-0.57 -6.77,-0.31 -10.12,-0.33 -1.81,-0.01 -3.64,-0.08 -5.46,-0.09 2.67,-2.79 4.51,-7.3 3.87,-10.86 0.4,0.22 0.8,0.44 1.17,0.68 -0.19,2.84 -0.5,5.3 -1.92,7.9 -0.52,0.94 0.81,1.96 1.53,1.12 1.42,-1.66 2.64,-4.23 2.79,-6.66 0.67,1.11 0.95,2.45 0.69,4.16 -0.19,1.22 1.53,1.68 1.87,0.47 1.43,-5.02 -1.94,-8 -6.12,-10.07 -4.79,-2.38 -10.85,-3.47 -12.35,-9.18 -0.05,-1.04 -0.08,-2.07 -0.08,-3.11 5.27,2.19 12.13,0.45 17.52,0.27 4.73,-0.15 9.26,0.1 13.8,1.54 3.04,0.97 6.6,4.41 9.92,3.46 2.26,-0.65 3.23,-0.58 4.72,1.7 1.06,1.6 1.72,3.54 2.48,5.3 1.28,2.93 2.59,5.84 4.27,8.57 1.09,1.78 2.53,3.38 4.19,4.66 -1.19,0.01 -2.37,0.01 -3.56,0.02 -3.65,-4.14 -6.22,-8.23 -8.13,-13.59 -0.35,-0.99 -1.77,-0.75 -1.8,0.29 -0.12,4.87 2.88,9.78 6.53,13.34 -1.62,0.01 -3.24,0.04 -4.86,0.08l-0.09 -0.11c-2.63,-2.41 -4.3,-5.8 -5.05,-9.26 -0.29,-1.35 -2.28,-0.71 -2.03,0.62 0.29,1.56 0.77,3.23 1.47,4.78 -2.33,-1.62 -4.73,-3.18 -7.2,-4.15 -4,-1.56 -8.25,2.04 -10.99,4.44 -0.76,0.65 0.32,1.99 1.12,1.37 4.26,-3.38 7.46,-5.04 12.1,-1.61 1.88,1.39 3.71,2.9 5.73,4.04 -3.39,0.1 -6.78,0.23 -10.15,0.39 -1.41,0.08 -1.33,2.1 0.05,2.17 6.18,0.32 12.37,0.49 18.57,0.57 -0.04,0.87 -0.07,1.75 0.02,2.61 0.13,1.24 1.77,1.16 1.9,-0.05 0.09,-0.83 0.06,-1.69 0.03,-2.54 0.94,0.01 1.89,0.02 2.84,0.02 0.03,0.44 0.11,0.88 0.17,1.24 0.07,0.44 0.28,0.81 0.74,0.93 0.48,0.12 1.11,-0.18 1.19,-0.71 0.07,-0.43 0.17,-0.94 0.2,-1.45 4.7,0.03 9.4,0 14.1,-0.04 0.2,1.63 0.01,3.41 0.01,4.99 0,1.68 -0.07,3.38 -0,5.06 -2.29,0.02 -4.53,1.41 -4.9,3.73 -2.95,0.07 -5.63,2.24 -6,5.25 -3.93,0.05 -7.86,0.14 -11.78,0.26 -1.1,-1.08 -2.21,-2.17 -3.91,-2.12 -2.24,0.07 -3.76,1.12 -5.35,2.64 -0.87,0.84 0.3,2.18 1.3,1.6 2.45,-1.42 4.31,-1.67 6.57,0.66 0.89,0.91 1.83,1.53 2.97,2.11 2.19,1.14 4.3,2.3 5.67,4.29 -2.55,0.05 -5.1,0.16 -7.6,0.43 -1.28,0.14 -1.18,1.82 0.05,1.95 7.43,0.8 15.14,0.31 22.6,0.3 7.56,-0.02 15.13,-0.06 22.69,-0.31 1.25,-0.04 1.19,-1.89 -0.05,-1.93 -7.57,-0.24 -15.13,-0.29 -22.7,-0.31 -3.97,-0.01 -8,-0.15 -12.03,-0.16 -0.55,-3.24 -4.13,-5.39 -6.97,-6.89 3.17,0.07 6.33,0.13 9.49,0.16l0.08 0c14.03,0.14 28.07,-0.07 42.08,0.18 17.35,0.31 34.94,0.41 52.26,-0.54 1.29,-0.07 1.21,-1.91 -0.05,-1.98 -0.76,-0.04 -1.51,-0.07 -2.27,-0.1 0.33,-2.36 -0.46,-4.66 -2.59,-6.04 -1.7,-1.09 -3.8,-1.01 -5.53,-0.13 -0.72,-1.43 -1.96,-2.51 -3.67,-3.05 -0.5,-0.16 -1.03,-0.23 -1.56,-0.25 0.05,-3.32 0.09,-6.64 -0.03,-9.95 12.63,0.04 25.25,-0.06 37.84,-0.58 1.23,-0.06 1.17,-1.86 -0.05,-1.91 -9.97,-0.42 -19.96,-0.56 -29.95,-0.58 2.99,-3.05 5.85,-6.04 9.47,-8.49 2.92,-1.97 5.78,-1.75 7.73,1.28 0.71,1.09 1.62,1.68 2.89,1.83 0.86,0.1 1.87,-1.03 0.94,-1.72 -0.87,-0.64 -1.43,-1.64 -2,-2.62 1.42,-1.79 2.34,-4.01 4.62,-4.97 2.56,-1.08 5.15,-0.08 5.49,2.8 0.11,1.02 1.78,1.39 1.93,0.21 0.15,-1.2 0.01,-2.25 -0.39,-3.12 1.44,-1.73 2.95,-2.94 5.38,-3.24 2.32,-0.29 4.06,0.77 4.67,2.76 -1.02,8.41 -3.16,16.47 -6.26,24.05zm-178.01 -12.24c2.9,-1.32 5.86,-5.79 5.63,-9.26 0.48,0.18 0.97,0.37 1.44,0.57 -0.29,4.27 -1.12,9.37 -4.79,12.08 -0.43,0.02 -0.87,0.06 -1.3,0.11 -0.34,-1.16 -0.67,-2.33 -0.97,-3.5zm-1.42 -6.54l0.16 -0.05c1.61,-0.88 2.73,-2.46 2.96,-4.22 0.46,0.2 0.92,0.39 1.4,0.57 -0.21,2.99 -1.33,5.98 -3.65,7.92 -0.32,-1.39 -0.61,-2.8 -0.87,-4.23zm-0.94 -6.57c0.6,0.49 1.27,0.92 1.99,1.31 -0.27,1.11 -0.75,2.04 -1.45,2.92 -0.22,-1.4 -0.39,-2.81 -0.55,-4.23zm133.84 -9.92c1.84,0.02 3.67,-0.02 5.48,-0.13 0,2.12 0.05,4.24 0.25,6.34 0.04,0.34 0.19,0.58 0.38,0.73 -0.37,0.42 -0.71,0.86 -1.03,1.33 -1.62,-2.8 -3.31,-5.56 -5.09,-8.26zm-2.06 0.45c1.89,3.32 3.93,6.57 6.04,9.75 -0.17,0.37 -0.32,0.73 -0.42,1.05 -4,0 -7.99,-0.04 -11.99,-0.1 2.26,-3.32 4.52,-7.07 6.37,-10.71zm-24.05 7.72c0.17,-2.79 0.25,-5.61 0.27,-8.45 1.75,-0.01 3.5,-0.03 5.25,-0.04 -1.15,1.56 -2.11,3.33 -3.13,4.88 -0.79,1.2 -1.6,2.4 -2.38,3.61zm0.63 2.85l-0.05 0c1.16,-1.64 2.25,-3.33 3.37,-4.99 1.17,-1.74 2.62,-3.53 3.69,-5.43 2.01,3.57 4.14,7.07 6.35,10.52 -4.45,-0.05 -8.9,-0.1 -13.35,-0.1zm-8.31 18.4c1.16,-0.01 2.32,-0.01 3.48,-0.01 1.84,0 3.68,0.01 5.53,0.02 -0.24,2.81 -0.17,5.73 -0.06,8.56 -0.96,0.28 -1.89,0.79 -2.45,1.58 -1.13,-0.28 -2.44,0.02 -3.35,0.8 -0.88,-0.91 -2,-1.49 -3.18,-1.58 0.16,-3.05 0.36,-6.32 0.04,-9.37zm-25.36 -15.7c-0.24,2.29 -0.1,4.63 -0,6.93 -2.9,0.06 -5.8,0.14 -8.7,0.25 -1.3,0.05 -1.24,1.96 0.05,2.01 4.26,0.16 8.52,0.26 12.78,0.32 -0.04,0.83 -0.08,1.66 -0.09,2.5l-0.03 0.72c-5.1,-0.06 -10.2,-0.11 -15.3,-0.13 -2.44,-0.47 -4.52,-1.4 -6.38,-3.59 -1.7,-2 -3,-4.26 -4.15,-6.6 1.28,0.16 2.57,0.4 3.8,0.06 1.8,-0.49 2.81,-1.8 4.25,-2.87l0.06 -0.08c4.55,0.3 9.12,0.43 13.7,0.48zm3.03 -16.01c-1.55,2.18 -3.01,4.41 -4.3,6.67 -0.36,-2.67 -0.49,-5.37 -0.32,-8.14 0.06,-1.06 0.22,-2.61 0.55,-4.25 1.3,1.93 2.67,3.84 4.07,5.72zm0.32 -3.41c-1.22,-1.63 -2.46,-3.23 -3.74,-4.79 0.76,-2.41 1.97,-4.58 3.86,-5.21 -0.15,3.32 -0.14,6.66 -0.12,10zm-0.06 16.46c-1.08,0.01 -2.15,0.02 -3.22,0.03 -0.3,-1.1 -0.57,-2.2 -0.8,-3.31 1.37,-1.52 2.69,-3.15 3.96,-4.87 -0.1,2.73 -0.2,5.48 0.06,8.14zm13.63 2.89c0.06,2.18 0.2,4.35 0.23,6.52l0.04 0.22 0 0.1c-2.06,0 -4.11,0.01 -6.17,0.02l0.02 -0.09c0,-1.17 -0.08,-2.33 -0.13,-3.5 -0.05,-1.19 -1.76,-1.12 -1.82,0.04 -0.05,1.18 -0.12,2.34 -0.12,3.51l0.01 0.05c-2.35,0.02 -4.71,0.04 -7.06,0.09 0.1,-2.27 0.24,-4.6 -0,-6.87 4.99,0.04 10,-0.02 14.99,-0.09zm-7.43 -24.35c-1.3,1.6 -2.62,3.27 -3.93,4.98 0.02,-3.34 0.06,-6.69 -0.08,-10.02 1.88,0.55 3.16,2.77 4.01,5.04zm0.9 -3c-0.48,-0.8 -1.04,-1.53 -1.68,-2.17 1.45,0.02 2.9,-0 4.36,-0.11 0.89,0.58 1.62,1.38 2.22,2.31 -1.62,-0.14 -3.36,-0.28 -4.9,-0.02zm-4.13 12c1.42,-2.14 2.76,-4.31 4.04,-6.44 0.19,0.71 0.34,1.35 0.46,1.86 0.86,3.79 0.91,7.76 0.49,11.67 -1.66,-2.36 -3.31,-4.74 -4.99,-7.09zm-0.64 2.85c1.76,2.3 3.54,4.58 5.28,6.87 -0.15,0.93 -0.33,1.86 -0.51,2.77 -1.58,-0.01 -3.16,-0.02 -4.74,-0.02 0.28,-3.16 0.09,-6.43 -0.03,-9.61zm9.7 -9.42c-0.94,-0.01 -1.92,-0.09 -2.87,0 -0.08,-0.33 -0.15,-0.66 -0.24,-0.98 -0.2,-0.75 -0.45,-1.53 -0.75,-2.28 0.55,0 1.1,-0.03 1.64,-0.05 1.07,-0.04 2.14,-0.07 3.21,-0.13 0.46,1.11 0.8,2.3 1.06,3.48 -0.68,-0.03 -1.37,-0.05 -2.05,-0.05zm-2.01 5.44c-0.1,-1.12 -0.24,-2.23 -0.43,-3.35 0.68,0.03 1.37,-0.01 2.04,-0.01 0.94,-0.01 1.88,-0.03 2.83,-0.08 0.14,0.84 0.24,1.64 0.33,2.38 0.04,0.37 0.07,0.75 0.1,1.12 -1.59,-0.1 -3.28,-0.27 -4.86,-0.07zm4.91 4.95c-1.55,-0.16 -3.2,-0.27 -4.78,-0.11 0.03,-0.94 0.03,-1.88 0,-2.82 1.58,0.19 3.26,0.01 4.84,-0.08 0.03,1 0.02,2.01 -0.06,3.01zm-1.35 6.75c-0.22,0.68 -0.47,1.33 -0.75,1.98 -1.27,-0.02 -2.54,-0.03 -3.82,-0.05 0.14,-0.62 0.26,-1.25 0.38,-1.88 1.35,0.17 2.82,0.06 4.18,-0.05zm-3.85 -2.07c0.12,-0.89 0.22,-1.79 0.29,-2.69 1.54,0.17 3.18,0.08 4.69,-0.08 -0.14,0.98 -0.34,1.95 -0.58,2.9 -1.41,-0.11 -2.95,-0.26 -4.41,-0.13zm7.59 16.51l0.02 0.3c0,0.61 0.01,1.22 0.01,1.83 0,0.37 -0.03,0.78 -0.03,1.18 -4.83,-0.04 -9.67,-0.1 -14.52,-0.15l-0.03 -0.79c-0.01,-0.81 -0.05,-1.61 -0.09,-2.42 1.88,0.02 3.77,0.04 5.66,0.04l0 0.21 0.06 0.86c-0.04,0.36 0.22,0.66 0.54,0.82l0.11 0.05 0.32 0.06 0.33 -0.08 0.09 -0.05c0.31,-0.17 0.54,-0.49 0.5,-0.85l0.06 -0.86 -0 -0.16c2.32,0.01 4.64,0.01 6.96,0zm0.33 -62.75c4.29,0.43 8.95,-0.08 13.12,-0.12 5.33,-0.06 11.74,-0.24 16.63,-0.26 1.79,3.22 4.68,6.16 6.9,9.04 2,2.58 3.9,5.41 6.06,7.92 -10.44,-0.08 -20.92,-0.59 -31.36,0.05 -3.6,-5.55 -7.2,-11.42 -11.35,-16.62zm3.85 39.07c1.82,0.06 3.64,0.09 5.47,0.1 0.01,2.92 0.1,5.83 0.28,8.69 -1.84,-2.97 -3.76,-5.91 -5.75,-8.79zm5.01 16.17c0.1,1.24 1.8,1.16 1.9,-0.05 0.06,-0.75 0.03,-1.5 -0,-2.24l0.97 -0.01c0.9,0 1.81,-0.01 2.71,-0.01 -0.1,2.33 -0.08,4.68 -0.08,7.01 -0.88,0.01 -1.76,0.01 -2.64,0.01 -2.16,0 -4.32,-0 -6.48,-0.01l0.04 -0.67 0 -0.84 -0.06 -0.56c0.57,-0.76 0.41,-1.92 -0.63,-2.18 -1.04,-0.26 -2.15,1.01 -1.44,1.97 0.28,0.36 0.11,1.22 0.11,1.67l0.02 0.62c-1.67,0 -3.35,-0.01 -5.02,-0.01l0.01 -0.14 0.04 -0.22c0.04,-2.16 0.16,-4.33 0.23,-6.51 3.46,-0.05 6.9,-0.09 10.34,-0.11 -0.04,0.75 -0.06,1.52 -0,2.28zm24.52 10.76c0.02,-0.33 0.04,-0.65 0.04,-0.97 0.01,-0.64 0.07,-1.37 0.03,-2.09 0.92,0 1.83,0.01 2.75,0 0.03,0.39 0.09,0.77 0.15,1.06 0.1,0.45 0.59,0.7 1.02,0.65l0.08 -0.01 0.09 -0.01 0.07 -0.04 0.27 -0.14 0 -0.01 0.21 -0.26 0.02 -0.04 0.08 -0.19c0.06,-0.29 0.12,-0.66 0.14,-1.04 3.75,-0.05 7.48,-0.16 11.21,-0.37 -0.96,1.13 -1.83,2.29 -2.62,3.41 -4.51,0 -9.02,0.01 -13.53,0.05zm-4.5 2.96c-0.15,1.89 0.02,3.84 0.09,5.71 0.04,1.2 1.81,1.14 1.85,-0.05 0.06,-1.84 0.22,-3.77 0.07,-5.64 3.24,0.02 6.48,0.04 9.72,0.05 -0.13,3.39 -0.09,6.79 -0.03,10.18 -1.17,0.32 -2.26,0.94 -3.02,1.83 -0.64,0.75 0.28,2.06 1.13,1.39 3.19,-2.45 6.9,-1.08 7.82,2.79 0.25,1.05 1.93,0.77 1.86,-0.29l-0.11 -0.84c1.16,-0.62 2.49,-0.66 3.72,-0.03 1.63,0.85 1.98,2.63 1.84,4.31 -5.39,-0.23 -10.8,-0.37 -16.21,-0.43 0.04,-0.6 -0.11,-1.2 -0.51,-1.74 -0.66,-0.89 -1.74,-1.37 -2.85,-1.29 -0.98,0.08 -1.27,1.67 -0.2,1.81 0.79,0.11 1.5,0.48 1.56,1.2 -7.2,-0.06 -14.41,-0.02 -21.6,0.04 0.07,-1.05 0.94,-1.76 1.9,-2.43 0.99,-0.7 0.09,-2.1 -0.98,-1.59 -1.6,0.77 -3.13,2.32 -3.07,4.04 -1.21,0.01 -2.42,0.02 -3.62,0.03 0.17,-0.58 0.18,-1.21 -0.02,-1.8 -0.33,-0.98 -1.96,-0.8 -1.86,0.3 0.05,0.51 -0.08,1.05 -0.32,1.52l-0.27 0c-2.85,0.02 -5.69,0.04 -8.54,0.04 -0.15,-1.09 -0.84,-2.1 -1.95,-2.53 -0.97,-0.37 -1.52,1.02 -0.9,1.65l0.57 0.88c-5.74,0.01 -11.48,0.01 -17.22,0.02 0.16,-0.41 0.38,-0.81 0.7,-1.2 0.82,-1.02 1.98,-1.52 3.28,-1.46 1.03,0.05 1.21,-1.61 0.2,-1.8 -2.74,-0.5 -5.72,1.75 -6.33,4.47 -3.53,0.01 -7.05,0.04 -10.57,0.08 0.21,-0.81 0.54,-1.56 1.21,-2.24 1.35,-1.41 3.31,-1 4.95,-0.51 1.03,0.31 1.6,-1.23 0.68,-1.73 -0.36,-0.2 -0.73,-0.34 -1.11,-0.46 0.22,-0.72 0.59,-1.28 1.36,-1.73 1.05,-0.6 2.41,-0.38 3.45,0.09 1.08,0.49 1.9,-0.97 0.89,-1.61l-0.75 -0.38c0.16,-3.36 -0.57,-7.13 0,-10.45 3.08,-0.03 6.16,-0.06 9.24,-0.1 0.35,1.31 0.13,2.92 0.14,4.23 0.01,1.71 0.03,3.41 0.09,5.12 0.04,1.19 1.79,1.13 1.82,-0.04 0.05,-1.47 0.08,-2.94 0.09,-4.41 0.01,-1.52 -0.25,-3.41 0.15,-4.92 3.02,-0.03 6.04,-0.07 9.06,-0.09 -0.11,1.97 -0.15,4 0,5.96 0.1,1.25 1.82,1.17 1.92,-0.05 0.15,-1.96 0.12,-3.97 0.01,-5.93 1.38,-0.01 2.76,-0.02 4.15,-0.03 -0.32,3.16 -0.11,6.54 0.05,9.7 -0.57,0.24 -1.13,0.61 -1.65,1.15 -0.83,0.85 0.43,1.95 1.29,1.23 2.45,-2.03 4.27,0.37 5.34,2.51 0.5,1.01 1.94,0.22 1.71,-0.76 -0.11,-0.44 -0.26,-0.85 -0.44,-1.25 0.78,-0.69 2.04,-0.37 2.66,0.49 0.63,0.89 2.05,0.31 1.75,-0.79 -0.12,-0.45 -0.32,-0.82 -0.57,-1.13 0.54,-0.52 1.49,-0.8 2.09,-0.98 0.38,-0.1 0.7,-0.41 0.72,-0.92 0.11,-3.03 0.22,-6.2 -0.04,-9.23 0.83,0 1.66,0 2.49,0.01 -0.17,1.82 -0.19,3.76 -0.03,5.55 0.11,1.28 1.87,1.2 1.98,-0.05 0.15,-1.76 0.15,-3.7 -0.03,-5.49 3.07,0.02 6.14,0.04 9.2,0.05zm2.34 -2.95c-1.13,0.01 -2.27,0.02 -3.41,0.02l-0.24 -0.8c-0.4,-0.64 -1.28,-0.57 -1.67,0.04l-0.2 0.78c-0.88,0.01 -1.75,0.01 -2.63,0.01 0.04,-1.06 0.02,-2.13 -0.04,-3.2 2.72,0.04 5.44,0.07 8.16,0.08 -0.02,0.49 -0,1 -0.01,1.49 -0.01,0.53 0,1.05 0.03,1.58zm-13.06 -2.05c-0,-0.38 -0.01,-0.77 -0.01,-1.15 0.99,0 1.97,0.02 2.96,0.03 -0.06,1.08 -0.08,2.15 -0.04,3.24 -3.85,0.02 -7.7,0.04 -11.54,0.04 -2.57,0 -5.14,-0.01 -7.71,-0.03 0,-0.33 -0.02,-0.66 -0.02,-0.96 0,-0.61 0.01,-1.21 0.01,-1.82l0.05 -0.55c2.73,-0 5.47,-0.01 8.2,-0.01 2,0 3.99,0.02 6,0.04 -0.01,0.4 -0,0.82 -0.01,1.23 -0.01,1.35 2.11,1.31 2.1,-0.05zm8.75 -15.91c-1.77,-3.02 -3.6,-6 -5.5,-8.94 1.35,-0 2.69,-0.01 4.04,0.01 0.51,0 1.02,0.02 1.54,0.03 -0.19,2.94 -0.16,5.94 -0.07,8.9zm0.88 -11.3l-0.72 0.01c-1.03,0.01 -2.06,0 -3.09,0 0.92,-4.78 0.18,-10.27 -0.1,-15.05 -0.08,-1.27 -1.88,-1.19 -1.95,0.05 -0.28,4.77 -1,10.22 -0.1,14.99 -1.21,-0.01 -2.43,-0.02 -3.64,-0.03 0.24,-1.95 0.05,-3.95 0,-5.9 -0.08,-2.93 0.2,-6.01 -0.19,-8.9 -0.13,-0.91 -1.62,-1.27 -1.76,-0.19 -0.35,2.64 -0.1,5.36 -0.18,8.02 -0.07,2.29 -0.31,4.67 -0.03,6.96 -1.23,-0.01 -2.46,-0.01 -3.69,-0.01 -0.05,-6.1 -0.34,-12.22 -0.57,-18.16 10.7,0.63 21.45,0.06 32.15,0.02 -0.35,4.4 -0.17,8.89 -0.17,13.29 -0,1.57 -0.04,3.15 -0.06,4.73 -1.03,-0.06 -2.07,-0.09 -3.12,-0.11 0.28,-5.02 0.28,-10.25 -0.08,-15.25 -0.08,-1.19 -1.74,-1.12 -1.83,0.04 -0.35,4.98 -0.35,10.2 -0.08,15.21 -1.03,0.01 -2.07,0.04 -3.1,0.07 0.15,-1.69 -0.03,-3.48 -0.03,-5.11 0,-3.25 -0.03,-6.53 -0.15,-9.77 -0.05,-1.26 -1.89,-1.19 -1.94,0.05 -0.1,2.85 0,5.71 -0.11,8.56 -0.08,1.99 -0.28,4.28 -0.05,6.35 -1.04,0.03 -2.08,0.07 -3.11,0.09 0.75,-4.83 -0.23,-10.12 -0.13,-14.95 0.03,-1.32 -2.09,-1.28 -2.06,0.05 0.11,4.83 -0.87,10.11 -0.11,14.94zm1.07 2.45c1.68,0.06 3.38,0.13 5.09,0.18 -1.79,2.66 -3.48,5.5 -5.01,8.36 0.08,-2.85 0.1,-5.72 -0.08,-8.54zm-124.34 -11.53c3.43,1.11 7.29,-0.45 9.42,-3.54 0.62,-0.9 -0.81,-1.91 -1.52,-1.12 -2.02,2.26 -4.83,3.28 -7.59,2.45 0.96,-6.46 2.58,-12.72 4.79,-18.69 1.26,0.85 2.04,2.26 2.6,3.73 0.43,1.16 2.01,0.63 1.8,-0.55 -0.36,-2.11 -1.75,-4.15 -3.68,-5.08 2.98,-7.54 6.92,-14.6 11.65,-21.04 2.28,0.51 4.09,2.26 3.62,4.83 -0.18,1.02 1.35,1.77 1.79,0.71 1.45,-3.48 -0.84,-6.61 -4.02,-7.39 1.98,-2.57 4.09,-5.03 6.32,-7.38 3.25,1.26 2.31,6.03 -0.05,8.09 -0.84,0.73 0.29,2.01 1.2,1.47 0.84,-0.51 1.54,-1.31 2.06,-2.26 2.56,1.22 3.28,4.36 1.63,6.64 -0.81,0 -1.64,0.1 -2.43,0.29 -1.07,0.25 -0.8,2.11 0.31,1.94 0.68,-0.11 1.37,-0.14 2.05,-0.1l0.45 0.04c1.33,0.17 2.57,0.71 3.47,1.85 1.55,1.94 1.12,4.6 0.19,6.7 -0.5,1.11 0.99,1.95 1.65,0.91 0.29,-0.46 0.54,-0.93 0.74,-1.41 3.23,0.68 5.44,2.85 5.6,6.29 -0.32,0.46 -0.15,1.16 0.5,1.36l0.46 0.1c3.66,0.51 4.18,4.63 1.03,6.45 -0.89,0.51 -0.23,2.02 0.75,1.65 0.33,-0.13 0.64,-0.28 0.93,-0.45 0.18,1.63 -0.78,3.09 -2.16,3.92l-0.16 -0.53c-0.35,-0.97 -2.05,-0.82 -1.88,0.3 0.05,0.37 0.07,0.71 0.04,1.05 -0.27,0.24 -0.31,0.66 -0.18,1.01 -1.22,4.01 -7.85,5.26 -9.12,0.28 -0.26,-1.02 -1.87,-0.75 -1.81,0.29 0.2,3.36 2.47,4.99 5.07,5.29 -0.75,2.4 -2.75,4.5 -5.33,4.82 -1.23,0.15 -1.21,1.86 0.04,1.92 3.65,0.19 7.32,-3.07 7.35,-6.78 3.04,-0.42 5.94,-2.45 6.2,-5.55 1.12,-0.33 2.08,-0.92 2.93,-1.94 1.21,-1.44 1.5,-3.35 0.78,-5.09l-0.2 -0.31c0.93,-1.1 1.41,-2.54 1.12,-4.12 -0.41,-2.18 -2.08,-3.76 -4.15,-4.08 0.46,-4.03 -3.21,-7.79 -7.2,-8 0.28,-1.82 -0.07,-3.68 -1.2,-5.32 -0.9,-1.3 -2.14,-2.08 -3.51,-2.48 1.85,-3.07 0.28,-7.57 -3.23,-8.76 0.83,-2.89 0.29,-6.25 -2.14,-7.33 17,-16.91 40.42,-27.39 66.23,-27.39 10.03,0 19.7,1.59 28.78,4.51 -0.35,0.36 -0.67,0.73 -0.98,1.04 -1.2,1.23 -2.31,2.55 -3.53,3.76 -0.72,0.72 0.29,2 1.13,1.39 1.29,-0.94 2.38,-2.03 3.48,-3.16 0.54,-0.55 1.08,-1.09 1.64,-1.62l0.7 -0.58c3.63,1.28 7.16,2.79 10.58,4.49l-0.63 0.87c-0.45,0.53 -0.96,0.99 -1.55,1.36 -0.88,0.55 -0.24,2.13 0.77,1.7 1.28,-0.55 2.67,-1.62 3.26,-2.98 3.36,1.77 6.59,3.74 9.69,5.88 -1.47,0.67 -2.77,1.85 -3.28,3.24 -2.66,-0.93 -5.49,-0.41 -7.39,2.44 -0.59,0.88 0.77,1.82 1.47,1.07 2.74,-2.93 5.63,-1.63 8.52,0.34 0.91,0.62 1.85,-0.78 1.11,-1.5 -0.57,-0.56 -1.2,-1.04 -1.84,-1.45 0.44,-0.56 0.84,-1.12 1.39,-1.61 0.61,-0.54 1.34,-0.87 2.12,-1.04 2.2,1.61 4.32,3.31 6.36,5.1 -2.09,0.49 -3.82,2.14 -4.61,4.28 -0.39,1.06 1.15,1.45 1.7,0.67 1.32,-1.87 2.8,-3 5.07,-2.99 6.26,5.83 11.72,12.5 16.21,19.83 -0.51,-0.05 -1.03,-0.05 -1.54,0.02 -1.38,0.16 -2.52,0.75 -3.4,1.63 -1.64,-1.89 -4.48,-2.1 -6.89,-1.11 -3.08,1.26 -5,4.43 -4.67,7.67l-0.77 0.05c-3.14,0.38 -5.16,3.34 -6.11,6.13 -0.58,-0 -1.19,0.07 -1.78,0.2 -2.74,0.62 -4.39,2.52 -4.77,5.28 -0.17,1.27 1.76,1.78 1.96,0.48 0.25,-1.66 0.86,-2.88 2.49,-3.52 1.59,-0.62 3.54,-0.6 4.5,0.99 0.54,0.9 2.06,0.25 1.69,-0.76 -0.41,-1.16 -1.16,-1.87 -2.08,-2.26 1.02,-1.74 1.75,-3.56 3.83,-4.34 2.35,-0.88 5.46,0.43 6.79,2.39 0.68,1 2.13,0.08 1.58,-0.98 -1.04,-2.03 -3,-3.14 -5.14,-3.52 0.01,-2.42 0.7,-4.38 3.06,-5.65 1.65,-0.88 3.9,-0.8 5.11,0.65 -0.19,0.38 -0.35,0.78 -0.47,1.2 -0.32,1.15 1.37,1.51 1.76,0.44 0.13,-0.37 0.32,-0.71 0.54,-1.03l0.12 -0.15c1.35,-1.76 3.9,-2.38 5.77,-1.13 2.04,3.6 3.85,7.35 5.41,11.22 -1.39,-0.12 -2.9,0.25 -3.96,1.05l-0.16 -0.37c-1.01,-2.03 -3.62,-3.25 -5.79,-2.51 -0.86,0.29 -0.85,1.53 0.04,1.78 1.54,0.42 2.8,0.51 3.68,2.01 0.8,1.35 0.75,3.25 0.56,4.75 -0.15,1.23 1.52,1.71 1.89,0.48 0.36,-1.2 0.51,-2.42 0.41,-3.61 0.93,-1.05 2.85,-1.92 4.18,-1.37 1.21,3.23 2.24,6.55 3.09,9.93 -3.26,-0.07 -6.71,2.25 -6.71,5.59 -2.67,0.29 -5.28,2.22 -5.42,4.92 -0.58,0.03 -1.18,0.15 -1.82,0.35 -2.22,0.74 -4.91,2.94 -5.73,5.38 -1.26,-0.4 -2.66,-0.49 -4.08,-0.21l-0.58 0.15c0.08,-2.45 0.03,-4.92 0.04,-7.37 0,-0.7 0.02,-1.41 0.05,-2.12 2.04,-0.62 4.13,-1.9 5.19,-3.73 0.78,-1.36 1.09,-2.84 1.25,-4.35 2.36,0.31 4.94,-0.94 5.76,-3.28 0.35,-1 -1.02,-1.57 -1.68,-0.93 -0.95,0.93 -2.47,1.96 -3.93,2.11 0.06,-1.19 0.12,-2.38 0.31,-3.54 0.21,-1.22 -1.44,-1.62 -1.85,-0.46 -0.85,2.37 -0.7,4.93 -1.14,7.39 -0.39,2.22 -2.05,3.4 -3.84,4.4 0.05,-2.08 0.03,-4.16 -0.36,-6.13 -0.18,-0.92 -1.64,-0.83 -1.81,0.04 -0.36,1.86 -0.37,3.8 -0.32,5.74 -1.45,-0.16 -2.81,-0.62 -3.62,-1.94 -0.97,-1.57 -0.71,-3.88 -0.63,-5.63 0.04,-0.9 -1.41,-1.3 -1.77,-0.43 -0.38,0.92 -0.58,1.89 -0.65,2.84l-0.41 -0.08c-0.6,-0.15 -0.89,-0.59 -1.19,-1.09 -0.51,-0.84 -1.95,-0.47 -1.88,0.56 0.13,1.82 1.91,2.92 3.63,2.93 0.63,3.09 2.97,5.48 6.59,5.07 0.01,0.45 0.03,0.9 0.03,1.35 0.01,1.9 -0.02,3.8 -0.01,5.71 -1.87,-2.12 -5.38,-2.62 -7.9,-1.21 -1.88,-2.76 -5.14,-4.63 -8.27,-3.65 0,-2.28 -0.06,-4.56 -0.26,-6.81 0.19,-0.42 0.08,-0.98 -0.32,-1.26 -2,-3.27 -4.71,-6.23 -7.05,-9.25 -2.34,-3.02 -4.56,-6.74 -7.4,-9.35 -0.14,-0.32 -0.43,-0.57 -0.89,-0.57 -4.68,0 -11.05,-0.21 -16.28,-0.25 -5.2,-0.04 -11.1,-0.81 -16.25,0.22l-0.81 0.4 -0.04 0.06 -0.05 0.08c-3.15,5.84 -6.78,11.66 -9.35,17.8l-0.23 0.36c-0.21,0.54 -0.12,1.27 -0.13,1.84 -0.01,0.59 -0.02,1.13 0.1,1.71 0.19,0.92 1.63,0.84 1.82,-0.04 0.11,-0.52 0.1,-1.01 0.09,-1.53 -0.01,-0.41 0.03,-0.89 -0.01,-1.33 3.36,-5.1 6,-10.79 8.79,-16.24 3.51,6 7.99,11.7 12.1,17.26 -0.24,6.14 -0.55,12.47 -0.61,18.78 -2.47,0.02 -4.93,0.07 -7.39,0.19 -1.14,0.05 -1.27,1.41 -0.52,1.92 2.34,3.96 4.85,7.84 7.44,11.65 -3.61,-0.03 -7.23,-0.07 -10.86,-0.12l-0.57 -0.18c2.04,-5.04 2.43,-10.73 1.58,-16.08 -0.7,-4.36 -2.02,-10.02 -6.19,-12.39l-0.07 -0.04 -0.35 -0.09 -0.05 -0.02c-2.81,-0.24 -5.61,-0.1 -8.42,-0.04l-0.66 -0.09c-3.89,-0.31 -5.95,5.13 -6.85,7.95 -2.12,6.62 -1.54,14.31 0.69,20.89 -4.11,0.08 -8.21,0.22 -12.29,0.5 -0.53,0.04 -0.81,0.38 -0.87,0.77 -1.25,0.85 -2.28,2 -3.9,2.1 -1.33,0.08 -2.61,-0.38 -3.92,-0.46l-0.29 -0.67c-0.75,-1.7 -1.56,-3.92 -2.63,-5.94 4.87,0.46 9.92,0.01 14.73,-0.31 1.26,-0.09 1.18,-1.84 -0.05,-1.92 -5.3,-0.36 -10.87,-0.84 -16.19,-0.13 -1.45,-1.86 -3.33,-3.13 -5.92,-2.89 -1.41,0.14 -1.36,1.24 -2.98,0.6 -0.03,-0.54 -0.1,-1.07 -0.09,-1.5 0.04,-1.55 0.18,-3.14 0.02,-4.68 -0.11,-1.05 -1.82,-1.41 -1.98,-0.22 -0.23,1.67 -0.56,3.33 -0.65,5.01 -0.79,-0.42 -1.6,-0.82 -2.47,-1.16 0.43,-1.2 0.64,-2.53 0.85,-3.71 0.23,-1.25 -1.42,-1.59 -1.86,-0.47 -0.42,1.07 -0.88,2.25 -1.13,3.44 -1.93,-0.58 -3.86,-0.99 -5.83,-1.23 0.26,-1.03 0.94,-2.35 1.18,-3.22 0.39,-1.41 0.65,-2.87 0.91,-4.31 0.55,-3.08 0.78,-6.2 0.95,-9.31 0.07,-1.26 0.13,-2.51 0.19,-3.77 1.54,-0.2 2.9,-1.14 3.94,-2.44 2.61,1.73 6.41,0.46 8.23,-2.02 0.69,-0.94 -0.53,-2.22 -1.35,-1.29 -1.37,1.54 -3.9,2.66 -5.83,1.68 0.71,-1.39 1.1,-2.93 1.02,-4.28 -0.05,-1.02 -1.74,-1.31 -1.87,-0.2 -0.29,2.57 -1.68,5.21 -4.03,6.2 0.26,-5.33 0.54,-10.63 1.21,-15.97 0.14,-1.19 -1.54,-1.68 -1.86,-0.46 -1.65,6.37 -1.75,13.07 -2.25,19.6 -0.09,1.16 -0.19,2.32 -0.3,3.48 -0.89,0.21 -1.86,0.21 -2.43,-0.55 -0.72,-0.97 -2.25,-0.07 -1.62,0.99 0.85,1.43 2.36,1.83 3.84,1.62 -0.22,2 -0.48,3.99 -0.8,5.98 -0.4,2.44 -1.96,5.48 -2.25,8.01 -0.45,-0.02 -0.9,-0.04 -1.35,-0.04 -1.8,-0.03 -3.74,0.18 -5.72,0.44 1.46,-2.81 1.83,-6.29 1.74,-9.81 2.65,0.96 5.45,1.5 7.09,-1.55 0.53,-0.98 -0.81,-1.98 -1.57,-1.15 -1.6,1.75 -3.63,0.98 -5.63,0.42 -0.2,-2.68 -0.6,-5.29 -0.92,-7.57l-0.1 -0.73 -0.12 -0.93c-0.51,-4.03 -0.6,-8.1 -0.48,-12.15 1.12,0.33 2.27,0.42 3.37,0.26 0.32,1.51 1.34,2.8 2.9,3.29 1.03,0.32 1.57,-1.21 0.67,-1.72 -0.83,-0.47 -1.5,-1.19 -1.77,-2.1 1.55,-0.69 2.82,-1.96 3.42,-3.87 0.32,-1.04 -1.29,-1.67 -1.78,-0.7 -1.4,2.78 -4.07,3.4 -6.77,2.73 0.12,-3.58 0.42,-7.94 3.08,-10.33 0.87,-0.78 -0.32,-2.2 -1.27,-1.56 -5.29,3.56 -4.52,13.36 -4.63,18.87 -0.05,2.66 0.08,5.31 0.25,7.96 -2.08,0.14 -3.94,-0.33 -5.52,-2.13 -0.75,-0.86 -2.05,0.3 -1.5,1.22 1.51,2.53 4.4,3.47 7.17,3.11 0.19,2.63 0.39,5.26 0.48,7.91 0.15,4.49 -1.24,7.28 -2.54,11.14 -3.91,0.52 -7.83,0.8 -11.23,-0.38 0.05,-3.42 0.29,-6.79 0.7,-10.11zm93.21 -84.93c-48.4,0 -88.59,35.79 -95.5,82.29 -0.34,0.32 -0.48,0.83 -0.17,1.22 -0.58,4.26 -0.88,8.62 -0.88,13.04 0,53.24 43.32,96.56 96.56,96.56 53.24,0 96.56,-43.32 96.56,-96.56 0,-53.24 -43.32,-96.56 -96.56,-96.56z"/>
   <path class="fil0" d="M50.91 42.5l0.56 -0.2 0.19 -0.15c0.29,-0.24 0.39,-0.65 0.26,-1l-3.95 -10.16c-0.17,-0.44 -0.67,-0.67 -1.12,-0.51l-0.22 0.08 -0.5 0.46 -0.02 0.68 2.89 7.43 -6.76 -4.21 -0.67 -0.11 -0.55 0.4 -0.12 0.2c-0.25,0.41 -0.12,0.94 0.29,1.19l9.26 5.77 0.46 0.13z"/>
   <path class="fil0" d="M61.97 34.04l0.52 0.42 0.26 0.04 0.41 -0.1 0.2 -0.11c0.43,-0.23 0.59,-0.76 0.36,-1.19l-4.91 -9.16 -0.52 -0.42 -0.67 0.07 -0.2 0.11c-0.43,0.23 -0.59,0.76 -0.36,1.19l4.91 9.16z"/>
   <path class="fil0" d="M73.23 19.16c0.55,-0.16 1.03,-0.18 1.43,-0.05 0.32,0.1 0.79,0.35 1.06,1.28 0.28,0.94 0.03,1.4 -0.18,1.66 -0.27,0.32 -0.68,0.57 -1.24,0.74l-1.68 0.5 -1.08 -3.62 1.68 -0.5zm-0.88 10.06l0.42 0.52 0.42 0.11 0.25 -0.04 0.22 -0.07c0.46,-0.14 0.72,-0.62 0.59,-1.09l-1.04 -3.47 1.68 -0.5 0.14 -0.04 3.08 3.31c0.32,0.35 0.85,0.37 1.21,0.07l0.17 -0.15 0.3 -0.61 -0.23 -0.65 -2.77 -2.99c1.01,-0.94 1.31,-2.26 0.84,-3.81 -0.5,-1.69 -1.56,-2.34 -2.36,-2.6 -0.79,-0.26 -1.67,-0.24 -2.61,0.04l-2.74 0.82 -0.52 0.42 -0.07 0.66 3.01 10.06z"/>
   <path class="fil0" d="M87.32 25.54c0.7,0.58 1.52,0.88 2.44,0.88l0.41 -0.02 2.99 -0.27c0.48,-0.05 0.84,-0.47 0.8,-0.95l-0.54 -5.97 -0.31 -0.59 -0.64 -0.2 -1.84 0.16c-0.48,0.04 -0.84,0.47 -0.79,0.95l0.02 0.23 0.31 0.6 0.64 0.2 0.73 -0.07 0.34 3.78 -1.88 0.17c-0.55,0.05 -1.02,-0.08 -1.41,-0.41 -0.39,-0.33 -0.6,-0.75 -0.65,-1.31l-0.42 -4.59c-0.05,-0.58 0.1,-1.04 0.48,-1.44 0.34,-0.37 0.75,-0.57 1.24,-0.61l2.87 -0.26c0.48,-0.05 0.84,-0.47 0.8,-0.95l-0.02 -0.23 -0.31 -0.6 -0.63 -0.2 -2.87 0.26c-0.97,0.09 -1.82,0.5 -2.5,1.22 -0.78,0.81 -1.12,1.82 -1.02,2.99l0.41 4.59c0.1,1.09 0.56,1.98 1.36,2.65z"/>
   <path class="fil0" d="M104.16 26.41l0.23 0.02 0.1 0.01 0.55 -0.19 0.33 -0.59 1.12 -10.33c0.05,-0.48 -0.29,-0.91 -0.78,-0.97l-0.23 -0.02 -0.65 0.19 -0.32 0.58 -1.12 10.33c-0.05,0.48 0.3,0.91 0.78,0.97z"/>
   <path class="fil0" d="M115.23 28.44l0.21 0.07c0.46,0.14 0.96,-0.11 1.1,-0.57l2 -6.25 1.57 7.84 0.6 0.66 0.23 0.08 0.27 0.04c0.37,0 0.71,-0.24 0.84,-0.61l3.17 -9.89 -0.06 -0.67 -0.51 -0.43 -0.22 -0.07c-0.46,-0.14 -0.95,0.11 -1.1,0.57l-2 6.25 -1.57 -7.83 -0.59 -0.66 -0.23 -0.08 -0.67 0.05 -0.43 0.51 -3.17 9.89 0.05 0.67 0.51 0.43z"/>
   <path class="fil0" d="M130.91 34.92l0.2 0.11 0.43 0.11 0.24 -0.03 0.53 -0.42 5.08 -9.06c0.24,-0.42 0.09,-0.95 -0.34,-1.19l-0.2 -0.11 -0.67 -0.08 -0.52 0.42 -5.08 9.06c-0.24,0.43 -0.09,0.96 0.34,1.19z"/>
   <path class="fil0" d="M147.88 36.92l-1.35 3.29 -1.7 -1.47 3.06 -1.82zm-8.02 3.81c0.26,0.39 0.78,0.52 1.18,0.27l1.99 -1.18 2.71 2.33 -0.88 2.15c-0.18,0.43 0.02,0.93 0.45,1.13l0.2 0.09 0.37 0.08 0.02 -0c-0.64,4.87 -1.67,13.08 2.37,16.34 0.88,0.71 2.08,-0.22 1.53,-1.24 -1.45,-2.68 -1.73,-5.52 -1.78,-8.4 1.55,0.36 3.33,-0.35 4.48,-1.38 0.42,-0.37 0.79,-0.78 1.12,-1.22 1.4,0.81 3.02,0.85 4.36,-0.38 0.7,-0.65 -0.08,-1.91 -0.97,-1.59 -0.82,0.3 -1.6,0.37 -2.38,0.16 0.37,-0.88 0.6,-1.81 0.7,-2.77 0.11,-1.13 -1.6,-1.19 -1.9,-0.21 -0.45,1.45 -1.14,2.72 -2.18,3.82 -0.98,1.03 -2,1.18 -3.22,1.27 0,-1.68 0.01,-3.36 -0.18,-5.02 -0.05,-0.44 -0.39,-0.74 -0.78,-0.84l3.76 -9.17c0.14,-0.35 0.05,-0.75 -0.24,-0.99l-0.19 -0.16 -1.02 -0.09 -9.36 5.59 -0.4 0.56 0.12 0.68 0.12 0.19z"/>
  </g>
  <path class="fil0" d="M97.37 77.56c0.52,0.03 1.05,-0.28 0.99,-0.95 0.11,-1.38 0.01,-2.84 -0.08,-4.21 -0.07,-1.17 -1.72,-1.1 -1.79,0.04 -0.09,1.38 -0.19,2.84 -0.08,4.22 -0.05,0.65 0.45,0.94 0.95,0.9z"/>
  <path class="fil0" d="M58.65 56.61c3,1.74 10.72,6.79 14.21,3.57 2.41,-2.22 3.97,-5.41 6.09,-7.92 2.52,-2.99 5.71,-5.05 9.26,-6.63 7,-3.13 11.82,-8.56 16.73,-14.32 1.12,-1.31 -0.8,-3.16 -1.95,-1.86 -2.38,2.72 -4.74,5.44 -7.31,7.99 -3.26,3.2 -6.79,4.84 -10.81,6.81 -5.48,2.68 -9.25,7.52 -12.52,12.51 -2.16,3.31 -7.24,0.44 -9.9,-0.95 -3.16,-1.64 -5.23,-4.18 -7.67,-6.69 -4.35,-4.48 -6.75,-3.02 -11.47,0.36 -0.94,0.67 -0.04,2.18 0.95,1.54 3.34,-2.13 5.79,-3.46 8.95,-0.25 1.72,1.75 3.31,4.6 5.45,5.84z"/>
  <path class="fil0" d="M100.93 45.21c-0.73,0.77 0.31,2.16 1.2,1.48 1.17,-0.89 2.12,-1.98 3.14,-3.02 0.61,-0.62 1.25,-1.19 1.96,-1.68 0.7,-0.48 1.5,-0.69 2.21,-1.14 0.81,-0.51 0.44,-1.82 -0.54,-1.79 -3.23,0.1 -5.97,4.01 -7.97,6.15z"/>
  <path class="fil0" d="M71.28 98.73c0.88,-0.21 0.79,-1.54 -0.04,-1.73 -1.88,-0.44 -3.89,-0.25 -5.82,-0.26 -2.26,-0.03 -4.51,-0.09 -6.77,0.02 -0.72,-0.06 -1.06,0.49 -1.04,1.07 -0.04,0.6 0.33,1.23 1.09,1.16 2.02,0.1 4.04,0.05 6.06,0.04 2.15,-0.02 4.42,0.2 6.51,-0.28z"/>
  <path class="fil0" d="M46.13 89.67c-1,-0.45 -1.79,0.69 -1.1,1.5 1.2,1.41 3.06,1.45 4.55,0.68 0.01,0.58 0.02,1.16 0.03,1.74 -0.43,0.33 -0.9,0.62 -1.41,0.38 -0.9,-0.43 -1.89,0.75 -1.07,1.46 0.77,0.66 1.41,0.93 2.44,0.77l0.15 -0.04c0.03,0.58 0.06,1.16 0.1,1.74 0.09,1.27 1.86,1.19 1.95,-0.05 0.05,-0.75 0.1,-1.51 0.13,-2.27 0.88,0.38 1.88,0.5 2.72,0.34 0.98,-0.19 0.83,-1.65 -0.05,-1.87 -0.94,-0.23 -1.78,-0.54 -2.59,-0.99 0.01,-0.44 0.01,-0.88 0.02,-1.32 1.46,0.69 3.32,0.8 4.59,0.24 0.75,-0.33 1.04,-1.76 -0.05,-1.88 -1.65,-0.18 -3.35,-0.24 -4.53,-1.38 -0.01,-0.6 -0.02,-1.21 -0.03,-1.81 0.84,0.5 1.8,0.62 2.76,0.04 0.78,-0.48 0.46,-1.92 -0.54,-1.8 -1.13,0.14 -1.73,-0.62 -2.31,-1.45 -0.01,-0.41 -0.03,-0.83 -0.04,-1.24 0.4,0.16 0.83,0.27 1.3,0.28 1.13,0.02 1.13,-1.49 0.21,-1.83 -0.56,-0.21 -1.05,-0.37 -1.46,-0.83l-0.15 -0.23c-0.02,-0.43 -0.04,-0.85 -0.06,-1.28 -0.03,-0.65 -0.57,-0.9 -1.04,-0.81 -0.46,-0.06 -0.97,0.22 -1.03,0.86l0.02 0.85 -0.05 0.07 -0.15 0.31 -0.08 0.15 -0.21 0.24 -0.19 0.2c-0.39,0.3 -0.84,0.53 -1.26,0.81 -0.91,0.61 -0.28,1.98 0.78,1.73 0.43,-0.11 0.86,-0.27 1.26,-0.48l-0.03 0.64 -0.09 0.47c-0.15,0.58 -0.31,1.13 -0.85,1.51 -0.8,0.56 -1.85,0.47 -2.76,0.31 -1.21,-0.23 -1.56,1.39 -0.45,1.82 1.29,0.49 2.76,0.53 4.03,-0.01 -0.01,0.49 -0.02,0.97 -0.03,1.45 -0.93,0.96 -2,1.63 -3.44,0.99z"/>
  <path class="fil0" d="M59.96 83.16c0.71,-0.67 -0.08,-1.85 -0.97,-1.58 -0.98,0.3 -1.84,0.37 -2.79,-0.1 -0.94,-0.46 -1.79,0.7 -1.07,1.46 1.31,1.37 3.41,1.56 4.83,0.22z"/>
  <path class="fil0" d="M61.28 86.68c0.8,-0.85 -0.26,-1.97 -1.22,-1.5 -1.05,0.52 -1.98,0.66 -3.1,0.37 -0.77,-0.2 -1.46,0.71 -1.01,1.38 1.24,1.86 4.02,1.12 5.33,-0.25z"/>
  <path class="fil0" d="M52.49 75.89l0.93 -0.17 0.02 0.57c-0.38,0.1 -0.76,0.27 -1.05,0.45 -0.71,0.45 -0.61,1.4 0.05,1.83 0.35,0.23 0.76,0.29 1.17,0.23l0.01 0.1c0.08,1.11 1.48,1.13 1.79,0.22 1.23,0.65 2.67,0.72 4.03,-0.08 0.98,-0.58 0.25,-2.01 -0.79,-1.75 -0.68,0.16 -1.36,0.19 -2.01,-0.08 -0.36,-0.15 -0.69,-0.36 -1.02,-0.56 0.02,-0.34 0.04,-0.7 0.05,-1.04 0.83,0.47 1.79,0.63 2.76,0.33 1.03,-0.32 0.77,-1.83 -0.29,-1.84 -1.08,-0.02 -1.77,-0.65 -2.4,-1.4l0 -0.39 0.33 0.14c0.4,0.12 0.85,-0.1 1.04,-0.46 0.27,-0.48 0.05,-0.98 -0.37,-1.27 -0.71,-0.5 -1.02,-1.3 -1.29,-2.08l-0.05 -0.32c-0.15,-0.89 -1.6,-0.81 -1.75,0.04l-0.13 0.92 -0.41 0.66 -0.13 0.14 -0.48 0.34c-0.66,0.38 -0.56,1.57 0.26,1.7l0.56 0.02c-0.01,0.35 -0.01,0.7 -0,1.04 -0.44,0.33 -0.85,0.7 -1.36,1 -0.76,0.46 -0.42,1.76 0.51,1.7z"/>
  <path class="fil0" d="M72.38 104.8c-2.17,-0.12 -4.58,-0.31 -6.74,0.01 -0.92,0.14 -1.3,1.63 -0.2,1.8 2.25,0.33 4.72,0.17 6.98,0.04 1.2,-0.06 1.13,-1.78 -0.05,-1.85z"/>
  <path class="fil0" d="M119.37 138.34c1.73,-0.43 3.12,0.45 3.96,1.95 0.51,0.91 2.08,0.23 1.69,-0.76 -0.14,-0.33 -0.3,-0.65 -0.48,-0.93 0.79,-0.54 1.69,-0.76 2.67,-0.73 1.07,0.04 1.18,-1.56 0.2,-1.82 -1.04,-0.28 -2.07,-0.1 -3.01,0.33 0.04,-0.73 -0.05,-1.47 -0.09,-2.18 -0.06,-1.21 -0.11,-2.42 -0.16,-3.64 -0.05,-1.18 -1.78,-1.12 -1.82,0.04 -0.04,1.22 -0.07,2.43 -0.1,3.65 -0.01,0.77 -0.1,1.57 -0.03,2.34 -1.02,-0.42 -2.19,-0.51 -3.41,-0.17 -1.23,0.35 -0.66,2.21 0.57,1.91z"/>
  <path class="fil0" d="M135.79 136.05c0.15,-1.93 0.26,-4 -0.03,-5.92 -0.14,-0.91 -1.61,-1.3 -1.78,-0.19 -0.31,2 -0.21,4.14 -0.06,6.15 0.09,1.22 1.78,1.14 1.87,-0.04z"/>
  <path class="fil0" d="M78.3 129.52c-0.24,2.24 -0.1,4.55 -0.02,6.8 0.04,1.19 1.79,1.13 1.84,-0.05 0.08,-2.24 0.22,-4.56 -0.02,-6.79 -0.13,-1.18 -1.67,-1.09 -1.79,0.04z"/>
  <path class="fil0" d="M92.38 135.98c0.09,-1.94 -0.15,-3.96 -0.21,-5.85 -0.04,-1.19 -1.81,-1.13 -1.84,0.05 -0.07,2.1 -0.34,4.38 -0.15,6.52 -1.35,-0.47 -3.1,-0.19 -3.89,0.9 -0.64,0.89 0.74,1.71 1.46,1.07l0.43 -0.1 0.82 0c0.61,0.09 0.96,0.3 1.23,0.84 0.4,0.83 1.65,0.4 1.73,-0.41 0.69,-1.74 3.28,-2.2 4.56,-0.94 0.76,0.75 2.02,-0.27 1.45,-1.18 -1.23,-1.94 -3.73,-1.96 -5.59,-0.91z"/>
  <path class="fil0" d="M33.43 140.37c0.79,-0.06 1.6,-0.41 2.37,-0.08 0.71,0.31 1.25,0.98 1.77,1.53 1.1,1.17 2.21,2.14 3.89,2.17 0.94,0.01 1.35,-1.44 0.45,-1.84 -2.85,-1.27 -5.36,-6.37 -9.04,-3.66 -0.75,0.55 -0.52,1.96 0.56,1.87z"/>
  <path class="fil0" d="M165 129.51c-5.34,-0.17 -10.9,-0.54 -16.22,0.01 -1.21,0.13 -1.13,1.74 0.05,1.86 5.32,0.54 10.87,0.18 16.22,0.01 1.22,-0.04 1.15,-1.84 -0.05,-1.88z"/>
  <path class="fil0" d="M73.27 79.1c-0.1,0.5 -0.11,0.8 -0.62,0.91 -0.46,0.11 -0.98,0.05 -1.45,0.08 -1.47,0.11 -2.53,0.83 -3.04,2.22 -0.38,1.03 1.16,1.48 1.69,0.67 0.71,-1.1 1.85,-0.78 2.98,-0.89 1.54,-0.14 2.3,-1.32 2.24,-2.8 -0.04,-1.01 -1.6,-1.24 -1.8,-0.2z"/>
  <path class="fil0" d="M86.3 68.13c-2.62,-1.42 -4.98,0.55 -6.35,2.73 -0.26,0.41 -0.55,1.01 -0.49,1.52 0.14,1.1 -0.6,1.15 -1.32,1.68 -0.73,0.55 -1.17,1.28 -1.36,2.1 -0.41,-0.07 -0.84,-0.08 -1.33,-0.06 -1.17,0.05 -1.08,1.7 0.04,1.78 0.6,-0 1.17,0.13 1.7,0.4 0.68,0.33 1.44,-0.11 1.44,-0.87 0.03,-2.29 2.24,-1.58 2.81,-3.23 0.38,-1.09 0.07,-2.03 0.82,-3.04 0.88,-1.2 1.92,-1.51 3.35,-1.27 1.01,0.17 1.66,-1.2 0.68,-1.73z"/>
  <path class="fil0" d="M88.45 48.42c-5.13,2.57 -4.82,8.87 -9.16,12.05 -0.98,0.72 -0.08,2.24 1,1.62 4.78,-2.76 4.43,-9.3 9.24,-11.93 1.17,-0.64 0.09,-2.32 -1.08,-1.74z"/>
  <path class="fil0" d="M65.45 70.44c3.65,1.09 6.66,0.16 9.26,-2.57 0.73,-0.77 -0.33,-2.18 -1.2,-1.48 -3.08,2.44 -6.83,2.96 -10.11,0.41 -1.76,-1.37 -2.44,-3.4 -4.57,-4.34 -0.88,-0.39 -1.96,0.8 -1.08,1.46 2.9,2.19 3.93,5.4 7.7,6.52z"/>
  <path class="fil0" d="M108.57 51.28c-0.51,0.87 0.79,1.87 1.45,1.06 1.56,-1.93 4.12,-2.6 6.34,-1.41 0.92,0.5 1.96,-0.82 1.1,-1.5 -0.56,-0.46 -1.21,-0.76 -1.89,-0.95 2.81,-3.3 6.99,-1.37 8.87,2.59 0.42,0.89 1.96,0.41 1.85,-0.55 -0.19,-1.73 -0.97,-3.11 -2.06,-4.11 1.61,-3.54 5.49,-4.79 8.43,-2.19 -0.46,0.47 -0.86,1.02 -1.16,1.65 -0.49,1.05 1.02,1.91 1.59,0.88 1.18,-2.11 3.31,-2.76 5.14,-1.08 0.76,0.7 2.1,-0.3 1.44,-1.17 -1.43,-1.9 -3.51,-2.21 -5.28,-1.45 -3.28,-4.29 -10.13,-2.7 -11.86,2.21 -3.23,-1.56 -7.59,-0.73 -9.24,3.06 -1.91,0.23 -3.75,1.3 -4.71,2.96z"/>
  <path class="fil0" d="M153.99 39.19c1.32,-1.62 3.3,-1.4 4.84,-0.18 1.56,1.24 2.1,3 1.45,4.87 -0.38,1.11 1.22,1.55 1.79,0.7 0.35,-0.52 0.57,-1.05 0.7,-1.59 1.09,0.38 1.65,1.41 2.06,2.57 0.36,1.01 1.88,0.8 1.87,-0.3 -0.01,-2.2 -1.78,-4.22 -3.93,-4.32 -0.93,-4.12 -7.2,-7.14 -10.24,-2.81 -0.59,0.84 0.8,1.85 1.45,1.06z"/>
  <path class="fil0" d="M139.69 57.06c-2.15,-0.53 -3.76,-2.53 -3.54,-4.78 0.1,-1.07 -1.56,-1.17 -1.83,-0.2 -0.96,3.47 1.61,6.75 5.16,6.89 1.11,0.04 1.25,-1.65 0.21,-1.91z"/>
  <path class="fil0" d="M169.08 98.42c-2.33,0.09 -4.6,1.84 -5.06,4.18 -2.33,0.11 -4.57,1.35 -5.62,3.6 -0.49,1.03 1.01,1.88 1.56,0.86 1.47,-2.7 4.66,-3.22 7.25,-1.82 1.04,0.56 1.87,-0.98 0.88,-1.6 -0.67,-0.42 -1.4,-0.7 -2.15,-0.87 0.58,-1.38 1.63,-2.29 3.19,-2.53 1.13,-0.17 1.17,-1.88 -0.05,-1.83z"/>
  <path class="fil0" d="M180.38 115.1c-0.52,0.15 -0.72,0.65 -0.62,1.16l-0.09 0.69 -0.28 0.78c-0.5,0.94 0.77,1.89 1.5,1.1 0.41,-0.44 0.68,-0.92 0.85,-1.5 0.19,-0.65 -0.01,-1.26 -0.31,-1.83 -0.19,-0.36 -0.68,-0.51 -1.05,-0.39z"/>
  <path class="fil0" d="M37.08 105.79c1.22,1.21 1.41,3.05 2.81,4.18 0.84,0.68 2.06,-0.22 1.49,-1.21 -0.82,-1.43 -1.33,-3.14 -2.4,-4.4 -1.54,-1.82 -3.84,-2.04 -5.86,-3.06 -0.98,-0.5 -1.77,0.7 -1.09,1.48 1.39,1.59 3.59,1.56 5.04,3.01z"/>
  <path class="fil0" d="M64.15 163.46c19.62,0.36 39.39,0.38 59.01,-0.32 1.28,-0.05 1.21,-1.93 -0.05,-1.97 -19.62,-0.7 -39.4,-0.68 -59.02,-0.33 -1.7,0.03 -1.62,2.6 0.07,2.63z"/>
  <path class="fil0" d="M101.69 166.99c-8.02,-0.26 -17.03,-1.43 -24.94,0.08 -0.94,0.17 -0.85,1.67 0.04,1.84 7.9,1.51 16.93,0.32 24.94,0.06 1.28,-0.04 1.22,-1.93 -0.05,-1.98z"/>
  <path class="fil0" d="M120.88 167.03c-4.42,-0.11 -9.71,-0.96 -14.03,0.08 -0.89,0.21 -0.8,1.55 0.05,1.75 4.3,1.04 9.61,0.18 14.03,0.07 1.24,-0.03 1.17,-1.87 -0.05,-1.91z"/>
  <path class="fil0" d="M102.53 157.69c7.85,-0.79 16.17,-0.18 24.09,-0.36 1.25,-0.02 1.19,-1.89 -0.05,-1.92 -7.92,-0.17 -16.25,0.44 -24.11,-0.35 -1.67,-0.16 -1.65,2.79 0.06,2.62z"/>
  <path class="fil0" d="M103.79 150.25c-11.68,-0.34 -23.53,-0.42 -35.2,0.04 -1.17,0.05 -1.11,1.75 0.04,1.8 11.68,0.45 23.53,0.38 35.2,0.04 1.22,-0.04 1.16,-1.85 -0.05,-1.88z"/>
  <path class="fil0" d="M121.81 152.2c8.79,0.41 17.79,0.4 26.58,-0.04 1.26,-0.06 1.18,-1.87 -0.05,-1.92 -8.8,-0.44 -17.79,-0.46 -26.59,-0.05 -1.31,0.06 -1.24,1.95 0.05,2.01z"/>
  <path class="fil0" d="M132.86 155.31c-0.94,0.13 -1.32,1.66 -0.2,1.82 4.02,0.56 8.33,0.34 12.37,0.07 1.27,-0.08 1.19,-1.86 -0.05,-1.95 -3.95,-0.26 -8.19,-0.5 -12.12,0.06z"/>
  <path class="fil0" d="M137.47 162.81c1.24,-0.05 1.18,-1.86 -0.04,-1.91 -2.46,-0.1 -5.12,-0.41 -7.55,0.08 -0.9,0.18 -0.82,1.6 0.04,1.78 2.42,0.48 5.1,0.16 7.55,0.06z"/>
  <path class="fil0" d="M88.52 92.91c-1.58,-0.16 -1.84,0.79 -3.34,0.71 1.83,3.7 -0.87,4.6 -0.83,8.48l3.34 0c-0.3,-3.79 2.82,-6.03 0.84,-9.19z"/>
 </g>
</svg>
