<?xml version="1.0" encoding="UTF-8"?>
<svg xmlns="http://www.w3.org/2000/svg" xml:space="preserve" width="0.747331in" height="0.747331in" version="1.1" style="shape-rendering:geometricPrecision; text-rendering:geometricPrecision; image-rendering:optimizeQuality; fill-rule:evenodd; clip-rule:evenodd"
viewBox="0 0 332.92 332.92"
 xmlns:xlink="http://www.w3.org/1999/xlink"
 xmlns:xodm="http://www.corel.com/coreldraw/odm/2003">
 <defs>
  <style type="text/css">
   <![CDATA[
    .fil0 {fill:black;fill-rule:nonzero}
   ]]>
  </style>
 </defs>
 <g id="Layer_x0020_1">
  <metadata id="CorelCorpID_0Corel-Layer"/>
  <path class="fil0" d="M124.05 306.6l1.96 -2.82 0.12 3.43 -2.08 -0.61zm4.51 -6.9l-0.87 -1.11 -0.28 -0.08 -1.32 0.47 -7.36 10.57 -0.19 0.92 0.53 0.79 0.23 0.15 1.65 -0.33 1.49 -2.14 3.8 1.11 0.1 2.61c0.02,0.65 0.56,1.16 1.2,1.16l0.3 0c0.67,0 1.22,-0.54 1.22,-1.21l-0.05 -0.31 -0.45 -12.6z"/>
  <path class="fil0" d="M147.19 315.04l-4.05 -0.59 1.58 -10.81 -0.23 -0.9 -0.79 -0.48 -0.27 -0.04c-0.66,-0.11 -1.26,0.36 -1.36,1.02l-1.8 12.26c-0.1,0.66 0.36,1.27 1.02,1.37l5.51 0.81 0.19 0.01 0.72 -0.24 0.48 -0.8 0.03 -0.25c0.1,-0.66 -0.36,-1.28 -1.02,-1.37z"/>
  <path class="fil0" d="M168.09 312.19l-5.44 -0.09 -0.87 0.33 -0.36 0.85 0 0.27c-0.02,0.67 0.51,1.23 1.18,1.23l5.45 0.09 0.02 0 0.84 -0.33 0.37 -0.85 0.01 -0.27c0.01,-0.67 -0.53,-1.22 -1.19,-1.23z"/>
  <path class="fil0" d="M186.14 308.78l3 -4.31 -0.3 -1.68 -0.22 -0.16 -0.9 -0.2 -0.78 0.5 -3.81 5.46 -0.51 -3.98 -0.47 -0.8 -0.89 -0.24 -0.26 0.04c-0.66,0.09 -1.13,0.69 -1.04,1.36l1.59 12.16 0.47 0.8 0.73 0.25 0.15 -0.01 0.27 -0.04c0.67,-0.09 1.13,-0.69 1.05,-1.35l-0.56 -4.21 0.87 -1.25 4.01 5.53 1.68 0.28 0.22 -0.15 0.49 -0.79 -0.21 -0.92 -4.57 -6.29z"/>
  <path class="fil0" d="M204.34 299.21l-0.92 -0.11 -0.26 0.07c-0.64,0.18 -1.02,0.85 -0.84,1.49l3.27 11.81 1.17 0.89 0.32 -0.04 0.26 -0.07 0.74 -0.57 0.11 -0.92 -3.27 -11.82 -0.57 -0.73z"/>
  <path class="fil0" d="M66.75 83.42l6.94 2.75c0.61,0.24 1.29,0.06 1.71,-0.44l0.27 -0.32c0.46,-0.54 0.47,-1.32 0.04,-1.89l-11.17 -14.49 -1.01 -0.58 -1.11 0.3 -0.32 0.25c-0.66,0.51 -0.79,1.45 -0.27,2.12l7.4 9.59 -6.61 -2.62c-0.61,-0.24 -1.31,-0.06 -1.71,0.44l-0.12 1.76 3.76 6.04 -10.77 -5.56c-0.74,-0.38 -1.65,-0.09 -2.04,0.65l-0.18 0.36 -0.1 1.15 0.75 0.88 16.27 8.39 0.68 0.17 1.16 -0.55 0.27 -0.32 0.12 -1.77 -3.95 -6.33z"/>
  <path class="fil0" d="M86.72 63.99l-3.02 2.43 -2.13 -5.75 5.15 3.32zm-3.57 10.75l0.81 0.87 0.61 0.12 0.57 -0.12 0.37 -0.15c0.75,-0.32 1.11,-1.16 0.83,-1.92l-1.39 -3.75 4.8 -3.85 3.36 2.16c0.68,0.43 1.58,0.26 2.05,-0.4l0.23 -0.32 0.24 -1.16 -0.66 -0.98 -15.82 -10.18 -1.76 0.09 -0.33 0.27c-0.51,0.4 -0.69,1.09 -0.48,1.7l6.55 17.62z"/>
  <path class="fil0" d="M108.6 47.31c-1.19,0.01 -2.23,0.03 -3.11,0.04l-2.25 0.05c-1.62,0 -2.19,-0.69 -2.49,-1.29 -0.27,-0.52 -0.33,-1.03 -0.2,-1.6 0.09,-0.42 0.33,-1.02 1.35,-1.55 0.38,-0.19 1.4,-0.57 4.19,-0.98 0.68,-0.1 1.21,-0.65 1.29,-1.33l0.04 -0.39 -0.35 -1.14 -1.08 -0.53c-1.86,-0.09 -3.75,0.35 -5.65,1.34 -1.68,0.87 -2.73,2.15 -3.12,3.82 -0.31,1.37 -0.14,2.7 0.5,3.93 0.81,1.58 2.14,2.61 3.84,2.98l0.2 0.03 1.32 0.08 0.92 0.02 3.88 -0.05 1.19 0.05 0.85 0.14 1.21 1.05c0.25,0.49 0.3,0.99 0.16,1.6 -0.15,0.65 -0.51,1.1 -1.15,1.42 -0.23,0.12 -1.31,0.53 -5.49,0.79 -0.71,0.04 -1.3,0.58 -1.41,1.27l-0.06 0.39 0.27 1.13 1 0.59c0.53,0.08 1.09,0.12 1.65,0.12 0.66,0 1.36,-0.06 2.06,-0.17 1.32,-0.21 2.51,-0.58 3.53,-1.11 1.53,-0.79 2.54,-2.05 2.92,-3.67 0.33,-1.4 0.17,-2.72 -0.45,-3.93 -0.72,-1.39 -2.26,-3.06 -5.58,-3.11z"/>
  <path class="fil0" d="M136.8 47.96l1.15 0.14 0.39 -0.11c0.8,-0.22 1.27,-1.06 1.04,-1.86l-4.86 -17.23c-0.23,-0.81 -1.05,-1.27 -1.87,-1.05l-0.38 0.11 -0.91 0.71 -0.13 1.15 1.69 6.01 -6.29 1.78 -1.7 -6.01 -0.71 -0.91 -1.15 -0.13 -0.37 0.11c-0.81,0.22 -1.28,1.06 -1.05,1.86l4.86 17.23 0.72 0.91 0.73 0.19 0.42 -0.06 0.37 -0.11c0.81,-0.23 1.27,-1.06 1.04,-1.86l-2.23 -7.93 6.29 -1.77 2.23 7.93 0.71 0.91z"/>
  <path class="fil0" d="M157.1 45.18l0.41 -0.03c0.83,-0.06 1.46,-0.79 1.39,-1.62l-1.32 -17.85c-0.06,-0.84 -0.77,-1.47 -1.62,-1.4l-0.4 0.03 -1.03 0.52 -0.36 1.1 1.33 17.86 0.51 1.04 0.99 0.36 0.11 -0.01z"/>
  <path class="fil0" d="M186.35 46.35l0.43 0.05 0.19 0.02c0.75,0 1.4,-0.57 1.49,-1.33l2.21 -17.77c0.11,-0.83 -0.48,-1.58 -1.32,-1.69l-0.38 -0.05 -1.12 0.31 -0.58 1.01 -1.39 11.22 -5.15 -12.78 -1.21 -0.93 -0.43 -0.05 -1.11 0.31 -0.56 1.01 -2.22 17.77c-0.1,0.83 0.48,1.58 1.31,1.68l0.39 0.05 1.11 -0.31 0.58 -1 1.39 -11.22 5.17 12.78 1.21 0.93z"/>
  <path class="fil0" d="M205.29 51.35l4.91 1.65 0.48 0.08c0.62,0 1.22,-0.4 1.42,-1.03l3.31 -9.79c0.26,-0.79 -0.16,-1.65 -0.95,-1.91l-3.02 -1.02c-0.79,-0.27 -1.65,0.16 -1.91,0.95l-0.13 0.38 0.07 1.16 0.87 0.76 1.2 0.4 -2.09 6.19 -3.09 -1.04c-0.92,-0.32 -1.55,-0.83 -1.94,-1.63 -0.39,-0.79 -0.43,-1.59 -0.11,-2.52l2.54 -7.54c0.32,-0.95 0.88,-1.57 1.76,-1.94 0.81,-0.34 1.57,-0.37 2.38,-0.1l4.7 1.58c0.79,0.27 1.65,-0.16 1.92,-0.95l0.13 -0.38 -0.09 -1.16 -0.86 -0.76 -4.72 -1.59c-1.58,-0.53 -3.22,-0.46 -4.78,0.19 -1.79,0.74 -3.04,2.09 -3.69,4.01l-2.53 7.54c-0.61,1.78 -0.5,3.5 0.3,5.12 0.79,1.61 2.1,2.73 3.9,3.33z"/>
  <path class="fil0" d="M242.73 47.87l0.2 -0.35 0.16 -1.15 -0.71 -0.92 -8.59 -4.99c-0.71,-0.42 -1.64,-0.18 -2.06,0.54l-0.2 0.35 -0.16 1.14 0.7 0.93 2.83 1.64 -8.14 13.99 -0.15 1.15 0.71 0.92 0.35 0.2 0.75 0.21 1.31 -0.76 8.13 -14 2.81 1.64c0.72,0.42 1.65,0.18 2.07,-0.55z"/>
  <path class="fil0" d="M249.05 68.47l5.28 -5.95c0.62,-0.69 1.32,-1.04 2.24,-1.08l0.24 -0.01c0.8,0 1.51,0.27 2.14,0.83 0.7,0.61 1.04,1.33 1.09,2.25 0.06,0.91 -0.2,1.65 -0.82,2.34l-5.27 5.95c-0.62,0.7 -1.34,1.05 -2.27,1.1 -0.9,0.05 -1.66,-0.21 -2.34,-0.82 -0.71,-0.62 -1.05,-1.34 -1.11,-2.25 -0.05,-0.92 0.21,-1.68 0.82,-2.37zm2.41 8.85l0.45 -0.01c1.83,-0.11 3.38,-0.87 4.6,-2.23l5.27 -5.95c1.22,-1.37 1.78,-3 1.68,-4.83 -0.11,-1.84 -0.86,-3.38 -2.23,-4.6 -1.37,-1.22 -2.99,-1.79 -4.84,-1.68 -1.83,0.11 -3.37,0.86 -4.6,2.24l-5.27 5.95c-1.23,1.37 -1.8,2.99 -1.68,4.82 0.11,1.83 0.87,3.37 2.24,4.6 1.28,1.13 2.75,1.69 4.39,1.69z"/>
  <path class="fil0" d="M260.57 89.24l0.24 0.31 1 0.59 1.12 -0.29 9.04 -6.8 -5.6 12.59 0.17 1.52 0.26 0.34 1 0.59 0.21 0.02 0.9 -0.31 14.31 -10.77c0.67,-0.5 0.8,-1.45 0.3,-2.12l-0.24 -0.31 -1 -0.59 -1.13 0.29 -9.03 6.8 5.6 -12.58 -0.17 -1.52 -0.26 -0.34 -1 -0.59 -1.12 0.29 -14.3 10.77c-0.68,0.5 -0.8,1.45 -0.3,2.12z"/>
  <path class="fil0" d="M310.37 200.18c4.71,-2.63 10.8,-3.1 14.11,1.67 -1.89,8.45 -4.45,16.66 -7.6,24.56 -4.17,0.02 -8.35,0.03 -12.52,0.05 -5.78,-6.78 -5.75,-17.71 -5.52,-26.32 0.01,-0.75 -0.51,-1.72 -1.22,-2.01 -7.09,-2.89 -15.81,-6.87 -19.58,3.29 -1.68,4.52 -2.81,9.32 -3.27,14.12 -0.19,1.99 -0.4,4.03 -0.03,6.01 0.25,1.4 -2.44,3.57 -4.69,5.01 -3.8,0.01 -7.59,0.01 -11.4,0.01l-0.02 -0.21c-1.23,-4.78 -2.13,-10.81 -4.99,-14.86 3.16,-7.08 11.53,-9.71 18.13,-5.59 1.79,1.12 3.22,-1.66 1.55,-2.81 -7.47,-5.17 -18.29,-2.21 -22.14,5.87 -1.04,-0.77 -2.28,-1.32 -3.71,-1.63 -1.09,-5.14 -3.77,-9.79 -4.69,-15.1 -1.02,-5.84 -4.6,-6.89 -8.53,-10.17 -4.42,-3.68 -1.34,-13.67 -3.77,-18.85 -0.28,-0.59 -0.69,-1.12 -1.15,-1.62 0.04,-1.84 0.08,-3.67 0.09,-5.52 0.69,-0.15 1.06,-0.05 1.78,0.79 1.05,1.2 2.13,2.36 3.75,2.7 1.73,0.36 2.72,-2.01 1.14,-2.89 -0.57,-0.31 -1.01,-0.71 -1.43,-1.13l1.24 -1.13c1.28,-1.35 -0.42,-3.24 -1.97,-2.43 -0.59,0.31 -1.19,0.74 -1.71,1.22 -0.87,-0.59 -1.83,-0.79 -2.78,-0.66 0,-1.03 -0.02,-2.07 -0.04,-3.1l1.24 0.16c1.55,0.07 2.13,-2.3 0.73,-2.95 -0.64,-0.3 -1.34,-0.46 -2.02,-0.61 -0.05,-2.38 -0.12,-4.75 -0.22,-7.11 -0.08,-2.02 -3.02,-1.91 -3.11,0.07 -0.11,2.96 -0.19,5.94 -0.24,8.92 -0.92,0.2 -1.83,0.58 -2.62,0.88 -1.64,0.62 -1.32,3.03 0.48,3.05 0.74,0.01 1.41,-0.22 2.09,-0.43 -0.02,2.43 -0.01,4.85 0.03,7.27 -1.84,-1.56 -2.98,-3.35 -4.75,-4.97 -3.28,-3.02 -8.43,0.01 -12.15,-0.68 -0.82,-0.15 -1.61,-0.39 -2.38,-0.7 0.11,-6.04 -0.01,-12.09 -0.04,-18.14 -0.01,-1.97 -3.04,-1.88 -3.06,0.07 -0.03,5.48 -0.14,10.96 -0.07,16.45 -3.97,-2.44 -7.64,-6.01 -12.01,-7.6l0.05 -0.23c0.02,-1.94 0.01,-3.88 0.02,-5.82 2.49,2.07 5.96,3.43 8.6,4.03 1.83,0.43 2.79,-2.07 1.18,-3.01 -3.13,-1.84 -8.09,-2.67 -9.76,-6.32l0.01 -1.02c1.99,1.4 4.55,2.16 6.74,2.26 1.81,0.08 2.08,-2.76 0.35,-3.13 -2.77,-0.59 -5.92,-1.54 -7.07,-4.39 0,-0.88 -0.02,-1.76 -0.02,-2.65 1.45,1.18 3.21,2.02 4.8,2.39 1.86,0.45 2.67,-2 1.17,-2.99 -2.26,-1.49 -4.93,-2.3 -5.92,-5.07l-0.07 -0.12 0 -0.07 0.1 -0.53 -0.11 -0.66 -0.01 -1.17 1.44 1c1.54,0.8 3.34,-1.42 1.85,-2.54 -1.57,-1.18 -2.58,-2.63 -3.43,-4.37l-0.12 -0.2 0 -0.01c-0.3,-0.64 -0.89,-0.82 -1.46,-0.71l-1.22 0.82 -0.03 0.06 -0.01 0.03 -0.11 0.22c-0.44,1.62 -1.8,3.28 -3.09,4.31 -1.55,1.25 -0.14,3.79 1.66,2.7l1.37 -0.98 -0.01 1 -0.05 0.12c-0.66,3.31 -3.44,4.74 -6.2,6.21 -1.6,0.85 -0.4,3.55 1.31,2.91 1.6,-0.61 3.18,-1.43 4.55,-2.48 -0.96,3.43 -4.39,5.07 -7.36,6.57 -1.62,0.81 -0.39,3.46 1.3,2.88 2.15,-0.73 4.58,-1.99 6.42,-3.72l0.01 0.84c-1.68,3.48 -4.66,5.78 -8.49,6.44 -1.84,0.32 -1.23,3.12 0.51,3.13 2.87,0.01 5.84,-1.49 8.01,-3.68l0.01 1.29 -0.11 0.22 -0.25 0.27 -0.91 0.9c-1.08,1.12 -0.01,2.71 1.28,2.64 0,0.65 0,1.3 0.01,1.95 -4.1,-0.28 -8.67,1.62 -12.5,2.28 -6.18,1.08 -8.35,7.32 -14.45,7.79 -3.75,0.28 -7.58,-0.45 -11.38,-1.34 0.17,-1.92 0.27,-3.85 0.35,-5.79 1.59,1.09 3.58,1.73 5.58,1.93 1.59,0.17 2.21,-2.45 0.75,-3.05 -2.2,-0.92 -5.05,-1.37 -6.19,-3.63l0.02 -1.58c2.05,1.99 4.76,3.16 7.76,2.68 1.61,-0.26 1.46,-2.92 -0.09,-3.19 -1.89,-0.33 -3.56,-0.75 -5.04,-2.02 -1.15,-0.98 -1.9,-2.23 -2.65,-3.48l-0.01 -0.74c1.79,1.47 4.13,2.26 6.71,2.13 2.09,-0.11 1.91,-2.98 -0.08,-3.16 -3.29,-0.3 -5.92,-1.74 -6.79,-4.98l-0.04 -1.25c0.87,0.75 1.89,1.36 3.09,1.76 1.66,0.56 2.72,-2.15 1.12,-2.86 -2.23,-0.98 -3.54,-2.57 -4.42,-4.82l-0.02 -0.71 1.42 0.49c1.72,0.21 2.78,-1.94 1.15,-2.93 -0.63,-0.38 -1.24,-0.66 -1.68,-1.26 -0.56,-0.76 -0.82,-1.65 -1.28,-2.46 -0.3,-0.52 -0.89,-0.73 -1.45,-0.69l-1.07 0.46 -0.15 0.14 -0.3 0.55c-0.56,1.48 -1.33,2.64 -2.72,3.44 -1.54,0.89 -0.41,3.46 1.29,2.85l1.35 -0.71 -0.06 1.65c-0.69,2.17 -2.2,4.08 -4.47,4.73 -1.65,0.48 -1.29,3.32 0.49,3.06 1.4,-0.2 2.69,-0.85 3.77,-1.75l-0.05 1.62c-1.28,2.8 -3.73,4.76 -6.87,5.33 -1.96,0.36 -1.13,3 0.51,3.17 2.19,0.22 4.42,-0.74 6.24,-2.28l-0.01 1.57c-1.98,3.06 -4.22,5.8 -8.2,6.43 -2.02,0.31 -2.01,3.04 0.08,3.2 2.87,0.21 5.82,-1.26 8.14,-3.45 0.01,0.64 0.04,1.27 0.05,1.91 -0.59,0.65 -1.37,1.01 -2.15,1.47 -1.32,0.77 -0.74,3.14 0.87,2.96l1.44 -0.4c0.05,0.95 0.12,1.9 0.19,2.85 -2.04,-0.5 -4.05,-0.96 -6.04,-1.26 -5.18,-0.79 -9.68,1 -14.5,2.13 0.06,-1.06 0.11,-2.11 0.12,-3.17l0.77 0.08c1.75,-0.05 2.16,-2.83 0.35,-3.11l-1.04 -0.42c0.01,-0.69 0.03,-1.37 0.04,-2.05 1.98,1.38 4.45,2.15 6.71,1.83 1.65,-0.24 2.26,-2.78 0.34,-3.15 -2.75,-0.53 -5.15,-1.16 -7.03,-3.25 0,-0.79 0,-1.58 -0.01,-2.36 2.67,1.78 6.23,2.64 8.76,2.18 1.63,-0.31 1.4,-2.8 -0.08,-3.15 -3.4,-0.79 -7,-1.45 -8.74,-4.47 -0.01,-0.71 -0.02,-1.42 -0.05,-2.14 1.81,1.53 4.13,2.41 6.54,2.22 1.71,-0.14 2.18,-2.77 0.35,-3.12 -3.26,-0.61 -5.81,-1.77 -6.99,-4.8 -0.02,-0.64 -0.03,-1.27 -0.05,-1.91 1.35,0.94 2.95,1.57 4.5,1.76 2.08,0.26 2.74,-2.39 0.78,-3.14 -1.34,-0.51 -2.7,-0.96 -3.83,-1.89 -0.5,-0.43 -0.83,-0.92 -1.13,-1.5l-0.46 -0.83 -0.02 -0.63 -0.01 -0.38c1.77,0.72 3.01,-1.67 1.4,-2.76 -0.78,-0.52 -1.26,-1.03 -1.5,-1.91l0 -0.03c-0.04,-1.97 -3,-1.88 -3.04,0.07l-0.01 0.16 -0.04 0.22 0.03 0.25 -0.01 0.08c-0.38,1.08 -1.4,1.72 -2.22,2.47 -1.3,1.19 0.48,3.33 1.93,2.38l0.19 -0.15 -0.01 0.56c-0.69,2.38 -1.62,4.15 -4.08,4.96 -1.61,0.53 -1.32,3.29 0.48,3.04 1.36,-0.18 2.49,-0.72 3.45,-1.49l-0.03 1.09c-0.82,1.99 -1.81,4 -4.32,3.7 -1.68,-0.2 -2.96,2.12 -1.17,2.98 1.89,0.92 3.79,0.59 5.37,-0.43l-0.01 0.21c-1.54,3.17 -4.52,4.84 -8.27,5.09 -1.48,0.11 -2.38,2.43 -0.76,3.08 2.82,1.13 6.32,0.04 8.96,-2.08l-0.01 0.89c-0.46,1.05 -1.03,2.02 -1.99,2.79 -1.68,1.36 -3.86,1.73 -5.96,1.86 -1.79,0.11 -2.27,2.93 -0.36,3.24 2.83,0.46 5.93,-0.22 8.32,-1.81l0.01 1.01 -1.37 1.37c-0.86,0.6 -1.86,0.85 -2.75,1.38 -1.16,0.69 -0.91,2.65 0.46,2.91 1.16,0.24 2.55,-0.11 3.76,-0.8 0.03,1.24 0.09,2.47 0.14,3.71l-0.06 0.01c-3.03,0.36 -6.14,-3.38 -8.59,-2.28 -2.51,1.12 -5.09,2.04 -7.65,3.03 0.04,-4.36 0.15,-8.73 -0.15,-13.06 -0.14,-2.02 -2.95,-1.89 -3.09,0.07 -0.33,4.76 -0.17,9.58 -0.13,14.36 -4.44,1.95 -6.95,4.63 -8.45,9.13 -2.14,6.36 -9.35,7.27 -13.54,11.8 -3.86,4.18 -4.26,10.81 -5.71,16 -1.68,5.96 -8.32,8.32 -10.91,13.97 -3.14,-3.51 -8.32,-5.19 -12.6,-2.57 -1.55,0.95 -0.43,3.44 1.31,2.9 3.97,-1.22 7.68,0.25 9.78,3.54 -2.34,5.93 -5.09,11.32 -7.99,17.07 -2.23,-0.02 -4.47,-0.03 -6.69,-0.04 0.2,-2.58 -0.66,-5.51 -1.03,-7.8 -0.18,-1.18 -1.28,-2.5 -2.65,-1.92 -3.1,1.32 -6.13,2.39 -9.53,2.49 -0.86,0.03 -1.71,0.64 -1.89,1.52 -0.41,2.01 -1.01,3.94 -1.71,5.85 -5.04,0.11 -10.05,0.28 -15.07,0.57 -3,-7.49 -5.46,-15.24 -7.33,-23.23 4.41,-1.96 8.72,-3.41 13.67,-2.3 5.8,1.3 8.75,7.18 10.57,12.26 0.71,1.96 3.58,1.1 3.1,-0.93 -0.62,-2.59 -1.59,-4.86 -2.83,-6.82 1.54,-5.17 8.38,-6.17 12.61,-3.81 1.76,0.98 3.24,-1.71 1.5,-2.73 -5.25,-3.1 -13.38,-1.81 -16.3,3.68 -5.7,-6.16 -14.73,-7.56 -23.09,-2.79 -1.65,-7.81 -2.72,-15.83 -3.2,-24.01 13.57,-10.79 31.77,-5.05 33.81,13.19 0.24,2.02 3.33,2.02 3.22,-0.08 -0.11,-2.03 -0.42,-3.95 -0.91,-5.74l0.13 -0.06c6.66,-4.85 15.95,-0.74 16.09,7.76 0.04,2.08 3.02,1.92 3.17,-0.08 0.24,-3.12 -0.68,-5.8 -2.29,-7.91 2.69,-6.47 8.23,-9.74 15.43,-8.14 2.05,0.46 2.72,-2.47 0.78,-3.13 -7.51,-2.57 -16.38,1.25 -19.02,8.61 -4.38,-3.03 -10.67,-3.47 -15.37,-0.13 -5.76,-13.45 -22.63,-17.82 -35.22,-8.41 -0.06,-1.77 -0.1,-3.54 -0.1,-5.32 0,-89.29 72.64,-161.93 161.92,-161.93 86.9,0 158,68.79 161.77,154.77 -11.13,-3.21 -27.22,2.77 -32.39,13.43 -10.96,-5.45 -24.84,-0.12 -32.51,9.29 -3.37,-8.65 -15.51,-10.7 -23.37,-6.83 -1.67,0.82 -0.39,3.63 1.34,2.96 3.6,-1.37 7.23,-1.75 10.99,-0.81 4.57,1.15 6.42,4.63 8.53,8.3 -1.18,2.03 -2.09,4.18 -2.64,6.42 -0.48,1.99 2.5,2.7 3.07,0.76 4.4,-14.73 19.74,-20 33.32,-16.46 -0.41,1.87 -0.52,3.85 -0.22,5.92 0.3,2.03 3.18,2.06 3.25,-0.08 0.43,-15.48 17.67,-21.51 30.76,-19.09 0.02,1.11 0.04,2.23 0.04,3.35 0,10.65 -1.05,21.07 -3.02,31.15 -4.29,-4.09 -11.68,-3.3 -16.63,-0.06 -1.68,1.09 -0.11,3.61 1.63,2.63zm-23.95 17.34c-2.45,1.14 -4.86,2.41 -7.26,3.7l-0.28 -1.47c1.44,-0.54 2.8,-1.32 4.14,-2.06 1.79,-1.01 3.64,-1.83 5.47,-2.73 1.79,-0.87 0.33,-3.21 -1.32,-2.92 -2.96,0.52 -5.59,2.39 -8.25,3.88 0.08,-0.77 0.21,-1.55 0.34,-2.33 2.46,-1 5.16,-2.08 7.34,-3.54 1.5,-0.99 0.48,-3.55 -1.32,-2.93 -1.66,0.58 -3.38,1.33 -5.04,2.15l0.34 -1.37 0.28 -1.15c2.25,-0.71 4.66,-1.89 6.45,-3.38 1.24,-1.04 -0.18,-3.26 -1.65,-2.69 -1,0.38 -1.97,0.85 -2.93,1.34 0.82,-1.24 1.97,-2.29 3.75,-3.03 1.49,-0.61 7.6,1.63 7.53,3.66 -0.25,7.52 1.55,15.22 2.98,22.57l0.49 1.25c-3.23,0.02 -6.45,0.04 -9.68,0.05 1.05,-0.72 2.03,-1.5 2.9,-2.39 1.24,-1.32 -0.46,-3.46 -2.01,-2.47 -2.42,1.53 -4.61,3.2 -7.2,4.48l-0.51 0.41c-1.49,0 -2.99,0 -4.48,0.01l0.82 -0.81 0.22 -0.03c3.67,-1.39 7.29,-3.34 10.57,-5.49 1.76,-1.15 0.15,-3.57 -1.68,-2.72zm-196.18 -26.55c0.87,-0.45 1.75,-0.89 2.6,-1.34 0,0.98 -0.01,1.96 -0.01,2.94 -1.19,0.63 -2.76,1.03 -2.54,-0.83l-0.06 -0.77zm115.53 22.2c-5,-3.47 -6.63,-5.94 -6.56,-12.35 0.03,-1.82 -0.22,-3.28 -0.71,-4.99 -1.61,-5.58 -10.78,-25.09 0.41,-24.4l0.2 -0.03c1.63,0.54 3.31,0.61 4.58,-0.47 0.45,-0.4 1.18,-0.35 1.96,-0.16 -1.4,1.39 -2.59,2.98 -3.63,4.67 -0.9,1.5 1.44,3.27 2.5,1.84 1.37,-1.85 2.76,-3.6 4.42,-5.16 0.7,0.33 1.28,0.84 1.8,1.46 -2.35,2.65 -4.47,5.51 -6.61,8.32 -1.21,1.6 0.83,3.69 2.3,2.19 2.32,-2.37 4.23,-5.1 6.22,-7.76 0.41,0.66 0.86,1.29 1.37,1.87 -3.25,3.87 -6.53,7.92 -8.98,12.36 -0.97,1.77 1.65,3.17 2.72,1.5 2.62,-4.11 5.56,-7.91 8.51,-11.77 0.75,0.64 1.37,1.11 1.92,1.41l0.44 1.26c-2.7,4.08 -6.01,7.65 -8.71,11.74 -1,1.5 1.4,3.24 2.54,1.86 2.19,-2.65 4.7,-5.36 6.79,-8.27 -0.07,2.2 -0.43,4.42 -0.82,6.64l-0.15 0.16c-1.22,1.87 -2.43,3.67 -3.93,5.33 -1.35,1.5 0.8,3.51 2.25,2.15l1 -1.05c-0.11,2.26 0.09,4.51 0.92,6.74 0.42,1.16 1.38,2.28 2.07,3.28 2.26,3.32 0.32,4.75 1.25,7.8 0.79,2.53 1.89,4.9 3.11,7.21 -3.34,-0.01 -6.68,-0.01 -10.03,-0.01 -3.53,-4.09 -4.6,-10.21 -9.16,-13.38zm-11.86 13.36c-7.19,-0.01 -14.36,-0.02 -21.53,-0.03 1.27,-1 2.49,-2.09 3.84,-3.18 3.51,-2.84 8.11,-1.53 12.26,-2.13 1.36,2.49 3.26,4.05 5.43,5.34zm-2.84 -7.76c-0.36,-0.9 -1.18,-1.39 -2.15,-1.15 -4.33,1.11 -8.25,-0.25 -12.47,1.49 -3.73,1.56 -6.48,5.3 -9.95,7.38 -2.81,0 -5.62,-0.01 -8.43,-0.01l-0.15 -0.51c-1.04,-2 3.27,-9.58 3.98,-11.91 1.65,-5.37 1.66,-10.93 0.64,-16.4 -0.35,-1.92 -3.26,-1.02 -2.91,0.88 1.34,7.28 0.2,14.76 -3.39,21.24 -1.16,2.09 -2.54,4.53 -1.75,6.69 -3.25,-0.01 -6.49,-0.01 -9.74,-0.01 0.45,-0.84 0.82,-1.74 1.22,-2.58 1.29,-2.64 5.05,-3.42 7.28,-5.13 1.35,-1.05 0.53,-3.63 -1.32,-2.93 -2.58,0.96 -5.61,2.15 -7.67,4.03 -1.96,1.79 -2.22,4.66 -4.05,6.53l-0.05 0.07c-5.07,-0.01 -10.14,-0.02 -15.21,-0.02l0.96 -1.46c1.29,-1.8 2.51,-3.56 4.18,-5.04 1.47,-1.3 -0.74,-3.35 -2.2,-2.09 -0.98,0.83 -1.81,1.75 -2.6,2.73 -0.82,1.01 -1.59,2.31 -2.56,3.22 -1.01,0.06 -1.6,1 -1.68,1.93l-0.09 0.7c-4.05,-0.01 -8.09,-0.01 -12.13,-0.01 2.01,-4.27 1.66,-10.1 7.43,-11.58 0.76,-0.2 1.16,-0.92 1.21,-1.66 0.06,-1.19 0.13,-2.37 0.2,-3.56 0.9,0.83 1.94,1.53 2.99,1.99 0.67,0.3 1.41,0.26 1.94,-0.3 0.56,-0.59 0.62,-1.72 -0.06,-2.26 -1.5,-1.22 -3.2,-2.17 -4.27,-3.84l-0.27 -0.29c0.05,-0.72 0.12,-1.45 0.17,-2.18 2.31,1.99 5.49,3.05 8.15,4.37 1.92,0.95 3.24,-1.65 1.57,-2.84 -2.79,-2 -6.66,-2.7 -8.82,-5.5l-0.55 -0.48c0.06,-0.7 0.11,-1.39 0.16,-2.09 2.43,2.31 5.42,3.92 8.84,4.29 1.85,0.19 2.02,-2.69 0.35,-3.16 -3.81,-1.05 -6.25,-3.03 -8.85,-5.73 0.04,-0.62 0.08,-1.25 0.12,-1.87 1.65,1.93 3.9,3.31 6.44,3.88 2,0.45 2.69,-2.46 0.76,-3.06 -2.73,-0.85 -4.84,-2.44 -6.24,-4.95l-0.73 -0.64c0.03,-0.66 0.06,-1.3 0.08,-1.96 2.77,2.23 5.99,3.92 9.57,4.26 1.85,0.17 2.03,-2.71 0.34,-3.17 -3.94,-1.05 -6.7,-3.09 -9.85,-5.41l0.01 -0.25 -0.01 -0.01 0.68 -0.13 0.8 -0.27c2.09,1.28 4.46,2.24 6.84,2.76 2.05,0.44 2.64,-2.39 0.76,-3.09 -1.52,-0.58 -3.04,-1.16 -4.54,-1.82 0.59,-0.6 1.13,-1.25 1.57,-1.91 0.69,0.56 1.44,1.05 2.2,1.38 1.6,0.7 3.25,-1.23 1.87,-2.56 -0.65,-0.63 -1.43,-1.13 -2.17,-1.66 2.66,-3.47 5.46,-4.68 9.68,-5.07 -0.27,0.97 -0.57,1.94 -0.94,2.91 -0.3,0.78 0.26,1.63 0.89,2.04 3.11,1.98 6.48,2.96 9.81,4.57 2.99,1.44 5.39,4.64 8.29,6.43 0.94,0.58 1.99,0.07 2.55,-0.73 1.68,-2.4 2.29,-4.73 3.38,-7.4 0.92,-2.23 3.69,-2.48 6.31,-2.09 -0.79,0.64 -1.57,1.27 -2.37,1.89 -1.7,1.31 -0.19,3.72 1.74,2.82 1.73,-0.83 3.48,-2.1 4.87,-3.53l0.42 0.18 0.49 0.14c0.25,0.87 0.46,1.75 0.63,2.64 -2.41,1.73 -4.8,3.6 -6.92,5.62 -1.29,1.24 0.53,3.55 1.99,2.46 1.82,-1.37 3.71,-2.74 5.49,-4.21 0.1,0.92 0.19,1.83 0.26,2.75 -1.29,0.95 -2.52,1.99 -3.58,3.17 -1.39,1.53 0.78,3.51 2.29,2.18l1.61 -1.36c0.15,1.76 0.33,3.51 0.63,5.27 0.29,1.79 3.22,1.27 3.13,-0.5 -0.36,-6.13 0.24,-13.99 -2.56,-19.79 1.76,-1.62 5.4,-0.6 7.43,-0.56 1.53,0.03 2.22,-1.7 1.57,-2.9 -1.22,-2.27 -2.37,-4.37 -3.29,-6.71 5.77,-0.85 8.86,3.54 13.04,7.21 -7.42,2.73 -3.12,16.47 -1.05,22.8 0.76,2.35 1.64,4.67 2.25,7.07 1.27,4.95 -0.49,9.26 2.68,13.82 2.27,3.25 6.49,4.36 8.79,8.15 1.29,2.15 2.26,4.27 3.55,6.18 -3.11,-0.01 -6.21,-0.01 -9.31,-0.01 -3.94,-2.03 -8.38,-3.13 -10.21,-7.78zm55.68 2.52c-1.96,0.92 -3.3,2.65 -4.56,4.34l-0.4 0.95c-2.39,0 -4.78,0 -7.16,-0.01 2.53,-1.96 4.92,-4.11 7.3,-6.22 1.36,-1.2 -0.51,-3.47 -1.98,-2.44 -3.46,2.41 -6.39,5.46 -9.86,7.86l-0.64 0.81 -0.71 0c-0.56,-1.18 -1.19,-2.31 -1.76,-3.44 3.66,-2.79 7.45,-5.66 10.79,-8.83 1.28,-1.22 -0.56,-3.56 -1.97,-2.43 -3.3,2.64 -7.28,4.98 -10.15,8.14 -0.37,-1.19 -0.6,-2.44 -0.55,-3.79l0.61 -0.37c3.5,-3.14 7.27,-6.11 10.55,-9.47 1.24,-1.27 -0.54,-3.59 -1.99,-2.46 -3.3,2.57 -6.66,5.35 -9.63,8.36 -0.27,-0.7 -0.61,-1.37 -1.01,-2.03 3.27,-3.25 6.43,-6.39 10.05,-9.28 1.56,-1.25 0.11,-3.85 -1.68,-2.72 -3.64,2.3 -7.5,5.45 -10.13,9.03l-0.62 -1.36c-1.08,-2.97 -0.95,-5.95 -0.51,-8.95l0.23 -0.4 0.06 -1.33c0.72,-3.89 1.68,-7.8 1.05,-11.75l0.07 -0.12c0.36,-0.81 0.06,-1.53 -0.48,-1.94l1.18 -0.79c0.44,0.68 0.97,1.31 1.67,1.98 1.89,1.79 5.73,2.02 7.15,4.2 0.56,0.85 1.39,1.11 2.17,0.99l0.82 0.45c3.48,1.7 3.6,6.81 4.18,10.1 0.72,4.05 3.56,7.05 4,11.25 0.14,1.42 1.1,2.36 2.54,2.42 5.27,0.22 6,7.79 7.04,12.99 -0.6,0.35 -1.04,0.92 -1.28,1.55 -1.78,0 -3.55,0.01 -5.33,0 0.8,-0.93 1.64,-1.79 2.62,-2.56 1.63,-1.29 0.19,-3.63 -1.68,-2.74zm-120.16 -65.55c3.19,-0.74 6.37,-1.97 9.41,-2.34 6.55,-0.81 14.03,2.52 20.51,3.41 1.13,0.15 2.6,0.3 4.14,0.35 -2.41,1.79 -5.05,3.28 -7.23,5.39 -1.22,1.19 0.13,3.38 1.75,2.83 5.06,-1.75 9.46,-5.33 12.85,-9.55l0.43 -0.25c1.09,-0.81 1.84,-1.57 2.64,-2.71 2.51,-3.64 5.2,-3.67 9.19,-4.35 2.98,-0.52 5.66,-1.74 8.76,-1.38 2.98,0.35 5.99,2.73 8.41,4.29 2.92,1.89 5.46,3.83 8.32,5.1 1.11,1.08 2.52,1.89 3.62,2.97 1.21,1.19 1.88,2.85 2.62,4.33 0.88,1.77 3.28,0.36 2.95,-1.32 -0.37,-1.83 -1.11,-3.34 -2.08,-4.63 2.04,-0.43 4.7,-2.03 6.15,0.56 0.88,1.57 2.09,2.43 3.49,3.53 1.83,1.43 2.86,2.83 3.46,4.24l0.02 0.59 0.51 1.11c0.64,3.3 -0.42,6.79 0.68,11.06 -0.59,-0.59 -1.08,-1.32 -1.34,-2.26 -0.36,-1.27 -2.09,-2.04 -3.21,-1.21 -2.96,2.15 -2.41,2.52 -5.18,0.33 -2.24,-1.78 -2.5,-5.25 -4.98,-6.59 -1.65,-0.89 -8.02,-4.05 -9.78,-2.67 -4,3.17 -9.36,-4.68 -12.41,-7.02 -3.66,-2.82 -7.8,-2.82 -12.01,-1.39 -0.96,0.33 -1.57,1.34 -1.26,2.34 0.7,2.24 1.66,4.31 2.7,6.37 -2.78,-0.3 -4.99,-0.49 -6.99,1.55l-1.42 -1.03c-0.72,-0.74 -1.87,-0.76 -2.73,-0.28 -3.45,1.89 -6.92,1.07 -9.88,3.71 -1.66,1.48 -2.29,4.45 -3.25,6.8 -2.94,-2.13 -5.39,-4.7 -8.75,-6.3 -4.88,-2.34 -6.69,-1.24 -5.43,-6.79 0.26,-1.13 -0.61,-2.25 -1.78,-2.22 -5.04,0.14 -7.6,-0.01 -11.99,2.82 -1.21,0.79 -2.03,2.18 -2.83,3.33 -3.05,4.41 -9.4,11.65 -13.61,2.28 -0.39,-0.87 -1.26,-1.59 -2.28,-1.22 -4.12,1.5 -9.54,2.02 -13.25,4.39 -2.9,1.85 -5.52,6.29 -8.81,7.89 0.31,-2.69 0.8,-4.78 2.47,-7.5l0.24 -0.91c1.5,-0.74 3.02,-1.43 4.38,-2.39 3.01,-2.12 3.93,-5.82 5.27,-8.98 1.64,-3.9 7.99,-5.36 11.59,-6.65 3.82,-1.37 5.58,-0.03 9.28,0.71l0.27 0.04c2.18,1.37 4.36,2.49 5.84,4.86 1.06,1.69 3.24,0.39 2.96,-1.34 -0.26,-1.6 -1.2,-2.88 -2.45,-3.92zm-54.63 64.22c-2.85,-0.83 -4.99,-2.15 -7.11,-3.94 0.55,-1.12 1.09,-2.24 1.57,-3.4 0.77,-1.83 1.22,-3.75 1.76,-5.66 1.09,-3.97 5.36,-5.72 7.99,-8.49 2.76,-2.91 3.32,-8.87 4.12,-12.55 0.74,-3.4 1.71,-6.5 4.03,-8.99 -0.74,2.28 -1,4.68 -1.25,7.25 -0.09,0.9 0.91,1.75 1.76,1.68 3.51,-0.27 5.48,-1.97 7.8,-4.52 4.45,-4.89 9.95,-5.89 15.84,-7.83 1.35,2.25 3.14,3.79 5.29,4.57l0.77 0.79c3.09,1.73 0.62,14.08 0.43,17.02 -0.19,2.69 0.61,15.17 -1.75,16.34l-0.9 0.55c-0.41,-0.68 -0.9,-1.32 -1.47,-1.87 -0.65,-0.61 -1.7,-0.59 -2.31,0.06 -0.65,0.69 -0.53,1.64 0.06,2.31 0.53,0.59 0.96,1.27 1.42,1.92 -0.63,1 -1.11,2.1 -1.51,3.24 -0.5,-1.35 -1.14,-2.63 -1.95,-3.79 -1.18,-1.7 -3.79,-0.12 -2.74,1.69 1.37,2.35 1.98,4.86 2.83,7.41 -0.48,1.02 -1.06,1.93 -1.86,2.65 -1.09,-2.78 -2.68,-5.6 -4.92,-7.52 -1.29,-1.11 -3.61,0.51 -2.44,1.99 1.37,1.75 2.52,3.62 3.61,5.54 -1.22,0 -2.44,0 -3.67,0 -0.65,-0.83 -1.23,-1.72 -1.63,-2.68 -0.27,-0.64 -0.79,-1.12 -1.53,-1.11 -0.77,0.02 -1.63,0.75 -1.52,1.6 0.11,0.74 0.32,1.48 0.61,2.17l-1.01 0c-4.5,-0.01 -9,-0.06 -13.52,-0.12 2.38,-2.2 3.98,-4.55 5.05,-8.97 0.63,-2.65 1.07,-4.79 2.3,-7.32 1.03,-2.1 2.96,-3.71 3.72,-5.98 0.85,-2.54 0.97,-4.96 0.74,-7.42 0.53,0.08 1.08,0.11 1.66,0.01 1.82,-0.3 4.17,-1.37 4.17,-3.45 -0.01,-2.14 -0.01,-4.27 -0.02,-6.41 -0.01,-1.43 -1.54,-2.03 -2.68,-1.45 -2.15,1.08 -4.37,2.12 -6.36,3.5 -0.79,0.53 -0.89,1.32 -0.61,1.96l-0.06 0.61 0.06 0.5c-0.04,0.68 0.06,1.32 0.27,1.9 0.56,3.77 0.97,7.04 -1.2,10.98 -1.5,2.72 -3.27,4.95 -4.28,7.92 -1.46,4.27 -1.21,8.74 -5.28,11.73 -0.89,0.66 -1.91,1.18 -2.83,1.81 -4.76,-0.07 -9.53,-0.15 -14.29,-0.22 1.46,-2.18 2.82,-4.42 4.08,-6.73 2.39,2.13 5.25,3.95 8.43,3.89 1.86,-0.03 2.08,-2.67 0.35,-3.17zm-36.62 5.95c0.4,-1.11 0.76,-2.23 1.05,-3.37 2.37,-0.22 4.62,-0.8 6.85,-1.6 0.13,0.87 0.26,1.75 0.37,2.63 0.09,0.77 0.06,1.52 0.03,2.27 -2.77,0.01 -5.54,0.02 -8.3,0.06zm277.77 9.09c-13.46,-0.48 -27.18,-0.43 -40.63,0.09 -2,0.08 -1.89,3.01 0.07,3.08 12.9,0.49 26.05,0.56 38.97,0.13 -0.73,1.45 -1.46,2.9 -2.23,4.33 -7.89,-0.25 -16.14,-0.75 -23.97,0.04 -2.03,0.21 -1.89,2.91 0.07,3.11 7.23,0.72 14.79,0.36 22.11,0.1 -1.29,2.29 -2.64,4.54 -4.04,6.76l-0.54 -0.09c-10.9,-0.73 -21.89,-0.29 -32.81,-0.86 -12.19,-0.64 -24.38,-1.41 -36.55,-2.19 -23.44,-1.5 -46.86,-3.08 -70.3,-4.24 -23.26,-1.14 -46.53,-2.1 -69.8,-3.11 -23.76,-1.02 -47.81,-3.15 -71.6,-2.84l-0.12 -0.24c27.54,0.5 55.2,0.41 82.73,-0.09 2.07,-0.04 1.97,-3.15 -0.09,-3.19 -28.04,-0.51 -56.23,-0.6 -84.28,-0.07 -0.61,-1.26 -1.18,-2.52 -1.74,-3.8 24.56,1.29 49.47,0.14 74.05,0.1 25.47,-0.04 50.95,-0.09 76.42,-0.11 48.56,-0.04 97.11,-0.23 145.66,0.07 -0.46,1.01 -0.92,2.02 -1.39,3.01zm-29.88 43.49c-1.51,-1.03 -3.35,-1.7 -4.92,-2.54 -1.79,-0.96 -3.12,1.61 -1.5,2.7 0.92,0.62 1.87,1.16 2.85,1.68l1.11 0.69c-2,1.99 -4.05,3.92 -6.14,5.81 -5.33,-2.47 -10.55,-4 -16.49,-4.25 -3.42,-0.14 -6.86,0.49 -10.31,0.42 -5.71,-0.13 -11.25,-2.45 -16.34,-4.81 -1.82,-0.85 -3.25,1.69 -1.51,2.74 12.86,7.78 27.42,4.06 40.88,9.18 -1.94,1.65 -3.93,3.25 -5.95,4.8 -5.67,-3.13 -13.24,-2.51 -19.46,-3.28 -11.16,-1.38 -21.41,-8.09 -32.45,-10.45 -12.03,-2.57 -24.59,-1.76 -36.79,-1.18 -4.64,0.23 -9.26,0.51 -13.89,0.86 -3.36,0.25 -7.76,0.74 -10.15,-2.38 -1.3,-1.7 -1.81,-4.26 -3.09,-6.07 -3.98,-5.65 -14.16,-5.86 -20.26,-6.18 -10.53,-0.55 -21.28,1.1 -31.69,-0.95 -10.57,-2.09 -19.67,-8.74 -30.14,-11.32 -12.6,-3.09 -26.15,-1.65 -38.99,-3.61 -1.09,-1.79 -2.15,-3.62 -3.17,-5.46 21.88,1.99 44.13,1.92 66.04,2.79 23.26,0.92 46.53,1.8 69.78,2.86 23.4,1.07 46.79,2.2 70.19,3.28 12.19,0.55 24.4,1.14 36.59,1.77 10.83,0.58 21.69,1.93 32.52,2.35 -5.02,7.29 -10.62,14.16 -16.72,20.53zm-116.8 49.89c-56.71,0 -106.7,-29.32 -135.63,-73.58 10.7,2.2 21.83,1.81 32.63,3.46 10.59,1.62 19.87,8.17 29.99,11.4 8.54,2.73 18.1,1.88 26.92,1.87 5.3,-0.01 10.6,0.14 15.85,0.96 6.06,0.95 8.66,3.65 11.19,8.96 3.14,6.6 13.12,5.28 18.81,4.79 11.55,-0.98 23.39,-1.35 34.95,-0.73 13.16,0.69 24.2,6.01 36.41,10.14 7.13,2.41 14.69,2.08 22.03,3.2 -26.36,18.6 -58.49,29.54 -93.14,29.54zm0 -328.39c-91.78,0 -166.45,74.67 -166.45,166.46 0,27.14 6.53,52.78 18.1,75.44 0.06,0.77 0.42,1.53 1.06,2.04 27.92,52.87 83.47,88.98 147.29,88.98 37.36,0 71.88,-12.37 99.68,-33.22l0.57 -0.44c23.12,-17.49 41.55,-40.87 53.03,-67.9 0.55,-0.51 0.82,-1.25 0.84,-2.02 7.94,-19.42 12.34,-40.64 12.34,-62.88 0,-91.79 -74.68,-166.46 -166.47,-166.46z"/>
  <path class="fil0" d="M144.7 191.28c-3.28,-1.77 -2.77,-6.03 -3.16,-9.76 2.2,1.61 4.44,3.17 6.56,4.89 -1.23,1.61 -2.56,3.06 -3.4,4.87zm-5.09 -15.38c-1.3,-0.52 -2.74,0.68 -2.41,1.85l-0.12 0.28c-0.38,1.45 0.11,3.17 0.23,4.66 0.17,2.04 0.39,4.07 0.88,6.06 0.8,3.32 2.94,5.83 6.07,6.88 -0.11,4.48 0.58,9.02 0.92,13.47 0.15,2.03 3.06,1.95 3.15,-0.08 0.21,-4.58 -0.38,-9.21 -0.66,-13.82l0.34 -0.75c0.56,-3.02 3.14,-4.92 4.71,-7.44 0.47,-0.75 0.29,-1.92 -0.38,-2.5 -3.78,-3.24 -8.06,-6.78 -12.73,-8.62z"/>
  <path class="fil0" d="M105.55 195.08c1.13,-4.35 1.52,-8.86 2.64,-13.22 0.48,-1.91 -2.47,-2.64 -2.96,-0.74 -1.13,4.36 -1.53,8.86 -2.65,13.22 -0.48,1.91 2.46,2.64 2.96,0.74z"/>
  <path class="fil0" d="M97.72 212.67c3.09,-2.31 4.54,-6.06 5.66,-9.64 0.56,-1.76 -2.27,-2.88 -3.01,-1.18 -1.32,3.03 -2.36,5.9 -4.63,8.39 -1.17,1.28 0.5,3.54 1.98,2.43z"/>
  <path class="fil0" d="M132.38 206.83c-0.33,3.07 -0.36,6.21 -1.71,9.04 -0.84,1.79 1.7,3.22 2.7,1.49 1.82,-3.16 1.71,-7.08 2.07,-10.6 0.21,-1.97 -2.85,-1.85 -3.06,0.07z"/>
  <path class="fil0" d="M77.27 217.5c-2.69,-1.3 -5.21,-2.98 -7.96,-4.13 -1.81,-0.75 -3.22,1.65 -1.49,2.71 2.66,1.65 5.27,3.42 8.29,4.34 1.73,0.52 2.77,-2.13 1.16,-2.92z"/>
  <path class="fil0" d="M77.63 214.76c1.69,0.35 2.87,-2.2 1.15,-2.93 -2.32,-0.98 -4.06,-2.49 -6.05,-3.96 -1.66,-1.22 -3.9,0.93 -2.28,2.38 2.1,1.87 4.34,3.92 7.18,4.5z"/>
  <path class="fil0" d="M74.61 205.67c1.05,0.39 2.1,1.08 2.79,1.97 0.54,0.7 1.42,1.02 2.23,0.53 0.73,-0.46 0.99,-1.47 0.52,-2.22 -1.04,-1.64 -2.85,-2.96 -4.77,-3.31 -2.02,-0.36 -2.6,2.33 -0.76,3.03z"/>
  <path class="fil0" d="M82.92 203.42c1.45,0.45 2.73,-1.71 1.47,-2.69 -0.6,-0.47 -1.28,-0.86 -1.87,-1.34 -0.66,-0.52 -1.26,-1.12 -1.87,-1.71 -1.5,-1.47 -3.71,0.87 -2.25,2.36 1.3,1.32 2.71,2.81 4.52,3.38z"/>
  <path class="fil0" d="M81.4 195.16l0.08 0.09c0.47,1.57 3.21,1.13 3,-0.58l-0.25 -0.95 -0.3 -0.41c-0.59,-1.41 -3.09,-0.97 -2.91,0.67l0.25 0.94 0.14 0.23z"/>
  <path class="fil0" d="M181.96 199.84c1.49,-0.93 0.41,-3.57 -1.29,-2.88 -2.24,0.92 -4.34,2.12 -6.32,3.51 -1.69,1.19 -3.8,2.58 -4.79,4.44 -0.78,1.47 0.84,2.77 2.19,2.09 1.65,-0.83 3,-2.36 4.5,-3.45 1.85,-1.34 3.79,-2.51 5.72,-3.71z"/>
  <path class="fil0" d="M181.43 203.77c-2.7,1.13 -5.41,2.43 -7.91,3.97 -1.47,0.9 -0.41,3.47 1.26,2.81 2.73,-1.08 5.41,-2.44 7.94,-3.92 1.52,-0.88 0.38,-3.56 -1.29,-2.85z"/>
  <path class="fil0" d="M183.32 209.24c-1.77,0.86 -3.56,1.7 -5.28,2.66 -1.52,0.85 -0.36,3.51 1.26,2.8 1.93,-0.83 3.93,-1.59 5.67,-2.78 1.69,-1.18 0.15,-3.58 -1.66,-2.68z"/>
  <path class="fil0" d="M217.58 131.4c0.06,-1.78 -0.83,-3.45 -2.39,-4.52 -0.95,-0.66 -2.11,-0.88 -3.24,-0.77 -0.16,-2.52 -1.34,-5.02 -3.75,-6.01 -3.54,-1.46 -7.49,0.82 -7.89,4.62 -0.2,1.92 2.66,1.99 3.18,0.36 0.56,-1.76 2.09,-2.71 3.85,-1.73 1.45,0.81 1.3,3.19 1.29,4.71l0.1 0.88c0.26,0.71 1,1.06 1.7,0.99l0.06 -0.01 0.49 -0.15 0.06 -0.02c0.81,-0.43 1.57,-0.4 2.32,0.01 0.85,0.46 0.93,1.59 0.8,2.62l0.15 1 0.12 0.24 0 0.01 0.89 0.65c1.68,0.46 3.27,0.88 4.14,2.49 0.59,1.08 0.37,2.6 -0.1,3.67 -1.67,3.83 -5.24,3.16 -8.19,1.32 -1.57,-0.98 -3.15,1.31 -1.87,2.55 1.09,1.05 2.34,1.76 3.64,2.15 -0.4,1.19 -1.39,2.08 -2.77,2.26 -1.7,0.22 -2.23,2.73 -0.34,3.16 3.37,0.79 6.41,-1.99 6.8,-5.19 2.41,-0.41 4.6,-1.94 5.85,-4.54 2.21,-4.6 -0.21,-9.73 -4.91,-10.76z"/>
  <path class="fil0" d="M138.74 128.2c-1.06,-0.26 -2.3,0.02 -3.02,0.89 -1.21,1.46 0.4,3.58 2.1,2.6l1 -0.4c1.52,-0.46 1.47,-2.72 -0.08,-3.09z"/>
  <path class="fil0" d="M177.68 129.82c1.24,-0.8 0.78,-2.41 -0.46,-2.87 -1.79,-0.68 -3.58,1 -4.29,2.48 -0.41,0.84 -0.56,1.76 -0.48,2.66 -1.11,0.24 -2.17,0.76 -3.01,1.5 -0.94,-0.77 -2.22,-1.18 -3.48,-1.17 0.1,-1.54 -0.3,-3.1 -1.28,-4.39 -1.89,-2.45 -5.09,-2.98 -7.79,-1.64 -1.64,0.82 -0.36,3.24 1.28,2.82 1.39,-0.36 2.91,-0.39 3.88,0.85 1.09,1.4 0.58,3.12 -0.14,4.55 -1.04,1.76 1.7,3.25 2.76,1.52 0.71,-1.15 2.94,-0.53 3.16,0.73l-0.03 0.33c0.06,1.77 2.95,2.22 3.19,0.35 0.14,-1.02 0.54,-1.68 1.55,-2.09 0.9,-0.36 2,-0.35 2.6,0.49 1.19,1.65 3.56,0.15 2.65,-1.63 -0.43,-0.87 -1.08,-1.48 -1.82,-1.87l0.1 -1.3c0.33,-0.83 0.88,-0.88 1.61,-1.34z"/>
  <path class="fil0" d="M102.04 129.42c-4.71,1.02 -6.05,5.61 -5.77,9.8 -3.11,1.4 -3.69,5.7 -1.68,8.09 -0.71,0.72 -1.21,1.66 -1.45,2.72 -0.15,0.63 -0.19,1.39 -0.13,2.16 -1.56,0.11 -3.09,0.78 -4.27,1.85 -1.73,1.52 -2.3,3.9 -1.87,6.09 -1.28,0.3 -2.39,1.08 -3.02,2.42 -0.89,1.87 -0.63,4.3 1.18,5.5 1.56,1.05 3.03,-1.28 1.84,-2.52l-0.03 -0.04 -0.12 -0.21 -0.08 -0.2c-0.09,-0.58 -0.05,-0.65 0.13,-1.21l0.6 -0.63 1.25 -0.16c1.12,0.3 2.57,-0.64 2.02,-1.95 -0.68,-1.6 -0.93,-3.16 0.28,-4.57 1.16,-1.35 2.71,-1.15 4.19,-0.63l0.02 0.01 0.05 0.01 0.33 0.12c0.77,0.3 1.32,-0.03 1.61,-0.56 0.46,-0.46 0.63,-1.15 0.14,-1.83 -1.21,-1.71 -1.34,-4.29 1.09,-4.86 0.76,-0.17 1.07,-0.79 1.06,-1.42 0.08,-0.62 -0.19,-1.23 -0.92,-1.49l-0.07 -0.02 -0.14 -0.06c-2.37,-0.48 -2.25,-3.6 0.08,-4.06 0.61,-0.12 0.92,-0.49 1.03,-0.93l0.01 -0.03 0.04 -0.4 0.01 -0.16c-0.39,-2.8 -0.34,-5.78 2.35,-7.39 2.77,-1.66 5.16,0.56 6.12,3 0.62,1.6 3.14,1.37 3.08,-0.49 -0.15,-4.54 -4.91,-6.86 -8.95,-5.98z"/>
  <path class="fil0" d="M99.96 122.13c-1.72,-0.15 -2.18,2.43 -0.77,3.16 0.6,0.32 1.32,0.41 2.04,0.35l0.02 0.76c0.11,2.04 3.01,1.92 3.11,-0.07 0.07,-1.35 0.09,-2.7 0.09,-4.06l1.57 0.56c1.67,0.4 2.8,-2.18 1.13,-2.88 -1.03,-0.44 -2.08,-0.8 -2.77,-1.68l-0.03 -1.66c-0.02,-1.98 -3.04,-1.89 -3.07,0.08 -0.03,1.73 -0.07,3.46 -0.1,5.2l-0.07 0.05 -1.14 0.21z"/>
  <path class="fil0" d="M259.17 241.25c1.94,-0.48 3.5,-0.43 4.68,0.26 -1.9,-0.01 -3.8,0.01 -5.72,0.05l1.04 -0.31zm-15.68 4.12c7.64,0.63 15.8,0.95 23.77,0.77l0.61 -0.01c3.65,-0.09 7.26,-0.28 10.76,-0.61 2.18,-0.2 2.03,-3.14 -0.09,-3.34 -3.2,-0.3 -6.52,-0.48 -9.86,-0.58 -2.55,-6.76 -13.79,-3.31 -18.49,0.19l-0.09 0.09c-2.26,0.13 -4.49,0.27 -6.68,0.45 -2,0.17 -1.87,2.9 0.07,3.06z"/>
  <path class="fil0" d="M117.63 235.47c-1.99,0.04 -1.9,3.04 0.08,3.08 43.3,0.91 87.13,1.66 130.41,0.1 1.08,0.04 1.57,-0.79 1.53,-1.62 0.01,-0.84 -0.52,-1.7 -1.6,-1.65 -43.29,-1.56 -87.12,-0.82 -130.42,0.09z"/>
  <path class="fil0" d="M236.99 242.6c-7.36,-0.41 -14.93,-0.46 -22.28,0.1 -1.99,0.15 -1.86,2.91 0.08,3.06 7.36,0.56 14.92,0.51 22.28,0.1 2.13,-0.12 2,-3.14 -0.08,-3.26z"/>
  <path class="fil0" d="M84.77 285.95c-1.15,0.03 -1.83,1.12 -1.57,2.17l0.09 0.35c0.37,1.56 2.71,1.41 3.07,-0.07l0.08 -0.36c0.26,-1.06 -0.57,-2.12 -1.67,-2.09z"/>
  <path class="fil0" d="M97.23 297.42c-1.99,0 -1.91,3.09 0.08,3.09 2,0 1.91,-3.09 -0.08,-3.09z"/>
  <path class="fil0" d="M116.11 281.98c-2.42,0 -2.33,3.75 0.09,3.75 2.43,0 2.33,-3.75 -0.09,-3.75z"/>
  <polygon class="fil0" points="138.1,289.47 138.09,289.47 138.11,289.47 "/>
  <path class="fil0" d="M138.11 289.47l0.2 0.1 -0.29 -0.1 0.08 -0.01 -0.16 -0.02 -0.21 -0.08c-1.22,-0.28 -2.49,0.89 -2.05,2.15l0.08 0.18 0.19 0.56 0.09 0.18c0.93,1.67 3.95,0.89 3.69,-1.09l-0.01 -0.02c-0.12,-0.93 -0.71,-1.68 -1.61,-1.85z"/>
  <path class="fil0" d="M113.85 298.8c-2.16,0 -2.07,3.34 0.08,3.34 2.16,0 2.07,-3.34 -0.08,-3.34z"/>
  <path class="fil0" d="M104.86 288.48c2.05,0.16 2.01,-3.37 -0.08,-3.2l-0.37 0.03c-2.07,0.15 -1.93,2.99 0.07,3.14l0.38 0.03z"/>
  <path class="fil0" d="M48.92 264.97l-0.79 -0.07c-2.04,-0.11 -1.99,3.27 0.07,3.17l0.79 -0.09c1.53,-0.36 1.38,-2.66 -0.08,-3z"/>
  <path class="fil0" d="M68.81 266.69l-0.34 0.12c-1.58,0.56 -1.42,2.61 0.08,3.13l0.34 0.12c1.09,0.38 2.2,-0.67 2.17,-1.74 -0.02,-1.1 -1.17,-2 -2.25,-1.63z"/>
  <path class="fil0" d="M65.18 278.14l-0.35 -0.09c-1.08,-0.28 -2.14,0.59 -2.11,1.69 0.02,1.14 1.13,1.86 2.18,1.58l0.35 -0.09c1.58,-0.41 1.42,-2.71 -0.07,-3.1z"/>
  <path class="fil0" d="M76.44 274.41c-0.37,0.5 -0.51,0.93 -0.45,1.55 0.09,0.74 0.49,1.36 1.24,1.55 0.77,0.2 1.88,-0.3 1.97,-1.19 0.07,-0.56 0.19,-1.13 -0.19,-1.63 -0.57,-0.75 -1.89,-1.18 -2.58,-0.27z"/>
  <path class="fil0" d="M75.33 288.31c-2.05,0 -1.96,3.17 0.07,3.17 2.05,0 1.96,-3.17 -0.07,-3.17z"/>
  <path class="fil0" d="M155.7 300.67l0.01 -0.01 0.15 0.02 -0.16 -0.01zm-0.97 0.14c-0.6,0.26 -1.05,0.81 -1.03,1.59 0.03,1.24 1.14,1.79 2.24,1.62 1.3,-0.21 1.59,-1.39 1.41,-2.5 -0.19,-1.24 -1.78,-1.39 -2.62,-0.71z"/>
  <path class="fil0" d="M182.68 294.06l0.08 -0.36c0.2,-1.07 -0.53,-2.12 -1.68,-2.09 -1.18,0.03 -1.77,1.11 -1.57,2.17l0.07 0.36c0.43,1.58 2.7,1.41 3.09,-0.07z"/>
  <path class="fil0" d="M135.38 277.35c-2.04,0 -1.97,3.18 0.08,3.18 2.06,0 1.97,-3.18 -0.08,-3.18z"/>
  <path class="fil0" d="M128.28 290.23l0 -0.38c-0.03,-2 -3.07,-1.91 -3.09,0.08l-0.01 0.38c-0.04,1.99 3.13,1.92 3.1,-0.08z"/>
  <path class="fil0" d="M94.59 275.71c-2.23,0 -2.13,3.45 0.08,3.45 2.22,0 2.14,-3.45 -0.08,-3.45z"/>
  <path class="fil0" d="M222.27 298.89c-2.05,0 -1.97,3.16 0.07,3.16 2.04,0 1.96,-3.16 -0.07,-3.16z"/>
  <path class="fil0" d="M233.21 305.18c-2.22,0 -2.13,3.43 0.09,3.43 2.21,0 2.13,-3.43 -0.09,-3.43z"/>
  <path class="fil0" d="M202.48 293.15l-0.31 -0.72c-0.7,-1.08 -2.18,-0.96 -2.83,0.07l-0.3 0.74c-0.4,1.11 0.71,2.24 1.78,2.22 1.11,-0.03 2.06,-1.21 1.66,-2.31z"/>
  <path class="fil0" d="M169.11 299.68l-0.18 1.37 0.01 0.15 0.11 0.3 0.09 0.22 0.04 0.09 0.7 0.7 0.03 -0.07c0.93,0.48 2.2,0.24 2.46,-1.02 0.14,-0.64 -0.03,-1.29 -0.43,-1.8 -0.68,-0.85 -2.31,-1.21 -2.84,0.07z"/>
  <path class="fil0" d="M162.1 293.81l0.25 -0.04 0.07 -0.02c0.63,-0.17 1.13,-0.68 1.02,-1.47l0 -0.15c-0.01,-1.05 -0.83,-1.52 -1.63,-1.47 -0.59,-0.07 -1.15,0.2 -1.37,0.87l-0.02 0.07 -0.07 0.2 -0.02 0.14 0 0.09 -0.04 0.19 -0.01 0.14c-0.01,1.09 0.93,1.55 1.79,1.47l0.02 0z"/>
  <path class="fil0" d="M105.16 306.43c-2.07,0 -1.98,3.2 0.08,3.2 2.07,0 1.99,-3.2 -0.08,-3.2z"/>
  <path class="fil0" d="M84.77 297.34c-2.1,0 -2.02,3.25 0.08,3.25 2.09,0 2,-3.25 -0.08,-3.25z"/>
  <path class="fil0" d="M211.38 272.33c-8.76,-4.44 -18.8,-3.53 -28.23,-1.93 -6.08,1.03 -18.93,6.89 -24.4,2.78 -1.53,-1.15 -3.63,0.93 -2.09,2.2 4.65,3.81 12.22,1.56 17.5,0.45 12.28,-2.59 23.81,-5.05 36.03,-0.46 1.76,0.66 2.83,-2.21 1.19,-3.04z"/>
  <path class="fil0" d="M222.69 276.16c-0.61,-0.25 -1.15,-0.61 -1.74,-0.89l-0.79 -0.41 -0.61 -0.26 -0.51 -0.1c-0.67,-0.22 -1.45,0.18 -1.78,0.77 -0.33,0.59 -0.21,1.21 0.15,1.72 0.72,1.3 2.79,1.94 4.13,2.12 0.73,0.09 1.42,-0.1 1.79,-0.78 0.39,-0.71 0.18,-1.84 -0.63,-2.17z"/>
  <path class="fil0" d="M258.14 273.73c-5.91,-0.23 -12.04,1.8 -17.59,-1.06 -1.79,-0.92 -3.21,1.68 -1.5,2.72 5.96,3.64 12.64,1.52 19.17,1.46 2.03,-0.02 1.92,-3.04 -0.08,-3.12z"/>
  <path class="fil0" d="M124.13 258.67c-15.41,0.36 -29.87,1.34 -43.86,-6.39 -1.8,-1 -3.16,1.63 -1.51,2.74 10.42,7.01 22.75,7.86 34.97,7.57 12.17,-0.28 26.01,-2.86 35.82,6.04 1.56,1.41 3.53,-0.77 2.2,-2.3 -6.79,-7.89 -18.02,-7.89 -27.62,-7.66z"/>
  <path class="fil0" d="M197.6 262.27c1.99,-0.31 1.97,-3.49 -0.08,-3.19 -9.26,1.33 -18.57,2.52 -27.93,2.28 -4.58,-0.11 -10.06,-0.66 -13.84,-3.56 -1.56,-1.2 -3.71,0.99 -2.13,2.24 11.13,8.89 31.57,4.2 43.98,2.23z"/>
  <path class="fil0" d="M201.25 85.69c-0.81,-1.17 -2.2,-2.9 -3.86,-2.64 -1.74,0.26 -2.64,1.49 -4.2,2.1 -1.42,0.56 -2.72,-2.86 -4.63,-2.62 -2.45,0.31 -3.66,1.73 -5.44,3.3 -1.32,1.18 0.49,3.31 1.94,2.38 0.96,-0.62 2.99,-3.14 3.95,-1.74 0.75,1.11 1.91,1.7 3.19,1.97 1.16,0.24 2.28,-0.19 3.27,-0.74 1.71,-0.95 1.74,-1.86 3.37,-0.06 1.21,1.32 3.42,-0.5 2.41,-1.96z"/>
  <path class="fil0" d="M240.91 123.1c2.11,5.45 10.1,1.38 11.68,-2.51 0.64,-1.58 -1.34,-3.46 -2.61,-1.92 -0.36,0.43 -1.29,1.35 -2.33,2.15 0.17,-0.91 0.4,-1.81 0.79,-2.69 0.69,-1.58 -1.44,-3.53 -2.62,-1.92 -1.14,1.53 -2.11,3.37 -2.22,5.27 -1.1,-1.05 -3.31,0.01 -2.69,1.61z"/>
  <path class="fil0" d="M126.72 93.26c-1.35,0.19 -2.3,1.28 -3.58,1.44 -1.1,0.15 -1.93,-1.52 -3.29,-1.42 -1.9,0.15 -3.49,0.96 -4.66,2.5 -1.2,1.59 0.84,3.68 2.29,2.18 0.92,-0.93 1.85,-1.77 2.96,-0.81 0.78,0.67 1.79,0.77 2.78,0.81 0.92,0.03 1.86,-0.44 2.64,-0.9 1.27,-0.76 1.04,-0.59 2.23,0.6 1.5,1.49 3.51,-0.78 2.2,-2.32 -0.8,-0.94 -2.15,-2.28 -3.56,-2.08z"/>
  <path class="fil0" d="M83.5 117.51l-0.61 0.3 -0.39 -0.21 -1.36 -0.54c-0.91,-0.41 -1.28,-1.06 -2.18,-1.65 -1.24,-0.82 -2.54,0.38 -2.64,1.6l0.25 1.37c-0.86,-0.49 -1.63,-1.22 -2.34,-1.95 -1.21,-1.22 -3.3,0.46 -2.34,1.9 3.08,4.58 8.98,5.27 13.27,1.87 1.6,-1.27 0.2,-3.62 -1.67,-2.7z"/>
  <path class="fil0" d="M57.55 151.62l-1.25 -1.18c-0.48,-0.77 -1.4,-0.89 -2.17,-0.51 -0.88,0.45 -1.79,0.76 -2.54,1.43l-0.07 0.09c-0.82,-0.58 -1.75,-1.02 -2.6,-1.57 -0.61,-0.39 -1.43,-0.18 -1.91,0.3 -1.01,0.99 -1.81,2 -2.26,3.35 -0.56,1.67 2.21,2.76 2.88,1.13l0.85 -1.4c0.58,0.3 1.15,0.6 1.62,1.03 0.83,0.75 1.86,0.36 2.34,-0.35l1.04 -0.25 1.01 -0.56c0.51,0.49 1.07,0.95 1.39,1.61 0.78,1.61 3.37,0.38 2.83,-1.28 -0.24,-0.74 -0.64,-1.29 -1.18,-1.84z"/>
  <path class="fil0" d="M268.72 142.93c-1.01,0.01 -2.02,0.01 -3.01,0.02 -1.97,0.01 -1.89,3.03 0.07,3.04 1.02,0.01 2.02,0.01 3.03,0.01 1.99,0.01 1.91,-3.09 -0.08,-3.07z"/>
 </g>
</svg>
