
<svg xmlns="http://www.w3.org/2000/svg" xml:space="preserve" width="0.747331in" height="0.747327in" version="1.1" style="shape-rendering:geometricPrecision; text-rendering:geometricPrecision; image-rendering:optimizeQuality; fill-rule:evenodd; clip-rule:evenodd"
viewBox="0 0 787.87 787.87"
 xmlns:xlink="http://www.w3.org/1999/xlink"
 xmlns:xodm="http://www.corel.com/coreldraw/odm/2003">
 <defs>
  <style type="text/css">
   <![CDATA[
    .fil0 {fill:black;fill-rule:nonzero}
   ]]>
  </style>
 </defs>
 <g id="Layer_x0020_1">
  <metadata id="CorelCorpID_0Corel-Layer"/>
  <path class="fil0" d="M766.1 480.73l-0.49 1.61 -0.51 0.89c-1.17,2 -2.17,4.11 -3.32,6.11 -2.58,4.45 -5.21,9.05 -8.39,13.16 -9.84,12.67 -31.71,6.69 -40.65,21.7 -2.22,3.75 2.47,8.08 6.08,5.78 5.35,-3.44 9.78,-6.4 15.99,-8.2 5.81,-1.69 11.93,-2.68 17.29,-5.61 2.58,-1.4 4.69,-2.94 6.56,-4.64 -49.77,153.97 -194.45,265.61 -364.74,265.61 -180.33,0 -331.96,-125.24 -372.52,-293.31 11.12,-0.09 18.63,-8.31 28.76,-14.59 16.88,-10.47 45.95,1.58 58.98,14.24 9.53,9.27 20.09,23.72 34.89,21.67 20.02,-2.76 34.13,14.39 53.05,17.92 4.3,0.81 7.38,-5.55 2.94,-7.51 -15.41,-6.84 -29.96,-17.38 -46.51,-21.25 -1.8,-0.28 -3.62,-0.16 -5.43,0.39 -11.47,1.45 -11.31,1.16 -20.27,-5.74 -7.99,-6.15 -14.3,-14.05 -22.5,-19.99 -5.24,-3.82 -8.92,-5.84 -15.23,-6.91 -8.2,-1.41 -15.49,-9.09 -24.23,-7.99 -17.24,2.18 -30.03,19.49 -46.54,20.62 -5.61,-26.05 -8.59,-53.08 -8.59,-80.77 0,-34.73 4.65,-68.41 13.36,-100.4 4.15,2.98 8.21,6.06 12.58,8.74 7.48,4.61 17.19,5.87 25.02,10.5 16.12,9.48 16.78,29.18 34.36,36.39 6.35,2.61 8.2,13.12 12.43,17.92 5.07,5.77 11.67,9.99 17.94,14.42 5.39,3.84 11.09,6.5 17.6,7.53 4.48,0.72 7.28,3.98 11.78,5.94 4.51,1.99 8.02,-3.05 4.94,-6.72 -1.93,-2.3 -4.74,-6.43 -7.76,-8.71 1.71,-19.36 1.78,-40.39 -0.22,-59.58 11.85,0.05 23.7,0.07 35.55,0.07 -0.89,10.4 -1.46,21.04 -1.68,31.77 -2.9,-1.13 -5.67,-2.42 -8.62,-4.03 -5.07,-2.78 -9.17,-4.08 -14.89,-4.03 -4.13,0.06 -5.08,6.82 -0.82,7.36 5.23,0.69 10.72,5.11 15.18,7.66 2.87,1.63 5.9,3.13 9.03,3.78 -0.06,15.04 0.5,30.09 1.48,44.68 -2.5,1.93 -4.94,3.91 -7.34,5.94 -2.43,-5.9 -6.25,-11.8 -13.09,-12.3 -3.2,-0.22 -5.14,4.62 -2.54,6.6 4.29,3.2 6.25,6.95 7.98,12l0.16 0.38c-5.11,4.8 -9.87,9.88 -14.19,15.22 -4.26,-4.25 -8.04,-8.64 -13.6,-11.35 -4.1,-2.02 -7.18,2.82 -4.47,6.08 7.57,9.12 16.14,18.93 27.05,23.95 4.45,2.02 9.08,2.61 13.29,5.3 5.91,3.79 8.49,10.38 14.85,13.57 4.22,2.15 7.94,-3.12 4.77,-6.53 -6.79,-7.28 -11.57,-15.9 -21.61,-19.18 -5.64,-1.83 -10.09,-3.6 -14.45,-6.74 3.66,-4.04 7.47,-7.94 11.42,-11.68 1.51,3.48 3.74,6.03 6.75,8.45l1.66 1.29 2.39 1.65c12.4,8.4 13.1,19.94 21.32,30.79 1.22,1.58 3.31,2.86 5.39,2.03 11.57,-4.64 13.53,7.98 20.63,12.75 10.15,6.78 21.47,6.28 32.21,11.54 5.08,2.47 8.92,-4.61 4.2,-7.61 -11.74,-7.53 -26.12,-3.59 -35.38,-16.36 -3.43,-4.72 -8.29,-11.86 -15.07,-11.55l-6.6 0.88c-3.63,-4.54 -4.09,-11.27 -7.06,-16.19 -3.5,-5.87 -8.75,-9.77 -13.85,-13.83 9.33,-10.11 19.68,-19.21 30.87,-27.32 4.11,2.53 8.83,3.64 14,4.68 12.09,2.49 21.22,9.59 31.85,15.3 3.71,1.98 7.8,-3.24 4.44,-6.06 -7.57,-6.38 -15.54,-12.24 -24.07,-17.32 -4.59,-2.74 -9.94,-3.24 -15.21,-4.13 46.11,-29.58 103.35,-44.2 155.84,-46.39 43.31,-1.78 86.11,6.28 125.69,22.84 -5.93,2.75 -11.56,6.06 -15.78,8.13l-1.1 0.53c-24.89,-5.89 -48.04,-12.24 -74.16,-11.47 -15.62,0.46 -30.76,6.13 -45.96,9.3 -16.37,3.43 -32.91,6.47 -49.04,10.82 -4.04,1.09 -3.09,7.97 1.18,7.4 13.05,-1.74 25.8,-5.23 38.57,-8.27 18.83,-4.5 36.37,-5.35 55.6,-5.54 18.73,-0.2 37.03,4.03 55.47,6.2 -7.15,3.03 -14.39,5.78 -21.99,8.08 -13.54,4.1 -27.57,5.3 -41.04,9.74 -12.51,4.07 -22.55,9.53 -35.89,11.36 -17.47,2.37 -31.25,-4.03 -46.23,-12.15 -20.67,-11.24 -45.27,-20.56 -69.04,-21.65 -4.52,-0.22 -5.25,6.97 -0.86,7.86 27.28,5.54 50.9,14.35 75.1,27.93 19.4,10.88 40.81,10.31 61.64,3.7 12.12,-3.82 22.17,-9.77 35.03,-11.71 12.39,-1.88 24.09,-4.55 36.08,-8.43 11.3,-3.69 21.69,-9.27 32.3,-14.54 5.52,-2.75 15.71,-9.56 23.91,-11.09 9.05,4.32 17.91,9.05 26.53,14.28 6.23,3.75 12.7,7.86 19.14,12.27 -5.8,2.18 -10.63,5.52 -16.16,9.75 -10.92,8.35 -23.04,10.14 -36.24,12.41 -4.19,0.76 -2.87,7.35 1.19,7.28 9.9,-0.25 21.91,-1.27 30.63,-6.35 10.09,-5.86 17.67,-14.16 29.08,-17.09 9.55,7 18.63,14.7 26.29,23.02 -10.92,5.39 -23.34,6.96 -33.65,13.53 -9.37,6.02 -15.01,15.37 -25.01,20.97 -4.04,2.22 -0.99,8.18 3.21,7.1 9.99,-2.55 15.93,-10.46 22.71,-17.64 9.5,-10.07 25.62,-10.51 37.1,-17.82l1.47 -1.76c2.74,-0.37 5.05,-4.28 2.59,-7.14 -7.39,-8.65 -15.49,-16.68 -24.14,-24.1 14.29,9.53 28.38,20.35 39.8,32.4 -7.36,6.08 -12.85,13.6 -18.26,21.62 -10.68,15.87 -28.1,17.6 -42.04,28.92 -3.67,2.98 -0.39,8.87 3.95,6.43 10.12,-5.64 21.23,-9.6 31.64,-14.67 10.28,-5.01 16,-18.73 22.4,-27.31 2.66,-3.57 6.03,-6.57 9.68,-9.31l2.73 -2.02c7.92,-5.46 16.91,-9.99 23.95,-15.93 9.55,-8.02 8.2,-24.64 21.36,-29.56 3.88,-1.44 3.28,-7.69 -1.2,-7.44 -7.25,0.41 -12.51,2.83 -16.55,9.16 -3,4.74 -5.42,9.74 -7.99,14.72 -4.79,9.34 -14.39,14.89 -23,20.57 -7.96,-8.83 -16.57,-17.06 -25.74,-24.72 1.54,-20.53 2.18,-42.08 1.6,-63.31l3.28 -1.95c3.54,-2.49 1.17,-9.04 -3.27,-7.26l-0.32 0.1c-0.28,-6.43 -0.73,-12.77 -1.27,-19.05 11.87,-0.01 23.7,-0.07 35.55,-0.17 -0.13,1.41 -0.29,2.83 -0.41,4.25l-1.51 1.34c-3.63,2.92 -7.61,5.23 -11.39,7.95 -3.28,2.37 -1.17,8.14 3.05,6.74 3.08,-1.04 6.13,-2.61 9.11,-4.48 -0.77,16.33 -0.29,33.14 1.37,48.62 -4.03,3.18 -8.45,5.84 -13.58,8.4 -6.44,3.23 -8.53,7.54 -13.5,12.53 -3.28,3.28 1.4,9.36 5.21,6.41 3.79,-2.93 9.75,-9.72 12.84,-11.53 4.69,-2.79 10.03,-4.07 14.28,-7.65 12.83,-10.8 23,-25.89 33.33,-39.05 10.22,-13.06 23.74,-21.18 37.51,-30.01 2.42,-1.55 4.82,-3.27 7.23,-5.06l1.77 -0.06c2.66,-0.07 3.89,-2.12 3.79,-4.14 7.99,-6.06 16.22,-12.21 25.17,-15.17 2.4,9.43 4.45,19.01 6.15,28.7 -4.01,1.54 -7.4,3.94 -9.67,7.53 -9.96,-2.03 -20.95,1.81 -22.87,13.02 -0.82,4.69 5.71,6.33 7.14,1.79 2.49,-7.79 10.19,-8.16 16.87,-5.74 1.61,0.59 4.06,-0.46 4.72,-2.05 1.2,-2.87 2.99,-4.69 5.17,-6.12 1.59,10.38 2.72,20.89 3.45,31.52 -7.58,0.57 -15.39,9.21 -19.96,14.07 -6.74,7.25 -13.29,12.28 -21.33,18.05 -7.55,5.43 -12.62,15.73 -20.6,20.03 -4.23,2.27 -1.04,8.86 3.4,7.53 5.05,-1.52 7.75,-3.59 10.88,-7.85 5.64,-7.59 12.74,-13.24 20.75,-18.11 6.3,-3.82 18.96,-23.5 27.42,-23.4 0.21,5.25 0.32,10.5 0.32,15.81 0,29.36 -3.31,57.94 -9.59,85.44l-1.43 1.35zm-622.35 -102.5l-1.1 -0.03c-5.07,-0.73 -10.95,-5.5 -15.2,-8.3 -7.96,-5.26 -13.4,-10.84 -17.59,-19.47 -2.75,-5.71 -6.02,-9.05 -11.68,-11.36 -8.07,-3.28 -10.62,-11.99 -13.97,-19.74 19.97,0.29 39.97,0.47 59.95,0.59 -1.95,18.83 -2.02,39.36 -0.41,58.32zm50.31 40.3c-2.53,2.76 -4.98,5.58 -7.31,8.48 -1.4,-1.37 -2.69,-2.93 -3.84,-4.59 2.05,-1.79 4.13,-3.53 6.24,-5.24 1.03,1.73 3.19,2.15 4.91,1.36zm23.09 -21.14c-7.54,5.86 -14.61,12.17 -21.09,18.99l0.35 -1.33 0.26 -3.78c6.56,-4.95 13.41,-9.56 20.47,-13.88zm15.11 -26.14l-2.9 -0.93c-5.4,-1.66 -10.82,-2.93 -16.09,-4.98 -3.03,-1.19 -5.99,3.1 -4.1,5.59 3.01,3.97 7.88,5.45 12.46,6.78 2.65,0.79 5.11,1.76 7.57,2.75 -4.95,2.71 -9.84,5.51 -14.67,8.43 -5.71,3.54 -11.47,7.32 -17.12,11.31 1.49,-26.41 1.46,-54.07 -0.76,-80.14 12.14,0 24.29,-0.01 36.45,-0.04 -1.71,16.52 -1.95,34.36 -0.83,51.23zm43.54 -11.89c-11.41,4.16 -22.58,8.93 -33.49,14.27 1.29,-17.63 1.22,-36.4 -0.61,-53.63 11.48,-0.04 22.97,-0.09 34.45,-0.15 -0.53,6.49 -0.31,13.02 -0.37,19.52 -0.07,6.64 -0.31,13.34 0.01,19.99zm38.2 -11.49c-9.52,2.28 -18.95,4.96 -28.24,8.05 0.86,-11.9 0.66,-24.61 -0.78,-36.09 9.77,-0.05 19.53,-0.09 29.29,-0.15 -0.37,4.65 -0.22,9.37 -0.27,14.02 -0.07,4.72 -0.2,9.45 0,14.16zm9.2 -28.23c10.65,-0.03 21.28,-0.09 31.89,-0.12 -0.28,3.47 -0.15,7.03 -0.2,10.47 -0.05,3.49 -0.16,7.01 -0.05,10.51 -10.51,1.26 -20.96,3.02 -31.32,5.21 0.05,-3.03 -0.03,-6.09 -0.04,-9.14 -0.02,-5.59 0.26,-11.32 -0.28,-16.94zm73.94 18.28c-2.47,0.01 -4.96,0.03 -7.44,0.07 -8.43,0.21 -16.87,0.72 -25.27,1.51 0.03,-2.4 -0.05,-4.82 -0.06,-7.23 -0.02,-4.19 0.22,-8.54 -0.16,-12.77 11.03,-0.05 22.04,-0.06 33.06,-0.07 -0.21,2.78 -0.1,5.62 -0.15,8.38 -0.06,3.35 -0.22,6.77 0.01,10.12zm9.4 -18.52c2.5,-0.01 5.03,-0.01 7.54,-0.01 8.49,-0.02 16.98,0.04 25.51,0.06 -0.29,3.5 -0.16,7.09 -0.22,10.55 -0.04,3.41 -0.19,6.87 -0.06,10.28 -10.95,-1.23 -21.87,-2.01 -32.72,-2.26 0.15,-2.75 0.06,-5.55 0.04,-8.33 -0.03,-3.32 0.17,-6.85 -0.09,-10.29zm42.14 0.07c10.62,0.03 21.25,0.09 31.86,0.16 -0.41,4.67 -0.22,9.41 -0.28,14.08 -0.04,4.5 -0.19,9.01 -0.01,13.5 -10.41,-2.36 -20.91,-4.29 -31.42,-5.74 0.13,-3.06 0.03,-6.13 0.02,-9.21 -0.02,-4.19 0.22,-8.55 -0.16,-12.8zm69.77 38.63c-9.46,-3.27 -19.09,-6.13 -28.82,-8.62 0.24,-4.28 0.13,-8.57 0.12,-12.88 -0.03,-5.58 0.25,-11.31 -0.26,-16.91 9.8,0.07 19.57,0.13 29.39,0.19 -0.56,6.49 -0.34,13.02 -0.41,19.52 -0.04,6.23 -0.25,12.49 -0.01,18.72zm32.8 5.67c3.25,0.24 6.41,-0.12 9.53,-0.76 0.19,4.51 0.42,8.99 0.79,13.38 -10.88,-5.56 -22.11,-10.51 -33.62,-14.86 1.39,-13.39 1.38,-28.32 -0.26,-41.58 11.45,0.07 22.9,0.13 34.35,0.19 -1.13,10.76 -1.61,22.08 -1.48,33.36 -3.46,1.18 -6.91,2.27 -10.5,2.98 -4.39,0.93 -2.68,7 1.19,7.29zm55.35 40.88c-11.35,-8.67 -23.37,-16.46 -35.98,-23.43 0.69,-7.06 1.2,-14.33 1.41,-21.7 3.67,-1.42 7.32,-2.93 10.97,-4.17 7.32,-2.46 15.03,-2.39 22.42,-3.49 -0.39,17.66 0.09,35.52 1.19,52.79zm-0.88 -62.26c-7.04,1.39 -14.26,2.02 -21.39,3.42 -4.16,0.79 -8.16,2.1 -12.17,3.5 -0.02,-9.88 -0.5,-19.72 -1.48,-29.15 12.14,0.07 24.28,0.09 36.42,0.09 -0.63,7.28 -1.08,14.66 -1.38,22.14zm54.57 -14.64c2.04,-1.95 3.97,-3.94 5.67,-5.9l1.01 -1.93c16.96,-0.19 33.88,-0.53 50.81,-0.95 -8.46,5.07 -17.09,9.84 -24.7,16.14 -12.49,10.37 -21.26,26.06 -31.23,38.7l-1.73 2.05c1.22,-15.71 1.35,-32.33 0.17,-48.1zm-621.63 -77.45c8.61,1.13 18.36,-0.31 26.59,-0.79 5.07,-0.29 4.78,-7.5 -0.2,-7.79 -6.91,-0.39 -14.83,-1.45 -22.28,-1.11 5.52,-12.63 11.71,-24.92 18.52,-36.81 6.06,3.25 10.12,8.58 12.02,15.55 1.19,4.36 7.73,3.15 7.7,-1.25 -0.07,-10.06 -6.66,-17.86 -15.26,-21.86 51.31,-84.84 134.55,-148.28 232.93,-173.54 -5.05,6.57 -8.3,14.24 -7.1,22.48 -4.52,0.44 -8.86,2.2 -12.3,5.74 -4.66,4.8 -5.91,12.19 -4.58,18.74 -1.95,0.15 -3.9,0.34 -5.83,0.6 -3.79,0.51 -5.32,6.72 -0.81,7.35 13.56,1.87 27.86,0.73 41.54,0.22 4.96,-0.19 4.72,-7.5 -0.2,-7.69 -8.57,-0.32 -17.44,-0.94 -26.21,-0.83 -0.48,-4.15 -0.64,-8.01 1.8,-11.92 3.12,-4.96 10.35,-4.48 15.24,-3.54 4.86,0.94 6.46,-5.86 1.85,-7.41l-2.55 -0.69c-1.64,-10.54 4.89,-18.95 12.2,-26.12 26.48,-5.8 53.98,-8.89 82.17,-8.89 3.27,0 6.5,0.03 9.72,0.12 -2.5,3.25 -3.96,7.2 -3.85,11.79 -10.6,-1.57 -21.83,5.21 -22.84,18.07 -0.38,4.89 6.65,4.95 8.04,0.89 3.48,-10.34 13.27,-14.15 22.01,-6.57 3.1,2.74 8.71,-1.23 5.89,-4.77 -1.64,-2.05 -3.53,-3.63 -5.58,-4.86l0.06 -0.38c-0.34,-6.37 3.1,-10.55 7.86,-13.69 46.01,2.53 89.86,13.22 130.17,30.63 3.96,4.3 5.7,10.09 4.22,15.65 -1.36,-0.28 -2.75,-0.44 -4.2,-0.44 -4.3,0.05 -4.72,6.13 -0.81,7.29 8.84,2.64 13.66,8.84 14.86,17.97 0.67,5.03 7.42,4.86 7.84,-0.19 0.21,-2.57 -0.06,-5.11 -0.71,-7.56 2.52,-1.81 5.75,-2.59 8.8,-2.87 4.89,-0.44 4.67,-7.32 -0.19,-7.57 -4.13,-0.22 -8.32,0.97 -11.74,3.24 -1.69,-2.58 -3.81,-4.84 -6.31,-6.56 1.76,-4.25 2,-8.86 0.91,-13.21 48.98,23.31 92.28,56.73 127.15,97.52 -13.56,-1.04 -28.2,-1.39 -40.66,1.47 -3.64,0.85 -3.31,6.4 0.18,7.19 11.02,2.55 23.36,1.48 34.63,1.29 4.55,-0.07 9.09,-0.21 13.62,-0.56 8.93,11.13 17.26,22.79 24.92,34.88 -6.34,-0.87 -12.75,2.02 -17.84,6.43 -3.47,-4.11 -8.52,-6.84 -14,-6.57 -5.08,0.22 -4.62,7.19 0.17,7.67 3.66,0.37 5.93,2.68 8.23,5.1l-2.17 3.5c-2.35,4.52 3.95,7.69 6.75,3.73 4.38,-6.13 12.63,-13.19 20.69,-11.11l3.15 -0.66c9.91,16.56 18.62,33.92 25.99,51.98 -13.66,-0.97 -27.94,-1.1 -41.38,0.67 -3.81,0.51 -5.3,6.77 -0.79,7.36 14.83,1.95 30.59,1.73 45.52,0.51 3.98,10.44 7.51,21.06 10.57,31.89 -11,2.77 -20.02,10.76 -28.64,17.85l-3.18 2.42c-105.56,-3.13 -211.52,-0.72 -317.13,-0.75 -112.06,-0.03 -224.19,-1.63 -336.23,0.12 -4.42,-3.53 -10.7,-6.28 -14.51,-9.05 -8.32,-5.99 -18.5,-7.98 -26.77,-14.09 -3.22,-2.39 -5.83,-4.11 -8.74,-5.2 3.25,-10.53 6.96,-20.88 11.07,-31zm355.24 -250.29c-178.42,0 -329.49,119.25 -377.76,282.23l-0.61 2.05c-10.12,34.84 -15.55,71.63 -15.55,109.68 0,217.22 176.72,393.92 393.92,393.92 217.22,0 393.95,-176.7 393.95,-393.92 0,-217.23 -176.73,-393.95 -393.95,-393.95z"/>
  <path class="fil0" d="M117.39 565.12l-0.35 -0.61 -3.05 -1.8 -12.12 -0.16 5.87 -10.6 -0.01 -3.53 -0.35 -0.6c-1,-1.71 -3.19,-2.31 -4.89,-1.3l-25.13 14.53 -1.66 2.18 0.35 2.72 0.32 0.54c0.99,1.71 3.19,2.3 4.9,1.32l12.93 -7.48 -2.53 4.6 0.03 3.52 3.03 1.8 5.24 0.07 -12.93 7.47c-1.71,1.01 -2.28,3.19 -1.3,4.88l0.32 0.59 2.17 1.66 0.92 0.13 1.8 -0.49 25.13 -14.53c1.69,-0.98 2.28,-3.16 1.3,-4.88z"/>
  <path class="fil0" d="M110.3 602.4l-0.75 -0.06 -2.71 -1.67 -0.75 -3.1 1.69 -2.72 10.45 -7.54 2.33 -0.79 0.79 0.06 2.71 1.67 0.73 3.13 -1.67 2.69 -10.47 7.54 -2.36 0.79zm17.38 -2c2.64,-1.92 4.29,-4.6 4.82,-7.78 0.51,-3.22 -0.22,-6.31 -2.13,-8.9 -1.91,-2.68 -4.54,-4.32 -7.77,-4.84 -3.25,-0.54 -6.27,0.19 -8.89,2.11l-10.47 7.54c-2.66,1.93 -4.29,4.52 -4.82,7.76 -0.51,3.2 0.22,6.28 2.13,8.9 1.92,2.65 4.6,4.3 7.77,4.84l2.02 0.15c2.49,0 4.8,-0.76 6.9,-2.27l10.44 -7.53z"/>
  <path class="fil0" d="M156.09 615.65l-0.43 -0.51 -2.46 -1.19 -2.59 0.91 -10.45 9.26 5.99 -16.94 -0.7 -3.57 -0.47 -0.51 -2.46 -1.22 -2.59 0.91 -21.73 19.24 -1.19 2.46 0.91 2.62 0.39 0.46c1.32,1.46 3.57,1.58 5.05,0.29l10.47 -9.27 -5.96 16.97 0.67 3.54 0.47 0.53 2.46 1.2 0.22 0 2.36 -0.89 21.73 -19.24c1.48,-1.33 1.62,-3.57 0.31,-5.03z"/>
  <path class="fil0" d="M174.21 643.66l2.57 0.95 2.49 -1.15 0.46 -0.48c1.33,-1.44 1.23,-3.71 -0.21,-5.07l-11.85 -10.92 -2.58 -0.95 -2.46 1.14 -0.46 0.5c-1.34,1.44 -1.26,3.71 0.21,5.04l3.06 2.83 -17.06 18.43c-1.33,1.45 -1.25,3.71 0.21,5.05l0.48 0.44 2.42 0.97 0.15 0 2.48 -1.16 17.05 -18.45 3.05 2.83z"/>
  <path class="fil0" d="M187.29 671.1l-2.52 -1.9 4.11 -2.86 -1.6 4.76zm11.44 -17.22l-0.56 -0.43 -4.19 -0.09 -25.08 17.29 -1.48 2.37 0.64 2.69 0.38 0.53c1.16,1.52 3.32,1.91 4.88,0.82l4.69 -3.21 6.68 5.02 -1.8 5.38c-0.6,1.81 0.35,3.81 2.12,4.48l0.6 0.24 1.26 0.23 1.54 -0.38 1.86 -2.06 9.69 -28.89c0.5,-1.47 -0.02,-3.06 -1.23,-4z"/>
  <path class="fil0" d="M232.65 676.36l-0.56 -0.37c-1.7,-1.01 -3.89,-0.47 -4.9,1.21l-7.25 11.95 0.68 -17.97 -1.73 -3.19 -0.57 -0.37c-1.69,-1.01 -3.87,-0.48 -4.91,1.2l-15.07 24.82c-1.01,1.67 -0.48,3.88 1.19,4.91l0.53 0.34 2.72 0.41 2.21 -1.61 7.25 -11.96 -0.67 17.96 1.71 3.21 0.6 0.35 1.84 0.51 0.83 -0.1 2.21 -1.61 15.08 -24.8 0.41 -2.72 -1.61 -2.17z"/>
  <path class="fil0" d="M254.5 687.65l-0.59 -0.27c-1.79,-0.86 -3.91,-0.1 -4.76,1.69l-12.5 26.19 -0.13 2.72 1.83 2.05 0.59 0.27 1.54 0.35c1.33,0 2.62,-0.76 3.24,-2.02l12.49 -26.22 0.15 -2.72 -1.84 -2.03z"/>
  <path class="fil0" d="M314.44 708.88c-3.28,-0.82 -6.31,-0.29 -8.82,1.51 -2.05,1.49 -3.4,3.52 -4.03,5.96 -0.76,3.12 -0.18,6.13 1.7,8.7l0.31 0.35 1.57 1.55 1.49 1.35 4.13 3.53 1.6 1.51 0.73 0.9 0.24 1.73 -1.07 1.47 -2 0.32c-0.13,-0.04 -1.71,-0.51 -7.1,-4.7 -1.35,-1.03 -3.21,-1 -4.48,0.1l-0.5 0.4 -1.26 2.43 0.82 2.62c1.3,1.52 2.93,2.91 4.84,4.13 1.93,1.23 3.9,2.09 5.83,2.56l2.64 0.32c2.08,0 4.03,-0.62 5.79,-1.86 2.09,-1.52 3.47,-3.52 4.08,-5.92 0.67,-2.74 0.57,-6.88 -3.85,-10.88 -1.47,-1.25 -2.74,-2.34 -3.84,-3.25l-2.74 -2.3c-1.55,-1.33 -1.56,-2.3 -1.36,-3.16l1.04 -1.52 2.37 -0.26c0.47,0.12 1.98,0.64 5.81,3.13 1.37,0.88 3.15,0.72 4.33,-0.37l0.47 -0.43 1.19 -2.61 -1.09 -2.61c-2.31,-2.25 -5.28,-3.82 -8.84,-4.7z"/>
  <path class="fil0" d="M353.99 716.28l-13.09 -1.86 -2.62 0.67 -1.41 2.36 -4.19 29.36 0.68 2.64 2.36 1.41 13.07 1.86 0.51 0.05c1.74,0 3.27,-1.27 3.53,-3.06l0.09 -0.6 -0.68 -2.68 -2.36 -1.4 -8.92 -1.27 1.17 -8.21 5.74 0.79 2.66 -0.67 1.39 -2.36 0.09 -0.61c0.27,-1.98 -1.08,-3.78 -3.04,-4.06l-5.74 -0.82 0.73 -5.05 8.92 1.27 2.64 -0.68 1.4 -2.36 0.09 -0.66c0.27,-1.95 -1.08,-3.76 -3.03,-4.04z"/>
  <path class="fil0" d="M390.2 719.12l-0.7 -0.03c-1.38,-0.09 -2.46,0.54 -3.15,1.58l-6.65 10.14 -5.81 -10.65 -2.98 -1.86 -0.69 -0.03 -2.58 0.95 -1.14 2.46 -1.22 29c-0.09,1.99 1.45,3.65 3.43,3.74l0.66 0.03 2.55 -0.95 1.17 -2.49 0.62 -14.9 2.5 4.59 3.02 1.88 3.12 -1.61 2.9 -4.39 -0.63 14.93 0.94 2.55 2.49 1.18 0.66 0 0.15 0.02c1.91,0 3.5,-1.52 3.57,-3.44l1.2 -28.98c0.07,-1.99 -1.46,-3.64 -3.41,-3.72z"/>
  <path class="fil0" d="M416.56 733.26c-0.73,0.59 -1.84,0.9 -3.2,1l-3.76 0.2 -0.47 -8.29 4.29 -0.23 2.72 0.63c0.66,0.38 1.41,1.11 1.54,3.26 0.13,2.18 -0.54,2.99 -1.12,3.43zm3.63 -13.39c-2.18,-1.3 -4.8,-1.89 -7.77,-1.73l-7.95 0.47 -2.47 1.19 -0.88 2.58 1.67 29.3c0.12,1.89 1.67,3.35 3.56,3.35l0.22 0 0.63 -0.03 2.46 -1.18 0.89 -2.59 -0.51 -8.97 3.76 -0.22c2.93,-0.17 5.45,-1.03 7.5,-2.57 2.06,-1.55 4.48,-4.59 4.17,-10.07 -0.32,-5.4 -3.03,-8.16 -5.27,-9.52z"/>
  <path class="fil0" d="M458.91 742.92l-2.65 -0.63 -8.89 1.39 -1.3 -8.21 5.71 -0.92c1.93,-0.29 3.26,-2.12 2.97,-4.07l-0.1 -0.64 -1.44 -2.33 -2.66 -0.66 -5.71 0.92 -0.79 -5.02 8.87 -1.42c1.96,-0.31 3.28,-2.14 2.99,-4.09l-0.12 -0.66 -1.42 -2.33 -2.66 -0.65 -13.05 2.08 -2.35 1.44 -0.63 2.65 4.66 29.28 1.43 2.33 2.1 0.69 0.56 -0.06 13.03 -2.08c1.95,-0.28 3.28,-2.11 2.99,-4.06l-0.09 -0.63 -1.45 -2.33z"/>
  <path class="fil0" d="M483.87 722c-0.63,0.69 -1.61,1.25 -2.96,1.58l-3.63 0.97 -2.12 -8.04 3.63 -0.95 3.34 -0.05c0.72,0.25 1.59,0.81 2.14,2.88 0.57,2.13 0.07,3.05 -0.39,3.6zm5.74 5.34c2.59,-2.74 3.38,-6.51 2.21,-10.94 -1.39,-5.24 -4.61,-7.38 -7.06,-8.24 -2.4,-0.85 -5.1,-0.91 -7.95,-0.16l-7.72 2.05 -2.18 1.67 -0.38 2.71 7.51 28.35c0.43,1.59 1.88,2.68 3.46,2.68l0.92 -0.13 0.61 -0.16c1.91,-0.5 3.05,-2.46 2.54,-4.36l-2.29 -8.72 3.34 -0.86 7.83 8.98c1.27,1.47 3.47,1.62 4.95,0.42l0.49 -0.39 1.32 -2.47 -0.86 -2.64 -6.74 -7.78z"/>
  <path class="fil0" d="M561.62 709.74l-2.08 -1.81 -2.74 0.19 -8.05 4 -11.17 -22.52 -2.08 -1.79 -2.73 0.21 -0.56 0.25c-1.77,0.88 -2.49,3.03 -1.61,4.79l13.05 26.26 2.06 1.81 1.13 0.18 1.59 -0.34 11.83 -5.91c1.76,-0.85 2.47,-3 1.59,-4.76l-0.25 -0.54z"/>
  <path class="fil0" d="M571.96 670.26l-2.26 -1.62 -2.69 0.48 -0.54 0.35c-1.69,1.03 -2.2,3.26 -1.13,4.94l15.45 24.57 2.22 1.57 0.81 0.1 1.91 -0.56 0.54 -0.35c1.67,-1.05 2.18,-3.25 1.13,-4.92l-15.43 -24.55z"/>
  <path class="fil0" d="M612.62 671.04l-1.49 2.13 -3.28 2.56 -5.12 -6.57 3.63 -2.84 2.64 -0.73c0.71,0 1.66,0.19 2.87,1.73 1.27,1.67 1.13,2.76 0.76,3.73zm-10.35 -12.14l-0.41 1.05 -3.92 3.04 -3.13 -4.01 3.31 -2.58 1.77 -0.82 0.22 -0.01 1.73 1.17 0.44 2.15zm7.98 -1.16c-0.1,-2 -0.86,-3.97 -2.27,-5.79 -2.69,-3.45 -5.75,-4.18 -7.85,-4.18l-1.2 0.09c-1.98,0.25 -3.88,1.05 -5.62,2.42l-6.62 5.16c-1.54,1.21 -1.83,3.45 -0.62,5.02l18.22 23.38 2.83 1.37 2.18 -0.75 6.63 -5.17c1.71,-1.33 3.04,-3.15 3.95,-5.42 1.54,-3.88 0.89,-7.79 -1.87,-11.36 -2.62,-3.35 -5.51,-4.46 -7.76,-4.76z"/>
  <path class="fil0" d="M647.73 645.67l-2.5 -1.12 -2.57 1 -6.52 6.2 -5.74 -6.01 4.19 -4c1.43,-1.38 1.48,-3.63 0.13,-5.07l-0.47 -0.46 -2.47 -1.1 -2.56 0.98 -4.19 3.98 -3.53 -3.69 6.53 -6.21 1.11 -2.49 -1.01 -2.54 -0.46 -0.49c-1.36,-1.4 -3.6,-1.45 -5.03,-0.1l-9.58 9.11c-1.41,1.36 -1.47,3.62 -0.12,5.05l20.47 21.44 2.51 1.14 0.07 0 2.47 -1.01 9.56 -9.11c1.42,-1.38 1.47,-3.63 0.12,-5.07l-0.42 -0.44z"/>
  <path class="fil0" d="M653.97 613.08l-1.52 2.97 -2.44 2.87 -6.33 -5.4 2.46 -2.87 2.73 -1.92 3.41 1.16c1.65,1.44 1.78,2.49 1.7,3.19zm17.71 3.72l-9.97 -2.55c0.59,-3.76 -0.89,-7.31 -4.35,-10.29 -3.26,-2.76 -6.94,-3.7 -10.5,-2.76 -2.47,0.64 -4.72,2.12 -6.65,4.39l-5.2 6.03c-1.29,1.49 -1.11,3.76 0.39,5.07l22.26 19.06 2.33 0.89 2.72 -1.26 0.4 -0.45 0.88 -2.62 -1.25 -2.44 -6.85 -5.87 2.26 -2.61 11.57 2.96c1.86,0.47 3.79,-0.61 4.32,-2.47l0.18 -0.59 -0.31 -2.77 -2.23 -1.71z"/>
  <path class="fil0" d="M665.89 578.51c-1.62,-1.12 -3.85,-0.72 -4.98,0.88l-0.38 0.54 -0.59 2.65 1.48 2.33 23.81 16.6 2.03 0.65 2.93 -1.52 0.37 -0.51 0.59 -2.69 -1.45 -2.31 -23.81 -16.61z"/>
  <path class="fil0" d="M94.89 245.79l41.2 13.21 1.11 0.17 3.08 -1.77 0.49 -0.83c0.79,-1.33 0.63,-3.02 -0.4,-4.18l-11.7 -13.25 17.26 3.7c1.51,0.32 3.06,-0.37 3.85,-1.68l0.5 -0.85c0.83,-1.44 0.57,-3.28 -0.66,-4.44l-31.76 -29.43 -2.56 -0.95 -2.49 1.14 -0.64 0.71c-1.35,1.45 -1.23,3.7 0.2,5.03l21.03 19.5 -16.44 -3.53c-1.51,-0.34 -3.06,0.35 -3.84,1.69 -0.78,1.33 -0.61,3.01 0.41,4.17l11.14 12.62 -27.31 -8.74c-1.87,-0.61 -3.89,0.41 -4.51,2.3l-0.28 0.88 0.2 2.74 2.11 1.78z"/>
  <path class="fil0" d="M164.24 214.77l2.33 0.86 2.72 -1.25 12.56 -14.64 0.83 -2.59 -1.23 -2.44 -0.67 -0.59c-1.51,-1.27 -3.76,-1.1 -5.03,0.39l-9.64 11.23 -11.74 -10.07 6.57 -7.67 0.86 -2.59 -1.25 -2.44 -0.72 -0.61c-1.48,-1.27 -3.76,-1.12 -5.05,0.38l-6.57 7.67 -8.13 -6.99 9.62 -11.21 0.85 -2.61 -1.25 -2.44 -0.7 -0.61c-1.49,-1.27 -3.75,-1.12 -5.04,0.38l-12.58 14.64 -0.82 2.61 1.23 2.43 32.83 28.17z"/>
  <path class="fil0" d="M187.52 157.2l0.45 -0.03 3.1 -0.44 2.81 -0.56 7.72 -1.73 3.34 -0.57 2.05 -0.07c1.36,0.15 2.42,0.73 3.32,1.83 0.82,1.01 1.17,2.15 1.14,3.62 -0.02,1.59 -0.64,2.78 -1.98,3.86 -0.47,0.39 -2.8,1.86 -12.34,4.48 -1.61,0.44 -2.73,1.95 -2.62,3.63l0.05 0.93 1.17 2.47 2.39 0.92 0.22 -0.01c2.75,-0.15 5.65,-0.79 8.58,-1.89 2.94,-1.13 5.54,-2.57 7.63,-4.29 3.16,-2.56 4.89,-5.99 5.01,-9.93 0.06,-3.4 -0.91,-6.38 -2.94,-8.89 -2.62,-3.21 -6.28,-4.89 -10.6,-4.89 -1.17,0 -2.44,0.12 -3.82,0.38 -2.77,0.61 -5.17,1.14 -7.19,1.61l-5.07 1.17c-2.96,0.66 -4.98,0.15 -6.53,-1.76 -0.88,-1.07 -1.26,-2.21 -1.25,-3.6 0.01,-1 0.29,-2.53 2.4,-4.25 0.75,-0.61 2.97,-1.99 9.21,-4.3 1.54,-0.56 2.47,-2.08 2.35,-3.69l-0.09 -0.94 -1.37 -2.47 -2.75 -0.72c-4.33,0.69 -8.52,2.65 -12.47,5.84 -3.46,2.83 -5.26,6.31 -5.35,10.35 -0.06,3.32 0.97,6.31 3.06,8.87 2.62,3.25 6.24,5.01 10.37,5.05z"/>
  <path class="fil0" d="M219.97 109.19l2.13 1.71 2.74 -0.31 6.75 -3.72 18.48 33.56 3.12 1.84 1.74 -0.44 0.83 -0.45 1.71 -2.14 -0.31 -2.71 -18.48 -33.57 6.77 -3.74c1.73,-0.93 2.34,-3.12 1.39,-4.84l-0.45 -0.83 -2.14 -1.71 -2.71 0.31 -20.62 11.35c-1.74,0.95 -2.37,3.13 -1.42,4.86l0.46 0.83z"/>
  <path class="fil0" d="M348.99 107.08c0.63,1.23 1.87,1.99 3.22,1.99l0.5 -0.05 0.98 -0.15c1.54,-0.2 2.75,-1.37 3.02,-2.88l8.02 -43.76c0.37,-1.92 -0.89,-3.76 -2.8,-4.15l-0.94 -0.19 -2.71 0.54 -1.52 2.31 -5.86 32 -14.51 -29.1 -2.1 -1.82 -2.75 0.24 -0.85 0.42c-1.71,0.91 -2.42,3.03 -1.54,4.77l19.83 39.81z"/>
  <path class="fil0" d="M404.38 106.29l0.95 0.03 0.13 0c1.92,0 3.52,-1.51 3.57,-3.44l1.57 -42.35 -0.94 -2.56 -2.49 -1.14 -0.95 -0.05c-1.98,-0.09 -3.65,1.48 -3.71,3.44l-1.56 42.36 0.94 2.57 2.49 1.14z"/>
  <path class="fil0" d="M457.72 70.28l6.97 1.54c2.27,0.5 4.03,1.39 5.21,2.65 0.94,1.03 2.1,2.83 1.25,6.68 -0.88,3.92 -2.66,5.06 -3.94,5.56l-2.96 0.51 -2.9 -0.34 -6.96 -1.52 3.32 -15.08zm-13.43 39.95l0.89 0.19 2.71 -0.47 1.56 -2.26 3.19 -14.42 6.99 1.54 0.54 0.1 4.42 17.92c0.39,1.62 1.85,2.72 3.47,2.72l0.72 -0.07 0.89 -0.17 2.3 -1.6 0.45 -2.76 -3.94 -16.12c5.45,-1.37 9.14,-5.48 10.56,-11.92 1.54,-7.03 -0.92,-11.46 -3.25,-13.97 -2.32,-2.47 -5.49,-4.17 -9.37,-5.02l-11.36 -2.52 -2.69 0.48 -1.58 2.25 -9.22 41.83c-0.42,1.92 0.81,3.82 2.72,4.26z"/>
  <path class="fil0" d="M505.44 128.95l11.27 4.74 1.39 0.29 1.34 -0.26 1.93 -1.93 9.5 -22.53c0.78,-1.82 -0.09,-3.91 -1.9,-4.69l-6.94 -2.91 -2.73 -0.02 -1.96 1.93 -0.35 0.86c-0.78,1.83 0.09,3.93 1.91,4.69l2.76 1.16 -6 14.26 -7.1 -3c-2.15,-0.91 -3.53,-2.22 -4.3,-4.18 -0.79,-1.93 -0.75,-3.84 0.15,-5.97l7.32 -17.34c0.92,-2.21 2.34,-3.56 4.48,-4.29 1.96,-0.66 3.78,-0.6 5.65,0.18l10.82 4.57 2.74 0.02 1.95 -1.93 0.38 -0.88c0.76,-1.82 -0.09,-3.91 -1.92,-4.67l-10.82 -4.55c-3.65,-1.55 -7.54,-1.67 -11.34,-0.39 -4.36,1.44 -7.53,4.41 -9.38,8.83l-7.32 17.34c-1.71,4.11 -1.78,8.18 -0.15,12.15 1.58,3.93 4.48,6.79 8.61,8.54z"/>
  <path class="fil0" d="M550.87 152.6l0.81 0.51 1.96 0.59 0.71 -0.06 2.28 -1.55 23.21 -35.48 0.5 -2.68 -1.57 -2.27 -0.78 -0.51c-1.67,-1.08 -3.88,-0.61 -4.95,1.04l-23.19 35.47c-1.08,1.65 -0.63,3.88 1.03,4.95z"/>
  <path class="fil0" d="M583.7 177.21c1.45,1.36 3.71,1.3 5.07,-0.13l18.4 -19.43 -8.11 31.6 1.03 3.49 0.71 0.69 2.45 0.98 2.61 -1.13 29.15 -30.75c1.36,-1.44 1.3,-3.69 -0.13,-5.05l-0.69 -0.66 -2.55 -0.98 -2.52 1.11 -18.4 19.43 8.14 -31.57 -1.03 -3.48 -0.72 -0.71c-1.43,-1.34 -3.7,-1.29 -5.06,0.15l-29.14 30.76 -0.99 2.56 1.11 2.49 0.67 0.63z"/>
  <path class="fil0" d="M625.2 220.77l0.66 2.67 0.57 0.74 2.88 1.48 2.09 -0.71 34.18 -25.06 1.44 -2.35 -0.66 -2.66 -0.57 -0.76c-1.17,-1.6 -3.41,-1.95 -4.99,-0.76l-34.18 25.07 -1.42 2.34z"/>
  <path class="fil0" d="M682.74 253.67l-10.4 10.15 -4 -8.24 14.39 -1.91zm-35.71 -2.33l-0.66 2.71 0.13 0.92c0.35,1.89 2.08,3.18 4.01,2.94l9.37 -1.23 6.38 13.1 -6.77 6.62c-1.37,1.35 -1.43,3.53 -0.15,4.95l0.61 0.69 2.57 1.17 0.1 0 2.49 -1.01 31.82 -31.11c1.08,-1.09 1.37,-2.76 0.7,-4.13l-0.45 -0.91c-0.67,-1.38 -2.11,-2.17 -3.66,-1.98l-44.1 5.83 -2.4 1.43z"/>
  <polygon class="fil0" points="220.29,461.51 220.34,461.51 "/>
  <path class="fil0" d="M159.91 605.25c10.44,-4.38 19.82,-10.47 30.75,-13.79 10.83,-3.32 22.43,-4.47 33.59,-6.35 8.37,-1.42 16.1,-3.65 23.18,-6.85 35.27,3.85 72.64,1.03 108.06,0.09 4.92,-0.12 4.67,-7.43 -0.17,-7.56 -30.63,-0.81 -62.89,-3.13 -93.83,-1.12 5.23,-4.2 9.93,-9.31 14.02,-15.54 5.76,-8.71 8.45,-14.54 18.08,-17.6 22.21,1.88 45.01,0.81 67.28,-0.12 4.98,-0.19 4.73,-7.51 -0.2,-7.69 -9.38,-0.41 -18.86,-0.79 -28.35,-1.01l1.7 -0.64c2.32,-0.94 4.52,-2.3 6.21,-3.91 19.17,1.92 39.01,0.41 58.16,-0.21 4.96,-0.15 4.7,-7.47 -0.17,-7.61 -18.29,-0.56 -37.28,-2.07 -55.63,-0.46l-0.69 -1.08c-3.54,-8.23 -9.65,-10.94 -18.39,-13.72 -3.54,-1.14 -7.38,-2.71 -11.14,-2.99 -7.99,-0.59 -15.32,2.44 -23.21,3.13 -3.94,0.37 -5.17,6.66 -0.82,7.34 8.38,1.3 17.22,-2.67 25.09,0.37 7.67,2.98 15.07,3.1 18.32,11.21 -9.4,3.19 -36.14,9.01 -37.41,9.19l-1.44 0.29 -1.07 0.09 -2.04 0.73c-13,4.36 -18.01,17.93 -26.69,28.07 -14.7,17.08 -39.09,18.29 -59.79,21.06 -17.69,2.39 -32.68,8.36 -46.71,19.39 -3.3,2.56 -1.29,9.23 3.3,7.29z"/>
  <path class="fil0" d="M394.63 469.56c-11.26,-0.88 -17.1,7.83 -27.02,10.97 -10.98,3.47 -22.04,-2.58 -30.43,8.06 -3.28,4.15 2.13,9.52 6.03,5.71 7.55,-7.32 20.13,-3.18 29.65,-5.45 1.36,-0.34 2.66,-0.91 3.91,-1.59 11.34,0.71 22.86,0.96 34.15,-0.05 4.98,-0.45 4.64,-7.18 -0.19,-7.63 -6.72,-0.61 -13.51,-0.75 -20.29,-0.63 1.65,-0.63 3.41,-1.14 5.45,-1.55 4.77,-0.97 2.9,-7.53 -1.26,-7.83z"/>
  <path class="fil0" d="M454.31 502.01l-1.71 -1.12c-5.2,-2.79 -11.74,-3.06 -17.35,-5.01l-0.32 -0.53c1.83,-3.78 2.61,-7.94 0.54,-12.09 -2.94,-5.97 -10.12,-9.68 -16.68,-9.05 -3.63,0.34 -5.29,5.25 -1.76,7.14 6.01,3.24 13.06,4.77 7.57,12.4 -6.71,-0.12 -13.35,0.03 -20.13,0.22 -4.8,0.12 -4.55,7.31 0.21,7.43 6.81,0.17 13.54,0.34 20.32,0.2l0.44 0.4c3.87,2.82 9.27,3.62 13.73,5.02 2.46,0.78 4.95,1.61 7.31,2.66 2.09,0.9 2.46,0.81 2.15,1.49l-0.31 0.62c-0.89,1.87 -0.39,3.59 0.69,4.72 1.03,1.17 2.66,1.73 4.3,1.1l0.51 -0.23 0.29 -0.1c2.78,-1.74 4.28,-3.96 4.67,-6.22 11.64,-15.78 25.77,-20.06 46.47,-17.79 12.71,1.39 23.75,-1.54 34.51,-8.4 3.6,-2.3 1.08,-8.43 -3.13,-6.94 -28.95,10.24 -62.72,-1.03 -82.34,24.09z"/>
  <path class="fil0" d="M627.85 606.64c5.79,0.97 7.63,-6.81 2.17,-8.73 -6.13,-2.18 -5.55,-1.99 -12.03,-1.96 -10.78,0.03 -17.27,-3.1 -26.04,-9.09 -8.35,-5.72 -16.47,-8.55 -26.65,-9.38 -11.91,-1 -21.95,-0.65 -27.29,-12.18 -3.03,-6.5 -7.31,-10.73 -13.29,-14.54 -2.33,-1.48 -6.18,0.29 -5.49,-3.06 0.61,-3.05 0.19,-4.17 -1.07,-7.17 -2.18,-5.24 -7.54,-8.38 -12.43,-10.59 -15.12,-6.84 -33.97,-6.99 -50.28,-8.36 -4.72,-0.41 -4.47,6.11 -0.85,7.54 16.3,6.39 38.55,3.21 52.61,14.53 1.83,1.48 1.36,3.75 1.36,6 -15.5,-0.98 -32.09,-1.95 -46.96,0.79 -3.66,0.67 -3.32,6.55 0.16,7.19 16.63,3.1 35.52,1.45 52.5,0.41 5.26,3.72 12.09,6.09 15.39,12.41 2.03,3.9 4.07,6.88 6.46,9.21 -23.05,-0.29 -46.15,0.09 -69.05,1.08 -4.8,0.19 -4.52,7.13 0.16,7.34 32.56,1.37 65.49,1.67 98.09,0.29 10.79,2.2 19.06,6.31 29.37,13.58 10.69,7.53 21.32,2.66 33.16,4.7z"/>
  <path class="fil0" d="M340.3 604.42c5.06,-0.16 4.8,-7.69 -0.21,-7.82 -28.13,-0.92 -57.85,-3.66 -85.8,0.16 -3.79,0.54 -5.33,6.74 -0.81,7.35 28.33,3.89 58.27,1.22 86.81,0.31z"/>
  <path class="fil0" d="M441.32 607.74c30.35,0.82 60.79,1.05 91.16,0.13 4.94,-0.13 4.72,-7.47 -0.18,-7.61 -30.38,-0.89 -60.81,-0.69 -91.19,0.1 -4.77,0.15 -4.54,7.25 0.21,7.38z"/>
  <path class="fil0" d="M337.62 665.1c44.98,4.14 93.52,3.85 138.56,0.22 5.27,-0.41 4.92,-7.66 -0.19,-8.09 -45.04,-3.6 -93.6,-3.91 -138.56,0.25 -4.99,0.44 -4.64,7.16 0.19,7.62z"/>
  <path class="fil0" d="M445.45 689.65c7.7,-2.11 16.75,-0.94 24.69,-0.94 7.67,0 15.34,-0.19 23.03,-0.42 4.91,-0.12 4.66,-7.44 -0.19,-7.54 -7.69,-0.2 -15.37,-0.39 -23.05,-0.39 -7.98,-0.03 -16.96,1.1 -24.75,-1.03 -8.38,-2.28 -8.58,12.74 0.27,10.32z"/>
  <path class="fil0" d="M572.71 639.22c5.01,-0.19 4.77,-7.53 -0.18,-7.73 -26.73,-0.98 -53.74,-1.93 -80.44,0.13 -4.89,0.37 -4.59,7.12 0.17,7.47 26.69,2.05 53.72,1.11 80.45,0.13z"/>
  <path class="fil0" d="M613.84 620.46c5.07,-0.26 4.76,-7.5 -0.17,-7.76 -16.18,-0.85 -33.05,-1.38 -49.17,0.12 -4.95,0.42 -4.62,7.1 0.17,7.55 16.15,1.47 33,0.94 49.17,0.09z"/>
  <path class="fil0" d="M184.56 615.56c-4.83,0.44 -4.51,6.99 0.19,7.4 31.13,2.84 63.53,1.42 94.74,0.09 4.92,-0.22 4.64,-7.33 -0.17,-7.54 -31.2,-1.33 -63.61,-2.76 -94.75,0.06z"/>
  <path class="fil0" d="M250.02 644.61c42.86,4.65 88.34,0.93 131.4,0 5.03,-0.12 4.8,-7.67 -0.19,-7.76 -43.08,-0.95 -88.57,-4.69 -131.4,-0.02 -5.13,0.56 -4.74,7.26 0.19,7.78z"/>
  <path class="fil0" d="M384.81 577.96c-4.92,0.45 -4.58,7.09 0.18,7.51 16.75,1.51 35.14,1.83 51.85,0.1 5.01,-0.54 4.64,-7.19 -0.19,-7.69 -16.71,-1.73 -35.11,-1.42 -51.84,0.07z"/>
  <path class="fil0" d="M401.8 546.67c-19.88,-0.57 -40.04,-0.81 -59.9,0.05 -4.83,0.22 -4.55,7.22 0.18,7.44 19.87,0.85 40.03,0.64 59.88,0.03 4.88,-0.15 4.64,-7.35 -0.16,-7.51z"/>
  <path class="fil0" d="M427.13 537.98c3.72,-0.79 3.35,-6.59 -0.2,-7.32 -2.93,-0.63 -6.09,-0.26 -9.05,-0.04 -4.86,0.29 -4.57,7.16 0.19,7.48 3,0.18 6.08,0.53 9.06,-0.12z"/>
  <path class="fil0" d="M395.53 678.95c-16.1,-0.7 -32.19,-0.51 -48.26,0.06 -4.83,0.19 -4.58,7.28 0.17,7.45 16.06,0.56 32.2,0.78 48.28,0.06 4.92,-0.2 4.67,-7.36 -0.19,-7.57z"/>
  <path class="fil0" d="M299 670.88c-8.61,-0.26 -17.38,-1.1 -25.92,0.05 -3.87,0.53 -5.4,6.82 -0.83,7.44 8.92,1.2 17.95,0.44 26.92,0.13 4.95,-0.13 4.7,-7.45 -0.17,-7.62z"/>
  <path class="fil0" d="M548.58 659.81c5.08,-0.41 4.74,-7.38 -0.17,-7.76 -9.21,-0.75 -18.57,-1.27 -27.71,0.09 -3.82,0.59 -5.42,6.75 -0.83,7.44 9.5,1.45 19.17,0.98 28.71,0.23z"/>
  <path class="fil0" d="M136.29 329.02c-7.31,0.13 -13.35,0.72 -19.65,-3.89 -3.79,-2.81 -8.9,2.09 -5.21,5.46 6.94,6.28 16.93,9.85 26.17,6.63 4.42,-1.54 3.53,-8.3 -1.3,-8.2z"/>
  <path class="fil0" d="M238.23 498.2c-2.23,-3.57 -7.57,-1.74 -7.63,2.27 -0.06,3.5 0.78,2.78 -2.32,2.69 -4.07,-0.13 -8.4,-1.93 -12.22,-3.23 -7.07,-2.48 -14.02,-5.98 -21.54,-6.84 -3.94,-0.44 -7.03,5.05 -2.77,7.06 10.51,4.95 20.13,10.63 31.67,13.19 10.21,2.22 21.96,-3.6 14.81,-15.14z"/>
  <path class="fil0" d="M149 580.9c11.98,-1.37 23.9,-4.45 34.01,-11.24 3.96,-2.66 0.31,-8.52 -3.86,-6.25 -9.87,5.39 -20.44,7.88 -31.3,10.36 -3.98,0.89 -2.93,7.61 1.15,7.14z"/>
  <path class="fil0" d="M233 561.28c10.97,-0.57 19.39,-6.78 24.63,-16.21 1.99,-3.57 -3.37,-7.79 -5.93,-4.35 -4.99,6.74 -11.46,11.8 -19.84,13.29 -4.17,0.75 -2.96,7.5 1.14,7.26z"/>
  <path class="fil0" d="M217.64 553.98c-4.66,0 -4.47,7.23 0.17,7.23l0.89 0c4.66,0 4.47,-7.23 -0.16,-7.23l-0.9 0z"/>
  <path class="fil0" d="M117.27 527.71c4.37,2.75 8.28,4.94 12,8.53 2.24,2.15 6.91,0.56 6.49,-2.9 -1.4,-11.19 -17.01,-12.52 -22.08,-21.52 -2.24,-3.97 -7.66,-0.91 -6.84,3.05 1.23,5.9 5.52,9.78 10.43,12.84z"/>
  <path class="fil0" d="M88.84 404.17c-6.52,-1.64 -10.31,-7.43 -16.02,-10.4 -6.12,-3.19 -14.46,-1.81 -20.65,0.19 -4,1.26 -3.19,7.72 1.19,7.4 6.63,-0.5 14.04,-1.33 19.34,3.4 3.3,2.91 6.53,5.5 10.73,7.07 4.28,1.58 8.33,2.37 12.85,2.71 7.63,0.57 11.29,1.71 16.72,7.44 3.38,3.57 8.26,-1.17 6.3,-5.1 -6.71,-13.28 -18.28,-9.59 -30.47,-12.71z"/>
  <path class="fil0" d="M553.2 541.22c-1.41,-4.1 -8.26,-3.38 -7.82,1.27 2.44,26.05 48.41,3.63 50.28,23.24 0.22,2.42 2.13,4.79 4.77,4.57 6.66,-0.54 13.24,-1.52 19.81,-2.68 4.64,-0.82 2.9,-7.48 -1.25,-7.72 -4.96,-0.28 -9.77,0.38 -14.67,0.79 -5.7,-22.77 -44.83,-1.35 -51.13,-19.47z"/>
  <path class="fil0" d="M689.51 501.14c-11.34,4.5 -19.25,13.49 -31.37,16.69 -12.15,3.19 -21.99,6.69 -30.94,15.8 -3.31,3.34 1.95,8.28 5.25,5.01 10.4,-10.26 21.76,-10.85 34.98,-14.61 9.39,-2.66 16.84,-11.17 25.21,-15.9 3.76,-2.14 0.95,-8.6 -3.15,-6.99z"/>
  <path class="fil0" d="M513.71 517.51c13.31,-0.88 28.9,1.41 40.4,-6.7 3.37,-2.39 1.08,-8.76 -3.18,-6.97 -12.51,5.21 -25.74,2.51 -38.39,6.36 -3.97,1.24 -3.09,7.61 1.17,7.32z"/>
  <path class="fil0" d="M750.32 442.65c-5.57,3.95 -10.7,7.89 -17.05,10.62 -5.72,2.47 -11.86,4.11 -17.82,5.97 -4.72,1.47 -2.49,8.1 2.18,7.19 13.85,-2.68 27.7,-7.1 37.36,-18.01 2.74,-3.08 -1.08,-8.3 -4.68,-5.77z"/>
  <path class="fil0" d="M656.01 486.69c3.5,-2.84 6.49,-6.23 10.07,-9.05 3.53,-2.78 7.09,-5.49 10.24,-8.71 3.35,-3.4 -1.87,-8.26 -5.36,-5.06 -6.21,5.74 -16.64,9.66 -20.37,17.66 -1.48,3.13 2.12,7.82 5.42,5.17z"/>
  <path class="fil0" d="M717.7 383.89c1.98,-1.08 3.41,-3.4 5.01,-4.98 1.54,-1.55 3.19,-2.98 4.79,-4.51 1.27,-1.23 1.4,-3.37 0.5,-4.86 -1.25,-2.01 -3.53,-2.21 -5.49,-1.29 -2.35,1.1 -4.19,2.94 -5.99,4.77 -1.71,1.77 -4.26,4.07 -4.63,6.63 -0.47,3.35 2.64,5.99 5.81,4.23z"/>
  <path class="fil0" d="M429.78 453.88c16.94,-6.27 32.68,-14.85 47.91,-24.5 16.34,-10.35 36.5,-10.91 51.23,-23.8 3.37,-2.93 -1.17,-8.21 -4.82,-5.94 -14.31,9 -30.94,11.52 -45.76,19.39 -17.31,9.19 -34.13,19.16 -51.6,28.11 -3.76,1.92 -0.93,8.18 3.03,6.74z"/>
  <path class="fil0" d="M474.44 462.74c11.93,-3.44 19.27,-13.82 30.44,-18.68 4.3,-1.88 2.59,-8.39 -2.18,-7.16 -11.89,3.1 -18.89,14.82 -30.35,18.86 -4.42,1.58 -2.43,8.32 2.1,6.99z"/>
  <path class="fil0" d="M313.23 466.46c17.71,-2.96 31.04,15.65 47.85,6.05 3.94,-2.25 1.04,-8.73 -3.27,-7.25 -14.79,5.03 -22.17,-9.68 -35.6,-8.48 -8.86,0.79 -17.51,1.57 -26.36,-0.15 -8.58,-1.64 -16.11,-6.59 -24.48,-9.05 -4.04,-1.19 -6.59,5.12 -2.71,6.89 13.98,6.43 28.54,14.64 44.56,11.98z"/>
  <path class="fil0" d="M310.61 441.77c4.48,0.86 8.95,1.8 13.49,2.37 4.7,0.57 6.62,-5.98 1.82,-7.34 -4.38,-1.21 -8.87,-2.05 -13.31,-2.97 -5.18,-1.08 -7.16,6.93 -1.99,7.94z"/>
  <path class="fil0" d="M364.17 452.06c26.12,10.41 49.84,-6.4 71.86,-19.11 4.2,-2.43 0.29,-8.68 -3.94,-6.39 -20.07,10.81 -41.22,27.16 -64.98,18.04 -4.29,-1.67 -7.19,5.77 -2.94,7.45z"/>
  <path class="fil0" d="M237.44 440.74c-6.62,-2.93 -14.16,-4.5 -19.86,-9.18 -3.66,-3.01 -8.31,1.85 -5.05,5.3 5.81,6.25 14.22,8.53 22.16,10.87 4.1,1.22 6.69,-5.25 2.75,-6.99z"/>
  <path class="fil0" d="M383.5 269.79c41.41,2.46 83.12,0.9 124.59,1.07 41.33,0.17 83.31,2.3 124.53,-0.89 5.33,-0.41 5.01,-7.79 -0.2,-8.2 -37.04,-2.86 -74.72,-1.45 -111.95,-1.01 1.52,-2.93 3.26,-5.67 6.76,-7.72 6.3,-3.65 15.2,-3.46 21.77,-0.88 3.68,1.44 6.85,-4.44 3.74,-6.78 -2.17,-1.61 -4.48,-2.83 -6.85,-3.69 1.03,-2.65 2.36,-4.96 4.94,-6.79 3.42,-2.44 1.18,-8.61 -3.16,-7.03 -5.76,2.11 -9.33,6.65 -10.25,12.27 -4.25,-0.12 -8.61,0.69 -12.84,2.37 -7.33,2.93 -14.6,10.22 -15.84,18.36l-0.88 0c-13.81,0.06 -27.63,-0.07 -41.47,-0.19 1.17,-2.93 2.55,-5.69 6.08,-7.17 3.74,-1.55 3.47,-8.29 -1.23,-7.65 -5.4,0.73 -9.23,3.09 -12.39,7.51 -1.47,2.03 -2.59,4.6 -3.19,7.23 -24.13,-0.16 -48.3,-0.09 -72.33,1.33 -5.11,0.31 -4.79,7.55 0.19,7.84z"/>
  <path class="fil0" d="M400.59 248.34c6.4,-5.4 13.41,-2.58 19.87,-0.75 2.47,0.71 4.77,-1 5.47,-3.28 4.79,-6.84 10.09,-8.77 15.87,-5.8 4.62,1.55 7.1,-3.94 5.43,-7.45 -11.08,-23.32 16.69,-32.81 33.13,-22.42 3.91,2.49 8.28,-3.5 4.79,-6.51 -1.99,-1.71 -4.03,-3.09 -6.12,-4.25 6.23,-14.81 17.25,-25.16 34.88,-23.06 16.03,1.93 26.22,14.85 27.6,30.37 0.49,5.16 7.6,4.88 7.97,-0.22l0.03 -1.3c2.64,0.37 5.3,0.64 7.83,1.45 4.42,1.39 7.96,4.52 10.66,8.2 -1.26,1.67 -2.34,3.48 -3.13,5.43 -1.8,4.42 4,7.86 6.56,3.63 6.24,-10.26 19.23,-13.22 30.32,-10.75 4.35,0.97 6.97,-5.23 2.88,-7.35 -9.06,-4.76 -20.79,-3.22 -29.48,2.44 -2.42,-4.58 -6.56,-8.06 -11.49,-10.22 -4.1,-1.77 -9.84,-3.31 -14.88,-2.77 -7.43,-36.94 -67.16,-37.31 -77.87,1.03 -19.69,-4.5 -39.34,11.86 -35.02,33.19 -7.23,0.23 -13.52,3.44 -17.02,10.02 -8.92,-1.88 -16.65,-1.67 -24.04,4.9 -3.85,3.43 1.9,8.71 5.74,5.46z"/>
  <path class="fil0" d="M611.9 229.27c-7.69,2.84 -14.41,10.1 -13.39,18.83 0.51,4.44 6.23,5.07 7.7,0.83 1.66,-4.7 3.16,-9.34 8.18,-11.42 5.02,-2.08 2.78,-10.19 -2.49,-8.24z"/>
  <path class="fil0" d="M363.22 261.43c-5.46,-0.79 -11.56,-2.14 -16.68,0.59 -2.55,1.36 -2.26,5.3 0.16,6.59 4.79,2.55 10.57,1.34 15.66,0.61 1.77,-0.25 3.28,-1.13 3.73,-3 0.49,-1.92 -0.76,-4.48 -2.87,-4.79z"/>
  <path class="fil0" d="M264.41 230.95c-28.86,-2.42 -62.2,-5.17 -90.72,0.49 -3.82,0.76 -3.47,6.81 0.19,7.54 28.46,5.67 61.92,2.85 90.74,0.42 5.53,-0.46 5.17,-7.99 -0.21,-8.45z"/>
  <path class="fil0" d="M354.11 230.7c-5.17,-0.45 -10.51,-0.89 -15.94,-1.26 -0.51,-11.76 -14.75,-20.66 -26.14,-16.69 -5.79,1.99 -3.15,10.94 2.72,9.09 5.64,-1.74 10.38,2.13 12.84,7.04 -14.41,-0.6 -29.07,-0.34 -42.46,1.93 -3.84,0.66 -3.52,6.94 0.17,7.58 21.79,3.72 47.03,2.02 69,0.06 5.07,-0.45 4.74,-7.32 -0.19,-7.76z"/>
  <path class="fil0" d="M229.05 167.73c-4.18,2.02 -0.98,8.48 3.25,7.21 13.32,-3.98 25.05,-6.44 36.16,4.04 8.5,7.99 11.19,20.21 4.88,30.2 -2.33,3.69 3.41,7.94 6.21,4.53 3.5,-4.31 5.33,-9.21 5.8,-14.25 5.8,-2.27 12.71,0.37 13.15,7.51 0.23,4.22 6.79,5.28 7.6,0.83 1.37,-7.35 -2.17,-14.17 -9.15,-17.06 -3.88,-1.58 -8.3,-1.78 -12.15,-0.47 -1.27,-5.87 -4.11,-11.58 -8.14,-16.34 -13.21,-15.62 -30.53,-14.55 -47.6,-6.21z"/>
  <path class="fil0" d="M223.06 218.87c0.75,4.3 7.75,3.89 8.46,-0.22 0.28,-1.54 0.32,-3.05 0.28,-4.55 2.27,-0.66 4.5,-1.29 7.18,-0.82 3.84,0.68 7.13,2.79 7.99,6.66 1.1,4.82 7.39,2.84 7.83,-1.24 0.76,-7.26 -5.18,-12.09 -11.35,-14.33 -3.91,-1.42 -9.63,-1.54 -14.12,0.23 -5.64,-11.27 -19.77,-18.79 -32.01,-16.74 -5.17,0.86 -3.66,9.34 1.43,9.02 12.21,-0.78 22.38,10.79 24.29,21.99z"/>
  <path class="fil0" d="M405.55 139.13c22.62,2.34 46.43,1.43 69.14,0.25 5.15,-0.27 4.84,-7.65 -0.21,-7.91 -22.67,-1.17 -46.5,-2.08 -69.11,0.25 -4.83,0.51 -4.5,6.92 0.18,7.41z"/>
  <path class="fil0" d="M473.68 149.67c-4.83,0.22 -4.58,7.22 0.16,7.42 15.81,0.73 31.69,0.46 47.49,0.07 4.89,-0.12 4.65,-7.45 -0.21,-7.56 -15.78,-0.39 -31.66,-0.66 -47.44,0.06z"/>
  <path class="fil0" d="M307.21 134.91c22.58,1.81 45.36,0.9 67.95,0.12 4.99,-0.18 4.72,-7.51 -0.19,-7.67 -22.6,-0.79 -45.38,-1.71 -67.94,0.1 -4.86,0.39 -4.56,7.07 0.17,7.45z"/>
 </g>
</svg>
