<?xml version="1.0" encoding="UTF-8"?>
<svg xmlns="http://www.w3.org/2000/svg" xml:space="preserve" width="0.747331in" height="0.747331in" version="1.1" style="shape-rendering:geometricPrecision; text-rendering:geometricPrecision; image-rendering:optimizeQuality; fill-rule:evenodd; clip-rule:evenodd"
viewBox="0 0 78.9 78.9"
 xmlns:xlink="http://www.w3.org/1999/xlink"
 xmlns:xodm="http://www.corel.com/coreldraw/odm/2003">
 <defs>
  <style type="text/css">
   <![CDATA[
    .fil0 {fill:black;fill-rule:nonzero}
   ]]>
  </style>
 </defs>
 <g id="Layer_x0020_1">
  <metadata id="CorelCorpID_0Corel-Layer"/>
  <path class="fil0" d="M30.29 27.91c0.16,-0.01 0.32,-0.01 0.46,-0.01 1.73,0 3.46,0.04 5.19,0.04 2.52,-0 5.04,-0.11 7.56,-0.12 0.59,0.48 1.23,0.91 1.84,1.37 0.24,0.17 0.49,0.4 0.76,0.62 -4.17,-0.13 -8.4,-0.16 -12.55,0.05 -0.58,-0.54 -1.54,-0.92 -2.2,-1.31 -0.36,-0.21 -0.71,-0.42 -1.07,-0.63zm28.29 5.6c-0.01,2.74 -0.07,5.48 0.04,8.22 -2.09,0.11 -4.18,0.27 -6.27,0.47 0.11,-1.12 -0.05,-2.26 -0.05,-3.39 0,-1.53 0,-3.05 0,-4.58 -0,-3.22 0.15,-6.48 -0.06,-9.69l0.01 -0.02c0.14,-1.86 1.99,-3.19 3.8,-2.78 1.75,0.39 2.11,1.79 2.59,3.29l0 0c-0.27,2.8 -0.04,5.68 -0.05,8.49zm-8.51 8.92c-0.39,0.05 -0.78,0.1 -1.18,0.15 0.15,-1.7 0.19,-3.59 -0.08,-5.24 -0.06,-0.36 -0.65,-0.33 -0.71,0.02 -0.28,1.67 -0.22,3.6 -0.07,5.33 -0.34,0.04 -0.67,0.08 -1.01,0.13 0.06,-0.68 0.02,-1.37 0.02,-2.05 -0,-1.13 0.07,-2.29 -0.1,-3.41 -0.06,-0.38 -0.66,-0.53 -0.73,-0.08 -0.15,1.02 -0.1,2.05 -0.1,3.08 -0,0.85 -0.06,1.73 0.03,2.59 -0.87,0.12 -1.73,0.25 -2.6,0.38 0.03,-1.93 0.08,-3.86 -0,-5.79 -0.02,-0.48 -0.72,-0.45 -0.74,0.02 -0.08,1.94 -0.03,3.88 -0,5.82l0.01 0.07c-0.34,0.06 -0.68,0.1 -1.01,0.16 0.14,-1.91 0.17,-4 -0.05,-5.89 -0.04,-0.38 -0.67,-0.52 -0.72,-0.08 -0.23,1.96 -0.21,4.12 -0.06,6.11 -0.31,0.05 -0.63,0.11 -0.94,0.16 0.02,-2.05 0.17,-4.16 -0.06,-6.19 -0.04,-0.38 -0.68,-0.52 -0.73,-0.08 -0.24,2.11 -0.09,4.29 -0.07,6.42 -0.4,0.07 -0.79,0.14 -1.19,0.22 0.19,-2.58 0.28,-5.37 -0.02,-7.93 4,0.34 8.08,0.02 12.1,-0l0 0.07c-0,0.31 -0.01,0.62 -0.01,0.94 -0.01,0.77 -0.01,1.55 -0.03,2.32 -0.02,0.94 -0.04,1.85 0.06,2.78zm-19.78 1.43c-0.3,0.45 -0.58,0.9 -0.85,1.35 0.01,-0.83 -0.01,-1.67 -0.04,-2.5 0.3,0.38 0.6,0.77 0.89,1.15zm0.48 -0.7c-0.32,-0.39 -0.63,-0.78 -0.95,-1.17 0.61,-0.01 1.23,-0.02 1.84,-0.04 -0.3,0.39 -0.6,0.8 -0.89,1.21zm0.91 2.56c-0.6,0.18 -1.19,0.36 -1.78,0.56 0.37,-0.48 0.72,-0.98 1.06,-1.5 0.23,0.32 0.46,0.63 0.72,0.93zm-0.2 -1.74c0.18,-0.29 0.36,-0.59 0.53,-0.88 -0.02,0.5 -0.02,0.99 -0.02,1.49 -0.17,-0.21 -0.34,-0.41 -0.52,-0.61zm-4.53 0.46l-0 0c-0.29,0.56 -0.64,1.11 -0.97,1.68 0.01,-1.06 -0.01,-2.13 -0.03,-3.19 0.33,0.5 0.67,1.01 1,1.51zm1.62 -1.11c-0.02,0.68 -0.03,1.36 -0.02,2.05 -0.21,-0.31 -0.42,-0.61 -0.62,-0.92 0.21,-0.38 0.43,-0.75 0.64,-1.13zm-1.22 0.25c-0.31,-0.48 -0.63,-0.97 -0.94,-1.45l-0.1 -0.16c0.61,0.02 1.23,0.03 1.84,0.03 -0.31,0.47 -0.57,1.05 -0.8,1.58zm-19.8 10.68c0.03,-1 -0.03,-2.01 0.7,-2.83 0.61,-0.68 1.47,-0.44 2.07,0.09 0.39,0.34 0.5,0.77 0.67,1.2 -1.16,0.48 -2.32,0.98 -3.45,1.54zm59.14 -11.78c3.67,0.15 7.29,0.33 10.91,0.9 -0.46,4.53 -1.72,8.83 -3.62,12.75 -1.61,-1.17 -4.37,-0.32 -5.92,0.48 -1.44,0.75 -2.57,2.05 -3.16,3.56 -1.39,-0.41 -2.89,0.19 -3.75,1.36 -0.63,0.84 -0.89,2.07 -0.54,3.08 -1.35,0.22 -2.67,1.85 -2.6,3.19 -0.9,-0.29 -1.93,0.23 -2.55,1.07 -0.6,0.82 -0.72,2.27 -0.1,3.15 -0.91,0.48 -1.35,1.75 -0.89,2.74 -4.62,1.98 -9.7,3.07 -15.04,3.07 -9.38,0 -17.99,-3.39 -24.67,-9.01 1.1,-0.79 2.38,-1.31 3.73,-0.76 1.35,0.55 1.91,2.07 2.26,3.36 0.11,0.41 0.81,0.31 0.74,-0.12 -0.04,-0.26 -0.1,-0.52 -0.16,-0.78 0.35,-0.03 0.7,-0.05 1.05,0.04 0.73,0.18 1.17,0.85 1.44,1.49 0.21,0.47 0.88,0.28 0.77,-0.23 -0.31,-1.55 -2.04,-2.79 -3.55,-2.15 -0.46,-1.1 -1.23,-2.02 -2.41,-2.49 -1.6,-0.65 -3.27,0.06 -4.54,1.08 -3.12,-2.75 -5.79,-5.99 -7.9,-9.61 9.18,-5.18 19.88,-7.85 30.16,-9.66 12.34,-2.18 25.25,-2.87 37.64,-0.73 0.5,0.09 0.69,-0.68 0.19,-0.77 -12.35,-2.27 -25.21,-1.48 -37.53,0.58 -10.5,1.76 -21.55,4.49 -30.84,9.91 -0.26,-0.46 -0.5,-0.93 -0.74,-1.4 6.74,-3.22 13.43,-6.18 20.61,-8.36 0.16,-0.05 0.23,-0.16 0.25,-0.29 0.59,-0.82 1.02,-1.8 1.51,-2.68 0.24,0.37 0.47,0.75 0.71,1.12 0.09,0.13 0.17,0.29 0.27,0.44l-0.39 0.15c-0.43,0.18 -0.23,0.88 0.21,0.7 4.03,-1.57 8.45,-2.35 12.69,-3.1 7.65,-1.35 15.39,-1.95 23.14,-2.25 0.48,-0.02 0.46,-0.76 -0.02,-0.75 -1.55,0.01 -3.1,0.05 -4.65,0.12 0.04,-1.05 0.06,-2.11 0.06,-3.17 0.92,-0.61 1.91,-0.62 2.37,0.63 0.12,0.35 0.51,0.42 0.78,0.18 0.57,-0.5 1.29,-0.17 1.37,0.53 0.05,0.45 0.79,0.61 0.86,0.09 0.17,-1.43 -1.26,-2.06 -2.37,-1.58 -0.66,-1.03 -1.96,-1.54 -2.99,-0.91 -0.01,-1.33 -0.02,-2.65 -0.02,-3.98 -0.01,-2.8 0.22,-5.68 -0.05,-8.47l0.01 -0.01c0.4,-2.23 -1.56,-3.92 -3.58,-4.25 -2.25,-0.36 -4.27,1.65 -4.36,3.78l0 0.03c-0.19,2.99 -0.06,6.03 -0.06,9.02 -0,1.53 -0,3.06 -0,4.59 0,1.35 -0.19,2.77 -0.04,4.11 -0.14,0.01 -0.27,0.03 -0.41,0.04 0.08,-0.81 0.07,-1.61 0.05,-2.44 -0.02,-0.79 -0.03,-1.57 -0.04,-2.36 -0,-0.34 -0.01,-0.67 -0.01,-1.01 -0,-0.43 0.12,-0.37 -0.19,-0.15 0.36,-0.26 0.32,-0.86 -0.15,-0.98 -0.17,-0.04 -0.34,0.02 -0.46,0.12 -4.19,-0.02 -8.47,-0.38 -12.66,0.02l-0.05 0.02c-0.14,0 -0.27,0.08 -0.29,0.27 -0.38,2.77 -0.28,5.79 -0.07,8.59 -1.43,0.28 -2.86,0.6 -4.27,0.97 0.07,-1.25 0.02,-2.51 -0.04,-3.76l-0.04 -0.22 -0.01 -0.02 -0.07 -0.09 -0.01 -0.01 -0.37 -0.1c-2.25,-0.06 -4.52,-0.12 -6.77,-0.02 -0.28,0.01 -0.39,0.24 -0.36,0.44 -0.06,2 -0.12,4 -0.03,6 -1.26,0.34 -2.52,0.72 -3.76,1.13 0.11,-2.06 0.04,-4.13 0.03,-6.19 -0.01,-2.3 0.13,-4.69 -0.14,-6.99 0.75,-0.69 1.34,-1.65 1.96,-2.44 0.66,-0.83 1.44,-1.65 1.99,-2.56 0.58,-0.23 1.2,-0.88 1.67,-1.24 0.58,-0.45 1.2,-0.9 1.73,-1.42 0.7,0.45 1.43,0.87 2.14,1.29 0.71,0.42 1.57,1.12 2.38,1.38 0.94,1.55 2.03,3.02 3.13,4.47 0.3,0.4 0.96,0.02 0.67,-0.42 -0.89,-1.35 -1.79,-2.71 -2.79,-3.99 0.47,0.02 0.93,0.04 1.4,0.05 0.77,1.28 1.69,2.5 2.59,3.7 0.3,0.4 0.95,0.02 0.67,-0.42 -0.72,-1.1 -1.45,-2.21 -2.25,-3.25 0.42,0.01 0.84,0.02 1.27,0.02 0.76,1.26 1.67,2.47 2.56,3.65 0.3,0.4 0.96,0.02 0.67,-0.42 -0.71,-1.09 -1.43,-2.18 -2.22,-3.22 0.42,0 0.83,0 1.25,0 0.76,1.25 1.66,2.45 2.55,3.63 0.3,0.4 0.96,0.02 0.67,-0.42 -0.71,-1.09 -1.43,-2.18 -2.22,-3.22 0.41,-0 0.82,-0.01 1.23,-0.01 0.66,1.1 1.49,2.2 2.29,3.24 0.3,0.4 0.95,0.02 0.67,-0.41 -0.62,-0.97 -1.25,-1.93 -1.95,-2.84 0.41,-0.01 0.82,-0.02 1.23,-0.03 0.77,1.28 1.68,2.49 2.59,3.69 0.3,0.4 0.96,0.02 0.67,-0.42 -0.73,-1.12 -1.47,-2.24 -2.28,-3.3 0.57,-0.02 1.13,-0.04 1.69,-0.06 0.42,0.8 1.03,1.56 1.53,2.3 0.24,0.36 1.06,2.15 1.7,1.75 0.67,-0.41 -0.7,-1.87 -0.94,-2.22 -0.55,-0.81 -1.06,-1.72 -1.71,-2.45l-0.04 -0.04 -0.02 -0.02 -0.01 -0.01c-0.44,-0.54 -1.27,-0.96 -1.82,-1.35 -0.71,-0.51 -1.41,-1.05 -2.15,-1.51l-0.01 -0.01 -0.05 -0.02 -0.12 -0.02 -0.01 -0c-2.56,0 -5.14,-0.12 -7.7,-0.12 -1.73,0 -3.46,0.02 -5.19,0.04 -0.71,0.01 -1.57,-0.14 -2.26,0.08l-0.23 0.17c-0.65,0.39 -1.24,0.9 -1.83,1.36 -0.5,0.39 -1.36,0.89 -1.71,1.44l-0.03 0.02c-0.78,0.72 -1.4,1.69 -2.06,2.52 -0.68,0.85 -1.55,1.7 -2.06,2.66l-0.03 0.33c-0.24,2.13 -0.13,4.33 -0.15,6.48 -0.02,2.35 -0.11,4.73 0.05,7.08 -1.41,0.49 -2.81,1.01 -4.19,1.56 -0.14,-0.95 -0.86,-1.91 -1.87,-1.66 -0.98,0.24 -1.99,0.36 -2.97,0.61 -0.43,0.11 -0.31,0.79 0.12,0.76 1.06,-0.07 2.14,-0.27 3.18,-0.52 0.36,0.33 0.51,0.7 0.67,1.16 -0.44,0.17 -0.87,0.35 -1.31,0.52 -0.68,0.28 -1.39,0.55 -2.09,0.84 -0.1,-0.65 -0.65,-1.3 -1.1,-1.69 -0.65,-0.55 -1.68,-0.84 -2.48,-0.43 -1.57,0.81 -1.99,2.85 -1.73,4.51 -0.65,0.35 -1.28,0.74 -1.88,1.15 -0.65,-1.37 -1.22,-2.78 -1.71,-4.23 0.5,-0.33 0.98,-0.58 1.65,-0.5 0.24,0.03 0.47,0.12 0.7,0.16l0.35 -0.02c0.1,-0.03 0.43,-0.15 0.04,-0.02 0.27,-0.09 0.33,-0.35 0.24,-0.59l-0.09 -0.16c-0.09,-0.11 -0.21,-0.18 -0.34,-0.22 -0.33,-0.11 -0.67,-0.16 -1.02,-0.18 -0.64,-0.04 -1.33,0.16 -1.83,0.56 -0.44,-1.45 -0.8,-2.93 -1.07,-4.44 0.22,-1.08 1.33,-1.57 2.29,-0.8 0.31,0.25 0.78,0.16 0.89,-0.26 0.06,-0.27 0.19,-0.4 0.39,-0.38 0.29,-0.01 0.54,-0.31 0.44,-0.6 -0.68,-1.95 1.09,-3.26 2.57,-1.69 0.2,0.21 0.58,0.14 0.71,-0.11 0.53,-1.04 1.62,-0.35 1.65,0.62 0.01,0.32 0.47,0.55 0.69,0.26 0.49,-0.65 1.22,-1 1.88,-0.34 0.36,0.36 0.88,-0.12 0.66,-0.54 -0.89,-1.7 1.04,-2.96 2.34,-1.75 0.24,0.22 0.76,0.15 0.8,-0.23 0.1,-0.87 0.84,-1.42 1.74,-1.25 0.61,0.11 0.81,-0.73 0.23,-0.92 -1.37,-0.46 -2.34,0.14 -2.75,1.26 -1.68,-0.86 -3.57,0.49 -3.42,2.29 -0.5,-0.09 -1,0.04 -1.45,0.34 -0.34,-1.43 -1.88,-1.97 -2.87,-0.65 -1.93,-1.5 -4.04,0.14 -3.79,2.44 -0.23,0.07 -0.4,0.19 -0.55,0.38 -0.94,-0.44 -2.02,-0.26 -2.7,0.37 -0.23,-1.71 -0.36,-3.45 -0.36,-5.23 0,-1.09 0.05,-2.17 0.14,-3.24 2.87,-1.02 5.13,-3.35 8.25,-3.74 3.5,-0.43 6.1,2.78 9.25,3.54 0.58,0.14 0.78,-0.6 0.36,-0.91 -1.42,-1.04 -3.26,-1.76 -4.86,-2.49 -1.33,-0.61 -2.78,-1.03 -4.25,-1.1 -3.13,-0.14 -5.94,2.26 -8.66,3.71 2.11,-19.18 18.41,-34.14 38.14,-34.14 16.76,0 31.04,10.8 36.26,25.8 -2.34,-0.86 -4.67,0.69 -6.76,1.89 -1.55,0.89 -2.96,1.16 -4.7,0.99 -1.09,-0.11 -2.53,-0.41 -3.5,0.25 -0.43,0.3 -0.13,0.92 0.37,0.82 2.13,-0.46 4.19,0.39 6.32,-0.22 3.08,-0.89 5.24,-3.89 8.65,-2.62 0.35,1.11 0.64,2.24 0.89,3.39 -1.58,-0.5 -3.76,0.15 -4.13,1.82 -0.08,0.37 0.43,0.72 0.69,0.38 0.53,-0.69 0.92,-1.32 1.87,-1.4 0.68,-0.06 1.21,0.13 1.8,0.34 0.26,1.43 0.45,2.89 0.54,4.37 -0.73,-0.19 -1.53,0.14 -2,0.79 -1.43,-1.17 -3.58,-0.9 -3.99,1.26 -0.09,0.46 0.58,0.63 0.71,0.18 0.45,-1.57 2.1,-1.74 3.02,-0.45 0.24,0.34 0.69,0.24 0.82,-0.13 0.28,-0.77 0.89,-0.88 1.49,-0.66 0.02,0.52 0.04,1.05 0.04,1.57 0,1.05 -0.05,2.09 -0.13,3.12 -3.61,-0.75 -7.33,-0.98 -11.01,-0.85 -0.49,0.02 -0.46,0.73 0.02,0.75zm-11.38 31.91c-0.08,-0.35 -0.14,-0.68 -0.02,-1.08 0.15,-0.5 0.58,-0.61 1.03,-0.61l0.01 0c0.37,0.09 0.56,-0.23 0.5,-0.52l-0 -0.01 -0.1 -0.21c-0.34,-0.42 -0.72,-0.6 -0.87,-1.16 -0.11,-0.43 0.03,-0.9 0.23,-1.28 0.49,-0.95 1.38,-1.16 2.2,-0.54 0.33,0.25 0.92,-0.11 0.62,-0.5l-0.1 -0.12 0.02 -0.16c-0.06,-1.45 0.89,-2.49 2.22,-2.8l0.23 0.23c0.33,0.28 0.85,-0.1 0.6,-0.49 -0.62,-0.99 -0.76,-1.89 -0.15,-2.93 0.64,-1.09 1.74,-1.32 2.87,-1.19 -0.13,0.52 -0.21,1.06 -0.21,1.59 0,0.42 0.68,0.51 0.74,0.08 0.33,-2.12 1.16,-3.81 2.96,-5.06 1.51,-1.05 3.76,-1.46 5.47,-0.7 -3.94,7.68 -10.4,13.86 -18.28,17.46zm-15.89 -74.38c-21.75,0 -39.45,17.7 -39.45,39.45 0,21.75 17.7,39.45 39.45,39.45 21.75,0 39.45,-17.7 39.45,-39.45 0,-21.75 -17.69,-39.45 -39.45,-39.45z"/>
  <path class="fil0" d="M28.7 70.15l-1.24 -0.46 -0.27 0.01 -0.19 0.2 -1.02 2.75c-0.07,0.18 0.02,0.39 0.21,0.46l0.06 0.02 0.12 0.02 0.15 -0.03 0.19 -0.2 0.43 -1.15 0.84 0.32c0.18,0.07 0.39,-0.02 0.46,-0.21l0.02 -0.06 -0.01 -0.28 -0.2 -0.19 -0.84 -0.31 0.18 -0.48 0.85 0.32c0.18,0.07 0.39,-0.03 0.46,-0.21l0.02 -0.06 -0.01 -0.27 -0.2 -0.19z"/>
  <path class="fil0" d="M31.68 72.27l-0.31 1.25 -0.19 0.26 -0.32 0.05 -0.26 -0.19 -0.04 -0.32 0.31 -1.25 0.19 -0.26 0.21 -0.06 0.11 0.01 0.26 0.19 0.05 0.32zm-0.11 -1.26c-0.32,-0.08 -0.63,-0.03 -0.91,0.14 -0.28,0.17 -0.46,0.42 -0.55,0.74l-0.31 1.25c-0.08,0.32 -0.03,0.63 0.14,0.91 0.17,0.28 0.42,0.46 0.74,0.54l0.3 0.04c0.21,0 0.42,-0.06 0.61,-0.17 0.28,-0.17 0.47,-0.42 0.55,-0.74l0.31 -1.25c0.08,-0.32 0.03,-0.62 -0.14,-0.91 -0.17,-0.28 -0.41,-0.47 -0.73,-0.54z"/>
  <path class="fil0" d="M35.38 72.92c-0.03,0.22 -0.11,0.28 -0.17,0.32 -0.09,0.04 -0.2,0.05 -0.33,0.04l-0.37 -0.05 0.11 -0.83 0.38 0.05c0.13,0.02 0.24,0.06 0.31,0.12 0.05,0.05 0.12,0.14 0.09,0.35zm-0.29 -1.25l-0.79 -0.11 -0.27 0.07 -0.14 0.24 -0.39 2.91c-0.02,0.19 0.11,0.38 0.31,0.4l0.06 0.01 0.27 -0.07 0.14 -0.24 0.12 -0.89 0.34 0.05 0.38 1.13c0.05,0.15 0.19,0.24 0.34,0.24l0.1 -0.01 0.06 -0.02 0.21 -0.18 0.02 -0.28 -0.33 -0.98c0.35,-0.16 0.56,-0.47 0.62,-0.93 0.07,-0.54 -0.15,-0.86 -0.34,-1.03 -0.19,-0.17 -0.44,-0.28 -0.73,-0.32z"/>
  <path class="fil0" d="M40.15 72.04l-0.06 -0.01c-0.19,-0.05 -0.38,0.07 -0.43,0.26l-0.37 1.51 -0.22 -0.71c-0.04,-0.15 -0.18,-0.25 -0.33,-0.25 -0.17,-0 -0.29,0.09 -0.35,0.24l-0.25 0.7 -0.31 -1.53c-0.04,-0.19 -0.23,-0.32 -0.42,-0.28l-0.06 0.01 -0.23 0.15 -0.05 0.27 0.58 2.91c0.03,0.16 0.18,0.28 0.34,0.29l0.07 0c0.16,0 0.29,-0.09 0.35,-0.24l0.29 -0.82 0.26 0.83c0.05,0.15 0.18,0.25 0.34,0.25l0.07 0 0.01 0c0.16,0 0.31,-0.11 0.35,-0.27l0.7 -2.88 -0.04 -0.27 -0.22 -0.16z"/>
  <path class="fil0" d="M42.42 73.94l0.12 -0.49 0.2 0.46 -0.31 0.03zm0.37 -1.86c-0.06,-0.14 -0.21,-0.23 -0.36,-0.21l-0.07 0.01c-0.15,0.01 -0.28,0.12 -0.31,0.27l-0.7 2.97 0.05 0.28 0.23 0.16 0.06 0.01 0.07 0.01c0.17,0 0.31,-0.11 0.35,-0.27l0.13 -0.55 0.83 -0.07 0.23 0.52c0.08,0.18 0.28,0.26 0.46,0.19l0.06 -0.02 0.2 -0.2 -0 -0.28 -1.22 -2.8z"/>
  <path class="fil0" d="M46.57 72.75c-0.07,0.07 -0.17,0.12 -0.3,0.14l-0.37 0.08 -0.17 -0.82 0.37 -0.07c0.14,-0.03 0.24,-0.02 0.33,0.01 0.07,0.03 0.15,0.09 0.2,0.3 0.04,0.22 -0.01,0.31 -0.06,0.36zm0.54 0.57c0.28,-0.26 0.38,-0.63 0.28,-1.08 -0.11,-0.53 -0.42,-0.76 -0.66,-0.86 -0.24,-0.1 -0.5,-0.12 -0.79,-0.06l-0.78 0.16 -0.23 0.15 -0.05 0.27 0.59 2.88c0.04,0.17 0.18,0.29 0.35,0.29l0.07 -0.01 0.06 -0.01 0.23 -0.15 0.05 -0.27 -0.18 -0.88 0.34 -0.07 0.73 0.94c0.12,0.15 0.33,0.18 0.49,0.07l0.05 -0.04 0.15 -0.24 -0.07 -0.27 -0.63 -0.81z"/>
  <path class="fil0" d="M50.58 72.94l-0.27 0.23 -0.32 0.1 -0.66 -2.02 0.32 -0.1 0.35 0.03c0.15,0.06 0.24,0.15 0.28,0.29l0.35 1.07c0.05,0.14 0.03,0.27 -0.05,0.4zm0.45 -1.71c-0.12,-0.36 -0.37,-0.63 -0.73,-0.77 -0.3,-0.12 -0.6,-0.14 -0.88,-0.05l-0.72 0.23c-0.19,0.06 -0.29,0.26 -0.23,0.45l0.92 2.82c0.05,0.15 0.19,0.25 0.34,0.25l0.11 -0.02 0.72 -0.24c0.28,-0.09 0.51,-0.27 0.68,-0.55 0.21,-0.33 0.26,-0.69 0.14,-1.06l-0.35 -1.07z"/>
  <path class="fil0" d="M11.04 21.85l-0.26 -0.08 -0.24 0.13 -0.06 0.07c-0.13,0.15 -0.11,0.38 0.04,0.5l2.18 1.86 -1.66 -0.28c-0.15,-0.02 -0.31,0.05 -0.38,0.18 -0.07,0.14 -0.05,0.31 0.06,0.42l1.17 1.22 -2.77 -0.76c-0.19,-0.05 -0.39,0.06 -0.44,0.25l-0.03 0.09 0.04 0.27 0.22 0.17 4.18 1.15 0.09 0.01 0.32 -0.19 0.05 -0.09c0.07,-0.14 0.05,-0.3 -0.06,-0.42l-1.23 -1.28 1.74 0.3c0.15,0.03 0.3,-0.05 0.38,-0.18l0.05 -0.09c0.08,-0.15 0.04,-0.33 -0.08,-0.44l-3.3 -2.81z"/>
  <path class="fil0" d="M15.67 15.96c-0.14,-0.14 -0.37,-0.13 -0.51,0.01l-0.07 0.07 -0.1 0.25 0.11 0.25 3.06 2.95 0.25 0.1 0.26 -0.11 0.07 -0.07 0.1 -0.26 -0.11 -0.25 -3.05 -2.95z"/>
  <path class="fil0" d="M24.52 11.88l-0.08 0c-0.28,0.02 -0.53,0.03 -0.74,0.05l-0.52 0.04c-0.38,0.02 -0.54,-0.14 -0.62,-0.28 -0.07,-0.12 -0.09,-0.24 -0.07,-0.38 0.02,-0.1 0.07,-0.25 0.31,-0.38 0.08,-0.05 0.32,-0.15 0.98,-0.28 0.16,-0.03 0.28,-0.17 0.29,-0.33l0.01 -0.09 -0.1 -0.27 -0.26 -0.11c-0.44,0 -0.88,0.13 -1.32,0.38 -0.38,0.22 -0.62,0.55 -0.69,0.94 -0.06,0.33 -0.01,0.64 0.16,0.93 0.21,0.36 0.54,0.59 0.94,0.66l0.05 0 0.26 0.01 0.05 0 0.29 -0.01 0.79 -0.05 0.34 -0 0.2 0.02c0.13,0.03 0.23,0.11 0.3,0.24 0.07,0.11 0.08,0.23 0.05,0.37 -0.03,0.16 -0.11,0.27 -0.26,0.35 -0.05,0.03 -0.31,0.14 -1.29,0.25 -0.17,0.02 -0.3,0.15 -0.32,0.32l-0.01 0.09 0.08 0.26 0.24 0.13 0.26 0.01c0.2,0 0.4,-0.02 0.61,-0.07 0.31,-0.06 0.59,-0.16 0.83,-0.3 0.35,-0.2 0.58,-0.51 0.65,-0.9 0.06,-0.34 0.01,-0.65 -0.15,-0.93 -0.18,-0.31 -0.54,-0.68 -1.27,-0.68z"/>
  <path class="fil0" d="M33.72 10.75c-0.05,-0.19 -0.24,-0.31 -0.43,-0.26l-0.68 0.17c-0.26,0.06 -0.46,0.05 -0.61,-0.04 -0.15,-0.1 -0.26,-0.27 -0.32,-0.52l-0.45 -1.83c-0.06,-0.26 -0.05,-0.45 0.05,-0.61 0.1,-0.16 0.27,-0.26 0.52,-0.33l0.68 -0.17 0.22 -0.16 0.04 -0.27 -0.02 -0.09c-0.05,-0.19 -0.24,-0.31 -0.43,-0.26l-0.69 0.17c-0.47,0.12 -0.81,0.35 -1.02,0.69 -0.21,0.34 -0.25,0.75 -0.14,1.22l0.45 1.83c0.12,0.47 0.35,0.81 0.69,1.02 0.22,0.14 0.47,0.2 0.75,0.2 0.15,0 0.31,-0.02 0.48,-0.06l0.69 -0.17 0.22 -0.16 0.04 -0.27 -0.02 -0.09z"/>
  <path class="fil0" d="M41.42 9.14c-0.01,0.22 -0.09,0.39 -0.25,0.54 -0.15,0.14 -0.31,0.2 -0.52,0.2l-0.04 0c-0.22,-0.01 -0.39,-0.09 -0.54,-0.25 -0.15,-0.16 -0.22,-0.34 -0.21,-0.56l0.07 -1.88c0.01,-0.22 0.09,-0.39 0.25,-0.54 0.15,-0.14 0.32,-0.21 0.52,-0.21l0.04 0c0.22,0.01 0.39,0.09 0.54,0.25 0.15,0.16 0.21,0.33 0.2,0.55l-0.07 1.88zm0.81 0.03l0.07 -1.88c0.02,-0.43 -0.13,-0.82 -0.42,-1.14 -0.3,-0.32 -0.66,-0.49 -1.1,-0.51l-0.07 -0c-0.4,0 -0.76,0.14 -1.07,0.42 -0.32,0.29 -0.49,0.67 -0.51,1.1l-0.07 1.88c-0.02,0.44 0.12,0.82 0.42,1.14 0.29,0.32 0.66,0.49 1.1,0.5l0.07 0c0.41,0 0.77,-0.14 1.07,-0.42 0.32,-0.3 0.49,-0.67 0.51,-1.1z"/>
  <path class="fil0" d="M51.47 7.94l-0.21 -0.18 -0.09 -0.03c-0.19,-0.06 -0.39,0.04 -0.45,0.23l-0.84 2.54 -0.61 -3.21 -0.24 -0.27 -0.09 -0.03c-0.19,-0.06 -0.39,0.04 -0.45,0.23l-1.34 4.03 0.02 0.27 0.21 0.18 0.09 0.03 0.27 -0.02 0.18 -0.21 0.84 -2.54 0.61 3.21 0.24 0.27 0.09 0.03 0.11 0.02 0.16 -0.04 0.18 -0.21 1.34 -4.03 -0.02 -0.27z"/>
  <path class="fil0" d="M58.44 11.45c-0.36,-0.25 -0.76,-0.33 -1.14,-0.22 -0.32,0.09 -0.58,0.27 -0.77,0.54 -0.24,0.35 -0.31,0.74 -0.2,1.14l0.02 0.04 0.13 0.29 0.13 0.25 0.38 0.69 0.15 0.31 0.06 0.19c0.02,0.14 -0,0.25 -0.08,0.37 -0.07,0.11 -0.17,0.17 -0.32,0.21 -0.15,0.04 -0.28,0.02 -0.43,-0.08 -0.05,-0.04 -0.26,-0.22 -0.78,-1.06 -0.09,-0.15 -0.27,-0.21 -0.42,-0.15l-0.09 0.03 -0.2 0.18 -0.02 0.27c0.09,0.26 0.24,0.52 0.43,0.77 0.19,0.25 0.4,0.46 0.63,0.61 0.24,0.16 0.49,0.24 0.75,0.24l0.34 -0.05c0.33,-0.09 0.59,-0.27 0.77,-0.53 0.21,-0.31 0.39,-0.81 0.03,-1.51 -0.14,-0.25 -0.26,-0.46 -0.36,-0.65l-0.26 -0.45c-0.19,-0.34 -0.11,-0.54 -0.01,-0.68l0.31 -0.22c0.16,-0.04 0.31,-0.01 0.48,0.11 0.08,0.06 0.28,0.23 0.68,0.77 0.1,0.13 0.27,0.18 0.42,0.12l0.09 -0.04 0.2 -0.2 -0.01 -0.28c-0.19,-0.4 -0.49,-0.74 -0.91,-1.03z"/>
  <path class="fil0" d="M61.74 21.18l0.28 0.13 0.23 -0.08 3.27 -2.7c0.15,-0.13 0.18,-0.35 0.05,-0.5l-0.06 -0.07 -0.24 -0.13 -0.26 0.08 -3.28 2.7 -0.13 0.24 0.08 0.26 0.06 0.07z"/>
  <path class="fil0" d="M65.44 26.64l0 0.27 0.04 0.08c0.08,0.18 0.29,0.26 0.47,0.19l2.46 -1.06 -1.99 2.59 -0.05 0.36 0.04 0.09 0.2 0.19 0.13 0.02 0.14 -0.03 3.9 -1.68 0.19 -0.2 -0 -0.27 -0.04 -0.09c-0.08,-0.18 -0.29,-0.26 -0.47,-0.19l-2.46 1.06 1.99 -2.59 0.05 -0.36 -0.04 -0.09 -0.2 -0.19 -0.27 0 -3.89 1.68 -0.19 0.2z"/>
  <path class="fil0" d="M44.53 37.35c-0.29,1.54 -0.15,3.37 -0.03,4.93 0.04,0.5 0.73,0.47 0.77,-0.02 0.12,-1.56 0.26,-3.39 -0.03,-4.93 -0.07,-0.36 -0.65,-0.33 -0.72,0.02z"/>
  <path class="fil0" d="M46.76 20.47c-1.85,-0.15 -3.58,1.31 -3.52,3.2l0.01 0.03 -0.01 0.09 -0.02 0.34c-0.01,0.24 -0.01,0.49 -0.02,0.73 -0.01,0.31 -0.03,0.66 0.07,0.96 0.13,0.38 0.63,0.34 0.75,-0.02 0.1,-0.3 0.07,-0.66 0.06,-0.97 -0,-0.24 -0.01,-0.49 -0.01,-0.73l-0.02 -0.3 -0.02 -0.14 0.01 -0.03c0.16,-1.52 1.24,-2.38 2.75,-2.34 0.69,0.02 1.29,0.38 1.76,0.86 0.5,0.51 0.52,1.17 0.67,1.8l0 0.32c0.28,1.05 0.06,2.4 0.06,3.48 0,0.94 0.01,1.88 0.06,2.82 0.03,0.51 0.76,0.48 0.79,-0.02 0.05,-0.94 0.06,-1.88 0.06,-2.83 0,-1.09 -0.21,-2.43 0.07,-3.49 0.04,-0.16 0.02,-0.28 -0.04,-0.38 0.21,-1.88 -1.74,-3.28 -3.45,-3.42z"/>
  <path class="fil0" d="M28.97 33.26c0.06,-0.24 0.05,-0.49 0.05,-0.73 -0,-0.15 0,-0.3 -0.01,-0.45l-0.08 -0.29 -0.04 -0.07 -0.21 -0.16c-0.16,-0.04 -0.36,0.05 -0.42,0.21l-0.01 0.01 -0.07 0.28c-0.01,0.15 -0.01,0.29 -0.02,0.43 -0,0.26 -0.01,0.52 0.05,0.78 0.1,0.38 0.66,0.34 0.75,-0.02z"/>
  <path class="fil0" d="M18.75 43.71c0.31,0.07 0.59,-0.28 0.41,-0.56 -0.47,-0.73 -1.51,-0.89 -2.26,-0.47 -0.64,0.36 -0.98,0.94 -1.03,1.6 -0.92,0.05 -1.68,0.83 -1.44,1.87 0.09,0.39 0.71,0.37 0.79,-0.02 0.12,-0.67 0.38,-1.03 1.09,-0.76 0.4,0.15 0.7,-0.31 0.62,-0.65 -0.12,-0.51 0.07,-0.96 0.57,-1.17 0.42,-0.18 0.86,0.07 1.26,0.16z"/>
  <path class="fil0" d="M11.29 46.02c-0.4,-0.03 -0.72,0.16 -0.95,0.44 -1.24,-1.34 -3.63,-0.87 -3.75,1.37 -0.02,0.48 0.76,0.56 0.84,0.09 0.13,-0.71 0.36,-1.34 1.17,-1.38 0.64,-0.03 1.17,0.49 1.37,1.05 0.14,0.39 0.83,0.47 0.9,-0.02 0.08,-0.65 0.41,-0.72 0.86,-0.38 0.26,0.19 0.71,0.09 0.68,-0.3 -0.04,-0.6 -0.59,-0.83 -1.13,-0.87z"/>
  <path class="fil0" d="M19.02 46.42c-0.48,-0.35 -1.04,-0.11 -1.4,0.28 -0.17,0.18 -0.17,0.47 0.01,0.65 0.19,0.18 0.46,0.15 0.65,-0.02l0.25 -0.2 0.22 -0.02c0.16,0.04 0.34,-0.03 0.42,-0.18 0.11,-0.19 0.02,-0.39 -0.15,-0.51z"/>
  <path class="fil0" d="M6.03 50.65l0.01 0.02c0.07,0.14 0.12,0.26 -0.01,-0.02z"/>
  <path class="fil0" d="M54.23 25.05c-0.04,-0.51 -0.74,-0.48 -0.78,0.02 -0.19,2.54 -0.05,5.1 -0.06,7.64 -0.01,2.55 -0.08,5.1 0.05,7.64 0.03,0.52 0.77,0.49 0.8,-0.02 0.13,-2.54 0.06,-5.1 0.05,-7.64 -0.01,-2.54 0.13,-5.1 -0.06,-7.64z"/>
  <path class="fil0" d="M68.36 32.42c1.17,-0.11 1.83,0.67 2.35,1.59 0.24,0.44 0.82,0.09 0.75,-0.34 -0.52,-2.87 -4.96,-2.71 -5.71,-0.25 -0.48,-0.15 -1.08,-0 -1.49,0.33 -1.33,-1.19 -3.48,-0.9 -4.13,1 -0.13,0.38 0.44,0.69 0.69,0.38 0.31,-0.38 0.55,-0.72 0.96,-1.01 0.82,-0.57 1.59,-0.07 2.09,0.6 0.19,0.25 0.67,0.35 0.82,-0.02 0.2,-0.5 0.67,-0.52 1.06,-0.2l0.3 0.11c0.14,0.01 0.28,-0.05 0.34,-0.21 0.4,-1 0.74,-1.88 1.96,-1.99z"/>
  <path class="fil0" d="M69.33 36.03c-0.55,0.13 -0.96,0.56 -1.06,1.11 -0.08,0.4 0.51,0.68 0.7,0.27 0.22,-0.49 0.79,-0.7 1.26,-0.45 0.41,0.22 0.73,-0.3 0.46,-0.62 -0.33,-0.39 -0.89,-0.42 -1.36,-0.32z"/>
  <path class="fil0" d="M74.82 40.59c0.13,-0.12 0.42,-0.09 0.57,-0.09 0.22,0.01 0.41,0.15 0.56,0.29 0.28,0.26 0.78,-0.01 0.65,-0.4 -0.32,-0.97 -1.74,-1.06 -2.33,-0.32 -0.3,0.38 0.18,0.84 0.54,0.52z"/>
  <path class="fil0" d="M73.28 51.48c-2.84,0.43 -5.65,1.14 -8.4,2.08 -9.58,-1.49 -19.35,-1.7 -29,-0.77 -8.94,0.86 -17.96,2.78 -26.07,6.74 -0.42,0.21 -0.04,0.82 0.38,0.62 8.02,-3.83 16.91,-5.63 25.7,-6.52 9.11,-0.92 18.36,-0.7 27.44,0.48 -7.75,2.94 -14.88,7.77 -20.42,13.84 -6.64,-3.05 -14.84,-3.05 -21.89,-1.72 -0.42,0.08 -0.3,0.8 0.12,0.74 6.96,-1.07 14.6,-1.04 21.22,1.61 -0.39,0.44 -0.77,0.89 -1.15,1.35 -0.32,0.39 0.22,0.91 0.57,0.54 4.24,-4.47 8.69,-8.51 14,-11.69 5.44,-3.26 11.42,-5.33 17.62,-6.56 0.41,-0.08 0.3,-0.79 -0.12,-0.73z"/>
  <path class="fil0" d="M48.91 59.98c0.49,0.09 0.69,-0.65 0.19,-0.76 -6.34,-1.4 -12.86,-1.38 -19.27,-0.47 -5.79,0.82 -11.91,2.37 -17.01,5.33 -0.42,0.24 -0.03,0.82 0.38,0.62 11.08,-5.07 23.65,-6.95 35.7,-4.72z"/>
  <path class="fil0" d="M64.92 65.02l-0 -0.18 -0.03 0.01c0.22,-0.38 -0.32,-0.77 -0.62,-0.45l-0.12 0.2 -0.05 0.2c-0.03,0.19 -0.03,0.39 -0.03,0.58 0.01,0.17 0.02,0.33 0.03,0.5 0.01,0.15 0.04,0.26 0.14,0.37l-0.07 -0.1 0.05 0.09c0.16,0.22 0.55,0.27 0.68,-0.02l0.04 -0.12 0 -0.01 0.03 -0.17c-0,-0.14 -0.02,-0.27 -0.03,-0.4 -0.01,-0.16 -0.01,-0.33 -0.02,-0.5z"/>
  <polygon class="fil0" points="64.17,66.14 64.17,66.13 "/>
  <path class="fil0" d="M21.51 22.69l-0 -0.03 -0.01 -0.06 -0.14 -0.22c-0.17,-0.16 -0.41,-0.14 -0.57,0.01l-0.15 0.35c-0.05,0.29 0.15,0.57 0.45,0.56 0.32,-0.01 0.48,-0.3 0.42,-0.59l-0 -0.03z"/>
  <path class="fil0" d="M24.71 23.39c-0.2,-0.02 -0.42,0.1 -0.43,0.36l0.02 0.24c0.06,0.16 0.2,0.27 0.38,0.27 0.22,0 0.37,-0.18 0.48,-0.34 0.2,-0.29 -0.16,-0.64 -0.45,-0.54z"/>
  <path class="fil0" d="M42.01 17.05c-0.35,0.01 -0.47,0.33 -0.37,0.58l-0.01 -0 0 0.04c0.04,0.5 0.73,0.47 0.77,-0.02l0 -0c0.1,-0.26 -0.05,-0.61 -0.39,-0.6z"/>
  <path class="fil0" d="M36.41 14.07c-0.16,0.01 -0.28,0.04 -0.4,0.11l-0.12 0.06c-0.29,0.14 -0.26,0.62 0.02,0.75l0.07 0.03c0.13,0.09 0.28,0.12 0.46,0.13 0.3,0.01 0.53,-0.27 0.53,-0.55 -0.01,-0.29 -0.26,-0.54 -0.55,-0.53z"/>
  <path class="fil0" d="M38.43 21.9l-0.28 0.04c-0.37,0.12 -0.34,0.63 0.02,0.74l0.28 0.04c0.52,0.04 0.51,-0.85 -0.02,-0.82z"/>
  <path class="fil0" d="M51.14 16.65c-0.61,0 -0.59,0.95 0.02,0.95 0.61,0 0.59,-0.95 -0.02,-0.95z"/>
  <path class="fil0" d="M67.35 18.21l0.17 0.03c0.27,0.05 0.53,-0.13 0.52,-0.42 -0.01,-0.3 -0.28,-0.44 -0.54,-0.39l-0.17 0.03c-0.38,0.07 -0.35,0.69 0.02,0.75z"/>
  <path class="fil0" d="M8.8 28.9c-0.57,0 -0.55,0.89 0.02,0.89 0.57,0 0.55,-0.89 -0.02,-0.89z"/>
  <path class="fil0" d="M30.79 18.82l-0.31 -0.17 -0.29 -0.03c-0.29,0.04 -0.55,0.19 -0.62,0.5 -0.06,0.26 0.05,0.62 0.32,0.73l0.28 0.11c0.28,0.09 0.61,-0.08 0.75,-0.33 0.16,-0.29 0.07,-0.57 -0.12,-0.81l-0.01 -0.01z"/>
  <path class="fil0" d="M19.52 29.71l-0.03 0.01c-0.44,0.25 -0.39,0.89 0.03,1.13l0.03 0.02 0.19 0.07 0.18 0.03c0.21,0 0.38,-0.12 0.48,-0.29 0.09,-0.12 0.15,-0.26 0.15,-0.42 -0.01,-0.52 -0.59,-0.81 -1.03,-0.55z"/>
  <path class="fil0" d="M35.47 4.59c-0.69,0 -0.66,1.07 0.03,1.07 0.69,0 0.67,-1.07 -0.03,-1.07z"/>
  <path class="fil0" d="M18.26 12.3l-0.15 0.06 -0.01 -0.01c-0.4,0.08 -0.36,0.71 0.02,0.79l0.01 -0.01 0.16 0.05c0.29,0.07 0.57,-0.15 0.57,-0.46 -0.01,-0.31 -0.31,-0.49 -0.59,-0.43z"/>
  <path class="fil0" d="M35.33 35.82c-4.1,-0.08 -8.32,-0.28 -12.41,0.03 -0.48,0.04 -0.45,0.7 0.02,0.73 4.09,0.31 8.31,0.11 12.41,0.03 0.51,-0.01 0.49,-0.78 -0.02,-0.79z"/>
  <path class="fil0" d="M59.56 70.19c1.61,0.08 0.13,-1.73 0.68,-2.31 -1.34,-0.17 -0.4,1.59 -0.68,2.31z"/>
 </g>
</svg>
