
<svg xmlns="http://www.w3.org/2000/svg" xml:space="preserve" width="0.747323in" height="0.747331in" version="1.1" style="shape-rendering:geometricPrecision; text-rendering:geometricPrecision; image-rendering:optimizeQuality; fill-rule:evenodd; clip-rule:evenodd"
viewBox="0 0 84.12 84.12"
 xmlns:xlink="http://www.w3.org/1999/xlink"
 xmlns:xodm="http://www.corel.com/coreldraw/odm/2003">
 <defs>
  <style type="text/css">
   <![CDATA[
    .fil0 {fill:black;fill-rule:nonzero}
   ]]>
  </style>
 </defs>
 <g id="Layer_x0020_1">
  <metadata id="CorelCorpID_0Corel-Layer"/>
  <path class="fil0" d="M82.96 43.13c-1.23,-0.76 -2.5,-1.33 -3.52,-2.47 -0.48,-0.54 -1.01,-1.03 -1.55,-1.48 0.46,0.06 0.9,0.15 1.35,0.39 0.8,0.43 1.48,1.11 2.23,1.63 0.42,0.3 0.8,-0.35 0.5,-0.68 -1.29,-1.46 -3.09,-2.93 -5.19,-2.29l-0.08 0.04c-0.59,-0.42 -1.19,-0.83 -1.79,-1.26 -1.48,-1.04 -3.42,-0.83 -4.95,-1.77 -0.29,-0.18 -0.56,-0.39 -0.82,-0.61 0.78,0.06 1.61,-0.1 2.34,-0.26 0.51,-0.11 0.31,-0.81 -0.13,-0.84 -0.61,-0.05 -1.22,-0.03 -1.83,-0.03 -0.61,0 -1.2,-0.17 -1.8,-0.22l-0.04 0.01c-0.61,-0.58 -1.25,-1.13 -2.05,-1.49 -0.47,-0.21 -0.82,0.42 -0.39,0.7 1.44,0.93 2.44,2.34 3.81,3.34 1.4,1.03 2.9,1.13 4.51,1.62 2.16,0.66 4.1,2.78 5.54,4.43 1,1.14 2.43,1.85 3.78,2.48 -0.08,1.46 -0.24,2.9 -0.47,4.31 -0.44,-0.28 -0.91,-0.53 -1.19,-0.74 -1.26,-1 -2.16,-2.3 -3.57,-3.16 -0.39,-0.23 -0.84,0.37 -0.47,0.64 1.25,0.94 2.29,2.1 3.38,3.2 0.31,0.31 0.75,0.55 1.11,0.8 0.17,0.12 0.35,0.27 0.53,0.41 -0.12,0.64 -0.26,1.27 -0.41,1.9 -0.71,-0.51 -1.6,-0.81 -1.86,-1.69 -0.26,-0.89 -1.02,-1.53 -1.76,-2.02 -1.73,-1.14 -3.71,-1.63 -5.34,-2.98 -1.45,-1.21 -2.71,-2.51 -4.45,-3.32 -0.47,-0.22 -0.84,0.44 -0.39,0.71 1.55,0.91 2.8,2.17 4.14,3.35 1.16,1.02 2.47,1.66 3.87,2.29 1.51,0.69 2.56,1.2 3.06,2.84 0.31,1.02 1.7,1.2 2.46,1.82 -0.24,0.9 -0.52,1.79 -0.82,2.66 -2.37,-0.1 -4.76,-0.13 -7.15,-0.12 -0.14,-0.18 -0.46,-0.17 -0.61,0 -2.35,0.02 -4.7,0.06 -7.04,0.08l-0.31 0c-0.23,0 -0.46,0 -0.69,0.01 -0.66,0 -0.63,1.01 0.03,1.02l0.41 0c-0.04,0.48 -0.06,0.99 -0.03,1.47 -0.58,-0.01 -1.17,-0.02 -1.75,-0.03 0.01,-0.18 0.01,-0.35 0.02,-0.53 0.15,-0.11 0.16,-0.34 0.02,-0.47 0.05,-1.14 0.08,-2.3 -0.08,-3.4 0.03,-0.15 -0.04,-0.33 -0.23,-0.4 -3.82,-1.43 -8.06,-2.79 -12.08,-3.53 -0.36,-0.65 -0.96,-1.24 -1.42,-1.81 -0.5,-0.63 -0.97,-1.38 -1.58,-1.92 -0.18,-0.32 -0.6,-0.59 -0.93,-0.83l-0.31 -0.22c-0.48,-0.38 -0.97,-0.81 -1.51,-1.1l-0.03 -0.01 -0.05 -0.02 -0.04 -0.01 -0.04 -0.01c-1.65,-0.19 -3.42,-0.08 -5.08,0l-0.17 0.06c-0.52,0.28 -0.98,0.7 -1.44,1.05 -0.37,0.28 -1.03,0.67 -1.27,1.08l-0.02 0.01c-0.58,0.52 -1.04,1.24 -1.52,1.85 -0.48,0.59 -1.1,1.2 -1.47,1.87 -4.03,0.74 -8.27,2.09 -12.1,3.53 -0.36,0.14 -0.25,0.61 0.08,0.64 -0.16,1.34 -0.06,2.77 -0,4.12 -0.51,0.01 -1.03,0.03 -1.54,0.04 0,-0.15 -0.01,-0.29 -0.01,-0.41 -0.01,-0.35 -0,-0.71 -0.02,-1.07l0.29 -0.01c0.6,-0.03 0.57,-0.9 -0.02,-0.93l-0.36 -0.02 -0.01 -0.08c-0.08,-0.39 -0.69,-0.35 -0.77,0.02l-0 0.03c-1.19,-0.05 -2.39,-0.08 -3.59,-0.1 -0.14,-0.18 -0.46,-0.17 -0.61,-0 -1.47,-0.01 -2.94,-0.01 -4.41,0 -0.17,-0.16 -0.46,-0.19 -0.58,0 -2.46,0.03 -4.92,0.07 -7.36,0.09 -0.85,-2.46 -1.47,-5.02 -1.83,-7.67 1.15,1.42 2.77,2.53 3.79,4.06 0.37,0.55 0.82,0.73 1.45,0.83 1.81,0.28 3.43,0.07 4.94,1.33 0.41,0.34 0.94,-0.21 0.57,-0.59 -0.69,-0.72 -1.44,-1.08 -2.4,-1.33 -0.96,-0.25 -3.19,0.15 -3.83,-0.68 -0.65,-0.86 -1.05,-1.73 -1.84,-2.5 -1.07,-1.04 -2.15,-1.85 -2.91,-3.15 -0.1,-1.18 -0.16,-2.38 -0.16,-3.59 0,-0.25 0,-0.5 0.01,-0.75 0.23,0.2 0.47,0.38 0.75,0.55 0.72,0.43 1.39,0.75 2.01,1.35 0.62,0.6 1.06,1.34 1.7,1.92 0.35,0.32 0.86,-0.11 0.63,-0.51 -0.56,-1.02 -1.42,-1.99 -2.32,-2.72 -1,-0.8 -2.06,-1.08 -2.72,-2.11 0.34,-6.21 2.08,-12.07 4.9,-17.24 0.04,0.57 0.11,1.13 0.29,1.67 0.13,0.4 0.62,0.5 0.91,0.22 0.15,-0.1 0.29,-0.2 0.44,-0.3 1.26,1.01 2.91,-0.05 4.36,-0.74 1.38,-0.66 2.23,-1.3 3.16,-2.23 0.06,0.23 0.13,0.45 0.25,0.69 0.55,1.13 0.27,2.2 0.5,3.37 0.31,1.6 1.29,2.91 2.15,4.28 -0.6,0.18 -0.86,0.76 -0.43,1.61 0.94,1.85 3.01,2.04 3.86,3.91 0.18,0.41 0.87,0.1 0.71,-0.32 -0.28,-0.76 -0.55,-1.59 -1.28,-2.03 -0.43,-0.26 -0.89,-0.46 -1.34,-0.67 -0.3,-0.14 -1.82,-1.85 -0.83,-1.61l0.19 0c0.46,0.41 1.01,0.71 1.65,0.72 0.48,0.01 0.51,-0.67 0.09,-0.81 -0.57,-0.19 -1.08,-0.46 -1.54,-0.85l-0.04 -0.03c-0.95,-1.6 -2.1,-3 -2.27,-4.94 -0.06,-0.72 0,-1.39 -0.13,-2.1 -0.05,-0.25 -0.13,-0.49 -0.22,-0.73 0.38,0.3 0.76,0.6 1.14,0.89 1.1,0.84 1.06,2.2 1.9,3.2 1.93,2.32 5.39,3.28 7.64,1.19 1.74,0.55 3.38,-0.69 4.35,-2.15 0.29,-0.44 -0.37,-0.88 -0.72,-0.53 -0.82,0.82 -2.12,2.24 -3.5,1.64 -0.21,-0.09 -0.45,-0.08 -0.62,0.1 -1.79,1.92 -3.45,0.95 -5.35,-0.13 -1.32,-0.74 -1.48,-2.41 -2.18,-3.62 -0.64,-1.1 -2.34,-1.89 -3.28,-2.74 -0.25,-0.22 -0.65,-0.24 -0.88,0.02 -0.52,0.58 -1.04,1.17 -1.57,1.75 -0.64,0.71 -4.55,2.7 -5.25,1.84 -0.18,-0.22 -0.49,-0.37 -0.76,-0.18l-0.23 0.16c-0.06,-0.68 -0,-1.37 -0.33,-1.99l-0.02 -0.03c7.16,-11.94 20.22,-19.95 35.12,-19.95 17.47,0 32.42,11.01 38.27,26.45 -1.15,-0.73 -2.4,-1.34 -2.71,-2.83 -0.07,-0.34 -0.47,-0.49 -0.77,-0.41 -1.05,0.28 -1.61,-1.59 -2.35,-2.04 -0.75,-0.47 -2.33,-0.21 -2.56,-1.21 -0.08,-0.36 -0.5,-0.44 -0.79,-0.3 -1.44,0.72 -2.29,2.05 -3.85,2.62 -0.96,0.35 -1.57,1.39 -2.48,1.63 -0.47,0.12 -0.34,0.83 0.13,0.82 1.22,-0.02 1.57,-1.02 2.66,-1.43 1.45,-0.55 2.31,-1.64 3.53,-2.41 0.12,0.2 0.27,0.35 0.43,0.46 0.68,1.1 1.65,1.9 2.08,3.19 0.36,1.1 0.63,2.2 1.05,3.28 0.25,0.63 0.78,0.95 1.35,1.24 1.25,0.64 2.3,1.59 3.48,2.36 0.48,0.31 0.92,-0.39 0.57,-0.77 -0.78,-0.83 -1.71,-1.42 -2.62,-2.09 -0.27,-0.2 -0.59,-0.33 -0.89,-0.46 -0.59,-0.26 -0.89,-0.7 -1.13,-1.21 0.25,0.12 0.5,0.22 0.76,0.26 0.48,0.08 0.81,-0.59 0.33,-0.83 -0.41,-0.2 -0.8,-0.42 -1.14,-0.74 -0.35,-0.32 -0.45,-0.73 -0.69,-1.1 -0.1,-0.45 -0.22,-0.9 -0.45,-1.3 -0.27,-0.47 -0.59,-0.88 -0.94,-1.27 0.31,0.11 0.6,0.29 0.84,0.6 0.72,0.94 1.28,1.98 2.42,1.99 0.6,1.79 2.29,2.9 3.95,3.71 0.14,0.07 0.29,0.08 0.42,0.05 0.77,2.36 1.33,4.82 1.66,7.34 -0.44,-0.21 -0.91,-0.37 -1.29,-0.52 -1.73,-0.69 -3.07,-1.99 -4.53,-3.12 -0.41,-0.31 -0.95,0.23 -0.56,0.59 1.18,1.08 2.4,2.35 3.84,3.11 0.91,0.48 1.82,0.81 2.7,1.31 0.13,1.31 0.19,2.62 0.19,3.96 0,0.36 -0,0.71 -0.01,1.07zm-3.07 14.52l-0.06 -0.02c-1.49,-0.07 -2.98,-0.07 -4.47,-0.07 -0.52,0 -1.06,0.02 -1.61,0.05 0.01,-0.25 -0,-0.5 -0,-0.75l-0 -0.37c2.22,0.01 4.44,-0.01 6.64,-0.11 -0.16,0.43 -0.33,0.85 -0.5,1.27zm-7.07 -0.56c-0,0.18 -0,0.37 0,0.56 -0.27,0.01 -0.54,0.01 -0.8,0.01 0.28,-0.18 0.55,-0.36 0.8,-0.57zm-1.68 0.08c-0.01,-0.24 -0.02,-0.48 -0,-0.71 0.36,0.01 0.72,0.01 1.08,0.01 -0.36,0.23 -0.72,0.46 -1.07,0.71zm-4.82 -0.77c0.46,0 0.93,0.01 1.39,0.02 -0.46,0.3 -0.91,0.6 -1.35,0.91 -0,-0.31 -0.02,-0.63 -0.04,-0.93zm-14.92 0.42l0.01 -0.26 0 -0.08c0.93,0.03 1.87,0.04 2.8,0.03 0.02,0.23 0.04,0.46 0.09,0.68 0.07,0.32 0.57,0.29 0.64,-0.02 0.05,-0.22 0.07,-0.45 0.09,-0.68 0.31,-0.01 0.62,-0.01 0.93,-0.02 0.4,-0.01 0.38,-0.61 -0.01,-0.62 -0.3,-0.01 -0.6,-0.02 -0.9,-0.02 0,-0.18 0,-0.37 0,-0.55 1.3,-0.01 2.59,-0.03 3.89,-0.05 -0.03,0.8 0.01,1.6 0.09,2.39l0.05 0.15c-2.56,-0.01 -5.13,0 -7.69,0.01 0.01,-0.32 0.02,-0.65 0.02,-0.97zm0.05 -2.23c0,-0.2 0.01,-0.39 0.01,-0.59 0.9,0.02 1.81,0.02 2.72,0 -0,0.19 -0,0.37 0,0.56 -0.91,-0 -1.82,0.01 -2.73,0.02zm2.73 0.7c-0,0.18 -0,0.36 -0,0.53 -0.92,-0.01 -1.84,-0 -2.76,0.03 0.01,-0.2 0.01,-0.39 0.02,-0.59 0.91,0.02 1.83,0.03 2.74,0.02zm8.74 2.52c-1.12,-0.02 -2.24,-0.03 -3.36,-0.03l0.06 -0.16 0.02 -0.27c1.08,0.04 2.17,0.07 3.25,0.03 0.01,0.14 0.01,0.29 0.02,0.43zm-0.05 -1.11c-1.06,-0.04 -2.12,-0.02 -3.18,0.02 0.03,-0.51 0.04,-1.02 0.02,-1.52 0.23,-0.1 0.21,-0.47 -0.04,-0.55 -0.01,-0.16 -0.02,-0.32 -0.04,-0.48 -0.04,-0.32 -0.57,-0.45 -0.62,-0.07 -0.02,0.17 -0.03,0.34 -0.05,0.52 -1.3,-0.02 -2.61,-0.04 -3.92,-0.05 0,-0.2 0,-0.39 0,-0.58 1.01,-0.02 2.02,-0.05 3.02,-0.06 0.39,-0 0.37,-0.6 -0.02,-0.6 -1.01,-0.01 -2.02,-0.04 -3.04,-0.07 -0.02,-0.24 -0.06,-0.48 -0.11,-0.72 -0.07,-0.3 -0.52,-0.27 -0.59,0.01 -0.05,0.23 -0.08,0.46 -0.1,0.68 -0.92,-0.02 -1.84,-0.02 -2.75,0l0 -0.36c0.6,-0.01 1.2,-0.04 1.8,-0.05 0.39,-0.01 0.37,-0.59 -0.01,-0.6 -0.59,-0.01 -1.19,-0.03 -1.79,-0.05 -0.01,-0.26 -0.01,-0.53 -0.02,-0.8l0.16 -0.01c0.39,-0.02 0.37,-0.58 -0.01,-0.61l-0.17 -0.01 -0.03 -0.41 0.07 0 0.17 -0.07c3.59,1.42 7.57,2.5 11.31,3.32 -0.12,1 -0.1,2.06 -0.06,3.1zm-37.14 -2.94c-0.07,1.32 -0.02,2.65 0,3.98 -0.19,0 -0.37,0 -0.56,0 0.03,-1.33 0.07,-2.66 -0,-3.98 0.18,0 0.37,0 0.56,0zm0.59 -0.01c0.28,-0.01 0.56,-0.03 0.83,-0.05 -0.15,1.32 -0.05,2.71 0,4.04 -0.28,0 -0.55,0 -0.83,0 0.02,-1.33 0.07,-2.66 0,-3.99zm10.17 -3.61c-3.07,0.76 -6.18,1.79 -9.06,2.87 -0.59,-0.06 -1.19,-0.09 -1.79,-0.09 3.05,-0.76 6.16,-1.7 8.97,-2.87l0 0c0.61,0.03 1.24,0.07 1.87,0.09zm0.03 2.99c0.84,0.02 1.7,-0.02 2.52,-0.07 0,0.32 0,0.65 0.01,0.97 -0.84,-0.02 -1.67,-0.02 -2.51,-0.02 0.01,-0.29 0.01,-0.59 -0.01,-0.88zm2.54 1.67l0.01 0.4c-0.86,-0.01 -1.71,-0.01 -2.57,-0.01l0 -0.25 0 -0.12c0.85,0 1.7,-0.01 2.55,-0.02zm-6.13 1.86c-1.67,-0.05 -3.37,-0.1 -5.05,-0.01 0.03,-0.6 0.04,-1.21 0.03,-1.81 0.29,-0.04 0.62,-0.01 0.9,-0.02 0.36,-0 0.72,-0.01 1.08,-0.03 0.4,-0.02 0.38,-0.6 -0.01,-0.62 -0.36,-0.02 -0.72,-0.03 -1.08,-0.03 -0.29,-0 -0.62,0.03 -0.92,-0.02 -0.01,-0.18 -0.03,-0.35 -0.05,-0.52 3.74,-0.81 7.73,-1.89 11.31,-3.31 -0.05,0.71 -0.08,1.42 -0.09,2.14 -0.86,-0.05 -1.77,-0.1 -2.66,-0.07 -0.1,-0.25 -0.47,-0.22 -0.56,0.03 -0.19,0.01 -0.38,0.03 -0.57,0.06 -0.31,0.04 -0.43,0.54 -0.06,0.59 0.17,0.03 0.35,0.04 0.52,0.06 -0.02,0.3 -0.02,0.62 -0.01,0.92 -0.95,0.01 -1.91,0.04 -2.85,0.1 -0.4,0.02 -0.37,0.58 0.01,0.6 0.95,0.06 1.9,0.09 2.86,0.1l0 0.38c-1.42,0.01 -2.84,0.03 -4.26,0.09 -0.39,0.02 -0.36,0.58 0.02,0.6 1.41,0.05 2.83,0.07 4.25,0.09 0.01,0.46 0.03,0.91 0.06,1.37 0.03,0.41 0.6,0.38 0.63,-0.01 0.03,-0.45 0.04,-0.9 0.05,-1.35 0.87,0 1.73,-0 2.6,-0.01 0.02,0.62 0.03,1.23 0.05,1.84 -0.22,0 -0.45,-0 -0.67,-0 -0.05,-0.15 -0.17,-0.28 -0.38,-0.29 -0.51,-0.02 -1.02,-0.02 -1.53,0 -0.2,0.01 -0.32,0.13 -0.36,0.27 -2.78,-0.02 -5.57,-0.05 -8.36,-0.05 0.01,-0.15 0.01,-0.3 0.02,-0.46 1.69,0.1 3.4,0.04 5.08,-0.01 0.39,-0.01 0.37,-0.59 -0.01,-0.6zm17.76 1.12c-2.4,0.01 -4.79,0.03 -7.18,0.03 -1.23,0 -2.46,-0 -3.7,-0.02 0.01,-0.27 0.01,-0.55 0.02,-0.83 3.61,0.1 7.23,0.03 10.84,-0 0.01,0.27 0.01,0.54 0.02,0.82zm-6.24 -12.72c0.27,-0.2 0.54,-0.42 0.79,-0.64 -0.17,1.56 -0.04,3.19 -0,4.76 0.01,0.39 0.59,0.37 0.6,-0.02 0.03,-1.45 0.15,-2.97 0.03,-4.42 0.22,0.18 0.44,0.34 0.65,0.51 0.26,0.95 0.03,2.07 0.1,3.06 0.03,0.39 0.57,0.37 0.6,-0.02 0.06,-0.78 -0.07,-1.64 0,-2.44 0.2,0.16 0.4,0.29 0.6,0.37l0.03 0.05c-0.04,0.86 -0.11,1.76 0,2.62 0.04,0.31 0.55,0.43 0.6,0.07 0.07,-0.59 0.07,-1.19 0.05,-1.79 0.25,0.3 0.51,0.59 0.74,0.89l0.01 0.01c-0.04,0.26 -0.07,0.58 -0.03,0.83 0.02,0.14 0.09,0.26 0.24,0.3 0.16,0.04 0.36,-0.06 0.39,-0.23l0.01 -0.08c0.22,0.3 0.45,0.6 0.7,0.85 -1.12,-0.01 -2.23,-0.01 -3.35,0.02 -0.38,0.01 -0.36,0.58 0.01,0.59 1.15,0.02 2.31,0.03 3.47,0.01l-0.03 0.38c-0.45,-0.01 -0.9,0 -1.35,0.04 -0.39,0.03 -0.36,0.57 0.02,0.6 0.43,0.03 0.87,0.05 1.3,0.04 -0.01,0.25 -0.02,0.51 -0.02,0.77 -0.43,0 -0.87,0.01 -1.29,0.04 -0.4,0.03 -0.38,0.58 0.02,0.61 0.42,0.04 0.84,0.05 1.27,0.05l0 0.39c-0.26,0.01 -0.52,0.03 -0.78,0.05 -0.39,0.03 -0.37,0.57 0.02,0.6 0.25,0.02 0.51,0.03 0.76,0.05 0,0.21 0.01,0.43 0.01,0.64 -0.29,0.01 -0.58,0.01 -0.86,0.02 -0.39,0.01 -0.37,0.58 0.02,0.6 0.29,0.01 0.58,0.01 0.86,0.02 0.01,0.27 0.01,0.54 0.02,0.82l0 0.2 0 0.12c-3.6,-0.03 -7.21,-0.1 -10.81,-0.01l0.01 -0.42c2.09,-0.02 4.18,-0.06 6.26,-0.07 0.38,-0 0.36,-0.59 -0.01,-0.59 -2.07,-0.02 -4.15,-0.05 -6.23,-0.08 0,-0.14 0.01,-0.28 0.01,-0.43 1.04,-0.02 2.07,-0.05 3.1,-0.07 0.39,-0 0.37,-0.59 -0.02,-0.6 -1.02,-0.02 -2.05,-0.05 -3.08,-0.07 0.02,-1.34 0,-2.68 -0.1,-4l0.17 -0.13c0.42,-0.37 0.77,-0.87 1.12,-1.34 0.01,0.29 0.04,0.59 0.06,0.86 0.03,0.41 0.59,0.38 0.62,-0.02 0.04,-0.55 0.1,-1.16 0.01,-1.73 0.3,-0.35 0.61,-0.71 0.87,-1.09 -0.02,0.86 -0.01,1.73 0.03,2.58 0.02,0.39 0.59,0.37 0.61,-0.02 0.04,-1.04 0.06,-2.11 0,-3.16 0.19,-0.13 0.37,-0.29 0.55,-0.44 -0.03,0.96 -0.02,1.93 0.02,2.89 0.01,0.39 0.59,0.37 0.6,-0.02 0.04,-1.12 0.05,-2.25 -0,-3.37zm-3.11 0.62c-0.88,-0.08 -1.79,-0.07 -2.68,-0.04 0.14,-0.12 0.28,-0.25 0.39,-0.34 0.45,-0.35 0.95,-0.71 1.34,-1.12 1.25,0.06 2.57,0.14 3.85,0.09 -0.17,0.14 -0.34,0.27 -0.51,0.4 -0.37,0.28 -1.03,0.67 -1.27,1.08l-0.01 0.01c-0.58,0.52 -1.04,1.24 -1.52,1.85 -0.45,0.57 -1.04,1.14 -1.41,1.78 -1.35,-0.12 -2.75,-0.07 -4.12,-0.01 0.34,-0.42 0.65,-0.89 0.97,-1.29 0.46,-0.58 1.03,-1.17 1.42,-1.81 1.18,0.05 2.4,0.1 3.58,-0.01 0.39,-0.04 0.36,-0.55 -0.01,-0.59zm-18.29 7.99l0.41 0.02c-0.05,1.23 -0.02,2.48 0.01,3.71 0.01,0.39 0.59,0.37 0.6,-0.02 0.03,-1.21 0.06,-2.44 0.01,-3.66 0.16,0.01 0.32,0.01 0.47,0.02 -0.08,1.33 -0.03,2.67 -0,4 -0.5,0.01 -0.99,0.01 -1.49,0.02 0.05,-1.34 0.15,-2.76 0,-4.09zm-6.55 2.79c0.29,-0 0.58,-0.01 0.87,-0.02 -0.29,0.19 -0.58,0.38 -0.87,0.58 0,-0.19 -0,-0.38 -0.01,-0.57zm62.39 3.37c-8.94,0.09 -17.88,-0.01 -26.81,0.08 -0.51,0 -0.49,0.78 0.02,0.79 8.77,0.09 17.54,0 26.32,0.08 -0.31,0.6 -0.64,1.2 -0.98,1.78 -0.29,-0.01 -0.57,-0.03 -0.86,-0.04 -0.43,-0.01 -0.9,-0.08 -1.31,0.07 -0.39,0.14 -0.35,0.64 0.02,0.77 0.36,0.13 0.77,0.07 1.14,0.07 0.17,-0 0.33,-0.01 0.5,-0.01 -7.21,11.71 -20.14,19.53 -34.87,19.53 -15.64,0 -29.27,-8.83 -36.15,-21.77 4.77,0.33 9.75,0.01 14.51,-0.09 0.53,-0.01 0.51,-0.81 -0.02,-0.82 -4.92,-0.1 -10.07,-0.45 -14.98,-0.06 -0.29,-0.58 -0.56,-1.16 -0.82,-1.75 2.01,0.11 4.06,0.01 6.08,-0.04 0.14,0.33 0.63,0.3 0.76,-0.03 0.41,-0.06 0.43,-0.64 0.07,-0.77 0.02,-0.39 0.02,-0.79 0.01,-1.18 0.49,0.01 0.99,0.01 1.48,0.01 -0.08,0.76 -0.01,1.54 0.03,2.29 0.03,0.54 0.79,0.5 0.82,-0.02 0.04,-0.75 0.1,-1.51 0.03,-2.27 0.55,0 1.1,-0 1.65,-0.01 -0.02,0.41 -0.01,0.82 0.02,1.22l-0.04 0.03c-0.34,0.23 -0.17,0.8 0.19,0.81 0.21,0.27 0.7,0.17 0.75,-0.26l0 -0.05c0.87,-0.48 1.65,-1.15 2.46,-1.69l0.13 -0.12c0.26,-0.01 0.53,-0.02 0.79,-0.03 -0.01,0.3 -0.01,0.62 -0.01,0.92 -0,0.14 -0.02,0.34 -0.02,0.53 -0.21,0.01 -0.42,0.01 -0.64,0.02 -0.55,0.02 -0.53,0.83 0.02,0.85 7.85,0.26 15.74,0.04 23.59,0.05 7.56,0 15.13,0.12 22.69,-0.03 0.1,0.35 0.66,0.32 0.76,-0.02 0.22,-0.01 0.45,-0.01 0.68,-0.02 0.41,-0.01 0.48,-0.48 0.25,-0.7 0.75,-0.44 1.45,-1.04 2.09,-1.57 0.28,0 0.57,0.01 0.86,0.01 0.02,0.36 -0.02,0.73 -0.01,1.09l-0.3 -0.05c-0.9,-0.18 -0.91,1.29 0.03,1.1 0.2,-0.04 0.42,-0.07 0.63,-0.09l0.37 -0.03c0.69,-0.05 1.41,-0.05 2.13,-0.02 0.14,0.21 0.47,0.21 0.63,0.03 0.61,0.03 1.22,0.06 1.8,0.06 1.39,-0 2.77,-0.01 4.15,-0.06 -0.2,0.47 -0.42,0.93 -0.64,1.39zm-75.16 -3.46c2.28,0.02 4.57,0.06 6.86,0.09 -0.01,0.38 -0.01,0.76 0.01,1.14 -2.12,-0.05 -4.28,-0.16 -6.39,-0.01 -0.17,-0.4 -0.32,-0.81 -0.48,-1.21zm79.7 -6.79c0.45,-2.45 0.68,-4.97 0.68,-7.54 0,-23.19 -18.87,-42.06 -42.06,-42.06 -23.19,0 -42.06,18.87 -42.06,42.06 0,23.19 18.87,42.06 42.06,42.06 20.4,0 37.45,-14.59 41.26,-33.89 0.15,-0.08 0.24,-0.25 0.19,-0.46l-0.07 -0.17z"/>
  <path class="fil0" d="M14.87 63.59l-0.26 -0.14 -0.28 0.09 -2.44 2.02c-0.16,0.14 -0.18,0.37 -0.05,0.54l0.9 1.08 0.26 0.14 0.04 0 0.24 -0.09 0.05 -0.04c0.16,-0.14 0.18,-0.37 0.05,-0.54l-0.61 -0.74 0.69 -0.57 0.39 0.48 0.26 0.14 0.28 -0.09 0.05 -0.04c0.16,-0.13 0.18,-0.38 0.05,-0.54l-0.39 -0.48 0.42 -0.35 0.61 0.74 0.26 0.13 0.28 -0.08 0.05 -0.05c0.16,-0.13 0.18,-0.37 0.05,-0.54l-0.9 -1.08z"/>
  <path class="fil0" d="M18.46 69.18l-0.77 0.86c-0.08,-0.11 -0.22,-0.17 -0.36,-0.15l-0.07 0.01 -0.25 0.15 -0.07 0.21 -0.02 -0.02 -0.15 -0.3 0.11 -0.32 0.92 -1.03 0.31 -0.15 0.03 0 0.29 0.11 0.15 0.31 -0.11 0.32zm-0.41 -1.57c-0.34,0.02 -0.65,0.17 -0.88,0.42l-0.92 1.03c-0.23,0.26 -0.34,0.58 -0.32,0.92 0.02,0.35 0.16,0.65 0.43,0.88 0.21,0.19 0.46,0.3 0.72,0.32l0.04 0.24c0.03,0.19 0.19,0.32 0.38,0.32l0.06 -0.01 0.07 -0.01 0.25 -0.16 0.06 -0.28 -0.05 -0.3 0.27 -0.23 0.92 -1.02c0.23,-0.26 0.34,-0.57 0.32,-0.93 -0.02,-0.34 -0.17,-0.65 -0.42,-0.88 -0.26,-0.23 -0.58,-0.34 -0.92,-0.32z"/>
  <path class="fil0" d="M23.89 71.65l-0.06 -0.04c-0.18,-0.12 -0.41,-0.07 -0.53,0.11l-1.22 1.87 -0.28 0.2 -0.33 -0.06 -0.19 -0.28 0.06 -0.34 1.22 -1.87 0.05 -0.29 -0.17 -0.24 -0.06 -0.04c-0.18,-0.12 -0.41,-0.06 -0.53,0.11l-1.22 1.87c-0.19,0.29 -0.25,0.62 -0.18,0.96 0.07,0.34 0.26,0.61 0.55,0.81 0.21,0.14 0.44,0.21 0.69,0.21l0.27 -0.03c0.34,-0.07 0.62,-0.26 0.81,-0.55l1.22 -1.87 0.05 -0.29 -0.17 -0.24z"/>
  <path class="fil0" d="M26.99 75.76l-0.31 -0.14 0.36 -0.39 -0.06 0.53zm0.79 -2.06l-0.07 -0.03c-0.15,-0.07 -0.32,-0.03 -0.44,0.09l-2.21 2.39 -0.1 0.28 0.13 0.27 0.05 0.04c0.16,0.13 0.39,0.12 0.53,-0.03l0.41 -0.44 0.81 0.37 -0.06 0.6c-0.02,0.2 0.12,0.39 0.33,0.41l0.07 0.01 0.05 0 0.24 -0.08 0.14 -0.26 0.34 -3.24c0.02,-0.16 -0.07,-0.32 -0.22,-0.39z"/>
  <path class="fil0" d="M32.52 78.62l-0.92 -0.26 0.72 -2.58 -0.04 -0.29 -0.23 -0.18 -0.06 -0.02c-0.2,-0.05 -0.41,0.06 -0.47,0.26l-0.84 3.01c-0.06,0.2 0.06,0.42 0.26,0.47l1.36 0.38 0.1 0.02 0.19 -0.05 0.18 -0.23 0.02 -0.06c0.06,-0.2 -0.06,-0.41 -0.27,-0.47z"/>
  <path class="fil0" d="M43.46 78.34c-0.08,0.06 -0.2,0.09 -0.34,0.09l-0.4 0.01 -0.03 -0.89 0.43 -0.01 0.31 0.08c0.07,0.04 0.15,0.12 0.15,0.35 0.01,0.24 -0.07,0.32 -0.13,0.37zm0.47 0.7c0.34,-0.23 0.51,-0.6 0.5,-1.09 -0.02,-0.58 -0.3,-0.88 -0.53,-1.03 -0.22,-0.14 -0.47,-0.21 -0.77,-0.21l-0.91 0.03c-0.21,0.01 -0.38,0.18 -0.37,0.39l0.09 3.13 0.12 0.27 0.26 0.11 0.01 -0 0.07 -0c0.21,-0.01 0.37,-0.18 0.37,-0.39l-0.03 -0.96 0.37 -0.01 0.6 1.13c0.1,0.18 0.32,0.25 0.5,0.17l0.06 -0.03 0.2 -0.22 -0.03 -0.3 -0.51 -0.97z"/>
  <path class="fil0" d="M48.38 76.19l-0.07 0.01 -0.25 0.16 -0.06 0.29 0.56 3.05c0.03,0.18 0.19,0.31 0.38,0.31l0.07 -0 0.07 -0.01 0.25 -0.16 0.06 -0.29 -0.56 -3.05c-0.04,-0.21 -0.23,-0.34 -0.44,-0.3z"/>
  <path class="fil0" d="M55.2 76.07c-0.07,-0.2 -0.29,-0.31 -0.49,-0.24l-0.52 0.18 -0.22 0.2 -0.02 0.29 0.02 0.06c0.07,0.2 0.29,0.3 0.49,0.24l0.09 -0.03 0.29 0.84 -0.42 0.15 -0.35 -0.01 -0.22 -0.26 -0.45 -1.3 0.03 -0.35 0.25 -0.21 0.81 -0.28 0.22 -0.19 0.02 -0.29 -0.02 -0.06c-0.07,-0.2 -0.29,-0.3 -0.48,-0.24l-0.81 0.28c-0.3,0.11 -0.54,0.3 -0.7,0.58 -0.18,0.32 -0.21,0.68 -0.09,1.04l0.45 1.3c0.11,0.33 0.34,0.59 0.64,0.74 0.17,0.08 0.35,0.12 0.54,0.12 0.15,0 0.29,-0.03 0.44,-0.08l0.85 -0.29 0.22 -0.19 0.02 -0.29 -0.59 -1.69z"/>
  <path class="fil0" d="M59.56 72.5l-0.23 -0.19 -0.29 0.03 -0.06 0.03c-0.19,0.1 -0.26,0.33 -0.16,0.51l0.45 0.85 -0.79 0.42 -0.45 -0.85 -0.23 -0.19 -0.29 0.03 -0.06 0.03c-0.18,0.1 -0.26,0.33 -0.16,0.52l1.45 2.74 0.23 0.19 0.11 0.02 0.18 -0.04 0.06 -0.03c0.18,-0.1 0.26,-0.33 0.16,-0.52l-0.61 -1.15 0.79 -0.42 0.61 1.15 0.22 0.19 0.29 -0.03 0.06 -0.03c0.19,-0.1 0.26,-0.33 0.16,-0.52l-1.45 -2.74z"/>
  <path class="fil0" d="M63.52 70.35l0.36 -0.26c0.17,-0.12 0.2,-0.37 0.08,-0.53l-0.04 -0.06 -0.25 -0.15 -0.28 0.07 -1.38 1.02 -0.15 0.25 0.07 0.28 0.04 0.06c0.13,0.17 0.36,0.2 0.53,0.08l0.36 -0.27 1.6 2.16 0.31 0.15 0.23 -0.07 0.06 -0.04 0.15 -0.25 -0.07 -0.28 -1.6 -2.15z"/>
  <path class="fil0" d="M67.44 68.49l0.05 -0.01 0.23 -0.06 0.21 -0.06 0.55 -0.18 0.23 -0.07c0.15,-0.03 0.22,-0.02 0.29,0.05l0.08 0.18 -0.08 0.2c-0.01,0.01 -0.14,0.13 -0.82,0.39 -0.17,0.07 -0.27,0.24 -0.24,0.42l0.01 0.07 0.15 0.25 0.22 0.07 0.06 -0c0.21,-0.03 0.43,-0.11 0.65,-0.22 0.22,-0.11 0.4,-0.24 0.55,-0.39 0.24,-0.23 0.35,-0.53 0.32,-0.86 -0.02,-0.28 -0.13,-0.51 -0.32,-0.7 -0.3,-0.3 -0.7,-0.4 -1.21,-0.24 -0.2,0.07 -0.37,0.12 -0.51,0.17 -0.15,0.05 -0.27,0.09 -0.36,0.12 -0.16,0.05 -0.27,0.05 -0.37,-0.05l-0.08 -0.18 0.11 -0.23c0.04,-0.04 0.17,-0.14 0.6,-0.36 0.16,-0.08 0.24,-0.25 0.21,-0.42l-0.01 -0.07 -0.17 -0.25 -0.3 -0.04c-0.33,0.09 -0.64,0.27 -0.91,0.55 -0.25,0.25 -0.37,0.57 -0.34,0.89 0.02,0.27 0.13,0.5 0.32,0.7 0.24,0.24 0.55,0.36 0.89,0.32z"/>
  <path class="fil0" d="M22.48 12.29l-0.21 -0.2 -0.29 0.01 -0.09 0.04c-0.19,0.09 -0.28,0.31 -0.19,0.51l1.28 2.78 -1.48 -1.02 -0.45 0.01c-0.13,0.1 -0.18,0.27 -0.13,0.43l0.58 1.7 -2.34 -1.97c-0.16,-0.14 -0.4,-0.12 -0.54,0.04l-0.06 0.08 -0.09 0.28 0.13 0.26 3.53 2.98 0.25 0.09 0.23 -0.08 0.08 -0.06c0.13,-0.1 0.18,-0.27 0.13,-0.43l-0.62 -1.78 1.55 1.07 0.45 -0.01 0.08 -0.06c0.14,-0.11 0.19,-0.3 0.12,-0.46l-1.94 -4.2z"/>
  <path class="fil0" d="M28.8 11.57l0.47 -2.57c0.04,-0.2 -0.1,-0.4 -0.3,-0.44l-0.1 -0.02 -0.29 0.06 -0.16 0.25 -0.38 2.09 -1.82 -1.1 -0.29 -0.05 -0.23 0.18 -0.05 0.09c-0.11,0.18 -0.05,0.41 0.13,0.52l2.24 1.35 0.87 1.94c0.06,0.14 0.2,0.22 0.35,0.22l0.16 -0.03 0.09 -0.04 0.2 -0.21 -0.01 -0.29 -0.87 -1.94z"/>
  <path class="fil0" d="M34.69 7.87c0.13,-0.19 0.3,-0.3 0.53,-0.35l0.18 -0.02c0.16,0 0.3,0.05 0.44,0.14 0.19,0.12 0.3,0.3 0.35,0.52l0.39 1.97c0.05,0.23 0.01,0.43 -0.12,0.62 -0.13,0.19 -0.3,0.3 -0.52,0.35l-0.18 0.02c-0.16,0 -0.3,-0.05 -0.44,-0.14 -0.19,-0.13 -0.3,-0.3 -0.35,-0.53l-0.39 -1.97c-0.05,-0.23 -0.01,-0.43 0.12,-0.62zm-0.58 2.76c0.09,0.46 0.33,0.82 0.71,1.08 0.28,0.19 0.59,0.28 0.92,0.28l0.35 -0.03c0.46,-0.09 0.82,-0.33 1.08,-0.71 0.26,-0.39 0.34,-0.81 0.25,-1.27l-0.39 -1.97c-0.09,-0.45 -0.33,-0.82 -0.72,-1.08 -0.38,-0.26 -0.81,-0.34 -1.27,-0.25 -0.46,0.09 -0.82,0.33 -1.08,0.72 -0.26,0.38 -0.34,0.81 -0.25,1.27l0.39 1.97z"/>
  <path class="fil0" d="M41.47 11.29l0.1 0 0.27 -0.1 0.12 -0.27 0.09 -2.96 0.71 1.27 0.32 0.2c0.14,0 0.26,-0.06 0.33,-0.18l0.79 -1.22 -0.09 2.96 0.1 0.28 0.27 0.12 0.1 0 0.01 0c0.2,0 0.37,-0.16 0.38,-0.37l0.14 -4.52 -0.1 -0.28 -0.27 -0.12 -0.11 -0c-0.14,-0 -0.26,0.06 -0.33,0.17l-1.18 1.84 -1.07 -1.91 -0.32 -0.2 -0.11 -0 -0.27 0.1 -0.12 0.27 -0.14 4.52c-0.01,0.21 0.16,0.38 0.37,0.39z"/>
  <path class="fil0" d="M49.88 12.33l0.1 0.03 0.1 0.01c0.17,0 0.32,-0.11 0.37,-0.29l1.16 -4.37c0.05,-0.2 -0.07,-0.41 -0.27,-0.47l-0.1 -0.03 -0.29 0.04 -0.18 0.23 -1.15 4.37 0.04 0.29 0.23 0.18z"/>
  <path class="fil0" d="M55.26 14.27l0.09 0.05 0.29 0.03 0.23 -0.19 1.34 -2.52 0.07 3.48 0.2 0.33 0.1 0.05 0.18 0.04 0.11 -0.02 0.23 -0.19 2.12 -4c0.1,-0.19 0.03,-0.42 -0.16,-0.52l-0.09 -0.05 -0.29 -0.03 -0.22 0.19 -1.34 2.52 -0.07 -3.48 -0.2 -0.33 -0.1 -0.05 -0.29 -0.03 -0.23 0.19 -2.12 4c-0.1,0.19 -0.03,0.42 0.16,0.52z"/>
  <path class="fil0" d="M63.12 19.71l0.25 0.09 0.29 -0.13 1.71 -1.97 0.09 -0.28 -0.13 -0.26 -0.61 -0.53c-0.16,-0.14 -0.4,-0.12 -0.54,0.04l-0.07 0.08 -0.09 0.28 0.13 0.26 0.24 0.21 -1.08 1.25 -0.62 -0.54c-0.19,-0.16 -0.28,-0.34 -0.3,-0.56 -0.02,-0.22 0.05,-0.41 0.21,-0.6l1.31 -1.52c0.17,-0.19 0.36,-0.28 0.61,-0.29 0.21,0 0.4,0.07 0.56,0.21l0.95 0.82c0.16,0.14 0.4,0.12 0.54,-0.04l0.07 -0.08 0.09 -0.28 -0.13 -0.26 -0.95 -0.82c-0.32,-0.28 -0.7,-0.41 -1.14,-0.41 -0.49,0 -0.91,0.2 -1.25,0.58l-1.32 1.52c-0.31,0.36 -0.45,0.77 -0.42,1.23 0.03,0.45 0.23,0.84 0.59,1.15l0.99 0.86z"/>
  <path class="fil0" d="M37.73 61.25c0.89,-0.1 1.78,-0.09 2.67,-0.14 0.52,-0.03 0.49,-0.78 -0.02,-0.81 -0.9,-0.05 -1.78,-0.02 -2.67,0.12 -0.51,0.08 -0.52,0.89 0.02,0.83z"/>
  <path class="fil0" d="M46.25 60.86c0.55,0.03 1.1,0.01 1.63,-0.15 0.51,-0.15 0.26,-0.85 -0.23,-0.77 -0.47,0.08 -0.95,0.08 -1.42,0.11 -0.52,0.03 -0.49,0.78 0.02,0.8z"/>
  <path class="fil0" d="M38.21 64.12c-6.21,-0.06 -12.5,-0.27 -18.71,0.01 -0.52,0.02 -0.49,0.77 0.02,0.79 6.21,0.28 12.49,0.07 18.71,0.01 0.52,-0.01 0.5,-0.8 -0.02,-0.81z"/>
  <path class="fil0" d="M44.45 66.93c-0.51,0.01 -0.49,0.78 0.02,0.79 1.02,0.02 2.04,0.04 3.05,0.01 0.52,-0.02 0.49,-0.78 -0.02,-0.8 -1.02,-0.04 -2.04,-0.02 -3.05,0z"/>
  <path class="fil0" d="M51.53 67.85c0.38,0.01 0.76,0.02 1.15,0 0.52,-0.03 0.49,-0.77 -0.02,-0.8 -0.38,-0.02 -0.76,-0.01 -1.15,0 -0.51,0.02 -0.49,0.77 0.02,0.79z"/>
  <path class="fil0" d="M53.58 70.17c2.33,-0.04 4.67,-0.07 7,-0.15 0.55,-0.02 0.52,-0.83 -0.02,-0.85 -2.33,-0.07 -4.67,-0.11 -7.01,-0.15 -0.73,-0.01 -0.71,1.15 0.03,1.14z"/>
  <path class="fil0" d="M56.81 66.32c1.69,0.07 3.4,0.1 5.09,0.02 0.54,-0.02 0.51,-0.81 -0.02,-0.83 -1.69,-0.07 -3.4,-0.05 -5.09,0.02 -0.52,0.02 -0.49,0.78 0.02,0.8z"/>
  <path class="fil0" d="M61.78 64.43c1.19,0.1 2.38,0.04 3.56,-0.01 0.53,-0.02 0.5,-0.78 -0.02,-0.81 -1.19,-0.05 -2.38,-0.11 -3.56,-0.01 -0.54,0.05 -0.51,0.79 0.02,0.83z"/>
  <path class="fil0" d="M66.99 63.27c0.21,0.01 0.42,0.04 0.64,0.03 0.56,-0.03 0.53,-0.84 -0.02,-0.86 -0.22,-0.01 -0.42,0.02 -0.64,0.03 -0.52,0.02 -0.49,0.78 0.02,0.8z"/>
  <path class="fil0" d="M47.76 69.58c-1.38,-0.08 -2.83,-0.15 -4.2,0.02 -0.41,0.05 -0.57,0.72 -0.09,0.78 1.41,0.18 2.89,0.12 4.31,0.04 0.55,-0.03 0.52,-0.81 -0.02,-0.84z"/>
  <path class="fil0" d="M55 72.27c-2.24,-0.04 -4.49,-0.01 -6.73,0 -0.52,0 -0.49,0.8 0.02,0.8 2.24,0.01 4.48,0.04 6.73,0 0.52,-0.01 0.5,-0.8 -0.02,-0.8z"/>
  <path class="fil0" d="M41.29 72.44c0.53,-0.02 0.5,-0.8 -0.02,-0.81 -0.91,-0.03 -1.82,-0.05 -2.72,-0.06 -1.08,-0.02 -2.3,0.16 -3.36,-0.09 -0.9,-0.21 -0.92,1.33 0.03,1.1 0.91,-0.22 1.98,-0.08 2.92,-0.08 1.06,0 2.11,-0.03 3.16,-0.06z"/>
  <path class="fil0" d="M43.44 73.83c0.41,-0.1 0.37,-0.71 -0.02,-0.81 -0.7,-0.18 -1.44,-0.03 -2.15,0 -0.52,0.03 -0.49,0.78 0.02,0.81 0.71,0.03 1.44,0.17 2.15,-0z"/>
  <path class="fil0" d="M39.72 76.08c-0.7,-0.22 -1.56,-0.02 -2.27,0.01 -0.51,0.03 -0.48,0.76 0.02,0.79 0.72,0.04 1.57,0.23 2.27,0.01 0.41,-0.13 0.37,-0.68 -0.02,-0.81z"/>
  <path class="fil0" d="M24.02 68.56c0.41,-0.01 0.82,-0.03 1.23,-0.05 0.55,-0.02 0.52,-0.83 -0.02,-0.85 -0.36,-0.01 -0.72,-0.03 -1.08,-0.05 -0.39,-0.01 -0.82,-0.06 -1.19,0.09 -0.39,0.15 -0.35,0.63 0.02,0.77 0.33,0.13 0.69,0.09 1.04,0.08z"/>
  <path class="fil0" d="M29.86 62.88c1.16,0.15 2.37,0.05 3.54,0.02 0.52,-0.01 0.5,-0.79 -0.02,-0.81 -1.13,-0.03 -2.31,-0.14 -3.44,0.01 -0.41,0.05 -0.56,0.72 -0.09,0.78z"/>
  <path class="fil0" d="M42.46 63.42c1.12,-0.23 2.4,-0.09 3.55,-0.1 1.06,-0.01 2.11,-0.02 3.17,-0.04 0.53,-0.01 0.5,-0.81 -0.02,-0.82 -1.06,-0.02 -2.12,-0.03 -3.17,-0.04 -1.15,-0.02 -2.42,0.13 -3.55,-0.11 -0.9,-0.19 -0.91,1.3 0.03,1.1z"/>
  <path class="fil0" d="M55.67 63.01c0.6,0.03 1.19,0.02 1.78,0 0.52,-0.02 0.49,-0.78 -0.02,-0.8 -0.6,-0.02 -1.19,-0.02 -1.78,0.01 -0.52,0.02 -0.49,0.77 0.02,0.79z"/>
  <path class="fil0" d="M33 23.06c0.97,-0.37 1.62,-1.06 2.24,-1.82 0.17,0.71 0.72,1.36 1.3,1.94 0.33,0.33 0.93,-0.14 0.64,-0.51 -0.6,-0.77 -1.4,-1.64 -0.86,-2.65l0.03 -0.08c1,-0.99 2.28,-1.64 3.27,-2.63 0.14,0.2 0.32,0.37 0.56,0.62 0.23,0.24 0.61,0.14 0.77,-0.12 0.25,-0.41 0.46,-0.69 0.73,-0.85 0.07,1.32 -0,2.18 -0.97,3.38 -0.39,0.48 -0.99,1.47 -0.95,2.15 0.03,0.46 0.16,0.82 0.48,1.15 0.9,0.95 1.52,2.01 2.27,3.04 -1.42,1.23 0.46,2.87 -0.87,4.47 -0.32,0.38 0.15,1.07 0.58,0.72 0.54,-0.43 0.99,-0.78 1.15,-1.47 0.23,-1.01 -1.16,-2.48 0.11,-3.18 0.22,-0.12 0.32,-0.48 0.16,-0.69 -0.59,-0.77 -1.06,-1.61 -1.62,-2.4 -0.24,-0.33 -0.55,-0.62 -0.84,-0.91 -0.69,-0.69 -0.39,-1.42 0.06,-2.06 0.08,0.49 0.28,0.95 0.63,1.34 0.32,0.36 0.83,-0.12 0.62,-0.51 -0.4,-0.75 -0.35,-1.44 -0.18,-2.25l0 -0.03c0.18,-0.31 0.31,-0.61 0.39,-0.91 0.41,0.48 0.86,0.92 0.83,1.59 -0.05,1.06 0.61,2.13 1.43,2.78 0.48,0.38 1.12,-0.11 0.82,-0.67 -0.17,-0.32 -0.4,-0.6 -0.62,-0.89 -0.5,-0.65 -0.48,-1.26 -0.56,-2.02 -0.03,-0.24 -0.15,-0.38 -0.28,-0.58 -0.56,-0.87 -1.1,-1.63 -1.17,-2.72 -0.02,-0.29 -0.23,-0.47 -0.51,-0.48 -1.23,-0.05 -1.67,0.16 -2.23,0.99 -0.09,-0.12 -0.16,-0.26 -0.21,-0.5 -0.08,-0.36 -0.58,-0.46 -0.82,-0.2 -1.01,1.12 -2.35,1.78 -3.48,2.76 -1.22,1.06 -1.89,2.54 -3.26,3.46 -0.38,0.25 -0.12,0.94 0.34,0.76z"/>
  <path class="fil0" d="M49.53 24.27c1.23,-0.47 2.48,-0.11 3.67,-0.63 0.79,-0.35 1.46,-1.05 2.15,-1.63l0.03 0.05c0.13,0.67 0.31,1.35 0.6,1.93 0.57,1.14 1.47,1.82 2.35,2.71 0.84,0.84 0.75,2.1 1.67,2.88 0.76,0.65 2.06,0.77 2.96,1.13 0.42,0.17 0.95,-0.38 0.51,-0.7 -0.56,-0.42 -1.14,-0.67 -1.8,-0.88 -1.36,-0.46 -1.32,-1.14 -2,-2.2 -0.48,-0.75 -1.07,-1.32 -1.72,-1.91 -0.37,-0.33 -0.64,-0.7 -0.86,-1.09 0.8,0.58 1.73,0.92 2.72,0.89 0.56,1.63 2.39,3.16 3.97,1.87 0.32,-0.26 0.04,-0.86 -0.36,-0.82 -1.35,0.15 -2.34,-0.42 -2.61,-1.85 -0.06,-0.34 -0.44,-0.45 -0.73,-0.39 -1.71,0.33 -3.41,-1.39 -4.05,-2.8 -0.13,-0.28 -0.56,-0.35 -0.8,-0.19 -1.49,1.03 -2.33,2.28 -4.34,2.21 -0.62,-0.02 -1.11,0.18 -1.67,0.4 -1.01,0.38 -1.37,0.18 -2.19,-0.5 -0.34,-0.28 -0.88,0.1 -0.62,0.51 0.85,1.33 1.69,1.56 3.12,1.01z"/>
  <path class="fil0" d="M37.31 40.62c-0.28,0.01 -0.63,0.18 -0.81,0.39 -0.18,0.21 -1.78,-0.64 -2.03,-0.76 -0.46,-0.22 -0.84,0.46 -0.38,0.7 0.72,0.38 1.43,0.71 2.21,0.92 0.21,0.06 0.44,0.14 0.64,0.01l0.31 -0.26c0.32,-0.24 0.61,0.29 0.74,0.48 0.27,0.39 0.95,0.13 0.78,-0.36 -0.23,-0.67 -0.72,-1.15 -1.46,-1.12z"/>
  <path class="fil0" d="M62.48 44.69c-0.76,-0.56 -1.55,-1.04 -2.33,-1.55 0.08,-1.94 -1.35,-2.74 -3.14,-3.31 -3.22,-1.02 -4.48,-4.2 -7.21,-5.9 -0.25,-0.16 -0.54,-0.02 -0.69,0.2l-0.21 0.32c-1.63,-0.97 -3.46,-1.53 -5.32,-1.85 -0.33,-0.06 -0.66,0.16 -0.65,0.52 0.02,0.41 -0,0.82 -0.01,1.23 -2.93,-0.49 -2.41,2.95 -4.21,4.59 -0.33,0.3 0.14,0.9 0.5,0.61 0.73,-0.58 1.11,-1.24 1.45,-2.1 0.52,-1.3 0.85,-2.36 2.34,-2.02 0.29,1.1 1.43,1.78 2.23,2.56 0.34,0.33 0.91,-0.12 0.64,-0.52 -0.56,-0.83 -1.49,-1.35 -1.96,-2.22l0.06 -0.24c-0.02,-0.43 0,-0.85 0.01,-1.27 1.71,0.35 3.31,0.97 4.82,1.86 0.25,0.15 0.54,0.03 0.69,-0.2l0.2 -0.31c2.3,1.62 3.5,4.4 6.2,5.56 1.24,0.53 3.03,0.63 3.19,2.3 0.14,1.47 1.8,1.77 2.99,2.5 0.48,0.29 0.84,-0.43 0.41,-0.74z"/>
  <path class="fil0" d="M49.14 42.2c-0.84,-0.41 -1.71,-0.67 -2.52,-1.14 -0.95,-0.55 -1.84,-1.15 -2.87,-1.56 -0.46,-0.19 -0.86,0.48 -0.38,0.7 1.51,0.71 2.81,1.92 4.39,2.46 1.52,0.52 2.56,1.4 3.64,2.42 -0.16,0.02 -0.3,0.07 -0.42,0.18 -0.44,0.42 0.24,1.05 0.67,0.64 -0.37,0.36 0.78,0.15 0.95,0.14 0.39,-0.03 0.61,-0.51 0.31,-0.79 -1.21,-1.13 -2.27,-2.3 -3.78,-3.04z"/>
  <path class="fil0" d="M47.88 53.13c0.06,-0.34 0.12,-0.76 -0.02,-1.09 -0.09,-0.21 -0.43,-0.32 -0.54,-0.06 -0.08,0.2 -0.09,0.41 -0.1,0.62 -0.01,0.19 0.03,0.35 0.06,0.55 0.05,0.3 0.55,0.28 0.6,-0.02z"/>
  <path class="fil0" d="M43.14 51.89l-0.3 0.01c-0.22,0.15 -0.2,0.37 -0.21,0.61 -0.01,0.2 0.01,0.39 0.05,0.6 0.03,0.16 0.2,0.24 0.35,0.23l0.05 -0.01 0.01 0 0.01 -0 0.22 -0.23c0.04,-0.2 0.05,-0.4 0.05,-0.6 -0.01,-0.25 -0,-0.45 -0.22,-0.6z"/>
  <path class="fil0" d="M51.25 32.87c0.89,1.03 2.49,0.45 3.74,0.84l0.01 0.16c0.05,0.48 0.77,0.61 0.87,0.1l0.11 -0.34c0.11,-0.23 0.06,-0.58 -0.2,-0.69 -0.54,-0.23 -1.05,-0.4 -1.64,-0.46 -0.36,-0.03 -0.63,-0.08 -0.98,-0.07l-0.28 0.02c-0.72,0.15 -0.86,-0.38 -0.42,-1.58 0.43,-0.22 0.23,-0.8 -0.14,-0.93 -1.5,-0.53 -2.65,-1.68 -4.03,-2.44 -0.39,-0.21 -0.85,0.36 -0.47,0.65 1.11,0.86 2.17,1.84 3.43,2.45 -0.49,0.66 -0.6,1.58 0.01,2.28z"/>
  <path class="fil0" d="M48.35 32.91c0.83,0.39 1.63,0 1.34,-0.98 -0.13,-0.43 -0.38,-0.83 -0.6,-1.22 -0.16,-0.28 -0.46,-0.62 -0.54,-0.88 -0.13,-0.41 -0.83,-0.33 -0.77,0.12 0.07,0.54 0.38,1.03 0.64,1.5 0.12,0.21 0.22,0.43 0.31,0.66l-0.07 -0.02c-0.48,-0.11 -0.78,0.59 -0.32,0.81z"/>
  <path class="fil0" d="M72.33 27.73c-0.1,-0.45 -0.82,-0.32 -0.78,0.13 0.08,1.2 0.39,2.38 0.83,3.5 -0.41,-0.16 -0.77,0.38 -0.44,0.71 0.38,0.38 0.84,0.69 1.32,0.95 0.34,0.19 0.81,-0.15 0.67,-0.54 -0.6,-1.57 -1.23,-3.11 -1.59,-4.76z"/>
  <path class="fil0" d="M68.42 27.45c-0.05,-0.5 -0.76,-0.49 -0.78,0.02 -0.03,0.94 0.49,1.66 1,2.4 0.3,0.44 0.93,0.04 0.7,-0.43 -0.32,-0.65 -0.83,-1.25 -0.91,-1.99z"/>
  <path class="fil0" d="M63.27 33.96c0.91,1.08 1.25,2.5 2.14,3.6 0.9,1.12 2.27,1.46 3.29,2.43 0.34,0.33 0.93,-0.12 0.65,-0.53 -0.81,-1.19 -2.24,-1.48 -3.16,-2.53 -0.95,-1.08 -1.34,-2.51 -2.36,-3.56 -0.38,-0.38 -0.9,0.2 -0.56,0.59z"/>
  <path class="fil0" d="M71.18 39.02c0.78,0.24 1.44,0.73 2.09,1.21 0.39,0.28 0.81,-0.35 0.48,-0.66 -0.67,-0.66 -1.44,-1.16 -2.38,-1.33 -0.51,-0.09 -0.69,0.63 -0.19,0.78z"/>
  <path class="fil0" d="M57.94 33.41c0.33,0.41 0.96,0.05 0.71,-0.44 -0.11,-0.21 -1.43,-2.15 -1.2,-2.17 0.28,-0.03 0.44,-0.21 0.46,-0.48 0.16,-2.05 -2.09,-2.94 -2.33,-4.87 -0.06,-0.45 -0.78,-0.62 -0.86,-0.1 -0.33,2.07 1.71,2.93 2.17,4.66 -1.35,0.66 0.43,2.64 1.05,3.4z"/>
  <path class="fil0" d="M72.75 52.14c-2.26,-0.46 -3.95,-1.99 -5.67,-3.41 -0.34,-0.28 -0.94,0.12 -0.63,0.51 1.27,1.61 2.9,2.83 4.81,3.59 0.53,0.21 1.5,0.59 2.08,0.4 0.89,-0.29 2.01,0.49 2.9,0.68 0.53,0.11 0.7,-0.64 0.2,-0.81 -0.75,-0.25 -1.35,-0.95 -2.08,-1.13 -0.57,-0.14 -1,0.29 -1.61,0.16z"/>
  <path class="fil0" d="M45.26 26.25c0.13,0.28 0.3,0.53 0.48,0.78 0.19,0.26 0.46,0.63 0.81,0.68 0.26,0.04 0.59,-0.13 0.55,-0.44 -0.05,-0.38 -0.32,-0.61 -0.56,-0.88 -0.2,-0.23 -0.42,-0.44 -0.65,-0.65 -0.37,-0.32 -0.83,0.11 -0.63,0.51z"/>
  <path class="fil0" d="M23.74 32.51c0.99,0.54 1.84,1.27 2.83,1.81 0.85,0.46 2.02,0.14 2.92,0.07 0.47,-0.03 0.6,-0.78 0.09,-0.86 -1.1,-0.19 -2.03,0.13 -3.03,-0.5 -0.81,-0.51 -1.56,-1.08 -2.51,-1.31 -0.46,-0.11 -0.73,0.55 -0.3,0.78z"/>
  <path class="fil0" d="M31.27 36.35c0.25,-0.44 -0.32,-0.78 -0.67,-0.49 -0.73,0.61 -1.34,0.85 -2.27,0.57 -0.44,-0.13 -0.68,0.52 -0.29,0.74 1.2,0.68 2.53,0.42 3.23,-0.82z"/>
  <path class="fil0" d="M32.85 39c0.39,-0.3 0.14,-0.88 -0.35,-0.77 -0.4,0.09 -0.82,0.12 -1.21,-0.05 -0.17,-0.07 -0.36,-0.07 -0.49,0.08 -0.14,0.15 -0.16,0.44 0.01,0.58 0.62,0.47 1.36,0.68 2.03,0.16z"/>
  <path class="fil0" d="M26.72 30.05c0.6,0.02 1.28,-0.16 1.72,-0.59 0.3,-0.29 -0.03,-0.79 -0.42,-0.68 -0.46,0.13 -0.84,0.43 -1.32,0.48 -0.51,0.05 -0.49,0.77 0.02,0.79z"/>
  <path class="fil0" d="M29.29 44.26c0.34,-1.11 0.41,-2.16 -0.58,-2.94 -1.03,-0.8 -2.4,-0.99 -3.44,-1.75 -0.42,-0.31 -0.97,0.22 -0.57,0.6 0.69,0.67 1.55,1.06 2.41,1.48 0.41,0.2 0.81,0.42 1.17,0.71 0.58,0.47 0.23,1.2 0.22,1.81 -0.01,0.47 0.66,0.51 0.79,0.09z"/>
  <path class="fil0" d="M32.75 45.9c-0.4,-0.17 -0.83,-0.34 -1.27,-0.4 -0.35,-0.05 -0.72,0.4 -0.37,0.68 0.68,0.55 1.7,1.03 2.58,1.1 0.36,0.02 0.58,-0.53 0.29,-0.75 -0.37,-0.28 -0.8,-0.45 -1.22,-0.63z"/>
  <path class="fil0" d="M33.4 44.27c0.37,0.31 0.82,-0.1 0.62,-0.51 -0.24,-0.51 -0.76,-0.82 -1.26,-1.03 -0.57,-0.25 -1.06,-0.49 -1.47,-0.97 -0.27,-0.3 -0.85,0.04 -0.68,0.42 0.54,1.22 1.86,1.29 2.79,2.08z"/>
  <path class="fil0" d="M21.66 39.04c0.41,0.03 0.8,-0.09 1.19,-0.21 0.28,-0.09 0.39,-0.36 0.34,-0.63 -0.14,-0.64 -0.66,-1.43 -1.34,-1.59 -0.32,-0.07 -0.67,0.31 -0.44,0.61 0.23,0.3 0.48,0.55 0.65,0.86 -0.17,0.07 -0.34,0.13 -0.52,0.16 -0.49,0.08 -0.3,0.77 0.13,0.8z"/>
  <path class="fil0" d="M14.17 33.92c0.54,0.18 1.52,0.36 2.07,0.19 1.22,-0.37 1.93,0.38 3.01,0.88 0.4,0.18 0.88,-0.36 0.49,-0.66 -1.07,-0.81 -2.42,-1.99 -3.74,-1.16 -0.66,0.42 -1.64,0.12 -2.57,-0.43l-0.11 -0.31c-0.81,-1 0.11,-2.25 0.02,-3.41 -0.07,-0.99 -0.66,-1.96 -1.24,-2.74 -0.3,-0.41 -0.93,-0.03 -0.68,0.42 0.37,0.67 0.71,1.33 0.94,2.07 0.23,0.74 -0.06,1.44 -0.28,2.13 -0.08,0.26 -0.11,0.5 -0.11,0.74 -0.53,-0.48 -0.95,-0.97 -1.14,-1.33 -0.23,-0.42 -0.83,-0.1 -0.73,0.33 0.41,1.72 2.56,2.77 4.08,3.28z"/>
  <path class="fil0" d="M7.94 29.39c0.23,0.4 0.89,0.11 0.74,-0.33 -0.28,-0.81 -0.95,-1.28 -1.63,-1.76 -0.33,-0.23 -0.77,0.25 -0.54,0.56 0.42,0.56 1.07,0.92 1.43,1.53z"/>
  <path class="fil0" d="M20.02 48.59c-2.43,-0.06 -4.87,-2.82 -6.6,-4.39 -0.67,-0.6 -1.51,-0.6 -2.36,-0.58 -0.95,0.02 -1.5,-1.08 -2.38,-1.28 -0.51,-0.11 -0.68,0.62 -0.19,0.78 0.69,0.22 0.77,1.14 1.51,1.3 0.55,0.12 1.03,0.13 1.6,0.12 0.96,-0.02 1.74,0.85 2.5,1.33 2.01,1.28 3.37,3.48 5.95,3.6 0.57,0.02 0.56,-0.88 -0.02,-0.89z"/>
  <path class="fil0" d="M25.47 49.32c-0.42,-0.26 -1.3,-0.47 -1.39,-1.06 -0.06,-0.38 -0.14,-0.57 -0.34,-0.89 -0.33,-0.53 -1.22,-0.71 -1.75,-0.87 -1.28,-0.38 -2.35,-1.55 -3.39,-2.36 -0.43,-0.33 -0.97,0.21 -0.59,0.62 1.28,1.34 2.38,2.24 4.17,2.73 1.15,0.31 0.91,1.4 1.67,1.99 0.71,0.55 1.55,0.72 2.12,1.49 0.27,0.35 0.92,0.13 0.75,-0.34 -0.23,-0.66 -0.66,-0.94 -1.25,-1.31z"/>
  <path class="fil0" d="M28.13 48.28c-0.73,-0.22 -1.32,-0.57 -1.81,-1.16 -0.31,-0.38 -0.8,0.12 -0.62,0.5 0.68,1.38 2.38,1.77 3.77,2.1 0.39,0.09 0.71,-0.42 0.38,-0.7 -0.49,-0.41 -1.13,-0.56 -1.73,-0.74z"/>
  <path class="fil0" d="M13.5 48.63c-0.31,-0.4 -0.99,-0.02 -0.69,0.43 0.62,0.93 1.55,1.43 2.56,1.86 1.12,0.48 2.53,0.82 3.16,1.96 0.23,0.43 0.88,0.1 0.76,-0.34 -0.69,-2.55 -4.35,-2.07 -5.78,-3.91z"/>
  <path class="fil0" d="M4.37 32.99c-0.4,-0.35 -0.89,0.2 -0.56,0.58 0.43,0.49 0.86,1.05 1.42,1.4 0.35,0.22 0.76,-0.24 0.55,-0.57 -0.35,-0.55 -0.92,-0.99 -1.41,-1.41z"/>
  <path class="fil0" d="M13.66 38.95c0.31,0.38 0.84,0.13 0.76,-0.35 -0.3,-1.89 -3.24,-2.19 -4.42,-3.32 -0.38,-0.37 -0.87,0.19 -0.55,0.58 0.18,0.22 0.38,0.41 0.6,0.58 -0.72,-0.02 -1.42,-0.07 -2.13,-0.3 -0.46,-0.15 -0.66,0.51 -0.29,0.74 1.51,0.96 3.35,0.27 4.91,0.98 0.41,0.29 0.76,0.62 1.13,1.09z"/>
  <path class="fil0" d="M15.6 39.2c-0.21,1.03 0.03,2.18 0.98,2.75 0.41,0.25 0.81,-0.33 0.48,-0.65 -0.51,-0.5 -0.76,-1.18 -0.63,-1.89 0.1,-0.54 -0.72,-0.75 -0.83,-0.21z"/>
  <path class="fil0" d="M17.63 40.54c-0.2,0.67 0.02,1.39 0.42,1.93 0.25,0.35 0.94,0.12 0.74,-0.33 -0.22,-0.5 -0.36,-0.97 -0.37,-1.52 -0.01,-0.46 -0.66,-0.51 -0.79,-0.09z"/>
  <path class="fil0" d="M19.85 43.04c0.1,0.24 0.3,0.4 0.57,0.4 0.31,-0 0.51,-0.37 0.34,-0.63l-0.12 -0.14 -0.02 -0.04c-0.02,-0.53 -0.81,-0.51 -0.82,0.02l0.04 0.39z"/>
  <path class="fil0" d="M22.7 42.95c-0.39,-0.25 -0.81,0.34 -0.47,0.64 0.51,0.46 1.16,0.86 1.79,1.13 0.42,0.18 0.86,-0.32 0.49,-0.67 -0.51,-0.48 -1.23,-0.72 -1.81,-1.1z"/>
  <path class="fil0" d="M36.64 30.44c0.44,-0.02 0.55,-0.73 0.09,-0.79 -1.38,-0.18 -1.69,1.59 -2.6,2.24 -0.39,0.28 -0.11,0.79 0.33,0.72 0.58,-0.09 0.96,-0.67 1.22,-1.14 0.24,-0.43 0.39,-1 0.96,-1.03z"/>
  <path class="fil0" d="M38.35 30.53c0.45,0.16 0.97,0.26 1.45,0.24 0.43,-0.03 0.59,-0.6 0.2,-0.82 -0.46,-0.25 -1.05,-0.2 -1.56,-0.21 -0.49,-0.01 -0.49,0.65 -0.09,0.79z"/>
  <path class="fil0" d="M32.88 29c0.39,-0.68 0.78,-1.32 1.29,-1.91 0.36,-0.41 -0.21,-0.94 -0.61,-0.58 -0.66,0.58 -1.22,1.32 -1.42,2.19 -0.11,0.45 0.52,0.7 0.75,0.3z"/>
  <path class="fil0" d="M38.03 26.87c-0.41,-0.59 -1.01,-1.07 -1.68,-1.33 -0.46,-0.18 -0.65,0.52 -0.3,0.76 0.51,0.34 0.92,0.8 1.43,1.15 0.34,0.24 0.77,-0.25 0.55,-0.57z"/>
  <path class="fil0" d="M54.5 41.85c-1.88,-1.7 -4.71,-2.55 -5.74,-5.05 -0.2,-0.48 -0.86,-0.28 -0.76,0.23 0.5,2.63 4,4.19 5.99,5.52 0.42,0.28 0.88,-0.37 0.51,-0.7z"/>
  <path class="fil0" d="M57.54 44.54c-0.38,-0.09 -0.7,0.41 -0.38,0.68 1.43,1.2 2.64,2.38 3.54,4.04 0.25,0.47 0.85,0.09 0.77,-0.35 -0.29,-1.79 -2.14,-3.96 -3.94,-4.37z"/>
  <path class="fil0" d="M65.56 50.92c-0.95,-0.25 -1.69,-0.72 -2.48,-1.28 -0.33,-0.23 -0.78,0.25 -0.54,0.57 0.69,0.92 1.76,1.58 2.93,1.54 0.48,-0.02 0.55,-0.71 0.09,-0.83z"/>
  <path class="fil0" d="M64.31 46.76l0.02 0 0.07 0.04 0.29 0.21c0.38,0.21 0.77,-0.23 0.56,-0.59 -0.17,-0.3 -0.49,-0.52 -0.85,-0.47 -0.18,0.03 -0.34,0.12 -0.39,0.31 -0.05,0.21 0.08,0.44 0.3,0.49z"/>
  <path class="fil0" d="M67.07 45.34c0.26,1.22 1.01,2.24 2.2,2.68 0.49,0.18 0.67,-0.53 0.31,-0.79 -0.78,-0.54 -1.39,-1.24 -1.72,-2.13 -0.19,-0.5 -0.89,-0.28 -0.78,0.24z"/>
  <path class="fil0" d="M72.13 48.3l-0.01 0 -0 0 0.02 0.01 0.01 0.01 0.18 0.15c0.28,0.21 0.73,0.09 0.72,-0.32 -0.02,-0.5 -0.45,-0.82 -0.93,-0.68 -0.18,0.05 -0.31,0.23 -0.3,0.42 0,0.21 0.14,0.33 0.32,0.4z"/>
  <path class="fil0" d="M54.85 43.78c-0.29,-0.35 -0.86,0.13 -0.61,0.5 0.28,0.42 0.55,0.87 0.91,1.24 0.35,0.34 0.85,-0.12 0.63,-0.51 -0.24,-0.45 -0.61,-0.83 -0.93,-1.22z"/>
  <path class="fil0" d="M59.54 33.78c0.24,0.66 0.52,1.28 0.54,1.99 0.01,0.46 0.72,0.55 0.81,0.09 0.19,-0.89 -0.24,-1.64 -0.63,-2.41 -0.21,-0.41 -0.88,-0.1 -0.73,0.33z"/>
  <path class="fil0" d="M62.01 35.38c-0.32,-0.31 -0.9,0.14 -0.62,0.5l0.03 0.2c0.02,0.2 0.03,0.39 0.14,0.57 0.16,0.28 0.58,0.25 0.74,-0.02 0.12,-0.21 0.13,-0.48 0.07,-0.71l-0.13 -0.32 -0.23 -0.23z"/>
  <path class="fil0" d="M63.73 38.13c-0.52,0 -0.5,0.81 0.02,0.81 0.52,0 0.5,-0.81 -0.02,-0.81z"/>
  <path class="fil0" d="M35.51 37.78c0.68,-0.89 0.47,-2.19 -0.41,-2.88 -0.34,-0.27 -0.9,0.1 -0.63,0.51 0.44,0.63 0.6,1.24 0.32,1.97 -0.16,0.39 0.47,0.72 0.72,0.4z"/>
  <path class="fil0" d="M23.23 29.24c-0.35,-0.26 -0.71,-0.4 -1.1,-0.57 -0.2,-0.08 -0.43,-0.05 -0.54,0.16 -0.11,0.19 -0.03,0.44 0.16,0.54 0.33,0.19 0.69,0.33 1.02,0.51 0.39,0.21 0.85,-0.37 0.47,-0.65z"/>
  <path class="fil0" d="M29.47 32.47c1.16,0.38 2.11,1.06 2.5,2.27 0.14,0.43 0.89,0.35 0.82,-0.13 -0.22,-1.48 -1.62,-3.03 -3.23,-2.94 -0.47,0.03 -0.52,0.66 -0.09,0.8z"/>
 </g>
</svg>
